<svg version="1.1" xmlns="http://www.w3.org/2000/svg" x="0" y="0" viewBox="0 0 512 512" xml:space="preserve"><style type="text/css">.st0{fill:#ddd}.st1{fill:#36434f}</style><path class="st0" d="M407 0H105L79 26v460l26 26h302l26-26V26z"/><path class="st1" d="M408.8 216.7l3.7-3.4c6.7-6.1 10.4-14.7 10.4-23.7v-85.2c0-17-6.7-33.3-18.7-45.3l-26.5-26.5c-12-12-28.3-18.7-45.3-18.7h-153c-17 0-33.3 6.7-45.3 18.7l-26.5 26.5c-12 12-18.7 28.3-18.7 45.3v85.2c0 9 3.8 17.6 10.4 23.7l3.7 3.4c10.6 9.6 13.5 25.1 7.1 37.9l-8 16.1C93.6 288.3 89 307.8 89 327.5v80c0 17 6.7 33.3 18.7 45.3l26.5 26.5c12 12 28.3 18.7 45.3 18.7h153c17 0 33.3-6.7 45.3-18.7l26.5-26.5c12-12 18.7-28.3 18.7-45.3v-80c0-19.7-4.6-39.2-13.3-56.9l-8-16.1c-6.3-12.7-3.4-28.1 7.1-37.8z"/><path d="M315.4 65.9l-5 13.1c-1.5 3.8.2 8.2 3.8 10 23.3 11.6 40 34.6 42.5 61.7.4 4.1 3.8 7.3 8 7.3h14.1c4.7 0 8.4-4 8-8.7-3.1-38.7-26.9-71.6-60.3-87.7-4.4-2.1-9.4-.1-11.1 4.3z" fill="#122a3a"/><path class="st1" d="M120 493.6L97.4 471c-.8-.8-.8-2 0-2.8s2-.8 2.8 0l22.6 22.6c.8.8.8 2 0 2.8-.7.8-2 .8-2.8 0z"/><path class="st0" d="M94.1 496.9l-5.7-5.7-5.5 9.2c-.5.9-.7 2-.5 3l.4 1.7c.4 1.4 1.5 2.6 2.9 2.9l1.7.4c1 .3 2.1.1 3-.5l9.2-5.5-5.5-5.5z"/><path class="st1" d="M105.5 485.5c-3.5-3.5-9.2-3.5-12.7 0s-3.5 9.2 0 12.7 9.2 3.5 12.7 0 3.5-9.2 0-12.7zm-4.9 8.4c-.6-.2-1.3 0-1.7.4-.4.5-.7.4-.8-.2-.1-.6-.6-1.1-1.2-1.2s-.7-.5-.2-.8c.5-.4.7-1.1.4-1.7-.2-.6.1-.8.6-.6.6.2 1.3 0 1.7-.4.4-.5.7-.4.8.2.1.6.6 1.1 1.2 1.2s.7.5.2.8c-.5.4-.7 1.1-.4 1.7.2.5 0 .8-.6.6zm291.4-.3l22.6-22.6c.8-.8.8-2 0-2.8s-2-.8-2.8 0l-22.6 22.6c-.8.8-.8 2 0 2.8.7.8 2 .8 2.8 0z"/><path class="st0" d="M417.9 496.9l5.7-5.7 5.5 9.2c.5.9.7 2 .5 3l-.4 1.7c-.4 1.4-1.5 2.6-2.9 2.9l-1.7.4c-1 .3-2.1.1-3-.5l-9.2-5.5 5.5-5.5z"/><path class="st1" d="M406.5 498.2c3.5 3.5 9.2 3.5 12.7 0s3.5-9.2 0-12.7-9.2-3.5-12.7 0-3.5 9.2 0 12.7zm4.3-4.9c.2-.6 0-1.3-.4-1.7-.5-.4-.4-.7.2-.8s1.1-.6 1.2-1.2.5-.7.8-.2c.4.5 1.1.7 1.7.4.6-.2.8.1.6.6-.2.6 0 1.3.4 1.7.5.4.4.7-.2.8s-1.1.6-1.2 1.2-.5.7-.8.2c-.4-.5-1.1-.7-1.7-.4-.6.2-.8-.1-.6-.6zM120 18.4L97.4 41c-.8.8-.8 2 0 2.8s2 .8 2.8 0l22.6-22.6c.8-.8.8-2 0-2.8-.7-.8-2-.8-2.8 0z"/><path class="st0" d="M94.1 15.1l-5.7 5.7-5.5-9.2c-.5-.9-.7-2-.5-3l.4-1.7c.4-1.4 1.5-2.6 2.9-2.9l1.7-.4c1-.3 2.1-.1 3 .5l9.2 5.5-5.5 5.5z"/><path class="st1" d="M105.5 13.8c-3.5-3.5-9.2-3.5-12.7 0s-3.5 9.2 0 12.7 9.2 3.5 12.7 0 3.5-9.2 0-12.7zm-4.3 4.9c-.2.6 0 1.3.4 1.7.5.4.4.7-.2.8s-1.1.6-1.2 1.2-.5.7-.8.2c-.4-.5-1.1-.7-1.7-.4-.6.2-.8-.1-.6-.6.2-.6 0-1.3-.4-1.7-.5-.4-.4-.7.2-.8s1.1-.6 1.2-1.2.5-.7.8-.2c.4.5 1.1.7 1.7.4.6-.2.8.1.6.6zm290.8-.3L414.6 41c.8.8.8 2 0 2.8s-2 .8-2.8 0l-22.6-22.6c-.8-.8-.8-2 0-2.8.7-.8 2-.8 2.8 0z"/><path class="st0" d="M417.9 15.1l5.7 5.7 5.5-9.2c.5-.9.7-2 .5-3l-.4-1.7c-.4-1.4-1.5-2.6-2.9-2.9l-1.7-.4c-1-.3-2.1-.1-3 .5l-9.2 5.5 5.5 5.5z"/><path class="st1" d="M406.5 26.5c3.5 3.5 9.2 3.5 12.7 0s3.5-9.2 0-12.7-9.2-3.5-12.7 0-3.5 9.2 0 12.7zm4.9-8.4c.6.2 1.3 0 1.7-.4.4-.5.7-.4.8.2s.6 1.1 1.2 1.2.7.5.2.8c-.5.4-.7 1.1-.4 1.7.2.6-.1.8-.6.6-.6-.2-1.3 0-1.7.4-.4.5-.7.4-.8-.2-.1-.6-.6-1.1-1.2-1.2s-.7-.5-.2-.8c.5-.4.7-1.1.4-1.7-.2-.5 0-.8.6-.6z"/><path class="st0" d="M84.1 239v8l-10.4-2.6c-1-.3-1.9-.9-2.5-1.8l-.9-1.5c-.8-1.3-.8-2.8 0-4.1l.9-1.5c.5-.9 1.4-1.6 2.5-1.8l10.4-2.6v7.9z"/><path class="st1" d="M91.3 230c-5 0-9 4-9 9s4 9 9 9 9-4 9-9-4.1-9-9-9zm.4 6.5c.2.5.9.9 1.5.9.6-.1.8.3.4.8s-.3 1.3 0 1.7.2.8-.4.8c-.6-.1-1.3.3-1.5.9-.2.5-.6.5-.9 0-.2-.5-.9-.9-1.5-.9-.6.1-.8-.3-.4-.8s.3-1.3 0-1.7-.2-.8.4-.8c.6.1 1.3-.3 1.5-.9.3-.5.6-.5.9 0z"/><path class="st0" d="M427.9 239v8l10.4-2.6c1-.3 1.9-.9 2.5-1.8l.9-1.5c.8-1.3.8-2.8 0-4.1l-.9-1.5c-.5-.9-1.4-1.6-2.5-1.8l-10.4-2.6v7.9z"/><path class="st1" d="M411.8 239c0 5 4 9 9 9s9-4 9-9-4-9-9-9-9 4-9 9zm9.4-2.5c.2.5.9.9 1.5.9.6-.1.8.3.4.8s-.3 1.3 0 1.7.2.8-.4.8c-.6-.1-1.3.3-1.5.9-.2.5-.6.5-.9 0-.2-.5-.9-.9-1.5-.9-.6.1-.8-.3-.4-.8s.3-1.3 0-1.7-.2-.8.4-.8c.6.1 1.3-.3 1.5-.9.3-.5.6-.5.9 0z"/><path d="M105 0l-7.9 7.9L90.5 4c-.9-.5-2-.7-3-.5l-1.7.4c-1.4.4-2.6 1.5-2.9 2.9l-.4 1.7c-.3 1-.1 2.1.5 3l3.9 6.6L79 26v206.3l-5.3 1.3c-1 .3-1.9.9-2.5 1.8l-.9 1.5c-.8 1.3-.8 2.8 0 4.1l.9 1.5c.5.9 1.4 1.6 2.5 1.8l5.3 1.3V486l7.9 7.9-3.9 6.6c-.5.9-.7 2-.5 3l.4 1.7c.4 1.4 1.5 2.6 2.9 2.9l1.7.4c1 .3 2.1.1 3-.5l6.6-3.9 7.9 7.9h151V0H105z" opacity=".15" fill="#444"/></svg>