<svg version="1.1" xmlns="http://www.w3.org/2000/svg" x="0" y="0" viewBox="0 0 512 512" xml:space="preserve"><style type="text/css">.st0{fill:#ffb000}.st2{fill:#a53}</style><path class="st0" d="M408 293c-33.4 0-46.8-23.1-47.3-24.1l15.7-8.8c.3.5 9.1 14.9 31.7 14.9 25.1 0 60.8-19.6 73.8-48.7 7-15.6 7.7-30.5 2.1-40.9-4.6-8.4-13.1-13.6-25.2-15.5-27.5-4.3-41.4 37-41.6 37.4l-17.1-5.6c.8-2.3 18.9-56.2 61.4-49.6 22.4 3.5 33.2 15.3 38.3 24.7 8.4 15.3 7.8 36.1-1.5 56.9-16.4 36.6-59.6 59.3-90.3 59.3z"/><ellipse cx="256" cy="317" rx="256" ry="20" fill="#ff8b00"/><path class="st0" d="M256 111c-99.4 0-180 11.6-180 26 0 0 9 67 35 119s66 72 75 95h140c9-23 49-43 75-95s35-119 35-119c0-14.4-80.6-26-180-26z"/><path class="st2" d="M256 337c-141.4 0-256-9-256-20 0 34.8 114.6 63 256 63s256-28.2 256-63c0 11-114.6 20-256 20z"/><ellipse class="st2" cx="256" cy="382" rx="137" ry="12"/><path class="st2" d="M104 362l15 20h13l100-20zm304 0l-15 20h-13l-100-20z"/><path d="M341 220.4c-3.1 3.1-3.1 8.2 0 11.3l.9.9c3.1 3.1 4 7.3 1.9 9.4-2.1 2.1-5.3 2.2-7.2.3s-3.5-1.3-3.5 1.4-2.4 4.9-5.3 4.9-5.3-2.2-5.3-4.9-1.6-3.3-3.5-1.4-5.1 1.8-7.2-.3c-2.1-2.1-1.2-6.3 1.9-9.4l.9-.9c3.1-3.1 3.1-8.2 0-11.3l-.9-.9c-3.1-3.1-4-7.3-1.9-9.4 2.1-2.1 5.3-2.2 7.2-.3s3.5 1.3 3.5-1.4 2.4-4.9 5.3-4.9 5.3 2.2 5.3 4.9 1.6 3.3 3.5 1.4 5.1-1.8 7.2.3c2.1 2.1 1.2 6.3-1.9 9.4l-.9.9zm-70.8-.9c3.1-3.1 4-7.3 1.9-9.4-2.1-2.1-5.3-2.2-7.2-.3-1.9 1.9-3.5 1.3-3.5-1.4s-2.4-4.9-5.3-4.9-5.3 2.2-5.3 4.9-1.6 3.3-3.5 1.4-5.1-1.8-7.2.3c-2.1 2.1-1.2 6.3 1.9 9.4l.9.9c3.1 3.1 3.1 8.2 0 11.3l-.9.9c-3.1 3.1-4 7.3-1.9 9.4 2.1 2.1 5.3 2.2 7.2.3s3.5-1.3 3.5 1.4 2.4 4.9 5.3 4.9 5.3-2.2 5.3-4.9 1.6-3.3 3.5-1.4 5.1 1.8 7.2-.3c2.1-2.1 1.2-6.3-1.9-9.4l-.9-.9c-3.1-3.1-3.1-8.2 0-11.3l.9-.9zm-71.9 0c3.1-3.1 4-7.3 1.9-9.4-2.1-2.1-5.3-2.2-7.2-.3s-3.5 1.3-3.5-1.4-2.4-4.9-5.3-4.9-5.3 2.2-5.3 4.9-1.6 3.3-3.5 1.4-5.1-1.8-7.2.3c-2.1 2.1-1.2 6.3 1.9 9.4l.9.9c3.1 3.1 3.1 8.2 0 11.3l-.9.9c-3.1 3.1-4 7.3-1.9 9.4 2.1 2.1 5.3 2.2 7.2.3s3.5-1.3 3.5 1.4 2.4 4.9 5.3 4.9 5.3-2.2 5.3-4.9 1.6-3.3 3.5-1.4 5.1 1.8 7.2-.3c2.1-2.1 1.2-6.3-1.9-9.4l-.9-.9c-3.1-3.1-3.1-8.2 0-11.3l.9-.9z" fill="#cc584c"/><path d="M76 137s9 67 35 119c8.8 17.6 19.2 31.5 29.5 43.1C57.1 302.4 0 309.2 0 317c0 21.3 43.1 40.2 108.9 51.6L119 382c0 6.6 61.3 12 137 12V111c-99.4 0-180 11.6-180 26z" opacity=".15" fill="#444"/></svg>