<svg version="1.1" xmlns="http://www.w3.org/2000/svg" x="0" y="0" viewBox="0 0 512 512" xml:space="preserve"><ellipse cx="256" cy="317" rx="256" ry="20" fill="#c7b4a4"/><path d="M499.7 176.8c-5.1-9.3-15.9-21.2-38.3-24.7-11.3-1.8-20.9.8-28.9 5.5C434.9 145 436 137 436 137c0-14.4-80.6-26-180-26S76 122.6 76 137c0 0 9 67 35 119s66 72 75 95h140c6.9-17.7 32.3-33.7 55.4-63.8 6.9 3.4 15.7 5.8 26.6 5.8 30.7 0 73.9-22.7 90.2-59.3 9.3-20.8 9.8-41.6 1.5-56.9zm-17.9 49.5c-13 29.1-48.6 48.7-73.8 48.7-6.4 0-11.8-1.2-16.1-2.9 3.2-5 6.2-10.4 9.1-16.1 10.4-20.9 18.1-44.2 23.6-64.6 6.8-11.3 18.2-24 34-21.5 12.2 1.9 20.7 7.1 25.2 15.5 5.7 10.4 5 25.3-2 40.9z" fill="#e0ac7e"/><path d="M512 317c0 11-114.6 20-256 20S0 328 0 317c0 21.3 43.1 40.2 108.9 51.6L119 382c0 6.6 61.3 12 137 12s137-5.4 137-12l10.1-13.4C468.9 357.2 512 338.3 512 317zm-171-96.6c-3.1 3.1-3.1 8.2 0 11.3l.9.9c3.1 3.1 4 7.3 1.9 9.4-2.1 2.1-5.3 2.2-7.2.3s-3.5-1.3-3.5 1.4-2.4 4.9-5.3 4.9-5.3-2.2-5.3-4.9-1.6-3.3-3.5-1.4-5.1 1.8-7.2-.3c-2.1-2.1-1.2-6.3 1.9-9.4l.9-.9c3.1-3.1 3.1-8.2 0-11.3l-.9-.9c-3.1-3.1-4-7.3-1.9-9.4 2.1-2.1 5.3-2.2 7.2-.3s3.5 1.3 3.5-1.4 2.4-4.9 5.3-4.9 5.3 2.2 5.3 4.9 1.6 3.3 3.5 1.4 5.1-1.8 7.2.3c2.1 2.1 1.2 6.3-1.9 9.4l-.9.9zm-70.8-.9c3.1-3.1 4-7.3 1.9-9.4-2.1-2.1-5.3-2.2-7.2-.3-1.9 1.9-3.5 1.3-3.5-1.4s-2.4-4.9-5.3-4.9-5.3 2.2-5.3 4.9-1.6 3.3-3.5 1.4-5.1-1.8-7.2.3c-2.1 2.1-1.2 6.3 1.9 9.4l.9.9c3.1 3.1 3.1 8.2 0 11.3l-.9.9c-3.1 3.1-4 7.3-1.9 9.4 2.1 2.1 5.3 2.2 7.2.3s3.5-1.3 3.5 1.4 2.4 4.9 5.3 4.9 5.3-2.2 5.3-4.9 1.6-3.3 3.5-1.4 5.1 1.8 7.2-.3c2.1-2.1 1.2-6.3-1.9-9.4l-.9-.9c-3.1-3.1-3.1-8.2 0-11.3l.9-.9zm-71.9 0c3.1-3.1 4-7.3 1.9-9.4-2.1-2.1-5.3-2.2-7.2-.3s-3.5 1.3-3.5-1.4-2.4-4.9-5.3-4.9-5.3 2.2-5.3 4.9-1.6 3.3-3.5 1.4-5.1-1.8-7.2.3c-2.1 2.1-1.2 6.3 1.9 9.4l.9.9c3.1 3.1 3.1 8.2 0 11.3l-.9.9c-3.1 3.1-4 7.3-1.9 9.4 2.1 2.1 5.3 2.2 7.2.3s3.5-1.3 3.5 1.4 2.4 4.9 5.3 4.9 5.3-2.2 5.3-4.9 1.6-3.3 3.5-1.4 5.1 1.8 7.2-.3c2.1-2.1 1.2-6.3-1.9-9.4l-.9-.9c-3.1-3.1-3.1-8.2 0-11.3l.9-.9z" fill="#a18267"/><path d="M76 137s9 67 35 119c8.8 17.6 19.2 31.5 29.5 43.1C57.1 302.4 0 309.2 0 317c0 21.3 43.1 40.2 108.9 51.6L119 382c0 6.6 61.3 12 137 12V111c-99.4 0-180 11.6-180 26z" opacity=".15" fill="#444"/></svg>