<svg version="1.1" xmlns="http://www.w3.org/2000/svg" x="0" y="0" viewBox="0 0 512 512" xml:space="preserve"><style type="text/css">.st3{fill:#525355}</style><path d="M484.1 158.9c-14-5.4-26.6-6.5-28.2-2.4 0 .1 0 .1-.1.2v.1c-.1.4-.1.8 0 1.2 0 0 1.3 8.3-.2 12L395 327.6c-4.3 11.6 1.5 24.5 13 28.9 11.6 4.4 24.5-1.3 29.1-12.8l60.6-157.6c1.2-3.1 7.9-9.1 7.9-9.1.3-.3.6-.6.8-.9v-.1c0-.1.1-.1.1-.2 1.7-3.9-8.4-11.6-22.4-16.9zm12.8 13.8c-.9 2.3-8.6 1.4-17.3-1.9-8.7-3.3-15-7.9-14.1-10.2s8.6-1.4 17.3 1.9c8.6 3.3 14.9 7.9 14.1 10.2z" fill="#d2d2d2"/><path d="M474.9 228l-43.7 113.6c-3.2 8.1-12.6 12.4-20.9 9.2-8.3-3.2-12.8-12.8-9.8-21l27.9-72.6s3.5-5.6 10.3-9.6 12.5-3.2 20.1-6.5c7.7-3.4 16.1-13.1 16.1-13.1z" fill="#be0000"/><path d="M438 258.9c.4.9 0 1.9-.9 2.3s-1.9 0-2.3-.9 0-1.9.9-2.3c.8-.4 1.9 0 2.3.9zm12.3 12.3c.6 1.3 0 2.9-1.3 3.5s-2.9 0-3.5-1.3 0-2.9 1.3-3.5 2.9 0 3.5 1.3zm-15.5 14.2c1.1 2.5 0 5.4-2.5 6.6-2.5 1.1-5.4 0-6.6-2.5-1.1-2.5 0-5.4 2.5-6.6 2.6-1.1 5.5 0 6.6 2.5zm-10.1 10.2c.6 1.3 0 2.9-1.3 3.5s-2.9 0-3.5-1.3 0-2.9 1.3-3.5c1.3-.7 2.9-.1 3.5 1.3zm9.7 20c.4.9 0 1.9-.9 2.3s-1.9 0-2.3-.9 0-1.9.9-2.3 1.9 0 2.3.9z" opacity=".5" fill="#fff"/><path class="st3" d="M114.2 255.1c-.7 0-2 1.3-.9 1.8 1.4.5 2.1 1.8 2.1 3.6-1.3 7.3-10.4 15.7-14 18.6-.9.9.4 2.9 1.3 2.1 2-1.6 6.1-4.8 9.5-9.1-5.5 12.3-16.3 28.2-20.4 33.8-16.1 22.3-40.6 42.9-57.4 42.9-13.4 0-24.9-9.1-27.4-22.5-.2-1.4-2.1-1.8-1.8.2 3 18.4 17.2 25.6 34.4 25.6 18.8 0 40.8-13.6 53-27.5 19.6-22.5 32.4-48.4 29-63.1-1.5-5.6-5.2-6.5-7.4-6.4zm7.9-6.9c2.7 2.1 7.5.9 10.7-2.7 3.4-3.8 3.9-8.6 1.3-10.7-2.7-2.1-7.5-.9-10.7 2.9-3.5 3.7-4 8.3-1.3 10.5zm310-28.2c3.8-6.4 3.6-11.4-5.2-11.4-6.6.2-18.6 4.8-24.2 9.1-1.3 1.3-.7 2 .9 1.3 1.1-.4 2.3-1.1 3.6-1.6 6.3-3.4 3.8 3.8 2.3 6.4-7.5 13.1-20.8 31.5-27.7 40.6-3.3 4.5-7.1 9-10.7 12.8-6.7 6.4-20 17.7-30 21.5-32.6 12.2 8.9-43.3 12.3-47.7 7.7-9.7 24.9-26.5 30.1-34.9 3.8-6.4 3.6-11.4-5.2-11.4-6.6.2-18.6 4.8-24.2 9.1-1.3 1.3-.7 2 .9 1.3 1.1-.4 2.3-1.1 3.6-1.6 6.3-3.4 3.8 3.8 2.3 6.4-7.5 13.1-20.8 31.5-27.7 40.6-5.7 7.7-12.7 15.4-18.1 19.7-2.1 1.8-.9 3.4 1.3 2 2-1.3 4.8-4.1 8.1-7.5-5.9 11.8-10.7 28.4 4.8 30.4 13.3 1.8 29-11.7 39.2-21.8 1.1-1.1 2.4-2.3 3.7-3.7l.9-.9c-5.9 11.8-10.7 28.4 4.9 30.3 17 2.3 38.1-20.6 46.3-29 1.6-1.6 1.1-4.3-1.6-1.6-4.8 5-21.1 19.8-32.9 24.3-32.6 12.2 8.9-43.3 12.3-47.7 7.6-9.8 24.8-26.6 30-35zM235 304.2c5.2-1.3 9.5-4.2 9.5-8.6 0-.4-.9-.4-.9 0 0 2.7-3 4.9-6.4 5.4-8.1 1.3-24-8.2-31.5-17.8 8.1 3 24.5-1.4 32.2-7 7.2-5.2 10-10.9 10.6-15.5.9-7.7-7.5-12.2-19.1-7.7-7.5 3-16.5 9.7-25.8 22 9.8-16.3 29.2-42.7 48.1-59.7 23.1-20.6 36.5-16.6 15.7 5.2-8.6 8.9-24.7 20.6-35.8 25.6-3.4 1.4-1.8 3.4.7 2.3 11.8-5.2 27.6-15.9 37-24.9 28.1-27 4.7-47.4-26.5-18.8-21.1 19.5-34.9 39.9-46.9 66.3-4.1 5-7.2 9.1-10.9 12.3l-1.1 1.1c-10.3 8.9-26.6 20.8-36.6 21-7.2.2-10.2-5.2-8.9-12.2 2-10.9 13.2-23.8 22.9-28.2 12.5-5.7 19.9 5.4 3.4 14.3-6.3 3.2-13.8 5-16.8 5-3.6 0-3.2 1.4-.2 1.6 5 .2 13.1-2 18.4-4.5 16.8-8 17.9-23.1-.4-23.6-19.9-.7-43.7 16.3-43.5 37.5.2 9.7 7.9 14.8 18.4 14.8 17.6-.2 33.3-13.5 46.1-25.3 1.8-1.5 3.6-3.2 5.4-5-4.5 11.4-6.8 22-5.7 29.9.7 5.7 3.9 8.4 6.4 10.5.5.4 1.6 0 .9-1.1-3.8-4.5-2.7-17.7 2.5-30.6 4.4 8.7 21.2 19.6 38.8 15.7zm-21.2-37.3c20.6-18.4 28.6-2 15.6 8-6.8 5.2-20.2 9.1-24.5 6.6l-.9-.5c-.5-.9-1.1-1.8-1.4-2.7 3.4-4.1 7.3-7.9 11.2-11.4z"/><path class="st3" d="M328.1 246c8.2.9 4.8-9.1-3.6-6.6-3.8 1.1-7.3 8.2-10 14.5-8.2 12.3-22 29.1-31.7 37.9-8.6 7.3-16.5 9.3-6.8-4.5 3.9-5.5 8.9-11.4 11.8-17.3 6.8-14.8-7.7-21.5-19.3-12.5-6.8 5.2-15.9 15.9-23.1 21.8-2 1.6-1.4 3.9.5 2.3 5.7-4.6 15.7-15.2 24.3-21.5 7.2-5.5 10-2 5.9 2.7-5.7 6.6-15.7 18.1-18.3 25.4-3.6 10.9.7 15.7 7.9 15.7 9.8 0 24.5-15.4 34.4-27.5 3.2-4.1 6.8-8.9 9.8-13.6-8.6 16.6-17.5 33.4-28.6 48.6-15.7 21.5-35.4 37.5-54 37.5-13.4 0-25.1-9.1-27.6-22.5-.2-1.4-2-1.8-1.8.2 3 18.4 17.2 25.6 34.4 25.6 18.8 0 36.9-10.9 49.6-24.3 25.6-27 28.6-57.4 36.5-74.4 3.6-7.5 7-7.9 9.7-7.5z"/></svg>