<svg version="1.1" xmlns="http://www.w3.org/2000/svg" x="0" y="0" viewBox="0 0 512 512" xml:space="preserve"><path d="M357.7 216.4c6.2-.4 14.3-.8 19.5 3.2 4.8 3.8 4.7 9.6 2.3 14.7-1.4 3-3.2 5.9-5.1 8.6-1.8 2.6-4.7 5.1-6.1 8-1.5 3 1.9 3.1 4.2 4.5 2.7 1.7 5.1 4.1 7.2 6.5 4.3 5 6.3 10.7 5 17.2-.6 3.2-1.8 6.4-3.2 9.3-1.4 2.9-4.1 4.9-6.4 7.1-4.3 4.2-11 8.6-16.8 10.4-6.5 2.1-12.7.4-18.1-3.6-5.5-4.1-5.5-10.8-2.2-16.6 1.4-2.5 3.6-4.9 6.6-3.4 2.3 1.1 4.6 5 4.9 7.5.2 1.9-1.8 6.2.7 6.8 2.1.5 6.6-2.9 8.3-4 5.2-3.4 9.7-8.1 11.7-14.1 1.9-5.5.9-13.2-5.5-15.1-5.9-1.7-9.8 4.4-15 2.9-2.4-.7-5-1.3-6.8-3-.8-.8-2.2-2.5-2.3-3.8-.2-2.1.9-2.2 2.7-3.4 5.2-3.3 10.2-7.9 14.1-12.7 2.4-3 4.4-6.4 6.4-9.7 1.3-2.1 4.6-5.7.8-6.4-3.5-.6-8.8.3-12.1 1.2-3.8 1-5.9 4.2-10.1 2.8-2.8-.9-6.1-1.9-7.2-4.8-.9-2.3-.7-4.8 1.1-6.6 2.1-2.1 6.5-2 9.2-2.7 4.3-.7 7.9-.8 12.2-.8zM56.8 334.9c-21.8-1.4-27.4-25-28.9-42.8-1-11.4-.4-22.9.5-34.3.9-11 4.2-20.5 8.4-30.6 1.9-4.5 4.4-8.7 6.5-13.1 1.4-3.1 4.9-5.2 8.5-4.1 4.3 1.3 6.7 5.7 5.2 9.8-1.7 4.5-5.1 8.5-7.2 12.8-4.7 9.5-8.4 20-9.1 30.5-.7 10.5-.9 21.4-.1 32 .8 9.2 2 24.2 11.4 29.1 3.8 1.9 10.4-1.5 12.5 3.8 1.9 4.9-4.1 6.9-7.7 6.9zM177.1 204c8.4.1 9.8 12.6 11.9 18.5 3.3 9.2 6.3 17.6 7.7 27.4 1.5 10.1 2 19.6 0 29.7-1.9 9.5-6.2 17.8-10.3 26.4-2 4.2-3.9 8.4-5.7 12.7-1.7 3.9-2.3 8-7.4 7.9-3.2 0-7.6-2.6-8.9-5.5-1.7-3.6 3.2-7.1 5-10 10.1-16.1 16.5-34.9 15.7-54-.4-10.3-2.6-20.3-6.4-29.9-2.1-5.2-4.2-10.2-6.8-15.1-.8-1.5-2.4-3.6-1.4-5.4 1-1.8 4.8-2.2 6.6-2.7zm253.2 69.4c-3.3 5.2-6.5 10.4-9.8 15.5-2.3 3.6-5.3 10.8-10.3 11-3.7.1-9.6-3.4-8.7-7.7.6-2.5 3.2-5.1 4.6-7.2 1.7-2.5 3.4-4.9 4.9-7.5 1.6-2.6 3.2-5.3 4.7-8 1-1.7 3.9-5.3 3.9-7.1 0-3.9-7.7-8.5-10.2-11.2-1.8-1.9-4-4.1-2.2-6.8 1.4-2.1 4.7-2.9 7.1-2.7 5.6.5 8.3 5.1 11.6 8.9 2.4-3.5 5-9.7 9.4-11.1 4.1-1.3 9 .2 10.7 4.5 1.9 4.7-4.3 9.3-6.7 12.8-1.1 1.7-3 4.3-2.7 6.4.3 2 4.2 5.8 5.5 7.4 3.7 4.9 8 9.6 11.3 14.8 2.2 3.4 2.9 9.9-2.7 9.8-5-.1-8.3-4.5-10.8-8.4-3-4.7-6.3-9-9.6-13.4z"/><path d="M80.6 275.5c4-5.7 8-11.3 12.8-16.4 2-2.2 3.7-4.2 7-3.7 2.3.4 5.2 2.4 5.7 4.8.7 3.1-2.7 5.4-4.5 7.4-2.2 2.5-4.2 5.1-6.2 7.7-2.1 2.8-4.4 5.6-6.2 8.6-2 3.2-.3 4.8 1.6 7.8 3.4 5.6 6.3 11.9 10.9 16.6 2.5 2.6 10.5 8 4 11.4-11.1 5.8-21-16.9-25.4-23.6-1.8 2.7-3.6 5.5-5.4 8.2-1.4 2.1-3.8 4.8-4.5 7.2-.5 1.7.2 4.1-1.2 5.5-.7.7-4 1.5-4.8 1.4-1.8-.2-5.3-2.6-6.6-4-2.1-2.4-1-4.6.6-6.8 3.7-5.3 7.3-10.5 11.1-15.7 1.5-2.1 4.5-4.7 3.7-7.4-.8-2.5-3.5-5.4-5-7.5-1.6-2.3-3.4-4.5-5.3-6.5-1.3-1.4-4.3-3.5-4.1-5.8.5-4.3 8.3-5.4 11.3-3.2 4.8 3.7 6.4 10.1 10.5 14zm393.3-63.6c-3.6.7-3.6 5.4-6.6 7.1-2.5 1.4-6.7 1.4-9-.5-1.3-1-2.3-3.1-3.2-4.5-1.6-2.6-.4-3.2 1.3-5.5 2.8-3.6 5.5-7.4 9.9-9.2 8.6-3.5 18.7 1 21.4 9.8 3.1 10-5.3 16.8-10.7 23.7 5.8 3.3 20.1-.5 22.1 8.4 2.1 9.5-18 4-22.1 3.3-4.3-.8-8.5-2-12.4-4.3-2.7-1.6-8.5-5.6-6.8-9.5.8-1.7 3.5-2.8 4.9-3.9 1.8-1.4 3.5-2.9 5.1-4.5 2.8-2.7 6.1-6.3 6.1-10.4zm-351.5 24.8c.3-3 .3-4.6 2.9-6.5 2.1-1.5 6.6-3.1 6.4-6-3.7 1.3-6.5 2.6-10.5 1.8-2.7-.6-5.4-1.3-7-3.6-5.3-7.2 5-8.1 9.9-9.1 7.3-1.4 14.1-2.6 19.9 2.7 4.8 4.3 4 11.8.7 16.7-1.4 2.1-1.6 2.3.1 4.3 1 1.2 2.2 2.2 3.1 3.5 2.2 2.8 3.8 6.2 5.2 9.5 2.8 6.6-.3 10.8-6.4 13.5-6.2 2.8-14 3.6-20.2.2-2.1-1.2-5.2-3.5-5.6-6.1-.5-3.2 3.3-4.9 6-4.1 1.6.5 2.8 1.7 4.4 2 2.1.4 4.2-.3 5.9-1.3 3.4-1.9 3.4-3.7 1.7-6.9-1.7-3.1-3.7-4.3-7.1-5.2-4-1.1-6.3-2.9-9.4-5.4zm96.6-57.4c4-.2 5.9 3.1 7.8 6.1 1.9 2.9-.8 6.3-1.5 9.3-1.1 4.8-1.7 9.7-2.5 14.6-.7 4-.5 9.4-4.6 11.7-2.8 1.6-7.5-.6-9-3.4-1.7-3.3 1.1-9.6 1.6-13.1.8-5.3 1.2-10.6 1.8-15.9.6-4.7.3-9.8 6.4-9.3zm73 111.9c-5.3-.4-10.6-.9-16-1.3-4.7-.3-9.2.9-13.5-1.4-3.3-1.8-6.4-4.6-3.6-8.1 3.2-4.2 7.6-2.5 12.3-2.1 4.6.4 9.2.8 13.8 1.4 4.4.6 9.6-1.1 13.7.2 3.2 1 5.4 3.6 3.5 6.9-2 3.4-6.6 3.9-10.2 4.4zm-7.1-24.6c-4.1-.3-8-.7-12-.2-4.2.4-7.6-.3-11.1-3-1.1-.9-3.4-2.7-3.7-4.2-.4-2 1.5-2.7 3.1-3.8 1.5-1 2.4-1.7 4-1.8 2.4-.2 5.5 1 8 1.3 4.8.6 9.6 1 14.4.9 4-.1 8.8-1.7 12.2.7 3.9 2.8 3.5 5.7-.7 7.9-4 2.1-9.7 1.7-14.2 2.2z"/></svg>