<svg version="1.1" xmlns="http://www.w3.org/2000/svg" x="0" y="0" viewBox="0 0 512 512" xml:space="preserve"><path d="M81.3 222c-12.1-.7-23.9-1.7-35.8-3.4-4.4-.6-4.1 1.2-5.1 5.1-1.6 6.4-3.4 12.7-4.7 19.1-.3 1.7-1.8 5.5-1 7.2.8 1.7 4.4 1.5 6 1.8 6.4 1.1 12.6 1.6 19.1 1.7 10.8.1 25.1-2.5 34.5 3.8 1.3.9 4.7 2.7 4.7 4.6 0 2.1-3 3.3-4.5 4-5.6 2.4-12.2 1.5-18.1 1.8-12.4.5-25.1.2-37.5-.5-2.2-.1-5.9-1.2-7.8 0-2 1.3-1.8 5.2-2.1 7.1-1 6.5-1.9 13-3 19.5-1 5.8-2.2 11.6-3.2 17.4-.6 3.2-3.5 12.1-.7 14.9 2.5 2.6 11.3-.2 14.2-.7 6.1-.9 12.3-1.8 18.3-3 5.7-1.1 11.4-2.6 17.1-3.9 4.8-1.1 10.9-3.2 15.9-2.1 2.8.6 9.2 4.3 8.9 7.6-.5 5.7-8.5 5.2-12.4 5.7-12.4 1.5-24.3 5.8-36.5 8.5-5.7 1.3-11.5 2.1-17.3 2.4-6.7.4-12.1-.7-18.5-2.2-2.2-.5-5-.5-6.9-1.9-1.6-1.2-3.7-4.6-4.5-6.5-1.7-4.3 2.5-9.8 3.6-14.2 2.8-11.6 4.7-23.4 6.8-35.2 2.1-11.8 5-23.5 7.2-35.3 1.2-6.4 2.9-12.5 4.6-18.8.8-2.9 1.5-5.8 2.1-8.8.4-2 1.9-5.2 1.5-7.2-.2-1.1-1.7-2.1-1.8-2.7-.1-.4 1.3-2.9 1.5-3.3 1.3-2.5 3.2-3.6 6-4.2 6.1-1.2 13.7 2.7 19.7 4 6.2 1.4 12.6 2.5 19 3.1 6.3.6 12.6 0 18.9 1.1 3.3.6 15.5 3.9 10.3 8.8-4.2 4-13.2 5.2-18.5 4.7zm272.8 42.9c-.9 11.1-2.1 22.8-5.7 33.4-1.6 4.7-3 9.5-4.4 14.3-.9 3.1-1.6 6.3-5.1 7-3 .6-7.9.3-10.5-1.4-4.4-2.9-3-7-1-10.8 4.8-9.2 8-19.3 9.1-29.6.5-4.4 3.9-23.9-5-20-9.4 4.2-15.5 12.6-19 22-1.7 4.5-2.7 9.2-3.9 13.9-1.2 4.8-1.9 9.8-3.2 14.5-1.8 6.5-10.5 6.8-15.3 3.1-8.1-6.3-1.8-16 .8-23.6 3-8.7 9-21.1 5.4-30.4-2.3-6-12.4-3.2-16.3-.7-7.2 4.7-5.9 12.2-7.4 19.6-1 4.8-1.4 9.8-2.1 14.7-.3 2.5-1 5.3-1 7.9 0 2.2 1.8 3.4 1.6 5.6-.5 9.3-12.4 9.3-18 4.9-3.3-2.7-3.1-5.9-2.9-10 .2-5.7.5-11.3 1-17 .8-9.5 2.5-20.4 6.7-29.1 4.6-9.6 16.5-11.9 26.1-12.1 6-.2 11.3-.2 16.9 2.1 2.1.9 4.6 1.7 6.4 3.1 1.9 1.5 2.2 3.4 5 3 2.4-.4 5.1-2.7 7.2-3.8 2.4-1.2 4.8-2.1 7.5-2.5 5.3-.7 11.4-1.6 16.4.8 3.5 1.7 6.6 4.4 8.3 7.9 1.2 1.7 2.6 13.2 2.4 13.2zm28.4 21.7c-.7-10.1 1.5-24.4 9.3-31.6 7.5-6.9 16.3-7.6 26-6.8 5.4.5 9.2 1.9 12.3 6.5 3.7 5.5 2.2 8.2-4 10.4-5.2 1.9-8.5-5.6-13.2-2.8-4.3 2.6-9.1 7.3-10.9 12-2.1 5.5-1.2 11.8-.7 17.5.2 3 .5 6 .8 9 .2 2.1-.3 6.5 1.9 7.5 3 1.5 10-2.5 12.9-3.7 5.2-2.2 10.4-5 14.4-9 1.7-1.6 3.3-5.1 5.3-6.2 1.7-.9 4.8-.7 6.8-.3 4.8.8 8 4.2 7.6 9.2-.7 9.7-15.1 15.6-22.5 19-10.9 5.1-24 9.7-34.9 2.2-10.5-7.3-9.8-21.6-11.1-32.9zm87.2-99.8c-2.5 1.4-5 2.8-7.4 4.3-1.8 1.1-3.3 2.8-5.1 3.9-2.9 1.8-7.5 1.9-10.7 1-3.2-.9-7.2-3.9-6.8-7.7.5-4.1 5.5-7.7 8.6-9.8 8.2-5.6 19.2-10 28.8-4.9 9 4.8 12.3 13.3 11.3 23-.5 4.8-1.9 9.2-4.2 13.4-1.2 2.2-6.9 8.4-4.9 10.3 1 1 5.2.2 6.7.2 2.9 0 5.8-.2 8.8-.2 4.4 0 11.8-.9 15.4 2.2 3 2.6 2 6.6-.5 9.2-3.5 3.6-8.6 4.4-13.3 4.6-5.5.3-11.1-.1-16.6-.3-6.1-.3-12.8 0-18.8-1.5-4.1-1-10.4-4.3-11.5-8.8-1.2-5.2 6-7.3 9.1-10.1 6-5.6 17.5-20.4 11.1-28.8zM191.4 305.4c-7.6 0-15.2 0-22.9.4-6.3.3-12.3 1.4-17.7-2.6-4.6-3.4-6-9.2.2-11.9 6.1-2.6 13.8-1 20.1-.5 7.2.6 14.5 1 21.7 1 4 0 8-.1 12-.3 2.3-.1 6-.9 8.3.1 4.1 1.8 3.1 8.6-.2 10.8-2.5 1.7-6.4 1.6-9.3 2-4 .6-8.1 1.2-12.1 1.8 0-.1-.1-.5-.1-.8zm11.8-30.5c-6.7 0-13.4-.3-20.1.2-5.7.4-11.1 2.7-16.8 3-5.1.3-10-2.7-12.1-7.5-1.9-4.3 4.5-6.1 7.9-7.1 11.3-3 24.5-3.9 35.9-1.3 4.7 1.1 9.8 1.3 11.5 6.5 1.7 5.1-2 6.4-6.2 7.1 0-.3-.1-.6-.1-.9z"/></svg>