<svg version="1.1" xmlns="http://www.w3.org/2000/svg" x="0" y="0" viewBox="0 0 512 512" xml:space="preserve"><path d="M465.5 259.8c-8.7-2-17.4-4.1-26.1-6.1-3.9-.9-7.9-1.6-11.9-2-4.1-.4-8.8 0-12.8-1.1-2.7-.8-4.3-2.9-6.7-4-2.6-1.2-3.3-2.9-3.9-5.6-1.5-6.7 6.7-13.7 10.6-18.6 5.2-6.6 10.4-13.2 15.1-20.2 3.9-5.9 9.8-12.1 11.8-19 1-3.5 1.6-5.1 5-7.1 3.3-2 6.5-2.4 10.3-1.4 6.1 1.8 10.7 7 9.5 13.7-.7 3.9-3.5 6.3-5.9 9.2-3 3.7-5.9 7.5-8.7 11.3-5.9 7.8-11.8 15.7-17.1 23.9 5.6 1.4 11.1 3 16.6 4.5 2.4.7 4.9 1.3 7.3 1.8 2.3.4 5.7 1.6 8.1 1.3 2.2-.3 2.5-1.6 3.7-3.2 1.2-1.7 2.3-2 4.1-2.7 4.4-1.6 5.3-7.1 7-11.4 1.8-4.4 4.2-8.9 5.6-13.4 1.3-4.2 2.5-8.4 4.7-12.2 1.9-3.3 5.2-3.9 8.8-3.5 2.3.3 3.4 1.2 5.2 2.5 1.7 1.2 3.9 2.1 5.2 3.7 2.9 3.8-1.1 9.8-2.6 13.4l-6.6 16.2c-4.1 10-8.3 19.9-12.3 29.9-4 9.9-6.8 20.3-9.5 30.6-.6 2.3-1.2 4.7-1.7 7-.6 2.5-.3 4.9-.8 7.4-.7 4.2-6.1 6.1-9.9 6.4-4.9.4-9.4-1.6-12.2-5.6-3-4.3-2.5-7.4-.7-12 4.3-11 7.4-22.4 10.8-33.7zM241 313.1c10.2-1.9 20.1-4.2 30.2-6.8 5-1.3 9.8-2.5 15-2.8.9 0 2.9-.4 3.8-.2.8.3.9.7 1.7 1 1.8.7 3.3.5 5 1 2.8.8 3.9 6 3.5 8.6-.4 2.7-2.5 6.3-5 7.6-4.1 2-10 2.3-14.4 3.3-5.4 1.2-10.7 2.8-16.1 4.2-10.6 2.8-20.8 4-31.8 4.2-8.4.2-18.3 2.5-24.1-5.3-2.1-2.8-3.8-7-1.1-9.7 3.4-3.3 8.3-4.6 11.5-8.4 7-8.2 13.4-17 20-25.5 2.8-3.6 6-6.8 8.4-10.8 2.6-4.5 5-9.1 7.3-13.7 4.3-9.2 6.6-18.6 7.7-28.6.4-3.9 1.7-9.1-.8-12.6-1.9-2.7-5.5-3.8-8.6-3-9.1 2.2-7.8 11.7-12.4 17.6-2.5 3.1-6 4.4-9.9 3.8-2.6-.3-3.3-1.3-5.3-2.7-1.5-1-3.4-1.3-4.5-2.8-1.8-2.5-.7-6.3-.1-9 .9-4.4 2.3-8.7 4.6-12.5 10.4-16.9 33.4-14.4 47.3-3.7 17.6 13.5 10 41.6 2.1 58.5-4.5 9.6-10.7 18.6-17.3 26.9-3.6 4.5-7.3 10-11.6 13.8-1 .9-3.6 1.3-4.2 2.4-.5.9 0 1.1-.1 1.8-.3 1.1-.3 2.1-.8 3.4zM26.4 236.4c-1.2-.3-3.8-.4-4.8-1-.4-.3.2-1.5-.4-1.7-.7-.2-1.4.3-2 .2-3.3-.3-5.2-1-6.7-4.3-1.7-3.5.6-6.1 2.5-9 2.3-3.4 4.6-6.7 7.1-10 4.7-6.1 10.1-13.6 16.7-17.7 6.2-3.9 13.3-2.6 19.6.5 13.4 6.7 19.3 21 18.2 35.5-.7 8.8-3.7 16.8-5.8 25.3-1.8 7.2-4.5 15.1-8.5 21.4-4.8 7.5-9.9 14.7-15.3 21.8-5.5 7.3-12.2 13.7-17.4 21.2 14 .1 27.8.2 41.6-2.1 5.7-1 11.9-3.1 17.6-3.1 2.9 0 3.9 1.6 6.2 2.7 2.4 1.1 3.2.6 4.8 3 1.2 1.9 1.5 1.6.3 3.9-1 2-2.7 4.1-4.5 5.4-2.3 1.7-5 1.9-7.7 2.6-3.1.8-6.1 1.9-9.3 2.5-13.9 2.5-28.6 2.6-42.7 3.5-6.4.4-12.7.4-19.1.9-5.6.4-12.7-.4-15.6-6-1.8-3.5-1.2-9.1 2.5-11.1 2.3-1.2 3.7-1.8 5.6-3.8 2.1-2.4 4.2-4.8 6.2-7.3 8.8-10.2 17.7-21.1 24.4-32.8 6.4-11.2 12.4-21.8 15.4-34.5 1.7-7.3 3.5-14.6 3.1-22.1-.2-3.3-1.3-15.3-7-13.7-2.8.8-5.8 5.3-7.6 7.4-2.5 2.8-5 5.7-7 8.9-1.7 2.8-2.9 6.3-5 8.9-1.7 1.8-3.7 2.8-5.4 4.6zm140.9 6.7c5.1-.3 10.1-.7 15.2-1.3 4.3-.5 7.6 1.4 10.8 4.1 3.2 2.7 5.6 5.1 3 9.3-1.8 2.9-5.6 4.6-8.8 5.2-5 1-10.6.6-15.7.6-1.6 0-5.6-.6-7.1.4-1.9 1.3-1 3.9-1.1 6-.3 4.8-1.6 9.6-.7 14.5.9 5.1 2 8.5-4.1 10.5-9.1 3-16.1-6.7-17.1-14.6-.3-2.3-.3-4.7-.3-7 0-1.5.8-5.7-.5-6.9-1.1-1.1-2.6-.4-4.1-.7-2.8-.5-6.1-2.3-8.5-3.6-3.3-1.7-5.6-4.1-5.6-8 .1-3.5 2-7.4 5.4-8.5 4.1-1.3 9-.5 13.2-.5 2.1 0 3.3.1 4.4-1.8 1.2-2.1 1.3-6.2 1.6-8.5.4-2.9 0-4.5-.8-7.1-.6-2.1-.5-3.5.8-5.5 2.2-3.3 8.6-4.7 12.3-3.5 4.1 1.3 8.5 5.9 9.4 10 1.4 5.1-1 11.8-1.7 16.9zM381.1 284c-14.2-1.3-28.3-2.4-42.5-3.7-9.8-.9-24.9-3.4-24.7-16.2.1-5.1 5.7-5.3 9.5-6.4 3.1-.8 6.1-1.6 9.4-1 3.3.6 6.2 2.4 9.3 3.5 13.4 4.8 28.1 2.5 41.8 5.5 4.6 1 14.3 2.7 14 9.3-.3 6.2-12.3 8.1-16.8 9zm6.4-41.2c-7.7.6-15.1-.3-22.7-.6s-14 1-21.1 3.6c-4.6 1.7-11.7.6-15.7-2.2-3.9-2.7-9.3-7.5-6.1-12.6 3.1-5 11.6-5.1 16.6-6.1 7.3-1.5 14.5-1.5 22-1.2 7.2.4 36.3 6 27 19.1z"/></svg>