<svg version="1.1" xmlns="http://www.w3.org/2000/svg" x="0" y="0" viewBox="0 0 512 512" xml:space="preserve"><style type="text/css">.st0{fill:#36434f}</style><path class="st0" d="M168.8 248.3c2.5-9.1 3.9-18.6 6.1-27.8l3.3-13.5c.9-3.6 1.4-12.2 4.6-14.3 2.8-1.9 8.1-1 11.2-.6 4.7.6 9.4.5 14.2.2 9.8-.5 19.1-.1 28.9.4 40.3 2 80.7-1.3 120.9-4.2 19.7-1.5 39.5-3.1 59.1-5 9.2-.9 18.5-1.4 27.7-2.3 4.8-.5 9.6-.8 14.4-1.2 2.1-.1 4.3-.5 6.4-.1 2.3.4 4.4 1.5 6.8 1.8 9.5 1.2 19.2-.2 28.7.3 3.1.2 6.1 1.6 8.3 3.7 3.2 3 3.2 6.2 2.4 10.3-1.8 9-4.1 18.6-7.3 27.2-3.1 8.4-5.7 17.1-9.3 25.3-1.4 3.3-3.5 6.2-7.1 7.4-4.6 1.6-3.7-3.3-3.5-6.4.6-9.5 3.7-18.4 6.5-27.5 1.3-4.4 2.7-8.8 3.6-13.2.6-2.8 3.4-10.2 1.5-12.7-1.3-1.8-7.1-1.6-9.2-1.8-2.4-.2-4.4.3-6.7.4-1.9.1-4-.1-6.1 0-2 .1-4.2.7-6.2.3-1.9-.4-3.2-1.7-4.9-2.5-3.9-1.8-8.1-1.1-12.3-.9-9.5.6-19 1.1-28.5 1.8-19 1.4-38 3.2-56.9 4.5-19.4 1.4-38.9 2.8-58.4 3.9-19.1 1.1-38.6 2-57.8.9-8.8-.5-17.7-.8-26.6-.9-4.8-.1-9.3.8-14 1.5-2.5.4-5 .8-7.5 1-2 .2-4.5-.2-6.4.7-3 1.4-3.6 5.2-4.4 8.1-1.4 4.9-2.8 9.7-3.9 14.7-2.1 9.5-3.9 19-6.2 28.4-2.3 9.2-3.5 18.7-5.4 28-.9 4.7-2.1 9.3-3.3 13.9-1.2 4.7-3.3 9.8-3.3 14.7 0 3.4-.8 5.4-4.3 6.8-2.9 1.2-6.4.7-8.9-1.1-3.3-2.3-4.1-5.4-3.2-9.1 1.2-4.8 1-9.8 1.2-14.7.3-9.9 0-19.7-.6-29.6-.2-2.6.8-9.1-1.5-11-1.2-1-4.1-.5-5.5-.5-3 0-5.9-.1-8.9-.2-2.7-.1-7.5.5-9.9-1.3-1.2-.9-4.1-5-3.9-6.5 1.1-7.7 20.1-3.1 24.9-3 3.9.1 8-1.9 11.8-1 3.6.7 6.6 4.3 9.4 6.7z"/><path class="st0" d="M364.6 293.3c1.4-9.7 3.1-19 6.9-28.1 3.5-8.4 7.8-16.8 12.8-24.3 4.3-6.4 11-14.8 19.3-15.6 3.4-.3 7.1.3 10 2.1 3.4 2.1 4.1 4.5 5.3 7.9 3.3 8.9 1.2 15.3-4.2 23-2.5 3.6-5.4 7-8.4 10.2-1.5 1.6-9 7.2-8.6 9.6.3 1.6 6.7 4.5 8.2 5.8 2.7 2.4 6.7 5.8 7.7 9.4 2.1 7.3-5.2 16.8-10.2 21.4-6.9 6.4-17.1 8-25.6 3.4-3.9-2.1-7.5-6.2-10-9.9-2.8-4.5-2.8-9.7-3.2-14.9zM379 283c-2.2 5.3-2.4 12.4-.9 17.9 1.9 6.9 7.9 10.3 14 5.9 4.6-3.4 9.1-9.3 5.4-14.8-4-6-12.1-7-18.5-9zm4.4-12.1c6.9-4 12.5-8.1 17.5-14.4 2.4-3 4.9-6.5 6-10.2.5-1.7 1.5-8.3-.8-9.1-2.1-.8-4.5 3-5.7 4.4-2.9 3.3-5.8 6.5-8.3 10.2-3.4 5.3-8.8 12.5-8.7 19.1zm-145 45.9c-4.6.5-6.6-3.1-10.4-4.5-3.5-1.3-8.1 2.3-12.1 2-7.8-.5-14.4-6.4-18.1-12.9-7.7-13.7-5.3-33.2 6.5-43.9 6.2-5.6 14.8-4.4 22.2-2 3.6 1.2 6.7 3.5 10.2 4.7 3.8 1.3 8.4-1.8 11.6.7 3.1 2.4 1.8 7.1.6 10.1-.8 1.9-1.9 3.6-2.4 5.6-.5 2.2-.5 4.5-.9 6.7-.7 3.9-2.1 7.6-3.9 11-1.1 2.2-5.8 7.5-1.5 9.1 3.9 1.4 9.4-4.8 13.6-5.1 3.4-.2 5.6 3.2 5.4 6.5-.3 3.6-6 6.9-8.8 8.5-3.7 2.2-7.7 3.5-12 3.5zm-20.3-54.1c-1.7.8-4.2 1.4-5.1 3.1-.8 1.5-.5 3.8-1.5 5.5-2 3.7-3.9 8.1-4.2 12.4-.2 2.7.6 4.7 1.3 7.3.6 2.1.5 4.3 1.3 6.3 1.4 3.1 5.3 7.3 9 5.8 3.6-1.4 4.1-5.8 4.9-9 1.2-4.5 3.3-8.6 4.6-13 1.1-3.7 2.8-8.4.6-12-2.4-3.7-7.1-4.9-10.9-6.4zM0 302.2c-.3-11.4 5.8-20.5 12.9-28.8 3.2-3.8 6.3-7.1 11.3-7.8 4.4-.6 10.4-2.1 14.5.6 2.8 1.9 6.1 6 6.8 9.2.3 1.2 1.1 3.9.3 5.1-.8 1.3-4.5 1.9-5.7 1.8-4.4-.6-4.9-5.4-8.2-7-3.5-1.7-8.8 4.2-10.6 6.7-6 7.8-10.5 17.4-7.2 27 1.3 3.8 3.5 8.8 7.1 11 4.3 2.6 10.2.8 14.5-1 4.9-2.1 9.2-5.1 13.6-8 3.1-2.1 8.4-6.9 11.8-2.4 5.8 7.7-10.7 16.4-15.5 18.8-5 2.5-9.2 4.5-14.8 4.9-5.8.3-11.4-1-16.3-4.1-9-5.6-14.5-15.5-14.5-26zm276.6-51.6c4 .7 7.9 1.5 11.9 2.1 3 .5 9 .3 11 3.2 1.6 2.4-.6 5.9-2.8 7.3-3.2 1.9-7.6.9-11.1.6-6.9-.6-15.9-.4-21.8-4.6-2.2-1.6-4.7-4.4-5.1-7.3-.5-3.9 2.9-4.9 5.5-6.8 2.8-2.1 5-4.8 7.1-7.7 1.7-2.3 5.3-6.3 4.8-9.5-.8-4.7-5.6-1.4-7.7 0-2.2 1.5-3.8 2.3-6.3 1.5-2-.7-6.5-2.7-7-5-.6-2.6 3.1-6.3 4.9-7.8 5.2-4.5 13.1-4 19.2-1.8 6.7 2.5 13.2 8.4 11.3 16.3-.9 3.8-3.7 7.4-6.1 10.4-1.2 1.5-2.5 2.9-3.8 4.3-1.2 1.2-4.8 3.6-4 4.8zm177.5-10c3.7 1.1 6.9 2.1 10.7 2.2 3.1.1 8.7 0 11.3 1.9 1.6 1.2 1.1 5.1-.3 6.8-2.2 2.6-6.5 3-9.6 3.3-3.6.3-7.2 0-10.6-1s-7.1-1.5-10.2-3.2c-4.8-2.7-8.5-5.9-9.6-11.4-.5-2.5.6-3.3 2.5-4.8 2.8-2.1 5.5-4.3 8-6.9 1.2-1.2 4.1-4.1 3.7-6.1-.1-.4-.4-.7-.7-1-1.8-1.6-.7-.3-2.1.2-1.5.6-2.7 1.7-4.3 2.2-6.1 1.9-12.3-3.7-8.2-9.6 3.1-4.4 9.8-8.1 15.2-6.4 6.7 2.1 12.2 9.4 12.9 16.1.7 7.5-4.6 12.1-8.7 17.7zm-106.6 31.8c2.3.4 6.7 1 7 4.1.4 3.6-4.5 5.6-7.1 6.3-3.1.9-6.1.1-7.3 3.4-1.3 3.5-.8 8.4-2.8 11.6-1.3 2-4.9 3.8-7.1 2.8-3.6-1.5-3.1-7.1-3.4-10.1-.7-5.6-2.5-4.4-6.4-7.1-2.1-1.5-5.1-4.6-4.2-7.2 2.2-6.6 9.5-.9 12.6-4.6 1.6-1.8 1.3-6.4 1.8-8.6.6-2.9 1.1-8.2 3.8-10 4.9-3.2 12.5 1.4 12.2 6.9-.2 3.6-3.3 7.3-3.1 10.7.1 1.6 3.6 3.6 4 1.8zM120.4 302c-5.4 0-10.8.2-16.2 0-4.7-.1-11.6-.1-15.2-3.5-3.1-2.9-2.7-6.8 1.1-8.8 5-2.7 10 .3 15.1.5 5.5.3 11.1 0 16.7-.2 3.5-.1 11.4-1.8 14.2.8 1.7 1.6 1.1 3 .1 4.5-.3.5-1.1.6-1.5 1.2s.2 1.3-.5 2.1c-.9 1-4.8 1.3-5.9 1.6-2.6.6-5.2 1.2-7.9 1.8zm-19.6-32.2c4.9-.3 9.8-.6 14.8-.8 3.3-.1 9-1.2 11.9.5 3.1 1.8 2.2 5.7-.2 7.6-3.1 2.5-7.8 2.2-11.5 2.8-4.5.7-8.7 1.3-13.2 1.4-3.8 0-7.1.6-10.2-2-2.3-1.9-4.3-4.4-2-7.1 2.6-3 6.8-2.4 10.4-2.4z"/></svg>