<svg version="1.1" xmlns="http://www.w3.org/2000/svg" x="0" y="0" viewBox="0 0 512 512" xml:space="preserve"><path d="M95.6 258.9c3.4-6.7 5-12.3 13.2-12.4 4.3 0 7.7-1.3 11.2 1.9 3.6 3.2 2.4 6.6 1.1 10.7-2.9 8.8-6.5 17.4-9.1 26.3-2 6.8-5.7 18.2-2.7 25.1 7 16.3 31.1-12 41.6-6.1 7.2 4.1 1.6 13.1-2.6 16.8-6.2 5.5-14.8 9.1-22.8 10.7-9.4 1.9-17.7-.9-26.3-4.7-1.8-.8-4.1-1.6-5.6-3-1.2-1.1-1.5-3.4-3.1-4.1-3.3-1.4-7.1 4.4-9.2 6.3-6.4 5.8-13.3 12.3-21.7 15-7.9 2.5-16.5 2.5-24.3-.3-15.3-5.4-27.7-17.7-32.6-32.9-5.3-16.3-2.7-36.6 7.5-50.8 2.4-3.3 4.8-3.6 8.6-3.5 5.1.2 5.8-2.2 8.8-5.7 5.5-6.6 15.1-11.7 23.6-12.8 9-1.2 21.4.9 29.3 5.4 3.4 1.9 6.2 4.8 8.6 7.9 2.3 3.2 3.6 7.5 6.5 10.2zm-38.5-6.8c-6.1.6-11.8 7.2-14.8 12.1-3.9 6.3-3.8 15-4.5 22.2-.8 7.8.6 15.4 4.4 22.3 2.5 4.7 8.1 13.8 14.2 9.1 5.3-4.2 10.3-11 13.9-16.7 3.8-6.1 6.5-12.9 7.4-20 .9-7.2-.3-14.5-3.6-21-1.4-2.7-3.1-6-5.9-7.5-3.3-2.1-7.6-.8-11.1-.5zm315.8-121c.6 4.9 1.8 10 2.1 14.9.4 5.5-.4 11.3-.7 16.8-.3 4.6-1.5 10.2-.8 14.7.8 4.7 5.7 3.6 9.5 3.7 10.8.4 21.4 1.5 32.2 1.8 6.9.2 20.4-2.2 23.3 6.6 5.4 16.1-44.1 11.9-52.3 11.9h-8c-1.4 0-3.4-.4-4.6 0-2.3.7-1-1.2-2.1 1.7-1.6 4.4-1.6 10.6-2.4 15.3-.8 4.9-1.5 9.9-1.5 14.9 0 2.7.1 5.4.5 8.1.1.8.8 3.1.7 3.7-.2.9-2.6 2.9-3.2 3.5-6.7 6-15.7 4-21.7-2.4-2.9-3.1-2.8-6.8-2.6-10.8.3-5.6.1-11.2.5-16.7.9-10.9 2.4-21.7 3.3-32.6.9-10.8 3.1-21.9 3.3-32.7.2-10.9 1.1-21.8.9-32.7-.1-3.5-1.4-8 .8-11.1 2.3-3.2 7.2-5.3 11-5.2 4.3.1 7.9 2.6 11.4 4.8 4.8 3.1 9.9 5.8 15 8.2 9.5 4.5 19 9 29.2 11.9 5.8 1.6 11.6 2.8 17.5 3.9 5.6 1 12 1 16.7 4.5 4 3 7.4 6.9 2.7 11.1-3.3 3-8 2.8-12.2 2.5-11.9-.9-23.5-4.2-34.8-7.9-5.8-1.9-11.5-3.9-17.3-6.1-2.8-1-5.5-2.1-8.2-3.4-2-1.1-6-3.9-8.2-2.9zm-18.5 241.1c4.5 1.5 6-3.3 8.6-6 3-3.1 6.8-5.2 10.9-6.3 9.3-2.7 22-2.7 30.6 2.3 2.3 1.3 4.1 3 6 4.6 0 0 1 1.6 1.2 1.7.7.2 3.2-1.5 4-1.9 4.7-2.2 9.4-4.8 14.5-5.6 8.6-1.3 17.9 2.1 24.1 8 16.6 15.7 12.5 42.6 8.4 62.6-1.1 5.1-1.9 11.2-4.2 15.9-2.4 4.9-7 4.6-11.6 3.4-4-1-8.6-1.6-9.9-6.1-1.4-4.8 2.1-9.9 3.5-14.4 3.4-10.3 6.4-22.1 5.9-33-.3-8.2-5.5-23.9-15.7-14.6-8.1 7.4-7.9 18.2-11 28.1-2.4 7.7-3 19.7-13.7 19.3-9-.3-18.5-6.2-15.7-16.2 1.5-5 2.9-10.1 4.4-15.1 1.5-5 5.2-11.8 5-17.1-.5-10-14.9-5.3-18.5-.2-6 8.3-8.2 19.2-9.5 29.2-.8 6.6-2.4 13.2-3.1 19.8-.5 4.7.8 10.6-1.5 14.9-2 3.8-7.2 5.2-11.2 4.8-4.8-.5-9.1-4.6-12-8.2-3-3.6-1.8-8.3-1-12.5 1.2-6.1 2.5-12.2 3.4-18.3 1-6.8 1.9-13.7 2.8-20.5.4-3.1.8-6.2 1.4-9.3.8-3.6 2.3-6 3.9-9.3zm84.7-271.8c-13.1-.5-25.9-1.6-38.9-2.8-13.4-1.2-26.4-2.3-39.7.8-8.4 2-24.9-1.1-23.2-13 1.8-12.5 25.6-8.6 34-8.2 13.9.7 27.8 1.8 41.7 2.7 3.2.2 6.5.4 9.7.6 2.4.1 5.8 1 8.2.1 2.9-1 3.4-2.7 1.1-4.3-2.2-1.5-3.6-1.8-4.4-4.7-1.3-4.3-.1-6.7 3.7-8.8 6.5-3.5 11.7-3.1 18.2.3 5.4 2.8 10.9 5.5 16.3 8.3 4.8 2.4 10.7 4.9 14.6 8.7 4.9 4.7 5.4 9.3.7 13.9-5.1 5-10.8 9.5-16.5 13.9-5 3.9-9.4 7.3-16 4.9-4.9-1.8-11-6.6-9.5-12.4zM99.9 198.7c.4-4.2-.7-4.7-4.6-5.1-7.3-.8-14.6-2.2-22-2.6-6.5-.4-13.1-.4-19.6-.1-6.7.4-13.5 2.5-20.2 1.5-4.6-.7-12.9-3.6-15.1-8.3-2.5-5.5 5.5-8.7 9.3-9.6 12.8-3.1 27.4-2.4 40.4-1 12.9 1.4 26.7 4.6 39.7 3.7 1.4-.1 7.5-.1 7.9-2 .3-1.6-3.9-3.1-4.8-3.7-4.1-2.5-9.8-7.7-5.4-12.7 9-10 25.1 4.2 32.6 9.3 5.3 3.7 11.5 7.2 16.2 11.7 3 2.9 7.3 8.1 6 12.4-1.8 6.3-8 8.4-13.3 10.9-6.6 3-13.2 6.1-20.1 8.2-7.6 2.3-13.4 3-20.6-.6-4.9-2.6-6.9-6.4-6.4-12zM512 293c-3.1 1.7-6.2 4-9.6 5.2-2.9 1.1-5.6.7-8.6.6-7-.3-14 .3-21 1.3-14 2-27.9 4.4-41.8 6.5-27.8 4.1-56.1 7.6-84.2 5.7-8.4-.5-21.2-5.1-20.8-15.6.6-12.4 21.1-4.8 27.3-4.1 13.4 1.4 27.3.9 40.6-.6 14-1.6 28-2.8 41.9-4.8 15.3-2.2 30.7-5.2 46.2-5.9 12.3-.6 25.6-2.3 30 11.7zm-243.5-8.7c-7.8.6-15.6 1.1-23.4 1-6.6-.1-14.1 0-20.3-2.3-4.9-1.8-12-7.2-10-13.4 2.1-6.4 12.2-7.4 17.7-6.5 8 1.4 15.8 2.8 24 3.3 7.4.4 15.4-.4 22.6 1 4.1.8 12.6 4.6 10.3 10.2-1.3 3-5.4 3.6-8.2 4.3-4.1 1.2-8.3 2.1-12.5 3.2-.1-.2-.2-.5-.2-.8zm-42.2-52.5c7.6-.8 15.1-1.1 22.7-1.1 3.8 0 7.6.1 11.3-.1 3.1-.1 6.4-1.1 9.5-.7 4 .4 11.9 4 12.1 8.8.2 5.8-11.8 7.1-15.8 7.9-14.1 2.7-30.1 4.6-44.2.9-4.2-1.1-8.9-6-6.9-10.5.8-1.9 2.4-3.9 4.3-4.8 1-.6 7-1.5 7-.4z"/></svg>