<svg version="1.1" xmlns="http://www.w3.org/2000/svg" x="0" y="0" viewBox="0 0 512 512" xml:space="preserve"><path d="M303.6 260.6c9.3-6.9 17.3-11.2 29.3-9.3 8.5 1.4 15.2 5.7 18.9 13.6 4.6 9.6 5.2 21.3 4.6 31.8-.3 5.8-1.8 11.3-3.2 16.9-1.3 5.2-2.4 12.4-5.3 17-4.5 7.1-17.2 2-19.3-4.8-1.3-4.3 4.1-10.2 5.4-14.3 1.7-5.3 2.7-11.1 3.2-16.7.5-5.3.3-10.6-.5-15.9-.6-3.7-1-11.1-5.9-11.8-4.2-.6-8.7 3.9-10.8 7-2.9 4.3-4.4 9.4-5.5 14.5-2.4 11.3-5.4 22.4-8.4 33.6-1.2 4.6-1.5 10.1-7 10.7-4.5.4-9.4-.7-13-3.4-3.9-2.9-5.4-6.1-3.7-10.7 2-5.5 4-10.9 5.8-16.5 3.2-9.9 6.5-20.3 1.2-30-1.9-3.5-5.2-7.2-9.6-5-3.5 1.8-8.2 7.5-9 11.4-.5 2.8-.3 5.3-1 8.2-.6 2.3-1.3 4.5-1.9 6.8-1.6 6.3-3.1 12.6-4 19-.8 5.3-1.7 10.8-1 16.2.6 4.8 2.8 8.8-1.5 12.6-6.4 5.6-17.3.9-21.4-5.1-1-1.5-2.2-3.1-2-4.9.1-1 1.3-2.6 1.6-3.7.5-1.8.6-3.6.6-5.4.2-6.5 1-12.4 2-18.8 1-6.9 1.7-13.7 2.2-20.6.1-1.1 0-2.6.3-3.7.7-2.3.5-.9 1.8-2.6 1.6-2 2.1-3.4 3.1-5.8 4.1-10 12.2-14.8 21.7-18.9 11.6-4.9 24.3-.6 32.3 8.6zm151.9 64.5c-5.6 4-11.4 9.3-17.6 12.3-6.2 2.9-13.7 3.1-20.2 1.2-6.1-1.8-12.1-4.3-16.5-8.9-4.1-4.3-6.8-9.9-9.4-15.3-6.4-13.7-5.4-28.3-.7-42.4 2-5.9 3.5-13.8 7.9-18.4 3.5-3.7 8.8-7.1 13.8-7.8 7.5-1 13.7-1.9 21.3-.7 6.7 1.1 13.7 2 18.8 6.9 2.3 2.1 3 3.2 5.9 1.6 2.9-1.6 4.9-3.4 8.4-3.6 6.4-.4 11.2 3.4 10.5 9.8-1.6 15.4-6.2 30.8-6.5 46.3-.1 4.3-1 15.4 5.6 14.2 7.2-1.4 14.4-5.1 21.3-7.4 4.7-1.6 16.4-1.6 13.6 6.5-2.1 6.2-9.9 10-15.5 12.1-7 2.6-15.1 5.8-22.6 4.3-6.1-1.4-15.3-4.8-18.1-10.7zm-5.9-38.4c0-7.7-2.3-15.2-6.2-22-3.5-6.2-12.3-8.2-18.7-6.3-2.5.7-6.2 1.6-5.5 4.6.4 1.5 1.9 2.4 2.2 4.1.2 1.6-.3 2.9-1.2 4.2-2 2.9-5.3 4.1-7.3 7.2-1.8 2.8-3.2 6-4 9.3-2.4 9.8 3.5 33.5 17.4 30.7 6.7-1.3 11.7-8.4 15.8-13.3 4.3-5.3 9.6-11.2 7.5-18.5zM25.1 267c-.3 6.1.2 8.4 6.6 9.3 9.9 1.3 19.9.9 29.8.9 4.3 0 9.6-1.1 13.8.1 2.5.7 6.9 4.1 6.1 7.2-.6 2.2-5 5.3-7.1 6.1-4.5 1.9-10.2 2.2-15 2.7-4.9.4-9.8.5-14.7.6-4.7 0-9.3 1-13.9 1-2.2 0-5.9-1.6-7.6.4-2 2.3-1.2 10.1-1.5 13-.9 10.3-1.9 20.6-1.9 30.9 0 4.5 1.4 7.1 2.6 11.2.8 2.7.2 8.4-2.9 9.8-2.5 1.1-7.9-2.2-10.4-2.9-3.1-.9-6.2-1.6-7.4-4.9-1.4-3.8-.2-9.5-.1-13.5.2-5.4.5-10.7 1-16 2-20.9 4.4-41.7 5.5-62.7.3-4.9.7-9.8 1.4-14.7.6-4.2 1.9-8.8.8-12.9-.9-3.5-3.1-6.2-.4-9.6 3-3.8 8.2-3.8 12.5-3.3 9.9 1.2 20 1 29.9 1.4 10.7.4 21.4.7 32.1.8 3.8 0 9.9-.9 12.6 2.6 2.9 3.8.5 7-3.2 8.7-4.2 2-9.1 2-13.6 2.4-5.5.5-10.9 1.1-16.4 1.1-5.7 0-11.4-.1-17.2-.2-3.2 0-6.3-.1-9.5-.1-2 0-6.3-.5-8 .6-2.8 2-3.9 30-3.9 30zm441.7-57.5c-8.2-1.9-17.2-1.6-25.6-2-9.4-.5-18.7-.9-28.1-1-4.4-.1-8.8-.1-13.1-.1-3.5 0-7.1.5-10.5-.7-4.6-1.7-12.2-7.7-10-13.5 2.3-6.1 17-3.8 21.9-3.4 8.8.9 17.5 1.5 26.3 1.8 9.3.3 18.7.7 28.1.9 4.1.1 8.3 0 12.4.6 4.1.5 7.1 1.6 11.1 1.2-3.2-6-6.4-9.7-12.5-13.1-5.2-2.8-10.6-4.5-14.2-9.5-1.4-1.9-4.5-5.2-4.5-7.6-.1-3.5 4.2-3.9 6.8-4.1 7.3-.6 13.9 3.1 19.5 7.3 10 7.5 25.3 15.8 26.3 29.8.5 7.1-4 12.5-8.6 17.3-4.7 4.9-9.7 9.8-14.9 14.2-5.2 4.3-14 4.8-18.6-1.1-4.9-6.7 4.1-12.8 8.2-17zm-363.1-31.9c-5.3-3.3-36.7-21.8-16.8-25.8 7.7-1.5 12.7 4.1 18.8 7.7 6.5 3.9 12.6 6.9 18.3 11.8 12.2 10.5-5.4 24.8-12.7 32.2-4.8 4.8-10.6 10.7-17.9 7.8-2.5-1-7.1-3.6-7.7-6.4-.7-3.3 4.5-7.1 6.5-9.2-8.7-1.3-17.7-.5-26.6-1.7-9.1-1.2-18.1-3-27.2-4.6-4.5-.8-9.3-2.1-13.8-1.6-3.6.4-7 1.2-10.7.5-4.6-.8-16.5-7.2-13.4-13.3 1.5-3 4.6-3.5 7.6-3.6 5-.1 10-.2 14.9.1 8.9.6 17.7 3.2 26.5 4.6 9.1 1.5 18.1 2 27.2 2.1 4.4 0 8.8.1 13.2.1 2.8.2 12.6 1.5 13.8-.7zm39.9 135c7.2 1.4 14.5 3.5 21.9 3.6 8.1.2 15.3-2.7 23.2-3.6 4.9-.5 14.1.8 11.9 7.9-1.8 5.7-11.2 8.5-16.3 9.6-7.1 1.5-14.3.8-21.3 2.1-3.7.7-6.9.7-10.6.4-3.3-.3-6.9.3-10.1-.5-4.1-1-11.9-7.4-11.9-12.1-.1-6.2 8.8-7 13.2-7.4zm5.2-32.9c12.8-.8 26.7 2 38.5 6.9 3.8 1.5 11.8 3.6 11.8 9 0 6.1-9.4 6.4-13.4 5.8-6.1-.9-11.9-3-17.9-4.2-6-1.1-12.1.2-18.1-.9-4-.7-11.9-4.4-11.7-9.3.2-5.3 6.8-6.7 10.6-8.2.1.3.2.6.2.9z"/></svg>