<svg version="1.1" id="icon" xmlns="http://www.w3.org/2000/svg" x="0" y="0" viewBox="0 0 512 512" xml:space="preserve"><style type="text/css">.st0{fill:#fff}</style><circle class="st0" cx="256" cy="256" r="10.6"/><path class="st0" d="M256 8.1c33.5 0 65.9 6.6 96.5 19.5 29.5 12.5 56 30.4 78.8 53.1 22.8 22.8 40.6 49.3 53.1 78.8 12.9 30.6 19.5 63 19.5 96.5s-6.6 65.9-19.5 96.5c-12.5 29.5-30.4 56-53.1 78.8-22.8 22.8-49.3 40.6-78.8 53.1-30.6 12.9-63 19.5-96.5 19.5s-65.9-6.6-96.5-19.5c-29.5-12.5-56-30.4-78.8-53.1C58 408.5 40.1 382 27.6 352.5c-12.9-30.6-19.5-63-19.5-96.5s6.6-65.9 19.5-96.5c12.5-29.5 30.4-56 53.1-78.8C103.5 58 130 40.1 159.5 27.6c30.6-12.9 63-19.5 96.5-19.5m0-8.1C114.6 0 0 114.6 0 256s114.6 256 256 256 256-114.6 256-256S397.4 0 256 0z"/><path class="st0" d="M251.1 17.5h9.8v19.6h-9.8V17.5zm0 457.4h9.8v19.6h-9.8v-19.6zm-233.6-214v-9.8h19.6v9.8H17.5zm457.4 0v-9.8h19.6v9.8h-19.6zM47.1 141l4.9-8.5 17 9.8-4.9 8.5-17-9.8zM443 369.7l4.9-8.5 17 9.8-4.9 8.5-17-9.8zM141 465l-8.5-4.9 9.8-17 8.5 4.9-9.8 17zM369.7 68.9l-8.5-4.9 9.8-17 8.5 4.9-9.8 17zm-237.1-17L141 47l9.8 17-8.5 4.9-9.7-17zM361.1 448l8.5-4.9 9.8 17-8.5 4.9-9.8-17zM51.9 379.5L47 371l17-9.8 4.9 8.5-17 9.8zM448 150.8l-4.9-8.5 17-9.8 4.9 8.5-17 9.8zM351.7 37.5l2.6 1.1-4 9-2.6-1.1 4-9zM161.8 464.1l2.6 1.1-4.1 9.1-2.6-1.1 4.1-9.1zM328.4 28.8l2.7.9-3 9.3-2.7-.9 3-9.3zM184 472.9l2.7.9-3.1 9.5-2.7-.9 3.1-9.5zM304.2 22.4l2.7.6-2 9.6-2.7-.6 2-9.6zm-97.1 456.8l2.7.6-2.1 9.8-2.7-.6 2.1-9.8zm72.4-460.5l2.8.3-1 9.7-2.8-.3 1-9.7zm-48.8 464.4l2.8.3-1 9.9-2.8-.3 1-9.9zm217.4-368.5l1.6 2.3-7.9 5.8-1.6-2.3 7.9-5.8zM70.4 389.1l1.6 2.3-8.1 5.9-1.6-2.3 8.1-5.9zM432.3 95.3l1.9 2.1-7.3 6.6-1.9-2.1 7.3-6.6zm-347 312.5l1.9 2.1-7.4 6.7-1.9-2.1 7.4-6.7zm329.3-330l2.1 1.9-6.6 7.3-2.1-1.9 6.6-7.3zM102.1 424.9l2.1 1.9-6.7 7.4-2.1-1.9 6.7-7.4zm293-362.7l2.3 1.6-5.8 7.9-2.3-1.6 5.8-7.9zM120.5 440l2.3 1.6-5.9 8.1-2.3-1.6 5.9-8.1zM493 229.7l.3 2.8-9.7 1-.3-2.8 9.7-1zM28.6 278.5l.3 2.8-9.9 1-.3-2.8 9.9-1zM489 205l.6 2.7-9.6 2-.6-2.7 9.6-2zM32.2 302.1l.6 2.7-9.8 2.1-.6-2.7 9.8-2.1zM482.3 181l.9 2.7-9.3 3-.9-2.7 9.3-3zM38.2 325.2l.9 2.7-9.5 3.1-.9-2.7 9.5-3.1zm435.1-167.6l1.1 2.6-9 4-1.1-2.6 9-4zM46.7 347.7l1.1 2.6-9.1 4.1-1.1-2.6 9.1-4.1zm427.8 4l-1.1 2.6-9-4 1.1-2.6 9 4zM47.9 161.8l-1.1 2.6-9.1-4.1 1.1-2.6 9.1 4.1zm435.3 166.5l-.9 2.7-9.3-3 .9-2.7 9.3 3zM39.1 184l-.9 2.7-9.5-3.1.9-2.7 9.5 3.1zm450.5 120.1l-.6 2.7-9.6-2 .6-2.7 9.6 2zm-456.8-97l-.6 2.7-9.8-2.1.6-2.7 9.8 2.1zm460.5 72.4l-.3 2.8-9.7-1 .3-2.8 9.7 1zM28.9 230.7l-.3 2.8-9.9-1 .3-2.8 9.9 1zm368.4 217.4l-2.3 1.6-5.8-7.9 2.3-1.6 5.8 7.9zM122.9 70.3l-2.3 1.6-5.9-8.1 2.3-1.6 5.9 8.1zm293.7 362l-2.1 1.9-6.6-7.3 2.1-1.9 6.6 7.3zm-312.5-347l-2.1 1.9-6.7-7.4 2.1-1.9 6.7 7.4zm330.2 329.2l-1.9 2.1-7.3-6.6 1.9-2.1 7.3 6.6zM87.1 102.1l-1.9 2.1-7.4-6.7 1.9-2.1 7.4 6.7zM449.8 395l-1.6 2.3-7.9-5.8 1.6-2.3 7.9 5.8zM72 120.5l-1.6 2.3-8.1-5.9 1.6-2.3 8.1 5.9zM282.4 493l-2.8.3-1-9.7 2.8-.3 1 9.7zM233.5 28.6l-2.8.3-1-9.9 2.8-.3 1 9.9zM307 489l-2.7.6-2-9.6 2.7-.6 2 9.6zM210 32.2l-2.7.6-2.1-9.8 2.7-.6 2.1 9.8zm121 450.1l-2.7.9-3-9.3 2.7-.9 3 9.3zM186.8 38.2l-2.7.9-3.1-9.5 2.7-.9 3.1 9.5zm167.5 435.1l-2.6 1.1-4-9 2.6-1.1 4 9zM164.4 46.7l-2.6 1.1-4.1-9.1 2.6-1.1 4.1 9.1z"/></svg>