<svg version="1.1" id="icon" xmlns="http://www.w3.org/2000/svg" x="0" y="0" viewBox="0 0 512 512" xml:space="preserve"><style type="text/css">.st0{fill:#fff}</style><circle class="st0" cx="256" cy="256" r="11.3"/><path class="st0" d="M250.7 0h10.5v21.1h-10.5V0zm0 490.9h10.5V512h-10.5v-21.1zM0 261.2v-10.5h21.1v10.5H0zm491 .1v-10.5h21.1v10.5H491zM31.6 132.6l5.3-9.1L55.1 134l-5.3 9.1-18.2-10.5zm425.2 245.5l5.3-9.1 18.3 10.5-5.3 9.1-18.3-10.5zM132.6 480.3l-9.1-5.3 10.6-18.3 9.1 5.3-10.6 18.3zM378 55.1l-9.1-5.3 10.6-18.3 9.1 5.3L378 55.1zM123.4 36.9l9.1-5.3L143.1 50l-9.1 5.3-10.6-18.4zm245.5 425.2l9.1-5.3 10.5 18.3-9.1 5.3-10.5-18.3zm-332-73.6l-5.3-9.1 18.3-10.5 5.3 9.1-18.3 10.5zm425.2-245.4l-5.3-9.1 18.3-10.5 5.3 9.1-18.3 10.5zM358.8 21.5l2.8 1.3-4.3 9.6-2.8-1.3 4.3-9.6zm-204 457.9l2.8 1.3-4.4 9.8-2.8-1.3 4.4-9.8zM333.7 12.1l2.9 1-3.2 10-2.9-1 3.2-10zm-155 476.7l2.9 1-3.3 10.2-2.9-1 3.3-10.2zm129-483.5l3 .6-2.2 10.3-3-.6 2.2-10.3zM203.6 495.6l3 .6-2.2 10.5-3-.6 2.2-10.5zM281.3 1.3l3.1.3-1.2 10.4-3.1-.3 1.2-10.4zm-52.4 498.5l3.1.3-1.1 10.6-3.1-.3 1.1-10.6zm233.3-395.5l1.8 2.5-8.5 6.2-1.8-2.5 8.5-6.2zM56.6 399l1.8 2.5-8.7 6.3-1.8-2.5 8.7-6.3zM445.2 83.6l2.1 2.3-7.8 7-2.1-2.3 7.8-7zM72.7 419l2.1 2.3-8 7.2-2.1-2.3 8-7.2zM426.1 64.7l2.3 2.1-7 7.8-2.3-2.1 7-7.8zM90.8 437.3l2.3 2.1-7.2 8-2.3-2.1 7.2-8zM405.3 48l2.5 1.8-6.2 8.5-2.5-1.8 6.2-8.5zM110.6 453.5l2.5 1.8-6.3 8.7-2.5-1.8 6.3-8.7zm399.9-225.8l.3 3.1-10.4 1.1-.3-3.1 10.4-1.1zM11.9 280.1l.3 3.1-10.6 1.1-.3-3.1 10.6-1.1zm494.2-78.9l.6 3-10.3 2.2-.6-3 10.3-2.2zM15.7 305.5l.6 3-10.5 2.2-.6-3 10.5-2.2zm483.2-130.1l1 2.9-10 3.2-1-2.9 10-3.2zM22.2 330.3l1 2.9-10.2 3.4-1-2.9 10.2-3.4zm467-179.8l1.3 2.8-9.6 4.3-1.3-2.8 9.6-4.3zM31.3 354.4l1.3 2.8-9.8 4.4-1.3-2.8 9.8-4.4zm459.3 4.3l-1.3 2.8-9.6-4.3 1.3-2.8 9.6 4.3zm-458-203.8l-1.3 2.8-9.8-4.4 1.3-2.8 9.8 4.4zM500 333.6l-1 2.9-10-3.2 1-2.9 10 3.2zM23.2 178.7l-1 2.9-10.2-3.2 1-2.9 10.2 3.2zm483.5 129l-.6 3-10.3-2.2.6-3 10.3 2.2zM16.4 203.5l-.6 3-10.5-2.2.6-3 10.5 2.2zm494.4 77.7l-.3 3.1-10.4-1.1.3-3.1 10.4 1.1zM12.3 228.8l-.3 3.1-10.6-1.1.3-3.1 10.6 1.1zm395.4 233.4l-2.5 1.8-6.2-8.5 2.5-1.8 6.2 8.5zM113.1 56.6l-2.5 1.8-6.3-8.7 2.5-1.8 6.3 8.7zm315.4 388.6l-2.3 2.1-7-7.8 2.3-2.1 7 7.8zM93 72.7l-2.3 2.1-7.2-8 2.3-2.1 7.2 8zm354.3 353.5l-2.1 2.3-7.8-7 2.1-2.3 7.8 7zM74.8 90.8l-2.1 2.3-8-7.2 2.1-2.3 8 7.2zM464 405.2l-1.8 2.5-8.5-6.2 1.8-2.5 8.5 6.2zM58.5 110.6l-1.8 2.5-8.7-6.3 1.8-2.5 8.7 6.3zm225.8 399.8l-3.1.3-1.1-10.4 3.1-.3 1.1 10.4zM231.9 11.9l-3.1.3-1.1-10.6 3.1-.3 1.1 10.6zm78.9 494.2l-3 .6-2.2-10.3 3-.6 2.2 10.3zM206.5 15.7l-3 .6-2.2-10.5 3-.6 2.2 10.5zm130 483.3l-2.9 1-3.2-10 2.9-1 3.2 10zM181.6 22.2l-2.9 1-3.3-10.2 2.9-1 3.3 10.2zm179.9 467.1l-2.8 1.3-4.3-9.6 2.8-1.3 4.3 9.6zm-203.8-458l-2.8 1.3-4.4-9.8 2.8-1.3 4.4 9.8z"/></svg>