<svg version="1.1" xmlns="http://www.w3.org/2000/svg" x="0" y="0" viewBox="0 0 512 512" xml:space="preserve"><style type="text/css">.st3{fill:#ddd}.st4{fill:#36434f}.st7{fill:#bbb}.st8{fill:#999}.st9{fill:#c99c75}.st10{fill:#e0ac7e}</style><path fill="#eae8da" d="M0 91.7h512v329H0z"/><path opacity=".05" fill="#444" d="M0 400.7h512v20H0z"/><path d="M77.4 289.2c-.3 0-.6-.3-.6-.6v-99c0-.3.3-.6.6-.6h154.7c.3 0 .6.3.6.6v99c0 .3-.3.6-.6.6H77.4z" fill="#195647"/><path class="st3" d="M231.5 190.2V288H78v-97.8h153.5m.6-2.5H77.4c-1 0-1.9.8-1.9 1.9v99c0 1 .8 1.9 1.9 1.9h154.7c1 0 1.9-.8 1.9-1.9v-99c0-1.1-.8-1.9-1.9-1.9z"/><path class="st3" d="M87 187.7h-9.6c-1 0-1.9.8-1.9 1.9v9.6L87 187.7z"/><path class="st4" d="M82 191.1c-.2.2-.6.2-.9 0-.2-.2-.2-.6 0-.9.2-.2.6-.2.9 0 .3.3.3.7 0 .9zm-3 2.2c-.2-.2-.6-.2-.9 0-.2.2-.2.6 0 .9.2.2.6.2.9 0 .2-.3.2-.7 0-.9z"/><path class="st3" d="M87 290.4h-9.6c-1 0-1.9-.8-1.9-1.9V279L87 290.4z"/><path class="st4" d="M82 287.9c-.2.2-.6.2-.9 0-.2-.2-.2-.6 0-.9.2-.2.6-.2.9 0 .3.3.3.7 0 .9zm-3-3.9c-.2-.2-.6-.2-.9 0-.2.2-.2.6 0 .9.2.2.6.2.9 0 .2-.3.2-.7 0-.9z"/><path class="st3" d="M222.6 187.7h9.6c1 0 1.9.8 1.9 1.9v9.6l-11.5-11.5z"/><path class="st4" d="M227.5 190.2c.2-.2.6-.2.9 0 .2.2.2.6 0 .9-.2.2-.6.2-.9 0-.2-.2-.2-.6 0-.9zm3.1 4c.2.2.6.2.9 0 .2-.2.2-.6 0-.9-.2-.2-.6-.2-.9 0-.2.2-.2.6 0 .9z"/><path class="st3" d="M222.6 290.4h9.6c1 0 1.9-.8 1.9-1.9V279l-11.5 11.4z"/><path class="st4" d="M227.5 287c.2-.2.6-.2.9 0 .2.2.2.6 0 .9-.2.2-.6.2-.9 0-.2-.2-.2-.6 0-.9zm3.1-2.1c.2.2.6.2.9 0 .2-.2.2-.6 0-.9-.2-.2-.6-.2-.9 0-.2.2-.2.6 0 .9z"/><path d="M101.8 219.1c-.2 2-.3 4 .1 6 .4 1.9 1.1 3.9.9 5.8-.1.8-.3 2-.9 2.6-.5.5-1.4.6-2 .4-.7-.2-1.4-.6-1.8-1.1-.3-.4-.6-1.3.1-1.6.4-.2.8.7 1 1 .4.5 1 1 1.6.5.3-.2.4-.7.5-1 .1-.5.2-1.1.2-1.5.1-1 0-1.9-.3-2.8-.3-.9-.4-1.9-.6-2.8-.1-.5-.1-.9-.1-1.4-.1-.5-.1-1-.1-1.6 0-1 0-2.1.1-3.1.1-.8.3-1.8.9-2.5.6-.6 1.5-1 2.3-.7.6.2 1.6.7 1.2 1.6-.2.4-.8-.1-1-.2-.3-.3-.7-.5-1-.1-.3.3-.5.8-.7 1.2-.2.1-.6 1.3-.4 1.3zm19.5 10.6c.1-.5.2-1.1.2-1.6-.7.3-1.5.5-2.2.1-.6-.4-.8-1.3-.6-2 .1-.4.2-.8.5-1.1.3-.3.6-.7.9-1.1.7-.8 1.9-.5 2.3.4.9-1.1.9-2.6 1.2-4 .2-.6.4-1.5.8-1.9.3-.3 1-.1 1.1.3.2.3-.1.6-.2.8-.2.3-.2.6-.3 1-.2.8-.5 1.5-.7 2.3-.5 1.5-1 2.9-1.3 4.4-.1.4-.2.8-.2 1.3 0 .4 0 .9-.1 1.2-.1.2-.3.5-.6.5s-.6-.3-.8-.6zm-1.1-3.1c0 .2.1.3.1.5.4-.2.7-.8 1.1-1.2.2-.2.3-.4.3-.6 0-.2-.1-.6-.2-.6-.3-.2-.7.4-.9.6-.3.3-.4.8-.4 1.3zM99.9 236c1.3-.1 2.1.8 2.7 1.9.3.6.6 1.2.4 1.8-.2.6-.6 1.1-1 1.4-.9.9-2.2 1.1-3.3.3-1-.7-1.4-1.9-1.1-3 .1-.6.3-1.2.8-1.6.4-.4.9-.9 1.5-.8zm-.7 3c-.4-.1-.3.6-.2.8.1.3.3.8.6 1 .6.5 1.4-.5 1.7-1 .4-.8 0-1.7-.5-2.3-.4-.5-.6-.1-.8.3l-.8 1.2zm11.9-12c-.4.6-.8 1.3-1.4 1.8-.2.2-.3.3-.6.2-.2-.1-.5-.2-.6-.4-.2-.5.6-1.2.9-1.5.4-.4 1.1-1.1.8-1.7-.2-.3-.4-.7-.6-1-.2-.3-.3-.7-.5-.9-.2-.2-.4-.3-.5-.6-.1-.3.1-.6.4-.5.3 0 .6.2.8.4l.3.3c.1.1.3.2.4.3.1.2 0 .3.2.5 0 .1.2.1.2.2.1.2.1.3.2.5.4-.6.7-1.3 1.1-2 .1-.2.2-.6.6-.7.2 0 .5.2.6.5.3.6-.2 1.2-.5 1.7-.2.3-.3.6-.5.9-.2.2-.5.6-.4 1 .1.3.4.7.5 1 .2.3.4.6.6 1l.6.8c.1.2.2.4.1.6-.4.5-1.1-.1-1.3-.4-.5-.8-.9-1.4-1.4-2zm31.9 1c-.5.1-1 .4-1.5.2-.4-.2-.8-.7-.3-.9.9-.4 2.2-.8 3.1-.1.4.3.4.7.2 1.2-.1.2-.2.3-.4.5s-.4.3-.1.6c.3.4.7.7.8 1.2.1.5.1 1.1-.2 1.5-.3.4-.8.7-1.2 1-.5.3-1.1.6-1.6.6-1-.1-1.7-.7-1.9-1.6-.1-.3-.2-1.2.3-1.1.6.1.6.9.9 1.2.3.3.7.4 1.1.2.4-.2 1.1-.6 1.2-1.1.6-1.6-2.1-.6-2.1-1.8 0-.5.5-.4.8-.6.4-.2.6-.7.9-1zm-17.6-4.3c.9-.2 1.5.2 1.8 1.1.4-.5.7-1.1 1.2-1.6.3-.4.9-.2 1.2.2.3.6-.4 1.1-.7 1.5l-.7.8c-.2.3-.3.4-.1.7.3.6.6 1.2 1 1.8.2.4.9 1.2 0 1.4-.5.1-.9-.3-1.1-.7-.3-.6-.6-1.2-.9-1.9-.3.4-.6.7-.9 1.1-.2.3-.5.8-.8 1.1-.5.6-1.5 0-1.1-.7.2-.4.6-.8.9-1.2.3-.4.7-.8 1-1.2.3-.5 0-.7-.3-1.1-.2-.3-.4-.7-.5-1.3zm-9.6-3.8h1.8c.5 0 1.1.1 1.4.6.1.2.1 0 0 .2-.1.1-.2.1-.3.1-.3.1-.6.1-.9.1h-2c-.6 0-1.2 0-1.6-.4-.2-.2-.3-.2-.2-.5 0-.2.2-.3.4-.4.2-.1.3-.1.5-.3.2-.2.3-.4.5-.6.2-.2.3-.4.4-.7.1-.3.1-.5 0-.7-.4.2-.6.6-1 .9-.3.2-1.1.5-1.2-.1-.1-.3.3-.9.5-1.2.3-.4.6-.7 1.1-.8.4-.1.8.1 1.1.3.3.3.7.8.7 1.2 0 .2 0 .5-.1.7-.1.2-.2.6-.3.8 0 0-.1.1-.2.1 0 0 0 .1-.1.2-.1.2-.3.3-.5.5zm-13.5-6.2c.1-.3.5-1.9.2-1.9-.1 0-.2.1-.3.1-.2 0-.3 0-.5-.1s-.5-.3-.4-.6c0-.3.4-.7.6-.9.2-.4.5-.8.8-1.2.2-.2.3-.6.7-.7.2-.1.6.1.9.2.6.3.2 1.2.2 1.7-.1.9-.2 1.7-.3 2.6-.1.4 0 1.2-.5 1.5-.7.1-1.3-.2-1.4-.7zm43.8 1.7c-.3 1.4-.7 2.8-1 4.1-.1.7-.2 1.4-.2 2.2 0 .5-.6.6-1 .3-.5-.4-.2-1.2-.2-1.6.1-.4.1-.8.2-1.2 0-.2.1-.3.1-.5 0-.1.2-.4.1-.5-.1-.2-.3.1-.6 0-.2-.1-.3-.2-.3-.4 0-.5.6-1.2.9-1.7.2-.3.4-.7.6-1.1.1-.2.2-.5.5-.6.5 0 .9.5.9 1zm1.3 10c-1.8 0-3.7 0-5.5-.1-.5 0-1.5 0-1.7-.7-.2-.8 1.5-.5 1.9-.4 1.8.2 3.6.1 5.4 0 .4 0 1.8-.1 1.7.7-.1.3-.4.4-.6.5-.2-.1-1.2-.1-1.2 0zm-9.7 1.4c.1.4-.8.3-1.1.3-.5 0-1.1 0-1.6.1s-1 .3-1.4.2c-.4-.1-.9-.3-.9-.8s.4-.6.8-.6c.6 0 1.1-.1 1.7-.1.6 0 1.1 0 1.7.1.5.2.8.3.8.8zm-3.2-3.3c1 .1 2.1 0 3 .4.2.1.2.1.3.2 0 .1.1.4 0 .4-.2.3-1.1.2-1.4.1-.5-.1-1-.1-1.5 0-.4 0-1 .2-1.4 0-.3-.2-.5-.7-.2-.9.3-.1 1.2-.1 1.2-.2z" opacity=".8" fill="#fff"/><path d="M181.1 255.5c-2.8 0-5.3-2-5.8-4.8-.3-1.6.1-3.1.9-4.3l-3.7-.5c-2.7-.4-4.8-2.5-5.1-5.2-.3-2.7 1.4-5.3 3.9-6.2l2.7-1h-3.9c-3.2 0-5.9-2.6-5.9-5.9s2.6-5.9 5.9-5.9h38.7c2.9 0 5.3 2.1 5.8 4.9.5 2.8-1.1 5.6-3.9 6.5l-12.3 4.3 10.2 1.4c2.9.4 5 2.8 5.1 5.7.1 2.9-2 5.4-4.8 5.9l-26.9 5c-.2 0-.6.1-.9.1z" opacity=".1" fill="#fff"/><path class="st7" d="M420 213.8h92v186.9h-92V213.8z"/><path class="st3" d="M425.5 219.3h81v181.4h-81V219.3z"/><path class="st7" d="M495.8 392.1h-59.5v-50.7h59.5v50.7zm-55.9-3.6h52.2v-43.4h-52.2v43.4zm55.9-56.6h-59.5v-99.3h1.8c3.6 0 7.6-1 11.8-2.1 4.9-1.2 10.3-2.7 16.2-2.7 5.9 0 11.4 1.4 16.2 2.7 4.2 1.1 8.1 2.1 11.8 2.1h1.8v99.3zm-55.9-3.6h52.2v-92c-3.5-.3-7.1-1.2-10.8-2.2-4.9-1.2-9.9-2.6-15.3-2.6s-10.4 1.3-15.3 2.6c-3.8.9-7.3 1.9-10.8 2.2v92z"/><path class="st4" d="M431.7 332.6h-1.5c-.6 0-1.1-.5-1.1-1.1v-10.6c0-.6.5-1.1 1.1-1.1h1.5c.6 0 1.1.5 1.1 1.1v10.6c0 .6-.5 1.1-1.1 1.1zM407 178.7H242c-3.3 0-6 2.7-6 6v113c0 3.3 2.7 6 6 6h165c3.3 0 6-2.7 6-6v-113c0-3.3-2.7-6-6-6z"/><path class="st3" d="M247 185.2h155v112H247z"/><path class="st4" d="M356.7 139.7h-34.3c-1.3 0-2.3-1.1-2.3-2.3V130c0-1.3 1.1-2.3 2.3-2.3h34.3c1.3 0 2.3 1.1 2.3 2.3v7.4c0 1.2-1.1 2.3-2.3 2.3z"/><path class="st7" d="M339.1 91.3h6.6v36.3h-6.6V91.3z"/><path class="st4" d="M337.8 129.1c-.4-.2-10-4.8-10-10.5 0-3 1.7-9.1 3.3-15 1.4-5.1 2.7-9.9 2.9-12.4h.8c-.2 2.6-1.5 7.4-2.9 12.5-1.6 5.8-3.3 11.9-3.3 14.7 0 5.1 9.4 9.8 9.5 9.8 0 .2-.3.9-.3.9z"/><path class="st4" d="M352.4 129.8s-3.5-4.3-5.3-5.4c-.4-.3-1-.5-1.6-.8-2.2-.9-5.5-2.4-8.2-6.4-3.5-5.1-3.2-25.1-3.2-25.9h.8c0 .2-.4 20.6 3 25.5 2.6 3.8 5.7 5.1 7.9 6.1.7.3 1.3.5 1.8.8 2 1.2 5.4 5.4 5.6 5.5l-.8.6z"/><circle class="st8" cx="349.4" cy="135.6" r="1"/><circle class="st8" cx="353.3" cy="135.6" r="1"/><path class="st9" d="M303.3 311.5h138.5V417H303.3V311.5z"/><path class="st10" d="M299 310.2h147.2v2.9H299v-2.9zm0 17.1h147.2v2.9H299v-2.9z"/><path class="st10" d="M440.4 420.7V310.2h2.9v110.5h-2.9zm-138.5 0V310.2h2.9v110.5h-2.9z"/><path class="st9" d="M153.3 311.5h138.5V417H153.3V311.5z"/><path class="st10" d="M149 310.2h147.2v2.9H149v-2.9zm0 17.1h147.2v2.9H149v-2.9z"/><path class="st10" d="M290.4 420.7V310.2h2.9v110.5h-2.9zm-138.5 0V310.2h2.9v110.5h-2.9z"/><path class="st9" d="M1.2 332.7v86.1h49.9v-86.1zm49.9 9.7h94.7v53.7H51.1v-53.7z"/><path class="st10" d="M0 330.2h147v2.4H0v-2.4z"/><path class="st10" d="M144.6 420.7v-89.2h2.4v89.2h-2.4zm-94.8 0v-89.2h2.4v89.2h-2.4zm-49.8 0v-89.2h2.4v89.2H0z"/><path class="st4" d="M59.8 319.5h5.4v8.5h-5.4v-8.5z"/><path class="st4" d="M81.1 327.8c-.1-.1-.3-.2-.4-.2H44.3c-.1 0-.3.1-.4.2l-2.2 2.2c-.1.1-.1.2.1.2h41.6c.1 0 .2-.1.1-.2l-2.4-2.2z"/><path d="M59.1 318.3c0-.1.1-.2.2-.2h6.4c.1 0 .2.1.2.2v1.1c0 .1-.1.2-.2.2h-6.4c-.1 0-.2-.1-.2-.2v-1.1z" fill="#2b353f"/><path class="st4" d="M31.6 280.3c-.3 0-.6.3-.6.6v36.6c0 .3.3.6.6.6h61.8c.3 0 .6-.3.6-.6v-36.6c0-.3-.3-.6-.6-.6H31.6z"/></svg>