<svg version="1.1" id="icon" xmlns="http://www.w3.org/2000/svg" x="0" y="0" viewBox="0 0 512 512" xml:space="preserve"><style type="text/css">.st0{fill:#221e1f}</style><path class="st0" d="M295.4 157.7c2.2 0 4.2-.5 6-1.5.9-.5 1.8-1.1 2.5-1.8.7-.6 1.4-1.3 1.9-2.1 1.5-2.1 2.4-4.7 2.4-7.5 0-7.1-5.7-12.8-12.8-12.8-5.3 0-9.8 3.2-11.8 7.7-.4.9-.7 1.8-.8 2.7-.1.8-.2 1.6-.2 2.4v.7c.4 6.8 6 12.2 12.8 12.2z"/><ellipse transform="rotate(-45.001 433.114 132.014)" class="st0" cx="433.1" cy="132" rx="12.8" ry="12.8"/><path class="st0" d="M412.5 291h-19.9c-3.1-2-16.5-10.2-26.7-10.7l-19.6-1-10.2-17.6c6.9 1.7 18.4 3.6 32.7 2.3h.3c33.8-6.9 64.6-32.4 65.8-33.5l1.8-1.5-1.1-2c-.5-.8-6.6-12-15.2-23.9 9.7-6.4 18.7-15 26.1-25.2 12.1-16.5 18.9-35.4 19.3-53.2.3-18.1-6.1-33-18.1-41.8-22.6-16.5-58.6-6.4-83.8 22.1-11.5-34.1-38.3-56.7-65.3-52.4C271.1 57 252.5 88 253 125.1c-16.9-6.8-36.3-12.2-57.9-13.7-73.7-5-107.7 98.6-111.4 110.5-7.1 22.9-11.5 43.3-11.7 69H5.2l-.8 1.6c-.2.4-4.5 9.4-4.5 18.4s4.3 18 4.5 18.4l.8 1.6h69.5c6.4 38.8 29 77.8 43.4 93.1 13.4 14.3 33.8 35.9 63.1 35.9 33.6 0 50.9-22.7 55.5-42.3 2.6-14-4.1-35.3-16.1-50.5-9.4-12-20.9-18.9-32.4-19.5-13.1-.7-23.4 2.4-30.6 9.2-8.6 8.2-9.5 18.6-9.5 22.7 0 14.4 16 28.8 28.4 29.5 7.6.4 15.7-2.6 20.5-7.7 3.5-3.7 5-8.1 4.5-12.8-.5-4.3-2.1-7.2-4.8-8.5-4-1.9-8.2.6-8.7.9l-1.6 1 .4 1.9c.2.9.4 3.7-.8 5.3-.6.8-1.5 1.2-2.9 1.3-3.3.3-6.8-1.1-9-3.6-1.8-2-2.6-4.4-2.3-6.8 1-6.2 8.2-11.7 19.8-10.1 4.3.6 9.5 4.7 14.3 11.3 6.9 9.5 11.2 21.9 10 28.8-1.6 8.9-4.3 18.7-11.9 23.8-5.5 3.7-13.1 4.5-22.7 2.5-33.1-7-71.2-59.9-79.8-105.5H133c3.4 3.3 6.6 5.5 9.1 6.2 1.2.3 2.3.4 3.4.4 3.6 0 6.3-1.5 8.6-2.8l.8-.4c.7-.4 1.5-.7 2.2-1.1 1.5-.7 3-1.4 3.8-2.3h104.3c2.9 4.8 6.9 8.8 12.5 10 1.2.3 2.4.4 3.5.4 8.9 0 15.8-7.4 18.2-10.4h29.1c1.3 2.7 4 5.9 6.6 8.2 4 3.6 12 9.3 23.5 9.3 1.1 0 2.3-.1 3.5-.2 18.5-1.8 29.3-13.5 32.4-17.3h17.8l99.8-20-99.6-19.8zm-14.1 34.3h-52.8c-.2-.2-.3-.4-.5-.7-1.6-2.3-3.3-4.1-8.6-4.1-4.7 0-7.4 2.1-8.5 4.8h-43.5c-1.8-2.6-4.7-7.5-5.2-11.6H329c.3.1.6.1 1 .1.3 0 .7 0 1-.1h73c.4 5 1.7 8.9 3 11.6h-8.6zm-63.4 5.6c-.9-1.2-1.5-2.2-1.8-2.8 0-.1-.1-.1-.1-.2.2-1.6 2.2-1.8 3.4-1.8 2.8 0 3.1.5 4 1.7.1.1.1.2.2.3.4.6 1 1.4 1.8 2.1.3.3.6.5.9.7 3.1 2.2 8 3.2 15.6 3.2 6.9 0 12.3-2.3 14.1-3.2h13.5c-4.6 4.4-13.2 10.6-25.3 11.8-13.8 1.3-22.6-7-26.3-11.8zm-56.2 4.6c-2.8-.6-5-2.3-6.9-4.6-.7-.9-1.4-1.8-2-2.8-.5-.9-1-1.8-1.5-2.8-2-4.1-3.2-8.5-3.8-11.6-.1-.5-.2-.9-.3-1.3-.1-.5-.2-1-.2-1.5-.1-.9-.2-1.8-.2-2.8-.2-4.2.1-8.8.3-11.6.1-1.5.2-2.4.2-2.5v-.3l.1-1.1-1-1-.7-.7c-2.3-2.2-9.1-9.2-13.4-16.6-.5-.9-1-1.8-1.4-2.7-.4-.9-.8-1.8-1.1-2.7-.3-.9-.6-1.8-.8-2.7-2.1-11 4.4-25.1 4.4-25.3l-2.5-1.2-2.5-1.2c-.3.6-7.3 15.9-4.9 28.7.1.7.3 1.4.5 2.1-4.4.3-8.8.6-13.4.8-30 1.2-52.7-9.4-67.6-20 1.6-3.3 3.3-6.5 4.7-9.1l-2.5-1.3-2.5-1.3s-.1.1-.1.2c-.8 1.4-2.4 4.5-4.3 8.2-.4.8-.9 1.7-1.3 2.6-.4.8-.8 1.6-1.2 2.5-2.8 6-5.4 12.3-5.6 15.3-.2 5 8.3 16.6 14.1 23.7h-11.2l-.8 1.4s-.3.6-.8 1.4c-.4.7-1 1.7-1.7 2.8-2.1 3.5-4.9 8.1-6.2 10.3-.3.4-.4.9-.6 1.3-.2.9-.3 1.8-.1 2.8.1.9.3 1.9.7 2.8.4 1.1.8 2.1 1.3 3.1 1.5 2.9 3.6 6 6 8.5 1 1 2.1 2 3.2 2.8.5.4 1 .7 1.5 1-.2.1-.3.2-.5.3l-.8.5c-.7.4-1.4.8-2 1.1-1.8.9-3.5 1.3-5.8.7-.4-.1-.9-.3-1.6-.7-1-.6-2.3-1.5-3.7-2.8-.9-.8-1.8-1.7-2.8-2.8-1-1.1-2-2.2-3-3.6-2.5-3.2-3.7-5.8-4.1-8.1-.2-1-.3-1.9-.3-2.8 0-.8.1-1.6.3-2.4 0-.1.1-.3.1-.4.8-3.5 3.3-7.9 5.9-11.6.7-1 1.4-1.9 2-2.8.8-1.1 1.5-2 2.2-2.8.3-.4.6-.7.8-1l1-1.2-.5-1.5c-.1-.2-5.9-17.8-5.2-30.1.3-6.3 2.4-13.1 4.3-18.3.4-1 .8-2 1.1-2.9.5-1.1.9-2.1 1.2-2.9.7-1.5 1.1-2.4 1.2-2.5l-2.5-1.3-2.5-1.3-2.3 1.6c-1.4 1-29.7 21.9-38.4 61.2H77.6c.2-25.1 4.6-45 11.4-67.4 3.4-11.1 34.8-106.7 100.9-106.7 1.6 0 3.2.1 4.8.2 21.9 1.5 41.5 7.2 58.6 14.3.2 3.3.6 6.6 1.1 9.9 6.5 40.7 34 70.8 63 70.8 2.2 0 4.4-.2 6.6-.5 9-1.4 17-5.7 23.8-12.2.7-.6 1.3-1.3 2-2 .6-.7 1.3-1.4 1.9-2.1 5.3-6.2 9.5-13.8 12.6-22.3 10.4 2 20.3 4.7 27.6 8.9 6.9 4 14 11.7 20.3 19.8.6.7 1.1 1.5 1.7 2.2.6.8 1.1 1.5 1.7 2.3 6.6 9 11.7 17.7 13.9 21.6-7 5.5-33.6 25.1-61.4 30.8-2.2.2-4.4.3-6.5.4-18.2.4-30.4-4.5-30.5-4.5l-.2-.1-.8-.3-1 .3h-.1-.1-.1c-3.2 1-27.8 8.4-64.4 12.9-1-4.1-1.6-8.2-1.1-10.3 1-4.6 6.5-12.7 8.5-15.4l-2.2-1.7-2.2-1.7c-.1.1-.5.7-1.2 1.7-2.3 3.3-7.1 10.6-8.3 15.8-.6 2.9-.1 7.5 1 12.2.2.9.4 1.8.7 2.7.2.9.5 1.8.8 2.7 1.4 4.7 3 8.7 3.8 9.7.7.8 2.9 4.7 4.8 8 .4.8.9 1.5 1.2 2.2l.3.5 1.3 2.5 2.6-2.2.3-.3c.6-.5 2.1-1.6 4-2.8 2.7-1.6 6.3-3.3 9.7-3.4 2.8-.1 6 1.5 8.7 3.4h-6.4l-.7.5c-.4.3-1.5 1.1-3 2.3-1 .8-2.1 1.7-3.3 2.8-3.5 3.2-7.5 7.5-9.1 11.6-.3.8-.5 1.6-.7 2.4v.4c-.1.9-.1 1.9-.1 2.8.3 4.2 2.4 8.5 4.2 11.6.6 1.1 1.3 2 1.8 2.8.6.9 1.1 1.5 1.2 1.7l.8 1.1h9.7c-3 3.1-7.6 6-12.7 4.9zm-99.6-68.4c.6 3.7 1.1 9.2-.1 11.8-1 2.2-5.7 7.3-10.3 12-7.8-9.4-15.8-20.7-15.7-23.5.1-2 2.1-6.8 4.6-12.2 5.9 4.3 13.1 8.5 21.5 11.9zm18.6 6c.2 2.7.4 7.7-.2 12.1-.2 1.7-.7 3.7-1.2 5.8h-19.9c3.4-3.6 6.6-7.4 7.7-9.7 1.4-3.3 1.3-8.1.9-11.8 4 1.4 8.3 2.6 12.7 3.6zm4.4 17.8c.4-1.7.8-3.4 1-5 .6-4.2.5-8.7.3-11.7 7.5 1.3 15.6 1.9 24.3 1.5 5.3-.2 10.4-.5 15.4-.9 3.1 6.2 8.1 12.2 11.7 16.1h-52.7zm-39.2 5.6h95.3c-.2 2.9-.5 7.4-.3 11.6H146.5c2.1-3.4 5.4-9 7-11.6h9.5zm-4.9 28.8c-2.5-.3-5.9-3-8.8-7.1-1.2-1.7-2-3.2-2.6-4.5h112.2c.7 3.3 1.7 7.5 3.4 11.6H158.1zM180 441.9c11.1 2.3 20.2 1.2 26.9-3.4 9.3-6.3 12.4-17.4 14.2-27.4 1.8-9.9-4.4-24.1-10.9-33.1-5.8-8-12.2-12.8-18.1-13.6-15.2-2.1-24.6 5.8-26.1 14.7-.7 4 .7 8.2 3.6 11.5 3.5 3.8 8.5 5.8 13.6 5.4 3.7-.3 5.8-2.1 6.9-3.5 1.8-2.4 2.1-5.4 2.1-7.4.6-.2 1.3-.2 1.8 0 .8.4 1.5 1.9 1.7 4.1.4 3.8-1.4 6.6-3 8.3-3.7 3.9-10 6.3-16.1 5.9-9.5-.5-23.1-13-23.1-23.9 0-3.4.8-12 7.8-18.7 6-5.7 14.9-8.3 26.5-7.7 9.9.5 20 6.7 28.3 17.4 10.9 13.8 17.3 33.6 15 45.9-.9 3.9-10 37.8-50 37.8-26.9 0-46.3-20.6-59-34.2-13.8-14.7-35.4-51.9-41.8-89.2h15.3c3.5 19.7 12.5 41.4 25.5 61.3 18 27.2 40 45.8 58.9 49.8zM97.7 325.3h-33c-.9-2.3-2.6-6.9-3.1-11.6H122.5c.5 3.2 1.9 7 5.4 11.5l.1.1H97.7zm-46.1 0c-1.1-2.8-3.2-8.7-3.2-14.4 0-5.7 2.1-11.7 3.2-14.4h7c-1.3 3.5-2.8 9-2.8 14.4 0 5.5 1.6 10.9 2.8 14.4h-7zm-7.4 0h-5.6c-1.1-2.8-3.2-8.7-3.2-14.4 0-5.7 2.1-11.7 3.2-14.4h7c-.5 1.3-1 2.9-1.4 4.6-.8 3-1.4 6.4-1.4 9.8s.6 6.9 1.4 9.8c.5 1.7 1 3.3 1.4 4.6h-1.4zm-35.4 0c-1.1-2.8-3.2-8.7-3.2-14.4 0-5.7 2.1-11.7 3.2-14.4h23.8c-1.3 3.5-2.8 9-2.8 14.4 0 5.5 1.6 10.9 2.8 14.4H8.8zm66-28.8h52.7c-2.1 3.5-4.1 7.4-4.8 10.9 0 .2-.1.5-.1.7H61.5c.5-4.8 2.1-9.3 3.1-11.6H74.8zm59-9c-.7.8-1.6 2-2.6 3.4h-28.9c6.3-26.4 22-44 30.4-51.9-1.8 5.2-3.6 11.6-3.9 17.8-.6 11.4 3.6 26 5 30.7zM299.5 58.1c1.9-.3 3.9-.5 5.8-.5 23 0 45.1 21.6 54.3 52.4.3 1.1.6 2.2.9 3.4.3 1.2.6 2.3.9 3.5.5 2.2.9 4.5 1.3 6.8 2.4 15.3 1.5 30-2.2 42.7-.3.9-.5 1.8-.8 2.7l-.9 2.7c-2.5 7-6 13.2-10.1 18.3-.6.8-1.3 1.6-1.9 2.3-.7.7-1.3 1.4-2 2.1-6.1 6-13.4 10.1-21.6 11.4-28.4 4.5-56.8-24.9-63.3-65.6-.4-2.2-.6-4.4-.8-6.5-.1-1.1-.2-2.1-.3-3.2-.1-1-.1-2.1-.2-3.1-1.3-35.4 15.5-65.3 40.9-69.4zm144.9 29.3c10.5 7.7 16.2 20.9 15.8 37.2-.3 16.6-6.8 34.4-18.2 50-7.2 9.8-15.7 18-25 24.1-6.7-8.7-14.6-17.2-22.3-21.7-7.8-4.5-18-7.4-28.7-9.5 3.8-13.3 4.8-28.7 2.2-44.5-.6-4-1.5-7.8-2.5-11.6 23.5-28.5 57.8-39.3 78.7-24zM407 296.5c-1.3 2.7-2.6 6.6-3 11.6h-64.5c2.4-2.4 4.3-4.7 4.8-5.2l5.1-6.4H407zm-126.1 11.6c2.5-4 7.8-8.7 11.7-11.6h37.2c-.4.9-1 2.1-1.6 3.4-1.3 2.6-2.7 5.6-2.9 8.2h-44.4zm-4.1-37c10.3-1.5 19.3-3.2 27-4.8l23.8 24.7H306c-2.6-2.5-10.2-9.2-17.7-9-5.8.2-11.6 3.5-14.9 5.7-1.6-2.9-4-7-5-8.2-.5-.8-1.5-3.5-2.6-6.9 3.9-.5 7.5-1 11-1.5zm69.9 19.8l-2.2 2.8-2.2 2.8-2.3 2.9c-3 3.8-7.1 7.4-9.1 8.5.4-1.5 1.8-4.5 2.3-5.6 1.4-2.8 2.3-4.7 2.8-5.9.6-1.2.8-1.7.8-1.7l.4-1.1.3-.6-2-2.1-25.1-26.1c9-2.1 15.4-3.8 18.5-4.8l14.2 24.5 22.6 1.2c4.8.2 10.7 2.7 15.6 5.1h-34.6zm66.5 34.1c-.4-.6-.8-1.4-1.2-2.4-1.2-2.6-2.4-6.6-2.4-11.7 0-5.2 1.2-9.1 2.4-11.7.4-1 .9-1.8 1.2-2.4l41.7 8.3c-.5 1.5-1 3.6-1 5.8 0 2.2.5 4.2 1 5.8l-41.7 8.3z"/></svg>