<?xml version="1.0" encoding="utf-8"?>
<!-- Generator: Adobe Illustrator 22.1.0, SVG Export Plug-In . SVG Version: 6.00 Build 0)  -->
<svg version="1.1" id="icon" xmlns="http://www.w3.org/2000/svg" xmlns:xlink="http://www.w3.org/1999/xlink" x="0px" y="0px"
	 viewBox="0 0 512 115" style="enable-background:new 0 0 512 115;" xml:space="preserve">
<style type="text/css">
	.st0{fill:#721412;}
</style>
<path class="st0" d="M81.9,45.8c0,27.1-16.6,45.3-41.1,45.3C16.4,91.1,0,72.8,0,45.6C0,18.5,16.5,0,40.9,0
	C65.2,0,81.9,18.6,81.9,45.8z M8.3,45.3c0,23.3,12.9,38.6,32.6,38.6s32.7-15.3,32.7-38.2c0-23-13.2-38.5-32.8-38.5
	C21.4,7.2,8.3,22.6,8.3,45.3z M100.8,38.4c4.5-9.3,12-13.9,22.5-13.9c17.1,0,28.3,13.3,28.3,33.5c0,19.9-11.2,33.1-28.1,33.1
	c-10.1,0-17.9-4.5-22.2-13.6v35h-7.4V26.3h7L100.8,38.4L100.8,38.4z M101.1,57.8c0,16.5,8.3,26.7,21.5,26.7
	c12.8,0,21.2-10.5,21.2-26.6c0-16.5-8.3-27.1-21.5-27.1S101.1,40.9,101.1,57.8z M189,91.1c-17.5,0-28.8-12.8-28.8-32.7
	s11.8-33.8,28.7-33.8c18.6,0,27.6,15.4,27.6,32.7v2.2H168c0,13.2,6.1,25.4,21.2,25.4c10,0,16.7-5.6,19.2-16.5h7.4
	C213.2,82.3,203.8,91.1,189,91.1L189,91.1z M188.6,30.9c-13.7,0-19.2,10.6-20.6,22.3h40.8C207.9,39.3,200.3,30.9,188.6,30.9z
	 M234.1,38.1c5-8.9,11.4-13.6,22.2-13.6c12.2,0,21.7,6.3,21.7,21.7V89h-7.7V48.7c0-12.9-6.5-17.5-16-17.5
	c-11.5,0-19.8,7.6-19.8,23.8v34h-7.7V26.3h7.2L234.1,38.1L234.1,38.1z"/>
<path d="M342.3,27.7c-1-10.9-8.2-15.3-18.9-15.3c-10.4,0-16.6,4.5-16.6,12.1c0,8.3,5.4,8.8,22.1,13.2c14.8,3.8,31.4,7.3,31.4,26
	c0,19.7-17.5,27.2-34.5,27.2c-20.6,0-36.6-9.8-36.6-30.8h15c0,13.4,10.1,18.7,22.5,18.7c11.7,0,18.7-5.1,18.7-13.7
	c0-9-7.4-10.6-20.3-13.9c-18.4-4.8-32.7-7.8-32.7-25.5c0-15.5,12.6-25.4,32.1-25.4c17.7,0,31.7,7.9,32.5,27.3h-14.7V27.7z
	 M421.4,27.7c-1-10.9-8.2-15.3-18.9-15.3c-10.4,0-16.6,4.5-16.6,12.1c0,8.3,5.4,8.8,22.1,13.2c14.8,3.8,31.4,7.3,31.4,26
	c0,19.7-17.5,27.2-34.5,27.2c-20.6,0-36.6-9.8-36.6-30.8h15c0,13.4,10.1,18.7,22.5,18.7c11.7,0,18.7-5.1,18.7-13.7
	c0-9-7.4-10.6-20.3-13.9c-18.4-4.8-32.7-7.8-32.7-25.5c0-15.5,12.6-25.4,32.1-25.4c17.7,0,31.7,7.9,32.5,27.3L421.4,27.7L421.4,27.7
	z M512,89h-59.6V2.1h15.4v73.7H512V89z"/>
<g>
	<path d="M119.2,111.2c-4.9,0-8.1-3.6-8.1-9.1c0-4.9,3-9.1,8.3-9.1c3.5,0,6.7,1.9,7.3,5.9h-3c-0.4-2.1-2.1-3.3-4.3-3.3
		c-3.7,0-5.2,3.3-5.2,6.5s1.4,6.5,5.1,6.5c2.8,0,4.1-1.9,4.4-4.4h3.1C126.4,108.3,123.5,111.2,119.2,111.2z M136.3,100.6
		c-0.5,0-0.7-0.1-1-0.1c-2.8,0-3.6,2.1-3.6,4.7v5.5h-2.8V98.1h2.6v2.5c0.8-1.7,2.2-2.8,4.2-2.8h0.5v2.8H136.3z M144.2,110.5
		c-0.9,2.4-1.6,5.1-4.7,5.1c-0.6,0-1,0-1.9-0.1v-2.3c0.8,0.1,1.1,0.2,1.5,0.2c1.4,0,1.8-1.8,2.1-2.9l-4.8-12.2h3.1l3.4,9.3l3.2-9.3
		h2.9C149,98.3,144.2,110.5,144.2,110.5z M153.1,99.8c0.9-1.4,2.5-2.1,4.1-2.1c3.5,0,5.7,2.6,5.7,6.7c0,4-2.2,6.6-5.6,6.6
		c-1.7,0-3.1-0.6-4.1-2v6.3h-2.8V98.1h2.6v1.7L153.1,99.8z M153.1,104.4c0,2.7,1.3,4.4,3.5,4.4c2.1,0,3.4-1.7,3.4-4.3
		c0-2.7-1.3-4.5-3.5-4.5C154.4,100,153.1,101.7,153.1,104.4z M171.5,100.2H169v6.6c0,1.2,0,1.8,1.4,1.8h1.1v2.2
		c-0.8,0.1-1.2,0.1-1.9,0.1c-3.7,0-3.4-1.8-3.4-4.7v-6H164v-2h2.1v-3.8h2.8v3.8h2.5L171.5,100.2L171.5,100.2z M185.6,104.4
		c0,4.1-2.4,6.7-6.3,6.7s-6.4-2.6-6.4-6.7s2.5-6.7,6.4-6.7C183.1,97.8,185.6,100.4,185.6,104.4z M175.7,104.4c0,2.8,1.3,4.5,3.6,4.5
		c2.2,0,3.5-1.7,3.5-4.5s-1.3-4.4-3.5-4.4S175.7,101.7,175.7,104.4z M199.5,109.3c0,4.1-1.5,6.4-6.1,6.4c-3.4,0-5.3-1.3-5.6-3.8h2.8
		c0.3,1.3,1.2,1.9,2.9,1.9c2.3,0,3.3-1.1,3.3-3.7v-1.5c-1,1.5-2.2,2.1-4,2.1c-3.3,0-5.5-2.4-5.5-6.3c0-4,2.2-6.5,5.6-6.5
		c1.8,0,2.9,0.7,3.9,2.1v-1.8h2.6v11.1L199.5,109.3z M190.1,104.3c0,2.5,1.3,4.1,3.3,4.1c2.1,0,3.4-1.7,3.4-4.3
		c0-2.6-1.3-4.1-3.4-4.1S190.1,101.6,190.1,104.3z M209.5,100.6c-0.5,0-0.7-0.1-1-0.1c-2.8,0-3.6,2.1-3.6,4.7v5.5h-2.8V98.1h2.6v2.5
		c0.8-1.7,2.2-2.8,4.2-2.8h0.5v2.8H209.5z M216.4,97.8c3,0,5.2,1.1,5.2,3.8v6.4c0,0.7,0.1,0.9,0.7,0.9h0.6v2
		c-0.9,0.2-1.3,0.3-1.8,0.3c-1.1,0-1.9-0.4-2.1-1.5c-1.1,1.1-2.8,1.5-4.4,1.5c-2.6,0-4.2-1.4-4.2-3.8c0-3.3,3.1-3.7,5.6-4
		c1.9-0.2,2.5-0.4,2.8-0.7c0.1-0.1,0.2-0.4,0.2-0.9c0-1.3-0.8-1.9-2.6-1.9s-2.6,0.6-2.8,2.2H211C211.2,98.9,213.3,97.8,216.4,97.8z
		 M216,105.1c-1.3,0.2-2.8,0.4-2.8,2.1c0,1.2,0.8,1.9,2.3,1.9c1.1,0,2.2-0.4,2.9-1c0.6-0.6,0.6-1.4,0.6-2.2v-1.5
		C218,104.9,217,105,216,105.1z M227.2,99.8c0.9-1.4,2.5-2.1,4.1-2.1c3.5,0,5.7,2.6,5.7,6.7c0,4-2.2,6.6-5.6,6.6
		c-1.7,0-3.1-0.6-4.1-2v6.3h-2.8V98.1h2.6v1.7L227.2,99.8z M227.3,104.4c0,2.7,1.3,4.4,3.5,4.4c2.1,0,3.4-1.7,3.4-4.3
		c0-2.7-1.3-4.5-3.5-4.5C228.6,100,227.3,101.7,227.3,104.4z M242.3,99.9c0.9-1.3,2.2-2.1,4-2.1c2.7,0,4.3,1.5,4.3,4.4v8.5h-2.8
		v-7.6c0-1.7-0.4-3-2.4-3c-2.3,0-3.1,1.7-3.1,3.8v6.8h-2.8V93.4h2.8V99.9z M259.9,110.5c-0.9,2.4-1.6,5.1-4.7,5.1
		c-0.6,0-1,0-1.9-0.1v-2.3c0.8,0.1,1.1,0.2,1.5,0.2c1.4,0,1.8-1.8,2.1-2.9l-4.8-12.2h3.1l3.4,9.3l3.2-9.3h2.9L259.9,110.5
		L259.9,110.5z M278.4,97.8c3,0,5.2,1.1,5.2,3.8v6.4c0,0.7,0.1,0.9,0.7,0.9h0.6v2c-0.9,0.2-1.3,0.3-1.8,0.3c-1.1,0-1.9-0.4-2.1-1.5
		c-1.1,1.1-2.8,1.5-4.4,1.5c-2.6,0-4.2-1.4-4.2-3.8c0-3.3,3.1-3.7,5.6-4c1.9-0.2,2.5-0.4,2.8-0.7c0.1-0.1,0.2-0.4,0.2-0.9
		c0-1.3-0.8-1.9-2.6-1.9s-2.6,0.6-2.8,2.2H273C273.2,98.9,275.3,97.8,278.4,97.8z M277.9,105.1c-1.3,0.2-2.8,0.4-2.8,2.1
		c0,1.2,0.8,1.9,2.3,1.9c1.1,0,2.2-0.4,2.9-1c0.6-0.6,0.6-1.4,0.6-2.2v-1.5C279.9,104.9,278.9,105,277.9,105.1z M289.2,100
		c1-1.5,2.3-2.2,4.2-2.2c2.9,0,4.3,1.7,4.3,4.5v8.4h-2.8v-7.3c0-1.7-0.2-3.3-2.4-3.3c-1.7,0-3.1,0.9-3.1,3.8v6.8h-2.8V98.1h2.6
		L289.2,100L289.2,100z M312.5,110.7h-2.6V109c-0.8,1.4-2.1,2.1-4,2.1c-3.6,0-5.8-2.6-5.8-6.7s2.2-6.6,5.7-6.6c1.8,0,3.1,0.7,4,2
		v-6.4h2.7L312.5,110.7L312.5,110.7z M302.8,104.4c0,2.8,1.3,4.5,3.5,4.5s3.5-1.6,3.5-4.4s-1.3-4.4-3.6-4.4
		C304.2,100,302.8,101.7,302.8,104.4z M332.2,98.5c-0.2-2.2-1.6-3.1-3.8-3.1c-2.1,0-3.3,0.9-3.3,2.4c0,1.7,1.1,1.8,4.4,2.6
		c3,0.8,6.3,1.5,6.3,5.2c0,3.9-3.5,5.4-6.9,5.4c-4.1,0-7.3-2-7.3-6.2h3c0,2.7,2,3.7,4.5,3.7c2.3,0,3.7-1,3.7-2.7
		c0-1.8-1.5-2.1-4.1-2.8c-3.7-1-6.5-1.6-6.5-5.1c0-3.1,2.5-5.1,6.4-5.1c3.5,0,6.3,1.6,6.5,5.5h-2.9L332.2,98.5z M348,98.5
		c-0.2-2.2-1.6-3.1-3.8-3.1c-2.1,0-3.3,0.9-3.3,2.4c0,1.7,1.1,1.8,4.4,2.6c3,0.8,6.3,1.5,6.3,5.2c0,3.9-3.5,5.4-6.9,5.4
		c-4.1,0-7.3-2-7.3-6.2h3c0,2.7,2,3.7,4.5,3.7c2.3,0,3.7-1,3.7-2.7c0-1.8-1.5-2.1-4.1-2.8c-3.7-1-6.5-1.6-6.5-5.1
		c0-3.1,2.5-5.1,6.4-5.1c3.5,0,6.3,1.6,6.5,5.5H348V98.5z M366.2,110.7h-11.9V93.4h3.1v14.7h8.8V110.7z"/>
	<path d="M368.5,111.2H366l7.1-18.2h2.4L368.5,111.2z"/>
	<path d="M389.3,96h-5.5v14.7h-3.1V96h-5.5v-2.6h14.1V96z M403.2,110.7h-11.9V93.4h3.1v14.7h8.8V110.7z M415,98.5
		c-0.2-2.2-1.6-3.1-3.8-3.1c-2.1,0-3.3,0.9-3.3,2.4c0,1.7,1.1,1.8,4.4,2.6c3,0.8,6.3,1.5,6.3,5.2c0,3.9-3.5,5.4-6.9,5.4
		c-4.1,0-7.3-2-7.3-6.2h3c0,2.7,2,3.7,4.5,3.7c2.3,0,3.7-1,3.7-2.7c0-1.8-1.5-2.1-4.1-2.8c-3.7-1-6.5-1.6-6.5-5.1
		c0-3.1,2.5-5.1,6.4-5.1c3.5,0,6.3,1.6,6.5,5.5H415V98.5z M440.5,96H435v14.7h-3.1V96h-5.5v-2.6h14.1V96z M451.5,104.4
		c0,4.1-2.4,6.7-6.3,6.7s-6.4-2.6-6.4-6.7s2.5-6.7,6.4-6.7C449.1,97.8,451.5,100.4,451.5,104.4z M441.6,104.4c0,2.8,1.3,4.5,3.6,4.5
		c2.2,0,3.5-1.7,3.5-4.5s-1.3-4.4-3.5-4.4S441.6,101.7,441.6,104.4z M466,104.4c0,4.1-2.4,6.7-6.3,6.7s-6.4-2.6-6.4-6.7
		s2.5-6.7,6.4-6.7C463.5,97.8,466,100.4,466,104.4z M456.1,104.4c0,2.8,1.3,4.5,3.6,4.5c2.2,0,3.5-1.7,3.5-4.5s-1.3-4.4-3.5-4.4
		C457.4,100,456.1,101.7,456.1,104.4z M471.2,110.7h-2.8V93.4h2.8V110.7z M480.6,102.8l5.3,8h-3.4l-3.8-6.1l-1.7,1.6v4.5h-2.7V93.4
		h2.7v9.8l5-5h3.4L480.6,102.8z M490.2,96h-2.8v-2.7h2.8V96z M490.2,110.7h-2.8V98.1h2.8V110.7z M499.4,100.2h-2.5v6.6
		c0,1.2,0,1.8,1.4,1.8h1.1v2.2c-0.8,0.1-1.2,0.1-1.9,0.1c-3.7,0-3.4-1.8-3.4-4.7v-6H492v-2h2.1v-3.8h2.8v3.8h2.5V100.2z"/>
</g>
</svg>
