<svg version="1.1" xmlns="http://www.w3.org/2000/svg" x="0" y="0" viewBox="0 0 512 512" xml:space="preserve"><path d="M250.7 0h10.5v21.1h-10.5V0zm0 490.9h10.5V512h-10.5v-21.1zM0 261.2v-10.5h21.1v10.5H0zm491 .1v-10.5h21.1v10.5H491zM31.6 132.6l5.3-9.1L55.1 134l-5.3 9.1-18.2-10.5zm425.2 245.5l5.3-9.1 18.3 10.5-5.3 9.1-18.3-10.5zM132.6 480.3l-9.1-5.3 10.6-18.3 9.1 5.3-10.6 18.3zM378 55.1l-9.1-5.3 10.6-18.3 9.1 5.3L378 55.1zM123.4 36.9l9.1-5.3L143.1 50l-9.1 5.3-10.6-18.4zm245.5 425.2l9.1-5.3 10.5 18.3-9.1 5.3-10.5-18.3zm-332-73.6l-5.3-9.1 18.3-10.5 5.3 9.1-18.3 10.5zm425.2-245.4l-5.3-9.1 18.3-10.5 5.3 9.1-18.3 10.5z"/><circle cx="256" cy="256" r="11.3"/></svg>