<?xml version="1.0" encoding="utf-8"?>
<!-- Generator: Adobe Illustrator 22.1.0, SVG Export Plug-In . SVG Version: 6.00 Build 0)  -->
<svg version="1.1" id="icon" xmlns="http://www.w3.org/2000/svg" xmlns:xlink="http://www.w3.org/1999/xlink" x="0px" y="0px"
	 viewBox="0 0 512 512" style="enable-background:new 0 0 512 512;" xml:space="preserve">
<style type="text/css">
	.st0{fill:#36434F;}
	.st1{fill:#667E8E;}
	.st2{fill:#B24B53;}
	.st3{fill:#1C2933;}
</style>
<g>
	<g>
		<path class="st0" d="M450.6,354.5c0,2.8-2.3,5-5,5H66.4c-2.8,0-5-2.3-5-5V106c0-2.8,2.2-5,5-5.1L251,97.2c2.7-0.1,7.2-0.1,10,0
			l184.6,3.8c2.7,0.1,5,2.4,5,5.1V354.5z"/>
	</g>
	<g>
		<path class="st1" d="M433.8,317.9c0,2.8-2.3,5-5,5H83.2c-2.8,0-5-2.3-5-5v-190c0-2.8,2.3-5,5-5h345.5c2.8,0,5,2.3,5,5V317.9z"/>
	</g>
	<g>
		<path class="st0" d="M455.2,360.4c-2.6-1-6.9-1.9-9.6-1.9h-192c-2.8,0-7.3,0-10,0h-4.9c-2.8,0-7.3,0-10,0H66.4
			c-2.8,0-7.1,0.8-9.6,1.9l-52.1,21c-2.6,1-4.6,4.1-4.6,6.9v8.8c0,2.8,2.1,5.9,4.6,6.9l21.5,9c2.5,1.1,6.9,1.9,9.6,1.9h193
			c2.8,0,7.3,0,10,0h4.9c2.8,0,7.3,0,10,0h222.7c2.8,0,7.1-0.9,9.6-1.9l21.5-9c2.5-1.1,4.6-4.2,4.6-6.9v-8.8c0-2.8-2.1-5.8-4.6-6.9
			L455.2,360.4z"/>
	</g>
	<g>
		<g>
			<path class="st2" d="M110.9,396.1c0,1.1-0.9,2-2,2h-98c-1.1,0-2-0.9-2-2v-1c0-1.1,0.9-2,2-2h98c1.1,0,2,0.9,2,2V396.1z"/>
		</g>
		<g>
			<path class="st2" d="M401.1,396.1c0,1.1,0.9,2,2,2h98c1.1,0,2-0.9,2-2v-1c0-1.1-0.9-2-2-2h-98c-1.1,0-2,0.9-2,2V396.1z"/>
		</g>
	</g>
	<g>
		<g>
			<path class="st3" d="M248.6,107c-1.1,0-2,0.9-2,2v2.9c0,1.1,0.9,2,2,2h14.8c1.1,0,2-0.9,2-2V109c0-1.1-0.9-2-2-2H248.6z
				 M256,112.4c-1.1,0-2-0.9-2-2c0-1.1,0.9-2,2-2s2,0.9,2,2C258,111.5,257.1,112.4,256,112.4z"/>
		</g>
		<circle class="st3" cx="280.8" cy="110.4" r="1.5"/>
		<circle class="st3" cx="231.2" cy="110.4" r="1.5"/>
	</g>
	<g>
		<path class="st2" d="M420.1,362.5c-0.9-0.6-2.6-1-3.7-1H302.3c-1.1,0-2.9,0-4,0H258c-1.1,0-2.9,0-4,0h-46.3c-1.1,0-2.9,0-4,0H95.6
			c-1.1,0-2.8,0.5-3.7,1l-18.3,10.8c-0.9,0.6-0.8,1,0.3,1h110.8c1.1,0,2.9,0,4,0H254c1.1,0,2.9,0,4,0h59.4c1.1,0,2.9,0,4,0h116.8
			c1.1,0,1.2-0.5,0.3-1L420.1,362.5z"/>
	</g>
</g>
</svg>
