<svg version="1.1" id="icon" xmlns="http://www.w3.org/2000/svg" x="0" y="0" viewBox="0 0 512 512" xml:space="preserve"><style type="text/css">.st0{fill:#36434f}.st2{fill:#b24b53}.st3{fill:#1c2933}</style><path class="st0" d="M450.6 354.5c0 2.8-2.3 5-5 5H66.4c-2.8 0-5-2.3-5-5V106c0-2.8 2.2-5 5-5.1L251 97.2c2.7-.1 7.2-.1 10 0l184.6 3.8c2.7.1 5 2.4 5 5.1v248.4z"/><path d="M433.8 317.9c0 2.8-2.3 5-5 5H83.2c-2.8 0-5-2.3-5-5v-190c0-2.8 2.3-5 5-5h345.5c2.8 0 5 2.3 5 5v190z" fill="#667e8e"/><path class="st0" d="M455.2 360.4c-2.6-1-6.9-1.9-9.6-1.9H66.4c-2.8 0-7.1.8-9.6 1.9l-52.1 21c-2.6 1-4.6 4.1-4.6 6.9v8.8c0 2.8 2.1 5.9 4.6 6.9l21.5 9c2.5 1.1 6.9 1.9 9.6 1.9h440.6c2.8 0 7.1-.9 9.6-1.9l21.5-9c2.5-1.1 4.6-4.2 4.6-6.9v-8.8c0-2.8-2.1-5.8-4.6-6.9l-52.3-21z"/><path class="st2" d="M110.9 396.1c0 1.1-.9 2-2 2h-98c-1.1 0-2-.9-2-2v-1c0-1.1.9-2 2-2h98c1.1 0 2 .9 2 2v1zm290.2 0c0 1.1.9 2 2 2h98c1.1 0 2-.9 2-2v-1c0-1.1-.9-2-2-2h-98c-1.1 0-2 .9-2 2v1z"/><path class="st3" d="M248.6 107c-1.1 0-2 .9-2 2v2.9c0 1.1.9 2 2 2h14.8c1.1 0 2-.9 2-2V109c0-1.1-.9-2-2-2h-14.8zm7.4 5.4c-1.1 0-2-.9-2-2s.9-2 2-2 2 .9 2 2-.9 2-2 2z"/><circle class="st3" cx="280.8" cy="110.4" r="1.5"/><circle class="st3" cx="231.2" cy="110.4" r="1.5"/><path class="st2" d="M420.1 362.5c-.9-.6-2.6-1-3.7-1H95.6c-1.1 0-2.8.5-3.7 1l-18.3 10.8c-.9.6-.8 1 .3 1h364.3c1.1 0 1.2-.5.3-1l-18.4-10.8z"/></svg>