<svg version="1.1" xmlns="http://www.w3.org/2000/svg" x="0" y="0" viewBox="0 0 1920 1080" xml:space="preserve"><style type="text/css">.st3{fill:#ddd}.st4{fill:#36434f}.st7{fill:#bbb}.st8{fill:#999}.st9{fill:#c99c75}.st10{fill:#e0ac7e}</style><path fill="#f8f8f8" d="M0 1.4h1920V1080H0z"/><path opacity=".05" fill="#444" d="M0 1014.4h1920v65.6H0z"/><path d="M374.5 648.9c-1.1 0-2-.9-2-2V322.2c0-1.1.9-2 2-2h507.2c1.1 0 2 .9 2 2v324.6c0 1.1-.9 2-2 2H374.5z" fill="#195647"/><path class="st3" d="M879.8 324.2v320.6H376.6V324.2h503.2m2-8.1H374.5c-3.3 0-6.1 2.7-6.1 6.1v324.6c0 3.3 2.7 6.1 6.1 6.1h507.2c3.3 0 6.1-2.7 6.1-6.1V322.2c.1-3.3-2.7-6.1-6-6.1z"/><path class="st3" d="M406 316.1h-31.4c-3.3 0-6.1 2.7-6.1 6.1v31.4l37.5-37.5z"/><path class="st4" d="M389.7 327.3c-.8.8-2 .8-2.8 0-.8-.8-.8-2 0-2.8.8-.8 2-.8 2.8 0 .7.7.7 2 0 2.8zm-10.1 7.1c-.8-.8-2-.8-2.8 0s-.8 2 0 2.8c.8.8 2 .8 2.8 0 .7-.7.7-2 0-2.8z"/><path class="st3" d="M406 652.9h-31.4c-3.3 0-6.1-2.7-6.1-6.1v-31.4l37.5 37.5z"/><path class="st4" d="M389.7 644.7c-.8.8-2 .8-2.8 0-.8-.8-.8-2 0-2.8.8-.8 2-.8 2.8 0 .7.7.7 2 0 2.8zm-10.1-13c-.8-.8-2-.8-2.8 0s-.8 2 0 2.8 2 .8 2.8 0c.7-.6.7-2 0-2.8z"/><path class="st3" d="M850.3 316.1h31.4c3.3 0 6.1 2.7 6.1 6.1v31.4l-37.5-37.5z"/><path class="st4" d="M866.7 324.3c.8-.8 2-.8 2.8 0 .8.8.8 2 0 2.8s-2 .8-2.8 0c-.7-.6-.7-1.9 0-2.8zm10 13c.8.8 2 .8 2.8 0s.8-2 0-2.8-2-.8-2.8 0c-.7.7-.7 2 0 2.8z"/><path class="st3" d="M850.3 652.9h31.4c3.3 0 6.1-2.7 6.1-6.1v-31.4l-37.5 37.5z"/><path class="st4" d="M866.7 641.8c.8-.8 2-.8 2.8 0s.8 2 0 2.8c-.8.8-2 .8-2.8 0-.7-.7-.7-2 0-2.8zm10-7.1c.8.8 2 .8 2.8 0 .8-.8.8-2 0-2.8s-2-.8-2.8 0c-.7.6-.7 2 0 2.8z"/><path d="M454.4 419.1c-.6 6.7-.9 13 .4 19.6 1.3 6.3 3.7 12.7 2.9 19.2-.3 2.6-1 6.6-3 8.5-1.7 1.5-4.5 1.9-6.7 1.4s-4.5-1.8-6-3.6c-1.1-1.2-1.8-4.3.3-5.2 1.4-.6 2.7 2.2 3.3 3.1 1.2 1.7 3.2 3.2 5.2 1.5.9-.8 1.2-2.3 1.5-3.3.4-1.6.5-3.4.7-5.1.2-3.1-.1-6.1-1-9.1s-1.4-6.2-1.9-9.2c-.3-1.5-.3-3-.4-4.6-.2-1.7-.4-3.3-.3-5.2.1-3.3.1-6.8.3-10 .2-2.6 1.1-6 2.9-8.1s4.9-3.1 7.6-2.3c2 .6 5.4 2.4 4.1 5.2-.7 1.4-2.5-.2-3.3-.8-1.1-.9-2.2-1.5-3.3-.3-1 1.1-1.7 2.6-2.3 4.1-.3.3-1.5 4.1-1 4.2zm64 34.8c.2-1.7.5-3.6.7-5.3-2.3.9-4.8 1.7-7.1.2-2.1-1.4-2.6-4.3-2.1-6.6.3-1.3.8-2.5 1.7-3.7s1.8-2.3 2.8-3.4c2.2-2.5 6.1-1.5 7.5 1.3 2.8-3.7 2.8-8.6 4-13 .5-1.8 1.2-4.8 2.6-6.2 1.1-1.1 3.1-.4 3.8.9.5.9-.2 1.8-.6 2.6-.5 1-.7 2.1-1.1 3.2l-2.4 7.5c-1.5 4.8-3.2 9.6-4.4 14.5-.3 1.4-.5 2.7-.6 4.2-.1 1.2.1 2.8-.2 4-.2.8-1 1.6-2 1.6-1.1 0-1.9-1.1-2.6-1.8zm-3.6-10.4c0 .6.2 1.1.4 1.7 1.4-.8 2.3-2.6 3.4-3.9.5-.6.9-1.2.9-2 0-.6-.4-1.8-.8-2.1-.9-.6-2.3 1.3-2.8 2-.8 1.3-1.3 2.8-1.1 4.3zm-66.5 30.8c4.2-.2 7 2.7 8.7 6.2.9 1.8 1.9 3.9 1.4 5.9-.5 1.8-2 3.4-3.2 4.7-2.9 2.8-7.3 3.7-10.8 1.1-3.3-2.3-4.6-6.1-3.8-9.9.4-1.9 1-3.9 2.5-5.2 1.5-1.2 3.3-3.1 5.2-2.8zm-2.2 9.8c-1.3-.4-.9 1.9-.8 2.5.3 1.1.9 2.5 1.9 3.2 2.1 1.5 4.7-1.7 5.5-3.3 1.2-2.5 0-5.6-1.6-7.6-1.2-1.5-1.8-.4-2.5.9l-2.5 4.3zm38.9-39.2c-1.4 2-2.7 4.2-4.7 5.8-.7.6-.9 1-1.9.8-.8-.2-1.5-.7-1.8-1.4-.8-1.7 2-3.9 2.9-5.1 1.2-1.4 3.4-3.4 2.6-5.5-.5-1.1-1.2-2.3-1.9-3.3-.5-.9-1-2.2-1.7-2.9-.6-.6-1.3-1-1.5-1.9-.3-1.1.3-1.8 1.4-1.6.9.1 1.9.7 2.5 1.4.4.4.6.8 1 1.1.4.3.9.5 1.2.9.4.5.1 1.1.5 1.6.1.2.5.3.7.6.3.5.4 1.1.7 1.7 1.2-2.1 2.4-4.4 3.6-6.5.4-.7.8-2.1 1.8-2.2.8-.1 1.7.8 2.1 1.5 1 1.8-.7 4-1.5 5.5-.5.9-1.1 1.9-1.6 2.9-.5.8-1.5 2.1-1.4 3.1.2 1 1.2 2.2 1.7 3.1.6 1.1 1.3 2.1 1.9 3.2l1.8 2.7c.4.6.7 1.2.2 1.8-1.3 1.6-3.6-.2-4.4-1.3-1.3-2.1-2.7-4.1-4.2-6zm104.5 3.3c-1.5.4-3.2 1.2-4.9.5-1.2-.6-2.6-2.2-.9-2.9 3-1.4 7.2-2.6 10-.2 1.2 1.1 1.4 2.4.7 3.9-.3.7-.8 1.1-1.2 1.6-.8.7-1.2 1-.4 1.9 1.1 1.2 2.2 2.2 2.6 4 .4 1.6.3 3.6-.7 5-.9 1.2-2.6 2.3-3.9 3.1-1.5 1-3.4 2-5.3 1.9-3.1-.2-5.6-2.2-6.2-5.3-.2-1-.7-3.9.9-3.8 1.8.2 2 2.9 2.9 4.1.9 1 2.3 1.3 3.7.7 1.3-.6 3.6-2.1 4-3.6 1.8-5.3-7-2.1-6.9-6 0-1.6 1.5-1.4 2.5-1.9 1.4-.5 2.3-2 3.1-3zm-57.6-14c2.9-.6 5.1.6 5.9 3.6 1.3-1.7 2.4-3.8 3.9-5.4 1.1-1.3 3-.8 4 .6 1 1.8-1.2 3.7-2.2 5l-2.2 2.7c-.7.9-.9 1.2-.4 2.3 1 2 2.1 4 3.2 5.9.8 1.4 2.8 4 .1 4.6-1.5.3-2.9-1-3.7-2.2-1-1.9-1.9-4.1-2.8-6.1-1 1.2-2 2.3-3 3.7-.8 1.1-1.6 2.6-2.5 3.8-1.7 2-5.1-.1-3.8-2.4.8-1.3 2.1-2.5 3-3.9 1-1.3 2.2-2.6 3.1-4 1-1.5 0-2.4-.9-3.7-.9-1.4-1.3-2.7-1.7-4.5zm-31.5-12.7c1.9 0 3.9 0 5.8.1 1.7.1 3.8.3 4.5 2.1.3.7.3.1.1.6-.2.3-.7.3-.9.4-.9.2-1.9.3-2.9.3-2.1.1-4.4 0-6.5-.1-1.9-.1-3.9 0-5.3-1.3-.5-.5-.9-.8-.8-1.5.1-.5.8-1.1 1.2-1.3.6-.3 1-.4 1.5-.9.6-.6 1.1-1.3 1.6-2s.9-1.4 1.3-2.2c.4-1 .3-1.5-.1-2.4-1.3.7-2.1 2-3.2 3-.9.8-3.6 1.5-3.9-.3-.2-1.1 1-2.9 1.6-3.9.9-1.2 2.1-2.3 3.7-2.5 1.3-.2 2.6.2 3.7 1.1.9.9 2.2 2.5 2.4 3.9.1.8-.1 1.5-.4 2.2-.3.7-.6 2.1-1.1 2.6-.1.1-.4.2-.5.3-.1.1-.1.4-.3.6-.3.4-1 .7-1.5 1.2zM456 401.2c.2-.9 1.6-6.1.7-6.4-.3-.1-.8.2-1.1.2-.5 0-1-.1-1.5-.3-.8-.4-1.5-1.1-1.3-2 .1-1.1 1.2-2.2 1.8-3 .8-1.2 1.7-2.5 2.6-3.9.6-.8 1.1-2.1 2.2-2.3.8-.2 2.1.3 2.8.6 1.9 1 .8 4 .7 5.7-.3 2.8-.8 5.6-1.1 8.4-.2 1.4 0 4.1-1.5 4.9-1.8.9-3.9-.2-4.3-1.9zm143.8 5.8c-1 4.6-2.3 9-3.1 13.6-.4 2.4-.6 4.7-.7 7.1-.1 1.6-2.1 1.8-3.3.9-1.6-1.2-.7-3.9-.5-5.4.2-1.2.4-2.5.6-3.9.1-.6.2-1.1.3-1.7.1-.4.5-1.2.3-1.6-.3-.8-1.1.3-1.8.1-.6-.2-1.1-.8-1.1-1.4-.1-1.7 1.9-4.1 2.8-5.5.7-1.1 1.4-2.3 1.9-3.6.4-.8.6-1.5 1.5-1.8 1.8-.3 3.1 1.5 3.1 3.2zm4.1 32.7c-6 0-12-.1-18.1-.2-1.7 0-5.1-.1-5.5-2.4-.5-2.7 5.1-1.5 6.3-1.4 6 .6 11.8.4 17.8 0 1.2-.1 6-.2 5.5 2.2-.2 1-1.2 1.4-2.1 1.6-.6 0-3.9 0-3.9.2zm-31.7 4.7c.4 1.4-2.7 1.1-3.6 1.1-1.7.1-3.6.1-5.4.4-1.5.2-3.1.9-4.7.7-1.3-.2-2.8-1.1-2.8-2.6.1-1.6 1.3-1.8 2.6-1.9 1.8-.1 3.7-.2 5.5-.2 1.9 0 3.8.1 5.6.3 1.8.1 2.9.4 2.8 2.2zm-10.4-11c3.2.2 6.9-.1 9.9 1.2.6.3.8.3 1 .8.1.2.2 1.2.1 1.4-.6 1-3.7.5-4.6.4-1.6-.2-3.2-.2-4.9-.1-1.2.1-3.3.7-4.5.1-.9-.5-1.6-2.3-.6-3 .7-.3 3.5-.4 3.6-.8z" opacity=".8" fill="#fff"/><path d="M714.4 538.3c-9.1 0-17.2-6.5-19-15.8-.9-5.2.2-10.2 2.9-14.2l-12-1.6c-8.8-1.2-15.7-8.3-16.6-17.1-.9-8.9 4.5-17.2 12.9-20.2l8.9-3.1h-12.7c-10.7 0-19.3-8.6-19.3-19.3s8.6-19.3 19.3-19.3h126.8c9.4 0 17.4 6.8 19 16 1.5 9.2-3.8 18.4-12.7 21.4l-40.3 14 33.5 4.5c9.4 1.2 16.4 9.1 16.7 18.7s-6.5 17.8-15.8 19.4l-88.3 16.2c-1 .3-2.2.4-3.3.4z" opacity=".1" fill="#fff"/><path class="st7" d="M1497.7 401.8h301.5v612.7h-301.5V401.8z"/><path class="st3" d="M1515.7 419.7h265.6v594.7h-265.6V419.7z"/><path class="st7" d="M1746 986.3h-195V820h195v166.3zm-183-12h171.1V832H1563v142.3zm183-185.4h-195V463.4h6c11.8 0 24.8-3.4 38.5-6.8 15.9-4.1 33.9-8.7 53-8.7 19.3 0 37.2 4.7 53 8.7 13.6 3.5 26.7 6.8 38.5 6.8h6v325.5zm-183-12h171.1V475.1c-11.5-.8-23.2-3.8-35.5-7.1-15.9-4.1-32.4-8.4-50-8.4s-34.1 4.2-50 8.4c-12.3 3.1-24.1 6.2-35.5 7.1v301.8h-.1z"/><path class="st4" d="M1536 791.1h-4.8c-2 0-3.6-1.6-3.6-3.6v-34.7c0-2 1.6-3.6 3.6-3.6h4.8c2 0 3.6 1.6 3.6 3.6v34.7c0 2.1-1.5 3.6-3.6 3.6zm-81-504.5H914.1c-10.9 0-19.7 8.8-19.7 19.7v370.5c0 10.9 8.8 19.7 19.7 19.7H1455c10.9 0 19.7-8.8 19.7-19.7V306.3c0-10.9-8.8-19.7-19.7-19.7z"/><path class="st3" d="M930.5 307.9h508.2v367.2H930.5z"/><path class="st4" d="M1290 158.7h-112.5c-4.2 0-7.7-3.5-7.7-7.7v-24.3c0-4.2 3.5-7.7 7.7-7.7H1290c4.2 0 7.7 3.5 7.7 7.7V151c0 4.2-3.5 7.7-7.7 7.7z"/><path class="st7" d="M1232.5.1h21.7V119h-21.7V.1z"/><path class="st4" d="M1228.1 124c-1.3-.6-32.7-15.9-32.7-34.4 0-9.8 5.5-29.8 10.9-49.1 4.6-16.6 9-32.3 9.6-40.5l2.6.1c-.6 8.4-5 24.3-9.6 41-5.4 19.2-10.9 39-10.9 48.3 0 16.9 30.9 32 31.2 32.1l-1.1 2.5zm48.1 2.2c-.1-.1-11.4-13.9-17.5-17.6-1.4-.9-3.3-1.7-5.4-2.6-7.2-3.1-17.9-7.8-27-20.8-11.6-16.6-10.5-82.2-10.5-85h2.6c0 .6-1.2 67.5 10 83.6 8.6 12.4 18.5 16.7 25.8 19.9 2.2 1 4.2 1.8 5.8 2.7 6.5 4 17.8 17.6 18.3 18.2l-2.1 1.6z"/><circle class="st8" cx="1266.4" cy="145.2" r="3.2"/><circle class="st8" cx="1279.1" cy="145.2" r="3.2"/><path class="st9" d="M1115.1 721.9h454.2v345.8h-454.2V721.9z"/><path class="st10" d="M1101 717.6h482.5v9.4H1101v-9.4zm0 56.1h482.5v9.4H1101v-9.4z"/><path class="st10" d="M1564.7 1079.9V717.6h9.4v362.3h-9.4zm-454.3.1V717.7h9.4V1080h-9.4z"/><path class="st9" d="M623.3 721.9h454.2v345.8H623.3V721.9z"/><path class="st10" d="M609.2 717.6h482.5v9.4H609.2v-9.4zm0 56.1h482.5v9.4H609.2v-9.4z"/><path class="st10" d="M1072.9 1079.9V717.6h9.4v362.3h-9.4zm-454.2.1V717.7h9.4V1080h-9.4z"/><path class="st9" d="M124.5 791.3v282.4h163.8V791.3zm163.8 32h310.6v176H288.3v-176z"/><path class="st10" d="M120.7 783.3h481.9v8H120.7v-8z"/><path class="st10" d="M594.6 1080V787.5h8V1080h-8zm-310.6 0V787.5h8V1080h-8zm-163.3 0V787.5h8V1080h-8z"/><path class="st4" d="M316.7 748.2h17.7V776h-17.7v-27.8z"/><path class="st4" d="M386.7 775.4c-.3-.3-.9-.6-1.4-.6H265.9c-.4 0-1 .2-1.4.6l-7.3 7.3c-.3.3-.2.6.2.6h136.4c.4 0 .6-.2.2-.6l-7.3-7.3z"/><path d="M314.3 744.2c0-.4.4-.8.8-.8h21c.4 0 .8.4.8.8v3.6c0 .4-.4.8-.8.8h-21c-.4 0-.8-.4-.8-.8v-3.6z" fill="#2b353f"/><path class="st4" d="M224.4 619.8c-1.1 0-2 .9-2 2v119.9c0 1.1.9 2 2 2h202.5c1.1 0 2-.9 2-2V621.8c0-1.1-.9-2-2-2H224.4z"/></svg>