<svg version="1.1" xmlns="http://www.w3.org/2000/svg" x="0" y="0" viewBox="0 0 1920 1080" xml:space="preserve"><path d="M881.6 316.1H374.4c-3.3 0-6.2 2.6-6.2 6.2v324.6c0 3.3 2.6 6.2 6.2 6.2h507.2c3.3 0 6.2-2.6 6.2-6.2V322.3c.1-3.6-2.6-6.2-6.2-6.2zm-12.1 8.2c.7.7.7 2 0 3s-2 .7-3 0c-.7-.7-.7-2 0-3h3zm7.2 10.1c.7-.7 2-.7 3 0 0 0 0 .3.3.3v2.3s0 .3-.3.3c-.7.7-2 .7-3 0-.6-.9-.6-2.2 0-2.9zm-487.2-10.1c.7.7.7 2 0 3-.7.7-2 .7-3 0-.7-.7-.7-2 0-3 0 0 .3 0 .3-.3l2.7.3zm-9.8 12.7c-.7.7-2 .7-3 0 0 0 0-.3-.3-.3v-2.3s0-.3.3-.3c.7-.7 2-.7 3 0 .6 1 .6 2.3 0 2.9zm7.2 307.6c-.7-.7-.7-2 0-3 .7-.7 2-.7 3 0 .7.7.7 2 0 3h-3c0 .3 0 .3 0 0zm-7.2-10.2c-.7.7-2 .7-3 0 0 0 0-.3-.3-.3v-2.3s0-.3.3-.3c.7-.7 2-.7 3 0 .6 1 .6 2.3 0 2.9zm486.9 10.2c-.7-.7-.7-2 0-3 .7-.7 2-.7 3 0 .7.7.7 2 0 3 0 0-.3 0-.3.3l-2.7-.3c.3 0 .3 0 0 0zm10.1-12.8c.7-.7 2-.7 3 0 0 0 0 .3.3.3v2.3s0 .3-.3.3c-.7.7-2 .7-3 0-.6-.9-.6-2.2 0-2.9zm3-8.2l-21.3 21.3H397.7l-21.3-21.3v-278l21.3-21.3h460.7l21.3 21.3v278zM452.8 392.8c0-1 1.3-2.3 2-3 .7-1.3 1.6-2.6 2.6-3.9.7-.7 1-2 2.3-2.3.7-.3 2 .3 3 .7 2 1 .7 3.9.7 5.6-.3 3-.7 5.6-1 8.5-.3 1.3 0 3.9-1.6 4.9-2 1-3.9-.3-4.3-2 .3-1 1.6-6.2.7-6.2-.3 0-.7.3-1 .3-.7 0-1 0-1.6-.3-1.5-.7-2.1-1.3-1.8-2.3zm137.4 22c0-1.6 2-3.9 3-5.6.7-1 1.3-2.3 2-3.6.3-.7.7-1.6 1.6-2 2-.3 3.3 1.3 3.3 3.3-1 4.6-2.3 9.2-3.3 13.4-.3 2.3-.7 4.6-.7 7.2 0 1.6-2 2-3.3 1-1.6-1.3-.7-3.9-.7-5.2.3-1.3.3-2.6.7-3.9 0-.7.3-1 .3-1.6 0-.3.7-1.3.3-1.6-.3-.7-1 .3-2 0-.6-.1-1.2-.8-1.2-1.4zM541 440.7c-.7 1-1 1.3-.3 2.3 1 2 2 3.9 3.3 5.9.7 1.3 3 3.9 0 4.6-1.6.3-3-1-3.6-2.3-1-2-2-3.9-3-6.2-1 1.3-2 2.3-3 3.6-.7 1-1.6 2.6-2.6 3.6-1.6 2-4.9 0-3.6-2.3.7-1.3 2-2.6 3-3.9 1-1.3 2.3-2.6 3.3-3.9 1-1.6 0-2.3-1-3.6-.7-1.3-1.3-2.6-1.6-4.6 3-.7 4.9.7 5.9 3.6 1.3-1.6 2.3-3.6 3.9-5.2 1-1.3 3-.7 3.9.7 1 2-1.3 3.6-2.3 4.9l-2.3 2.8zm54.4 16.3c.3 1.6.3 3.6-.7 4.9-1 1.3-2.6 2.3-3.9 3.3-1.6 1-3.6 2-5.2 2-3.3-.3-5.6-2.3-6.2-5.2-.3-1-.7-3.9 1-3.6 2 .3 2 3 3 3.9 1 1 2.3 1.3 3.6.7 1.3-.7 3.6-2 3.9-3.6 2-5.2-6.9-2-6.9-5.9 0-1.6 1.6-1.3 2.6-2 1.3-.7 2-2 3-3-1.6.3-3.3 1.3-4.9.7-1.3-.7-2.6-2.3-1-3 3-1.3 7.2-2.6 10.2-.3 1.3 1 1.3 2.3.7 3.9-.3.7-.7 1-1.3 1.6-.7.7-1.3 1-.3 2 1.1.7 2.1 1.7 2.4 3.6zm-147.2 17.4c-2-.3-3.6 1.6-4.9 2.6-1.6 1.3-2 3.3-2.6 5.2-.7 3.9.3 7.5 3.6 9.8 3.6 2.6 7.9 1.6 10.8-1 1.3-1.3 2.6-3 3.3-4.6.7-2-.7-3.9-1.3-5.9-1.7-3.5-4.6-6.4-8.9-6.1zm4.3 12.2c-.7 1.6-3.3 4.9-5.6 3.3-1-.7-1.6-2-2-3.3 0-.7-.7-3 .7-2.6l2.3-4.3c.7-1.3 1.3-2.3 2.6-1 2 2.3 3.3 5.2 2 7.9zm119.6-42.3c.3 1.3-2.6 1-3.6 1-1.6 0-3.6 0-5.2.3s-3.3 1-4.6.7-3-1-3-2.6 1.3-2 2.6-2c2 0 3.6-.3 5.6-.3 2 0 3.6 0 5.6.3 1.6.6 2.6.9 2.6 2.6zm37.7-6.6c-.3 1-1.3 1.3-2 1.6-.7 0-3.9 0-3.9.3-5.9 0-12.1 0-18-.3-1.6 0-4.9 0-5.6-2.3-.7-2.6 4.9-1.6 6.2-1.3 5.9.7 11.8.3 17.7 0 1.4-.3 6.3-.3 5.6 2zm-37-2.3c0 .3.3 1.3 0 1.3-.7 1-3.6.7-4.6.3-1.6-.3-3.3-.3-4.9 0-1.3 0-3.3.7-4.6 0-1-.7-1.6-2.3-.7-3 .7-.3 3.3-.3 3.6-.7 3.3.3 6.9 0 9.8 1.3 1.1.2 1.1.2 1.4.8zm-42.3-11.5c.3-1 .7-2.3 1-3.3.3-.7 1-1.6.7-2.6-.7-1.3-2.6-2-3.6-1-1.3 1.3-2 4.3-2.6 6.2-1 4.3-1 9.2-3.9 13.1-1.3-3-5.2-3.9-7.5-1.3-1 1-2 2.3-3 3.6-1 1-1.3 2.3-1.6 3.6-.7 2.3 0 5.2 2 6.6 2.3 1.6 4.9.7 7.2-.3-.3 1.6-.7 3.6-.7 5.2.7.7 1.6 2 2.6 2s2-.7 2-1.6c.3-1 0-2.6.3-3.9 0-1.3.3-2.6.7-4.3 1-4.9 3-9.8 4.3-14.4.5-2.3 1.4-4.9 2.1-7.6zm-11.8 17.4c-1 1.3-2 3-3.6 3.9-.3-.7-.3-1-.3-1.6-.3-1.6.3-3 1-4.3.7-.7 2-2.6 3-2 .3.3.7 1.6.7 2 .2 1-.5 1.4-.8 2zm-25.3 9.2c.3.7.7 1.3.3 2-1.3 1.6-3.6-.3-4.3-1.3-1.6-2.3-3-4.3-4.3-6.2-1.3 2-2.6 4.3-4.6 5.9-.7.7-1 1-2 .7-.7-.3-1.6-.7-2-1.3-.7-1.6 2-3.9 3-4.9 1.3-1.3 3.6-3.6 2.6-5.6-.7-1-1.3-2.3-2-3.3s-1-2.3-1.6-3-1.3-1-1.6-2c-.3-1 .3-2 1.3-1.6 1 0 2 .7 2.6 1.3l1 1c.3.3 1 .7 1.3 1 .3.7 0 1 .7 1.6 0 .3.7.3.7.7.3.7.3 1 .7 1.6 1.3-2 2.3-4.3 3.6-6.6.3-.7.7-2 2-2.3.7 0 1.6.7 2 1.6 1 2-.7 3.9-1.6 5.6-.7 1-1 2-1.6 3-.7.7-1.6 2-1.3 3.3.3 1 1.3 2.3 1.6 3.3.7 1 1.3 2 2 3.3l1.5 2.2zm-29.1-38.7c-.7 1.3-2.6-.3-3.3-.7-1-1-2.3-1.6-3.3-.3-1 1-1.6 2.6-2.3 3.9-.3.3-1.3 4.3-1 4.3-.7 6.6-1 13.1.3 19.7 1.3 6.2 3.6 12.8 3 19-.3 2.6-1 6.6-3 8.5-1.6 1.6-4.6 2-6.6 1.3-2.3-.7-4.6-2-5.9-3.6-1-1.3-2-4.3.3-5.2 1.3-.7 2.6 2.3 3.3 3.3 1.3 1.6 3.3 3.3 5.2 1.6 1-.7 1.3-2.3 1.6-3.3.3-1.6.7-3.6.7-4.9.3-3.3 0-6.2-1-9.2-1-3-1.3-6.2-2-9.2-.3-1.6-.3-3-.3-4.6-.3-1.6-.3-3.3-.3-5.2 0-3.3 0-6.9.3-10.2.3-2.6 1-5.9 3-8.2 2-2 4.9-3.3 7.5-2.3 1.8.7 5.1 2.7 3.8 5.3zm45.5 13.1c-1 .3-2 .3-3 .3h-6.6c-2 0-3.9 0-5.2-1.3-.7-.7-1-.7-.7-1.6 0-.7.7-1 1.3-1.3.7-.3 1-.3 1.6-1s1-1.3 1.6-2c.7-.7 1-1.3 1.3-2.3s.3-1.6 0-2.3c-1.3.7-2 2-3.3 3-1 .7-3.6 1.6-3.9-.3-.3-1 1-3 1.6-3.9 1-1.3 2-2.3 3.6-2.6 1.3-.3 2.6.3 3.6 1 1 1 2.3 2.6 2.3 3.9 0 .7 0 1.6-.3 2.3-.3.7-.7 2-1 2.6 0 0-.3.3-.7.3-.3 0 0 .3-.3.7-.3.3-1 .7-1.3 1.3h5.9c1.6 0 3.6.3 4.6 2 .3.7.3 0 0 .7-.4.2-.7.2-1.1.5zm1289.5-23.3v612.8h-18V419.7h-265.6v594.8h-18V401.6h301.6zM1551.1 820h195.1v166.2h-195.1V820zm11.9 154.4h171.1V832.1H1563v142.3zm177-511.1h5.9v325.6h-195.1V463.3h5.9c11.8 0 24.9-3.3 38.7-6.9 16.1-3.9 33.8-8.9 53.1-8.9s37.4 4.6 53.1 8.9c13.5 3.6 26.6 6.9 38.4 6.9zm-5.9 11.8c-11.5-1-23.3-3.9-35.4-7.2-16.1-3.9-32.5-8.5-50.2-8.5-17.7 0-34.1 4.3-50.2 8.5-12.5 3-23.9 6.2-35.4 7.2v301.6H1734l.1-301.6zm-279-188.5h-541c-10.8 0-19.7 8.9-19.7 19.7v370.5c0 10.8 8.9 19.7 19.7 19.7h541c10.8 0 19.7-8.9 19.7-19.7V306.2c0-10.8-8.9-19.6-19.7-19.6zm-16.4 388.5H930.5V307.9h508.2v367.2zM1290.2 119h-16.7c-3.9-4.6-9.5-10.2-13.4-12.8-1.6-1-3.6-1.6-5.9-2.6V0h-21.6v88.9c-1.3-1.6-2.6-3.3-3.9-5.2-11.1-16.1-9.8-83-9.8-83.6h-2.6c-.7 8.2-4.9 23.9-9.5 40.7-5.2 19.3-10.8 39.3-10.8 49.2 0 12.5 14.1 23.3 23.9 29.5H1178c-4.3 0-7.5 3.6-7.5 7.5v24.3c0 4.3 3.6 7.5 7.5 7.5h112.5c4.3 0 7.5-3.6 7.5-7.5V127c-.3-4.7-3.9-8-7.8-8zm-65.6 0c-8.9-4.9-26.6-16.7-26.6-29.5 0-9.2 5.6-29.2 10.8-48.2 2.6-9.8 5.2-19 7.2-26.9.3 21 2 59 10.5 70.8 2 3 3.9 5.2 6.2 7.5v26.6h-8.2c.1 0 .1-.3.1-.3zm29.5-12.8c1.6.7 3.3 1.3 4.6 2.3 3.3 2 7.5 6.6 11.1 10.5h-15.7v-12.8zm12.1 42.3c-1.6 0-3.3-1.3-3.3-3.3 0-1.6 1.3-3.3 3.3-3.3 1.6 0 3.3 1.3 3.3 3.3 0 1.7-1.3 3.3-3.3 3.3zm12.8 0c-1.6 0-3.3-1.3-3.3-3.3 0-1.6 1.3-3.3 3.3-3.3 1.6 0 3.3 1.3 3.3 3.3 0 1.7-1.3 3.3-3.3 3.3z"/><path d="M1583.6 727.2v-9.5H1101v9.5h9.5v46.6h-9.5v9.5h9.5V1080h9.5v-12.1h444.6v12.1h9.5V783.3h9.5v-9.5h-9.5v-46.6h9.5zm-491.8 0v-9.5H609.2v9.5h9.5v46.6h-9.5v9.5h9.5V1080h9.5v-12.1h444.6v12.1h9.5V783.3h9.5v-9.5h-9.5v-46.6h9.5zm-489.2 56.1h-482V1080h7.9v-6.2h155.4v6.2h7.9v-80.7h302.6v80.7h7.9V783.3h.3zm-7.8 40H292.1v-32.1h302.6v32.1z"/><path d="M426.9 619.7H224.3c-1 0-2 1-2 2v120c0 1 1 2 2 2h90.2s-.3.3-.3.7v3.6c0 .3.3.7.7.7h1.6v26.2H266c-.3 0-1 .3-1.3.7l-7.2 7.2c-.3.3-.3.7.3.7h136.4c.3 0 .7-.3.3-.7l-7.2-7.2c-.3-.3-1-.7-1.3-.7h-51.5v-26.2h1.6c.3 0 .7-.3.7-.7v-3.6c0-.3 0-.3-.3-.7h90.2c1 0 2-1 2-2v-120c.2-1-.8-2-1.8-2z"/></svg>