<svg version="1.1" xmlns="http://www.w3.org/2000/svg" x="0" y="0" viewBox="0 0 512 512" xml:space="preserve"><path d="M228.9 147c-4.7 0-8.5 3.4-8.5 7.5s3.8 7.5 8.5 7.5 8.5-3.4 8.5-7.5-3.8-7.5-8.5-7.5zm4.7 8.5c-1.3 0-2.4-1.1-2.4-2.4 0-1.3 1.1-2.4 2.4-2.4 1.3 0 2.4 1.1 2.4 2.4 0 1.3-1.1 2.4-2.4 2.4zm112.8 58.9v-12.1c1.8-2.8 2.8-5.8 2.8-9s-1-6.2-2.8-9v-10.5c0-1.5-.7-3.1-1.8-4.2l-.1-.1.3-.6c8.6-15.1 15.2-31.3 19.7-48.2 2.5-9.5 1.4-19.4-3.1-27.7-2.4-4.4-5.1-8.6-7.9-12.5C344.9 34.6 304.7 0 256.4 0c-47.9 0-87.8 34-97 79.1-3.3 4.4-6.2 9-8.9 13.9-4.6 8.5-5.7 18.3-3.1 27.7 4.5 16.8 11.2 33.1 19.7 48.2l.3.6-.1.1c-1.1 1.1-1.8 2.7-1.8 4.2v11.9c-1.3 2.4-2 4.9-2 7.6s.7 5.2 2 7.6v13.5c-102 64.5 21.6 260.5 53.3 284.3 12.5 9.4 26.4 13.3 37.1 13.3s24.6-4 37.1-13.3c31.8-23.7 155.4-219.8 53.4-284.3zm-194.2-95c-2.3-8.2-1.3-16.7 2.7-24 .9-1.7 1.9-3.3 2.9-4.9 23.3-38 67.9-59.5 112.2-54.1 27.7 3.4 54 17.2 72.5 38.2.6.6 1.1 1.3 1.6 1.9.2.3.5.6.7.8.6.7 1.2 1.4 1.7 2.1.1.2.3.4.4.5 2.9 3.8 5.7 7.7 8.2 11.9l2.1 3.6c3.9 7.2 4.9 15.8 2.7 24.1-3.9 14.6-9.4 28.7-16.5 42-5.8-16.1-16.3-28.8-31.2-37.8-15.1-9.1-34.5-13.9-56.1-13.9s-40.9 4.8-56.1 13.9c-14.9 9-25.4 21.7-31.2 37.8-7.1-13.4-12.7-27.5-16.6-42.1zm189 52.3l-2 5.6c-7.3-4.9-18-8-30.1-8-9.3 0-20.3 2-29.4 5.6-1.7-8.4-11.5-14.9-23.2-14.9-11.8 0-21.6 6.5-23.2 14.9-9.1-3.6-20.2-5.6-29.6-5.6-12.5 0-23.5 3.3-30.8 8.4l-2.2-6 .9-3.3c9.7-34.1 40.4-53.7 84.3-53.7s74.6 19.6 84.3 53.7l1 3.3zM197.6 212c-9.7-.9-31.7-7.3-29-20 .3-1.5 1-3.1 2.1-4.8 6.5-10.1 22.1-12.9 33.1-12.9 12.6 0 33.5 3.1 41.3 14.7.8 1.2 1.5 2.6 1.5 4.1.2 3.6-2.8 6.6-5.8 8.7-12.2 8.5-28.6 11.6-43.2 10.2zm58.8 14.3c-7.8 0-14.1-6.3-14.1-14h28.1c0 7.7-6.2 14-14 14zm60.7-14.5c-2.6.3-5.3.5-8 .6-12.9.1-26.6-3.2-36.9-10.4-2.7-1.9-5.4-4.3-5.8-7.6-.4-2.7 1-5.5 2.9-7.5 2.7-2.8 6.8-4.9 10.3-6.5 8.1-3.6 18.9-6.1 29.4-6.1 11.2 0 35.1 3.6 35.1 19 .1 12.2-17.6 17.2-27 18.5zm-71.7-82.6c1.4 2.3.7 5.4-1.6 6.8-.7.4-6.8 4-17.5 5.2-6.7.7-14.8 7.6-17.4 10.1-.9 1-2.1 1.5-3.4 1.5s-2.5-.5-3.5-1.4c-1.9-1.9-1.9-5.1 0-7 1.2-1.2 12-11.7 23.3-13 8.5-.9 13.3-3.8 13.3-3.8 2.3-1.4 5.4-.7 6.8 1.6zm65.3 15.3c1.9 1.9 1.9 5.1 0 7-.9.8-2.2 1.3-3.5 1.3s-2.5-.5-3.5-1.4c-2.6-2.6-10.7-9.4-17.4-10.1-10.7-1.2-16.8-4.8-17.5-5.2-2.3-1.4-3-4.5-1.6-6.8s4.5-3 6.8-1.6c.1.1 5 2.9 13.4 3.8 11.3 1.3 22.1 11.8 23.3 13zm-26.8 2.5c-4.7 0-8.5 3.4-8.5 7.5s3.8 7.5 8.5 7.5 8.5-3.4 8.5-7.5-3.8-7.5-8.5-7.5zm4.7 8.5c-1.3 0-2.4-1.1-2.4-2.4 0-1.3 1.1-2.4 2.4-2.4 1.3 0 2.4 1.1 2.4 2.4 0 1.3-1.1 2.4-2.4 2.4z" fill="#36434f"/></svg>