<svg version="1.1" xmlns="http://www.w3.org/2000/svg" x="0" y="0" viewBox="0 0 512 512" xml:space="preserve"><path d="M245.4 129.2c1.4 2.3.7 5.4-1.6 6.8-.7.4-6.8 4-17.5 5.2-6.7.7-14.8 7.6-17.4 10.1-.9 1-2.1 1.5-3.4 1.5s-2.5-.5-3.5-1.4c-1.9-1.9-1.9-5.1 0-7 1.2-1.2 12-11.7 23.3-13 8.5-.9 13.3-3.8 13.3-3.8 2.3-1.4 5.4-.7 6.8 1.6zm58.3 22.2c1 .9 2.2 1.4 3.5 1.4s2.6-.5 3.5-1.3c1.9-1.9 1.9-5.1 0-7-1.2-1.2-12-11.7-23.3-13-8.4-.9-13.3-3.7-13.4-3.8-2.3-1.4-5.4-.7-6.8 1.6s-.7 5.4 1.6 6.8c.7.4 6.8 4 17.5 5.2 6.7.7 14.8 7.5 17.4 10.1zm-47.3 74.9c7.8 0 14-6.3 14-14h-28.1c0 7.7 6.3 14 14.1 14zm-19-71.8c0 4.1-3.8 7.5-8.5 7.5s-8.5-3.4-8.5-7.5 3.8-7.5 8.5-7.5 8.5 3.4 8.5 7.5zm-1.4-1.4c0-1.3-1.1-2.4-2.4-2.4-1.3 0-2.4 1.1-2.4 2.4 0 1.3 1.1 2.4 2.4 2.4s2.4-1.1 2.4-2.4zm47.9 8.9c-4.7 0-8.5-3.4-8.5-7.5s3.8-7.5 8.5-7.5 8.5 3.4 8.5 7.5-3.8 7.5-8.5 7.5zm2.3-8.9c0 1.3 1.1 2.4 2.4 2.4s2.4-1.1 2.4-2.4c0-1.3-1.1-2.4-2.4-2.4-1.3 0-2.4 1.1-2.4 2.4zm6.9 345.6C280.6 508 266.7 512 256 512c-10.7 0-24.6-3.9-37.1-13.3-31.7-23.8-155.3-219.8-53.3-284.3v-40.6c0-1.5.7-3.1 1.8-4.2l1.5-1.5c-5.1-9.2-9.6-19.1-13.3-29.4-.1-.2-.1-.4-.2-.5-.7-1.9-1.3-3.7-1.9-5.6-.2-.7-.4-1.3-.6-2-.4-1.4-.9-2.8-1.3-4.2-.6-2.1-1.2-4.2-1.8-6.2-1.8-6.5-1.7-13.4.3-19.7.7-2.1 1.5-4.2 2.6-6.2.5-1 1.1-1.9 1.7-2.9.2-.4.5-.8.7-1.1.3-.5.7-1.1 1-1.6.8-1.2 1.6-2.5 2.4-3.7 6.9-48 48.1-84.9 98-84.9 50.3 0 91.8 37.6 98.1 86.2.8 1.2 1.6 2.5 2.4 3.8.1.1.1.2.2.3.8 1.3 1.6 2.6 2.3 4 2.4 4.4 3.8 9.3 4.1 14.3.1 1.1.1 2.2 0 3.3s-.1 2.2-.3 3.3c-.2 1.7-.5 3.3-1 4.9-.6 2.1-1.1 4.2-1.8 6.2-.4 1.4-.8 2.7-1.3 4.1-.2.7-.4 1.4-.7 2.1-.6 1.9-1.3 3.7-1.9 5.6-.1.2-.1.4-.2.6-3.7 10.2-8.2 20.2-13.3 29.4l1.5 1.5c1.1 1.1 1.8 2.7 1.8 4.2v16.8c.1.4.2.8.2 1.2v.1c0 .4.1.9.1 1.3s0 .9-.1 1.3v.1c0 .4-.1.8-.2 1.2v18.4c102 64.6-21.6 260.7-53.3 284.4zM280 175.5c0 .7-.1 1.4-.2 2.1 8.6-3.6 19.3-5.8 29.3-5.8 13.7 0 25.7 4.2 32.3 10.5v-8.5c0-.1-.1-.5-.3-.7l-1.5-1.5-2.7-2.7 1.9-3.3c.6-1.1 1.2-2.3 1.9-3.4-12.7-33.3-45.8-49-84.5-49-38.8 0-71.9 15.7-84.5 49 .6 1.1 1.2 2.3 1.9 3.4l1.9 3.3-2.7 2.7-1.5 1.5c-.2.2-.3.5-.3.7v9.3c6.3-6.7 18.8-11.3 33.1-11.3 10 0 20.9 2.2 29.5 5.9-.1-.7-.2-1.4-.2-2.2 0-9.7 10.5-17.5 23.5-17.5s23.1 7.8 23.1 17.5zm-111.5-19.2c13.7-30.4 45.5-48.1 87.5-48.1s73.8 17.8 87.5 48.1l.6-1.2c.2-.3.3-.7.5-1 .6-1.3 1.2-2.6 1.8-4 .2-.5.4-.9.6-1.4.3-.7.6-1.5.9-2.2.3-.8.7-1.6 1-2.4.3-.8.7-1.7 1-2.5.3-.7.6-1.5.9-2.2.2-.6.4-1.1.6-1.7.4-1.2.9-2.4 1.3-3.6.2-.5.3-.9.5-1.4.4-1.1.7-2.2 1.1-3.3l.3-.9c.4-1.4.9-2.8 1.3-4.2.1-.4.2-.7.3-1.1.4-1.5.8-2.9 1.2-4.4.3-1 .5-1.9.6-2.9.3-1.9.5-3.9.4-5.8-.1-4.1-1-8.2-2.7-11.9-.3-.6-.5-1.1-.8-1.7-.5-.9-1-1.8-1.5-2.6-1-1.6-2-3.3-3.1-5l-.5-.8C329 57 293.9 38 256 38c-37.3 0-71.9 18.4-92.8 48.7l-.6 1c-.8 1.2-1.6 2.4-2.3 3.6-.3.4-.6.9-.8 1.3s-.5.8-.7 1.2c-.5.9-1.1 1.9-1.6 2.8-2.3 4.2-3.5 8.8-3.6 13.6v.1c0 2.8.3 5.5 1 8.3 0 .1 0 .2.1.3.4 1.5.8 2.9 1.2 4.4.1.4.2.7.3 1.1.4 1.4.8 2.8 1.3 4.2.1.3.2.6.3 1 .4 1.1.7 2.2 1.1 3.3.2.5.3.9.5 1.4.4 1.2.9 2.4 1.3 3.6.2.6.4 1.1.6 1.7.3.8.6 1.5.9 2.3.3.8.7 1.7 1 2.5s.7 1.6 1 2.4c.3.7.6 1.5.9 2.2.2.5.4.9.6 1.4.6 1.3 1.2 2.7 1.8 4 .2.3.3.7.5 1 .1.1.3.5.5.9z" fill="#36434f"/></svg>