<?xml version="1.0" encoding="utf-8"?>
<!-- Generator: Adobe Illustrator 22.1.0, SVG Export Plug-In . SVG Version: 6.00 Build 0)  -->
<svg version="1.1" id="icon" xmlns="http://www.w3.org/2000/svg" xmlns:xlink="http://www.w3.org/1999/xlink" x="0px" y="0px"
	 viewBox="0 0 512 512" style="enable-background:new 0 0 512 512;" xml:space="preserve">
<style type="text/css">
	.st0{fill:#36434F;}
</style>
<path class="st0" d="M272,394.2V117.8c25.3-7,44-30.3,44-57.8c0-33.1-26.9-60-60-60c-33.1,0-60,26.9-60,60c0,27.6,18.7,50.8,44,57.8
	v276.4c-25.3,7-44,30.3-44,57.8c0,33.1,26.9,60,60,60c33.1,0,60-26.9,60-60C316,424.4,297.3,401.2,272,394.2z M228,60
	c0-15.4,12.6-28,28-28c15.4,0,28,12.6,28,28s-12.6,28-28,28C240.6,88,228,75.4,228,60z M256,480c-15.4,0-28-12.6-28-28
	c0-15.4,12.6-28,28-28c15.4,0,28,12.6,28,28C284,467.4,271.4,480,256,480z"/>
</svg>
