<svg version="1.1" id="icon" xmlns="http://www.w3.org/2000/svg" x="0" y="0" viewBox="0 0 512 279.8" xml:space="preserve"><style type="text/css">.st0{fill:#fff}.st1{fill:#eaeaea}.st2{fill:#dcdbdb}.st3{fill:#747575}.st4{fill:#5a5b5b}.st5{fill:#7f7f7f}.st6{fill:#d3d3d3}</style><path class="st0" d="M0 0h512v277.9H0z"/><path class="st1" d="M0 10.6h512v269.2H0z"/><path class="st0" d="M4 24.6h504v251.3H4z"/><path class="st2" d="M5.8 0h67.6l4.8 10.6H.9z"/><path transform="rotate(-134.999 70.023 5.66)" class="st3" d="M68.1 5.4h3.8v.5h-3.8z"/><path transform="rotate(134.999 70.023 5.66)" class="st3" d="M68.1 5.4h3.8v.5h-3.8z" id="Close_3_"/><path class="st2" d="M78.7 0h67.7l4.7 10.6H73.8z"/><path transform="rotate(-134.999 142.952 5.66)" class="st3" d="M141.1 5.4h3.8v.5h-3.8z"/><path transform="rotate(134.999 142.952 5.66)" class="st3" d="M141.1 5.4h3.8v.5h-3.8z" id="Close_5_"/><g><path class="st1" d="M151.6 0h67.7l4.7 10.6h-77.3z"/><path transform="rotate(-134.999 215.88 5.66)" class="st3" d="M214 5.4h3.8v.5H214z"/><path transform="rotate(134.999 215.88 5.66)" class="st3" d="M214 5.4h3.8v.5H214z" id="Close_7_"/></g><path class="st2" d="M232.5 2.6h-9.1c-.4 0-.6.2-.6.5 0 .1 2.3 5.1 2.4 5.2s.2.5.6.5h9.1c.4 0 .6-.2.6-.5 0-.1-2.3-5-2.4-5.2-.1-.2-.2-.5-.6-.5z"/><g><path class="st0" d="M498.6 12.4H34.3c-.4 0-.6.2-.6.5v9.2c0 .3.2.5.6.5h464.3c.4 0 .6-.2.6-.5v-9.2c0-.3-.3-.5-.6-.5z"/><path transform="rotate(-45.001 40.205 16.108)" class="st4" d="M40 15.3h.4v1.6H40z"/><path class="st4" d="M37.9 15.4h.4v4.2h-.4zM40.5 16.5h.4v3.1h-.4z"/><path transform="rotate(-90 39.34 19.416)" class="st4" d="M39.2 18h.4v2.9h-.4z"/><path transform="rotate(-90 38.81 15.585)" class="st4" d="M38.6 14.6h.4v1.9h-.4z"/><path transform="rotate(-90 40.165 16.735)" class="st4" d="M40 16h.4v1.5H40z"/><path class="st4" d="M39.4 15.4h.4v1.5h-.4z"/><g><path class="st4" d="M493.8 15.3l.7 1.5 1.7.3-1.2 1.2.3 1.7-1.5-.8-1.5.8.2-1.7-1.2-1.2 1.7-.3z"/><path class="st0" d="M493.8 16l.5 1.1 1.1.1-.8.9.2 1.1-1-.5-1.1.5.2-1.1-.8-.9 1.2-.1z"/></g><g><path d="M45.2 15.7h.5v1.7c.1-.1.2-.3.4-.3.1-.1.3-.1.5-.1.4 0 .9.2.9 1.2v1.6H47v-1.6c0-.4-.2-.8-.6-.8-.3 0-.6.2-.7.5v1.8h-.5v-4zM49.8 19.6v-.3c-.2.2-.4.4-.8.4-.5 0-.8-.4-.8-.8 0-.7.6-1 1.6-1v-.1c0-.2-.1-.6-.6-.6-.3 0-.5.1-.7.2l-.1-.3c.2-.1.5-.2.9-.2.8 0 1 .6 1 1.1v1.6h-.5zm-.1-1.3c-.5 0-1.1.1-1.1.6 0 .3.2.5.5.5.4 0 .6-.2.7-.5V18.3zM51 17.8V17h.4v.5c.1-.4.4-.6.7-.6h.1v.5H52c-.3 0-.6.3-.7.6V19.6H51v-1.8zM52.8 17.8V17h.4v.5c.1-.4.4-.6.7-.6h.1v.5h-.2c-.3 0-.6.3-.7.6V19.6h-.5v-1.8zM55.2 16.2c0 .2-.1.3-.3.3-.2 0-.3-.1-.3-.3 0-.2.1-.3.3-.3.2 0 .3.1.3.3zm-.5 3.4v-2.7h.5v2.7h-.5zM56.2 16.9l.4.6c.1.2.2.3.3.4.1-.2.2-.3.3-.4l.4-.6h.5l-.9 1.3.9 1.4h-.6l-.4-.6c-.1-.2-.2-.3-.3-.5-.1.2-.2.3-.3.5l-.4.6h-.5l1-1.4-.9-1.3h.5zM58.4 19.4c0-.2.1-.4.3-.4s.3.1.3.4c0 .2-.1.4-.3.4-.1-.1-.3-.2-.3-.4zM60.3 16.2c0 .2-.1.3-.3.3-.2 0-.3-.1-.3-.3 0-.2.1-.3.3-.3.1 0 .3.1.3.3zm-.6 3.4v-2.7h.5v2.7h-.5zM63.5 18.3c0 1-.7 1.4-1.3 1.4-.7 0-1.3-.5-1.3-1.4 0-.9.6-1.4 1.3-1.4.7 0 1.3.5 1.3 1.4zm-2.2 0c0 .6.3 1 .8 1s.8-.4.8-1c0-.5-.2-1-.8-1-.5-.1-.8.5-.8 1zM63.7 19.9l1.6-4h.4l-1.6 4h-.4z"/><path class="st5" d="M67.9 19.5c-.1.1-.4.2-.8.2-.8 0-1.3-.6-1.3-1.4 0-.8.6-1.4 1.5-1.4.3 0 .5.1.7.1l-.1.4c-.1-.1-.3-.1-.6-.1-.6 0-1 .5-1 1 0 .6.4 1 .9 1 .3 0 .5-.1.6-.1l.1.3zM70.9 18.3c0 1-.7 1.4-1.3 1.4-.7 0-1.3-.5-1.3-1.4 0-.9.6-1.4 1.3-1.4.8 0 1.3.5 1.3 1.4zm-2.1 0c0 .6.3 1 .8 1s.8-.4.8-1c0-.5-.2-1-.8-1-.6-.1-.8.5-.8 1zM71.5 17.7V17h.4v.4c.1-.3.4-.5.9-.5.4 0 1 .2 1 1.2v1.6h-.5v-1.6c0-.4-.2-.8-.6-.8-.3 0-.6.2-.7.5v1.8h-.5v-1.9zM75.2 16.2v.8h.7v.4h-.7v1.5c0 .3.1.5.4.5h.3v.4c-.1 0-.2.1-.4.1s-.4-.1-.5-.2c-.1-.1-.2-.4-.2-.7v-1.5h-.4v-.4h.4v-.6l.4-.3zM77.9 19.6v-.3c-.2.2-.4.4-.8.4-.5 0-.8-.4-.8-.8 0-.7.6-1 1.6-1v-.1c0-.2-.1-.6-.6-.6-.3 0-.5.1-.7.2l-.1-.3c.2-.1.5-.2.9-.2.8 0 1 .6 1 1.1v1.6h-.5zm0-1.3c-.5 0-1.1.1-1.1.6 0 .3.2.5.5.5.4 0 .6-.2.7-.5V18.3zM81 19.5c-.1.1-.4.2-.8.2-.8 0-1.3-.6-1.3-1.4 0-.8.6-1.4 1.5-1.4.3 0 .5.1.7.1l-.1.4c-.1-.1-.3-.1-.6-.1-.6 0-1 .5-1 1 0 .6.4 1 .9 1 .3 0 .5-.1.6-.1l.1.3zM82.3 16.2v.8h.7v.4h-.7v1.5c0 .3.1.5.4.5h.3v.4c-.1 0-.2.1-.4.1s-.4-.1-.5-.2c-.1-.1-.2-.4-.2-.7v-1.5h-.4v-.4h.4v-.6l.4-.3zM83.5 19.1c.1.1.4.2.6.2.4 0 .5-.2.5-.4s-.1-.4-.5-.5c-.5-.2-.7-.4-.7-.8s.4-.8.9-.8c.3 0 .5.1.7.2l-.1.4c-.1-.1-.3-.2-.6-.2s-.5.2-.5.4.2.3.5.5c.5.2.7.4.7.8 0 .5-.4.8-1 .8-.3 0-.6-.1-.8-.2l.3-.4zM85.3 19.9l1.6-4h.4l-1.6 4h-.4z"/></g></g><g><path class="st4" d="M3.4 17.3h4.7v.5H3.4z"/><path transform="rotate(45.001 4.564 18.73)" class="st4" d="M2.6 18.5h3.9v.5H2.6z"/><path transform="rotate(-45.001 4.56 16.32)" class="st4" d="M2.6 16.1h3.9v.5H2.6z"/><path class="st4" d="M27.6 16.8l1.7-1.7v1.7z"/><path class="st4" d="M28.9 17.9c-.2 1-1.1 1.7-2.1 1.7-1.2 0-2.1-1-2.1-2.1 0-1.2 1-2.1 2.1-2.1.8 0 1.4.4 1.8 1h.6c-.4-.9-1.3-1.5-2.4-1.5-1.5 0-2.6 1.2-2.6 2.6s1.2 2.6 2.6 2.6c1.3 0 2.4-1 2.6-2.3h-.5z"/><g><circle class="st4" cx="506.4" cy="15.9" r=".6"/><circle class="st4" cx="506.4" cy="17.8" r=".6"/><circle class="st4" cx="506.4" cy="19.7" r=".6"/></g><g><path transform="rotate(-180 15.981 17.524)" class="st6" d="M13.6 17.3h4.7v.5h-4.7z"/><path transform="rotate(134.999 17.188 18.73)" class="st6" d="M15.2 18.5h3.9v.5h-3.9z"/><path transform="rotate(-134.999 17.191 16.32)" class="st6" d="M15.2 16.1h3.9v.5h-3.9z"/></g></g><g><path transform="rotate(-45.001 503.462 4.802)" d="M500.9 4.6h5v.3h-5z"/><path transform="rotate(-134.999 503.462 4.797)" d="M500.9 4.6h5v.3h-5z"/><path d="M487 3.7H484.4V6.6H487.3V3.7h-.3zm0 2.6h-2.3V4.1h2.3v2.2z"/><path id="Minimize_the_window" d="M487.8 2.9H485.2v.8h.3v-.4h2.3v2.2h-.5v.3h.8V2.9z"/><path transform="rotate(-180 469.33 4.796)" d="M467.5 4.6h3.7v.3h-3.7z"/></g></svg>