<svg version="1.1" id="icon" xmlns="http://www.w3.org/2000/svg" x="0" y="0" viewBox="0 0 512 290.7" xml:space="preserve"><style type="text/css">.st0{fill:#fff}.st1{fill:#eaeaea}.st2{fill:#dcdbdb}.st3{fill:#747575}.st4{fill:#5a5b5b}.st6{fill:#d3d3d3}</style><path class="st0" d="M0 0h512v287.9H0z"/><path class="st1" d="M0 15.5h512v275.2H0z"/><path class="st0" d="M5.8 35.8h500.4V285H5.8z"/><path class="st2" d="M8.4 0h98.5l6.9 15.5H1.3z"/><g id="Close_11_"><path transform="rotate(-134.999 101.934 8.24)" class="st3" d="M99.2 7.9h5.5v.7h-5.5z"/><path transform="rotate(134.999 101.934 8.24)" class="st3" d="M99.2 7.9h5.5v.7h-5.5z" id="Close_12_"/></g><path class="st2" d="M114.5 0h98.6l6.9 15.5H107.4z"/><g id="Close_4_"><path transform="rotate(-134.999 208.097 8.24)" class="st3" d="M205.3 7.9h5.5v.7h-5.5z"/><path transform="rotate(134.999 208.097 8.239)" class="st3" d="M205.3 7.9h5.5v.7h-5.5z" id="Close_5_"/></g><path class="st1" d="M220.7 0h98.5l6.9 15.5H213.6z"/><g id="Close_2_"><path transform="rotate(-134.999 314.26 8.24)" class="st3" d="M311.5 7.9h5.5v.7h-5.5z"/><path transform="rotate(134.999 314.26 8.239)" class="st3" d="M311.5 7.9h5.5v.7h-5.5z" id="Close_3_"/></g><path class="st2" d="M338.5 3.8h-13.2c-.5 0-.9.3-.9.7 0 .1 3.4 7.4 3.5 7.6s.3.7.9.7H342c.5 0 .9-.3.9-.7 0-.1-3.4-7.3-3.5-7.6-.2-.3-.4-.7-.9-.7z"/><path class="st0" d="M492.4 18.1H49.9c-.5 0-.9.3-.9.7v13.5c0 .4.3.7.9.7h442.5c.5 0 .9-.3.9-.7V18.8c0-.4-.3-.7-.9-.7z"/><path transform="rotate(-45.001 58.526 23.449)" class="st4" d="M58.3 22.3h.6v2.4h-.6z"/><path class="st4" d="M55.1 22.4h.6v6.1h-.6zm3.9 1.7h.6v4.5H59z"/><path transform="rotate(-90 57.268 28.264)" class="st4" d="M57 26.1h.6v4.2H57z"/><path transform="rotate(-90 56.495 22.687)" class="st4" d="M56.2 21.3h.6v2.8h-.6z"/><path transform="rotate(-90 58.468 24.361)" class="st4" d="M58.2 23.3h.6v2.2h-.6z"/><path class="st4" d="M57.3 22.4h.6v2.2h-.6zm428.2-.1l1.1 2.2 2.4.3-1.8 1.8.5 2.4-2.2-1.1-2.2 1.1.4-2.4-1.8-1.8 2.5-.3z"/><path class="st0" d="M485.5 23.3l.7 1.6 1.7.2-1.2 1.2.3 1.7-1.5-.8-1.5.8.2-1.7-1.2-1.2 1.7-.2z"/><path d="M65.8 22.8h.7v2.5c.1-.2.3-.4.5-.5.2-.1.5-.2.7-.2.5 0 1.4.3 1.4 1.7v2.3h-.7v-2.3c0-.6-.2-1.2-.9-1.2-.5 0-.8.3-1 .7v2.7h-.7v-5.7zm6.7 5.8l-.1-.5c-.2.3-.6.6-1.2.6-.8 0-1.2-.6-1.2-1.1 0-.9.8-1.5 2.4-1.5V26c0-.3-.1-.9-.9-.9-.4 0-.7.1-1 .3l-.2-.5c.3-.2.8-.3 1.3-.3 1.2 0 1.5.8 1.5 1.6v1.5c0 .3 0 .7.1.9h-.7zm-.1-2c-.8 0-1.7.1-1.7.9 0 .5.3.7.7.7.5 0 .8-.3.9-.7v-.9zm1.8-.7v-1.2h.6v.8c.2-.5.6-.9 1.1-.9h.2v.7h-.2c-.5 0-.9.4-1 .9v2.4h-.7v-2.7zm2.7 0v-1.2h.6v.8c.2-.5.6-.9 1.1-.9h.2v.7h-.2c-.5 0-.9.4-1 .9v2.4h-.7v-2.7zm3.5-2.3c0 .2-.2.4-.5.4s-.4-.2-.4-.4c0-.3.2-.4.4-.4.3-.1.5.1.5.4zm-.8 5v-3.9h.7v3.9h-.7zm2.2-3.9l.6.8c.1.2.3.4.4.6.1-.2.3-.4.4-.6l.6-.8h.8l-1.3 1.9 1.4 2h-.8l-.6-.9c-.2-.2-.3-.4-.4-.7-.1.2-.3.4-.4.7l-.6.9h-.8l1.4-2-1.5-1.9h.8zm3.3 3.5c0-.3.2-.5.5-.5s.5.2.5.5-.2.5-.5.5-.5-.2-.5-.5zm2.6-4.6c0 .2-.2.4-.5.4s-.4-.2-.4-.4c0-.3.2-.4.4-.4.3-.1.5.1.5.4zm-.8 5v-3.9h.7v3.9h-.7zm5.5-2c0 1.5-1 2.1-2 2.1-1.1 0-1.9-.8-1.9-2 0-1.3.9-2.1 1.9-2.1 1.2 0 2 .8 2 2zm-3.1 0c0 .9.5 1.5 1.2 1.5s1.2-.6 1.2-1.5c0-.7-.3-1.5-1.2-1.5-.9 0-1.2.8-1.2 1.5zm3.4 2.3L95 23h.6l-2.3 5.9h-.6z"/><path d="M98.9 28.4c-.2.1-.6.2-1.1.2-1.2 0-2-.8-2-2s.8-2.1 2.1-2.1c.4 0 .8.1 1 .2l-.2.6c-.2-.1-.4-.2-.8-.2-.9 0-1.4.7-1.4 1.5 0 .9.6 1.5 1.4 1.5.4 0 .7-.1.9-.2l.1.5zm4.3-1.8c0 1.5-1 2.1-2 2.1-1.1 0-1.9-.8-1.9-2 0-1.3.9-2.1 1.9-2.1 1.2 0 2 .8 2 2zm-3.1 0c0 .9.5 1.5 1.2 1.5s1.2-.6 1.2-1.5c0-.7-.3-1.5-1.2-1.5-.9 0-1.2.8-1.2 1.5zm4-.9v-1.1h.6v.6c.2-.4.6-.7 1.3-.7.5 0 1.4.3 1.4 1.7v2.3h-.7v-2.3c0-.6-.2-1.2-.9-1.2-.5 0-.8.3-1 .7v2.7h-.7v-2.7zm5.3-2.2v1.1h1v.5h-1v2.1c0 .5.1.8.5.8h.4v.5c-.1.1-.4.1-.6.1-.3 0-.6-.1-.8-.3-.2-.2-.3-.6-.3-1v-2.1h-.6v-.5h.6v-.9l.8-.3zm4 5.1l-.1-.5c-.2.3-.6.6-1.2.6-.8 0-1.2-.6-1.2-1.1 0-.9.8-1.5 2.4-1.5V26c0-.3-.1-.9-.9-.9-.4 0-.7.1-1 .3l-.2-.5c.3-.2.8-.3 1.3-.3 1.2 0 1.5.8 1.5 1.6v1.5c0 .3 0 .7.1.9h-.7zm-.1-2c-.8 0-1.7.1-1.7.9 0 .5.3.7.7.7.5 0 .8-.3.9-.7v-.9zm4.7 1.8c-.2.1-.6.2-1.1.2-1.2 0-2-.8-2-2s.8-2.1 2.1-2.1c.4 0 .8.1 1 .2l-.2.6c-.2-.1-.4-.2-.8-.2-.9 0-1.4.7-1.4 1.5 0 .9.6 1.5 1.4 1.5.4 0 .7-.1.9-.2l.1.5zm1.8-4.9v1.1h1v.5h-1v2.1c0 .5.1.8.5.8h.4v.5c-.1.1-.4.1-.6.1-.3 0-.6-.1-.8-.3-.2-.2-.3-.6-.3-1v-2.1h-.6v-.5h.6v-.9l.8-.3zm1.7 4.4c.2.1.6.3.9.3.5 0 .8-.3.8-.6s-.2-.5-.7-.7c-.7-.3-1-.6-1-1.1 0-.6.5-1.2 1.4-1.2.4 0 .7.1 1 .2l-.2.5c-.2-.1-.4-.2-.8-.2s-.7.2-.7.5.2.5.7.7c.7.3 1 .6 1 1.2 0 .7-.5 1.2-1.5 1.2-.4 0-.8-.1-1.1-.3l.2-.5zm2.7 1l2.3-5.9h.6l-2.3 5.9h-.6z" fill="#7f7f7f"/><path class="st4" d="M5 25.1h6.8v.8H5z"/><path transform="rotate(45.001 6.644 27.267)" class="st4" d="M3.8 26.9h5.7v.8H3.8z"/><path transform="rotate(-45.001 6.64 23.756)" class="st4" d="M3.8 23.4h5.7v.7H3.8z"/><path class="st4" d="M40.2 24.4l2.4-2.4v2.4z"/><path class="st4" d="M42.1 26.1c-.3 1.4-1.5 2.5-3 2.5-1.7 0-3.1-1.4-3.1-3.1 0-1.7 1.4-3.1 3.1-3.1 1.1 0 2.1.6 2.6 1.5h.9c-.6-1.3-1.9-2.2-3.5-2.2-2.1 0-3.9 1.7-3.9 3.9s1.7 3.9 3.9 3.9c1.9 0 3.5-1.4 3.8-3.3h-.8z"/><circle class="st4" cx="503.8" cy="23.2" r=".8"/><circle class="st4" cx="503.8" cy="25.9" r=".8"/><circle class="st4" cx="503.8" cy="28.6" r=".8"/><path transform="rotate(-180 23.264 25.51)" class="st6" d="M19.8 25.1h6.8v.8h-6.8z"/><path transform="rotate(134.999 25.021 27.267)" class="st6" d="M22.2 26.9h5.7v.8h-5.7z"/><path transform="rotate(-134.999 25.026 23.756)" class="st6" d="M22.2 23.4h5.7v.7h-5.7z"/><path transform="rotate(-45.001 499.57 6.987)" d="M495.9 6.8h7.3v.5h-7.3z"/><path transform="rotate(-134.999 499.57 6.983)" d="M495.9 6.8h7.3v.5h-7.3z"/><path d="M475.6 5.5h-3.8v4.3h4.3V5.5h-.5zm0 3.7h-3.3V5.9h3.3v3.3z"/><path id="Minimize_the_window_4_" d="M476.8 4.3H473v1.2h.5v-.8h3.3v3.4h-.7v.4h1.2V4.3z"/><path transform="rotate(-180 449.884 6.981)" d="M447.2 6.8h5.4v.5h-5.4z"/></svg>