<?xml version="1.0" encoding="utf-8"?>
<!-- Generator: Adobe Illustrator 19.2.0, SVG Export Plug-In . SVG Version: 6.00 Build 0)  -->
<svg version="1.1" id="icon" xmlns="http://www.w3.org/2000/svg" xmlns:xlink="http://www.w3.org/1999/xlink" x="0px" y="0px"
	 viewBox="0 0 512 512" style="enable-background:new 0 0 512 512;" xml:space="preserve">
<g>
	<circle cx="256" cy="256" r="10.4"/>
	<path d="M256,12.7c32.9,0,64.7,6.4,94.7,19.1c29,12.3,55,29.8,77.3,52.2c22.3,22.3,39.9,48.4,52.2,77.3
		c12.7,30,19.1,61.9,19.1,94.7s-6.4,64.7-19.1,94.7c-12.3,29-29.8,55-52.2,77.3c-22.3,22.3-48.4,39.9-77.3,52.2
		c-30,12.7-61.9,19.1-94.7,19.1s-64.7-6.4-94.7-19.1c-29-12.3-55-29.8-77.3-52.2S44,379.7,31.8,350.7c-12.7-30-19.1-61.9-19.1-94.7
		s6.4-64.7,19.1-94.7c12.3-29,29.8-55,52.2-77.3c22.3-22.3,48.4-39.9,77.3-52.2C191.3,19.1,223.1,12.7,256,12.7 M256,4.7
		C117.2,4.7,4.7,117.2,4.7,256S117.2,507.3,256,507.3S507.3,394.8,507.3,256S394.8,4.7,256,4.7L256,4.7z"/>
	<g>
		<g>
			<path d="M456.6,248.4c0,1.7-0.5,3.2-1.6,4.4c-1,1.2-2.5,2-4.4,2.5v0.1c2.2,0.3,3.9,0.9,5,2c1.1,1.1,1.7,2.5,1.7,4.3
				c0,2.6-1,4.7-2.9,6.2s-4.7,2.2-8.2,2.2c-3,0-5.6-0.5-7.9-1.5v-4.9c1.1,0.5,2.2,1,3.5,1.3c1.3,0.3,2.5,0.5,3.8,0.5
				c1.9,0,3.3-0.3,4.2-1c0.9-0.7,1.4-1.7,1.4-3.1c0-1.3-0.5-2.2-1.6-2.7c-1.1-0.5-2.7-0.8-5-0.8h-2.1v-4.5h2.1
				c2.1,0,3.7-0.3,4.7-0.8c1-0.6,1.5-1.5,1.5-2.9c0-2.1-1.3-3.1-3.9-3.1c-0.9,0-1.8,0.2-2.8,0.5c-0.9,0.3-2,0.8-3.1,1.6l-2.7-4
				c2.5-1.8,5.5-2.7,9-2.7c2.8,0,5.1,0.6,6.7,1.7C455.8,244.8,456.6,246.4,456.6,248.4z"/>
		</g>
		<g>
			<path d="M356.3,109.2h-5.8V93.3l0.1-2.6l0.1-2.9c-1,1-1.6,1.6-2,1.9l-3.2,2.5l-2.8-3.5l8.8-7h4.8V109.2z"/>
		</g>
		<g>
			<path d="M157.7,431.8l10.3-22.5h-13.5v-4.9h19.7v3.6l-10.4,23.8H157.7z"/>
		</g>
		<g>
			<path d="M430.1,175.3h-19.2v-4l6.9-7c2-2.1,3.4-3.5,4-4.3s1.1-1.6,1.4-2.2s0.4-1.4,0.4-2.1c0-1.1-0.3-1.9-0.9-2.5
				s-1.4-0.8-2.4-0.8c-1.1,0-2.1,0.2-3.1,0.7c-1,0.5-2,1.2-3.1,2.1l-3.2-3.7c1.4-1.2,2.5-2,3.4-2.4c0.9-0.5,1.9-0.8,2.9-1.1
				s2.2-0.4,3.5-0.4c1.7,0,3.2,0.3,4.5,0.9c1.3,0.6,2.3,1.5,3.1,2.6c0.7,1.1,1.1,2.4,1.1,3.9c0,1.3-0.2,2.5-0.7,3.6
				c-0.4,1.1-1.1,2.2-2.1,3.4s-2.6,2.8-4.9,5l-3.5,3.3v0.3h12V175.3z"/>
		</g>
		<g>
			<path d="M92.9,333.5c2.6,0,4.7,0.6,6.4,1.8s2.4,2.8,2.4,4.8c0,1.4-0.4,2.7-1.2,3.7s-2,2.1-3.8,2.9c2.1,1.1,3.5,2.3,4.4,3.4
				s1.3,2.5,1.3,3.9c0,2.3-0.9,4.1-2.6,5.4s-4.1,2.1-7,2.1c-3,0-5.4-0.6-7.1-1.9c-1.7-1.3-2.6-3.1-2.6-5.4c0-1.6,0.4-3,1.2-4.2
				c0.8-1.2,2.2-2.3,4-3.2c-1.6-1-2.7-2-3.4-3.2c-0.7-1.1-1-2.4-1-3.7c0-2,0.8-3.6,2.4-4.8C88.1,334.1,90.3,333.5,92.9,333.5z
				 M88.6,354c0,1.1,0.4,1.9,1.1,2.5c0.8,0.6,1.8,0.9,3.1,0.9c1.4,0,2.5-0.3,3.2-0.9s1.1-1.4,1.1-2.5c0-0.8-0.4-1.6-1.1-2.4
				c-0.7-0.7-1.9-1.5-3.4-2.3C89.9,350.6,88.6,352.1,88.6,354z M92.8,337.7c-1,0-1.8,0.3-2.4,0.8c-0.6,0.5-0.9,1.2-0.9,2
				c0,0.8,0.2,1.4,0.7,2c0.5,0.6,1.4,1.2,2.6,1.8c1.2-0.6,2.1-1.2,2.6-1.8c0.5-0.6,0.7-1.3,0.7-2.1c0-0.9-0.3-1.5-0.9-2
				C94.6,338,93.8,337.7,92.8,337.7z"/>
		</g>
		<g>
			<path d="M74,254c0,5.4-1.1,9.4-3.4,12.1c-2.3,2.7-5.7,4-10.3,4c-1.6,0-2.9-0.1-3.7-0.3v-4.7c1.1,0.3,2.2,0.4,3.3,0.4
				c1.9,0,3.5-0.3,4.8-0.9c1.3-0.6,2.2-1.5,2.9-2.7c0.7-1.2,1-2.9,1.1-5h-0.2c-0.7,1.2-1.6,2-2.5,2.5s-2.1,0.7-3.6,0.7
				c-2.4,0-4.3-0.8-5.7-2.3c-1.4-1.5-2.1-3.7-2.1-6.4c0-2.9,0.8-5.3,2.5-7c1.7-1.7,3.9-2.6,6.8-2.6c2,0,3.8,0.5,5.3,1.4
				c1.5,1,2.7,2.3,3.5,4.1C73.6,249.3,74,251.5,74,254z M64.1,246.6c-1.2,0-2.1,0.4-2.8,1.2c-0.7,0.8-1,2-1,3.6
				c0,1.3,0.3,2.4,0.9,3.2c0.6,0.8,1.5,1.2,2.8,1.2c1.2,0,2.2-0.4,3-1.2c0.8-0.8,1.3-1.7,1.3-2.7c0-1.5-0.4-2.7-1.2-3.8
				S65.3,246.6,64.1,246.6z"/>
		</g>
		<g>
			<path d="M430.8,356h-3.3v5.7h-5.7V356h-11.7v-4l12-17.7h5.4v17.3h3.3V356z M421.8,351.5v-4.7c0-0.8,0-1.9,0.1-3.4
				c0.1-1.5,0.1-2.3,0.2-2.6h-0.2c-0.5,1-1,2-1.7,3l-5,7.6H421.8z"/>
		</g>
		<g>
			<path d="M95.9,174.9h-5.8V159l0.1-2.6l0.1-2.9c-1,1-1.6,1.6-2,1.9l-3.2,2.5l-2.8-3.5l8.8-7h4.8V174.9z"/>
			<path d="M122.6,161.2c0,4.8-0.8,8.3-2.4,10.6c-1.6,2.3-4,3.5-7.3,3.5c-3.2,0-5.6-1.2-7.2-3.6s-2.4-5.9-2.4-10.5
				c0-4.8,0.8-8.4,2.3-10.7c1.6-2.3,4-3.4,7.2-3.4c3.2,0,5.6,1.2,7.2,3.6S122.6,156.6,122.6,161.2z M109.2,161.2
				c0,3.4,0.3,5.8,0.9,7.2c0.6,1.5,1.6,2.2,2.9,2.2c1.4,0,2.3-0.7,2.9-2.2c0.6-1.5,0.9-3.9,0.9-7.2c0-3.4-0.3-5.8-0.9-7.3
				s-1.6-2.2-2.9-2.2c-1.4,0-2.3,0.7-2.9,2.2C109.5,155.4,109.2,157.8,109.2,161.2z"/>
		</g>
		<g>
			<path d="M350,413.9c2.7,0,4.8,0.7,6.3,2.2c1.6,1.5,2.4,3.5,2.4,6.1c0,3.1-0.9,5.4-2.8,7.1c-1.9,1.7-4.6,2.5-8.1,2.5
				c-3.1,0-5.5-0.5-7.4-1.5v-5c1,0.5,2.1,1,3.5,1.3s2.6,0.5,3.7,0.5c3.5,0,5.3-1.5,5.3-4.4c0-2.8-1.8-4.2-5.5-4.2
				c-0.7,0-1.4,0.1-2.2,0.2c-0.8,0.1-1.5,0.3-2,0.4l-2.3-1.2l1-14h14.9v4.9H347l-0.5,5.4l0.7-0.1C347.9,414,348.9,413.9,350,413.9z"
				/>
		</g>
		<g>
			<path d="M159.5,109.2h-5.8V93.3l0.1-2.6l0.1-2.9c-1,1-1.6,1.6-2,1.9l-3.2,2.5l-2.8-3.5l8.8-7h4.8V109.2z"/>
			<path d="M181.4,109.2h-5.8V93.3l0.1-2.6l0.1-2.9c-1,1-1.6,1.6-2,1.9l-3.2,2.5l-2.8-3.5l8.8-7h4.8V109.2z"/>
		</g>
		<g>
			<path d="M246.3,445.4c0-5.4,1.1-9.5,3.4-12.1c2.3-2.7,5.7-4,10.3-4c1.6,0,2.8,0.1,3.7,0.3v4.6c-1.1-0.3-2.2-0.4-3.3-0.4
				c-2,0-3.6,0.3-4.9,0.9c-1.3,0.6-2.2,1.5-2.8,2.7c-0.6,1.2-1,2.8-1.1,5h0.2c1.2-2.1,3.2-3.2,6-3.2c2.5,0,4.4,0.8,5.8,2.3
				c1.4,1.5,2.1,3.7,2.1,6.4c0,2.9-0.8,5.2-2.5,7c-1.7,1.7-3.9,2.6-6.9,2.6c-2,0-3.8-0.5-5.3-1.4c-1.5-0.9-2.7-2.3-3.5-4.1
				S246.3,447.9,246.3,445.4z M256.2,452.8c1.2,0,2.2-0.4,2.9-1.2s1-2,1-3.6c0-1.3-0.3-2.4-0.9-3.2s-1.6-1.2-2.8-1.2
				c-1.2,0-2.2,0.4-3,1.1s-1.2,1.7-1.2,2.7c0,1.5,0.4,2.7,1.2,3.8C254,452.2,255,452.8,256.2,452.8z"/>
		</g>
		<g>
			<path d="M249.4,82.5h-5.8V66.6l0.1-2.6l0.1-2.9c-1,1-1.6,1.6-2,1.9l-3.2,2.5l-2.8-3.5l8.8-7h4.8V82.5z"/>
			<path d="M276.2,82.5H257v-4l6.9-7c2-2.1,3.4-3.5,4-4.3s1.1-1.6,1.4-2.2c0.3-0.7,0.4-1.4,0.4-2.1c0-1.1-0.3-1.9-0.9-2.5
				c-0.6-0.5-1.4-0.8-2.4-0.8c-1.1,0-2.1,0.2-3.1,0.7s-2,1.2-3.1,2.1l-3.2-3.7c1.4-1.2,2.5-2,3.4-2.4c0.9-0.5,1.9-0.8,2.9-1.1
				s2.2-0.4,3.5-0.4c1.7,0,3.2,0.3,4.5,0.9c1.3,0.6,2.3,1.5,3.1,2.6c0.7,1.1,1.1,2.4,1.1,3.9c0,1.3-0.2,2.5-0.7,3.6
				c-0.4,1.1-1.1,2.2-2.1,3.4s-2.6,2.8-4.9,5l-3.5,3.3v0.3h12V82.5z"/>
		</g>
	</g>
	<g>
		<g>
			<circle cx="256" cy="29.1" r="7.2"/>
			<circle cx="256" cy="482.9" r="7.2"/>
			<ellipse transform="matrix(0.866 -0.5 0.5 0.866 -10.6452 79.2402)" cx="142.5" cy="59.5" rx="7.2" ry="7.2"/>
			<ellipse transform="matrix(0.866 -0.5 0.5 0.866 -176.7598 245.3548)" cx="369.5" cy="452.5" rx="7.2" ry="7.2"/>
			<ellipse transform="matrix(0.866 -0.5 0.5 0.866 -10.6452 245.3548)" cx="452.5" cy="142.5" rx="7.2" ry="7.2"/>
			<ellipse transform="matrix(0.866 -0.5 0.5 0.866 -176.7598 79.2402)" cx="59.5" cy="369.5" rx="7.2" ry="7.2"/>
			<ellipse transform="matrix(0.5 -0.866 0.866 0.5 133.2143 349.7025)" cx="369.5" cy="59.5" rx="7.2" ry="7.2"/>
			<ellipse transform="matrix(0.5 -0.866 0.866 0.5 -320.6193 349.7025)" cx="142.5" cy="452.5" rx="7.2" ry="7.2"/>
			<ellipse transform="matrix(0.5 -0.866 0.866 0.5 -93.7025 122.7857)" cx="59.5" cy="142.5" rx="7.2" ry="7.2"/>
			<ellipse transform="matrix(0.5 -0.866 0.866 0.5 -93.7025 576.6193)" cx="452.5" cy="369.5" rx="7.2" ry="7.2"/>
			<circle cx="29.1" cy="256" r="7.2"/>
			<circle cx="482.9" cy="256" r="7.2"/>
		</g>
		<g>
			<g>
				<g>
					<ellipse transform="matrix(0.9945 -0.1045 0.1045 0.9945 -1.8975 24.4461)" cx="232.3" cy="30.3" rx="2.7" ry="2.7"/>
					<ellipse transform="matrix(0.9945 -0.1045 0.1045 0.9945 -48.8163 31.8773)" cx="279.7" cy="481.7" rx="2.7" ry="2.7"/>
				</g>
				<g>
					<ellipse transform="matrix(0.9781 -0.2079 0.2079 0.9781 -2.5145 44.1603)" cx="208.8" cy="34" rx="2.7" ry="2.7"/>
					<ellipse transform="matrix(0.9781 -0.2079 0.2079 0.9781 -92.7479 73.4789)" cx="303.2" cy="478" rx="2.7" ry="2.7"/>
				</g>
				<g>
					<ellipse transform="matrix(0.9511 -0.309 0.309 0.9511 -3.3216 59.4067)" cx="185.9" cy="40.2" rx="2.7" ry="2.7"/>
					<ellipse transform="matrix(0.9511 -0.309 0.309 0.9511 -129.836 123.869)" cx="326.1" cy="471.8" rx="2.7" ry="2.7"/>
				</g>
				<g>
					<ellipse transform="matrix(0.9135 -0.4067 0.4067 0.9135 -5.6556 70.7951)" cx="163.7" cy="48.7" rx="2.7" ry="2.7"/>
					<ellipse transform="matrix(0.9135 -0.4067 0.4067 0.9135 -158.3289 181.7188)" cx="348.3" cy="463.3" rx="2.7" ry="2.7"/>
				</g>
			</g>
			<g>
				<g>
					<ellipse transform="matrix(0.809 -0.5878 0.5878 0.809 -19.149 85.9063)" cx="122.6" cy="72.4" rx="2.7" ry="2.7"/>
					<ellipse transform="matrix(0.809 -0.5878 0.5878 0.809 -184.0137 312.8231)" cx="389.4" cy="439.6" rx="2.7" ry="2.7"/>
				</g>
				<g>
					<ellipse transform="matrix(0.7431 -0.6691 0.6691 0.7431 -31.7058 92.1396)" cx="104.2" cy="87.4" rx="2.7" ry="2.7"/>
					<ellipse transform="matrix(0.7431 -0.6691 0.6691 0.7431 -179.3793 381.9651)" cx="407.8" cy="424.6" rx="2.7" ry="2.7"/>
				</g>
				<g>
					<ellipse transform="matrix(0.6691 -0.7431 0.7431 0.6691 -48.5008 99.3914)" cx="87.4" cy="104.2" rx="2.7" ry="2.7"/>
					<ellipse transform="matrix(0.6691 -0.7431 0.7431 0.6691 -162.5842 450.5039)" cx="424.6" cy="407.8" rx="2.7" ry="2.7"/>
				</g>
				<g>
					<ellipse transform="matrix(0.5878 -0.809 0.809 0.5878 -69.3502 109.1358)" cx="72.4" cy="122.6" rx="2.7" ry="2.7"/>
					<ellipse transform="matrix(0.5878 -0.809 0.809 0.5878 -133.8125 516.1348)" cx="439.6" cy="389.4" rx="2.7" ry="2.7"/>
				</g>
			</g>
			<g>
				<g>
					<ellipse transform="matrix(0.4067 -0.9135 0.9135 0.4067 -120.659 141.6107)" cx="48.7" cy="163.7" rx="2.7" ry="2.7"/>
					<ellipse transform="matrix(0.4067 -0.9135 0.9135 0.4067 -43.3255 629.8754)" cx="463.3" cy="348.3" rx="2.7" ry="2.7"/>
				</g>
				<g>
					<ellipse transform="matrix(0.309 -0.9511 0.9511 0.309 -149.0112 166.6614)" cx="40.2" cy="185.9" rx="2.7" ry="2.7"/>
					<ellipse transform="matrix(0.309 -0.9511 0.9511 0.309 15.8535 674.0628)" cx="471.8" cy="326.1" rx="2.7" ry="2.7"/>
				</g>
				<g>
					<ellipse transform="matrix(0.2079 -0.9781 0.9781 0.2079 -177.2939 198.7029)" cx="34" cy="208.8" rx="2.7" ry="2.7"/>
					<ellipse transform="matrix(0.2079 -0.9781 0.9781 0.2079 82.0316 707.6578)" cx="478" cy="303.2" rx="2.7" ry="2.7"/>
				</g>
				<g>
					<ellipse transform="matrix(0.1045 -0.9945 0.9945 0.1045 -203.852 238.1609)" cx="30.3" cy="232.3" rx="2.7" ry="2.7"/>
					<ellipse transform="matrix(0.1045 -0.9945 0.9945 0.1045 153.1382 729.5157)" cx="481.7" cy="279.7" rx="2.7" ry="2.7"/>
				</g>
			</g>
			<g>
				<g>
					<ellipse transform="matrix(0.9945 -0.1045 0.1045 0.9945 -29.0725 4.7023)" cx="30.3" cy="279.7" rx="2.7" ry="2.7"/>
					<ellipse transform="matrix(0.9945 -0.1045 0.1045 0.9945 -21.6413 51.6211)" cx="481.7" cy="232.3" rx="2.7" ry="2.7"/>
				</g>
				<g>
					<ellipse transform="matrix(0.9781 -0.2079 0.2079 0.9781 -62.2905 13.7029)" cx="34" cy="303.2" rx="2.7" ry="2.7"/>
					<ellipse transform="matrix(0.9781 -0.2079 0.2079 0.9781 -32.9719 103.9363)" cx="478" cy="208.8" rx="2.7" ry="2.7"/>
				</g>
				<g>
					<ellipse transform="matrix(0.9511 -0.309 0.309 0.9511 -98.81 28.3807)" cx="40.2" cy="326.1" rx="2.7" ry="2.7"/>
					<ellipse transform="matrix(0.9511 -0.309 0.309 0.9511 -34.3477 154.8951)" cx="471.8" cy="185.9" rx="2.7" ry="2.7"/>
				</g>
				<g>
					<ellipse transform="matrix(0.9135 -0.4067 0.4067 0.9135 -137.4541 49.9203)" cx="48.7" cy="348.3" rx="2.7" ry="2.7"/>
					<ellipse transform="matrix(0.9135 -0.4067 0.4067 0.9135 -26.5304 202.5936)" cx="463.3" cy="163.7" rx="2.7" ry="2.7"/>
				</g>
			</g>
			<g>
				<g>
					<ellipse transform="matrix(0.809 -0.5878 0.5878 0.809 -215.0398 116.9323)" cx="72.4" cy="389.4" rx="2.7" ry="2.7"/>
					<ellipse transform="matrix(0.809 -0.5878 0.5878 0.809 11.877 281.797)" cx="439.6" cy="122.6" rx="2.7" ry="2.7"/>
				</g>
				<g>
					<ellipse transform="matrix(0.7431 -0.6691 0.6691 0.7431 -250.4553 163.2156)" cx="87.4" cy="407.8" rx="2.7" ry="2.7"/>
					<ellipse transform="matrix(0.7431 -0.6691 0.6691 0.7431 39.3703 310.8891)" cx="424.6" cy="104.2" rx="2.7" ry="2.7"/>
				</g>
				<g>
					<ellipse transform="matrix(0.6691 -0.7431 0.7431 0.6691 -281.0988 217.906)" cx="104.2" cy="424.6" rx="2.7" ry="2.7"/>
					<ellipse transform="matrix(0.6691 -0.7431 0.7431 0.6691 70.0137 331.9893)" cx="407.8" cy="87.4" rx="2.7" ry="2.7"/>
				</g>
				<g>
					<ellipse transform="matrix(0.5878 -0.809 0.809 0.5878 -305.0809 280.4042)" cx="122.6" cy="439.6" rx="2.7" ry="2.7"/>
					<ellipse transform="matrix(0.5878 -0.809 0.809 0.5878 101.9181 344.8665)" cx="389.4" cy="72.4" rx="2.7" ry="2.7"/>
				</g>
			</g>
			<g>
				<g>
					<ellipse transform="matrix(0.4067 -0.9135 0.9135 0.4067 -326.1246 424.4098)" cx="163.7" cy="463.3" rx="2.7" ry="2.7"/>
					<ellipse transform="matrix(0.4067 -0.9135 0.9135 0.4067 162.1401 347.0763)" cx="348.3" cy="48.7" rx="2.7" ry="2.7"/>
				</g>
				<g>
					<ellipse transform="matrix(0.309 -0.9511 0.9511 0.309 -320.2795 502.7945)" cx="185.9" cy="471.8" rx="2.7" ry="2.7"/>
					<ellipse transform="matrix(0.309 -0.9511 0.9511 0.309 187.1219 337.9298)" cx="326.1" cy="40.2" rx="2.7" ry="2.7"/>
				</g>
				<g>
					<ellipse transform="matrix(0.2079 -0.9781 0.9781 0.2079 -302.1086 582.8431)" cx="208.8" cy="478" rx="2.7" ry="2.7"/>
					<ellipse transform="matrix(0.2079 -0.9781 0.9781 0.2079 206.8463 323.5176)" cx="303.2" cy="34" rx="2.7" ry="2.7"/>
				</g>
				<g>
					<ellipse transform="matrix(0.1045 -0.9945 0.9945 0.1045 -271.0343 662.3334)" cx="232.3" cy="481.7" rx="2.7" ry="2.7"/>
					<ellipse transform="matrix(0.1045 -0.9945 0.9945 0.1045 220.3205 305.3433)" cx="279.7" cy="30.3" rx="2.7" ry="2.7"/>
				</g>
			</g>
		</g>
	</g>
</g>
</svg>
