<?xml version="1.0" encoding="utf-8"?>
<!-- Generator: Adobe Illustrator 19.2.0, SVG Export Plug-In . SVG Version: 6.00 Build 0)  -->
<svg version="1.1" id="icon" xmlns="http://www.w3.org/2000/svg" xmlns:xlink="http://www.w3.org/1999/xlink" x="0px" y="0px"
	 viewBox="0 0 512 512" style="enable-background:new 0 0 512 512;" xml:space="preserve">
<g>
	<circle cx="256" cy="256" r="11.1"/>
	<g>
		<rect x="250.8" y="4.7" width="10.3" height="20.7"/>
		<rect x="250.8" y="486.7" width="10.3" height="20.7"/>
		<rect x="9.8" y="245.7" transform="matrix(4.488860e-011 -1 1 4.488860e-011 -241 271)" width="10.3" height="20.7"/>
		<rect x="491.8" y="245.7" transform="matrix(4.506446e-011 -1 1 4.506446e-011 241 753)" width="10.3" height="20.7"/>
		<rect x="42.1" y="125.2" transform="matrix(0.5 -0.866 0.866 0.5 -93.7025 108.7025)" width="10.3" height="20.7"/>
		<rect x="459.5" y="366.2" transform="matrix(0.5 -0.866 0.866 0.5 -93.7025 590.7025)" width="10.3" height="20.7"/>
		<rect x="130.3" y="454.4" transform="matrix(-0.866 -0.5 0.5 -0.866 20.4904 934.9146)" width="10.3" height="20.7"/>
		<rect x="371.3" y="37" transform="matrix(-0.866 -0.5 0.5 -0.866 678.9146 276.4904)" width="10.3" height="20.7"/>
		<rect x="130.3" y="37" transform="matrix(0.866 -0.5 0.5 0.866 -5.4904 74.0854)" width="10.3" height="20.7"/>
		<rect x="371.3" y="454.4" transform="matrix(0.866 -0.5 0.5 0.866 -181.9146 250.5096)" width="10.3" height="20.7"/>
		<rect x="42.1" y="366.2" transform="matrix(-0.5 -0.866 0.866 -0.5 -255.1268 605.7025)" width="10.3" height="20.7"/>
		<rect x="459.5" y="125.2" transform="matrix(-0.5 -0.866 0.866 -0.5 579.7217 605.7025)" width="10.3" height="20.7"/>
	</g>
	<g>
		<g>
			<rect x="354.6" y="25.9" transform="matrix(0.9135 0.4067 -0.4067 0.9135 43.4445 -142.159)" width="3" height="10.3"/>
			<rect x="154.4" y="475.5" transform="matrix(0.9135 0.4067 -0.4067 0.9135 209.038 -21.8482)" width="3" height="10.5"/>
		</g>
		<g>
			<rect x="330.6" y="16.7" transform="matrix(0.9511 0.309 -0.309 0.9511 23.0144 -101.5442)" width="3" height="10.3"/>
			<rect x="178.5" y="484.8" transform="matrix(0.9511 0.309 -0.309 0.9511 160.2353 -31.6267)" width="3" height="10.5"/>
		</g>
		<g>
			<rect x="305.7" y="10" transform="matrix(0.9781 0.2079 -0.2079 0.9781 9.8755 -63.5341)" width="3" height="10.3"/>
			<rect x="203.3" y="491.4" transform="matrix(0.9781 0.2079 -0.2079 0.9781 107.7451 -31.7343)" width="3" height="10.5"/>
		</g>
		<g>
			<rect x="280.2" y="6" transform="matrix(0.9945 0.1045 -0.1045 0.9945 2.7122 -29.3877)" width="3" height="10.3"/>
			<rect x="228.8" y="495.5" transform="matrix(0.9945 0.1045 -0.1045 0.9945 53.6015 -21.3276)" width="3" height="10.5"/>
		</g>
	</g>
	<g>
		<g>
			<rect x="453.7" y="106.1" transform="matrix(0.5878 0.809 -0.809 0.5878 277.6699 -322.3442)" width="3" height="10.3"/>
			<rect x="55.4" y="395.4" transform="matrix(0.5878 0.809 -0.809 0.5878 347.5875 119.0977)" width="3" height="10.5"/>
		</g>
		<g>
			<rect x="437.4" y="86.1" transform="matrix(0.6691 0.7431 -0.7431 0.6691 213.067 -295.9916)" width="3" height="10.3"/>
			<rect x="71.6" y="415.4" transform="matrix(0.6691 0.7431 -0.7431 0.6691 336.8048 84.8344)" width="3" height="10.5"/>
		</g>
		<g>
			<rect x="419.2" y="67.9" transform="matrix(0.7431 0.6691 -0.6691 0.7431 156.9519 -262.7486)" width="3" height="10.3"/>
			<rect x="89.8" y="433.6" transform="matrix(0.7431 0.6691 -0.6691 0.7431 317.1225 51.6039)" width="3" height="10.5"/>
		</g>
		<g>
			<rect x="399.2" y="51.7" transform="matrix(0.809 0.5878 -0.5878 0.809 109.9394 -224.6647)" width="3" height="10.3"/>
			<rect x="109.9" y="449.8" transform="matrix(0.809 0.5878 -0.5878 0.809 288.756 21.4553)" width="3" height="10.5"/>
		</g>
	</g>
	<g>
		<g>
			<rect x="499.3" y="225.1" transform="matrix(0.1045 0.9945 -0.9945 0.1045 677.4755 -291.8756)" width="3" height="10.3"/>
			<rect x="9.8" y="276.5" transform="matrix(0.1045 0.9945 -0.9945 0.1045 290.2745 241.0608)" width="3" height="10.5"/>
		</g>
		<g>
			<rect x="495.3" y="199.7" transform="matrix(0.2079 0.9781 -0.9781 0.2079 593.8427 -323.6965)" width="3" height="10.3"/>
			<rect x="13.8" y="301.9" transform="matrix(0.2079 0.9781 -0.9781 0.2079 312.5714 228.3295)" width="3" height="10.5"/>
		</g>
		<g>
			<rect x="488.6" y="174.8" transform="matrix(0.309 0.9511 -0.9511 0.309 509.7874 -341.8015)" width="3" height="10.3"/>
			<rect x="20.5" y="326.8" transform="matrix(0.309 0.9511 -0.9511 0.309 330.9707 208.5395)" width="3" height="10.5"/>
		</g>
		<g>
			<rect x="479.4" y="150.7" transform="matrix(0.4067 0.9135 -0.9135 0.4067 427.69 -346.8349)" width="3" height="10.3"/>
			<rect x="29.7" y="350.8" transform="matrix(0.4067 0.9135 -0.9135 0.4067 343.812 182.75)" width="3" height="10.5"/>
		</g>
	</g>
	<g>
		<g>
			<rect x="479.4" y="351" transform="matrix(-0.4067 0.9135 -0.9135 -0.4067 1001.8141 61.6643)" width="3" height="10.3"/>
			<rect x="29.7" y="150.7" transform="matrix(-0.4067 0.9135 -0.9135 -0.4067 186.3249 190.8251)" width="3" height="10.5"/>
		</g>
		<g>
			<rect x="488.6" y="326.9" transform="matrix(-0.309 0.9511 -0.9511 -0.309 957.3904 -31.4455)" width="3" height="10.3"/>
			<rect x="20.5" y="174.7" transform="matrix(-0.309 0.9511 -0.9511 -0.309 199.9109 214.6745)" width="3" height="10.5"/>
		</g>
		<g>
			<rect x="495.3" y="302" transform="matrix(-0.2079 0.9781 -0.9781 -0.2079 900.5435 -114.8839)" width="3" height="10.3"/>
			<rect x="13.8" y="199.6" transform="matrix(-0.2079 0.9781 -0.9781 -0.2079 218.8481 232.4573)" width="3" height="10.5"/>
		</g>
		<g>
			<rect x="499.3" y="276.6" transform="matrix(-0.1045 0.9945 -0.9945 -0.1045 833.356 -186.8942)" width="3" height="10.3"/>
			<rect x="9.8" y="225" transform="matrix(-0.1045 0.9945 -0.9945 -0.1045 241.47 243.136)" width="3" height="10.5"/>
		</g>
	</g>
	<g>
		<g>
			<rect x="399.2" y="450" transform="matrix(-0.809 0.5878 -0.5878 -0.809 992.3929 587.858)" width="3" height="10.3"/>
			<rect x="109.9" y="51.7" transform="matrix(-0.809 0.5878 -0.5878 -0.809 234.9135 37.517)" width="3" height="10.5"/>
		</g>
		<g>
			<rect x="419.2" y="433.8" transform="matrix(-0.7431 0.6691 -0.6691 -0.7431 1027.0782 483.6165)" width="3" height="10.3"/>
			<rect x="89.8" y="67.9" transform="matrix(-0.7431 0.6691 -0.6691 -0.7431 208.162 66.3578)" width="3" height="10.5"/>
		</g>
		<g>
			<rect x="437.4" y="415.6" transform="matrix(-0.6691 0.7431 -0.7431 -0.6691 1045.2981 376.0386)" width="3" height="10.3"/>
			<rect x="71.6" y="86.1" transform="matrix(-0.6691 0.7431 -0.7431 -0.6691 189.9491 98.1188)" width="3" height="10.5"/>
		</g>
		<g>
			<rect x="453.7" y="395.5" transform="matrix(-0.5878 0.809 -0.809 -0.5878 1046.8528 267.9881)" width="3" height="10.3"/>
			<rect x="55.4" y="106.1" transform="matrix(-0.5878 0.809 -0.809 -0.5878 180.4742 130.7672)" width="3" height="10.5"/>
		</g>
	</g>
	<g>
		<g>
			<rect x="280.2" y="495.7" transform="matrix(-0.9945 0.1045 -0.1045 -0.9945 614.2692 969.4438)" width="3" height="10.3"/>
			<rect x="228.8" y="6" transform="matrix(-0.9945 0.1045 -0.1045 -0.9945 460.4737 -1.583)" width="3" height="10.5"/>
		</g>
		<g>
			<rect x="305.7" y="491.6" transform="matrix(-0.9781 0.2079 -0.2079 -0.9781 710.9371 918.8522)" width="3" height="10.3"/>
			<rect x="203.3" y="10" transform="matrix(-0.9781 0.2079 -0.2079 -0.9781 408.3826 -12.3148)" width="3" height="10.5"/>
		</g>
		<g>
			<rect x="330.6" y="485" transform="matrix(-0.9511 0.309 -0.309 -0.9511 799.3416 853.6335)" width="3" height="10.3"/>
			<rect x="178.5" y="16.7" transform="matrix(-0.9511 0.309 -0.309 -0.9511 357.8997 -12.745)" width="3" height="10.5"/>
		</g>
		<g>
			<rect x="354.6" y="475.7" transform="matrix(-0.9135 0.4067 -0.4067 -0.9135 877.0547 775.3452)" width="3" height="10.3"/>
			<rect x="154.4" y="25.9" transform="matrix(-0.9135 0.4067 -0.4067 -0.9135 311.037 -3.7113)" width="3" height="10.5"/>
		</g>
	</g>
</g>
</svg>
