<?xml version="1.0" encoding="utf-8"?>
<!-- Generator: Adobe Illustrator 19.2.0, SVG Export Plug-In . SVG Version: 6.00 Build 0)  -->
<svg version="1.1" id="icon" xmlns="http://www.w3.org/2000/svg" xmlns:xlink="http://www.w3.org/1999/xlink" x="0px" y="0px"
	 viewBox="0 0 512 512" style="enable-background:new 0 0 512 512;" xml:space="preserve">
<g>
	<circle cx="256" cy="256" r="11.1"/>
	<g>
		<g>
			<circle cx="256" cy="12.4" r="7.7"/>
			<circle cx="256" cy="499.6" r="7.7"/>
			<ellipse transform="matrix(0.866 -0.5 0.5 0.866 -4.5379 73.1329)" cx="134.2" cy="45" rx="7.7" ry="7.7"/>
			<ellipse transform="matrix(0.866 -0.5 0.5 0.866 -182.8671 251.4621)" cx="377.8" cy="467" rx="7.7" ry="7.7"/>
			<ellipse transform="matrix(0.866 -0.5 0.5 0.866 -4.5379 251.4621)" cx="467" cy="134.2" rx="7.7" ry="7.7"/>
			<ellipse transform="matrix(0.866 -0.5 0.5 0.866 -182.8671 73.1329)" cx="45" cy="377.8" rx="7.7" ry="7.7"/>
			<ellipse transform="matrix(0.5 -0.866 0.866 0.5 149.8997 349.7025)" cx="377.8" cy="45" rx="7.7" ry="7.7"/>
			<ellipse transform="matrix(0.5 -0.866 0.866 0.5 -337.3047 349.7025)" cx="134.2" cy="467" rx="7.7" ry="7.7"/>
			<ellipse transform="matrix(0.5 -0.866 0.866 0.5 -93.7025 106.1003)" cx="45" cy="134.2" rx="7.7" ry="7.7"/>
			<ellipse transform="matrix(0.5 -0.866 0.866 0.5 -93.7025 593.3047)" cx="467" cy="377.8" rx="7.7" ry="7.7"/>
			<circle cx="12.4" cy="256" r="7.7"/>
			<circle cx="499.6" cy="256" r="7.7"/>
		</g>
		<g>
			<g>
				<g>
					<ellipse transform="matrix(0.9945 -0.1045 0.1045 0.9945 -0.1725 24.1729)" cx="230.5" cy="13.7" rx="2.9" ry="2.9"/>
					<ellipse transform="matrix(0.9945 -0.1045 0.1045 0.9945 -50.5413 32.1505)" cx="281.5" cy="498.3" rx="2.9" ry="2.9"/>
				</g>
				<g>
					<ellipse transform="matrix(0.9781 -0.2079 0.2079 0.9781 0.803 43.0824)" cx="205.4" cy="17.7" rx="2.9" ry="2.9"/>
					<ellipse transform="matrix(0.9781 -0.2079 0.2079 0.9781 -96.0654 74.5568)" cx="306.6" cy="494.3" rx="2.9" ry="2.9"/>
				</g>
				<g>
					<ellipse transform="matrix(0.9511 -0.309 0.309 0.9511 1.3297 57.0367)" cx="180.7" cy="24.3" rx="2.9" ry="2.9"/>
					<ellipse transform="matrix(0.9511 -0.309 0.309 0.9511 -134.4874 126.239)" cx="331.3" cy="487.7" rx="2.9" ry="2.9"/>
				</g>
				<g>
					<ellipse transform="matrix(0.9135 -0.4067 0.4067 0.9135 -4.245709e-002 66.717)" cx="156.9" cy="33.5" rx="2.9" ry="2.9"/>
					<ellipse transform="matrix(0.9135 -0.4067 0.4067 0.9135 -163.942 185.7969)" cx="355.1" cy="478.5" rx="2.9" ry="2.9"/>
				</g>
			</g>
			<g>
				<g>
					<ellipse transform="matrix(0.809 -0.5878 0.5878 0.809 -13.0877 77.5636)" cx="112.8" cy="58.9" rx="2.9" ry="2.9"/>
					<ellipse transform="matrix(0.809 -0.5878 0.5878 0.809 -190.075 321.1657)" cx="399.2" cy="453.1" rx="2.9" ry="2.9"/>
				</g>
				<g>
					<ellipse transform="matrix(0.7431 -0.6691 0.6691 0.7431 -26.2765 81.484)" cx="93" cy="75" rx="2.9" ry="2.9"/>
					<ellipse transform="matrix(0.7431 -0.6691 0.6691 0.7431 -184.8085 392.6207)" cx="419" cy="437" rx="2.9" ry="2.9"/>
				</g>
				<g>
					<ellipse transform="matrix(0.6691 -0.7431 0.7431 0.6691 -44.3065 86.4826)" cx="75" cy="93" rx="2.9" ry="2.9"/>
					<ellipse transform="matrix(0.6691 -0.7431 0.7431 0.6691 -166.7785 463.4127)" cx="437" cy="419" rx="2.9" ry="2.9"/>
				</g>
				<g>
					<ellipse transform="matrix(0.5878 -0.809 0.809 0.5878 -66.9802 94.1724)" cx="58.9" cy="112.8" rx="2.9" ry="2.9"/>
					<ellipse transform="matrix(0.5878 -0.809 0.809 0.5878 -136.1825 531.0983)" cx="453.1" cy="399.2" rx="2.9" ry="2.9"/>
				</g>
			</g>
			<g>
				<g>
					<ellipse transform="matrix(0.4067 -0.9135 0.9135 0.4067 -123.5022 123.6595)" cx="33.5" cy="156.9" rx="2.9" ry="2.9"/>
					<ellipse transform="matrix(0.4067 -0.9135 0.9135 0.4067 -40.4823 647.8267)" cx="478.5" cy="355.1" rx="2.9" ry="2.9"/>
				</g>
				<g>
					<ellipse transform="matrix(0.309 -0.9511 0.9511 0.309 -155.0725 148.0066)" cx="24.3" cy="180.7" rx="2.9" ry="2.9"/>
					<ellipse transform="matrix(0.309 -0.9511 0.9511 0.309 21.9148 692.7176)" cx="487.7" cy="331.3" rx="2.9" ry="2.9"/>
				</g>
				<g>
					<ellipse transform="matrix(0.2079 -0.9781 0.9781 0.2079 -186.8281 179.991)" cx="17.7" cy="205.4" rx="2.9" ry="2.9"/>
					<ellipse transform="matrix(0.2079 -0.9781 0.9781 0.2079 91.5658 726.3698)" cx="494.3" cy="306.6" rx="2.9" ry="2.9"/>
				</g>
				<g>
					<ellipse transform="matrix(0.1045 -0.9945 0.9945 0.1045 -216.9768 220.0961)" cx="13.7" cy="230.5" rx="2.9" ry="2.9"/>
					<ellipse transform="matrix(0.1045 -0.9945 0.9945 0.1045 166.2631 747.5806)" cx="498.3" cy="281.5" rx="2.9" ry="2.9"/>
				</g>
			</g>
			<g>
				<g>
					<ellipse transform="matrix(0.9945 -0.1045 0.1045 0.9945 -29.3457 2.9773)" cx="13.7" cy="281.5" rx="2.9" ry="2.9"/>
					<ellipse transform="matrix(0.9945 -0.1045 0.1045 0.9945 -21.3681 53.3461)" cx="498.3" cy="230.5" rx="2.9" ry="2.9"/>
				</g>
				<g>
					<ellipse transform="matrix(0.9781 -0.2079 0.2079 0.9781 -63.3684 10.3854)" cx="17.7" cy="306.6" rx="2.9" ry="2.9"/>
					<ellipse transform="matrix(0.9781 -0.2079 0.2079 0.9781 -31.894 107.2538)" cx="494.3" cy="205.4" rx="2.9" ry="2.9"/>
				</g>
				<g>
					<ellipse transform="matrix(0.9511 -0.309 0.309 0.9511 -101.18 23.7293)" cx="24.3" cy="331.3" rx="2.9" ry="2.9"/>
					<ellipse transform="matrix(0.9511 -0.309 0.309 0.9511 -31.9777 159.5464)" cx="487.7" cy="180.7" rx="2.9" ry="2.9"/>
				</g>
				<g>
					<ellipse transform="matrix(0.9135 -0.4067 0.4067 0.9135 -141.5322 44.3072)" cx="33.5" cy="355.1" rx="2.9" ry="2.9"/>
					<ellipse transform="matrix(0.9135 -0.4067 0.4067 0.9135 -22.4522 208.2067)" cx="478.5" cy="156.9" rx="2.9" ry="2.9"/>
				</g>
			</g>
			<g>
				<g>
					<ellipse transform="matrix(0.809 -0.5878 0.5878 0.809 -223.3825 110.871)" cx="58.9" cy="399.2" rx="2.9" ry="2.9"/>
					<ellipse transform="matrix(0.809 -0.5878 0.5878 0.809 20.2197 287.8583)" cx="453.1" cy="112.8" rx="2.9" ry="2.9"/>
				</g>
				<g>
					<ellipse transform="matrix(0.7431 -0.6691 0.6691 0.7431 -261.1108 157.7863)" cx="75" cy="419" rx="2.9" ry="2.9"/>
					<ellipse transform="matrix(0.7431 -0.6691 0.6691 0.7431 50.0258 316.3184)" cx="437" cy="93" rx="2.9" ry="2.9"/>
				</g>
				<g>
					<ellipse transform="matrix(0.6691 -0.7431 0.7431 0.6691 -294.0075 213.7116)" cx="93" cy="437" rx="2.9" ry="2.9"/>
					<ellipse transform="matrix(0.6691 -0.7431 0.7431 0.6691 82.9225 336.1836)" cx="419" cy="75" rx="2.9" ry="2.9"/>
				</g>
				<g>
					<ellipse transform="matrix(0.5878 -0.809 0.809 0.5878 -320.0443 278.0342)" cx="112.8" cy="453.1" rx="2.9" ry="2.9"/>
					<ellipse transform="matrix(0.5878 -0.809 0.809 0.5878 116.8816 347.2365)" cx="399.2" cy="58.9" rx="2.9" ry="2.9"/>
				</g>
			</g>
			<g>
				<g>
					<ellipse transform="matrix(0.4067 -0.9135 0.9135 0.4067 -344.0758 427.253)" cx="156.9" cy="478.5" rx="2.9" ry="2.9"/>
					<ellipse transform="matrix(0.4067 -0.9135 0.9135 0.4067 180.0914 344.2331)" cx="355.1" cy="33.5" rx="2.9" ry="2.9"/>
				</g>
				<g>
					<ellipse transform="matrix(0.309 -0.9511 0.9511 0.309 -338.9343 508.8558)" cx="180.7" cy="487.7" rx="2.9" ry="2.9"/>
					<ellipse transform="matrix(0.309 -0.9511 0.9511 0.309 205.7767 331.8684)" cx="331.3" cy="24.3" rx="2.9" ry="2.9"/>
				</g>
				<g>
					<ellipse transform="matrix(0.2079 -0.9781 0.9781 0.2079 -320.8206 592.3773)" cx="205.4" cy="494.3" rx="2.9" ry="2.9"/>
					<ellipse transform="matrix(0.2079 -0.9781 0.9781 0.2079 225.5582 313.9835)" cx="306.6" cy="17.7" rx="2.9" ry="2.9"/>
				</g>
				<g>
					<ellipse transform="matrix(0.1045 -0.9945 0.9945 0.1045 -289.0991 675.4583)" cx="230.5" cy="498.3" rx="2.9" ry="2.9"/>
					<ellipse transform="matrix(0.1045 -0.9945 0.9945 0.1045 238.3853 292.2184)" cx="281.5" cy="13.7" rx="2.9" ry="2.9"/>
				</g>
			</g>
		</g>
	</g>
	<g>
		<g>
			<path d="M242.9,59.8l7.5,12.4c1.2,2.1,2.1,3.3,2.7,3.7c0.5,0.4,1.2,0.7,1.9,0.8v0.8h-13.3v-0.8c1.1-0.1,1.7-0.3,2-0.5
				c0.3-0.3,0.5-0.6,0.5-1c0-0.3,0-0.5-0.1-0.7c-0.2-0.4-0.7-1.3-1.4-2.5l-4-6.5l-4.2,5.6c-1.2,1.7-1.9,2.9-1.9,3.5
				c0,0.4,0.2,0.8,0.5,1.2c0.3,0.4,0.8,0.6,1.4,0.8c0.3,0.1,0.9,0.1,1.7,0.1v0.8h-10.5v-0.8c1.2-0.2,2.1-0.5,2.8-1.1
				c0.9-0.7,2.1-2.1,3.8-4.3l5.4-7.3l-6.9-11.3c-1.1-1.9-1.8-2.9-1.9-3.1c-0.4-0.5-0.7-0.8-1.1-1c-0.3-0.2-0.8-0.4-1.4-0.5v-0.8
				h13.5v0.8h-0.7c-0.8,0-1.3,0.1-1.6,0.4c-0.3,0.3-0.5,0.6-0.5,1c0,0.3,0,0.6,0.1,0.8l1.4,2.3l3.4,5.7l2.9-3.9
				c1.5-2,2.2-3.4,2.2-4.2c0-0.4-0.1-0.8-0.3-1.1c-0.2-0.3-0.5-0.6-0.9-0.8c-0.4-0.2-1-0.3-1.8-0.3v-0.8h10v0.8
				c-0.8,0-1.4,0.1-1.9,0.3c-0.5,0.2-1,0.6-1.5,1.1c-0.3,0.4-1.2,1.5-2.6,3.3L242.9,59.8z"/>
			<path d="M270.2,76.7v0.8H256v-0.8h0.9c0.8,0,1.4-0.2,1.9-0.5c0.3-0.2,0.6-0.6,0.8-1.1c0.1-0.4,0.2-1.3,0.2-2.8V52.5
				c0-1.5-0.1-2.5-0.2-2.9c-0.1-0.4-0.4-0.7-0.9-1c-0.4-0.3-1.1-0.4-1.8-0.4H256v-0.8h14.2v0.8h-0.9c-0.8,0-1.4,0.2-1.9,0.5
				c-0.3,0.2-0.6,0.6-0.8,1.1c-0.1,0.4-0.2,1.3-0.2,2.8v19.9c0,1.5,0.1,2.5,0.2,2.9c0.2,0.4,0.5,0.7,0.9,1c0.4,0.3,1.1,0.4,1.8,0.4
				H270.2z"/>
			<path d="M286.2,76.7v0.8H272v-0.8h0.9c0.8,0,1.4-0.2,1.9-0.5c0.3-0.2,0.6-0.6,0.8-1.1c0.1-0.4,0.2-1.3,0.2-2.8V52.5
				c0-1.5-0.1-2.5-0.2-2.9c-0.1-0.4-0.4-0.7-0.9-1c-0.4-0.3-1.1-0.4-1.8-0.4H272v-0.8h14.2v0.8h-0.9c-0.8,0-1.4,0.2-1.9,0.5
				c-0.3,0.2-0.6,0.6-0.8,1.1c-0.1,0.4-0.2,1.3-0.2,2.8v19.9c0,1.5,0.1,2.5,0.2,2.9c0.2,0.4,0.5,0.7,0.9,1c0.4,0.3,1.1,0.4,1.8,0.4
				H286.2z"/>
		</g>
		<g>
			<path d="M351.8,104.3l-0.4,0.7l-12.3-7.1l0.4-0.7l0.8,0.5c0.7,0.4,1.3,0.6,1.9,0.5c0.4,0,0.8-0.2,1.2-0.5c0.3-0.2,0.8-1,1.6-2.3
				l9.9-17.2c0.8-1.3,1.2-2.2,1.3-2.6c0.1-0.4,0-0.9-0.3-1.3c-0.2-0.5-0.7-0.9-1.4-1.3l-0.8-0.5l0.4-0.7l12.3,7.1l-0.4,0.7l-0.8-0.5
				c-0.7-0.4-1.3-0.6-1.9-0.5c-0.4,0-0.8,0.2-1.2,0.5c-0.3,0.2-0.8,1-1.6,2.3l-9.9,17.2c-0.8,1.3-1.2,2.2-1.3,2.6
				c-0.1,0.4,0,0.9,0.3,1.3c0.2,0.5,0.7,0.9,1.4,1.3L351.8,104.3z"/>
		</g>
		<g>
			<path d="M410.8,165.6l-0.7,0.4l-7.1-12.3l0.7-0.4l0.5,0.8c0.4,0.7,0.8,1.2,1.4,1.4c0.4,0.2,0.8,0.2,1.3,0.2
				c0.4-0.1,1.2-0.5,2.5-1.2l17.2-9.9c1.3-0.8,2.1-1.3,2.4-1.6c0.3-0.3,0.4-0.7,0.4-1.3c0-0.5-0.1-1.1-0.5-1.8l-0.5-0.8l0.7-0.4
				l7.1,12.3l-0.7,0.4l-0.5-0.8c-0.4-0.7-0.8-1.2-1.4-1.4c-0.4-0.2-0.8-0.3-1.3-0.2c-0.4,0.1-1.2,0.5-2.5,1.2l-17.2,9.9
				c-1.3,0.8-2.1,1.3-2.4,1.6c-0.3,0.3-0.4,0.8-0.4,1.3c0,0.5,0.1,1.1,0.5,1.8L410.8,165.6z"/>
			<path d="M418.8,179.4l-0.7,0.4l-7.1-12.3l0.7-0.4l0.5,0.8c0.4,0.7,0.8,1.2,1.4,1.4c0.4,0.2,0.8,0.2,1.3,0.2
				c0.4-0.1,1.2-0.5,2.5-1.2l17.2-9.9c1.3-0.8,2.1-1.3,2.4-1.6c0.3-0.3,0.4-0.7,0.4-1.3c0-0.5-0.1-1.1-0.5-1.8l-0.5-0.8l0.7-0.4
				l7.1,12.3l-0.7,0.4l-0.5-0.8c-0.4-0.7-0.8-1.2-1.4-1.4c-0.4-0.2-0.8-0.3-1.3-0.2c-0.4,0.1-1.2,0.5-2.5,1.2l-17.2,9.9
				c-1.3,0.8-2.1,1.3-2.4,1.6c-0.3,0.3-0.4,0.8-0.4,1.3c0,0.5,0.1,1.1,0.5,1.8L418.8,179.4z"/>
		</g>
		<g>
			<path d="M435.3,247.1h-0.8v-14.2h0.8v0.9c0,0.8,0.2,1.4,0.5,1.9c0.2,0.3,0.6,0.6,1.1,0.8c0.4,0.1,1.3,0.2,2.8,0.2h19.9
				c1.5,0,2.5-0.1,2.9-0.2c0.4-0.1,0.7-0.4,1-0.9c0.3-0.4,0.4-1.1,0.4-1.8v-0.9h0.8v14.2h-0.8v-0.9c0-0.8-0.2-1.4-0.5-1.9
				c-0.2-0.3-0.6-0.6-1.1-0.8c-0.4-0.1-1.3-0.2-2.8-0.2h-19.9c-1.5,0-2.5,0.1-2.9,0.2c-0.4,0.2-0.7,0.5-1,0.9
				c-0.3,0.4-0.4,1.1-0.4,1.8V247.1z"/>
			<path d="M435.3,263.1h-0.8v-14.2h0.8v0.9c0,0.8,0.2,1.4,0.5,1.9c0.2,0.3,0.6,0.6,1.1,0.8c0.4,0.1,1.3,0.2,2.8,0.2h19.9
				c1.5,0,2.5-0.1,2.9-0.2c0.4-0.1,0.7-0.4,1-0.9c0.3-0.4,0.4-1.1,0.4-1.8v-0.9h0.8v14.2h-0.8v-0.9c0-0.8-0.2-1.4-0.5-1.9
				c-0.2-0.3-0.6-0.6-1.1-0.8c-0.4-0.1-1.3-0.2-2.8-0.2h-19.9c-1.5,0-2.5,0.1-2.9,0.2c-0.4,0.2-0.7,0.5-1,0.9
				c-0.3,0.4-0.4,1.1-0.4,1.8V263.1z"/>
			<path d="M435.3,279.1h-0.8v-14.2h0.8v0.9c0,0.8,0.2,1.4,0.5,1.9c0.2,0.3,0.6,0.6,1.1,0.8c0.4,0.1,1.3,0.2,2.8,0.2h19.9
				c1.5,0,2.5-0.1,2.9-0.2c0.4-0.1,0.7-0.4,1-0.9c0.3-0.4,0.4-1.1,0.4-1.8v-0.9h0.8v14.2h-0.8v-0.9c0-0.8-0.2-1.4-0.5-1.9
				c-0.2-0.3-0.6-0.6-1.1-0.8c-0.4-0.1-1.3-0.2-2.8-0.2h-19.9c-1.5,0-2.5,0.1-2.9,0.2c-0.4,0.2-0.7,0.5-1,0.9
				c-0.3,0.4-0.4,1.1-0.4,1.8V279.1z"/>
		</g>
		<g>
			<path d="M415.3,338.7l-0.7-0.4l7.1-12.3l0.7,0.4l-0.5,0.8c-0.4,0.7-0.6,1.3-0.5,1.9c0,0.4,0.2,0.8,0.5,1.2c0.2,0.3,1,0.8,2.3,1.6
				l17.2,9.9c1.3,0.8,2.2,1.2,2.6,1.3c0.4,0.1,0.9,0,1.3-0.3c0.5-0.2,0.9-0.7,1.3-1.4l0.5-0.8l0.7,0.4l-7.1,12.3L440,353l0.5-0.8
				c0.4-0.7,0.6-1.3,0.5-1.9c0-0.4-0.2-0.8-0.5-1.2c-0.2-0.3-1-0.8-2.3-1.6l-17.2-9.9c-1.3-0.8-2.2-1.2-2.6-1.3
				c-0.4-0.1-0.9,0-1.3,0.3c-0.5,0.2-0.9,0.7-1.3,1.4L415.3,338.7z"/>
			<path d="M425.6,379.6l-0.7-0.4c0.3-0.9,0.3-2-0.2-3.2c-0.4-0.9-1.5-2.5-3.3-4.8l-15.3-19.7l0.3-0.6l25.5,3.9
				c3.1,0.5,4.9,0.7,5.6,0.6c0.6-0.1,1.3-0.5,1.9-1.4l0.7,0.4l-6.5,11.3l-0.7-0.4l0.2-0.4c0.6-1,0.8-1.8,0.8-2.3
				c0-0.4-0.2-0.7-0.6-0.9c-0.2-0.1-0.5-0.2-0.9-0.3c-0.4-0.1-1.4-0.3-3.1-0.5l-15.9-2.5l8.9,11.4c1.1,1.4,1.8,2.3,2.2,2.7
				c0.4,0.4,0.8,0.7,1.1,0.9c0.4,0.2,0.8,0.3,1.2,0.3c0.4,0,0.8-0.2,1.1-0.4c0.5-0.4,1-1,1.5-1.8l0.7,0.4L425.6,379.6z"/>
		</g>
		<g>
			<path d="M347.8,444l-0.4-0.7c0.8-0.7,1.2-1.6,1.4-2.9c0.1-0.9,0-2.9-0.4-5.8l-3.4-24.7l0.6-0.3l20.1,16.2c2.4,1.9,3.9,3,4.5,3.3
				c0.6,0.2,1.4,0.2,2.3-0.2l0.4,0.7l-11.3,6.5l-0.4-0.7l0.4-0.2c1-0.6,1.6-1.1,1.8-1.6c0.2-0.3,0.1-0.7-0.1-1.1
				c-0.1-0.2-0.3-0.5-0.6-0.7c-0.3-0.3-1.1-0.9-2.4-2l-12.6-10.1l2,14.3c0.3,1.7,0.5,2.9,0.6,3.4s0.3,1,0.5,1.3
				c0.2,0.4,0.5,0.7,0.9,0.9c0.4,0.2,0.8,0.3,1.2,0.2c0.6-0.1,1.3-0.3,2.2-0.8l0.4,0.7L347.8,444z"/>
		</g>
		<g>
			<path d="M249.3,464.7v-0.8c1-0.2,1.9-0.8,2.7-1.8c0.6-0.7,1.4-2.5,2.5-5.2l9.4-23.1h0.7l9.3,24c1.1,2.9,1.9,4.6,2.3,5.1
				c0.4,0.5,1.1,0.8,2.2,1v0.8h-13v-0.8h0.4c1.2,0,2-0.2,2.4-0.5c0.3-0.2,0.5-0.5,0.5-1c0-0.3-0.1-0.6-0.2-0.9
				c-0.1-0.4-0.5-1.3-1.1-2.9l-5.8-15.1l-5.4,13.4c-0.6,1.6-1,2.7-1.2,3.3s-0.2,1-0.2,1.4c0,0.4,0.1,0.8,0.3,1.2
				c0.2,0.3,0.5,0.6,0.9,0.8c0.6,0.3,1.3,0.4,2.3,0.4v0.8H249.3z"/>
			<path d="M233.8,435.3v-0.8H248v0.8h-0.9c-0.8,0-1.4,0.2-1.9,0.5c-0.3,0.2-0.6,0.6-0.8,1.1c-0.1,0.4-0.2,1.3-0.2,2.8v19.9
				c0,1.5,0.1,2.5,0.2,2.9c0.1,0.4,0.4,0.7,0.9,1c0.4,0.3,1.1,0.4,1.8,0.4h0.9v0.8h-14.2v-0.8h0.9c0.8,0,1.4-0.2,1.9-0.5
				c0.3-0.2,0.6-0.6,0.8-1.1c0.1-0.4,0.2-1.3,0.2-2.8v-19.9c0-1.5-0.1-2.5-0.2-2.9c-0.2-0.4-0.5-0.7-0.9-1c-0.4-0.3-1.1-0.4-1.8-0.4
				H233.8z"/>
		</g>
		<g>
			<path d="M152.7,437.4l0.4-0.7c0.9,0.3,2,0.3,3.2-0.2c0.9-0.4,2.5-1.5,4.8-3.3l19.7-15.3l0.6,0.3l-3.9,25.5
				c-0.5,3.1-0.7,4.9-0.6,5.6c0.1,0.6,0.5,1.3,1.4,1.9l-0.4,0.7l-11.3-6.5l0.4-0.7l0.4,0.2c1,0.6,1.8,0.8,2.3,0.8
				c0.4,0,0.7-0.2,0.9-0.6c0.1-0.2,0.2-0.5,0.3-0.9c0.1-0.4,0.3-1.4,0.5-3.1l2.5-15.9l-11.4,8.9c-1.4,1.1-2.3,1.8-2.7,2.2
				c-0.4,0.4-0.7,0.8-0.9,1.1c-0.2,0.4-0.3,0.8-0.3,1.2c0,0.4,0.2,0.8,0.4,1.1c0.4,0.5,1,1,1.8,1.5l-0.4,0.7L152.7,437.4z"/>
			<path d="M154,404.2l0.4-0.7l12.3,7.1l-0.4,0.7l-0.8-0.5c-0.7-0.4-1.3-0.6-1.9-0.5c-0.4,0-0.8,0.2-1.2,0.5c-0.3,0.2-0.8,1-1.6,2.3
				l-9.9,17.2c-0.8,1.3-1.2,2.2-1.3,2.6c-0.1,0.4,0,0.9,0.3,1.3c0.2,0.5,0.7,0.9,1.4,1.3l0.8,0.5l-0.4,0.7l-12.3-7.1l0.4-0.7
				l0.8,0.5c0.7,0.4,1.3,0.6,1.9,0.5c0.4,0,0.8-0.2,1.2-0.5c0.3-0.2,0.8-1,1.6-2.3l9.9-17.2c0.8-1.3,1.2-2.2,1.2-2.6
				c0.1-0.4,0-0.9-0.3-1.3c-0.2-0.5-0.7-0.9-1.4-1.3L154,404.2z"/>
			<path d="M140.2,396.2l0.4-0.7l12.3,7.1l-0.4,0.7l-0.8-0.5c-0.7-0.4-1.3-0.6-1.9-0.5c-0.4,0-0.8,0.2-1.2,0.5
				c-0.3,0.2-0.8,1-1.6,2.3l-9.9,17.2c-0.8,1.3-1.2,2.2-1.3,2.6c-0.1,0.4,0,0.9,0.3,1.3c0.2,0.5,0.7,0.9,1.4,1.3l0.8,0.5l-0.4,0.7
				l-12.3-7.1l0.4-0.7l0.8,0.5c0.7,0.4,1.3,0.6,1.9,0.5c0.4,0,0.8-0.2,1.2-0.5c0.3-0.2,0.8-1,1.6-2.3l9.9-17.2
				c0.8-1.3,1.2-2.2,1.2-2.6c0.1-0.4,0-0.9-0.3-1.3c-0.2-0.5-0.7-0.9-1.4-1.3L140.2,396.2z"/>
		</g>
		<g>
			<path d="M79.9,368.4l0.7-0.4c0.7,0.8,1.6,1.2,2.9,1.4c0.9,0.1,2.9,0,5.8-0.4l24.7-3.4l0.3,0.6l-16.2,20.1c-1.9,2.4-3,3.9-3.3,4.5
				c-0.2,0.6-0.2,1.4,0.2,2.3l-0.7,0.4l-6.5-11.3l0.7-0.4l0.2,0.4c0.6,1,1.1,1.6,1.6,1.8c0.3,0.2,0.7,0.1,1.1-0.1
				c0.2-0.1,0.5-0.3,0.7-0.6c0.3-0.3,0.9-1.1,2-2.4l10.1-12.6l-14.3,2c-1.7,0.3-2.9,0.5-3.4,0.6s-1,0.3-1.3,0.5
				c-0.4,0.2-0.7,0.5-0.9,0.9c-0.2,0.4-0.3,0.8-0.2,1.2c0.1,0.6,0.3,1.3,0.8,2.2l-0.7,0.4L79.9,368.4z"/>
			<path d="M97.6,340.3l0.7-0.4l7.1,12.3l-0.7,0.4l-0.5-0.8c-0.4-0.7-0.8-1.2-1.4-1.4c-0.4-0.2-0.8-0.3-1.3-0.2
				c-0.4,0.1-1.2,0.5-2.5,1.2l-17.2,9.9c-1.3,0.8-2.1,1.3-2.4,1.6c-0.3,0.3-0.4,0.7-0.4,1.3c0,0.5,0.2,1.1,0.5,1.8l0.5,0.8l-0.7,0.4
				L72.1,355l0.7-0.4l0.5,0.8c0.4,0.7,0.8,1.2,1.4,1.4c0.4,0.2,0.8,0.3,1.3,0.2c0.4-0.1,1.2-0.5,2.5-1.2l17.2-9.9
				c1.3-0.8,2.1-1.3,2.4-1.6c0.3-0.3,0.4-0.8,0.4-1.3c0-0.5-0.1-1.1-0.5-1.8L97.6,340.3z"/>
			<path d="M89.6,326.4l0.7-0.4l7.1,12.3l-0.7,0.4l-0.5-0.8c-0.4-0.7-0.8-1.2-1.4-1.4c-0.4-0.2-0.8-0.3-1.3-0.2
				c-0.4,0.1-1.2,0.5-2.5,1.2l-17.2,9.9c-1.3,0.8-2.1,1.3-2.4,1.6c-0.3,0.3-0.4,0.7-0.4,1.3c0,0.5,0.2,1.1,0.5,1.8L72,353l-0.7,0.4
				l-7.1-12.3l0.7-0.4l0.5,0.8c0.4,0.7,0.8,1.2,1.4,1.4c0.4,0.2,0.8,0.3,1.3,0.2c0.4-0.1,1.2-0.5,2.5-1.2l17.2-9.9
				c1.3-0.8,2.1-1.3,2.4-1.6c0.3-0.3,0.4-0.8,0.4-1.3c0-0.5-0.1-1.1-0.5-1.8L89.6,326.4z"/>
			<path d="M81.6,312.6l0.7-0.4l7.1,12.3l-0.7,0.4l-0.5-0.8c-0.4-0.7-0.8-1.2-1.4-1.4c-0.4-0.2-0.8-0.3-1.3-0.2
				c-0.4,0.1-1.2,0.5-2.5,1.2l-17.2,9.9c-1.3,0.8-2.1,1.3-2.4,1.6c-0.3,0.3-0.4,0.7-0.4,1.3c0,0.5,0.2,1.1,0.5,1.8l0.5,0.8l-0.7,0.4
				l-7.1-12.3l0.7-0.4l0.5,0.8c0.4,0.7,0.8,1.2,1.4,1.4c0.4,0.2,0.8,0.3,1.3,0.2c0.4-0.1,1.2-0.5,2.5-1.2l17.2-9.9
				c1.3-0.8,2.1-1.3,2.4-1.6c0.3-0.3,0.4-0.8,0.4-1.3c0-0.5-0.1-1.1-0.5-1.8L81.6,312.6z"/>
		</g>
		<g>
			<path d="M76.7,264.1h0.8v14.2h-0.8v-0.9c0-0.8-0.2-1.4-0.5-1.9c-0.2-0.3-0.6-0.6-1.1-0.8c-0.4-0.1-1.3-0.2-2.8-0.2H52.5
				c-1.5,0-2.5,0.1-2.9,0.2c-0.4,0.1-0.7,0.4-1,0.9c-0.3,0.4-0.4,1.1-0.4,1.8v0.9h-0.8v-14.2h0.8v0.9c0,0.8,0.2,1.4,0.5,1.9
				c0.2,0.3,0.6,0.6,1.1,0.8c0.4,0.1,1.3,0.2,2.8,0.2h19.9c1.5,0,2.5-0.1,2.9-0.2c0.4-0.2,0.7-0.5,1-0.9c0.3-0.4,0.4-1.1,0.4-1.8
				V264.1z"/>
			<path d="M59.8,245.8l12.4-7.5c2.1-1.2,3.3-2.1,3.7-2.7c0.4-0.5,0.7-1.2,0.8-1.9h0.8V247h-0.8c-0.1-1.1-0.3-1.7-0.5-2
				c-0.3-0.3-0.6-0.5-1-0.5c-0.3,0-0.5,0-0.7,0.1c-0.4,0.2-1.3,0.7-2.5,1.4l-6.5,4l5.6,4.2c1.7,1.2,2.9,1.9,3.5,1.9
				c0.4,0,0.8-0.2,1.2-0.5c0.4-0.3,0.6-0.8,0.8-1.4c0.1-0.3,0.1-0.9,0.1-1.7h0.8v10.5h-0.8c-0.2-1.2-0.5-2.1-1.1-2.8
				c-0.7-0.9-2.1-2.1-4.3-3.8l-7.3-5.4l-11.3,6.9c-1.9,1.1-2.9,1.8-3.1,1.9c-0.5,0.4-0.8,0.7-1,1.1s-0.4,0.8-0.5,1.4h-0.8v-13.5h0.8
				v0.7c0,0.8,0.1,1.3,0.4,1.6c0.3,0.3,0.6,0.5,1,0.5c0.3,0,0.6,0,0.8-0.1l2.3-1.4l5.7-3.4l-3.9-2.9c-2-1.5-3.4-2.2-4.2-2.2
				c-0.4,0-0.8,0.1-1.1,0.3c-0.3,0.2-0.6,0.5-0.8,0.9c-0.2,0.4-0.3,1-0.3,1.8h-0.8v-10h0.8c0,0.8,0.1,1.4,0.3,1.9
				c0.2,0.5,0.6,1,1.1,1.5c0.4,0.3,1.5,1.2,3.3,2.6L59.8,245.8z"/>
		</g>
		<g>
			<path d="M87.3,155.7l14.5-0.3c2.4-0.1,3.9-0.2,4.6-0.4c0.6-0.2,1.2-0.6,1.6-1.2l0.7,0.4l-6.6,11.5l-0.7-0.4c0.5-1,0.6-1.6,0.6-2
				c-0.1-0.4-0.3-0.7-0.6-0.9c-0.2-0.1-0.5-0.2-0.7-0.2c-0.5-0.1-1.4-0.1-2.9,0l-7.6,0.2l2.8,6.4c0.9,1.9,1.6,3.1,2.1,3.4
				c0.4,0.2,0.8,0.3,1.3,0.2c0.5-0.1,1-0.4,1.4-0.8c0.2-0.2,0.5-0.7,1-1.4l0.7,0.4l-5.2,9.1l-0.7-0.4c0.4-1.1,0.6-2.1,0.5-3
				c-0.1-1.1-0.8-2.9-1.8-5.4l-3.6-8.3l-13.3,0.3c-2.2,0.1-3.4,0.1-3.7,0.1c-0.6,0.1-1.1,0.2-1.4,0.4c-0.4,0.2-0.7,0.5-1.1,1
				l-0.7-0.4l6.8-11.7l0.7,0.4l-0.3,0.6c-0.4,0.7-0.5,1.2-0.5,1.6c0.1,0.4,0.3,0.7,0.7,0.9c0.3,0.2,0.6,0.3,0.8,0.3l2.7,0l6.6-0.1
				l-1.9-4.4c-1-2.3-1.9-3.6-2.5-4c-0.3-0.2-0.7-0.3-1.1-0.3c-0.4,0-0.8,0.1-1.1,0.4c-0.4,0.2-0.7,0.7-1.2,1.4l-0.7-0.4l5-8.7
				l0.7,0.4c-0.4,0.7-0.6,1.3-0.7,1.8c-0.1,0.5,0,1.2,0.2,1.9c0.1,0.5,0.7,1.8,1.6,3.9L87.3,155.7z"/>
		</g>
		<g>
			<path d="M153.4,88.7l12.7,7c2.1,1.2,3.5,1.8,4.2,1.9c0.7,0.1,1.4,0,2-0.3l0.4,0.7l-11.5,6.6l-0.4-0.7c0.9-0.6,1.4-1.1,1.5-1.5
				c0.1-0.4,0.1-0.7-0.1-1.1c-0.1-0.2-0.3-0.4-0.5-0.5c-0.4-0.3-1.2-0.8-2.5-1.5l-6.7-3.7l-0.8,7c-0.2,2.1-0.2,3.4,0.1,3.9
				c0.2,0.4,0.6,0.6,1,0.8c0.5,0.2,1,0.2,1.6,0c0.3-0.1,0.8-0.3,1.6-0.7l0.4,0.7l-9.1,5.2l-0.4-0.7c0.9-0.8,1.6-1.5,1.9-2.3
				c0.4-1,0.8-2.9,1.1-5.6l1-9l-11.7-6.3c-1.9-1-3-1.6-3.2-1.7c-0.6-0.2-1-0.4-1.4-0.4c-0.4,0-0.9,0.1-1.5,0.3l-0.4-0.7l11.7-6.8
				L145,80l-0.6,0.3c-0.7,0.4-1.1,0.8-1.2,1.2c-0.1,0.4-0.1,0.8,0.1,1.1c0.2,0.3,0.3,0.5,0.5,0.7l2.4,1.3l5.8,3.3l0.5-4.8
				c0.3-2.5,0.2-4.1-0.2-4.8c-0.2-0.3-0.5-0.6-0.8-0.8c-0.4-0.2-0.7-0.3-1.2-0.2c-0.4,0-1,0.2-1.7,0.7l-0.4-0.7l8.7-5l0.4,0.7
				c-0.7,0.4-1.2,0.8-1.5,1.2c-0.3,0.4-0.6,1-0.8,1.7c-0.1,0.5-0.3,1.9-0.6,4.2L153.4,88.7z"/>
			<path d="M185.6,89.6l0.4,0.7l-12.3,7.1l-0.4-0.7l0.8-0.5c0.7-0.4,1.2-0.8,1.4-1.4c0.2-0.4,0.2-0.8,0.2-1.3
				c-0.1-0.4-0.5-1.2-1.2-2.5l-9.9-17.2c-0.8-1.3-1.3-2.1-1.6-2.4c-0.3-0.3-0.7-0.4-1.3-0.4c-0.5,0-1.1,0.1-1.8,0.5L159,72l-0.4-0.7
				l12.3-7.1l0.4,0.7l-0.8,0.5c-0.7,0.4-1.2,0.8-1.4,1.4c-0.2,0.4-0.3,0.8-0.2,1.3c0.1,0.4,0.5,1.2,1.2,2.5l9.9,17.2
				c0.8,1.3,1.3,2.1,1.6,2.4c0.3,0.3,0.8,0.4,1.3,0.4c0.5,0,1.1-0.1,1.8-0.5L185.6,89.6z"/>
		</g>
	</g>
</g>
</svg>
