<?xml version="1.0" encoding="utf-8"?>
<!-- Generator: Adobe Illustrator 19.2.0, SVG Export Plug-In . SVG Version: 6.00 Build 0)  -->
<svg version="1.1" id="icon" xmlns="http://www.w3.org/2000/svg" xmlns:xlink="http://www.w3.org/1999/xlink" x="0px" y="0px"
	 viewBox="0 0 512 512" style="enable-background:new 0 0 512 512;" xml:space="preserve">
<g>
	<path d="M256,12.7c32.9,0,64.7,6.4,94.7,19.1c29,12.3,55,29.8,77.3,52.2c22.3,22.3,39.9,48.4,52.2,77.3
		c12.7,30,19.1,61.9,19.1,94.7s-6.4,64.7-19.1,94.7c-12.3,29-29.8,55-52.2,77.3c-22.3,22.3-48.4,39.9-77.3,52.2
		c-30,12.7-61.9,19.1-94.7,19.1s-64.7-6.4-94.7-19.1c-29-12.3-55-29.8-77.3-52.2S44,379.7,31.8,350.7c-12.7-30-19.1-61.9-19.1-94.7
		s6.4-64.7,19.1-94.7c12.3-29,29.8-55,52.2-77.3c22.3-22.3,48.4-39.9,77.3-52.2C191.3,19.1,223.1,12.7,256,12.7 M256,4.7
		C117.2,4.7,4.7,117.2,4.7,256S117.2,507.3,256,507.3S507.3,394.8,507.3,256S394.8,4.7,256,4.7L256,4.7z"/>
	<g>
		<circle cx="256" cy="256" r="10.8"/>
		<g>
			<rect x="251" y="12.7" width="10" height="20"/>
			<rect x="251" y="479.3" width="10" height="20"/>
			<rect x="17.7" y="246" transform="matrix(4.500051e-011 -1 1 4.500051e-011 -233.3289 278.6711)" width="10" height="20"/>
			<rect x="484.3" y="246" transform="matrix(4.509110e-011 -1 1 4.509110e-011 233.3289 745.3289)" width="10" height="20"/>
			<rect x="48.9" y="129.3" transform="matrix(0.5 -0.866 0.866 0.5 -93.7025 116.3736)" width="10" height="20"/>
			<rect x="453.1" y="362.7" transform="matrix(0.5 -0.866 0.866 0.5 -93.7025 583.0314)" width="10" height="20"/>
			<rect x="134.3" y="448.1" transform="matrix(-0.866 -0.5 0.5 -0.866 30.9693 924.4357)" width="10" height="20"/>
			<rect x="367.7" y="43.9" transform="matrix(-0.866 -0.5 0.5 -0.866 668.4357 286.9693)" width="10" height="20"/>
			<rect x="134.3" y="43.9" transform="matrix(0.866 -0.5 0.5 0.866 -8.2982 76.8932)" width="10" height="20"/>
			<rect x="367.7" y="448.1" transform="matrix(0.866 -0.5 0.5 0.866 -179.1068 247.7018)" width="10" height="20"/>
			<rect x="48.9" y="362.7" transform="matrix(-0.5 -0.866 0.866 -0.5 -241.8401 605.7025)" width="10" height="20"/>
			<rect x="453.1" y="129.3" transform="matrix(-0.5 -0.866 0.866 -0.5 566.4351 605.7025)" width="10" height="20"/>
		</g>
		<g>
			<g>
				<rect x="351.5" y="33.3" transform="matrix(0.9135 0.4067 -0.4067 0.9135 46.0804 -140.2439)" width="2.9" height="10"/>
				<rect x="157.6" y="468.6" transform="matrix(0.9135 0.4067 -0.4067 0.9135 206.4031 -23.7626)" width="2.9" height="10.2"/>
			</g>
			<g>
				<rect x="328.2" y="24.3" transform="matrix(0.9511 0.309 -0.309 0.9511 25.1987 -100.4313)" width="2.9" height="10"/>
				<rect x="180.9" y="477.5" transform="matrix(0.9511 0.309 -0.309 0.9511 158.0518 -32.7392)" width="2.9" height="10.2"/>
			</g>
			<g>
				<rect x="304.1" y="17.9" transform="matrix(0.9781 0.2079 -0.2079 0.9781 11.4334 -63.0279)" width="2.9" height="10"/>
				<rect x="205" y="483.9" transform="matrix(0.9781 0.2079 -0.2079 0.9781 106.1878 -32.2403)" width="2.9" height="10.2"/>
			</g>
			<g>
				<rect x="279.5" y="14" transform="matrix(0.9945 0.1045 -0.1045 0.9945 3.5222 -29.2594)" width="2.9" height="10"/>
				<rect x="229.6" y="487.8" transform="matrix(0.9945 0.1045 -0.1045 0.9945 52.7918 -21.4559)" width="2.9" height="10.2"/>
			</g>
		</g>
		<g>
			<g>
				<rect x="447.4" y="110.9" transform="matrix(0.5878 0.809 -0.809 0.5878 278.7829 -315.3173)" width="2.9" height="10"/>
				<rect x="61.8" y="390.9" transform="matrix(0.5878 0.809 -0.809 0.5878 346.4749 112.0735)" width="2.9" height="10.2"/>
			</g>
			<g>
				<rect x="431.7" y="91.5" transform="matrix(0.6691 0.7431 -0.7431 0.6691 215.0367 -289.9295)" width="2.9" height="10"/>
				<rect x="77.5" y="410.3" transform="matrix(0.6691 0.7431 -0.7431 0.6691 334.8359 78.7746)" width="2.9" height="10.2"/>
			</g>
			<g>
				<rect x="414" y="73.9" transform="matrix(0.7431 0.6691 -0.6691 0.7431 159.5015 -257.7447)" width="2.9" height="10"/>
				<rect x="95.1" y="428" transform="matrix(0.7431 0.6691 -0.6691 0.7431 314.5738 46.6019)" width="2.9" height="10.2"/>
			</g>
			<g>
				<rect x="394.6" y="58.2" transform="matrix(0.809 0.5878 -0.5878 0.809 112.7858 -220.7469)" width="2.9" height="10"/>
				<rect x="114.5" y="443.6" transform="matrix(0.809 0.5878 -0.5878 0.809 285.9107 17.539)" width="2.9" height="10.2"/>
			</g>
		</g>
		<g>
			<g>
				<rect x="491.6" y="226.1" transform="matrix(0.1045 0.9945 -0.9945 0.1045 671.312 -283.3923)" width="2.9" height="10"/>
				<rect x="17.6" y="275.8" transform="matrix(0.1045 0.9945 -0.9945 0.1045 296.4357 232.5807)" width="2.9" height="10.2"/>
			</g>
			<g>
				<rect x="487.7" y="201.4" transform="matrix(0.2079 0.9781 -0.9781 0.2079 589.3654 -314.9093)" width="2.9" height="10"/>
				<rect x="21.5" y="300.4" transform="matrix(0.2079 0.9781 -0.9781 0.2079 317.047 219.5456)" width="2.9" height="10.2"/>
			</g>
			<g>
				<rect x="481.2" y="177.3" transform="matrix(0.309 0.9511 -0.9511 0.309 506.941 -333.0411)" width="2.9" height="10"/>
				<rect x="28" y="324.5" transform="matrix(0.309 0.9511 -0.9511 0.309 333.8161 199.7825)" width="2.9" height="10.2"/>
			</g>
			<g>
				<rect x="472.3" y="154.1" transform="matrix(0.4067 0.9135 -0.9135 0.4067 426.3548 -338.4049)" width="2.9" height="10"/>
				<rect x="36.9" y="347.8" transform="matrix(0.4067 0.9135 -0.9135 0.4067 345.1467 174.3232)" width="2.9" height="10.2"/>
			</g>
		</g>
		<g>
			<g>
				<rect x="472.3" y="347.9" transform="matrix(-0.4067 0.9135 -0.9135 -0.4067 988.8331 63.7203)" width="2.9" height="10"/>
				<rect x="36.9" y="154" transform="matrix(-0.4067 0.9135 -0.9135 -0.4067 199.301 188.7699)" width="2.9" height="10.2"/>
			</g>
			<g>
				<rect x="481.2" y="324.6" transform="matrix(-0.309 0.9511 -0.9511 -0.309 945.3327 -27.5277)" width="2.9" height="10"/>
				<rect x="28" y="177.3" transform="matrix(-0.309 0.9511 -0.9511 -0.309 211.964 210.7583)" width="2.9" height="10.2"/>
			</g>
			<g>
				<rect x="487.7" y="300.5" transform="matrix(-0.2079 0.9781 -0.9781 -0.2079 889.6922 -109.3549)" width="2.9" height="10"/>
				<rect x="21.5" y="201.4" transform="matrix(-0.2079 0.9781 -0.9781 -0.2079 229.6953 226.9303)" width="2.9" height="10.2"/>
			</g>
			<g>
				<rect x="491.6" y="275.9" transform="matrix(-0.1045 0.9945 -0.9945 -0.1045 823.9343 -180.049)" width="2.9" height="10"/>
				<rect x="17.6" y="226" transform="matrix(-0.1045 0.9945 -0.9945 -0.1045 250.8882 236.2934)" width="2.9" height="10.2"/>
			</g>
		</g>
		<g>
			<g>
				<rect x="394.6" y="443.8" transform="matrix(-0.809 0.5878 -0.5878 -0.809 980.3353 579.0977)" width="2.9" height="10"/>
				<rect x="114.5" y="58.2" transform="matrix(-0.809 0.5878 -0.5878 -0.809 246.9665 46.2741)" width="2.9" height="10.2"/>
			</g>
			<g>
				<rect x="414" y="428.1" transform="matrix(-0.7431 0.6691 -0.6691 -0.7431 1014.0427 476.9746)" width="2.9" height="10"/>
				<rect x="95.1" y="73.9" transform="matrix(-0.7431 0.6691 -0.6691 -0.7431 221.1927 72.9973)" width="2.9" height="10.2"/>
			</g>
			<g>
				<rect x="431.7" y="410.5" transform="matrix(-0.6691 0.7431 -0.7431 -0.6691 1031.6826 371.6147)" width="2.9" height="10"/>
				<rect x="77.5" y="91.5" transform="matrix(-0.6691 0.7431 -0.7431 -0.6691 203.5594 102.5411)" width="2.9" height="10.2"/>
			</g>
			<g>
				<rect x="447.4" y="391.1" transform="matrix(-0.5878 0.809 -0.809 -0.5878 1033.0616 265.8038)" width="2.9" height="10"/>
				<rect x="61.8" y="110.9" transform="matrix(-0.5878 0.809 -0.809 -0.5878 194.2601 132.9507)" width="2.9" height="10.2"/>
			</g>
		</g>
		<g>
			<g>
				<rect x="279.5" y="488" transform="matrix(-0.9945 0.1045 -0.1045 -0.9945 611.8211 953.9869)" width="2.9" height="10"/>
				<rect x="229.6" y="14" transform="matrix(-0.9945 0.1045 -0.1045 -0.9945 462.9209 13.868)" width="2.9" height="10.2"/>
			</g>
			<g>
				<rect x="304.1" y="484.1" transform="matrix(-0.9781 0.2079 -0.2079 -0.9781 706.121 904.0297)" width="2.9" height="10"/>
				<rect x="205" y="17.9" transform="matrix(-0.9781 0.2079 -0.2079 -0.9781 413.1969 2.502)" width="2.9" height="10.2"/>
			</g>
			<g>
				<rect x="328.2" y="477.7" transform="matrix(-0.9511 0.309 -0.309 -0.9511 792.3147 839.8425)" width="2.9" height="10"/>
				<rect x="180.9" y="24.3" transform="matrix(-0.9511 0.309 -0.309 -0.9511 364.924 1.0409)" width="2.9" height="10.2"/>
			</g>
			<g>
				<rect x="351.5" y="468.7" transform="matrix(-0.9135 0.4067 -0.4067 -0.9135 868.0447 762.944)" width="2.9" height="10"/>
				<rect x="157.6" y="33.3" transform="matrix(-0.9135 0.4067 -0.4067 -0.9135 320.0435 8.6851)" width="2.9" height="10.2"/>
			</g>
		</g>
	</g>
</g>
</svg>
