<svg version="1.1" id="icon" xmlns="http://www.w3.org/2000/svg" x="0" y="0" viewBox="0 0 512 512" xml:space="preserve"><style type="text/css">.st0{fill:#363636}</style><circle class="st0" cx="256" cy="256" r="11"/><path class="st0" d="M256 8.1c33.5 0 65.9 6.6 96.5 19.5 29.5 12.5 56 30.4 78.8 53.1 22.8 22.8 40.6 49.3 53.1 78.8 12.9 30.6 19.5 63 19.5 96.5s-6.6 65.9-19.5 96.5c-12.5 29.5-30.4 56-53.1 78.8-22.8 22.8-49.3 40.6-78.8 53.1-30.6 12.9-63 19.5-96.5 19.5s-65.9-6.6-96.5-19.5c-29.5-12.5-56-30.4-78.8-53.1C58 408.5 40.1 382 27.6 352.5c-12.9-30.6-19.5-63-19.5-96.5s6.6-65.9 19.5-96.5c12.5-29.5 30.4-56 53.1-78.8C103.5 58 130 40.1 159.5 27.6c30.6-12.9 63-19.5 96.5-19.5m0-8.1C114.6 0 0 114.6 0 256s114.6 256 256 256 256-114.6 256-256S397.4 0 256 0z"/><path class="st0" d="M250.9 8.1h10.2v20.4h-10.2zM250.9 483.5h10.2v20.4h-10.2z"/><path transform="rotate(-90 18.339 256)" class="st0" d="M13.2 245.8h10.2v20.4H13.2z"/><path transform="rotate(-90 493.661 256)" class="st0" d="M488.6 245.8h10.2v20.4h-10.2z"/><path transform="rotate(-60 50.179 137.173)" class="st0" d="M45.1 127h10.2v20.4H45.1z"/><path transform="rotate(-60 461.826 374.845)" class="st0" d="M456.7 364.6h10.2V385h-10.2z"/><path transform="rotate(-150 137.173 461.826)" class="st0" d="M132.1 451.6h10.2V472h-10.2z"/><path transform="rotate(-150 374.836 50.179)" class="st0" d="M369.7 40h10.2v20.4h-10.2z"/><path transform="rotate(-30 137.165 50.185)" class="st0" d="M132.1 40h10.2v20.4h-10.2z"/><path transform="rotate(-30 374.804 461.833)" class="st0" d="M369.7 451.6h10.2V472h-10.2z"/><path transform="rotate(-120 50.175 374.834)" class="st0" d="M45.1 364.6h10.2V385H45.1z"/><path transform="rotate(-120 461.822 137.176)" class="st0" d="M456.7 127h10.2v20.4h-10.2z"/><g><path transform="rotate(23.999 354.77 34.237)" class="st0" d="M353.3 29.1h3v10.2h-3z"/><path transform="rotate(23.999 157.31 477.73)" class="st0" d="M155.8 472.5h3v10.4h-3z"/><path transform="rotate(17.998 331.034 25.131)" class="st0" d="M329.5 20h3v10.2h-3z"/><path transform="rotate(17.998 181.016 486.818)" class="st0" d="M179.5 481.6h3V492h-3z"/><g><path transform="rotate(12 306.49 18.55)" class="st0" d="M305 13.5h3v10.2h-3z"/><path transform="rotate(12 205.558 493.39)" class="st0" d="M204.1 488.2h3v10.4h-3z"/></g><g><path transform="rotate(6.012 281.452 14.514)" class="st0" d="M279.9 9.5h3v10.2h-3z"/><path transform="rotate(6.012 230.805 497.413)" class="st0" d="M229.2 492.1h3v10.4h-3z"/></g></g><g><path transform="rotate(53.999 452.404 113.317)" class="st0" d="M450.9 108.2h3v10.2h-3z"/><path transform="rotate(53.999 59.68 398.644)" class="st0" d="M58.2 393.4h3v10.4h-3z"/><path transform="rotate(48 436.43 93.572)" class="st0" d="M434.9 88.5h3v10.2h-3z"/><path transform="rotate(48 75.668 418.4)" class="st0" d="M74.2 413.2h3v10.4h-3z"/><g><path transform="rotate(42 418.455 75.599)" class="st0" d="M417 70.5h3v10.2h-3z"/><path transform="rotate(42 93.632 436.354)" class="st0" d="M92.1 431.1h3v10.4h-3z"/></g><g><path transform="rotate(36.002 398.677 59.597)" class="st0" d="M397.2 54.5h3v10.2h-3z"/><path transform="rotate(36.002 113.37 452.303)" class="st0" d="M111.9 447.1h3v10.4h-3z"/></g></g><g><path transform="rotate(84.002 497.432 230.611)" class="st0" d="M495.9 225.5h3v10.2h-3z"/><path transform="rotate(84.002 14.673 281.364)" class="st0" d="M13.2 276.2h3v10.4h-3z"/><path transform="rotate(78 493.475 205.538)" class="st0" d="M492 200.4h3v10.2h-3z"/><path transform="rotate(78 18.64 306.467)" class="st0" d="M17.2 301.3h3v10.4h-3z"/><g><path transform="rotate(72.002 486.85 180.967)" class="st0" d="M485.4 175.9h3v10.2h-3z"/><path transform="rotate(72.002 25.216 330.968)" class="st0" d="M23.7 325.8h3v10.4h-3z"/></g><g><path transform="rotate(66.001 477.792 157.266)" class="st0" d="M476.3 152.2h3v10.2h-3z"/><path transform="rotate(66.001 34.32 354.716)" class="st0" d="M32.8 349.5h3v10.4h-3z"/></g></g><g><path transform="scale(-1) rotate(-66.001 -546.278 735.729)" class="st0" d="M476.3 349.6h3v10.2h-3z"/><path transform="scale(-1) rotate(-66.001 -242.231 52.841)" class="st0" d="M32.8 152.1h3v10.4h-3z"/><path transform="scale(-1) rotate(-72.002 -455.588 670.081)" class="st0" d="M485.4 325.9h3v10.2h-3z"/><path transform="scale(-1) rotate(-72.002 -249.129 34.696)" class="st0" d="M23.7 175.8h3v10.4h-3z"/><g><path transform="scale(-1) rotate(-78 -378.48 609.391)" class="st0" d="M492 301.4h3v10.2h-3z"/><path transform="scale(-1) rotate(-78 -253.842 23.017)" class="st0" d="M17.2 200.4h3v10.4h-3z"/></g><g><path transform="rotate(95.998 497.438 281.383)" class="st0" d="M495.9 276.3h3v10.2h-3z"/><path transform="rotate(95.998 14.665 230.64)" class="st0" d="M13.2 225.4h3v10.4h-3z"/></g></g><g><path transform="rotate(143.998 398.686 452.4)" class="st0" d="M397.2 447.3h3v10.2h-3z"/><path transform="rotate(143.998 113.366 59.682)" class="st0" d="M111.9 54.5h3v10.4h-3z"/><path transform="scale(-1) rotate(-42 -1136.923 1090.106)" class="st0" d="M417 431.3h3v10.2h-3z"/><path transform="scale(-1) rotate(-42 -197.124 243.914)" class="st0" d="M92.1 70.5h3v10.4h-3z"/><g><path transform="scale(-1) rotate(-48 -939.877 980.242)" class="st0" d="M434.9 413.3h3v10.2h-3z"/><path transform="scale(-1) rotate(-48 -210.3 169.958)" class="st0" d="M74.2 88.4h3v10.4h-3z"/></g><g><path transform="rotate(126.001 452.398 398.682)" class="st0" d="M450.9 393.6h3v10.2h-3z"/><path transform="rotate(126.001 59.682 113.364)" class="st0" d="M58.2 108.2h3v10.4h-3z"/></g></g><g><path transform="rotate(173.988 281.385 497.428)" class="st0" d="M279.9 492.3h3v10.2h-3z"/><path transform="rotate(173.988 230.638 14.662)" class="st0" d="M229.2 9.5h3v10.4h-3z"/><path transform="scale(-1) rotate(-12 -4695.14 2916.053)" class="st0" d="M305 488.4h3v10.2h-3z"/><path transform="scale(-1) rotate(-12 -177.342 1955.762)" class="st0" d="M204.1 13.5h3v10.4h-3z"/><g><path transform="scale(-1) rotate(-17.998 -3074.153 2090.117)" class="st0" d="M329.5 481.8h3V492h-3z"/><path transform="scale(-1) rotate(-17.998 -159.178 1142.936)" class="st0" d="M179.5 20h3v10.4h-3z"/></g><g><path transform="scale(-1) rotate(-23.999 -2247.92 1669.08)" class="st0" d="M353.3 472.7h3v10.2h-3z"/><path transform="scale(-1) rotate(-23.999 -161.45 740.105)" class="st0" d="M155.8 29.1h3v10.4h-3z"/></g></g><g><path class="st0" d="M460.3 248.3c0 1.7-.5 3.2-1.6 4.5s-2.5 2.1-4.5 2.5v.1c2.3.3 4 1 5.1 2.1 1.2 1.1 1.7 2.6 1.7 4.4 0 2.7-1 4.8-2.9 6.3s-4.7 2.2-8.4 2.2c-3 0-5.7-.5-8.1-1.5v-5c1.1.5 2.3 1 3.6 1.3 1.3.3 2.6.5 3.9.5 2 0 3.4-.3 4.3-1s1.4-1.7 1.4-3.2c0-1.3-.5-2.2-1.6-2.8s-2.8-.8-5.1-.8H446v-4.5h2.2c2.2 0 3.8-.3 4.8-.9 1-.6 1.5-1.5 1.5-2.9 0-2.1-1.3-3.2-4-3.2-.9 0-1.9.2-2.8.5-1 .3-2 .8-3.2 1.6l-2.7-4.1c2.6-1.8 5.6-2.8 9.1-2.8 2.9 0 5.2.6 6.9 1.8 1.7 1.2 2.5 2.8 2.5 4.9zM358.2 106.5h-5.9V90.3l.1-2.7.1-2.9c-1 1-1.7 1.6-2 1.9l-3.2 2.6-2.9-3.6 9-7.2h4.9v28.1zM155.9 435.1l10.5-23h-13.8v-5h20.1v3.7L162.1 435h-6.2zM433.3 173.8h-19.5v-4.1l7-7.1c2.1-2.1 3.4-3.6 4.1-4.4s1.1-1.6 1.4-2.3c.3-.7.4-1.4.4-2.2 0-1.1-.3-2-.9-2.5-.6-.5-1.4-.8-2.5-.8s-2.1.2-3.2.7c-1 .5-2.1 1.2-3.2 2.1l-3.2-3.8c1.4-1.2 2.5-2 3.4-2.5.9-.5 1.9-.9 3-1.1s2.3-.4 3.6-.4c1.7 0 3.3.3 4.6 1 1.3.6 2.4 1.5 3.1 2.7.7 1.1 1.1 2.5 1.1 3.9 0 1.3-.2 2.5-.7 3.6s-1.2 2.3-2.1 3.5c-1 1.2-2.6 2.9-5 5.1l-3.6 3.4v.3h12.2v4.9zM89.8 334.9c2.7 0 4.8.6 6.5 1.8 1.6 1.2 2.5 2.9 2.5 4.9 0 1.4-.4 2.7-1.2 3.8-.8 1.1-2.1 2.1-3.8 3 2.1 1.1 3.6 2.3 4.5 3.5.9 1.2 1.4 2.6 1.4 4 0 2.3-.9 4.1-2.7 5.5-1.8 1.4-4.2 2.1-7.1 2.1-3.1 0-5.5-.7-7.2-2-1.7-1.3-2.6-3.1-2.6-5.5 0-1.6.4-3 1.3-4.2s2.2-2.3 4.1-3.3c-1.6-1-2.7-2.1-3.4-3.2-.7-1.1-1.1-2.4-1.1-3.8 0-2 .8-3.6 2.5-4.9 1.5-1.1 3.7-1.7 6.3-1.7zm-4.3 20.9c0 1.1.4 2 1.1 2.6.8.6 1.8.9 3.1.9 1.5 0 2.6-.3 3.3-.9.7-.6 1.1-1.5 1.1-2.5 0-.9-.4-1.7-1.1-2.4s-1.9-1.5-3.5-2.4c-2.7 1.2-4 2.8-4 4.7zm4.3-16.6c-1 0-1.8.3-2.4.8s-.9 1.2-.9 2.1c0 .8.2 1.5.7 2.1.5.6 1.4 1.2 2.7 1.9 1.2-.6 2.1-1.2 2.6-1.8.5-.6.7-1.3.7-2.1 0-.9-.3-1.6-1-2.1-.6-.6-1.4-.9-2.4-.9zM70.6 253.9c0 5.5-1.2 9.6-3.5 12.3-2.3 2.7-5.8 4.1-10.5 4.1-1.7 0-2.9-.1-3.8-.3v-4.7c1.1.3 2.2.4 3.4.4 2 0 3.6-.3 4.9-.9s2.3-1.5 2.9-2.7c.7-1.2 1.1-3 1.2-5.1H65c-.7 1.2-1.6 2-2.6 2.5s-2.2.7-3.6.7c-2.4 0-4.4-.8-5.8-2.3-1.4-1.6-2.1-3.7-2.1-6.5 0-3 .9-5.4 2.6-7.1 1.7-1.7 4-2.6 7-2.6 2.1 0 3.9.5 5.4 1.5s2.7 2.4 3.6 4.2c.7 1.8 1.1 4 1.1 6.5zm-10.1-7.5c-1.2 0-2.2.4-2.9 1.3-.7.8-1 2.1-1 3.6 0 1.4.3 2.4.9 3.2.6.8 1.6 1.2 2.9 1.2 1.2 0 2.2-.4 3.1-1.2.9-.8 1.3-1.7 1.3-2.7 0-1.5-.4-2.8-1.2-3.8-.9-1.1-1.9-1.6-3.1-1.6zM434 357.8h-3.4v5.8h-5.8v-5.8h-11.9v-4.1l12.3-18.1h5.5v17.6h3.4v4.6zm-9.1-4.6v-4.7c0-.8 0-1.9.1-3.4s.1-2.4.2-2.6h-.2c-.5 1-1 2.1-1.7 3.1l-5.1 7.7h6.7zM93 173.4h-5.9v-16.2l.1-2.7.1-2.9c-1 1-1.7 1.6-2 1.9l-3.2 2.6-2.9-3.6 9-7.2H93v28.1zM120.1 159.4c0 4.9-.8 8.5-2.4 10.8s-4.1 3.5-7.4 3.5c-3.2 0-5.7-1.2-7.3-3.6-1.6-2.4-2.5-6-2.5-10.7 0-4.9.8-8.6 2.4-10.9 1.6-2.3 4-3.5 7.4-3.5 3.2 0 5.7 1.2 7.3 3.7s2.5 6 2.5 10.7zm-13.7 0c0 3.4.3 5.9.9 7.4.6 1.5 1.6 2.2 3 2.2s2.4-.8 3-2.3c.6-1.5.9-4 .9-7.3 0-3.4-.3-5.9-.9-7.4-.6-1.5-1.6-2.2-3-2.2s-2.4.7-3 2.2c-.6 1.5-.9 4-.9 7.4zM351.7 416.8c2.7 0 4.9.8 6.5 2.3s2.4 3.6 2.4 6.2c0 3.1-1 5.5-2.9 7.2-1.9 1.7-4.7 2.5-8.3 2.5-3.1 0-5.6-.5-7.5-1.5v-5.1c1 .5 2.2 1 3.5 1.3 1.3.3 2.6.5 3.8.5 3.6 0 5.4-1.5 5.4-4.4 0-2.8-1.9-4.2-5.6-4.2-.7 0-1.4.1-2.2.2-.8.1-1.5.3-2 .4l-2.4-1.3 1.1-14.3h15.2v5h-10l-.5 5.5.7-.1c.7-.1 1.7-.2 2.8-.2zM157.7 106.5h-5.9V90.3l.1-2.7.1-2.9c-1 1-1.7 1.6-2 1.9l-3.2 2.6-2.9-3.6 9-7.2h4.9v28.1zM180 106.5h-5.9V90.3l.1-2.7.1-2.9c-1 1-1.7 1.6-2 1.9l-3.2 2.6-2.9-3.6 9-7.2h4.9v28.1z"/><g><path class="st0" d="M246.1 448.9c0-5.5 1.2-9.7 3.5-12.4 2.3-2.7 5.8-4.1 10.5-4.1 1.6 0 2.8.1 3.7.3v4.7c-1.1-.3-2.3-.4-3.4-.4-2 0-3.7.3-5 .9-1.3.6-2.2 1.5-2.9 2.7s-1 2.9-1.1 5.1h.2c1.3-2.2 3.3-3.3 6.1-3.3 2.5 0 4.5.8 5.9 2.4 1.4 1.6 2.1 3.7 2.1 6.5 0 3-.8 5.3-2.5 7.1-1.7 1.7-4 2.6-7 2.6-2.1 0-3.9-.5-5.4-1.4s-2.7-2.4-3.6-4.2c-.7-1.7-1.1-3.9-1.1-6.5zm10.1 7.5c1.3 0 2.2-.4 2.9-1.3s1-2.1 1-3.6c0-1.4-.3-2.4-.9-3.2-.6-.8-1.6-1.2-2.9-1.2-1.2 0-2.2.4-3.1 1.2-.8.8-1.3 1.7-1.3 2.7 0 1.5.4 2.8 1.2 3.8.9 1.1 1.9 1.6 3.1 1.6z"/></g><g><path class="st0" d="M249.3 79.2h-5.9V63.1l.1-2.7.1-2.9c-1 1-1.7 1.6-2 1.9l-3.2 2.6-2.9-3.6 9-7.2h4.9v28zM276.6 79.2H257v-4.1l7-7.1c2.1-2.1 3.4-3.6 4.1-4.4.6-.8 1.1-1.6 1.4-2.3.3-.7.4-1.4.4-2.2 0-1.1-.3-2-.9-2.5-.6-.5-1.4-.8-2.5-.8s-2.1.2-3.2.7c-1 .5-2.1 1.2-3.2 2.1l-3.2-3.8c1.4-1.2 2.5-2 3.4-2.5.9-.5 1.9-.9 3-1.1 1.1-.3 2.3-.4 3.6-.4 1.7 0 3.3.3 4.6 1 1.3.6 2.4 1.5 3.1 2.7.7 1.1 1.1 2.5 1.1 3.9 0 1.3-.2 2.5-.7 3.6-.5 1.1-1.2 2.3-2.1 3.5-1 1.2-2.6 2.9-5 5.1l-3.6 3.4v.3h12.2v4.9z"/></g></g></svg>