<svg version="1.1" id="icon" xmlns="http://www.w3.org/2000/svg" x="0" y="0" viewBox="0 0 512 512" xml:space="preserve"><style type="text/css">.st0{fill:#363636}</style><circle class="st0" cx="256" cy="256" r="11.3"/><path class="st0" d="M250.7 0h10.5v21.1h-10.5zM250.7 490.9h10.5V512h-10.5z"/><path transform="rotate(-90 10.525 256)" class="st0" d="M5.3 245.5h10.5v21.1H5.3z"/><path transform="rotate(-90 501.475 256)" class="st0" d="M496.2 245.5h10.5v21.1h-10.5z"/><path transform="rotate(-60 43.412 133.266)" class="st0" d="M38.1 122.7h10.5v21.1H38.1z"/><path transform="rotate(-60 468.593 378.752)" class="st0" d="M463.3 368.2h10.5v21.1h-10.5z"/><path transform="rotate(-150 133.266 468.593)" class="st0" d="M128 458.1h10.5v21.1H128z"/><path transform="rotate(-150 378.742 43.412)" class="st0" d="M373.5 32.9H384V54h-10.5z"/><path transform="rotate(-30 133.259 43.418)" class="st0" d="M128 32.9h10.5V54H128z"/><path transform="rotate(-30 378.71 468.6)" class="st0" d="M373.5 458.1H384v21.1h-10.5z"/><path transform="rotate(-120 43.408 378.74)" class="st0" d="M38.2 368.2h10.5v21.1H38.2z"/><path transform="rotate(-120 468.59 133.27)" class="st0" d="M463.3 122.7h10.5v21.1h-10.5z"/><g><path transform="rotate(23.999 358.017 26.945)" class="st0" d="M356.5 21.7h3.1v10.5h-3.1z"/><path transform="rotate(23.999 154.065 485.019)" class="st0" d="M152.5 479.6h3.1v10.7h-3.1z"/><path transform="rotate(17.998 333.5 17.54)" class="st0" d="M332 12.3h3.1v10.5H332z"/><path transform="rotate(17.998 178.55 494.406)" class="st0" d="M177 489h3.1v10.7H177z"/><g><path transform="rotate(12 308.149 10.743)" class="st0" d="M306.6 5.5h3.1V16h-3.1z"/><path transform="rotate(12 203.9 501.194)" class="st0" d="M202.4 495.8h3.1v10.7h-3.1z"/></g><g><path transform="rotate(6.012 282.284 6.575)" class="st0" d="M280.7 1.4h3.1v10.5h-3.1z"/><path transform="rotate(6.012 229.973 505.35)" class="st0" d="M228.3 499.9h3.1v10.7h-3.1z"/></g></g><g><path transform="rotate(53.999 458.861 108.626)" class="st0" d="M457.3 103.4h3.1v10.5h-3.1z"/><path transform="rotate(53.999 53.225 403.334)" class="st0" d="M51.7 398h3.1v10.7h-3.1z"/><path transform="rotate(48 442.361 88.231)" class="st0" d="M440.8 83h3.1v10.5h-3.1z"/><path transform="rotate(48 69.74 423.739)" class="st0" d="M68.2 418.4h3.1v10.7h-3.1z"/><g><path transform="rotate(42 423.795 69.667)" class="st0" d="M422.2 64.4h3.1v10.5h-3.1z"/><path transform="rotate(42 88.293 442.283)" class="st0" d="M86.8 436.9h3.1v10.7h-3.1z"/></g><g><path transform="rotate(36.002 403.368 53.14)" class="st0" d="M401.9 47.9h3.1v10.5h-3.1z"/><path transform="rotate(36.002 108.681 458.758)" class="st0" d="M107.1 453.4h3.1v10.7h-3.1z"/></g></g><g><path transform="rotate(84.002 505.369 229.777)" class="st0" d="M503.8 224.5h3.1V235h-3.1z"/><path transform="rotate(84.002 6.738 282.199)" class="st0" d="M5.2 276.8h3.1v10.7H5.2z"/><path transform="rotate(78 501.282 203.878)" class="st0" d="M499.7 198.6h3.1v10.5h-3.1z"/><path transform="rotate(78 10.836 308.126)" class="st0" d="M9.3 302.8h3.1v10.7H9.3z"/><g><path transform="rotate(72.002 494.44 178.5)" class="st0" d="M492.9 173.3h3.1v10.5h-3.1z"/><path transform="rotate(72.002 17.629 333.434)" class="st0" d="M16.1 328.1h3.1v10.7h-3.1z"/></g><g><path transform="rotate(66.001 485.083 154.02)" class="st0" d="M483.5 148.8h3.1v10.5h-3.1z"/><path transform="rotate(66.001 27.03 357.961)" class="st0" d="M25.5 352.6h3.1v10.7h-3.1z"/></g></g><g><path transform="scale(-1) rotate(-66.001 -551.278 746.956)" class="st0" d="M483.5 352.7h3.1v10.5h-3.1z"/><path transform="scale(-1) rotate(-66.001 -237.234 41.618)" class="st0" d="M25.5 148.7h3.1v10.7h-3.1z"/><path transform="scale(-1) rotate(-72.002 -458.983 680.528)" class="st0" d="M492.9 328.2h3.1v10.5h-3.1z"/><path transform="scale(-1) rotate(-72.002 -245.736 24.254)" class="st0" d="M16.1 173.2h3.1v10.7h-3.1z"/><g><path transform="scale(-1) rotate(-78 -380.53 619.032)" class="st0" d="M499.7 302.9h3.1v10.5h-3.1z"/><path transform="scale(-1) rotate(-78 -251.793 13.38)" class="st0" d="M9.3 198.5h3.1v10.7H9.3z"/></g><g><path transform="rotate(95.998 505.375 282.217)" class="st0" d="M503.8 276.9h3.1v10.5h-3.1z"/><path transform="rotate(95.998 6.73 229.806)" class="st0" d="M5.2 224.4h3.1v10.7H5.2z"/></g></g><g><path transform="rotate(143.998 403.378 458.858)" class="st0" d="M401.9 453.6h3.1v10.5h-3.1z"/><path transform="rotate(143.998 108.676 53.228)" class="st0" d="M107.1 47.9h3.1v10.7h-3.1z"/><path transform="scale(-1) rotate(-42 -1152.375 1104.02)" class="st0" d="M422.2 437.1h3.1v10.5h-3.1z"/><path transform="scale(-1) rotate(-42 -181.679 230.007)" class="st0" d="M86.8 64.4h3.1v10.7h-3.1z"/><g><path transform="scale(-1) rotate(-48 -951.872 993.564)" class="st0" d="M440.8 418.5h3.1V429h-3.1z"/><path transform="scale(-1) rotate(-48 -198.309 156.641)" class="st0" d="M68.2 82.9h3.1v10.7h-3.1z"/></g><g><path transform="rotate(126.001 458.854 403.373)" class="st0" d="M457.3 398.1h3.1v10.5h-3.1z"/><path transform="rotate(126.001 53.227 108.675)" class="st0" d="M51.7 103.3h3.1V114h-3.1z"/></g></g><g><path transform="rotate(173.988 282.22 505.366)" class="st0" d="M280.7 500.1h3.1v10.5h-3.1z"/><path transform="rotate(173.988 229.804 6.728)" class="st0" d="M228.3 1.4h3.1v10.7h-3.1z"/><path transform="scale(-1) rotate(-12 -4769.42 2931.842)" class="st0" d="M306.6 496h3.1v10.5h-3.1z"/><path transform="scale(-1) rotate(-12 -103.09 1939.98)" class="st0" d="M202.4 5.5h3.1v10.7h-3.1z"/><g><path transform="scale(-1) rotate(-17.998 -3122.08 2105.69)" class="st0" d="M332 489.2h3.1v10.5H332z"/><path transform="scale(-1) rotate(-17.998 -111.27 1127.37)" class="st0" d="M177 12.3h3.1V23H177z"/></g><g><path transform="scale(-1) rotate(-23.999 -2282.225 1684.354)" class="st0" d="M356.5 479.8h3.1v10.5h-3.1z"/><path transform="scale(-1) rotate(-23.999 -127.157 724.837)" class="st0" d="M152.5 21.7h3.1v10.7h-3.1z"/></g></g><g><path class="st0" d="M475.3 247.7c0 1.9-.6 3.5-1.7 4.8-1.1 1.3-2.7 2.2-4.8 2.7v.1c2.4.3 4.3 1 5.5 2.2 1.2 1.2 1.9 2.7 1.9 4.7 0 2.9-1 5.1-3.1 6.7-2.1 1.6-5.1 2.4-9 2.4-3.3 0-6.1-.5-8.7-1.6v-5.4c1.2.6 2.4 1.1 3.8 1.4s2.8.6 4.1.6c2.1 0 3.6-.4 4.6-1.1 1-.7 1.5-1.9 1.5-3.4 0-1.4-.6-2.4-1.7-3s-3-.9-5.5-.9h-2.3V253h2.3c2.3 0 4-.3 5.1-.9 1.1-.6 1.6-1.7 1.6-3.1 0-2.3-1.4-3.4-4.3-3.4-1 0-2 .2-3 .5s-2.2.9-3.4 1.7l-2.9-4.4c2.7-2 6-3 9.8-3 3.1 0 5.6.6 7.4 1.9s2.8 3.2 2.8 5.4zM365.7 95.5h-6.3V78.1l.1-2.9.1-3.1c-1.1 1.1-1.8 1.7-2.2 2.1L354 77l-3.1-3.8 9.7-7.7h5.2v30zM148.5 448.2l11.3-24.6H145v-5.3h21.5v4l-11.4 26h-6.6zM446.3 167.8h-21v-4.4l7.5-7.6c2.2-2.3 3.7-3.9 4.4-4.8.7-.9 1.2-1.7 1.5-2.5.3-.8.5-1.5.5-2.3 0-1.2-.3-2.1-1-2.7-.7-.6-1.6-.9-2.7-.9-1.2 0-2.3.3-3.4.8s-2.2 1.3-3.4 2.3l-3.4-4.1c1.5-1.3 2.7-2.1 3.7-2.7s2-.9 3.2-1.2 2.4-.4 3.9-.4c1.9 0 3.5.3 5 1s2.6 1.6 3.3 2.9c.8 1.2 1.2 2.6 1.2 4.2 0 1.4-.2 2.7-.7 3.9-.5 1.2-1.2 2.5-2.3 3.7s-2.8 3.1-5.4 5.4l-3.9 3.6v.3h13.1v5.5zM77.6 340.7c2.9 0 5.2.7 7 2s2.6 3.1 2.6 5.3c0 1.5-.4 2.9-1.3 4.1-.8 1.2-2.2 2.3-4.1 3.2 2.2 1.2 3.9 2.5 4.8 3.8s1.5 2.7 1.5 4.3c0 2.5-1 4.4-2.9 5.9s-4.5 2.2-7.6 2.2c-3.3 0-5.9-.7-7.7-2.1-1.9-1.4-2.8-3.4-2.8-5.9 0-1.7.5-3.2 1.4-4.6.9-1.3 2.4-2.5 4.4-3.5-1.7-1.1-2.9-2.2-3.7-3.5-.8-1.2-1.1-2.6-1.1-4 0-2.1.9-3.9 2.7-5.2s4-2 6.8-2zm-4.7 22.5c0 1.2.4 2.1 1.2 2.8s1.9 1 3.4 1c1.6 0 2.8-.3 3.5-1 .8-.7 1.2-1.6 1.2-2.7 0-.9-.4-1.8-1.2-2.6-.8-.8-2-1.7-3.8-2.6-2.8 1.3-4.3 3-4.3 5.1zm4.7-17.8c-1.1 0-2 .3-2.6.8-.7.6-1 1.3-1 2.2 0 .8.3 1.6.8 2.2.5.7 1.5 1.3 2.9 2 1.3-.6 2.3-1.3 2.8-1.9.5-.7.8-1.4.8-2.3 0-.9-.3-1.7-1-2.2-.8-.6-1.7-.8-2.7-.8zM57 253.8c0 5.9-1.2 10.3-3.7 13.2-2.5 2.9-6.3 4.4-11.3 4.4-1.8 0-3.1-.1-4-.3V266c1.1.3 2.4.4 3.6.4 2.1 0 3.9-.3 5.2-.9 1.4-.6 2.4-1.6 3.1-2.9.7-1.3 1.1-3.2 1.3-5.5H51c-.8 1.3-1.7 2.2-2.8 2.7-1 .5-2.3.8-3.9.8-2.6 0-4.7-.8-6.2-2.5s-2.3-4-2.3-7c0-3.2.9-5.8 2.7-7.6 1.8-1.9 4.3-2.8 7.5-2.8 2.2 0 4.2.5 5.8 1.6 1.7 1 2.9 2.5 3.8 4.5.9 1.9 1.4 4.2 1.4 7zm-10.9-8.1c-1.3 0-2.3.5-3.1 1.4-.7.9-1.1 2.2-1.1 3.9 0 1.5.3 2.6 1 3.4.7.8 1.7 1.3 3.1 1.3 1.3 0 2.4-.4 3.3-1.3.9-.8 1.4-1.8 1.4-2.9 0-1.6-.4-3-1.3-4.1-.9-1.1-2-1.7-3.3-1.7zM447.1 365.3h-3.6v6.2h-6.2v-6.2h-12.8v-4.4l13.2-19.4h5.9v18.9h3.6v4.9zm-9.8-4.9v-5.1c0-.8 0-2.1.1-3.7s.1-2.6.2-2.8h-.2c-.5 1.1-1.1 2.2-1.8 3.3l-5.5 8.3h7.2zM81 167.3h-6.3V150l.1-2.9.1-3.1c-1.1 1.1-1.8 1.7-2.2 2.1l-3.4 2.8-3.1-3.8 9.7-7.7H81v29.9zM110.1 152.3c0 5.2-.9 9.1-2.6 11.6s-4.4 3.8-7.9 3.8-6.1-1.3-7.8-3.9c-1.8-2.6-2.6-6.4-2.6-11.5 0-5.3.9-9.2 2.6-11.7s4.3-3.8 7.9-3.8c3.5 0 6.1 1.3 7.9 3.9 1.6 2.7 2.5 6.6 2.5 11.6zm-14.7 0c0 3.7.3 6.3 1 7.9.6 1.6 1.7 2.4 3.2 2.4 1.5 0 2.5-.8 3.2-2.4.7-1.6 1-4.2 1-7.9s-.3-6.3-1-7.9c-.7-1.6-1.7-2.4-3.2-2.4-1.5 0-2.6.8-3.2 2.4-.6 1.6-1 4.2-1 7.9zM358.8 428.6c2.9 0 5.2.8 6.9 2.4 1.7 1.6 2.6 3.9 2.6 6.7 0 3.4-1 5.9-3.1 7.7-2.1 1.8-5 2.7-8.9 2.7-3.3 0-6-.5-8.1-1.6V441c1.1.6 2.3 1 3.8 1.4s2.8.5 4.1.5c3.9 0 5.8-1.6 5.8-4.8 0-3-2-4.5-6-4.5-.7 0-1.5.1-2.4.2-.9.1-1.6.3-2.1.5l-2.5-1.4 1.1-15.3h16.3v5.4h-10.7l-.6 5.9.7-.1c.8-.1 1.9-.2 3.1-.2zM150.5 95.5h-6.3V78.1l.1-2.9.1-3.1c-1.1 1.1-1.8 1.7-2.2 2.1l-3.4 2.8-3.1-3.8 9.7-7.7h5.2v30zM174.5 95.5h-6.3V78.1l.1-2.9.1-3.1c-1.1 1.1-1.8 1.7-2.2 2.1l-3.4 2.8-3.1-3.8 9.7-7.7h5.2v30z"/><g><path class="st0" d="M245.4 463.1c0-5.9 1.3-10.4 3.8-13.3 2.5-2.9 6.3-4.4 11.3-4.4 1.7 0 3.1.1 4 .3v5.1c-1.2-.3-2.4-.4-3.6-.4-2.2 0-4 .3-5.3 1-1.4.7-2.4 1.6-3.1 2.9-.7 1.3-1.1 3.1-1.2 5.5h.3c1.4-2.3 3.5-3.5 6.5-3.5 2.7 0 4.8.8 6.3 2.5s2.3 4 2.3 7c0 3.2-.9 5.7-2.7 7.6s-4.3 2.8-7.5 2.8c-2.2 0-4.2-.5-5.8-1.5s-2.9-2.5-3.8-4.5c-1-2-1.5-4.4-1.5-7.1zm10.8 8c1.4 0 2.4-.5 3.1-1.4.7-.9 1.1-2.2 1.1-3.9 0-1.5-.3-2.6-1-3.5-.7-.8-1.7-1.3-3.1-1.3-1.3 0-2.4.4-3.3 1.3-.9.8-1.4 1.8-1.4 2.9 0 1.6.4 3 1.3 4.1.9 1.3 2 1.8 3.3 1.8z"/></g><g><path class="st0" d="M248.8 66.2h-6.3V48.9l.1-2.9.1-3.1c-1.1 1.1-1.8 1.7-2.2 2.1l-3.4 2.8L234 44l9.7-7.7h5.2v29.9zM278.1 66.2h-21v-4.4l7.5-7.6c2.2-2.3 3.7-3.9 4.4-4.8.7-.9 1.2-1.7 1.5-2.5.3-.8.5-1.5.5-2.3 0-1.2-.3-2.1-1-2.7-.7-.6-1.6-.9-2.7-.9-1.2 0-2.3.3-3.4.8s-2.2 1.3-3.4 2.3l-3.4-4.1c1.5-1.3 2.7-2.1 3.7-2.7s2-.9 3.2-1.2c1.1-.3 2.4-.4 3.9-.4 1.9 0 3.5.3 5 1 1.4.7 2.6 1.6 3.3 2.9.8 1.2 1.2 2.6 1.2 4.2 0 1.4-.2 2.7-.7 3.9-.5 1.2-1.2 2.5-2.3 3.7-1 1.3-2.8 3.1-5.4 5.4l-3.9 3.6v.3h13.1v5.5z"/></g></g></svg>