<svg version="1.1" id="icon" xmlns="http://www.w3.org/2000/svg" x="0" y="0" viewBox="0 0 512 512" xml:space="preserve"><style type="text/css">.st0{fill:#363636}</style><circle class="st0" cx="256" cy="256" r="10.3"/><path class="st0" d="M256 8.1c33.5 0 65.9 6.6 96.5 19.5 29.5 12.5 56 30.4 78.8 53.1 22.8 22.8 40.6 49.3 53.1 78.8 12.9 30.6 19.5 63 19.5 96.5s-6.6 65.9-19.5 96.5c-12.5 29.5-30.4 56-53.1 78.8-22.8 22.8-49.3 40.6-78.8 53.1-30.6 12.9-63 19.5-96.5 19.5s-65.9-6.6-96.5-19.5c-29.5-12.5-56-30.4-78.8-53.1C58 408.5 40.1 382 27.6 352.5c-12.9-30.6-19.5-63-19.5-96.5s6.6-65.9 19.5-96.5c12.5-29.5 30.4-56 53.1-78.8C103.5 58 130 40.1 159.5 27.6c30.6-12.9 63-19.5 96.5-19.5m0-8.1C114.6 0 0 114.6 0 256s114.6 256 256 256 256-114.6 256-256S397.4 0 256 0z"/><path class="st0" d="M251.2 22.3h9.6v19.2h-9.6zM251.2 470.5h9.6v19.2h-9.6z"/><path transform="rotate(-90 31.897 256)" class="st0" d="M27.1 246.4h9.6v19.2h-9.6z"/><path transform="rotate(-90 480.103 256)" class="st0" d="M475.3 246.4h9.6v19.2h-9.6z"/><path transform="rotate(-60 61.92 143.952)" class="st0" d="M57.1 134.3h9.6v19.2h-9.6z"/><path transform="rotate(-60 450.084 368.065)" class="st0" d="M445.3 358.4h9.6v19.2h-9.6z"/><path transform="rotate(-150 143.952 450.084)" class="st0" d="M139.1 440.5h9.6v19.2h-9.6z"/><path transform="rotate(-150 368.057 61.92)" class="st0" d="M363.2 52.3h9.6v19.2h-9.6z"/><path transform="rotate(-30 143.944 61.927)" class="st0" d="M139.1 52.3h9.6v19.2h-9.6z"/><path transform="rotate(-30 368.026 450.09)" class="st0" d="M363.2 440.5h9.6v19.2h-9.6z"/><path transform="rotate(-120 61.917 368.055)" class="st0" d="M57.1 358.4h9.6v19.2h-9.6z"/><path transform="rotate(-120 450.08 143.955)" class="st0" d="M445.3 134.3h9.6v19.2h-9.6z"/><g><path transform="rotate(23.999 349.137 46.89)" class="st0" d="M347.7 42.1h2.8v9.6h-2.8z"/><path transform="rotate(23.999 162.942 465.082)" class="st0" d="M161.5 460.1h2.8v9.8h-2.8z"/><path transform="rotate(17.998 326.755 38.303)" class="st0" d="M325.3 33.5h2.8v9.6h-2.8z"/><path transform="rotate(17.998 185.294 473.652)" class="st0" d="M183.9 468.7h2.8v9.8h-2.8z"/><g><path transform="rotate(12 303.61 32.096)" class="st0" d="M302.2 27.3h2.8v9.6h-2.8z"/><path transform="rotate(12 208.437 479.848)" class="st0" d="M207 474.9h2.8v9.8H207z"/></g><g><path transform="rotate(6.012 280.007 28.292)" class="st0" d="M278.5 23.5h2.8v9.6h-2.8z"/><path transform="rotate(6.012 232.25 483.641)" class="st0" d="M230.7 478.7h2.8v9.8h-2.8z"/></g></g><g><path transform="rotate(53.999 441.2 121.457)" class="st0" d="M439.8 116.6h2.8v9.6h-2.8z"/><path transform="rotate(53.999 70.88 390.507)" class="st0" d="M69.5 385.6h2.8v9.8h-2.8z"/><path transform="rotate(48 426.138 102.839)" class="st0" d="M424.7 98h2.8v9.6h-2.8z"/><path transform="rotate(48 85.957 409.137)" class="st0" d="M84.6 404.2h2.8v9.8h-2.8z"/><g><path transform="rotate(42 409.188 85.89)" class="st0" d="M407.8 81.1h2.8v9.6h-2.8z"/><path transform="rotate(42 102.895 426.066)" class="st0" d="M101.5 421.2h2.8v9.8h-2.8z"/></g><g><path transform="rotate(36.002 390.538 70.8)" class="st0" d="M389.2 66h2.8v9.6h-2.8z"/><path transform="rotate(36.002 121.507 441.104)" class="st0" d="M120.1 436.2h2.8v9.8h-2.8z"/></g></g><g><path transform="rotate(84.002 483.659 232.06)" class="st0" d="M482.3 227.3h2.8v9.6h-2.8z"/><path transform="rotate(84.002 28.44 279.917)" class="st0" d="M27 275h2.8v9.8H27z"/><path transform="rotate(78 479.929 208.417)" class="st0" d="M478.5 203.6h2.8v9.6h-2.8z"/><path transform="rotate(78 32.181 303.59)" class="st0" d="M30.8 298.7h2.8v9.8h-2.8z"/><g><path transform="rotate(72.002 473.68 185.246)" class="st0" d="M472.3 180.5h2.8v9.6h-2.8z"/><path transform="rotate(72.002 38.381 326.69)" class="st0" d="M37 321.8h2.8v9.8H37z"/></g><g><path transform="rotate(66.001 465.14 162.899)" class="st0" d="M463.7 158.1h2.8v9.6h-2.8z"/><path transform="rotate(66.001 46.966 349.085)" class="st0" d="M45.6 344.2h2.8v9.8h-2.8z"/></g></g><g><path transform="scale(-1) rotate(-66.001 -537.604 716.246)" class="st0" d="M463.7 344.3h2.8v9.6h-2.8z"/><path transform="scale(-1) rotate(-66.001 -250.902 72.316)" class="st0" d="M45.6 158h2.8v9.8h-2.8z"/><path transform="scale(-1) rotate(-72.002 -449.698 651.954)" class="st0" d="M472.3 321.9h2.8v9.6h-2.8z"/><path transform="scale(-1) rotate(-72.002 -255.017 52.817)" class="st0" d="M37 180.4h2.8v9.8H37z"/><g><path transform="scale(-1) rotate(-78 -374.924 592.662)" class="st0" d="M478.5 298.8h2.8v9.6h-2.8z"/><path transform="scale(-1) rotate(-78 -257.396 39.74)" class="st0" d="M30.8 203.5h2.8v9.8h-2.8z"/></g><g><path transform="rotate(95.998 483.665 279.935)" class="st0" d="M482.3 275.1h2.8v9.6h-2.8z"/><path transform="rotate(95.998 28.433 232.087)" class="st0" d="M27 227.2h2.8v9.8H27z"/></g></g><g><path transform="rotate(143.998 390.546 441.197)" class="st0" d="M389.2 436.4h2.8v9.6h-2.8z"/><path transform="rotate(143.998 121.502 70.882)" class="st0" d="M120.1 66h2.8v9.8h-2.8z"/><path transform="scale(-1) rotate(-42 -1110.112 1065.965)" class="st0" d="M407.8 421.3h2.8v9.6h-2.8z"/><path transform="scale(-1) rotate(-42 -223.926 268.046)" class="st0" d="M101.5 81.1h2.8v9.8h-2.8z"/><g><path transform="scale(-1) rotate(-48 -919.062 957.125)" class="st0" d="M424.7 404.4h2.8v9.6h-2.8z"/><path transform="scale(-1) rotate(-48 -231.106 193.066)" class="st0" d="M84.6 98h2.8v9.8h-2.8z"/></g><g><path transform="rotate(126.001 441.194 390.542)" class="st0" d="M439.8 385.7h2.8v9.6h-2.8z"/><path transform="rotate(126.001 70.881 121.501)" class="st0" d="M69.5 116.6h2.8v9.8h-2.8z"/></g></g><g><path transform="rotate(173.988 279.937 483.656)" class="st0" d="M278.5 478.8h2.8v9.6h-2.8z"/><path transform="rotate(173.988 232.085 28.43)" class="st0" d="M230.7 23.5h2.8v9.8h-2.8z"/><path transform="scale(-1) rotate(-12 -4566.25 2888.657)" class="st0" d="M302.2 475.1h2.8v9.6h-2.8z"/><path transform="scale(-1) rotate(-12 -306.182 1983.148)" class="st0" d="M207 27.3h2.8v9.8H207z"/><g><path transform="scale(-1) rotate(-17.998 -2990.991 2063.095)" class="st0" d="M325.3 468.9h2.8v9.6h-2.8z"/><path transform="scale(-1) rotate(-17.998 -242.308 1169.948)" class="st0" d="M183.9 33.5h2.8v9.8h-2.8z"/></g><g><path transform="scale(-1) rotate(-23.999 -2188.395 1642.577)" class="st0" d="M347.7 460.3h2.8v9.6h-2.8z"/><path transform="scale(-1) rotate(-23.999 -220.952 766.598)" class="st0" d="M161.5 42.1h2.8v9.8h-2.8z"/></g></g><g><path class="st0" d="M243.8 73.6l7 11.5c1.2 1.9 2 3.1 2.5 3.5.5.4 1.1.7 1.7.7v.7h-12.3v-.8c1-.1 1.6-.2 1.9-.5.3-.2.4-.6.4-.9 0-.2 0-.5-.1-.7-.2-.4-.6-1.2-1.3-2.3l-3.7-6.1L236 84c-1.2 1.6-1.7 2.7-1.7 3.2 0 .4.1.8.4 1.1.3.3.7.6 1.3.7.3.1.8.1 1.6.1v.9h-9.7v-.8c1.1-.2 2-.5 2.6-1 .8-.6 2-2 3.5-4l5-6.8-6.4-10.4c-1.1-1.7-1.7-2.7-1.8-2.9-.3-.5-.7-.8-1-1-.3-.2-.8-.3-1.3-.4v-.8H241v.8h-.6c-.7 0-1.2.1-1.5.4-.3.3-.4.6-.4 1 0 .3 0 .6.1.8l1.3 2.2 3.1 5.3 2.7-3.6c1.4-1.9 2.1-3.2 2.1-3.9 0-.4-.1-.7-.3-1-.2-.3-.5-.6-.8-.7-.4-.2-.9-.3-1.7-.3v-.8h9.3v.8c-.7 0-1.3.1-1.8.3-.4.2-.9.5-1.4 1-.3.3-1.1 1.4-2.4 3.1l-4.9 6.3zM269.2 89.3v.7H256v-.8h.8c.7 0 1.3-.1 1.8-.4.3-.2.6-.5.7-1 .1-.3.2-1.2.2-2.6V66.7c0-1.4-.1-2.3-.2-2.7-.1-.4-.4-.7-.8-.9-.4-.3-1-.4-1.7-.4h-.8v-.8h13.2v.8h-.8c-.7 0-1.3.1-1.8.4-.3.2-.6.5-.8 1-.1.3-.2 1.2-.2 2.6v18.5c0 1.4.1 2.3.2 2.7.1.4.4.7.8.9.4.3 1 .4 1.7.4h.9zM284.1 89.3v.7h-13.2v-.8h.8c.7 0 1.3-.1 1.8-.4.3-.2.6-.5.7-1 .1-.3.2-1.2.2-2.6V66.7c0-1.4-.1-2.3-.2-2.7-.1-.4-.4-.7-.8-.9-.4-.3-1-.4-1.7-.4h-.8v-.8h13.2v.8h-.8c-.7 0-1.3.1-1.8.4-.3.2-.6.5-.8 1-.1.3-.2 1.2-.2 2.6v18.5c0 1.4.1 2.3.2 2.7.1.4.4.7.8.9.4.3 1 .4 1.7.4h.9zM345.1 114.9l-.4.7-11.5-6.6.4-.7.7.4c.6.4 1.2.5 1.8.5.4 0 .8-.2 1.1-.5.3-.2.8-.9 1.5-2.2l9.2-16c.7-1.2 1.1-2.1 1.2-2.4.1-.4 0-.8-.2-1.2-.2-.4-.6-.8-1.3-1.2l-.7-.4.4-.7 11.5 6.6-.4.7-.7-.4c-.6-.4-1.2-.5-1.8-.5-.4 0-.8.2-1.2.5-.3.2-.8.9-1.5 2.2l-9.2 16c-.7 1.2-1.1 2.1-1.2 2.4-.1.4 0 .8.3 1.2.2.4.6.8 1.3 1.2l.7.4zM400 171.9l-.7.4-6.6-11.5.7-.4.4.7c.4.6.8 1.1 1.3 1.3.3.2.7.2 1.2.1.4 0 1.1-.4 2.4-1.1l16-9.2c1.2-.7 2-1.2 2.2-1.5.2-.3.4-.7.4-1.2s-.1-1.1-.5-1.7l-.4-.7.7-.4 6.6 11.5-.7.4-.4-.7c-.4-.6-.8-1.1-1.3-1.3-.3-.2-.7-.2-1.2-.2-.4 0-1.1.4-2.4 1.1l-16 9.2c-1.2.7-2 1.2-2.2 1.5-.2.3-.4.7-.4 1.2s.1 1.1.5 1.7l.4.8zM407.4 184.8l-.7.4-6.6-11.5.7-.4.4.7c.4.6.8 1.1 1.3 1.3.3.2.7.2 1.2.1.4 0 1.1-.4 2.4-1.1l16-9.2c1.2-.7 2-1.2 2.2-1.5.2-.3.4-.7.4-1.2s-.1-1.1-.5-1.7l-.4-.7.7-.4 6.6 11.5-.7.4-.4-.7c-.4-.6-.8-1.1-1.3-1.3-.3-.2-.7-.2-1.2-.2-.4 0-1.1.4-2.4 1.1l-16 9.2c-1.2.7-2 1.2-2.2 1.5-.2.3-.4.7-.4 1.2s.1 1.1.5 1.7l.4.8zM422.7 247.7h-.7v-13.2h.8v.8c0 .7.1 1.3.4 1.8.2.3.5.6 1 .7.3.1 1.2.2 2.6.2h18.5c1.4 0 2.3-.1 2.7-.2.4-.1.7-.4.9-.8.3-.4.4-1 .4-1.7v-.8h.8v13.2h-.8v-.8c0-.7-.1-1.3-.4-1.8-.2-.3-.5-.6-1-.8-.3-.1-1.2-.2-2.6-.2h-18.5c-1.4 0-2.3.1-2.7.2-.4.1-.7.4-.9.8-.3.4-.4 1-.4 1.7v.9zM422.7 262.6h-.7v-13.2h.8v.8c0 .7.1 1.3.4 1.8.2.3.5.6 1 .7.3.1 1.2.2 2.6.2h18.5c1.4 0 2.3-.1 2.7-.2.4-.1.7-.4.9-.8.3-.4.4-1 .4-1.7v-.8h.8v13.2h-.8v-.8c0-.7-.1-1.3-.4-1.8-.2-.3-.5-.6-1-.8-.3-.1-1.2-.2-2.6-.2h-18.5c-1.4 0-2.3.1-2.7.2-.4.1-.7.4-.9.8-.3.4-.4 1-.4 1.7v.9zM422.7 277.5h-.7v-13.2h.8v.8c0 .7.1 1.3.4 1.8.2.3.5.6 1 .7.3.1 1.2.2 2.6.2h18.5c1.4 0 2.3-.1 2.7-.2.4-.1.7-.4.9-.8.3-.4.4-1 .4-1.7v-.8h.8v13.2h-.8v-.8c0-.7-.1-1.3-.4-1.8-.2-.3-.5-.6-1-.8-.3-.1-1.2-.2-2.6-.2h-18.5c-1.4 0-2.3.1-2.7.2-.4.1-.7.4-.9.8-.3.4-.4 1-.4 1.7v.9zM404.1 332.9l-.7-.4L410 321l.7.4-.4.7c-.4.6-.5 1.2-.5 1.8 0 .4.2.8.5 1.1.2.3.9.8 2.2 1.5l16 9.2c1.2.7 2.1 1.1 2.4 1.2.4.1.8 0 1.2-.2.4-.2.8-.6 1.2-1.3l.4-.7.7.4-6.6 11.5-.7-.4.4-.7c.4-.6.5-1.2.5-1.8 0-.4-.2-.8-.5-1.2-.2-.3-.9-.8-2.2-1.5l-16-9.2c-1.2-.7-2.1-1.1-2.4-1.2-.4-.1-.8 0-1.2.3-.4.2-.8.6-1.2 1.3l-.4.7zM413.7 370.9l-.7-.4c.3-.9.3-1.9-.2-3-.3-.8-1.4-2.3-3.1-4.5l-14.2-18.3.3-.5 23.7 3.7c2.9.4 4.6.6 5.2.6.6-.1 1.2-.5 1.8-1.3l.7.4-6.1 10.5-.7-.4.2-.4c.5-.9.8-1.7.7-2.2 0-.4-.2-.6-.6-.8-.2-.1-.5-.2-.8-.3-.3-.1-1.3-.2-2.9-.5l-14.8-2.3 8.3 10.6c1 1.3 1.7 2.1 2.1 2.5.4.4.7.7 1 .8.4.2.7.3 1.1.3.4 0 .7-.1 1.1-.4.5-.3.9-.9 1.4-1.7l.7.4-4.2 7.2zM341.4 430.8l-.4-.7c.7-.6 1.2-1.5 1.3-2.7.1-.9 0-2.7-.4-5.4l-3.2-23 .5-.3 18.7 15c2.3 1.8 3.7 2.8 4.2 3.1.5.2 1.3.2 2.2-.2l.4.7-10.5 6.1-.4-.7.4-.2c.9-.5 1.5-1.1 1.7-1.5.1-.3.1-.7-.1-1-.1-.2-.3-.4-.6-.7-.3-.2-1-.9-2.2-1.9l-11.7-9.4 1.9 13.3c.2 1.6.4 2.7.6 3.2.1.5.3.9.5 1.2.2.4.5.6.8.8.3.2.7.2 1.1.2.6-.1 1.3-.3 2-.8l.4.7-7.2 4.2z"/><g><path class="st0" d="M249.7 450.1v-.8c.9-.2 1.7-.7 2.5-1.6.5-.7 1.3-2.3 2.3-4.9l8.7-21.5h.6l8.7 22.4c1 2.7 1.7 4.3 2.1 4.7.4.5 1 .8 2 .9v.8h-12.1v-.8h.4c1.1 0 1.8-.2 2.2-.5.3-.2.4-.5.4-.9 0-.2 0-.5-.1-.9-.1-.3-.4-1.2-1-2.7l-5.4-14-5 12.5c-.6 1.5-1 2.5-1.1 3-.1.5-.2.9-.2 1.3s.1.8.3 1.1c.2.3.5.6.9.7.5.2 1.2.4 2.1.4v.8h-8.3zM235.3 422.7v-.7h13.2v.8h-.8c-.7 0-1.3.1-1.8.4-.3.2-.6.5-.7 1-.1.3-.2 1.2-.2 2.6v18.5c0 1.4.1 2.3.2 2.7.1.4.4.7.8.9.4.3 1 .4 1.7.4h.8v.8h-13.2v-.8h.8c.7 0 1.3-.1 1.8-.4.3-.2.6-.5.8-1 .1-.3.2-1.2.2-2.6v-18.5c0-1.4-.1-2.3-.2-2.7-.1-.4-.4-.7-.8-.9-.4-.3-1-.4-1.7-.4h-.9z"/></g><g><path class="st0" d="M160 424.7l.4-.7c.9.3 1.9.3 3-.2.8-.3 2.3-1.4 4.5-3.1l18.3-14.2.5.3-3.7 23.7c-.4 2.9-.6 4.6-.6 5.2.1.6.5 1.2 1.3 1.8l-.4.7-10.5-6.1.4-.7.4.2c.9.5 1.7.8 2.2.7.4 0 .6-.2.8-.6.1-.2.2-.5.3-.8.1-.3.2-1.3.5-2.9l2.3-14.8-10.6 8.3c-1.3 1-2.1 1.7-2.5 2.1s-.7.7-.8 1c-.2.4-.3.7-.3 1.1 0 .4.1.7.4 1.1.3.5.9.9 1.7 1.4l-.4.7-7.2-4.2zM161.2 393.8l.4-.7 11.5 6.6-.4.7-.7-.4c-.6-.4-1.2-.5-1.8-.5-.4 0-.8.2-1.1.5-.3.2-.8.9-1.5 2.2l-9.2 16c-.7 1.2-1.1 2.1-1.2 2.4-.1.4 0 .8.2 1.2.2.4.6.8 1.3 1.2l.7.4-.4.7-11.5-6.6.4-.7.7.4c.6.4 1.2.5 1.8.5.4 0 .8-.2 1.2-.5.3-.2.8-.9 1.5-2.2l9.2-16c.7-1.2 1.1-2.1 1.2-2.4.1-.4 0-.8-.3-1.2-.2-.4-.6-.8-1.3-1.2l-.7-.4zM148.3 386.3l.4-.7 11.5 6.6-.4.7-.7-.4c-.6-.4-1.2-.5-1.8-.5-.4 0-.8.2-1.1.5-.3.2-.8.9-1.5 2.2l-9.2 16c-.7 1.2-1.1 2.1-1.2 2.4-.1.4 0 .8.2 1.2.2.4.6.8 1.3 1.2l.7.4-.4.7-11.5-6.6.4-.7.7.4c.6.4 1.2.5 1.8.5.4 0 .8-.2 1.2-.5.3-.2.8-.9 1.5-2.2l9.2-16c.7-1.2 1.1-2.1 1.2-2.4.1-.4 0-.8-.3-1.2-.2-.4-.6-.8-1.3-1.2l-.7-.4z"/></g><g><path class="st0" d="M92.2 360.5l.7-.4c.6.7 1.5 1.2 2.7 1.3.9.1 2.7 0 5.4-.4l23-3.2.3.5-15 18.7c-1.8 2.3-2.8 3.7-3.1 4.2-.2.5-.2 1.3.2 2.2l-.7.4-6.1-10.5.7-.4.2.4c.5.9 1.1 1.5 1.5 1.7.3.1.7.1 1-.1.2-.1.4-.3.7-.6.2-.3.9-1 1.9-2.2l9.4-11.7-13.3 1.9c-1.6.2-2.7.4-3.2.6s-.9.3-1.2.5c-.4.2-.6.5-.8.8-.2.3-.2.7-.2 1.1.1.6.3 1.3.8 2l-.7.4-4.2-7.2zM108.7 334.4l.7-.4 6.6 11.5-.7.4-.4-.7c-.4-.6-.8-1.1-1.3-1.3-.3-.2-.7-.2-1.2-.1-.4 0-1.1.4-2.4 1.1L94 354c-1.2.7-2 1.2-2.2 1.5-.2.3-.4.7-.4 1.2s.1 1.1.5 1.7l.4.7-.7.4L85 348l.7-.4.4.7c.4.6.8 1.1 1.3 1.3.3.2.7.2 1.2.2.4 0 1.1-.4 2.4-1.1l16-9.2c1.2-.7 2-1.2 2.2-1.5.2-.3.4-.7.4-1.2s-.1-1.1-.5-1.7l-.4-.7zM101.3 321.5l.7-.4 6.6 11.5-.7.4-.4-.7c-.4-.6-.8-1.1-1.3-1.3-.3-.2-.7-.2-1.2-.1-.4 0-1.1.4-2.4 1.1l-16 9.2c-1.2.7-2 1.2-2.2 1.5-.2.3-.4.7-.4 1.2s.1 1.1.5 1.7l.4.7-.7.4-6.6-11.5.7-.4.4.7c.4.6.8 1.1 1.3 1.3.3.2.7.2 1.2.2.4 0 1.1-.4 2.4-1.1l16-9.2c1.2-.7 2-1.2 2.2-1.5.2-.3.4-.7.4-1.2s-.1-1.1-.5-1.7l-.4-.8zM93.8 308.6l.7-.4 6.6 11.5-.7.4-.4-.7c-.4-.6-.8-1.1-1.3-1.3-.3-.2-.7-.2-1.2-.1-.4 0-1.1.4-2.4 1.1l-16 9.2c-1.2.7-2 1.2-2.2 1.5-.2.3-.4.7-.4 1.2s.1 1.1.5 1.7l.4.7-.7.4-6.6-11.5.7-.4.4.7c.4.6.8 1.1 1.3 1.3.3.2.7.2 1.2.2.4 0 1.1-.4 2.4-1.1l16-9.2c1.2-.7 2-1.2 2.2-1.5.2-.3.4-.7.4-1.2s-.1-1.1-.5-1.7l-.4-.8z"/></g><g><path class="st0" d="M89.3 263.5h.7v13.2h-.8v-.8c0-.7-.1-1.3-.4-1.8-.2-.3-.5-.6-1-.7-.3-.1-1.2-.2-2.6-.2H66.7c-1.4 0-2.3.1-2.7.2-.4.1-.7.4-.9.8-.3.4-.4 1-.4 1.7v.8h-.8v-13.2h.8v.8c0 .7.1 1.3.4 1.8.2.3.5.6 1 .8.3.1 1.2.2 2.6.2h18.5c1.4 0 2.3-.1 2.7-.2.4-.1.7-.4.9-.8.3-.4.4-1 .4-1.7v-.9zM73.6 246.5l11.5-7c1.9-1.2 3.1-2 3.5-2.5.4-.5.7-1.1.7-1.7h.7v12.3h-.8c-.1-1-.2-1.6-.5-1.9-.2-.3-.6-.4-.9-.4-.2 0-.5 0-.7.1-.4.2-1.2.6-2.3 1.3l-6.1 3.7 5.2 3.9c1.6 1.2 2.7 1.7 3.2 1.7.4 0 .8-.1 1.1-.4.3-.3.6-.7.7-1.3.1-.3.1-.8.1-1.6h1v9.7h-.8c-.2-1.1-.5-2-1-2.6-.6-.8-2-2-4-3.5l-6.8-5-10.4 6.4c-1.7 1.1-2.7 1.7-2.9 1.8-.5.3-.8.7-1 1-.2.3-.3.8-.4 1.3h-.8v-12.6h.8v.6c0 .7.1 1.2.4 1.5.3.3.6.4 1 .4.3 0 .6 0 .8-.1l2.2-1.3 5.3-3.1-3.6-2.7c-1.9-1.4-3.2-2.1-3.9-2.1-.4 0-.7.1-1 .3-.3.2-.6.5-.7.8-.2.4-.3.9-.3 1.7h-.8V236h.8c0 .7.1 1.3.3 1.8.2.4.5.9 1 1.4.3.3 1.4 1.1 3.1 2.4l6.3 4.9z"/></g><g><path class="st0" d="M99.2 162.7l13.5-.3c2.2 0 3.6-.2 4.2-.4.6-.2 1.1-.6 1.5-1.1l.7.4-6.2 10.7-.7-.4c.4-.9.6-1.5.5-1.9-.1-.4-.3-.6-.6-.8-.2-.1-.4-.2-.6-.2-.4-.1-1.3-.1-2.7 0l-7.1.2 2.6 6c.8 1.8 1.4 2.8 1.9 3.1.3.2.7.3 1.2.2.4-.1.9-.3 1.3-.8.2-.2.5-.6.9-1.3l.7.4-4.9 8.4-.7-.4c.4-1 .5-2 .4-2.8-.1-1-.7-2.7-1.7-5L100 169l-12.3.3c-2 .1-3.2.1-3.4.1-.6.1-1 .2-1.3.4-.3.2-.7.5-1 .9l-.7-.4 6.3-10.9.7.4-.3.5c-.4.6-.5 1.1-.4 1.5.1.4.3.7.6.9.3.2.5.2.7.3h2.5l6.2-.1-1.8-4.1c-.9-2.1-1.7-3.4-2.4-3.7-.3-.2-.7-.3-1-.3-.4 0-.7.1-1.1.3-.3.2-.7.7-1.1 1.3l-.7-.4 4.7-8.1.7.4c-.4.6-.6 1.2-.6 1.7-.1.5 0 1.1.2 1.8.1.4.6 1.7 1.5 3.6l3.2 7.3z"/></g><g><path class="st0" d="M160.6 100.4l11.8 6.5c2 1.1 3.2 1.7 3.9 1.8.6.1 1.3 0 1.9-.2l.4.7-10.7 6.2-.4-.7c.8-.6 1.3-1 1.4-1.4.1-.4.1-.7-.1-1-.1-.2-.3-.4-.4-.5-.4-.3-1.1-.7-2.3-1.4l-6.2-3.4-.7 6.5c-.2 2-.2 3.2.1 3.7.2.3.5.6.9.7.4.2.9.1 1.5 0 .3-.1.8-.3 1.5-.7l.4.7-8.4 4.9-.4-.7c.9-.7 1.5-1.4 1.8-2.2.4-1 .7-2.7 1-5.2l.9-8.4-10.8-5.9c-1.8-1-2.8-1.5-3-1.6-.5-.2-1-.3-1.3-.3-.4 0-.8.1-1.4.3l-.4-.7 10.9-6.3.4.7-.5.3c-.6.4-1 .7-1.1 1.1-.1.4-.1.7.1 1.1.2.3.3.5.5.6l2.2 1.2 5.4 3 .5-4.5c.3-2.3.2-3.8-.2-4.4-.2-.3-.4-.6-.8-.8-.3-.2-.7-.3-1.1-.2-.4 0-.9.2-1.6.6l-.4-.7 8.1-4.7.4.7c-.6.4-1.1.8-1.4 1.1-.3.4-.5.9-.7 1.6-.1.4-.3 1.7-.6 3.9l-1.1 8zM190.5 101.3l.4.7-11.5 6.6-.4-.7.7-.4c.6-.4 1.1-.8 1.3-1.3.2-.3.2-.7.1-1.2 0-.4-.4-1.1-1.1-2.4l-9.2-16c-.7-1.2-1.2-2-1.5-2.2-.3-.2-.7-.4-1.2-.4s-1.1.1-1.7.5l-.7.4-.4-.7 11.5-6.6.4.7-.7.4c-.6.4-1.1.8-1.3 1.3-.2.3-.2.7-.2 1.2 0 .4.4 1.1 1.1 2.4l9.2 16c.7 1.2 1.2 2 1.5 2.2.3.2.7.4 1.2.4s1.1-.1 1.7-.5l.8-.4z"/></g></g></svg>