<svg version="1.1" id="icon" xmlns="http://www.w3.org/2000/svg" x="0" y="0" viewBox="0 0 512 512" xml:space="preserve"><style type="text/css">.st0{fill:#363636}</style><circle class="st0" cx="256" cy="256" r="11.3"/><path class="st0" d="M250.7 0h10.5v21.1h-10.5zM250.7 490.9h10.5V512h-10.5z"/><path transform="rotate(-90 10.525 256)" class="st0" d="M5.3 245.5h10.5v21.1H5.3z"/><path transform="rotate(-90 501.475 256)" class="st0" d="M496.2 245.5h10.5v21.1h-10.5z"/><path transform="rotate(-60 43.412 133.266)" class="st0" d="M38.1 122.7h10.5v21.1H38.1z"/><path transform="rotate(-60 468.593 378.752)" class="st0" d="M463.3 368.2h10.5v21.1h-10.5z"/><path transform="rotate(-150 133.266 468.593)" class="st0" d="M128 458.1h10.5v21.1H128z"/><path transform="rotate(-150 378.742 43.412)" class="st0" d="M373.5 32.9H384V54h-10.5z"/><path transform="rotate(-30 133.259 43.418)" class="st0" d="M128 32.9h10.5V54H128z"/><path transform="rotate(-30 378.71 468.6)" class="st0" d="M373.5 458.1H384v21.1h-10.5z"/><path transform="rotate(-120 43.408 378.74)" class="st0" d="M38.2 368.2h10.5v21.1H38.2z"/><path transform="rotate(-120 468.59 133.27)" class="st0" d="M463.3 122.7h10.5v21.1h-10.5z"/><g><path transform="rotate(23.999 358.017 26.945)" class="st0" d="M356.5 21.7h3.1v10.5h-3.1z"/><path transform="rotate(23.999 154.065 485.019)" class="st0" d="M152.5 479.6h3.1v10.7h-3.1z"/><path transform="rotate(17.998 333.5 17.54)" class="st0" d="M332 12.3h3.1v10.5H332z"/><path transform="rotate(17.998 178.55 494.406)" class="st0" d="M177 489h3.1v10.7H177z"/><g><path transform="rotate(12 308.149 10.743)" class="st0" d="M306.6 5.5h3.1V16h-3.1z"/><path transform="rotate(12 203.9 501.194)" class="st0" d="M202.4 495.8h3.1v10.7h-3.1z"/></g><g><path transform="rotate(6.012 282.284 6.575)" class="st0" d="M280.7 1.4h3.1v10.5h-3.1z"/><path transform="rotate(6.012 229.973 505.35)" class="st0" d="M228.3 499.9h3.1v10.7h-3.1z"/></g></g><g><path transform="rotate(53.999 458.861 108.626)" class="st0" d="M457.3 103.4h3.1v10.5h-3.1z"/><path transform="rotate(53.999 53.225 403.334)" class="st0" d="M51.7 398h3.1v10.7h-3.1z"/><path transform="rotate(48 442.361 88.231)" class="st0" d="M440.8 83h3.1v10.5h-3.1z"/><path transform="rotate(48 69.74 423.739)" class="st0" d="M68.2 418.4h3.1v10.7h-3.1z"/><g><path transform="rotate(42 423.795 69.667)" class="st0" d="M422.2 64.4h3.1v10.5h-3.1z"/><path transform="rotate(42 88.293 442.283)" class="st0" d="M86.8 436.9h3.1v10.7h-3.1z"/></g><g><path transform="rotate(36.002 403.368 53.14)" class="st0" d="M401.9 47.9h3.1v10.5h-3.1z"/><path transform="rotate(36.002 108.681 458.758)" class="st0" d="M107.1 453.4h3.1v10.7h-3.1z"/></g></g><g><path transform="rotate(84.002 505.369 229.777)" class="st0" d="M503.8 224.5h3.1V235h-3.1z"/><path transform="rotate(84.002 6.738 282.199)" class="st0" d="M5.2 276.8h3.1v10.7H5.2z"/><path transform="rotate(78 501.282 203.878)" class="st0" d="M499.7 198.6h3.1v10.5h-3.1z"/><path transform="rotate(78 10.836 308.126)" class="st0" d="M9.3 302.8h3.1v10.7H9.3z"/><g><path transform="rotate(72.002 494.44 178.5)" class="st0" d="M492.9 173.3h3.1v10.5h-3.1z"/><path transform="rotate(72.002 17.629 333.434)" class="st0" d="M16.1 328.1h3.1v10.7h-3.1z"/></g><g><path transform="rotate(66.001 485.083 154.02)" class="st0" d="M483.5 148.8h3.1v10.5h-3.1z"/><path transform="rotate(66.001 27.03 357.961)" class="st0" d="M25.5 352.6h3.1v10.7h-3.1z"/></g></g><g><path transform="scale(-1) rotate(-66.001 -551.278 746.956)" class="st0" d="M483.5 352.7h3.1v10.5h-3.1z"/><path transform="scale(-1) rotate(-66.001 -237.234 41.618)" class="st0" d="M25.5 148.7h3.1v10.7h-3.1z"/><path transform="scale(-1) rotate(-72.002 -458.983 680.528)" class="st0" d="M492.9 328.2h3.1v10.5h-3.1z"/><path transform="scale(-1) rotate(-72.002 -245.736 24.254)" class="st0" d="M16.1 173.2h3.1v10.7h-3.1z"/><g><path transform="scale(-1) rotate(-78 -380.53 619.032)" class="st0" d="M499.7 302.9h3.1v10.5h-3.1z"/><path transform="scale(-1) rotate(-78 -251.793 13.38)" class="st0" d="M9.3 198.5h3.1v10.7H9.3z"/></g><g><path transform="rotate(95.998 505.375 282.217)" class="st0" d="M503.8 276.9h3.1v10.5h-3.1z"/><path transform="rotate(95.998 6.73 229.806)" class="st0" d="M5.2 224.4h3.1v10.7H5.2z"/></g></g><g><path transform="rotate(143.998 403.378 458.858)" class="st0" d="M401.9 453.6h3.1v10.5h-3.1z"/><path transform="rotate(143.998 108.676 53.228)" class="st0" d="M107.1 47.9h3.1v10.7h-3.1z"/><path transform="scale(-1) rotate(-42 -1152.375 1104.02)" class="st0" d="M422.2 437.1h3.1v10.5h-3.1z"/><path transform="scale(-1) rotate(-42 -181.679 230.007)" class="st0" d="M86.8 64.4h3.1v10.7h-3.1z"/><g><path transform="scale(-1) rotate(-48 -951.872 993.564)" class="st0" d="M440.8 418.5h3.1V429h-3.1z"/><path transform="scale(-1) rotate(-48 -198.309 156.641)" class="st0" d="M68.2 82.9h3.1v10.7h-3.1z"/></g><g><path transform="rotate(126.001 458.854 403.373)" class="st0" d="M457.3 398.1h3.1v10.5h-3.1z"/><path transform="rotate(126.001 53.227 108.675)" class="st0" d="M51.7 103.3h3.1V114h-3.1z"/></g></g><g><path transform="rotate(173.988 282.22 505.366)" class="st0" d="M280.7 500.1h3.1v10.5h-3.1z"/><path transform="rotate(173.988 229.804 6.728)" class="st0" d="M228.3 1.4h3.1v10.7h-3.1z"/><path transform="scale(-1) rotate(-12 -4769.42 2931.842)" class="st0" d="M306.6 496h3.1v10.5h-3.1z"/><path transform="scale(-1) rotate(-12 -103.09 1939.98)" class="st0" d="M202.4 5.5h3.1v10.7h-3.1z"/><g><path transform="scale(-1) rotate(-17.998 -3122.08 2105.69)" class="st0" d="M332 489.2h3.1v10.5H332z"/><path transform="scale(-1) rotate(-17.998 -111.27 1127.37)" class="st0" d="M177 12.3h3.1V23H177z"/></g><g><path transform="scale(-1) rotate(-23.999 -2282.225 1684.354)" class="st0" d="M356.5 479.8h3.1v10.5h-3.1z"/><path transform="scale(-1) rotate(-23.999 -127.157 724.837)" class="st0" d="M152.5 21.7h3.1v10.7h-3.1z"/></g></g><g><path class="st0" d="M242.6 56.2l7.6 12.6c1.3 2.1 2.2 3.4 2.7 3.8.5.4 1.2.7 1.9.8v.8h-13.5v-.8c1.1-.1 1.8-.3 2.1-.5.3-.3.5-.6.5-1 0-.3 0-.5-.1-.7-.2-.5-.7-1.3-1.4-2.5l-4-6.7-4.2 5.7c-1.3 1.7-1.9 2.9-1.9 3.5 0 .4.2.8.5 1.2.3.4.8.7 1.5.8.3.1.9.1 1.8.1v.8h-10.7v-.8c1.2-.2 2.2-.6 2.9-1.1.9-.7 2.2-2.2 3.8-4.4l5.5-7.5-7.3-11.3c-1.2-1.9-1.8-2.9-2-3.2-.4-.5-.7-.9-1.1-1.1-.4-.2-.8-.4-1.5-.5v-.8h13.8v.8h-.7c-.8 0-1.3.1-1.7.4-.3.3-.5.6-.5 1.1 0 .3 0 .6.1.9l1.4 2.4 3.4 5.8 2.9-4c1.5-2 2.2-3.5 2.2-4.3 0-.4-.1-.8-.3-1.1-.2-.3-.5-.6-.9-.8-.4-.2-1-.3-1.8-.3v-.8H254v.8c-.8 0-1.5.1-1.9.3-.5.2-1 .6-1.6 1.1-.4.4-1.2 1.5-2.7 3.4l-5.2 7.1zM270.5 73.4v.8H256v-.8h.9c.8 0 1.5-.2 1.9-.5.4-.2.6-.6.8-1.1.1-.4.2-1.3.2-2.9V48.7c0-1.6-.1-2.6-.2-3-.2-.4-.5-.7-.9-1-.5-.3-1.1-.4-1.9-.4h-.8v-.8h14.5v.8h-.9c-.8 0-1.5.2-1.9.5-.4.2-.6.6-.8 1.1-.2.4-.2 1.3-.2 2.9v20.3c0 1.6.1 2.6.2 3 .2.4.5.7.9 1 .5.3 1.1.4 1.9.4h.8zM286.8 73.4v.8h-14.5v-.8h.9c.8 0 1.5-.2 1.9-.5.4-.2.6-.6.8-1.1.1-.4.2-1.3.2-2.9V48.7c0-1.6-.1-2.6-.2-3-.2-.4-.5-.7-.9-1-.5-.3-1.1-.4-1.9-.4h-.9v-.8h14.5v.8h-.9c-.8 0-1.5.2-1.9.5-.4.2-.6.6-.8 1.1-.2.4-.2 1.3-.2 2.9v20.3c0 1.6.1 2.6.2 3 .2.4.5.7.9 1 .5.3 1.1.4 1.9.4h.9zM353.6 101.5l-.4.7-12.6-7.2.4-.7.8.5c.7.4 1.3.6 1.9.6.4 0 .8-.2 1.3-.5.3-.2.9-1 1.6-2.4L356.7 75c.8-1.4 1.2-2.3 1.3-2.7.1-.4 0-.9-.3-1.3-.2-.5-.7-.9-1.4-1.3l-.8-.5.4-.7 12.6 7.2-.4.7-.8-.5c-.7-.4-1.3-.6-1.9-.6-.4 0-.8.2-1.3.5-.3.2-.9 1-1.6 2.4l-10.1 17.5c-.8 1.4-1.2 2.3-1.3 2.7-.1.4 0 .9.3 1.4.2.5.7.9 1.4 1.3l.8.4zM413.7 163.9l-.7.4-7.2-12.6.7-.4.5.8c.4.7.9 1.2 1.4 1.4.4.2.8.3 1.4.2.4-.1 1.3-.5 2.6-1.2l17.5-10.1c1.4-.8 2.2-1.3 2.4-1.7.3-.3.4-.8.4-1.3s-.2-1.2-.5-1.8l-.5-.8.7-.4 7.2 12.6-.7.4-.5-.8c-.4-.7-.9-1.2-1.4-1.4-.4-.2-.8-.3-1.4-.2-.4.1-1.3.5-2.6 1.2l-17.5 10.1c-1.4.8-2.2 1.3-2.4 1.7-.3.3-.4.8-.4 1.3s.2 1.2.5 1.8l.5.8zM421.9 178l-.7.4-7.2-12.6.7-.4.5.8c.4.7.9 1.2 1.4 1.4.4.2.8.3 1.4.2.4-.1 1.3-.5 2.6-1.2l17.5-10.1c1.4-.8 2.2-1.3 2.4-1.7.3-.3.4-.8.4-1.3s-.2-1.2-.5-1.8l-.5-.8.7-.4 7.2 12.6-.7.4-.5-.8c-.4-.7-.9-1.2-1.4-1.4-.4-.2-.8-.3-1.4-.2-.4.1-1.3.5-2.6 1.2l-17.5 10.1c-1.4.8-2.2 1.3-2.4 1.7-.3.3-.4.8-.4 1.3s.2 1.2.5 1.8l.5.8zM438.6 247h-.8v-14.5h.8v.9c0 .8.2 1.5.5 1.9.2.4.6.6 1.1.8.4.1 1.3.2 2.9.2h20.3c1.6 0 2.6-.1 3-.2.4-.2.7-.5 1-.9.3-.5.4-1.1.4-1.9v-.9h.8V247h-.8v-1c0-.8-.2-1.5-.5-1.9-.2-.4-.6-.6-1.1-.8-.4-.2-1.3-.2-2.9-.2H443c-1.6 0-2.6.1-3 .2-.4.2-.7.5-1 .9-.3.5-.4 1.1-.4 1.9v.9zM438.6 263.2h-.8v-14.5h.8v.9c0 .8.2 1.5.5 1.9.2.4.6.6 1.1.8.4.1 1.3.2 2.9.2h20.3c1.6 0 2.6-.1 3-.2.4-.2.7-.5 1-.9.3-.5.4-1.1.4-1.8v-.9h.8v14.5h-.8v-.9c0-.8-.2-1.5-.5-1.9-.2-.4-.6-.6-1.1-.8-.4-.2-1.3-.2-2.9-.2H443c-1.6 0-2.6.1-3 .2-.4.2-.7.5-1 .9-.3.5-.4 1.1-.4 1.9v.8zM438.6 279.5h-.8V265h.8v.9c0 .8.2 1.5.5 1.9.2.4.6.6 1.1.8.4.1 1.3.2 2.9.2h20.3c1.6 0 2.6-.1 3-.2.4-.2.7-.5 1-.9.3-.5.4-1.1.4-1.9v-.8h.8v14.5h-.8v-.9c0-.8-.2-1.5-.5-1.9-.2-.4-.6-.6-1.1-.8-.4-.2-1.3-.2-2.9-.2H443c-1.6 0-2.6.1-3 .2-.4.2-.7.5-1 .9-.3.5-.4 1.1-.4 1.9v.8zM418.2 340.3l-.7-.4 7.2-12.6.7.4-.5.8c-.4.7-.6 1.3-.6 1.9 0 .4.2.8.5 1.3.2.3 1 .9 2.4 1.6l17.5 10.1c1.4.8 2.3 1.2 2.7 1.3.4.1.9 0 1.3-.3.5-.2.9-.7 1.3-1.4l.5-.8.7.4-7.2 12.6-.7-.4.5-.8c.4-.7.6-1.3.6-1.9 0-.4-.2-.8-.5-1.3-.2-.3-1-.9-2.4-1.6L424 339.1c-1.4-.8-2.3-1.2-2.7-1.3-.4-.1-.9 0-1.4.3-.5.2-.9.7-1.3 1.4l-.4.8zM428.8 381.9l-.7-.4c.3-1 .3-2-.2-3.2-.4-.9-1.5-2.5-3.3-4.9l-15.6-20 .3-.6 26 4c3.1.5 5 .7 5.7.6.6-.1 1.3-.6 1.9-1.4l.7.4-6.6 11.5-.7-.4.2-.4c.6-1 .9-1.8.8-2.4 0-.4-.3-.7-.6-.9-.2-.1-.5-.3-.9-.3-.4-.1-1.4-.3-3.1-.5l-16.2-2.5 9.1 11.6c1.1 1.4 1.9 2.3 2.3 2.7.4.4.8.7 1.1.9.4.2.8.3 1.2.3.4 0 .8-.2 1.2-.4.5-.4 1-1 1.5-1.8l.7.4-4.8 7.7zM349.5 447.5l-.4-.7c.8-.7 1.3-1.6 1.4-2.9.1-.9 0-2.9-.5-5.9l-3.5-25.2.6-.3 20.5 16.5c2.5 2 4 3.1 4.6 3.4.6.3 1.4.2 2.4-.3l.4.7-11.5 6.6-.4-.7.4-.2c1-.6 1.7-1.2 1.9-1.7.2-.4.1-.7-.1-1.1-.1-.2-.3-.5-.6-.8-.3-.3-1.1-.9-2.4-2l-12.8-10.3 2.1 14.6c.3 1.8.5 2.9.6 3.5.1.6.3 1 .5 1.4.2.4.5.7.9.9s.8.3 1.2.2c.6-.1 1.4-.3 2.2-.8l.4.7-7.9 4.4z"/><g><path class="st0" d="M249.1 468.6v-.8c1-.2 1.9-.8 2.7-1.8.6-.8 1.4-2.5 2.6-5.3l9.5-23.5h.7l9.5 24.5c1.1 3 1.9 4.7 2.3 5.2.4.5 1.1.8 2.2 1v.8h-13.3v-.8h.4c1.2 0 2-.2 2.5-.5.3-.2.5-.6.5-1 0-.3-.1-.6-.2-1s-.5-1.4-1.1-3l-5.9-15.3-5.5 13.7c-.7 1.7-1.1 2.8-1.2 3.3-.2.6-.2 1-.2 1.4 0 .5.1.9.3 1.2.2.3.5.6 1 .8.6.3 1.4.4 2.3.4v.8h-9.1zM233.4 438.6v-.8h14.5v.8h-.9c-.8 0-1.5.2-1.9.5-.4.2-.6.6-.8 1.1-.1.4-.2 1.3-.2 2.9v20.3c0 1.6.1 2.6.2 3 .2.4.5.7.9 1 .5.3 1.1.4 1.9.4h.9v.8h-14.5v-.8h.9c.8 0 1.5-.2 1.9-.5.4-.2.6-.6.8-1.1.2-.4.2-1.3.2-2.9V443c0-1.6-.1-2.6-.2-3-.2-.4-.5-.7-.9-1-.5-.3-1.1-.4-1.9-.4h-.9z"/></g><g><path class="st0" d="M150.8 440.7l.4-.7c1 .3 2 .3 3.2-.2.9-.4 2.5-1.5 4.9-3.3l20-15.6.6.3-4 26c-.5 3.1-.7 5-.6 5.7.1.6.6 1.3 1.4 1.9l-.4.7-11.5-6.6.4-.7.4.2c1 .6 1.8.9 2.4.8.4 0 .7-.3.9-.6.1-.2.3-.5.3-.9.1-.4.3-1.4.5-3.1l2.5-16.2-11.6 9.1c-1.4 1.1-2.3 1.9-2.7 2.3-.4.4-.7.8-.9 1.1-.2.4-.3.8-.3 1.2 0 .4.2.8.4 1.2.4.5 1 1 1.8 1.5l-.4.7-7.7-4.8zM152.2 406.9l.4-.7 12.6 7.2-.4.7-.8-.5c-.7-.4-1.3-.6-1.9-.6-.4 0-.8.2-1.3.5-.3.2-.9 1-1.6 2.4L149 433.6c-.8 1.4-1.2 2.3-1.3 2.7-.1.4 0 .9.3 1.4.2.5.7.9 1.4 1.3l.8.5-.4.7-12.6-7.2.4-.7.8.5c.7.4 1.3.6 1.9.6.4 0 .8-.2 1.3-.5.3-.2.9-1 1.6-2.4l10.1-17.5c.8-1.4 1.2-2.3 1.3-2.7.1-.4 0-.9-.3-1.4-.2-.5-.7-.9-1.4-1.3l-.7-.7zM138 398.8l.4-.7 12.6 7.2-.4.7-.8-.5c-.7-.4-1.3-.6-1.9-.6-.4 0-.8.2-1.3.5-.3.2-.9 1-1.6 2.4l-10.1 17.5c-.8 1.4-1.2 2.3-1.3 2.7-.1.4 0 .9.3 1.4.2.5.7.9 1.4 1.3l.8.5-.4.7-12.6-7.2.4-.7.8.5c.7.4 1.3.6 1.9.6.4 0 .8-.2 1.3-.5.3-.2.9-1 1.6-2.4l10.1-17.5c.8-1.4 1.2-2.3 1.3-2.7.1-.4 0-.9-.3-1.4-.2-.5-.7-.9-1.4-1.3l-.8-.5z"/></g><g><path class="st0" d="M76.6 370.5l.7-.4c.7.8 1.6 1.3 2.9 1.4.9.1 2.9 0 5.9-.5l25.2-3.5.3.6-16.5 20.5c-2 2.5-3.1 4-3.4 4.6-.3.6-.2 1.4.3 2.4l-.7.4-6.6-11.5.7-.4.2.4c.6 1 1.2 1.7 1.7 1.9.4.2.7.1 1.1-.1.2-.1.5-.3.8-.6.3-.3.9-1.1 2-2.4l10.3-12.8-14.5 2c-1.8.3-2.9.5-3.5.6-.6.1-1 .3-1.4.5-.4.2-.7.5-.9.9-.2.4-.3.8-.2 1.2.1.6.3 1.4.8 2.2l-.7.4-4.5-7.8zM94.7 341.8l.7-.4 7.2 12.6-.7.4-.5-.8c-.4-.7-.9-1.2-1.4-1.4-.4-.2-.8-.3-1.4-.2-.4.1-1.3.5-2.6 1.2l-17.5 10.1c-1.4.8-2.2 1.3-2.4 1.7-.3.3-.4.8-.4 1.3s.2 1.2.5 1.8l.5.8-.7.4-7.2-12.6.7-.4.5.8c.4.7.9 1.2 1.4 1.4.4.2.8.3 1.4.2.4-.1 1.3-.5 2.6-1.2l17.5-10.1c1.4-.8 2.2-1.3 2.4-1.7.3-.3.4-.8.4-1.3s-.2-1.2-.5-1.8l-.5-.8zM86.5 327.7l.7-.4 7.2 12.6-.7.4-.5-.8c-.4-.7-.9-1.2-1.4-1.4-.4-.2-.8-.3-1.4-.2-.4.1-1.3.5-2.6 1.2l-17.5 10.1c-1.4.8-2.2 1.3-2.4 1.7-.3.3-.4.8-.4 1.3s.2 1.2.5 1.8l.5.8-.7.4-7.2-12.6.7-.4.5.8c.4.7.9 1.2 1.4 1.4.4.2.8.3 1.4.2.4-.1 1.3-.5 2.6-1.2l17.5-10.1c1.4-.8 2.2-1.3 2.4-1.7.3-.3.4-.8.4-1.3s-.2-1.2-.5-1.8l-.5-.8zM78.4 313.6l.7-.4 7.2 12.6-.7.4-.5-.8c-.4-.7-.9-1.2-1.4-1.4-.4-.2-.8-.3-1.4-.2-.4.1-1.3.5-2.6 1.2l-17.5 10.1c-1.4.8-2.2 1.3-2.4 1.7-.3.3-.4.8-.4 1.3s.2 1.2.5 1.8l.5.8-.7.4-7.2-12.6.7-.4.5.8c.4.7.9 1.2 1.4 1.4.4.2.8.3 1.4.2.4-.1 1.3-.5 2.6-1.2l17.5-10.1c1.4-.8 2.2-1.3 2.4-1.7.3-.3.4-.8.4-1.3s-.2-1.2-.5-1.8l-.5-.8z"/></g><g><path class="st0" d="M73.4 264.2h.8v14.5h-.8v-.9c0-.8-.2-1.5-.5-1.9-.2-.4-.6-.6-1.1-.8-.4-.1-1.3-.2-2.9-.2H48.7c-1.6 0-2.6.1-3 .2-.4.2-.7.5-1 .9-.3.5-.4 1.1-.4 1.9v.9h-.8v-14.5h.8v.9c0 .8.2 1.5.5 1.9.2.4.6.6 1.1.8.4.2 1.3.2 2.9.2h20.3c1.6 0 2.6-.1 3-.2.4-.2.7-.5 1-.9.3-.5.4-1.1.4-1.9v-.9zM56.2 245.6l12.6-7.6c2.1-1.3 3.4-2.2 3.8-2.7.4-.5.7-1.2.8-1.9h.8v13.5h-.8c-.1-1.1-.3-1.8-.5-2.1-.3-.3-.6-.5-1-.5-.3 0-.5 0-.7.1-.5.2-1.3.7-2.5 1.4l-6.7 4 5.7 4.2c1.7 1.3 2.9 1.9 3.5 1.9.4 0 .8-.2 1.2-.5.4-.3.7-.8.8-1.5.1-.3.1-.9.1-1.8h.8V263h-.8c-.2-1.2-.6-2.2-1.1-2.9-.7-.9-2.2-2.2-4.4-3.8l-7.5-5.5-11.3 7c-1.9 1.2-2.9 1.8-3.2 2-.5.4-.9.7-1.1 1.1-.2.4-.4.8-.5 1.5h-.8v-13.8h.8v.7c0 .8.1 1.3.4 1.7.3.3.6.5 1.1.5.3 0 .6 0 .9-.1L49 250l5.8-3.4-4-2.9c-2-1.5-3.5-2.2-4.3-2.2-.4 0-.8.1-1.1.3-.3.2-.6.5-.8.9-.2.4-.3 1-.3 1.8h-.8v-10.2h.8c0 .8.1 1.5.3 1.9.2.5.6 1 1.1 1.6.4.4 1.5 1.2 3.4 2.7l7.1 5.1z"/></g><g><path class="st0" d="M84.2 153.9l14.7-.3c2.4-.1 4-.2 4.6-.4.7-.2 1.2-.7 1.7-1.3l.7.4-6.7 11.7-.7-.4c.5-1 .6-1.7.6-2.1-.1-.4-.3-.7-.6-.9-.2-.1-.5-.2-.7-.2-.5-.1-1.5-.1-2.9 0l-7.8.2 2.9 6.5c.9 2 1.6 3.1 2.1 3.4.4.2.8.3 1.3.2.5-.1 1-.4 1.4-.8.2-.2.6-.7 1-1.5l.7.4-5.3 9.2-.7-.4c.4-1.1.6-2.2.5-3-.1-1.1-.8-3-1.9-5.5l-3.7-8.5-13.5.3c-2.2.1-3.5.1-3.7.1-.6.1-1.1.2-1.5.4-.4.2-.7.5-1.1 1l-.7-.4 6.9-11.9.7.4-.3.6c-.4.7-.6 1.2-.5 1.6.1.4.3.7.7.9.3.2.6.3.8.3H76l6.8-.1-2-4.5c-1-2.3-1.9-3.7-2.6-4.1-.4-.2-.7-.3-1.1-.3-.4 0-.8.1-1.2.4-.4.2-.8.7-1.2 1.4l-.7-.4 5.1-8.8.7.4c-.4.7-.6 1.3-.7 1.8-.1.5 0 1.2.2 1.9.1.5.7 1.8 1.6 4l3.3 8.3z"/></g><g><path class="st0" d="M151.5 85.6l12.9 7.1c2.1 1.2 3.6 1.8 4.2 1.9.7.1 1.4 0 2.1-.3l.4.7-11.7 6.8-.4-.7c.9-.6 1.4-1.1 1.5-1.5.1-.4.1-.8-.1-1.1-.1-.2-.3-.4-.5-.6-.4-.3-1.2-.8-2.5-1.5l-6.8-3.7-.8 7.1c-.2 2.1-.2 3.5.1 4 .2.4.6.7 1 .8.5.2 1 .2 1.7 0 .3-.1.8-.3 1.6-.8l.4.7-9.2 5.3-.4-.7c1-.8 1.6-1.6 1.9-2.4.4-1.1.8-3 1.1-5.7l1-9.2-11.9-6.4c-2-1.1-3-1.6-3.3-1.7-.6-.2-1.1-.4-1.5-.4-.4 0-.9.1-1.5.3l-.4-.7 11.9-6.9.4.7-.6.3c-.7.4-1.1.8-1.2 1.2-.1.4-.1.8.1 1.2.2.3.4.5.6.7l2.4 1.3 5.9 3.3.5-4.9c.3-2.5.2-4.1-.2-4.8-.2-.4-.5-.6-.8-.8-.4-.2-.8-.3-1.2-.3-.4 0-1 .2-1.7.7l-.4-.7 8.8-5.1.4.7c-.7.4-1.2.8-1.5 1.3-.3.4-.6 1-.8 1.8-.1.5-.3 1.9-.6 4.3l-.9 8.7zM184.3 86.5l.4.7-12.6 7.2-.4-.7.8-.5c.7-.4 1.2-.9 1.4-1.4.2-.4.3-.8.2-1.4-.1-.4-.5-1.3-1.2-2.6l-10.1-17.5c-.8-1.4-1.3-2.2-1.7-2.4-.3-.3-.8-.4-1.3-.4s-1.2.2-1.8.5l-.8.5-.4-.7 12.6-7.2.4.7-.8.5c-.7.4-1.2.9-1.4 1.4-.2.4-.3.8-.2 1.4.1.4.5 1.3 1.2 2.6l10.1 17.5c.8 1.4 1.3 2.2 1.7 2.4.3.3.8.4 1.3.4s1.2-.2 1.8-.5l.8-.5z"/></g></g></svg>