<svg version="1.1" id="icon" xmlns="http://www.w3.org/2000/svg" x="0" y="0" viewBox="0 0 512 512" xml:space="preserve"><style type="text/css">.st0{fill:#363636}</style><path class="st0" d="M250.7 0h10.5v21.1h-10.5zM250.7 490.9h10.5V512h-10.5z"/><path transform="rotate(-90 10.525 256)" class="st0" d="M5.3 245.5h10.5v21.1H5.3z"/><path transform="rotate(-90 501.475 256)" class="st0" d="M496.2 245.5h10.5v21.1h-10.5z"/><path transform="rotate(-60 43.412 133.266)" class="st0" d="M38.1 122.7h10.5v21.1H38.1z"/><path transform="rotate(-60 468.593 378.752)" class="st0" d="M463.3 368.2h10.5v21.1h-10.5z"/><path transform="rotate(-150 133.266 468.593)" class="st0" d="M128 458.1h10.5v21.1H128z"/><path transform="rotate(-150 378.742 43.412)" class="st0" d="M373.5 32.9H384V54h-10.5z"/><path transform="rotate(-30 133.259 43.418)" class="st0" d="M128 32.9h10.5V54H128z"/><path transform="rotate(-30 378.71 468.6)" class="st0" d="M373.5 458.1H384v21.1h-10.5z"/><path transform="rotate(-120 43.408 378.74)" class="st0" d="M38.2 368.2h10.5v21.1H38.2z"/><path transform="rotate(-120 468.59 133.27)" class="st0" d="M463.3 122.7h10.5v21.1h-10.5z"/><circle class="st0" cx="256" cy="256" r="11.3"/></svg>