<?xml version="1.0" encoding="utf-8"?>
<!-- Generator: Adobe Illustrator 19.2.0, SVG Export Plug-In . SVG Version: 6.00 Build 0)  -->
<svg version="1.1" id="icon" xmlns="http://www.w3.org/2000/svg" xmlns:xlink="http://www.w3.org/1999/xlink" x="0px" y="0px"
	 viewBox="0 0 512 512" style="enable-background:new 0 0 512 512;" xml:space="preserve">
<g>
	<path d="M256,12.7c32.9,0,64.7,6.4,94.7,19.1c29,12.3,55,29.8,77.3,52.2c22.3,22.3,39.9,48.4,52.2,77.3
		c12.7,30,19.1,61.9,19.1,94.7s-6.4,64.7-19.1,94.7c-12.3,29-29.8,55-52.2,77.3c-22.3,22.3-48.4,39.9-77.3,52.2
		c-30,12.7-61.9,19.1-94.7,19.1s-64.7-6.4-94.7-19.1c-29-12.3-55-29.8-77.3-52.2S44,379.7,31.8,350.7c-12.7-30-19.1-61.9-19.1-94.7
		s6.4-64.7,19.1-94.7c12.3-29,29.8-55,52.2-77.3c22.3-22.3,48.4-39.9,77.3-52.2C191.3,19.1,223.1,12.7,256,12.7 M256,4.7
		C117.2,4.7,4.7,117.2,4.7,256S117.2,507.3,256,507.3S507.3,394.8,507.3,256S394.8,4.7,256,4.7L256,4.7z"/>
	<g>
		<circle cx="256" cy="256" r="10.4"/>
		<g>
			<circle cx="256" cy="29.1" r="7.2"/>
			<circle cx="256" cy="482.9" r="7.2"/>
			<ellipse transform="matrix(0.866 -0.5 0.5 0.866 -10.6452 79.2402)" cx="142.5" cy="59.5" rx="7.2" ry="7.2"/>
			<ellipse transform="matrix(0.866 -0.5 0.5 0.866 -176.7598 245.3548)" cx="369.5" cy="452.5" rx="7.2" ry="7.2"/>
			<ellipse transform="matrix(0.866 -0.5 0.5 0.866 -10.6452 245.3548)" cx="452.5" cy="142.5" rx="7.2" ry="7.2"/>
			<ellipse transform="matrix(0.866 -0.5 0.5 0.866 -176.7598 79.2402)" cx="59.5" cy="369.5" rx="7.2" ry="7.2"/>
			<ellipse transform="matrix(0.5 -0.866 0.866 0.5 133.2143 349.7025)" cx="369.5" cy="59.5" rx="7.2" ry="7.2"/>
			<ellipse transform="matrix(0.5 -0.866 0.866 0.5 -320.6193 349.7025)" cx="142.5" cy="452.5" rx="7.2" ry="7.2"/>
			<ellipse transform="matrix(0.5 -0.866 0.866 0.5 -93.7025 122.7857)" cx="59.5" cy="142.5" rx="7.2" ry="7.2"/>
			<ellipse transform="matrix(0.5 -0.866 0.866 0.5 -93.7025 576.6193)" cx="452.5" cy="369.5" rx="7.2" ry="7.2"/>
			<circle cx="29.1" cy="256" r="7.2"/>
			<circle cx="482.9" cy="256" r="7.2"/>
		</g>
		<g>
			<g>
				<g>
					<ellipse transform="matrix(0.9945 -0.1045 0.1045 0.9945 -1.8975 24.4461)" cx="232.3" cy="30.3" rx="2.7" ry="2.7"/>
					<ellipse transform="matrix(0.9945 -0.1045 0.1045 0.9945 -48.8163 31.8773)" cx="279.7" cy="481.7" rx="2.7" ry="2.7"/>
				</g>
				<g>
					<ellipse transform="matrix(0.9781 -0.2079 0.2079 0.9781 -2.5145 44.1603)" cx="208.8" cy="34" rx="2.7" ry="2.7"/>
					<ellipse transform="matrix(0.9781 -0.2079 0.2079 0.9781 -92.7479 73.4789)" cx="303.2" cy="478" rx="2.7" ry="2.7"/>
				</g>
				<g>
					<ellipse transform="matrix(0.9511 -0.309 0.309 0.9511 -3.3216 59.4067)" cx="185.9" cy="40.2" rx="2.7" ry="2.7"/>
					<ellipse transform="matrix(0.9511 -0.309 0.309 0.9511 -129.836 123.869)" cx="326.1" cy="471.8" rx="2.7" ry="2.7"/>
				</g>
				<g>
					<ellipse transform="matrix(0.9135 -0.4067 0.4067 0.9135 -5.6556 70.7951)" cx="163.7" cy="48.7" rx="2.7" ry="2.7"/>
					<ellipse transform="matrix(0.9135 -0.4067 0.4067 0.9135 -158.3289 181.7188)" cx="348.3" cy="463.3" rx="2.7" ry="2.7"/>
				</g>
			</g>
			<g>
				<g>
					<ellipse transform="matrix(0.809 -0.5878 0.5878 0.809 -19.149 85.9063)" cx="122.6" cy="72.4" rx="2.7" ry="2.7"/>
					<ellipse transform="matrix(0.809 -0.5878 0.5878 0.809 -184.0137 312.8231)" cx="389.4" cy="439.6" rx="2.7" ry="2.7"/>
				</g>
				<g>
					<ellipse transform="matrix(0.7431 -0.6691 0.6691 0.7431 -31.7058 92.1396)" cx="104.2" cy="87.4" rx="2.7" ry="2.7"/>
					<ellipse transform="matrix(0.7431 -0.6691 0.6691 0.7431 -179.3793 381.9651)" cx="407.8" cy="424.6" rx="2.7" ry="2.7"/>
				</g>
				<g>
					<ellipse transform="matrix(0.6691 -0.7431 0.7431 0.6691 -48.5008 99.3914)" cx="87.4" cy="104.2" rx="2.7" ry="2.7"/>
					<ellipse transform="matrix(0.6691 -0.7431 0.7431 0.6691 -162.5842 450.5039)" cx="424.6" cy="407.8" rx="2.7" ry="2.7"/>
				</g>
				<g>
					<ellipse transform="matrix(0.5878 -0.809 0.809 0.5878 -69.3502 109.1358)" cx="72.4" cy="122.6" rx="2.7" ry="2.7"/>
					<ellipse transform="matrix(0.5878 -0.809 0.809 0.5878 -133.8125 516.1348)" cx="439.6" cy="389.4" rx="2.7" ry="2.7"/>
				</g>
			</g>
			<g>
				<g>
					<ellipse transform="matrix(0.4067 -0.9135 0.9135 0.4067 -120.659 141.6107)" cx="48.7" cy="163.7" rx="2.7" ry="2.7"/>
					<ellipse transform="matrix(0.4067 -0.9135 0.9135 0.4067 -43.3255 629.8754)" cx="463.3" cy="348.3" rx="2.7" ry="2.7"/>
				</g>
				<g>
					<ellipse transform="matrix(0.309 -0.9511 0.9511 0.309 -149.0112 166.6614)" cx="40.2" cy="185.9" rx="2.7" ry="2.7"/>
					<ellipse transform="matrix(0.309 -0.9511 0.9511 0.309 15.8535 674.0628)" cx="471.8" cy="326.1" rx="2.7" ry="2.7"/>
				</g>
				<g>
					<ellipse transform="matrix(0.2079 -0.9781 0.9781 0.2079 -177.2939 198.7029)" cx="34" cy="208.8" rx="2.7" ry="2.7"/>
					<ellipse transform="matrix(0.2079 -0.9781 0.9781 0.2079 82.0316 707.6578)" cx="478" cy="303.2" rx="2.7" ry="2.7"/>
				</g>
				<g>
					<ellipse transform="matrix(0.1045 -0.9945 0.9945 0.1045 -203.852 238.1609)" cx="30.3" cy="232.3" rx="2.7" ry="2.7"/>
					<ellipse transform="matrix(0.1045 -0.9945 0.9945 0.1045 153.1382 729.5157)" cx="481.7" cy="279.7" rx="2.7" ry="2.7"/>
				</g>
			</g>
			<g>
				<g>
					<ellipse transform="matrix(0.9945 -0.1045 0.1045 0.9945 -29.0725 4.7023)" cx="30.3" cy="279.7" rx="2.7" ry="2.7"/>
					<ellipse transform="matrix(0.9945 -0.1045 0.1045 0.9945 -21.6413 51.6211)" cx="481.7" cy="232.3" rx="2.7" ry="2.7"/>
				</g>
				<g>
					<ellipse transform="matrix(0.9781 -0.2079 0.2079 0.9781 -62.2905 13.7029)" cx="34" cy="303.2" rx="2.7" ry="2.7"/>
					<ellipse transform="matrix(0.9781 -0.2079 0.2079 0.9781 -32.9719 103.9363)" cx="478" cy="208.8" rx="2.7" ry="2.7"/>
				</g>
				<g>
					<ellipse transform="matrix(0.9511 -0.309 0.309 0.9511 -98.81 28.3807)" cx="40.2" cy="326.1" rx="2.7" ry="2.7"/>
					<ellipse transform="matrix(0.9511 -0.309 0.309 0.9511 -34.3477 154.8951)" cx="471.8" cy="185.9" rx="2.7" ry="2.7"/>
				</g>
				<g>
					<ellipse transform="matrix(0.9135 -0.4067 0.4067 0.9135 -137.4541 49.9203)" cx="48.7" cy="348.3" rx="2.7" ry="2.7"/>
					<ellipse transform="matrix(0.9135 -0.4067 0.4067 0.9135 -26.5304 202.5936)" cx="463.3" cy="163.7" rx="2.7" ry="2.7"/>
				</g>
			</g>
			<g>
				<g>
					<ellipse transform="matrix(0.809 -0.5878 0.5878 0.809 -215.0398 116.9323)" cx="72.4" cy="389.4" rx="2.7" ry="2.7"/>
					<ellipse transform="matrix(0.809 -0.5878 0.5878 0.809 11.877 281.797)" cx="439.6" cy="122.6" rx="2.7" ry="2.7"/>
				</g>
				<g>
					<ellipse transform="matrix(0.7431 -0.6691 0.6691 0.7431 -250.4553 163.2156)" cx="87.4" cy="407.8" rx="2.7" ry="2.7"/>
					<ellipse transform="matrix(0.7431 -0.6691 0.6691 0.7431 39.3703 310.8891)" cx="424.6" cy="104.2" rx="2.7" ry="2.7"/>
				</g>
				<g>
					<ellipse transform="matrix(0.6691 -0.7431 0.7431 0.6691 -281.0988 217.906)" cx="104.2" cy="424.6" rx="2.7" ry="2.7"/>
					<ellipse transform="matrix(0.6691 -0.7431 0.7431 0.6691 70.0137 331.9893)" cx="407.8" cy="87.4" rx="2.7" ry="2.7"/>
				</g>
				<g>
					<ellipse transform="matrix(0.5878 -0.809 0.809 0.5878 -305.0809 280.4042)" cx="122.6" cy="439.6" rx="2.7" ry="2.7"/>
					<ellipse transform="matrix(0.5878 -0.809 0.809 0.5878 101.9181 344.8665)" cx="389.4" cy="72.4" rx="2.7" ry="2.7"/>
				</g>
			</g>
			<g>
				<g>
					<ellipse transform="matrix(0.4067 -0.9135 0.9135 0.4067 -326.1246 424.4098)" cx="163.7" cy="463.3" rx="2.7" ry="2.7"/>
					<ellipse transform="matrix(0.4067 -0.9135 0.9135 0.4067 162.1401 347.0763)" cx="348.3" cy="48.7" rx="2.7" ry="2.7"/>
				</g>
				<g>
					<ellipse transform="matrix(0.309 -0.9511 0.9511 0.309 -320.2795 502.7945)" cx="185.9" cy="471.8" rx="2.7" ry="2.7"/>
					<ellipse transform="matrix(0.309 -0.9511 0.9511 0.309 187.1219 337.9298)" cx="326.1" cy="40.2" rx="2.7" ry="2.7"/>
				</g>
				<g>
					<ellipse transform="matrix(0.2079 -0.9781 0.9781 0.2079 -302.1086 582.8431)" cx="208.8" cy="478" rx="2.7" ry="2.7"/>
					<ellipse transform="matrix(0.2079 -0.9781 0.9781 0.2079 206.8463 323.5176)" cx="303.2" cy="34" rx="2.7" ry="2.7"/>
				</g>
				<g>
					<ellipse transform="matrix(0.1045 -0.9945 0.9945 0.1045 -271.0343 662.3334)" cx="232.3" cy="481.7" rx="2.7" ry="2.7"/>
					<ellipse transform="matrix(0.1045 -0.9945 0.9945 0.1045 220.3205 305.3433)" cx="279.7" cy="30.3" rx="2.7" ry="2.7"/>
				</g>
			</g>
		</g>
	</g>
</g>
</svg>
