<?xml version="1.0" encoding="utf-8"?>
<!-- Generator: Adobe Illustrator 19.2.0, SVG Export Plug-In . SVG Version: 6.00 Build 0)  -->
<svg version="1.1" id="icon" xmlns="http://www.w3.org/2000/svg" xmlns:xlink="http://www.w3.org/1999/xlink" x="0px" y="0px"
	 viewBox="0 0 512 512" style="enable-background:new 0 0 512 512;" xml:space="preserve">
<g>
	<circle cx="256" cy="256" r="11.1"/>
	<g>
		<g>
			<path d="M506.3,246.5c0,2.1-0.6,4-1.9,5.5s-3.1,2.5-5.5,3.1v0.1c2.8,0.3,4.9,1.2,6.3,2.5s2.1,3.1,2.1,5.4c0,3.3-1.2,5.9-3.6,7.7
				s-5.8,2.8-10.2,2.8c-3.7,0-7-0.6-9.9-1.9v-6.2c1.3,0.7,2.8,1.2,4.4,1.6s3.2,0.6,4.7,0.6c2.4,0,4.2-0.4,5.3-1.2s1.7-2.1,1.7-3.9
				c0-1.6-0.7-2.8-2-3.4s-3.4-1-6.3-1h-2.6v-5.6h2.6c2.7,0,4.6-0.3,5.8-1s1.8-1.9,1.8-3.6c0-2.6-1.6-3.9-4.9-3.9
				c-1.1,0-2.3,0.2-3.4,0.6s-2.5,1-3.9,1.9l-3.4-5c3.1-2.3,6.9-3.4,11.2-3.4c3.5,0,6.3,0.7,8.4,2.2S506.3,244,506.3,246.5z"/>
		</g>
		<g>
			<path d="M381.2,72.8H374V53l0.1-3.3l0.1-3.6c-1.2,1.2-2,2-2.5,2.4l-3.9,3.2l-3.5-4.4l11-8.8h6V72.8z"/>
		</g>
		<g>
			<path d="M133.3,475.4l12.9-28.1h-16.9v-6.1h24.6v4.5l-13,29.7H133.3z"/>
		</g>
		<g>
			<path d="M473.2,155.3h-24v-5l8.6-8.7c2.5-2.6,4.2-4.4,5-5.4s1.3-1.9,1.7-2.8s0.5-1.8,0.5-2.7c0-1.4-0.4-2.4-1.1-3.1
				c-0.8-0.7-1.8-1-3-1c-1.3,0-2.6,0.3-3.9,0.9c-1.3,0.6-2.6,1.5-3.9,2.6l-3.9-4.7c1.7-1.4,3.1-2.5,4.2-3s2.3-1.1,3.6-1.4
				s2.8-0.5,4.4-0.5c2.1,0,4,0.4,5.7,1.2s2.9,1.9,3.8,3.3s1.4,3,1.4,4.8c0,1.6-0.3,3.1-0.8,4.4s-1.4,2.8-2.6,4.3s-3.2,3.5-6.2,6.2
				l-4.4,4.1v0.3h14.9V155.3z"/>
		</g>
		<g>
			<path d="M52.4,352.7c3.3,0,5.9,0.7,7.9,2.2s3,3.5,3,6c0,1.8-0.5,3.3-1.5,4.7s-2.5,2.6-4.7,3.7c2.6,1.4,4.4,2.8,5.5,4.3
				s1.7,3.1,1.7,4.9c0,2.8-1.1,5.1-3.3,6.8s-5.1,2.6-8.7,2.6c-3.8,0-6.7-0.8-8.8-2.4s-3.2-3.9-3.2-6.8c0-2,0.5-3.7,1.6-5.2
				s2.7-2.9,5-4c-2-1.2-3.4-2.6-4.2-4s-1.3-2.9-1.3-4.6c0-2.5,1-4.4,3-6S49.1,352.7,52.4,352.7z M47.1,378.3c0,1.3,0.5,2.4,1.4,3.1
				s2.2,1.1,3.8,1.1c1.8,0,3.1-0.4,4-1.2s1.3-1.8,1.3-3.1c0-1-0.4-2-1.3-2.9s-2.3-1.9-4.3-2.9C48.7,374,47.1,375.9,47.1,378.3z
				 M52.4,358c-1.2,0-2.2,0.3-3,0.9s-1.1,1.5-1.1,2.5c0,0.9,0.3,1.8,0.9,2.5s1.7,1.5,3.3,2.3c1.5-0.7,2.6-1.5,3.2-2.2
				s0.9-1.6,0.9-2.6c0-1.1-0.4-1.9-1.2-2.6S53.6,358,52.4,358z"/>
		</g>
		<g>
			<path d="M28.9,253.5c0,6.8-1.4,11.8-4.3,15.1s-7.1,5-12.9,5c-2,0-3.6-0.1-4.6-0.3v-5.8c1.3,0.3,2.7,0.5,4.1,0.5
				c2.4,0,4.4-0.4,6-1.1s2.8-1.8,3.6-3.4s1.3-3.6,1.4-6.3h-0.3c-0.9,1.5-2,2.5-3.1,3.1s-2.7,0.9-4.5,0.9c-3,0-5.3-1-7.1-2.9
				s-2.6-4.6-2.6-8c0-3.7,1-6.6,3.1-8.7s4.9-3.2,8.5-3.2c2.5,0,4.7,0.6,6.6,1.8s3.4,2.9,4.4,5.2S28.9,250.3,28.9,253.5z M16.5,244.2
				c-1.5,0-2.7,0.5-3.5,1.5s-1.3,2.5-1.3,4.5c0,1.7,0.4,3,1.1,3.9s1.9,1.5,3.5,1.5c1.5,0,2.7-0.5,3.8-1.4s1.6-2.1,1.6-3.3
				c0-1.9-0.5-3.4-1.5-4.7S18,244.2,16.5,244.2z"/>
		</g>
		<g>
			<path d="M474.1,380.8H470v7.1h-7.1v-7.1h-14.6v-5l15-22.1h6.7v21.5h4.1V380.8z M462.9,375.2v-5.8c0-1,0-2.4,0.1-4.2
				s0.1-2.9,0.2-3.2H463c-0.6,1.3-1.3,2.5-2.1,3.8l-6.3,9.5H462.9z"/>
		</g>
		<g>
			<path d="M56.3,154.8H49V135l0.1-3.3l0.1-3.6c-1.2,1.2-2,2-2.5,2.4l-3.9,3.2l-3.5-4.4l11-8.8h6V154.8z"/>
			<path d="M89.5,137.7c0,6-1,10.4-2.9,13.3s-5,4.3-9.1,4.3c-4,0-6.9-1.5-8.9-4.5s-3-7.4-3-13.1c0-6,1-10.5,2.9-13.4s5-4.3,9-4.3
				c4,0,6.9,1.5,9,4.5S89.5,131.9,89.5,137.7z M72.8,137.7c0,4.2,0.4,7.2,1.1,9s1.9,2.7,3.7,2.7c1.7,0,2.9-0.9,3.7-2.8
				s1.1-4.8,1.1-9c0-4.2-0.4-7.2-1.1-9.1c-0.8-1.8-2-2.8-3.6-2.8c-1.7,0-2.9,0.9-3.7,2.8C73.1,130.5,72.8,133.5,72.8,137.7z"/>
		</g>
		<g>
			<path d="M373.3,453c3.3,0,5.9,0.9,7.9,2.8s2.9,4.4,2.9,7.6c0,3.8-1.2,6.8-3.5,8.8s-5.7,3.1-10.1,3.1c-3.8,0-6.9-0.6-9.2-1.9v-6.3
				c1.2,0.7,2.7,1.2,4.3,1.6s3.2,0.6,4.7,0.6c4.4,0,6.6-1.8,6.6-5.4c0-3.5-2.3-5.2-6.9-5.2c-0.8,0-1.7,0.1-2.7,0.2s-1.8,0.3-2.4,0.5
				l-2.9-1.5l1.3-17.5h18.6v6.1h-12.2l-0.6,6.7l0.8-0.2C370.7,453.1,371.9,453,373.3,453z"/>
		</g>
		<g>
			<path d="M135.5,72.8h-7.2V53l0.1-3.3l0.1-3.6c-1.2,1.2-2,2-2.5,2.4l-3.9,3.2l-3.5-4.4l11-8.8h6V72.8z"/>
			<path d="M162.9,72.8h-7.2V53l0.1-3.3l0.1-3.6c-1.2,1.2-2,2-2.5,2.4l-3.9,3.2l-3.5-4.4l11-8.8h6V72.8z"/>
		</g>
		<g>
			<path d="M243.9,492.3c0-6.8,1.4-11.8,4.3-15.1s7.2-5,12.9-5c2,0,3.5,0.1,4.6,0.4v5.8c-1.4-0.3-2.8-0.5-4.1-0.5
				c-2.5,0-4.5,0.4-6.1,1.1s-2.7,1.9-3.5,3.3s-1.2,3.6-1.4,6.3h0.3c1.5-2.7,4-4,7.4-4c3.1,0,5.5,1,7.2,2.9s2.6,4.6,2.6,8
				c0,3.7-1,6.6-3.1,8.7s-4.9,3.2-8.6,3.2c-2.5,0-4.7-0.6-6.6-1.8s-3.3-2.9-4.4-5.1S243.9,495.5,243.9,492.3z M256.3,501.5
				c1.5,0,2.7-0.5,3.6-1.6s1.2-2.5,1.2-4.4c0-1.7-0.4-3-1.2-3.9s-1.9-1.4-3.5-1.4c-1.5,0-2.7,0.5-3.8,1.4s-1.6,2.1-1.6,3.3
				c0,1.9,0.5,3.4,1.5,4.7S254.8,501.5,256.3,501.5z"/>
		</g>
		<g>
			<path d="M247.8,39.4h-7.2V19.6l0.1-3.3l0.1-3.6c-1.2,1.2-2,2-2.5,2.4l-3.9,3.2l-3.5-4.4l11-8.8h6V39.4z"/>
			<path d="M281.2,39.4h-24v-5l8.6-8.7c2.5-2.6,4.2-4.4,5-5.4s1.3-1.9,1.7-2.8s0.5-1.7,0.5-2.7c0-1.4-0.4-2.4-1.1-3.1s-1.8-1-3-1
				c-1.3,0-2.6,0.3-3.9,0.9s-2.6,1.5-3.9,2.6l-3.9-4.7c1.7-1.4,3.1-2.5,4.2-3s2.3-1.1,3.6-1.4s2.8-0.5,4.4-0.5c2.1,0,4,0.4,5.7,1.2
				s2.9,1.9,3.8,3.3s1.4,3,1.4,4.8c0,1.6-0.3,3.1-0.8,4.4s-1.4,2.8-2.6,4.3s-3.2,3.5-6.2,6.2l-4.4,4.1v0.3h14.9V39.4z"/>
		</g>
	</g>
</g>
</svg>
