<svg version="1.1" id="icon" xmlns="http://www.w3.org/2000/svg" x="0" y="0" viewBox="0 0 512 512" xml:space="preserve"><style type="text/css">.st0{fill:#363636}</style><circle class="st0" cx="256" cy="256" r="10.3"/><path class="st0" d="M256 8.1c33.5 0 65.9 6.6 96.5 19.5 29.5 12.5 56 30.4 78.8 53.1 22.8 22.8 40.6 49.3 53.1 78.8 12.9 30.6 19.5 63 19.5 96.5s-6.6 65.9-19.5 96.5c-12.5 29.5-30.4 56-53.1 78.8-22.8 22.8-49.3 40.6-78.8 53.1-30.6 12.9-63 19.5-96.5 19.5s-65.9-6.6-96.5-19.5c-29.5-12.5-56-30.4-78.8-53.1C58 408.5 40.1 382 27.6 352.5c-12.9-30.6-19.5-63-19.5-96.5s6.6-65.9 19.5-96.5c12.5-29.5 30.4-56 53.1-78.8C103.5 58 130 40.1 159.5 27.6c30.6-12.9 63-19.5 96.5-19.5m0-8.1C114.6 0 0 114.6 0 256s114.6 256 256 256 256-114.6 256-256S397.4 0 256 0z"/><path class="st0" d="M250.9 8.1h10.2v20.4h-10.2zM250.9 483.5h10.2v20.4h-10.2z"/><path transform="rotate(-90 18.339 256)" class="st0" d="M13.2 245.8h10.2v20.4H13.2z"/><path transform="rotate(-90 493.661 256)" class="st0" d="M488.6 245.8h10.2v20.4h-10.2z"/><path transform="rotate(-60 50.179 137.173)" class="st0" d="M45.1 127h10.2v20.4H45.1z"/><path transform="rotate(-60 461.826 374.845)" class="st0" d="M456.7 364.6h10.2V385h-10.2z"/><path transform="rotate(-150 137.173 461.826)" class="st0" d="M132.1 451.6h10.2V472h-10.2z"/><path transform="rotate(-150 374.836 50.179)" class="st0" d="M369.7 40h10.2v20.4h-10.2z"/><path transform="rotate(-30 137.165 50.185)" class="st0" d="M132.1 40h10.2v20.4h-10.2z"/><path transform="rotate(-30 374.804 461.833)" class="st0" d="M369.7 451.6h10.2V472h-10.2z"/><path transform="rotate(-120 50.175 374.834)" class="st0" d="M45.1 364.6h10.2V385H45.1z"/><path transform="rotate(-120 461.822 137.176)" class="st0" d="M456.7 127h10.2v20.4h-10.2z"/><g><path transform="rotate(23.999 354.77 34.237)" class="st0" d="M353.3 29.1h3v10.2h-3z"/><path transform="rotate(23.999 157.31 477.73)" class="st0" d="M155.8 472.5h3v10.4h-3z"/><path transform="rotate(17.998 331.034 25.131)" class="st0" d="M329.5 20h3v10.2h-3z"/><path transform="rotate(17.998 181.016 486.818)" class="st0" d="M179.5 481.6h3V492h-3z"/><g><path transform="rotate(12 306.49 18.55)" class="st0" d="M305 13.5h3v10.2h-3z"/><path transform="rotate(12 205.558 493.39)" class="st0" d="M204.1 488.2h3v10.4h-3z"/></g><g><path transform="rotate(6.012 281.452 14.514)" class="st0" d="M279.9 9.5h3v10.2h-3z"/><path transform="rotate(6.012 230.805 497.413)" class="st0" d="M229.2 492.1h3v10.4h-3z"/></g></g><g><path transform="rotate(53.999 452.404 113.317)" class="st0" d="M450.9 108.2h3v10.2h-3z"/><path transform="rotate(53.999 59.68 398.644)" class="st0" d="M58.2 393.4h3v10.4h-3z"/><path transform="rotate(48 436.43 93.572)" class="st0" d="M434.9 88.5h3v10.2h-3z"/><path transform="rotate(48 75.668 418.4)" class="st0" d="M74.2 413.2h3v10.4h-3z"/><g><path transform="rotate(42 418.455 75.599)" class="st0" d="M417 70.5h3v10.2h-3z"/><path transform="rotate(42 93.632 436.354)" class="st0" d="M92.1 431.1h3v10.4h-3z"/></g><g><path transform="rotate(36.002 398.677 59.597)" class="st0" d="M397.2 54.5h3v10.2h-3z"/><path transform="rotate(36.002 113.37 452.303)" class="st0" d="M111.9 447.1h3v10.4h-3z"/></g></g><g><path transform="rotate(84.002 497.432 230.611)" class="st0" d="M495.9 225.5h3v10.2h-3z"/><path transform="rotate(84.002 14.673 281.364)" class="st0" d="M13.2 276.2h3v10.4h-3z"/><path transform="rotate(78 493.475 205.538)" class="st0" d="M492 200.4h3v10.2h-3z"/><path transform="rotate(78 18.64 306.467)" class="st0" d="M17.2 301.3h3v10.4h-3z"/><g><path transform="rotate(72.002 486.85 180.967)" class="st0" d="M485.4 175.9h3v10.2h-3z"/><path transform="rotate(72.002 25.216 330.968)" class="st0" d="M23.7 325.8h3v10.4h-3z"/></g><g><path transform="rotate(66.001 477.792 157.266)" class="st0" d="M476.3 152.2h3v10.2h-3z"/><path transform="rotate(66.001 34.32 354.716)" class="st0" d="M32.8 349.5h3v10.4h-3z"/></g></g><g><path transform="scale(-1) rotate(-66.001 -546.279 735.729)" class="st0" d="M476.3 349.6h3v10.2h-3z"/><path transform="scale(-1) rotate(-66.001 -242.231 52.841)" class="st0" d="M32.8 152.1h3v10.4h-3z"/><path transform="scale(-1) rotate(-72.002 -455.588 670.081)" class="st0" d="M485.4 325.9h3v10.2h-3z"/><path transform="scale(-1) rotate(-72.002 -249.129 34.696)" class="st0" d="M23.7 175.8h3v10.4h-3z"/><g><path transform="scale(-1) rotate(-78 -378.48 609.391)" class="st0" d="M492 301.4h3v10.2h-3z"/><path transform="scale(-1) rotate(-78 -253.842 23.017)" class="st0" d="M17.2 200.4h3v10.4h-3z"/></g><g><path transform="rotate(95.998 497.438 281.383)" class="st0" d="M495.9 276.3h3v10.2h-3z"/><path transform="rotate(95.998 14.665 230.64)" class="st0" d="M13.2 225.4h3v10.4h-3z"/></g></g><g><path transform="rotate(143.998 398.686 452.4)" class="st0" d="M397.2 447.3h3v10.2h-3z"/><path transform="rotate(143.998 113.366 59.682)" class="st0" d="M111.9 54.5h3v10.4h-3z"/><path transform="scale(-1) rotate(-42 -1136.923 1090.107)" class="st0" d="M417 431.3h3v10.2h-3z"/><path transform="scale(-1) rotate(-42 -197.124 243.914)" class="st0" d="M92.1 70.5h3v10.4h-3z"/><g><path transform="scale(-1) rotate(-48 -939.877 980.242)" class="st0" d="M434.9 413.3h3v10.2h-3z"/><path transform="scale(-1) rotate(-48 -210.3 169.958)" class="st0" d="M74.2 88.4h3v10.4h-3z"/></g><g><path transform="rotate(126.001 452.398 398.682)" class="st0" d="M450.9 393.6h3v10.2h-3z"/><path transform="rotate(126.001 59.682 113.364)" class="st0" d="M58.2 108.2h3v10.4h-3z"/></g></g><g><path transform="rotate(173.988 281.385 497.428)" class="st0" d="M279.9 492.3h3v10.2h-3z"/><path transform="rotate(173.988 230.638 14.662)" class="st0" d="M229.2 9.5h3v10.4h-3z"/><path transform="scale(-1) rotate(-12 -4695.14 2916.053)" class="st0" d="M305 488.4h3v10.2h-3z"/><path transform="scale(-1) rotate(-12 -177.342 1955.761)" class="st0" d="M204.1 13.5h3v10.4h-3z"/><g><path transform="scale(-1) rotate(-17.998 -3074.153 2090.117)" class="st0" d="M329.5 481.8h3V492h-3z"/><path transform="scale(-1) rotate(-17.998 -159.178 1142.936)" class="st0" d="M179.5 20h3v10.4h-3z"/></g><g><path transform="scale(-1) rotate(-23.999 -2247.92 1669.08)" class="st0" d="M353.3 472.7h3v10.2h-3z"/><path transform="scale(-1) rotate(-23.999 -161.45 740.105)" class="st0" d="M155.8 29.1h3v10.4h-3z"/></g></g><g><path class="st0" d="M243.8 73.6l7 11.5c1.2 1.9 2 3.1 2.5 3.5.5.4 1.1.7 1.7.7v.7h-12.3v-.8c1-.1 1.6-.2 1.9-.5.3-.2.4-.6.4-.9 0-.2 0-.5-.1-.7-.2-.4-.6-1.2-1.3-2.3l-3.7-6.1L236 84c-1.2 1.6-1.7 2.7-1.7 3.2 0 .4.1.8.4 1.1.3.3.7.6 1.3.7.3.1.8.1 1.6.1v.9h-9.7v-.8c1.1-.2 2-.5 2.6-1 .8-.6 2-2 3.5-4l5-6.8-6.4-10.4c-1.1-1.7-1.7-2.7-1.8-2.9-.3-.5-.7-.8-1-1-.3-.2-.8-.3-1.3-.4v-.8H241v.8h-.6c-.7 0-1.2.1-1.5.4-.3.3-.4.6-.4 1 0 .3 0 .6.1.8l1.3 2.2 3.1 5.3 2.7-3.6c1.4-1.9 2.1-3.2 2.1-3.9 0-.4-.1-.7-.3-1-.2-.3-.5-.6-.8-.7-.4-.2-.9-.3-1.7-.3v-.8h9.3v.8c-.7 0-1.3.1-1.8.3-.4.2-.9.5-1.4 1-.3.3-1.1 1.4-2.4 3.1l-4.9 6.3zM269.2 89.3v.7H256v-.8h.8c.7 0 1.3-.1 1.8-.4.3-.2.6-.5.7-1 .1-.3.2-1.2.2-2.6V66.7c0-1.4-.1-2.3-.2-2.7-.1-.4-.4-.7-.8-.9-.4-.3-1-.4-1.7-.4h-.8v-.8h13.2v.8h-.8c-.7 0-1.3.1-1.8.4-.3.2-.6.5-.8 1-.1.3-.2 1.2-.2 2.6v18.5c0 1.4.1 2.3.2 2.7.1.4.4.7.8.9.4.3 1 .4 1.7.4h.9zM284.1 89.3v.7h-13.2v-.8h.8c.7 0 1.3-.1 1.8-.4.3-.2.6-.5.7-1 .1-.3.2-1.2.2-2.6V66.7c0-1.4-.1-2.3-.2-2.7-.1-.4-.4-.7-.8-.9-.4-.3-1-.4-1.7-.4h-.8v-.8h13.2v.8h-.8c-.7 0-1.3.1-1.8.4-.3.2-.6.5-.8 1-.1.3-.2 1.2-.2 2.6v18.5c0 1.4.1 2.3.2 2.7.1.4.4.7.8.9.4.3 1 .4 1.7.4h.9zM345.1 114.9l-.4.7-11.5-6.6.4-.7.7.4c.6.4 1.2.5 1.8.5.4 0 .8-.2 1.1-.5.3-.2.8-.9 1.5-2.2l9.2-16c.7-1.2 1.1-2.1 1.2-2.4.1-.4 0-.8-.2-1.2-.2-.4-.6-.8-1.3-1.2l-.7-.4.4-.7 11.5 6.6-.4.7-.7-.4c-.6-.4-1.2-.5-1.8-.5-.4 0-.8.2-1.2.5-.3.2-.8.9-1.5 2.2l-9.2 16c-.7 1.2-1.1 2.1-1.2 2.4-.1.4 0 .8.3 1.2.2.4.6.8 1.3 1.2l.7.4zM400 171.9l-.7.4-6.6-11.5.7-.4.4.7c.4.6.8 1.1 1.3 1.3.3.2.7.2 1.2.1.4 0 1.1-.4 2.4-1.1l16-9.2c1.2-.7 2-1.2 2.2-1.5.2-.3.4-.7.4-1.2s-.1-1.1-.5-1.7l-.4-.7.7-.4 6.6 11.5-.7.4-.4-.7c-.4-.6-.8-1.1-1.3-1.3-.3-.2-.7-.2-1.2-.2-.4 0-1.1.4-2.4 1.1l-16 9.2c-1.2.7-2 1.2-2.2 1.5-.2.3-.4.7-.4 1.2s.1 1.1.5 1.7l.4.8zM407.4 184.8l-.7.4-6.6-11.5.7-.4.4.7c.4.6.8 1.1 1.3 1.3.3.2.7.2 1.2.1.4 0 1.1-.4 2.4-1.1l16-9.2c1.2-.7 2-1.2 2.2-1.5.2-.3.4-.7.4-1.2s-.1-1.1-.5-1.7l-.4-.7.7-.4 6.6 11.5-.7.4-.4-.7c-.4-.6-.8-1.1-1.3-1.3-.3-.2-.7-.2-1.2-.2-.4 0-1.1.4-2.4 1.1l-16 9.2c-1.2.7-2 1.2-2.2 1.5-.2.3-.4.7-.4 1.2s.1 1.1.5 1.7l.4.8zM422.7 247.7h-.7v-13.2h.8v.8c0 .7.1 1.3.4 1.8.2.3.5.6 1 .7.3.1 1.2.2 2.6.2h18.5c1.4 0 2.3-.1 2.7-.2.4-.1.7-.4.9-.8.3-.4.4-1 .4-1.7v-.8h.8v13.2h-.8v-.8c0-.7-.1-1.3-.4-1.8-.2-.3-.5-.6-1-.8-.3-.1-1.2-.2-2.6-.2h-18.5c-1.4 0-2.3.1-2.7.2-.4.1-.7.4-.9.8-.3.4-.4 1-.4 1.7v.9zM422.7 262.6h-.7v-13.2h.8v.8c0 .7.1 1.3.4 1.8.2.3.5.6 1 .7.3.1 1.2.2 2.6.2h18.5c1.4 0 2.3-.1 2.7-.2.4-.1.7-.4.9-.8.3-.4.4-1 .4-1.7v-.8h.8v13.2h-.8v-.8c0-.7-.1-1.3-.4-1.8-.2-.3-.5-.6-1-.8-.3-.1-1.2-.2-2.6-.2h-18.5c-1.4 0-2.3.1-2.7.2-.4.1-.7.4-.9.8-.3.4-.4 1-.4 1.7v.9zM422.7 277.5h-.7v-13.2h.8v.8c0 .7.1 1.3.4 1.8.2.3.5.6 1 .7.3.1 1.2.2 2.6.2h18.5c1.4 0 2.3-.1 2.7-.2.4-.1.7-.4.9-.8.3-.4.4-1 .4-1.7v-.8h.8v13.2h-.8v-.8c0-.7-.1-1.3-.4-1.8-.2-.3-.5-.6-1-.8-.3-.1-1.2-.2-2.6-.2h-18.5c-1.4 0-2.3.1-2.7.2-.4.1-.7.4-.9.8-.3.4-.4 1-.4 1.7v.9zM404.1 332.9l-.7-.4L410 321l.7.4-.4.7c-.4.6-.5 1.2-.5 1.8 0 .4.2.8.5 1.1.2.3.9.8 2.2 1.5l16 9.2c1.2.7 2.1 1.1 2.4 1.2.4.1.8 0 1.2-.2.4-.2.8-.6 1.2-1.3l.4-.7.7.4-6.6 11.5-.7-.4.4-.7c.4-.6.5-1.2.5-1.8 0-.4-.2-.8-.5-1.2-.2-.3-.9-.8-2.2-1.5l-16-9.2c-1.2-.7-2.1-1.1-2.4-1.2-.4-.1-.8 0-1.2.3-.4.2-.8.6-1.2 1.3l-.4.7zM413.7 370.9l-.7-.4c.3-.9.3-1.9-.2-3-.3-.8-1.4-2.3-3.1-4.5l-14.2-18.3.3-.5 23.7 3.7c2.9.4 4.6.6 5.2.6.6-.1 1.2-.5 1.8-1.3l.7.4-6.1 10.5-.7-.4.2-.4c.5-.9.8-1.7.7-2.2 0-.4-.2-.6-.6-.8-.2-.1-.5-.2-.8-.3-.3-.1-1.3-.2-2.9-.5l-14.8-2.3 8.3 10.6c1 1.3 1.7 2.1 2.1 2.5.4.4.7.7 1 .8.4.2.7.3 1.1.3.4 0 .7-.1 1.1-.4.5-.3.9-.9 1.4-1.7l.7.4-4.2 7.2zM341.4 430.8l-.4-.7c.7-.6 1.2-1.5 1.3-2.7.1-.9 0-2.7-.4-5.4l-3.2-23 .5-.3 18.7 15c2.3 1.8 3.7 2.8 4.2 3.1.5.2 1.3.2 2.2-.2l.4.7-10.5 6.1-.4-.7.4-.2c.9-.5 1.5-1.1 1.7-1.5.1-.3.1-.7-.1-1-.1-.2-.3-.4-.6-.7-.3-.2-1-.9-2.2-1.9l-11.7-9.4 1.9 13.3c.2 1.6.4 2.7.6 3.2.1.5.3.9.5 1.2.2.4.5.6.8.8.3.2.7.2 1.1.2.6-.1 1.3-.3 2-.8l.4.7-7.2 4.2z"/><g><path class="st0" d="M249.7 450.1v-.8c.9-.2 1.7-.7 2.5-1.6.5-.7 1.3-2.3 2.3-4.9l8.7-21.5h.6l8.7 22.4c1 2.7 1.7 4.3 2.1 4.7.4.5 1 .8 2 .9v.8h-12.1v-.8h.4c1.1 0 1.8-.2 2.2-.5.3-.2.4-.5.4-.9 0-.2 0-.5-.1-.9-.1-.3-.4-1.2-1-2.7l-5.4-14-5 12.5c-.6 1.5-1 2.5-1.1 3-.1.5-.2.9-.2 1.3s.1.8.3 1.1c.2.3.5.6.9.7.5.2 1.2.4 2.1.4v.8h-8.3zM235.3 422.7v-.7h13.2v.8h-.8c-.7 0-1.3.1-1.8.4-.3.2-.6.5-.7 1-.1.3-.2 1.2-.2 2.6v18.5c0 1.4.1 2.3.2 2.7.1.4.4.7.8.9.4.3 1 .4 1.7.4h.8v.8h-13.2v-.8h.8c.7 0 1.3-.1 1.8-.4.3-.2.6-.5.8-1 .1-.3.2-1.2.2-2.6v-18.5c0-1.4-.1-2.3-.2-2.7-.1-.4-.4-.7-.8-.9-.4-.3-1-.4-1.7-.4h-.9z"/></g><g><path class="st0" d="M160 424.7l.4-.7c.9.3 1.9.3 3-.2.8-.3 2.3-1.4 4.5-3.1l18.3-14.2.5.3-3.7 23.7c-.4 2.9-.6 4.6-.6 5.2.1.6.5 1.2 1.3 1.8l-.4.7-10.5-6.1.4-.7.4.2c.9.5 1.7.8 2.2.7.4 0 .6-.2.8-.6.1-.2.2-.5.3-.8.1-.3.2-1.3.5-2.9l2.3-14.8-10.6 8.3c-1.3 1-2.1 1.7-2.5 2.1s-.7.7-.8 1c-.2.4-.3.7-.3 1.1 0 .4.1.7.4 1.1.3.5.9.9 1.7 1.4l-.4.7-7.2-4.2zM161.2 393.8l.4-.7 11.5 6.6-.4.7-.7-.4c-.6-.4-1.2-.5-1.8-.5-.4 0-.8.2-1.1.5-.3.2-.8.9-1.5 2.2l-9.2 16c-.7 1.2-1.1 2.1-1.2 2.4-.1.4 0 .8.2 1.2.2.4.6.8 1.3 1.2l.7.4-.4.7-11.5-6.6.4-.7.7.4c.6.4 1.2.5 1.8.5.4 0 .8-.2 1.2-.5.3-.2.8-.9 1.5-2.2l9.2-16c.7-1.2 1.1-2.1 1.2-2.4.1-.4 0-.8-.3-1.2-.2-.4-.6-.8-1.3-1.2l-.7-.4zM148.3 386.3l.4-.7 11.5 6.6-.4.7-.7-.4c-.6-.4-1.2-.5-1.8-.5-.4 0-.8.2-1.1.5-.3.2-.8.9-1.5 2.2l-9.2 16c-.7 1.2-1.1 2.1-1.2 2.4-.1.4 0 .8.2 1.2.2.4.6.8 1.3 1.2l.7.4-.4.7-11.5-6.6.4-.7.7.4c.6.4 1.2.5 1.8.5.4 0 .8-.2 1.2-.5.3-.2.8-.9 1.5-2.2l9.2-16c.7-1.2 1.1-2.1 1.2-2.4.1-.4 0-.8-.3-1.2-.2-.4-.6-.8-1.3-1.2l-.7-.4z"/></g><g><path class="st0" d="M92.2 360.5l.7-.4c.6.7 1.5 1.2 2.7 1.3.9.1 2.7 0 5.4-.4l23-3.2.3.5-15 18.7c-1.8 2.3-2.8 3.7-3.1 4.2-.2.5-.2 1.3.2 2.2l-.7.4-6.1-10.5.7-.4.2.4c.5.9 1.1 1.5 1.5 1.7.3.1.7.1 1-.1.2-.1.4-.3.7-.6.2-.3.9-1 1.9-2.2l9.4-11.7-13.3 1.9c-1.6.2-2.7.4-3.2.6s-.9.3-1.2.5c-.4.2-.6.5-.8.8-.2.3-.2.7-.2 1.1.1.6.3 1.3.8 2l-.7.4-4.2-7.2zM108.7 334.4l.7-.4 6.6 11.5-.7.4-.4-.7c-.4-.6-.8-1.1-1.3-1.3-.3-.2-.7-.2-1.2-.1-.4 0-1.1.4-2.4 1.1L94 354c-1.2.7-2 1.2-2.2 1.5-.2.3-.4.7-.4 1.2s.1 1.1.5 1.7l.4.7-.7.4L85 348l.7-.4.4.7c.4.6.8 1.1 1.3 1.3.3.2.7.2 1.2.2.4 0 1.1-.4 2.4-1.1l16-9.2c1.2-.7 2-1.2 2.2-1.5.2-.3.4-.7.4-1.2s-.1-1.1-.5-1.7l-.4-.7zM101.3 321.5l.7-.4 6.6 11.5-.7.4-.4-.7c-.4-.6-.8-1.1-1.3-1.3-.3-.2-.7-.2-1.2-.1-.4 0-1.1.4-2.4 1.1l-16 9.2c-1.2.7-2 1.2-2.2 1.5-.2.3-.4.7-.4 1.2s.1 1.1.5 1.7l.4.7-.7.4-6.6-11.5.7-.4.4.7c.4.6.8 1.1 1.3 1.3.3.2.7.2 1.2.2.4 0 1.1-.4 2.4-1.1l16-9.2c1.2-.7 2-1.2 2.2-1.5.2-.3.4-.7.4-1.2s-.1-1.1-.5-1.7l-.4-.8zM93.8 308.6l.7-.4 6.6 11.5-.7.4-.4-.7c-.4-.6-.8-1.1-1.3-1.3-.3-.2-.7-.2-1.2-.1-.4 0-1.1.4-2.4 1.1l-16 9.2c-1.2.7-2 1.2-2.2 1.5-.2.3-.4.7-.4 1.2s.1 1.1.5 1.7l.4.7-.7.4-6.6-11.5.7-.4.4.7c.4.6.8 1.1 1.3 1.3.3.2.7.2 1.2.2.4 0 1.1-.4 2.4-1.1l16-9.2c1.2-.7 2-1.2 2.2-1.5.2-.3.4-.7.4-1.2s-.1-1.1-.5-1.7l-.4-.8z"/></g><g><path class="st0" d="M89.3 263.5h.7v13.2h-.8v-.8c0-.7-.1-1.3-.4-1.8-.2-.3-.5-.6-1-.7-.3-.1-1.2-.2-2.6-.2H66.7c-1.4 0-2.3.1-2.7.2-.4.1-.7.4-.9.8-.3.4-.4 1-.4 1.7v.8h-.8v-13.2h.8v.8c0 .7.1 1.3.4 1.8.2.3.5.6 1 .8.3.1 1.2.2 2.6.2h18.5c1.4 0 2.3-.1 2.7-.2.4-.1.7-.4.9-.8.3-.4.4-1 .4-1.7v-.9zM73.6 246.5l11.5-7c1.9-1.2 3.1-2 3.5-2.5.4-.5.7-1.1.7-1.7h.7v12.3h-.8c-.1-1-.2-1.6-.5-1.9-.2-.3-.6-.4-.9-.4-.2 0-.5 0-.7.1-.4.2-1.2.6-2.3 1.3l-6.1 3.7 5.2 3.9c1.6 1.2 2.7 1.7 3.2 1.7.4 0 .8-.1 1.1-.4.3-.3.6-.7.7-1.3.1-.3.1-.8.1-1.6h1v9.7h-.8c-.2-1.1-.5-2-1-2.6-.6-.8-2-2-4-3.5l-6.8-5-10.4 6.4c-1.7 1.1-2.7 1.7-2.9 1.8-.5.3-.8.7-1 1-.2.3-.3.8-.4 1.3h-.8v-12.6h.8v.6c0 .7.1 1.2.4 1.5.3.3.6.4 1 .4.3 0 .6 0 .8-.1l2.2-1.3 5.3-3.1-3.6-2.7c-1.9-1.4-3.2-2.1-3.9-2.1-.4 0-.7.1-1 .3-.3.2-.6.5-.7.8-.2.4-.3.9-.3 1.7h-.8V236h.8c0 .7.1 1.3.3 1.8.2.4.5.9 1 1.4.3.3 1.4 1.1 3.1 2.4l6.3 4.9z"/></g><g><path class="st0" d="M99.2 162.7l13.5-.3c2.2 0 3.6-.2 4.2-.4.6-.2 1.1-.6 1.5-1.1l.7.4-6.2 10.7-.7-.4c.4-.9.6-1.5.5-1.9-.1-.4-.3-.6-.6-.8-.2-.1-.4-.2-.6-.2-.4-.1-1.3-.1-2.7 0l-7.1.2 2.6 6c.8 1.8 1.4 2.8 1.9 3.1.3.2.7.3 1.2.2.4-.1.9-.3 1.3-.8.2-.2.5-.6.9-1.3l.7.4-4.9 8.4-.7-.4c.4-1 .5-2 .4-2.8-.1-1-.7-2.7-1.7-5L100 169l-12.3.3c-2 .1-3.2.1-3.4.1-.6.1-1 .2-1.3.4-.3.2-.7.5-1 .9l-.7-.4 6.3-10.9.7.4-.3.5c-.4.6-.5 1.1-.4 1.5.1.4.3.7.6.9.3.2.5.2.7.3h2.5l6.2-.1-1.8-4.1c-.9-2.1-1.7-3.4-2.4-3.7-.3-.2-.7-.3-1-.3-.4 0-.7.1-1.1.3-.3.2-.7.7-1.1 1.3l-.7-.4 4.7-8.1.7.4c-.4.6-.6 1.2-.6 1.7-.1.5 0 1.1.2 1.8.1.4.6 1.7 1.5 3.6l3.2 7.3z"/></g><g><path class="st0" d="M160.6 100.4l11.8 6.5c2 1.1 3.2 1.7 3.9 1.8.6.1 1.3 0 1.9-.2l.4.7-10.7 6.2-.4-.7c.8-.6 1.3-1 1.4-1.4.1-.4.1-.7-.1-1-.1-.2-.3-.4-.4-.5-.4-.3-1.1-.7-2.3-1.4l-6.2-3.4-.7 6.5c-.2 2-.2 3.2.1 3.7.2.3.5.6.9.7.4.2.9.1 1.5 0 .3-.1.8-.3 1.5-.7l.4.7-8.4 4.9-.4-.7c.9-.7 1.5-1.4 1.8-2.2.4-1 .7-2.7 1-5.2l.9-8.4-10.8-5.9c-1.8-1-2.8-1.5-3-1.6-.5-.2-1-.3-1.3-.3-.4 0-.8.1-1.4.3l-.4-.7 10.9-6.3.4.7-.5.3c-.6.4-1 .7-1.1 1.1-.1.4-.1.7.1 1.1.2.3.3.5.5.6l2.2 1.2 5.4 3 .5-4.5c.3-2.3.2-3.8-.2-4.4-.2-.3-.4-.6-.8-.8-.3-.2-.7-.3-1.1-.2-.4 0-.9.2-1.6.6l-.4-.7 8.1-4.7.4.7c-.6.4-1.1.8-1.4 1.1-.3.4-.5.9-.7 1.6-.1.4-.3 1.7-.6 3.9l-1.1 8zM190.5 101.3l.4.7-11.5 6.6-.4-.7.7-.4c.6-.4 1.1-.8 1.3-1.3.2-.3.2-.7.1-1.2 0-.4-.4-1.1-1.1-2.4l-9.2-16c-.7-1.2-1.2-2-1.5-2.2-.3-.2-.7-.4-1.2-.4s-1.1.1-1.7.5l-.7.4-.4-.7 11.5-6.6.4.7-.7.4c-.6.4-1.1.8-1.3 1.3-.2.3-.2.7-.2 1.2 0 .4.4 1.1 1.1 2.4l9.2 16c.7 1.2 1.2 2 1.5 2.2.3.2.7.4 1.2.4s1.1-.1 1.7-.5l.8-.4z"/></g></g></svg>