<?xml version="1.0" encoding="utf-8"?>
<!-- Generator: Adobe Illustrator 19.2.0, SVG Export Plug-In . SVG Version: 6.00 Build 0)  -->
<svg version="1.1" id="icon" xmlns="http://www.w3.org/2000/svg" xmlns:xlink="http://www.w3.org/1999/xlink" x="0px" y="0px"
	 viewBox="0 0 512 512" style="enable-background:new 0 0 512 512;" xml:space="preserve">
<g>
	<circle cx="256" cy="256" r="11.1"/>
	<g>
		<path d="M240.2,19.7l9,14.9c1.5,2.5,2.6,4,3.2,4.5c0.6,0.5,1.4,0.8,2.3,1v1h-16v-1c1.3-0.1,2.1-0.3,2.5-0.6
			c0.4-0.3,0.6-0.7,0.6-1.2c0-0.3-0.1-0.6-0.2-0.9c-0.2-0.5-0.8-1.5-1.7-3l-4.8-7.9l-5,6.8c-1.5,2.1-2.2,3.5-2.2,4.2
			c0,0.5,0.2,1,0.6,1.5c0.4,0.4,1,0.8,1.7,1c0.3,0.1,1,0.2,2.1,0.2v1h-12.6v-1c1.4-0.2,2.6-0.7,3.4-1.3c1.1-0.8,2.6-2.5,4.5-5.2
			l6.5-8.8l-8.3-13.6c-1.4-2.2-2.2-3.5-2.3-3.7c-0.4-0.6-0.9-1-1.3-1.3c-0.4-0.3-1-0.4-1.7-0.6v-1h16.3v1h-0.8c-0.9,0-1.6,0.2-2,0.5
			c-0.4,0.3-0.6,0.7-0.6,1.2c0,0.4,0.1,0.7,0.2,1l1.7,2.8l4.1,6.9l3.5-4.7c1.8-2.4,2.7-4.1,2.7-5.1c0-0.5-0.1-0.9-0.4-1.3
			c-0.3-0.4-0.6-0.7-1.1-1c-0.5-0.2-1.2-0.3-2.2-0.3v-1h12.1v1c-1,0-1.7,0.1-2.3,0.4c-0.6,0.2-1.2,0.7-1.9,1.4
			c-0.4,0.4-1.5,1.8-3.1,4L240.2,19.7z"/>
		<path d="M273.1,40.1v1H256v-1h1.1c1,0,1.7-0.2,2.3-0.6c0.4-0.3,0.7-0.7,1-1.3c0.2-0.4,0.3-1.6,0.3-3.4v-24c0-1.9-0.1-3-0.3-3.5
			c-0.2-0.5-0.5-0.9-1.1-1.2c-0.5-0.3-1.3-0.5-2.2-0.5H256v-1h17.1v1H272c-1,0-1.7,0.2-2.3,0.6c-0.4,0.3-0.8,0.7-1,1.3
			c-0.2,0.4-0.3,1.6-0.3,3.4v24c0,1.9,0.1,3,0.3,3.5c0.2,0.5,0.5,0.9,1.1,1.2c0.5,0.3,1.3,0.5,2.2,0.5H273.1z"/>
		<path d="M292.4,40.1v1h-17.1v-1h1.1c1,0,1.7-0.2,2.3-0.6c0.4-0.3,0.7-0.7,1-1.3c0.2-0.4,0.3-1.6,0.3-3.4v-24c0-1.9-0.1-3-0.3-3.5
			c-0.2-0.5-0.5-0.9-1.1-1.2c-0.5-0.3-1.3-0.5-2.2-0.5h-1.1v-1h17.1v1h-1.1c-1,0-1.7,0.2-2.3,0.6c-0.4,0.3-0.8,0.7-1,1.3
			c-0.2,0.4-0.3,1.6-0.3,3.4v24c0,1.9,0.1,3,0.3,3.5c0.2,0.5,0.5,0.9,1.1,1.2c0.5,0.3,1.3,0.5,2.2,0.5H292.4z"/>
	</g>
	<g>
		<path d="M371.4,73.3l-0.5,0.9L356,65.6l0.5-0.9l0.9,0.5c0.8,0.5,1.6,0.7,2.3,0.7c0.5,0,1-0.2,1.5-0.6c0.4-0.3,1-1.2,1.9-2.8
			l12-20.7c0.9-1.6,1.4-2.7,1.5-3.2c0.1-0.5,0-1-0.3-1.6c-0.3-0.6-0.8-1.1-1.6-1.5l-0.9-0.5l0.5-0.9l14.8,8.6l-0.5,0.9l-0.9-0.5
			c-0.8-0.5-1.6-0.7-2.3-0.7c-0.5,0-1,0.2-1.5,0.6c-0.4,0.3-1,1.2-1.9,2.8l-12,20.7c-0.9,1.6-1.4,2.7-1.5,3.2c-0.1,0.5,0,1,0.3,1.6
			c0.3,0.6,0.8,1.1,1.6,1.5L371.4,73.3z"/>
	</g>
	<g>
		<path d="M442.5,147.1l-0.9,0.5l-8.6-14.8l0.9-0.5l0.5,0.9c0.5,0.8,1,1.4,1.6,1.7c0.4,0.2,1,0.3,1.6,0.2c0.5-0.1,1.5-0.5,3.1-1.5
			l20.7-12c1.6-0.9,2.6-1.6,2.9-2c0.3-0.4,0.5-0.9,0.5-1.5c0-0.6-0.2-1.4-0.6-2.2l-0.5-0.9l0.9-0.5l8.6,14.8l-0.9,0.5l-0.5-0.9
			c-0.5-0.8-1-1.4-1.6-1.7c-0.4-0.2-1-0.3-1.6-0.2c-0.5,0.1-1.5,0.5-3.1,1.5l-20.7,12c-1.6,0.9-2.6,1.6-2.9,2
			c-0.3,0.4-0.5,0.9-0.5,1.6c0,0.6,0.2,1.4,0.6,2.2L442.5,147.1z"/>
		<path d="M452.1,163.8l-0.9,0.5l-8.6-14.8l0.9-0.5l0.5,0.9c0.5,0.8,1,1.4,1.6,1.7c0.4,0.2,1,0.3,1.6,0.2c0.5-0.1,1.5-0.5,3.1-1.5
			l20.7-12c1.6-0.9,2.6-1.6,2.9-2c0.3-0.4,0.5-0.9,0.5-1.5c0-0.6-0.2-1.4-0.6-2.2l-0.5-0.9l0.9-0.5l8.6,14.8l-0.9,0.5l-0.5-0.9
			c-0.5-0.8-1-1.4-1.6-1.7c-0.4-0.2-1-0.3-1.6-0.2c-0.5,0.1-1.5,0.5-3.1,1.5l-20.7,12c-1.6,0.9-2.6,1.6-2.9,2
			c-0.3,0.4-0.5,0.9-0.5,1.6c0,0.6,0.2,1.4,0.6,2.2L452.1,163.8z"/>
	</g>
	<g>
		<path d="M471.9,245.3h-1v-17.1h1v1.1c0,1,0.2,1.7,0.6,2.3c0.3,0.4,0.7,0.7,1.3,1c0.4,0.2,1.6,0.3,3.4,0.3h24c1.9,0,3-0.1,3.5-0.3
			c0.5-0.2,0.9-0.5,1.2-1.1c0.3-0.5,0.5-1.3,0.5-2.2v-1.1h1v17.1h-1v-1.1c0-1-0.2-1.7-0.6-2.3c-0.3-0.4-0.7-0.7-1.3-1
			c-0.4-0.2-1.6-0.3-3.4-0.3h-24c-1.9,0-3,0.1-3.5,0.3c-0.5,0.2-0.9,0.5-1.2,1.1c-0.3,0.5-0.5,1.3-0.5,2.2V245.3z"/>
		<path d="M471.9,264.6h-1v-17.1h1v1.1c0,1,0.2,1.7,0.6,2.3c0.3,0.4,0.7,0.7,1.3,1c0.4,0.2,1.6,0.3,3.4,0.3h24c1.9,0,3-0.1,3.5-0.3
			c0.5-0.2,0.9-0.5,1.2-1.1c0.3-0.5,0.5-1.3,0.5-2.2v-1.1h1v17.1h-1v-1.1c0-1-0.2-1.7-0.6-2.3c-0.3-0.4-0.7-0.8-1.3-1
			c-0.4-0.2-1.6-0.3-3.4-0.3h-24c-1.9,0-3,0.1-3.5,0.3c-0.5,0.2-0.9,0.5-1.2,1.1c-0.3,0.5-0.5,1.3-0.5,2.2V264.6z"/>
		<path d="M471.9,283.8h-1v-17.1h1v1.1c0,1,0.2,1.7,0.6,2.3c0.3,0.4,0.7,0.7,1.3,1c0.4,0.2,1.6,0.3,3.4,0.3h24c1.9,0,3-0.1,3.5-0.3
			c0.5-0.2,0.9-0.5,1.2-1.1c0.3-0.5,0.5-1.3,0.5-2.2v-1.1h1v17.1h-1v-1.1c0-1-0.2-1.7-0.6-2.3c-0.3-0.4-0.7-0.8-1.3-1
			c-0.4-0.2-1.6-0.3-3.4-0.3h-24c-1.9,0-3,0.1-3.5,0.3c-0.5,0.2-0.9,0.5-1.2,1.1c-0.3,0.5-0.5,1.3-0.5,2.2V283.8z"/>
	</g>
	<g>
		<path d="M447.8,355.6l-0.9-0.5l8.6-14.8l0.9,0.5l-0.5,0.9c-0.5,0.8-0.7,1.6-0.7,2.3c0,0.5,0.2,1,0.6,1.5c0.3,0.4,1.2,1,2.8,1.9
			l20.7,12c1.6,0.9,2.7,1.4,3.2,1.5c0.5,0.1,1,0,1.6-0.3c0.6-0.3,1.1-0.8,1.5-1.6l0.5-0.9l0.9,0.5l-8.6,14.8l-0.9-0.5l0.5-0.9
			c0.5-0.8,0.7-1.6,0.7-2.3c0-0.5-0.2-1-0.6-1.5c-0.3-0.4-1.2-1-2.8-1.9l-20.7-12c-1.6-0.9-2.7-1.4-3.2-1.5c-0.5-0.1-1,0-1.6,0.3
			c-0.6,0.3-1.1,0.8-1.5,1.6L447.8,355.6z"/>
		<path d="M460.3,404.8l-0.9-0.5c0.4-1.1,0.3-2.4-0.2-3.8c-0.4-1-1.8-3-4-5.8l-18.5-23.7l0.4-0.7l30.7,4.7c3.7,0.6,5.9,0.8,6.7,0.7
			c0.8-0.1,1.5-0.7,2.3-1.7l0.9,0.5l-7.9,13.6l-0.9-0.5l0.3-0.5c0.7-1.2,1-2.2,0.9-2.8c0-0.5-0.3-0.8-0.7-1.1
			c-0.3-0.2-0.6-0.3-1.1-0.4c-0.4-0.1-1.7-0.3-3.7-0.6l-19.2-3l10.7,13.7c1.3,1.6,2.2,2.7,2.7,3.2c0.5,0.5,0.9,0.8,1.3,1.1
			c0.5,0.3,0.9,0.4,1.4,0.4c0.5,0,0.9-0.2,1.4-0.5c0.6-0.4,1.2-1.2,1.8-2.2l0.9,0.5L460.3,404.8z"/>
	</g>
	<g>
		<path d="M366.6,482.4l-0.5-0.9c0.9-0.8,1.5-1.9,1.7-3.4c0.1-1.1,0-3.4-0.5-7l-4.1-29.7l0.7-0.4l24.2,19.5c2.9,2.3,4.7,3.7,5.4,4
			c0.7,0.3,1.6,0.2,2.8-0.3l0.5,0.9l-13.6,7.9l-0.5-0.9l0.5-0.3c1.2-0.7,2-1.4,2.2-2c0.2-0.4,0.2-0.9-0.1-1.3
			c-0.2-0.3-0.4-0.6-0.7-0.9c-0.3-0.3-1.3-1.1-2.9-2.4l-15.1-12.2l2.5,17.2c0.3,2.1,0.5,3.4,0.7,4.1c0.2,0.7,0.4,1.2,0.6,1.6
			c0.3,0.5,0.6,0.8,1,1c0.4,0.2,0.9,0.3,1.5,0.2c0.8-0.1,1.6-0.4,2.6-1l0.5,0.9L366.6,482.4z"/>
	</g>
	<g>
		<path d="M247.9,507.3v-1c1.2-0.2,2.3-0.9,3.2-2.1c0.7-0.9,1.7-3,3-6.3l11.3-27.8h0.8l11.2,29c1.4,3.5,2.3,5.5,2.7,6.2
			c0.5,0.6,1.3,1,2.6,1.2v1H267v-1h0.5c1.4,0,2.4-0.2,2.9-0.6c0.4-0.3,0.6-0.7,0.6-1.2c0-0.3-0.1-0.7-0.2-1.1
			c-0.1-0.4-0.6-1.6-1.3-3.5l-7-18.1l-6.5,16.1c-0.8,2-1.2,3.3-1.4,3.9s-0.3,1.2-0.3,1.7c0,0.5,0.1,1,0.4,1.4s0.6,0.7,1.1,0.9
			c0.7,0.3,1.6,0.5,2.8,0.5v1H247.9z"/>
		<path d="M229.3,471.9v-1h17.1v1h-1.1c-1,0-1.7,0.2-2.3,0.6c-0.4,0.3-0.7,0.7-1,1.3c-0.2,0.4-0.3,1.6-0.3,3.4v24
			c0,1.9,0.1,3,0.3,3.5c0.2,0.5,0.5,0.9,1.1,1.2c0.5,0.3,1.3,0.5,2.2,0.5h1.1v1h-17.1v-1h1.1c1,0,1.7-0.2,2.3-0.6
			c0.4-0.3,0.8-0.7,1-1.3c0.2-0.4,0.3-1.6,0.3-3.4v-24c0-1.9-0.1-3-0.3-3.5c-0.2-0.5-0.5-0.9-1.1-1.2c-0.5-0.3-1.3-0.5-2.2-0.5
			H229.3z"/>
	</g>
	<g>
		<path d="M131.7,474.4l0.5-0.9c1.1,0.4,2.4,0.3,3.8-0.2c1-0.4,3-1.8,5.8-4l23.7-18.5l0.7,0.4l-4.7,30.7c-0.6,3.7-0.8,5.9-0.7,6.7
			c0.1,0.8,0.7,1.5,1.7,2.3l-0.5,0.9l-13.6-7.9l0.5-0.9l0.5,0.3c1.2,0.7,2.2,1,2.8,0.9c0.5,0,0.8-0.3,1.1-0.7
			c0.2-0.3,0.3-0.6,0.4-1.1c0.1-0.4,0.3-1.7,0.6-3.7l3-19.2l-13.7,10.7c-1.6,1.3-2.7,2.2-3.2,2.7c-0.5,0.5-0.8,0.9-1.1,1.3
			c-0.3,0.5-0.4,0.9-0.4,1.4c0,0.5,0.2,0.9,0.5,1.4c0.4,0.6,1.2,1.2,2.2,1.8l-0.5,0.9L131.7,474.4z"/>
		<path d="M133.2,434.4l0.5-0.9l14.8,8.6l-0.5,0.9l-0.9-0.5c-0.8-0.5-1.6-0.7-2.3-0.7c-0.5,0-1,0.2-1.5,0.6c-0.4,0.3-1,1.2-1.9,2.8
			l-12,20.7c-0.9,1.6-1.4,2.7-1.5,3.2c-0.1,0.5,0,1,0.3,1.6c0.3,0.6,0.8,1.1,1.6,1.5l0.9,0.5l-0.5,0.9l-14.8-8.6l0.5-0.9l0.9,0.5
			c0.8,0.5,1.6,0.7,2.3,0.7c0.5,0,1-0.2,1.5-0.6c0.4-0.3,1-1.2,1.9-2.8l12-20.7c0.9-1.6,1.4-2.7,1.5-3.2c0.1-0.5,0-1-0.3-1.6
			c-0.3-0.6-0.8-1.1-1.6-1.5L133.2,434.4z"/>
		<path d="M116.5,424.8l0.5-0.9l14.8,8.6l-0.5,0.9l-0.9-0.5c-0.8-0.5-1.6-0.7-2.3-0.7c-0.5,0-1,0.2-1.5,0.6c-0.4,0.3-1,1.2-1.9,2.8
			l-12,20.7c-0.9,1.6-1.4,2.7-1.5,3.2c-0.1,0.5,0,1,0.3,1.6c0.3,0.6,0.8,1.1,1.6,1.5l0.9,0.5l-0.5,0.9l-14.8-8.6l0.5-0.9l0.9,0.5
			c0.8,0.5,1.6,0.7,2.3,0.7c0.5,0,1-0.2,1.5-0.6c0.4-0.3,1-1.2,1.9-2.8l12-20.7c0.9-1.6,1.4-2.7,1.5-3.2c0.1-0.5,0-1-0.3-1.6
			c-0.3-0.6-0.8-1.1-1.6-1.5L116.5,424.8z"/>
	</g>
	<g>
		<path d="M43.9,391.3l0.9-0.5c0.8,0.9,1.9,1.5,3.4,1.7c1.1,0.1,3.4,0,7-0.5l29.7-4.1l0.4,0.7l-19.5,24.2c-2.3,2.9-3.7,4.7-4,5.4
			c-0.3,0.7-0.2,1.6,0.3,2.8l-0.9,0.5l-7.9-13.6l0.9-0.5l0.3,0.5c0.7,1.2,1.4,2,2,2.2c0.4,0.2,0.9,0.2,1.3-0.1
			c0.3-0.2,0.6-0.4,0.9-0.7c0.3-0.3,1.1-1.3,2.4-2.9l12.2-15.1l-17.2,2.5c-2.1,0.3-3.4,0.5-4.1,0.7s-1.2,0.4-1.6,0.6
			c-0.5,0.3-0.8,0.6-1,1c-0.2,0.4-0.3,0.9-0.2,1.5c0.1,0.8,0.4,1.6,1,2.6l-0.9,0.5L43.9,391.3z"/>
		<path d="M65.3,357.5l0.9-0.5l8.6,14.8l-0.9,0.5l-0.5-0.9c-0.5-0.8-1-1.4-1.6-1.7c-0.4-0.2-1-0.3-1.6-0.2c-0.5,0.1-1.5,0.5-3.1,1.5
			l-20.7,12c-1.6,0.9-2.6,1.6-2.9,2c-0.3,0.4-0.5,0.9-0.5,1.5c0,0.6,0.2,1.4,0.6,2.2l0.5,0.9l-0.9,0.5l-8.6-14.8l0.9-0.5l0.5,0.9
			c0.5,0.8,1,1.4,1.6,1.7c0.4,0.2,1,0.3,1.6,0.2c0.5-0.1,1.5-0.5,3.1-1.5l20.7-12c1.6-0.9,2.6-1.6,2.9-2c0.3-0.4,0.5-0.9,0.5-1.6
			c0-0.6-0.2-1.4-0.6-2.2L65.3,357.5z"/>
		<path d="M55.6,340.8l0.9-0.5l8.6,14.8l-0.9,0.5l-0.5-0.9c-0.5-0.8-1-1.4-1.6-1.7c-0.4-0.2-1-0.3-1.6-0.2c-0.5,0.1-1.5,0.5-3.1,1.5
			l-20.7,12c-1.6,0.9-2.6,1.6-2.9,2c-0.3,0.4-0.5,0.9-0.5,1.5c0,0.6,0.2,1.4,0.6,2.2l0.5,0.9l-0.9,0.5L25,358.5l0.9-0.5l0.5,0.9
			c0.5,0.8,1,1.4,1.6,1.7c0.4,0.2,1,0.3,1.6,0.2c0.5-0.1,1.5-0.5,3.1-1.5l20.7-12c1.6-0.9,2.6-1.6,2.9-2c0.3-0.4,0.5-0.9,0.5-1.6
			c0-0.6-0.2-1.4-0.6-2.2L55.6,340.8z"/>
		<path d="M46,324.1l0.9-0.5l8.6,14.8l-0.9,0.5L54,338c-0.5-0.8-1-1.4-1.6-1.7c-0.4-0.2-1-0.3-1.6-0.2c-0.5,0.1-1.5,0.5-3.1,1.5
			l-20.7,12c-1.6,0.9-2.6,1.6-2.9,2c-0.3,0.4-0.5,0.9-0.5,1.5c0,0.6,0.2,1.4,0.6,2.2l0.5,0.9l-0.9,0.5l-8.6-14.8l0.9-0.5l0.5,0.9
			c0.5,0.8,1,1.4,1.6,1.7c0.4,0.2,1,0.3,1.6,0.2c0.5-0.1,1.5-0.5,3.1-1.5l20.7-12c1.6-0.9,2.6-1.6,2.9-2c0.3-0.4,0.5-0.9,0.5-1.6
			c0-0.6-0.2-1.4-0.6-2.2L46,324.1z"/>
	</g>
	<g>
		<path d="M40.1,265.7h1v17.1h-1v-1.1c0-1-0.2-1.7-0.6-2.3c-0.3-0.4-0.7-0.7-1.3-1c-0.4-0.2-1.6-0.3-3.4-0.3h-24
			c-1.9,0-3,0.1-3.5,0.3c-0.5,0.2-0.9,0.5-1.2,1.1c-0.3,0.5-0.5,1.3-0.5,2.2v1.1h-1v-17.1h1v1.1c0,1,0.2,1.7,0.6,2.3
			c0.3,0.4,0.7,0.7,1.3,1c0.4,0.2,1.6,0.3,3.4,0.3h24c1.9,0,3-0.1,3.5-0.3c0.5-0.2,0.9-0.5,1.2-1.1c0.3-0.5,0.5-1.3,0.5-2.2V265.7z"
			/>
		<path d="M19.7,243.7l14.9-9c2.5-1.5,4-2.6,4.5-3.2c0.5-0.6,0.8-1.4,1-2.3h1v16h-1c-0.1-1.3-0.3-2.1-0.6-2.5
			c-0.3-0.4-0.7-0.6-1.2-0.6c-0.3,0-0.6,0.1-0.9,0.2c-0.5,0.2-1.5,0.8-3,1.7l-7.9,4.8l6.8,5c2.1,1.5,3.5,2.2,4.2,2.2
			c0.5,0,1-0.2,1.5-0.6c0.4-0.4,0.8-1,1-1.7c0.1-0.3,0.2-1,0.2-2.1h1v12.6h-1c-0.2-1.4-0.7-2.6-1.3-3.4c-0.8-1.1-2.5-2.6-5.2-4.5
			l-8.8-6.5l-13.6,8.3c-2.2,1.4-3.5,2.2-3.7,2.3c-0.6,0.4-1,0.9-1.3,1.3s-0.4,1-0.6,1.7h-1v-16.3h1v0.8c0,0.9,0.2,1.6,0.5,2
			c0.3,0.4,0.7,0.6,1.2,0.6c0.4,0,0.7-0.1,1-0.2l2.8-1.7l6.9-4.1l-4.7-3.5c-2.4-1.8-4.1-2.7-5.1-2.7c-0.5,0-0.9,0.1-1.3,0.4
			c-0.4,0.3-0.7,0.6-1,1.1s-0.3,1.2-0.3,2.2h-1v-12.1h1c0,1,0.1,1.7,0.4,2.3c0.2,0.6,0.7,1.2,1.4,1.9c0.4,0.4,1.8,1.5,4,3.1
			L19.7,243.7z"/>
	</g>
	<g>
		<path d="M52.9,135.2l17.4-0.4c2.9-0.1,4.7-0.2,5.5-0.5c0.8-0.3,1.4-0.8,2-1.5l0.9,0.5l-8,13.8l-0.9-0.5c0.5-1.2,0.8-2,0.7-2.5
			c-0.1-0.5-0.3-0.8-0.7-1.1c-0.3-0.2-0.6-0.3-0.8-0.3c-0.6-0.1-1.7-0.1-3.5,0l-9.2,0.2l3.4,7.7c1,2.3,1.9,3.7,2.5,4
			c0.4,0.3,1,0.3,1.5,0.2c0.6-0.1,1.1-0.4,1.7-1c0.3-0.2,0.7-0.8,1.2-1.7l0.9,0.5l-6.3,10.9l-0.9-0.5c0.5-1.4,0.7-2.5,0.6-3.6
			c-0.2-1.3-0.9-3.5-2.2-6.5l-4.4-10l-16,0.4c-2.6,0.1-4.1,0.1-4.4,0.2c-0.7,0.1-1.3,0.2-1.7,0.5c-0.4,0.2-0.9,0.6-1.4,1.2l-0.9-0.5
			l8.1-14.1l0.9,0.5l-0.4,0.7c-0.5,0.8-0.7,1.5-0.5,1.9c0.1,0.5,0.4,0.9,0.8,1.1c0.3,0.2,0.7,0.3,1,0.4l3.3,0l8-0.1l-2.3-5.3
			c-1.2-2.7-2.2-4.4-3.1-4.8c-0.4-0.2-0.9-0.4-1.4-0.3c-0.5,0-0.9,0.2-1.4,0.4c-0.4,0.3-0.9,0.9-1.4,1.7l-0.9-0.5l6-10.4l0.9,0.5
			c-0.5,0.8-0.7,1.6-0.8,2.2c-0.1,0.6,0,1.4,0.2,2.3c0.2,0.6,0.8,2.2,1.9,4.7L52.9,135.2z"/>
	</g>
	<g>
		<path d="M132.5,54.5l15.3,8.4c2.5,1.4,4.2,2.2,5,2.3c0.8,0.1,1.6,0,2.4-0.3l0.5,0.9l-13.8,8l-0.5-0.9c1-0.7,1.7-1.3,1.8-1.8
			c0.2-0.5,0.1-0.9-0.1-1.3c-0.2-0.3-0.4-0.5-0.6-0.7c-0.5-0.4-1.5-0.9-3-1.8l-8.1-4.4l-0.9,8.4c-0.3,2.5-0.2,4.1,0.1,4.8
			c0.3,0.4,0.7,0.8,1.2,1c0.6,0.2,1.2,0.2,2,0c0.3-0.1,1-0.4,1.9-0.9l0.5,0.9l-10.9,6.3l-0.5-0.9c1.1-0.9,1.9-1.9,2.3-2.8
			c0.5-1.3,1-3.5,1.3-6.7l1.2-10.9l-14-7.6c-2.3-1.3-3.6-1.9-3.9-2.1c-0.7-0.3-1.3-0.4-1.7-0.5c-0.5,0-1.1,0.1-1.8,0.4l-0.5-0.9
			l14.1-8.1l0.5,0.9l-0.7,0.4c-0.8,0.5-1.3,0.9-1.4,1.4c-0.2,0.5-0.1,0.9,0.1,1.4c0.2,0.3,0.4,0.6,0.7,0.8l2.8,1.6l7,3.9l0.6-5.8
			c0.3-3,0.2-4.9-0.2-5.7c-0.2-0.4-0.6-0.7-1-1c-0.4-0.2-0.9-0.3-1.4-0.3c-0.5,0-1.2,0.3-2.1,0.8l-0.5-0.9l10.4-6l0.5,0.9
			c-0.8,0.5-1.4,1-1.8,1.5c-0.4,0.5-0.7,1.2-0.9,2.1c-0.1,0.6-0.4,2.3-0.7,5L132.5,54.5z"/>
		<path d="M171.2,55.6l0.5,0.9l-14.8,8.6l-0.5-0.9l0.9-0.5c0.8-0.5,1.4-1,1.7-1.6c0.2-0.4,0.3-1,0.2-1.6c-0.1-0.5-0.5-1.5-1.5-3.1
			l-12-20.7c-0.9-1.6-1.6-2.6-2-2.9c-0.4-0.3-0.9-0.5-1.5-0.5c-0.6,0-1.4,0.2-2.2,0.6l-0.9,0.5l-0.5-0.9l14.8-8.6l0.5,0.9l-0.9,0.5
			c-0.8,0.5-1.4,1-1.7,1.6c-0.2,0.4-0.3,1-0.2,1.6c0.1,0.5,0.5,1.5,1.5,3.1l12,20.7c0.9,1.6,1.6,2.6,2,2.9c0.4,0.3,0.9,0.5,1.6,0.5
			c0.6,0,1.4-0.2,2.2-0.6L171.2,55.6z"/>
	</g>
</g>
</svg>
