<?xml version="1.0" encoding="utf-8"?>
<!-- Generator: Adobe Illustrator 19.2.0, SVG Export Plug-In . SVG Version: 6.00 Build 0)  -->
<svg version="1.1" id="icon" xmlns="http://www.w3.org/2000/svg" xmlns:xlink="http://www.w3.org/1999/xlink" x="0px" y="0px"
	 viewBox="0 0 512 512" style="enable-background:new 0 0 512 512;" xml:space="preserve">
<g>
	<circle cx="256" cy="256" r="10.2"/>
	<path d="M256,12.7c32.9,0,64.7,6.4,94.7,19.1c29,12.3,55,29.8,77.3,52.2c22.3,22.3,39.9,48.4,52.2,77.3
		c12.7,30,19.1,61.9,19.1,94.7s-6.4,64.7-19.1,94.7c-12.3,29-29.8,55-52.2,77.3c-22.3,22.3-48.4,39.9-77.3,52.2
		c-30,12.7-61.9,19.1-94.7,19.1s-64.7-6.4-94.7-19.1c-29-12.3-55-29.8-77.3-52.2S44,379.7,31.8,350.7c-12.7-30-19.1-61.9-19.1-94.7
		s6.4-64.7,19.1-94.7c12.3-29,29.8-55,52.2-77.3c22.3-22.3,48.4-39.9,77.3-52.2C191.3,19.1,223.1,12.7,256,12.7 M256,4.7
		C117.2,4.7,4.7,117.2,4.7,256S117.2,507.3,256,507.3S507.3,394.8,507.3,256S394.8,4.7,256,4.7L256,4.7z"/>
	<g>
		<g>
			<rect x="251.3" y="26.5" width="9.4" height="18.9"/>
			<rect x="251.3" y="466.6" width="9.4" height="18.9"/>
			<rect x="31.3" y="246.6" transform="matrix(4.473406e-011 -1 1 4.473406e-011 -220.0181 291.9819)" width="9.4" height="18.9"/>
			<rect x="471.3" y="246.6" transform="matrix(4.511953e-011 -1 1 4.511953e-011 220.0181 732.0181)" width="9.4" height="18.9"/>
			<rect x="60.7" y="136.6" transform="matrix(0.5 -0.866 0.866 0.5 -93.7025 129.6844)" width="9.4" height="18.9"/>
			<rect x="441.8" y="356.6" transform="matrix(0.5 -0.866 0.866 0.5 -93.7025 569.7206)" width="9.4" height="18.9"/>
			<rect x="141.3" y="437.1" transform="matrix(-0.866 -0.5 0.5 -0.866 49.1523 906.2527)" width="9.4" height="18.9"/>
			<rect x="361.3" y="56" transform="matrix(-0.866 -0.5 0.5 -0.866 650.2527 305.1523)" width="9.4" height="18.9"/>
			<rect x="141.3" y="56" transform="matrix(0.866 -0.5 0.5 0.866 -13.1703 81.7653)" width="9.4" height="18.9"/>
			<rect x="361.3" y="437.1" transform="matrix(0.866 -0.5 0.5 0.866 -174.2347 242.8297)" width="9.4" height="18.9"/>
			<rect x="60.7" y="356.6" transform="matrix(-0.5 -0.866 0.866 -0.5 -218.785 605.7025)" width="9.4" height="18.9"/>
			<rect x="441.8" y="136.6" transform="matrix(-0.5 -0.866 0.866 -0.5 543.3799 605.7025)" width="9.4" height="18.9"/>
		</g>
		<g>
			<g>
				<rect x="346" y="46" transform="matrix(0.9135 0.4067 -0.4067 0.9135 50.6543 -136.9208)" width="2.7" height="9.4"/>
				<rect x="163.3" y="456.4" transform="matrix(0.9135 0.4067 -0.4067 0.9135 201.8309 -27.0845)" width="2.7" height="9.6"/>
			</g>
			<g>
				<rect x="324.1" y="37.5" transform="matrix(0.9511 0.309 -0.309 0.9511 28.9889 -98.5001)" width="2.7" height="9.4"/>
				<rect x="185.2" y="464.9" transform="matrix(0.9511 0.309 -0.309 0.9511 154.2631 -34.6697)" width="2.7" height="9.6"/>
			</g>
			<g>
				<rect x="301.4" y="31.5" transform="matrix(0.9781 0.2079 -0.2079 0.9781 14.1367 -62.1495)" width="2.7" height="9.4"/>
				<rect x="207.9" y="470.9" transform="matrix(0.9781 0.2079 -0.2079 0.9781 103.4856 -33.1183)" width="2.7" height="9.6"/>
			</g>
			<g>
				<rect x="278.1" y="27.8" transform="matrix(0.9945 0.1045 -0.1045 0.9945 4.9279 -29.0368)" width="2.7" height="9.4"/>
				<rect x="231.1" y="474.6" transform="matrix(0.9945 0.1045 -0.1045 0.9945 51.3867 -21.6784)" width="2.7" height="9.6"/>
			</g>
		</g>
		<g>
			<g>
				<rect x="436.4" y="119.2" transform="matrix(0.5878 0.809 -0.809 0.5878 280.7141 -303.1241)" width="2.7" height="9.4"/>
				<rect x="72.9" y="383.2" transform="matrix(0.5878 0.809 -0.809 0.5878 344.5445 99.885)" width="2.7" height="9.6"/>
			</g>
			<g>
				<rect x="421.6" y="100.9" transform="matrix(0.6691 0.7431 -0.7431 0.6691 218.4544 -279.4107)" width="2.7" height="9.4"/>
				<rect x="87.7" y="401.5" transform="matrix(0.6691 0.7431 -0.7431 0.6691 331.4194 68.2598)" width="2.7" height="9.6"/>
			</g>
			<g>
				<rect x="405" y="84.3" transform="matrix(0.7431 0.6691 -0.6691 0.7431 163.9256 -249.0619)" width="2.7" height="9.4"/>
				<rect x="104.3" y="418.1" transform="matrix(0.7431 0.6691 -0.6691 0.7431 310.1514 37.9225)" width="2.7" height="9.6"/>
			</g>
			<g>
				<rect x="386.7" y="69.5" transform="matrix(0.809 0.5878 -0.5878 0.809 117.7249 -213.9488)" width="2.7" height="9.4"/>
				<rect x="122.6" y="432.9" transform="matrix(0.809 0.5878 -0.5878 0.809 280.9734 10.7435)" width="2.7" height="9.6"/>
			</g>
		</g>
		<g>
			<g>
				<rect x="478.1" y="227.8" transform="matrix(0.1045 0.9945 -0.9945 0.1045 660.6171 -268.672)" width="2.7" height="9.4"/>
				<rect x="31.2" y="274.7" transform="matrix(0.1045 0.9945 -0.9945 0.1045 307.1266 217.866)" width="2.7" height="9.6"/>
			</g>
			<g>
				<rect x="474.5" y="204.6" transform="matrix(0.2079 0.9781 -0.9781 0.2079 581.5964 -299.6617)" width="2.7" height="9.4"/>
				<rect x="34.9" y="297.9" transform="matrix(0.2079 0.9781 -0.9781 0.2079 324.8131 204.3038)" width="2.7" height="9.6"/>
			</g>
			<g>
				<rect x="468.4" y="181.8" transform="matrix(0.309 0.9511 -0.9511 0.309 502.0019 -317.8401)" width="2.7" height="9.4"/>
				<rect x="41" y="320.6" transform="matrix(0.309 0.9511 -0.9511 0.309 338.7533 184.5872)" width="2.7" height="9.6"/>
			</g>
			<g>
				<rect x="459.9" y="159.9" transform="matrix(0.4067 0.9135 -0.9135 0.4067 424.038 -323.7771)" width="2.7" height="9.4"/>
				<rect x="49.4" y="342.6" transform="matrix(0.4067 0.9135 -0.9135 0.4067 347.4626 159.701)" width="2.7" height="9.6"/>
			</g>
		</g>
		<g>
			<g>
				<rect x="459.9" y="342.7" transform="matrix(-0.4067 0.9135 -0.9135 -0.4067 966.3083 67.2879)" width="2.7" height="9.4"/>
				<rect x="49.4" y="159.8" transform="matrix(-0.4067 0.9135 -0.9135 -0.4067 221.8173 185.2037)" width="2.7" height="9.6"/>
			</g>
			<g>
				<rect x="468.4" y="320.7" transform="matrix(-0.309 0.9511 -0.9511 -0.309 924.4103 -20.7296)" width="2.7" height="9.4"/>
				<rect x="41" y="181.8" transform="matrix(-0.309 0.9511 -0.9511 -0.309 232.8785 203.9627)" width="2.7" height="9.6"/>
			</g>
			<g>
				<rect x="474.5" y="298" transform="matrix(-0.2079 0.9781 -0.9781 -0.2079 870.863 -99.7609)" width="2.7" height="9.4"/>
				<rect x="34.9" y="204.5" transform="matrix(-0.2079 0.9781 -0.9781 -0.2079 248.5174 217.34)" width="2.7" height="9.6"/>
			</g>
			<g>
				<rect x="478.1" y="274.8" transform="matrix(-0.1045 0.9945 -0.9945 -0.1045 807.5857 -168.171)" width="2.7" height="9.4"/>
				<rect x="31.2" y="227.7" transform="matrix(-0.1045 0.9945 -0.9945 -0.1045 267.2306 224.42)" width="2.7" height="9.6"/>
			</g>
		</g>
		<g>
			<g>
				<rect x="386.7" y="433.1" transform="matrix(-0.809 0.5878 -0.5878 -0.809 959.4128 563.8966)" width="2.7" height="9.4"/>
				<rect x="122.6" y="69.5" transform="matrix(-0.809 0.5878 -0.5878 -0.809 267.881 61.4693)" width="2.7" height="9.6"/>
			</g>
			<g>
				<rect x="405" y="418.3" transform="matrix(-0.7431 0.6691 -0.6691 -0.7431 991.4233 465.4494)" width="2.7" height="9.4"/>
				<rect x="104.3" y="84.3" transform="matrix(-0.7431 0.6691 -0.6691 -0.7431 243.8035 84.5181)" width="2.7" height="9.6"/>
			</g>
			<g>
				<rect x="421.6" y="401.7" transform="matrix(-0.6691 0.7431 -0.7431 -0.6691 1008.0569 363.9382)" width="2.7" height="9.4"/>
				<rect x="87.7" y="100.9" transform="matrix(-0.6691 0.7431 -0.7431 -0.6691 227.1762 110.2147)" width="2.7" height="9.6"/>
			</g>
			<g>
				<rect x="436.4" y="383.4" transform="matrix(-0.5878 0.809 -0.809 -0.5878 1009.1313 262.0136)" width="2.7" height="9.4"/>
				<rect x="72.9" y="119.2" transform="matrix(-0.5878 0.809 -0.809 -0.5878 218.1814 136.7395)" width="2.7" height="9.6"/>
			</g>
		</g>
		<g>
			<g>
				<rect x="278.1" y="474.8" transform="matrix(-0.9945 0.1045 -0.1045 -0.9945 607.5731 927.166)" width="2.7" height="9.4"/>
				<rect x="231.1" y="27.8" transform="matrix(-0.9945 0.1045 -0.1045 -0.9945 467.1673 40.6787)" width="2.7" height="9.6"/>
			</g>
			<g>
				<rect x="301.4" y="471.1" transform="matrix(-0.9781 0.2079 -0.2079 -0.9781 697.7641 878.3098)" width="2.7" height="9.4"/>
				<rect x="207.9" y="31.5" transform="matrix(-0.9781 0.2079 -0.2079 -0.9781 421.5506 28.2121)" width="2.7" height="9.6"/>
			</g>
			<g>
				<rect x="324.1" y="465" transform="matrix(-0.9511 0.309 -0.309 -0.9511 780.1216 815.912)" width="2.7" height="9.4"/>
				<rect x="185.2" y="37.5" transform="matrix(-0.9511 0.309 -0.309 -0.9511 377.1125 24.9621)" width="2.7" height="9.6"/>
			</g>
			<g>
				<rect x="346" y="456.6" transform="matrix(-0.9135 0.4067 -0.4067 -0.9135 852.4107 741.4256)" width="2.7" height="9.4"/>
				<rect x="163.3" y="46" transform="matrix(-0.9135 0.4067 -0.4067 -0.9135 335.6717 30.1954)" width="2.7" height="9.6"/>
			</g>
		</g>
	</g>
	<g>
		<g>
			<path d="M244,76.9l6.9,11.3c1.1,1.9,1.9,3,2.4,3.4c0.5,0.4,1.1,0.6,1.7,0.7v0.8h-12.1v-0.8c1-0.1,1.6-0.2,1.9-0.5
				c0.3-0.2,0.4-0.5,0.4-0.9c0-0.2,0-0.5-0.1-0.7c-0.2-0.4-0.6-1.2-1.3-2.3l-3.6-6l-3.8,5.2c-1.1,1.6-1.7,2.6-1.7,3.2
				c0,0.4,0.1,0.8,0.4,1.1c0.3,0.3,0.7,0.6,1.3,0.7c0.3,0.1,0.8,0.1,1.6,0.1v0.8h-9.5v-0.8c1.1-0.2,1.9-0.5,2.6-1
				c0.8-0.6,2-1.9,3.4-3.9l4.9-6.7L233,70.4c-1-1.7-1.6-2.6-1.8-2.8c-0.3-0.4-0.7-0.8-1-1c-0.3-0.2-0.8-0.3-1.3-0.4v-0.8h12.3v0.8
				h-0.6c-0.7,0-1.2,0.1-1.5,0.4c-0.3,0.3-0.4,0.6-0.4,0.9c0,0.3,0,0.6,0.1,0.8l1.3,2.1l3.1,5.2l2.6-3.6c1.3-1.8,2-3.1,2-3.8
				c0-0.4-0.1-0.7-0.3-1c-0.2-0.3-0.5-0.6-0.8-0.7c-0.4-0.2-0.9-0.3-1.6-0.3v-0.8h9.1v0.8c-0.7,0-1.3,0.1-1.7,0.3
				c-0.4,0.2-0.9,0.5-1.4,1c-0.3,0.3-1.1,1.3-2.4,3L244,76.9z"/>
			<path d="M269,92.3v0.8h-13v-0.8h0.8c0.7,0,1.3-0.1,1.7-0.4c0.3-0.2,0.6-0.5,0.7-1c0.1-0.3,0.2-1.2,0.2-2.6V70.2
				c0-1.4-0.1-2.3-0.2-2.6c-0.1-0.4-0.4-0.7-0.8-0.9c-0.4-0.3-1-0.4-1.7-0.4H256v-0.8h13v0.8h-0.8c-0.7,0-1.3,0.1-1.7,0.4
				c-0.3,0.2-0.6,0.5-0.8,1c-0.1,0.3-0.2,1.2-0.2,2.6v18.2c0,1.4,0.1,2.3,0.2,2.6c0.1,0.4,0.4,0.7,0.8,0.9c0.4,0.3,1,0.4,1.7,0.4
				H269z"/>
			<path d="M283.6,92.3v0.8h-13v-0.8h0.8c0.7,0,1.3-0.1,1.7-0.4c0.3-0.2,0.6-0.5,0.7-1c0.1-0.3,0.2-1.2,0.2-2.6V70.2
				c0-1.4-0.1-2.3-0.2-2.6c-0.1-0.4-0.4-0.7-0.8-0.9c-0.4-0.3-1-0.4-1.7-0.4h-0.8v-0.8h13v0.8h-0.8c-0.7,0-1.3,0.1-1.7,0.4
				c-0.3,0.2-0.6,0.5-0.8,1c-0.1,0.3-0.2,1.2-0.2,2.6v18.2c0,1.4,0.1,2.3,0.2,2.6c0.1,0.4,0.4,0.7,0.8,0.9c0.4,0.3,1,0.4,1.7,0.4
				H283.6z"/>
		</g>
		<g>
			<path d="M343.5,117.5l-0.4,0.7l-11.3-6.5l0.4-0.7l0.7,0.4c0.6,0.4,1.2,0.5,1.7,0.5c0.4,0,0.7-0.2,1.1-0.5
				c0.3-0.2,0.8-0.9,1.5-2.1l9.1-15.7c0.7-1.2,1.1-2,1.1-2.4c0.1-0.4,0-0.8-0.2-1.2c-0.2-0.4-0.6-0.8-1.2-1.2l-0.7-0.4l0.4-0.7
				l11.3,6.5l-0.4,0.7l-0.7-0.4c-0.6-0.4-1.2-0.5-1.7-0.5c-0.4,0-0.8,0.2-1.1,0.5c-0.3,0.2-0.8,0.9-1.5,2.1l-9.1,15.7
				c-0.7,1.2-1.1,2-1.1,2.4c-0.1,0.4,0,0.8,0.3,1.2c0.2,0.4,0.6,0.8,1.2,1.2L343.5,117.5z"/>
		</g>
		<g>
			<path d="M397.4,173.5l-0.7,0.4l-6.5-11.3l0.7-0.4l0.4,0.7c0.4,0.6,0.8,1.1,1.2,1.3c0.3,0.2,0.7,0.2,1.2,0.1
				c0.3,0,1.1-0.4,2.3-1.1l15.7-9.1c1.2-0.7,2-1.2,2.2-1.5c0.2-0.3,0.4-0.7,0.4-1.2c0-0.5-0.1-1-0.5-1.6l-0.4-0.7l0.7-0.4l6.5,11.3
				l-0.7,0.4l-0.4-0.7c-0.4-0.6-0.8-1.1-1.2-1.3c-0.3-0.2-0.7-0.2-1.2-0.2c-0.3,0-1.1,0.4-2.3,1.1l-15.7,9.1c-1.2,0.7-2,1.2-2.2,1.5
				c-0.2,0.3-0.4,0.7-0.4,1.2c0,0.5,0.1,1,0.5,1.6L397.4,173.5z"/>
			<path d="M404.7,186.1l-0.7,0.4l-6.5-11.3l0.7-0.4l0.4,0.7c0.4,0.6,0.8,1.1,1.2,1.3c0.3,0.2,0.7,0.2,1.2,0.1
				c0.3,0,1.1-0.4,2.3-1.1l15.7-9.1c1.2-0.7,2-1.2,2.2-1.5c0.2-0.3,0.4-0.7,0.4-1.2c0-0.5-0.1-1-0.5-1.6l-0.4-0.7l0.7-0.4l6.5,11.3
				l-0.7,0.4l-0.4-0.7c-0.4-0.6-0.8-1.1-1.2-1.3c-0.3-0.2-0.7-0.2-1.2-0.2c-0.3,0-1.1,0.4-2.3,1.1l-15.7,9.1c-1.2,0.7-2,1.2-2.2,1.5
				c-0.2,0.3-0.4,0.7-0.4,1.2c0,0.5,0.1,1,0.5,1.6L404.7,186.1z"/>
		</g>
		<g>
			<path d="M419.7,247.9h-0.8v-13h0.8v0.8c0,0.7,0.1,1.3,0.4,1.7c0.2,0.3,0.5,0.6,1,0.7c0.3,0.1,1.2,0.2,2.6,0.2h18.2
				c1.4,0,2.3-0.1,2.6-0.2c0.4-0.1,0.7-0.4,0.9-0.8c0.3-0.4,0.4-1,0.4-1.7v-0.8h0.8v13h-0.8v-0.8c0-0.7-0.1-1.3-0.4-1.7
				c-0.2-0.3-0.5-0.6-1-0.8c-0.3-0.1-1.2-0.2-2.6-0.2h-18.2c-1.4,0-2.3,0.1-2.6,0.2c-0.4,0.1-0.7,0.4-0.9,0.8
				c-0.3,0.4-0.4,1-0.4,1.7V247.9z"/>
			<path d="M419.7,262.5h-0.8v-13h0.8v0.8c0,0.7,0.1,1.3,0.4,1.7c0.2,0.3,0.5,0.6,1,0.7c0.3,0.1,1.2,0.2,2.6,0.2h18.2
				c1.4,0,2.3-0.1,2.6-0.2c0.4-0.1,0.7-0.4,0.9-0.8c0.3-0.4,0.4-1,0.4-1.7v-0.8h0.8v13h-0.8v-0.8c0-0.7-0.1-1.3-0.4-1.7
				c-0.2-0.3-0.5-0.6-1-0.8c-0.3-0.1-1.2-0.2-2.6-0.2h-18.2c-1.4,0-2.3,0.1-2.6,0.2c-0.4,0.1-0.7,0.4-0.9,0.8
				c-0.3,0.4-0.4,1-0.4,1.7V262.5z"/>
			<path d="M419.7,277.1h-0.8v-13h0.8v0.8c0,0.7,0.1,1.3,0.4,1.7c0.2,0.3,0.5,0.6,1,0.7c0.3,0.1,1.2,0.2,2.6,0.2h18.2
				c1.4,0,2.3-0.1,2.6-0.2c0.4-0.1,0.7-0.4,0.9-0.8c0.3-0.4,0.4-1,0.4-1.7v-0.8h0.8v13h-0.8v-0.8c0-0.7-0.1-1.3-0.4-1.7
				c-0.2-0.3-0.5-0.6-1-0.8c-0.3-0.1-1.2-0.2-2.6-0.2h-18.2c-1.4,0-2.3,0.1-2.6,0.2c-0.4,0.1-0.7,0.4-0.9,0.8
				c-0.3,0.4-0.4,1-0.4,1.7V277.1z"/>
		</g>
		<g>
			<path d="M401.4,331.5l-0.7-0.4l6.5-11.3l0.7,0.4l-0.4,0.7c-0.4,0.6-0.5,1.2-0.5,1.7c0,0.4,0.2,0.7,0.5,1.1
				c0.2,0.3,0.9,0.8,2.1,1.5l15.7,9.1c1.2,0.7,2,1.1,2.4,1.1c0.4,0.1,0.8,0,1.2-0.2c0.4-0.2,0.8-0.6,1.2-1.2l0.4-0.7l0.7,0.4
				l-6.5,11.3l-0.7-0.4l0.4-0.7c0.4-0.6,0.5-1.2,0.5-1.7c0-0.4-0.2-0.8-0.5-1.1c-0.2-0.3-0.9-0.8-2.1-1.5l-15.7-9.1
				c-1.2-0.7-2-1.1-2.4-1.1c-0.4-0.1-0.8,0-1.2,0.3c-0.4,0.2-0.8,0.6-1.2,1.2L401.4,331.5z"/>
			<path d="M410.9,368.8l-0.7-0.4c0.3-0.9,0.2-1.8-0.2-2.9c-0.3-0.8-1.3-2.2-3-4.4l-14-18l0.3-0.5l23.3,3.6c2.8,0.4,4.5,0.6,5.1,0.5
				c0.6-0.1,1.2-0.5,1.7-1.3l0.7,0.4l-6,10.3l-0.7-0.4l0.2-0.3c0.5-0.9,0.8-1.6,0.7-2.1c0-0.3-0.2-0.6-0.6-0.8
				c-0.2-0.1-0.5-0.2-0.8-0.3c-0.3-0.1-1.3-0.2-2.8-0.5l-14.5-2.3l8.1,10.4c1,1.2,1.7,2.1,2,2.4c0.4,0.4,0.7,0.6,1,0.8
				c0.4,0.2,0.7,0.3,1.1,0.3c0.4,0,0.7-0.1,1-0.4c0.5-0.3,0.9-0.9,1.3-1.6l0.7,0.4L410.9,368.8z"/>
		</g>
		<g>
			<path d="M339.8,427.6l-0.4-0.7c0.7-0.6,1.1-1.5,1.3-2.6c0.1-0.8,0-2.6-0.4-5.3l-3.1-22.5l0.5-0.3l18.4,14.7
				c2.2,1.8,3.6,2.8,4.1,3c0.5,0.2,1.2,0.1,2.1-0.2l0.4,0.7l-10.3,6l-0.4-0.7l0.3-0.2c0.9-0.5,1.5-1,1.7-1.5c0.1-0.3,0.1-0.6-0.1-1
				c-0.1-0.2-0.3-0.4-0.6-0.7c-0.3-0.2-1-0.8-2.2-1.8l-11.5-9.3l1.9,13.1c0.2,1.6,0.4,2.6,0.6,3.1c0.1,0.5,0.3,0.9,0.5,1.2
				c0.2,0.4,0.5,0.6,0.8,0.8c0.3,0.2,0.7,0.2,1.1,0.2c0.6-0.1,1.2-0.3,2-0.7l0.4,0.7L339.8,427.6z"/>
		</g>
		<g>
			<path d="M249.9,446.5v-0.8c0.9-0.2,1.7-0.7,2.4-1.6c0.5-0.7,1.3-2.3,2.3-4.8l8.6-21.1h0.6l8.5,21.9c1,2.6,1.7,4.2,2.1,4.7
				c0.3,0.5,1,0.8,2,0.9v0.8h-11.9v-0.8h0.4c1.1,0,1.8-0.1,2.2-0.4c0.3-0.2,0.4-0.5,0.4-0.9c0-0.2,0-0.5-0.1-0.9
				c-0.1-0.3-0.4-1.2-1-2.7l-5.3-13.7l-4.9,12.2c-0.6,1.5-0.9,2.5-1.1,3c-0.1,0.5-0.2,0.9-0.2,1.3c0,0.4,0.1,0.8,0.3,1.1
				c0.2,0.3,0.5,0.6,0.9,0.7c0.5,0.2,1.2,0.3,2.1,0.3v0.8H249.9z"/>
			<path d="M235.7,419.7v-0.8h13v0.8h-0.8c-0.7,0-1.3,0.1-1.7,0.4c-0.3,0.2-0.6,0.5-0.7,1c-0.1,0.3-0.2,1.2-0.2,2.6v18.2
				c0,1.4,0.1,2.3,0.2,2.6c0.1,0.4,0.4,0.7,0.8,0.9c0.4,0.3,1,0.4,1.7,0.4h0.8v0.8h-13v-0.8h0.8c0.7,0,1.3-0.1,1.7-0.4
				c0.3-0.2,0.6-0.5,0.8-1c0.1-0.3,0.2-1.2,0.2-2.6v-18.2c0-1.4-0.1-2.3-0.2-2.6c-0.1-0.4-0.4-0.7-0.8-0.9c-0.4-0.3-1-0.4-1.7-0.4
				H235.7z"/>
		</g>
		<g>
			<path d="M161.7,421.6l0.4-0.7c0.9,0.3,1.8,0.3,2.9-0.2c0.8-0.3,2.2-1.3,4.4-3l18-14l0.5,0.3l-3.6,23.3c-0.4,2.8-0.6,4.5-0.5,5.1
				c0.1,0.6,0.5,1.2,1.3,1.7l-0.4,0.7l-10.3-6l0.4-0.7l0.3,0.2c0.9,0.5,1.6,0.8,2.1,0.7c0.3,0,0.6-0.2,0.8-0.6
				c0.1-0.2,0.2-0.5,0.3-0.8c0.1-0.3,0.2-1.3,0.5-2.8l2.3-14.5l-10.4,8.1c-1.2,1-2.1,1.7-2.4,2s-0.6,0.7-0.8,1
				c-0.2,0.4-0.3,0.7-0.3,1.1c0,0.4,0.1,0.7,0.4,1c0.3,0.5,0.9,0.9,1.6,1.3l-0.4,0.7L161.7,421.6z"/>
			<path d="M162.9,391.3l0.4-0.7l11.3,6.5l-0.4,0.7l-0.7-0.4c-0.6-0.4-1.2-0.5-1.7-0.5c-0.4,0-0.7,0.2-1.1,0.5
				c-0.3,0.2-0.8,0.9-1.5,2.1l-9.1,15.7c-0.7,1.2-1.1,2-1.1,2.4c-0.1,0.4,0,0.8,0.2,1.2c0.2,0.4,0.6,0.8,1.2,1.2l0.7,0.4l-0.4,0.7
				l-11.3-6.5l0.4-0.7l0.7,0.4c0.6,0.4,1.2,0.5,1.7,0.5c0.4,0,0.8-0.2,1.1-0.5c0.3-0.2,0.8-0.9,1.5-2.1l9.1-15.7
				c0.7-1.2,1.1-2,1.1-2.4c0.1-0.4,0-0.8-0.3-1.2c-0.2-0.4-0.6-0.8-1.2-1.2L162.9,391.3z"/>
			<path d="M150.3,384l0.4-0.7l11.3,6.5l-0.4,0.7l-0.7-0.4c-0.6-0.4-1.2-0.5-1.7-0.5c-0.4,0-0.7,0.2-1.1,0.5
				c-0.3,0.2-0.8,0.9-1.5,2.1l-9.1,15.7c-0.7,1.2-1.1,2-1.1,2.4c-0.1,0.4,0,0.8,0.2,1.2c0.2,0.4,0.6,0.8,1.2,1.2l0.7,0.4l-0.4,0.7
				l-11.3-6.5l0.4-0.7l0.7,0.4c0.6,0.4,1.2,0.5,1.7,0.5c0.4,0,0.8-0.2,1.1-0.5c0.3-0.2,0.8-0.9,1.5-2.1l9.1-15.7
				c0.7-1.2,1.1-2,1.1-2.4c0.1-0.4,0-0.8-0.3-1.2c-0.2-0.4-0.6-0.8-1.2-1.2L150.3,384z"/>
		</g>
		<g>
			<path d="M95.2,358.6l0.7-0.4c0.6,0.7,1.5,1.1,2.6,1.3c0.8,0.1,2.6,0,5.3-0.4l22.5-3.1l0.3,0.5l-14.7,18.4c-1.8,2.2-2.8,3.6-3,4.1
				c-0.2,0.5-0.1,1.2,0.2,2.1l-0.7,0.4l-6-10.3l0.7-0.4l0.2,0.3c0.5,0.9,1,1.5,1.5,1.7c0.3,0.1,0.6,0.1,1-0.1
				c0.2-0.1,0.4-0.3,0.7-0.6c0.2-0.3,0.8-1,1.8-2.2l9.3-11.5l-13.1,1.9c-1.6,0.2-2.6,0.4-3.1,0.6c-0.5,0.1-0.9,0.3-1.2,0.5
				c-0.4,0.2-0.6,0.5-0.8,0.8c-0.2,0.3-0.2,0.7-0.2,1.1c0.1,0.6,0.3,1.2,0.7,2l-0.7,0.4L95.2,358.6z"/>
			<path d="M111.4,332.9l0.7-0.4l6.5,11.3l-0.7,0.4l-0.4-0.7c-0.4-0.6-0.8-1.1-1.2-1.3c-0.3-0.2-0.7-0.2-1.2-0.1
				c-0.3,0-1.1,0.4-2.3,1.1L97,352.2c-1.2,0.7-2,1.2-2.2,1.5c-0.2,0.3-0.4,0.7-0.4,1.2c0,0.5,0.1,1,0.5,1.6l0.4,0.7l-0.7,0.4
				l-6.5-11.3l0.7-0.4l0.4,0.7c0.4,0.6,0.8,1.1,1.2,1.3c0.3,0.2,0.7,0.2,1.2,0.2c0.3,0,1.1-0.4,2.3-1.1l15.7-9.1
				c1.2-0.7,2-1.2,2.2-1.5c0.2-0.3,0.4-0.7,0.4-1.2c0-0.5-0.1-1-0.5-1.6L111.4,332.9z"/>
			<path d="M104.1,320.3l0.7-0.4l6.5,11.3l-0.7,0.4l-0.4-0.7c-0.4-0.6-0.8-1.1-1.2-1.3c-0.3-0.2-0.7-0.2-1.2-0.1
				c-0.3,0-1.1,0.4-2.3,1.1l-15.7,9.1c-1.2,0.7-2,1.2-2.2,1.5c-0.2,0.3-0.4,0.7-0.4,1.2c0,0.5,0.1,1,0.5,1.6l0.4,0.7l-0.7,0.4
				l-6.5-11.3l0.7-0.4l0.4,0.7c0.4,0.6,0.8,1.1,1.2,1.3c0.3,0.2,0.7,0.2,1.2,0.2c0.3,0,1.1-0.4,2.3-1.1l15.7-9.1
				c1.2-0.7,2-1.2,2.2-1.5c0.2-0.3,0.4-0.7,0.4-1.2c0-0.5-0.1-1-0.5-1.6L104.1,320.3z"/>
			<path d="M96.8,307.6l0.7-0.4l6.5,11.3l-0.7,0.4l-0.4-0.7c-0.4-0.6-0.8-1.1-1.2-1.3c-0.3-0.2-0.7-0.2-1.2-0.1
				c-0.3,0-1.1,0.4-2.3,1.1l-15.7,9.1c-1.2,0.7-2,1.2-2.2,1.5c-0.2,0.3-0.4,0.7-0.4,1.2c0,0.5,0.1,1,0.5,1.6l0.4,0.7l-0.7,0.4
				l-6.5-11.3l0.7-0.4l0.4,0.7c0.4,0.6,0.8,1.1,1.2,1.3c0.3,0.2,0.7,0.2,1.2,0.2c0.3,0,1.1-0.4,2.3-1.1l15.7-9.1
				c1.2-0.7,2-1.2,2.2-1.5c0.2-0.3,0.4-0.7,0.4-1.2c0-0.5-0.1-1-0.5-1.6L96.8,307.6z"/>
		</g>
		<g>
			<path d="M92.3,263.4h0.8v13h-0.8v-0.8c0-0.7-0.1-1.3-0.4-1.7c-0.2-0.3-0.5-0.6-1-0.7c-0.3-0.1-1.2-0.2-2.6-0.2H70.2
				c-1.4,0-2.3,0.1-2.6,0.2c-0.4,0.1-0.7,0.4-0.9,0.8c-0.3,0.4-0.4,1-0.4,1.7v0.8h-0.8v-13h0.8v0.8c0,0.7,0.1,1.3,0.4,1.7
				c0.2,0.3,0.5,0.6,1,0.8c0.3,0.1,1.2,0.2,2.6,0.2h18.2c1.4,0,2.3-0.1,2.6-0.2c0.4-0.1,0.7-0.4,0.9-0.8c0.3-0.4,0.4-1,0.4-1.7
				V263.4z"/>
			<path d="M76.9,246.6l11.3-6.9c1.9-1.1,3-1.9,3.4-2.4c0.4-0.5,0.6-1.1,0.7-1.7h0.8v12.1h-0.8c-0.1-1-0.2-1.6-0.5-1.9
				c-0.2-0.3-0.5-0.4-0.9-0.4c-0.2,0-0.5,0-0.7,0.1c-0.4,0.2-1.2,0.6-2.3,1.3l-6,3.6l5.2,3.8c1.6,1.1,2.6,1.7,3.2,1.7
				c0.4,0,0.8-0.1,1.1-0.4c0.3-0.3,0.6-0.7,0.7-1.3c0.1-0.3,0.1-0.8,0.1-1.6h0.8v9.5h-0.8c-0.2-1.1-0.5-1.9-1-2.6
				c-0.6-0.8-1.9-2-3.9-3.4l-6.7-4.9l-10.3,6.3c-1.7,1-2.6,1.6-2.8,1.8c-0.4,0.3-0.8,0.7-1,1c-0.2,0.3-0.3,0.8-0.4,1.3h-0.8v-12.3
				h0.8v0.6c0,0.7,0.1,1.2,0.4,1.5c0.3,0.3,0.6,0.4,0.9,0.4c0.3,0,0.6,0,0.8-0.1l2.1-1.3l5.2-3.1l-3.6-2.6c-1.8-1.3-3.1-2-3.8-2
				c-0.4,0-0.7,0.1-1,0.3c-0.3,0.2-0.6,0.5-0.7,0.8c-0.2,0.4-0.3,0.9-0.3,1.6h-0.8v-9.1h0.8c0,0.7,0.1,1.3,0.3,1.7
				c0.2,0.4,0.5,0.9,1,1.4c0.3,0.3,1.3,1.1,3,2.4L76.9,246.6z"/>
		</g>
		<g>
			<path d="M102,164.4l13.2-0.3c2.2,0,3.6-0.2,4.2-0.4c0.6-0.2,1.1-0.6,1.5-1.1l0.7,0.4l-6.1,10.5l-0.7-0.4c0.4-0.9,0.6-1.5,0.5-1.9
				c-0.1-0.4-0.3-0.6-0.6-0.8c-0.2-0.1-0.4-0.2-0.6-0.2c-0.4-0.1-1.3-0.1-2.6,0l-7,0.2l2.6,5.9c0.8,1.8,1.4,2.8,1.9,3.1
				c0.3,0.2,0.7,0.3,1.2,0.2c0.4-0.1,0.9-0.3,1.3-0.8c0.2-0.2,0.5-0.6,0.9-1.3l0.7,0.4l-4.8,8.3l-0.7-0.4c0.4-1,0.5-1.9,0.4-2.7
				c-0.1-1-0.7-2.7-1.7-4.9l-3.3-7.6l-12.1,0.3c-2,0.1-3.1,0.1-3.3,0.1c-0.6,0.1-1,0.2-1.3,0.4c-0.3,0.2-0.7,0.5-1,0.9l-0.7-0.4
				l6.2-10.7l0.7,0.4l-0.3,0.5c-0.4,0.6-0.5,1.1-0.4,1.5c0.1,0.4,0.3,0.6,0.6,0.8c0.3,0.1,0.5,0.2,0.7,0.3l2.5,0l6.1-0.1l-1.8-4.1
				c-0.9-2.1-1.7-3.3-2.3-3.7c-0.3-0.2-0.7-0.3-1-0.3c-0.4,0-0.7,0.1-1,0.3c-0.3,0.2-0.7,0.6-1.1,1.3l-0.7-0.4l4.6-7.9l0.7,0.4
				c-0.3,0.6-0.6,1.2-0.6,1.7c-0.1,0.5,0,1.1,0.2,1.7c0.1,0.4,0.6,1.6,1.4,3.6L102,164.4z"/>
		</g>
		<g>
			<path d="M162.4,103.2l11.6,6.4c1.9,1.1,3.2,1.6,3.8,1.7c0.6,0.1,1.2,0,1.8-0.2l0.4,0.7l-10.5,6.1l-0.4-0.7c0.8-0.6,1.3-1,1.4-1.4
				c0.1-0.4,0.1-0.7-0.1-1c-0.1-0.2-0.3-0.4-0.4-0.5c-0.4-0.3-1.1-0.7-2.3-1.3l-6.1-3.4l-0.7,6.4c-0.2,1.9-0.2,3.1,0.1,3.6
				c0.2,0.3,0.5,0.6,0.9,0.7c0.4,0.1,0.9,0.1,1.5,0c0.3-0.1,0.7-0.3,1.4-0.7l0.4,0.7L157,125l-0.4-0.7c0.9-0.7,1.4-1.4,1.7-2.1
				c0.4-0.9,0.7-2.6,1-5.1l0.9-8.2l-10.6-5.8c-1.7-0.9-2.7-1.5-3-1.6c-0.5-0.2-0.9-0.3-1.3-0.3c-0.4,0-0.8,0.1-1.4,0.3l-0.4-0.7
				l10.7-6.2l0.4,0.7l-0.5,0.3c-0.6,0.4-1,0.7-1.1,1.1c-0.1,0.4-0.1,0.7,0.1,1c0.1,0.3,0.3,0.5,0.5,0.6l2.2,1.2l5.3,3l0.5-4.4
				c0.2-2.3,0.2-3.7-0.2-4.3c-0.2-0.3-0.4-0.6-0.8-0.7c-0.3-0.2-0.7-0.3-1.1-0.2c-0.4,0-0.9,0.2-1.6,0.6l-0.4-0.7l7.9-4.6l0.4,0.7
				c-0.6,0.4-1.1,0.7-1.4,1.1c-0.3,0.4-0.5,0.9-0.7,1.6c-0.1,0.4-0.3,1.7-0.5,3.8L162.4,103.2z"/>
			<path d="M191.7,104.1l0.4,0.7l-11.3,6.5l-0.4-0.7l0.7-0.4c0.6-0.4,1.1-0.8,1.3-1.2c0.2-0.3,0.2-0.7,0.1-1.2
				c0-0.3-0.4-1.1-1.1-2.3l-9.1-15.7c-0.7-1.2-1.2-2-1.5-2.2c-0.3-0.2-0.7-0.4-1.2-0.4c-0.5,0-1,0.1-1.6,0.5l-0.7,0.4l-0.4-0.7
				l11.3-6.5l0.4,0.7l-0.7,0.4c-0.6,0.4-1.1,0.8-1.3,1.2c-0.2,0.3-0.2,0.7-0.2,1.2c0,0.3,0.4,1.1,1.1,2.3l9.1,15.7
				c0.7,1.2,1.2,2,1.5,2.2c0.3,0.2,0.7,0.4,1.2,0.4c0.5,0,1-0.1,1.6-0.5L191.7,104.1z"/>
		</g>
	</g>
</g>
</svg>
