<?xml version="1.0" encoding="utf-8"?>
<!-- Generator: Adobe Illustrator 19.2.0, SVG Export Plug-In . SVG Version: 6.00 Build 0)  -->
<svg version="1.1" id="icon" xmlns="http://www.w3.org/2000/svg" xmlns:xlink="http://www.w3.org/1999/xlink" x="0px" y="0px"
	 viewBox="0 0 512 512" style="enable-background:new 0 0 512 512;" xml:space="preserve">
<g>
	<path d="M256,12.7c32.9,0,64.7,6.4,94.7,19.1c29,12.3,55,29.8,77.3,52.2c22.3,22.3,39.9,48.4,52.2,77.3
		c12.7,30,19.1,61.9,19.1,94.7s-6.4,64.7-19.1,94.7c-12.3,29-29.8,55-52.2,77.3c-22.3,22.3-48.4,39.9-77.3,52.2
		c-30,12.7-61.9,19.1-94.7,19.1s-64.7-6.4-94.7-19.1c-29-12.3-55-29.8-77.3-52.2S44,379.7,31.8,350.7c-12.7-30-19.1-61.9-19.1-94.7
		s6.4-64.7,19.1-94.7c12.3-29,29.8-55,52.2-77.3c22.3-22.3,48.4-39.9,77.3-52.2C191.3,19.1,223.1,12.7,256,12.7 M256,4.7
		C117.2,4.7,4.7,117.2,4.7,256S117.2,507.3,256,507.3S507.3,394.8,507.3,256S394.8,4.7,256,4.7L256,4.7z"/>
	<g>
		<g>
			<path d="M456.6,248.4c0,1.7-0.5,3.2-1.6,4.4c-1,1.2-2.5,2-4.4,2.5v0.1c2.2,0.3,3.9,0.9,5,2c1.1,1.1,1.7,2.5,1.7,4.3
				c0,2.6-1,4.7-2.9,6.2s-4.7,2.2-8.2,2.2c-3,0-5.6-0.5-7.9-1.5v-4.9c1.1,0.5,2.2,1,3.5,1.3c1.3,0.3,2.5,0.5,3.8,0.5
				c1.9,0,3.3-0.3,4.2-1c0.9-0.7,1.4-1.7,1.4-3.1c0-1.3-0.5-2.2-1.6-2.7c-1.1-0.5-2.7-0.8-5-0.8h-2.1v-4.5h2.1
				c2.1,0,3.7-0.3,4.7-0.8c1-0.6,1.5-1.5,1.5-2.9c0-2.1-1.3-3.1-3.9-3.1c-0.9,0-1.8,0.2-2.8,0.5c-0.9,0.3-2,0.8-3.1,1.6l-2.7-4
				c2.5-1.8,5.5-2.7,9-2.7c2.8,0,5.1,0.6,6.7,1.7C455.8,244.8,456.6,246.4,456.6,248.4z"/>
		</g>
		<g>
			<path d="M356.3,109.2h-5.8V93.3l0.1-2.6l0.1-2.9c-1,1-1.6,1.6-2,1.9l-3.2,2.5l-2.8-3.5l8.8-7h4.8V109.2z"/>
		</g>
		<g>
			<path d="M157.7,431.8l10.3-22.5h-13.5v-4.9h19.7v3.6l-10.4,23.8H157.7z"/>
		</g>
		<g>
			<path d="M430.1,175.3h-19.2v-4l6.9-7c2-2.1,3.4-3.5,4-4.3s1.1-1.6,1.4-2.2s0.4-1.4,0.4-2.1c0-1.1-0.3-1.9-0.9-2.5
				s-1.4-0.8-2.4-0.8c-1.1,0-2.1,0.2-3.1,0.7c-1,0.5-2,1.2-3.1,2.1l-3.2-3.7c1.4-1.2,2.5-2,3.4-2.4c0.9-0.5,1.9-0.8,2.9-1.1
				s2.2-0.4,3.5-0.4c1.7,0,3.2,0.3,4.5,0.9c1.3,0.6,2.3,1.5,3.1,2.6c0.7,1.1,1.1,2.4,1.1,3.9c0,1.3-0.2,2.5-0.7,3.6
				c-0.4,1.1-1.1,2.2-2.1,3.4s-2.6,2.8-4.9,5l-3.5,3.3v0.3h12V175.3z"/>
		</g>
		<g>
			<path d="M92.9,333.5c2.6,0,4.7,0.6,6.4,1.8s2.4,2.8,2.4,4.8c0,1.4-0.4,2.7-1.2,3.7s-2,2.1-3.8,2.9c2.1,1.1,3.5,2.3,4.4,3.4
				s1.3,2.5,1.3,3.9c0,2.3-0.9,4.1-2.6,5.4s-4.1,2.1-7,2.1c-3,0-5.4-0.6-7.1-1.9c-1.7-1.3-2.6-3.1-2.6-5.4c0-1.6,0.4-3,1.2-4.2
				c0.8-1.2,2.2-2.3,4-3.2c-1.6-1-2.7-2-3.4-3.2c-0.7-1.1-1-2.4-1-3.7c0-2,0.8-3.6,2.4-4.8C88.1,334.1,90.3,333.5,92.9,333.5z
				 M88.6,354c0,1.1,0.4,1.9,1.1,2.5c0.8,0.6,1.8,0.9,3.1,0.9c1.4,0,2.5-0.3,3.2-0.9s1.1-1.4,1.1-2.5c0-0.8-0.4-1.6-1.1-2.4
				c-0.7-0.7-1.9-1.5-3.4-2.3C89.9,350.6,88.6,352.1,88.6,354z M92.8,337.7c-1,0-1.8,0.3-2.4,0.8c-0.6,0.5-0.9,1.2-0.9,2
				c0,0.8,0.2,1.4,0.7,2c0.5,0.6,1.4,1.2,2.6,1.8c1.2-0.6,2.1-1.2,2.6-1.8c0.5-0.6,0.7-1.3,0.7-2.1c0-0.9-0.3-1.5-0.9-2
				C94.6,338,93.8,337.7,92.8,337.7z"/>
		</g>
		<g>
			<path d="M74,254c0,5.4-1.1,9.4-3.4,12.1c-2.3,2.7-5.7,4-10.3,4c-1.6,0-2.9-0.1-3.7-0.3v-4.7c1.1,0.3,2.2,0.4,3.3,0.4
				c1.9,0,3.5-0.3,4.8-0.9c1.3-0.6,2.2-1.5,2.9-2.7c0.7-1.2,1-2.9,1.1-5h-0.2c-0.7,1.2-1.6,2-2.5,2.5s-2.1,0.7-3.6,0.7
				c-2.4,0-4.3-0.8-5.7-2.3c-1.4-1.5-2.1-3.7-2.1-6.4c0-2.9,0.8-5.3,2.5-7c1.7-1.7,3.9-2.6,6.8-2.6c2,0,3.8,0.5,5.3,1.4
				c1.5,1,2.7,2.3,3.5,4.1C73.6,249.3,74,251.5,74,254z M64.1,246.6c-1.2,0-2.1,0.4-2.8,1.2c-0.7,0.8-1,2-1,3.6
				c0,1.3,0.3,2.4,0.9,3.2c0.6,0.8,1.5,1.2,2.8,1.2c1.2,0,2.2-0.4,3-1.2c0.8-0.8,1.3-1.7,1.3-2.7c0-1.5-0.4-2.7-1.2-3.8
				S65.3,246.6,64.1,246.6z"/>
		</g>
		<g>
			<path d="M430.8,356h-3.3v5.7h-5.7V356h-11.7v-4l12-17.7h5.4v17.3h3.3V356z M421.8,351.5v-4.7c0-0.8,0-1.9,0.1-3.4
				c0.1-1.5,0.1-2.3,0.2-2.6h-0.2c-0.5,1-1,2-1.7,3l-5,7.6H421.8z"/>
		</g>
		<g>
			<path d="M95.9,174.9h-5.8V159l0.1-2.6l0.1-2.9c-1,1-1.6,1.6-2,1.9l-3.2,2.5l-2.8-3.5l8.8-7h4.8V174.9z"/>
			<path d="M122.6,161.2c0,4.8-0.8,8.3-2.4,10.6c-1.6,2.3-4,3.5-7.3,3.5c-3.2,0-5.6-1.2-7.2-3.6s-2.4-5.9-2.4-10.5
				c0-4.8,0.8-8.4,2.3-10.7c1.6-2.3,4-3.4,7.2-3.4c3.2,0,5.6,1.2,7.2,3.6S122.6,156.6,122.6,161.2z M109.2,161.2
				c0,3.4,0.3,5.8,0.9,7.2c0.6,1.5,1.6,2.2,2.9,2.2c1.4,0,2.3-0.7,2.9-2.2c0.6-1.5,0.9-3.9,0.9-7.2c0-3.4-0.3-5.8-0.9-7.3
				s-1.6-2.2-2.9-2.2c-1.4,0-2.3,0.7-2.9,2.2C109.5,155.4,109.2,157.8,109.2,161.2z"/>
		</g>
		<g>
			<path d="M350,413.9c2.7,0,4.8,0.7,6.3,2.2c1.6,1.5,2.4,3.5,2.4,6.1c0,3.1-0.9,5.4-2.8,7.1c-1.9,1.7-4.6,2.5-8.1,2.5
				c-3.1,0-5.5-0.5-7.4-1.5v-5c1,0.5,2.1,1,3.5,1.3s2.6,0.5,3.7,0.5c3.5,0,5.3-1.5,5.3-4.4c0-2.8-1.8-4.2-5.5-4.2
				c-0.7,0-1.4,0.1-2.2,0.2c-0.8,0.1-1.5,0.3-2,0.4l-2.3-1.2l1-14h14.9v4.9H347l-0.5,5.4l0.7-0.1C347.9,414,348.9,413.9,350,413.9z"
				/>
		</g>
		<g>
			<path d="M159.5,109.2h-5.8V93.3l0.1-2.6l0.1-2.9c-1,1-1.6,1.6-2,1.9l-3.2,2.5l-2.8-3.5l8.8-7h4.8V109.2z"/>
			<path d="M181.4,109.2h-5.8V93.3l0.1-2.6l0.1-2.9c-1,1-1.6,1.6-2,1.9l-3.2,2.5l-2.8-3.5l8.8-7h4.8V109.2z"/>
		</g>
		<g>
			<path d="M246.3,445.4c0-5.4,1.1-9.5,3.4-12.1c2.3-2.7,5.7-4,10.3-4c1.6,0,2.8,0.1,3.7,0.3v4.6c-1.1-0.3-2.2-0.4-3.3-0.4
				c-2,0-3.6,0.3-4.9,0.9c-1.3,0.6-2.2,1.5-2.8,2.7c-0.6,1.2-1,2.8-1.1,5h0.2c1.2-2.1,3.2-3.2,6-3.2c2.5,0,4.4,0.8,5.8,2.3
				c1.4,1.5,2.1,3.7,2.1,6.4c0,2.9-0.8,5.2-2.5,7c-1.7,1.7-3.9,2.6-6.9,2.6c-2,0-3.8-0.5-5.3-1.4c-1.5-0.9-2.7-2.3-3.5-4.1
				S246.3,447.9,246.3,445.4z M256.2,452.8c1.2,0,2.2-0.4,2.9-1.2s1-2,1-3.6c0-1.3-0.3-2.4-0.9-3.2s-1.6-1.2-2.8-1.2
				c-1.2,0-2.2,0.4-3,1.1s-1.2,1.7-1.2,2.7c0,1.5,0.4,2.7,1.2,3.8C254,452.2,255,452.8,256.2,452.8z"/>
		</g>
		<g>
			<path d="M249.4,82.5h-5.8V66.6l0.1-2.6l0.1-2.9c-1,1-1.6,1.6-2,1.9l-3.2,2.5l-2.8-3.5l8.8-7h4.8V82.5z"/>
			<path d="M276.2,82.5H257v-4l6.9-7c2-2.1,3.4-3.5,4-4.3s1.1-1.6,1.4-2.2c0.3-0.7,0.4-1.4,0.4-2.1c0-1.1-0.3-1.9-0.9-2.5
				c-0.6-0.5-1.4-0.8-2.4-0.8c-1.1,0-2.1,0.2-3.1,0.7s-2,1.2-3.1,2.1l-3.2-3.7c1.4-1.2,2.5-2,3.4-2.4c0.9-0.5,1.9-0.8,2.9-1.1
				s2.2-0.4,3.5-0.4c1.7,0,3.2,0.3,4.5,0.9c1.3,0.6,2.3,1.5,3.1,2.6c0.7,1.1,1.1,2.4,1.1,3.9c0,1.3-0.2,2.5-0.7,3.6
				c-0.4,1.1-1.1,2.2-2.1,3.4s-2.6,2.8-4.9,5l-3.5,3.3v0.3h12V82.5z"/>
		</g>
	</g>
	<g>
		<circle cx="256" cy="256" r="10.8"/>
		<g>
			<rect x="251" y="12.7" width="10" height="20"/>
			<rect x="251" y="479.3" width="10" height="20"/>
			<rect x="17.7" y="246" transform="matrix(4.500051e-011 -1 1 4.500051e-011 -233.3289 278.6711)" width="10" height="20"/>
			<rect x="484.3" y="246" transform="matrix(4.509110e-011 -1 1 4.509110e-011 233.3289 745.3289)" width="10" height="20"/>
			<rect x="48.9" y="129.3" transform="matrix(0.5 -0.866 0.866 0.5 -93.7025 116.3736)" width="10" height="20"/>
			<rect x="453.1" y="362.7" transform="matrix(0.5 -0.866 0.866 0.5 -93.7025 583.0314)" width="10" height="20"/>
			<rect x="134.3" y="448.1" transform="matrix(-0.866 -0.5 0.5 -0.866 30.9693 924.4357)" width="10" height="20"/>
			<rect x="367.7" y="43.9" transform="matrix(-0.866 -0.5 0.5 -0.866 668.4357 286.9693)" width="10" height="20"/>
			<rect x="134.3" y="43.9" transform="matrix(0.866 -0.5 0.5 0.866 -8.2982 76.8932)" width="10" height="20"/>
			<rect x="367.7" y="448.1" transform="matrix(0.866 -0.5 0.5 0.866 -179.1068 247.7018)" width="10" height="20"/>
			<rect x="48.9" y="362.7" transform="matrix(-0.5 -0.866 0.866 -0.5 -241.8401 605.7025)" width="10" height="20"/>
			<rect x="453.1" y="129.3" transform="matrix(-0.5 -0.866 0.866 -0.5 566.4351 605.7025)" width="10" height="20"/>
		</g>
		<g>
			<g>
				<rect x="351.5" y="33.3" transform="matrix(0.9135 0.4067 -0.4067 0.9135 46.0804 -140.2439)" width="2.9" height="10"/>
				<rect x="157.6" y="468.6" transform="matrix(0.9135 0.4067 -0.4067 0.9135 206.4031 -23.7626)" width="2.9" height="10.2"/>
			</g>
			<g>
				<rect x="328.2" y="24.3" transform="matrix(0.9511 0.309 -0.309 0.9511 25.1987 -100.4313)" width="2.9" height="10"/>
				<rect x="180.9" y="477.5" transform="matrix(0.9511 0.309 -0.309 0.9511 158.0518 -32.7392)" width="2.9" height="10.2"/>
			</g>
			<g>
				<rect x="304.1" y="17.9" transform="matrix(0.9781 0.2079 -0.2079 0.9781 11.4334 -63.0279)" width="2.9" height="10"/>
				<rect x="205" y="483.9" transform="matrix(0.9781 0.2079 -0.2079 0.9781 106.1878 -32.2403)" width="2.9" height="10.2"/>
			</g>
			<g>
				<rect x="279.5" y="14" transform="matrix(0.9945 0.1045 -0.1045 0.9945 3.5222 -29.2594)" width="2.9" height="10"/>
				<rect x="229.6" y="487.8" transform="matrix(0.9945 0.1045 -0.1045 0.9945 52.7918 -21.4559)" width="2.9" height="10.2"/>
			</g>
		</g>
		<g>
			<g>
				<rect x="447.4" y="110.9" transform="matrix(0.5878 0.809 -0.809 0.5878 278.7829 -315.3173)" width="2.9" height="10"/>
				<rect x="61.8" y="390.9" transform="matrix(0.5878 0.809 -0.809 0.5878 346.4749 112.0735)" width="2.9" height="10.2"/>
			</g>
			<g>
				<rect x="431.7" y="91.5" transform="matrix(0.6691 0.7431 -0.7431 0.6691 215.0367 -289.9296)" width="2.9" height="10"/>
				<rect x="77.5" y="410.3" transform="matrix(0.6691 0.7431 -0.7431 0.6691 334.8359 78.7746)" width="2.9" height="10.2"/>
			</g>
			<g>
				<rect x="414" y="73.9" transform="matrix(0.7431 0.6691 -0.6691 0.7431 159.5015 -257.7447)" width="2.9" height="10"/>
				<rect x="95.1" y="428" transform="matrix(0.7431 0.6691 -0.6691 0.7431 314.5738 46.6019)" width="2.9" height="10.2"/>
			</g>
			<g>
				<rect x="394.6" y="58.2" transform="matrix(0.809 0.5878 -0.5878 0.809 112.7858 -220.7469)" width="2.9" height="10"/>
				<rect x="114.5" y="443.6" transform="matrix(0.809 0.5878 -0.5878 0.809 285.9107 17.539)" width="2.9" height="10.2"/>
			</g>
		</g>
		<g>
			<g>
				<rect x="491.6" y="226.1" transform="matrix(0.1045 0.9945 -0.9945 0.1045 671.312 -283.3923)" width="2.9" height="10"/>
				<rect x="17.6" y="275.8" transform="matrix(0.1045 0.9945 -0.9945 0.1045 296.4357 232.5807)" width="2.9" height="10.2"/>
			</g>
			<g>
				<rect x="487.7" y="201.4" transform="matrix(0.2079 0.9781 -0.9781 0.2079 589.3654 -314.9093)" width="2.9" height="10"/>
				<rect x="21.5" y="300.4" transform="matrix(0.2079 0.9781 -0.9781 0.2079 317.047 219.5456)" width="2.9" height="10.2"/>
			</g>
			<g>
				<rect x="481.2" y="177.3" transform="matrix(0.309 0.9511 -0.9511 0.309 506.941 -333.0411)" width="2.9" height="10"/>
				<rect x="28" y="324.5" transform="matrix(0.309 0.9511 -0.9511 0.309 333.8161 199.7825)" width="2.9" height="10.2"/>
			</g>
			<g>
				<rect x="472.3" y="154.1" transform="matrix(0.4067 0.9135 -0.9135 0.4067 426.3548 -338.4049)" width="2.9" height="10"/>
				<rect x="36.9" y="347.8" transform="matrix(0.4067 0.9135 -0.9135 0.4067 345.1467 174.3232)" width="2.9" height="10.2"/>
			</g>
		</g>
		<g>
			<g>
				<rect x="472.3" y="347.9" transform="matrix(-0.4067 0.9135 -0.9135 -0.4067 988.8331 63.7203)" width="2.9" height="10"/>
				<rect x="36.9" y="154" transform="matrix(-0.4067 0.9135 -0.9135 -0.4067 199.3011 188.7699)" width="2.9" height="10.2"/>
			</g>
			<g>
				<rect x="481.2" y="324.6" transform="matrix(-0.309 0.9511 -0.9511 -0.309 945.3327 -27.5277)" width="2.9" height="10"/>
				<rect x="28" y="177.3" transform="matrix(-0.309 0.9511 -0.9511 -0.309 211.964 210.7583)" width="2.9" height="10.2"/>
			</g>
			<g>
				<rect x="487.7" y="300.5" transform="matrix(-0.2079 0.9781 -0.9781 -0.2079 889.6922 -109.3549)" width="2.9" height="10"/>
				<rect x="21.5" y="201.4" transform="matrix(-0.2079 0.9781 -0.9781 -0.2079 229.6953 226.9303)" width="2.9" height="10.2"/>
			</g>
			<g>
				<rect x="491.6" y="275.9" transform="matrix(-0.1045 0.9945 -0.9945 -0.1045 823.9343 -180.049)" width="2.9" height="10"/>
				<rect x="17.6" y="226" transform="matrix(-0.1045 0.9945 -0.9945 -0.1045 250.8882 236.2934)" width="2.9" height="10.2"/>
			</g>
		</g>
		<g>
			<g>
				<rect x="394.6" y="443.8" transform="matrix(-0.809 0.5878 -0.5878 -0.809 980.3353 579.0977)" width="2.9" height="10"/>
				<rect x="114.5" y="58.2" transform="matrix(-0.809 0.5878 -0.5878 -0.809 246.9665 46.274)" width="2.9" height="10.2"/>
			</g>
			<g>
				<rect x="414" y="428.1" transform="matrix(-0.7431 0.6691 -0.6691 -0.7431 1014.0427 476.9746)" width="2.9" height="10"/>
				<rect x="95.1" y="73.9" transform="matrix(-0.7431 0.6691 -0.6691 -0.7431 221.1927 72.9973)" width="2.9" height="10.2"/>
			</g>
			<g>
				<rect x="431.7" y="410.5" transform="matrix(-0.6691 0.7431 -0.7431 -0.6691 1031.6826 371.6146)" width="2.9" height="10"/>
				<rect x="77.5" y="91.5" transform="matrix(-0.6691 0.7431 -0.7431 -0.6691 203.5594 102.5411)" width="2.9" height="10.2"/>
			</g>
			<g>
				<rect x="447.4" y="391.1" transform="matrix(-0.5878 0.809 -0.809 -0.5878 1033.0616 265.8038)" width="2.9" height="10"/>
				<rect x="61.8" y="110.9" transform="matrix(-0.5878 0.809 -0.809 -0.5878 194.2601 132.9507)" width="2.9" height="10.2"/>
			</g>
		</g>
		<g>
			<g>
				<rect x="279.5" y="488" transform="matrix(-0.9945 0.1045 -0.1045 -0.9945 611.8211 953.9869)" width="2.9" height="10"/>
				<rect x="229.6" y="14" transform="matrix(-0.9945 0.1045 -0.1045 -0.9945 462.9209 13.868)" width="2.9" height="10.2"/>
			</g>
			<g>
				<rect x="304.1" y="484.1" transform="matrix(-0.9781 0.2079 -0.2079 -0.9781 706.121 904.0297)" width="2.9" height="10"/>
				<rect x="205" y="17.9" transform="matrix(-0.9781 0.2079 -0.2079 -0.9781 413.1969 2.502)" width="2.9" height="10.2"/>
			</g>
			<g>
				<rect x="328.2" y="477.7" transform="matrix(-0.9511 0.309 -0.309 -0.9511 792.3147 839.8424)" width="2.9" height="10"/>
				<rect x="180.9" y="24.3" transform="matrix(-0.9511 0.309 -0.309 -0.9511 364.924 1.0408)" width="2.9" height="10.2"/>
			</g>
			<g>
				<rect x="351.5" y="468.7" transform="matrix(-0.9135 0.4067 -0.4067 -0.9135 868.0448 762.944)" width="2.9" height="10"/>
				<rect x="157.6" y="33.3" transform="matrix(-0.9135 0.4067 -0.4067 -0.9135 320.0436 8.6851)" width="2.9" height="10.2"/>
			</g>
		</g>
	</g>
</g>
</svg>
