<?xml version="1.0" encoding="utf-8"?>
<!-- Generator: Adobe Illustrator 19.2.0, SVG Export Plug-In . SVG Version: 6.00 Build 0)  -->
<svg version="1.1" id="icon" xmlns="http://www.w3.org/2000/svg" xmlns:xlink="http://www.w3.org/1999/xlink" x="0px" y="0px"
	 viewBox="0 0 512 512" style="enable-background:new 0 0 512 512;" xml:space="preserve">
<g>
	<path d="M256,12.7c32.9,0,64.7,6.4,94.7,19.1c29,12.3,55,29.8,77.3,52.2c22.3,22.3,39.9,48.4,52.2,77.3
		c12.7,30,19.1,61.9,19.1,94.7s-6.4,64.7-19.1,94.7c-12.3,29-29.8,55-52.2,77.3c-22.3,22.3-48.4,39.9-77.3,52.2
		c-30,12.7-61.9,19.1-94.7,19.1s-64.7-6.4-94.7-19.1c-29-12.3-55-29.8-77.3-52.2S44,379.7,31.8,350.7c-12.7-30-19.1-61.9-19.1-94.7
		s6.4-64.7,19.1-94.7c12.3-29,29.8-55,52.2-77.3c22.3-22.3,48.4-39.9,77.3-52.2C191.3,19.1,223.1,12.7,256,12.7 M256,4.7
		C117.2,4.7,4.7,117.2,4.7,256S117.2,507.3,256,507.3S507.3,394.8,507.3,256S394.8,4.7,256,4.7L256,4.7z"/>
	<g>
		<circle cx="256" cy="256" r="10.4"/>
		<g>
			<rect x="251.2" y="21.9" width="9.6" height="19.3"/>
			<rect x="251.2" y="470.9" width="9.6" height="19.3"/>
			<rect x="26.7" y="246.4" transform="matrix(4.497564e-011 -1 1 4.497564e-011 -224.4929 287.5071)" width="9.6" height="19.3"/>
			<rect x="475.7" y="246.4" transform="matrix(4.497564e-011 -1 1 4.497564e-011 224.4928 736.4929)" width="9.6" height="19.3"/>
			<rect x="56.8" y="134.1" transform="matrix(0.5 -0.866 0.866 0.5 -93.7025 125.2096)" width="9.6" height="19.3"/>
			<rect x="445.6" y="358.6" transform="matrix(0.5 -0.866 0.866 0.5 -93.7025 574.1954)" width="9.6" height="19.3"/>
			<rect x="138.9" y="440.8" transform="matrix(-0.866 -0.5 0.5 -0.866 43.0396 912.3655)" width="9.6" height="19.3"/>
			<rect x="363.4" y="52" transform="matrix(-0.866 -0.5 0.5 -0.866 656.3654 299.0396)" width="9.6" height="19.3"/>
			<rect x="138.9" y="52" transform="matrix(0.866 -0.5 0.5 0.866 -11.5324 80.1274)" width="9.6" height="19.3"/>
			<rect x="363.4" y="440.8" transform="matrix(0.866 -0.5 0.5 0.866 -175.8726 244.4676)" width="9.6" height="19.3"/>
			<rect x="56.8" y="358.6" transform="matrix(-0.5 -0.866 0.866 -0.5 -226.5355 605.7025)" width="9.6" height="19.3"/>
			<rect x="445.6" y="134.1" transform="matrix(-0.5 -0.866 0.866 -0.5 551.1305 605.7025)" width="9.6" height="19.3"/>
		</g>
		<g>
			<g>
				<rect x="347.9" y="41.7" transform="matrix(0.9135 0.4067 -0.4067 0.9135 49.1167 -138.0379)" width="2.8" height="9.6"/>
				<rect x="161.4" y="460.5" transform="matrix(0.9135 0.4067 -0.4067 0.9135 203.368 -25.9678)" width="2.8" height="9.8"/>
			</g>
			<g>
				<rect x="325.5" y="33.1" transform="matrix(0.9511 0.309 -0.309 0.9511 27.7148 -99.1493)" width="2.8" height="9.6"/>
				<rect x="183.8" y="469.1" transform="matrix(0.9511 0.309 -0.309 0.9511 155.5368 -34.0207)" width="2.8" height="9.8"/>
			</g>
			<g>
				<rect x="302.3" y="26.9" transform="matrix(0.9781 0.2079 -0.2079 0.9781 13.2279 -62.4448)" width="2.8" height="9.6"/>
				<rect x="206.9" y="475.3" transform="matrix(0.9781 0.2079 -0.2079 0.9781 104.394 -32.8232)" width="2.8" height="9.8"/>
			</g>
			<g>
				<rect x="278.6" y="23.1" transform="matrix(0.9945 0.1045 -0.1045 0.9945 4.4553 -29.1116)" width="2.8" height="9.6"/>
				<rect x="230.6" y="479.1" transform="matrix(0.9945 0.1045 -0.1045 0.9945 51.8591 -21.6036)" width="2.8" height="9.8"/>
			</g>
		</g>
		<g>
			<g>
				<rect x="440.1" y="116.4" transform="matrix(0.5878 0.809 -0.809 0.5878 280.0649 -307.2232)" width="2.8" height="9.6"/>
				<rect x="69.2" y="385.8" transform="matrix(0.5878 0.809 -0.809 0.5878 345.1935 103.9825)" width="2.8" height="9.8"/>
			</g>
			<g>
				<rect x="425" y="97.8" transform="matrix(0.6691 0.7431 -0.7431 0.6691 217.3055 -282.9469)" width="2.8" height="9.6"/>
				<rect x="84.3" y="404.5" transform="matrix(0.6691 0.7431 -0.7431 0.6691 332.568 71.7946)" width="2.8" height="9.8"/>
			</g>
			<g>
				<rect x="408" y="80.8" transform="matrix(0.7431 0.6691 -0.6691 0.7431 162.4383 -251.9808)" width="2.8" height="9.6"/>
				<rect x="101.2" y="421.4" transform="matrix(0.7431 0.6691 -0.6691 0.7431 311.6381 40.8403)" width="2.8" height="9.8"/>
			</g>
			<g>
				<rect x="389.4" y="65.7" transform="matrix(0.809 0.5878 -0.5878 0.809 116.0645 -216.2342)" width="2.8" height="9.6"/>
				<rect x="119.9" y="436.5" transform="matrix(0.809 0.5878 -0.5878 0.809 282.6332 13.028)" width="2.8" height="9.8"/>
			</g>
		</g>
		<g>
			<g>
				<rect x="482.7" y="227.2" transform="matrix(0.1045 0.9945 -0.9945 0.1045 664.2125 -273.6206)" width="2.8" height="9.6"/>
				<rect x="26.6" y="275.1" transform="matrix(0.1045 0.9945 -0.9945 0.1045 303.5326 222.8127)" width="2.8" height="9.8"/>
			</g>
			<g>
				<rect x="478.9" y="203.5" transform="matrix(0.2079 0.9781 -0.9781 0.2079 584.2081 -304.7876)" width="2.8" height="9.6"/>
				<rect x="30.4" y="298.8" transform="matrix(0.2079 0.9781 -0.9781 0.2079 322.2023 209.4278)" width="2.8" height="9.8"/>
			</g>
			<g>
				<rect x="472.7" y="180.3" transform="matrix(0.309 0.9511 -0.9511 0.309 503.6623 -322.9503)" width="2.8" height="9.6"/>
				<rect x="36.6" y="321.9" transform="matrix(0.309 0.9511 -0.9511 0.309 337.0936 189.6955)" width="2.8" height="9.8"/>
			</g>
			<g>
				<rect x="464.1" y="157.9" transform="matrix(0.4067 0.9135 -0.9135 0.4067 424.8169 -328.6946)" width="2.8" height="9.6"/>
				<rect x="45.2" y="344.3" transform="matrix(0.4067 0.9135 -0.9135 0.4067 346.6841 164.6167)" width="2.8" height="9.8"/>
			</g>
		</g>
		<g>
			<g>
				<rect x="464.1" y="344.5" transform="matrix(-0.4067 0.9135 -0.9135 -0.4067 973.8806 66.0885)" width="2.8" height="9.6"/>
				<rect x="45.2" y="157.9" transform="matrix(-0.4067 0.9135 -0.9135 -0.4067 214.2478 186.4026)" width="2.8" height="9.8"/>
			</g>
			<g>
				<rect x="472.7" y="322" transform="matrix(-0.309 0.9511 -0.9511 -0.309 931.4439 -23.0149)" width="2.8" height="9.6"/>
				<rect x="36.6" y="180.3" transform="matrix(-0.309 0.9511 -0.9511 -0.309 225.8475 206.2472)" width="2.8" height="9.8"/>
			</g>
			<g>
				<rect x="478.9" y="298.9" transform="matrix(-0.2079 0.9781 -0.9781 -0.2079 877.1929 -102.9862)" width="2.8" height="9.6"/>
				<rect x="30.4" y="203.4" transform="matrix(-0.2079 0.9781 -0.9781 -0.2079 242.1898 220.5641)" width="2.8" height="9.8"/>
			</g>
			<g>
				<rect x="482.7" y="275.2" transform="matrix(-0.1045 0.9945 -0.9945 -0.1045 813.0817 -172.1641)" width="2.8" height="9.6"/>
				<rect x="26.6" y="227.1" transform="matrix(-0.1045 0.9945 -0.9945 -0.1045 261.7366 228.4115)" width="2.8" height="9.8"/>
			</g>
		</g>
		<g>
			<g>
				<rect x="389.4" y="436.7" transform="matrix(-0.809 0.5878 -0.5878 -0.809 966.4465 569.0068)" width="2.8" height="9.6"/>
				<rect x="119.9" y="65.7" transform="matrix(-0.809 0.5878 -0.5878 -0.809 260.8501 56.361)" width="2.8" height="9.8"/>
			</g>
			<g>
				<rect x="408" y="421.6" transform="matrix(-0.7431 0.6691 -0.6691 -0.7431 999.0274 469.3239)" width="2.8" height="9.6"/>
				<rect x="101.2" y="80.8" transform="matrix(-0.7431 0.6691 -0.6691 -0.7431 236.2023 80.6451)" width="2.8" height="9.8"/>
			</g>
			<g>
				<rect x="425" y="404.6" transform="matrix(-0.6691 0.7431 -0.7431 -0.6691 1015.9993 366.5188)" width="2.8" height="9.6"/>
				<rect x="84.3" y="97.7" transform="matrix(-0.6691 0.7431 -0.7431 -0.6691 219.2368 107.635)" width="2.8" height="9.8"/>
			</g>
			<g>
				<rect x="440.1" y="386" transform="matrix(-0.5878 0.809 -0.809 -0.5878 1017.1761 263.2878)" width="2.8" height="9.6"/>
				<rect x="69.2" y="116.4" transform="matrix(-0.5878 0.809 -0.809 -0.5878 210.1396 135.4658)" width="2.8" height="9.8"/>
			</g>
		</g>
		<g>
			<g>
				<rect x="278.6" y="479.2" transform="matrix(-0.9945 0.1045 -0.1045 -0.9945 609.0012 936.1826)" width="2.8" height="9.6"/>
				<rect x="230.6" y="23.1" transform="matrix(-0.9945 0.1045 -0.1045 -0.9945 465.7397 31.6656)" width="2.8" height="9.8"/>
			</g>
			<g>
				<rect x="302.3" y="475.5" transform="matrix(-0.9781 0.2079 -0.2079 -0.9781 700.5735 886.9563)" width="2.8" height="9.6"/>
				<rect x="206.9" y="26.9" transform="matrix(-0.9781 0.2079 -0.2079 -0.9781 418.7423 19.569)" width="2.8" height="9.8"/>
			</g>
			<g>
				<rect x="325.5" y="469.3" transform="matrix(-0.9511 0.309 -0.309 -0.9511 784.2206 823.9569)" width="2.8" height="9.6"/>
				<rect x="183.8" y="33.1" transform="matrix(-0.9511 0.309 -0.309 -0.9511 373.015 16.9204)" width="2.8" height="9.8"/>
			</g>
			<g>
				<rect x="347.9" y="460.7" transform="matrix(-0.9135 0.4067 -0.4067 -0.9135 857.6665 748.6596)" width="2.8" height="9.6"/>
				<rect x="161.4" y="41.7" transform="matrix(-0.9135 0.4067 -0.4067 -0.9135 330.4179 22.9641)" width="2.8" height="9.8"/>
			</g>
		</g>
	</g>
</g>
</svg>
