<?xml version="1.0" encoding="utf-8"?>
<!-- Generator: Adobe Illustrator 19.2.0, SVG Export Plug-In . SVG Version: 6.00 Build 0)  -->
<svg version="1.1" id="icon" xmlns="http://www.w3.org/2000/svg" xmlns:xlink="http://www.w3.org/1999/xlink" x="0px" y="0px"
	 viewBox="0 0 512 512" style="enable-background:new 0 0 512 512;" xml:space="preserve">
<g>
	<circle cx="256" cy="256" r="11.1"/>
	<g>
		<circle cx="256" cy="12.4" r="7.7"/>
		<circle cx="256" cy="499.6" r="7.7"/>
		<ellipse transform="matrix(0.866 -0.5 0.5 0.866 -4.5379 73.1329)" cx="134.2" cy="45" rx="7.7" ry="7.7"/>
		<ellipse transform="matrix(0.866 -0.5 0.5 0.866 -182.8671 251.4621)" cx="377.8" cy="467" rx="7.7" ry="7.7"/>
		<ellipse transform="matrix(0.866 -0.5 0.5 0.866 -4.5379 251.4621)" cx="467" cy="134.2" rx="7.7" ry="7.7"/>
		<ellipse transform="matrix(0.866 -0.5 0.5 0.866 -182.8671 73.1329)" cx="45" cy="377.8" rx="7.7" ry="7.7"/>
		<ellipse transform="matrix(0.5 -0.866 0.866 0.5 149.8997 349.7025)" cx="377.8" cy="45" rx="7.7" ry="7.7"/>
		<ellipse transform="matrix(0.5 -0.866 0.866 0.5 -337.3047 349.7025)" cx="134.2" cy="467" rx="7.7" ry="7.7"/>
		<ellipse transform="matrix(0.5 -0.866 0.866 0.5 -93.7025 106.1003)" cx="45" cy="134.2" rx="7.7" ry="7.7"/>
		<ellipse transform="matrix(0.5 -0.866 0.866 0.5 -93.7025 593.3047)" cx="467" cy="377.8" rx="7.7" ry="7.7"/>
		<circle cx="12.4" cy="256" r="7.7"/>
		<circle cx="499.6" cy="256" r="7.7"/>
	</g>
</g>
</svg>
