<?xml version="1.0" encoding="utf-8"?>
<!-- Generator: Adobe Illustrator 19.2.0, SVG Export Plug-In . SVG Version: 6.00 Build 0)  -->
<svg version="1.1" id="icon" xmlns="http://www.w3.org/2000/svg" xmlns:xlink="http://www.w3.org/1999/xlink" x="0px" y="0px"
	 viewBox="0 0 512 512" style="enable-background:new 0 0 512 512;" xml:space="preserve">
<g>
	<circle cx="256" cy="256" r="11.1"/>
	<g>
		<g>
			<circle cx="256" cy="12.4" r="7.7"/>
			<circle cx="256" cy="499.6" r="7.7"/>
			<ellipse transform="matrix(0.866 -0.5 0.5 0.866 -4.5379 73.1329)" cx="134.2" cy="45" rx="7.7" ry="7.7"/>
			<ellipse transform="matrix(0.866 -0.5 0.5 0.866 -182.8671 251.4621)" cx="377.8" cy="467" rx="7.7" ry="7.7"/>
			<ellipse transform="matrix(0.866 -0.5 0.5 0.866 -4.5379 251.4621)" cx="467" cy="134.2" rx="7.7" ry="7.7"/>
			<ellipse transform="matrix(0.866 -0.5 0.5 0.866 -182.8671 73.1329)" cx="45" cy="377.8" rx="7.7" ry="7.7"/>
			<ellipse transform="matrix(0.5 -0.866 0.866 0.5 149.8997 349.7025)" cx="377.8" cy="45" rx="7.7" ry="7.7"/>
			<ellipse transform="matrix(0.5 -0.866 0.866 0.5 -337.3047 349.7025)" cx="134.2" cy="467" rx="7.7" ry="7.7"/>
			<ellipse transform="matrix(0.5 -0.866 0.866 0.5 -93.7025 106.1003)" cx="45" cy="134.2" rx="7.7" ry="7.7"/>
			<ellipse transform="matrix(0.5 -0.866 0.866 0.5 -93.7025 593.3047)" cx="467" cy="377.8" rx="7.7" ry="7.7"/>
			<circle cx="12.4" cy="256" r="7.7"/>
			<circle cx="499.6" cy="256" r="7.7"/>
		</g>
		<g>
			<g>
				<g>
					<ellipse transform="matrix(0.9945 -0.1045 0.1045 0.9945 -0.1725 24.1729)" cx="230.5" cy="13.7" rx="2.9" ry="2.9"/>
					<ellipse transform="matrix(0.9945 -0.1045 0.1045 0.9945 -50.5413 32.1505)" cx="281.5" cy="498.3" rx="2.9" ry="2.9"/>
				</g>
				<g>
					<ellipse transform="matrix(0.9781 -0.2079 0.2079 0.9781 0.803 43.0824)" cx="205.4" cy="17.7" rx="2.9" ry="2.9"/>
					<ellipse transform="matrix(0.9781 -0.2079 0.2079 0.9781 -96.0654 74.5568)" cx="306.6" cy="494.3" rx="2.9" ry="2.9"/>
				</g>
				<g>
					<ellipse transform="matrix(0.9511 -0.309 0.309 0.9511 1.3297 57.0367)" cx="180.7" cy="24.3" rx="2.9" ry="2.9"/>
					<ellipse transform="matrix(0.9511 -0.309 0.309 0.9511 -134.4874 126.239)" cx="331.3" cy="487.7" rx="2.9" ry="2.9"/>
				</g>
				<g>
					<ellipse transform="matrix(0.9135 -0.4067 0.4067 0.9135 -4.245709e-002 66.717)" cx="156.9" cy="33.5" rx="2.9" ry="2.9"/>
					<ellipse transform="matrix(0.9135 -0.4067 0.4067 0.9135 -163.942 185.7969)" cx="355.1" cy="478.5" rx="2.9" ry="2.9"/>
				</g>
			</g>
			<g>
				<g>
					<ellipse transform="matrix(0.809 -0.5878 0.5878 0.809 -13.0877 77.5636)" cx="112.8" cy="58.9" rx="2.9" ry="2.9"/>
					<ellipse transform="matrix(0.809 -0.5878 0.5878 0.809 -190.075 321.1657)" cx="399.2" cy="453.1" rx="2.9" ry="2.9"/>
				</g>
				<g>
					<ellipse transform="matrix(0.7431 -0.6691 0.6691 0.7431 -26.2765 81.484)" cx="93" cy="75" rx="2.9" ry="2.9"/>
					<ellipse transform="matrix(0.7431 -0.6691 0.6691 0.7431 -184.8085 392.6207)" cx="419" cy="437" rx="2.9" ry="2.9"/>
				</g>
				<g>
					<ellipse transform="matrix(0.6691 -0.7431 0.7431 0.6691 -44.3065 86.4826)" cx="75" cy="93" rx="2.9" ry="2.9"/>
					<ellipse transform="matrix(0.6691 -0.7431 0.7431 0.6691 -166.7785 463.4127)" cx="437" cy="419" rx="2.9" ry="2.9"/>
				</g>
				<g>
					<ellipse transform="matrix(0.5878 -0.809 0.809 0.5878 -66.9802 94.1724)" cx="58.9" cy="112.8" rx="2.9" ry="2.9"/>
					<ellipse transform="matrix(0.5878 -0.809 0.809 0.5878 -136.1825 531.0983)" cx="453.1" cy="399.2" rx="2.9" ry="2.9"/>
				</g>
			</g>
			<g>
				<g>
					<ellipse transform="matrix(0.4067 -0.9135 0.9135 0.4067 -123.5022 123.6595)" cx="33.5" cy="156.9" rx="2.9" ry="2.9"/>
					<ellipse transform="matrix(0.4067 -0.9135 0.9135 0.4067 -40.4823 647.8267)" cx="478.5" cy="355.1" rx="2.9" ry="2.9"/>
				</g>
				<g>
					<ellipse transform="matrix(0.309 -0.9511 0.9511 0.309 -155.0725 148.0066)" cx="24.3" cy="180.7" rx="2.9" ry="2.9"/>
					<ellipse transform="matrix(0.309 -0.9511 0.9511 0.309 21.9148 692.7176)" cx="487.7" cy="331.3" rx="2.9" ry="2.9"/>
				</g>
				<g>
					<ellipse transform="matrix(0.2079 -0.9781 0.9781 0.2079 -186.8281 179.991)" cx="17.7" cy="205.4" rx="2.9" ry="2.9"/>
					<ellipse transform="matrix(0.2079 -0.9781 0.9781 0.2079 91.5658 726.3698)" cx="494.3" cy="306.6" rx="2.9" ry="2.9"/>
				</g>
				<g>
					<ellipse transform="matrix(0.1045 -0.9945 0.9945 0.1045 -216.9768 220.0961)" cx="13.7" cy="230.5" rx="2.9" ry="2.9"/>
					<ellipse transform="matrix(0.1045 -0.9945 0.9945 0.1045 166.2631 747.5806)" cx="498.3" cy="281.5" rx="2.9" ry="2.9"/>
				</g>
			</g>
			<g>
				<g>
					<ellipse transform="matrix(0.9945 -0.1045 0.1045 0.9945 -29.3457 2.9773)" cx="13.7" cy="281.5" rx="2.9" ry="2.9"/>
					<ellipse transform="matrix(0.9945 -0.1045 0.1045 0.9945 -21.3681 53.3461)" cx="498.3" cy="230.5" rx="2.9" ry="2.9"/>
				</g>
				<g>
					<ellipse transform="matrix(0.9781 -0.2079 0.2079 0.9781 -63.3684 10.3854)" cx="17.7" cy="306.6" rx="2.9" ry="2.9"/>
					<ellipse transform="matrix(0.9781 -0.2079 0.2079 0.9781 -31.894 107.2538)" cx="494.3" cy="205.4" rx="2.9" ry="2.9"/>
				</g>
				<g>
					<ellipse transform="matrix(0.9511 -0.309 0.309 0.9511 -101.18 23.7293)" cx="24.3" cy="331.3" rx="2.9" ry="2.9"/>
					<ellipse transform="matrix(0.9511 -0.309 0.309 0.9511 -31.9777 159.5464)" cx="487.7" cy="180.7" rx="2.9" ry="2.9"/>
				</g>
				<g>
					<ellipse transform="matrix(0.9135 -0.4067 0.4067 0.9135 -141.5322 44.3072)" cx="33.5" cy="355.1" rx="2.9" ry="2.9"/>
					<ellipse transform="matrix(0.9135 -0.4067 0.4067 0.9135 -22.4522 208.2067)" cx="478.5" cy="156.9" rx="2.9" ry="2.9"/>
				</g>
			</g>
			<g>
				<g>
					<ellipse transform="matrix(0.809 -0.5878 0.5878 0.809 -223.3825 110.871)" cx="58.9" cy="399.2" rx="2.9" ry="2.9"/>
					<ellipse transform="matrix(0.809 -0.5878 0.5878 0.809 20.2197 287.8583)" cx="453.1" cy="112.8" rx="2.9" ry="2.9"/>
				</g>
				<g>
					<ellipse transform="matrix(0.7431 -0.6691 0.6691 0.7431 -261.1108 157.7863)" cx="75" cy="419" rx="2.9" ry="2.9"/>
					<ellipse transform="matrix(0.7431 -0.6691 0.6691 0.7431 50.0258 316.3184)" cx="437" cy="93" rx="2.9" ry="2.9"/>
				</g>
				<g>
					<ellipse transform="matrix(0.6691 -0.7431 0.7431 0.6691 -294.0075 213.7116)" cx="93" cy="437" rx="2.9" ry="2.9"/>
					<ellipse transform="matrix(0.6691 -0.7431 0.7431 0.6691 82.9225 336.1836)" cx="419" cy="75" rx="2.9" ry="2.9"/>
				</g>
				<g>
					<ellipse transform="matrix(0.5878 -0.809 0.809 0.5878 -320.0443 278.0342)" cx="112.8" cy="453.1" rx="2.9" ry="2.9"/>
					<ellipse transform="matrix(0.5878 -0.809 0.809 0.5878 116.8816 347.2365)" cx="399.2" cy="58.9" rx="2.9" ry="2.9"/>
				</g>
			</g>
			<g>
				<g>
					<ellipse transform="matrix(0.4067 -0.9135 0.9135 0.4067 -344.0758 427.253)" cx="156.9" cy="478.5" rx="2.9" ry="2.9"/>
					<ellipse transform="matrix(0.4067 -0.9135 0.9135 0.4067 180.0914 344.2331)" cx="355.1" cy="33.5" rx="2.9" ry="2.9"/>
				</g>
				<g>
					<ellipse transform="matrix(0.309 -0.9511 0.9511 0.309 -338.9343 508.8558)" cx="180.7" cy="487.7" rx="2.9" ry="2.9"/>
					<ellipse transform="matrix(0.309 -0.9511 0.9511 0.309 205.7767 331.8684)" cx="331.3" cy="24.3" rx="2.9" ry="2.9"/>
				</g>
				<g>
					<ellipse transform="matrix(0.2079 -0.9781 0.9781 0.2079 -320.8206 592.3773)" cx="205.4" cy="494.3" rx="2.9" ry="2.9"/>
					<ellipse transform="matrix(0.2079 -0.9781 0.9781 0.2079 225.5582 313.9835)" cx="306.6" cy="17.7" rx="2.9" ry="2.9"/>
				</g>
				<g>
					<ellipse transform="matrix(0.1045 -0.9945 0.9945 0.1045 -289.0991 675.4583)" cx="230.5" cy="498.3" rx="2.9" ry="2.9"/>
					<ellipse transform="matrix(0.1045 -0.9945 0.9945 0.1045 238.3853 292.2184)" cx="281.5" cy="13.7" rx="2.9" ry="2.9"/>
				</g>
			</g>
		</g>
	</g>
</g>
</svg>
