<?xml version="1.0" encoding="utf-8"?>
<!-- Generator: Adobe Illustrator 19.2.0, SVG Export Plug-In . SVG Version: 6.00 Build 0)  -->
<svg version="1.1" id="icon" xmlns="http://www.w3.org/2000/svg" xmlns:xlink="http://www.w3.org/1999/xlink" x="0px" y="0px"
	 viewBox="0 0 512 512" style="enable-background:new 0 0 512 512;" xml:space="preserve">
<g>
	<g>
		<g>
			<path d="M244,76.9l6.9,11.3c1.1,1.9,1.9,3,2.4,3.4c0.5,0.4,1.1,0.6,1.7,0.7v0.8h-12.1v-0.8c1-0.1,1.6-0.2,1.9-0.5
				c0.3-0.2,0.4-0.5,0.4-0.9c0-0.2,0-0.5-0.1-0.7c-0.2-0.4-0.6-1.2-1.3-2.3l-3.6-6l-3.8,5.2c-1.1,1.6-1.7,2.6-1.7,3.2
				c0,0.4,0.1,0.8,0.4,1.1c0.3,0.3,0.7,0.6,1.3,0.7c0.3,0.1,0.8,0.1,1.6,0.1v0.8h-9.5v-0.8c1.1-0.2,1.9-0.5,2.6-1
				c0.8-0.6,2-1.9,3.4-3.9l4.9-6.7L233,70.4c-1-1.7-1.6-2.6-1.8-2.8c-0.3-0.4-0.7-0.8-1-1c-0.3-0.2-0.8-0.3-1.3-0.4v-0.8h12.3v0.8
				h-0.6c-0.7,0-1.2,0.1-1.5,0.4c-0.3,0.3-0.4,0.6-0.4,0.9c0,0.3,0,0.6,0.1,0.8l1.3,2.1l3.1,5.2l2.6-3.6c1.3-1.8,2-3.1,2-3.8
				c0-0.4-0.1-0.7-0.3-1c-0.2-0.3-0.5-0.6-0.8-0.7c-0.4-0.2-0.9-0.3-1.6-0.3v-0.8h9.1v0.8c-0.7,0-1.3,0.1-1.7,0.3
				c-0.4,0.2-0.9,0.5-1.4,1c-0.3,0.3-1.1,1.3-2.4,3L244,76.9z"/>
			<path d="M269,92.3v0.8h-13v-0.8h0.8c0.7,0,1.3-0.1,1.7-0.4c0.3-0.2,0.6-0.5,0.7-1c0.1-0.3,0.2-1.2,0.2-2.6V70.2
				c0-1.4-0.1-2.3-0.2-2.6c-0.1-0.4-0.4-0.7-0.8-0.9c-0.4-0.3-1-0.4-1.7-0.4H256v-0.8h13v0.8h-0.8c-0.7,0-1.3,0.1-1.7,0.4
				c-0.3,0.2-0.6,0.5-0.8,1c-0.1,0.3-0.2,1.2-0.2,2.6v18.2c0,1.4,0.1,2.3,0.2,2.6c0.1,0.4,0.4,0.7,0.8,0.9c0.4,0.3,1,0.4,1.7,0.4
				H269z"/>
			<path d="M283.6,92.3v0.8h-13v-0.8h0.8c0.7,0,1.3-0.1,1.7-0.4c0.3-0.2,0.6-0.5,0.7-1c0.1-0.3,0.2-1.2,0.2-2.6V70.2
				c0-1.4-0.1-2.3-0.2-2.6c-0.1-0.4-0.4-0.7-0.8-0.9c-0.4-0.3-1-0.4-1.7-0.4h-0.8v-0.8h13v0.8h-0.8c-0.7,0-1.3,0.1-1.7,0.4
				c-0.3,0.2-0.6,0.5-0.8,1c-0.1,0.3-0.2,1.2-0.2,2.6v18.2c0,1.4,0.1,2.3,0.2,2.6c0.1,0.4,0.4,0.7,0.8,0.9c0.4,0.3,1,0.4,1.7,0.4
				H283.6z"/>
		</g>
		<g>
			<path d="M343.5,117.5l-0.4,0.7l-11.3-6.5l0.4-0.7l0.7,0.4c0.6,0.4,1.2,0.5,1.7,0.5c0.4,0,0.7-0.2,1.1-0.5
				c0.3-0.2,0.8-0.9,1.5-2.1l9.1-15.7c0.7-1.2,1.1-2,1.1-2.4c0.1-0.4,0-0.8-0.2-1.2c-0.2-0.4-0.6-0.8-1.2-1.2l-0.7-0.4l0.4-0.7
				l11.3,6.5l-0.4,0.7l-0.7-0.4c-0.6-0.4-1.2-0.5-1.7-0.5c-0.4,0-0.8,0.2-1.1,0.5c-0.3,0.2-0.8,0.9-1.5,2.1l-9.1,15.7
				c-0.7,1.2-1.1,2-1.1,2.4c-0.1,0.4,0,0.8,0.3,1.2c0.2,0.4,0.6,0.8,1.2,1.2L343.5,117.5z"/>
		</g>
		<g>
			<path d="M397.4,173.5l-0.7,0.4l-6.5-11.3l0.7-0.4l0.4,0.7c0.4,0.6,0.8,1.1,1.2,1.3c0.3,0.2,0.7,0.2,1.2,0.1
				c0.3,0,1.1-0.4,2.3-1.1l15.7-9.1c1.2-0.7,2-1.2,2.2-1.5c0.2-0.3,0.4-0.7,0.4-1.2c0-0.5-0.1-1-0.5-1.6l-0.4-0.7l0.7-0.4l6.5,11.3
				l-0.7,0.4l-0.4-0.7c-0.4-0.6-0.8-1.1-1.2-1.3c-0.3-0.2-0.7-0.2-1.2-0.2c-0.3,0-1.1,0.4-2.3,1.1l-15.7,9.1c-1.2,0.7-2,1.2-2.2,1.5
				c-0.2,0.3-0.4,0.7-0.4,1.2c0,0.5,0.1,1,0.5,1.6L397.4,173.5z"/>
			<path d="M404.7,186.1l-0.7,0.4l-6.5-11.3l0.7-0.4l0.4,0.7c0.4,0.6,0.8,1.1,1.2,1.3c0.3,0.2,0.7,0.2,1.2,0.1
				c0.3,0,1.1-0.4,2.3-1.1l15.7-9.1c1.2-0.7,2-1.2,2.2-1.5c0.2-0.3,0.4-0.7,0.4-1.2c0-0.5-0.1-1-0.5-1.6l-0.4-0.7l0.7-0.4l6.5,11.3
				l-0.7,0.4l-0.4-0.7c-0.4-0.6-0.8-1.1-1.2-1.3c-0.3-0.2-0.7-0.2-1.2-0.2c-0.3,0-1.1,0.4-2.3,1.1l-15.7,9.1c-1.2,0.7-2,1.2-2.2,1.5
				c-0.2,0.3-0.4,0.7-0.4,1.2c0,0.5,0.1,1,0.5,1.6L404.7,186.1z"/>
		</g>
		<g>
			<path d="M419.7,247.9h-0.8v-13h0.8v0.8c0,0.7,0.1,1.3,0.4,1.7c0.2,0.3,0.5,0.6,1,0.7c0.3,0.1,1.2,0.2,2.6,0.2h18.2
				c1.4,0,2.3-0.1,2.6-0.2c0.4-0.1,0.7-0.4,0.9-0.8c0.3-0.4,0.4-1,0.4-1.7v-0.8h0.8v13h-0.8v-0.8c0-0.7-0.1-1.3-0.4-1.7
				c-0.2-0.3-0.5-0.6-1-0.8c-0.3-0.1-1.2-0.2-2.6-0.2h-18.2c-1.4,0-2.3,0.1-2.6,0.2c-0.4,0.1-0.7,0.4-0.9,0.8
				c-0.3,0.4-0.4,1-0.4,1.7V247.9z"/>
			<path d="M419.7,262.5h-0.8v-13h0.8v0.8c0,0.7,0.1,1.3,0.4,1.7c0.2,0.3,0.5,0.6,1,0.7c0.3,0.1,1.2,0.2,2.6,0.2h18.2
				c1.4,0,2.3-0.1,2.6-0.2c0.4-0.1,0.7-0.4,0.9-0.8c0.3-0.4,0.4-1,0.4-1.7v-0.8h0.8v13h-0.8v-0.8c0-0.7-0.1-1.3-0.4-1.7
				c-0.2-0.3-0.5-0.6-1-0.8c-0.3-0.1-1.2-0.2-2.6-0.2h-18.2c-1.4,0-2.3,0.1-2.6,0.2c-0.4,0.1-0.7,0.4-0.9,0.8
				c-0.3,0.4-0.4,1-0.4,1.7V262.5z"/>
			<path d="M419.7,277.1h-0.8v-13h0.8v0.8c0,0.7,0.1,1.3,0.4,1.7c0.2,0.3,0.5,0.6,1,0.7c0.3,0.1,1.2,0.2,2.6,0.2h18.2
				c1.4,0,2.3-0.1,2.6-0.2c0.4-0.1,0.7-0.4,0.9-0.8c0.3-0.4,0.4-1,0.4-1.7v-0.8h0.8v13h-0.8v-0.8c0-0.7-0.1-1.3-0.4-1.7
				c-0.2-0.3-0.5-0.6-1-0.8c-0.3-0.1-1.2-0.2-2.6-0.2h-18.2c-1.4,0-2.3,0.1-2.6,0.2c-0.4,0.1-0.7,0.4-0.9,0.8
				c-0.3,0.4-0.4,1-0.4,1.7V277.1z"/>
		</g>
		<g>
			<path d="M401.4,331.5l-0.7-0.4l6.5-11.3l0.7,0.4l-0.4,0.7c-0.4,0.6-0.5,1.2-0.5,1.7c0,0.4,0.2,0.7,0.5,1.1
				c0.2,0.3,0.9,0.8,2.1,1.5l15.7,9.1c1.2,0.7,2,1.1,2.4,1.1c0.4,0.1,0.8,0,1.2-0.2c0.4-0.2,0.8-0.6,1.2-1.2l0.4-0.7l0.7,0.4
				l-6.5,11.3l-0.7-0.4l0.4-0.7c0.4-0.6,0.5-1.2,0.5-1.7c0-0.4-0.2-0.8-0.5-1.1c-0.2-0.3-0.9-0.8-2.1-1.5l-15.7-9.1
				c-1.2-0.7-2-1.1-2.4-1.1c-0.4-0.1-0.8,0-1.2,0.3c-0.4,0.2-0.8,0.6-1.2,1.2L401.4,331.5z"/>
			<path d="M410.9,368.8l-0.7-0.4c0.3-0.9,0.2-1.8-0.2-2.9c-0.3-0.8-1.3-2.2-3-4.4l-14-18l0.3-0.5l23.3,3.6c2.8,0.4,4.5,0.6,5.1,0.5
				c0.6-0.1,1.2-0.5,1.7-1.3l0.7,0.4l-6,10.3l-0.7-0.4l0.2-0.3c0.5-0.9,0.8-1.6,0.7-2.1c0-0.3-0.2-0.6-0.6-0.8
				c-0.2-0.1-0.5-0.2-0.8-0.3c-0.3-0.1-1.3-0.2-2.8-0.5l-14.5-2.3l8.1,10.4c1,1.2,1.7,2.1,2,2.4c0.4,0.4,0.7,0.6,1,0.8
				c0.4,0.2,0.7,0.3,1.1,0.3c0.4,0,0.7-0.1,1-0.4c0.5-0.3,0.9-0.9,1.3-1.6l0.7,0.4L410.9,368.8z"/>
		</g>
		<g>
			<path d="M339.8,427.6l-0.4-0.7c0.7-0.6,1.1-1.5,1.3-2.6c0.1-0.8,0-2.6-0.4-5.3l-3.1-22.5l0.5-0.3l18.4,14.7
				c2.2,1.8,3.6,2.8,4.1,3c0.5,0.2,1.2,0.1,2.1-0.2l0.4,0.7l-10.3,6l-0.4-0.7l0.3-0.2c0.9-0.5,1.5-1,1.7-1.5c0.1-0.3,0.1-0.6-0.1-1
				c-0.1-0.2-0.3-0.4-0.6-0.7c-0.3-0.2-1-0.8-2.2-1.8l-11.5-9.3l1.9,13.1c0.2,1.6,0.4,2.6,0.6,3.1c0.1,0.5,0.3,0.9,0.5,1.2
				c0.2,0.4,0.5,0.6,0.8,0.8c0.3,0.2,0.7,0.2,1.1,0.2c0.6-0.1,1.2-0.3,2-0.7l0.4,0.7L339.8,427.6z"/>
		</g>
		<g>
			<path d="M249.9,446.5v-0.8c0.9-0.2,1.7-0.7,2.4-1.6c0.5-0.7,1.3-2.3,2.3-4.8l8.6-21.1h0.6l8.5,21.9c1,2.6,1.7,4.2,2.1,4.7
				c0.3,0.5,1,0.8,2,0.9v0.8h-11.9v-0.8h0.4c1.1,0,1.8-0.1,2.2-0.4c0.3-0.2,0.4-0.5,0.4-0.9c0-0.2,0-0.5-0.1-0.9
				c-0.1-0.3-0.4-1.2-1-2.7l-5.3-13.7l-4.9,12.2c-0.6,1.5-0.9,2.5-1.1,3c-0.1,0.5-0.2,0.9-0.2,1.3c0,0.4,0.1,0.8,0.3,1.1
				c0.2,0.3,0.5,0.6,0.9,0.7c0.5,0.2,1.2,0.3,2.1,0.3v0.8H249.9z"/>
			<path d="M235.7,419.7v-0.8h13v0.8h-0.8c-0.7,0-1.3,0.1-1.7,0.4c-0.3,0.2-0.6,0.5-0.7,1c-0.1,0.3-0.2,1.2-0.2,2.6v18.2
				c0,1.4,0.1,2.3,0.2,2.6c0.1,0.4,0.4,0.7,0.8,0.9c0.4,0.3,1,0.4,1.7,0.4h0.8v0.8h-13v-0.8h0.8c0.7,0,1.3-0.1,1.7-0.4
				c0.3-0.2,0.6-0.5,0.8-1c0.1-0.3,0.2-1.2,0.2-2.6v-18.2c0-1.4-0.1-2.3-0.2-2.6c-0.1-0.4-0.4-0.7-0.8-0.9c-0.4-0.3-1-0.4-1.7-0.4
				H235.7z"/>
		</g>
		<g>
			<path d="M161.7,421.6l0.4-0.7c0.9,0.3,1.8,0.3,2.9-0.2c0.8-0.3,2.2-1.3,4.4-3l18-14l0.5,0.3l-3.6,23.3c-0.4,2.8-0.6,4.5-0.5,5.1
				c0.1,0.6,0.5,1.2,1.3,1.7l-0.4,0.7l-10.3-6l0.4-0.7l0.3,0.2c0.9,0.5,1.6,0.8,2.1,0.7c0.3,0,0.6-0.2,0.8-0.6
				c0.1-0.2,0.2-0.5,0.3-0.8c0.1-0.3,0.2-1.3,0.5-2.8l2.3-14.5l-10.4,8.1c-1.2,1-2.1,1.7-2.4,2s-0.6,0.7-0.8,1
				c-0.2,0.4-0.3,0.7-0.3,1.1c0,0.4,0.1,0.7,0.4,1c0.3,0.5,0.9,0.9,1.6,1.3l-0.4,0.7L161.7,421.6z"/>
			<path d="M162.9,391.3l0.4-0.7l11.3,6.5l-0.4,0.7l-0.7-0.4c-0.6-0.4-1.2-0.5-1.7-0.5c-0.4,0-0.7,0.2-1.1,0.5
				c-0.3,0.2-0.8,0.9-1.5,2.1l-9.1,15.7c-0.7,1.2-1.1,2-1.1,2.4c-0.1,0.4,0,0.8,0.2,1.2c0.2,0.4,0.6,0.8,1.2,1.2l0.7,0.4l-0.4,0.7
				l-11.3-6.5l0.4-0.7l0.7,0.4c0.6,0.4,1.2,0.5,1.7,0.5c0.4,0,0.8-0.2,1.1-0.5c0.3-0.2,0.8-0.9,1.5-2.1l9.1-15.7
				c0.7-1.2,1.1-2,1.1-2.4c0.1-0.4,0-0.8-0.3-1.2c-0.2-0.4-0.6-0.8-1.2-1.2L162.9,391.3z"/>
			<path d="M150.3,384l0.4-0.7l11.3,6.5l-0.4,0.7l-0.7-0.4c-0.6-0.4-1.2-0.5-1.7-0.5c-0.4,0-0.7,0.2-1.1,0.5
				c-0.3,0.2-0.8,0.9-1.5,2.1l-9.1,15.7c-0.7,1.2-1.1,2-1.1,2.4c-0.1,0.4,0,0.8,0.2,1.2c0.2,0.4,0.6,0.8,1.2,1.2l0.7,0.4l-0.4,0.7
				l-11.3-6.5l0.4-0.7l0.7,0.4c0.6,0.4,1.2,0.5,1.7,0.5c0.4,0,0.8-0.2,1.1-0.5c0.3-0.2,0.8-0.9,1.5-2.1l9.1-15.7
				c0.7-1.2,1.1-2,1.1-2.4c0.1-0.4,0-0.8-0.3-1.2c-0.2-0.4-0.6-0.8-1.2-1.2L150.3,384z"/>
		</g>
		<g>
			<path d="M95.2,358.6l0.7-0.4c0.6,0.7,1.5,1.1,2.6,1.3c0.8,0.1,2.6,0,5.3-0.4l22.5-3.1l0.3,0.5l-14.7,18.4c-1.8,2.2-2.8,3.6-3,4.1
				c-0.2,0.5-0.1,1.2,0.2,2.1l-0.7,0.4l-6-10.3l0.7-0.4l0.2,0.3c0.5,0.9,1,1.5,1.5,1.7c0.3,0.1,0.6,0.1,1-0.1
				c0.2-0.1,0.4-0.3,0.7-0.6c0.2-0.3,0.8-1,1.8-2.2l9.3-11.5l-13.1,1.9c-1.6,0.2-2.6,0.4-3.1,0.6c-0.5,0.1-0.9,0.3-1.2,0.5
				c-0.4,0.2-0.6,0.5-0.8,0.8c-0.2,0.3-0.2,0.7-0.2,1.1c0.1,0.6,0.3,1.2,0.7,2l-0.7,0.4L95.2,358.6z"/>
			<path d="M111.4,332.9l0.7-0.4l6.5,11.3l-0.7,0.4l-0.4-0.7c-0.4-0.6-0.8-1.1-1.2-1.3c-0.3-0.2-0.7-0.2-1.2-0.1
				c-0.3,0-1.1,0.4-2.3,1.1L97,352.2c-1.2,0.7-2,1.2-2.2,1.5c-0.2,0.3-0.4,0.7-0.4,1.2c0,0.5,0.1,1,0.5,1.6l0.4,0.7l-0.7,0.4
				l-6.5-11.3l0.7-0.4l0.4,0.7c0.4,0.6,0.8,1.1,1.2,1.3c0.3,0.2,0.7,0.2,1.2,0.2c0.3,0,1.1-0.4,2.3-1.1l15.7-9.1
				c1.2-0.7,2-1.2,2.2-1.5c0.2-0.3,0.4-0.7,0.4-1.2c0-0.5-0.1-1-0.5-1.6L111.4,332.9z"/>
			<path d="M104.1,320.3l0.7-0.4l6.5,11.3l-0.7,0.4l-0.4-0.7c-0.4-0.6-0.8-1.1-1.2-1.3c-0.3-0.2-0.7-0.2-1.2-0.1
				c-0.3,0-1.1,0.4-2.3,1.1l-15.7,9.1c-1.2,0.7-2,1.2-2.2,1.5c-0.2,0.3-0.4,0.7-0.4,1.2c0,0.5,0.1,1,0.5,1.6l0.4,0.7l-0.7,0.4
				l-6.5-11.3l0.7-0.4l0.4,0.7c0.4,0.6,0.8,1.1,1.2,1.3c0.3,0.2,0.7,0.2,1.2,0.2c0.3,0,1.1-0.4,2.3-1.1l15.7-9.1
				c1.2-0.7,2-1.2,2.2-1.5c0.2-0.3,0.4-0.7,0.4-1.2c0-0.5-0.1-1-0.5-1.6L104.1,320.3z"/>
			<path d="M96.8,307.6l0.7-0.4l6.5,11.3l-0.7,0.4l-0.4-0.7c-0.4-0.6-0.8-1.1-1.2-1.3c-0.3-0.2-0.7-0.2-1.2-0.1
				c-0.3,0-1.1,0.4-2.3,1.1l-15.7,9.1c-1.2,0.7-2,1.2-2.2,1.5c-0.2,0.3-0.4,0.7-0.4,1.2c0,0.5,0.1,1,0.5,1.6l0.4,0.7l-0.7,0.4
				l-6.5-11.3l0.7-0.4l0.4,0.7c0.4,0.6,0.8,1.1,1.2,1.3c0.3,0.2,0.7,0.2,1.2,0.2c0.3,0,1.1-0.4,2.3-1.1l15.7-9.1
				c1.2-0.7,2-1.2,2.2-1.5c0.2-0.3,0.4-0.7,0.4-1.2c0-0.5-0.1-1-0.5-1.6L96.8,307.6z"/>
		</g>
		<g>
			<path d="M92.3,263.4h0.8v13h-0.8v-0.8c0-0.7-0.1-1.3-0.4-1.7c-0.2-0.3-0.5-0.6-1-0.7c-0.3-0.1-1.2-0.2-2.6-0.2H70.2
				c-1.4,0-2.3,0.1-2.6,0.2c-0.4,0.1-0.7,0.4-0.9,0.8c-0.3,0.4-0.4,1-0.4,1.7v0.8h-0.8v-13h0.8v0.8c0,0.7,0.1,1.3,0.4,1.7
				c0.2,0.3,0.5,0.6,1,0.8c0.3,0.1,1.2,0.2,2.6,0.2h18.2c1.4,0,2.3-0.1,2.6-0.2c0.4-0.1,0.7-0.4,0.9-0.8c0.3-0.4,0.4-1,0.4-1.7
				V263.4z"/>
			<path d="M76.9,246.6l11.3-6.9c1.9-1.1,3-1.9,3.4-2.4c0.4-0.5,0.6-1.1,0.7-1.7h0.8v12.1h-0.8c-0.1-1-0.2-1.6-0.5-1.9
				c-0.2-0.3-0.5-0.4-0.9-0.4c-0.2,0-0.5,0-0.7,0.1c-0.4,0.2-1.2,0.6-2.3,1.3l-6,3.6l5.2,3.8c1.6,1.1,2.6,1.7,3.2,1.7
				c0.4,0,0.8-0.1,1.1-0.4c0.3-0.3,0.6-0.7,0.7-1.3c0.1-0.3,0.1-0.8,0.1-1.6h0.8v9.5h-0.8c-0.2-1.1-0.5-1.9-1-2.6
				c-0.6-0.8-1.9-2-3.9-3.4l-6.7-4.9l-10.3,6.3c-1.7,1-2.6,1.6-2.8,1.8c-0.4,0.3-0.8,0.7-1,1c-0.2,0.3-0.3,0.8-0.4,1.3h-0.8v-12.3
				h0.8v0.6c0,0.7,0.1,1.2,0.4,1.5c0.3,0.3,0.6,0.4,0.9,0.4c0.3,0,0.6,0,0.8-0.1l2.1-1.3l5.2-3.1l-3.6-2.6c-1.8-1.3-3.1-2-3.8-2
				c-0.4,0-0.7,0.1-1,0.3c-0.3,0.2-0.6,0.5-0.7,0.8c-0.2,0.4-0.3,0.9-0.3,1.6h-0.8v-9.1h0.8c0,0.7,0.1,1.3,0.3,1.7
				c0.2,0.4,0.5,0.9,1,1.4c0.3,0.3,1.3,1.1,3,2.4L76.9,246.6z"/>
		</g>
		<g>
			<path d="M102,164.4l13.2-0.3c2.2,0,3.6-0.2,4.2-0.4c0.6-0.2,1.1-0.6,1.5-1.1l0.7,0.4l-6.1,10.5l-0.7-0.4c0.4-0.9,0.6-1.5,0.5-1.9
				c-0.1-0.4-0.3-0.6-0.6-0.8c-0.2-0.1-0.4-0.2-0.6-0.2c-0.4-0.1-1.3-0.1-2.6,0l-7,0.2l2.6,5.9c0.8,1.8,1.4,2.8,1.9,3.1
				c0.3,0.2,0.7,0.3,1.2,0.2c0.4-0.1,0.9-0.3,1.3-0.8c0.2-0.2,0.5-0.6,0.9-1.3l0.7,0.4l-4.8,8.3l-0.7-0.4c0.4-1,0.5-1.9,0.4-2.7
				c-0.1-1-0.7-2.7-1.7-4.9l-3.3-7.6l-12.1,0.3c-2,0.1-3.1,0.1-3.3,0.1c-0.6,0.1-1,0.2-1.3,0.4c-0.3,0.2-0.7,0.5-1,0.9l-0.7-0.4
				l6.2-10.7l0.7,0.4l-0.3,0.5c-0.4,0.6-0.5,1.1-0.4,1.5c0.1,0.4,0.3,0.6,0.6,0.8c0.3,0.1,0.5,0.2,0.7,0.3l2.5,0l6.1-0.1l-1.8-4.1
				c-0.9-2.1-1.7-3.3-2.3-3.7c-0.3-0.2-0.7-0.3-1-0.3c-0.4,0-0.7,0.1-1,0.3c-0.3,0.2-0.7,0.6-1.1,1.3l-0.7-0.4l4.6-7.9l0.7,0.4
				c-0.3,0.6-0.6,1.2-0.6,1.7c-0.1,0.5,0,1.1,0.2,1.7c0.1,0.4,0.6,1.6,1.4,3.6L102,164.4z"/>
		</g>
		<g>
			<path d="M162.4,103.2l11.6,6.4c1.9,1.1,3.2,1.6,3.8,1.7c0.6,0.1,1.2,0,1.8-0.2l0.4,0.7l-10.5,6.1l-0.4-0.7c0.8-0.6,1.3-1,1.4-1.4
				c0.1-0.4,0.1-0.7-0.1-1c-0.1-0.2-0.3-0.4-0.4-0.5c-0.4-0.3-1.1-0.7-2.3-1.3l-6.1-3.4l-0.7,6.4c-0.2,1.9-0.2,3.1,0.1,3.6
				c0.2,0.3,0.5,0.6,0.9,0.7c0.4,0.1,0.9,0.1,1.5,0c0.3-0.1,0.7-0.3,1.4-0.7l0.4,0.7L157,125l-0.4-0.7c0.9-0.7,1.4-1.4,1.7-2.1
				c0.4-0.9,0.7-2.6,1-5.1l0.9-8.2l-10.6-5.8c-1.7-0.9-2.7-1.5-3-1.6c-0.5-0.2-0.9-0.3-1.3-0.3c-0.4,0-0.8,0.1-1.4,0.3l-0.4-0.7
				l10.7-6.2l0.4,0.7l-0.5,0.3c-0.6,0.4-1,0.7-1.1,1.1c-0.1,0.4-0.1,0.7,0.1,1c0.1,0.3,0.3,0.5,0.5,0.6l2.2,1.2l5.3,3l0.5-4.4
				c0.2-2.3,0.2-3.7-0.2-4.3c-0.2-0.3-0.4-0.6-0.8-0.7c-0.3-0.2-0.7-0.3-1.1-0.2c-0.4,0-0.9,0.2-1.6,0.6l-0.4-0.7l7.9-4.6l0.4,0.7
				c-0.6,0.4-1.1,0.7-1.4,1.1c-0.3,0.4-0.5,0.9-0.7,1.6c-0.1,0.4-0.3,1.7-0.5,3.8L162.4,103.2z"/>
			<path d="M191.7,104.1l0.4,0.7l-11.3,6.5l-0.4-0.7l0.7-0.4c0.6-0.4,1.1-0.8,1.3-1.2c0.2-0.3,0.2-0.7,0.1-1.2
				c0-0.3-0.4-1.1-1.1-2.3l-9.1-15.7c-0.7-1.2-1.2-2-1.5-2.2c-0.3-0.2-0.7-0.4-1.2-0.4c-0.5,0-1,0.1-1.6,0.5l-0.7,0.4l-0.4-0.7
				l11.3-6.5l0.4,0.7l-0.7,0.4c-0.6,0.4-1.1,0.8-1.3,1.2c-0.2,0.3-0.2,0.7-0.2,1.2c0,0.3,0.4,1.1,1.1,2.3l9.1,15.7
				c0.7,1.2,1.2,2,1.5,2.2c0.3,0.2,0.7,0.4,1.2,0.4c0.5,0,1-0.1,1.6-0.5L191.7,104.1z"/>
		</g>
	</g>
	<circle cx="256" cy="256" r="10.2"/>
	<path d="M256,12.7c32.9,0,64.7,6.4,94.7,19.1c29,12.3,55,29.8,77.3,52.2c22.3,22.3,39.9,48.4,52.2,77.3
		c12.7,30,19.1,61.9,19.1,94.7s-6.4,64.7-19.1,94.7c-12.3,29-29.8,55-52.2,77.3c-22.3,22.3-48.4,39.9-77.3,52.2
		c-30,12.7-61.9,19.1-94.7,19.1s-64.7-6.4-94.7-19.1c-29-12.3-55-29.8-77.3-52.2S44,379.7,31.8,350.7c-12.7-30-19.1-61.9-19.1-94.7
		s6.4-64.7,19.1-94.7c12.3-29,29.8-55,52.2-77.3c22.3-22.3,48.4-39.9,77.3-52.2C191.3,19.1,223.1,12.7,256,12.7 M256,4.7
		C117.2,4.7,4.7,117.2,4.7,256S117.2,507.3,256,507.3S507.3,394.8,507.3,256S394.8,4.7,256,4.7L256,4.7z"/>
	<g>
		<g>
			<rect x="251" y="12.7" width="10" height="20"/>
			<rect x="251" y="479.3" width="10" height="20"/>
			<rect x="17.7" y="246" transform="matrix(4.490903e-011 -1 1 4.490903e-011 -233.3289 278.6711)" width="10" height="20"/>
			<rect x="484.3" y="246" transform="matrix(4.509110e-011 -1 1 4.509110e-011 233.3289 745.3289)" width="10" height="20"/>
			<rect x="48.9" y="129.3" transform="matrix(0.5 -0.866 0.866 0.5 -93.7025 116.3736)" width="10" height="20"/>
			<rect x="453.1" y="362.7" transform="matrix(0.5 -0.866 0.866 0.5 -93.7025 583.0314)" width="10" height="20"/>
			<rect x="134.3" y="448.1" transform="matrix(-0.866 -0.5 0.5 -0.866 30.9693 924.4357)" width="10" height="20"/>
			<rect x="367.7" y="43.9" transform="matrix(-0.866 -0.5 0.5 -0.866 668.4357 286.9693)" width="10" height="20"/>
			<rect x="134.3" y="43.9" transform="matrix(0.866 -0.5 0.5 0.866 -8.2982 76.8932)" width="10" height="20"/>
			<rect x="367.7" y="448.1" transform="matrix(0.866 -0.5 0.5 0.866 -179.1068 247.7018)" width="10" height="20"/>
			<rect x="48.9" y="362.7" transform="matrix(-0.5 -0.866 0.866 -0.5 -241.8401 605.7025)" width="10" height="20"/>
			<rect x="453.1" y="129.3" transform="matrix(-0.5 -0.866 0.866 -0.5 566.4351 605.7025)" width="10" height="20"/>
		</g>
		<g>
			<g>
				<rect x="351.5" y="33.3" transform="matrix(0.9135 0.4067 -0.4067 0.9135 46.0804 -140.2439)" width="2.9" height="10"/>
				<rect x="157.6" y="468.6" transform="matrix(0.9135 0.4067 -0.4067 0.9135 206.4031 -23.7626)" width="2.9" height="10.2"/>
			</g>
			<g>
				<rect x="328.2" y="24.3" transform="matrix(0.9511 0.309 -0.309 0.9511 25.1987 -100.4313)" width="2.9" height="10"/>
				<rect x="180.9" y="477.5" transform="matrix(0.9511 0.309 -0.309 0.9511 158.0518 -32.7392)" width="2.9" height="10.2"/>
			</g>
			<g>
				<rect x="304.1" y="17.9" transform="matrix(0.9781 0.2079 -0.2079 0.9781 11.4334 -63.0279)" width="2.9" height="10"/>
				<rect x="205" y="483.9" transform="matrix(0.9781 0.2079 -0.2079 0.9781 106.1878 -32.2403)" width="2.9" height="10.2"/>
			</g>
			<g>
				<rect x="279.5" y="14" transform="matrix(0.9945 0.1045 -0.1045 0.9945 3.5222 -29.2594)" width="2.9" height="10"/>
				<rect x="229.6" y="487.8" transform="matrix(0.9945 0.1045 -0.1045 0.9945 52.7918 -21.4559)" width="2.9" height="10.2"/>
			</g>
		</g>
		<g>
			<g>
				<rect x="447.4" y="110.9" transform="matrix(0.5878 0.809 -0.809 0.5878 278.7829 -315.3173)" width="2.9" height="10"/>
				<rect x="61.8" y="390.9" transform="matrix(0.5878 0.809 -0.809 0.5878 346.4749 112.0735)" width="2.9" height="10.2"/>
			</g>
			<g>
				<rect x="431.7" y="91.5" transform="matrix(0.6691 0.7431 -0.7431 0.6691 215.0367 -289.9296)" width="2.9" height="10"/>
				<rect x="77.5" y="410.3" transform="matrix(0.6691 0.7431 -0.7431 0.6691 334.8359 78.7746)" width="2.9" height="10.2"/>
			</g>
			<g>
				<rect x="414" y="73.9" transform="matrix(0.7431 0.6691 -0.6691 0.7431 159.5015 -257.7447)" width="2.9" height="10"/>
				<rect x="95.1" y="428" transform="matrix(0.7431 0.6691 -0.6691 0.7431 314.5738 46.6019)" width="2.9" height="10.2"/>
			</g>
			<g>
				<rect x="394.6" y="58.2" transform="matrix(0.809 0.5878 -0.5878 0.809 112.7858 -220.7469)" width="2.9" height="10"/>
				<rect x="114.5" y="443.6" transform="matrix(0.809 0.5878 -0.5878 0.809 285.9107 17.539)" width="2.9" height="10.2"/>
			</g>
		</g>
		<g>
			<g>
				<rect x="491.6" y="226.1" transform="matrix(0.1045 0.9945 -0.9945 0.1045 671.312 -283.3923)" width="2.9" height="10"/>
				<rect x="17.6" y="275.8" transform="matrix(0.1045 0.9945 -0.9945 0.1045 296.4357 232.5807)" width="2.9" height="10.2"/>
			</g>
			<g>
				<rect x="487.7" y="201.4" transform="matrix(0.2079 0.9781 -0.9781 0.2079 589.3654 -314.9093)" width="2.9" height="10"/>
				<rect x="21.5" y="300.4" transform="matrix(0.2079 0.9781 -0.9781 0.2079 317.047 219.5456)" width="2.9" height="10.2"/>
			</g>
			<g>
				<rect x="481.2" y="177.3" transform="matrix(0.309 0.9511 -0.9511 0.309 506.941 -333.0411)" width="2.9" height="10"/>
				<rect x="28" y="324.5" transform="matrix(0.309 0.9511 -0.9511 0.309 333.8161 199.7825)" width="2.9" height="10.2"/>
			</g>
			<g>
				<rect x="472.3" y="154.1" transform="matrix(0.4067 0.9135 -0.9135 0.4067 426.3548 -338.4049)" width="2.9" height="10"/>
				<rect x="36.9" y="347.8" transform="matrix(0.4067 0.9135 -0.9135 0.4067 345.1467 174.3232)" width="2.9" height="10.2"/>
			</g>
		</g>
		<g>
			<g>
				<rect x="472.3" y="347.9" transform="matrix(-0.4067 0.9135 -0.9135 -0.4067 988.8331 63.7203)" width="2.9" height="10"/>
				<rect x="36.9" y="154" transform="matrix(-0.4067 0.9135 -0.9135 -0.4067 199.3011 188.7699)" width="2.9" height="10.2"/>
			</g>
			<g>
				<rect x="481.2" y="324.6" transform="matrix(-0.309 0.9511 -0.9511 -0.309 945.3327 -27.5277)" width="2.9" height="10"/>
				<rect x="28" y="177.3" transform="matrix(-0.309 0.9511 -0.9511 -0.309 211.964 210.7583)" width="2.9" height="10.2"/>
			</g>
			<g>
				<rect x="487.7" y="300.5" transform="matrix(-0.2079 0.9781 -0.9781 -0.2079 889.6922 -109.3549)" width="2.9" height="10"/>
				<rect x="21.5" y="201.4" transform="matrix(-0.2079 0.9781 -0.9781 -0.2079 229.6953 226.9303)" width="2.9" height="10.2"/>
			</g>
			<g>
				<rect x="491.6" y="275.9" transform="matrix(-0.1045 0.9945 -0.9945 -0.1045 823.9343 -180.049)" width="2.9" height="10"/>
				<rect x="17.6" y="226" transform="matrix(-0.1045 0.9945 -0.9945 -0.1045 250.8882 236.2934)" width="2.9" height="10.2"/>
			</g>
		</g>
		<g>
			<g>
				<rect x="394.6" y="443.8" transform="matrix(-0.809 0.5878 -0.5878 -0.809 980.3353 579.0977)" width="2.9" height="10"/>
				<rect x="114.5" y="58.2" transform="matrix(-0.809 0.5878 -0.5878 -0.809 246.9665 46.274)" width="2.9" height="10.2"/>
			</g>
			<g>
				<rect x="414" y="428.1" transform="matrix(-0.7431 0.6691 -0.6691 -0.7431 1014.0427 476.9746)" width="2.9" height="10"/>
				<rect x="95.1" y="73.9" transform="matrix(-0.7431 0.6691 -0.6691 -0.7431 221.1927 72.9973)" width="2.9" height="10.2"/>
			</g>
			<g>
				<rect x="431.7" y="410.5" transform="matrix(-0.6691 0.7431 -0.7431 -0.6691 1031.6826 371.6146)" width="2.9" height="10"/>
				<rect x="77.5" y="91.5" transform="matrix(-0.6691 0.7431 -0.7431 -0.6691 203.5594 102.5411)" width="2.9" height="10.2"/>
			</g>
			<g>
				<rect x="447.4" y="391.1" transform="matrix(-0.5878 0.809 -0.809 -0.5878 1033.0616 265.8038)" width="2.9" height="10"/>
				<rect x="61.8" y="110.9" transform="matrix(-0.5878 0.809 -0.809 -0.5878 194.2601 132.9507)" width="2.9" height="10.2"/>
			</g>
		</g>
		<g>
			<g>
				<rect x="279.5" y="488" transform="matrix(-0.9945 0.1045 -0.1045 -0.9945 611.8211 953.9869)" width="2.9" height="10"/>
				<rect x="229.6" y="14" transform="matrix(-0.9945 0.1045 -0.1045 -0.9945 462.9209 13.868)" width="2.9" height="10.2"/>
			</g>
			<g>
				<rect x="304.1" y="484.1" transform="matrix(-0.9781 0.2079 -0.2079 -0.9781 706.121 904.0297)" width="2.9" height="10"/>
				<rect x="205" y="17.9" transform="matrix(-0.9781 0.2079 -0.2079 -0.9781 413.1969 2.502)" width="2.9" height="10.2"/>
			</g>
			<g>
				<rect x="328.2" y="477.7" transform="matrix(-0.9511 0.309 -0.309 -0.9511 792.3147 839.8424)" width="2.9" height="10"/>
				<rect x="180.9" y="24.3" transform="matrix(-0.9511 0.309 -0.309 -0.9511 364.924 1.0408)" width="2.9" height="10.2"/>
			</g>
			<g>
				<rect x="351.5" y="468.7" transform="matrix(-0.9135 0.4067 -0.4067 -0.9135 868.0448 762.944)" width="2.9" height="10"/>
				<rect x="157.6" y="33.3" transform="matrix(-0.9135 0.4067 -0.4067 -0.9135 320.0436 8.6851)" width="2.9" height="10.2"/>
			</g>
		</g>
	</g>
</g>
</svg>
