<?xml version="1.0" encoding="utf-8"?>
<!-- Generator: Adobe Illustrator 19.2.0, SVG Export Plug-In . SVG Version: 6.00 Build 0)  -->
<svg version="1.1" id="icon" xmlns="http://www.w3.org/2000/svg" xmlns:xlink="http://www.w3.org/1999/xlink" x="0px" y="0px"
	 viewBox="0 0 512 512" style="enable-background:new 0 0 512 512;" xml:space="preserve">
<g>
	<circle cx="256" cy="256" r="10.4"/>
	<path d="M256,12.7c32.9,0,64.7,6.4,94.7,19.1c29,12.3,55,29.8,77.3,52.2c22.3,22.3,39.9,48.4,52.2,77.3
		c12.7,30,19.1,61.9,19.1,94.7s-6.4,64.7-19.1,94.7c-12.3,29-29.8,55-52.2,77.3c-22.3,22.3-48.4,39.9-77.3,52.2
		c-30,12.7-61.9,19.1-94.7,19.1s-64.7-6.4-94.7-19.1c-29-12.3-55-29.8-77.3-52.2S44,379.7,31.8,350.7c-12.7-30-19.1-61.9-19.1-94.7
		s6.4-64.7,19.1-94.7c12.3-29,29.8-55,52.2-77.3c22.3-22.3,48.4-39.9,77.3-52.2C191.3,19.1,223.1,12.7,256,12.7 M256,4.7
		C117.2,4.7,4.7,117.2,4.7,256S117.2,507.3,256,507.3S507.3,394.8,507.3,256S394.8,4.7,256,4.7L256,4.7z"/>
	<g>
		<g>
			<rect x="251.2" y="21.9" width="9.6" height="19.3"/>
			<rect x="251.2" y="470.9" width="9.6" height="19.3"/>
			<rect x="26.7" y="246.4" transform="matrix(4.488149e-011 -1 1 4.488149e-011 -224.4929 287.5071)" width="9.6" height="19.3"/>
			<rect x="475.7" y="246.4" transform="matrix(4.497564e-011 -1 1 4.497564e-011 224.4929 736.4929)" width="9.6" height="19.3"/>
			<rect x="56.8" y="134.1" transform="matrix(0.5 -0.866 0.866 0.5 -93.7025 125.2096)" width="9.6" height="19.3"/>
			<rect x="445.6" y="358.6" transform="matrix(0.5 -0.866 0.866 0.5 -93.7025 574.1954)" width="9.6" height="19.3"/>
			<rect x="138.9" y="440.8" transform="matrix(-0.866 -0.5 0.5 -0.866 43.0396 912.3654)" width="9.6" height="19.3"/>
			<rect x="363.4" y="52" transform="matrix(-0.866 -0.5 0.5 -0.866 656.3654 299.0396)" width="9.6" height="19.3"/>
			<rect x="138.9" y="52" transform="matrix(0.866 -0.5 0.5 0.866 -11.5324 80.1274)" width="9.6" height="19.3"/>
			<rect x="363.4" y="440.8" transform="matrix(0.866 -0.5 0.5 0.866 -175.8726 244.4676)" width="9.6" height="19.3"/>
			<rect x="56.8" y="358.6" transform="matrix(-0.5 -0.866 0.866 -0.5 -226.5355 605.7025)" width="9.6" height="19.3"/>
			<rect x="445.6" y="134.1" transform="matrix(-0.5 -0.866 0.866 -0.5 551.1306 605.7025)" width="9.6" height="19.3"/>
		</g>
		<g>
			<g>
				<rect x="347.9" y="41.7" transform="matrix(0.9135 0.4067 -0.4067 0.9135 49.1167 -138.0379)" width="2.8" height="9.6"/>
				<rect x="161.4" y="460.5" transform="matrix(0.9135 0.4067 -0.4067 0.9135 203.368 -25.9678)" width="2.8" height="9.8"/>
			</g>
			<g>
				<rect x="325.5" y="33.1" transform="matrix(0.9511 0.309 -0.309 0.9511 27.7148 -99.1493)" width="2.8" height="9.6"/>
				<rect x="183.8" y="469.1" transform="matrix(0.9511 0.309 -0.309 0.9511 155.5368 -34.0207)" width="2.8" height="9.8"/>
			</g>
			<g>
				<rect x="302.3" y="26.9" transform="matrix(0.9781 0.2079 -0.2079 0.9781 13.2279 -62.4448)" width="2.8" height="9.6"/>
				<rect x="206.9" y="475.3" transform="matrix(0.9781 0.2079 -0.2079 0.9781 104.394 -32.8232)" width="2.8" height="9.8"/>
			</g>
			<g>
				<rect x="278.6" y="23.1" transform="matrix(0.9945 0.1045 -0.1045 0.9945 4.4553 -29.1116)" width="2.8" height="9.6"/>
				<rect x="230.6" y="479.1" transform="matrix(0.9945 0.1045 -0.1045 0.9945 51.8591 -21.6036)" width="2.8" height="9.8"/>
			</g>
		</g>
		<g>
			<g>
				<rect x="440.1" y="116.4" transform="matrix(0.5878 0.809 -0.809 0.5878 280.0648 -307.2232)" width="2.8" height="9.6"/>
				<rect x="69.2" y="385.8" transform="matrix(0.5878 0.809 -0.809 0.5878 345.1935 103.9825)" width="2.8" height="9.8"/>
			</g>
			<g>
				<rect x="425" y="97.8" transform="matrix(0.6691 0.7431 -0.7431 0.6691 217.3055 -282.9469)" width="2.8" height="9.6"/>
				<rect x="84.3" y="404.5" transform="matrix(0.6691 0.7431 -0.7431 0.6691 332.568 71.7946)" width="2.8" height="9.8"/>
			</g>
			<g>
				<rect x="408" y="80.8" transform="matrix(0.7431 0.6691 -0.6691 0.7431 162.4383 -251.9808)" width="2.8" height="9.6"/>
				<rect x="101.2" y="421.4" transform="matrix(0.7431 0.6691 -0.6691 0.7431 311.6381 40.8403)" width="2.8" height="9.8"/>
			</g>
			<g>
				<rect x="389.4" y="65.7" transform="matrix(0.809 0.5878 -0.5878 0.809 116.0645 -216.2342)" width="2.8" height="9.6"/>
				<rect x="119.9" y="436.5" transform="matrix(0.809 0.5878 -0.5878 0.809 282.6332 13.028)" width="2.8" height="9.8"/>
			</g>
		</g>
		<g>
			<g>
				<rect x="482.7" y="227.2" transform="matrix(0.1045 0.9945 -0.9945 0.1045 664.2125 -273.6206)" width="2.8" height="9.6"/>
				<rect x="26.6" y="275.1" transform="matrix(0.1045 0.9945 -0.9945 0.1045 303.5326 222.8127)" width="2.8" height="9.8"/>
			</g>
			<g>
				<rect x="478.9" y="203.5" transform="matrix(0.2079 0.9781 -0.9781 0.2079 584.2081 -304.7876)" width="2.8" height="9.6"/>
				<rect x="30.4" y="298.8" transform="matrix(0.2079 0.9781 -0.9781 0.2079 322.2023 209.4278)" width="2.8" height="9.8"/>
			</g>
			<g>
				<rect x="472.7" y="180.3" transform="matrix(0.309 0.9511 -0.9511 0.309 503.6623 -322.9503)" width="2.8" height="9.6"/>
				<rect x="36.6" y="321.9" transform="matrix(0.309 0.9511 -0.9511 0.309 337.0936 189.6955)" width="2.8" height="9.8"/>
			</g>
			<g>
				<rect x="464.1" y="157.9" transform="matrix(0.4067 0.9135 -0.9135 0.4067 424.8169 -328.6946)" width="2.8" height="9.6"/>
				<rect x="45.2" y="344.3" transform="matrix(0.4067 0.9135 -0.9135 0.4067 346.6841 164.6167)" width="2.8" height="9.8"/>
			</g>
		</g>
		<g>
			<g>
				<rect x="464.1" y="344.5" transform="matrix(-0.4067 0.9135 -0.9135 -0.4067 973.8806 66.0885)" width="2.8" height="9.6"/>
				<rect x="45.2" y="157.9" transform="matrix(-0.4067 0.9135 -0.9135 -0.4067 214.2478 186.4025)" width="2.8" height="9.8"/>
			</g>
			<g>
				<rect x="472.7" y="322" transform="matrix(-0.309 0.9511 -0.9511 -0.309 931.4439 -23.0149)" width="2.8" height="9.6"/>
				<rect x="36.6" y="180.3" transform="matrix(-0.309 0.9511 -0.9511 -0.309 225.8475 206.2472)" width="2.8" height="9.8"/>
			</g>
			<g>
				<rect x="478.9" y="298.9" transform="matrix(-0.2079 0.9781 -0.9781 -0.2079 877.1929 -102.9862)" width="2.8" height="9.6"/>
				<rect x="30.4" y="203.4" transform="matrix(-0.2079 0.9781 -0.9781 -0.2079 242.1898 220.5641)" width="2.8" height="9.8"/>
			</g>
			<g>
				<rect x="482.7" y="275.2" transform="matrix(-0.1045 0.9945 -0.9945 -0.1045 813.0817 -172.1641)" width="2.8" height="9.6"/>
				<rect x="26.6" y="227.1" transform="matrix(-0.1045 0.9945 -0.9945 -0.1045 261.7366 228.4115)" width="2.8" height="9.8"/>
			</g>
		</g>
		<g>
			<g>
				<rect x="389.4" y="436.7" transform="matrix(-0.809 0.5878 -0.5878 -0.809 966.4465 569.0068)" width="2.8" height="9.6"/>
				<rect x="119.9" y="65.7" transform="matrix(-0.809 0.5878 -0.5878 -0.809 260.8501 56.361)" width="2.8" height="9.8"/>
			</g>
			<g>
				<rect x="408" y="421.6" transform="matrix(-0.7431 0.6691 -0.6691 -0.7431 999.0274 469.3239)" width="2.8" height="9.6"/>
				<rect x="101.2" y="80.8" transform="matrix(-0.7431 0.6691 -0.6691 -0.7431 236.2023 80.6451)" width="2.8" height="9.8"/>
			</g>
			<g>
				<rect x="425" y="404.6" transform="matrix(-0.6691 0.7431 -0.7431 -0.6691 1015.9993 366.5188)" width="2.8" height="9.6"/>
				<rect x="84.3" y="97.7" transform="matrix(-0.6691 0.7431 -0.7431 -0.6691 219.2368 107.635)" width="2.8" height="9.8"/>
			</g>
			<g>
				<rect x="440.1" y="386" transform="matrix(-0.5878 0.809 -0.809 -0.5878 1017.1761 263.2878)" width="2.8" height="9.6"/>
				<rect x="69.2" y="116.4" transform="matrix(-0.5878 0.809 -0.809 -0.5878 210.1396 135.4658)" width="2.8" height="9.8"/>
			</g>
		</g>
		<g>
			<g>
				<rect x="278.6" y="479.2" transform="matrix(-0.9945 0.1045 -0.1045 -0.9945 609.0012 936.1826)" width="2.8" height="9.6"/>
				<rect x="230.6" y="23.1" transform="matrix(-0.9945 0.1045 -0.1045 -0.9945 465.7398 31.6656)" width="2.8" height="9.8"/>
			</g>
			<g>
				<rect x="302.3" y="475.5" transform="matrix(-0.9781 0.2079 -0.2079 -0.9781 700.5735 886.9562)" width="2.8" height="9.6"/>
				<rect x="206.9" y="26.9" transform="matrix(-0.9781 0.2079 -0.2079 -0.9781 418.7423 19.569)" width="2.8" height="9.8"/>
			</g>
			<g>
				<rect x="325.5" y="469.3" transform="matrix(-0.9511 0.309 -0.309 -0.9511 784.2206 823.9569)" width="2.8" height="9.6"/>
				<rect x="183.8" y="33.1" transform="matrix(-0.9511 0.309 -0.309 -0.9511 373.015 16.9204)" width="2.8" height="9.8"/>
			</g>
			<g>
				<rect x="347.9" y="460.7" transform="matrix(-0.9135 0.4067 -0.4067 -0.9135 857.6665 748.6596)" width="2.8" height="9.6"/>
				<rect x="161.4" y="41.7" transform="matrix(-0.9135 0.4067 -0.4067 -0.9135 330.4179 22.9641)" width="2.8" height="9.8"/>
			</g>
		</g>
	</g>
	<g>
		<g>
			<path d="M456.6,248.4c0,1.7-0.5,3.2-1.6,4.4c-1,1.2-2.5,2-4.4,2.5v0.1c2.2,0.3,3.9,0.9,5,2c1.1,1.1,1.7,2.5,1.7,4.3
				c0,2.6-1,4.7-2.9,6.2s-4.7,2.2-8.2,2.2c-3,0-5.6-0.5-7.9-1.5v-4.9c1.1,0.5,2.2,1,3.5,1.3c1.3,0.3,2.5,0.5,3.8,0.5
				c1.9,0,3.3-0.3,4.2-1c0.9-0.7,1.4-1.7,1.4-3.1c0-1.3-0.5-2.2-1.6-2.7c-1.1-0.5-2.7-0.8-5-0.8h-2.1v-4.5h2.1
				c2.1,0,3.7-0.3,4.7-0.8c1-0.6,1.5-1.5,1.5-2.9c0-2.1-1.3-3.1-3.9-3.1c-0.9,0-1.8,0.2-2.8,0.5c-0.9,0.3-2,0.8-3.1,1.6l-2.7-4
				c2.5-1.8,5.5-2.7,9-2.7c2.8,0,5.1,0.6,6.7,1.7C455.8,244.8,456.6,246.4,456.6,248.4z"/>
		</g>
		<g>
			<path d="M356.3,109.2h-5.8V93.3l0.1-2.6l0.1-2.9c-1,1-1.6,1.6-2,1.9l-3.2,2.5l-2.8-3.5l8.8-7h4.8V109.2z"/>
		</g>
		<g>
			<path d="M157.7,431.8l10.3-22.5h-13.5v-4.9h19.7v3.6l-10.4,23.8H157.7z"/>
		</g>
		<g>
			<path d="M430.1,175.3h-19.2v-4l6.9-7c2-2.1,3.4-3.5,4-4.3s1.1-1.6,1.4-2.2s0.4-1.4,0.4-2.1c0-1.1-0.3-1.9-0.9-2.5
				s-1.4-0.8-2.4-0.8c-1.1,0-2.1,0.2-3.1,0.7c-1,0.5-2,1.2-3.1,2.1l-3.2-3.7c1.4-1.2,2.5-2,3.4-2.4c0.9-0.5,1.9-0.8,2.9-1.1
				s2.2-0.4,3.5-0.4c1.7,0,3.2,0.3,4.5,0.9c1.3,0.6,2.3,1.5,3.1,2.6c0.7,1.1,1.1,2.4,1.1,3.9c0,1.3-0.2,2.5-0.7,3.6
				c-0.4,1.1-1.1,2.2-2.1,3.4s-2.6,2.8-4.9,5l-3.5,3.3v0.3h12V175.3z"/>
		</g>
		<g>
			<path d="M92.9,333.5c2.6,0,4.7,0.6,6.4,1.8s2.4,2.8,2.4,4.8c0,1.4-0.4,2.7-1.2,3.7s-2,2.1-3.8,2.9c2.1,1.1,3.5,2.3,4.4,3.4
				s1.3,2.5,1.3,3.9c0,2.3-0.9,4.1-2.6,5.4s-4.1,2.1-7,2.1c-3,0-5.4-0.6-7.1-1.9c-1.7-1.3-2.6-3.1-2.6-5.4c0-1.6,0.4-3,1.2-4.2
				c0.8-1.2,2.2-2.3,4-3.2c-1.6-1-2.7-2-3.4-3.2c-0.7-1.1-1-2.4-1-3.7c0-2,0.8-3.6,2.4-4.8C88.1,334.1,90.3,333.5,92.9,333.5z
				 M88.6,354c0,1.1,0.4,1.9,1.1,2.5c0.8,0.6,1.8,0.9,3.1,0.9c1.4,0,2.5-0.3,3.2-0.9s1.1-1.4,1.1-2.5c0-0.8-0.4-1.6-1.1-2.4
				c-0.7-0.7-1.9-1.5-3.4-2.3C89.9,350.6,88.6,352.1,88.6,354z M92.8,337.7c-1,0-1.8,0.3-2.4,0.8c-0.6,0.5-0.9,1.2-0.9,2
				c0,0.8,0.2,1.4,0.7,2c0.5,0.6,1.4,1.2,2.6,1.8c1.2-0.6,2.1-1.2,2.6-1.8c0.5-0.6,0.7-1.3,0.7-2.1c0-0.9-0.3-1.5-0.9-2
				C94.6,338,93.8,337.7,92.8,337.7z"/>
		</g>
		<g>
			<path d="M74,254c0,5.4-1.1,9.4-3.4,12.1c-2.3,2.7-5.7,4-10.3,4c-1.6,0-2.9-0.1-3.7-0.3v-4.7c1.1,0.3,2.2,0.4,3.3,0.4
				c1.9,0,3.5-0.3,4.8-0.9c1.3-0.6,2.2-1.5,2.9-2.7c0.7-1.2,1-2.9,1.1-5h-0.2c-0.7,1.2-1.6,2-2.5,2.5s-2.1,0.7-3.6,0.7
				c-2.4,0-4.3-0.8-5.7-2.3c-1.4-1.5-2.1-3.7-2.1-6.4c0-2.9,0.8-5.3,2.5-7c1.7-1.7,3.9-2.6,6.8-2.6c2,0,3.8,0.5,5.3,1.4
				c1.5,1,2.7,2.3,3.5,4.1C73.6,249.3,74,251.5,74,254z M64.1,246.6c-1.2,0-2.1,0.4-2.8,1.2c-0.7,0.8-1,2-1,3.6
				c0,1.3,0.3,2.4,0.9,3.2c0.6,0.8,1.5,1.2,2.8,1.2c1.2,0,2.2-0.4,3-1.2c0.8-0.8,1.3-1.7,1.3-2.7c0-1.5-0.4-2.7-1.2-3.8
				S65.3,246.6,64.1,246.6z"/>
		</g>
		<g>
			<path d="M430.8,356h-3.3v5.7h-5.7V356h-11.7v-4l12-17.7h5.4v17.3h3.3V356z M421.8,351.5v-4.7c0-0.8,0-1.9,0.1-3.4
				c0.1-1.5,0.1-2.3,0.2-2.6h-0.2c-0.5,1-1,2-1.7,3l-5,7.6H421.8z"/>
		</g>
		<g>
			<path d="M95.9,174.9h-5.8V159l0.1-2.6l0.1-2.9c-1,1-1.6,1.6-2,1.9l-3.2,2.5l-2.8-3.5l8.8-7h4.8V174.9z"/>
			<path d="M122.6,161.2c0,4.8-0.8,8.3-2.4,10.6c-1.6,2.3-4,3.5-7.3,3.5c-3.2,0-5.6-1.2-7.2-3.6s-2.4-5.9-2.4-10.5
				c0-4.8,0.8-8.4,2.3-10.7c1.6-2.3,4-3.4,7.2-3.4c3.2,0,5.6,1.2,7.2,3.6S122.6,156.6,122.6,161.2z M109.2,161.2
				c0,3.4,0.3,5.8,0.9,7.2c0.6,1.5,1.6,2.2,2.9,2.2c1.4,0,2.3-0.7,2.9-2.2c0.6-1.5,0.9-3.9,0.9-7.2c0-3.4-0.3-5.8-0.9-7.3
				s-1.6-2.2-2.9-2.2c-1.4,0-2.3,0.7-2.9,2.2C109.5,155.4,109.2,157.8,109.2,161.2z"/>
		</g>
		<g>
			<path d="M350,413.9c2.7,0,4.8,0.7,6.3,2.2c1.6,1.5,2.4,3.5,2.4,6.1c0,3.1-0.9,5.4-2.8,7.1c-1.9,1.7-4.6,2.5-8.1,2.5
				c-3.1,0-5.5-0.5-7.4-1.5v-5c1,0.5,2.1,1,3.5,1.3s2.6,0.5,3.7,0.5c3.5,0,5.3-1.5,5.3-4.4c0-2.8-1.8-4.2-5.5-4.2
				c-0.7,0-1.4,0.1-2.2,0.2c-0.8,0.1-1.5,0.3-2,0.4l-2.3-1.2l1-14h14.9v4.9H347l-0.5,5.4l0.7-0.1C347.9,414,348.9,413.9,350,413.9z"
				/>
		</g>
		<g>
			<path d="M159.5,109.2h-5.8V93.3l0.1-2.6l0.1-2.9c-1,1-1.6,1.6-2,1.9l-3.2,2.5l-2.8-3.5l8.8-7h4.8V109.2z"/>
			<path d="M181.4,109.2h-5.8V93.3l0.1-2.6l0.1-2.9c-1,1-1.6,1.6-2,1.9l-3.2,2.5l-2.8-3.5l8.8-7h4.8V109.2z"/>
		</g>
		<g>
			<path d="M246.3,445.4c0-5.4,1.1-9.5,3.4-12.1c2.3-2.7,5.7-4,10.3-4c1.6,0,2.8,0.1,3.7,0.3v4.6c-1.1-0.3-2.2-0.4-3.3-0.4
				c-2,0-3.6,0.3-4.9,0.9c-1.3,0.6-2.2,1.5-2.8,2.7c-0.6,1.2-1,2.8-1.1,5h0.2c1.2-2.1,3.2-3.2,6-3.2c2.5,0,4.4,0.8,5.8,2.3
				c1.4,1.5,2.1,3.7,2.1,6.4c0,2.9-0.8,5.2-2.5,7c-1.7,1.7-3.9,2.6-6.9,2.6c-2,0-3.8-0.5-5.3-1.4c-1.5-0.9-2.7-2.3-3.5-4.1
				S246.3,447.9,246.3,445.4z M256.2,452.8c1.2,0,2.2-0.4,2.9-1.2s1-2,1-3.6c0-1.3-0.3-2.4-0.9-3.2s-1.6-1.2-2.8-1.2
				c-1.2,0-2.2,0.4-3,1.1s-1.2,1.7-1.2,2.7c0,1.5,0.4,2.7,1.2,3.8C254,452.2,255,452.8,256.2,452.8z"/>
		</g>
		<g>
			<path d="M249.4,82.5h-5.8V66.6l0.1-2.6l0.1-2.9c-1,1-1.6,1.6-2,1.9l-3.2,2.5l-2.8-3.5l8.8-7h4.8V82.5z"/>
			<path d="M276.2,82.5H257v-4l6.9-7c2-2.1,3.4-3.5,4-4.3s1.1-1.6,1.4-2.2c0.3-0.7,0.4-1.4,0.4-2.1c0-1.1-0.3-1.9-0.9-2.5
				c-0.6-0.5-1.4-0.8-2.4-0.8c-1.1,0-2.1,0.2-3.1,0.7s-2,1.2-3.1,2.1l-3.2-3.7c1.4-1.2,2.5-2,3.4-2.4c0.9-0.5,1.9-0.8,2.9-1.1
				s2.2-0.4,3.5-0.4c1.7,0,3.2,0.3,4.5,0.9c1.3,0.6,2.3,1.5,3.1,2.6c0.7,1.1,1.1,2.4,1.1,3.9c0,1.3-0.2,2.5-0.7,3.6
				c-0.4,1.1-1.1,2.2-2.1,3.4s-2.6,2.8-4.9,5l-3.5,3.3v0.3h12V82.5z"/>
		</g>
	</g>
</g>
</svg>
