<?xml version="1.0" encoding="utf-8"?>
<!-- Generator: Adobe Illustrator 19.2.0, SVG Export Plug-In . SVG Version: 6.00 Build 0)  -->
<svg version="1.1" id="icon" xmlns="http://www.w3.org/2000/svg" xmlns:xlink="http://www.w3.org/1999/xlink" x="0px" y="0px"
	 viewBox="0 0 512 512" style="enable-background:new 0 0 512 512;" xml:space="preserve">
<g>
	<circle cx="256" cy="256" r="11.1"/>
	<g>
		<g>
			<circle cx="256" cy="12.4" r="7.7"/>
			<circle cx="256" cy="499.6" r="7.7"/>
			<ellipse transform="matrix(0.866 -0.5 0.5 0.866 -4.5379 73.1329)" cx="134.2" cy="45" rx="7.7" ry="7.7"/>
			<ellipse transform="matrix(0.866 -0.5 0.5 0.866 -182.8671 251.4621)" cx="377.8" cy="467" rx="7.7" ry="7.7"/>
			<ellipse transform="matrix(0.866 -0.5 0.5 0.866 -4.5379 251.4621)" cx="467" cy="134.2" rx="7.7" ry="7.7"/>
			<ellipse transform="matrix(0.866 -0.5 0.5 0.866 -182.8671 73.1329)" cx="45" cy="377.8" rx="7.7" ry="7.7"/>
			<ellipse transform="matrix(0.5 -0.866 0.866 0.5 149.8997 349.7025)" cx="377.8" cy="45" rx="7.7" ry="7.7"/>
			<ellipse transform="matrix(0.5 -0.866 0.866 0.5 -337.3047 349.7025)" cx="134.2" cy="467" rx="7.7" ry="7.7"/>
			<ellipse transform="matrix(0.5 -0.866 0.866 0.5 -93.7025 106.1003)" cx="45" cy="134.2" rx="7.7" ry="7.7"/>
			<ellipse transform="matrix(0.5 -0.866 0.866 0.5 -93.7025 593.3047)" cx="467" cy="377.8" rx="7.7" ry="7.7"/>
			<circle cx="12.4" cy="256" r="7.7"/>
			<circle cx="499.6" cy="256" r="7.7"/>
		</g>
		<g>
			<g>
				<g>
					<ellipse transform="matrix(0.9945 -0.1045 0.1045 0.9945 -0.1725 24.1729)" cx="230.5" cy="13.7" rx="2.9" ry="2.9"/>
					<ellipse transform="matrix(0.9945 -0.1045 0.1045 0.9945 -50.5413 32.1505)" cx="281.5" cy="498.3" rx="2.9" ry="2.9"/>
				</g>
				<g>
					<ellipse transform="matrix(0.9781 -0.2079 0.2079 0.9781 0.803 43.0824)" cx="205.4" cy="17.7" rx="2.9" ry="2.9"/>
					<ellipse transform="matrix(0.9781 -0.2079 0.2079 0.9781 -96.0654 74.5568)" cx="306.6" cy="494.3" rx="2.9" ry="2.9"/>
				</g>
				<g>
					<ellipse transform="matrix(0.9511 -0.309 0.309 0.9511 1.3297 57.0367)" cx="180.7" cy="24.3" rx="2.9" ry="2.9"/>
					<ellipse transform="matrix(0.9511 -0.309 0.309 0.9511 -134.4874 126.239)" cx="331.3" cy="487.7" rx="2.9" ry="2.9"/>
				</g>
				<g>
					<ellipse transform="matrix(0.9135 -0.4067 0.4067 0.9135 -4.245709e-002 66.717)" cx="156.9" cy="33.5" rx="2.9" ry="2.9"/>
					<ellipse transform="matrix(0.9135 -0.4067 0.4067 0.9135 -163.942 185.7969)" cx="355.1" cy="478.5" rx="2.9" ry="2.9"/>
				</g>
			</g>
			<g>
				<g>
					<ellipse transform="matrix(0.809 -0.5878 0.5878 0.809 -13.0877 77.5636)" cx="112.8" cy="58.9" rx="2.9" ry="2.9"/>
					<ellipse transform="matrix(0.809 -0.5878 0.5878 0.809 -190.075 321.1657)" cx="399.2" cy="453.1" rx="2.9" ry="2.9"/>
				</g>
				<g>
					<ellipse transform="matrix(0.7431 -0.6691 0.6691 0.7431 -26.2765 81.484)" cx="93" cy="75" rx="2.9" ry="2.9"/>
					<ellipse transform="matrix(0.7431 -0.6691 0.6691 0.7431 -184.8085 392.6207)" cx="419" cy="437" rx="2.9" ry="2.9"/>
				</g>
				<g>
					<ellipse transform="matrix(0.6691 -0.7431 0.7431 0.6691 -44.3065 86.4826)" cx="75" cy="93" rx="2.9" ry="2.9"/>
					<ellipse transform="matrix(0.6691 -0.7431 0.7431 0.6691 -166.7785 463.4127)" cx="437" cy="419" rx="2.9" ry="2.9"/>
				</g>
				<g>
					<ellipse transform="matrix(0.5878 -0.809 0.809 0.5878 -66.9802 94.1724)" cx="58.9" cy="112.8" rx="2.9" ry="2.9"/>
					<ellipse transform="matrix(0.5878 -0.809 0.809 0.5878 -136.1825 531.0983)" cx="453.1" cy="399.2" rx="2.9" ry="2.9"/>
				</g>
			</g>
			<g>
				<g>
					<ellipse transform="matrix(0.4067 -0.9135 0.9135 0.4067 -123.5022 123.6595)" cx="33.5" cy="156.9" rx="2.9" ry="2.9"/>
					<ellipse transform="matrix(0.4067 -0.9135 0.9135 0.4067 -40.4823 647.8267)" cx="478.5" cy="355.1" rx="2.9" ry="2.9"/>
				</g>
				<g>
					<ellipse transform="matrix(0.309 -0.9511 0.9511 0.309 -155.0725 148.0066)" cx="24.3" cy="180.7" rx="2.9" ry="2.9"/>
					<ellipse transform="matrix(0.309 -0.9511 0.9511 0.309 21.9148 692.7176)" cx="487.7" cy="331.3" rx="2.9" ry="2.9"/>
				</g>
				<g>
					<ellipse transform="matrix(0.2079 -0.9781 0.9781 0.2079 -186.8281 179.991)" cx="17.7" cy="205.4" rx="2.9" ry="2.9"/>
					<ellipse transform="matrix(0.2079 -0.9781 0.9781 0.2079 91.5658 726.3698)" cx="494.3" cy="306.6" rx="2.9" ry="2.9"/>
				</g>
				<g>
					<ellipse transform="matrix(0.1045 -0.9945 0.9945 0.1045 -216.9768 220.0961)" cx="13.7" cy="230.5" rx="2.9" ry="2.9"/>
					<ellipse transform="matrix(0.1045 -0.9945 0.9945 0.1045 166.2631 747.5806)" cx="498.3" cy="281.5" rx="2.9" ry="2.9"/>
				</g>
			</g>
			<g>
				<g>
					<ellipse transform="matrix(0.9945 -0.1045 0.1045 0.9945 -29.3457 2.9773)" cx="13.7" cy="281.5" rx="2.9" ry="2.9"/>
					<ellipse transform="matrix(0.9945 -0.1045 0.1045 0.9945 -21.3681 53.3461)" cx="498.3" cy="230.5" rx="2.9" ry="2.9"/>
				</g>
				<g>
					<ellipse transform="matrix(0.9781 -0.2079 0.2079 0.9781 -63.3684 10.3854)" cx="17.7" cy="306.6" rx="2.9" ry="2.9"/>
					<ellipse transform="matrix(0.9781 -0.2079 0.2079 0.9781 -31.894 107.2538)" cx="494.3" cy="205.4" rx="2.9" ry="2.9"/>
				</g>
				<g>
					<ellipse transform="matrix(0.9511 -0.309 0.309 0.9511 -101.18 23.7293)" cx="24.3" cy="331.3" rx="2.9" ry="2.9"/>
					<ellipse transform="matrix(0.9511 -0.309 0.309 0.9511 -31.9777 159.5464)" cx="487.7" cy="180.7" rx="2.9" ry="2.9"/>
				</g>
				<g>
					<ellipse transform="matrix(0.9135 -0.4067 0.4067 0.9135 -141.5322 44.3072)" cx="33.5" cy="355.1" rx="2.9" ry="2.9"/>
					<ellipse transform="matrix(0.9135 -0.4067 0.4067 0.9135 -22.4522 208.2067)" cx="478.5" cy="156.9" rx="2.9" ry="2.9"/>
				</g>
			</g>
			<g>
				<g>
					<ellipse transform="matrix(0.809 -0.5878 0.5878 0.809 -223.3825 110.871)" cx="58.9" cy="399.2" rx="2.9" ry="2.9"/>
					<ellipse transform="matrix(0.809 -0.5878 0.5878 0.809 20.2197 287.8583)" cx="453.1" cy="112.8" rx="2.9" ry="2.9"/>
				</g>
				<g>
					<ellipse transform="matrix(0.7431 -0.6691 0.6691 0.7431 -261.1108 157.7863)" cx="75" cy="419" rx="2.9" ry="2.9"/>
					<ellipse transform="matrix(0.7431 -0.6691 0.6691 0.7431 50.0258 316.3184)" cx="437" cy="93" rx="2.9" ry="2.9"/>
				</g>
				<g>
					<ellipse transform="matrix(0.6691 -0.7431 0.7431 0.6691 -294.0075 213.7116)" cx="93" cy="437" rx="2.9" ry="2.9"/>
					<ellipse transform="matrix(0.6691 -0.7431 0.7431 0.6691 82.9225 336.1836)" cx="419" cy="75" rx="2.9" ry="2.9"/>
				</g>
				<g>
					<ellipse transform="matrix(0.5878 -0.809 0.809 0.5878 -320.0443 278.0342)" cx="112.8" cy="453.1" rx="2.9" ry="2.9"/>
					<ellipse transform="matrix(0.5878 -0.809 0.809 0.5878 116.8816 347.2365)" cx="399.2" cy="58.9" rx="2.9" ry="2.9"/>
				</g>
			</g>
			<g>
				<g>
					<ellipse transform="matrix(0.4067 -0.9135 0.9135 0.4067 -344.0758 427.253)" cx="156.9" cy="478.5" rx="2.9" ry="2.9"/>
					<ellipse transform="matrix(0.4067 -0.9135 0.9135 0.4067 180.0914 344.2331)" cx="355.1" cy="33.5" rx="2.9" ry="2.9"/>
				</g>
				<g>
					<ellipse transform="matrix(0.309 -0.9511 0.9511 0.309 -338.9343 508.8558)" cx="180.7" cy="487.7" rx="2.9" ry="2.9"/>
					<ellipse transform="matrix(0.309 -0.9511 0.9511 0.309 205.7767 331.8684)" cx="331.3" cy="24.3" rx="2.9" ry="2.9"/>
				</g>
				<g>
					<ellipse transform="matrix(0.2079 -0.9781 0.9781 0.2079 -320.8206 592.3773)" cx="205.4" cy="494.3" rx="2.9" ry="2.9"/>
					<ellipse transform="matrix(0.2079 -0.9781 0.9781 0.2079 225.5582 313.9835)" cx="306.6" cy="17.7" rx="2.9" ry="2.9"/>
				</g>
				<g>
					<ellipse transform="matrix(0.1045 -0.9945 0.9945 0.1045 -289.0991 675.4583)" cx="230.5" cy="498.3" rx="2.9" ry="2.9"/>
					<ellipse transform="matrix(0.1045 -0.9945 0.9945 0.1045 238.3853 292.2184)" cx="281.5" cy="13.7" rx="2.9" ry="2.9"/>
				</g>
			</g>
		</g>
	</g>
	<g>
		<g>
			<path d="M471.3,247.9c0,1.8-0.6,3.4-1.7,4.7c-1.1,1.3-2.7,2.2-4.7,2.7v0.1c2.4,0.3,4.2,1,5.4,2.2c1.2,1.1,1.8,2.7,1.8,4.6
				c0,2.8-1,5-3.1,6.6c-2.1,1.6-5,2.4-8.8,2.4c-3.2,0-6-0.5-8.5-1.6v-5.3c1.1,0.6,2.4,1,3.8,1.4s2.7,0.5,4.1,0.5
				c2.1,0,3.6-0.3,4.6-1c1-0.7,1.5-1.8,1.5-3.4c0-1.4-0.6-2.4-1.7-2.9c-1.1-0.6-2.9-0.9-5.4-0.9h-2.2v-4.8h2.3c2.3,0,4-0.3,5-0.9
				c1.1-0.6,1.6-1.6,1.6-3.1c0-2.2-1.4-3.3-4.2-3.3c-1,0-2,0.2-3,0.5c-1,0.3-2.1,0.9-3.3,1.7l-2.9-4.3c2.7-1.9,5.9-2.9,9.6-2.9
				c3.1,0,5.5,0.6,7.2,1.9C470.4,243.9,471.3,245.7,471.3,247.9z"/>
		</g>
		<g>
			<path d="M363.7,98.4h-6.2V81.3l0.1-2.8l0.1-3.1c-1,1-1.8,1.7-2.2,2l-3.4,2.7l-3-3.8l9.5-7.6h5.1V98.4z"/>
		</g>
		<g>
			<path d="M150.5,444.7l11.1-24.2H147v-5.2h21.1v3.9L157,444.7H150.5z"/>
		</g>
		<g>
			<path d="M442.9,169.4h-20.6V165l7.4-7.5c2.2-2.2,3.6-3.8,4.3-4.7c0.7-0.9,1.2-1.7,1.5-2.4c0.3-0.7,0.4-1.5,0.4-2.3
				c0-1.2-0.3-2.1-1-2.6c-0.7-0.6-1.5-0.9-2.6-0.9c-1.1,0-2.3,0.3-3.3,0.8c-1.1,0.5-2.2,1.3-3.4,2.2l-3.4-4c1.5-1.2,2.7-2.1,3.6-2.6
				c1-0.5,2-0.9,3.1-1.2c1.1-0.3,2.4-0.4,3.8-0.4c1.8,0,3.5,0.3,4.9,1s2.5,1.6,3.3,2.8s1.2,2.6,1.2,4.2c0,1.4-0.2,2.6-0.7,3.8
				c-0.5,1.2-1.2,2.4-2.2,3.7s-2.8,3-5.3,5.3l-3.8,3.6v0.3h12.8V169.4z"/>
		</g>
		<g>
			<path d="M80.9,339.2c2.8,0,5.1,0.6,6.8,1.9s2.6,3,2.6,5.2c0,1.5-0.4,2.8-1.3,4c-0.8,1.2-2.2,2.2-4,3.2c2.2,1.2,3.8,2.4,4.7,3.7
				s1.4,2.7,1.4,4.2c0,2.4-0.9,4.4-2.8,5.8s-4.4,2.2-7.5,2.2c-3.2,0-5.8-0.7-7.6-2.1c-1.8-1.4-2.8-3.3-2.8-5.8
				c0-1.7,0.4-3.2,1.3-4.5c0.9-1.3,2.3-2.5,4.3-3.4c-1.7-1.1-2.9-2.2-3.6-3.4c-0.7-1.2-1.1-2.5-1.1-4c0-2.1,0.9-3.8,2.6-5.1
				C75.8,339.8,78.1,339.2,80.9,339.2z M76.3,361.2c0,1.2,0.4,2.1,1.2,2.7c0.8,0.6,1.9,1,3.3,1c1.5,0,2.7-0.3,3.5-1s1.1-1.5,1.1-2.6
				c0-0.9-0.4-1.7-1.1-2.5s-2-1.6-3.7-2.5C77.7,357.5,76.3,359.2,76.3,361.2z M80.8,343.7c-1.1,0-1.9,0.3-2.6,0.8
				c-0.7,0.5-1,1.3-1,2.2c0,0.8,0.3,1.5,0.8,2.2c0.5,0.6,1.5,1.3,2.8,2c1.3-0.6,2.2-1.3,2.8-1.9s0.8-1.4,0.8-2.2
				c0-0.9-0.3-1.7-1-2.2S81.9,343.7,80.8,343.7z"/>
		</g>
		<g>
			<path d="M60.6,253.8c0,5.8-1.2,10.1-3.7,13c-2.4,2.9-6.1,4.3-11.1,4.3c-1.7,0-3.1-0.1-4-0.3v-5c1.1,0.3,2.3,0.4,3.5,0.4
				c2.1,0,3.8-0.3,5.1-0.9c1.3-0.6,2.4-1.6,3.1-2.9s1.1-3.1,1.2-5.4h-0.2c-0.8,1.3-1.7,2.2-2.7,2.7c-1,0.5-2.3,0.8-3.8,0.8
				c-2.6,0-4.6-0.8-6.1-2.5c-1.5-1.6-2.2-3.9-2.2-6.9c0-3.2,0.9-5.7,2.7-7.5c1.8-1.8,4.2-2.8,7.3-2.8c2.2,0,4.1,0.5,5.7,1.5
				c1.6,1,2.9,2.5,3.8,4.4S60.6,251.1,60.6,253.8z M49.9,245.9c-1.3,0-2.3,0.4-3,1.3c-0.7,0.9-1.1,2.2-1.1,3.8c0,1.4,0.3,2.6,1,3.4
				c0.7,0.8,1.7,1.3,3,1.3c1.3,0,2.3-0.4,3.2-1.2c0.9-0.8,1.4-1.8,1.4-2.9c0-1.6-0.4-3-1.3-4.1C52.3,246.4,51.2,245.9,49.9,245.9z"
				/>
		</g>
		<g>
			<path d="M443.6,363.3h-3.5v6.1H434v-6.1h-12.6V359l12.9-19h5.7v18.5h3.5V363.3z M434,358.5v-5c0-0.8,0-2,0.1-3.6
				c0.1-1.6,0.1-2.5,0.2-2.8h-0.2c-0.5,1.1-1.1,2.2-1.8,3.2l-5.4,8.2H434z"/>
		</g>
		<g>
			<path d="M84.2,169h-6.2v-17.1l0.1-2.8l0.1-3.1c-1,1-1.8,1.7-2.2,2l-3.4,2.7l-3-3.8l9.5-7.6h5.1V169z"/>
			<path d="M112.8,154.2c0,5.1-0.8,9-2.5,11.4c-1.7,2.5-4.3,3.7-7.8,3.7c-3.4,0-6-1.3-7.7-3.8s-2.6-6.3-2.6-11.3
				c0-5.2,0.8-9,2.5-11.5c1.7-2.5,4.3-3.7,7.8-3.7c3.4,0,6,1.3,7.7,3.9S112.8,149.2,112.8,154.2z M98.4,154.2c0,3.6,0.3,6.2,0.9,7.8
				s1.7,2.3,3.2,2.3c1.5,0,2.5-0.8,3.1-2.4c0.6-1.6,1-4.2,1-7.7c0-3.6-0.3-6.2-1-7.8c-0.7-1.6-1.7-2.4-3.1-2.4
				c-1.5,0-2.5,0.8-3.1,2.4C98.7,148,98.4,150.6,98.4,154.2z"/>
		</g>
		<g>
			<path d="M356.9,425.5c2.8,0,5.1,0.8,6.8,2.4s2.5,3.8,2.5,6.6c0,3.3-1,5.8-3,7.6c-2,1.8-4.9,2.7-8.7,2.7c-3.3,0-5.9-0.5-7.9-1.6
				v-5.4c1.1,0.6,2.3,1,3.7,1.4c1.4,0.4,2.7,0.5,4,0.5c3.8,0,5.7-1.6,5.7-4.7c0-3-2-4.5-5.9-4.5c-0.7,0-1.5,0.1-2.4,0.2
				c-0.9,0.1-1.6,0.3-2.1,0.5l-2.5-1.3l1.1-15h16v5.3h-10.5l-0.5,5.8l0.7-0.1C354.7,425.6,355.7,425.5,356.9,425.5z"/>
		</g>
		<g>
			<path d="M152.4,98.4h-6.2V81.3l0.1-2.8l0.1-3.1c-1,1-1.8,1.7-2.2,2l-3.4,2.7l-3-3.8l9.5-7.6h5.1V98.4z"/>
			<path d="M175.9,98.4h-6.2V81.3l0.1-2.8l0.1-3.1c-1,1-1.8,1.7-2.2,2l-3.4,2.7l-3-3.8l9.5-7.6h5.1V98.4z"/>
		</g>
		<g>
			<path d="M245.6,459.3c0-5.8,1.2-10.2,3.7-13c2.5-2.8,6.2-4.3,11.1-4.3c1.7,0,3,0.1,4,0.3v5c-1.2-0.3-2.4-0.4-3.5-0.4
				c-2.1,0-3.9,0.3-5.2,1c-1.4,0.6-2.4,1.6-3,2.9s-1.1,3.1-1.2,5.4h0.3c1.3-2.3,3.5-3.4,6.4-3.4c2.6,0,4.7,0.8,6.2,2.5
				s2.2,3.9,2.2,6.9c0,3.1-0.9,5.6-2.7,7.5c-1.8,1.8-4.2,2.8-7.4,2.8c-2.2,0-4.1-0.5-5.7-1.5c-1.6-1-2.9-2.5-3.8-4.4
				C246,464.3,245.6,462,245.6,459.3z M256.2,467.2c1.3,0,2.4-0.4,3.1-1.3c0.7-0.9,1.1-2.2,1.1-3.8c0-1.4-0.3-2.6-1-3.4
				c-0.7-0.8-1.7-1.2-3-1.2c-1.3,0-2.3,0.4-3.2,1.2c-0.9,0.8-1.3,1.8-1.3,2.9c0,1.6,0.4,3,1.3,4.1
				C253.9,466.7,255,467.2,256.2,467.2z"/>
		</g>
		<g>
			<path d="M248.9,69.7h-6.2V52.6l0.1-2.8l0.1-3.1c-1,1-1.8,1.7-2.2,2l-3.4,2.7l-3-3.7l9.5-7.6h5.1V69.7z"/>
			<path d="M277.7,69.7h-20.6v-4.3l7.4-7.5c2.2-2.2,3.6-3.8,4.3-4.7c0.7-0.9,1.2-1.7,1.5-2.4c0.3-0.7,0.4-1.5,0.4-2.3
				c0-1.2-0.3-2.1-1-2.6s-1.5-0.9-2.6-0.9c-1.1,0-2.3,0.3-3.3,0.8c-1.1,0.5-2.2,1.3-3.4,2.2l-3.4-4c1.5-1.2,2.7-2.1,3.6-2.6
				c1-0.5,2-0.9,3.1-1.2c1.1-0.3,2.4-0.4,3.8-0.4c1.8,0,3.5,0.3,4.9,1c1.4,0.7,2.5,1.6,3.3,2.8c0.8,1.2,1.2,2.6,1.2,4.2
				c0,1.4-0.2,2.6-0.7,3.8s-1.2,2.4-2.2,3.7c-1,1.2-2.8,3-5.3,5.3l-3.8,3.6v0.3h12.8V69.7z"/>
		</g>
	</g>
</g>
</svg>
