<svg version="1.1" xmlns="http://www.w3.org/2000/svg" x="0" y="0" viewBox="0 0 512 512" xml:space="preserve"><circle cx="256" cy="256" r="11.3"/><path d="M250.7 0h10.5v21.1h-10.5V0zm0 490.9h10.5V512h-10.5v-21.1zM0 261.2v-10.5h21.1v10.5H0zm491 .1v-10.5h21.1v10.5H491zM31.6 132.6l5.3-9.1L55.1 134l-5.3 9.1-18.2-10.5zm425.2 245.5l5.3-9.1 18.3 10.5-5.3 9.1-18.3-10.5zM132.6 480.3l-9.1-5.3 10.6-18.3 9.1 5.3-10.6 18.3zM378 55.1l-9.1-5.3 10.6-18.3 9.1 5.3L378 55.1zM123.4 36.9l9.1-5.3L143.1 50l-9.1 5.3-10.6-18.4zm245.5 425.2l9.1-5.3 10.5 18.3-9.1 5.3-10.5-18.3zm-332-73.6l-5.3-9.1 18.3-10.5 5.3 9.1-18.3 10.5zm425.2-245.4l-5.3-9.1 18.3-10.5 5.3 9.1-18.3 10.5zM358.8 21.5l2.8 1.3-4.3 9.6-2.8-1.3 4.3-9.6zm-204 457.9l2.8 1.3-4.4 9.8-2.8-1.3 4.4-9.8zM333.7 12.1l2.9 1-3.2 10-2.9-1 3.2-10zm-155 476.7l2.9 1-3.3 10.2-2.9-1 3.3-10.2zm129-483.5l3 .6-2.2 10.3-3-.6 2.2-10.3zM203.6 495.6l3 .6-2.2 10.5-3-.6 2.2-10.5zM281.3 1.3l3.1.3-1.2 10.4-3.1-.3 1.2-10.4zm-52.4 498.5l3.1.3-1.1 10.6-3.1-.3 1.1-10.6zm233.3-395.5l1.8 2.5-8.5 6.2-1.8-2.5 8.5-6.2zM56.6 399l1.8 2.5-8.7 6.3-1.8-2.5 8.7-6.3zM445.2 83.6l2.1 2.3-7.8 7-2.1-2.3 7.8-7zM72.7 419l2.1 2.3-8 7.2-2.1-2.3 8-7.2zM426.1 64.7l2.3 2.1-7 7.8-2.3-2.1 7-7.8zM90.8 437.3l2.3 2.1-7.2 8-2.3-2.1 7.2-8zM405.3 48l2.5 1.8-6.2 8.5-2.5-1.8 6.2-8.5zM110.6 453.5l2.5 1.8-6.3 8.7-2.5-1.8 6.3-8.7zm399.9-225.8l.3 3.1-10.4 1.1-.3-3.1 10.4-1.1zM11.9 280.1l.3 3.1-10.6 1.1-.3-3.1 10.6-1.1zm494.2-78.9l.6 3-10.3 2.2-.6-3 10.3-2.2zM15.7 305.5l.6 3-10.5 2.2-.6-3 10.5-2.2zm483.2-130.1l1 2.9-10 3.2-1-2.9 10-3.2zM22.2 330.3l1 2.9-10.2 3.4-1-2.9 10.2-3.4zm467-179.8l1.3 2.8-9.6 4.3-1.3-2.8 9.6-4.3zM31.3 354.4l1.3 2.8-9.8 4.4-1.3-2.8 9.8-4.4zm459.3 4.3l-1.3 2.8-9.6-4.3 1.3-2.8 9.6 4.3zm-458-203.8l-1.3 2.8-9.8-4.4 1.3-2.8 9.8 4.4zM500 333.6l-1 2.9-10-3.2 1-2.9 10 3.2zM23.2 178.7l-1 2.9-10.2-3.2 1-2.9 10.2 3.2zm483.5 129l-.6 3-10.3-2.2.6-3 10.3 2.2zM16.4 203.5l-.6 3-10.5-2.2.6-3 10.5 2.2zm494.4 77.7l-.3 3.1-10.4-1.1.3-3.1 10.4 1.1zM12.3 228.8l-.3 3.1-10.6-1.1.3-3.1 10.6 1.1zm395.4 233.4l-2.5 1.8-6.2-8.5 2.5-1.8 6.2 8.5zM113.1 56.6l-2.5 1.8-6.3-8.7 2.5-1.8 6.3 8.7zm315.4 388.6l-2.3 2.1-7-7.8 2.3-2.1 7 7.8zM93 72.7l-2.3 2.1-7.2-8 2.3-2.1 7.2 8zm354.3 353.5l-2.1 2.3-7.8-7 2.1-2.3 7.8 7zM74.8 90.8l-2.1 2.3-8-7.2 2.1-2.3 8 7.2zM464 405.2l-1.8 2.5-8.5-6.2 1.8-2.5 8.5 6.2zM58.5 110.6l-1.8 2.5-8.7-6.3 1.8-2.5 8.7 6.3zm225.8 399.8l-3.1.3-1.1-10.4 3.1-.3 1.1 10.4zM231.9 11.9l-3.1.3-1.1-10.6 3.1-.3 1.1 10.6zm78.9 494.2l-3 .6-2.2-10.3 3-.6 2.2 10.3zM206.5 15.7l-3 .6-2.2-10.5 3-.6 2.2 10.5zm130 483.3l-2.9 1-3.2-10 2.9-1 3.2 10zM181.6 22.2l-2.9 1-3.3-10.2 2.9-1 3.3 10.2zm179.9 467.1l-2.8 1.3-4.3-9.6 2.8-1.3 4.3 9.6zm-203.8-458l-2.8 1.3-4.4-9.8 2.8-1.3 4.4 9.8zm84.9 24.9l7.6 12.6c1.3 2.1 2.2 3.4 2.7 3.8s1.2.7 1.9.8v.8h-13.5v-.8c1.1-.1 1.8-.3 2.1-.5.3-.3.5-.6.5-1 0-.3 0-.5-.1-.7-.2-.5-.7-1.3-1.4-2.5l-4-6.7-4.2 5.7c-1.3 1.7-1.9 2.9-1.9 3.5 0 .4.2.8.5 1.2.3.4.8.7 1.5.8.3.1.9.1 1.8.1v.8h-10.7v-.8c1.2-.2 2.2-.6 2.9-1.1.9-.7 2.2-2.2 3.8-4.4l5.5-7.5-7.3-11.3c-1.2-1.9-1.8-2.9-2-3.2-.4-.5-.7-.9-1.1-1.1-.4-.2-.8-.4-1.5-.5v-.8h13.8v.8h-.7c-.8 0-1.3.1-1.7.4-.3.3-.5.6-.5 1.1 0 .3 0 .6.1.9l1.4 2.4 3.4 5.8 2.9-4c1.5-2 2.2-3.5 2.2-4.3 0-.4-.1-.8-.3-1.1s-.5-.6-.9-.8-1-.3-1.8-.3v-.8H254v.8c-.8 0-1.5.1-1.9.3-.5.2-1 .6-1.6 1.1-.4.4-1.2 1.5-2.7 3.4l-5.2 7.1zm27.9 17.2v.8H256v-.8h.9c.8 0 1.5-.2 1.9-.5.4-.2.6-.6.8-1.1.1-.4.2-1.3.2-2.9V48.7c0-1.6-.1-2.6-.2-3-.2-.4-.5-.7-.9-1-.5-.3-1.1-.4-1.9-.4h-.8v-.8h14.5v.8h-.9c-.8 0-1.5.2-1.9.5-.4.2-.6.6-.8 1.1-.2.4-.2 1.3-.2 2.9v20.3c0 1.6.1 2.6.2 3 .2.4.5.7.9 1 .5.3 1.1.4 1.9.4l.8-.1zm16.3 0v.8h-14.5v-.8h.9c.8 0 1.5-.2 1.9-.5.4-.2.6-.6.8-1.1.1-.4.2-1.3.2-2.9V48.7c0-1.6-.1-2.6-.2-3-.2-.4-.5-.7-.9-1-.5-.3-1.1-.4-1.9-.4h-.9v-.8h14.5v.8h-.9c-.8 0-1.5.2-1.9.5-.4.2-.6.6-.8 1.1-.2.4-.2 1.3-.2 2.9v20.3c0 1.6.1 2.6.2 3 .2.4.5.7.9 1 .5.3 1.1.4 1.9.4l.9-.1zm66.8 28.1l-.4.7-12.6-7.2.4-.7.8.5c.7.4 1.3.6 1.9.6.4 0 .8-.2 1.3-.5.3-.2.9-1 1.6-2.4L356.7 75c.8-1.4 1.2-2.3 1.3-2.7.1-.4 0-.9-.3-1.3-.2-.5-.7-.9-1.4-1.3l-.8-.5.4-.7 12.6 7.2-.4.7-.8-.5c-.7-.4-1.3-.6-1.9-.6-.4 0-.8.2-1.3.5-.3.2-.9 1-1.6 2.4l-10.1 17.5c-.8 1.4-1.2 2.3-1.3 2.7-.1.4 0 .9.3 1.4.2.5.7.9 1.4 1.3l.8.4zm60.1 62.4l-.7.4-7.2-12.6.7-.4.5.8c.4.7.9 1.2 1.4 1.4.4.2.8.3 1.4.2.4-.1 1.3-.5 2.6-1.2l17.5-10.1c1.4-.8 2.2-1.3 2.4-1.7.3-.3.4-.8.4-1.3s-.2-1.2-.5-1.8l-.5-.8.7-.4 7.2 12.6-.7.4-.5-.8c-.4-.7-.9-1.2-1.4-1.4-.4-.2-.8-.3-1.4-.2-.4.1-1.3.5-2.6 1.2l-17.5 10.1c-1.4.8-2.2 1.3-2.4 1.7-.3.3-.4.8-.4 1.3s.2 1.2.5 1.8l.5.8zm8.2 14.1l-.7.4-7.2-12.6.7-.4.5.8c.4.7.9 1.2 1.4 1.4.4.2.8.3 1.4.2.4-.1 1.3-.5 2.6-1.2l17.5-10.1c1.4-.8 2.2-1.3 2.4-1.7.3-.3.4-.8.4-1.3s-.2-1.2-.5-1.8l-.5-.8.7-.4 7.2 12.6-.7.4-.5-.8c-.4-.7-.9-1.2-1.4-1.4-.4-.2-.8-.3-1.4-.2-.4.1-1.3.5-2.6 1.2l-17.5 10.1c-1.4.8-2.2 1.3-2.4 1.7-.3.3-.4.8-.4 1.3s.2 1.2.5 1.8l.5.8zm16.7 69h-.8v-14.5h.8v.9c0 .8.2 1.5.5 1.9.2.4.6.6 1.1.8.4.1 1.3.2 2.9.2h20.3c1.6 0 2.6-.1 3-.2.4-.2.7-.5 1-.9.3-.5.4-1.1.4-1.9v-.9h.8V247h-.8v-1c0-.8-.2-1.5-.5-1.9-.2-.4-.6-.6-1.1-.8-.4-.2-1.3-.2-2.9-.2H443c-1.6 0-2.6.1-3 .2-.4.2-.7.5-1 .9-.3.5-.4 1.1-.4 1.9v.9zm0 16.2h-.8v-14.5h.8v.9c0 .8.2 1.5.5 1.9.2.4.6.6 1.1.8.4.1 1.3.2 2.9.2h20.3c1.6 0 2.6-.1 3-.2.4-.2.7-.5 1-.9.3-.5.4-1.1.4-1.8v-.9h.8v14.5h-.8v-.9c0-.8-.2-1.5-.5-1.9-.2-.4-.6-.6-1.1-.8-.4-.2-1.3-.2-2.9-.2H443c-1.6 0-2.6.1-3 .2-.4.2-.7.5-1 .9-.3.5-.4 1.1-.4 1.9v.8zm0 16.3h-.8V265h.8v.9c0 .8.2 1.5.5 1.9.2.4.6.6 1.1.8.4.1 1.3.2 2.9.2h20.3c1.6 0 2.6-.1 3-.2.4-.2.7-.5 1-.9.3-.5.4-1.1.4-1.9v-.8h.8v14.5h-.8v-.9c0-.8-.2-1.5-.5-1.9-.2-.4-.6-.6-1.1-.8-.4-.2-1.3-.2-2.9-.2H443c-1.6 0-2.6.1-3 .2-.4.2-.7.5-1 .9-.3.5-.4 1.1-.4 1.9v.8zm-20.4 60.8l-.7-.4 7.2-12.6.7.4-.5.8c-.4.7-.6 1.3-.6 1.9 0 .4.2.8.5 1.3.2.3 1 .9 2.4 1.6l17.5 10.1c1.4.8 2.3 1.2 2.7 1.3.4.1.9 0 1.3-.3.5-.2.9-.7 1.3-1.4l.5-.8.7.4-7.2 12.6-.7-.4.5-.8c.4-.7.6-1.3.6-1.9 0-.4-.2-.8-.5-1.3-.2-.3-1-.9-2.4-1.6L424 339.1c-1.4-.8-2.3-1.2-2.7-1.3-.4-.1-.9 0-1.4.3-.5.2-.9.7-1.3 1.4l-.4.8zm10.6 41.6l-.7-.4c.3-1 .3-2-.2-3.2-.4-.9-1.5-2.5-3.3-4.9l-15.6-20 .3-.6 26 4c3.1.5 5 .7 5.7.6.6-.1 1.3-.6 1.9-1.4l.7.4-6.6 11.5-.7-.4.2-.4c.6-1 .9-1.8.8-2.4 0-.4-.3-.7-.6-.9-.2-.1-.5-.3-.9-.3-.4-.1-1.4-.3-3.1-.5l-16.2-2.5 9.1 11.6c1.1 1.4 1.9 2.3 2.3 2.7.4.4.8.7 1.1.9.4.2.8.3 1.2.3.4 0 .8-.2 1.2-.4.5-.4 1-1 1.5-1.8l.7.4-4.8 7.7zm-79.3 65.6l-.4-.7c.8-.7 1.3-1.6 1.4-2.9.1-.9 0-2.9-.5-5.9l-3.5-25.2.6-.3 20.5 16.5c2.5 2 4 3.1 4.6 3.4s1.4.2 2.4-.3l.4.7-11.5 6.6-.4-.7.4-.2c1-.6 1.7-1.2 1.9-1.7.2-.4.1-.7-.1-1.1-.1-.2-.3-.5-.6-.8-.3-.3-1.1-.9-2.4-2l-12.8-10.3 2.1 14.6c.3 1.8.5 2.9.6 3.5s.3 1 .5 1.4.5.7.9.9.8.3 1.2.2c.6-.1 1.4-.3 2.2-.8l.4.7-7.9 4.4zm-100.4 21.1v-.8c1-.2 1.9-.8 2.7-1.8.6-.8 1.4-2.5 2.6-5.3l9.5-23.5h.7l9.5 24.5c1.1 3 1.9 4.7 2.3 5.2s1.1.8 2.2 1v.8h-13.3v-.8h.4c1.2 0 2-.2 2.5-.5.3-.2.5-.6.5-1 0-.3-.1-.6-.2-1s-.5-1.4-1.1-3l-5.9-15.3-5.5 13.7c-.7 1.7-1.1 2.8-1.2 3.3-.2.6-.2 1-.2 1.4 0 .5.1.9.3 1.2.2.3.5.6 1 .8.6.3 1.4.4 2.3.4v.8h-9.1v-.1zm-15.7-30v-.8h14.5v.8h-.9c-.8 0-1.5.2-1.9.5-.4.2-.6.6-.8 1.1-.1.4-.2 1.3-.2 2.9v20.3c0 1.6.1 2.6.2 3 .2.4.5.7.9 1 .5.3 1.1.4 1.9.4h.9v.8h-14.5v-.8h.9c.8 0 1.5-.2 1.9-.5.4-.2.6-.6.8-1.1.2-.4.2-1.3.2-2.9V443c0-1.6-.1-2.6-.2-3-.2-.4-.5-.7-.9-1-.5-.3-1.1-.4-1.9-.4h-.9zm-82.6 2.1l.4-.7c1 .3 2 .3 3.2-.2.9-.4 2.5-1.5 4.9-3.3l20-15.6.6.3-4 26c-.5 3.1-.7 5-.6 5.7.1.6.6 1.3 1.4 1.9l-.4.7-11.5-6.6.4-.7.4.2c1 .6 1.8.9 2.4.8.4 0 .7-.3.9-.6.1-.2.3-.5.3-.9.1-.4.3-1.4.5-3.1l2.5-16.2-11.6 9.1c-1.4 1.1-2.3 1.9-2.7 2.3s-.7.8-.9 1.1c-.2.4-.3.8-.3 1.2 0 .4.2.8.4 1.2.4.5 1 1 1.8 1.5l-.4.7-7.7-4.8zm1.4-33.8l.4-.7 12.6 7.2-.4.7-.8-.5c-.7-.4-1.3-.6-1.9-.6-.4 0-.8.2-1.3.5-.3.2-.9 1-1.6 2.4L149 433.6c-.8 1.4-1.2 2.3-1.3 2.7-.1.4 0 .9.3 1.4.2.5.7.9 1.4 1.3l.8.5-.4.7-12.6-7.2.4-.7.8.5c.7.4 1.3.6 1.9.6.4 0 .8-.2 1.3-.5.3-.2.9-1 1.6-2.4l10.1-17.5c.8-1.4 1.2-2.3 1.3-2.7.1-.4 0-.9-.3-1.4-.2-.5-.7-.9-1.4-1.3l-.7-.7zm-14.2-8.1l.4-.7 12.6 7.2-.4.7-.8-.5c-.7-.4-1.3-.6-1.9-.6-.4 0-.8.2-1.3.5-.3.2-.9 1-1.6 2.4l-10.1 17.5c-.8 1.4-1.2 2.3-1.3 2.7-.1.4 0 .9.3 1.4.2.5.7.9 1.4 1.3l.8.5-.4.7-12.6-7.2.4-.7.8.5c.7.4 1.3.6 1.9.6.4 0 .8-.2 1.3-.5.3-.2.9-1 1.6-2.4l10.1-17.5c.8-1.4 1.2-2.3 1.3-2.7.1-.4 0-.9-.3-1.4-.2-.5-.7-.9-1.4-1.3l-.8-.5zm-61.4-28.3l.7-.4c.7.8 1.6 1.3 2.9 1.4.9.1 2.9 0 5.9-.5l25.2-3.5.3.6-16.5 20.5c-2 2.5-3.1 4-3.4 4.6s-.2 1.4.3 2.4l-.7.4-6.6-11.5.7-.4.2.4c.6 1 1.2 1.7 1.7 1.9.4.2.7.1 1.1-.1.2-.1.5-.3.8-.6.3-.3.9-1.1 2-2.4l10.3-12.8-14.5 2c-1.8.3-2.9.5-3.5.6s-1 .3-1.4.5-.7.5-.9.9c-.2.4-.3.8-.2 1.2.1.6.3 1.4.8 2.2l-.7.4-4.5-7.8zm18.1-28.7l.7-.4 7.2 12.6-.7.4-.5-.8c-.4-.7-.9-1.2-1.4-1.4-.4-.2-.8-.3-1.4-.2-.4.1-1.3.5-2.6 1.2l-17.5 10.1c-1.4.8-2.2 1.3-2.4 1.7-.3.3-.4.8-.4 1.3s.2 1.2.5 1.8l.5.8-.7.4-7.2-12.6.7-.4.5.8c.4.7.9 1.2 1.4 1.4.4.2.8.3 1.4.2.4-.1 1.3-.5 2.6-1.2l17.5-10.1c1.4-.8 2.2-1.3 2.4-1.7.3-.3.4-.8.4-1.3s-.2-1.2-.5-1.8l-.5-.8zm-8.2-14.1l.7-.4 7.2 12.6-.7.4-.5-.8c-.4-.7-.9-1.2-1.4-1.4-.4-.2-.8-.3-1.4-.2-.4.1-1.3.5-2.6 1.2l-17.5 10.1c-1.4.8-2.2 1.3-2.4 1.7-.3.3-.4.8-.4 1.3s.2 1.2.5 1.8l.5.8-.7.4-7.2-12.6.7-.4.5.8c.4.7.9 1.2 1.4 1.4.4.2.8.3 1.4.2.4-.1 1.3-.5 2.6-1.2l17.5-10.1c1.4-.8 2.2-1.3 2.4-1.7.3-.3.4-.8.4-1.3s-.2-1.2-.5-1.8l-.5-.8zm-8.1-14.1l.7-.4 7.2 12.6-.7.4-.5-.8c-.4-.7-.9-1.2-1.4-1.4-.4-.2-.8-.3-1.4-.2-.4.1-1.3.5-2.6 1.2l-17.5 10.1c-1.4.8-2.2 1.3-2.4 1.7-.3.3-.4.8-.4 1.3s.2 1.2.5 1.8l.5.8-.7.4-7.2-12.6.7-.4.5.8c.4.7.9 1.2 1.4 1.4.4.2.8.3 1.4.2.4-.1 1.3-.5 2.6-1.2l17.5-10.1c1.4-.8 2.2-1.3 2.4-1.7.3-.3.4-.8.4-1.3s-.2-1.2-.5-1.8l-.5-.8zm-5-49.4h.8v14.5h-.8v-.9c0-.8-.2-1.5-.5-1.9-.2-.4-.6-.6-1.1-.8-.4-.1-1.3-.2-2.9-.2H48.7c-1.6 0-2.6.1-3 .2-.4.2-.7.5-1 .9-.3.5-.4 1.1-.4 1.9v.9h-.8v-14.5h.8v.9c0 .8.2 1.5.5 1.9.2.4.6.6 1.1.8.4.2 1.3.2 2.9.2h20.3c1.6 0 2.6-.1 3-.2.4-.2.7-.5 1-.9.3-.5.4-1.1.4-1.9l-.1-.9zm-17.2-18.6l12.6-7.6c2.1-1.3 3.4-2.2 3.8-2.7s.7-1.2.8-1.9h.8v13.5h-.8c-.1-1.1-.3-1.8-.5-2.1-.3-.3-.6-.5-1-.5-.3 0-.5 0-.7.1-.5.2-1.3.7-2.5 1.4l-6.7 4 5.7 4.2c1.7 1.3 2.9 1.9 3.5 1.9.4 0 .8-.2 1.2-.5.4-.3.7-.8.8-1.5.1-.3.1-.9.1-1.8h.8V263h-.8c-.2-1.2-.6-2.2-1.1-2.9-.7-.9-2.2-2.2-4.4-3.8l-7.5-5.5-11.3 7c-1.9 1.2-2.9 1.8-3.2 2-.5.4-.9.7-1.1 1.1-.2.4-.4.8-.5 1.5h-.8v-13.8h.8v.7c0 .8.1 1.3.4 1.7.3.3.6.5 1.1.5.3 0 .6 0 .9-.1L49 250l5.8-3.4-4-2.9c-2-1.5-3.5-2.2-4.3-2.2-.4 0-.8.1-1.1.3s-.6.5-.8.9-.3 1-.3 1.8h-.8v-10.2h.8c0 .8.1 1.5.3 1.9.2.5.6 1 1.1 1.6.4.4 1.5 1.2 3.4 2.7l7.1 5.1zm28-91.7l14.7-.3c2.4-.1 4-.2 4.6-.4.7-.2 1.2-.7 1.7-1.3l.7.4-6.7 11.7-.7-.4c.5-1 .6-1.7.6-2.1-.1-.4-.3-.7-.6-.9-.2-.1-.5-.2-.7-.2-.5-.1-1.5-.1-2.9 0l-7.8.2 2.9 6.5c.9 2 1.6 3.1 2.1 3.4.4.2.8.3 1.3.2s1-.4 1.4-.8c.2-.2.6-.7 1-1.5l.7.4-5.3 9.2-.7-.4c.4-1.1.6-2.2.5-3-.1-1.1-.8-3-1.9-5.5l-3.7-8.5-13.5.3c-2.2.1-3.5.1-3.7.1-.6.1-1.1.2-1.5.4s-.7.5-1.1 1l-.7-.4 6.9-11.9.7.4-.3.6c-.4.7-.6 1.2-.5 1.6.1.4.3.7.7.9.3.2.6.3.8.3H76l6.8-.1-2-4.5c-1-2.3-1.9-3.7-2.6-4.1-.4-.2-.7-.3-1.1-.3s-.8.1-1.2.4c-.4.2-.8.7-1.2 1.4l-.7-.4 5.1-8.8.7.4c-.4.7-.6 1.3-.7 1.8s0 1.2.2 1.9c.1.5.7 1.8 1.6 4l3.3 8.3zm67.3-68.3l12.9 7.1c2.1 1.2 3.6 1.8 4.2 1.9.7.1 1.4 0 2.1-.3l.4.7-11.7 6.8-.4-.7c.9-.6 1.4-1.1 1.5-1.5s.1-.8-.1-1.1c-.1-.2-.3-.4-.5-.6-.4-.3-1.2-.8-2.5-1.5l-6.8-3.7-.8 7.1c-.2 2.1-.2 3.5.1 4 .2.4.6.7 1 .8.5.2 1 .2 1.7 0 .3-.1.8-.3 1.6-.8l.4.7-9.2 5.3-.4-.7c1-.8 1.6-1.6 1.9-2.4.4-1.1.8-3 1.1-5.7l1-9.2-11.9-6.4c-2-1.1-3-1.6-3.3-1.7-.6-.2-1.1-.4-1.5-.4s-.9.1-1.5.3l-.4-.7 11.9-6.9.4.7-.6.3c-.7.4-1.1.8-1.2 1.2-.1.4-.1.8.1 1.2.2.3.4.5.6.7l2.4 1.3 5.9 3.3.5-4.9c.3-2.5.2-4.1-.2-4.8-.2-.4-.5-.6-.8-.8-.4-.2-.8-.3-1.2-.3s-1 .2-1.7.7l-.4-.7 8.8-5.1.4.7c-.7.4-1.2.8-1.5 1.3-.3.4-.6 1-.8 1.8-.1.5-.3 1.9-.6 4.3l-.9 8.7zm32.8.9l.4.7-12.6 7.2-.4-.7.8-.5c.7-.4 1.2-.9 1.4-1.4.2-.4.3-.8.2-1.4-.1-.4-.5-1.3-1.2-2.6l-10.1-17.5c-.8-1.4-1.3-2.2-1.7-2.4-.3-.3-.8-.4-1.3-.4s-1.2.2-1.8.5l-.8.5-.4-.7 12.6-7.2.4.7-.8.5c-.7.4-1.2.9-1.4 1.4-.2.4-.3.8-.2 1.4.1.4.5 1.3 1.2 2.6l10.1 17.5c.8 1.4 1.3 2.2 1.7 2.4.3.3.8.4 1.3.4s1.2-.2 1.8-.5l.8-.5z"/></svg>