<svg version="1.1" xmlns="http://www.w3.org/2000/svg" x="0" y="0" viewBox="0 0 512 512" xml:space="preserve"><circle cx="256" cy="256" r="11"/><path d="M256 8.1c33.5 0 65.9 6.6 96.5 19.5 29.5 12.5 56 30.4 78.8 53.1 22.8 22.8 40.6 49.3 53.1 78.8 12.9 30.6 19.5 63 19.5 96.5s-6.6 65.9-19.5 96.5c-12.5 29.5-30.4 56-53.1 78.8-22.8 22.8-49.3 40.6-78.8 53.1-30.6 12.9-63 19.5-96.5 19.5s-65.9-6.6-96.5-19.5c-29.5-12.5-56-30.4-78.8-53.1C58 408.5 40.1 382 27.6 352.5c-12.9-30.6-19.5-63-19.5-96.5s6.6-65.9 19.5-96.5c12.5-29.5 30.4-56 53.1-78.8C103.5 58 130 40.1 159.5 27.6c30.6-12.9 63-19.5 96.5-19.5m0-8.1C114.6 0 0 114.6 0 256s114.6 256 256 256 256-114.6 256-256S397.4 0 256 0z"/><path d="M250.9 8.1h10.2v20.4h-10.2V8.1zm0 475.4h10.2v20.4h-10.2v-20.4zM8.1 261.1v-10.2h20.4v10.2H8.1zm475.4 0v-10.2h20.4v10.2h-20.4zM38.8 136.5l5.1-8.8 17.7 10.2-5.1 8.8-17.7-10.2zm411.6 237.7l5.1-8.8 17.7 10.2-5.1 8.8-17.7-10.2zm-313.9 99l-8.8-5.1 10.2-17.7 8.8 5.1-10.2 17.7zM374.2 61.6l-8.8-5.1 10.2-17.7 8.8 5.1-10.2 17.7zM127.7 43.9l8.8-5.1 10.2 17.7-8.8 5.1-10.2-17.7zm237.6 411.6l8.8-5.1 10.2 17.7-8.8 5.1-10.2-17.7zM43.8 384.3l-5.1-8.8 17.7-10.2 5.1 8.8-17.7 10.2zm411.8-237.6l-5.1-8.8 17.7-10.2 5.1 8.8-17.7 10.2zM355.5 28.9l2.7 1.2-4.1 9.3-2.7-1.2 4.1-9.3zM158.1 472.3l2.7 1.2-4.2 9.5-2.7-1.2 4.2-9.5zM331.2 19.8l2.9.9-3.2 9.7-2.9-.9 3.2-9.7zm-150 461.6l2.9.9-3.2 9.9-2.9-.9 3.2-9.9zM306.1 13.3l2.9.6-2.1 10-2.9-.6 2.1-10zM205.2 488l2.9.6-2.2 10.2-2.9-.6 2.2-10.2zM280.4 9.4l3 .3-1.1 10.1-3-.3 1.1-10.1zM229.8 492l3 .3-1.1 10.3-3-.3 1.1-10.3zm225.9-382.9l1.8 2.4-8.3 6-1.8-2.4 8.3-6zM63.1 394.4l1.8 2.4-8.4 6.1-1.8-2.4 8.4-6.1zM439.2 89l2 2.2-7.6 6.8-2-2.2 7.6-6.8zM78.6 413.8l2 2.2-7.7 7-2-2.2 7.7-7zm342.2-343l2.2 2-6.8 7.6-2.2-2 6.8-7.6zM96 431.4l2.2 2-7 7.7-2.2-2 7-7.7zM400.5 54.6l2.4 1.8-6 8.3-2.4-1.8 6-8.3zM115.2 447.2l2.4 1.8-6.1 8.4-2.4-1.8 6.1-8.4zm387.2-218.6l.3 3-10.1 1.1-.3-3 10.1-1.1zM19.7 279.4l.3 3-10.3 1.1-.3-3 10.3-1.1zM498.2 203l.6 2.9-10 2.1-.6-2.9 10-2.1zM23.4 304l.6 2.9-10.2 2.2-.6-2.9 10.2-2.2zm467.8-126l.9 2.9-9.7 3.2-.9-2.9 9.7-3.2zM29.7 327.9l.9 2.9-9.9 3.2-.9-2.9 9.9-3.2zm452.1-174.1l1.2 2.7-9.3 4.1-1.2-2.7 9.3-4.1zM38.5 351.2l1.2 2.7-9.5 4.2-1.2-2.7 9.5-4.2zm444.6 4.3l-1.2 2.7-9.3-4.1 1.2-2.7 9.3 4.1zM39.7 158l-1.2 2.7-9.5-4.2 1.2-2.7 9.5 4.2zm452.5 173.2l-.9 2.9-9.7-3.2.9-2.9 9.7 3.2zm-461.6-150l-.9 2.9-9.9-3.2.9-2.9 9.9 3.2zm468.2 124.9l-.6 2.9-10-2.1.6-2.9 10 2.1zM24 205.2l-.6 2.9-10.2-2.1.6-2.9 10.2 2.1zm478.7 75.2l-.3 3-10.1-1.1.3-3 10.1 1.1zM20 229.7l-.3 3-10.3-1.1.3-3 10.3 1.1zm382.9 226l-2.4 1.8-6-8.3 2.4-1.8 6 8.3zM117.6 63l-2.4 1.8-6.1-8.4 2.4-1.8 6.1 8.4zM423 439.3l-2.2 2-6.8-7.6 2.2-2 6.8 7.6zM98.2 78.5l-2.2 2-7-7.7 2.2-2 7 7.7zm343.1 342.3l-2 2.2-7.6-6.8 2-2.2 7.6 6.8zM80.5 96l-2 2.2-7.7-7 2-2.2 7.7 7zm376.9 304.5l-1.8 2.4-8.3-6 1.8-2.4 8.3 6zM64.7 115.2l-1.8 2.4-8.4-6.1 1.8-2.4 8.4 6.1zm218.7 387.2l-3 .3-1.1-10.1 3-.3 1.1 10.1zM232.6 19.6l-3 .3-1.1-10.3 3-.3 1.1 10.3zM309 498.1l-2.9.6-2.1-10 2.9-.6 2.1 10zM208.1 23.4l-2.9.6-2.2-10.2 2.9-.6 2.2 10.2zM334 491.2l-2.9.9-3.2-9.7 2.9-.9 3.2 9.7zM184 29.7l-2.9.9-3.2-9.9 2.9-.9 3.2 9.9zm174.2 452.1l-2.7 1.2-4.1-9.3 2.7-1.2 4.1 9.3zM160.8 38.5l-2.7 1.2-4.2-9.5 2.7-1.2 4.2 9.5zm299.5 209.8c0 1.7-.5 3.2-1.6 4.5s-2.5 2.1-4.5 2.5v.1c2.3.3 4 1 5.1 2.1 1.2 1.1 1.7 2.6 1.7 4.4 0 2.7-1 4.8-2.9 6.3s-4.7 2.2-8.4 2.2c-3 0-5.7-.5-8.1-1.5v-5c1.1.5 2.3 1 3.6 1.3 1.3.3 2.6.5 3.9.5 2 0 3.4-.3 4.3-1s1.4-1.7 1.4-3.2c0-1.3-.5-2.2-1.6-2.8s-2.8-.8-5.1-.8H446v-4.5h2.2c2.2 0 3.8-.3 4.8-.9 1-.6 1.5-1.5 1.5-2.9 0-2.1-1.3-3.2-4-3.2-.9 0-1.9.2-2.8.5-1 .3-2 .8-3.2 1.6l-2.7-4.1c2.6-1.8 5.6-2.8 9.1-2.8 2.9 0 5.2.6 6.9 1.8 1.7 1.2 2.5 2.8 2.5 4.9zM358.2 106.5h-5.9V90.3l.1-2.7.1-2.9c-1 1-1.7 1.6-2 1.9l-3.2 2.6-2.9-3.6 9-7.2h4.9v28.1h-.1zM155.9 435.1l10.5-23h-13.8v-5h20.1v3.7L162.1 435h-6.2v.1zm277.4-261.3h-19.5v-4.1l7-7.1c2.1-2.1 3.4-3.6 4.1-4.4s1.1-1.6 1.4-2.3.4-1.4.4-2.2c0-1.1-.3-2-.9-2.5s-1.4-.8-2.5-.8-2.1.2-3.2.7c-1 .5-2.1 1.2-3.2 2.1l-3.2-3.8c1.4-1.2 2.5-2 3.4-2.5s1.9-.9 3-1.1 2.3-.4 3.6-.4c1.7 0 3.3.3 4.6 1 1.3.6 2.4 1.5 3.1 2.7.7 1.1 1.1 2.5 1.1 3.9 0 1.3-.2 2.5-.7 3.6s-1.2 2.3-2.1 3.5c-1 1.2-2.6 2.9-5 5.1l-3.6 3.4v.3h12.2v4.9zM89.8 334.9c2.7 0 4.8.6 6.5 1.8 1.6 1.2 2.5 2.9 2.5 4.9 0 1.4-.4 2.7-1.2 3.8-.8 1.1-2.1 2.1-3.8 3 2.1 1.1 3.6 2.3 4.5 3.5s1.4 2.6 1.4 4c0 2.3-.9 4.1-2.7 5.5-1.8 1.4-4.2 2.1-7.1 2.1-3.1 0-5.5-.7-7.2-2s-2.6-3.1-2.6-5.5c0-1.6.4-3 1.3-4.2s2.2-2.3 4.1-3.3c-1.6-1-2.7-2.1-3.4-3.2-.7-1.1-1.1-2.4-1.1-3.8 0-2 .8-3.6 2.5-4.9 1.5-1.1 3.7-1.7 6.3-1.7zm-4.3 20.9c0 1.1.4 2 1.1 2.6.8.6 1.8.9 3.1.9 1.5 0 2.6-.3 3.3-.9.7-.6 1.1-1.5 1.1-2.5 0-.9-.4-1.7-1.1-2.4s-1.9-1.5-3.5-2.4c-2.7 1.2-4 2.8-4 4.7zm4.3-16.6c-1 0-1.8.3-2.4.8s-.9 1.2-.9 2.1c0 .8.2 1.5.7 2.1s1.4 1.2 2.7 1.9c1.2-.6 2.1-1.2 2.6-1.8.5-.6.7-1.3.7-2.1 0-.9-.3-1.6-1-2.1-.6-.6-1.4-.9-2.4-.9zm-19.2-85.3c0 5.5-1.2 9.6-3.5 12.3s-5.8 4.1-10.5 4.1c-1.7 0-2.9-.1-3.8-.3v-4.7c1.1.3 2.2.4 3.4.4 2 0 3.6-.3 4.9-.9s2.3-1.5 2.9-2.7c.7-1.2 1.1-3 1.2-5.1H65c-.7 1.2-1.6 2-2.6 2.5s-2.2.7-3.6.7c-2.4 0-4.4-.8-5.8-2.3-1.4-1.6-2.1-3.7-2.1-6.5 0-3 .9-5.4 2.6-7.1 1.7-1.7 4-2.6 7-2.6 2.1 0 3.9.5 5.4 1.5s2.7 2.4 3.6 4.2c.7 1.8 1.1 4 1.1 6.5zm-10.1-7.5c-1.2 0-2.2.4-2.9 1.3-.7.8-1 2.1-1 3.6 0 1.4.3 2.4.9 3.2.6.8 1.6 1.2 2.9 1.2 1.2 0 2.2-.4 3.1-1.2.9-.8 1.3-1.7 1.3-2.7 0-1.5-.4-2.8-1.2-3.8-.9-1.1-1.9-1.6-3.1-1.6zM434 357.8h-3.4v5.8h-5.8v-5.8h-11.9v-4.1l12.3-18.1h5.5v17.6h3.4v4.6h-.1zm-9.1-4.6v-4.7c0-.8 0-1.9.1-3.4s.1-2.4.2-2.6h-.2c-.5 1-1 2.1-1.7 3.1l-5.1 7.7h6.7v-.1zM93 173.4h-5.9v-16.2l.1-2.7.1-2.9c-1 1-1.7 1.6-2 1.9l-3.2 2.6-2.9-3.6 9-7.2H93v28.1zm27.1-14c0 4.9-.8 8.5-2.4 10.8s-4.1 3.5-7.4 3.5c-3.2 0-5.7-1.2-7.3-3.6-1.6-2.4-2.5-6-2.5-10.7 0-4.9.8-8.6 2.4-10.9 1.6-2.3 4-3.5 7.4-3.5 3.2 0 5.7 1.2 7.3 3.7s2.5 6 2.5 10.7zm-13.7 0c0 3.4.3 5.9.9 7.4s1.6 2.2 3 2.2 2.4-.8 3-2.3.9-4 .9-7.3c0-3.4-.3-5.9-.9-7.4s-1.6-2.2-3-2.2-2.4.7-3 2.2-.9 4-.9 7.4zm245.3 257.4c2.7 0 4.9.8 6.5 2.3s2.4 3.6 2.4 6.2c0 3.1-1 5.5-2.9 7.2s-4.7 2.5-8.3 2.5c-3.1 0-5.6-.5-7.5-1.5v-5.1c1 .5 2.2 1 3.5 1.3s2.6.5 3.8.5c3.6 0 5.4-1.5 5.4-4.4 0-2.8-1.9-4.2-5.6-4.2-.7 0-1.4.1-2.2.2-.8.1-1.5.3-2 .4l-2.4-1.3 1.1-14.3h15.2v5h-10l-.5 5.5.7-.1c.7-.1 1.7-.2 2.8-.2zm-194-310.3h-5.9V90.3l.1-2.7.1-2.9c-1 1-1.7 1.6-2 1.9l-3.2 2.6-2.9-3.6 9-7.2h4.9v28.1h-.1zm22.3 0h-5.9V90.3l.1-2.7.1-2.9c-1 1-1.7 1.6-2 1.9l-3.2 2.6-2.9-3.6 9-7.2h4.9v28.1h-.1zm66.1 342.4c0-5.5 1.2-9.7 3.5-12.4 2.3-2.7 5.8-4.1 10.5-4.1 1.6 0 2.8.1 3.7.3v4.7c-1.1-.3-2.3-.4-3.4-.4-2 0-3.7.3-5 .9-1.3.6-2.2 1.5-2.9 2.7s-1 2.9-1.1 5.1h.2c1.3-2.2 3.3-3.3 6.1-3.3 2.5 0 4.5.8 5.9 2.4s2.1 3.7 2.1 6.5c0 3-.8 5.3-2.5 7.1-1.7 1.7-4 2.6-7 2.6-2.1 0-3.9-.5-5.4-1.4s-2.7-2.4-3.6-4.2c-.7-1.7-1.1-3.9-1.1-6.5zm10.1 7.5c1.3 0 2.2-.4 2.9-1.3s1-2.1 1-3.6c0-1.4-.3-2.4-.9-3.2-.6-.8-1.6-1.2-2.9-1.2-1.2 0-2.2.4-3.1 1.2-.8.8-1.3 1.7-1.3 2.7 0 1.5.4 2.8 1.2 3.8.9 1.1 1.9 1.6 3.1 1.6zm-6.9-377.2h-5.9V63.1l.1-2.7.1-2.9c-1 1-1.7 1.6-2 1.9l-3.2 2.6-2.9-3.6 9-7.2h4.9v28h-.1zm27.3 0H257v-4.1l7-7.1c2.1-2.1 3.4-3.6 4.1-4.4.6-.8 1.1-1.6 1.4-2.3s.4-1.4.4-2.2c0-1.1-.3-2-.9-2.5s-1.4-.8-2.5-.8-2.1.2-3.2.7c-1 .5-2.1 1.2-3.2 2.1l-3.2-3.8c1.4-1.2 2.5-2 3.4-2.5s1.9-.9 3-1.1c1.1-.3 2.3-.4 3.6-.4 1.7 0 3.3.3 4.6 1 1.3.6 2.4 1.5 3.1 2.7.7 1.1 1.1 2.5 1.1 3.9 0 1.3-.2 2.5-.7 3.6s-1.2 2.3-2.1 3.5c-1 1.2-2.6 2.9-5 5.1l-3.6 3.4v.3h12.2v4.9h.1z"/></svg>