<svg version="1.1" xmlns="http://www.w3.org/2000/svg" x="0" y="0" viewBox="0 0 512 512" xml:space="preserve"><circle cx="256" cy="256" r="11.3"/><circle cx="256" cy="7.9" r="7.9"/><circle cx="256" cy="504.1" r="7.9"/><circle cx="131.9" cy="41.1" r="7.9"/><circle cx="380.1" cy="470.9" r="7.9"/><circle cx="470.9" cy="131.9" r="7.9"/><circle cx="41.1" cy="380.1" r="7.9"/><circle cx="380.1" cy="41.1" r="7.9"/><circle cx="131.9" cy="470.9" r="7.9"/><circle cx="41.1" cy="131.9" r="7.9"/><circle cx="470.9" cy="380.1" r="7.9"/><circle cx="7.9" cy="256" r="7.9"/><circle cx="504.1" cy="256" r="7.9"/><circle cx="230.1" cy="9.2" r="3"/><circle cx="281.9" cy="502.8" r="3"/><circle cx="204.4" cy="13.3" r="3"/><circle cx="307.6" cy="498.7" r="3"/><circle cx="179.3" cy="20" r="3"/><circle cx="332.7" cy="492" r="3"/><circle cx="155.1" cy="29.3" r="3"/><circle cx="356.9" cy="482.7" r="3"/><circle cx="110.2" cy="55.3" r="3"/><circle cx="401.8" cy="456.7" r="3"/><circle cx="90" cy="71.6" r="3"/><circle cx="422" cy="440.4" r="3"/><circle cx="71.6" cy="90" r="3"/><circle cx="440.4" cy="422" r="3"/><circle cx="55.3" cy="110.2" r="3"/><circle cx="456.7" cy="401.8" r="3"/><circle cx="29.3" cy="155.1" r="3"/><circle cx="482.7" cy="356.9" r="3"/><circle cx="20" cy="179.3" r="3"/><circle cx="492" cy="332.7" r="3"/><circle cx="13.3" cy="204.4" r="3"/><circle cx="498.7" cy="307.6" r="3"/><circle cx="9.2" cy="230.1" r="3"/><circle cx="502.8" cy="281.9" r="3"/><circle cx="9.2" cy="281.9" r="3"/><circle cx="502.8" cy="230.1" r="3"/><circle cx="13.3" cy="307.6" r="3"/><circle cx="498.7" cy="204.4" r="3"/><circle cx="20" cy="332.7" r="3"/><circle cx="492" cy="179.3" r="3"/><circle cx="29.3" cy="356.9" r="3"/><circle cx="482.7" cy="155.1" r="3"/><circle cx="55.3" cy="401.8" r="3"/><circle cx="456.7" cy="110.2" r="3"/><circle cx="71.6" cy="422" r="3"/><circle cx="440.4" cy="90" r="3"/><circle cx="90" cy="440.4" r="3"/><circle cx="422" cy="71.6" r="3"/><circle cx="110.2" cy="456.7" r="3"/><circle cx="401.8" cy="55.3" r="3"/><circle cx="155.1" cy="482.7" r="3"/><circle cx="356.9" cy="29.3" r="3"/><circle cx="179.3" cy="492" r="3"/><circle cx="332.7" cy="20" r="3"/><circle cx="204.4" cy="498.7" r="3"/><circle cx="307.6" cy="13.3" r="3"/><circle cx="230.1" cy="502.8" r="3"/><circle cx="281.9" cy="9.2" r="3"/></svg>