<svg version="1.1" xmlns="http://www.w3.org/2000/svg" x="0" y="0" viewBox="0 0 512 512" xml:space="preserve"><circle cx="256" cy="256" r="10.6"/><path d="M256 8.1c33.5 0 65.9 6.6 96.5 19.5 29.5 12.5 56 30.4 78.8 53.1 22.8 22.8 40.6 49.3 53.1 78.8 12.9 30.6 19.5 63 19.5 96.5s-6.6 65.9-19.5 96.5c-12.5 29.5-30.4 56-53.1 78.8-22.8 22.8-49.3 40.6-78.8 53.1-30.6 12.9-63 19.5-96.5 19.5s-65.9-6.6-96.5-19.5c-29.5-12.5-56-30.4-78.8-53.1C58 408.5 40.1 382 27.6 352.5c-12.9-30.6-19.5-63-19.5-96.5s6.6-65.9 19.5-96.5c12.5-29.5 30.4-56 53.1-78.8C103.5 58 130 40.1 159.5 27.6c30.6-12.9 63-19.5 96.5-19.5m0-8.1C114.6 0 0 114.6 0 256s114.6 256 256 256 256-114.6 256-256S397.4 0 256 0z"/><ellipse transform="rotate(-68.199 255.996 24.886)" cx="256" cy="24.9" rx="7.3" ry="7.3"/><circle cx="256" cy="487.1" r="7.3"/><circle cx="140.4" cy="55.8" r="7.3"/><circle cx="371.6" cy="456.2" r="7.3"/><circle cx="456.2" cy="140.4" r="7.3"/><circle cx="55.8" cy="371.6" r="7.3"/><circle cx="371.6" cy="55.8" r="7.3"/><circle cx="140.4" cy="456.2" r="7.3"/><circle cx="55.8" cy="140.4" r="7.3"/><circle cx="456.2" cy="371.6" r="7.3"/><circle cx="24.9" cy="256" r="7.3"/><circle cx="487.1" cy="256" r="7.3"/><circle cx="231.8" cy="26.1" r="2.8"/><circle cx="280.2" cy="485.9" r="2.8"/><circle cx="207.9" cy="29.9" r="2.8"/><circle cx="304.1" cy="482.1" r="2.8"/><circle cx="184.6" cy="36.2" r="2.8"/><circle cx="327.4" cy="475.8" r="2.8"/><circle cx="162" cy="44.9" r="2.8"/><circle cx="350" cy="467.1" r="2.8"/><circle cx="120.1" cy="69" r="2.8"/><circle cx="391.9" cy="443" r="2.8"/><circle cx="101.3" cy="84.2" r="2.8"/><circle cx="410.7" cy="427.8" r="2.8"/><circle cx="84.2" cy="101.3" r="2.8"/><circle cx="427.8" cy="410.7" r="2.8"/><circle cx="69" cy="120.1" r="2.8"/><circle cx="443" cy="391.9" r="2.8"/><circle cx="44.9" cy="162" r="2.8"/><circle cx="467.1" cy="350" r="2.8"/><circle cx="36.2" cy="184.6" r="2.8"/><circle cx="475.8" cy="327.4" r="2.8"/><circle cx="29.9" cy="207.9" r="2.8"/><circle cx="482.1" cy="304.1" r="2.8"/><circle cx="26.1" cy="231.8" r="2.8"/><circle cx="485.9" cy="280.2" r="2.8"/><circle cx="26.1" cy="280.2" r="2.8"/><circle cx="485.9" cy="231.8" r="2.8"/><ellipse transform="rotate(-87.879 29.892 304.102) scale(.99999)" cx="29.9" cy="304.1" rx="2.8" ry="2.8"/><circle cx="482.1" cy="207.9" r="2.8"/><circle cx="36.2" cy="327.4" r="2.8"/><circle cx="475.8" cy="184.6" r="2.8"/><circle cx="44.9" cy="350" r="2.8"/><circle cx="467.1" cy="162" r="2.8"/><circle cx="69" cy="391.9" r="2.8"/><circle cx="443" cy="120.1" r="2.8"/><circle cx="84.2" cy="410.7" r="2.8"/><circle cx="427.8" cy="101.3" r="2.8"/><circle cx="101.3" cy="427.8" r="2.8"/><circle cx="410.7" cy="84.2" r="2.8"/><circle cx="120.1" cy="443" r="2.8"/><circle cx="391.9" cy="69" r="2.8"/><circle cx="162" cy="467.1" r="2.8"/><circle cx="350" cy="44.9" r="2.8"/><circle cx="184.6" cy="475.8" r="2.8"/><circle cx="327.4" cy="36.2" r="2.8"/><circle cx="207.9" cy="482.1" r="2.8"/><circle cx="304.1" cy="29.9" r="2.8"/><circle cx="231.8" cy="485.9" r="2.8"/><circle cx="280.2" cy="26.1" r="2.8"/></svg>