<svg version="1.1" xmlns="http://www.w3.org/2000/svg" x="0" y="0" viewBox="0 0 512 512" xml:space="preserve"><circle cx="256" cy="256" r="11.3"/><path d="M250.7 0h10.5v21.1h-10.5V0zm0 490.9h10.5V512h-10.5v-21.1zM0 261.2v-10.5h21.1v10.5H0zm491 .1v-10.5h21.1v10.5H491zM31.6 132.6l5.3-9.1L55.1 134l-5.3 9.1-18.2-10.5zm425.2 245.5l5.3-9.1 18.3 10.5-5.3 9.1-18.3-10.5zM132.6 480.3l-9.1-5.3 10.6-18.3 9.1 5.3-10.6 18.3zM378 55.1l-9.1-5.3 10.6-18.3 9.1 5.3L378 55.1zM123.4 36.9l9.1-5.3L143.1 50l-9.1 5.3-10.6-18.4zm245.5 425.2l9.1-5.3 10.5 18.3-9.1 5.3-10.5-18.3zm-332-73.6l-5.3-9.1 18.3-10.5 5.3 9.1-18.3 10.5zm425.2-245.4l-5.3-9.1 18.3-10.5 5.3 9.1-18.3 10.5zM358.8 21.5l2.8 1.3-4.3 9.6-2.8-1.3 4.3-9.6zm-204 457.9l2.8 1.3-4.4 9.8-2.8-1.3 4.4-9.8zM333.7 12.1l2.9 1-3.2 10-2.9-1 3.2-10zm-155 476.7l2.9 1-3.3 10.2-2.9-1 3.3-10.2zm129-483.5l3 .6-2.2 10.3-3-.6 2.2-10.3zM203.6 495.6l3 .6-2.2 10.5-3-.6 2.2-10.5zM281.3 1.3l3.1.3-1.2 10.4-3.1-.3 1.2-10.4zm-52.4 498.5l3.1.3-1.1 10.6-3.1-.3 1.1-10.6zm233.3-395.5l1.8 2.5-8.5 6.2-1.8-2.5 8.5-6.2zM56.6 399l1.8 2.5-8.7 6.3-1.8-2.5 8.7-6.3zM445.2 83.6l2.1 2.3-7.8 7-2.1-2.3 7.8-7zM72.7 419l2.1 2.3-8 7.2-2.1-2.3 8-7.2zM426.1 64.7l2.3 2.1-7 7.8-2.3-2.1 7-7.8zM90.8 437.3l2.3 2.1-7.2 8-2.3-2.1 7.2-8zM405.3 48l2.5 1.8-6.2 8.5-2.5-1.8 6.2-8.5zM110.6 453.5l2.5 1.8-6.3 8.7-2.5-1.8 6.3-8.7zm399.9-225.8l.3 3.1-10.4 1.1-.3-3.1 10.4-1.1zM11.9 280.1l.3 3.1-10.6 1.1-.3-3.1 10.6-1.1zm494.2-78.9l.6 3-10.3 2.2-.6-3 10.3-2.2zM15.7 305.5l.6 3-10.5 2.2-.6-3 10.5-2.2zm483.2-130.1l1 2.9-10 3.2-1-2.9 10-3.2zM22.2 330.3l1 2.9-10.2 3.4-1-2.9 10.2-3.4zm467-179.8l1.3 2.8-9.6 4.3-1.3-2.8 9.6-4.3zM31.3 354.4l1.3 2.8-9.8 4.4-1.3-2.8 9.8-4.4zm459.3 4.3l-1.3 2.8-9.6-4.3 1.3-2.8 9.6 4.3zm-458-203.8l-1.3 2.8-9.8-4.4 1.3-2.8 9.8 4.4zM500 333.6l-1 2.9-10-3.2 1-2.9 10 3.2zM23.2 178.7l-1 2.9-10.2-3.2 1-2.9 10.2 3.2zm483.5 129l-.6 3-10.3-2.2.6-3 10.3 2.2zM16.4 203.5l-.6 3-10.5-2.2.6-3 10.5 2.2zm494.4 77.7l-.3 3.1-10.4-1.1.3-3.1 10.4 1.1zM12.3 228.8l-.3 3.1-10.6-1.1.3-3.1 10.6 1.1zm395.4 233.4l-2.5 1.8-6.2-8.5 2.5-1.8 6.2 8.5zM113.1 56.6l-2.5 1.8-6.3-8.7 2.5-1.8 6.3 8.7zm315.4 388.6l-2.3 2.1-7-7.8 2.3-2.1 7 7.8zM93 72.7l-2.3 2.1-7.2-8 2.3-2.1 7.2 8zm354.3 353.5l-2.1 2.3-7.8-7 2.1-2.3 7.8 7zM74.8 90.8l-2.1 2.3-8-7.2 2.1-2.3 8 7.2zM464 405.2l-1.8 2.5-8.5-6.2 1.8-2.5 8.5 6.2zM58.5 110.6l-1.8 2.5-8.7-6.3 1.8-2.5 8.7 6.3zm225.8 399.8l-3.1.3-1.1-10.4 3.1-.3 1.1 10.4zM231.9 11.9l-3.1.3-1.1-10.6 3.1-.3 1.1 10.6zm78.9 494.2l-3 .6-2.2-10.3 3-.6 2.2 10.3zM206.5 15.7l-3 .6-2.2-10.5 3-.6 2.2 10.5zm130 483.3l-2.9 1-3.2-10 2.9-1 3.2 10zM181.6 22.2l-2.9 1-3.3-10.2 2.9-1 3.3 10.2zm179.9 467.1l-2.8 1.3-4.3-9.6 2.8-1.3 4.3 9.6zm-203.8-458l-2.8 1.3-4.4-9.8 2.8-1.3 4.4 9.8zm317.6 216.4c0 1.9-.6 3.5-1.7 4.8s-2.7 2.2-4.8 2.7v.1c2.4.3 4.3 1 5.5 2.2s1.9 2.7 1.9 4.7c0 2.9-1 5.1-3.1 6.7s-5.1 2.4-9 2.4c-3.3 0-6.1-.5-8.7-1.6v-5.4c1.2.6 2.4 1.1 3.8 1.4s2.8.6 4.1.6c2.1 0 3.6-.4 4.6-1.1s1.5-1.9 1.5-3.4c0-1.4-.6-2.4-1.7-3s-3-.9-5.5-.9h-2.3V253h2.3c2.3 0 4-.3 5.1-.9 1.1-.6 1.6-1.7 1.6-3.1 0-2.3-1.4-3.4-4.3-3.4-1 0-2 .2-3 .5s-2.2.9-3.4 1.7l-2.9-4.4c2.7-2 6-3 9.8-3 3.1 0 5.6.6 7.4 1.9s2.8 3.2 2.8 5.4zM365.7 95.5h-6.3V78.1l.1-2.9.1-3.1c-1.1 1.1-1.8 1.7-2.2 2.1L354 77l-3.1-3.8 9.7-7.7h5.2v30h-.1zM148.5 448.2l11.3-24.6H145v-5.3h21.5v4l-11.4 26h-6.6v-.1zm297.8-280.4h-21v-4.4l7.5-7.6c2.2-2.3 3.7-3.9 4.4-4.8.7-.9 1.2-1.7 1.5-2.5s.5-1.5.5-2.3c0-1.2-.3-2.1-1-2.7-.7-.6-1.6-.9-2.7-.9-1.2 0-2.3.3-3.4.8s-2.2 1.3-3.4 2.3l-3.4-4.1c1.5-1.3 2.7-2.1 3.7-2.7s2-.9 3.2-1.2 2.4-.4 3.9-.4c1.9 0 3.5.3 5 1s2.6 1.6 3.3 2.9c.8 1.2 1.2 2.6 1.2 4.2 0 1.4-.2 2.7-.7 3.9s-1.2 2.5-2.3 3.7-2.8 3.1-5.4 5.4l-3.9 3.6v.3h13.1v5.5h-.1zM77.6 340.7c2.9 0 5.2.7 7 2s2.6 3.1 2.6 5.3c0 1.5-.4 2.9-1.3 4.1-.8 1.2-2.2 2.3-4.1 3.2 2.2 1.2 3.9 2.5 4.8 3.8s1.5 2.7 1.5 4.3c0 2.5-1 4.4-2.9 5.9s-4.5 2.2-7.6 2.2c-3.3 0-5.9-.7-7.7-2.1-1.9-1.4-2.8-3.4-2.8-5.9 0-1.7.5-3.2 1.4-4.6.9-1.3 2.4-2.5 4.4-3.5-1.7-1.1-2.9-2.2-3.7-3.5-.8-1.2-1.1-2.6-1.1-4 0-2.1.9-3.9 2.7-5.2s4-2 6.8-2zm-4.7 22.5c0 1.2.4 2.1 1.2 2.8s1.9 1 3.4 1c1.6 0 2.8-.3 3.5-1 .8-.7 1.2-1.6 1.2-2.7 0-.9-.4-1.8-1.2-2.6-.8-.8-2-1.7-3.8-2.6-2.8 1.3-4.3 3-4.3 5.1zm4.7-17.8c-1.1 0-2 .3-2.6.8-.7.6-1 1.3-1 2.2 0 .8.3 1.6.8 2.2.5.7 1.5 1.3 2.9 2 1.3-.6 2.3-1.3 2.8-1.9.5-.7.8-1.4.8-2.3s-.3-1.7-1-2.2c-.8-.6-1.7-.8-2.7-.8zM57 253.8c0 5.9-1.2 10.3-3.7 13.2s-6.3 4.4-11.3 4.4c-1.8 0-3.1-.1-4-.3V266c1.1.3 2.4.4 3.6.4 2.1 0 3.9-.3 5.2-.9 1.4-.6 2.4-1.6 3.1-2.9.7-1.3 1.1-3.2 1.3-5.5H51c-.8 1.3-1.7 2.2-2.8 2.7-1 .5-2.3.8-3.9.8-2.6 0-4.7-.8-6.2-2.5s-2.3-4-2.3-7c0-3.2.9-5.8 2.7-7.6 1.8-1.9 4.3-2.8 7.5-2.8 2.2 0 4.2.5 5.8 1.6 1.7 1 2.9 2.5 3.8 4.5.9 1.9 1.4 4.2 1.4 7zm-10.9-8.1c-1.3 0-2.3.5-3.1 1.4-.7.9-1.1 2.2-1.1 3.9 0 1.5.3 2.6 1 3.4.7.8 1.7 1.3 3.1 1.3 1.3 0 2.4-.4 3.3-1.3.9-.8 1.4-1.8 1.4-2.9 0-1.6-.4-3-1.3-4.1-.9-1.1-2-1.7-3.3-1.7zm401 119.6h-3.6v6.2h-6.2v-6.2h-12.8v-4.4l13.2-19.4h5.9v18.9h3.6v4.9h-.1zm-9.8-4.9v-5.1c0-.8 0-2.1.1-3.7s.1-2.6.2-2.8h-.2c-.5 1.1-1.1 2.2-1.8 3.3l-5.5 8.3h7.2zM81 167.3h-6.3V150l.1-2.9.1-3.1c-1.1 1.1-1.8 1.7-2.2 2.1l-3.4 2.8-3.1-3.8 9.7-7.7H81v29.9zm29.1-15c0 5.2-.9 9.1-2.6 11.6s-4.4 3.8-7.9 3.8-6.1-1.3-7.8-3.9c-1.8-2.6-2.6-6.4-2.6-11.5 0-5.3.9-9.2 2.6-11.7s4.3-3.8 7.9-3.8c3.5 0 6.1 1.3 7.9 3.9 1.6 2.7 2.5 6.6 2.5 11.6zm-14.7 0c0 3.7.3 6.3 1 7.9.6 1.6 1.7 2.4 3.2 2.4s2.5-.8 3.2-2.4c.7-1.6 1-4.2 1-7.9s-.3-6.3-1-7.9c-.7-1.6-1.7-2.4-3.2-2.4s-2.6.8-3.2 2.4-1 4.2-1 7.9zm263.4 276.3c2.9 0 5.2.8 6.9 2.4 1.7 1.6 2.6 3.9 2.6 6.7 0 3.4-1 5.9-3.1 7.7-2.1 1.8-5 2.7-8.9 2.7-3.3 0-6-.5-8.1-1.6V441c1.1.6 2.3 1 3.8 1.4s2.8.5 4.1.5c3.9 0 5.8-1.6 5.8-4.8 0-3-2-4.5-6-4.5-.7 0-1.5.1-2.4.2s-1.6.3-2.1.5l-2.5-1.4 1.1-15.3h16.3v5.4h-10.7l-.6 5.9.7-.1c.8-.1 1.9-.2 3.1-.2zM150.5 95.5h-6.3V78.1l.1-2.9.1-3.1c-1.1 1.1-1.8 1.7-2.2 2.1l-3.4 2.8-3.1-3.8 9.7-7.7h5.2v30h-.1zm24 0h-6.3V78.1l.1-2.9.1-3.1c-1.1 1.1-1.8 1.7-2.2 2.1l-3.4 2.8-3.1-3.8 9.7-7.7h5.2v30h-.1zm70.9 367.6c0-5.9 1.3-10.4 3.8-13.3s6.3-4.4 11.3-4.4c1.7 0 3.1.1 4 .3v5.1c-1.2-.3-2.4-.4-3.6-.4-2.2 0-4 .3-5.3 1-1.4.7-2.4 1.6-3.1 2.9-.7 1.3-1.1 3.1-1.2 5.5h.3c1.4-2.3 3.5-3.5 6.5-3.5 2.7 0 4.8.8 6.3 2.5s2.3 4 2.3 7c0 3.2-.9 5.7-2.7 7.6s-4.3 2.8-7.5 2.8c-2.2 0-4.2-.5-5.8-1.5s-2.9-2.5-3.8-4.5c-1-2-1.5-4.4-1.5-7.1zm10.8 8c1.4 0 2.4-.5 3.1-1.4s1.1-2.2 1.1-3.9c0-1.5-.3-2.6-1-3.5-.7-.8-1.7-1.3-3.1-1.3-1.3 0-2.4.4-3.3 1.3-.9.8-1.4 1.8-1.4 2.9 0 1.6.4 3 1.3 4.1.9 1.3 2 1.8 3.3 1.8zm-7.4-404.9h-6.3V48.9l.1-2.9.1-3.1c-1.1 1.1-1.8 1.7-2.2 2.1l-3.4 2.8L234 44l9.7-7.7h5.2l-.1 29.9zm29.3 0h-21v-4.4l7.5-7.6c2.2-2.3 3.7-3.9 4.4-4.8.7-.9 1.2-1.7 1.5-2.5s.5-1.5.5-2.3c0-1.2-.3-2.1-1-2.7-.7-.6-1.6-.9-2.7-.9-1.2 0-2.3.3-3.4.8s-2.2 1.3-3.4 2.3l-3.4-4.1c1.5-1.3 2.7-2.1 3.7-2.7s2-.9 3.2-1.2c1.1-.3 2.4-.4 3.9-.4 1.9 0 3.5.3 5 1 1.4.7 2.6 1.6 3.3 2.9.8 1.2 1.2 2.6 1.2 4.2 0 1.4-.2 2.7-.7 3.9s-1.2 2.5-2.3 3.7c-1 1.3-2.8 3.1-5.4 5.4l-3.9 3.6v.3h13.1v5.5h-.1z"/></svg>