<svg version="1.1" xmlns="http://www.w3.org/2000/svg" x="0" y="0" viewBox="0 0 512 130.9" xml:space="preserve"><path d="M494.3 4l-3 22.1-.6 4.5h16.7l-.9 6.6h-16.6l-.5 3.5-4 29.7c-.9 6.7-.3 11.2 1.8 14.1 2.3 3.2 6.4 4.9 12.2 4.9h.1l-.9 6.6h-10.5c-5.6 0-9.4-1.5-11.7-4.5-2.5-3.2-3.2-7.8-2.4-14l4.8-35.8.6-4.5h-11.1l.9-6.6h11.1l.5-3.5L483.9 4h10.4M163.6 4l-3 22.1-.6 4.5h20.5c6.3 0 11.4.8 15 2.3 3.2 1.4 5.9 3.8 8 7.1 1.8 2.9 3.1 6.2 3.7 9.7.6 3.6.6 7.6.1 12.2-1.5 11-5.3 19.3-11.6 25.3-6.2 5.9-14.2 8.9-23.7 8.9h-31.1L153.2 4h10.4m-11.3 84.2h17.4c8 0 14.2-1.9 18.2-5.8 4-3.7 6.5-9.7 7.6-18.2 1.2-8.9.1-15.3-3.4-19.4-3.5-4.2-9.7-6.3-18.4-6.3H159l-.5 3.5-5.6 41.8-.6 4.4M58.8 16.3l3.6 6.2h-.5l-1.2 2-15.5 27H28.1l-7.6-13.1 12.7-22.1h25.6m290.4 13c10.1 0 17.5 2.9 22.5 9 5.1 6 6.9 14 5.5 24.5-1.4 10.6-5.5 18.8-12.5 25.2-6.9 6.2-15.3 9.3-25.8 9.3-10.3 0-17.7-2.9-22.7-8.9-5.1-6-6.9-14.2-5.5-24.4 1.4-10.5 5.5-18.8 12.6-25.2 7-6.4 15.5-9.5 25.9-9.5m-8.3 60.1c6.7 0 12.4-2.4 16.8-7 4.3-4.5 7-10.8 8-18.5 1-8.1 0-14.3-3.1-19-3.4-5-8.6-7.6-15.6-7.6-6.7 0-12.3 2.4-16.7 7.1-4.3 4.6-6.9 10.6-8 18.4-1 8.1 0 14.3 3.1 19 3.2 5 8.5 7.6 15.5 7.6m-77.7-60.1c10.1 0 17.5 2.9 22.5 9 5.1 6 6.9 14 5.5 24.5-1.4 10.6-5.5 18.8-12.5 25.2-6.9 6.2-15.3 9.3-25.8 9.3-10.3 0-17.7-2.9-22.7-8.9-5.1-6-6.9-14.2-5.5-24.4 1.4-10.5 5.5-18.8 12.6-25.2 7-6.4 15.5-9.5 25.9-9.5m-8.3 60.1c6.7 0 12.4-2.4 16.8-7 4.3-4.5 7-10.8 8-18.5 1-8.1 0-14.3-3.1-19-3.4-5-8.6-7.6-15.6-7.6-6.7 0-12.3 2.4-16.7 7-4.3 4.6-7.1 10.8-8.1 18.5-1 8.1 0 14.3 3.1 19 3.3 5 8.6 7.6 15.6 7.6m198.4-58.8l-1 7.3H423c-8.2 0-11.1 1.2-12.6 2.1-2 1.2-4.5 3.5-5 8.1-.6 4.4 1.1 7.1 2.7 8.5l.1.1.1.1c2.1 1.7 4.9 2.5 9.1 2.5H434c6.5 0 11.2 1.5 13.9 4.3 2.7 2.8 3.6 7 2.8 12.9-.8 6-2.9 10.7-6.5 14.3-3.5 3.5-7.2 5.2-11.8 5.2h-43.3l1-7.3h35.6c4.2 0 7.6-.8 10-2.3 2.8-1.8 4.5-4.7 4.9-8.3.5-3.9-.6-7-3.1-9.1-2.1-1.8-5.3-2.6-9.8-2.6h-16c-10.9 0-14.5-2.1-15.7-3.3-2-2.1-2.6-6.6-1.7-12.9 1-6.8 3.3-11.8 7-14.9 3.8-3.1 9.5-4.7 17-4.7h35m-355 10L111 62.7 98.3 84.8H72.7L60 62.7l12.7-22.1h25.6M42.9 69.9L55.7 92l-12.8 22.1H17.4L4.6 92l12.8-22.1h25.5M498.9 0h-18.5l-3.6 26.6h-11.1l-2 14.6h11.1L470 77c-1 7.4.1 13 3.2 17s8 6 14.9 6h14l2-14.6h-4.7c-4.4 0-7.4-1.1-8.9-3.2s-1.8-5.9-1.1-11.3l4-29.7H510l2-14.6h-16.7L498.9 0zM168.2 0h-18.5l-13.5 100.1h35.7c10.7 0 19.6-3.4 26.5-10 7-6.7 11.2-15.9 12.8-27.7.6-4.9.6-9.3-.1-13.4-.7-4-2.1-7.7-4.2-11.1-2.5-4.1-5.8-7-9.8-8.7-4.1-1.7-9.6-2.6-16.6-2.6h-15.9L168.2 0zm-11.3 84.2l5.6-41.8h11.3c7.5 0 12.6 1.7 15.3 4.9 2.7 3.3 3.5 8.7 2.5 16.4-1 7.4-3.1 12.7-6.4 15.8-3.3 3.1-8.4 4.7-15.5 4.7h-12.8zM61.1 12.3H30.9l-15 26.1 9.9 17.1h21.7l16.7-29h5.1l-8.2-14.2zm288.1 13c-11.4 0-20.9 3.5-28.6 10.4-7.7 7-12.4 16.2-13.9 27.7-1.6 11.4.6 20.6 6.4 27.5 5.8 6.9 14.4 10.3 25.8 10.3s20.9-3.4 28.5-10.3c7.7-6.9 12.3-16.1 13.8-27.6s-.6-20.7-6.4-27.6c-5.8-6.9-14.3-10.4-25.6-10.4zm-8.3 60.1c-5.6 0-9.7-1.9-12.3-5.8-2.6-3.9-3.4-9.3-2.5-16.3 1-6.9 3.3-12.3 7-16.3 3.6-3.8 8.2-5.8 13.8-5.8s9.7 1.9 12.3 5.8c2.6 3.9 3.4 9.3 2.5 16.3-.9 7-3.2 12.4-6.9 16.3-3.7 3.9-8.3 5.8-13.9 5.8zm-77.7-60.1c-11.4 0-20.9 3.5-28.6 10.4-7.7 7-12.4 16.2-13.9 27.7-1.6 11.4.6 20.6 6.4 27.5 5.8 6.9 14.4 10.3 25.8 10.3s20.9-3.4 28.5-10.3c7.7-6.9 12.3-16.1 13.8-27.6s-.6-20.7-6.4-27.6c-5.8-6.9-14.3-10.4-25.6-10.4zm-8.3 60.1c-5.6 0-9.7-1.9-12.3-5.8-2.6-3.9-3.4-9.3-2.5-16.3.9-6.9 3.2-12.3 7-16.3 3.6-3.8 8.2-5.8 13.8-5.8 5.6 0 9.7 1.9 12.3 5.8 2.6 3.9 3.4 9.3 2.5 16.3-.9 7-3.2 12.4-6.9 16.3-3.7 3.9-8.3 5.8-13.9 5.8zm203-58.8h-39.8c-8.5 0-15 1.9-19.5 5.6s-7.3 9.5-8.4 17.4c-1.1 7.8-.1 13.2 2.8 16.2 2.9 3.1 9.1 4.6 18.6 4.6h16c3.4 0 5.9.5 7.3 1.7 1.5 1.2 2 3 1.7 5.5-.3 2.5-1.4 4.3-3.1 5.4-1.7 1.1-4.3 1.7-7.8 1.7h-39.1l-2.1 15.3h47.9c5.7 0 10.5-2.1 14.7-6.4 4.2-4.3 6.7-9.8 7.6-16.6.9-7.1-.4-12.5-3.9-16.2-3.5-3.7-9.1-5.6-16.8-5.6h-16.8c-3.1 0-5.2-.5-6.5-1.6-1.2-1.1-1.7-2.7-1.4-5 .3-2.5 1.4-4.2 3.1-5.2 1.7-1 5.3-1.5 10.6-1.5h32.8l2.1-15.3zm-357.3 10H70.4l-15 26.1 15 26.1h30.2l15-26.1-15-26.1zM45.2 65.9H15.1L0 92l15.1 26.1h30.1L60.3 92 45.2 65.9zm449.9 50.4h-8c-1.7 0-3.1.4-4 1.1-.9.7-1.5 1.9-1.7 3.4-.2 1.5 0 2.5.7 3.2.6.7 1.8 1 3.5 1h3.6c.8 0 1.3.1 1.6.4.3.3.4.7.3 1.3s-.3 1-.7 1.3c-.4.3-1 .4-1.9.4h-7.7l-.4 2.5h7.9c1.7 0 3.1-.4 4-1.1.9-.7 1.5-1.8 1.7-3.3.2-1.5 0-2.5-.6-3.1-.6-.7-1.7-1-3.4-1h-4c-.7 0-1.1-.1-1.4-.4-.3-.3-.4-.7-.3-1.2.1-.6.4-1.1.8-1.4.5-.3 1.1-.5 1.9-.5h7.6l.5-2.6zm-33.5 0h-5.1c-2.3 0-4.1.6-5.4 1.8-1.3 1.2-2.1 3.2-2.5 5.8-.2 1.3-.1 2.4.1 3.4.3.9.7 1.7 1.4 2.3.5.5 1.1.8 1.7 1 .6.2 1.5.3 2.6.3h5.2l.4-2.6h-5c-1.2 0-2-.2-2.5-.8-.4-.5-.6-1.4-.4-2.7h8.5l.4-2.5h-8.5c.2-1.1.7-1.9 1.3-2.5.6-.5 1.5-.8 2.6-.8h5l.2-2.7zm-30.1 0h-3.2l-2 14.6h3.2l2-14.6zm-28.1 0h-7.5l-2 14.6h3.1l.8-5.7h3.6l2.4 5.7h3.4l-2.8-6.1c1-.2 1.8-.7 2.4-1.4.6-.7.9-1.6 1.1-2.7.2-1.5-.1-2.6-.8-3.3-.7-.7-1.9-1.1-3.7-1.1zm-5.3 6.3l.5-3.7h3.8c1 0 1.7.2 2.1.5.4.3.5.7.4 1.4-.1.6-.4 1.1-.8 1.4-.5.3-1.2.4-2.2.4h-3.8zm-25.7-6.3h-3.2l-8.1 14.6h3.2l1.8-3.5h6.3l.8 3.5h3.4l-4.2-14.6zm-5 8.5l2.9-5.6 1.4 5.6h-4.3zm-27.2-8.5h-7.5l-2 14.6h3.1l.8-5.7h3.6l2.4 5.7h3.4l-2.8-6.1c1-.2 1.8-.7 2.4-1.4.6-.7.9-1.6 1.1-2.7.2-1.5-.1-2.6-.8-3.3-.7-.7-1.9-1.1-3.7-1.1zm-5.3 6.3l.5-3.7h3.7c1 0 1.7.2 2.2.5.4.3.5.7.4 1.4-.1.6-.4 1.1-.8 1.4-.5.3-1.2.4-2.2.4h-3.8zm-26.3-6.3h-7.5l-2 14.6h8c1.7 0 3-.3 4-1 .9-.6 1.4-1.6 1.6-3 .1-.8 0-1.5-.3-2-.3-.6-.8-1-1.5-1.3.8-.4 1.4-.8 1.8-1.4.4-.6.7-1.3.8-2.1.1-.7 0-1.3-.2-1.8s-.5-1-1-1.3c-.4-.2-.8-.4-1.4-.5-.6-.1-1.4-.2-2.3-.2zm-5.3 6.1l.5-3.4h4.5c.7 0 1.2.1 1.5.4.3.3.4.7.3 1.3s-.3 1-.7 1.3c-.4.3-.9.4-1.6.4h-4.5zm-.8 5.9l.5-3.4h4.5c.7 0 1.2.1 1.5.4.3.3.4.7.3 1.3-.1.6-.3 1-.7 1.3-.4.3-.9.4-1.6.4h-4.5zm-20.6-12h-3.2l-2 14.6h3.2l2-14.6zm-30.9 0h-3.1l-1.2 8.7c-.2 1.2-.2 2.1-.1 2.7.1.6.4 1.2.8 1.7.4.6 1 1 1.6 1.2s1.6.3 3 .3h4l.3-2.5h-3.6c-.7 0-1.3-.1-1.7-.2-.4-.1-.8-.4-1-.7-.2-.2-.3-.5-.3-.8-.1-.4 0-.9.1-1.8l1.2-8.6zm-104.9 0H141c-2.3 0-4.1.6-5.4 1.8-1.3 1.2-2.1 3.1-2.5 5.7-.2 1.3-.1 2.5.1 3.5.3.9.7 1.7 1.4 2.3.5.5 1.1.8 1.7 1 .7.2 1.6.3 2.7.3h5.2l.4-2.5h-5c-1.3 0-2.2-.3-2.6-1-.4-.7-.5-1.8-.3-3.4.3-1.9.7-3.2 1.4-4 .7-.8 1.6-1.2 2.9-1.2h4.8l.3-2.5zm53.6 2.5h-2l-.7 5h-4.9l-.3 2h4.9l-.7 5.1h2l.7-5.1h4.9l.3-2H199l.7-5zm-29.2 0h-2l-.7 5h-4.9l-.3 2h4.9l-.7 5.1h2l.7-5.1h4.9l.3-2h-4.9l.7-5z" fill="#fff"/></svg>