<?xml version="1.0" encoding="utf-8"?>
<!-- Generator: Adobe Illustrator 21.0.2, SVG Export Plug-In . SVG Version: 6.00 Build 0)  -->
<svg version="1.1" id="icon" xmlns="http://www.w3.org/2000/svg" xmlns:xlink="http://www.w3.org/1999/xlink" x="0px" y="0px"
	 viewBox="0 0 500 500" style="enable-background:new 0 0 500 500;" xml:space="preserve">
<style type="text/css">
	.st0{fill:#444445;}
	.st1{fill:#17A5A5;}
	.st2{fill:#FFFFFF;}
	.st3{fill:#DE2C27;}
	.st4{fill:#B0B4BA;}
	.st5{fill:#636566;}
	.st6{fill:#597E5B;}
	.st7{fill:#636766;}
</style>
<g>
	<path class="st0" d="M493.6,201.6c2.7,8.2,6.4,35.6,6.4,67s-2.9,155.7-3.2,157.3c-0.3,1.7-0.5,4.8-3.2,7.4s-10.9,4.3-17.5,4.8
		c-6.6,0.5-420.4,0.5-432.1,0.5s-24.7-5-31.9-11.2c-7.2-6.1-11.7-16.7-11.7-22.9c0-6.1,0-178.3,0-187.6s18.6-36.9,32.4-48.4
		c13.8-11.4,38.5-15.9,51.6-30.3c13-14.4,29-62.5,40.9-68s43.6-9,61.7-9s53.7,1.6,63.3,7.4c9.6,5.8,28.2,53.4,37.2,60.1
		c9,6.6,83.8,16.7,108.4,21.3c24.6,4.5,51.3,7.4,63.3,11.7c12,4.3,14.4,9.8,20.2,15.4C485.1,182.8,491,193.4,493.6,201.6z"/>
	<path class="st0" d="M342.7,114.5c21.8,0,43.1,5.8,43.1,5.8v5.6v6.6v4.8v9.7h-90.9v-9.7v-11.4v-5.6
		C294.8,120.3,320.9,114.5,342.7,114.5z"/>
	<path d="M334.7,433.6H46.1c-4.5,0-8.2-3.7-8.2-8.2V225.5c0-4.5,3.7-8.2,8.2-8.2h288.6c4.5,0,8.2,3.7,8.2,8.2v199.9
		C342.9,429.9,339.2,433.6,334.7,433.6z M46.1,217.8c-4.3,0-7.8,3.5-7.8,7.8v199.9c0,4.3,3.5,7.8,7.8,7.8h288.6
		c4.3,0,7.8-3.5,7.8-7.8V225.5c0-4.3-3.5-7.8-7.8-7.8H46.1z"/>
	<g>
		<path class="st1" d="M330.2,426.5H61.2c-1,0-1.9-0.8-1.9-1.9V226.4c0-1,0.8-1.9,1.9-1.9h268.9c1,0,1.9,0.8,1.9,1.9v198.2
			C332,425.6,331.2,426.5,330.2,426.5z"/>
		<path d="M324.1,426.7H67.3c-4.5,0-8.2-3.7-8.2-8.2v-186c0-4.5,3.7-8.2,8.2-8.2h256.7c4.5,0,8.2,3.7,8.2,8.2v186
			C332.2,423,328.6,426.7,324.1,426.7z M67.3,224.7c-4.3,0-7.8,3.5-7.8,7.8v186c0,4.3,3.5,7.8,7.8,7.8h256.7c4.3,0,7.8-3.5,7.8-7.8
			v-186c0-4.3-3.5-7.8-7.8-7.8H67.3z"/>
	</g>
	<g>
		<path class="st2" d="M90.6,237.3c1.5-0.3,3.6-0.5,5.7-0.5c3.2,0,5.2,0.6,6.6,1.9c1.2,1,1.8,2.6,1.8,4.4c0,3-1.9,5-4.3,5.8v0.1
			c1.8,0.6,2.8,2.2,3.4,4.6c0.7,3.2,1.3,5.4,1.8,6.3h-3.1c-0.4-0.6-0.9-2.6-1.5-5.5c-0.7-3.2-1.9-4.4-4.6-4.5h-2.8v9.9h-3V237.3z
			 M93.6,247.8h3c3.2,0,5.2-1.7,5.2-4.4c0-3-2.1-4.3-5.3-4.3c-1.4,0-2.4,0.1-2.9,0.3V247.8z"/>
		<path class="st2" d="M120.8,249.2h-8.9v8.3h9.9v2.5h-12.9V237h12.4v2.5h-9.4v7.2h8.9V249.2z"/>
		<path class="st2" d="M141.7,259.2c-1.1,0.5-3.3,1.1-6.1,1.1c-6.5,0-11.3-4.1-11.3-11.6c0-7.2,4.9-12,12-12c2.9,0,4.7,0.6,5.4,1
			l-0.7,2.4c-1.1-0.5-2.7-1-4.6-1c-5.4,0-8.9,3.4-8.9,9.5c0,5.6,3.2,9.2,8.8,9.2c1.8,0,3.6-0.4,4.8-1L141.7,259.2z"/>
	</g>
	<circle cx="256.6" cy="135.7" r="15.6"/>
	<circle class="st3" cx="78" cy="250" r="7.4"/>
	<g>
		<path class="st0" d="M269.2,170.3c-1.9-14.4-6.1-30.8-6.1-30.8s-4.3-10.8-8.7-14.4c-4.4-3.5-9.2-5.7-11.8-6.4
			c-2.6-0.7-37.4-2-53.2-2.7h-1.2h-1.4h-1.2c-15.7,0.7-50.6,1.9-53.2,2.7c-2.6,0.7-7.3,2.8-11.8,6.4c-4.4,3.5-8.7,14.4-8.7,14.4
			s-4.3,16.5-6.1,30.8c-1.9,14.4-3.2,22.5-3.6,25.5c-0.3,3,1.7,7.6,3.6,10.1c1.9,2.5,7.3,3.5,12.8,4.3c5.1,0.7,61.9-1.3,68.8-1.6
			c6.9,0.2,63.7,2.2,68.8,1.6c5.5-0.7,10.9-1.8,12.8-4.3c1.9-2.5,3.9-7.1,3.6-10.1C272.5,192.8,271.1,184.6,269.2,170.3z"/>
		<path d="M251.4,210.5c-15.4,0-58.2-1.5-63.8-1.7c-6.5,0.2-63.7,2.3-68.9,1.6c-5.3-0.7-11-1.7-12.9-4.3c-1.7-2.3-4-7-3.6-10.3
			c0.1-1.2,0.4-3.2,0.9-6c0.6-4.3,1.6-10.8,2.7-19.5c1.9-14.2,6.1-30.7,6.1-30.9c0.2-0.5,4.3-10.9,8.8-14.5
			c4.1-3.3,8.9-5.6,11.8-6.4c2.1-0.6,25.5-1.5,42.6-2.2c4-0.2,7.7-0.3,10.7-0.4h3.7c3,0.1,6.7,0.3,10.7,0.4
			c17.1,0.7,40.5,1.6,42.6,2.2c2.9,0.8,7.7,3.1,11.8,6.4c4.4,3.5,8.6,14,8.8,14.4c0,0.2,4.3,16.7,6.1,30.9l0,0
			c1.1,8.7,2.1,15.1,2.7,19.4c0.4,2.8,0.7,4.9,0.9,6.1c0.4,3.3-1.9,8-3.6,10.3c-2,2.6-7.6,3.6-12.9,4.3
			C255.7,210.4,254,210.5,251.4,210.5z M187.6,208.4c6.5,0.2,63.6,2.2,68.8,1.6c5.2-0.7,10.8-1.7,12.6-4.2c2-2.6,3.9-7.1,3.5-9.9
			c-0.1-1.2-0.4-3.2-0.9-6.1c-0.6-4.3-1.6-10.8-2.7-19.4l0,0c-1.8-14.2-6.1-30.6-6.1-30.8c0-0.1-4.3-10.8-8.6-14.2
			c-4.1-3.3-8.8-5.5-11.7-6.3c-2-0.6-25.4-1.5-42.5-2.2c-4-0.2-7.7-0.3-10.6-0.4h-3.7c-3,0.1-6.6,0.3-10.6,0.4
			c-17.1,0.7-40.4,1.6-42.5,2.2c-2.9,0.8-7.6,3.1-11.7,6.3c-4.3,3.5-8.6,14.2-8.6,14.3c0,0.1-4.3,16.6-6.1,30.8
			c-1.1,8.7-2.1,15.2-2.7,19.5c-0.4,2.8-0.7,4.8-0.8,6c-0.3,2.8,1.6,7.4,3.5,9.9c1.9,2.5,7.4,3.5,12.6,4.2
			C124,210.6,181.1,208.6,187.6,208.4z"/>
	</g>
	<path d="M220.9,197.1h-64.3c-6.9,0-12.4-5.6-12.4-12.4V157c0-6.9,5.6-12.4,12.4-12.4h64.3c6.9,0,12.4,5.6,12.4,12.4v27.6
		C233.4,191.5,227.8,197.1,220.9,197.1z M156.6,145c-6.6,0-12,5.4-12,12v27.6c0,6.6,5.4,12,12,12h64.3c6.6,0,12-5.4,12-12V157
		c0-6.6-5.4-12-12-12H156.6z"/>
	<rect x="169.4" y="151.1" class="st4" width="42.5" height="30.3"/>
	<g>
		<circle class="st5" cx="373" cy="370.7" r="11.7"/>
		<path d="M373,382.6c-6.6,0-11.9-5.3-11.9-11.9s5.3-11.9,11.9-11.9s11.9,5.3,11.9,11.9S379.5,382.6,373,382.6z M373,359.2
			c-6.3,0-11.5,5.1-11.5,11.5s5.1,11.5,11.5,11.5s11.5-5.1,11.5-11.5S379.3,359.2,373,359.2z"/>
	</g>
	<g>
		<circle class="st5" cx="420.3" cy="394" r="11.7"/>
		<path d="M420.3,406c-6.6,0-11.9-5.3-11.9-11.9s5.3-11.9,11.9-11.9c6.6,0,11.9,5.3,11.9,11.9S426.8,406,420.3,406z M420.3,382.6
			c-6.3,0-11.5,5.1-11.5,11.5s5.1,11.5,11.5,11.5c6.3,0,11.5-5.1,11.5-11.5S426.6,382.6,420.3,382.6z"/>
	</g>
	<g>
		<circle class="st5" cx="373" cy="411.1" r="11.7"/>
		<path d="M373,423c-6.6,0-11.9-5.3-11.9-11.9c0-6.6,5.3-11.9,11.9-11.9s11.9,5.3,11.9,11.9C384.9,417.6,379.5,423,373,423z
			 M373,399.6c-6.3,0-11.5,5.1-11.5,11.5s5.1,11.5,11.5,11.5s11.5-5.1,11.5-11.5S379.3,399.6,373,399.6z"/>
	</g>
	<g>
		<circle class="st5" cx="373.5" cy="252.7" r="11.7"/>
		<path d="M373.5,264.6c-6.6,0-11.9-5.3-11.9-11.9s5.3-11.9,11.9-11.9c6.6,0,11.9,5.3,11.9,11.9S380.1,264.6,373.5,264.6z
			 M373.5,241.2c-6.3,0-11.5,5.2-11.5,11.5c0,6.3,5.1,11.5,11.5,11.5S385,259,385,252.7C385,246.3,379.8,241.2,373.5,241.2z"/>
	</g>
	<g>
		<circle class="st5" cx="307.6" cy="170.3" r="11.7"/>
		<path d="M307.6,182.2c-6.6,0-11.9-5.3-11.9-11.9c0-6.6,5.3-11.9,11.9-11.9c6.6,0,11.9,5.3,11.9,11.9
			C319.5,176.8,314.1,182.2,307.6,182.2z M307.6,158.8c-6.3,0-11.5,5.2-11.5,11.5s5.1,11.5,11.5,11.5c6.3,0,11.5-5.2,11.5-11.5
			S313.9,158.8,307.6,158.8z"/>
	</g>
	<g>
		<circle class="st5" cx="357.5" cy="177.2" r="11.7"/>
		<path d="M357.5,189.1c-6.6,0-11.9-5.3-11.9-11.9c0-6.6,5.3-11.9,11.9-11.9s11.9,5.3,11.9,11.9
			C369.5,183.7,364.1,189.1,357.5,189.1z M357.5,165.7c-6.3,0-11.5,5.2-11.5,11.5c0,6.3,5.1,11.5,11.5,11.5s11.5-5.2,11.5-11.5
			C369,170.8,363.9,165.7,357.5,165.7z"/>
	</g>
	<g>
		<circle class="st5" cx="72.6" cy="175.6" r="11.7"/>
		<path d="M72.6,187.5c-6.6,0-11.9-5.3-11.9-11.9c0-6.6,5.3-11.9,11.9-11.9s11.9,5.3,11.9,11.9C84.5,182.2,79.2,187.5,72.6,187.5z
			 M72.6,164.1c-6.3,0-11.5,5.2-11.5,11.5s5.2,11.5,11.5,11.5c6.3,0,11.5-5.2,11.5-11.5S79,164.1,72.6,164.1z"/>
	</g>
	<circle cx="43.1" cy="192.9" r="7.2"/>
	<circle cx="424.8" cy="360.8" r="5"/>
	<circle class="st6" cx="54" cy="171.3" r="4.3"/>
	<circle class="st6" cx="294.6" cy="157.8" r="4.3"/>
	<polygon class="st0" points="389.4,129.1 409.6,129.1 409.6,155.9 374.8,152.5 	"/>
	<rect y="263.8" width="38.3" height="0.4"/>
	<rect x="0.4" y="384.6" width="37.9" height="0.4"/>
	<path d="M497.9,387.9h-27.5c-0.2,0-3.8-0.7-6-2.9c-2.2-2.2-2.9-6-2.9-6.1v-96.4c0-0.2,0.2-4.4,2.5-7.2c2.4-2.9,6-3.2,6.2-3.3H500
		v0.4h-29.8c0,0-3.6,0.4-5.9,3.1c-2.3,2.7-2.4,6.9-2.4,7v96.4c0,0,0.6,3.8,2.8,5.9c2.1,2.1,5.7,2.8,5.7,2.8l27.4,0V387.9z"/>
	<path d="M419.9,263.2c-1.5,0-5-0.1-6.8-1.1c-2.4-1.2-5.3-5.6-5.4-5.7l0-0.1c-0.3-1.2-7.5-29.8-7.8-32.6s0.9-7.3,3.2-9.7
		c2.1-2.2,5.1-3.5,7.9-3.6l0,0c2.5-0.1,21.4,0.7,34.1,3.2c12.3,2.4,20.1,5,26,12.1c5.8,7,5.4,24.2,5.4,24.9c0,0.2,0.2,5.3-2.9,8.3
		c-3.1,3-9.8,4.3-10,4.3l-42.9,0C420.6,263.2,420.3,263.2,419.9,263.2z M408.1,256.1c0.3,0.4,3,4.4,5.2,5.6c2.3,1.2,7.3,1,7.3,1
		h42.9c0,0,6.8-1.3,9.8-4.2c3-2.9,2.8-7.9,2.8-8c0-0.2,0.4-17.8-5.3-24.7c-5.8-7-13.5-9.6-25.8-12c-12.6-2.5-31.5-3.3-34-3.2l0,0
		c-2.7,0.1-5.6,1.4-7.6,3.5c-2.3,2.3-3.4,6.7-3.1,9.4C400.5,226.3,407.8,254.9,408.1,256.1z"/>
	<polygon points="230.5,100.1 151.8,100.1 151.8,64.1 152.2,64.1 152.2,99.7 230.1,99.7 230.1,63.4 230.5,63.4 	"/>
	<g>
		<circle class="st5" cx="401.3" cy="313.6" r="11.7"/>
		<path d="M401.3,325.5c-6.6,0-11.9-5.3-11.9-11.9s5.3-11.9,11.9-11.9s11.9,5.3,11.9,11.9S407.9,325.5,401.3,325.5z M401.3,302.1
			c-6.3,0-11.5,5.1-11.5,11.5s5.1,11.5,11.5,11.5s11.5-5.1,11.5-11.5S407.6,302.1,401.3,302.1z"/>
	</g>
	<path d="M401.3,336.9c-12.8,0-23.2-10.4-23.2-23.2c0-12.8,10.4-23.2,23.2-23.2c12.8,0,23.2,10.4,23.2,23.2
		C424.6,326.4,414.1,336.9,401.3,336.9z M401.3,290.8c-12.6,0-22.8,10.2-22.8,22.8s10.2,22.8,22.8,22.8s22.8-10.2,22.8-22.8
		S413.9,290.8,401.3,290.8z"/>
	<path d="M401.3,347.1c-18.5,0-33.5-15-33.5-33.5c0-18.5,15-33.5,33.5-33.5c18.5,0,33.5,15,33.5,33.5
		C434.8,332.1,419.8,347.1,401.3,347.1z M401.3,280.5c-18.3,0-33.1,14.8-33.1,33.1s14.8,33.1,33.1,33.1s33.1-14.8,33.1-33.1
		S419.6,280.5,401.3,280.5z"/>
	<polygon class="st7" points="396.5,338.8 406.4,338.8 401.5,345.3 	"/>
	<polygon class="st7" points="396.5,287.7 406.4,287.7 401.5,281.2 	"/>
	<polygon class="st7" points="427,318.2 427,308.3 433.6,313.3 	"/>
	<polygon class="st7" points="376,318.2 376,308.3 369.4,313.3 	"/>
	<g>
		<rect x="393" y="177.5" class="st7" width="67.3" height="12.4"/>
		<path d="M460.5,190.1h-67.8v-12.8h67.8V190.1z M393.2,189.7h66.9v-12h-66.9V189.7z"/>
	</g>
</g>
</svg>
