<?xml version="1.0" encoding="utf-8"?>
<!-- Generator: Adobe Illustrator 21.0.2, SVG Export Plug-In . SVG Version: 6.00 Build 0)  -->
<svg version="1.1" id="icon" xmlns="http://www.w3.org/2000/svg" xmlns:xlink="http://www.w3.org/1999/xlink" x="0px" y="0px"
	 viewBox="0 0 500 500" style="enable-background:new 0 0 500 500;" xml:space="preserve">
<style type="text/css">
	.st0{fill:#444445;}
	.st1{fill:#B0B4BA;}
	.st2{fill:#7D8082;}
	.st3{fill:#636464;}
	.st4{fill:#597E5A;}
	.st5{fill:#446B43;}
	.st6{fill:#325432;}
	.st7{fill:#636565;}
	.st8{fill:#CB444F;}
</style>
<g>
	<path class="st0" d="M6.4,200C3.7,208.2,0,235.6,0,267s2.9,155.8,3.2,157.5s0.5,4.8,3.2,7.5s10.9,4.3,17.6,4.8s420.8,0.5,432.4,0.5
		s24.8-5.1,31.9-11.2s11.7-16.8,11.7-22.9s0-178.4,0-187.7c0-9.3-18.7-36.9-32.4-48.4c-13.9-11.5-38.5-16-51.6-30.3
		C402.9,122.4,387,74.3,375,68.7s-43.6-9.1-61.7-9.1s-53.7,1.6-63.3,7.5c-9.6,5.9-28.1,53.5-37.2,60.1
		c-9.1,6.7-83.9,16.8-108.5,21.3c-24.7,4.6-51.3,7.5-63.3,11.7c-12,4.3-14.4,9.9-20.3,15.5C15,181.2,9.1,191.7,6.4,200z"/>
	<path d="M211.9,182l-0.3-0.3c0.1-0.2,12.6-16.9,19.2-26.5c2.5-3.7,4.6-7.2,6.5-10.3c3.2-5.2,5.7-9.4,7.9-11
		c2.4-1.9,25.7-3.5,69.3-4.8c15.1-0.5,60.1,0.1,63,3.8c0.7,0.9,1.5,1.8,2.4,2.8c2.6,3,5.9,6.7,8.8,12.7c4,7.9,15.9,30.6,16,30.8
		l-0.4,0.2c-0.1-0.2-12-23-16-30.8c-3-5.9-6.2-9.6-8.8-12.6c-0.9-1-1.7-2-2.4-2.9c-2.6-3.3-45.3-4.2-62.6-3.6
		c-54.1,1.7-67.4,3.5-69.1,4.8c-2.1,1.6-4.6,5.7-7.8,10.9c-1.9,3.1-4.1,6.7-6.5,10.3C224.5,165.1,212,181.8,211.9,182z"/>
	<g>
		<circle class="st1" cx="311.7" cy="292.5" r="147.4"/>
		<path class="st2" d="M311.7,440.4c-81.5,0-148-66.4-148-148s66.4-148,148-148s148,66.4,148,148S393.3,440.4,311.7,440.4z
			 M311.7,145.6c-81,0-146.9,65.9-146.9,146.9s65.9,146.9,146.9,146.9s146.9-65.9,146.9-146.9S392.7,145.6,311.7,145.6z"/>
	</g>
	<g>
		<circle class="st1" cx="311.7" cy="292.5" r="141.6"/>
		<path class="st2" d="M311.7,434.7c-78.4,0-142.2-63.8-142.2-142.2s63.8-142.2,142.2-142.2S453.9,214,453.9,292.5
			S390.1,434.7,311.7,434.7z M311.7,151.3c-77.8,0-141.1,63.3-141.1,141.1s63.3,141.1,141.1,141.1s141.1-63.3,141.1-141.1
			S389.5,151.3,311.7,151.3z"/>
	</g>
	<g>
		<circle class="st3" cx="311.7" cy="292.5" r="128.7"/>
		<path class="st2" d="M311.7,421.7c-71.3,0-129.2-58-129.2-129.2s58-129.2,129.2-129.2s129.2,58,129.2,129.2
			S382.9,421.7,311.7,421.7z M311.7,164.2c-70.7,0-128.1,57.5-128.1,128.1S241,420.5,311.7,420.5S439.8,363,439.8,292.4
			C439.9,221.8,382.4,164.2,311.7,164.2z"/>
	</g>
	<g>
		<circle class="st3" cx="311.7" cy="292.5" r="120.8"/>
		<path class="st2" d="M311.7,413.7c-66.9,0-121.3-54.4-121.3-121.3s54.4-121.3,121.3-121.3s121.3,54.4,121.3,121.3
			S378.5,413.7,311.7,413.7z M311.7,172.2c-66.3,0-120.3,53.9-120.3,120.3s54,120.2,120.3,120.2s120.3-53.9,120.3-120.3
			S377.9,172.2,311.7,172.2z"/>
	</g>
	<g>
		<circle class="st0" cx="311.7" cy="292.5" r="107.5"/>
		<path class="st2" d="M311.7,400.4c-59.6,0-108-48.4-108-108s48.4-108,108-108s108,48.4,108,108S371.3,400.4,311.7,400.4z
			 M311.7,185.6c-59,0-106.9,48-106.9,106.9c0,59,48,106.9,106.9,106.9c59,0,106.9-48,106.9-106.9
			C418.7,233.5,370.7,185.6,311.7,185.6z"/>
	</g>
	<circle class="st4" cx="311.7" cy="292.5" r="81.9"/>
	<circle class="st5" cx="311.7" cy="292.5" r="42.3"/>
	<circle class="st6" cx="311.7" cy="292.5" r="15.5"/>
	<path class="st0" d="M159.6,116.9c-21.9,0-43.1,5.9-43.1,5.9v5.6v6.7v4.8v9.8h90.9v-9.8v-11.5v-5.6
		C207.5,122.8,181.3,116.9,159.6,116.9z"/>
	
		<ellipse transform="matrix(0.9927 -0.1207 0.1207 0.9927 -19.2557 12.3258)" class="st7" cx="92.1" cy="165.1" rx="37.4" ry="13.2"/>
	<path class="st8" d="M93.6,196c-7.9,2.1-28.9,3.7-50,4.6c8.5,7.6,27.5,15.1,56.7,6.4c27.4-8.2,39.4-22.9,44.4-31.4
		C127,183.4,103.9,193.4,93.6,196z"/>
	<path d="M127.6,421.4H4.1v-0.2c-0.7-19.6-2.4-126.3-2.4-155c0-28.8,3.1-54.8,6-64.6v-0.2h0.2c27.1-0.3,73.2-2.4,85.6-5.7
		c17.5-4.6,73.6-30.6,74.1-30.9l0.1-0.1l0.1,0.1l7.2,8.7l-0.1,0.1c-0.2,0.3-22.1,27-26.5,36.8c-4.8,10.4-10.7,46.8-11.4,70.9
		c-0.7,24.6,4.9,130.6,5,131.7v0.1l0,0c-0.1,0.2-2.2,4.5-6.1,6.3l0,0C132,421.4,127.7,421.4,127.6,421.4z M4.5,421h123.2
		c0,0,4.3,0,8.1-1.8l0,0c3.6-1.6,5.7-5.6,5.9-6.1c-0.2-3-5.7-107.4-5-131.7c0.7-24.1,6.5-60.6,11.4-71.1
		c4.4-9.5,24.9-34.7,26.5-36.8l-6.9-8.3c-3.2,1.5-56.9,26.4-74,30.8c-12.4,3.2-58.4,5.4-85.5,5.7c-2.9,9.9-6,35.7-6,64.4
		C2.2,294.8,3.8,400.9,4.5,421z"/>
	<circle class="st1" cx="174.9" cy="171.7" r="16.2"/>
	<path class="st0" d="M0,271.2c0,0.8,0,1.5,0,2.4c0,0.5,0,1,0,1.4c0,0.8,0,1.6,0,2.5c0,0.6,0,1.2,0,1.8c0,0.9,0,1.7,0,2.6
		c0,0.6,0,1.3,0,1.9c0,0.9,0,1.9,0,2.9c0,0.6,0,1.3,0,1.9c0,1,0,2.1,0,3.2c0,0.7,0,1.5,0,2.2c0,1.2,0,2.4,0.1,3.6c0,0.5,0,1,0,1.6
		c0,1.4,0,2.9,0.1,4.4c0,0.5,0,0.9,0,1.4c0,1.9,0.1,3.8,0.1,5.7v0.1c0.1,4.1,0.1,8.2,0.2,12.5c0,1,0,2,0.1,3.1c0,1.2,0,2.3,0.1,3.5
		c0,0.8,0,1.7,0,2.5c0,1.3,0.1,2.5,0.1,3.8c0,1,0,2,0.1,3c0,1.1,0,2.2,0.1,3.3c0,1.2,0,2.4,0.1,3.6c0,0.9,0,1.8,0.1,2.8
		c0,1.1,0,2.2,0.1,3.3c0,1.2,0.1,2.4,0.1,3.6c0,0.8,0,1.5,0,2.3c0,1.5,0.1,2.9,0.1,4.3c0,0.7,0,1.4,0,2.1c0,1.3,0.1,2.7,0.1,4
		c0,0.8,0,1.6,0.1,2.5c0,0.8,0,1.7,0.1,2.5c0,1.2,0.1,2.5,0.1,3.7c0,0.4,0,0.8,0,1.2c0.1,4.9,0.2,9.6,0.3,14c0,0.3,0,0.6,0,1
		c0,1.2,0.1,2.4,0.1,3.6c0,0.4,0,0.9,0,1.3c0,1,0,2,0.1,3c0,0.6,0,1.2,0,1.8c0,1.1,0.1,2.2,0.1,3.2c0,0.2,0,0.4,0,0.6
		c0,1.2,0.1,2.3,0.1,3.4c0,0.2,0,0.4,0,0.5c0,1,0.1,1.9,0.1,2.8c0,0.3,0,0.5,0,0.8c0,0.9,0,1.7,0.1,2.5c0,0.1,0,0.3,0,0.4
		c0,0.8,0,1.5,0.1,2.2c0,0.2,0,0.4,0,0.5c0,0.6,0,1.2,0.1,1.7l0,0l5.7,2.4l1.2-224.1l-3.8,1c0,0-0.3,1.2-0.5,1.9l0,0
		c-0.2,0.7-0.3,1.4-0.5,2.3l0,0c-0.2,0.8-0.3,1.7-0.5,2.6c0,0.1,0,0.1,0,0.2c-0.2,0.9-0.3,1.8-0.5,2.8c0,0.1,0,0.3-0.1,0.4
		c-0.2,0.9-0.3,1.9-0.5,2.9c0,0.2-0.1,0.5-0.1,0.7c-0.1,0.9-0.3,1.9-0.4,2.9c0,0.3-0.1,0.7-0.1,1c-0.1,0.9-0.2,1.9-0.4,2.9
		c0.1,0.2,0,0.7,0,1.1c-0.1,0.9-0.2,1.8-0.3,2.8c-0.1,0.6-0.1,1.2-0.2,1.8c-0.1,0.9-0.2,1.8-0.3,2.7c-0.1,0.7-0.1,1.4-0.2,2.1
		c-0.1,0.9-0.2,1.8-0.2,2.7c-0.1,0.8-0.1,1.7-0.2,2.5c-0.1,0.8-0.1,1.6-0.2,2.5c-0.1,0.9-0.1,1.9-0.2,2.8c0,0.8-0.1,1.6-0.1,2.4
		c-0.1,1-0.1,2.1-0.2,3.1c0,0.7-0.1,1.5-0.1,2.2c0,1.2-0.1,2.3-0.1,3.5c0,0.7,0,1.3-0.1,2c0,1.3-0.1,2.6-0.1,3.9c0,0.6,0,1.2,0,1.8
		c0,1.9,0,3.8,0,5.8c0,0.9,0,2,0,3.1C0,270.4,0,270.8,0,271.2z"/>
	<g>
		<circle class="st0" cx="64.2" cy="280.1" r="10.7"/>
		<path d="M64.2,290.9c-6,0-10.9-4.9-10.9-10.9c0-6,4.9-10.9,10.9-10.9S75,274,75,280C75,286.1,70.2,290.9,64.2,290.9z M64.2,269.6
			c-5.8,0-10.4,4.7-10.4,10.4s4.7,10.4,10.4,10.4s10.4-4.7,10.4-10.4S70,269.6,64.2,269.6z"/>
	</g>
	<rect x="77.3" y="165" transform="matrix(0.9862 -0.1656 0.1656 0.9862 -27.4128 15.2167)" class="st0" width="0.4" height="14"/>
	<polygon class="st0" points="105.9,176 105.5,176 105.8,161.8 106.3,161.8 	"/>
	
		<ellipse transform="matrix(0.9927 -0.1207 0.1207 0.9927 -18.5035 12.1839)" class="st1" cx="91.3" cy="158.8" rx="20.7" ry="6.8"/>
	<circle cx="440.8" cy="179.7" r="2.1"/>
	<circle cx="451.5" cy="179.7" r="2.1"/>
	<circle cx="451.5" cy="179.7" r="2.1"/>
	<circle cx="446.3" cy="179.7" r="2.1"/>
	<circle cx="446.3" cy="179.7" r="2.1"/>
	<path d="M311.9,77.3c-0.2,0-0.5,0-0.8,0c-26.3-0.3-45.9-14-46.1-14.2l0.2-0.3c0.2,0.1,19.7,13.8,45.9,14.1c0.2,0,0.5,0,0.7,0
		c25.8,0,44.9-13.4,45.1-13.6l0.2,0.3C357.1,63.8,337.9,77.3,311.9,77.3z"/>
</g>
</svg>
