<svg version="1.1" id="icon" xmlns="http://www.w3.org/2000/svg" x="0" y="0" viewBox="0 0 512 512" xml:space="preserve"><style type="text/css">.st0{fill:#36434f}</style><circle class="st0" cx="256" cy="256" r="11.3"/><path class="st0" d="M511 246.4c0 2.2-.7 4-2 5.6-1.3 1.5-3.2 2.6-5.6 3.2v.1c2.8.4 4.9 1.2 6.4 2.6 1.4 1.4 2.2 3.2 2.2 5.5 0 3.4-1.2 6-3.7 7.8-2.4 1.9-5.9 2.8-10.4 2.8-3.8 0-7.1-.6-10.1-1.9v-6.3c1.4.7 2.8 1.2 4.5 1.7 1.6.4 3.2.6 4.8.6 2.4 0 4.2-.4 5.4-1.2s1.7-2.2 1.7-4c0-1.6-.7-2.8-2-3.5s-3.5-1-6.4-1h-2.6v-5.7h2.7c2.7 0 4.7-.4 5.9-1.1 1.2-.7 1.9-1.9 1.9-3.6 0-2.6-1.7-4-5-4-1.1 0-2.3.2-3.5.6-1.2.4-2.5 1-4 2l-3.4-5.1c3.2-2.3 7-3.4 11.4-3.4 3.6 0 6.5.7 8.6 2.2s3.2 3.5 3.2 6.1zm-127.5-177h-7.4V49.2l.1-3.3.1-3.6c-1.2 1.2-2.1 2-2.6 2.4l-4 3.2-3.6-4.4 11.2-9h6.1l.1 34.9zM131 479.5l13.1-28.6h-17.2v-6.2h25v4.6l-13.2 30.2H131zm346.3-326.1h-24.4v-5.1l8.8-8.9c2.6-2.7 4.3-4.5 5.1-5.5.8-1 1.4-2 1.7-2.9.4-.9.5-1.8.5-2.7 0-1.4-.4-2.4-1.2-3.1s-1.8-1-3.1-1c-1.4 0-2.7.3-3.9.9-1.3.6-2.6 1.5-4 2.6l-4-4.8c1.7-1.5 3.1-2.5 4.3-3.1s2.4-1.1 3.7-1.4c1.3-.3 2.8-.5 4.5-.5 2.2 0 4.1.4 5.8 1.2s3 1.9 3.9 3.3 1.4 3.1 1.4 4.9c0 1.6-.3 3.1-.8 4.5-.6 1.4-1.4 2.9-2.6 4.3-1.2 1.5-3.3 3.6-6.3 6.3l-4.5 4.2v.3h15.2v6.5h-.1zM48.6 354.5c3.3 0 6 .8 8.1 2.3 2 1.5 3.1 3.6 3.1 6.1 0 1.8-.5 3.4-1.5 4.8s-2.6 2.6-4.8 3.7c2.6 1.4 4.5 2.9 5.6 4.4s1.7 3.2 1.7 5c0 2.9-1.1 5.2-3.4 6.9-2.2 1.7-5.2 2.6-8.9 2.6-3.8 0-6.8-.8-9-2.4s-3.3-3.9-3.3-6.9c0-2 .5-3.8 1.6-5.3s2.8-2.9 5.1-4.1c-2-1.3-3.4-2.6-4.3-4s-1.3-3-1.3-4.7c0-2.5 1-4.5 3.1-6.1 2.2-1.5 4.9-2.3 8.2-2.3zm-5.4 26.1c0 1.4.5 2.4 1.4 3.2s2.3 1.1 3.9 1.1c1.8 0 3.2-.4 4.1-1.2.9-.8 1.4-1.8 1.4-3.1 0-1.1-.4-2.1-1.3-3s-2.4-1.9-4.4-3c-3.4 1.6-5.1 3.6-5.1 6zm5.4-20.7c-1.3 0-2.3.3-3 1-.8.6-1.2 1.5-1.2 2.6 0 1 .3 1.8.9 2.6.6.8 1.7 1.5 3.3 2.3 1.6-.7 2.6-1.5 3.3-2.2.6-.8.9-1.6.9-2.6 0-1.1-.4-2-1.2-2.6-.8-.8-1.8-1.1-3-1.1zm-24-106.5c0 6.9-1.4 12-4.3 15.4s-7.3 5.1-13.2 5.1c-2.1 0-3.6-.1-4.7-.3v-5.9c1.3.3 2.7.5 4.2.5 2.5 0 4.5-.4 6.1-1.1s2.8-1.9 3.7-3.4c.8-1.6 1.3-3.7 1.5-6.4h-.3c-.9 1.5-2 2.5-3.2 3.2-1.2.6-2.7.9-4.5.9-3 0-5.4-1-7.2-2.9s-2.6-4.7-2.6-8.1c0-3.7 1.1-6.7 3.2-8.9s5-3.3 8.7-3.3c2.6 0 4.8.6 6.8 1.8s3.4 3 4.5 5.3c.8 2.2 1.3 4.9 1.3 8.1zM12 244c-1.5 0-2.7.5-3.6 1.6s-1.3 2.6-1.3 4.5c0 1.7.4 3 1.2 4s2 1.5 3.6 1.5c1.5 0 2.8-.5 3.8-1.5s1.6-2.1 1.6-3.4c0-1.9-.5-3.5-1.5-4.8S13.6 244 12 244zm466.2 139.1H474v7.2h-7.2v-7.2h-14.9V378l15.3-22.5h6.8v21.9h4.2v5.7zm-11.5-5.7v-5.9c0-1 0-2.4.1-4.3s.1-3 .2-3.3h-.2c-.6 1.3-1.3 2.6-2.1 3.8l-6.4 9.7h8.4zM52.5 152.9h-7.4v-20.2l.1-3.3.1-3.6c-1.2 1.2-2.1 2-2.6 2.4l-4 3.2-3.6-4.4 11.2-9h6.1v34.9h.1zm33.9-17.4c0 6.1-1 10.6-3 13.5s-5.1 4.4-9.2 4.4c-4 0-7.1-1.5-9.1-4.5s-3.1-7.5-3.1-13.4c0-6.2 1-10.7 3-13.6s5.1-4.4 9.2-4.4c4 0 7.1 1.5 9.1 4.6 2.1 3 3.1 7.5 3.1 13.4zm-17 0c0 4.3.4 7.3 1.1 9.2s2 2.8 3.7 2.8 3-.9 3.7-2.8c.8-1.9 1.1-4.9 1.1-9.2s-.4-7.4-1.2-9.2-2-2.8-3.7-2.8-3 .9-3.7 2.8c-.7 1.9-1 4.9-1 9.2zm306.1 321.2c3.4 0 6.1.9 8.1 2.8s3 4.5 3 7.8c0 3.9-1.2 6.9-3.6 9s-5.8 3.2-10.3 3.2c-3.9 0-7-.6-9.4-1.9v-6.4c1.3.7 2.7 1.2 4.4 1.6s3.3.6 4.8.6c4.5 0 6.8-1.8 6.8-5.5 0-3.5-2.3-5.3-7-5.3-.8 0-1.8.1-2.8.3-1 .2-1.8.3-2.5.5l-2.9-1.6 1.3-17.8h18.9v6.3h-12.5l-.6 6.9.8-.2c.9-.2 2.1-.3 3.5-.3zM133.3 69.4h-7.4V49.2l.1-3.3.1-3.6c-1.2 1.2-2.1 2-2.6 2.4l-4 3.2-3.6-4.4 11.2-9h6.1v34.9h.1zm27.9 0h-7.4V49.2l.1-3.3.1-3.6c-1.2 1.2-2.1 2-2.6 2.4l-4 3.2-3.6-4.4 11.2-9h6.1l.1 34.9zm82.5 427.3c0-6.9 1.5-12 4.4-15.4s7.3-5.1 13.1-5.1c2 0 3.5.1 4.7.4v5.9c-1.4-.3-2.8-.5-4.2-.5-2.5 0-4.6.4-6.2 1.1-1.6.8-2.8 1.9-3.6 3.4s-1.3 3.6-1.4 6.4h.3c1.6-2.7 4.1-4.1 7.6-4.1 3.1 0 5.6 1 7.3 2.9 1.8 2 2.6 4.7 2.6 8.1 0 3.7-1.1 6.7-3.2 8.8-2.1 2.2-5 3.3-8.7 3.3-2.6 0-4.8-.6-6.7-1.8s-3.4-2.9-4.4-5.2c-1.1-2.2-1.6-5-1.6-8.2zm12.6 9.4c1.6 0 2.8-.5 3.6-1.6.8-1.1 1.3-2.6 1.3-4.5 0-1.7-.4-3-1.2-4-.8-1-2-1.5-3.6-1.5-1.5 0-2.8.5-3.8 1.5-1.1 1-1.6 2.1-1.6 3.4 0 1.9.5 3.5 1.5 4.8s2.3 1.9 3.8 1.9zm-8.7-470.7h-7.4V15.2l.1-3.3.1-3.6c-1.2 1.2-2.1 2-2.6 2.4l-4 3.2-3.6-4.4 11.2-9h6.1l.1 34.9zm34.1 0h-24.4v-5.1l8.8-8.9c2.6-2.7 4.3-4.5 5.1-5.5.8-1 1.4-2 1.7-2.9.4-.9.5-1.8.5-2.7 0-1.4-.4-2.4-1.2-3.1s-1.8-1-3.1-1c-1.4 0-2.7.3-3.9.9-1.3.6-2.6 1.5-4 2.6l-4-4.8c1.7-1.5 3.1-2.5 4.3-3.1 1.1-.6 2.4-1.1 3.7-1.4 1.3-.3 2.8-.5 4.5-.5 2.2 0 4.1.4 5.8 1.2 1.7.8 3 1.9 3.9 3.3s1.4 3.1 1.4 4.9c0 1.6-.3 3.1-.8 4.5-.6 1.4-1.4 2.9-2.6 4.3s-3.3 3.6-6.3 6.3l-4.5 4.2v.3h15.2v6.5h-.1z"/></svg>