<svg version="1.1" xmlns="http://www.w3.org/2000/svg" x="0" y="0" viewBox="0 0 512 512" xml:space="preserve"><path d="M269.6 489.3c-.7-.5-1.4-.9-2.1-1.3-.9-.5-1.9-.8-3-.8h-.5v-78.4c14.4-.5 28.4-2.4 41.9-5.6l-4.1-10.3c-8.5 1.9-17.3 3.3-26.2 4.1l-3.6-5h-8V25.7c0-4.3-.6-8.5-1.9-12.7-1.7-5.7-4.3-13-6.1-13s-4.4 7.3-6.1 13c-1.3 4.2-1.9 8.4-1.9 12.7V392h-4l-3.8 5.4c-10.2-.8-20.2-2.3-29.9-4.5l-4.1 10.3c13.5 3.2 27.5 5 41.9 5.6v78.4h-.5c-1 0-2.1.3-3 .8-.7.4-1.4.9-2.1 1.3-2.9 2-3.4 6.1-1.1 8.8l10.1 11.8c2.4 2.8 6.7 2.8 9.1 0l10.1-11.8c2.2-2.7 1.8-6.7-1.1-8.8z"/></svg>