<?xml version="1.0" encoding="utf-8"?>
<!-- Generator: Adobe Illustrator 19.2.0, SVG Export Plug-In . SVG Version: 6.00 Build 0)  -->
<svg version="1.1" id="Layer_2" xmlns="http://www.w3.org/2000/svg" xmlns:xlink="http://www.w3.org/1999/xlink" x="0px" y="0px"
	 viewBox="0 0 512 512" style="enable-background:new 0 0 512 512;" xml:space="preserve">
<style type="text/css">
	.st0{opacity:0.1;fill:#FFFFFF;}
	.st1{fill:none;stroke:#FFFFFF;stroke-width:5;stroke-miterlimit:10;}
	.st2{fill:#FFFFFF;}
</style>
<path class="st0" d="M456.6,80.9c-23-16.8-60.4-5-85.4,26.2c1.2,4.2,2.2,8.5,2.9,13c4.8,29.6-2.7,57.3-17.7,73.4
	c2.6,4.2,6,7.9,10,10.9c23.9,17.5,63.5,4,88.4-30.1C479.7,140.1,480.5,98.3,456.6,80.9z"/>
<path class="st1" d="M456.6,80.9c-23-16.8-60.4-5-85.4,26.2c1.2,4.2,2.2,8.5,2.9,13c4.8,29.6-2.7,57.3-17.7,73.4
	c2.6,4.2,6,7.9,10,10.9c23.9,17.5,63.5,4,88.4-30.1C479.7,140.1,480.5,98.3,456.6,80.9z"/>
<path class="st2" d="M185.6,265.5c0,0,2.2,10.3,0,15.2c-2.2,4.9-17.1,18.9-17.1,18.9l31.5,4.3c0,0,3.9-10.7,4.9-17.6
	c1-6.9,0-15.1,0-15.1"/>
<path class="st2" d="M402.6,177.4c-8.4-4.9-19.8-7.8-31.6-9.9c-6.9,21.5-21.3,37-39.9,40c-30.7,4.9-61.2-26.2-68.1-69.6
	c-0.6-3.9-1-7.8-1.3-11.6c-18.1-7.6-39.1-13.9-62.6-15.5c-64.8-4.4-101,78.2-111.2,111.2s-14.6,59.7-10.2,102.3
	c4.4,42.6,29.9,86.1,44.8,102c14.9,15.9,34.6,35.9,62.6,35.9c37.5,0,50.9-27.7,54-41c4.3-22.8-17.5-66.7-47-68.3
	c-29.6-1.6-38.1,17.2-38.1,29.9c0,12.7,14.9,26.7,26.4,27.3s23.8-7,22.6-17.8s-9.5-5.7-9.5-5.7s1.9,9.5-6.4,10.2
	c-8.3,0.6-15.9-6.4-14.6-14C173.8,375,182,368,196,370s29.9,30.5,27.3,44.5c-2.5,14-8.3,35.6-38.8,29.2
	c-39.4-8.3-87.7-80.1-85.8-132.2c1.9-52.1,40.7-80.1,40.7-80.1s31.8,44.5,93.4,41.9c61.6-2.5,104.9-16.5,104.9-16.5
	s15.9,6.6,39.4,4.4c34.3-7,66.2-33.7,66.2-33.7S422.3,188.8,402.6,177.4z"/>
<ellipse transform="matrix(0.9874 -0.1585 0.1585 0.9874 -16.4066 52.1051)" class="st0" cx="318.5" cy="128.9" rx="56.2" ry="79.5"/>
<ellipse transform="matrix(0.9874 -0.1585 0.1585 0.9874 -16.4066 52.1051)" class="st1" cx="318.5" cy="128.9" rx="56.2" ry="79.5"/>
<circle class="st2" cx="302.3" cy="142.1" r="13.1"/>
<circle class="st2" cx="443.4" cy="128.9" r="13.1"/>
<g>
	<path class="st2" d="M44.8,294.6H6.6c0,0-4.3,8.9-4.3,17.6c0,8.7,4.3,17.6,4.3,17.6h38.1V294.6z"/>
	<path class="st2" d="M75.3,294.6H37.2c0,0-4.3,8.9-4.3,17.6c0,8.7,4.3,17.6,4.3,17.6h38.1V294.6z"/>
	<path class="st2" d="M421.6,294.6H63.8c0,0-4.3,8.9-4.3,17.6c0,8.7,4.3,17.6,4.3,17.6h357.8l88-17.6L421.6,294.6z"/>
	<path class="st2" d="M421.6,294.6c0,0-5.3,6.2-5.3,17.6c0,11.4,5.3,17.6,5.3,17.6l88-17.6L421.6,294.6z"/>
	<path class="st2" d="M466.7,303.7c0,0-2.2,4-2.2,8.6c0,4.6,2.2,8.6,2.2,8.6l42.9-8.6L466.7,303.7z"/>
</g>
<path class="st2" d="M338.1,329.9c0,2.5,11.5,19.8,32.1,17.8c21.1-2.1,32.1-17.8,32.1-17.8h-21c0,0-5.9,3.3-13.8,3.3
	c-7.9,0-12.6-1.1-15-3.3c-2.5-2.2-2-4.9-8-4.9C340,325,338.1,327.4,338.1,329.9z"/>
<path class="st2" d="M142.7,228.7c0,0-7.6,14.9-8.3,28.3c-0.7,13.3,5.5,31.9,5.5,31.9s-10.2,11.7-11.8,20.3c-0.8,4.2-0.6,9,4.8,15.9
	c5.5,7.1,10.6,10.5,13,11.2c4.8,1.2,7.9-0.9,11-2.6s7.3-2.9,4.6-3.8c-8.1-0.7-17.6-16.5-15.3-20.3c2.4-3.8,9-14.9,9-14.9h16
	c0,0-17.9-21.1-17.6-27s12.4-28.3,12.4-28.3"/>
<path class="st2" d="M253.5,239.4c0,0-7.1,15.3-4.8,27.6c2.4,12.4,18.7,27.6,18.7,27.6s-1.4,12.4,0,19.7c1.4,7.3,5.8,23.4,17.1,25.9
	c11.2,2.5,20.2-10.3,20.2-10.3h-15c0,0-7.8-10.1-6.7-17.6c1.2-7.5,15.3-17.6,15.3-17.6h13.5c0,0-8.9-9.4-16.8-9.2
	c-7.9,0.2-16.2,7.3-16.2,7.3s-5-9.2-6.4-11s-7.2-19.2-5.8-25.6s9.2-16.8,9.2-16.8"/>
<path class="st2" d="M311.8,263.4l30.1,31.2c0,0-0.7,1.7-3.6,7.6c-2.9,5.9-3.8,8.7-1.3,10c2.5,1.3,9.8-6,13-10c3.2-4,6-7.6,6-7.6
	h44.6c0,0-15.6-10.4-26.5-11c-11-0.6-21.6-1.1-21.6-1.1l-14.9-25.7"/>
</svg>
