<?xml version="1.0" encoding="utf-8"?>
<!-- Generator: Adobe Illustrator 21.0.2, SVG Export Plug-In . SVG Version: 6.00 Build 0)  -->
<svg version="1.1" id="image" xmlns="http://www.w3.org/2000/svg" xmlns:xlink="http://www.w3.org/1999/xlink" x="0px" y="0px"
	 viewBox="0 0 512 512" style="enable-background:new 0 0 512 512;" xml:space="preserve">
<style type="text/css">
	.st0{fill:#221E1F;}
</style>
<g>
	<path class="st0" d="M295,158.8c2.1,0,4.1-0.5,5.9-1.5c0.9-0.5,1.7-1.1,2.5-1.7c0.7-0.6,1.3-1.3,1.9-2.1c1.5-2.1,2.4-4.6,2.4-7.4
		c0-7-5.7-12.7-12.7-12.7c-5.2,0-9.7,3.1-11.6,7.6c-0.4,0.9-0.7,1.8-0.8,2.7c-0.1,0.8-0.2,1.6-0.2,2.4c0,0.2,0,0.4,0,0.7
		C282.7,153.5,288.2,158.8,295,158.8z"/>
	<circle class="st0" cx="431" cy="133.5" r="12.7"/>
	<path class="st0" d="M410.6,290.6l-19.7,0c-3.1-2-16.3-10.1-26.3-10.6l-19.3-1l-10.1-17.4c6.8,1.7,18.1,3.6,32.3,2.3l0.3,0
		c33.4-6.8,63.8-32,65.1-33.1l1.7-1.4l-1.1-2c-0.5-0.8-6.5-11.9-15-23.6c9.6-6.3,18.4-14.8,25.8-24.9c11.9-16.3,18.7-35,19-52.6
		c0.3-17.9-6-32.6-17.9-41.3c-22.3-16.3-57.9-6.4-82.8,21.9c-11.4-33.7-37.9-56-64.5-51.7c-27.2,4.4-45.6,35-45.1,71.6
		c-16.7-6.7-35.9-12.1-57.2-13.5c-72.8-5-106.5,97.5-110.1,109.2c-7,22.7-11.4,42.8-11.6,68.2H63.3H50.4h-1H37.6H8.2l-0.8,1.6
		c-0.2,0.4-4.4,9.3-4.4,18.2s4.2,17.8,4.4,18.2l0.8,1.6h29.4h11.8h1h12.9h13.6c6.3,38.3,28.6,76.9,42.9,92
		c13.3,14.1,33.4,35.5,62.4,35.5c33.3,0,50.3-22.4,54.8-41.8c2.6-13.9-4.1-34.8-15.9-49.9c-9.3-11.8-20.7-18.7-32-19.3
		c-13-0.7-23.1,2.4-30.2,9.1c-8.5,8.1-9.4,18.4-9.4,22.4c0,14.2,15.8,28.4,28,29.1c7.6,0.4,15.5-2.6,20.2-7.6c3.4-3.7,5-8,4.4-12.7
		c-0.5-4.3-2.1-7.1-4.8-8.4c-3.9-1.9-8.1,0.6-8.6,0.9l-1.6,1l0.4,1.9c0.2,0.9,0.4,3.7-0.8,5.2c-0.6,0.8-1.5,1.2-2.8,1.3
		c-3.3,0.3-6.7-1.1-8.9-3.6c-1.8-2-2.6-4.4-2.2-6.7c1-6.1,8.1-11.6,19.6-10c4.3,0.6,9.4,4.7,14.2,11.2c6.8,9.4,11.1,21.7,9.8,28.5
		c-1.6,8.8-4.2,18.4-11.7,23.5c-5.4,3.6-12.9,4.5-22.4,2.5c-32.8-6.9-70.4-59.2-78.8-104.2h31.2c3.3,3.2,6.6,5.5,9,6.1
		c1.2,0.3,2.3,0.4,3.3,0.4c3.5,0,6.2-1.5,8.5-2.7l0.8-0.4c0.7-0.4,1.4-0.7,2.2-1c1.5-0.7,2.9-1.4,3.8-2.3h103
		c2.9,4.7,6.9,8.7,12.4,9.9c1.2,0.3,2.4,0.4,3.5,0.4c8.8,0,15.6-7.3,17.9-10.3h28.8c1.3,2.6,4,5.8,6.5,8.1
		c3.9,3.6,11.9,9.1,23.2,9.1c1.1,0,2.2-0.1,3.4-0.2c18.2-1.8,29-13.3,32-17.1h17.6l98.6-19.8L410.6,290.6z M396.7,324.5h-26.2h-25.9
		c-0.2-0.2-0.3-0.4-0.5-0.7c-1.6-2.2-3.3-4.1-8.5-4.1c-4.6,0-7.3,2.1-8.4,4.7h-24.6h-18.3c-1.8-2.6-4.6-7.4-5.1-11.5h49
		c0.3,0.1,0.6,0.1,0.9,0.1c0.3,0,0.7,0,1-0.1h72.2c0.4,4.9,1.7,8.8,2.9,11.5H396.7z M334.1,330c-0.9-1.2-1.5-2.2-1.8-2.8
		c0-0.1-0.1-0.1-0.1-0.2c0.1-1.6,2.2-1.8,3.4-1.8c2.7,0,3.1,0.5,3.9,1.7c0.1,0.1,0.1,0.2,0.2,0.3c0.4,0.6,1,1.3,1.8,2
		c0.3,0.3,0.6,0.5,0.9,0.7c3.1,2.2,7.9,3.2,15.4,3.2c6.8,0,12.1-2.3,14-3.2h13.4c-4.6,4.3-13,10.4-25,11.6
		C346.4,343,337.7,334.8,334.1,330z M278.5,334.6c-2.7-0.6-5-2.3-6.8-4.5c-0.7-0.9-1.4-1.8-2-2.8c-0.5-0.9-1-1.8-1.5-2.8
		c-1.9-4-3.1-8.4-3.8-11.5c-0.1-0.5-0.2-0.9-0.3-1.3c-0.1-0.5-0.2-1-0.2-1.5c-0.1-0.9-0.2-1.8-0.2-2.8c-0.2-4.1,0.1-8.7,0.3-11.5
		c0.1-1.5,0.2-2.4,0.2-2.4l0-0.3l0.1-1.1l-1-0.9c0,0-0.3-0.3-0.7-0.7c-2.2-2.2-9-9.1-13.2-16.4c-0.5-0.9-1-1.8-1.4-2.6
		c-0.4-0.9-0.8-1.8-1.1-2.7c-0.3-0.9-0.6-1.8-0.8-2.7c-2.1-10.9,4.3-24.8,4.4-25L248,240l-2.5-1.2c-0.3,0.6-7.2,15.7-4.8,28.4
		c0.1,0.7,0.3,1.4,0.5,2.1c-4.3,0.3-8.7,0.6-13.2,0.7c-29.6,1.2-52-9.3-66.8-19.7c1.6-3.3,3.3-6.4,4.7-9l-2.4-1.3l0,0l-2.4-1.3
		c0,0-0.1,0.1-0.1,0.2c-0.8,1.4-2.4,4.4-4.2,8.1c-0.4,0.8-0.9,1.7-1.3,2.6c-0.4,0.8-0.8,1.6-1.2,2.4c-2.8,5.9-5.4,12.1-5.5,15.2
		c-0.2,5,8.3,16.4,13.9,23.4h-11.1l0,0l-0.8,1.3c0,0-0.3,0.6-0.8,1.4c-0.4,0.7-1,1.7-1.6,2.8c-2,3.4-4.8,8-6.1,10.2
		c-0.3,0.4-0.4,0.8-0.6,1.3c-0.2,0.9-0.3,1.8-0.1,2.8c0.1,0.9,0.3,1.8,0.6,2.8c0.4,1.1,0.8,2.1,1.3,3.1c1.4,2.9,3.5,5.9,5.9,8.4
		c1,1,2,2,3.1,2.8c0.5,0.4,1,0.7,1.5,1c-0.2,0.1-0.3,0.2-0.5,0.3l-0.8,0.5c-0.7,0.4-1.4,0.7-2,1.1c-1.8,0.8-3.5,1.3-5.8,0.7
		c-0.4-0.1-0.9-0.3-1.6-0.7c-1-0.6-2.2-1.5-3.6-2.8c-0.9-0.8-1.8-1.7-2.8-2.8c-1-1-2-2.2-3-3.5c-2.5-3.2-3.6-5.8-4.1-8
		c-0.2-1-0.3-1.9-0.2-2.8c0-0.8,0.1-1.6,0.3-2.4c0-0.1,0.1-0.2,0.1-0.4c0.8-3.5,3.3-7.8,5.8-11.5c0.7-1,1.3-1.9,2-2.8
		c0.8-1.1,1.5-2,2.1-2.7c0.3-0.4,0.6-0.7,0.8-1l1-1.2l-0.5-1.5c-0.1-0.2-5.8-17.6-5.1-29.8c0.3-6.3,2.4-13,4.3-18
		c0.4-1,0.8-2,1.1-2.8c0.4-1.1,0.9-2,1.2-2.8c0.7-1.5,1.1-2.4,1.1-2.4l-2.4-1.2l-2.5-1.3c0,0,0,0,0,0l0,0l-2.2,1.6
		c-1.4,1-29.4,21.6-38,60.5l-6.7,0v0h-12c0.2-24.8,4.5-44.5,11.3-66.6c3.4-11,34.4-105.5,99.7-105.5c1.6,0,3.1,0.1,4.7,0.2
		c21.6,1.5,41,7.2,57.9,14.1c0.2,3.2,0.6,6.5,1.1,9.8c6.5,40.2,33.6,69.9,62.3,69.9c2.2,0,4.4-0.2,6.6-0.5c8.9-1.4,16.8-5.7,23.5-12
		c0.7-0.6,1.3-1.3,2-2c0.6-0.7,1.3-1.4,1.9-2.1c5.2-6.1,9.4-13.6,12.4-22.1c10.3,2,20,4.6,27.3,8.8c6.8,4,13.9,11.6,20.1,19.6
		c0.6,0.7,1.1,1.5,1.7,2.2c0.6,0.7,1.1,1.5,1.7,2.2c6.5,8.9,11.6,17.5,13.8,21.3c-7,5.4-33.2,24.8-60.7,30.4
		c-2.2,0.2-4.3,0.3-6.4,0.4l0,0c-18,0.4-30-4.4-30.1-4.4l-0.2-0.1l-0.8-0.3l0,0h0l-1,0.3c0,0,0,0-0.1,0c0,0,0,0,0,0c0,0-0.1,0-0.1,0
		c0,0-0.1,0-0.1,0c0,0,0,0,0,0c-3.1,1-27.5,8.3-63.6,12.7c-1-4.1-1.6-8.1-1.1-10.2c1-4.6,6.4-12.5,8.4-15.2l-2.2-1.6l0,0l-2.2-1.6
		c-0.1,0.1-0.5,0.7-1.2,1.6c-2.3,3.2-7,10.5-8.2,15.6c-0.6,2.8-0.1,7.4,1,12.1c0.2,0.9,0.4,1.8,0.7,2.7c0.2,0.9,0.5,1.8,0.7,2.7
		c1.4,4.7,2.9,8.6,3.8,9.6c0.7,0.8,2.9,4.6,4.7,7.9c0.4,0.8,0.8,1.5,1.2,2.2l0.3,0.5l1.3,2.5l2.6-2.2c0,0,0.1-0.1,0.3-0.3
		c0.6-0.5,2.1-1.6,4-2.7c2.7-1.6,6.2-3.3,9.6-3.4c2.7-0.1,5.9,1.5,8.6,3.3h-6.4l0,0l-0.7,0.5c-0.4,0.3-1.5,1.1-2.9,2.2
		c-1,0.8-2.1,1.7-3.2,2.8c-3.5,3.2-7.4,7.4-9,11.5c-0.3,0.8-0.5,1.6-0.7,2.3c0,0.1,0,0.3,0,0.4c-0.1,0.9-0.1,1.8-0.1,2.8
		c0.3,4.2,2.3,8.4,4.1,11.5c0.6,1.1,1.2,2,1.7,2.8c0.6,0.9,1,1.5,1.2,1.7l0.8,1.1h9.6C288.1,332.8,283.5,335.7,278.5,334.6z
		 M180.1,267c0.6,3.7,1,9.1-0.1,11.7c-0.9,2.1-5.6,7.2-10.2,11.9c-7.7-9.2-15.7-20.5-15.6-23.2c0.1-1.9,2-6.8,4.5-12.1
		C164.7,259.4,171.8,263.6,180.1,267z M198.5,272.9c0.2,2.7,0.4,7.6-0.2,11.9c-0.2,1.7-0.7,3.7-1.2,5.7l-19.7,0
		c3.4-3.6,6.6-7.3,7.6-9.6c1.4-3.2,1.3-8,0.9-11.6C189.9,270.7,194.1,271.9,198.5,272.9z M202.8,290.5c0.4-1.7,0.8-3.4,1-4.9
		c0.6-4.1,0.5-8.6,0.3-11.6c7.4,1.3,15.4,1.9,24.1,1.5c5.2-0.2,10.3-0.5,15.2-0.9c3.1,6.1,8,12,11.6,15.9L202.8,290.5z M164.1,296h4
		h4h2.4h21.1h2.9h2.9h57.1c-0.2,2.9-0.5,7.3-0.3,11.5H147.8c2.1-3.4,5.4-8.9,6.9-11.5H164.1z M159.3,324.5c-2.4-0.3-5.9-3-8.7-7
		c-1.2-1.6-2-3.2-2.6-4.4h110.9c0.7,3.3,1.7,7.4,3.4,11.5H159.3z M180.9,439.7c11,2.3,19.9,1.2,26.6-3.3
		c9.2-6.2,12.3-17.1,14.1-27.1c1.8-9.8-4.4-23.8-10.8-32.7c-5.7-7.9-12.1-12.6-17.9-13.4c-15-2-24.3,5.8-25.8,14.5
		c-0.7,4,0.6,8.1,3.6,11.3c3.4,3.7,8.4,5.7,13.4,5.3c3.7-0.3,5.7-2,6.8-3.5c1.8-2.4,2.1-5.3,2-7.4c0.6-0.2,1.3-0.2,1.8,0
		c0.8,0.4,1.4,1.9,1.7,4.1c0.4,3.7-1.4,6.5-3,8.2c-3.7,3.9-9.9,6.2-15.9,5.8c-9.4-0.5-22.8-12.8-22.8-23.6c0-3.3,0.8-11.8,7.7-18.4
		c6-5.7,14.8-8.2,26.2-7.6c9.8,0.5,19.7,6.6,28,17.2c10.7,13.7,17.1,33.2,14.8,45.3c-0.9,3.8-9.9,37.4-49.4,37.4
		c-26.6,0-45.7-20.3-58.4-33.8c-13.6-14.5-35-51.3-41.3-88.2h9.2h5.9c3.5,19.5,12.3,40.9,25.2,60.6
		C140.5,417.4,162.2,435.8,180.9,439.7z M99.5,324.5h-2.8h-5.1H89h-2.8h-4.6h-2.8h0h-2.8h0h-2.8h-6.5c-0.9-2.3-2.5-6.8-3-11.5h9.5
		H75h1.1h1.7h1.1h1.7h5.7H89h2.8H96h2.8h2.8H124c0.5,3.2,1.9,6.9,5.3,11.3c0,0,0.1,0.1,0.1,0.1h-27.2H99.5z M54,324.5
		c-1.1-2.7-3.2-8.6-3.2-14.2c0-5.7,2.1-11.5,3.2-14.2h7c-1.3,3.5-2.8,8.9-2.8,14.2s1.5,10.8,2.8,14.2H54z M46.7,324.5h-2.8h-2.8
		c-1.1-2.7-3.2-8.6-3.2-14.2c0-5.7,2.1-11.5,3.2-14.2h2.8h2.8h1.4c-0.5,1.3-1,2.8-1.4,4.5c-0.8,2.9-1.4,6.3-1.4,9.7s0.6,6.8,1.4,9.7
		c0.4,1.7,1,3.2,1.4,4.5H46.7z M11.7,324.5c-1.1-2.7-3.2-8.6-3.2-14.2c0-5.7,2.1-11.5,3.2-14.2h23.5c-1.3,3.5-2.8,8.9-2.8,14.2
		s1.5,10.8,2.8,14.2H11.7z M76.9,296h1.9h0.8h6.5H89h2.8h5.6h2.8h2.8h26c-2.1,3.5-4,7.3-4.7,10.8c0,0.2-0.1,0.4-0.1,0.7h-22.5h-2.8
		h-2.8h-4.4H89h-2.8h-6.1h-1.3h-1.5h-1.3h-1.5h-1.3h-9.5c0.5-4.7,2.1-9.2,3-11.5h6.5h0.8h1.9H76.9z M135.3,287.1
		c-0.7,0.8-1.6,2-2.6,3.4l-28.6,0c6.2-26,21.7-43.5,30-51.3c-1.8,5.1-3.5,11.5-3.8,17.6C129.7,268,133.8,282.5,135.3,287.1z
		 M299,60.5c1.9-0.3,3.8-0.5,5.8-0.5c22.8,0,44.6,21.3,53.7,51.8c0.3,1.1,0.6,2.2,0.9,3.3c0.3,1.2,0.6,2.3,0.9,3.5
		c0.5,2.2,0.9,4.4,1.3,6.7c2.4,15.1,1.5,29.6-2.1,42.2c-0.3,0.9-0.5,1.8-0.8,2.7c-0.3,0.9-0.6,1.8-0.9,2.6c-2.5,6.9-5.9,13-10,18.1
		c-0.6,0.8-1.3,1.5-1.9,2.3c-0.6,0.7-1.3,1.4-2,2.1c-6,6-13.3,10-21.4,11.3c-28,4.5-56.1-24.6-62.5-64.8c-0.3-2.2-0.6-4.3-0.8-6.5
		c-0.1-1-0.2-2.1-0.3-3.1c-0.1-1-0.1-2.1-0.2-3.1C257.2,94,273.9,64.5,299,60.5z M442.2,89.3c10.4,7.6,16,20.6,15.7,36.7
		c-0.3,16.4-6.7,34-18,49.4c-7.1,9.7-15.5,17.8-24.7,23.8c-6.6-8.6-14.4-17-22.1-21.5c-7.7-4.5-17.8-7.3-28.4-9.4
		c3.7-13.2,4.7-28.3,2.2-44c-0.6-3.9-1.5-7.7-2.5-11.4C387.6,84.9,421.5,74.2,442.2,89.3z M405.2,296c-1.3,2.7-2.6,6.6-2.9,11.5
		h-63.7c2.4-2.3,4.3-4.6,4.7-5.2l5-6.3h50.8H405.2z M280.6,307.5c2.5-3.9,7.7-8.6,11.5-11.5h18.5H329c-0.4,0.9-1,2-1.6,3.4
		c-1.3,2.6-2.7,5.5-2.9,8.1H280.6z M276.6,270.9c10.1-1.5,19.1-3.2,26.7-4.8l23.5,24.4l-21.4,0c-2.5-2.5-10-9.1-17.5-8.9
		c-5.7,0.2-11.4,3.4-14.7,5.6c-1.6-2.9-3.9-6.9-4.9-8.1c-0.5-0.8-1.5-3.5-2.5-6.8C269.5,271.9,273.1,271.4,276.6,270.9L276.6,270.9z
		 M345.6,290.5L345.6,290.5l-2.2,2.8l-2.2,2.8l-2.3,2.9c-3,3.8-7,7.4-9,8.4c0.4-1.5,1.8-4.4,2.3-5.5c1.4-2.8,2.2-4.6,2.8-5.8
		c0.6-1.2,0.7-1.7,0.8-1.7l0.4-1l0.3-0.6l-2-2.1l-24.9-25.8c8.9-2,15.2-3.8,18.3-4.7l14.1,24.2l22.3,1.1c4.7,0.2,10.6,2.7,15.4,5.1
		H345.6z M411.3,324.2c-0.4-0.6-0.8-1.4-1.2-2.4c-1.2-2.6-2.4-6.5-2.4-11.6c0-5.1,1.2-9,2.4-11.6c0.4-1,0.9-1.8,1.2-2.4l41.2,8.2
		c-0.5,1.5-1,3.5-1,5.7c0,2.2,0.5,4.2,1,5.7L411.3,324.2z"/>
</g>
</svg>
