<svg version="1.1" xmlns="http://www.w3.org/2000/svg" x="0" y="0" viewBox="0 0 512 512" xml:space="preserve"><path d="M502 172H10c-5.5 0-10 4.5-10 10v148c0 5.5 4.5 10 10 10h492c5.5 0 10-4.5 10-10V182c0-5.5-4.5-10-10-10zm-144.8 12c0-1.1.9-2 2-2h15.9c1.1 0 2 .9 2 2v10c0 1.1-.9 2-2 2h-15.9c-1.1 0-2-.9-2-2v-10zm1.6 46v17c0 1.1-.9 2-2 2h-17c-1.1 0-2-.9-2-2v-17c0-1.1.9-2 2-2h17c1.1 0 2 .9 2 2zm-20 27v17c0 1.1-.9 2-2 2h-17c-1.1 0-2-.9-2-2v-17c0-1.1.9-2 2-2h17c1.1 0 2 .9 2 2zm16-54v17c0 1.1-.9 2-2 2h-17c-1.1 0-2-.9-2-2v-17c0-1.1.9-2 2-2h17c1.1 0 2 .9 2 2zm-22.3-19c0-1.1.9-2 2-2h15.9c1.1 0 2 .9 2 2v10c0 1.1-.9 2-2 2h-15.9c-1.1 0-2-.9-2-2v-10zm.3 46v17c0 1.1-.9 2-2 2h-17c-1.1 0-2-.9-2-2v-17c0-1.1.9-2 2-2h17c1.1 0 2 .9 2 2zm-20 27v17c0 1.1-.9 2-2 2h-17c-1.1 0-2-.9-2-2v-17c0-1.1.9-2 2-2h17c1.1 0 2 .9 2 2zm-3.9-73c0-1.1.9-2 2-2h15.9c1.1 0 2 .9 2 2v10c0 1.1-.9 2-2 2h-15.9c-1.1 0-2-.9-2-2v-10zm-1.1 19c0-1.1.9-2 2-2h17c1.1 0 2 .9 2 2v17c0 1.1-.9 2-2 2h-17c-1.1 0-2-.9-2-2v-17zm-1 27v17c0 1.1-.9 2-2 2h-17c-1.1 0-2-.9-2-2v-17c0-1.1.9-2 2-2h17c1.1 0 2 .9 2 2zm-20 27v17c0 1.1-.9 2-2 2h-17c-1.1 0-2-.9-2-2v-17c0-1.1.9-2 2-2h17c1.1 0 2 .9 2 2zm-2.6-73c0-1.1.9-2 2-2h15.9c1.1 0 2 .9 2 2v10c0 1.1-.9 2-2 2h-15.9c-1.1 0-2-.9-2-2v-10zm-2.4 19c0-1.1.9-2 2-2h17c1.1 0 2 .9 2 2v17c0 1.1-.9 2-2 2h-17c-1.1 0-2-.9-2-2v-17zm-1 27v17c0 1.1-.9 2-2 2h-17c-1.1 0-2-.9-2-2v-17c0-1.1.9-2 2-2h17c1.1 0 2 .9 2 2zm-20 27v17c0 1.1-.9 2-2 2h-17c-1.1 0-2-.9-2-2v-17c0-1.1.9-2 2-2h17c1.1 0 2 .9 2 2zm-1.3-73c0-1.1.9-2 2-2h15.9c1.1 0 2 .9 2 2v10c0 1.1-.9 2-2 2h-15.9c-1.1 0-2-.9-2-2v-10zm-3.7 19c0-1.1.9-2 2-2h17c1.1 0 2 .9 2 2v17c0 1.1-.9 2-2 2h-17c-1.1 0-2-.9-2-2v-17zm-1 44c0 1.1-.9 2-2 2h-17c-1.1 0-2-.9-2-2v-17c0-1.1.9-2 2-2h17c1.1 0 2 .9 2 2v17zm-203-17c0-1.1.9-2 2-2h17c1.1 0 2 .9 2 2v17c0 1.1-.9 2-2 2h-17c-1.1 0-2-.9-2-2v-17zm-2-8c-1.1 0-2-.9-2-2v-17c0-1.1.9-2 2-2h17c1.1 0 2 .9 2 2v17c0 1.1-.9 2-2 2h-17zm8 35c0-1.1.9-2 2-2h17c1.1 0 2 .9 2 2v17c0 1.1-.9 2-2 2h-17c-1.1 0-2-.9-2-2v-17zm37-37c0 1.1-.9 2-2 2h-17c-1.1 0-2-.9-2-2v-17c0-1.1.9-2 2-2h17c1.1 0 2 .9 2 2v17zm2 8c1.1 0 2 .9 2 2v17c0 1.1-.9 2-2 2h-17c-1.1 0-2-.9-2-2v-17c0-1.1.9-2 2-2h17zm-26 56c0-1.1.9-2 2-2h17c1.1 0 2 .9 2 2v17c0 1.1-.9 2-2 2h-17c-1.1 0-2-.9-2-2v-17zm15-8c-1.1 0-2-.9-2-2v-17c0-1.1.9-2 2-2h17c1.1 0 2 .9 2 2v17c0 1.1-.9 2-2 2h-17zm35-56c0 1.1-.9 2-2 2h-17c-1.1 0-2-.9-2-2v-17c0-1.1.9-2 2-2h17c1.1 0 2 .9 2 2v17zm2 8c1.1 0 2 .9 2 2v17c0 1.1-.9 2-2 2h-17c-1.1 0-2-.9-2-2v-17c0-1.1.9-2 2-2h17zm-26 56c0-1.1.9-2 2-2h17c1.1 0 2 .9 2 2v17c0 1.1-.9 2-2 2h-17c-1.1 0-2-.9-2-2v-17zm15-8c-1.1 0-2-.9-2-2v-17c0-1.1.9-2 2-2h17c1.1 0 2 .9 2 2v17c0 1.1-.9 2-2 2h-17zm35-56c0 1.1-.9 2-2 2h-17c-1.1 0-2-.9-2-2v-17c0-1.1.9-2 2-2h17c1.1 0 2 .9 2 2v17zm2 8c1.1 0 2 .9 2 2v17c0 1.1-.9 2-2 2h-17c-1.1 0-2-.9-2-2v-17c0-1.1.9-2 2-2h17zm-26 56c0-1.1.9-2 2-2h17c1.1 0 2 .9 2 2v17c0 1.1-.9 2-2 2h-17c-1.1 0-2-.9-2-2v-17zm15-8c-1.1 0-2-.9-2-2v-17c0-1.1.9-2 2-2h17c1.1 0 2 .9 2 2v17c0 1.1-.9 2-2 2h-17zm35-56c0 1.1-.9 2-2 2h-17c-1.1 0-2-.9-2-2v-17c0-1.1.9-2 2-2h17c1.1 0 2 .9 2 2v17zm2 8c1.1 0 2 .9 2 2v17c0 1.1-.9 2-2 2h-17c-1.1 0-2-.9-2-2v-17c0-1.1.9-2 2-2h17zm-26 56c0-1.1.9-2 2-2h17c1.1 0 2 .9 2 2v17c0 1.1-.9 2-2 2h-17c-1.1 0-2-.9-2-2v-17zm15-8c-1.1 0-2-.9-2-2v-17c0-1.1.9-2 2-2h17c1.1 0 2 .9 2 2v17c0 1.1-.9 2-2 2h-17zm35-56c0 1.1-.9 2-2 2h-17c-1.1 0-2-.9-2-2v-17c0-1.1.9-2 2-2h17c1.1 0 2 .9 2 2v17zm2 8c1.1 0 2 .9 2 2v17c0 1.1-.9 2-2 2h-17c-1.1 0-2-.9-2-2v-17c0-1.1.9-2 2-2h17zm-26 56c0-1.1.9-2 2-2h17c1.1 0 2 .9 2 2v17c0 1.1-.9 2-2 2h-17c-1.1 0-2-.9-2-2v-17zm15-8c-1.1 0-2-.9-2-2v-17c0-1.1.9-2 2-2h17c1.1 0 2 .9 2 2v17c0 1.1-.9 2-2 2h-17zm18-29v-17c0-1.1.9-2 2-2h17c1.1 0 2 .9 2 2v17c0 1.1-.9 2-2 2h-17c-1.1 0-2-.9-2-2zm-7 37c0-1.1.9-2 2-2h17c1.1 0 2 .9 2 2v17c0 1.1-.9 2-2 2h-17c-1.1 0-2-.9-2-2v-17zm15-8c-1.1 0-2-.9-2-2v-17c0-1.1.9-2 2-2h17c1.1 0 2 .9 2 2v17c0 1.1-.9 2-2 2h-17zm19-92c0-1.1.9-2 2-2h15.9c1.1 0 2 .9 2 2v10c0 1.1-.9 2-2 2h-15.9c-1.1 0-2-.9-2-2v-10zm-3 17h17c1.1 0 2 .9 2 2v17c0 1.1-.9 2-2 2h-17c-1.1 0-2-.9-2-2v-17c0-1.1.9-2 2-2zm-21.9-17c0-1.1.9-2 2-2h15.9c1.1 0 2 .9 2 2v10c0 1.1-.9 2-2 2h-15.9c-1.1 0-2-.9-2-2v-10zm12.9 17c1.1 0 2 .9 2 2v17c0 1.1-.9 2-2 2h-17c-1.1 0-2-.9-2-2v-17c0-1.1.9-2 2-2h17zm-37.6-17c0-1.1.9-2 2-2h15.9c1.1 0 2 .9 2 2v10c0 1.1-.9 2-2 2h-15.9c-1.1 0-2-.9-2-2v-10zm-24.7 0c0-1.1.9-2 2-2h15.9c1.1 0 2 .9 2 2v10c0 1.1-.9 2-2 2h-15.9c-1.1 0-2-.9-2-2v-10zm-24.7 0c0-1.1.9-2 2-2h15.9c1.1 0 2 .9 2 2v10c0 1.1-.9 2-2 2h-15.9c-1.1 0-2-.9-2-2v-10zm-24.9 0c0-1.1.9-2 2-2h15.9c1.1 0 2 .9 2 2v10c0 1.1-.9 2-2 2h-15.9c-1.1 0-2-.9-2-2v-10zm-24.8 0c0-1.1.9-2 2-2H104c1.1 0 2 .9 2 2v10h.1c0 1.1-.9 2-2 2h-16c-1.1 0-2-.9-2-2v-10zm-24.7 0c0-1.1.9-2 2-2h15.9c1.1 0 2 .9 2 2v10h.1c0 1.1-.9 2-2 2h-16c-1.1 0-2-.9-2-2v-10zm-24.6 0c0-1.1.9-2 2-2h15.9c1.1 0 2 .9 2 2v10c0 1.1-.9 2-2 2H38.8c-1.1 0-2-.9-2-2v-10zm-28 0c0-1.1.9-2 2-2h15.9c1.1 0 2 .9 2 2v10c0 1.1-.9 2-2 2H10.8c-1.1 0-2-.9-2-2v-10zm0 19c0-1.1.9-2 2-2h30c1.1 0 2 .9 2 2v17c0 1.1-.9 2-2 2h-30c-1.1 0-2-.9-2-2v-17zm0 27c0-1.1.9-2 2-2h34c1.1 0 2 .9 2 2v17c0 1.1-.9 2-2 2h-34c-1.1 0-2-.9-2-2v-17zm0 27c0-1.1.9-2 2-2h40c1.1 0 2 .9 2 2v17c0 1.1-.9 2-2 2h-40c-1.1 0-2-.9-2-2v-17zm0 27c0-1.1.9-2 2-2h53c1.1 0 2 .9 2 2v17c0 1.1-.9 2-2 2h-53c-1.1 0-2-.9-2-2v-17zm40 44c0 1.1-.9 2-2 2H10.3c-1.1 0-2-.9-2-2v-17c0-1.1.9-2 2-2h36.5c1.1 0 2 .9 2 2v17zm27 0c0 1.1-.9 2-2 2h-18c-1.1 0-2-.9-2-2v-17c0-1.1.9-2 2-2h18c1.1 0 2 .9 2 2v17zm33 0c0 1.1-.9 2-2 2h-24c-1.1 0-2-.9-2-2v-17c0-1.1.9-2 2-2h24c1.1 0 2 .9 2 2v17zm137 0c0 1.1-.9 2-2 2h-128c-1.1 0-2-.9-2-2v-17c0-1.1.9-2 2-2h128c1.1 0 2 .9 2 2v17zm2-27c0 1.1-.9 2-2 2h-17c-1.1 0-2-.9-2-2v-17c0-1.1.9-2 2-2h17c1.1 0 2 .9 2 2v17zm24 27c0 1.1-.9 2-2 2h-17c-1.1 0-2-.9-2-2v-17c0-1.1.9-2 2-2h17c1.1 0 2 .9 2 2v17zm2-27c0 1.1-.9 2-2 2h-17c-1.1 0-2-.9-2-2v-17c0-1.1.9-2 2-2h17c1.1 0 2 .9 2 2v17zm24 27c0 1.1-.9 2-2 2h-17c-1.1 0-2-.9-2-2v-17c0-1.1.9-2 2-2h17c1.1 0 2 .9 2 2v17zm2-27c0 1.1-.9 2-2 2h-17c-1.1 0-2-.9-2-2v-17c0-1.1.9-2 2-2h17c1.1 0 2 .9 2 2v17zm24 27c0 1.1-.9 2-2 2h-17c-1.1 0-2-.9-2-2v-17c0-1.1.9-2 2-2h17c1.1 0 2 .9 2 2v17zm2-27c0 1.1-.9 2-2 2h-17c-1.1 0-2-.9-2-2v-17c0-1.1.9-2 2-2h17c1.1 0 2 .9 2 2v17zm24 27c0 1.1-.9 2-2 2h-17c-1.1 0-2-.9-2-2v-17c0-1.1.9-2 2-2h17c1.1 0 2 .9 2 2v17zm26 0c0 1.1-.9 2-2 2h-17c-1.1 0-2-.9-2-2v-17c0-1.1.9-2 2-2h17c1.1 0 2 .9 2 2v17zm0-27c0 1.1-.9 2-2 2h-41c-1.1 0-2-.9-2-2v-17c0-1.1.9-2 2-2h41c1.1 0 2 .9 2 2v17zm26 27c0 1.1-.9 2-2 2h-17c-1.1 0-2-.9-2-2v-17c0-1.1.9-2 2-2h17c1.1 0 2 .9 2 2v17zm0-27c0 1.1-.9 2-2 2h-17c-1.1 0-2-.9-2-2v-17c0-1.1.9-2 2-2h17c1.1 0 2 .9 2 2v17zm0-27c0 1.1-.9 2-2 2h-54c-1.1 0-2-.9-2-2v-17c0-1.1.9-2 2-2h54c1.1 0 2 .9 2 2v17zm0-27c0 1.1-.9 2-2 2h-34c-1.1 0-2-.9-2-2v-17c0-1.1.9-2 2-2h34c1.1 0 2 .9 2 2v17zm0-27c0 1.1-.9 2-2 2h-38c-1.1 0-2-.9-2-2v-17c0-1.1.9-2 2-2h38c1.1 0 2 .9 2 2v17zm0-26c0 1.1-.9 2-2 2h-15.9c-1.1 0-2-.9-2-2v-10c0-1.1.9-2 2-2h15.9c1.1 0 2 .9 2 2v10zm26 134c0 1.1-.9 2-2 2h-17c-1.1 0-2-.9-2-2v-17c0-1.1.9-2 2-2h17c1.1 0 2 .9 2 2v17zm1.9-27c0 1.1-.9 2-2 2h-15.9c-1.1 0-2-.9-2-2v-17c0-1.1.9-2 2-2h15.9c1.1 0 2 .9 2 2v17zm0-27c0 1.1-.9 2-2 2h-15.9c-1.1 0-2-.9-2-2v-17c0-1.1.9-2 2-2h15.9c1.1 0 2 .9 2 2v17zm0-27c0 1.1-.9 2-2 2h-15.9c-1.1 0-2-.9-2-2v-17c0-1.1.9-2 2-2h15.9c1.1 0 2 .9 2 2v17zm0-27c0 1.1-.9 2-2 2h-15.9c-1.1 0-2-.9-2-2v-17c0-1.1.9-2 2-2h15.9c1.1 0 2 .9 2 2v17zm0-26c0 1.1-.9 2-2 2h-15.9c-1.1 0-2-.9-2-2v-10c0-1.1.9-2 2-2h15.9c1.1 0 2 .9 2 2v10zm24.7 134c0 1.1-.9 2-2 2h-15.9c-1.1 0-2-.9-2-2v-17c0-1.1.9-2 2-2h15.9c1.1 0 2 .9 2 2v17zm0-27c0 1.1-.9 2-2 2h-15.9c-1.1 0-2-.9-2-2v-17c0-1.1.9-2 2-2h15.9c1.1 0 2 .9 2 2v17zm0-27c0 1.1-.9 2-2 2h-15.9c-1.1 0-2-.9-2-2v-17c0-1.1.9-2 2-2h15.9c1.1 0 2 .9 2 2v17zm0-27c0 1.1-.9 2-2 2h-15.9c-1.1 0-2-.9-2-2v-17c0-1.1.9-2 2-2h15.9c1.1 0 2 .9 2 2v17zm0-27c0 1.1-.9 2-2 2h-15.9c-1.1 0-2-.9-2-2v-17c0-1.1.9-2 2-2h15.9c1.1 0 2 .9 2 2v17zm0-26c0 1.1-.9 2-2 2h-15.9c-1.1 0-2-.9-2-2v-10c0-1.1.9-2 2-2h15.9c1.1 0 2 .9 2 2v10zm24.7 134c0 1.1-.9 2-2 2h-15.9c-1.1 0-2-.9-2-2v-17c0-1.1.9-2 2-2h15.9c1.1 0 2 .9 2 2v17zm0-27c0 1.1-.9 2-2 2h-15.9c-1.1 0-2-.9-2-2v-17c0-1.1.9-2 2-2h15.9c1.1 0 2 .9 2 2v17zm0-27c0 1.1-.9 2-2 2h-15.9c-1.1 0-2-.9-2-2v-17c0-1.1.9-2 2-2h15.9c1.1 0 2 .9 2 2v17zm0-27c0 1.1-.9 2-2 2h-15.9c-1.1 0-2-.9-2-2v-17c0-1.1.9-2 2-2h15.9c1.1 0 2 .9 2 2v17zm0-27c0 1.1-.9 2-2 2h-15.9c-1.1 0-2-.9-2-2v-17c0-1.1.9-2 2-2h15.9c1.1 0 2 .9 2 2v17zm0-26c0 1.1-.9 2-2 2h-15.9c-1.1 0-2-.9-2-2v-10c0-1.1.9-2 2-2h15.9c1.1 0 2 .9 2 2v10zm24.7 134c0 1.1-.9 2-2 2h-15.9c-1.1 0-2-.9-2-2v-44c0-1.1.9-2 2-2h15.9c1.1 0 2 .9 2 2v44zm0-54c0 1.1-.9 2-2 2h-15.9c-1.1 0-2-.9-2-2v-44c0-1.1.9-2 2-2h15.9c1.1 0 2 .9 2 2v44zm0-54c0 1.1-.9 2-2 2h-15.9c-1.1 0-2-.9-2-2v-17c0-1.1.9-2 2-2h15.9c1.1 0 2 .9 2 2v17zm0-26c0 1.1-.9 2-2 2h-15.9c-1.1 0-2-.9-2-2v-10c0-1.1.9-2 2-2h15.9c1.1 0 2 .9 2 2v10z" fill="#fff"/></svg>