<svg version="1.1" xmlns="http://www.w3.org/2000/svg" x="0" y="0" viewBox="0 0 512 512" xml:space="preserve"><path d="M256 132c13.8 0 25.2 11.2 25.5 25l.2 12 11-4.9c2.7-1.2 5.6-1.8 8.6-1.8 2.5 0 4.9.4 7.2 1.3 5.4 2 9.7 5.9 12 11.1 2.4 5.2 2.6 10.9.7 16.3-1.5 4-9.1 18.5-13.7 27-3.5 6.5-6.6 11.7-9 15.6-.7 1.1-1.8 3-3.3 5.7-3.9 6.8-10.3 18.2-17.1 28.4-9.9 14.8-14.5 17.7-15.5 18.2h-13.1c-1-.5-5.6-3.5-15.5-18.2-6.8-10.1-13.3-21.5-17.1-28.4-1.5-2.7-2.6-4.6-3.3-5.7-2.5-3.9-5.5-9.2-9-15.6-4.7-8.5-12.3-23-13.7-27-4-11.1 1.7-23.4 12.7-27.4 2.3-.8 4.8-1.3 7.2-1.3 3 0 5.9.6 8.6 1.8l11 4.9.2-12c.2-13.8 11.6-25 25.4-25m0-8c-18.3 0-33.1 14.7-33.5 32.8-3.7-1.6-7.7-2.5-11.8-2.5-3.4 0-6.7.6-9.9 1.8-15.2 5.5-23 22.4-17.5 37.7 1.9 5.3 11.2 22.5 14.2 28.2 3.6 6.6 6.7 12 9.3 16 4 6.4 30 56.1 42.2 56.1h14.2c12.1 0 38.2-49.7 42.2-56.1 2.5-4.1 5.6-9.4 9.3-16 3.1-5.6 12.3-22.9 14.2-28.2 2.7-7.3 2.3-15.3-.9-22.4-3.3-7.2-9.2-12.6-16.6-15.3-3.2-1.2-6.5-1.8-9.9-1.8-4.2 0-8.2.9-11.8 2.5-.6-18.1-15.5-32.8-33.7-32.8zm13.5 33.5c0 7.5-9.5 76.5-13.5 76.5s-13.5-69-13.5-76.5 6-13.5 13.5-13.5 13.5 6 13.5 13.5zm-61.9 17.4c-4.8 1.7-7.3 7.1-5.5 12 1.8 4.9 24.4 48 27 47.1 2.6-.9-7.7-48.5-9.5-53.4-1.9-4.9-7.2-7.5-12-5.7zm84.9 5.7c-1.8 4.9-12.1 52.5-9.5 53.4 2.6.9 25.2-42.2 27-47.1 1.8-4.9-.7-10.3-5.5-12s-10.2.8-12 5.7zM256 350c8.3 0 15 6.7 15 15s-6.7 15-15 15-15-6.7-15-15 6.7-15 15-15m0-8c-12.7 0-23 10.3-23 23s10.3 23 23 23 23-10.3 23-23-10.3-23-23-23zm0 16c-3.9 0-7 3.1-7 7s3.1 7 7 7 7-3.1 7-7-3.1-7-7-7zM101.4 161.9c2.1 0 4.1.8 5.7 2.3 3.1 3.1 3.1 8.2 0 11.3-1.5 1.5-3.5 2.3-5.7 2.3s-4.1-.8-5.7-2.3c-3.1-3.1-3.1-8.2 0-11.3 1.5-1.5 3.6-2.3 5.7-2.3m0-8c-4.1 0-8.2 1.6-11.3 4.7-6.2 6.2-6.2 16.4 0 22.6 3.1 3.1 7.2 4.7 11.3 4.7s8.2-1.6 11.3-4.7c6.2-6.2 6.2-16.4 0-22.6-3.1-3.1-7.2-4.7-11.3-4.7zm55.9 15.4c-9.7 12.8-14 28.6-12.1 44.4-2.3-.3-4.6-.4-7-.4-13.7 0-26.6 4.4-37.3 12.5 1.5-5.7 4.4-10.9 8.7-15.2 4.7-4.7 10.6-7.9 17.1-9.2l5.2-1 1-5.2c1.3-6.5 4.5-12.4 9.2-17.1 4.2-4.3 9.5-7.3 15.2-8.8m8.4-9.1c-10.6 0-21.2 4-29.3 12.1-6 6-9.8 13.4-11.3 21.2-7.8 1.5-15.2 5.3-21.2 11.3-10.9 10.9-14.5 26.5-10.6 40.4 1.9-2.9 4.2-5.7 6.8-8.2 10.5-10.5 24.4-15.8 38.2-15.8 5.9 0 11.8 1 17.5 2.9-6.5-18.9-2.2-40.6 12.9-55.7 2.6-2.6 5.3-4.8 8.2-6.8-3.7-.9-7.4-1.4-11.2-1.4zm12.9 197.9l.3-.1c16.8-4.2 29.2-18.7 31-36.1 2.4-24.9-18-49-44.7-52.5-14.7-1.7-29 2.4-41.3 12-9.3 7.3-16.8 17.2-21.6 28.6l-1.9 4.5c-4.2 10.2-10.9 19-19.1 25.5-10.6 8.3-22.8 11.8-35.4 10.4-20-2.7-39.9-20.9-37.7-43.8 1.4-14 11.4-25.7 24.8-29.1 12.2-2.1 23.8 3.3 28.1 13.2 1.9 4.4 1.9 9.4.1 13.7-2.2 3.7-6.3 7.9-11.2 7.9-2.2 0-4 1.8-4 4s1.8 4 4 4c8.3 0 14.9-6.3 18.2-12.1l.2-.4c2.8-6.4 2.8-13.8 0-20.3-5.8-13.3-21-20.7-37-17.9l-.3.1c-16.8 4.2-29.2 18.7-31 36.1-2.4 24.9 18 49 44.7 52.5 14.7 1.7 29-2.4 41.3-12 9.3-7.3 16.8-17.2 21.6-28.6l1.9-4.5c4.2-10.2 10.9-19 19.1-25.5 10.6-8.3 22.8-11.8 35.4-10.4 20 2.7 39.9 20.9 37.7 43.8-1.4 14-11.4 25.7-24.8 29.1-12.2 2.1-23.8-3.3-28.1-13.2-1.9-4.4-1.9-9.4-.1-13.7 2.2-3.7 6.3-7.9 11.2-7.9 2.2 0 4-1.8 4-4s-1.8-4-4-4c-8.3 0-14.9 6.3-18.2 12.1l-.2.4c-2.8 6.4-2.8 13.8 0 20.3 5 11.4 16.9 18.5 30.2 18.5 2.3 0 4.5-.2 6.8-.6zM173 322c-3.9 0-7 3.1-7 7s3.1 7 7 7 7-3.1 7-7-3.1-7-7-7zM36 291c-3.9 0-7 3.1-7 7s3.1 7 7 7 7-3.1 7-7-3.1-7-7-7zm208 39.5v-25c0-2.2-1.8-4-4-4s-4 1.8-4 4v25c0 2.2 1.8 4 4 4s4-1.8 4-4zm16 0v-25c0-2.2-1.8-4-4-4s-4 1.8-4 4v25c0 2.2 1.8 4 4 4s4-1.8 4-4zm16 0v-25c0-2.2-1.8-4-4-4s-4 1.8-4 4v25c0 2.2 1.8 4 4 4s4-1.8 4-4zm134.6-168.6c2.1 0 4.1.8 5.7 2.3 3.1 3.1 3.1 8.2 0 11.3-1.5 1.5-3.5 2.3-5.7 2.3-2.1 0-4.1-.8-5.7-2.3-1.5-1.5-2.3-3.5-2.3-5.7s.8-4.1 2.3-5.7c1.6-1.4 3.6-2.2 5.7-2.2m0-8c-4.1 0-8.2 1.6-11.3 4.7-6.2 6.2-6.2 16.4 0 22.6 3.1 3.1 7.2 4.7 11.3 4.7s8.2-1.6 11.3-4.7c6.2-6.2 6.2-16.4 0-22.6-3.1-3.1-7.2-4.7-11.3-4.7zm-55.9 15.4c5.7 1.5 10.9 4.5 15.2 8.7 4.7 4.7 7.9 10.6 9.2 17.1l1 5.2 5.2 1c6.5 1.3 12.4 4.5 17.1 9.2 4.3 4.3 7.2 9.5 8.7 15.2-10.7-8.1-23.7-12.5-37.3-12.5-2.3 0-4.7.1-7 .4 1.9-15.7-2.4-31.5-12.1-44.3m-8.4-9.1c-3.7 0-7.5.5-11.1 1.5 2.9 1.9 5.7 4.2 8.2 6.8 15.1 15.1 19.4 36.8 12.9 55.7 5.7-1.9 11.6-2.9 17.5-2.9 13.8 0 27.6 5.3 38.2 15.8 2.6 2.6 4.8 5.3 6.8 8.2 3.8-13.9.3-29.5-10.6-40.4-6-6-13.4-9.8-21.2-11.3-1.5-7.8-5.3-15.2-11.3-21.2-8.2-8.1-18.8-12.2-29.4-12.2zm24.1 180c2.8-6.4 2.8-13.8 0-20.2l-.2-.4c-3.3-5.9-9.9-12.1-18.2-12.1-2.2 0-4 1.8-4 4s1.8 4 4 4c4.8 0 9 4.2 11.2 7.9 1.8 4.4 1.8 9.4-.1 13.7-4.3 9.9-15.9 15.3-28.1 13.2-13.5-3.4-23.4-15.1-24.8-29.1-2.2-22.9 17.7-41.2 37.7-43.8 12.6-1.5 24.8 2.1 35.4 10.4 8.3 6.4 14.9 15.2 19.1 25.5l1.9 4.4c4.8 11.5 12.2 21.4 21.6 28.7 12.3 9.6 26.6 13.7 41.4 12 26.6-3.5 47-27.6 44.6-52.5-1.7-17.4-14.2-31.9-31-36.1l-.3-.1c-15.9-2.8-31.2 4.5-37 17.9-2.8 6.4-2.8 13.8 0 20.2l.2.4c3.3 5.9 9.9 12.1 18.2 12.1 2.2 0 4-1.8 4-4s-1.8-4-4-4c-4.8 0-9-4.2-11.2-7.9-1.8-4.4-1.8-9.4.1-13.7 4.3-9.9 15.9-15.3 28.1-13.2 13.5 3.4 23.4 15.1 24.8 29.1 2.2 22.9-17.7 41.2-37.7 43.8-12.6 1.5-24.8-2.1-35.4-10.4-8.3-6.4-14.9-15.2-19.1-25.5l-1.9-4.4c-4.8-11.5-12.2-21.4-21.6-28.7-12.3-9.6-26.6-13.7-41.4-12-26.6 3.5-47 27.6-44.6 52.5 1.7 17.4 14.2 31.9 31 36.1l.3.1c2.3.4 4.5.6 6.8.6 13.3 0 25.2-7.1 30.2-18.5zM332 329c0 3.9 3.1 7 7 7s7-3.1 7-7-3.1-7-7-7-7 3.1-7 7zm137-31c0 3.9 3.1 7 7 7s7-3.1 7-7-3.1-7-7-7-7 3.1-7 7z" fill="#36434f"/></svg>