<svg version="1.1" id="icon" xmlns="http://www.w3.org/2000/svg" x="0" y="0" viewBox="0 0 512 512" xml:space="preserve"><style type="text/css">.st0{fill:#36434f}</style><circle class="st0" cx="256" cy="256" r="11"/><path class="st0" d="M256 8.1c33.5 0 65.9 6.6 96.5 19.5 29.5 12.5 56 30.4 78.8 53.1 22.8 22.8 40.6 49.3 53.1 78.8 12.9 30.6 19.5 63 19.5 96.5s-6.6 65.9-19.5 96.5c-12.5 29.5-30.4 56-53.1 78.8-22.8 22.8-49.3 40.6-78.8 53.1-30.6 12.9-63 19.5-96.5 19.5s-65.9-6.6-96.5-19.5c-29.5-12.5-56-30.4-78.8-53.1C58 408.5 40.1 382 27.6 352.5c-12.9-30.6-19.5-63-19.5-96.5s6.6-65.9 19.5-96.5c12.5-29.5 30.4-56 53.1-78.8C103.5 58 130 40.1 159.5 27.6c30.6-12.9 63-19.5 96.5-19.5m0-8.1C114.6 0 0 114.6 0 256s114.6 256 256 256 256-114.6 256-256S397.4 0 256 0z"/><path class="st0" d="M250.9 8.1h10.2v20.4h-10.2V8.1zm0 475.4h10.2v20.4h-10.2v-20.4zM8.1 261.1v-10.2h20.4v10.2H8.1zm475.4 0v-10.2h20.4v10.2h-20.4zM38.8 136.5l5.1-8.8 17.7 10.2-5.1 8.8-17.7-10.2zm411.6 237.7l5.1-8.8 17.7 10.2-5.1 8.8-17.7-10.2zm-313.9 99l-8.8-5.1 10.2-17.7 8.8 5.1-10.2 17.7zM374.2 61.6l-8.8-5.1 10.2-17.7 8.8 5.1-10.2 17.7zM127.7 43.9l8.8-5.1 10.2 17.7-8.8 5.1-10.2-17.7zm237.6 411.6l8.8-5.1 10.2 17.7-8.8 5.1-10.2-17.7zM43.8 384.3l-5.1-8.8 17.7-10.2 5.1 8.8-17.7 10.2zm411.8-237.6l-5.1-8.8 17.7-10.2 5.1 8.8-17.7 10.2zM355.5 28.9l2.7 1.2-4.1 9.3-2.7-1.2 4.1-9.3zM158.1 472.3l2.7 1.2-4.2 9.5-2.7-1.2 4.2-9.5zM331.2 19.8l2.9.9-3.2 9.7-2.9-.9 3.2-9.7zm-150 461.6l2.9.9-3.2 9.9-2.9-.9 3.2-9.9zM306.1 13.3l2.9.6-2.1 10-2.9-.6 2.1-10zM205.2 488l2.9.6-2.2 10.2-2.9-.6 2.2-10.2zM280.4 9.4l3 .3-1.1 10.1-3-.3 1.1-10.1zM229.8 492l3 .3-1.1 10.3-3-.3 1.1-10.3zm225.9-382.9l1.8 2.4-8.3 6-1.8-2.4 8.3-6zM63.1 394.4l1.8 2.4-8.4 6.1-1.8-2.4 8.4-6.1zM439.2 89l2 2.2-7.6 6.8-2-2.2 7.6-6.8zM78.6 413.8l2 2.2-7.7 7-2-2.2 7.7-7zm342.2-343l2.2 2-6.8 7.6-2.2-2 6.8-7.6zM96 431.4l2.2 2-7 7.7-2.2-2 7-7.7zM400.5 54.6l2.4 1.8-6 8.3-2.4-1.8 6-8.3zM115.2 447.2l2.4 1.8-6.1 8.4-2.4-1.8 6.1-8.4zm387.2-218.6l.3 3-10.1 1.1-.3-3 10.1-1.1zM19.7 279.4l.3 3-10.3 1.1-.3-3 10.3-1.1zM498.2 203l.6 2.9-10 2.1-.6-2.9 10-2.1zM23.4 304l.6 2.9-10.2 2.2-.6-2.9 10.2-2.2zm467.8-126l.9 2.9-9.7 3.2-.9-2.9 9.7-3.2zM29.7 327.9l.9 2.9-9.9 3.2-.9-2.9 9.9-3.2zm452.1-174.1l1.2 2.7-9.3 4.1-1.2-2.7 9.3-4.1zM38.5 351.2l1.2 2.7-9.5 4.2-1.2-2.7 9.5-4.2zm444.6 4.3l-1.2 2.7-9.3-4.1 1.2-2.7 9.3 4.1zM39.7 158l-1.2 2.7-9.5-4.2 1.2-2.7 9.5 4.2zm452.5 173.2l-.9 2.9-9.7-3.2.9-2.9 9.7 3.2zm-461.6-150l-.9 2.9-9.9-3.2.9-2.9 9.9 3.2zm468.2 124.9l-.6 2.9-10-2.1.6-2.9 10 2.1zM24 205.2l-.6 2.9-10.2-2.1.6-2.9 10.2 2.1zm478.7 75.2l-.3 3-10.1-1.1.3-3 10.1 1.1zM20 229.7l-.3 3-10.3-1.1.3-3 10.3 1.1zm382.9 226l-2.4 1.8-6-8.3 2.4-1.8 6 8.3zM117.6 63l-2.4 1.8-6.1-8.4 2.4-1.8 6.1 8.4zM423 439.3l-2.2 2-6.8-7.6 2.2-2 6.8 7.6zM98.2 78.5l-2.2 2-7-7.7 2.2-2 7 7.7zm343.1 342.3l-2 2.2-7.6-6.8 2-2.2 7.6 6.8zM80.5 96l-2 2.2-7.7-7 2-2.2 7.7 7zm376.9 304.5l-1.8 2.4-8.3-6 1.8-2.4 8.3 6zM64.7 115.2l-1.8 2.4-8.4-6.1 1.8-2.4 8.4 6.1zm218.7 387.2l-3 .3-1.1-10.1 3-.3 1.1 10.1zM232.6 19.6l-3 .3-1.1-10.3 3-.3 1.1 10.3zM309 498.1l-2.9.6-2.1-10 2.9-.6 2.1 10zM208.1 23.4l-2.9.6-2.2-10.2 2.9-.6 2.2 10.2zM334 491.2l-2.9.9-3.2-9.7 2.9-.9 3.2 9.7zM184 29.7l-2.9.9-3.2-9.9 2.9-.9 3.2 9.9zm174.2 452.1l-2.7 1.2-4.1-9.3 2.7-1.2 4.1 9.3zM160.8 38.5l-2.7 1.2-4.2-9.5 2.7-1.2 4.2 9.5z"/></svg>