<svg version="1.1" xmlns="http://www.w3.org/2000/svg" x="0" y="0" viewBox="0 0 512 512" xml:space="preserve"><style type="text/css">.st0{opacity:.1;enable-background:new}.st0,.st1{fill:#fff}</style><path class="st0" d="M232.1 187.7H77.4c-1 0-1.9.8-1.9 1.9v99c0 1 .8 1.9 1.9 1.9h154.7c1 0 1.9-.8 1.9-1.9v-99c0-1.1-.8-1.9-1.9-1.9z"/><path class="st1" d="M232.1 187.7H77.4c-1 0-1.9.8-1.9 1.9v99c0 1 .8 1.9 1.9 1.9h154.7c1 0 1.9-.8 1.9-1.9v-99c0-1.1-.8-1.9-1.9-1.9zm-3.7 2.5c.2.2.2.6 0 .9s-.6.2-.9 0c-.2-.2-.2-.6 0-.9h.9zm2.2 3.1c.2-.2.6-.2.9 0 0 0 0 .1.1.1v.7s0 .1-.1.1c-.2.2-.6.2-.9 0-.2-.3-.2-.7 0-.9zM82 190.2c.2.2.2.6 0 .9-.2.2-.6.2-.9 0-.2-.2-.2-.6 0-.9 0 0 .1 0 .1-.1l.8.1zm-3 3.9c-.2.2-.6.2-.9 0 0 0 0-.1-.1-.1v-.7s0-.1.1-.1c.2-.2.6-.2.9 0 .2.3.2.7 0 .9zm2.2 93.8c-.2-.2-.2-.6 0-.9.2-.2.6-.2.9 0 .2.2.2.6 0 .9h-.9c0 .1 0 .1 0 0zm-2.2-3.1c-.2.2-.6.2-.9 0 0 0 0-.1-.1-.1v-.7s0-.1.1-.1c.2-.2.6-.2.9 0 .2.3.2.7 0 .9zm148.5 3.1c-.2-.2-.2-.6 0-.9.2-.2.6-.2.9 0 .2.2.2.6 0 .9 0 0-.1 0-.1.1l-.8-.1c.1 0 .1 0 0 0zm3.1-3.9c.2-.2.6-.2.9 0 0 0 0 .1.1.1v.7s0 .1-.1.1c-.2.2-.6.2-.9 0-.2-.3-.2-.7 0-.9zm.9-2.5L225 288H84.5l-6.5-6.5v-84.8l6.5-6.5H225l6.5 6.5v84.8zm-130.2-70.4c0-.3.4-.7.6-.9.2-.4.5-.8.8-1.2.2-.2.3-.6.7-.7.2-.1.6.1.9.2.6.3.2 1.2.2 1.7-.1.9-.2 1.7-.3 2.6-.1.4 0 1.2-.5 1.5-.6.3-1.2-.1-1.3-.6.1-.3.5-1.9.2-1.9-.1 0-.2.1-.3.1-.2 0-.3 0-.5-.1-.4-.2-.6-.4-.5-.7zm41.9 6.7c0-.5.6-1.2.9-1.7.2-.3.4-.7.6-1.1.1-.2.2-.5.5-.6.6-.1 1 .4 1 1-.3 1.4-.7 2.8-1 4.1-.1.7-.2 1.4-.2 2.2 0 .5-.6.6-1 .3-.5-.4-.2-1.2-.2-1.6.1-.4.1-.8.2-1.2 0-.2.1-.3.1-.5 0-.1.2-.4.1-.5-.1-.2-.3.1-.6 0-.2 0-.4-.2-.4-.4zm-15 7.9c-.2.3-.3.4-.1.7.3.6.6 1.2 1 1.8.2.4.9 1.2 0 1.4-.5.1-.9-.3-1.1-.7-.3-.6-.6-1.2-.9-1.9-.3.4-.6.7-.9 1.1-.2.3-.5.8-.8 1.1-.5.6-1.5 0-1.1-.7.2-.4.6-.8.9-1.2s.7-.8 1-1.2c.3-.5 0-.7-.3-1.1-.2-.4-.4-.8-.5-1.4.9-.2 1.5.2 1.8 1.1.4-.5.7-1.1 1.2-1.6.3-.4.9-.2 1.2.2.3.6-.4 1.1-.7 1.5l-.7.9zm16.6 5c.1.5.1 1.1-.2 1.5s-.8.7-1.2 1c-.5.3-1.1.6-1.6.6-1-.1-1.7-.7-1.9-1.6-.1-.3-.2-1.2.3-1.1.6.1.6.9.9 1.2.3.3.7.4 1.1.2s1.1-.6 1.2-1.1c.6-1.6-2.1-.6-2.1-1.8 0-.5.5-.4.8-.6.4-.2.6-.6.9-.9-.5.1-1 .4-1.5.2-.4-.2-.8-.7-.3-.9.9-.4 2.2-.8 3.1-.1.4.3.4.7.2 1.2-.1.2-.2.3-.4.5s-.4.3-.1.6c.4.2.7.5.8 1.1zM99.9 236c-.6-.1-1.1.5-1.5.8-.5.4-.6 1-.8 1.6-.2 1.2.1 2.3 1.1 3 1.1.8 2.4.5 3.3-.3.4-.4.8-.9 1-1.4.2-.6-.2-1.2-.4-1.8-.5-1.1-1.4-2-2.7-1.9zm1.3 3.7c-.2.5-1 1.5-1.7 1-.3-.2-.5-.6-.6-1 0-.2-.2-.9.2-.8l.7-1.3c.2-.4.4-.7.8-.3.6.7 1 1.6.6 2.4zm36.5-12.9c.1.4-.8.3-1.1.3-.5 0-1.1 0-1.6.1s-1 .3-1.4.2-.9-.3-.9-.8.4-.6.8-.6c.6 0 1.1-.1 1.7-.1.6 0 1.1 0 1.7.1.5.2.8.3.8.8zm11.5-2c-.1.3-.4.4-.6.5-.2 0-1.2 0-1.2.1-1.8 0-3.7 0-5.5-.1-.5 0-1.5 0-1.7-.7-.2-.8 1.5-.5 1.9-.4 1.8.2 3.6.1 5.4 0 .4-.1 1.9-.1 1.7.6zm-11.3-.7c0 .1.1.4 0 .4-.2.3-1.1.2-1.4.1-.5-.1-1-.1-1.5 0-.4 0-1 .2-1.4 0-.3-.2-.5-.7-.2-.9.2-.1 1-.1 1.1-.2 1 .1 2.1 0 3 .4.3 0 .3 0 .4.2zm-12.9-3.5c.1-.3.2-.7.3-1 .1-.2.3-.5.2-.8-.2-.4-.8-.6-1.1-.3-.4.4-.6 1.3-.8 1.9-.3 1.3-.3 2.8-1.2 4-.4-.9-1.6-1.2-2.3-.4-.3.3-.6.7-.9 1.1-.3.3-.4.7-.5 1.1-.2.7 0 1.6.6 2 .7.5 1.5.2 2.2-.1-.1.5-.2 1.1-.2 1.6.2.2.5.6.8.6s.6-.2.6-.5c.1-.3 0-.8.1-1.2 0-.4.1-.8.2-1.3.3-1.5.9-3 1.3-4.4.2-.7.5-1.5.7-2.3zm-3.6 5.3c-.3.4-.6.9-1.1 1.2-.1-.2-.1-.3-.1-.5-.1-.5.1-.9.3-1.3.2-.2.6-.8.9-.6.1.1.2.5.2.6.1.3-.1.4-.2.6zm-7.7 2.8c.1.2.2.4.1.6-.4.5-1.1-.1-1.3-.4-.5-.7-.9-1.3-1.3-1.9-.4.6-.8 1.3-1.4 1.8-.2.2-.3.3-.6.2-.2-.1-.5-.2-.6-.4-.2-.5.6-1.2.9-1.5.4-.4 1.1-1.1.8-1.7-.2-.3-.4-.7-.6-1s-.3-.7-.5-.9-.4-.3-.5-.6.1-.6.4-.5c.3 0 .6.2.8.4l.3.3c.1.1.3.2.4.3.1.2 0 .3.2.5 0 .1.2.1.2.2.1.2.1.3.2.5.4-.6.7-1.3 1.1-2 .1-.2.2-.6.6-.7.2 0 .5.2.6.5.3.6-.2 1.2-.5 1.7-.2.3-.3.6-.5.9-.2.2-.5.6-.4 1 .1.3.4.7.5 1 .2.3.4.6.6 1l.5.7zm-8.9-11.8c-.2.4-.8-.1-1-.2-.3-.3-.7-.5-1-.1-.3.3-.5.8-.7 1.2-.1.1-.4 1.3-.3 1.3-.2 2-.3 4 .1 6 .4 1.9 1.1 3.9.9 5.8-.1.8-.3 2-.9 2.6-.5.5-1.4.6-2 .4-.7-.2-1.4-.6-1.8-1.1-.3-.4-.6-1.3.1-1.6.4-.2.8.7 1 1 .4.5 1 1 1.6.5.3-.2.4-.7.5-1 .1-.5.2-1.1.2-1.5.1-1 0-1.9-.3-2.8-.3-.9-.4-1.9-.6-2.8-.1-.5-.1-.9-.1-1.4-.1-.5-.1-1-.1-1.6 0-1 0-2.1.1-3.1.1-.8.3-1.8.9-2.5.6-.6 1.5-1 2.3-.7.5.2 1.5.8 1.1 1.6zm13.9 4c-.3.1-.6.1-.9.1h-2c-.6 0-1.2 0-1.6-.4-.2-.2-.3-.2-.2-.5 0-.2.2-.3.4-.4.2-.1.3-.1.5-.3s.3-.4.5-.6.3-.4.4-.7.1-.5 0-.7c-.4.2-.6.6-1 .9-.3.2-1.1.5-1.2-.1-.1-.3.3-.9.5-1.2.3-.4.6-.7 1.1-.8.4-.1.8.1 1.1.3.3.3.7.8.7 1.2 0 .2 0 .5-.1.7s-.2.6-.3.8c0 0-.1.1-.2.1s0 .1-.1.2-.3.2-.4.4h1.8c.5 0 1.1.1 1.4.6.1.2.1 0 0 .2-.2.1-.3.1-.4.2z"/><path class="st0" d="M423 216.7h86v184h-86z"/><path class="st1" d="M512 213.8v186.9h-5.5V219.3h-81v181.4H420V213.8h92zm-75.7 127.6h59.5v50.7h-59.5v-50.7zm3.6 47.1h52.2v-43.4h-52.2v43.4zm54-155.9h1.8v99.3h-59.5v-99.3h1.8c3.6 0 7.6-1 11.8-2.1 4.9-1.2 10.3-2.7 16.2-2.7 5.9 0 11.4 1.4 16.2 2.7 4.1 1.1 8.1 2.1 11.7 2.1zm-1.8 3.6c-3.5-.3-7.1-1.2-10.8-2.2-4.9-1.2-9.9-2.6-15.3-2.6s-10.4 1.3-15.3 2.6c-3.8.9-7.3 1.9-10.8 2.2v92h52.2v-92z"/><path class="st0" d="M407 178.7H242c-3.3 0-6 2.7-6 6v113c0 3.3 2.7 6 6 6h165c3.3 0 6-2.7 6-6v-113c0-3.3-2.7-6-6-6z"/><path class="st1" d="M407 178.7H242c-3.3 0-6 2.7-6 6v113c0 3.3 2.7 6 6 6h165c3.3 0 6-2.7 6-6v-113c0-3.3-2.7-6-6-6zm-5 118.5H247v-112h155v112z"/><path class="st0" d="M356.7 127.6h-5.1c-1.2-1.4-2.9-3.1-4.1-3.9-.5-.3-1.1-.5-1.8-.8V91.3h-6.6v27.1c-.4-.5-.8-1-1.2-1.6-3.4-4.9-3-25.3-3-25.5h-.8c-.2 2.5-1.5 7.3-2.9 12.4-1.6 5.9-3.3 12-3.3 15 0 3.8 4.3 7.1 7.3 9h-12.7c-1.3 0-2.3 1.1-2.3 2.3v7.4c0 1.3 1.1 2.3 2.3 2.3h34.3c1.3 0 2.3-1.1 2.3-2.3V130c-.1-1.4-1.2-2.4-2.4-2.4zm-20 0c-2.7-1.5-8.1-5.1-8.1-9 0-2.8 1.7-8.9 3.3-14.7.8-3 1.6-5.8 2.2-8.2.1 6.4.6 18 3.2 21.6.6.9 1.2 1.6 1.9 2.3v8.1h-2.5v-.1zm9-3.9c.5.2 1 .4 1.4.7 1 .6 2.3 2 3.4 3.2h-4.8v-3.9z"/><path class="st1" d="M356.7 127.6h-5.1c-1.2-1.4-2.9-3.1-4.1-3.9-.5-.3-1.1-.5-1.8-.8V91.3h-6.6v27.1c-.4-.5-.8-1-1.2-1.6-3.4-4.9-3-25.3-3-25.5h-.8c-.2 2.5-1.5 7.3-2.9 12.4-1.6 5.9-3.3 12-3.3 15 0 3.8 4.3 7.1 7.3 9h-12.7c-1.3 0-2.3 1.1-2.3 2.3v7.4c0 1.3 1.1 2.3 2.3 2.3h34.3c1.3 0 2.3-1.1 2.3-2.3V130c-.1-1.4-1.2-2.4-2.4-2.4zm-20 0c-2.7-1.5-8.1-5.1-8.1-9 0-2.8 1.7-8.9 3.3-14.7.8-3 1.6-5.8 2.2-8.2.1 6.4.6 18 3.2 21.6.6.9 1.2 1.6 1.9 2.3v8.1h-2.5v-.1zm9-3.9c.5.2 1 .4 1.4.7 1 .6 2.3 2 3.4 3.2h-4.8v-3.9zm3.7 12.9c-.5 0-1-.4-1-1 0-.5.4-1 1-1 .5 0 1 .4 1 1 0 .5-.4 1-1 1zm3.9 0c-.5 0-1-.4-1-1 0-.5.4-1 1-1 .5 0 1 .4 1 1 0 .5-.4 1-1 1zm92.9 176.5v-2.9H299v2.9h2.9v14.2H299v2.9h2.9v90.5h2.9V417h135.6v3.7h2.9v-90.5h2.9v-2.9h-2.9v-14.2zm-150 0v-2.9H149v2.9h2.9v14.2H149v2.9h2.9v90.5h2.9V417h135.6v3.7h2.9v-90.5h2.9v-2.9h-2.9v-14.2zM147 330.2H0v90.5h2.4v-1.9h47.4v1.9h2.4v-24.6h92.3v24.6h2.4v-90.5h.1zm-2.4 12.2H52.3v-9.8h92.3v9.8z"/><path class="st1" d="M93.4 280.3H31.6c-.3 0-.6.3-.6.6v36.6c0 .3.3.6.6.6h27.5s-.1.1-.1.2v1.1c0 .1.1.2.2.2h.5v8H44.3c-.1 0-.3.1-.4.2l-2.2 2.2c-.1.1-.1.2.1.2h41.6c.1 0 .2-.1.1-.2l-2.2-2.2c-.1-.1-.3-.2-.4-.2H65.2v-8h.5c.1 0 .2-.1.2-.2v-1.1c0-.1 0-.1-.1-.2h27.5c.3 0 .6-.3.6-.6v-36.6c.1-.3-.2-.6-.5-.6z"/></svg>