<svg version="1.1" xmlns="http://www.w3.org/2000/svg" x="0" y="0" viewBox="0 0 512 512" xml:space="preserve"><path d="M512 98.8V365l-79.1 79h-402C13.8 444 0 430.2 0 413.2V98.8C0 81.8 13.8 68 30.9 68h450.3c17 0 30.8 13.8 30.8 30.8z" opacity=".1" fill="#fff"/><path d="M192.4 251.2c0-16.6-5.1-32.1-13.8-44.9-1.7-2.5-3.6-5-5.6-7.3.1-.4.1-.8.2-1.2 3.5-20.2 8.9-38.7 16.2-54.3 12-25.9 27.7-40.7 43.1-40.7s31.1 14.8 43.1 40.7c7.2 15.6 12.7 34.1 16.2 54.3.1.4.2.8.2 1.2-2 2.3-3.9 4.7-5.6 7.3a79.72 79.72 0 0 0-13.8 44.9c0 16.6 5.1 32.1 13.8 44.9 1.7 2.5 3.6 5 5.6 7.3-.1.4-.1.8-.2 1.2-3.5 20.2-8.9 38.7-16.2 54.3-12 25.9-27.7 40.7-43.1 40.7s-31.1-14.8-43.1-40.7c-7.2-15.6-12.7-34.1-16.2-54.3-.1-.4-.2-.8-.2-1.2 2-2.3 3.9-4.7 5.6-7.3a79.72 79.72 0 0 0 13.8-44.9zm-27.7 60.5c-.4-2.3-.9-4.7-1.3-7.1H22.2v73.8c0 17 13.8 30.9 30.9 30.9h179.3c-30.6 0-56.7-40.3-67.7-97.6zm233.5-7.1h-96.9c-.4 2.4-.8 4.7-1.3 7.1-11 57.3-37.2 97.6-67.7 97.6h179.3c17 0 30.9-13.8 30.9-30.9v-73.8h-44.3zm-340-8.5h108.4c1.6-1.9 3.1-4 4.5-6.1 7.4-11.1 11.7-24.5 11.7-38.9s-4.3-27.7-11.7-38.9c-1.4-2.1-2.9-4.1-4.5-6.1H22.2v89.8h36zM512 98.8V365l-79.1 79h-402C13.8 444 0 430.2 0 413.2V98.8C0 81.8 13.8 68 30.9 68h450.3c17 0 30.8 13.8 30.8 30.8zm-59.8 25.1c0-22.3-18.2-40.5-40.5-40.5H53c-22.3 0-40.5 18.2-40.5 40.5v254.6c0 22.3 18.2 40.5 40.5 40.5h358.7c22.3 0 40.5-18.2 40.5-40.5V123.9zM411.7 93H232.4c30.5 0 56.7 40.3 67.7 97.6.4 2.3.9 4.7 1.3 7.1h141.2v-73.8c0-17-13.8-30.9-30.9-30.9zm-5.1 113.3H298.2c-1.6 1.9-3.1 4-4.5 6.1-7.4 11.1-11.7 24.5-11.7 38.8s4.3 27.7 11.7 38.8c1.4 2.1 2.9 4.1 4.5 6.1h144.4v-89.8h-36zM22.2 123.9v73.8h141.2c.4-2.4.8-4.7 1.3-7.1 11-57.3 37.2-97.6 67.7-97.6H53c-17 0-30.8 13.9-30.8 30.9z" fill="#fff"/></svg>