<svg version="1.1" xmlns="http://www.w3.org/2000/svg" x="0" y="0" viewBox="0 0 512 512" xml:space="preserve"><path d="M493.6 0H6C2.7 0 0 2.7 0 6v500c0 3.3 2.7 6 6 6h500c3.3 0 6-2.7 6-6V6c0-3.3-2.7-6-6-6h-12.4zm-79.1 30.4c0-3.3 2.7-6 6-6h61.1c3.3 0 6 2.7 6 6v61.1c0 3.3-2.7 6-6 6h-61.1c-3.3 0-6-2.7-6-6V30.4zm-292.6 97.5c0-3.3 2.7-6 6-6H189c3.3 0 6 2.7 6 6V189c0 3.3-2.7 6-6 6h-61.1c-3.3 0-6-2.7-6-6v-61.1zm97.5 0c0-3.3 2.7-6 6-6h61.1c3.3 0 6 2.7 6 6V189c0 3.3-2.7 6-6 6h-61.1c-3.3 0-6-2.7-6-6v-61.1zm97.6 0c0-3.3 2.7-6 6-6h61.1c3.3 0 6 2.7 6 6V189c0 3.3-2.7 6-6 6H323c-3.3 0-6-2.7-6-6v-61.1zm-24.4 158.7c0 3.3-2.7 6-6 6h-61.1c-3.3 0-6-2.7-6-6v-61.1c0-3.3 2.7-6 6-6h61.1c3.3 0 6 2.7 6 6v61.1zm97.5 0c0 3.3-2.7 6-6 6H323c-3.3 0-6-2.7-6-6v-61.1c0-3.3 2.7-6 6-6h61.1c3.3 0 6 2.7 6 6v61.1zm-268.2-61.2c0-3.3 2.7-6 6-6H189c3.3 0 6 2.7 6 6v61.1c0 3.3-2.7 6-6 6h-61.1c-3.3 0-6-2.7-6-6v-61.1zm0 97.6c0-3.3 2.7-6 6-6H189c3.3 0 6 2.7 6 6v61.1c0 3.3-2.7 6-6 6h-61.1c-3.3 0-6-2.7-6-6V323zm97.5 0c0-3.3 2.7-6 6-6h61.1c3.3 0 6 2.7 6 6v61.1c0 3.3-2.7 6-6 6h-61.1c-3.3 0-6-2.7-6-6V323zm97.6 0c0-3.3 2.7-6 6-6h61.1c3.3 0 6 2.7 6 6v61.1c0 3.3-2.7 6-6 6H323c-3.3 0-6-2.7-6-6V323zm97.5 0c0-3.3 2.7-6 6-6h61.1c3.3 0 6 2.7 6 6v61.1c0 3.3-2.7 6-6 6h-61.1c-3.3 0-6-2.7-6-6V323zm6-30.4c-3.3 0-6-2.7-6-6v-61.1c0-3.3 2.7-6 6-6h61.1c3.3 0 6 2.7 6 6v61.1c0 3.3-2.7 6-6 6h-61.1zm0-97.6c-3.3 0-6-2.7-6-6v-61.1c0-3.3 2.7-6 6-6h61.1c3.3 0 6 2.7 6 6V189c0 3.3-2.7 6-6 6h-61.1zM317 30.4c0-3.3 2.7-6 6-6h61.1c3.3 0 6 2.7 6 6v61.1c0 3.3-2.7 6-6 6H323c-3.3 0-6-2.7-6-6V30.4zm-97.6 0c0-3.3 2.7-6 6-6h61.1c3.3 0 6 2.7 6 6v61.1c0 3.3-2.7 6-6 6h-61.1c-3.3 0-6-2.7-6-6V30.4zm-97.5 0c0-3.3 2.7-6 6-6H189c3.3 0 6 2.7 6 6v61.1c0 3.3-2.7 6-6 6h-61.1c-3.3 0-6-2.7-6-6V30.4zm-97.5 0c0-3.3 2.7-6 6-6h61.1c3.3 0 6 2.7 6 6v61.1c0 3.3-2.7 6-6 6H30.4c-3.3 0-6-2.7-6-6V30.4zm0 97.5c0-3.3 2.7-6 6-6h61.1c3.3 0 6 2.7 6 6V189c0 3.3-2.7 6-6 6H30.4c-3.3 0-6-2.7-6-6v-61.1zm0 97.5c0-3.3 2.7-6 6-6h61.1c3.3 0 6 2.7 6 6v61.1c0 3.3-2.7 6-6 6H30.4c-3.3 0-6-2.7-6-6v-61.1zm0 97.6c0-3.3 2.7-6 6-6h61.1c3.3 0 6 2.7 6 6v61.1c0 3.3-2.7 6-6 6H30.4c-3.3 0-6-2.7-6-6V323zm6 164.6c-3.3 0-6-2.7-6-6v-61.1c0-3.3 2.7-6 6-6h61.1c3.3 0 6 2.7 6 6v61.1c0 3.3-2.7 6-6 6H30.4zm97.5 0c-3.3 0-6-2.7-6-6v-61.1c0-3.3 2.7-6 6-6H189c3.3 0 6 2.7 6 6v61.1c0 3.3-2.7 6-6 6h-61.1zm97.5 0c-3.3 0-6-2.7-6-6v-61.1c0-3.3 2.7-6 6-6h61.1c3.3 0 6 2.7 6 6v61.1c0 3.3-2.7 6-6 6h-61.1zm97.6 0c-3.3 0-6-2.7-6-6v-61.1c0-3.3 2.7-6 6-6h61.1c3.3 0 6 2.7 6 6v61.1c0 3.3-2.7 6-6 6H323zm97.5 0c-3.3 0-6-2.7-6-6v-61.1c0-3.3 2.7-6 6-6h61.1c3.3 0 6 2.7 6 6v61.1c0 3.3-2.7 6-6 6h-61.1z"/></svg>