<svg version="1.1" xmlns="http://www.w3.org/2000/svg" x="0" y="0" viewBox="0 0 512 512" xml:space="preserve"><path d="M512 265l-87-3 66-6-66-6 87-3-63-6-54-1 24-3 76 2-44-9-51-4 51-3-57-4-48.2 10.7L314 245h-5l-15-7 6 9-13-1 3.9 3H5c-2.7 0-5 2.2-5 5v4c0 .3 0 .7.1 1 .1.3.1.5.2.8v.1c.1.2.2.5.4.7 0 .1.1.1.1.2.1.2.2.3.4.5.1.1.2.2.2.3.1.1.2.2.3.2.2.1.3.3.5.4.1 0 .1.1.2.1.2.1.4.3.7.4h.1c.3.1.5.2.8.2.3.1.7.1 1 .1h285.9l-3.9 3 13-1-6 9 15-7h5l31.8 15.3L394 293l57-4-51-3 51-4 44-9-76 2-24-3 54-1 63-6z"/></svg>