<?xml version="1.0" encoding="utf-8"?>
<!-- Generator: Adobe Illustrator 22.1.0, SVG Export Plug-In . SVG Version: 6.00 Build 0)  -->
<svg version="1.1" id="Layer_1" xmlns="http://www.w3.org/2000/svg" xmlns:xlink="http://www.w3.org/1999/xlink" x="0px" y="0px"
	 viewBox="0 0 512 512" style="enable-background:new 0 0 512 512;" xml:space="preserve">
<style type="text/css">
	.st0{fill:#FFFFFF;}
	.st1{opacity:0.1;fill:#FFFFFF;}
</style>
<path class="st0" d="M473,45H337.3V10c0-5.5-4.5-10-10-10H184.7c-5.5,0-10,4.5-10,10v35H39c-5.5,0-10,4.5-10,10v35.1
	c0,5.5,4.5,10,10,10h34l2.6,39.8l21.8,332.2C98.8,494,118,512,140,512h232c22,0,41.2-18,42.6-39.9l21.8-332.2l2.6-39.8h34
	c5.5,0,10-4.5,10-10V55C483,49.5,478.5,45,473,45z M161.4,470.7c-5.5,0.4-10.3-3.8-10.7-9.3L131.3,182c-0.4-5.5,3.8-10.3,9.3-10.7
	c5.5-0.4,10.3,3.8,10.7,9.3L170.7,460C171.1,465.5,166.9,470.3,161.4,470.7z M209,32c0-5.5,4.5-10,10-10h74c5.5,0,10,4.5,10,10v13
	h-94V32z M226.3,470.9c-5.5,0.1-10.2-4.1-10.3-9.6l-9.8-279.8c-0.2-5.5,4.1-10.2,9.6-10.3c5.5-0.2,10.2,4.1,10.3,9.6l9.8,279.8
	C236.1,466.1,231.8,470.8,226.3,470.9z M380.4,186.9l-19.2,274.5c-0.4,5.5-5.2,9.7-10.7,9.3s-9.7-5.2-9.3-10.7L358,220l-52.1-37.4
	l-9.8,278.8c-0.2,5.5-4.8,9.8-10.3,9.6c-5.5-0.2-9.8-4.8-9.6-10.3l9.8-279.8c0.1-3.8,2.4-7,5.5-8.6L232.8,130h186L380.4,186.9z"/>
<path class="st1" d="M235.9,460.6c0.2,5.5-4.1,10.2-9.6,10.3s-10.2-4.1-10.3-9.6l-9.8-279.8c-0.2-5.5,4.1-10.2,9.6-10.3
	c5.5-0.2,10.2,4.1,10.3,9.6L235.9,460.6L235.9,460.6z M170.7,460c0.4,5.5-3.8,10.3-9.3,10.7s-10.3-3.8-10.7-9.3L131.3,182
	c-0.4-5.5,3.8-10.3,9.3-10.7s10.3,3.8,10.7,9.3L170.7,460z M296.1,461.3c-0.2,5.5-4.8,9.8-10.3,9.6s-9.8-4.8-9.6-10.3l9.8-279.8
	c0.2-5.5,4.8-9.8,10.3-9.6s9.8,4.8,9.6,10.3L296.1,461.3z M361.2,461.4c-0.4,5.5-5.2,9.7-10.7,9.3s-9.7-5.2-9.3-10.7l19.5-279.3
	c0.4-5.5,5.2-9.7,10.7-9.3s9.7,5.2,9.3,10.7L361.2,461.4L361.2,461.4z"/>
<path class="st1" d="M232.8,130L358,220l60.8-90H232.8z"/>
</svg>
