<?xml version="1.0" encoding="utf-8"?>
<!-- Generator: Adobe Illustrator 22.1.0, SVG Export Plug-In . SVG Version: 6.00 Build 0)  -->
<svg version="1.1" id="icon" xmlns="http://www.w3.org/2000/svg" xmlns:xlink="http://www.w3.org/1999/xlink" x="0px" y="0px"
	 viewBox="0 0 512 512" style="enable-background:new 0 0 512 512;" xml:space="preserve">
<style type="text/css">
	.st0{fill:#FFA000;}
	.st1{fill:#E49003;}
	.st2{fill:#FACA28;}
	.st3{fill:#FFFFFF;}
	.st4{fill:#E0E0E0;}
</style>
<g>
	<g>
		<path class="st0" d="M0,75c0-11,9-20,20-20h130c11,0,26.4,6.4,34.1,14.1l15.7,15.7C207.6,92.6,223,99,234,99h258c11,0,20,9,20,20
			v184c0,11-9,20-20,20H20c-11,0-20-9-20-20V75z"/>
	</g>
	<rect y="165" class="st1" width="512" height="157"/>
	<g>
		<path class="st2" d="M512,437c0,11-9,20-20,20H20c-11,0-20-9-20-20V207c0-11,9-20,20-20h472c11,0,20,9,20,20V437z"/>
	</g>
	<rect x="83" y="143" class="st3" width="346" height="44"/>
	<rect x="83" y="165" class="st4" width="346" height="22"/>
</g>
</svg>
