<svg version="1.1" id="icon" xmlns="http://www.w3.org/2000/svg" x="0" y="0" viewBox="0 0 512 512" xml:space="preserve"><style type="text/css">.st0,.st1{fill:#fff}.st1{opacity:.1}</style><path class="st0" d="M407.4 439.1c-.8-.8-2.3-1.4-3.4-1.4H108c-1.1 0-2.6.6-3.4 1.4l-18.2 18.2c-.8.8-.5 1.4.6 1.4h338c1.1 0 1.4-.6.6-1.4l-18.2-18.2zM228 361.8c0-1.1.9-2 2-2h52c1.1 0 2 .9 2 2v9c0 1.1-.9 2-2 2h-52c-1.1 0-2-.9-2-2v-9z"/><path class="st0" d="M234 371.8v69h44v-69h-44zm31 5c0 1.1-.9 2-2 2h-14c-1.1 0-2-.9-2-2v-1c0-1.1.9-2 2-2h14c1.1 0 2 .9 2 2v1z"/><path class="st1" d="M265 376.8c0 1.1-.9 2-2 2h-14c-1.1 0-2-.9-2-2v-1c0-1.1.9-2 2-2h14c1.1 0 2 .9 2 2v1z"/><path class="st0" d="M507 53.3H5c-2.8 0-5 2.3-5 5v297.2c0 2.8 2.3 5 5 5h502c2.8 0 5-2.3 5-5V58.3c0-2.8-2.3-5-5-5zm-17.3 278.6c0 2.8-2.3 5-5 5H27.4c-2.8 0-5-2.3-5-5V79.3c0-2.8 2.3-5 5-5h457.3c2.8 0 5 2.3 5 5v252.6z"/><path class="st1" d="M489.7 331.9c0 2.8-2.3 5-5 5H27.4c-2.8 0-5-2.3-5-5V79.3c0-2.8 2.3-5 5-5h457.3c2.8 0 5 2.3 5 5v252.6z"/></svg>