<?xml version="1.0" encoding="utf-8"?>
<!-- Generator: Adobe Illustrator 22.1.0, SVG Export Plug-In . SVG Version: 6.00 Build 0)  -->
<svg version="1.1" id="Layer_1" xmlns="http://www.w3.org/2000/svg" xmlns:xlink="http://www.w3.org/1999/xlink" x="0px" y="0px"
	 viewBox="0 0 512 512" style="enable-background:new 0 0 512 512;" xml:space="preserve">
<path d="M507,53.3H5c-2.8,0-5,2.3-5,5v297.2c0,2.8,2.3,5,5,5h223.5c-0.3,0.4-0.5,0.8-0.5,1.3v9c0,1.1,0.9,2,2,2h4v64.9H108
	c-1.1,0-2.6,0.6-3.4,1.4l-18.2,18.2c-0.8,0.8-0.5,1.4,0.6,1.4h338c1.1,0,1.4-0.6,0.6-1.4l-18.2-18.2c-0.8-0.8-2.3-1.4-3.4-1.4H278
	v-64.9h4c1.1,0,2-0.9,2-2v-9c0-0.5-0.2-0.9-0.5-1.3H507c2.8,0,5-2.3,5-5V58.3C512,55.5,509.7,53.3,507,53.3z M249,378.8
	c-1.1,0-2-0.9-2-2v-1c0-1.1,0.9-2,2-2h14c1.1,0,2,0.9,2,2v1c0,1.1-0.9,2-2,2H249z M489.7,331.9c0,2.8-2.3,5-5,5H27.4
	c-2.8,0-5-2.3-5-5V79.3c0-2.8,2.3-5,5-5h457.3c2.8,0,5,2.3,5,5L489.7,331.9L489.7,331.9z"/>
</svg>
