<svg version="1.1" xmlns="http://www.w3.org/2000/svg" x="0" y="0" viewBox="0 0 512 512" xml:space="preserve"><style type="text/css">.st0{fill:#bbb}.st1{fill:#999}.st4{fill:#f6c214}.st5{opacity:.15;fill:#444}</style><path class="st0" d="M146 483.8h220V512H146z"/><path class="st0" d="M153 439.8h206v45H153z"/><path class="st1" d="M186 410.8h140v29H186zm-4-7h148v7H182z"/><path class="st0" d="M196.5 191.8h119v115h-119z"/><path class="st0" d="M186 305.8h140v98H186z"/><circle cx="256" cy="251.8" r="50" fill="#36434f"/><path class="st0" d="M260.8 252c0 2.5-2.1 4.6-4.6 4.6s-4.6-2.1-4.6-4.6c0-2.5 2.1-4.6 4.6-4.6s4.6 2.1 4.6 4.6z"/><path d="M243.8 209.7c.2.6.8.9 1.3.8s.9-.8.8-1.3-.8-.9-1.3-.8-1 .7-.8 1.3zm23.5 83.5c-.6.2-.9.8-.8 1.3s.8.9 1.3.8.9-.8.8-1.3c-.1-.6-.7-.9-1.3-.8zm-.8-84.1c-.2.6.2 1.2.8 1.3s1.2-.2 1.3-.8-.2-1.2-.8-1.3-1.1.2-1.3.8zm-20.6 85.5c.2-.6-.2-1.2-.8-1.3s-1.2.2-1.3.8.2 1.2.8 1.3c.5.1 1.1-.3 1.3-.8zm-31.1-53.9c.2-.6-.2-1.2-.8-1.3-.6-.2-1.2.2-1.3.8s.2 1.2.8 1.3c.5.2 1.2-.2 1.3-.8zm83.6 23.5c.6.2 1.2-.2 1.3-.8s-.2-1.2-.8-1.3-1.2.2-1.3.8.2 1.2.8 1.3zM224.3 220c-.4.4-.4 1.1 0 1.6s1.1.4 1.6 0 .4-1.1 0-1.6-1.1-.5-1.6 0zm63.8 63.7c.4-.4.4-1.1 0-1.6s-1.1-.4-1.6 0-.4 1.1 0 1.6 1.1.4 1.6 0zm-1.6-63.7c-.4.4-.4 1.1 0 1.6s1.1.4 1.6 0 .4-1.1 0-1.6-1.2-.5-1.6 0zm-60.6 63.7c.4-.4.4-1.1 0-1.6s-1.1-.4-1.6 0-.4 1.1 0 1.6 1.2.4 1.6 0zm73.8-43.5c-.2-.6-.8-.9-1.3-.8s-.9.8-.8 1.3.8.9 1.3.8c.6-.1 1-.8.8-1.3zm-87 23.3c.2.6.8.9 1.3.8s.9-.8.8-1.3-.8-.9-1.3-.8-1 .7-.8 1.3zm11.8 21l-1.1 1.1c5.5 5.4 12.3 9.4 19.8 11.5l.4-1.4c-1.8-.5-3.5-1.1-5.2-1.8-5.1-2.3-9.8-5.4-13.9-9.4zm49.4 9.3c-1.7.7-3.4 1.3-5.2 1.8l.4 1.4c7.6-2.2 14.4-6.2 19.8-11.5l-1.1-1.1c-4 4.1-8.7 7.2-13.9 9.4zm-17.7 3.6c-3.8 0-7.5-.4-11.1-1.4l-.4 1.4c3.7.9 7.5 1.4 11.5 1.4s7.8-.5 11.5-1.4l-.4-1.4c-3.6.9-7.3 1.4-11.1 1.4zm41.8-27.7c-2.2 5.1-5.2 9.8-9.1 13.8l1.1 1.1c5.3-5.5 9.3-12.3 11.4-19.9l-1.4-.4c-.6 1.8-1.2 3.6-2 5.4zm0-35.4c.7 1.7 1.3 3.3 1.8 5l1.4-.4c-2.2-7.5-6.2-14.3-11.5-19.7l-1.1 1.1c4.1 4.1 7.2 8.8 9.4 14zm3.6 6.1l-1.4.4c.9 3.6 1.4 7.4 1.4 11.2 0 3.7-.4 7.3-1.3 10.9l1.4.4c.9-3.6 1.4-7.4 1.4-11.3 0-4-.5-7.9-1.5-11.6zm-63.1-30.2c1.7-.7 3.5-1.3 5.3-1.9l-.4-1.4c-7.5 2.1-14.3 6.1-19.7 11.4l1.1 1.1c4-4 8.6-7 13.7-9.2zm-24.1 24.1c2.2-5.2 5.3-9.9 9.3-14l-1.1-1.1c-5.3 5.4-9.3 12.2-11.5 19.7l1.4.4c.6-1.6 1.2-3.3 1.9-5zm0 35.4c-.7-1.8-1.4-3.6-1.9-5.4l-1.4.4c2.1 7.6 6.1 14.4 11.4 19.9l1.1-1.1c-4-4.1-7.1-8.7-9.2-13.8zm73.3-50.4l1.1-1.1c-5.5-5.3-12.2-9.2-19.7-11.4l-.4 1.4c1.8.5 3.5 1.1 5.3 1.9 5 2.3 9.6 5.3 13.7 9.2zM210.8 252c0-3.8.5-7.6 1.4-11.2l-1.4-.4c-.9 3.7-1.4 7.6-1.4 11.6 0 3.9.5 7.7 1.4 11.3l1.4-.4c-.9-3.6-1.4-7.2-1.4-10.9zm45.4-45.4c3.8 0 7.4.4 11 1.3l.4-1.4c-3.7-.9-7.5-1.4-11.4-1.4s-7.7.5-11.4 1.4l.4 1.4c3.6-.8 7.2-1.3 11-1.3zm.9 19.6v-9.7h-1.8v9.7h1.8zm-1.8 51.6v9.7h1.8v-9.7h-1.8zm-34.6-24.9h9.7v-1.8h-9.7v1.8zm71-1.8H282v1.8h9.7v-1.8zM279 239.9l8.4-4.8-.9-1.6-8.4 4.8.9 1.6zm-45.6 24.2L225 269l.9 1.6 8.4-4.8-.9-1.7zm4.2-42.4l4.8 8.4 1.6-.9-4.8-8.4-1.6.9zm37.2 60.6l-4.8-8.4-1.6.9 4.8 8.4 1.6-.9zm12.6-13.3l-8.4-4.8-.9 1.6 8.4 4.8.9-1.6zM225 235l8.4 4.8.9-1.6-8.4-4.8-.9 1.6zm43.3-5.8l1.6.9 4.8-8.4-1.6-.9-4.8 8.4zm-24.2 45.6l-1.6-.9-4.8 8.4 1.6.9 4.8-8.4zm8.4-50.5l1.5-.2-.6-6-1.5.2.6 6zm8 61.4l-.6-6-1.5.2.6 6 1.5-.2zm-10.7-67.1l-1.4.3 1.3 5.9 1.4-.3-1.3-5.9zm11.5 60.9l1.3 5.9 1.4-.3-1.3-5.9-1.4.3zm-14.9-60l-1.4.4 1.9 5.7 1.4-.4-1.9-5.7zm19.6 65l1.4-.4-1.9-5.7-1.4.4 1.9 5.7zm-20.5-58.3l-2.5-5.5-1.3.6 2.5 5.5 1.3-.6zm25.2 56.5l-2.5-5.5-1.3.6 2.5 5.5 1.3-.6zm-3.8-56.5l1.3.6 2.5-5.5-1.3-.6-2.5 5.5zm-21.4 51.6l-1.3-.6-2.5 5.5 1.3.6 2.5-5.5zm18.6-52.6l1.4.4 1.9-5.7-1.4-.4-1.9 5.7zm-15.8 53.6l-1.4-.4-1.9 5.7 1.4.4 1.9-5.7zm14.2-60.2l-1.3 5.9 1.4.3 1.3-5.9-1.4-.3zm-14.1 66.5l1.4.3 1.3-5.9-1.4-.3-1.3 5.9zm12.1-66.8l-1.5-.2-.6 6 1.5.2.6-6zm-8.6 67.4l1.5.2.6-6-1.5-.2-.6 6zm-26.4-48.2l-.6 1.3 5.5 2.5.6-1.3-5.5-2.5zm61.4 29l.6-1.3-5.5-2.5-.6 1.3 5.5 2.5zm-57-23.8l-5.7-1.9-.4 1.4 5.7 1.9.4-1.4zm53.1 17.2l-.4 1.4 5.7 1.9.4-1.4-5.7-1.9zm-54-14.4l-5.9-1.3-.3 1.4 5.9 1.3.3-1.4zm54.4 13l5.9 1.3.3-1.4-5.9-1.3-.3 1.4zm-61.1-9.3l6 .6.2-1.5-6-.6-.2 1.5zm67.7 5.6l-6-.6-.2 1.5 6 .6.2-1.5zm-50.8-25l1.2-.9-3.6-4.9-1.2.9 3.6 4.9zm36.4 50.1l1.2-.9-3.6-4.9-1.2.9 3.6 4.9zm-42.7-52.6l4 4.5 1.1-1-4-4.5-1.1 1zm46.6 49.4l-4-4.5-1.1 1 4 4.5 1.1-1zm-49-46.9l4.5 4 1-1.1-4.5-4-1 1.1zm51.4 44.4l-4.5-4-1 1.1 4.5 4 1-1.1zm-53.6-41.6l4.9 3.6.9-1.2-4.9-3.6-.9 1.2zm55.8 38.8l-4.9-3.6-.9 1.2 4.9 3.6.9-1.2zM234 269l-.9-1.2-4.9 3.6.9 1.2 4.9-3.6zm44.4-34l.9 1.2 4.9-3.6-.9-1.2-4.9 3.6zm-42.5 36.2l-1-1.1-4.5 4 1 1.1 4.5-4zm40.5-38.4l1 1.1 4.5-4-1-1.1-4.5 4zm-38.3 40.4l-1.1-1-4 4.5 1.1 1 4-4.5zm36.2-42.5l1.1 1 4-4.5-1.1-1-4 4.5zM235.6 279l1.2.9 3.6-4.9-1.2-.9-3.6 4.9zm40-54.9L272 229l1.2.9 3.6-4.9-1.2-.9zm-53.1 32.2l6-.6-.2-1.5-6 .6.2 1.5zm67.5-7.1l-.2-1.5-6 .6.2 1.5 6-.6zm-61.3 7.9l-5.9 1.3.3 1.4 5.9-1.3-.3-1.4zm54.7-11.6l.3 1.4 5.9-1.3-.3-1.4-5.9 1.3zm-53.5 15.8l-.4-1.4-5.7 1.9.4 1.4 5.7-1.9zm52.6-18.6l.4 1.4 5.7-1.9-.4-1.4-5.7 1.9zm-57.6 22.4l.6 1.3 5.5-2.5-.6-1.3-5.5 2.5zm62.6-26.2l-.6-1.3-5.5 2.5.6 1.3 5.5-2.5zm-35-24.7h-.4c-.1.1-.1.3 0 .4h3.2c.1 0 .1-.3 0-.4h-.4c-.5 0-.5-.1-.5-.9v-5c0-.1-.1-.1-.1-.1-.1 0-.4.2-.9.3-.4.1-.9.2-1.3.3-.1.1-.1.3 0 .4l.4.1c.4.1.5.2.5.9v3.2c0 .6 0 .7-.5.8zm8.2-1.2c-.3.5-.4.5-1.1.5h-1.2c-.1 0-.2-.1-.2-.1 0-.1.1-.2.5-.6l.5-.4c1.2-1.1 1.5-1.7 1.5-2.4 0-.9-.7-1.7-1.9-1.7-1 0-1.9.5-2.3 1.5 0 .2.2.2.3.1.3-.5.7-.9 1.3-.9.7 0 1.1.5 1.1 1.2 0 1.1-.6 1.9-1.3 2.6l-1.5 1.5c0 .1 0 .2.1.2h4.1c.2-.2.4-.9.5-1.5-.1-.1-.3-.1-.4 0zm-4.4 82c1.4 0 2.3-.9 2.3-2.2 0-1-.5-1.9-1.8-1.9-.4 0-.8.2-1 .4 0 .1 0 .1.1.2h.2c.9 0 1.1 1.2 1.1 1.9 0 .5-.2 1.1-.7 1.1-.7 0-1.1-1.2-1.1-2.3 0-.9.2-1.9.7-2.5.5-.7 1.1-1.1 2.3-1.4.1-.1.1-.3 0-.4-1.2.1-2.4.6-3.1 1.3-.8.8-1.3 1.9-1.3 3-.1 1.7.8 2.8 2.3 2.8zm-38-44.1c0-1.4-.8-2.5-2.3-2.5-1.2 0-2.2.9-2.2 2.2 0 1 .7 1.8 1.7 1.8.4 0 .8-.1 1-.3 0-.1 0-.2-.1-.2h-.3c-.7-.1-1-1-1-1.8 0-.6.3-1.2.7-1.2.8 0 1.1 1.4 1.1 2.2 0 1.8-1 3.5-2.9 3.9-.1.1-.1.3 0 .3.8 0 2.1-.6 3-1.4.7-.7 1.3-1.8 1.3-3zm77.5 3.9c-.1 0-.3-.1-.4-.2-.1-.1-.3-.5-.7-.5-.4 0-.6.3-.6.5 0 .5.5.7 1.1.7s1.4-.2 2.3-.8c.8-.6 1.1-1.3 1.1-2 0-1-.8-1.6-1.7-1.5-.1 0-.2-.1-.1-.1 1.1-.5 1.3-.9 1.3-1.3 0-.7-.6-1.1-1.6-1.1-.9 0-1.7.4-2.1 1.3 0 .1.1.2.3.2.3-.4.7-.8 1.2-.8s.8.4.8.7c0 .4-.2.7-.4.9-.4.3-1.2.6-1.6.8-.1.2 0 .4.2.5.3-.2.6-.4 1-.4.7 0 1.2.6 1.2 1.5 0 1-.9 1.6-1.3 1.6zm-63.1-35.2h-.4c-.1.1-.1.3 0 .4h3.2c.1 0 .1-.3 0-.4h-.4c-.5 0-.5-.1-.5-.9v-5c0-.1-.1-.1-.1-.1-.1 0-.4.2-.9.3-.4.1-.9.2-1.3.3-.1.1-.1.3 0 .4l.4.1c.4.1.5.2.5.9v3.2c.1.6 0 .7-.5.8zm4.5 0h-.4c-.1.1-.1.3 0 .4h3.2c.1 0 .1-.3 0-.4h-.4c-.5 0-.5-.1-.5-.9v-5c0-.1-.1-.1-.1-.1-.1 0-.4.2-.9.3-.4.1-.9.2-1.3.3-.1.1-.1.3 0 .4l.4.1c.4.1.5.2.5.9v3.2c0 .6-.1.7-.5.8zm37 70.6c.8 0 1.9-.2 2.7-.6.8-.4 1.4-1.1 1.4-2.1 0-.8-.5-1.4-1.1-1.7s-1.5-.4-2-.5c-.2 0-.3-.1-.3-.3l.1-.2c0-.2.1-.3.2-.3l2.2-.3c.3-.2.4-.6.5-1 0-.1 0-.1-.1-.1l-2.6.3c-.3 0-.4 0-.4.3l-.6 2.3c-.1.2 0 .3.3.3 1 .1 2.5.2 2.5 1.6 0 .5-.3 1-.9 1.3-.5.3-1.3.4-2 .4 0 .2 0 .5.1.6zm-55-16.9c0-.7.5-1.3 1.3-1.6-.6-.3-1.1-.8-1.1-1.5 0-1 .8-1.7 2-1.7 1.1 0 1.9.6 1.9 1.5 0 .7-.5 1.1-1.1 1.4.7.4 1.3.9 1.3 1.9 0 .9-.7 1.7-2.3 1.7-1-.1-2-.6-2-1.7zm1.4-3.4c0 .5.3.9 1.2 1.2.3-.2.5-.6.5-1.1 0-.7-.4-1.1-.8-1.1-.5 0-.9.4-.9 1zm-.1 3.3c0 .7.4 1.3 1.1 1.3.4 0 .8-.3.8-.9 0-.8-.5-1.2-1.4-1.6-.4.3-.5.8-.5 1.2zm68.1-38.8c0 .1 0 .2.1.2h4.1c.2-.2.4-.9.5-1.5 0-.1-.3-.1-.3-.1-.3.5-.4.5-1.1.5h-1.2c-.1 0-.2-.1-.2-.1 0-.1.1-.2.5-.6l.5-.4c1.2-1.1 1.5-1.7 1.5-2.4 0-.9-.7-1.7-1.9-1.7-1 0-1.9.5-2.3 1.5 0 .2.2.2.3.1.3-.5.7-.9 1.3-.9.7 0 1.1.5 1.1 1.2 0 1.1-.6 1.9-1.3 2.6-.6.8-1.2 1.3-1.6 1.6zm-67.8.2c.1 0 .1-.3 0-.4h-.4c-.5 0-.5-.1-.5-.9v-5c0-.1-.1-.1-.1-.1-.1 0-.4.2-.9.3-.4.1-.9.2-1.3.3-.1.1-.1.3 0 .4l.4.1c.4.1.5.2.5.9v3.2c0 .8-.1.9-.5.9h-.4c-.1.1-.1.3 0 .4h1.6c.6-.1 1.3-.1 1.6-.1zm2.8-6.3c1.6 0 2.3 1.7 2.3 3.2 0 1.6-.7 3.2-2.3 3.2s-2.3-1.6-2.3-3.2c0-1.5.7-3.2 2.3-3.2zm0 .4c-.7 0-.8 1.9-.8 2.8s.1 2.8.8 2.8.8-1.9.8-2.8-.1-2.8-.8-2.8zm69.1 44.3h.6c.2-.1.2-.5 0-.5h-.6c-.2 0-.2 0-.2-.3v-1.9c0-.1 0-.2-.1-.2-.2 0-.7.2-1 .3-.2.1-.2.1-.2.4v1.4c0 .3 0 .3-.2.3h-1.2c-.3 0-.3-.1-.2-.2l3-4.1c.2-.2.1-.3-.1-.3h-.3c-.1 0-.2.1-.3.2l-3.2 4.6c0 .1 0 .3.1.3h2.3c.2 0 .2 0 .2.3v.3c0 .8-.1.9-.5.9h-.4c-.1.1-.1.3 0 .4h2.9c.1 0 .1-.3 0-.4h-.2c-.4 0-.5-.1-.5-.9v-.3c-.1-.3-.1-.3.1-.3zm-58.4 16.8c0 .2.3.3.5.3l2.9-5c.4-.7.7-1.3 1-1.6 0-.1 0-.1-.1-.2h-4.5c-.1.4-.2 1-.4 1.5 0 .1.3.2.3.1.2-.4.3-.5.9-.5h2.1c.2 0 .3 0 .3.2s-.1.4-.3.8l-2.7 4.4zm40.8-70.2h-.4c-.1.1-.1.3 0 .4h3.2c.1 0 .1-.3 0-.4h-.4c-.5 0-.5-.1-.5-.9v-5c0-.1-.1-.1-.1-.1-.1 0-.4.2-.9.3-.4.1-.9.2-1.3.3-.1.1-.1.3 0 .4l.4.1c.4.1.5.2.5.9v3.2c.1.6 0 .7-.5.8z" fill="#ddd"/><path class="st0" d="M293 273.3l-5.9-4.7.6-1-.8-.5-.5.9-4.7-2.7c.2-1.4-.4-2.8-1.7-3.5-1-.6-2.2-.6-3.2-.1l-1-.6 1-1.7-.8-.5-1 1.7-27-15.7c-.2-.7-.6-1.3-1.3-1.6-1.1-.6-2.3-.4-3.2.3l-.3-1c1.2-.8 2.7-.9 4-.1l.5-.8c-2.2-1.3-5.1-.5-6.4 1.7-1.3 2.2-.5 5.1 1.7 6.4l.5-.8c-1.3-.7-1.9-2.1-1.8-3.5l1-.3c-.3 1.1.2 2.3 1.3 2.9.6.4 1.4.4 2.1.3l26.8 15.7-1 1.7.8.5 1-1.7 1 .6c.1 1.1.7 2.1 1.7 2.8 1.3.7 2.8.6 3.9-.3l4.7 2.7-.5.9.8.5.6-1 7.1 2.5zm-51.2-28.7c.1-.3.2-.6.4-.9.2-.3.4-.5.6-.8l.3 1.2-.1.1-.1.1-1.1.3zm2.7 2.5c-.8-.5-1.1-1.6-.6-2.4s1.6-1.1 2.4-.6 1.1 1.6.6 2.4c-.5.8-1.6 1.1-2.4.6zm2.9.3c.1-.1.3-.3.4-.5.1-.2.2-.4.2-.5l26.2 15.3-.6 1-26.2-15.3zm27 15.8l.6-1 .5.3c-.1.2-.2.3-.3.5s-.2.4-.3.5l-.5-.3z"/><path class="st0" d="M253.9 258l19.9-24.5.5-.6-1.4-1.1.5-.6c.7.4 1.7.3 2.2-.4s.5-1.6 0-2.3l1.1-1.4-.4-.4-1.1 1.4c-.7-.4-1.7-.3-2.2.4s-.5 1.6 0 2.3l-.5.6-1.4-1.1-.5.6-19.9 24.5c-1.7-.4-3.5.2-4.7 1.6l.8.6c1.2-1.5 3.3-1.8 4.8-.8l-1.4 1.7c-.7-.3-1.5-.1-2.1.5-.6.8-.5 1.9.3 2.5.8.6 1.9.5 2.5-.3.5-.6.5-1.5.1-2.1l1.4-1.7c1.3 1.3 1.4 3.4.2 4.9l.8.6c1-1.4 1.2-3.3.5-4.9zm-2.2-2.3l19.6-24.2.4.4-19.5 24.1c-.2-.1-.4-.2-.5-.3zm20.8-23.2l.4.4-19.6 24.2c-.1-.2-.3-.3-.4-.4l19.6-24.2z"/><path class="st1" d="M236 502.8h40v9.2h-40zm60 0h40v9.2h-40zm-120 0h40v9.2h-40z"/><path class="st0" d="M157 422.9v17.7h198v-17.7H157zm15 14.4h-12v-12h12v12zm15 0h-12v-12h12v12zm15 0h-12v-12h12v12zm15 0h-12v-12h12v12zm15 0h-12v-12h12v12zm15 0h-12v-12h12v12zm15 0h-12v-12h12v12zm15 0h-12v-12h12v12zm15 0h-12v-12h12v12zm15 0h-12v-12h12v12zm15 0h-12v-12h12v12zm15 0h-12v-12h12v12zm15 0h-12v-12h12v12z"/><path class="st1" d="M195.5 305.8h19v99h-19zm34 0h19v99h-19zm34 0h19v99h-19zm34 0h19v99h-19z"/><path class="st0" d="M311 182.8H201l-4.5 9h119z"/><path class="st1" d="M197.5 178.8h117v4h-117zm-1.5-6h120v6H196z"/><path class="st0" d="M294 152.8h-76l-11 20h98zm-76-3h76v3h-76z"/><path class="st1" d="M262.1 100.8h-12.2l-35.1 49h82.4z"/><path class="st4" d="M258 94.8l-1-71h-2l-1 71-4.1 6h12.2z"/><circle class="st4" cx="256" cy="21.1" r="3"/><path class="st1" d="M186 305.8h140v2.4H186z"/><path class="st4" d="M261.8 5.2c-.1 0-.2.1-.2.1-.1 0-.3-.1-.3-.2-.2-.1-.4-.1-.7 0-.2.1-.4.2-.5.3-.1.1-.3.3-.3.4.3-.2.7-.4 1-.2l.1.1c.1.1 0 .1-.1.2-.2.2-.3.4-.4.7-.4.8-.4 1.6 0 2.4-.2.1-.3.3-.3.5s.1.3.2.5c.2.4.4.8.3 1.3.2 0 .4-.2.5-.4.2.6.2 1.2 0 1.8-.2.4-.5.6-.9.8-.1 0-.1 0-.2.1h-.1c0-.2 0-.3-.1-.5-.2-.5-.7-.6-1.1-.8-.5-.2-.9-.5-1.1-1-.1-.3-.1-.5-.1-.8v-.9h.1c-.1-.1-.2-.3-.2-.4v-.4c0-.1.1-.3.2-.3-.1.5-.2 1.3.2 1.7.1.1.5.3.6.1-.6-.1-.4-1.3-.2-1.7.1.3.1.8.4 1.1.2.1.3.1.4-.1-.4.2-.4-.6-.4-.8 0-.5.1-1 .1-1.5 0-.8 0-1.5-.2-2.3-.2-.7-.5-1.7-1.3-2-.1-.1-.3-.1-.4-.1h-.4c.1-.3-.4-.6-.7-.5-.1 0-.2.1-.2.2s-.1.2-.1.2c0 .1-.1.1-.1.1-.2 0-1.3.1-1.1.4-.3.1-.6.2-1 .3h-.2c-.1 0 0 0-.1.1v.1s0 .1.1.1v.6c0 .1 0 .2.1.2.1.1.2 0 .3 0h.7c.2 0 .5.1.5.4-.4 0-.8 0-1.2-.1-.3 0-.9-.1-1.1.1.4-.1.8-.1 1.3 0 .2 0 .4.1.6.1h.4c-.1.2-.4.3-.6.3-.2 0-.6-.2-.7 0-.1.1 0 .2 0 .3v.4c0 .2.1.2.3.2.2 0 .4 0 .3.2 0 .1-.2.1-.3.2-.1 0-.1.1-.2.1h-.1c-.1-.1-.2-.2-.4-.2-.5-.4-1-.8-1.6-1.2-.2-.2-.4-.3-.7-.5l-.1-.1c-.1-.1-.2-.2-.2-.3 0-.1.1-.2.2-.2l.4-.4c.2-.2.3-.4.5-.6.1.1.2.3.4.4.1 0 .1 0 .1-.1l.2-.2c-.1-.1-.3-.2-.4-.4V3c0-.1.1-.1.2-.2l.7-.7.6.6c.1-.2.4-.4.5-.6.2-.3.5-.6.6-.9.1-.4.2-.7 0-1.1-.1-.1-.1-.2-.3-.2-.1 0-.3-.1-.4-.1-.3 0-.5.1-.7.2-.5.3-.8.7-1.2 1.1.2.2.4.4.7.6l-.9.9-.4-.4c-.1.1-.2.2-.2.3 0 .1.1.1.1.2l.2.2-.1.1-.6.6c-.1.1-.2.3-.4.4-.1.1 0 0-.1 0-.1-.1-.2-.1-.4-.1-.1 0-.2 0-.2.1-.1.1-.1.3-.1.3-.1 0-.2 0-.3.1 0 0-.1.3 0 .3-.1 0-.3.2-.3.3 0 .1 0 .1.1.2 0 0 .1.1.1.2l-.2.2-.8.8c-.4.4-.8.8-1.1 1.2l-.5.5-.3.3v.1l-.2-.2-.1-.1h-.1c-.1 0-.2.2-.3.3l.4.4.3.3.2.2.1-.1.1-.1v-.1c-.1-.1-.4-.3-.3-.4l.1-.1.2-.2.6-.6c.4-.5.9-.9 1.3-1.4l.8-.8c.2.2.4.4.7.4-.1-.1-.3-.2-.1-.3h.3c.1 0 .2 0 .3.1.1 0 .2 0 .3.1.1.1.2.3.3.4.2.3.5.7.8 1 .2.2.3.4.5.6l.1.1s0 .1-.1.2-.1.3-.2.4c-.1.2-.1.5-.2.7-.1.2-.3.2-.5.2.3.2.6.1.9-.2.1-.1.1-.2.2-.4 0-.1 0-.2.1-.2-.1.2.1.6.3.8-.5.2-1 .3-1.5.6-.1 0-.2.1-.2.2-.1.1-.3 0-.4.1-.3.1-.5.4-.7.5-.1-.1-.1-.2-.2-.3-.1-.1-.1-.1 0-.2s.2-.2.2-.4c.2-.4.1-.9-.2-1.3-.5-.8-1.7-1.1-2.4-.3-.3.3-.5.9-.4 1.4 0-.5.2-.9.7-1.2.3-.2.8-.2 1.1-.1.8.4.8 1.6 0 2 .1.1.2.3.3.4.1 0 .1-.1.2-.1s.1.2.1.2l.1.1c0 .1 0 .1-.1.1-.1.1-.3.2-.4.4-.1.2-.2.4-.1.6.1.1.2.3.4.3-.1-.1-.1-.3 0-.5 0-.1.1-.1.1-.1v.2c0 .1 0 .3.1.4.1.2.3.2.5.3-.1-.1-.2-.3-.2-.5h.2c.1 0 .1.1.2.1s.2 0 .3.1c.1.1.2.3.3.4 0-.1-.1-.3-.1-.5 0-.1.2-.1.2-.2.1-.1.2-.2.3-.4 0-.1 0-.3.1-.4.1-.1.3-.2.4-.2.1 0 .1-.1.2-.1h.5c.3 0 .6-.1.9-.1h.2c.1 0 .1 0 .1.1.1.1.1.3.2.4.3.5.8.8 1.4 1 .3.1.7.2 1 .2.3 0 .7.1.7.5-1.2.1-2.3.1-3.4.4l-.9.3c-.1.1-.3.1-.4.2-.1 0-.1 0-.2.1-.1.2 0 .4.1.6.1.1.2.1.2.2.1.1.1.3.2.4.2.5.4.9.8 1.3.3.3.6.5.9.8.2.1.3.2.2.5-.1.2-.2.4-.4.5-.2.1-.3.3-.5.4-.1.1-.1.1-.2.1h-.6c-.1 0-.2.1-.2.1-.1 0-.2 0-.3-.1-.3-.1-.5-.2-.8 0-.2.2-.4.5-.4.8 0 .1-.1.4 0 .5.1-.1.2-.2.3-.2 0 0 .1-.2.2-.2l.1.2h.1c.1 0 .2.1.2.1.1.1.1.2.1.3.1.1.1.2.2.3 0 0 .3.2.3.1l-.1-.2c-.1-.1-.1-.3-.1-.5h.4c.1-.1 0-.2.2 0 .1.1.4.4.6.3 0 .1.1.2.1.4.1-.2.1-.4.3-.6.1-.1.1-.3.2-.4v-.2c0-.1.1-.2.2-.2l.5-.5c.3-.3.6-.7.9-.9.2-.2.7-.2.6-.5 0-.3-.3-.6-.5-.7-.2-.2-.5-.3-.5-.5-.1-.4.5-.6.8-.7.2-.1.4-.1.6-.2h.2c.1 0 .1 0 .1.1.2.4.5.7.8 1l.4.4.3.3.1.1c.1.1.1.1.1.2 0 .4.3.5.6.4.2 0 .3-.1.5 0s.3.1.4.2c.1.1.3.2.5.2.1 0 .2 0 .2.1h.2c.1 0 .1 0 .1.1.1.4.3.8.3 1.2v.3c0 .1-.2.1-.2.1l-.1.1s-.1.1-.1.2h-.2c-.1 0-.3 0-.4.1-.1 0-.2.1-.3 0-.3-.1-.6-.2-.8 0-.2.2-.5.7-.3 1l.2-.3s.1.1.2.1c.1.1.1.1.2.1h.2c.1 0 .1.2.2.3.1.1.1.2.3.3 0-.1-.1-.3 0-.4.1-.1.3 0 .4-.2.1.2.2.3.4.4h.1v.1c0 .1 0 .2.1.2.1.1.1.1.1 0 .1-.1.1-.2.1-.3v-.2l.1-.1c.1-.1.1-.2.1-.3.2 0 .4.1.6.1.1 0 .3 0 .4-.2 0-.2-.1-.5-.1-.7V18c.1-.3.1-.6 0-.8-.1-.3-.4-.4-.6-.5-.3 0-.6 0-.8-.1-.1 0-.2-.1-.3-.2-.2-.2-.3-.5-.4-.8-.1-.6-.1-1.1-.1-1.7v-.3h.1c.1 0 .2-.1.4-.1.2-.1.5-.2.6-.3.4-.3.7-.8.8-1.3.1-.3.1-.6.1-.9 0-.3-.1-.7 0-1 .1.1.3.2.5.2-.2-.2-.4-.4-.5-.7-.1-.1-.2-.5-.1-.6.1-.2.2.4.2.4.1.3.2.5.4.7-.2-.4-.1-.8-.2-1.2 0-.4-.2-.6-.6-.6h-.3c-.1 0-.1-.2-.1-.3-.1-.3-.2-.6-.2-.9 0-.5.2-.9.5-1.3.2.3.3.6.6.8.2.2.5.2.8.2.4 0 .7-.3.8-.7.1-.4.1-.8-.2-1.1-1.3.2-1.9.2-2.3.3zm1 1c0 .2-.3.3-.5.2-.3-.1-.4-.4-.5-.7.2-.1.5-.2.8-.1.1.2.2.4.2.6z"/><path class="st5" d="M287 149.8V138h1.7l-1.4-2h-.3v-.4l-2-2.8v3.2h-8v-10h3.1l-1.4-2H277v-2.4l-2-2.8v5.2h-8v-10h4.6l-1.4-2H267v-4.4l-2-2.8v7.2h-8v-11.2h-2V112h-8v-7.2l-2 2.8v4.4h-3.1l-1.4 2h4.6v10h-8v-5.2l-2 2.8v2.4h-1.7l-1.4 2h3.1v10h-8v-3.2l-2 2.8v.4h-.3l-1.4 2h1.7v11.8h2V138h8v11.8h2V138h8v11.8h2V138h8v11.8h2V138h8v11.8h2V138h8v11.8h2V138h8v11.8h1.9zM245 136h-8v-10h8v10zm10 0h-8v-10h8v10zm0-12h-8v-10h8v10zm10 12h-8v-10h8v10zm0-12h-8v-10h8v10zm10 12h-8v-10h8v10z"/><path class="st5" d="M251.8 14.2c-.1.1-.3.1-.4.2-.1 0-.1 0-.2.1-.1.2 0 .4.1.6.1.1.2.1.2.2.1.1.1.3.2.4.2.5.4.9.8 1.3.3.3.6.5.9.8.2.1.3.2.2.5-.1.2-.2.4-.4.5-.2.1-.3.3-.5.4-.1.1-.1.1-.2.1h-.6c-.1 0-.2.1-.2.1-.1 0-.2 0-.3-.1-.3-.1-.5-.2-.8 0-.2.2-.4.5-.4.8 0 .1-.1.4 0 .5.1-.1.2-.2.3-.2 0 0 .1-.2.2-.2l.1.2h.1c.1 0 .2.1.2.1.1.1.1.2.1.3.1.1.1.2.2.3 0 0 .3.2.3.1l-.1-.2c-.1-.1-.1-.3-.1-.5h.4c.1-.1 0-.2.2 0 .1.1.4.4.6.3 0 .1.1.2.1.4 0-.1 0-.1.1-.2 0 1.3.8 2.4 2 2.8l-1 70.9-4.1 6-35 49h3.2v3l-11 20h-11v6h1.5v4h3.5l-4.5 9v114H186v98h-4v7h4v12.1h-29v16.9h-4v44h-7V512h110V18.1c-.2 0-.4 0-.6.1.1-.1.2-.2.2-.3 0-.3-.3-.6-.5-.7-.2-.2-.5-.3-.5-.5-.1-.4.5-.6.8-.7.2-.1.4-.1.6-.2v-2.1c-1.1.1-2.2.1-3.3.4-.3-.1-.6 0-.9.1zM172 437.3h-12v-12h12v12zm14 0h-11v-12h11v12zM256 2.4v10.8c-.1-.1-.4-.1-.6-.2-.4-.1-.7-.1-1-.2-.5-.2-1-.5-1.4-1-.1-.1-.2-.2-.2-.4 0-.1 0-.1-.1-.1h-.2c-.3 0-.6 0-.9.1h-.5c-.1 0-.1.1-.2.1-.1.1-.3.1-.4.2-.1.1 0 .2-.1.4-.1.1-.1.3-.3.4-.1.1-.2.1-.2.2s.1.3.1.5c-.2-.1-.2-.3-.3-.4-.1 0-.2 0-.3-.1-.1 0-.1-.1-.2-.1h-.2c0 .2.1.3.2.5-.2 0-.3-.1-.5-.3-.1-.1-.1-.2-.1-.4v-.2c0-.1-.1 0-.1.1v.5c-.1 0-.3-.1-.4-.3-.1-.2 0-.4.1-.6.1-.1.2-.3.4-.4l.1-.1s0-.1-.1-.1c0-.1-.1-.2-.1-.2s-.1 0-.2.1c-.1-.1-.2-.3-.3-.4.8-.4.8-1.6 0-2-.4-.2-.8-.2-1.1.1-.4.3-.6.7-.7 1.2-.2-.5.1-1 .4-1.4.7-.7 1.9-.4 2.4.3.3.4.3.9.2 1.3-.1.1-.1.3-.2.4-.1.1-.1.1 0 .2s.1.2.2.3c.2-.2.4-.4.7-.5.1-.1.3 0 .4-.1.1 0 .2-.1.2-.2.5-.3 1-.3 1.5-.6-.2-.2-.4-.5-.3-.8l-.1.2c-.1.1-.1.3-.2.4-.2.3-.5.4-.9.2.2 0 .4 0 .5-.2.1-.2.1-.5.2-.7 0-.1.1-.3.2-.4 0-.1.1-.1.1-.2l-.1-.1c-.2-.2-.4-.4-.5-.6-.3-.3-.5-.7-.8-1-.1-.1-.2-.3-.3-.4-.1-.1-.2-.1-.3-.1-.1 0-.2-.1-.3-.1h-.3c-.1.1.1.2.1.3-.3 0-.5-.3-.7-.4 0 0-.7.8-.8.8-.4.5-.9.9-1.3 1.4l-.6.6-.2.2-.1.1c0 .1.3.3.3.4v.1l-.1.1-.1.1c-.1 0-.2-.2-.2-.2l-.3-.3-.4-.4.3-.3h.1l.1.1.2.2v-.1l.3-.3.5-.5c.4-.4.8-.8 1.1-1.2l.8-.8.2-.2s-.1-.1-.1-.2-.1-.1-.1-.2.2-.3.3-.3c-.1 0 0-.3 0-.3.1-.1.2-.1.3-.1 0 0 .1-.2.1-.3.1-.1.1-.1.2-.1s.3.1.4.1h.1l.4-.4.6-.6.1-.1c0-.1-.2-.2-.2-.2-.1-.1-.1-.1-.1-.2s.2-.2.2-.3l.4.4c.3-.3.6-.7.9-.9-.2-.2-.4-.4-.7-.6.4-.4.7-.8 1.2-1.1.2-.1.5-.2.7-.2.1 0 .3 0 .4.1.1 0 .2.1.3.2.2.3.2.7 0 1.1-.1.3-.4.6-.6.9-.2.2-.4.4-.5.6l-.6-.6c-.2.3-.5.5-.7.7l-.2.2v.1l.4.4-.2.2-.1.1-.4-.4c-.2.2-.3.4-.5.6l-.4.4-.2.2c0 .1.2.2.2.3l.1.1c.2.2.4.3.7.5.5.4 1 .8 1.6 1.2.1.1.2.2.4.2h.1c.1 0 .1-.1.2-.1.1-.1.3-.1.3-.2.1-.3-.1-.2-.3-.2-.1 0-.3 0-.3-.2v-.4c0-.1-.1-.2 0-.3.1-.2.5 0 .7 0 .2 0 .5-.1.6-.3h-.4c-.2 0-.4 0-.6-.1-.4-.1-.8-.1-1.3 0 .3-.3.8-.2 1.1-.1.4 0 .8.1 1.2.1 0-.2-.3-.4-.5-.4h-.7c-.1 0-.2.1-.3 0-.1-.1-.1-.2-.1-.2v-.6s0-.1-.1-.1V4c0-.1 0 0 .1-.1h.2c.3-.1.6-.2 1-.3-.1-.3 1-.4 1.1-.4.1 0 .1 0 .1-.1s0-.2.1-.2c.1-.1.1-.2.2-.2.7-.5.9-.4 1.1-.3z"/></svg>