<svg version="1.1" id="icon" xmlns="http://www.w3.org/2000/svg" x="0" y="0" viewBox="0 0 512 512" xml:space="preserve"><style type="text/css">.st0{fill:#2c9b47}.st1{fill:#059dd2}.st2{fill:#fff}.st3{fill:#0074ae}.st4{fill:#ff8327}.st5{fill:#ee3a24}</style><path class="st0" d="M121.9 286.6c0 3.3 2.7 6 6 6H189c3.3 0 6-2.7 6-6v-61.1c0-3.3-2.7-6-6-6h-61.1c-3.3 0-6 2.7-6 6v61.1z"/><path class="st1" d="M121.9 384.1c0 3.3 2.7 6 6 6H189c3.3 0 6-2.7 6-6V323c0-3.3-2.7-6-6-6h-61.1c-3.3 0-6 2.7-6 6v61.1zm0 97.5c0 3.3 2.7 6 6 6H189c3.3 0 6-2.7 6-6v-61.1c0-3.3-2.7-6-6-6h-61.1c-3.3 0-6 2.7-6 6v61.1z"/><path class="st0" d="M127.9 97.5H189c3.3 0 6-2.7 6-6V30.4c0-3.3-2.7-6-6-6h-61.1c-3.3 0-6 2.7-6 6v61.1c0 3.3 2.7 6 6 6z"/><path class="st2" d="M225.4 97.5h61.1c3.3 0 6-2.7 6-6V30.4c0-3.3-2.7-6-6-6h-61.1c-3.3 0-6 2.7-6 6v61.1c0 3.3 2.7 6 6 6z"/><path class="st3" d="M219.4 189c0 3.3 2.7 6 6 6h61.1c3.3 0 6-2.7 6-6v-61.1c0-3.3-2.7-6-6-6h-61.1c-3.3 0-6 2.7-6 6V189z"/><path class="st2" d="M24.4 189c0 3.3 2.7 6 6 6h61.1c3.3 0 6-2.7 6-6v-61.1c0-3.3-2.7-6-6-6H30.4c-3.3 0-6 2.7-6 6V189z"/><path class="st4" d="M24.4 481.6c0 3.3 2.7 6 6 6h61.1c3.3 0 6-2.7 6-6v-61.1c0-3.3-2.7-6-6-6H30.4c-3.3 0-6 2.7-6 6v61.1z"/><path class="st3" d="M30.4 97.5h61.1c3.3 0 6-2.7 6-6V30.4c0-3.3-2.7-6-6-6H30.4c-3.3 0-6 2.7-6 6v61.1c0 3.3 2.7 6 6 6z"/><path class="st5" d="M219.4 286.6c0 3.3 2.7 6 6 6h61.1c3.3 0 6-2.7 6-6v-61.1c0-3.3-2.7-6-6-6h-61.1c-3.3 0-6 2.7-6 6v61.1z"/><path class="st3" d="M24.4 286.6c0 3.3 2.7 6 6 6h61.1c3.3 0 6-2.7 6-6v-61.1c0-3.3-2.7-6-6-6H30.4c-3.3 0-6 2.7-6 6v61.1z"/><path class="st5" d="M24.4 384.1c0 3.3 2.7 6 6 6h61.1c3.3 0 6-2.7 6-6V323c0-3.3-2.7-6-6-6H30.4c-3.3 0-6 2.7-6 6v61.1z"/><path class="st4" d="M121.9 189c0 3.3 2.7 6 6 6H189c3.3 0 6-2.7 6-6v-61.1c0-3.3-2.7-6-6-6h-61.1c-3.3 0-6 2.7-6 6V189z"/><path class="st0" d="M317 481.6c0 3.3 2.7 6 6 6h61.1c3.3 0 6-2.7 6-6v-61.1c0-3.3-2.7-6-6-6H323c-3.3 0-6 2.7-6 6v61.1z"/><path class="st5" d="M219.4 384.1c0 3.3 2.7 6 6 6h61.1c3.3 0 6-2.7 6-6V323c0-3.3-2.7-6-6-6h-61.1c-3.3 0-6 2.7-6 6v61.1z"/><path class="st1" d="M414.5 189c0 3.3 2.7 6 6 6h61.1c3.3 0 6-2.7 6-6v-61.1c0-3.3-2.7-6-6-6h-61.1c-3.3 0-6 2.7-6 6V189z"/><path class="st5" d="M420.5 97.5h61.1c3.3 0 6-2.7 6-6V30.4c0-3.3-2.7-6-6-6h-61.1c-3.3 0-6 2.7-6 6v61.1c0 3.3 2.7 6 6 6z"/><path class="st3" d="M414.5 481.6c0 3.3 2.7 6 6 6h61.1c3.3 0 6-2.7 6-6v-61.1c0-3.3-2.7-6-6-6h-61.1c-3.3 0-6 2.7-6 6v61.1z"/><path class="st2" d="M414.5 384.1c0 3.3 2.7 6 6 6h61.1c3.3 0 6-2.7 6-6V323c0-3.3-2.7-6-6-6h-61.1c-3.3 0-6 2.7-6 6v61.1z"/><path class="st0" d="M414.5 286.6c0 3.3 2.7 6 6 6h61.1c3.3 0 6-2.7 6-6v-61.1c0-3.3-2.7-6-6-6h-61.1c-3.3 0-6 2.7-6 6v61.1z"/><path class="st2" d="M317 189c0 3.3 2.7 6 6 6h61.1c3.3 0 6-2.7 6-6v-61.1c0-3.3-2.7-6-6-6H323c-3.3 0-6 2.7-6 6V189z"/><path class="st5" d="M219.4 481.6c0 3.3 2.7 6 6 6h61.1c3.3 0 6-2.7 6-6v-61.1c0-3.3-2.7-6-6-6h-61.1c-3.3 0-6 2.7-6 6v61.1z"/><path class="st4" d="M317 384.1c0 3.3 2.7 6 6 6h61.1c3.3 0 6-2.7 6-6V323c0-3.3-2.7-6-6-6H323c-3.3 0-6 2.7-6 6v61.1z"/><path class="st3" d="M323 97.5h61.1c3.3 0 6-2.7 6-6V30.4c0-3.3-2.7-6-6-6H323c-3.3 0-6 2.7-6 6v61.1c0 3.3 2.7 6 6 6z"/><path class="st1" d="M317 286.6c0 3.3 2.7 6 6 6h61.1c3.3 0 6-2.7 6-6v-61.1c0-3.3-2.7-6-6-6H323c-3.3 0-6 2.7-6 6v61.1z"/><path d="M493.6 0H6C2.7 0 0 2.7 0 6v500c0 3.3 2.7 6 6 6h500c3.3 0 6-2.7 6-6V6c0-3.3-2.7-6-6-6h-12.4zm-79.1 30.4c0-3.3 2.7-6 6-6h61.1c3.3 0 6 2.7 6 6v61.1c0 3.3-2.7 6-6 6h-61.1c-3.3 0-6-2.7-6-6V30.4zm-292.6 97.5c0-3.3 2.7-6 6-6H189c3.3 0 6 2.7 6 6V189c0 3.3-2.7 6-6 6h-61.1c-3.3 0-6-2.7-6-6v-61.1zm97.5 0c0-3.3 2.7-6 6-6h61.1c3.3 0 6 2.7 6 6V189c0 3.3-2.7 6-6 6h-61.1c-3.3 0-6-2.7-6-6v-61.1zm97.6 0c0-3.3 2.7-6 6-6h61.1c3.3 0 6 2.7 6 6V189c0 3.3-2.7 6-6 6H323c-3.3 0-6-2.7-6-6v-61.1zm-24.4 158.7c0 3.3-2.7 6-6 6h-61.1c-3.3 0-6-2.7-6-6v-61.1c0-3.3 2.7-6 6-6h61.1c3.3 0 6 2.7 6 6v61.1zm97.5 0c0 3.3-2.7 6-6 6H323c-3.3 0-6-2.7-6-6v-61.1c0-3.3 2.7-6 6-6h61.1c3.3 0 6 2.7 6 6v61.1zm-268.2-61.2c0-3.3 2.7-6 6-6H189c3.3 0 6 2.7 6 6v61.1c0 3.3-2.7 6-6 6h-61.1c-3.3 0-6-2.7-6-6v-61.1zm0 97.6c0-3.3 2.7-6 6-6H189c3.3 0 6 2.7 6 6v61.1c0 3.3-2.7 6-6 6h-61.1c-3.3 0-6-2.7-6-6V323zm97.5 0c0-3.3 2.7-6 6-6h61.1c3.3 0 6 2.7 6 6v61.1c0 3.3-2.7 6-6 6h-61.1c-3.3 0-6-2.7-6-6V323zm97.6 0c0-3.3 2.7-6 6-6h61.1c3.3 0 6 2.7 6 6v61.1c0 3.3-2.7 6-6 6H323c-3.3 0-6-2.7-6-6V323zm97.5 0c0-3.3 2.7-6 6-6h61.1c3.3 0 6 2.7 6 6v61.1c0 3.3-2.7 6-6 6h-61.1c-3.3 0-6-2.7-6-6V323zm6-30.4c-3.3 0-6-2.7-6-6v-61.1c0-3.3 2.7-6 6-6h61.1c3.3 0 6 2.7 6 6v61.1c0 3.3-2.7 6-6 6h-61.1zm0-97.6c-3.3 0-6-2.7-6-6v-61.1c0-3.3 2.7-6 6-6h61.1c3.3 0 6 2.7 6 6V189c0 3.3-2.7 6-6 6h-61.1zM317 30.4c0-3.3 2.7-6 6-6h61.1c3.3 0 6 2.7 6 6v61.1c0 3.3-2.7 6-6 6H323c-3.3 0-6-2.7-6-6V30.4zm-97.6 0c0-3.3 2.7-6 6-6h61.1c3.3 0 6 2.7 6 6v61.1c0 3.3-2.7 6-6 6h-61.1c-3.3 0-6-2.7-6-6V30.4zm-97.5 0c0-3.3 2.7-6 6-6H189c3.3 0 6 2.7 6 6v61.1c0 3.3-2.7 6-6 6h-61.1c-3.3 0-6-2.7-6-6V30.4zm-97.5 0c0-3.3 2.7-6 6-6h61.1c3.3 0 6 2.7 6 6v61.1c0 3.3-2.7 6-6 6H30.4c-3.3 0-6-2.7-6-6V30.4zm0 97.5c0-3.3 2.7-6 6-6h61.1c3.3 0 6 2.7 6 6V189c0 3.3-2.7 6-6 6H30.4c-3.3 0-6-2.7-6-6v-61.1zm0 97.5c0-3.3 2.7-6 6-6h61.1c3.3 0 6 2.7 6 6v61.1c0 3.3-2.7 6-6 6H30.4c-3.3 0-6-2.7-6-6v-61.1zm0 97.6c0-3.3 2.7-6 6-6h61.1c3.3 0 6 2.7 6 6v61.1c0 3.3-2.7 6-6 6H30.4c-3.3 0-6-2.7-6-6V323zm6 164.6c-3.3 0-6-2.7-6-6v-61.1c0-3.3 2.7-6 6-6h61.1c3.3 0 6 2.7 6 6v61.1c0 3.3-2.7 6-6 6H30.4zm97.5 0c-3.3 0-6-2.7-6-6v-61.1c0-3.3 2.7-6 6-6H189c3.3 0 6 2.7 6 6v61.1c0 3.3-2.7 6-6 6h-61.1zm97.5 0c-3.3 0-6-2.7-6-6v-61.1c0-3.3 2.7-6 6-6h61.1c3.3 0 6 2.7 6 6v61.1c0 3.3-2.7 6-6 6h-61.1zm97.6 0c-3.3 0-6-2.7-6-6v-61.1c0-3.3 2.7-6 6-6h61.1c3.3 0 6 2.7 6 6v61.1c0 3.3-2.7 6-6 6H323zm97.5 0c-3.3 0-6-2.7-6-6v-61.1c0-3.3 2.7-6 6-6h61.1c3.3 0 6 2.7 6 6v61.1c0 3.3-2.7 6-6 6h-61.1z" fill="#dddedd"/></svg>