<svg version="1.1" xmlns="http://www.w3.org/2000/svg" x="0" y="0" viewBox="0 0 512 512" xml:space="preserve"><path d="M313 249c2.8 0 5 2.3 5 5v4c0 2.8-2.3 5-5 5H5c-2.8 0-5-2.3-5-5v-4c0-2.8 2.3-5 5-5h308z" fill="#826049"/><path fill="#e0ac7e" d="M512 265l-87-3 66-6-66-6 87-3-63-6-54-1 24-3 76 2-44-9-51-4 51-3-57-4-48.2 10.7L314 245h-5l-15-7 6 9-13-1 13 10-13 10 13-1-6 9 15-7h5l31.8 15.3L394 293l57-4-51-3 51-4 44-9-76 2-24-3 54-1z"/><path fill="#724729" d="M309 267v-22h5v22z"/><path d="M512 265l-87-3 66-6H0v2c0 2.8 2.3 5 5 5h285.9l-3.9 3 13-1-6 9 15-7h5l31.8 15.3L394 293l57-4-51-3 51-4 44-9-76 2-24-3 54-1 63-6z" opacity=".15" fill="#444"/></svg>