<svg version="1.1" xmlns="http://www.w3.org/2000/svg" x="0" y="0" viewBox="0 0 512 512" xml:space="preserve"><path fill="#a18267" d="M239 153.5l187 46v158l-187-51z"/><path fill="#b18d6c" d="M239 306.5l-153 69v-166l153-56z"/><path fill="#c99c75" d="M86 375.5l195 72v-182l-195-56z"/><path d="M426 357.5l-145 90v-182l145-66zm-187-204l-59-89-165 43 71 102zm0 0l53-80 193 33-59 93z" fill="#e0ac7e"/><path fill="#d1a279" d="M281 265.5l90-82 141-61-86 77z"/><path fill="#c19873" d="M281 265.5l-75-50-206-56 86 50z"/><path d="M192 239.9l-74-48.3-33.6-9.2 73.6 47.8v41.3l34 12v-43.6zm243.9-84.5L350 234.1v41.4l24-11v-41.3l85.8-78.1z" fill="#826049"/></svg>