<svg version="1.1" xmlns="http://www.w3.org/2000/svg" x="0" y="0" viewBox="0 0 512 512" xml:space="preserve"><path fill="#FFA000" d="M61 61.8l441.3 19.6c5.4.2 9.7 4.7 9.7 10.1v164c0 5.2-3.9 9.5-9 10.1l-375 41.7L61 61.8z"/><path fill="#36434F" d="M512 438H67.8c-16 0-30-9.1-36.5-23.7s-3.9-31.1 6.7-43l63.2-70.5c2.3-2.5 3.1-6 2.2-9.3L34.7 40H0V0h34.7c18 0 33.9 12.1 38.6 29.5L142 281c4.5 16.4.4 33.9-11 46.5L67.8 398H512v40z"/><circle fill="#36434F" cx="140" cy="475" r="37"/><circle fill="#36434F" cx="440" cy="475" r="37"/><path opacity=".15" fill="#444" d="M256 438H67.8c-16 0-30-9.1-36.5-23.7s-3.9-31.1 6.7-43l63.2-70.5c2.3-2.5 3.1-6 2.2-9.3L34.7 40H0V0h34.7c18 0 33.9 12.1 38.6 29.5l9.1 33.3L256 70.4V293l-113.6 12.6c-1.9 8-5.8 15.5-11.4 21.8L67.8 398H256v40zm-79 37c0-20.4-16.6-37-37-37s-37 16.6-37 37 16.6 37 37 37 37-16.6 37-37z"/></svg>