<?xml version="1.0" encoding="utf-8"?>
<!-- Generator: Adobe Illustrator 22.1.0, SVG Export Plug-In . SVG Version: 6.00 Build 0)  -->
<svg version="1.1" id="icon_x5F_source" xmlns="http://www.w3.org/2000/svg" xmlns:xlink="http://www.w3.org/1999/xlink" x="0px"
	 y="0px" viewBox="0 0 512 512" style="enable-background:new 0 0 512 512;" xml:space="preserve">
<style type="text/css">
	.st0{fill:#DDDDDD;}
	.st1{fill:#2E86B7;}
</style>
<path class="st0" d="M256,114c-2.7,0-5.4-0.2-8-0.6v285.2c2.6-0.4,5.3-0.6,8-0.6s5.4,0.2,8,0.6V113.4C261.4,113.8,258.7,114,256,114
	z"/>
<path class="st1" d="M256,16c24.3,0,44,19.7,44,44s-19.7,44-44,44s-44-19.7-44-44S231.7,16,256,16 M256,0c-33.1,0-60,26.9-60,60
	s26.9,60,60,60s60-26.9,60-60S289.1,0,256,0L256,0z"/>
<path class="st1" d="M256,408c24.3,0,44,19.7,44,44s-19.7,44-44,44s-44-19.7-44-44S231.7,408,256,408 M256,392
	c-33.1,0-60,26.9-60,60s26.9,60,60,60s60-26.9,60-60S289.1,392,256,392L256,392z"/>
</svg>
