<?xml version="1.0" encoding="utf-8"?>
<!-- Generator: Adobe Illustrator 22.1.0, SVG Export Plug-In . SVG Version: 6.00 Build 0)  -->
<svg version="1.1" id="icon" xmlns="http://www.w3.org/2000/svg" xmlns:xlink="http://www.w3.org/1999/xlink" x="0px" y="0px"
	 viewBox="0 0 512 512" style="enable-background:new 0 0 512 512;" xml:space="preserve">
<style type="text/css">
	.st0{fill:#36434F;}
	.st1{fill:#4CAF50;}
</style>
<path class="st0" d="M256,114c-5.6,0-10.9-0.8-16-2.4v288.8c5.1-1.6,10.4-2.4,16-2.4s10.9,0.8,16,2.4V111.6
	C266.9,113.2,261.6,114,256,114z"/>
<path class="st1" d="M256,32c15.4,0,28,12.6,28,28s-12.6,28-28,28s-28-12.6-28-28S240.6,32,256,32 M256,0c-33.1,0-60,26.9-60,60
	s26.9,60,60,60s60-26.9,60-60S289.1,0,256,0L256,0z"/>
<path class="st1" d="M256,424c15.4,0,28,12.6,28,28s-12.6,28-28,28s-28-12.6-28-28S240.6,424,256,424 M256,392
	c-33.1,0-60,26.9-60,60s26.9,60,60,60s60-26.9,60-60S289.1,392,256,392L256,392z"/>
</svg>
