<svg version="1.1" id="Layer_1" xmlns="http://www.w3.org/2000/svg" x="0" y="0" viewBox="0 0 512 512" xml:space="preserve"><style type="text/css">.st1{fill:#fdfefe}.st2{fill:#525e90}.st4{fill:#8da2b8}.st5{fill:#6783a0}.st6{fill:#61789b}</style><path fill="#4a507f" d="M0 0h512v512H0z" id="background"/><g id="icon"><path class="st1" d="M450.2 415.5C444.5 384.1 425 317 425 317s-39.5-144.2-69-199.4c-29.6-55.3-62-92.9-100-92.9s-70.5 37.7-99.9 92.9S87 317 87 317s-19.5 67.1-25.2 98.5-13.3 56.2 6.1 65.2 188.1 6.1 188.1 6.1 168.5 2.9 188.1-6.1 11.8-33.8 6.1-65.2z"/><ellipse class="st2" cx="285.6" cy="145.6" rx="7.8" ry="10.9"/><ellipse class="st2" cx="241.9" cy="145.6" rx="7.8" ry="10.9"/><circle class="st2" cx="264.1" cy="144.7" r="2.3"/><path class="st2" d="M352 110.2l-1.5-2.7c-24.3 2.6-61 7.1-101.4 14.4-45.6 8.1-84.6 19.1-106.9 25.9-.5 1.1-.9 2.3-1.4 3.4 21.8-6.8 61.7-18.2 108.8-26.6 40.9-7.3 78.2-11.8 102.4-14.4z"/><path d="M262.7 458.3c-82.7-.7-165.8-5.2-206.9-7.8-1.4 14.2.8 24.9 12.2 30.2 19.5 9 188.1 6.1 188.1 6.1s168.5 2.9 188.1-6.1c10.3-4.8 13-13.8 12.5-26-36.5 1.6-111.4 4.4-194 3.6z" fill="#9ecdd3"/><ellipse transform="rotate(-15.225 392.697 258.007)" class="st2" cx="392.7" cy="258" rx="7.1" ry="27.1"/><path class="st4" d="M167.4 308h-3.8s-17.2 0-20 1c-2.9 1-9.5 4.8-12.4 7.6-2.9 2.9-8.6 11.4-10.5 17.2-1.9 5.8-23.4 113.2-23.4 113.2-.2 1 .5 1.9 1.5 2 0 0 36.1 1.8 63.8 2.8s73.3 1.9 73.3 1.9c1.1 0 1.7-.8 1.4-1.8 0 0-31.9-118.1-33.8-123.8-1.9-5.7-10.5-14.3-16.2-17.2-5.6-2.9-19.9-2.9-19.9-2.9z"/><circle class="st1" cx="111.8" cy="445.7" r="1.9"/><circle class="st1" cx="101.8" cy="445.3" r="1.9"/><circle class="st1" cx="121.8" cy="446.1" r="1.9"/><circle class="st1" cx="131.7" cy="446.5" r="1.9"/><circle class="st1" cx="141.8" cy="446.9" r="1.9"/><circle class="st1" cx="151.7" cy="447.3" r="1.9"/><circle class="st1" cx="161.7" cy="447.7" r="1.9"/><circle class="st1" cx="171.8" cy="448.1" r="1.9"/><circle class="st1" cx="181.7" cy="448.5" r="1.9"/><circle class="st1" cx="191.7" cy="448.9" r="1.9"/><circle class="st1" cx="201.7" cy="449.3" r="1.9"/><circle class="st1" cx="211.7" cy="449.7" r="1.9"/><circle class="st1" cx="221.7" cy="450.1" r="1.9"/><circle class="st1" cx="231.7" cy="450.5" r="1.9"/><path class="st5" d="M109.4 418.4s18.1-76.2 19.1-79c1-2.9 4.8-9.5 6.7-11.4s7.6-5.7 11.4-5.7h35.2c4.8 0 11.4 4.8 13.3 8.6 1.9 3.8 14.3 39.9 14.3 39.9l-12.6-27.4s-1.7-3.1-2.7-4c-1-1-2.7-1-6.7-1H156c-1.9 0-5.7 2.9-7.6 5.7-1.9 2.9-39 74.3-39 74.3z"/><path class="st6" d="M189.2 341.3h-32.1c-3.8 0-6.8 4.7-6.8 10.5s3.1 10.5 6.8 10.5h32.1c3.8 0 6.8-4.7 6.8-10.5s-3-10.5-6.8-10.5z"/><path class="st4" d="M358.5 310.8h3.5s15.6 0 18.3 1c2.6 1 8.7 4.8 11.3 7.6 2.6 2.9 7.9 11.4 9.6 17.2 1.7 5.7 21.4 113.3 21.4 113.3.2 1-.5 1.9-1.4 2 0 0-33.1 1.8-58.4 2.8s-67.1 1.9-67.1 1.9c-1 0-1.5-.8-1.3-1.8 0 0 29.2-118.1 30.9-123.8 1.7-5.7 9.6-14.3 14.8-17.2 5.4-2.9 18.4-3 18.4-3z"/><circle class="st1" cx="419.1" cy="447.3" r="1.9"/><circle class="st1" cx="409.2" cy="447.8" r="1.9"/><circle class="st1" cx="399.1" cy="448.2" r="1.9"/><circle class="st1" cx="389.2" cy="448.7" r="1.9"/><circle class="st1" cx="379.2" cy="449.1" r="1.9"/><circle class="st1" cx="369.2" cy="449.6" r="1.9"/><circle class="st1" cx="359.2" cy="450" r="1.9"/><circle class="st1" cx="349.3" cy="450.5" r="1.9"/><circle class="st1" cx="339.2" cy="450.9" r="1.9"/><circle class="st1" cx="329.3" cy="451.4" r="1.9"/><circle class="st1" cx="319.3" cy="451.8" r="1.9"/><circle class="st1" cx="309.3" cy="452.3" r="1.9"/><circle class="st1" cx="299.3" cy="452.7" r="1.9"/><path class="st5" d="M413.1 421.3s-18.1-76.2-18.9-79-4.3-9.5-6.1-11.4c-1.7-1.9-7-5.7-10.5-5.7h-32.3c-4.4 0-10.5 4.8-12.2 8.6-1.7 3.8-13.1 39.9-13.1 39.9l11.5-27.4s1.6-3.1 2.4-4 2.5-1 6.1-1h28.6c1.7 0 5.2 2.9 7 5.7s37.5 74.3 37.5 74.3z"/><path class="st6" d="M338.6 344.1H368c3.4 0 6.2 4.7 6.2 10.5s-2.8 10.5-6.2 10.5h-29.4c-3.4 0-6.2-4.7-6.2-10.5s2.8-10.5 6.2-10.5z"/></g></svg>