<?xml version="1.0" encoding="utf-8"?>
<!-- Generator: Adobe Illustrator 22.1.0, SVG Export Plug-In . SVG Version: 6.00 Build 0)  -->
<svg version="1.1" id="Layer_1" xmlns="http://www.w3.org/2000/svg" xmlns:xlink="http://www.w3.org/1999/xlink" x="0px" y="0px"
	 viewBox="0 0 512 512" style="enable-background:new 0 0 512 512;" xml:space="preserve">
<style type="text/css">
	.st0{fill:#31556D;}
	.st1{fill:#F8F8F8;}
	.st2{fill:#5E838B;}
	.st3{fill:#7A7A7A;}
	.st4{fill:#9ABECC;}
	.st5{fill:#f0f0f0;}
	.st6{fill:#82A0AB;}
	.st7{opacity:0.15;fill:#9ABECC;enable-background:new    ;}
</style>
<path id="background" class="st0" d="M0,0h512v512H0V0z"/>
<path class="st1" d="M449.4,414.9c-5.7-31.3-25.1-98.1-25.1-98.1S385,173.1,355.5,118.1c-29.4-55-61.6-92.5-99.5-92.5
	s-70.2,37.5-99.5,92.5S87.7,316.8,87.7,316.8s-19.4,66.9-25.1,98.1c-2.7,14.9-5.8,28.2-6.3,39.1c0,0.1,29.2,3.9,31.3,4
	c13.5,0.4,27,0.9,40.5,1.3c16,0.5,32.1,0.7,48.1,0.9c17.9,0.3,35.7,0.4,53.6,0.4h55.4c18,0,36-0.1,54-0.4c16.1-0.2,32.2-0.5,48.4-1
	c13.5-0.4,27-0.8,40.4-1.3c9.5-0.4,18.1-3.4,27.5-3.9C455.3,443,452.1,429.7,449.4,414.9z"/>
<path class="st2" d="M455.7,453.9c-10.2,0.5-20.3,0.8-30.5,1.3c-13.5,0.5-27,0.9-40.6,1.3c-16.1,0.5-32.1,0.7-48.2,0.9
	c-17.9,0.3-35.8,0.4-53.7,0.3h-55.2c-17.7,0-35.5-0.1-53.3-0.4c-15.9-0.2-31.9-0.5-47.8-0.9c-13.4-0.4-26.8-0.7-40.1-1.3
	c-10-0.4-20.1-0.7-30.1-1.2c0,0-0.1,2.3-0.1,2.4c0,8.6,1.9,17.5,10.1,22c0.1,0,0.1,0.1,0.2,0.1c5.5,3.1,11.9,3.8,18.2,4.3
	c37.2,3.4,74.4,3,111.7,3.6c19.9,0.4,39.8-0.1,59.7-0.2c19.9,0.2,39.8,0.5,59.7,0.2c37.3-0.6,74.5-0.1,111.7-3.6
	c6.2-0.5,12.7-1.4,18.2-4.3c0.1,0,0.1-0.1,0.2-0.1c8.2-4.6,10.1-13.3,10.1-22C455.8,456.3,455.7,453.9,455.7,453.9L455.7,453.9z"/>
<ellipse class="st3" cx="277.8" cy="146" rx="7.7" ry="10.9"/>
<ellipse class="st3" cx="234.2" cy="146" rx="7.7" ry="10.9"/>
<ellipse transform="matrix(0.3163 -0.9487 0.9487 0.3163 37.6648 342.4578)" class="st3" cx="256.4" cy="145.1" rx="2.3" ry="2.3"/>
<path class="st3" d="M351.6,110.8l-1.5-2.7c-24.2,2.6-60.7,7.1-101,14.3c-45.4,8.1-84.2,19-106.5,25.8c-0.4,1.1-0.9,2.3-1.4,3.4
	c21.7-6.8,61.5-18.1,108.4-26.5C290.4,117.9,327.5,113.4,351.6,110.8z"/>
<ellipse transform="matrix(0.9649 -0.2626 0.2626 0.9649 -53.9932 112.0278)" class="st3" cx="392.1" cy="258" rx="7.1" ry="27"/>
<path class="st4" d="M167.8,306H164c0,0-17.1,0-19.9,1c-2.9,1-9.4,4.8-12.3,7.6c-2.9,2.9-8.5,11.3-10.4,17.1
	C119.5,337.4,98,444.4,98,444.4c-0.2,1,0.4,1.9,1.5,2c0,0,36,1.8,63.5,2.8s73,1.9,73,1.9c1.1,0,1.7-0.8,1.4-1.8
	c0,0-31.8-117.6-33.7-123.3s-10.4-14.2-16.1-17.1C182,306,167.8,306,167.8,306L167.8,306z"/>
<circle class="st5" cx="112.4" cy="443.1" r="1.9"/>
<circle class="st5" cx="102.5" cy="442.8" r="1.9"/>
<circle class="st5" cx="122.3" cy="443.6" r="1.9"/>
<circle class="st5" cx="132.2" cy="443.9" r="1.9"/>
<circle class="st5" cx="142.2" cy="444.4" r="1.9"/>
<circle class="st5" cx="152.1" cy="444.7" r="1.9"/>
<circle class="st5" cx="162.1" cy="445.1" r="1.9"/>
<circle class="st5" cx="172.1" cy="445.5" r="1.9"/>
<circle class="st5" cx="182" cy="445.9" r="1.9"/>
<circle class="st5" cx="192" cy="446.4" r="1.9"/>
<circle class="st5" cx="201.9" cy="446.7" r="1.9"/>
<circle class="st5" cx="211.9" cy="447.1" r="1.9"/>
<circle class="st5" cx="221.8" cy="447.5" r="1.9"/>
<circle class="st5" cx="231.8" cy="447.9" r="1.9"/>
<path class="st6" d="M110,415.9c0,0,18-75.9,19-78.7c1-2.9,4.8-9.5,6.7-11.3c1.9-1.9,7.6-5.7,11.3-5.7h35.1c4.8,0,11.3,4.8,13.2,8.6
	c1.9,3.8,14.2,39.8,14.2,39.8L197,341.3c0,0-1.7-3.1-2.7-4c-1-1-2.7-1-6.7-1h-31.2c-1.9,0-5.7,2.9-7.6,5.7
	C146.9,344.8,110,415.9,110,415.9z"/>
<path class="st6" d="M189.5,339.2h-31.9c-3.8,0-6.8,4.7-6.8,10.4c0,5.8,3.1,10.4,6.8,10.4h31.9c3.8,0,6.7-4.7,6.7-10.4
	C196.2,343.8,193.3,339.2,189.5,339.2z"/>
<path class="st4" d="M344.2,306h3.8c0,0,17.1,0,19.9,1c2.9,1,9.4,4.8,12.3,7.6s8.5,11.3,10.4,17.1c1.9,5.8,23.3,112.9,23.3,112.9
	c0.2,1-0.4,1.9-1.5,2c0,0-36,1.8-63.5,2.8s-73,1.9-73,1.9c-1.1,0-1.7-0.8-1.4-1.8c0,0,31.8-117.6,33.7-123.3
	c1.9-5.7,10.4-14.2,16.1-17.1S344.2,306,344.2,306L344.2,306z"/>
<circle class="st5" cx="399.6" cy="443.1" r="1.9"/>
<circle class="st5" cx="409.5" cy="442.8" r="1.9"/>
<circle class="st5" cx="389.6" cy="443.6" r="1.9"/>
<circle class="st5" cx="379.7" cy="443.9" r="1.9"/>
<circle class="st5" cx="369.8" cy="444.4" r="1.9"/>
<circle class="st5" cx="359.9" cy="444.7" r="1.9"/>
<circle class="st5" cx="349.9" cy="445.1" r="1.9"/>
<circle class="st5" cx="339.9" cy="445.5" r="1.9"/>
<circle class="st5" cx="330" cy="445.9" r="1.9"/>
<circle class="st5" cx="320" cy="446.4" r="1.9"/>
<circle class="st5" cx="310.1" cy="446.7" r="1.9"/>
<circle class="st5" cx="300.1" cy="447.1" r="1.9"/>
<circle class="st5" cx="290.2" cy="447.5" r="1.9"/>
<circle class="st5" cx="280.2" cy="447.9" r="1.9"/>
<path class="st6" d="M402,415.9c0,0-18-75.9-19-78.7c-1-2.9-4.8-9.5-6.7-11.3c-1.9-1.9-7.6-5.7-11.3-5.7h-35.1
	c-4.8,0-11.3,4.8-13.2,8.6c-1.9,3.8-14.2,39.8-14.2,39.8l12.5-27.3c0,0,1.7-3.1,2.7-4c1-1,2.7-1,6.7-1h31.2c1.9,0,5.7,2.9,7.6,5.7
	C365,344.8,402,415.9,402,415.9L402,415.9z"/>
<path class="st6" d="M322.5,339.2h31.9c3.8,0,6.8,4.7,6.8,10.4c0,5.8-3.1,10.4-6.8,10.4h-31.9c-3.8,0-6.7-4.7-6.7-10.4
	C315.8,343.8,318.7,339.2,322.5,339.2z"/>
<path class="st7" d="M220,146.2l-10.8,178.2l25.2,95.4L220,146.2z M180.4,147.1l-53.1,148.5l-12.6,46.8l5.4-50.4L180.4,147.1z
	 M292,146.2l10.8,178.2l-25.2,95.4L292,146.2z M331.6,147.1l53.1,148.5l12.6,46.8l-5.4-50.4L331.6,147.1z"/>
</svg>
