<svg version="1.1" id="Layer_1" xmlns="http://www.w3.org/2000/svg" x="0" y="0" viewBox="0 0 512 512" xml:space="preserve"><style type="text/css">.st1{fill:#8da2b8}.st2{fill:#6783a0}.st3{fill:#fdfefe}</style><path fill="#4a507f" d="M0 0h512v512H0z" id="background"/><path class="st1" d="M291.2 313.8l-19.1-17.1.7-.8 19.1 17.1-.7.8z"/><path class="st2" d="M246.8 15.4c-19.9 0-36 4.8-36 10.7 0 0 5.8 24.3 12.7 41.9s13.6 28.2 13.6 28.2h19.5s6.9-10.7 13.6-28.3C277 50.4 282.9 26 282.9 26c0-5.8-16.2-10.6-36.1-10.6z"/><path class="st2" d="M300.7 99.1c-.6-.6-1-1.9-1-2.9v-2.9c0-1-.7-2.5-1.4-3.3l-.3-.3c-.8-.8-2.3-1.2-3.4-1l-3.7.5c-1 .1-2.7.7-3.7 1.1l-4 2.2c-.9.5-2.6.9-3.7.9h-61.7c-1 0-2.7-.4-3.7-.9l-4-2.1c-.9-.5-2.6-1-3.7-1.1l-3.7-.5c-1-.1-2.5.4-3.4 1l-.3.3c-.8.8-1.4 2.2-1.4 3.3v2.8c0 1-.5 2.3-1 2.9s-1 1.9-1 2.9v3.9h106.1V102c.2-1-.3-2.3-1-2.9z"/><path class="st3" d="M191.2 107.3h114.9v136H191.2v-136z"/><ellipse class="st3" cx="248.8" cy="107.3" rx="57.4" ry="13"/><path class="st2" d="M248.8 230.7c-31.8 0-57.4 5.6-57.4 12.7l39.9 64.3h35.1l39.9-64.3c-.1-7-25.8-12.7-57.5-12.7z"/><path class="st1" d="M295.2 491.2l-5.6 1-15.6-88.7 5.6-1 15.6 88.7z"/><path class="st3" d="M184.5 456.7l-15.6-37 3.8-7.6 25.5 36.8-13.7 7.8z"/><path class="st1" d="M168.7 409.8l5.2 2.2-35.8 82.2-5.2-2.2 35.8-82.2z"/><path class="st1" d="M144.6 489.7h-26.4v2.5c0 .9.7 2.2 1.4 2.7l.7.5c.8.6 2.2 1 3.1 1h17.9c.9 0 2.3-.5 3.1-1l.7-.5c.8-.6 1.4-1.8 1.4-2.7v-2.5h-1.9zm160.7 0h-26.4v2.5c0 .9.7 2.2 1.4 2.7l.7.5c.8.6 2.2 1 3.1 1H302c.9 0 2.3-.5 3.1-1l.7-.5c.8-.6 1.4-1.8 1.4-2.7v-2.5h-1.9zm-88.6 0h-26.3v2.5c0 .9.7 2.2 1.4 2.7l.7.5c.8.6 2.2 1 3.1 1h17.9c.9 0 2.3-.5 3.1-1l.7-.5c.8-.6 1.4-1.8 1.4-2.7v-2.5h-2zm175.4 0h-26.4v2.5c0 .9.7 2.2 1.4 2.7l.7.5c.8.6 2.2 1 3.1 1h17.9c.9 0 2.3-.5 3.1-1l.7-.5c.8-.6 1.4-1.8 1.4-2.7v-2.5h-1.9z"/><path class="st3" d="M191.2 459.6l-42.3 9.6 4.6-10.5 34.8-7.8 2.9 8.7zm146.2-45.8L316 459.6l-15.6-12.7 32.1-39.9 4.9 6.8z"/><path class="st3" d="M359.8 457.6l-19.5-2.9-20.4-14.6-3.9 19.5 46.8 4.9-3-6.9z"/><path class="st1" d="M381.3 490.1l-5.3 2.8-44.7-85.7 5.3-2.8 44.7 85.7z"/><path class="st3" d="M181.6 399.2H316v60.4H181.6v-60.4z"/><path class="st1" d="M218.5 397.4l5.6 1-16.5 93.9-5.6-1 16.5-93.9z"/><path class="st1" d="M217.7 406l4.7-3.2 40.4 59.8-4.7 3.2-40.4-59.8zm-8.9-8.7l-27.3 2-12.7 10.7 4.4 3.3 8.3.6 23.7-12.1 3.6-4.5z"/><path class="st1" d="M174.7 400.2h8.8l4.8-36.1h-4.8l-8.8 36.1z"/><path class="st1" d="M296.5 340.8v-19.5l-10.2-4.5-.6-8.1 3.9-2 1-2.9-3.9-4.9-5.8 2.9-.9 4.9-11.8 1.8-1.9-.8h-36.9l-8.4-8.3 3.5-4.3-1-6.9-10.7 2.9-.9 2 4.9 4.9 3.8 11.2-4.8 3.3-18.4 1-2.4 5.7-2.4-1.8 2-.9-4.9-3.9-6.9 4.9 3.9 3.9 2.9-1.9 3.4 4.2v.1l-1.5 3.5 2 5.8 4.9 2h4.9v.9l-3.9 2.9-1.9 7.8v1.5l-7.8-3.5-2.9 2.9h-4.9v10.7h4.9l10.7 6.6v5.2l-2.9 7.8 9.7 24.3h102.3l19.5-18.5v-19.5l-29.6-23.4z"/><path class="st1" d="M313.1 408l11.7.9 13-2.4-1.2-4.3-12.7-3.9-13.6-2.9-7.8 3.9 10.6 8.7z"/><path class="st2" d="M221.5 362.2h23.4v13.6h-23.4v-13.6z"/><circle class="st3" cx="226.4" cy="337.9" r="4.9"/><circle class="st2" cx="226.4" cy="337.9" r="2.9"/><circle class="st3" cx="191.2" cy="176.1" r="4.9"/><path class="st1" d="M316 357.3v-5.8h-8.6l7.7 6.8.9-1z"/><path class="st1" d="M311.1 345.7l2 6.8h.9l2-6.8h-4.9z"/><path class="st2" d="M201 186.4l-6.9-.9s-.9.9-.9 2c0 1 .9 2 .9 2l6.9-.9v-2.2zm4.9-8.6l-4.9 2.9v13.2l4.9 2.9 5.8-1.9v-15.1l-5.8-2z"/><path class="st2" d="M203 181l-.9-6.9s.9-.9 2-.9c1 0 2 .9 2 .9l-.9 6.9H203zm0 12.7l-.9 6.9s.9.9 2 .9c1 0 2-.9 2-.9l-.9-6.9H203zm2-11.3v9.8l6.8 2.4V180l-6.8 2.4zm95.4 4l6.9-.9s.9.9.9 2c0 1-.9 2-.9 2l-6.9-.9v-2.2zm-4.9-8.6l4.9 2.9v13.2l-4.9 2.9-5.8-1.9v-15.1l5.8-2z"/><path class="st2" d="M298.4 181l.9-6.9s-.9-.9-2-.9c-1 0-2 .9-2 .9l.9 6.9h2.2zm0 12.7l.9 6.9s-.9.9-2 .9c-1 0-2-.9-2-.9l.9-6.9h2.2zm-1.9-11.3v9.8l-6.9 2.4V180l6.9 2.4z"/><path class="st1" d="M223.4 106c-19.1 2.3-32.1 7.1-32.1 12.7v30.2c0-5.5 13.1-10.3 32.1-12.7V106zm53.6.4v30.2c17.5 2.4 29.2 7 29.2 12.3v-30.2c0-5.4-11.8-9.9-29.2-12.3zm-53.6 107c-19.1 2.1-32.1 6.4-32.1 11.4v14.6c0-5 13.1-9.3 32.1-11.4v-14.6zm53.6.4v14.6c17.5 2.2 29.2 6.3 29.2 11v-14.6c0-4.7-11.8-8.8-29.2-11z"/><ellipse class="st3" cx="274.6" cy="269.2" rx="2.4" ry="3.4"/><path class="st3" d="M243.9 363.1c.4 0 .7 0 .9.1v-.1c0-2.7-2.2-4.9-4.9-4.9h-13.6c-2.3 0-4.3 1.7-4.8 3.9h.4c2.4 0 4.4 2 4.4 4.4s-2 4.4-4.4 4.4c-.2 0-.3 0-.5-.1v4.9c0 2.7 2.2 4.9 4.9 4.9H240c2.7 0 4.9-2.2 4.9-4.9v-1c-.3.1-.7.1-.9.1-3.2 0-5.8-2.6-5.8-5.8-.1-3.2 2.5-5.9 5.7-5.9z"/><path class="st1" d="M181.6 340.8l2.2 6.8h.8l1.9-6.8h-4.9zm0 24.3l2.2-6.9h.8l1.9 6.9h-4.9z"/><path class="st2" d="M265.3 459.6h-33.1l-6.4 22.5h45.8l-6.3-22.5z"/><path class="st2" d="M267.6 467.4l-2.3-7.8h-33.1l-2.3 7.8h37.7z"/><path class="st1" d="M177.6 350.5h4.9v4.9h-4.9v-4.9zm9.6 13.9l8.9 16.3m-9.4-16.1l.9-.5 8.9 16.3-.9.5-8.9-16.3zm122.5-13.7l-25.4 2.4 17.6 14.7 21.6-6.1-13.8-11zm-31.2-13v2.9l-4.9 2.9v2.9l2.9 3.9 6.9-2.9v-32.4l-9.7-4.4-5 17.4 2.9 4.9 6.9 4.8zm-8.7 95.3h18.5v12.7h-18.5v-12.7z"/></svg>