<svg version="1.1" id="icon" xmlns="http://www.w3.org/2000/svg" x="0" y="0" viewBox="0 0 512 512" xml:space="preserve"><style type="text/css">.st0{fill:#dbdddf}.st1{fill:#555f6f}.st2{fill:#bbbdbf}.st3{fill:#a5a5a5}</style><path class="st0" d="M470.9 432.5c-6.3-34.8-27.9-109-27.9-109s-43.7-159.6-76.4-220.7S298.1 0 256 0s-78 41.7-110.6 102.8S69 323.5 69 323.5s-21.6 74.3-27.9 109-14.7 62.2 6.8 72.2 208.1 6.8 208.1 6.8 186.5 3.2 208.1-6.8 13.1-37.4 6.8-72.2z"/><ellipse class="st1" cx="288.8" cy="133.8" rx="8.6" ry="12.1"/><ellipse class="st1" cx="240.4" cy="133.8" rx="8.6" ry="12.1"/><circle class="st1" cx="265" cy="132.8" r="2.6"/><path class="st1" d="M362.2 94.7c-.6-1-1.1-2-1.7-3-26.9 2.9-67.5 7.9-112.2 15.9-50.5 9-93.6 21.1-118.3 28.7-.5 1.2-1 2.5-1.5 3.8 24.1-7.5 68.3-20.1 120.4-29.4 45.3-8.2 86.5-13.2 113.3-16z"/><path class="st2" d="M263.4 479.9c-91.5-.8-183.5-5.8-229-8.6-1.5 15.7.9 27.5 13.5 33.4 21.6 10 208.1 6.8 208.1 6.8s186.5 3.2 208.1-6.8c11.4-5.3 14.4-15.3 13.8-28.8-40.2 1.8-123.1 4.8-214.5 4z"/><ellipse transform="rotate(-15.225 407.144 258.108)" class="st2" cx="407.2" cy="258.2" rx="7.9" ry="30"/><path class="st2" d="M158 313.5h-4.2s-19 0-22.1 1.1c-3.2 1.1-10.5 5.3-13.7 8.4-3.2 3.2-9.5 12.6-11.6 19S80.5 467.3 80.5 467.3c-.2 1.1.5 2.1 1.7 2.2 0 0 40 2 70.6 3.1s81.1 2.1 81.1 2.1c1.2 0 1.9-.9 1.6-2 0 0-35.3-130.7-37.4-137-2.1-6.3-11.6-15.8-17.9-19-6.4-3.2-22.2-3.2-22.2-3.2z"/><circle class="st0" cx="96.4" cy="465.9" r="2.1"/><circle class="st0" cx="85.4" cy="465.5" r="2.1"/><circle class="st0" cx="107.5" cy="466.4" r="2.1"/><circle class="st0" cx="118.5" cy="466.8" r="2.1"/><circle class="st0" cx="129.6" cy="467.3" r="2.1"/><circle class="st0" cx="140.6" cy="467.7" r="2.1"/><circle class="st0" cx="151.7" cy="468.1" r="2.1"/><circle class="st0" cx="162.8" cy="468.6" r="2.1"/><circle class="st0" cx="173.8" cy="469" r="2.1"/><circle class="st0" cx="184.9" cy="469.5" r="2.1"/><circle class="st0" cx="195.9" cy="469.9" r="2.1"/><circle class="st0" cx="207" cy="470.3" r="2.1"/><circle class="st0" cx="218" cy="470.8" r="2.1"/><circle class="st0" cx="229.1" cy="471.2" r="2.1"/><path class="st3" d="M93.8 435.7s20-84.3 21.1-87.4c1.1-3.2 5.3-10.5 7.4-12.6 2.1-2.1 8.4-6.3 12.6-6.3h39c5.3 0 12.6 5.3 14.7 9.5 2.1 4.2 15.8 44.2 15.8 44.2l-13.9-30.3s-1.9-3.4-3-4.4c-1.1-1.1-3-1.1-7.4-1.1h-34.7c-2.1 0-6.3 3.2-8.4 6.3-2.2 3.1-43.2 82.1-43.2 82.1z"/><path class="st3" d="M182.1 350.4h-35.5c-4.2 0-7.5 5.2-7.5 11.6s3.4 11.6 7.5 11.6h35.5c4.2 0 7.5-5.2 7.5-11.6s-3.3-11.6-7.5-11.6z"/><path class="st2" d="M369.4 316.6h3.9s17.3 0 20.2 1.1c2.9 1.1 9.6 5.3 12.5 8.4 2.9 3.2 8.7 12.6 10.6 19 1.9 6.3 23.7 125.4 23.7 125.4.2 1.1-.5 2.1-1.5 2.2 0 0-36.6 2-64.6 3.1s-74.2 2.1-74.2 2.1c-1.1 0-1.7-.9-1.4-2 0 0 32.3-130.7 34.2-137 1.9-6.3 10.6-15.8 16.4-19s20.2-3.3 20.2-3.3z"/><circle class="st0" cx="436.5" cy="467.7" r="2.1"/><circle class="st0" cx="425.5" cy="468.2" r="2.1"/><circle class="st0" cx="414.4" cy="468.7" r="2.1"/><circle class="st0" cx="403.4" cy="469.2" r="2.1"/><circle class="st0" cx="392.3" cy="469.7" r="2.1"/><circle class="st0" cx="381.3" cy="470.2" r="2.1"/><circle class="st0" cx="370.2" cy="470.7" r="2.1"/><circle class="st0" cx="359.2" cy="471.2" r="2.1"/><circle class="st0" cx="348.1" cy="471.7" r="2.1"/><circle class="st0" cx="337.1" cy="472.2" r="2.1"/><circle class="st0" cx="326" cy="472.7" r="2.1"/><circle class="st0" cx="315" cy="473.2" r="2.1"/><circle class="st0" cx="303.9" cy="473.7" r="2.1"/><path class="st3" d="M429.8 438.9s-20-84.3-20.9-87.4-4.8-10.5-6.7-12.6c-1.9-2.1-7.7-6.3-11.6-6.3h-35.7c-4.9 0-11.6 5.3-13.5 9.5-1.9 4.2-14.5 44.2-14.5 44.2l12.7-30.3s1.8-3.4 2.7-4.4 2.8-1.1 6.8-1.1h31.7c1.9 0 5.8 3.2 7.7 6.3s41.3 82.1 41.3 82.1z"/><path class="st3" d="M347.4 353.5h32.5c3.8 0 6.9 5.2 6.9 11.6s-3.1 11.6-6.9 11.6h-32.5c-3.8 0-6.9-5.2-6.9-11.6s3.1-11.6 6.9-11.6z"/></svg>