<?xml version="1.0" encoding="utf-8"?>
<!-- Generator: Adobe Illustrator 21.0.2, SVG Export Plug-In . SVG Version: 6.00 Build 0)  -->
<svg version="1.1" id="icon" xmlns="http://www.w3.org/2000/svg" xmlns:xlink="http://www.w3.org/1999/xlink" x="0px" y="0px"
	 viewBox="0 0 16 16" enable-background="new 0 0 16 16" xml:space="preserve">
<g>
	<path fill="#00247D" d="M7,0.1C5.6,0.2,4.4,0.8,3.3,1.5L7,5.2V0.1z"/>
	<path fill="#00247D" d="M0.4,10.5c0.3,0.8,0.6,1.5,1.1,2.2l2.2-2.2H0.4z"/>
	<path fill="#00247D" d="M15.6,5.5c-0.3-0.8-0.6-1.5-1.1-2.2l-2.2,2.2H15.6z"/>
	<path fill="#00247D" d="M12.7,1.5C11.6,0.8,10.4,0.2,9,0.1v5.2L12.7,1.5z"/>
	<path fill="#00247D" d="M14.5,12.7c0.5-0.7,0.9-1.4,1.1-2.2h-3.3L14.5,12.7z"/>
	<path fill="#00247D" d="M1.5,3.3C1.1,4,0.7,4.7,0.4,5.5h3.3L1.5,3.3z"/>
	<path fill="#00247D" d="M9,15.9c1.4-0.2,2.6-0.7,3.7-1.5L9,10.8V15.9z"/>
	<path fill="#00247D" d="M3.3,14.5c1.1,0.8,2.3,1.3,3.7,1.5v-5.2L3.3,14.5z"/>
	<path fill="#F0F0F0" d="M2.5,2.2l3.3,3.3H4.4L1.8,2.9C1.7,3,1.6,3.2,1.5,3.3l2.2,2.2H0.4c-0.1,0.3-0.2,0.7-0.3,1h4.6H7v-1V5.2
		L3.3,1.5C3,1.7,2.8,2,2.5,2.2z"/>
	<path fill="#F0F0F0" d="M0.1,9.5c0.1,0.3,0.2,0.7,0.3,1h3.3l-2.2,2.2C1.7,13,2,13.2,2.2,13.5l3-3h1.4l-3.7,3.7
		c0.1,0.1,0.3,0.2,0.4,0.3L7,10.8v-0.3v-1H4.7H0.1z"/>
	<path fill="#F0F0F0" d="M15.9,6.5c-0.1-0.3-0.2-0.7-0.3-1h-3.3l2.2-2.2C14.3,3,14,2.8,13.8,2.5l-3,3H9.4l3.7-3.7
		c-0.1-0.1-0.3-0.2-0.4-0.3L9,5.2v0.3v1h2.3H15.9z"/>
	<path fill="#F0F0F0" d="M9,9.5v1v0.3l3.7,3.7c0.3-0.2,0.5-0.4,0.8-0.7l-3.3-3.3h1.4l2.6,2.6c0.1-0.1,0.2-0.3,0.3-0.4l-2.2-2.2h3.3
		c0.1-0.3,0.2-0.7,0.3-1h-4.6H9z"/>
	<path fill="#CF142B" d="M10.2,10.5l3.3,3.3c0.2-0.2,0.5-0.5,0.7-0.7l-2.6-2.6H10.2z"/>
	<path fill="#CF142B" d="M5.8,5.5L2.5,2.2C2.3,2.4,2,2.7,1.8,2.9l2.6,2.6H5.8z"/>
	<path fill="#CF142B" d="M13.8,2.5c-0.2-0.2-0.5-0.5-0.7-0.7L9.4,5.5h1.4L13.8,2.5z"/>
	<path fill="#CF142B" d="M2.2,13.5c0.2,0.2,0.5,0.5,0.7,0.7l3.7-3.7H5.2L2.2,13.5z"/>
	<path fill="#CF142B" d="M15.9,6.5h-4.6H9v-1V5.2V0.1C8.7,0,8.3,0,8,0S7.3,0,7,0.1v5.2v0.3v1H4.7H0.1C0.1,7,0,7.5,0,8s0.1,1,0.1,1.5
		h4.6H7v1v0.3v5.2C7.3,16,7.7,16,8,16s0.7,0,1-0.1v-5.2v-0.3v-1h2.3h4.6C15.9,9,16,8.5,16,8S15.9,7,15.9,6.5z"/>
</g>
</svg>
