<?xml version="1.0" encoding="utf-8"?>
<!-- Generator: Adobe Illustrator 21.0.2, SVG Export Plug-In . SVG Version: 6.00 Build 0)  -->
<svg version="1.1" id="icon" xmlns="http://www.w3.org/2000/svg" xmlns:xlink="http://www.w3.org/1999/xlink" x="0px" y="0px"
	 viewBox="0 0 512 512" enable-background="new 0 0 512 512" xml:space="preserve">
<g>
	<path fill="#00247D" d="M12.8,336c8.4,25.5,20.7,49.2,36.2,70.5l70.5-70.5H12.8z"/>
	<path fill="#00247D" d="M48.9,105.5c-15.5,21.3-27.8,45-36.2,70.5h106.7L48.9,105.5z"/>
	<path fill="#00247D" d="M224,167.4V2c-43.9,5.5-84.4,22.1-118.5,46.9L224,167.4z"/>
	<path fill="#00247D" d="M288,2v165.4L406.5,48.9C372.4,24.1,331.9,7.5,288,2z"/>
	<path fill="#00247D" d="M224,510V344.6L105.5,463.1C139.6,487.9,180.1,504.5,224,510z"/>
	<path fill="#00247D" d="M288,510c43.9-5.5,84.4-22.1,118.5-46.9L288,344.6V510z"/>
	<path fill="#00247D" d="M463.1,406.5c15.5-21.3,27.8-45,36.2-70.5H392.6L463.1,406.5z"/>
	<path fill="#00247D" d="M499.2,176c-8.4-25.5-20.7-49.2-36.2-70.5L392.6,176H499.2z"/>
	<path fill="#F0F0F0" d="M80,70.1L185.8,176h-45.3L58.1,93.6c-3.2,3.9-6.3,7.9-9.2,11.9l70.5,70.5H12.8c-3.4,10.4-6.2,21.1-8.3,32
		h146.9H224v-32v-8.6L105.5,48.9C96.5,55.4,88,62.5,80,70.1z"/>
	<path fill="#F0F0F0" d="M4.5,304c2.1,10.9,4.8,21.6,8.3,32h106.7l-70.5,70.5c6.5,9,13.6,17.5,21.2,25.5l96-96h45.3L93.6,453.9
		c3.9,3.2,7.9,6.3,11.9,9.2L224,344.6V336v-32h-72.6H4.5z"/>
	<path fill="#F0F0F0" d="M507.5,208c-2.1-10.9-4.8-21.6-8.3-32H392.6l70.5-70.5c-6.5-9-13.6-17.5-21.2-25.5l-96,96h-45.3L418.4,58.1
		c-3.9-3.2-7.9-6.3-11.9-9.2L288,167.4v8.6v32h72.6H507.5z"/>
	<path fill="#F0F0F0" d="M288,304v32v8.6l118.5,118.5c9-6.5,17.5-13.6,25.5-21.2L326.2,336h45.3l82.4,82.4c3.2-3.9,6.3-7.9,9.2-11.9
		L392.6,336h106.7c3.4-10.4,6.2-21.1,8.3-32H360.6H288z"/>
	<path fill="#CF142B" d="M326.2,336L432,441.9c7.8-7.3,15-15.2,21.8-23.4L371.4,336H326.2z"/>
	<path fill="#CF142B" d="M185.8,176L80,70.1c-7.8,7.3-15,15.2-21.8,23.4l82.4,82.4H185.8z"/>
	<path fill="#CF142B" d="M441.9,80c-7.3-7.8-15.2-15-23.4-21.8L300.6,176h45.3L441.9,80z"/>
	<path fill="#CF142B" d="M70.1,432c7.3,7.8,15.2,15,23.4,21.8L211.4,336h-45.3L70.1,432z"/>
	<path fill="#CF142B" d="M507.5,208H360.6H288v-32v-8.6V2c-10.5-1.3-21.2-2-32-2s-21.5,0.7-32,2v165.4v8.6v32h-72.6H4.5
		c-3,15.6-4.5,31.6-4.5,48s1.6,32.4,4.5,48h146.9H224v32v8.6V510c10.5,1.3,21.2,2,32,2s21.5-0.7,32-2V344.6V336v-32h72.6h146.9
		c3-15.6,4.5-31.6,4.5-48S510.4,223.6,507.5,208z"/>
</g>
</svg>
