<svg xmlns="http://www.w3.org/2000/svg" viewBox="0 0 16 16"><path fill="#00247D" d="M7 .1C5.6.2 4.4.8 3.3 1.5L7 5.2V.1zM.4 10.5c.3.8.6 1.5 1.1 2.2l2.2-2.2H.4zm15.2-5c-.3-.8-.6-1.5-1.1-2.2l-2.2 2.2h3.3zm-2.9-4C11.6.8 10.4.2 9 .1v5.2l3.7-3.8zm1.8 11.2c.5-.7.9-1.4 1.1-2.2h-3.3l2.2 2.2zm-13-9.4C1.1 4 .7 4.7.4 5.5h3.3L1.5 3.3zM9 15.9c1.4-.2 2.6-.7 3.7-1.5L9 10.8v5.1zm-5.7-1.4c1.1.8 2.3 1.3 3.7 1.5v-5.2l-3.7 3.7z"/><path fill="#F0F0F0" d="M2.5 2.2l3.3 3.3H4.4L1.8 2.9c-.1.1-.2.3-.3.4l2.2 2.2H.4c-.1.3-.2.7-.3 1H7V5.2L3.3 1.5c-.3.2-.5.5-.8.7zM.1 9.5c.1.3.2.7.3 1h3.3l-2.2 2.2c.2.3.5.5.7.8l3-3h1.4l-3.7 3.7c.1.1.3.2.4.3L7 10.8V9.5H.1zm15.8-3c-.1-.3-.2-.7-.3-1h-3.3l2.2-2.2c-.2-.3-.5-.5-.7-.8l-3 3H9.4l3.7-3.7c-.1-.1-.3-.2-.4-.3L9 5.2v1.3h6.9zM9 9.5v1.3l3.7 3.7c.3-.2.5-.4.8-.7l-3.3-3.3h1.4l2.6 2.6c.1-.1.2-.3.3-.4l-2.2-2.2h3.3c.1-.3.2-.7.3-1H9z"/><path fill="#CF142B" d="M10.2 10.5l3.3 3.3.7-.7-2.6-2.6h-1.4zm-4.4-5L2.5 2.2l-.7.7 2.6 2.6h1.4zm8-3l-.7-.7-3.7 3.7h1.4l3-3zm-11.6 11l.7.7 3.7-3.7H5.2l-3 3z"/><path fill="#CF142B" d="M15.9 6.5H9V.1C8.7 0 8.3 0 8 0s-.7 0-1 .1v6.5H.1C.1 7 0 7.5 0 8s.1 1 .1 1.5H7V16h1c.3 0 .7 0 1-.1V9.4h6.9c0-.4.1-.9.1-1.4s-.1-1-.1-1.5z"/></svg>