<?xml version="1.0" encoding="utf-8"?>
<!-- Generator: Adobe Illustrator 21.0.2, SVG Export Plug-In . SVG Version: 6.00 Build 0)  -->
<svg version="1.1" id="icon" xmlns="http://www.w3.org/2000/svg" xmlns:xlink="http://www.w3.org/1999/xlink" x="0px" y="0px"
	 viewBox="0 0 512 512" enable-background="new 0 0 512 512" xml:space="preserve">
<g>
	<path fill="#B22234" d="M256,512c64.9,0,124.2-24.2,169.3-64H86.7C131.8,487.8,191.1,512,256,512z"/>
	<path fill="#B22234" d="M425.3,64H288v64h189.7C463.8,103.9,446,82.3,425.3,64z"/>
	<path fill="#B22234" d="M288,384h189.7c11.5-19.8,20.3-41.3,26.2-64H288V384z"/>
	<path fill="#B22234" d="M503.9,192H288v64h224C512,233.9,509.2,212.5,503.9,192z"/>
	<path fill="#3C3B6E" d="M256,0c-29,0-56.9,4.8-82.9,13.7l-0.9,0.6l7.6,23.2L160,23.2l-19.8,14.4l3.9-11.9
		C128.4,33.3,113.7,42.5,100,53l3.6,11H128l-19.8,14.4l7.6,23.2L96,87.2l-19.8,14.4l7.6-23.2l-7-5.1c-14.9,14.6-28.1,31.1-39.1,49
		l1.9,5.7H64l-19.8,14.4l7.6,23.2L32,151.2l-13.9,10.1c-3.9,9.9-7.3,20.1-10,30.6C2.8,212.5,0,233.9,0,256h24.4l7.6-23.2l7.6,23.2
		H64l-19.8,14.4l7.6,23.2L32,279.2l-19.8,14.4l7.6-23.2L0,256c0,22.1,2.8,43.5,8.1,64c5.8,22.7,14.7,44.2,26.2,64H288v-64v-64v-64
		v-64V64V2C277.5,0.7,266.8,0,256,0z M88.4,192l7.6-23.2l7.6,23.2H128l-19.8,14.4l7.6,23.2L96,215.2l-19.8,14.4l7.6-23.2L64,192
		H88.4z M115.8,357.6L96,343.2l-19.8,14.4l7.6-23.2L64,320h24.4l7.6-23.2l7.6,23.2H128l-19.8,14.4L115.8,357.6z M243.8,357.6
		L224,343.2l-19.8,14.4l7.6-23.2L192,320h24.4l7.6-23.2l7.6,23.2H256l-19.8,14.4L243.8,357.6z M172.2,270.4l7.6,23.2L160,279.2
		l-19.8,14.4l7.6-23.2L128,256h24.4l7.6-23.2l7.6,23.2H192L172.2,270.4z M243.8,229.6L224,215.2l-19.8,14.4l7.6-23.2L192,192h24.4
		l7.6-23.2l7.6,23.2H256l-19.8,14.4L243.8,229.6z M172.2,142.4l7.6,23.2L160,151.2l-19.8,14.4l7.6-23.2L128,128h24.4l7.6-23.2
		l7.6,23.2H192L172.2,142.4z M243.8,101.6L224,87.2l-19.8,14.4l7.6-23.2L192,64h24.4l7.6-23.2l7.6,23.2H256l-19.8,14.4L243.8,101.6z
		"/>
	<path fill="#3C3B6E" d="M89.1,61.9c-0.8,0.7-1.6,1.4-2.4,2.1h1.8L89.1,61.9z"/>
	<path fill="#F0F0F0" d="M34.3,384c13.9,24.1,31.7,45.7,52.4,64h338.6c20.7-18.3,38.5-39.9,52.4-64H288H34.3z"/>
	<path fill="#F0F0F0" d="M477.7,128H288v64h215.9C498.1,169.3,489.2,147.8,477.7,128z"/>
	<path fill="#F0F0F0" d="M288,2v62h137.3C387.7,30.8,340.3,8.5,288,2z"/>
	<path fill="#F0F0F0" d="M288,256v64h215.9c5.3-20.5,8.1-41.9,8.1-64H288z"/>
	<polygon fill="#F0F0F0" points="231.6,320 224,296.8 216.4,320 192,320 211.8,334.4 204.2,357.6 224,343.2 243.8,357.6 
		236.2,334.4 256,320 	"/>
	<polygon fill="#F0F0F0" points="167.6,256 160,232.8 152.4,256 128,256 147.8,270.4 140.2,293.6 160,279.2 179.8,293.6 
		172.2,270.4 192,256 	"/>
	<polygon fill="#F0F0F0" points="231.6,192 224,168.8 216.4,192 192,192 211.8,206.4 204.2,229.6 224,215.2 243.8,229.6 
		236.2,206.4 256,192 	"/>
	<polygon fill="#F0F0F0" points="204.2,101.6 224,87.2 243.8,101.6 236.2,78.4 256,64 231.6,64 224,40.8 216.4,64 192,64 
		211.8,78.4 	"/>
	<polygon fill="#F0F0F0" points="160,104.8 152.4,128 128,128 147.8,142.4 140.2,165.6 160,151.2 179.8,165.6 172.2,142.4 192,128 
		167.6,128 	"/>
	<polygon fill="#F0F0F0" points="103.6,320 96,296.8 88.4,320 64,320 83.8,334.4 76.2,357.6 96,343.2 115.8,357.6 108.2,334.4 
		128,320 	"/>
	<polygon fill="#F0F0F0" points="103.6,192 96,168.8 88.4,192 64,192 83.8,206.4 76.2,229.6 96,215.2 115.8,229.6 108.2,206.4 
		128,192 	"/>
	<path fill="#F0F0F0" d="M96,87.2l19.8,14.4l-7.6-23.2L128,64h-24.4L100,53c-3.7,2.8-7.3,5.8-10.8,8.8L88.4,64h-1.8
		c-3.4,3-6.7,6.1-9.9,9.3l7,5.1l-7.6,23.2L96,87.2z"/>
	<polygon fill="#F0F0F0" points="44.2,270.4 64,256 39.6,256 32,232.8 24.4,256 0,256 19.8,270.4 12.2,293.6 32,279.2 51.8,293.6 	
		"/>
	<path fill="#F0F0F0" d="M51.8,165.6l-7.6-23.2L64,128H39.6l-1.9-5.7c-1.2,1.9-2.3,3.8-3.4,5.7c-6.2,10.7-11.6,21.8-16.2,33.4
		L32,151.2L51.8,165.6z"/>
	<path fill="#F0F0F0" d="M179.8,37.6l-7.6-23.2l0.9-0.6c-10,3.4-19.6,7.4-29,12l-3.9,11.9L160,23.2L179.8,37.6z"/>
</g>
</svg>
