<svg xmlns="http://www.w3.org/2000/svg" viewBox="0 0 16 16"><path fill="#B22234" d="M8 16c2 0 3.9-.8 5.3-2H2.7C4.1 15.2 6 16 8 16zm5.3-14H9v2h5.9c-.4-.8-1-1.4-1.6-2zM9 12h5.9c.4-.6.6-1.3.8-2H9v2zm6.7-6H9v2h7c0-.7-.1-1.4-.3-2z"/><path fill="#3C3B6E" d="M8 0c-.9 0-1.8.2-2.6.4l.2.7L5 .7l-.6.5.1-.4c-.5.3-.9.5-1.4.9l.1.3H4l-.6.4.2.7-.6-.4-.6.5.2-.7-.2-.2c-.5.5-.9 1-1.2 1.5V4H2l-.6.4.2.7-.6-.4-.4.3c-.2.3-.3.7-.3 1-.2.6-.3 1.3-.3 2h.8l.2-.7.2.7H2l-.6.4.2.7-.6-.4-.6.5.2-.7L0 8c0 .7.1 1.4.3 2 .2.7.5 1.4.8 2H9V.1C8.7 0 8.3 0 8 0zM2.8 6l.2-.7.2.7H4l-.6.4.2.7-.6-.4-.6.5.2-.7L2 6h.8zm.8 5.2l-.6-.5-.6.4.2-.7L2 10h.8l.2-.7.2.7H4l-.6.4.2.8zm4 0l-.6-.5-.6.4.2-.7L6 10h.8l.2-.7.2.7H8l-.6.4.2.8zM5.4 8.4l.2.7-.6-.4-.6.5.2-.7L4 8h.8l.2-.7.2.7H6l-.6.4zm2.2-1.2L7 6.7l-.6.5.2-.7L6 6h.8l.2-.7.2.7H8l-.6.4.2.8zM5.4 4.4l.2.7-.6-.4-.6.5.2-.7L4 4h.8l.2-.7.2.7H6l-.6.4zm2.2-1.2L7 2.7l-.6.5.2-.7L6 2h.8l.2-.7.2.7H8l-.6.4.2.8z"/><path fill="#3C3B6E" d="M2.8 1.9c0 .1-.1.1 0 0z"/><path fill="#F0F0F0" d="M1.1 12c.4.8 1 1.4 1.6 2h10.6c.6-.6 1.2-1.2 1.6-2H1.1zM9 .1V2h4.3C12.1 1 10.6.3 9 .1zM14.9 4H9v2h6.7c-.1-.7-.4-1.4-.8-2zM9 8v2h6.7c.2-.6.3-1.3.3-2H9zm-1.8 2L7 9.3l-.2.7H6l.6.4-.2.8.6-.5.6.5-.2-.8.6-.4zm-2-2L5 7.3l-.2.7H4l.6.4-.2.8.6-.5.6.5-.2-.8L6 8zm2-2L7 5.3l-.2.7H6l.6.4-.2.8.6-.5.6.5-.2-.8L8 6zm-.8-2.8l.6-.5.6.5-.2-.8L8 2h-.8L7 1.3l-.2.7H6l.6.4zM5 3.3l-.2.7H4l.6.4-.2.8.6-.5.6.5-.2-.8L6 4h-.8zM3.2 10L3 9.3l-.2.7H2l.6.4-.2.8.6-.5.6.5-.2-.8.6-.4zm0-4L3 5.3l-.2.7H2l.6.4-.2.8.6-.5.6.5-.2-.8L4 6zM3 2.7l.6.4-.2-.7L4 2h-.8l-.1-.3c-.1.1-.2.1-.3.2V2c-.2.1-.3.2-.4.3l.2.2-.2.7.6-.5zM1.4 8.4L2 8h-.8L1 7.3.8 8H0l.6.4-.2.8.6-.5.6.5zm.2-3.2l-.2-.8L2 4h-.8v-.2c0 .1-.1.1-.1.2-.2.3-.4.7-.5 1l.4-.3.6.5zm4-4L5.4.4c-.3.2-.6.3-.9.4l-.1.4.6-.5.6.5z"/></svg>