<svg version="1.1" xmlns="http://www.w3.org/2000/svg" x="0" y="0" viewBox="0 0 1920 1920" xml:space="preserve"><style type="text/css">.st0{fill:#989898}</style><path fill="#445a76" d="M0 0h1920v1920H0z"/><circle class="st0" cx="101.053" cy="101.053" r="13.95"/><circle class="st0" cx="101.053" cy="202.105" r="12.75"/><circle class="st0" cx="101.053" cy="303.158" r="11.55"/><circle class="st0" cx="101.053" cy="404.211" r="12.45"/><circle class="st0" cx="101.053" cy="505.263" r="11.55"/><circle class="st0" cx="101.053" cy="606.316" r="4.65"/><circle class="st0" cx="101.053" cy="707.368" r="9"/><circle class="st0" cx="101.053" cy="808.421" r="11.1"/><circle class="st0" cx="101.053" cy="909.474" r="4.8"/><circle class="st0" cx="101.053" cy="1010.526" r="7.5"/><circle class="st0" cx="101.053" cy="1111.579" r="14.55"/><circle class="st0" cx="101.053" cy="1212.632" r="14.1"/><circle class="st0" cx="101.053" cy="1313.684" r="7.95"/><circle class="st0" cx="101.053" cy="1414.737" r="5.55"/><circle class="st0" cx="101.053" cy="1515.789" r="6.6"/><circle class="st0" cx="101.053" cy="1616.842" r="6.75"/><circle class="st0" cx="101.053" cy="1717.895" r="11.55"/><circle class="st0" cx="101.053" cy="1818.947" r="8.25"/><circle class="st0" cx="202.105" cy="101.053" r="13.05"/><circle class="st0" cx="202.105" cy="202.105" r="7.05"/><circle class="st0" cx="202.105" cy="303.158" r="14.55"/><circle class="st0" cx="202.105" cy="404.211" r="12.9"/><circle class="st0" cx="202.105" cy="505.263" r="14.55"/><circle class="st0" cx="202.105" cy="606.316" r="5.1"/><circle class="st0" cx="202.105" cy="707.368" r="8.4"/><circle class="st0" cx="202.105" cy="808.421" r="4.5"/><circle class="st0" cx="202.105" cy="909.474" r="9.45"/><circle class="st0" cx="202.105" cy="1010.526" r="13.5"/><circle class="st0" cx="202.105" cy="1111.579" r="4.95"/><circle class="st0" cx="202.105" cy="1212.632" r="6.3"/><circle class="st0" cx="202.105" cy="1313.684" r="12.6"/><circle class="st0" cx="202.105" cy="1414.737" r="13.05"/><circle class="st0" cx="202.105" cy="1515.789" r="5.55"/><circle class="st0" cx="202.105" cy="1616.842" r="11.25"/><circle class="st0" cx="202.105" cy="1717.895" r="5.85"/><circle class="st0" cx="202.105" cy="1818.947" r="12.45"/><circle class="st0" cx="303.158" cy="101.053" r="7.5"/><circle class="st0" cx="303.158" cy="202.105" r="13.5"/><circle class="st0" cx="303.158" cy="303.158" r="7.5"/><circle class="st0" cx="303.158" cy="404.211" r="14.4"/><circle class="st0" cx="303.158" cy="505.263" r="10.5"/><circle class="st0" cx="303.158" cy="606.316" r="14.55"/><circle class="st0" cx="303.158" cy="707.368" r="6.6"/><circle class="st0" cx="303.158" cy="808.421" r="10.2"/><circle class="st0" cx="303.158" cy="909.474" r="8.25"/><circle class="st0" cx="303.158" cy="1010.526" r="5.55"/><circle class="st0" cx="303.158" cy="1111.579" r="6.45"/><circle class="st0" cx="303.158" cy="1212.632" r="12.6"/><circle class="st0" cx="303.158" cy="1313.684" r="12.6"/><circle class="st0" cx="303.158" cy="1414.737" r="7.8"/><circle class="st0" cx="303.158" cy="1515.789" r="13.8"/><circle class="st0" cx="303.158" cy="1616.842" r="10.2"/><circle class="st0" cx="303.158" cy="1717.895" r="5.85"/><circle class="st0" cx="303.158" cy="1818.947" r="6.3"/><circle class="st0" cx="404.211" cy="101.053" r="10.05"/><circle class="st0" cx="404.211" cy="202.105" r="14.4"/><circle class="st0" cx="404.211" cy="303.158" r="8.85"/><circle class="st0" cx="404.211" cy="404.211" r="10.5"/><circle class="st0" cx="404.211" cy="505.263" r="8.85"/><circle class="st0" cx="404.211" cy="606.316" r="7.5"/><circle class="st0" cx="404.211" cy="707.368" r="5.1"/><circle class="st0" cx="404.211" cy="808.421" r="8.4"/><circle class="st0" cx="404.211" cy="909.474" r="10.5"/><circle class="st0" cx="404.211" cy="1010.526" r="10.35"/><circle class="st0" cx="404.211" cy="1111.579" r="6.15"/><circle class="st0" cx="404.211" cy="1212.632" r="5.1"/><circle class="st0" cx="404.211" cy="1313.684" r="7.35"/><circle class="st0" cx="404.211" cy="1414.737" r="12.15"/><circle class="st0" cx="404.211" cy="1515.789" r="12.15"/><circle class="st0" cx="404.211" cy="1616.842" r="13.35"/><circle class="st0" cx="404.211" cy="1717.895" r="6.3"/><circle class="st0" cx="404.211" cy="1818.947" r="10.35"/><circle class="st0" cx="505.263" cy="101.053" r="8.25"/><circle class="st0" cx="505.263" cy="202.105" r="13.95"/><circle class="st0" cx="505.263" cy="303.158" r="11.55"/><circle class="st0" cx="505.263" cy="404.211" r="14.55"/><circle class="st0" cx="505.263" cy="505.263" r="8.25"/><circle class="st0" cx="505.263" cy="606.316" r="7.5"/><circle class="st0" cx="505.263" cy="707.368" r="10.05"/><circle class="st0" cx="505.263" cy="808.421" r="10.65"/><circle class="st0" cx="505.263" cy="909.474" r="9.9"/><circle class="st0" cx="505.263" cy="1010.526" r="9.75"/><circle class="st0" cx="505.263" cy="1111.579" r="14.25"/><circle class="st0" cx="505.263" cy="1212.632" r="4.95"/><circle class="st0" cx="505.263" cy="1313.684" r="5.1"/><circle class="st0" cx="505.263" cy="1414.737" r="12.15"/><circle class="st0" cx="505.263" cy="1515.789" r="8.85"/><circle class="st0" cx="505.263" cy="1616.842" r="5.55"/><circle class="st0" cx="505.263" cy="1717.895" r="11.4"/><circle class="st0" cx="505.263" cy="1818.947" r="10.2"/><circle class="st0" cx="606.316" cy="101.053" r="10.2"/><circle class="st0" cx="606.316" cy="202.105" r="5.1"/><circle class="st0" cx="606.316" cy="303.158" r="6"/><circle class="st0" cx="606.316" cy="404.211" r="13.2"/><circle class="st0" cx="606.316" cy="505.263" r="6.75"/><circle class="st0" cx="606.316" cy="606.316" r="8.55"/><circle class="st0" cx="606.316" cy="707.368" r="13.2"/><circle class="st0" cx="606.316" cy="808.421" r="11.7"/><circle class="st0" cx="606.316" cy="909.474" r="12.15"/><circle class="st0" cx="606.316" cy="1010.526" r="6"/><circle class="st0" cx="606.316" cy="1111.579" r="8.25"/><circle class="st0" cx="606.316" cy="1212.632" r="6.3"/><circle class="st0" cx="606.316" cy="1313.684" r="4.5"/><circle class="st0" cx="606.316" cy="1414.737" r="4.65"/><circle class="st0" cx="606.316" cy="1515.789" r="11.85"/><circle class="st0" cx="606.316" cy="1616.842" r="10.05"/><circle class="st0" cx="606.316" cy="1717.895" r="4.95"/><circle class="st0" cx="606.316" cy="1818.947" r="6.3"/><circle class="st0" cx="707.368" cy="101.053" r="6.45"/><circle class="st0" cx="707.368" cy="202.105" r="10.5"/><circle class="st0" cx="707.368" cy="303.158" r="15"/><circle class="st0" cx="707.368" cy="404.211" r="4.5"/><circle class="st0" cx="707.368" cy="505.263" r="13.5"/><circle class="st0" cx="707.368" cy="606.316" r="13.35"/><circle class="st0" cx="707.368" cy="707.368" r="6.15"/><circle class="st0" cx="707.368" cy="808.421" r="9"/><circle class="st0" cx="707.368" cy="909.474" r="8.7"/><circle class="st0" cx="707.368" cy="1010.526" r="10.2"/><circle class="st0" cx="707.368" cy="1111.579" r="14.25"/><circle class="st0" cx="707.368" cy="1212.632" r="8.4"/><circle class="st0" cx="707.368" cy="1313.684" r="10.95"/><circle class="st0" cx="707.368" cy="1414.737" r="12.9"/><circle class="st0" cx="707.368" cy="1515.789" r="12.75"/><circle class="st0" cx="707.368" cy="1616.842" r="12.75"/><circle class="st0" cx="707.368" cy="1717.895" r="10.35"/><circle class="st0" cx="707.368" cy="1818.947" r="14.1"/><circle class="st0" cx="808.421" cy="101.053" r="10.8"/><circle class="st0" cx="808.421" cy="202.105" r="10.8"/><circle class="st0" cx="808.421" cy="303.158" r="10.8"/><circle class="st0" cx="808.421" cy="404.211" r="11.4"/><circle class="st0" cx="808.421" cy="505.263" r="9"/><circle class="st0" cx="808.421" cy="606.316" r="12.15"/><circle class="st0" cx="808.421" cy="707.368" r="11.4"/><circle class="st0" cx="808.421" cy="808.421" r="8.7"/><circle class="st0" cx="808.421" cy="909.474" r="6.15"/><circle class="st0" cx="808.421" cy="1010.526" r="12"/><circle class="st0" cx="808.421" cy="1111.579" r="10.2"/><circle class="st0" cx="808.421" cy="1212.632" r="14.4"/><circle class="st0" cx="808.421" cy="1313.684" r="5.85"/><circle class="st0" cx="808.421" cy="1414.737" r="12.75"/><circle class="st0" cx="808.421" cy="1515.789" r="10.95"/><circle class="st0" cx="808.421" cy="1616.842" r="10.5"/><circle class="st0" cx="808.421" cy="1717.895" r="10.2"/><circle class="st0" cx="808.421" cy="1818.947" r="8.25"/><circle class="st0" cx="909.474" cy="101.053" r="13.35"/><circle class="st0" cx="909.474" cy="202.105" r="9.45"/><circle class="st0" cx="909.474" cy="303.158" r="6.45"/><circle class="st0" cx="909.474" cy="404.211" r="10.95"/><circle class="st0" cx="909.474" cy="505.263" r="8.4"/><circle class="st0" cx="909.474" cy="606.316" r="11.7"/><circle class="st0" cx="909.474" cy="707.368" r="10.8"/><circle class="st0" cx="909.474" cy="808.421" r="13.95"/><circle class="st0" cx="909.474" cy="909.474" r="13.2"/><circle class="st0" cx="909.474" cy="1010.526" r="12"/><circle class="st0" cx="909.474" cy="1111.579" r="12.15"/><circle class="st0" cx="909.474" cy="1212.632" r="4.65"/><circle class="st0" cx="909.474" cy="1313.684" r="10.2"/><circle class="st0" cx="909.474" cy="1414.737" r="14.55"/><circle class="st0" cx="909.474" cy="1515.789" r="4.8"/><circle class="st0" cx="909.474" cy="1616.842" r="15"/><circle class="st0" cx="909.474" cy="1717.895" r="9.45"/><circle class="st0" cx="909.474" cy="1818.947" r="8.7"/><circle class="st0" cx="1010.526" cy="101.053" r="5.4"/><circle class="st0" cx="1010.526" cy="202.105" r="11.4"/><circle class="st0" cx="1010.526" cy="303.158" r="15"/><circle class="st0" cx="1010.526" cy="404.211" r="5.4"/><circle class="st0" cx="1010.526" cy="505.263" r="12.9"/><circle class="st0" cx="1010.526" cy="606.316" r="9.45"/><circle class="st0" cx="1010.526" cy="707.368" r="6.6"/><circle class="st0" cx="1010.526" cy="808.421" r="5.7"/><circle class="st0" cx="1010.526" cy="909.474" r="11.4"/><circle class="st0" cx="1010.526" cy="1010.526" r="11.1"/><circle class="st0" cx="1010.526" cy="1111.579" r="4.95"/><circle class="st0" cx="1010.526" cy="1212.632" r="13.5"/><circle class="st0" cx="1010.526" cy="1313.684" r="6.45"/><circle class="st0" cx="1010.526" cy="1414.737" r="11.25"/><circle class="st0" cx="1010.526" cy="1515.789" r="13.35"/><circle class="st0" cx="1010.526" cy="1616.842" r="14.55"/><circle class="st0" cx="1010.526" cy="1717.895" r="13.05"/><circle class="st0" cx="1010.526" cy="1818.947" r="14.55"/><circle class="st0" cx="1111.579" cy="101.053" r="7.65"/><circle class="st0" cx="1111.579" cy="202.105" r="4.65"/><circle class="st0" cx="1111.579" cy="303.158" r="10.65"/><circle class="st0" cx="1111.579" cy="404.211" r="9.75"/><circle class="st0" cx="1111.579" cy="505.263" r="11.25"/><circle class="st0" cx="1111.579" cy="606.316" r="5.1"/><circle class="st0" cx="1111.579" cy="707.368" r="10.5"/><circle class="st0" cx="1111.579" cy="808.421" r="9.6"/><circle class="st0" cx="1111.579" cy="909.474" r="6.75"/><circle class="st0" cx="1111.579" cy="1010.526" r="10.95"/><circle class="st0" cx="1111.579" cy="1111.579" r="9.75"/><circle class="st0" cx="1111.579" cy="1212.632" r="14.1"/><circle class="st0" cx="1111.579" cy="1313.684" r="6.3"/><circle class="st0" cx="1111.579" cy="1414.737" r="9.9"/><circle class="st0" cx="1111.579" cy="1515.789" r="9.3"/><circle class="st0" cx="1111.579" cy="1616.842" r="5.85"/><circle class="st0" cx="1111.579" cy="1717.895" r="10.65"/><circle class="st0" cx="1111.579" cy="1818.947" r="14.25"/><circle class="st0" cx="1212.632" cy="101.053" r="9.15"/><circle class="st0" cx="1212.632" cy="202.105" r="7.95"/><circle class="st0" cx="1212.632" cy="303.158" r="9.3"/><circle class="st0" cx="1212.632" cy="404.211" r="4.95"/><circle class="st0" cx="1212.632" cy="505.263" r="13.95"/><circle class="st0" cx="1212.632" cy="606.316" r="8.25"/><circle class="st0" cx="1212.632" cy="707.368" r="4.5"/><circle class="st0" cx="1212.632" cy="808.421" r="9.15"/><circle class="st0" cx="1212.632" cy="909.474" r="8.4"/><circle class="st0" cx="1212.632" cy="1010.526" r="6.6"/><circle class="st0" cx="1212.632" cy="1111.579" r="10.8"/><circle class="st0" cx="1212.632" cy="1212.632" r="6.6"/><circle class="st0" cx="1212.632" cy="1313.684" r="12"/><circle class="st0" cx="1212.632" cy="1414.737" r="15"/><circle class="st0" cx="1212.632" cy="1515.789" r="6.75"/><circle class="st0" cx="1212.632" cy="1616.842" r="5.7"/><circle class="st0" cx="1212.632" cy="1717.895" r="12.75"/><circle class="st0" cx="1212.632" cy="1818.947" r="11.1"/><circle class="st0" cx="1313.684" cy="101.053" r="7.2"/><circle class="st0" cx="1313.684" cy="202.105" r="7.8"/><circle class="st0" cx="1313.684" cy="303.158" r="14.7"/><circle class="st0" cx="1313.684" cy="404.211" r="8.7"/><circle class="st0" cx="1313.684" cy="505.263" r="15"/><circle class="st0" cx="1313.684" cy="606.316" r="12.6"/><circle class="st0" cx="1313.684" cy="707.368" r="11.1"/><circle class="st0" cx="1313.684" cy="808.421" r="11.55"/><circle class="st0" cx="1313.684" cy="909.474" r="6"/><circle class="st0" cx="1313.684" cy="1010.526" r="8.4"/><circle class="st0" cx="1313.684" cy="1111.579" r="5.7"/><circle class="st0" cx="1313.684" cy="1212.632" r="6"/><circle class="st0" cx="1313.684" cy="1313.684" r="10.8"/><circle class="st0" cx="1313.684" cy="1414.737" r="6.45"/><circle class="st0" cx="1313.684" cy="1515.789" r="8.1"/><circle class="st0" cx="1313.684" cy="1616.842" r="7.65"/><circle class="st0" cx="1313.684" cy="1717.895" r="9.75"/><circle class="st0" cx="1313.684" cy="1818.947" r="7.95"/><circle class="st0" cx="1414.737" cy="101.053" r="10.65"/><circle class="st0" cx="1414.737" cy="202.105" r="4.5"/><circle class="st0" cx="1414.737" cy="303.158" r="8.7"/><circle class="st0" cx="1414.737" cy="404.211" r="10.5"/><circle class="st0" cx="1414.737" cy="505.263" r="9.6"/><circle class="st0" cx="1414.737" cy="606.316" r="7.35"/><circle class="st0" cx="1414.737" cy="707.368" r="14.25"/><circle class="st0" cx="1414.737" cy="808.421" r="10.95"/><circle class="st0" cx="1414.737" cy="909.474" r="9.75"/><circle class="st0" cx="1414.737" cy="1010.526" r="8.7"/><circle class="st0" cx="1414.737" cy="1111.579" r="14.55"/><circle class="st0" cx="1414.737" cy="1212.632" r="7.2"/><circle class="st0" cx="1414.737" cy="1313.684" r="12.6"/><circle class="st0" cx="1414.737" cy="1414.737" r="13.35"/><circle class="st0" cx="1414.737" cy="1515.789" r="8.25"/><circle class="st0" cx="1414.737" cy="1616.842" r="5.25"/><circle class="st0" cx="1414.737" cy="1717.895" r="13.05"/><circle class="st0" cx="1414.737" cy="1818.947" r="12.3"/><circle class="st0" cx="1515.789" cy="101.053" r="7.95"/><circle class="st0" cx="1515.789" cy="202.105" r="12"/><circle class="st0" cx="1515.789" cy="303.158" r="5.7"/><circle class="st0" cx="1515.789" cy="404.211" r="14.4"/><circle class="st0" cx="1515.789" cy="505.263" r="7.65"/><circle class="st0" cx="1515.789" cy="606.316" r="13.65"/><circle class="st0" cx="1515.789" cy="707.368" r="11.85"/><circle class="st0" cx="1515.789" cy="808.421" r="15"/><circle class="st0" cx="1515.789" cy="909.474" r="8.7"/><circle class="st0" cx="1515.789" cy="1010.526" r="5.25"/><circle class="st0" cx="1515.789" cy="1111.579" r="14.85"/><circle class="st0" cx="1515.789" cy="1212.632" r="4.5"/><circle class="st0" cx="1515.789" cy="1313.684" r="10.05"/><circle class="st0" cx="1515.789" cy="1414.737" r="7.2"/><circle class="st0" cx="1515.789" cy="1515.789" r="8.7"/><circle class="st0" cx="1515.789" cy="1616.842" r="5.25"/><circle class="st0" cx="1515.789" cy="1717.895" r="8.7"/><circle class="st0" cx="1515.789" cy="1818.947" r="4.5"/><circle class="st0" cx="1616.842" cy="101.053" r="11.25"/><circle class="st0" cx="1616.842" cy="202.105" r="5.7"/><circle class="st0" cx="1616.842" cy="303.158" r="13.65"/><circle class="st0" cx="1616.842" cy="404.211" r="6.6"/><circle class="st0" cx="1616.842" cy="505.263" r="11.7"/><circle class="st0" cx="1616.842" cy="606.316" r="9.45"/><circle class="st0" cx="1616.842" cy="707.368" r="13.95"/><circle class="st0" cx="1616.842" cy="808.421" r="9.6"/><circle class="st0" cx="1616.842" cy="909.474" r="9.9"/><circle class="st0" cx="1616.842" cy="1010.526" r="14.1"/><circle class="st0" cx="1616.842" cy="1111.579" r="7.5"/><circle class="st0" cx="1616.842" cy="1212.632" r="7.05"/><circle class="st0" cx="1616.842" cy="1313.684" r="12.9"/><circle class="st0" cx="1616.842" cy="1414.737" r="13.95"/><circle class="st0" cx="1616.842" cy="1515.789" r="7.05"/><circle class="st0" cx="1616.842" cy="1616.842" r="11.4"/><circle class="st0" cx="1616.842" cy="1717.895" r="5.4"/><circle class="st0" cx="1616.842" cy="1818.947" r="12.45"/><circle class="st0" cx="1717.895" cy="101.053" r="7.2"/><circle class="st0" cx="1717.895" cy="202.105" r="6"/><circle class="st0" cx="1717.895" cy="303.158" r="7.35"/><circle class="st0" cx="1717.895" cy="404.211" r="7.35"/><circle class="st0" cx="1717.895" cy="505.263" r="5.7"/><circle class="st0" cx="1717.895" cy="606.316" r="6.3"/><circle class="st0" cx="1717.895" cy="707.368" r="4.8"/><circle class="st0" cx="1717.895" cy="808.421" r="7.35"/><circle class="st0" cx="1717.895" cy="909.474" r="8.25"/><circle class="st0" cx="1717.895" cy="1010.526" r="8.1"/><circle class="st0" cx="1717.895" cy="1111.579" r="6.9"/><circle class="st0" cx="1717.895" cy="1212.632" r="8.4"/><circle class="st0" cx="1717.895" cy="1313.684" r="6.6"/><circle class="st0" cx="1717.895" cy="1414.737" r="12.45"/><circle class="st0" cx="1717.895" cy="1515.789" r="11.25"/><circle class="st0" cx="1717.895" cy="1616.842" r="9.9"/><circle class="st0" cx="1717.895" cy="1717.895" r="7.8"/><circle class="st0" cx="1717.895" cy="1818.947" r="10.35"/><circle class="st0" cx="1818.947" cy="101.053" r="10.95"/><circle class="st0" cx="1818.947" cy="202.105" r="10.05"/><circle class="st0" cx="1818.947" cy="303.158" r="8.55"/><circle class="st0" cx="1818.947" cy="404.211" r="15"/><circle class="st0" cx="1818.947" cy="505.263" r="12.9"/><circle class="st0" cx="1818.947" cy="606.316" r="12.9"/><circle class="st0" cx="1818.947" cy="707.368" r="7.5"/><circle class="st0" cx="1818.947" cy="808.421" r="7.2"/><circle class="st0" cx="1818.947" cy="909.474" r="6"/><circle class="st0" cx="1818.947" cy="1010.526" r="11.1"/><circle class="st0" cx="1818.947" cy="1111.579" r="11.4"/><circle class="st0" cx="1818.947" cy="1212.632" r="12.45"/><circle class="st0" cx="1818.947" cy="1313.684" r="12.9"/><circle class="st0" cx="1818.947" cy="1414.737" r="12.15"/><circle class="st0" cx="1818.947" cy="1515.789" r="6"/><circle class="st0" cx="1818.947" cy="1616.842" r="6.6"/><circle class="st0" cx="1818.947" cy="1717.895" r="5.25"/><circle class="st0" cx="1818.947" cy="1818.947" r="9.75"/></svg>