<svg version="1.1" xmlns="http://www.w3.org/2000/svg" x="0" y="0" viewBox="0 0 1920 1920" xml:space="preserve"><path d="M0 0h1920v1920H0V0z" fill="#36434f"/><path d="M16 15h16v18H16zm32 0h112v18H48zm128 0h64v18h-64zm80 0h64v18h-64zm80 0h112v18H336zm128 0h96v18h-96zm112 0h128v18H576zm144 0h64v18h-64zm80 0h16v18h-16zm32 0h96v18h-96zm112 0h208v18H944zm224 0h208v18h-208zm224 0h16v18h-16zm32 0h48v18h-48zm64 0h80v18h-80zm96 0h80v18h-80zm96 0h144v18h-144zm160 0h32v18h-32zm48 0h16v18h-16zM16 51h96v18H16zm112 0h32v18h-32zm48 0h128v18H176zm144 0h112v18H320zm128 0h128v18H448zm144 0h208v18H592zm224 0h16v18h-16zm32 0h128v18H848zm144 0h128v18H992zm144 0h16v18h-16zm32 0h112v18h-112zm128 0h64v18h-64zm80 0h112v18h-112zm128 0h128v18h-128zm144 0h256v18h-256zM16 87h32v18H16zm48 0h144v18H64zm160 0h80v18h-80zm96 0h112v18H320zm128 0h64v18h-64zm80 0h64v18h-64zm80 0h64v18h-64zm80 0h32v18h-32zm48 0h96v18h-96zm112 0h48v18h-48zm64 0h144v18H912zm160 0h16v18h-16zm32 0h112v18h-112zm128 0h128v18h-128zm144 0h112v18h-112zm128 0h96v18h-96zm112 0h96v18h-96zm112 0h176v18h-176zM16 123h128v18H16zm144 0h80v18h-80zm96 0h16v18h-16zm32 0h128v18H288zm144 0h32v18h-32zm48 0h112v18H480zm128 0h128v18H608zm144 0h32v18h-32zm48 0h144v18H800zm160 0h144v18H960zm160 0h16v18h-16zm32 0h176v18h-176zm192 0h144v18h-144zm160 0h80v18h-80zm96 0h128v18h-128zm144 0h112v18h-112zm128 0h32v18h-32zM16 159h128v18H16zm144 0h96v18h-96zm112 0h80v18h-80zm96 0h176v18H368zm192 0h96v18h-96zm112 0h16v18h-16zm32 0h32v18h-32zm48 0h144v18H752zm160 0h96v18h-96zm112 0h16v18h-16zm32 0h192v18h-192zm208 0h160v18h-160zm176 0h32v18h-32zm48 0h112v18h-112zm128 0h16v18h-16zm32 0h64v18h-64zm80 0h64v18h-64zm80 0h80v18h-80zM16 195h80v18H16zm96 0h32v18h-32zm48 0h64v18h-64zm80 0h80v18h-80zm96 0h64v18h-64zm80 0h96v18h-96zm112 0h112v18H528zm128 0h80v18h-80zm96 0h192v18H752zm208 0h16v18h-16zm32 0h96v18h-96zm112 0h160v18h-160zm176 0h16v18h-16zm32 0h128v18h-128zm144 0h112v18h-112zm128 0h16v18h-16zm32 0h112v18h-112zm128 0h32v18h-32zm48 0h112v18h-112zM16 231h32v18H16zm48 0h144v18H64zm160 0h48v18h-48zm64 0h112v18H288zm128 0h112v18H416zm128 0h48v18h-48zm64 0h272v18H608zm288 0h80v18h-80zm96 0h128v18H992zm144 0h64v18h-64zm80 0h32v18h-32zm48 0h112v18h-112zm128 0h64v18h-64zm80 0h80v18h-80zm96 0h112v18h-112zm128 0h16v18h-16zm32 0h160v18h-160zM16 267h96v18H16zm112 0h144v18H128zm160 0h144v18H288zm160 0h16v18h-16zm32 0h96v18h-96zm112 0h112v18H592zm128 0h48v18h-48zm64 0h128v18H784zm144 0h80v18h-80zm96 0h128v18h-128zm144 0h16v18h-16zm32 0h128v18h-128zm144 0h80v18h-80zm96 0h48v18h-48zm64 0h64v18h-64zm80 0h16v18h-16zm32 0h16v18h-16zm32 0h96v18h-96zm112 0h144v18h-144zM16 303h32v18H16zm48 0h160v18H64zm176 0h64v18h-64zm80 0h96v18h-96zm112 0h176v18H432zm192 0h64v18h-64zm80 0h16v18h-16zm32 0h128v18H736zm144 0h80v18h-80zm96 0h32v18h-32zm48 0h48v18h-48zm64 0h160v18h-160zm176 0h48v18h-48zm64 0h96v18h-96zm112 0h80v18h-80zm96 0h224v18h-224zm240 0h48v18h-48zm64 0h64v18h-64zM16 339h160v18H16zm176 0h16v18h-16zm32 0h128v18H224zm144 0h80v18h-80zm96 0h272v18H464zm288 0h144v18H752zm160 0h32v18h-32zm48 0h112v18H960zm128 0h80v18h-80zm96 0h48v18h-48zm64 0h64v18h-64zm80 0h144v18h-144zm160 0h160v18h-160zm176 0h144v18h-144zm160 0h16v18h-16zm32 0h48v18h-48zM16 375h48v18H16zm64 0h208v18H80zm224 0h160v18H304zm176 0h16v18h-16zm32 0h16v18h-16zm32 0h64v18h-64zm80 0h80v18h-80zm96 0h96v18h-96zm112 0h160v18H832zm176 0h208v18h-208zm224 0h96v18h-96zm112 0h80v18h-80zm96 0h32v18h-32zm48 0h48v18h-48zm64 0h128v18h-128zm144 0h32v18h-32zm48 0h144v18h-144zM16 411h144v18H16zm160 0h176v18H176zm192 0h128v18H368zm144 0h80v18h-80zm96 0h64v18h-64zm80 0h80v18h-80zm96 0h96v18h-96zm112 0h32v18h-32zm48 0h112v18H944zm128 0h96v18h-96zm112 0h64v18h-64zm80 0h64v18h-64zm80 0h96v18h-96zm112 0h64v18h-64zm80 0h80v18h-80zm96 0h32v18h-32zm48 0h112v18h-112zm128 0h32v18h-32zm48 0h48v18h-48zM16 447h48v18H16zm64 0h96v18H80zm112 0h112v18H192zm128 0h16v18h-16zm32 0h112v18H352zm128 0h64v18h-64zm80 0h32v18h-32zm48 0h80v18h-80zm96 0h80v18h-80zm96 0h16v18h-16zm32 0h128v18H832zm144 0h144v18H976zm160 0h32v18h-32zm48 0h96v18h-96zm112 0h128v18h-128zm144 0h64v18h-64zm80 0h144v18h-144zm160 0h32v18h-32zm48 0h80v18h-80zm96 0h32v18h-32zm48 0h32v18h-32zM16 483h64v18H16zm80 0h64v18H96zm80 0h288v18H176zm304 0h144v18H480zm160 0h48v18h-48zm64 0h128v18H704zm144 0h32v18h-32zm48 0h32v18h-32zm48 0h96v18h-96zm112 0h32v18h-32zm48 0h96v18h-96zm112 0h32v18h-32zm48 0h144v18h-144zm160 0h96v18h-96zm112 0h96v18h-96zm112 0h16v18h-16zm32 0h16v18h-16zm32 0h96v18h-96zm112 0h80v18h-80zM16 519h80v18H16zm112 0h32v18h-32zm48 0h176v18H176zm192 0h80v18h-80zm96 0h96v18h-96zm112 0h112v18H576zm128 0h16v18h-16zm32 0h128v18H736zm144 0h48v18h-48zm64 0h112v18H944zm128 0h128v18h-128zm144 0h64v18h-64zm80 0h96v18h-96zm112 0h64v18h-64zm80 0h240v18h-240zm256 0h96v18h-96zm112 0h48v18h-48zM16 555h80v18H16zm96 0h80v18h-80zm96 0h32v18h-32zm48 0h48v18h-48zm64 0h64v18h-64zm80 0h128v18H400zm144 0h48v18h-48zm64 0h64v18h-64zm80 0h96v18h-96zm112 0h96v18h-96zm112 0h48v18h-48zm64 0h16v18h-16zm32 0h128v18h-128zm144 0h80v18h-80zm96 0h96v18h-96zm112 0h64v18h-64zm80 0h128v18h-128zm144 0h32v18h-32zm48 0h160v18h-160zm176 0h64v18h-64zm80 0h16v18h-16zM16 591h144v18H16zm160 0h32v18h-32zm48 0h32v18h-32zm48 0h64v18h-64zm80 0h144v18H352zm160 0h160v18H512zm176 0h48v18h-48zm64 0h64v18h-64zm80 0h128v18H832zm144 0h32v18h-32zm48 0h208v18h-208zm224 0h176v18h-176zm192 0h48v18h-48zm64 0h32v18h-32zm48 0h48v18h-48zm64 0h112v18h-112zm128 0h80v18h-80zm96 0h32v18h-32zm48 0h16v18h-16zM16 627h176v18H16zm192 0h160v18H208zm176 0h16v18h-16zm32 0h64v18h-64zm80 0h96v18h-96zm112 0h96v18h-96zm112 0h96v18h-96zm112 0h128v18H832zm144 0h128v18H976zm144 0h48v18h-48zm64 0h128v18h-128zm144 0h240v18h-240zm256 0h16v18h-16zm32 0h144v18h-144zm160 0h112v18h-112zM16 663h16v18H16zm32 0h192v18H48zm208 0h128v18H256zm144 0h112v18H400zm128 0h16v18h-16zm32 0h112v18H560zm128 0h96v18h-96zm112 0h32v18h-32zm48 0h80v18h-80zm96 0h16v18h-16zm32 0h96v18h-96zm112 0h48v18h-48zm64 0h32v18h-32zm48 0h96v18h-96zm112 0h80v18h-80zm96 0h16v18h-16zm32 0h128v18h-128zm144 0h32v18h-32zm48 0h48v18h-48zm64 0h48v18h-48zm64 0h96v18h-96zm112 0h16v18h-16zM16 699h144v18H16zm160 0h32v18h-32zm48 0h192v18H224zm208 0h160v18H432zm176 0h96v18h-96zm112 0h16v18h-16zm32 0h96v18h-96zm112 0h112v18H864zm128 0h128v18H992zm144 0h112v18h-112zm128 0h48v18h-48zm64 0h80v18h-80zm96 0h32v18h-32zm48 0h96v18h-96zm112 0h16v18h-16zm32 0h96v18h-96zm112 0h144v18h-144zm160 0h16v18h-16zM16 735h32v18H16zm48 0h96v18H64zm112 0h96v18h-96zm112 0h128v18H288zm144 0h128v18H432zm144 0h64v18h-64zm80 0h48v18h-48zm64 0h144v18H720zm160 0h144v18H880zm160 0h192v18h-192zm208 0h64v18h-64zm80 0h32v18h-32zm48 0h80v18h-80zm96 0h208v18h-208zm224 0h48v18h-48zm64 0h96v18h-96zm112 0h32v18h-32zM16 771h144v18H16zm176 0h80v18h-80zm96 0h112v18H288zm128 0h32v18h-32zm48 0h160v18H464zm176 0h160v18H640zm176 0h32v18h-32zm48 0h96v18h-96zm112 0h80v18h-80zm96 0h96v18h-96zm112 0h144v18h-144zm160 0h112v18h-112zm128 0h80v18h-80zm96 0h80v18h-80zm96 0h48v18h-48zm64 0h128v18h-128zm144 0h32v18h-32zM16 807h96v18H16zm112 0h128v18H128zm144 0h80v18h-80zm96 0h112v18H368zm128 0h128v18H496zm144 0h32v18h-32zm48 0h16v18h-16zm32 0h48v18h-48zm64 0h48v18h-48zm64 0h48v18h-48zm64 0h64v18h-64zm80 0h128v18H992zm144 0h96v18h-96zm112 0h96v18h-96zm112 0h112v18h-112zm128 0h32v18h-32zm48 0h128v18h-128zm144 0h32v18h-32zm48 0h48v18h-48zm64 0h48v18h-48zm64 0h48v18h-48zM16 843h160v18H16zm176 0h112v18H192zm128 0h48v18h-48zm64 0h80v18h-80zm96 0h144v18H480zm160 0h64v18h-64zm80 0h80v18h-80zm96 0h112v18H816zm128 0h160v18H944zm176 0h16v18h-16zm32 0h64v18h-64zm80 0h48v18h-48zm64 0h112v18h-112zm128 0h80v18h-80zm96 0h128v18h-128zm144 0h16v18h-16zm32 0h128v18h-128zm144 0h64v18h-64zM16 879h144v18H16zm160 0h64v18h-64zm80 0h16v18h-16zm32 0h112v18H288zm128 0h64v18h-64zm80 0h16v18h-16zm32 0h48v18h-48zm64 0h112v18H592zm128 0h112v18H720zm128 0h112v18H848zm128 0h16v18h-16zm32 0h144v18h-144zm160 0h32v18h-32zm48 0h16v18h-16zm32 0h96v18h-96zm112 0h192v18h-192zm208 0h144v18h-144zm160 0h176v18h-176zM16 915h16v18H16zm32 0h144v18H48zm160 0h144v18H208zm160 0h112v18H368zm128 0h112v18H496zm128 0h80v18h-80zm96 0h80v18h-80zm96 0h48v18h-48zm64 0h48v18h-48zm64 0h64v18h-64zm80 0h176v18h-176zm192 0h16v18h-16zm32 0h144v18h-144zm160 0h32v18h-32zm48 0h80v18h-80zm96 0h80v18h-80zm96 0h96v18h-96zm112 0h112v18h-112zm128 0h16v18h-16zM16 951h112v18H16zm128 0h112v18H144zm128 0h64v18h-64zm80 0h32v18h-32zm48 0h32v18h-32zm48 0h144v18H448zm160 0h32v18h-32zm48 0h176v18H656zm192 0h128v18H848zm144 0h80v18h-80zm96 0h112v18h-112zm128 0h96v18h-96zm112 0h16v18h-16zm32 0h160v18h-160zm176 0h16v18h-16zm32 0h16v18h-16zm32 0h32v18h-32zm48 0h144v18h-144zm160 0h64v18h-64zm80 0h16v18h-16zM16 987h64v18H16zm96 0h32v18h-32zm48 0h32v18h-32zm48 0h144v18H208zm160 0h16v18h-16zm32 0h64v18h-64zm80 0h16v18h-16zm32 0h96v18h-96zm112 0h144v18H624zm160 0h16v18h-16zm32 0h48v18h-48zm64 0h80v18h-80zm96 0h32v18h-32zm48 0h96v18h-96zm112 0h32v18h-32zm48 0h112v18h-112zm128 0h32v18h-32zm48 0h112v18h-112zm128 0h64v18h-64zm80 0h176v18h-176zm192 0h144v18h-144zM16 1023h16v18H16zm32 0h160v18H48zm176 0h48v18h-48zm64 0h144v18H288zm160 0h48v18h-48zm64 0h64v18h-64zm80 0h128v18H592zm144 0h16v18h-16zm32 0h96v18h-96zm112 0h112v18H880zm128 0h96v18h-96zm112 0h128v18h-128zm144 0h48v18h-48zm64 0h112v18h-112zm128 0h32v18h-32zm48 0h128v18h-128zm144 0h80v18h-80zm96 0h160v18h-160zM16 1059h16v18H16zm32 0h144v18H48zm160 0h144v18H208zm160 0h48v18h-48zm64 0h48v18h-48zm64 0h64v18h-64zm80 0h112v18H576zm128 0h96v18h-96zm112 0h32v18h-32zm48 0h144v18H864zm160 0h128v18h-128zm144 0h16v18h-16zm32 0h96v18h-96zm112 0h48v18h-48zm64 0h48v18h-48zm64 0h272v18h-272zm288 0h80v18h-80zm96 0h80v18h-80zM16 1095h16v18H16zm32 0h64v18H48zm80 0h160v18H128zm176 0h16v18h-16zm32 0h48v18h-48zm64 0h160v18H400zm176 0h16v18h-16zm32 0h112v18H608zm128 0h32v18h-32zm48 0h48v18h-48zm64 0h16v18h-16zm32 0h16v18h-16zm32 0h128v18H912zm144 0h16v18h-16zm32 0h96v18h-96zm112 0h16v18h-16zm32 0h48v18h-48zm64 0h96v18h-96zm112 0h224v18h-224zm240 0h16v18h-16zm32 0h128v18h-128zm144 0h80v18h-80zM16 1131h48v18H16zm64 0h96v18H80zm112 0h64v18h-64zm80 0h192v18H272zm208 0h32v18h-32zm48 0h80v18h-80zm96 0h16v18h-16zm32 0h208v18H656zm224 0h16v18h-16zm32 0h192v18H912zm208 0h64v18h-64zm80 0h48v18h-48zm64 0h80v18h-80zm96 0h96v18h-96zm112 0h32v18h-32zm48 0h160v18h-160zm176 0h16v18h-16zm32 0h96v18h-96zm112 0h64v18h-64zM16 1167h96v18H16zm112 0h160v18H128zm176 0h16v18h-16zm32 0h80v18h-80zm96 0h16v18h-16zm32 0h128v18H464zm144 0h32v18h-32zm48 0h144v18H656zm160 0h128v18H816zm144 0h48v18h-48zm64 0h176v18h-176zm192 0h16v18h-16zm32 0h80v18h-80zm96 0h96v18h-96zm112 0h208v18h-208zm224 0h16v18h-16zm32 0h96v18h-96zm112 0h80v18h-80zM16 1203h16v18H16zm32 0h96v18H48zm112 0h176v18H160zm192 0h128v18H352zm144 0h192v18H496zm208 0h128v18H704zm144 0h32v18h-32zm48 0h144v18H896zm160 0h160v18h-160zm176 0h16v18h-16zm32 0h112v18h-112zm128 0h144v18h-144zm160 0h96v18h-96zm112 0h32v18h-32zm48 0h112v18h-112zm128 0h16v18h-16zm32 0h32v18h-32zM16 1239h32v18H16zm48 0h80v18H64zm96 0h32v18h-32zm48 0h16v18h-16zm32 0h80v18h-80zm96 0h112v18H336zm128 0h144v18H464zm160 0h96v18h-96zm112 0h48v18h-48zm64 0h64v18h-64zm80 0h48v18h-48zm64 0h64v18h-64zm80 0h64v18h-64zm80 0h32v18h-32zm48 0h144v18h-144zm160 0h96v18h-96zm112 0h48v18h-48zm64 0h128v18h-128zm144 0h64v18h-64zm80 0h32v18h-32zm48 0h48v18h-48zm64 0h80v18h-80zM16 1275h224v18H16zm240 0h64v18h-64zm80 0h128v18H336zm144 0h16v18h-16zm32 0h32v18h-32zm48 0h64v18h-64zm80 0h64v18h-64zm80 0h208v18H720zm224 0h96v18h-96zm112 0h32v18h-32zm48 0h112v18h-112zm128 0h144v18h-144zm160 0h144v18h-144zm160 0h176v18h-176zm192 0h160v18h-160zM16 1311h304v18H16zm336 0h80v18h-80zm96 0h64v18h-64zm80 0h64v18h-64zm80 0h16v18h-16zm32 0h112v18H640zm128 0h16v18h-16zm32 0h112v18H800zm128 0h16v18h-16zm32 0h48v18h-48zm64 0h16v18h-16zm32 0h144v18h-144zm160 0h96v18h-96zm112 0h272v18h-272zm288 0h80v18h-80zm96 0h160v18h-160zm176 0h16v18h-16zM16 1347h112v18H16zm128 0h48v18h-48zm64 0h96v18h-96zm112 0h128v18H320zm144 0h128v18H464zm144 0h112v18H608zm128 0h112v18H736zm128 0h80v18h-80zm96 0h128v18H960zm144 0h112v18h-112zm128 0h16v18h-16zm32 0h224v18h-224zm240 0h96v18h-96zm112 0h96v18h-96zm112 0h80v18h-80zm96 0h16v18h-16zm32 0h48v18h-48zM16 1383h80v18H16zm96 0h80v18h-80zm96 0h16v18h-16zm32 0h160v18H240zm176 0h48v18h-48zm64 0h16v18h-16zm32 0h48v18h-48zm64 0h16v18h-16zm32 0h48v18h-48zm64 0h112v18H672zm128 0h48v18h-48zm64 0h112v18H864zm128 0h112v18H992zm128 0h48v18h-48zm64 0h32v18h-32zm48 0h112v18h-112zm128 0h48v18h-48zm64 0h16v18h-16zm32 0h128v18h-128zm144 0h16v18h-16zm32 0h144v18h-144zm160 0h32v18h-32zm48 0h16v18h-16zm32 0h32v18h-32zM16 1419h80v18H16zm96 0h16v18h-16zm32 0h192v18H144zm208 0h160v18H352zm176 0h16v18h-16zm32 0h48v18h-48zm64 0h48v18h-48zm64 0h64v18h-64zm80 0h16v18h-16zm32 0h128v18H800zm144 0h32v18h-32zm48 0h16v18h-16zm32 0h160v18h-160zm176 0h128v18h-128zm144 0h112v18h-112zm128 0h16v18h-16zm32 0h112v18h-112zm128 0h96v18h-96zm112 0h160v18h-160zM16 1455h16v18H16zm48 0h112v18H64zm128 0h32v18h-32zm48 0h128v18H240zm144 0h144v18H384zm160 0h16v18h-16zm32 0h128v18H576zm144 0h16v18h-16zm32 0h240v18H752zm256 0h80v18h-80zm96 0h32v18h-32zm48 0h144v18h-144zm160 0h16v18h-16zm32 0h144v18h-144zm160 0h32v18h-32zm48 0h16v18h-16zm32 0h176v18h-176zm192 0h128v18h-128zM16 1491h16v18H16zm32 0h16v18H48zm32 0h160v18H80zm176 0h192v18H256zm208 0h160v18H464zm176 0h112v18H640zm128 0h192v18H768zm208 0h16v18h-16zm32 0h80v18h-80zm96 0h48v18h-48zm64 0h112v18h-112zm128 0h32v18h-32zm48 0h128v18h-128zm144 0h16v18h-16zm32 0h80v18h-80zm96 0h64v18h-64zm80 0h16v18h-16zm32 0h96v18h-96zm112 0h16v18h-16zm32 0h32v18h-32zM16 1527h64v18H16zm80 0h160v18H96zm176 0h16v18h-16zm32 0h32v18h-32zm48 0h80v18h-80zm96 0h160v18H448zm176 0h128v18H624zm144 0h144v18H768zm160 0h48v18h-48zm64 0h112v18H992zm128 0h16v18h-16zm32 0h96v18h-96zm112 0h192v18h-192zm208 0h208v18h-208zm224 0h80v18h-80zm96 0h16v18h-16zm32 0h80v18h-80zM16 1563h32v18H16zm48 0h96v18H64zm112 0h144v18H176zm160 0h176v18H336zm192 0h32v18h-32zm48 0h96v18h-96zm112 0h176v18H688zm192 0h176v18H880zm192 0h112v18h-112zm128 0h64v18h-64zm80 0h32v18h-32zm48 0h96v18h-96zm112 0h160v18h-160zm176 0h16v18h-16zm32 0h16v18h-16zm32 0h32v18h-32zm48 0h32v18h-32zm48 0h128v18h-128zM16 1599h16v18H16zm32 0h208v18H48zm224 0h176v18H272zm192 0h16v18h-16zm32 0h112v18H496zm128 0h128v18H624zm144 0h96v18h-96zm112 0h176v18H880zm192 0h160v18h-160zm176 0h272v18h-272zm288 0h32v18h-32zm48 0h64v18h-64zm80 0h96v18h-96zm112 0h128v18h-128zM16 1635h16v18H16zm48 0h144v18H64zm160 0h128v18H224zm144 0h176v18H368zm192 0h80v18h-80zm96 0h112v18H656zm128 0h80v18h-80zm96 0h96v18h-96zm112 0h208v18H992zm224 0h96v18h-96zm112 0h112v18h-112zm128 0h96v18h-96zm112 0h32v18h-32zm48 0h96v18h-96zm112 0h128v18h-128zm144 0h32v18h-32zM16 1671h48v18H16zm64 0h144v18H80zm160 0h32v18h-32zm48 0h16v18h-16zm32 0h112v18H320zm128 0h80v18h-80zm96 0h112v18H544zm128 0h48v18h-48zm64 0h80v18h-80zm96 0h96v18h-96zm112 0h16v18h-16zm32 0h112v18H976zm128 0h128v18h-128zm144 0h96v18h-96zm112 0h256v18h-256zm272 0h144v18h-144zm160 0h96v18h-96zM16 1707h32v18H16zm48 0h112v18H64zm128 0h128v18H192zm144 0h128v18H336zm144 0h80v18h-80zm96 0h208v18H576zm224 0h128v18H800zm144 0h80v18h-80zm96 0h96v18h-96zm112 0h80v18h-80zm96 0h16v18h-16zm32 0h128v18h-128zm144 0h112v18h-112zm128 0h64v18h-64zm80 0h16v18h-16zm32 0h48v18h-48zm64 0h48v18h-48zm64 0h64v18h-64zm80 0h32v18h-32zM16 1743h16v18H16zm32 0h64v18H48zm80 0h16v18h-16zm32 0h144v18H160zm160 0h48v18h-48zm64 0h240v18H384zm256 0h16v18h-16zm32 0h144v18H672zm160 0h112v18H832zm128 0h112v18H960zm128 0h16v18h-16zm32 0h128v18h-128zm144 0h112v18h-112zm128 0h64v18h-64zm80 0h16v18h-16zm32 0h144v18h-144zm160 0h144v18h-144zm160 0h16v18h-16zm32 0h48v18h-48zM16 1779h96v18H16zm112 0h112v18H128zm128 0h64v18h-64zm80 0h16v18h-16zm32 0h192v18H368zm208 0h16v18h-16zm32 0h176v18H608zm192 0h96v18h-96zm112 0h32v18h-32zm48 0h80v18h-80zm96 0h16v18h-16zm32 0h128v18h-128zm144 0h112v18h-112zm128 0h160v18h-160zm176 0h224v18h-224zm240 0h128v18h-128zM16 1815h80v18H16zm112 0h80v18h-80zm96 0h128v18H224zm144 0h128v18H368zm144 0h160v18H512zm176 0h80v18h-80zm96 0h48v18h-48zm64 0h144v18H848zm160 0h16v18h-16zm32 0h96v18h-96zm112 0h96v18h-96zm112 0h80v18h-80zm96 0h32v18h-32zm48 0h176v18h-176zm192 0h144v18h-144zm160 0h96v18h-96zm112 0h32v18h-32zM16 1851h112v18H16zm128 0h80v18h-80zm96 0h64v18h-64zm80 0h32v18h-32zm48 0h64v18h-64zm80 0h112v18H448zm128 0h48v18h-48zm64 0h112v18H640zm128 0h16v18h-16zm32 0h32v18h-32zm48 0h112v18H848zm128 0h128v18H976zm144 0h112v18h-112zm128 0h112v18h-112zm128 0h128v18h-128zm144 0h128v18h-128zm144 0h80v18h-80zm96 0h144v18h-144zM16 1887h16v18H16zm32 0h16v18H48zm32 0h144v18H80zm160 0h64v18h-64zm80 0h128v18H320zm144 0h128v18H464zm144 0h192v18H608zm208 0h160v18H816zm176 0h128v18H992zm144 0h80v18h-80zm96 0h112v18h-112zm128 0h32v18h-32zm48 0h144v18h-144zm160 0h32v18h-32zm48 0h80v18h-80zm96 0h32v18h-32zm48 0h112v18h-112zm128 0h16v18h-16z" fill="#999"/></svg>