<svg version="1.1" xmlns="http://www.w3.org/2000/svg" x="0" y="0" viewBox="0 0 1920 1920" xml:space="preserve"><path d="M0 0h1920v1920H0V0z" fill="#36434f"/><path d="M10 10h24v9H10zm32 0h496v9H42zm504 0h96v9h-96zm104 0h48v9h-48zm56 0h232v9H706zm240 0h24v9h-24zm32 0h152v9H978zm160 0h48v9h-48zm56 0h104v9h-104zM10 28h8v9h-8zm0 18h16v9H10zm0 18h96v9H10zm104 0h64v9h-64zm72 0h24v9h-24zm32 0h56v9h-56zm64 0h40v9h-40zm48 0h16v9h-16zm24 0h64v9h-64zm72 0h56v9h-56zm64 0h8v9h-8zm16 0h72v9h-72zm80 0h72v9h-72zm80 0h8v9h-8zm16 0h104v9H682zm112 0h24v9h-24zm32 0h48v9h-48zm56 0h56v9h-56zm64 0h80v9h-80zm88 0h16v9h-16zm24 0h8v9h-8zm16 0h16v9h-16zm24 0h56v9h-56zm64 0h80v9h-80zM10 82h80v9H10zm88 0h16v9H98zm24 0h96v9h-96zm104 0h104v9H226zm112 0h80v9h-80zm88 0h32v9h-32zm40 0h24v9h-24zm32 0h96v9h-96zm104 0h48v9h-48zm56 0h72v9h-72zm80 0h72v9h-72zm80 0h16v9h-16zm24 0h8v9h-8zm16 0h24v9h-24zm32 0h88v9h-88zm96 0h8v9h-8zm16 0h48v9h-48zm56 0h56v9h-56zm64 0h40v9h-40zm48 0h88v9h-88zM10 100h64v9H10zm72 0h96v9H82zm104 0h32v9h-32zm40 0h64v9h-64zm72 0h56v9h-56zm64 0h56v9h-56zm64 0h128v9H426zM10 118h24v9H10zm32 0h80v9H42zm88 0h80v9h-80zm88 0h64v9h-64zm72 0h96v9h-96zM10 136h56v9H10zm64 0h80v9H74zm-64 18h80v9H10zm96 0h8v9h-8zm16 0h48v9h-48zm56 0h80v9h-80zm88 0h104v9H266zm112 0h80v9h-80zm88 0h48v9h-48zm56 0h56v9h-56zm64 0h80v9h-80zm88 0h32v9h-32zm40 0h72v9h-72zM26 172h24v9H26zm32 0h8v9h-8zm16 0h40v9H74zm48 0h64v9h-64zm72 0h72v9h-72zm80 0h104v9H274zm112 0h56v9h-56zm64 0h96v9h-96zm104 0h24v9h-24zm32 0h16v9h-16zm24 0h64v9h-64zM26 190h24v9H26zm32 0h8v9h-8zm16 0h40v9H74zm48 0h80v9h-80zm88 0h56v9h-56zm64 0h56v9h-56zm64 0h136v9H338zM26 208h24v9H26zm32 0h8v9h-8zm16 0h48v9H74zm56 0h72v9h-72zm80 0h64v9h-64zm72 0h8v9h-8zm16 0h96v9h-96zm104 0h152v9H402zm160 0h16v9h-16zm24 0h8v9h-8zm16 0h16v9h-16zm24 0h168v9H626zM26 226h24v9H26zm32 0h8v9h-8zm16 0h24v9H74zm32 0h88v9h-88zm96 0h104v9H202zM74 244h8v9h-8zm16 0h8v9h-8zm16 0h160v9H106zm168 0h104v9H274zm112 0h104v9H386zM74 262h8v9h-8zm16 0h8v9h-8zm16 0h136v9H106zm144 0h104v9H250zm112 0h104v9H362zM74 280h8v9h-8zm16 0h8v9h-8zm16 0h128v9H106zm136 0h96v9h-96zm104 0h104v9H346zM26 298h24v9H26zm32 0h8v9h-8zm16 0h24v9H74zm32 0h56v9h-56zm64 0h136v9H170zm-96 18h8v9h-8zm16 0h8v9h-8zm16 0h32v9h-32zm40 0h56v9h-56zm64 0h72v9h-72zM74 334h8v9h-8zm16 0h8v9h-8zm16 0h56v9h-56zm64 0h64v9h-64zm72 0h72v9h-72zM74 352h8v9h-8zm16 0h8v9h-8zm16 0h48v9h-48zm56 0h64v9h-64zm72 0h72v9h-72zM26 370h24v9H26zm32 0h8v9h-8zm16 0h24v9H74zm32 0h96v9h-96zm104 0h48v9h-48zm56 0h72v9h-72zm80 0h104v9H346zM74 388h8v9h-8zm16 0h8v9h-8zm16 0h240v9H106zm248 0h56v9h-56zm64 0h72v9h-72zM74 406h8v9h-8zm16 0h8v9h-8zm16 0h304v9H106zm312 0h56v9h-56zm64 0h56v9h-56zm64 0h8v9h-8zm16 0h40v9h-40zm48 0h56v9h-56zm64 0h80v9h-80zM10 424h120v9H10zm136 0h8v9h-8zm16 0h72v9h-72zm80 0h16v9h-16zm24 0h56v9h-56zm64 0h56v9h-56zm64 0h40v9h-40zm48 0h64v9h-64zm72 0h48v9h-48zm56 0h64v9h-64zm72 0h96v9h-96zm104 0h16v9h-16zm24 0h32v9h-32zm40 0h88v9h-88zm96 0h48v9h-48zm56 0h32v9h-32zm40 0h56v9h-56zm64 0h8v9h-8zm16 0h24v9h-24zm32 0h72v9h-72zM10 442h136v9H10zm152 0h8v9h-8zm16 0h72v9h-72zm80 0h56v9h-56zm64 0h72v9h-72zm80 0h64v9h-64zM10 460h88v9H10zm104 0h8v9h-8zm16 0h64v9h-64zm72 0h56v9h-56zm64 0h56v9h-56zm64 0h8v9h-8zm16 0h48v9h-48zm56 0h96v9h-96zm104 0h64v9h-64zm72 0h144v9H578zM10 478h96v9H10zm104 0h72v9h-72zM10 496h8v9h-8zm24 0h8v9h-8zm16 0h64v9H50zm72 0h48v9h-48zm56 0h24v9h-24zm32 0h56v9h-56zm64 0h24v9h-24zm32 0h56v9h-56zM10 514h8v9h-8zm24 0h8v9h-8zm16 0h64v9H50zm72 0h24v9h-24zm32 0h48v9h-48zm56 0h56v9h-56zm64 0h48v9h-48zm56 0h40v9h-40zm48 0h8v9h-8zm16 0h32v9h-32zm40 0h48v9h-48zm56 0h8v9h-8zm16 0h136v9H506zm144 0h8v9h-8zm16 0h8v9h-8zm16 0h88v9h-88zm96 0h16v9h-16zm24 0h80v9h-80zm88 0h56v9h-56zm64 0h56v9h-56zM10 532h48v9H10zm56 0h64v9H66zm72 0h64v9h-64zm72 0h56v9h-56zm64 0h88v9h-88zM10 550h136v9H10zm0 18h176v9H10zm0 18h136v9H10zm0 18h128v9H10zm0 18h128v9H10zm0 18h128v9H10zm0 18h16v9H10zm0 18h88v9H10zm96 0h16v9h-16zm24 0h80v9h-80zm88 0h72v9h-72zm80 0h72v9h-72zM10 694h24v9H10zm32 0h304v9H42zm312 0h72v9h-72zM10 712h24v9H10zm32 0h288v9H42zm296 0h80v9h-80zm88 0h56v9h-56zm64 0h56v9h-56zM10 730h24v9H10zm32 0h136v9H42zm144 0h64v9h-64zm72 0h8v9h-8zm16 0h72v9h-72zM10 748h24v9H10zm32 0h312v9H42zm320 0h56v9h-56zM10 766h24v9H10zm32 0h240v9H42zm248 0h88v9h-88zM10 784h24v9H10zm32 0h272v9H42zm280 0h56v9h-56zM10 802h24v9H10zm32 0h240v9H42zm248 0h96v9h-96zm104 0h48v9h-48zm56 0h72v9h-72zM10 838h80v9H10zm88 0h48v9H98zm-88 18h16v9H10zm24 0h216v9H34zm224 0h88v9h-88zm96 0h72v9h-72zm80 0h40v9h-40zm48 0h72v9h-72zM10 874h16v9H10zm24 0h200v9H34zm208 0h88v9h-88zm96 0h72v9h-72zm80 0h40v9h-40zm48 0h80v9h-80zm88 0h56v9h-56zm64 0h56v9h-56zM10 892h32v9H10zm40 0h408v9H50zm416 0h48v9h-48zm56 0h56v9h-56zm64 0h64v9h-64zm72 0h48v9h-48zm56 0h16v9h-16zm24 0h40v9h-40zM10 910h16v9H10zm24 0h432v9H34zm440 0h48v9h-48zm56 0h56v9h-56zm64 0h88v9h-88zm96 0h48v9h-48zm56 0h16v9h-16zm24 0h40v9h-40zM10 928h16v9H10zm24 0h528v9H34zm536 0h48v9h-48zm56 0h56v9h-56zm64 0h56v9h-56zm64 0h48v9h-48zm56 0h16v9h-16zm24 0h40v9h-40zM10 946h16v9H10zm24 0h296v9H34zm304 0h48v9h-48zm56 0h56v9h-56zm64 0h96v9h-96zm104 0h48v9h-48zm56 0h72v9h-72zm80 0h48v9h-48zm56 0h16v9h-16zm24 0h40v9h-40zM10 982h64v9H10zm72 0h72v9H82zm80 0h72v9h-72zm80 0h72v9h-72zm80 0h80v9h-80zm88 0h48v9h-48zm56 0h16v9h-16zm24 0h80v9h-80zm88 0h80v9h-80zm-568 18h64v9H10zm72 0h72v9H82zm80 0h8v9h-8zm16 0h40v9h-40zm48 0h72v9h-72zm80 0h48v9h-48zm56 0h32v9h-32zm40 0h112v9H402zm120 0h40v9h-40zm48 0h80v9h-80zm88 0h24v9h-24zm32 0h72v9h-72zm-680 18h24v9H10zm32 0h488v9H42zm496 0h72v9h-72zm-528 18h24v9H10zm32 0h504v9H42zm512 0h72v9h-72zm-544 36h96v9H10zm0 18h24v9H10zm32 0h128v9H42zm-32 18h24v9H10zm32 0h240v9H42zm248 0h56v9h-56zm64 0h64v9h-64zm72 0h8v9h-8zm16 0h56v9h-56zm64 0h72v9h-72zm-496 18h48v9H10zm56 0h200v9H66zm208 0h56v9h-56zm64 0h56v9h-56zm64 0h56v9h-56zm64 0h64v9h-64zm72 0h8v9h-8zm16 0h56v9h-56zm64 0h72v9h-72zm-608 18h48v9H10zm56 0h176v9H66zm184 0h56v9h-56zm64 0h56v9h-56zm64 0h56v9h-56zm64 0h64v9h-64zm72 0h16v9h-16zm24 0h24v9h-24zm32 0h40v9h-40zm48 0h48v9h-48zm56 0h72v9h-72zm-664 18h24v9H10zm32 0h184v9H42zm192 0h56v9h-56zm64 0h80v9h-80zm88 0h64v9h-64zm-376 18h24v9H10zm32 0h184v9H42zm192 0h56v9h-56zm64 0h80v9h-80zm88 0h64v9h-64zm-376 18h48v9H10zm56 0h280v9H66zm288 0h56v9h-56zm-344 36h40v9H10zm48 0h80v9H58zm88 0h72v9h-72zm80 0h72v9h-72zm80 0h72v9h-72zm80 0h112v9H386zm120 0h64v9h-64zm72 0h64v9h-64zm72 0h24v9h-24zm-640 18h88v9H10zm96 0h72v9h-72zm-96 18h24v9H10zm32 0h104v9H42zm-32 18h112v9H10zm120 0h168v9H130zm-120 18h24v9H10zm32 0h208v9H42zm216 0h136v9H258zm144 0h176v9H402zm-392 18h88v9H10zm96 0h64v9h-64zm-96 18h24v9H10zm32 0h168v9H42zm-32 18h176v9H10zm184 0h168v9H194zm-184 18h24v9H10zm32 0h208v9H42zm216 0h200v9H258zm208 0h176v9H466zm-456 18h64v9H10zm72 0h64v9H82zm72 0h56v9h-56zm64 0h56v9h-56zm64 0h72v9h-72zm-272 18h48v9H10zm56 0h72v9H66zm-56 18h88v9H10zm96 0h184v9H106zm-96 18h64v9H10zm72 0h64v9H82zm72 0h56v9h-56zm64 0h56v9h-56zm64 0h64v9h-64zm-272 18h48v9H10zm56 0h136v9H66zm-56 18h152v9H10zm160 0h184v9H170zm-160 18h64v9H10zm72 0h24v9H82zm32 0h64v9h-64zm72 0h104v9H186zm112 0h64v9h-64zm-288 18h24v9H10zm32 0h128v9H42zm-32 18h144v9H10zm152 0h176v9H162zm-152 18h64v9H10zm72 0h24v9H82zm32 0h64v9h-64zm72 0h56v9h-56zm64 0h64v9h-64zm72 0h16v9h-16zm24 0h24v9h-24zm32 0h40v9h-40zm48 0h48v9h-48zm56 0h72v9h-72zm-472 18h24v9H10zm32 0h128v9H42zm-32 18h144v9H10zm152 0h176v9H162zm-152 18h40v9H10zm48 0h128v9H58zm136 0h8v9h-8zm16 0h64v9h-64zm72 0h64v9h-64zm72 0h40v9h-40zm48 0h48v9h-48zm56 0h96v9h-96zm104 0h48v9h-48zm56 0h72v9h-72zm-608 18h48v9H10zm56 0h168v9H66zm-56 18h184v9H10zm192 0h184v9H202zm-192 18h40v9H10zm48 0h64v9H58zm72 0h64v9h-64zm72 0h40v9h-40zm48 0h48v9h-48zm56 0h48v9h-48zm56 0h72v9h-72zm-352 18h48v9H10zm56 0h48v9H66zm-56 18h64v9H10zm72 0h184v9H82zm-72 18h40v9H10zm48 0h72v9H58zm80 0h64v9h-64zm72 0h40v9h-40zm48 0h72v9h-72zm80 0h56v9h-56zm64 0h80v9h-80zm88 0h80v9h-80zm88 0h8v9h-8zm16 0h32v9h-32zm40 0h8v9h-8zm16 0h56v9h-56zm64 0h24v9h-24zm32 0h24v9h-24zm32 0h64v9h-64zm-768 18h24v9H10zm32 0h56v9H42zm-32 18h72v9H10zm80 0h160v9H90zm-80 18h64v9H10zm72 0h24v9H82zm32 0h64v9h-64zm72 0h56v9h-56zm64 0h64v9h-64zm-240 18h24v9H10zm32 0h72v9H42zm-32 18h88v9H10zm96 0h176v9H106zm-96 18h64v9H10zm72 0h24v9H82zm32 0h64v9h-64zm72 0h56v9h-56zm64 0h64v9h-64zm-240 18h24v9H10zm32 0h72v9H42zm-32 18h88v9H10zm96 0h176v9H106zm-96 18h64v9H10zm72 0h24v9H82zm32 0h64v9h-64zm72 0h56v9h-56zm64 0h16v9h-16zm24 0h88v9h-88zm96 0h32v9h-32zm40 0h72v9h-72zm-400 18h24v9H10zm32 0h56v9H42z" fill="#999"/></svg>