<svg version="1.1" xmlns="http://www.w3.org/2000/svg" x="0" y="0" viewBox="0 0 1920 1920" xml:space="preserve"><path d="M0 0h1920v1920H0V0z" fill="#36434f"/><path d="M8 10.5h8v9H8zm16 0h16v9H24zm24 0h40v9H48zm48 0h24v9H96zm32 0h56v9h-56zm64 0h40v9h-40zm48 0h16v9h-16zm24 0h56v9h-56zm64 0h16v9h-16zm24 0h32v9h-32zm40 0h32v9h-32zm40 0h24v9h-24zm32 0h24v9h-24zm32 0h72v9h-72zm80 0h24v9h-24zm32 0h72v9h-72zm80 0h16v9h-16zm24 0h16v9h-16zm24 0h56v9h-56zm64 0h88v9h-88zm96 0h32v9h-32zm40 0h16v9h-16zm24 0h32v9h-32zm40 0h64v9h-64zm72 0h24v9h-24zm32 0h16v9h-16zm24 0h32v9h-32zm40 0h16v9h-16zm24 0h16v9h-16zm24 0h40v9h-40zm48 0h24v9h-24zm32 0h24v9h-24zm32 0h32v9h-32zm40 0h40v9h-40zm48 0h16v9h-16zm24 0h56v9h-56zm64 0h16v9h-16zm24 0h32v9h-32zm40 0h32v9h-32zm40 0h72v9h-72zm80 0h48v9h-48zm56 0h16v9h-16zm24 0h56v9h-56zm64 0h48v9h-48zM8 28.5h24v9H8zm32 0h72v9H40zm80 0h48v9h-48zm56 0h24v9h-24zm32 0h72v9h-72zm80 0h16v9h-16zm24 0h24v9h-24zm32 0h80v9h-80zm88 0h24v9h-24zm32 0h56v9h-56zm64 0h24v9h-24zm32 0h48v9h-48zm56 0h8v9h-8zm16 0h16v9h-16zm24 0h16v9h-16zm24 0h32v9h-32zm40 0h56v9h-56zm64 0h40v9h-40zm48 0h32v9h-32zm40 0h48v9h-48zm56 0h32v9h-32zm40 0h24v9h-24zm32 0h32v9h-32zm40 0h32v9h-32zm40 0h48v9h-48zm56 0h32v9h-32zm40 0h24v9h-24zm32 0h48v9h-48zm56 0h32v9h-32zm40 0h40v9h-40zm48 0h32v9h-32zm40 0h40v9h-40zm48 0h16v9h-16zm24 0h24v9h-24zm32 0h104v9h-104zm112 0h104v9h-104zm112 0h16v9h-16zm24 0h32v9h-32zm40 0h24v9h-24zm32 0h16v9h-16zm24 0h32v9h-32zM8 46.5h32v9H8zm40 0h32v9H48zm40 0h16v9H88zm24 0h64v9h-64zm72 0h8v9h-8zm16 0h112v9H200zm120 0h24v9h-24zm32 0h64v9h-64zm72 0h8v9h-8zm16 0h32v9h-32zm40 0h32v9h-32zm40 0h32v9h-32zm40 0h72v9h-72zm80 0h32v9h-32zm40 0h64v9h-64zm72 0h48v9h-48zm56 0h64v9h-64zm72 0h8v9h-8zm16 0h96v9h-96zm104 0h88v9h-88zm96 0h40v9h-40zm48 0h88v9h-88zm96 0h64v9h-64zm72 0h56v9h-56zm64 0h8v9h-8zm16 0h72v9h-72zm80 0h40v9h-40zm48 0h64v9h-64zm72 0h56v9h-56zm64 0h88v9h-88zm96 0h16v9h-16zm24 0h16v9h-16zm24 0h48v9h-48zm56 0h32v9h-32zM8 64.5h64v9H8zm72 0h56v9H80zm64 0h72v9h-72zm80 0h40v9h-40zm48 0h8v9h-8zm16 0h24v9h-24zm32 0h24v9h-24zm32 0h48v9h-48zm56 0h24v9h-24zm32 0h24v9h-24zm32 0h64v9h-64zm72 0h48v9h-48zm56 0h24v9h-24zm32 0h40v9h-40zm48 0h40v9h-40zm48 0h48v9h-48zm56 0h120v9H784zm128 0h48v9h-48zm56 0h72v9h-72zm80 0h8v9h-8zm16 0h88v9h-88zm96 0h88v9h-88zm96 0h40v9h-40zm48 0h8v9h-8zm16 0h56v9h-56zm64 0h56v9h-56zm64 0h32v9h-32zm40 0h64v9h-64zm72 0h24v9h-24zm32 0h64v9h-64zm72 0h16v9h-16zm24 0h40v9h-40zm48 0h24v9h-24zm32 0h32v9h-32zm40 0h48v9h-48zm56 0h32v9h-32zM8 82.5h16v9H8zm24 0h40v9H32zm48 0h8v9h-8zm16 0h48v9H96zm56 0h64v9h-64zm72 0h16v9h-16zm24 0h40v9h-40zm48 0h32v9h-32zm40 0h24v9h-24zm32 0h64v9h-64zm72 0h16v9h-16zm24 0h16v9h-16zm24 0h16v9h-16zm24 0h88v9h-88zm96 0h16v9h-16zm24 0h48v9h-48zm56 0h16v9h-16zm24 0h48v9h-48zm56 0h32v9h-32zm40 0h24v9h-24zm32 0h48v9h-48zm56 0h48v9h-48zm56 0h16v9h-16zm24 0h32v9h-32zm40 0h56v9h-56zm64 0h24v9h-24zm32 0h40v9h-40zm48 0h16v9h-16zm24 0h40v9h-40zm48 0h56v9h-56zm64 0h16v9h-16zm24 0h32v9h-32zm40 0h32v9h-32zm40 0h32v9h-32zm40 0h24v9h-24zm32 0h40v9h-40zm48 0h8v9h-8zm16 0h16v9h-16zm24 0h16v9h-16zm24 0h56v9h-56zm64 0h56v9h-56zm64 0h64v9h-64zm72 0h16v9h-16zm24 0h8v9h-8zm16 0h40v9h-40zM8 100.5h48v9H8zm56 0h72v9H64zm80 0h56v9h-56zm64 0h8v9h-8zm16 0h8v9h-8zm16 0h64v9h-64zm72 0h72v9h-72zm80 0h16v9h-16zm24 0h56v9h-56zm64 0h40v9h-40zm48 0h72v9h-72zm80 0h64v9h-64zm72 0h48v9h-48zm56 0h8v9h-8zm16 0h88v9h-88zm96 0h40v9h-40zm48 0h64v9h-64zm72 0h8v9h-8zm16 0h56v9h-56zm64 0h64v9h-64zm72 0h8v9h-8zm16 0h64v9h-64zm72 0h8v9h-8zm16 0h56v9h-56zm64 0h80v9h-80zm88 0h64v9h-64zm72 0h40v9h-40zm48 0h16v9h-16zm24 0h56v9h-56zm64 0h16v9h-16zm24 0h24v9h-24zm32 0h80v9h-80zm88 0h88v9h-88zm96 0h48v9h-48zm56 0h16v9h-16zM8 118.5h56v9H8zm64 0h16v9H72zm24 0h48v9H96zm56 0h72v9h-72zm80 0h16v9h-16zm24 0h8v9h-8zm16 0h48v9h-48zm56 0h32v9h-32zm40 0h40v9h-40zm48 0h8v9h-8zm16 0h8v9h-8zm16 0h40v9h-40zm48 0h56v9h-56zm64 0h160v9H560zm168 0h96v9h-96zm104 0h56v9h-56zm64 0h88v9h-88zm96 0h112v9H992zm120 0h8v9h-8zm16 0h40v9h-40zm48 0h8v9h-8zm16 0h24v9h-24zm32 0h40v9h-40zm48 0h104v9h-104zm112 0h72v9h-72zm80 0h16v9h-16zm24 0h56v9h-56zm64 0h8v9h-8zm16 0h32v9h-32zm40 0h72v9h-72zm80 0h72v9h-72zm80 0h16v9h-16zm24 0h40v9h-40zM8 136.5h72v9H8zm80 0h16v9H88zm24 0h32v9h-32zm40 0h80v9h-80zm88 0h8v9h-8zm16 0h56v9h-56zm64 0h56v9h-56zm64 0h8v9h-8zm16 0h56v9h-56zm64 0h48v9h-48zm56 0h16v9h-16zm24 0h56v9h-56zm64 0h8v9h-8zm16 0h40v9h-40zm48 0h32v9h-32zm40 0h80v9h-80zm88 0h56v9h-56zm64 0h32v9h-32zm40 0h48v9h-48zm56 0h40v9h-40zm48 0h40v9h-40zm48 0h8v9h-8zm16 0h72v9h-72zm80 0h40v9h-40zm48 0h8v9h-8zm16 0h48v9h-48zm56 0h24v9h-24zm32 0h16v9h-16zm24 0h56v9h-56zm64 0h48v9h-48zm56 0h8v9h-8zm16 0h48v9h-48zm56 0h8v9h-8zm16 0h56v9h-56zm64 0h40v9h-40zm48 0h64v9h-64zm72 0h8v9h-8zm16 0h56v9h-56zm64 0h96v9h-96zM8 154.5h80v9H8zm88 0h8v9h-8zm16 0h32v9h-32zm40 0h72v9h-72zm80 0h8v9h-8zm16 0h24v9h-24zm32 0h40v9h-40zm48 0h32v9h-32zm40 0h88v9h-88zm96 0h40v9h-40zm48 0h88v9h-88zm96 0h80v9h-80zm88 0h40v9h-40zm48 0h48v9h-48zm56 0h32v9h-32zm40 0h64v9h-64zm72 0h80v9h-80zm88 0h72v9h-72zm80 0h8v9h-8zm16 0h32v9h-32zm40 0h48v9h-48zm56 0h8v9h-8zm16 0h56v9h-56zm64 0h32v9h-32zm40 0h72v9h-72zm80 0h8v9h-8zm16 0h16v9h-16zm24 0h32v9h-32zm40 0h40v9h-40zm48 0h8v9h-8zm16 0h40v9h-40zm48 0h64v9h-64zm72 0h8v9h-8zm16 0h8v9h-8zm16 0h64v9h-64zm72 0h88v9h-88zM8 172.5h88v9H8zm96 0h40v9h-40zm48 0h56v9h-56zm64 0h24v9h-24zm32 0h32v9h-32zm40 0h80v9h-80zm88 0h32v9h-32zm40 0h8v9h-8zm16 0h48v9h-48zm56 0h48v9h-48zm56 0h8v9h-8zm16 0h32v9h-32zm40 0h48v9h-48zm56 0h16v9h-16zm24 0h32v9h-32zm40 0h8v9h-8zm16 0h56v9h-56zm64 0h40v9h-40zm48 0h8v9h-8zm16 0h8v9h-8zm16 0h56v9h-56zm64 0h24v9h-24zm32 0h64v9h-64zm72 0h64v9h-64zm72 0h64v9h-64zm72 0h16v9h-16zm24 0h32v9h-32zm40 0h40v9h-40zm48 0h24v9h-24zm32 0h48v9h-48zm56 0h24v9h-24zm32 0h40v9h-40zm48 0h16v9h-16zm24 0h32v9h-32zm40 0h24v9h-24zm32 0h32v9h-32zm40 0h80v9h-80zm88 0h80v9h-80zm88 0h8v9h-8zm16 0h56v9h-56zM8 190.5h72v9H8zm80 0h16v9H88zm24 0h8v9h-8zm16 0h40v9h-40zm48 0h16v9h-16zm24 0h48v9h-48zm56 0h24v9h-24zm32 0h16v9h-16zm24 0h40v9h-40zm48 0h56v9h-56zm64 0h64v9h-64zm72 0h16v9h-16zm24 0h72v9h-72zm80 0h8v9h-8zm16 0h48v9h-48zm56 0h40v9h-40zm48 0h16v9h-16zm24 0h72v9h-72zm80 0h24v9h-24zm32 0h80v9h-80zm88 0h40v9h-40zm48 0h48v9h-48zm56 0h40v9h-40zm48 0h56v9h-56zm64 0h16v9h-16zm24 0h8v9h-8zm16 0h16v9h-16zm24 0h48v9h-48zm56 0h40v9h-40zm48 0h56v9h-56zm64 0h8v9h-8zm16 0h16v9h-16zm24 0h16v9h-16zm24 0h80v9h-80zm88 0h32v9h-32zm40 0h16v9h-16zm24 0h40v9h-40zm48 0h72v9h-72zm80 0h48v9h-48zm56 0h24v9h-24zm32 0h56v9h-56zm64 0h8v9h-8zM8 208.5h16v9H8zm24 0h56v9H32zm64 0h16v9H96zm24 0h96v9h-96zm104 0h32v9h-32zm40 0h40v9h-40zm48 0h32v9h-32zm40 0h16v9h-16zm24 0h8v9h-8zm16 0h24v9h-24zm32 0h24v9h-24zm32 0h64v9h-64zm72 0h8v9h-8zm16 0h48v9h-48zm56 0h40v9h-40zm48 0h72v9h-72zm80 0h72v9h-72zm80 0h48v9h-48zm56 0h8v9h-8zm16 0h72v9h-72zm80 0h56v9h-56zm64 0h16v9h-16zm24 0h8v9h-8zm16 0h48v9h-48zm56 0h24v9h-24zm32 0h80v9h-80zm88 0h8v9h-8zm16 0h40v9h-40zm48 0h24v9h-24zm32 0h80v9h-80zm88 0h16v9h-16zm24 0h16v9h-16zm24 0h40v9h-40zm48 0h24v9h-24zm32 0h32v9h-32zm40 0h48v9h-48zm56 0h16v9h-16zm24 0h40v9h-40zm48 0h16v9h-16zm24 0h48v9h-48zm56 0h24v9h-24zm32 0h48v9h-48zm56 0h16v9h-16zM8 226.5h40v9H8zm48 0h56v9H56zm64 0h56v9h-56zm64 0h48v9h-48zm56 0h56v9h-56zm64 0h24v9h-24zm32 0h40v9h-40zm48 0h56v9h-56zm64 0h32v9h-32zm40 0h48v9h-48zm56 0h48v9h-48zm56 0h32v9h-32zm40 0h64v9h-64zm72 0h48v9h-48zm56 0h72v9h-72zm80 0h64v9h-64zm72 0h16v9h-16zm24 0h32v9h-32zm40 0h40v9h-40zm48 0h32v9h-32zm40 0h32v9h-32zm40 0h96v9h-96zm104 0h72v9h-72zm80 0h8v9h-8zm16 0h64v9h-64zm72 0h32v9h-32zm40 0h96v9h-96zm104 0h72v9h-72zm80 0h16v9h-16zm24 0h96v9h-96zm104 0h88v9h-88zm96 0h8v9h-8zm16 0h56v9h-56zM8 244.5h40v9H8zm48 0h16v9H56zm24 0h32v9H80zm40 0h32v9h-32zm40 0h16v9h-16zm24 0h72v9h-72zm80 0h32v9h-32zm40 0h40v9h-40zm48 0h16v9h-16zm24 0h64v9h-64zm72 0h64v9h-64zm72 0h48v9h-48zm56 0h56v9h-56zm64 0h24v9h-24zm32 0h64v9h-64zm72 0h104v9H744zm112 0h80v9h-80zm88 0h56v9h-56zm64 0h64v9h-64zm72 0h72v9h-72zm80 0h16v9h-16zm24 0h32v9h-32zm40 0h32v9h-32zm40 0h72v9h-72zm80 0h32v9h-32zm40 0h8v9h-8zm16 0h16v9h-16zm24 0h24v9h-24zm32 0h8v9h-8zm16 0h16v9h-16zm24 0h64v9h-64zm72 0h56v9h-56zm64 0h72v9h-72zm80 0h24v9h-24zm32 0h8v9h-8zm16 0h96v9h-96zM8 262.5h48v9H8zm56 0h80v9H64zm88 0h64v9h-64zm72 0h48v9h-48zm56 0h48v9h-48zm56 0h88v9h-88zm96 0h16v9h-16zm24 0h64v9h-64zm72 0h24v9h-24zm32 0h16v9h-16zm24 0h48v9h-48zm56 0h16v9h-16zm24 0h40v9h-40zm48 0h8v9h-8zm16 0h16v9h-16zm24 0h56v9h-56zm64 0h48v9h-48zm56 0h104v9H872zm112 0h8v9h-8zm16 0h64v9h-64zm72 0h72v9h-72zm80 0h24v9h-24zm32 0h96v9h-96zm104 0h64v9h-64zm72 0h32v9h-32zm40 0h64v9h-64zm72 0h112v9h-112zm120 0h8v9h-8zm16 0h24v9h-24zm32 0h16v9h-16zm24 0h64v9h-64zm72 0h24v9h-24zm32 0h24v9h-24zm32 0h64v9h-64zm72 0h8v9h-8zM8 280.5h48v9H8zm56 0h16v9H64zm24 0h64v9H88zm72 0h40v9h-40zm48 0h40v9h-40zm48 0h16v9h-16zm24 0h56v9h-56zm64 0h56v9h-56zm64 0h16v9h-16zm24 0h48v9h-48zm56 0h8v9h-8zm16 0h16v9h-16zm24 0h40v9h-40zm48 0h48v9h-48zm56 0h24v9h-24zm32 0h56v9h-56zm64 0h32v9h-32zm40 0h48v9h-48zm56 0h32v9h-32zm40 0h48v9h-48zm56 0h32v9h-32zm40 0h112v9H960zm120 0h56v9h-56zm64 0h24v9h-24zm32 0h88v9h-88zm96 0h40v9h-40zm48 0h32v9h-32zm40 0h56v9h-56zm64 0h72v9h-72zm80 0h8v9h-8zm16 0h40v9h-40zm48 0h40v9h-40zm48 0h32v9h-32zm40 0h24v9h-24zm32 0h40v9h-40zm48 0h16v9h-16zm24 0h24v9h-24zm32 0h8v9h-8zm16 0h40v9h-40zm48 0h48v9h-48zM8 298.5h56v9H8zm64 0h8v9h-8zm16 0h56v9H88zm64 0h64v9h-64zm72 0h72v9h-72zm80 0h80v9h-80zm88 0h32v9h-32zm40 0h8v9h-8zm16 0h40v9h-40zm48 0h8v9h-8zm16 0h16v9h-16zm24 0h24v9h-24zm32 0h96v9h-96zm104 0h8v9h-8zm16 0h48v9h-48zm56 0h24v9h-24zm32 0h24v9h-24zm32 0h16v9h-16zm24 0h56v9h-56zm64 0h32v9h-32zm40 0h8v9h-8zm16 0h16v9h-16zm24 0h64v9h-64zm72 0h32v9h-32zm40 0h72v9h-72zm80 0h64v9h-64zm72 0h40v9h-40zm48 0h80v9h-80zm88 0h56v9h-56zm64 0h48v9h-48zm56 0h24v9h-24zm32 0h56v9h-56zm64 0h8v9h-8zm16 0h32v9h-32zm40 0h40v9h-40zm48 0h48v9h-48zm56 0h8v9h-8zm16 0h56v9h-56zm64 0h16v9h-16zm24 0h32v9h-32zM8 316.5h48v9H8zm56 0h64v9H64zm72 0h40v9h-40zm48 0h88v9h-88zm96 0h16v9h-16zm24 0h32v9h-32zm40 0h24v9h-24zm32 0h80v9h-80zm88 0h8v9h-8zm16 0h24v9h-24zm32 0h96v9h-96zm104 0h48v9h-48zm56 0h8v9h-8zm16 0h40v9h-40zm48 0h96v9h-96zm104 0h40v9h-40zm48 0h16v9h-16zm24 0h48v9h-48zm56 0h8v9h-8zm16 0h16v9h-16zm24 0h40v9h-40zm48 0h48v9h-48zm56 0h24v9h-24zm32 0h48v9h-48zm56 0h32v9h-32zm40 0h80v9h-80zm88 0h88v9h-88zm96 0h24v9h-24zm32 0h80v9h-80zm88 0h64v9h-64zm72 0h56v9h-56zm64 0h24v9h-24zm32 0h40v9h-40zm48 0h56v9h-56zm64 0h32v9h-32zM8 334.5h48v9H8zm56 0h40v9H64zm48 0h40v9h-40zm48 0h72v9h-72zm80 0h24v9h-24zm32 0h24v9h-24zm32 0h56v9h-56zm64 0h104v9H368zm112 0h56v9h-56zm64 0h24v9h-24zm32 0h16v9h-16zm24 0h56v9h-56zm64 0h24v9h-24zm32 0h16v9h-16zm24 0h40v9h-40zm48 0h48v9h-48zm56 0h112v9H824zm120 0h48v9h-48zm56 0h88v9h-88zm96 0h56v9h-56zm64 0h48v9h-48zm56 0h16v9h-16zm24 0h40v9h-40zm48 0h24v9h-24zm32 0h32v9h-32zm40 0h8v9h-8zm16 0h24v9h-24zm32 0h40v9h-40zm48 0h24v9h-24zm32 0h40v9h-40zm48 0h40v9h-40zm48 0h8v9h-8zm16 0h24v9h-24zm32 0h24v9h-24zm32 0h64v9h-64zm72 0h56v9h-56zm64 0h8v9h-8zm16 0h24v9h-24zM8 352.5h64v9H8zm72 0h8v9h-8zm16 0h32v9H96zm40 0h16v9h-16zm24 0h48v9h-48zm56 0h56v9h-56zm64 0h24v9h-24zm32 0h72v9h-72zm80 0h24v9h-24zm32 0h72v9h-72zm80 0h72v9h-72zm80 0h8v9h-8zm16 0h24v9h-24zm32 0h24v9h-24zm32 0h48v9h-48zm56 0h48v9h-48zm56 0h16v9h-16zm24 0h40v9h-40zm48 0h48v9h-48zm56 0h56v9h-56zm64 0h8v9h-8zm16 0h8v9h-8zm16 0h16v9h-16zm24 0h32v9h-32zm40 0h16v9h-16zm24 0h8v9h-8zm16 0h40v9h-40zm48 0h40v9h-40zm48 0h16v9h-16zm24 0h96v9h-96zm104 0h16v9h-16zm24 0h72v9h-72zm80 0h40v9h-40zm48 0h56v9h-56zm64 0h80v9h-80zm88 0h88v9h-88zm96 0h16v9h-16zm24 0h40v9h-40zm48 0h40v9h-40zm48 0h40v9h-40zM8 370.5h16v9H8zm24 0h8v9h-8zm16 0h32v9H48zm40 0h8v9h-8zm16 0h48v9h-48zm56 0h32v9h-32zm40 0h8v9h-8zm16 0h8v9h-8zm16 0h56v9h-56zm64 0h48v9h-48zm56 0h48v9h-48zm56 0h48v9h-48zm56 0h88v9h-88zm96 0h16v9h-16zm24 0h48v9h-48zm56 0h72v9h-72zm80 0h8v9h-8zm16 0h24v9h-24zm32 0h40v9h-40zm48 0h96v9h-96zm104 0h8v9h-8zm16 0h56v9h-56zm64 0h64v9h-64zm72 0h24v9h-24zm32 0h40v9h-40zm48 0h96v9h-96zm104 0h8v9h-8zm16 0h8v9h-8zm16 0h48v9h-48zm56 0h8v9h-8zm16 0h48v9h-48zm56 0h48v9h-48zm56 0h72v9h-72zm80 0h8v9h-8zm16 0h32v9h-32zm40 0h40v9h-40zm48 0h16v9h-16zm24 0h24v9h-24zm32 0h56v9h-56zm64 0h48v9h-48zm56 0h48v9h-48zM8 388.5h48v9H8zm56 0h104v9H64zm112 0h16v9h-16zm24 0h16v9h-16zm24 0h40v9h-40zm48 0h72v9h-72zm80 0h64v9h-64zm72 0h72v9h-72zm80 0h56v9h-56zm64 0h16v9h-16zm24 0h24v9h-24zm32 0h104v9H624zm112 0h16v9h-16zm24 0h48v9h-48zm56 0h24v9h-24zm32 0h32v9h-32zm40 0h8v9h-8zm16 0h56v9h-56zm64 0h8v9h-8zm16 0h56v9h-56zm64 0h8v9h-8zm16 0h72v9h-72zm80 0h32v9h-32zm40 0h40v9h-40zm48 0h104v9h-104zm112 0h8v9h-8zm16 0h40v9h-40zm48 0h8v9h-8zm16 0h32v9h-32zm40 0h24v9h-24zm32 0h40v9h-40zm48 0h80v9h-80zm88 0h72v9h-72zm80 0h16v9h-16zm24 0h56v9h-56zm64 0h16v9h-16zm24 0h80v9h-80zM8 406.5h16v9H8zm24 0h24v9H32zm32 0h40v9H64zm48 0h24v9h-24zm32 0h88v9h-88zm96 0h24v9h-24zm32 0h24v9h-24zm32 0h48v9h-48zm56 0h24v9h-24zm32 0h32v9h-32zm40 0h16v9h-16zm24 0h48v9h-48zm56 0h56v9h-56zm64 0h64v9h-64zm72 0h24v9h-24zm32 0h32v9h-32zm40 0h16v9h-16zm24 0h56v9h-56zm64 0h88v9h-88zm96 0h16v9h-16zm24 0h80v9h-80zm88 0h8v9h-8zm16 0h40v9h-40zm48 0h48v9h-48zm56 0h48v9h-48zm56 0h16v9h-16zm24 0h16v9h-16zm24 0h48v9h-48zm56 0h32v9h-32zm40 0h64v9h-64zm72 0h24v9h-24zm32 0h16v9h-16zm24 0h24v9h-24zm32 0h48v9h-48zm56 0h80v9h-80zm88 0h16v9h-16zm24 0h56v9h-56zm64 0h8v9h-8zm16 0h16v9h-16zm24 0h8v9h-8zm16 0h40v9h-40zm48 0h24v9h-24zM8 424.5h40v9H8zm48 0h8v9h-8zm16 0h48v9H72zm56 0h48v9h-48zm56 0h8v9h-8zm16 0h64v9h-64zm72 0h8v9h-8zm16 0h64v9h-64zm72 0h24v9h-24zm32 0h24v9h-24zm32 0h40v9h-40zm48 0h48v9h-48zm56 0h24v9h-24zm32 0h64v9h-64zm72 0h48v9h-48zm56 0h8v9h-8zm16 0h144v9H704zm152 0h40v9h-40zm48 0h24v9h-24zm32 0h24v9h-24zm32 0h8v9h-8zm16 0h24v9h-24zm32 0h16v9h-16zm24 0h80v9h-80zm88 0h32v9h-32zm40 0h56v9h-56zm64 0h40v9h-40zm48 0h24v9h-24zm32 0h80v9h-80zm88 0h8v9h-8zm16 0h56v9h-56zm64 0h24v9h-24zm32 0h144v9h-144zm152 0h16v9h-16zm24 0h48v9h-48zm56 0h80v9h-80zm88 0h48v9h-48zM8 442.5h40v9H8zm48 0h48v9H56zm56 0h80v9h-80zm88 0h8v9h-8zm16 0h40v9h-40zm48 0h40v9h-40zm48 0h16v9h-16zm24 0h48v9h-48zm56 0h40v9h-40zm48 0h16v9h-16zm24 0h48v9h-48zm56 0h8v9h-8zm16 0h16v9h-16zm24 0h40v9h-40zm48 0h48v9h-48zm56 0h24v9h-24zm32 0h8v9h-8zm16 0h40v9h-40zm48 0h56v9h-56zm64 0h40v9h-40zm48 0h80v9h-80zm88 0h32v9h-32zm40 0h16v9h-16zm24 0h24v9h-24zm32 0h48v9h-48zm56 0h56v9h-56zm64 0h40v9h-40zm48 0h88v9h-88zm96 0h40v9h-40zm48 0h80v9h-80zm88 0h72v9h-72zm80 0h72v9h-72zm80 0h56v9h-56zm64 0h32v9h-32zm40 0h64v9h-64zm72 0h40v9h-40zm48 0h56v9h-56zM8 460.5h40v9H8zm48 0h8v9h-8zm16 0h32v9H72zm40 0h40v9h-40zm48 0h24v9h-24zm32 0h16v9h-16zm24 0h32v9h-32zm40 0h16v9h-16zm24 0h24v9h-24zm32 0h48v9h-48zm56 0h16v9h-16zm24 0h40v9h-40zm48 0h48v9h-48zm56 0h24v9h-24zm32 0h24v9h-24zm32 0h24v9h-24zm32 0h48v9h-48zm56 0h24v9h-24zm32 0h64v9h-64zm72 0h96v9h-96zm104 0h8v9h-8zm16 0h64v9h-64zm72 0h16v9h-16zm24 0h40v9h-40zm48 0h16v9h-16zm24 0h40v9h-40zm48 0h8v9h-8zm16 0h24v9h-24zm32 0h80v9h-80zm88 0h8v9h-8zm16 0h144v9h-144zm152 0h24v9h-24zm32 0h16v9h-16zm24 0h24v9h-24zm32 0h24v9h-24zm32 0h8v9h-8zm16 0h48v9h-48zm56 0h56v9h-56zm64 0h24v9h-24zm32 0h72v9h-72zm80 0h40v9h-40zm48 0h48v9h-48zm56 0h8v9h-8zm16 0h16v9h-16zM8 478.5h40v9H8zm48 0h24v9H56zm32 0h32v9H88zm40 0h64v9h-64zm72 0h56v9h-56zm64 0h96v9h-96zm104 0h32v9h-32zm40 0h16v9h-16zm24 0h40v9h-40zm48 0h88v9h-88zm96 0h64v9h-64zm72 0h8v9h-8zm16 0h72v9h-72zm80 0h72v9h-72zm80 0h88v9h-88zm96 0h8v9h-8zm16 0h72v9h-72zm80 0h88v9h-88zm96 0h8v9h-8zm16 0h64v9h-64zm72 0h24v9h-24zm32 0h8v9h-8zm16 0h24v9h-24zm32 0h48v9h-48zm56 0h48v9h-48zm56 0h32v9h-32zm40 0h40v9h-40zm48 0h24v9h-24zm32 0h8v9h-8zm16 0h72v9h-72zm80 0h72v9h-72zm80 0h8v9h-8zm16 0h40v9h-40zm48 0h56v9h-56zM8 496.5h128v9H8zm136 0h24v9h-24zm32 0h64v9h-64zm72 0h24v9h-24zm32 0h16v9h-16zm24 0h80v9h-80zm88 0h64v9h-64zm72 0h56v9h-56zm64 0h48v9h-48zm56 0h40v9h-40zm48 0h64v9h-64zm72 0h64v9h-64zm72 0h24v9h-24zm32 0h8v9h-8zm16 0h40v9h-40zm48 0h48v9h-48zm56 0h16v9h-16zm24 0h80v9h-80zm88 0h64v9h-64zm72 0h40v9h-40zm48 0h80v9h-80zm88 0h56v9h-56zm64 0h32v9h-32zm40 0h72v9h-72zm80 0h8v9h-8zm16 0h96v9h-96zm104 0h16v9h-16zm24 0h80v9h-80zm88 0h8v9h-8zm16 0h56v9h-56zm64 0h72v9h-72zm80 0h8v9h-8zM8 514.5h72v9H8zm80 0h48v9H88zm56 0h64v9h-64zm72 0h8v9h-8zm16 0h72v9h-72zm80 0h40v9h-40zm48 0h16v9h-16zm24 0h24v9h-24zm32 0h24v9h-24zm32 0h16v9h-16zm24 0h56v9h-56zm64 0h24v9h-24zm32 0h80v9h-80zm88 0h8v9h-8zm16 0h40v9h-40zm48 0h120v9H720zm128 0h96v9h-96zm104 0h8v9h-8zm16 0h8v9h-8zm16 0h16v9h-16zm24 0h16v9h-16zm24 0h40v9h-40zm48 0h56v9h-56zm64 0h32v9h-32zm40 0h8v9h-8zm16 0h32v9h-32zm40 0h8v9h-8zm16 0h48v9h-48zm56 0h16v9h-16zm24 0h40v9h-40zm48 0h64v9h-64zm72 0h8v9h-8zm16 0h56v9h-56zm64 0h32v9h-32zm40 0h8v9h-8zm16 0h48v9h-48zm56 0h24v9h-24zm32 0h24v9h-24zm32 0h32v9h-32zm40 0h40v9h-40zm48 0h8v9h-8zm16 0h24v9h-24zm32 0h24v9h-24zm32 0h24v9h-24zM8 532.5h72v9H8zm80 0h32v9H88zm40 0h24v9h-24zm32 0h56v9h-56zm64 0h16v9h-16zm24 0h32v9h-32zm40 0h16v9h-16zm24 0h48v9h-48zm56 0h16v9h-16zm24 0h16v9h-16zm24 0h48v9h-48zm56 0h40v9h-40zm48 0h40v9h-40zm48 0h16v9h-16zm24 0h32v9h-32zm40 0h24v9h-24zm32 0h40v9h-40zm48 0h80v9h-80zm88 0h8v9h-8zm16 0h32v9h-32zm40 0h64v9h-64zm72 0h8v9h-8zm16 0h128v9H944zm136 0h8v9h-8zm16 0h8v9h-8zm16 0h40v9h-40zm48 0h48v9h-48zm56 0h8v9h-8zm16 0h80v9h-80zm88 0h32v9h-32zm40 0h64v9h-64zm72 0h40v9h-40zm48 0h72v9h-72zm80 0h72v9h-72zm80 0h88v9h-88zm96 0h8v9h-8zm16 0h40v9h-40zm48 0h8v9h-8zm16 0h56v9h-56zM8 550.5h64v9H8zm72 0h32v9H80zm40 0h24v9h-24zm32 0h40v9h-40zm48 0h72v9h-72zm80 0h40v9h-40zm48 0h24v9h-24zm32 0h96v9h-96zm104 0h8v9h-8zm16 0h64v9h-64zm72 0h72v9h-72zm80 0h56v9h-56zm64 0h8v9h-8zm16 0h48v9h-48zm56 0h80v9h-80zm88 0h88v9h-88zm96 0h8v9h-8zm16 0h8v9h-8zm16 0h40v9h-40zm48 0h48v9h-48zm56 0h24v9h-24zm32 0h48v9h-48zm56 0h104v9h-104zm112 0h112v9h-112zm120 0h56v9h-56zm64 0h48v9h-48zm56 0h16v9h-16zm24 0h24v9h-24zm32 0h24v9h-24zm32 0h32v9h-32zm40 0h48v9h-48zm56 0h40v9h-40zm48 0h32v9h-32zm40 0h56v9h-56zM8 568.5h40v9H8zm48 0h72v9H56zm80 0h64v9h-64zm72 0h48v9h-48zm56 0h72v9h-72zm80 0h8v9h-8zm16 0h24v9h-24zm32 0h16v9h-16zm24 0h48v9h-48zm56 0h8v9h-8zm16 0h64v9h-64zm72 0h24v9h-24zm32 0h128v9H592zm136 0h72v9h-72zm80 0h56v9h-56zm64 0h8v9h-8zm16 0h40v9h-40zm48 0h80v9h-80zm88 0h48v9h-48zm56 0h8v9h-8zm16 0h24v9h-24zm32 0h48v9h-48zm56 0h40v9h-40zm48 0h32v9h-32zm40 0h48v9h-48zm56 0h16v9h-16zm24 0h8v9h-8zm16 0h48v9h-48zm56 0h16v9h-16zm24 0h16v9h-16zm24 0h64v9h-64zm72 0h8v9h-8zm16 0h24v9h-24zm32 0h80v9h-80zm88 0h40v9h-40zm48 0h96v9h-96zM8 586.5h64v9H8zm72 0h8v9h-8zm16 0h24v9H96zm32 0h96v9h-96zm104 0h56v9h-56zm64 0h48v9h-48zm56 0h24v9h-24zm32 0h24v9h-24zm32 0h16v9h-16zm24 0h32v9h-32zm40 0h24v9h-24zm32 0h16v9h-16zm24 0h40v9h-40zm48 0h16v9h-16zm24 0h16v9h-16zm24 0h72v9h-72zm80 0h24v9h-24zm32 0h8v9h-8zm16 0h48v9h-48zm56 0h48v9h-48zm56 0h8v9h-8zm16 0h88v9h-88zm96 0h56v9h-56zm64 0h8v9h-8zm16 0h48v9h-48zm56 0h64v9h-64zm72 0h80v9h-80zm88 0h8v9h-8zm16 0h40v9h-40zm48 0h56v9h-56zm64 0h8v9h-8zm16 0h80v9h-80zm88 0h40v9h-40zm48 0h56v9h-56zm64 0h48v9h-48zm56 0h40v9h-40zm48 0h32v9h-32zm40 0h32v9h-32zm40 0h56v9h-56zm64 0h8v9h-8zM8 604.5h32v9H8zm40 0h16v9H48zm24 0h56v9H72zm64 0h64v9h-64zm72 0h88v9h-88zm96 0h8v9h-8zm16 0h24v9h-24zm32 0h64v9h-64zm72 0h8v9h-8zm16 0h16v9h-16zm24 0h80v9h-80zm88 0h8v9h-8zm16 0h48v9h-48zm56 0h48v9h-48zm56 0h40v9h-40zm48 0h16v9h-16zm24 0h64v9h-64zm72 0h16v9h-16zm24 0h24v9h-24zm32 0h48v9h-48zm56 0h88v9h-88zm96 0h40v9h-40zm48 0h16v9h-16zm24 0h40v9h-40zm48 0h40v9h-40zm48 0h56v9h-56zm64 0h40v9h-40zm48 0h56v9h-56zm64 0h88v9h-88zm96 0h8v9h-8zm16 0h24v9h-24zm32 0h8v9h-8zm16 0h24v9h-24zm32 0h56v9h-56zm64 0h8v9h-8zm16 0h48v9h-48zm56 0h16v9h-16zm24 0h64v9h-64zm72 0h8v9h-8zm16 0h16v9h-16zm24 0h56v9h-56zM8 622.5h8v9H8zm16 0h48v9H24zm56 0h24v9H80zm32 0h16v9h-16zm24 0h80v9h-80zm88 0h32v9h-32zm40 0h24v9h-24zm32 0h40v9h-40zm48 0h40v9h-40zm48 0h8v9h-8zm16 0h24v9h-24zm32 0h40v9h-40zm48 0h24v9h-24zm32 0h72v9h-72zm80 0h24v9h-24zm32 0h64v9h-64zm72 0h16v9h-16zm24 0h56v9h-56zm64 0h40v9h-40zm48 0h64v9h-64zm72 0h48v9h-48zm56 0h8v9h-8zm16 0h56v9h-56zm64 0h8v9h-8zm16 0h96v9h-96zm104 0h24v9h-24zm32 0h32v9h-32zm40 0h72v9h-72zm80 0h8v9h-8zm16 0h48v9h-48zm56 0h24v9h-24zm32 0h64v9h-64zm72 0h40v9h-40zm48 0h104v9h-104zm112 0h8v9h-8zm16 0h96v9h-96zm104 0h24v9h-24zm32 0h96v9h-96zM8 640.5h8v9H8zm16 0h24v9H24zm32 0h32v9H56zm40 0h64v9H96zm72 0h40v9h-40zm48 0h72v9h-72zm80 0h8v9h-8zm16 0h88v9h-88zm96 0h40v9h-40zm48 0h24v9h-24zm32 0h24v9h-24zm32 0h64v9h-64zm72 0h48v9h-48zm56 0h136v9H648zm144 0h8v9h-8zm16 0h88v9h-88zm96 0h8v9h-8zm16 0h8v9h-8zm16 0h40v9h-40zm48 0h56v9h-56zm64 0h32v9h-32zm40 0h8v9h-8zm16 0h40v9h-40zm48 0h48v9h-48zm56 0h24v9h-24zm32 0h24v9h-24zm32 0h40v9h-40zm48 0h16v9h-16zm24 0h16v9h-16zm24 0h16v9h-16zm24 0h32v9h-32zm40 0h40v9h-40zm48 0h8v9h-8zm16 0h16v9h-16zm24 0h16v9h-16zm24 0h8v9h-8zm16 0h24v9h-24zm32 0h16v9h-16zm24 0h40v9h-40zm48 0h72v9h-72zm80 0h32v9h-32zm40 0h8v9h-8zm16 0h56v9h-56zm64 0h32v9h-32zM8 658.5h72v9H8zm80 0h72v9H88zm80 0h64v9h-64zm72 0h48v9h-48zm56 0h8v9h-8zm16 0h16v9h-16zm24 0h32v9h-32zm40 0h40v9h-40zm48 0h48v9h-48zm56 0h32v9h-32zm40 0h16v9h-16zm24 0h8v9h-8zm16 0h32v9h-32zm40 0h40v9h-40zm48 0h16v9h-16zm24 0h32v9h-32zm40 0h72v9h-72zm80 0h24v9h-24zm32 0h32v9h-32zm40 0h8v9h-8zm16 0h16v9h-16zm24 0h32v9h-32zm40 0h24v9h-24zm32 0h64v9h-64zm72 0h16v9h-16zm24 0h24v9h-24zm32 0h72v9h-72zm80 0h24v9h-24zm32 0h24v9h-24zm32 0h24v9h-24zm32 0h48v9h-48zm56 0h8v9h-8zm16 0h24v9h-24zm32 0h32v9h-32zm40 0h72v9h-72zm80 0h24v9h-24zm32 0h112v9h-112zm120 0h16v9h-16zm24 0h8v9h-8zm16 0h16v9h-16zm24 0h72v9h-72zm80 0h56v9h-56zM8 676.5h48v9H8zm56 0h32v9H64zm40 0h80v9h-80zm88 0h64v9h-64zm72 0h56v9h-56zm64 0h32v9h-32zm40 0h64v9h-64zm72 0h88v9h-88zm96 0h8v9h-8zm16 0h16v9h-16zm24 0h56v9h-56zm64 0h16v9h-16zm24 0h48v9h-48zm56 0h8v9h-8zm16 0h32v9h-32zm40 0h40v9h-40zm48 0h48v9h-48zm56 0h48v9h-48zm56 0h64v9h-64zm72 0h32v9h-32zm40 0h64v9h-64zm72 0h64v9h-64zm72 0h8v9h-8zm16 0h56v9h-56zm64 0h32v9h-32zm40 0h8v9h-8zm16 0h24v9h-24zm32 0h48v9h-48zm56 0h48v9h-48zm56 0h24v9h-24zm32 0h16v9h-16zm24 0h40v9h-40zm48 0h24v9h-24zm32 0h64v9h-64zm72 0h24v9h-24zm32 0h8v9h-8zm16 0h24v9h-24zm32 0h16v9h-16zm24 0h64v9h-64zm72 0h16v9h-16zM8 694.5h40v9H8zm48 0h32v9H56zm40 0h72v9H96zm80 0h16v9h-16zm24 0h8v9h-8zm16 0h32v9h-32zm40 0h32v9h-32zm40 0h32v9h-32zm40 0h48v9h-48zm56 0h72v9h-72zm80 0h56v9h-56zm64 0h40v9h-40zm48 0h88v9h-88zm96 0h8v9h-8zm16 0h48v9h-48zm56 0h24v9h-24zm32 0h56v9h-56zm64 0h8v9h-8zm16 0h40v9h-40zm48 0h24v9h-24zm32 0h72v9h-72zm80 0h16v9h-16zm24 0h88v9h-88zm96 0h8v9h-8zm16 0h40v9h-40zm48 0h56v9h-56zm64 0h16v9h-16zm24 0h64v9h-64zm72 0h32v9h-32zm40 0h8v9h-8zm16 0h96v9h-96zm104 0h64v9h-64zm72 0h40v9h-40zm48 0h72v9h-72zm80 0h88v9h-88zm96 0h8v9h-8zm16 0h56v9h-56zM8 712.5h72v9H8zm80 0h48v9H88zm56 0h64v9h-64zm72 0h24v9h-24zm32 0h16v9h-16zm24 0h48v9h-48zm56 0h8v9h-8zm16 0h88v9h-88zm96 0h24v9h-24zm32 0h72v9h-72zm80 0h8v9h-8zm16 0h32v9h-32zm40 0h16v9h-16zm24 0h48v9h-48zm56 0h24v9h-24zm32 0h24v9h-24zm32 0h32v9h-32zm40 0h56v9h-56zm64 0h24v9h-24zm32 0h40v9h-40zm48 0h40v9h-40zm48 0h40v9h-40zm48 0h8v9h-8zm16 0h32v9h-32zm40 0h8v9h-8zm16 0h48v9h-48zm56 0h24v9h-24zm32 0h48v9h-48zm56 0h16v9h-16zm24 0h8v9h-8zm16 0h40v9h-40zm48 0h80v9h-80zm88 0h72v9h-72zm80 0h24v9h-24zm32 0h40v9h-40zm48 0h56v9h-56zm64 0h16v9h-16zm24 0h72v9h-72zm80 0h8v9h-8zm16 0h24v9h-24zm32 0h40v9h-40zm48 0h40v9h-40zM8 730.5h32v9H8zm40 0h32v9H48zm40 0h40v9H88zm48 0h24v9h-24zm32 0h48v9h-48zm56 0h32v9h-32zm40 0h40v9h-40zm48 0h80v9h-80zm88 0h48v9h-48zm56 0h32v9h-32zm40 0h24v9h-24zm32 0h24v9h-24zm32 0h56v9h-56zm64 0h32v9h-32zm40 0h56v9h-56zm64 0h8v9h-8zm16 0h32v9h-32zm40 0h40v9h-40zm48 0h40v9h-40zm48 0h8v9h-8zm16 0h40v9h-40zm48 0h16v9h-16zm24 0h40v9h-40zm48 0h8v9h-8zm16 0h64v9h-64zm72 0h56v9h-56zm64 0h32v9h-32zm40 0h72v9h-72zm80 0h40v9h-40zm48 0h88v9h-88zm96 0h96v9h-96zm104 0h24v9h-24zm32 0h24v9h-24zm32 0h64v9h-64zm72 0h80v9h-80zm88 0h8v9h-8zm16 0h80v9h-80zM8 748.5h64v9H8zm72 0h64v9H80zm72 0h16v9h-16zm24 0h40v9h-40zm48 0h40v9h-40zm48 0h64v9h-64zm72 0h16v9h-16zm24 0h16v9h-16zm24 0h96v9h-96zm104 0h8v9h-8zm16 0h64v9h-64zm72 0h16v9h-16zm24 0h48v9h-48zm56 0h48v9h-48zm56 0h24v9h-24zm32 0h88v9h-88zm96 0h40v9h-40zm48 0h24v9h-24zm32 0h56v9h-56zm64 0h24v9h-24zm32 0h8v9h-8zm16 0h24v9h-24zm32 0h40v9h-40zm48 0h24v9h-24zm32 0h24v9h-24zm32 0h56v9h-56zm64 0h56v9h-56zm64 0h16v9h-16zm24 0h32v9h-32zm40 0h56v9h-56zm64 0h64v9h-64zm72 0h72v9h-72zm80 0h16v9h-16zm24 0h40v9h-40zm48 0h40v9h-40zm48 0h8v9h-8zm16 0h40v9h-40zm48 0h8v9h-8zm16 0h64v9h-64zm72 0h40v9h-40zM8 766.5h56v9H8zm64 0h24v9H72zm32 0h8v9h-8zm16 0h48v9h-48zm56 0h48v9h-48zm56 0h32v9h-32zm40 0h40v9h-40zm48 0h32v9h-32zm40 0h88v9h-88zm96 0h16v9h-16zm24 0h32v9h-32zm40 0h8v9h-8zm16 0h64v9h-64zm72 0h16v9h-16zm24 0h72v9h-72zm80 0h48v9h-48zm56 0h8v9h-8zm16 0h96v9h-96zm104 0h40v9h-40zm48 0h56v9h-56zm64 0h16v9h-16zm24 0h16v9h-16zm24 0h32v9h-32zm40 0h40v9h-40zm48 0h72v9h-72zm80 0h24v9h-24zm32 0h8v9h-8zm16 0h32v9h-32zm40 0h48v9h-48zm56 0h32v9h-32zm40 0h8v9h-8zm16 0h40v9h-40zm48 0h24v9h-24zm32 0h64v9h-64zm72 0h56v9h-56zm64 0h24v9h-24zm32 0h16v9h-16zm24 0h80v9h-80zm88 0h96v9h-96zm104 0h24v9h-24zM8 784.5h56v9H8zm64 0h56v9H72zm64 0h8v9h-8zm16 0h56v9h-56zm64 0h32v9h-32zm40 0h24v9h-24zm32 0h24v9h-24zm32 0h48v9h-48zm56 0h8v9h-8zm16 0h16v9h-16zm24 0h8v9h-8zm16 0h32v9h-32zm40 0h80v9h-80zm88 0h8v9h-8zm16 0h96v9h-96zm104 0h88v9h-88zm96 0h88v9h-88zm96 0h56v9h-56zm64 0h24v9h-24zm32 0h72v9h-72zm80 0h32v9h-32zm40 0h16v9h-16zm24 0h32v9h-32zm40 0h72v9h-72zm80 0h72v9h-72zm80 0h16v9h-16zm24 0h16v9h-16zm24 0h80v9h-80zm88 0h56v9h-56zm64 0h88v9h-88zm96 0h48v9h-48zm56 0h96v9h-96zm104 0h16v9h-16zm24 0h56v9h-56zm64 0h8v9h-8zM8 802.5h40v9H8zm48 0h8v9h-8zm16 0h64v9H72zm72 0h8v9h-8zm16 0h64v9h-64zm72 0h24v9h-24zm32 0h8v9h-8zm16 0h56v9h-56zm64 0h32v9h-32zm40 0h72v9h-72zm80 0h80v9h-80zm88 0h8v9h-8zm16 0h8v9h-8zm16 0h40v9h-40zm48 0h16v9h-16zm24 0h64v9h-64zm72 0h32v9h-32zm40 0h24v9h-24zm32 0h40v9h-40zm48 0h16v9h-16zm24 0h40v9h-40zm48 0h88v9h-88zm96 0h24v9h-24zm32 0h16v9h-16zm24 0h40v9h-40zm48 0h40v9h-40zm48 0h24v9h-24zm32 0h72v9h-72zm80 0h16v9h-16zm24 0h32v9h-32zm40 0h32v9h-32zm40 0h40v9h-40zm48 0h56v9h-56zm64 0h24v9h-24zm32 0h16v9h-16zm24 0h40v9h-40zm48 0h24v9h-24zm32 0h104v9h-104zm112 0h16v9h-16zm24 0h56v9h-56zm64 0h40v9h-40zm48 0h24v9h-24zM8 820.5h64v9H8zm72 0h32v9H80zm40 0h64v9h-64zm72 0h48v9h-48zm56 0h72v9h-72zm80 0h96v9h-96zm104 0h64v9h-64zm72 0h48v9h-48zm56 0h40v9h-40zm48 0h88v9h-88zm96 0h32v9h-32zm40 0h40v9h-40zm48 0h88v9h-88zm96 0h16v9h-16zm24 0h72v9h-72zm80 0h8v9h-8zm16 0h88v9h-88zm96 0h16v9h-16zm24 0h80v9h-80zm88 0h16v9h-16zm24 0h72v9h-72zm80 0h8v9h-8zm16 0h40v9h-40zm48 0h24v9h-24zm32 0h40v9h-40zm48 0h64v9h-64zm72 0h32v9h-32zm40 0h40v9h-40zm48 0h64v9h-64zm72 0h72v9h-72zm80 0h40v9h-40zm48 0h72v9h-72zM8 838.5h16v9H8zm24 0h48v9H32zm56 0h40v9H88zm48 0h8v9h-8zm16 0h24v9h-24zm32 0h48v9h-48zm56 0h40v9h-40zm48 0h16v9h-16zm24 0h64v9h-64zm72 0h88v9h-88zm96 0h24v9h-24zm32 0h32v9h-32zm40 0h8v9h-8zm16 0h40v9h-40zm48 0h8v9h-8zm16 0h56v9h-56zm64 0h56v9h-56zm64 0h64v9h-64zm72 0h8v9h-8zm16 0h80v9h-80zm88 0h24v9h-24zm32 0h16v9h-16zm24 0h40v9h-40zm48 0h16v9h-16zm24 0h32v9h-32zm40 0h80v9h-80zm88 0h16v9h-16zm24 0h88v9h-88zm96 0h16v9h-16zm24 0h64v9h-64zm72 0h72v9h-72zm80 0h56v9h-56zm64 0h88v9h-88zm96 0h56v9h-56zm64 0h32v9h-32zm40 0h64v9h-64zm72 0h40v9h-40zm48 0h8v9h-8zM8 856.5h48v9H8zm56 0h16v9H64zm24 0h80v9H88zm88 0h8v9h-8zm16 0h56v9h-56zm64 0h32v9h-32zm40 0h16v9h-16zm24 0h56v9h-56zm64 0h40v9h-40zm48 0h104v9H432zm112 0h16v9h-16zm24 0h64v9h-64zm72 0h24v9h-24zm32 0h16v9h-16zm24 0h72v9h-72zm80 0h56v9h-56zm64 0h56v9h-56zm64 0h40v9h-40zm48 0h64v9h-64zm72 0h24v9h-24zm32 0h40v9h-40zm48 0h64v9h-64zm72 0h8v9h-8zm16 0h88v9h-88zm96 0h64v9h-64zm72 0h16v9h-16zm24 0h88v9h-88zm96 0h56v9h-56zm64 0h8v9h-8zm16 0h40v9h-40zm48 0h40v9h-40zm48 0h8v9h-8zm16 0h48v9h-48zm56 0h56v9h-56zm64 0h8v9h-8zm16 0h16v9h-16zm24 0h16v9h-16zm24 0h48v9h-48zM8 874.5h32v9H8zm40 0h8v9h-8zm16 0h32v9H64zm40 0h8v9h-8zm16 0h16v9h-16zm24 0h16v9h-16zm24 0h56v9h-56zm64 0h8v9h-8zm16 0h16v9h-16zm24 0h48v9h-48zm56 0h8v9h-8zm16 0h8v9h-8zm16 0h64v9h-64zm72 0h32v9h-32zm40 0h64v9h-64zm72 0h88v9h-88zm96 0h48v9h-48zm56 0h8v9h-8zm16 0h48v9h-48zm56 0h64v9h-64zm72 0h72v9h-72zm80 0h16v9h-16zm24 0h8v9h-8zm16 0h72v9h-72zm80 0h64v9h-64zm72 0h8v9h-8zm16 0h56v9h-56zm64 0h56v9h-56zm64 0h72v9h-72zm80 0h16v9h-16zm24 0h48v9h-48zm56 0h64v9h-64zm72 0h24v9h-24zm32 0h40v9h-40zm48 0h40v9h-40zm48 0h72v9h-72zm80 0h48v9h-48zm56 0h64v9h-64zm72 0h16v9h-16zm24 0h16v9h-16zM8 892.5h48v9H8zm56 0h64v9H64zm72 0h64v9h-64zm72 0h40v9h-40zm48 0h8v9h-8zm16 0h40v9h-40zm48 0h16v9h-16zm24 0h16v9h-16zm24 0h48v9h-48zm56 0h8v9h-8zm16 0h40v9h-40zm48 0h72v9h-72zm80 0h24v9h-24zm32 0h40v9h-40zm48 0h72v9h-72zm80 0h40v9h-40zm48 0h120v9H776zm128 0h48v9h-48zm56 0h16v9h-16zm24 0h80v9h-80zm88 0h48v9h-48zm56 0h16v9h-16zm24 0h80v9h-80zm88 0h8v9h-8zm16 0h16v9h-16zm24 0h48v9h-48zm56 0h64v9h-64zm72 0h32v9h-32zm40 0h64v9h-64zm72 0h8v9h-8zm16 0h72v9h-72zm80 0h104v9h-104zm112 0h64v9h-64zm72 0h56v9h-56zm64 0h16v9h-16zm24 0h16v9h-16zM8 910.5h112v9H8zm120 0h72v9h-72zm80 0h56v9h-56zm64 0h24v9h-24zm32 0h16v9h-16zm24 0h40v9h-40zm48 0h56v9h-56zm64 0h64v9h-64zm72 0h8v9h-8zm16 0h40v9h-40zm48 0h8v9h-8zm16 0h24v9h-24zm32 0h16v9h-16zm24 0h80v9h-80zm88 0h8v9h-8zm16 0h24v9h-24zm32 0h72v9h-72zm80 0h8v9h-8zm16 0h40v9h-40zm48 0h64v9h-64zm72 0h8v9h-8zm16 0h8v9h-8zm16 0h64v9h-64zm72 0h16v9h-16zm24 0h88v9h-88zm96 0h56v9h-56zm64 0h40v9h-40zm48 0h40v9h-40zm48 0h40v9h-40zm48 0h40v9h-40zm48 0h48v9h-48zm56 0h24v9h-24zm32 0h96v9h-96zm104 0h16v9h-16zm24 0h64v9h-64zm72 0h16v9h-16zm24 0h72v9h-72zM8 928.5h96v9H8zm104 0h8v9h-8zm16 0h64v9h-64zm72 0h80v9h-80zm88 0h88v9h-88zm96 0h56v9h-56zm64 0h88v9h-88zm96 0h64v9h-64zm72 0h16v9h-16zm24 0h72v9h-72zm80 0h32v9h-32zm40 0h16v9h-16zm24 0h32v9h-32zm40 0h40v9h-40zm48 0h16v9h-16zm24 0h32v9h-32zm40 0h16v9h-16zm24 0h56v9h-56zm64 0h8v9h-8zm16 0h32v9h-32zm40 0h56v9h-56zm64 0h56v9h-56zm64 0h80v9h-80zm88 0h64v9h-64zm72 0h8v9h-8zm16 0h56v9h-56zm64 0h8v9h-8zm16 0h40v9h-40zm48 0h56v9h-56zm64 0h72v9h-72zm80 0h48v9h-48zm56 0h16v9h-16zm24 0h96v9h-96zm104 0h8v9h-8zm16 0h32v9h-32zM8 946.5h96v9H8zm104 0h56v9h-56zm64 0h56v9h-56zm64 0h40v9h-40zm48 0h32v9h-32zm40 0h56v9h-56zm64 0h16v9h-16zm24 0h48v9h-48zm56 0h16v9h-16zm24 0h24v9h-24zm32 0h40v9h-40zm48 0h24v9h-24zm32 0h88v9h-88zm96 0h8v9h-8zm16 0h24v9h-24zm32 0h24v9h-24zm32 0h40v9h-40zm48 0h96v9h-96zm104 0h48v9h-48zm56 0h8v9h-8zm16 0h80v9h-80zm88 0h16v9h-16zm24 0h56v9h-56zm64 0h24v9h-24zm32 0h24v9h-24zm32 0h48v9h-48zm56 0h8v9h-8zm16 0h48v9h-48zm56 0h120v9h-120zm128 0h56v9h-56zm64 0h80v9h-80zm88 0h16v9h-16zm24 0h8v9h-8zm16 0h80v9h-80zm88 0h32v9h-32zm40 0h8v9h-8zM8 964.5h96v9H8zm104 0h24v9h-24zm32 0h8v9h-8zm16 0h64v9h-64zm72 0h16v9h-16zm24 0h80v9h-80zm88 0h80v9h-80zm88 0h16v9h-16zm24 0h72v9h-72zm80 0h32v9h-32zm40 0h32v9h-32zm40 0h48v9h-48zm56 0h64v9h-64zm72 0h16v9h-16zm24 0h24v9h-24zm32 0h48v9h-48zm56 0h64v9h-64zm72 0h8v9h-8zm16 0h56v9h-56zm64 0h88v9h-88zm96 0h56v9h-56zm64 0h40v9h-40zm48 0h24v9h-24zm32 0h40v9h-40zm48 0h96v9h-96zm104 0h32v9h-32zm40 0h80v9h-80zm88 0h64v9h-64zm72 0h8v9h-8zm16 0h80v9h-80zm88 0h56v9h-56zm64 0h56v9h-56zm64 0h40v9h-40zM8 982.5h72v9H8zm80 0h24v9H88zm32 0h24v9h-24zm32 0h32v9h-32zm40 0h64v9h-64zm72 0h48v9h-48zm56 0h16v9h-16zm24 0h32v9h-32zm40 0h40v9h-40zm48 0h8v9h-8zm16 0h72v9h-72zm80 0h72v9h-72zm80 0h56v9h-56zm64 0h8v9h-8zm16 0h32v9h-32zm40 0h24v9h-24zm32 0h56v9h-56zm64 0h8v9h-8zm16 0h24v9h-24zm32 0h8v9h-8zm16 0h40v9h-40zm48 0h24v9h-24zm32 0h48v9h-48zm56 0h40v9h-40zm48 0h16v9h-16zm24 0h56v9h-56zm64 0h64v9h-64zm72 0h8v9h-8zm16 0h72v9h-72zm80 0h40v9h-40zm48 0h40v9h-40zm48 0h56v9h-56zm64 0h72v9h-72zm80 0h104v9h-104zm112 0h24v9h-24zm32 0h48v9h-48zm56 0h24v9h-24zm32 0h16v9h-16zm24 0h64v9h-64zm-1816 18h40v9H8zm48 0h64v9H56zm72 0h8v9h-8zm16 0h24v9h-24zm32 0h40v9h-40zm48 0h56v9h-56zm64 0h72v9h-72zm80 0h64v9h-64zm72 0h112v9H440zm120 0h80v9h-80zm88 0h64v9h-64zm72 0h56v9h-56zm64 0h48v9h-48zm56 0h32v9h-32zm40 0h8v9h-8zm16 0h56v9h-56zm64 0h64v9h-64zm72 0h16v9h-16zm24 0h32v9h-32zm40 0h16v9h-16zm24 0h48v9h-48zm56 0h64v9h-64zm72 0h56v9h-56zm64 0h32v9h-32zm40 0h16v9h-16zm24 0h48v9h-48zm56 0h40v9h-40zm48 0h88v9h-88zm96 0h72v9h-72zm80 0h24v9h-24zm32 0h40v9h-40zm48 0h32v9h-32zm40 0h24v9h-24zm32 0h24v9h-24zm32 0h16v9h-16zm-1832 18h56v9H8zm64 0h32v9H72zm40 0h48v9h-48zm56 0h16v9h-16zm24 0h56v9h-56zm64 0h8v9h-8zm16 0h24v9h-24zm32 0h24v9h-24zm32 0h8v9h-8zm16 0h24v9h-24zm32 0h32v9h-32zm40 0h16v9h-16zm24 0h88v9h-88zm96 0h8v9h-8zm16 0h32v9h-32zm40 0h56v9h-56zm64 0h24v9h-24zm32 0h56v9h-56zm64 0h16v9h-16zm24 0h8v9h-8zm16 0h56v9h-56zm64 0h32v9h-32zm40 0h88v9h-88zm96 0h32v9h-32zm40 0h64v9h-64zm72 0h8v9h-8zm16 0h72v9h-72zm80 0h16v9h-16zm24 0h32v9h-32zm40 0h56v9h-56zm64 0h8v9h-8zm16 0h72v9h-72zm80 0h64v9h-64zm72 0h16v9h-16zm24 0h16v9h-16zm24 0h40v9h-40zm48 0h24v9h-24zm32 0h16v9h-16zm24 0h56v9h-56zm64 0h40v9h-40zm48 0h8v9h-8zm16 0h80v9h-80zm88 0h24v9h-24zm-1864 18h8v9H8zm16 0h64v9H24zm72 0h8v9h-8zm16 0h32v9h-32zm40 0h48v9h-48zm56 0h40v9h-40zm48 0h24v9h-24zm32 0h56v9h-56zm64 0h24v9h-24zm32 0h40v9h-40zm48 0h48v9h-48zm56 0h56v9h-56zm64 0h40v9h-40zm48 0h40v9h-40zm48 0h16v9h-16zm24 0h32v9h-32zm40 0h56v9h-56zm64 0h16v9h-16zm24 0h8v9h-8zm16 0h24v9h-24zm32 0h56v9h-56zm64 0h56v9h-56zm64 0h40v9h-40zm48 0h64v9h-64zm72 0h40v9h-40zm48 0h8v9h-8zm16 0h72v9h-72zm80 0h72v9h-72zm80 0h56v9h-56zm64 0h56v9h-56zm64 0h56v9h-56zm64 0h32v9h-32zm40 0h48v9h-48zm56 0h80v9h-80zm88 0h56v9h-56zm64 0h56v9h-56zm64 0h8v9h-8zm16 0h40v9h-40zm-1832 18h88v9H8zm96 0h40v9h-40zm48 0h32v9h-32zm40 0h40v9h-40zm48 0h64v9h-64zm72 0h16v9h-16zm24 0h32v9h-32zm40 0h40v9h-40zm48 0h16v9h-16zm24 0h8v9h-8zm16 0h64v9h-64zm72 0h32v9h-32zm40 0h72v9h-72zm80 0h8v9h-8zm16 0h32v9h-32zm40 0h48v9h-48zm56 0h24v9h-24zm32 0h32v9h-32zm40 0h96v9h-96zm104 0h8v9h-8zm16 0h80v9h-80zm88 0h24v9h-24zm32 0h24v9h-24zm32 0h16v9h-16zm24 0h48v9h-48zm56 0h72v9h-72zm80 0h8v9h-8zm16 0h72v9h-72zm80 0h8v9h-8zm16 0h16v9h-16zm24 0h16v9h-16zm24 0h16v9h-16zm24 0h40v9h-40zm48 0h40v9h-40zm48 0h80v9h-80zm88 0h64v9h-64zm72 0h40v9h-40zm48 0h56v9h-56zm64 0h48v9h-48zm-1816 18h16v9H8zm24 0h8v9h-8zm16 0h56v9H48zm64 0h24v9h-24zm32 0h40v9h-40zm48 0h56v9h-56zm64 0h16v9h-16zm24 0h16v9h-16zm24 0h72v9h-72zm80 0h56v9h-56zm64 0h80v9h-80zm88 0h8v9h-8zm16 0h48v9h-48zm56 0h40v9h-40zm48 0h64v9h-64zm72 0h8v9h-8zm16 0h64v9h-64zm72 0h40v9h-40zm48 0h8v9h-8zm16 0h48v9h-48zm56 0h80v9h-80zm88 0h72v9h-72zm80 0h24v9h-24zm32 0h40v9h-40zm48 0h48v9h-48zm56 0h80v9h-80zm88 0h8v9h-8zm16 0h8v9h-8zm16 0h48v9h-48zm56 0h40v9h-40zm48 0h56v9h-56zm64 0h32v9h-32zm40 0h32v9h-32zm40 0h72v9h-72zm80 0h48v9h-48zm56 0h40v9h-40zm48 0h72v9h-72zm-1784 18h56v9H8zm64 0h40v9H72zm48 0h80v9h-80zm88 0h56v9h-56zm64 0h56v9h-56zm64 0h56v9h-56zm64 0h8v9h-8zm16 0h72v9h-72zm80 0h64v9h-64zm72 0h8v9h-8zm16 0h48v9h-48zm56 0h56v9h-56zm64 0h80v9h-80zm88 0h16v9h-16zm24 0h72v9h-72zm80 0h40v9h-40zm48 0h8v9h-8zm16 0h56v9h-56zm64 0h32v9h-32zm40 0h8v9h-8zm16 0h8v9h-8zm16 0h80v9h-80zm88 0h48v9h-48zm56 0h32v9h-32zm40 0h56v9h-56zm64 0h56v9h-56zm64 0h56v9h-56zm64 0h24v9h-24zm32 0h80v9h-80zm88 0h24v9h-24zm32 0h88v9h-88zm96 0h120v9h-120zm-1712 18h72v9H8zm80 0h40v9H88zm48 0h72v9h-72zm80 0h80v9h-80zm88 0h48v9h-48zm56 0h8v9h-8zm16 0h56v9h-56zm64 0h16v9h-16zm24 0h40v9h-40zm48 0h16v9h-16zm24 0h48v9h-48zm56 0h32v9h-32zm40 0h48v9h-48zm56 0h24v9h-24zm32 0h56v9h-56zm64 0h40v9h-40zm48 0h64v9h-64zm72 0h24v9h-24zm32 0h16v9h-16zm24 0h104v9H960zm112 0h8v9h-8zm16 0h24v9h-24zm32 0h48v9h-48zm56 0h24v9h-24zm32 0h8v9h-8zm16 0h72v9h-72zm80 0h32v9h-32zm40 0h64v9h-64zm72 0h112v9h-112zm120 0h24v9h-24zm32 0h72v9h-72zm80 0h88v9h-88zm96 0h8v9h-8zm16 0h40v9h-40zm48 0h40v9h-40zm48 0h48v9h-48zm-1848 18h64v9H8zm72 0h8v9h-8zm16 0h16v9H96zm24 0h56v9h-56zm64 0h24v9h-24zm32 0h64v9h-64zm72 0h16v9h-16zm24 0h24v9h-24zm32 0h48v9h-48zm56 0h16v9h-16zm24 0h48v9h-48zm56 0h40v9h-40zm48 0h96v9h-96zm104 0h24v9h-24zm32 0h32v9h-32zm40 0h72v9h-72zm80 0h40v9h-40zm48 0h8v9h-8zm16 0h32v9h-32zm40 0h32v9h-32zm40 0h64v9h-64zm72 0h96v9h-96zm104 0h96v9h-96zm104 0h8v9h-8zm16 0h48v9h-48zm56 0h64v9h-64zm72 0h40v9h-40zm48 0h56v9h-56zm64 0h80v9h-80zm88 0h24v9h-24zm32 0h32v9h-32zm40 0h88v9h-88zm96 0h56v9h-56zm64 0h72v9h-72zm80 0h8v9h-8zm-1856 18h120v9H8zm128 0h48v9h-48zm56 0h32v9h-32zm40 0h104v9H232zm112 0h32v9h-32zm40 0h24v9h-24zm32 0h72v9h-72zm80 0h48v9h-48zm56 0h48v9h-48zm56 0h48v9h-48zm56 0h8v9h-8zm16 0h64v9h-64zm72 0h16v9h-16zm24 0h32v9h-32zm40 0h40v9h-40zm48 0h24v9h-24zm32 0h80v9h-80zm88 0h48v9h-48zm56 0h8v9h-8zm16 0h32v9h-32zm40 0h48v9h-48zm56 0h8v9h-8zm16 0h48v9h-48zm56 0h64v9h-64zm72 0h120v9h-120zm128 0h8v9h-8zm16 0h104v9h-104zm112 0h64v9h-64zm72 0h88v9h-88zm96 0h24v9h-24zm32 0h16v9h-16zm24 0h32v9h-32zm40 0h8v9h-8zm16 0h32v9h-32zm-1824 18h72v9H8zm80 0h8v9h-8zm16 0h40v9h-40zm48 0h32v9h-32zm40 0h56v9h-56zm64 0h8v9h-8zm16 0h40v9h-40zm48 0h64v9h-64zm72 0h56v9h-56zm64 0h48v9h-48zm56 0h32v9h-32zm40 0h32v9h-32zm40 0h24v9h-24zm32 0h48v9h-48zm56 0h48v9h-48zm56 0h16v9h-16zm24 0h8v9h-8zm16 0h56v9h-56zm64 0h24v9h-24zm32 0h32v9h-32zm40 0h72v9h-72zm80 0h72v9h-72zm80 0h112v9h-112zm120 0h8v9h-8zm16 0h72v9h-72zm80 0h8v9h-8zm16 0h56v9h-56zm64 0h24v9h-24zm32 0h72v9h-72zm80 0h32v9h-32zm40 0h32v9h-32zm40 0h72v9h-72zm80 0h48v9h-48zm56 0h80v9h-80zm88 0h8v9h-8zm16 0h72v9h-72zm-1792 18h80v9H8zm88 0h48v9H96zm56 0h64v9h-64zm72 0h16v9h-16zm24 0h72v9h-72zm80 0h48v9h-48zm56 0h80v9h-80zm88 0h64v9h-64zm72 0h72v9h-72zm80 0h64v9h-64zm72 0h24v9h-24zm32 0h56v9h-56zm64 0h72v9h-72zm80 0h8v9h-8zm16 0h56v9h-56zm64 0h8v9h-8zm16 0h64v9h-64zm72 0h40v9h-40zm48 0h32v9h-32zm40 0h64v9h-64zm72 0h24v9h-24zm32 0h16v9h-16zm24 0h72v9h-72zm80 0h48v9h-48zm56 0h24v9h-24zm32 0h40v9h-40zm48 0h16v9h-16zm24 0h64v9h-64zm72 0h32v9h-32zm40 0h56v9h-56zm64 0h8v9h-8zm16 0h64v9h-64zm72 0h16v9h-16zm24 0h88v9h-88zm-1776 18h48v9H8zm56 0h16v9H64zm24 0h32v9H88zm40 0h32v9h-32zm40 0h64v9h-64zm72 0h72v9h-72zm80 0h80v9h-80zm88 0h24v9h-24zm32 0h64v9h-64zm72 0h8v9h-8zm16 0h16v9h-16zm24 0h16v9h-16zm24 0h48v9h-48zm56 0h48v9h-48zm56 0h48v9h-48zm56 0h16v9h-16zm24 0h40v9h-40zm48 0h80v9h-80zm88 0h80v9h-80zm88 0h8v9h-8zm16 0h56v9h-56zm64 0h32v9h-32zm40 0h8v9h-8zm16 0h24v9h-24zm32 0h8v9h-8zm16 0h48v9h-48zm56 0h24v9h-24zm32 0h24v9h-24zm32 0h32v9h-32zm40 0h56v9h-56zm64 0h40v9h-40zm48 0h8v9h-8zm16 0h24v9h-24zm32 0h40v9h-40zm48 0h80v9h-80zm88 0h16v9h-16zm24 0h32v9h-32zm40 0h16v9h-16zm24 0h88v9h-88zm96 0h8v9h-8zm16 0h16v9h-16zm-1824 18h80v9H8zm88 0h8v9h-8zm16 0h56v9h-56zm64 0h32v9h-32zm40 0h72v9h-72zm80 0h40v9h-40zm48 0h56v9h-56zm64 0h80v9h-80zm88 0h8v9h-8zm16 0h40v9h-40zm48 0h80v9h-80zm88 0h8v9h-8zm16 0h40v9h-40zm48 0h64v9h-64zm72 0h56v9h-56zm64 0h40v9h-40zm48 0h16v9h-16zm24 0h32v9h-32zm40 0h48v9h-48zm56 0h64v9h-64zm72 0h96v9h-96zm104 0h48v9h-48zm56 0h24v9h-24zm32 0h16v9h-16zm24 0h64v9h-64zm72 0h32v9h-32zm40 0h96v9h-96zm104 0h40v9h-40zm48 0h48v9h-48zm56 0h16v9h-16zm24 0h72v9h-72zm80 0h40v9h-40zm48 0h80v9h-80zm-1768 18h96v9H8zm104 0h56v9h-56zm64 0h40v9h-40zm48 0h32v9h-32zm40 0h16v9h-16zm24 0h32v9h-32zm40 0h40v9h-40zm48 0h24v9h-24zm32 0h48v9h-48zm56 0h48v9h-48zm56 0h8v9h-8zm16 0h72v9h-72zm80 0h56v9h-56zm64 0h40v9h-40zm48 0h32v9h-32zm40 0h80v9h-80zm88 0h32v9h-32zm40 0h72v9h-72zm80 0h48v9h-48zm56 0h16v9h-16zm24 0h64v9h-64zm72 0h24v9h-24zm32 0h32v9h-32zm40 0h48v9h-48zm56 0h24v9h-24zm32 0h56v9h-56zm64 0h8v9h-8zm16 0h16v9h-16zm24 0h40v9h-40zm48 0h80v9h-80zm88 0h8v9h-8zm16 0h56v9h-56zm64 0h32v9h-32zm40 0h72v9h-72zm80 0h72v9h-72zm80 0h16v9h-16zm-1800 18h88v9H8zm96 0h16v9h-16zm24 0h64v9h-64zm72 0h72v9h-72zm80 0h16v9h-16zm24 0h64v9h-64zm72 0h40v9h-40zm48 0h24v9h-24zm32 0h96v9h-96zm104 0h8v9h-8zm16 0h40v9h-40zm48 0h64v9h-64zm72 0h56v9h-56zm64 0h32v9h-32zm40 0h8v9h-8zm16 0h80v9h-80zm88 0h112v9H904zm120 0h8v9h-8zm16 0h120v9h-120zm128 0h56v9h-56zm64 0h48v9h-48zm56 0h48v9h-48zm56 0h16v9h-16zm24 0h24v9h-24zm32 0h48v9h-48zm56 0h24v9h-24zm32 0h72v9h-72zm80 0h72v9h-72zm80 0h24v9h-24zm32 0h48v9h-48zm56 0h80v9h-80zm-1728 18h88v9H8zm96 0h56v9h-56zm64 0h80v9h-80zm88 0h16v9h-16zm24 0h56v9h-56zm64 0h104v9H344zm112 0h16v9h-16zm24 0h80v9h-80zm88 0h56v9h-56zm64 0h104v9H632zm112 0h24v9h-24zm32 0h96v9h-96zm104 0h80v9h-80zm88 0h56v9h-56zm64 0h56v9h-56zm64 0h32v9h-32zm40 0h72v9h-72zm80 0h72v9h-72zm80 0h40v9h-40zm48 0h80v9h-80zm88 0h24v9h-24zm32 0h56v9h-56zm64 0h24v9h-24zm32 0h8v9h-8zm16 0h80v9h-80zm88 0h32v9h-32zm40 0h8v9h-8zm16 0h24v9h-24zm32 0h8v9h-8zm16 0h32v9h-32zm40 0h72v9h-72zm-1800 18h96v9H8zm104 0h16v9h-16zm24 0h40v9h-40zm48 0h72v9h-72zm80 0h72v9h-72zm80 0h8v9h-8zm16 0h104v9H360zm112 0h24v9h-24zm32 0h56v9h-56zm64 0h40v9h-40zm48 0h88v9h-88zm96 0h48v9h-48zm56 0h8v9h-8zm16 0h40v9h-40zm48 0h48v9h-48zm56 0h24v9h-24zm32 0h96v9h-96zm104 0h40v9h-40zm48 0h64v9h-64zm72 0h96v9h-96zm104 0h72v9h-72zm80 0h88v9h-88zm96 0h56v9h-56zm64 0h16v9h-16zm24 0h40v9h-40zm48 0h32v9h-32zm40 0h40v9h-40zm48 0h24v9h-24zm32 0h40v9h-40zm48 0h24v9h-24zm32 0h8v9h-8zm16 0h24v9h-24zm32 0h72v9h-72zm-1800 18h40v9H8zm48 0h16v9H56zm24 0h48v9H80zm56 0h24v9h-24zm32 0h72v9h-72zm80 0h88v9h-88zm96 0h16v9h-16zm24 0h32v9h-32zm40 0h8v9h-8zm16 0h16v9h-16zm24 0h48v9h-48zm56 0h24v9h-24zm32 0h16v9h-16zm24 0h56v9h-56zm64 0h72v9h-72zm80 0h24v9h-24zm32 0h24v9h-24zm32 0h80v9h-80zm88 0h40v9h-40zm48 0h80v9h-80zm88 0h8v9h-8zm16 0h48v9h-48zm56 0h8v9h-8zm16 0h56v9h-56zm64 0h56v9h-56zm64 0h24v9h-24zm32 0h56v9h-56zm64 0h48v9h-48zm56 0h24v9h-24zm32 0h48v9h-48zm56 0h96v9h-96zm104 0h16v9h-16zm24 0h72v9h-72zm80 0h32v9h-32zm40 0h40v9h-40zm48 0h32v9h-32zm40 0h64v9h-64zm72 0h24v9h-24zm-1848 18h56v9H8zm64 0h56v9H72zm64 0h16v9h-16zm24 0h40v9h-40zm48 0h8v9h-8zm16 0h56v9h-56zm64 0h16v9h-16zm24 0h40v9h-40zm48 0h24v9h-24zm32 0h24v9h-24zm32 0h56v9h-56zm64 0h24v9h-24zm32 0h104v9H520zm112 0h88v9h-88zm96 0h8v9h-8zm16 0h8v9h-8zm16 0h40v9h-40zm48 0h24v9h-24zm32 0h8v9h-8zm16 0h56v9h-56zm64 0h8v9h-8zm16 0h80v9h-80zm88 0h48v9h-48zm56 0h88v9h-88zm96 0h48v9h-48zm56 0h16v9h-16zm24 0h24v9h-24zm32 0h48v9h-48zm56 0h80v9h-80zm88 0h40v9h-40zm48 0h80v9h-80zm88 0h56v9h-56zm64 0h16v9h-16zm24 0h40v9h-40zm48 0h72v9h-72zm80 0h40v9h-40zm48 0h16v9h-16zm-1824 18h72v9H8zm80 0h8v9h-8zm16 0h56v9h-56zm64 0h72v9h-72zm80 0h32v9h-32zm40 0h72v9h-72zm80 0h48v9h-48zm56 0h16v9h-16zm24 0h24v9h-24zm32 0h32v9h-32zm40 0h88v9h-88zm96 0h64v9h-64zm72 0h56v9h-56zm64 0h56v9h-56zm64 0h16v9h-16zm24 0h56v9h-56zm64 0h8v9h-8zm16 0h48v9h-48zm56 0h64v9h-64zm72 0h72v9h-72zm80 0h24v9h-24zm32 0h80v9h-80zm88 0h8v9h-8zm16 0h16v9h-16zm24 0h96v9h-96zm104 0h48v9h-48zm56 0h48v9h-48zm56 0h72v9h-72zm80 0h32v9h-32zm40 0h48v9h-48zm56 0h24v9h-24zm32 0h24v9h-24zm32 0h40v9h-40zm48 0h56v9h-56zm64 0h40v9h-40zm-1848 18h40v9H8zm48 0h32v9H56zm40 0h64v9H96zm72 0h24v9h-24zm32 0h48v9h-48zm56 0h64v9h-64zm72 0h8v9h-8zm16 0h48v9h-48zm56 0h48v9h-48zm56 0h80v9h-80zm88 0h8v9h-8zm16 0h16v9h-16zm24 0h56v9h-56zm64 0h56v9h-56zm64 0h40v9h-40zm48 0h16v9h-16zm24 0h48v9h-48zm56 0h40v9h-40zm48 0h56v9h-56zm64 0h48v9h-48zm56 0h48v9h-48zm56 0h32v9h-32zm40 0h56v9h-56zm64 0h32v9h-32zm40 0h8v9h-8zm16 0h96v9h-96zm104 0h40v9h-40zm48 0h48v9h-48zm56 0h72v9h-72zm80 0h40v9h-40zm48 0h8v9h-8zm16 0h32v9h-32zm40 0h72v9h-72zm80 0h72v9h-72zm80 0h64v9h-64zm-1768 18h72v9H8zm80 0h16v9H88zm24 0h24v9h-24zm32 0h56v9h-56zm64 0h8v9h-8zm16 0h48v9h-48zm56 0h40v9h-40zm48 0h64v9h-64zm72 0h56v9h-56zm64 0h24v9h-24zm32 0h48v9h-48zm56 0h8v9h-8zm16 0h56v9h-56zm64 0h64v9h-64zm72 0h8v9h-8zm16 0h72v9h-72zm80 0h48v9h-48zm56 0h40v9h-40zm48 0h32v9h-32zm40 0h40v9h-40zm48 0h64v9h-64zm72 0h8v9h-8zm16 0h96v9h-96zm104 0h64v9h-64zm72 0h56v9h-56zm64 0h48v9h-48zm56 0h16v9h-16zm24 0h40v9h-40zm48 0h80v9h-80zm88 0h72v9h-72zm80 0h56v9h-56zm64 0h88v9h-88zm96 0h8v9h-8zm16 0h56v9h-56zm64 0h8v9h-8zm-1848 18h64v9H8zm72 0h8v9h-8zm16 0h32v9H96zm40 0h72v9h-72zm80 0h48v9h-48zm56 0h24v9h-24zm32 0h88v9h-88zm96 0h8v9h-8zm16 0h56v9h-56zm64 0h56v9h-56zm64 0h8v9h-8zm16 0h72v9h-72zm80 0h56v9h-56zm64 0h64v9h-64zm72 0h72v9h-72zm80 0h72v9h-72zm80 0h32v9h-32zm40 0h112v9H976zm120 0h24v9h-24zm32 0h16v9h-16zm24 0h152v9h-152zm160 0h56v9h-56zm64 0h120v9h-120zm128 0h96v9h-96zm104 0h40v9h-40zm48 0h32v9h-32zm40 0h72v9h-72zm80 0h8v9h-8zm16 0h56v9h-56zm64 0h16v9h-16zm-1848 18h80v9H8zm88 0h32v9H96zm40 0h72v9h-72zm80 0h72v9h-72zm80 0h56v9h-56zm64 0h16v9h-16zm24 0h40v9h-40zm48 0h56v9h-56zm64 0h24v9h-24zm32 0h56v9h-56zm64 0h80v9h-80zm88 0h48v9h-48zm56 0h24v9h-24zm32 0h40v9h-40zm48 0h224v9H816zm232 0h24v9h-24zm32 0h40v9h-40zm48 0h72v9h-72zm80 0h56v9h-56zm64 0h32v9h-32zm40 0h16v9h-16zm24 0h80v9h-80zm88 0h32v9h-32zm40 0h56v9h-56zm64 0h24v9h-24zm32 0h8v9h-8zm16 0h56v9h-56zm64 0h48v9h-48zm56 0h24v9h-24zm32 0h8v9h-8zm16 0h64v9h-64zm72 0h40v9h-40zm48 0h32v9h-32zm-1856 18h64v9H8zm72 0h88v9H80zm96 0h40v9h-40zm48 0h48v9h-48zm56 0h56v9h-56zm64 0h64v9h-64zm72 0h40v9h-40zm48 0h56v9h-56zm64 0h24v9h-24zm32 0h48v9h-48zm56 0h232v9H616zm240 0h8v9h-8zm16 0h48v9h-48zm56 0h72v9h-72zm80 0h80v9h-80zm88 0h48v9h-48zm56 0h16v9h-16zm24 0h56v9h-56zm64 0h56v9h-56zm64 0h96v9h-96zm104 0h48v9h-48zm56 0h56v9h-56zm64 0h24v9h-24zm32 0h48v9h-48zm56 0h80v9h-80zm88 0h40v9h-40zm48 0h16v9h-16zm24 0h48v9h-48zm-1768 18h88v9H8zm96 0h8v9h-8zm16 0h24v9h-24zm32 0h32v9h-32zm40 0h72v9h-72zm80 0h56v9h-56zm64 0h80v9h-80zm88 0h80v9h-80zm88 0h8v9h-8zm16 0h24v9h-24zm32 0h56v9h-56zm64 0h88v9h-88zm96 0h40v9h-40zm48 0h64v9h-64zm72 0h8v9h-8zm16 0h56v9h-56zm64 0h32v9h-32zm40 0h72v9h-72zm80 0h8v9h-8zm16 0h64v9h-64zm72 0h72v9h-72zm80 0h24v9h-24zm32 0h48v9h-48zm56 0h8v9h-8zm16 0h16v9h-16zm24 0h40v9h-40zm48 0h16v9h-16zm24 0h80v9h-80zm88 0h24v9h-24zm32 0h48v9h-48zm56 0h8v9h-8zm16 0h88v9h-88zm96 0h40v9h-40zm48 0h56v9h-56zm64 0h16v9h-16zm24 0h48v9h-48zm-1824 18h80v9H8zm88 0h8v9h-8zm16 0h32v9h-32zm40 0h80v9h-80zm88 0h8v9h-8zm16 0h48v9h-48zm56 0h80v9h-80zm88 0h32v9h-32zm40 0h64v9h-64zm72 0h56v9h-56zm64 0h32v9h-32zm40 0h40v9h-40zm48 0h56v9h-56zm64 0h8v9h-8zm16 0h80v9h-80zm88 0h32v9h-32zm40 0h56v9h-56zm64 0h24v9h-24zm32 0h64v9h-64zm72 0h8v9h-8zm16 0h16v9h-16zm24 0h56v9h-56zm64 0h8v9h-8zm16 0h24v9h-24zm32 0h120v9h-120zm128 0h40v9h-40zm48 0h16v9h-16zm24 0h88v9h-88zm96 0h16v9h-16zm24 0h8v9h-8zm16 0h56v9h-56zm64 0h32v9h-32zm40 0h64v9h-64zm72 0h56v9h-56zm64 0h8v9h-8zm16 0h16v9h-16zm24 0h56v9h-56zm64 0h24v9h-24zm-1864 18h16v9H8zm24 0h56v9H32zm64 0h56v9H96zm64 0h16v9h-16zm24 0h8v9h-8zm16 0h88v9h-88zm96 0h24v9h-24zm32 0h64v9h-64zm72 0h8v9h-8zm16 0h40v9h-40zm48 0h16v9h-16zm24 0h32v9h-32zm40 0h56v9h-56zm64 0h16v9h-16zm24 0h16v9h-16zm24 0h40v9h-40zm48 0h72v9h-72zm80 0h16v9h-16zm24 0h8v9h-8zm16 0h56v9h-56zm64 0h24v9h-24zm32 0h72v9h-72zm80 0h8v9h-8zm16 0h48v9h-48zm56 0h24v9h-24zm32 0h40v9h-40zm48 0h64v9h-64zm72 0h8v9h-8zm16 0h40v9h-40zm48 0h56v9h-56zm64 0h8v9h-8zm16 0h64v9h-64zm72 0h24v9h-24zm32 0h32v9h-32zm40 0h48v9h-48zm56 0h24v9h-24zm32 0h56v9h-56zm64 0h16v9h-16zm24 0h56v9h-56zm64 0h48v9h-48zm56 0h80v9h-80zm-1784 18h64v9H8zm72 0h48v9H80zm56 0h40v9h-40zm48 0h24v9h-24zm32 0h48v9h-48zm56 0h32v9h-32zm40 0h56v9h-56zm64 0h8v9h-8zm16 0h40v9h-40zm48 0h80v9h-80zm88 0h8v9h-8zm16 0h80v9h-80zm88 0h40v9h-40zm48 0h40v9h-40zm48 0h48v9h-48zm56 0h16v9h-16zm24 0h8v9h-8zm16 0h56v9h-56zm64 0h32v9h-32zm40 0h64v9h-64zm72 0h72v9h-72zm80 0h56v9h-56zm64 0h56v9h-56zm64 0h48v9h-48zm56 0h64v9h-64zm72 0h72v9h-72zm80 0h40v9h-40zm48 0h56v9h-56zm64 0h56v9h-56zm64 0h48v9h-48zm56 0h32v9h-32zm40 0h80v9h-80zm88 0h24v9h-24zm32 0h72v9h-72zm80 0h8v9h-8zm-1880 18h24v9H8zm32 0h16v9H40zm24 0h112v9H64zm120 0h56v9h-56zm64 0h48v9h-48zm56 0h64v9h-64zm72 0h64v9h-64zm72 0h8v9h-8zm16 0h56v9h-56zm64 0h24v9h-24zm32 0h40v9h-40zm48 0h8v9h-8zm16 0h72v9h-72zm80 0h48v9h-48zm56 0h32v9h-32zm40 0h40v9h-40zm48 0h40v9h-40zm48 0h56v9h-56zm64 0h48v9h-48zm56 0h64v9h-64zm72 0h48v9h-48zm56 0h8v9h-8zm16 0h48v9h-48zm56 0h8v9h-8zm16 0h48v9h-48zm56 0h64v9h-64zm72 0h40v9h-40zm48 0h56v9h-56zm64 0h40v9h-40zm48 0h8v9h-8zm16 0h96v9h-96zm104 0h24v9h-24zm32 0h48v9h-48zm56 0h40v9h-40zm48 0h120v9h-120zm-1768 18h72v9H8zm80 0h8v9h-8zm16 0h48v9h-48zm56 0h16v9h-16zm24 0h40v9h-40zm48 0h16v9h-16zm24 0h16v9h-16zm24 0h40v9h-40zm48 0h16v9h-16zm24 0h32v9h-32zm40 0h64v9h-64zm72 0h8v9h-8zm16 0h24v9h-24zm32 0h16v9h-16zm24 0h56v9h-56zm64 0h96v9h-96zm104 0h56v9h-56zm64 0h40v9h-40zm48 0h80v9h-80zm88 0h64v9h-64zm72 0h48v9h-48zm56 0h48v9h-48zm56 0h48v9h-48zm56 0h40v9h-40zm48 0h40v9h-40zm48 0h72v9h-72zm80 0h16v9h-16zm24 0h72v9h-72zm80 0h40v9h-40zm48 0h40v9h-40zm48 0h8v9h-8zm16 0h48v9h-48zm56 0h8v9h-8zm16 0h24v9h-24zm32 0h40v9h-40zm48 0h40v9h-40zm48 0h8v9h-8zm16 0h40v9h-40zm48 0h40v9h-40zm48 0h40v9h-40zm-1840 18h56v9H8zm64 0h8v9h-8zm16 0h32v9H88zm40 0h72v9h-72zm80 0h32v9h-32zm40 0h32v9h-32zm40 0h24v9h-24zm32 0h56v9h-56zm64 0h24v9h-24zm32 0h16v9h-16zm24 0h48v9h-48zm56 0h16v9h-16zm24 0h32v9h-32zm40 0h8v9h-8zm16 0h24v9h-24zm32 0h56v9h-56zm64 0h8v9h-8zm16 0h32v9h-32zm40 0h80v9h-80zm88 0h24v9h-24zm32 0h72v9h-72zm80 0h16v9h-16zm24 0h24v9h-24zm32 0h40v9h-40zm48 0h64v9h-64zm72 0h32v9h-32zm40 0h16v9h-16zm24 0h32v9h-32zm40 0h88v9h-88zm96 0h8v9h-8zm16 0h56v9h-56zm64 0h48v9h-48zm56 0h8v9h-8zm16 0h96v9h-96zm104 0h88v9h-88zm96 0h64v9h-64zm72 0h24v9h-24zm32 0h24v9h-24zm32 0h40v9h-40zm48 0h48v9h-48zm56 0h8v9h-8zm-1888 18h16v9H8zm24 0h40v9H32zm48 0h56v9H80zm64 0h64v9h-64zm72 0h40v9h-40zm48 0h64v9h-64zm72 0h8v9h-8zm16 0h48v9h-48zm56 0h40v9h-40zm48 0h72v9h-72zm80 0h8v9h-8zm16 0h8v9h-8zm16 0h56v9h-56zm64 0h56v9h-56zm64 0h24v9h-24zm32 0h16v9h-16zm24 0h48v9h-48zm56 0h24v9h-24zm32 0h40v9h-40zm48 0h80v9h-80zm88 0h48v9h-48zm56 0h96v9h-96zm104 0h48v9h-48zm56 0h40v9h-40zm48 0h56v9h-56zm64 0h8v9h-8zm16 0h56v9h-56zm64 0h40v9h-40zm48 0h8v9h-8zm16 0h16v9h-16zm24 0h48v9h-48zm56 0h24v9h-24zm32 0h24v9h-24zm32 0h88v9h-88zm96 0h32v9h-32zm40 0h24v9h-24zm32 0h8v9h-8zm16 0h64v9h-64zm72 0h8v9h-8zm16 0h24v9h-24zm-1856 18h24v9H8zm32 0h24v9H40zm32 0h16v9H72zm24 0h80v9H96zm88 0h64v9h-64zm72 0h8v9h-8zm16 0h56v9h-56zm64 0h16v9h-16zm24 0h48v9h-48zm56 0h32v9h-32zm40 0h24v9h-24zm32 0h48v9h-48zm56 0h48v9h-48zm56 0h16v9h-16zm24 0h48v9h-48zm56 0h72v9h-72zm80 0h16v9h-16zm24 0h8v9h-8zm16 0h48v9h-48zm56 0h24v9h-24zm32 0h64v9h-64zm72 0h8v9h-8zm16 0h56v9h-56zm64 0h56v9h-56zm64 0h48v9h-48zm56 0h80v9h-80zm88 0h32v9h-32zm40 0h64v9h-64zm72 0h48v9h-48zm56 0h32v9h-32zm40 0h16v9h-16zm24 0h48v9h-48zm56 0h8v9h-8zm16 0h16v9h-16zm24 0h40v9h-40zm48 0h48v9h-48zm56 0h64v9h-64zm72 0h64v9h-64zm72 0h32v9h-32zm-1816 18h72v9H8zm80 0h48v9H88zm56 0h16v9h-16zm24 0h24v9h-24zm32 0h40v9h-40zm48 0h64v9h-64zm72 0h24v9h-24zm32 0h48v9h-48zm56 0h48v9h-48zm56 0h88v9h-88zm96 0h56v9h-56zm64 0h16v9h-16zm24 0h16v9h-16zm24 0h32v9h-32zm40 0h48v9h-48zm56 0h64v9h-64zm72 0h40v9h-40zm48 0h40v9h-40zm48 0h64v9h-64zm72 0h16v9h-16zm24 0h48v9h-48zm56 0h16v9h-16zm24 0h16v9h-16zm24 0h24v9h-24zm32 0h40v9h-40zm48 0h64v9h-64zm72 0h48v9h-48zm56 0h16v9h-16zm24 0h56v9h-56zm64 0h24v9h-24zm32 0h80v9h-80zm88 0h104v9h-104zm112 0h72v9h-72zm80 0h80v9h-80zm88 0h72v9h-72zm-1824 18h24v9H8zm32 0h56v9H40zm64 0h48v9h-48zm56 0h48v9h-48zm56 0h16v9h-16zm24 0h40v9h-40zm48 0h56v9h-56zm64 0h80v9h-80zm88 0h96v9h-96zm104 0h96v9h-96zm104 0h16v9h-16zm24 0h32v9h-32zm40 0h64v9h-64zm72 0h8v9h-8zm16 0h48v9h-48zm56 0h16v9h-16zm24 0h72v9h-72zm80 0h16v9h-16zm24 0h40v9h-40zm48 0h80v9h-80zm88 0h56v9h-56zm64 0h32v9h-32zm40 0h16v9h-16zm24 0h32v9h-32zm40 0h72v9h-72zm80 0h8v9h-8zm16 0h40v9h-40zm48 0h40v9h-40zm48 0h104v9h-104zm112 0h8v9h-8zm16 0h56v9h-56zm64 0h56v9h-56zm64 0h40v9h-40zm48 0h16v9h-16zm24 0h32v9h-32zm40 0h56v9h-56zm-1840 18h8v9H8zm16 0h72v9H24zm80 0h56v9h-56zm64 0h16v9h-16zm24 0h56v9h-56zm64 0h48v9h-48zm56 0h8v9h-8zm16 0h104v9H328zm112 0h16v9h-16zm24 0h32v9h-32zm40 0h56v9h-56zm64 0h24v9h-24zm32 0h64v9h-64zm72 0h8v9h-8zm16 0h88v9h-88zm96 0h32v9h-32zm40 0h8v9h-8zm16 0h56v9h-56zm64 0h8v9h-8zm16 0h32v9h-32zm40 0h96v9h-96zm104 0h8v9h-8zm16 0h80v9h-80zm88 0h24v9h-24zm32 0h8v9h-8zm16 0h40v9h-40zm48 0h72v9h-72zm80 0h8v9h-8zm16 0h96v9h-96zm104 0h24v9h-24zm32 0h64v9h-64zm72 0h16v9h-16zm24 0h64v9h-64zm72 0h64v9h-64zm72 0h8v9h-8zm16 0h48v9h-48zm56 0h16v9h-16zm24 0h48v9h-48zm-1824 18h40v9H8zm48 0h72v9H56zm80 0h96v9h-96zm104 0h16v9h-16zm24 0h72v9h-72zm80 0h48v9h-48zm56 0h88v9h-88zm96 0h8v9h-8zm16 0h48v9h-48zm56 0h24v9h-24zm32 0h56v9h-56zm64 0h8v9h-8zm16 0h104v9H680zm112 0h24v9h-24zm32 0h16v9h-16zm24 0h64v9h-64zm72 0h72v9h-72zm80 0h72v9h-72zm80 0h16v9h-16zm24 0h56v9h-56zm64 0h40v9h-40zm48 0h56v9h-56zm64 0h56v9h-56zm64 0h16v9h-16zm24 0h72v9h-72zm80 0h56v9h-56zm64 0h16v9h-16zm24 0h24v9h-24zm32 0h16v9h-16zm24 0h48v9h-48zm56 0h72v9h-72zm80 0h8v9h-8zm16 0h24v9h-24zm32 0h56v9h-56zm64 0h24v9h-24zm-1832 18h40v9H8zm48 0h32v9H56zm40 0h16v9H96zm24 0h64v9h-64zm72 0h72v9h-72zm80 0h8v9h-8zm16 0h56v9h-56zm64 0h40v9h-40zm48 0h112v9H400zm120 0h72v9h-72zm80 0h8v9h-8zm16 0h144v9H616zm152 0h8v9h-8zm16 0h24v9h-24zm32 0h40v9h-40zm48 0h32v9h-32zm40 0h32v9h-32zm40 0h64v9h-64zm72 0h16v9h-16zm24 0h72v9h-72zm80 0h16v9h-16zm24 0h24v9h-24zm32 0h96v9h-96zm104 0h40v9h-40zm48 0h48v9h-48zm56 0h40v9h-40zm48 0h24v9h-24zm32 0h32v9h-32zm40 0h32v9h-32zm40 0h16v9h-16zm24 0h24v9h-24zm32 0h24v9h-24zm32 0h8v9h-8zm16 0h8v9h-8zm16 0h56v9h-56zm64 0h16v9h-16zm24 0h8v9h-8zm16 0h24v9h-24zm32 0h24v9h-24zm-1792 18h80v9H8zm88 0h120v9H96zm128 0h112v9H224zm120 0h64v9h-64zm72 0h80v9h-80zm88 0h56v9h-56zm64 0h8v9h-8zm16 0h96v9h-96zm104 0h64v9h-64zm72 0h64v9h-64zm72 0h40v9h-40zm48 0h8v9h-8zm16 0h48v9h-48zm56 0h72v9h-72zm80 0h16v9h-16zm24 0h16v9h-16zm24 0h32v9h-32zm40 0h32v9h-32zm40 0h72v9h-72zm80 0h80v9h-80zm88 0h8v9h-8zm16 0h72v9h-72zm80 0h64v9h-64zm72 0h104v9h-104zm112 0h104v9h-104zm112 0h8v9h-8zm16 0h32v9h-32zm40 0h32v9h-32zm40 0h64v9h-64zm72 0h8v9h-8zm-1880 18h48v9H8zm56 0h48v9H64zm56 0h32v9h-32zm40 0h24v9h-24zm32 0h8v9h-8zm16 0h24v9h-24zm32 0h72v9h-72zm80 0h24v9h-24zm32 0h40v9h-40zm48 0h8v9h-8zm16 0h32v9h-32zm40 0h112v9H456zm120 0h8v9h-8zm16 0h56v9h-56zm64 0h64v9h-64zm72 0h8v9h-8zm16 0h32v9h-32zm40 0h8v9h-8zm16 0h32v9h-32zm40 0h48v9h-48zm56 0h72v9h-72zm80 0h112v9H976zm120 0h80v9h-80zm88 0h8v9h-8zm16 0h16v9h-16zm24 0h40v9h-40zm48 0h24v9h-24zm32 0h24v9h-24zm32 0h64v9h-64zm72 0h16v9h-16zm24 0h80v9h-80zm88 0h16v9h-16zm24 0h8v9h-8zm16 0h48v9h-48zm56 0h24v9h-24zm32 0h64v9h-64zm72 0h40v9h-40zm48 0h56v9h-56zm64 0h8v9h-8zm-1824 18h72v9H8zm80 0h72v9H88zm80 0h8v9h-8zm16 0h48v9h-48zm56 0h32v9h-32zm40 0h56v9h-56zm64 0h24v9h-24zm32 0h40v9h-40zm48 0h24v9h-24zm32 0h40v9h-40zm48 0h88v9h-88zm96 0h16v9h-16zm24 0h16v9h-16zm24 0h24v9h-24zm32 0h48v9h-48zm56 0h72v9h-72zm80 0h8v9h-8zm16 0h32v9h-32zm40 0h32v9h-32zm40 0h24v9h-24zm32 0h32v9h-32zm40 0h24v9h-24zm32 0h8v9h-8zm16 0h56v9h-56zm64 0h64v9h-64zm72 0h48v9h-48zm56 0h80v9h-80zm88 0h88v9h-88zm96 0h8v9h-8zm16 0h40v9h-40zm48 0h24v9h-24zm32 0h16v9h-16zm24 0h56v9h-56zm64 0h24v9h-24zm32 0h72v9h-72zm80 0h16v9h-16zm24 0h72v9h-72zm80 0h24v9h-24zm32 0h8v9h-8zm16 0h48v9h-48zm-1848 18h40v9H8zm48 0h56v9H56zm64 0h40v9h-40zm48 0h48v9h-48zm56 0h24v9h-24zm32 0h40v9h-40zm48 0h40v9h-40zm48 0h8v9h-8zm16 0h16v9h-16zm24 0h48v9h-48zm56 0h24v9h-24zm32 0h48v9h-48zm56 0h8v9h-8zm16 0h40v9h-40zm48 0h24v9h-24zm32 0h48v9h-48zm56 0h24v9h-24zm32 0h24v9h-24zm32 0h64v9h-64zm72 0h40v9h-40zm48 0h128v9H872zm136 0h8v9h-8zm16 0h56v9h-56zm64 0h16v9h-16zm24 0h64v9h-64zm72 0h40v9h-40zm48 0h16v9h-16zm24 0h24v9h-24zm32 0h56v9h-56zm64 0h40v9h-40zm48 0h16v9h-16zm24 0h32v9h-32zm40 0h24v9h-24zm32 0h40v9h-40zm48 0h40v9h-40zm48 0h24v9h-24zm32 0h24v9h-24zm32 0h16v9h-16zm24 0h56v9h-56zm64 0h16v9h-16zm24 0h24v9h-24zm32 0h8v9h-8zm16 0h48v9h-48zm-1808 18h56v9H8zm64 0h48v9H72zm56 0h8v9h-8zm16 0h80v9h-80zm88 0h40v9h-40zm48 0h48v9h-48zm56 0h16v9h-16zm24 0h48v9h-48zm56 0h64v9h-64zm72 0h24v9h-24zm32 0h24v9h-24zm32 0h16v9h-16zm24 0h24v9h-24zm32 0h64v9h-64zm72 0h8v9h-8zm16 0h48v9h-48zm56 0h8v9h-8zm16 0h72v9h-72zm80 0h56v9h-56zm64 0h72v9h-72zm80 0h40v9h-40zm48 0h32v9h-32zm40 0h8v9h-8zm16 0h24v9h-24zm32 0h64v9h-64zm72 0h40v9h-40zm48 0h72v9h-72zm80 0h24v9h-24zm32 0h48v9h-48zm56 0h80v9h-80zm88 0h40v9h-40zm48 0h40v9h-40zm48 0h8v9h-8zm16 0h40v9h-40zm48 0h24v9h-24zm32 0h64v9h-64zm72 0h8v9h-8zm16 0h40v9h-40zm48 0h48v9h-48zm56 0h16v9h-16zm-1880 18h8v9H8zm16 0h24v9H24zm32 0h24v9H56zm32 0h16v9H88zm24 0h80v9h-80zm88 0h8v9h-8zm16 0h80v9h-80zm88 0h112v9H304zm120 0h32v9h-32zm40 0h72v9h-72zm80 0h80v9h-80zm88 0h64v9h-64zm72 0h8v9h-8zm16 0h24v9h-24zm32 0h32v9h-32zm40 0h96v9h-96zm104 0h8v9h-8zm16 0h72v9h-72zm80 0h64v9h-64zm72 0h64v9h-64zm72 0h32v9h-32zm40 0h8v9h-8zm16 0h24v9h-24zm32 0h64v9h-64zm72 0h64v9h-64zm72 0h16v9h-16zm24 0h24v9h-24zm32 0h80v9h-80zm88 0h8v9h-8zm16 0h72v9h-72zm80 0h16v9h-16zm24 0h48v9h-48zm56 0h64v9h-64zm72 0h56v9h-56zm64 0h48v9h-48zm56 0h16v9h-16zm-1872 18h120v9H8zm128 0h16v9h-16zm24 0h24v9h-24zm32 0h72v9h-72zm80 0h96v9h-96zm104 0h16v9h-16zm24 0h48v9h-48zm56 0h88v9h-88zm96 0h8v9h-8zm16 0h56v9h-56zm64 0h56v9h-56zm64 0h64v9h-64zm72 0h56v9h-56zm64 0h24v9h-24zm32 0h40v9h-40zm48 0h24v9h-24zm32 0h8v9h-8zm16 0h80v9h-80zm88 0h64v9h-64zm72 0h8v9h-8zm16 0h24v9h-24zm32 0h48v9h-48zm56 0h24v9h-24zm32 0h72v9h-72zm80 0h40v9h-40zm48 0h48v9h-48zm56 0h32v9h-32zm40 0h48v9h-48zm56 0h8v9h-8zm16 0h40v9h-40zm48 0h72v9h-72zm80 0h32v9h-32zm40 0h8v9h-8zm16 0h72v9h-72zm80 0h8v9h-8zm16 0h64v9h-64zm-1824 18h24v9H8zm32 0h8v9h-8zm16 0h56v9H56zm64 0h32v9h-32zm40 0h72v9h-72zm80 0h88v9h-88zm96 0h104v9H336zm112 0h16v9h-16zm24 0h72v9h-72zm80 0h64v9h-64zm72 0h8v9h-8zm16 0h72v9h-72zm80 0h8v9h-8zm16 0h80v9h-80zm88 0h72v9h-72zm80 0h64v9h-64zm72 0h48v9h-48zm56 0h48v9h-48zm56 0h8v9h-8zm16 0h56v9h-56zm64 0h24v9h-24zm32 0h40v9h-40zm48 0h8v9h-8zm16 0h32v9h-32zm40 0h40v9h-40zm48 0h24v9h-24zm32 0h56v9h-56zm64 0h8v9h-8zm16 0h64v9h-64zm72 0h64v9h-64zm72 0h48v9h-48zm56 0h16v9h-16zm24 0h80v9h-80zm88 0h56v9h-56zm64 0h48v9h-48zm-1832 18h48v9H8zm56 0h24v9H64zm32 0h80v9H96zm88 0h56v9h-56zm64 0h16v9h-16zm24 0h80v9h-80zm88 0h96v9h-96zm104 0h32v9h-32zm40 0h88v9h-88zm96 0h16v9h-16zm24 0h8v9h-8zm16 0h24v9h-24zm32 0h40v9h-40zm48 0h32v9h-32zm40 0h72v9h-72zm80 0h24v9h-24zm32 0h104v9H872zm112 0h16v9h-16zm24 0h72v9h-72zm80 0h24v9h-24zm32 0h24v9h-24zm32 0h64v9h-64zm72 0h72v9h-72zm80 0h72v9h-72zm80 0h24v9h-24zm32 0h16v9h-16zm24 0h48v9h-48zm56 0h56v9h-56zm64 0h48v9h-48zm56 0h8v9h-8zm16 0h48v9h-48zm56 0h56v9h-56zm64 0h8v9h-8zm16 0h64v9h-64zm72 0h8v9h-8zm-1832 18h72v9H8zm80 0h16v9H88zm24 0h48v9h-48zm56 0h8v9h-8zm16 0h64v9h-64zm72 0h48v9h-48zm56 0h112v9H312zm120 0h40v9h-40zm48 0h56v9h-56zm64 0h64v9h-64zm72 0h8v9h-8zm16 0h56v9h-56zm64 0h64v9h-64zm72 0h8v9h-8zm16 0h96v9h-96zm104 0h80v9h-80zm88 0h8v9h-8zm16 0h48v9h-48zm56 0h56v9h-56zm64 0h128v9h-128zm136 0h96v9h-96zm104 0h88v9h-88zm96 0h56v9h-56zm64 0h72v9h-72zm80 0h64v9h-64zm72 0h40v9h-40zm48 0h24v9h-24zm32 0h32v9h-32zm40 0h56v9h-56zm64 0h40v9h-40zm-1840 18h24v9H8zm32 0h56v9H40zm64 0h72v9h-72zm80 0h8v9h-8zm16 0h88v9h-88zm96 0h56v9h-56zm64 0h8v9h-8zm16 0h72v9h-72zm80 0h8v9h-8zm16 0h48v9h-48zm56 0h16v9h-16zm24 0h88v9h-88zm96 0h32v9h-32zm40 0h72v9h-72zm80 0h8v9h-8zm16 0h64v9h-64zm72 0h8v9h-8zm16 0h88v9h-88zm96 0h80v9h-80zm88 0h8v9h-8zm16 0h40v9h-40zm48 0h24v9h-24zm32 0h32v9h-32zm40 0h24v9h-24zm32 0h8v9h-8zm16 0h56v9h-56zm64 0h48v9h-48zm56 0h8v9h-8zm16 0h40v9h-40zm48 0h48v9h-48zm56 0h120v9h-120zm128 0h96v9h-96zm104 0h24v9h-24zm32 0h56v9h-56zm-1736 18h112v9H8zm120 0h16v9h-16zm24 0h88v9h-88zm96 0h40v9h-40zm48 0h88v9h-88zm96 0h16v9h-16zm24 0h40v9h-40zm48 0h48v9h-48zm56 0h64v9h-64zm72 0h40v9h-40zm48 0h80v9h-80zm88 0h56v9h-56zm64 0h8v9h-8zm16 0h8v9h-8zm16 0h24v9h-24zm32 0h48v9h-48zm56 0h32v9h-32zm40 0h8v9h-8zm16 0h24v9h-24zm32 0h16v9h-16zm24 0h16v9h-16zm24 0h56v9h-56zm64 0h40v9h-40zm48 0h88v9h-88zm96 0h8v9h-8zm16 0h40v9h-40zm48 0h32v9h-32zm40 0h40v9h-40zm48 0h16v9h-16zm24 0h8v9h-8zm16 0h24v9h-24zm32 0h40v9h-40zm48 0h56v9h-56zm64 0h32v9h-32zm40 0h64v9h-64zm72 0h16v9h-16zm24 0h48v9h-48zm56 0h64v9h-64zm72 0h16v9h-16z" fill="#999"/></svg>