<svg version="1.1" xmlns="http://www.w3.org/2000/svg" x="0" y="0" viewBox="0 0 1920 673" xml:space="preserve"><path fill="#36434f" d="M0 0h1920v673H0z"/><path d="M588.5 81.6C644.3 66.8 691.1 38 731 0h1.5c-40.2 38.4-87.4 67.6-143.7 82.6-27.2 7.2-53.7 9.3-79.8 6.2-.3-.1-.6-.1-.9-.2-1.8-.6-3.7-1.2-5.5-1.8 26.3 4 54.8 3.1 85.9-5.2zm-122.3-3.8c2 .7 4 1.5 6 2.2 3.8 1.4 7.6 2.8 11.5 4.2 4.3 1.1 8.7 2 13 2.8-5.3-1.4-10.5-2.9-15.5-4.6-5-1.4-10.1-3-15-4.6zM359.4 14.4c-.9-.3-1.9-.7-2.8-1 8.1 6.4 16.4 12.8 25 19.1.9.2 1.8.4 2.6.7-8.6-6.2-16.8-12.5-24.8-18.8zm26.8 20.3c-.9-.3-1.9-.5-2.8-.7C402 47.5 422 60.2 443.6 70.1c5.3 1.7 10.6 3.5 15.9 5.4-26.8-10.3-51-24.9-73.3-40.8zM134.6 0h-1.8C87.3 30.7 47.4 37.9 0 36v1c48 2 88.4-5.5 134.6-37zm336.1 80.4c-5.6-2-11-4-16.4-5.9 5.4 2.3 10.9 4.2 16.4 5.9zM357.2 12.6c-5.3-4.2-10.6-8.5-15.7-12.6h-1.6c4.8 3.9 9.7 7.8 14.6 11.8.9.3 1.8.5 2.7.8zm260.1 73C576 95.9 539.9 95.1 509 88.8c-.2 0-.3 0-.5-.1 1.7.6 3.5 1.1 5.2 1.6 1.8.5 3.7.9 5.5 1.3 11.4 1.8 23.4 2.8 36.1 2.8 19.2 0 39.9-2.3 62.2-7.9 14.3-3.6 29-8.4 45.1-14.7 41.1-16 78.1-40.1 110.8-71.8H772c-32.5 31.3-69.1 55-109.7 71-16.1 6.3-30.8 11.1-45 14.6zm-120.6 1.3c1.5.4 2.9.8 4.4 1.1-.6-.2-1.2-.4-1.7-.6-.8-.1-1.7-.3-2.7-.5zM366 13.7c-2.7-2-5.4-4.1-8.2-6.1-2.7-1.6-5.4-3.2-8-4.7 5.1 3.7 10.3 7.6 15.6 11.6 1.1.8 2.2 1.6 3.3 2.5l4.2 1.8c-2.4-1.7-4.7-3.4-6.9-5.1zM188.6 0h-1.7C119.7 47.1 68.6 52.9 0 48.1v1c12.4.9 24.2 1.4 35.6 1.4 52.5 0 97.2-11.1 153-50.5zm158.8 0h-1.1c1.4.8 2.9 1.5 4.3 2.3-1.1-.7-2.1-1.5-3.2-2.3zm52.1 38.1c-7.8-5.4-15.3-10.9-22.7-16.4-1.6-.8-3.1-1.5-4.7-2.2 7.7 5.7 15.5 11.5 23.6 17.2 1.3.5 2.5.9 3.8 1.4zm18.4 12.3c-5.1-3.2-10-6.5-14.9-9.8-1.4-.6-2.8-1.1-4.2-1.7 6 4.2 12.2 8.3 18.6 12.3 17.1 10.8 38.4 22.6 63.9 31.1 3.7 1 7.5 1.9 11.4 2.7-1.1-.4-2.1-.7-3.2-1.1-29-8.6-52.8-21.7-71.6-33.5zM509 88.8c-.3-.1-.6-.1-.9-.2.1 0 .3.1.4.1.2 0 .4.1.5.1zm-12.9-2.7c-1.1-.4-2.3-.8-3.4-1.1-3.8-.8-7.6-1.7-11.4-2.7 5 1.7 10.1 3.2 15.5 4.6.9.2 1.8.3 2.7.5-1.2-.4-2.3-.8-3.4-1.3zm-84.7-42.9l6.9 3.3c-5.3-3.4-10.5-6.9-15.6-10.3-4.3-2.6-8.5-5.1-12.7-7.4.3.2.7.5 1 .7 6.6 4.5 13.4 9.1 20.4 13.7zm-304.8 17c44.3-6.6 85.8-24 134.5-56.5 2-1.3 3.9-2.5 5.9-3.7h-2c-1.5.9-3 1.9-4.5 2.9C149.8 63.4 90.7 66.5 0 60.3v1c39.9 2.8 73.9 3.7 106.6-1.1zM390.7 28c-13.7-9.3-27-18.3-40.1-25.7 2.4 1.8 4.8 3.5 7.2 5.3 7.9 4.8 15.9 10.1 24.1 15.7 3 1.5 5.9 3.1 8.8 4.7zm52.5 34.7c15.6 8.7 30.9 15.7 46.3 21.2l3 .9c-5.5-2.2-10.8-4.5-16-6.9-12.3-5.2-23.2-10.7-32.8-16.1-5.4-3-10.6-6.1-15.7-9.2-3.5-1.9-6.9-3.6-10.4-5.3 8.2 5.2 16.7 10.4 25.6 15.4zM345.7 0h-1.4c1.8 1 3.7 2 5.5 3-1.4-1-2.7-2-4.1-3zM646 89.6c-50.4 11.8-92.3 9.8-126.7 2-.7-.1-1.5-.2-2.2-.4 4.9 1.4 9.9 2.7 14.8 3.8 36.2 6.3 74.7 4.8 114.4-4.5 13.9-3.3 28.3-7.7 46.8-14.3C743.6 58.1 783.3 30.8 814.4 0H813c-30.8 30.4-70.2 57.3-120.2 75.3-18.6 6.7-33 11.1-46.8 14.3zm-153.5-4.9l-3-.9c1.1.4 2.1.8 3.2 1.1.3.1.6.1.9.2-.4-.1-.8-.2-1.1-.4zm26.8 7c-1.9-.4-3.7-.9-5.5-1.3 1.1.3 2.2.7 3.3 1 .7 0 1.4.1 2.2.3zm-161.5-84c-2.4-1.8-4.8-3.6-7.2-5.3-1.4-.8-2.9-1.6-4.3-2.3h-.6c1.4 1 2.7 2 4.1 3 2.7 1.4 5.3 2.9 8 4.6zm135.8 77.5c-.3-.1-.6-.1-.9-.2 1.1.4 2.3.8 3.4 1.1-.4-.2-.8-.3-1.2-.5-.5-.1-.9-.3-1.3-.4zM372.1 19.6c-1.1-.9-2.3-1.7-3.4-2.6-3.8-1.6-7.7-3.1-11.5-4.4.7.6 1.5 1.2 2.2 1.8 4.2 1.5 8.5 3.2 12.7 5.2zm30.5 16.6c4.4 2.6 8.9 5.4 13.4 8.2 3.3 2 6.5 4 9.9 6 5.1 2.7 10.2 5.4 15.4 8.3 16.6 9 33.7 18.3 53.9 26.1.9.4 2 .8 3.1 1.2.3.1.7.2 1 .3 1.1.2 2.2.4 3.3.5-11.2-3.8-22.2-8.3-33.2-13.5C450 64 433 53.6 416.6 43.5c-8.8-5.4-17.4-10.7-25.9-15.5l.9.6c3.6 2.5 7.3 5 11 7.6zM272.2 23.5c32.7-18 59.1-18.5 84.4-10.2-.7-.5-1.3-1.1-2-1.6-2.1-.6-4.2-1.2-6.2-1.7-25.4-6.2-49.7-2.2-76.6 12.6C169.6 78.9 109.2 79.2 0 73.7v1c109.3 5.5 169.8 5.2 272.2-51.2zm451 56.2c-14.4 4.8-31.2 10.2-48.4 14-50.6 11.2-97.9 11.7-142.9 1.4-1.3-.2-2.6-.4-4-.7-5.4-1-10.8-2.2-16.1-3.6 1.6.5 3.3 1.1 5.1 1.6 11.7 3.3 23.4 5.9 35.4 7.7 38.4 5.9 79.7 4 122.7-5.5 17.3-3.8 34.1-9.2 48.5-14 51.6-17 96-44.5 131.7-80.6h-1.4c-35.4 35.6-79.5 62.8-130.6 79.7zM382 23.3c-3.1-1.6-6.1-3.1-9.1-4.5 1.3 1 2.6 2 3.9 2.9 4.4 2.1 8.8 4.5 13.2 7-2.7-1.8-5.4-3.6-8-5.4zm-24.8-10.7c-.9-.3-1.8-.6-2.6-.8.7.5 1.3 1.1 2 1.6.9.3 1.9.6 2.8 1-.8-.6-1.5-1.2-2.2-1.8zm147 75.1l3.9.9c-1.8-.6-3.7-1.2-5.5-1.8-1.1-.2-2.2-.3-3.3-.5 1.6.4 3.3 1 4.9 1.4zM376.8 21.8c-1.3-1-2.6-2-3.9-2.9-1.4-.6-2.8-1.3-4.2-1.8 1.1.9 2.3 1.7 3.4 2.6 1.6.6 3.1 1.3 4.7 2.1zm136.9 68.5c-1.7-.5-3.5-1.1-5.2-1.6-.5-.1-1-.1-1.5-.2 2.2.7 4.4 1.3 6.7 1.8zm-6.7-1.8c.5.1 1 .1 1.5.2-.1 0-.3-.1-.4-.1l-3.9-.9c.9.3 1.9.6 2.8.8zm-7.7-2.3c-.3-.1-.7-.2-1-.3.2.1.5.2.7.3h.3zm12.5 4.6c5.4 1.4 10.7 2.6 16.1 3.6 1.3.3 2.6.5 4 .7-5-1.1-9.9-2.4-14.8-3.8-2.8-.5-5.5-1-8.2-1.5.9.3 1.9.6 2.9 1zM390 28.8c4.2 2.4 8.4 4.8 12.7 7.4l-11.1-7.5-.9-.6c-2.9-1.6-5.8-3.2-8.7-4.7 2.6 1.7 5.3 3.5 8 5.4zm111.3 58.3c1 .2 1.9.5 2.9.7-1.7-.5-3.3-1-4.9-1.5h-.3c.7.2 1.5.5 2.3.8zm3 1.1c1.4.5 2.9 1 4.5 1.6 2.7.6 5.4 1.1 8.2 1.5-1.1-.3-2.2-.6-3.3-1-2.3-.6-4.5-1.2-6.7-1.8l-2.7-.3zm0 0c.9.1 1.8.2 2.6.4-.9-.3-1.8-.5-2.8-.8-1-.2-2-.5-2.9-.7 1.1.3 2.1.7 3.1 1.1zM753.6 84c-16.2 4.9-33 10.1-50.2 13.7-88.8 18.6-152.2 5.5-186.6-5.3-2.8-.8-5.5-1.6-8.3-2.5-.9-.3-1.9-.5-2.8-.8-1.5-.3-3-.7-4.5-1 17.4 6.4 42.7 14.1 75.5 17.9 39.6 4.5 82.3 2.1 127-7.3 17.2-3.6 34-8.7 50.2-13.7C811 67.6 858.9 39 896 0h-1.6C857.9 37.9 810 66.8 753.6 84zM303.2 43.4c32.3-14.3 57.2-15.3 80.3-9.5-.6-.5-1.3-.9-1.9-1.4-1-.2-2.1-.5-3.1-.7-24.1-4.9-48.2-1.6-75.7 10.6C190.6 92.1 128.4 91.9 0 88.3v1c128.6 3.6 190.8 3.8 303.2-45.9zm114.4 3.9c-2.1-1.4-4.2-2.7-6.3-4.1-3.9-1.8-7.9-3.5-11.9-5 1.2.8 2.3 1.6 3.5 2.4 5 2 9.8 4.2 14.7 6.7zm-21.9-10.6c-3.8-1.4-7.7-2.6-11.6-3.6l2.1 1.5c4.2 1.2 8.4 2.6 12.6 4.2-1-.6-2-1.4-3.1-2.1zM428 52.6c4.2 2.2 8.5 4.5 12.8 6.9 11.3 6.2 23 12.5 35.7 18.4 2.8 1.2 5.7 2.3 8.6 3.4-5.4-2.2-10.7-4.6-16.1-7.1-15.6-7.4-29.6-15.6-43.1-23.8-2.6-1.3-5.1-2.6-7.6-3.9 3.2 2 6.4 4.1 9.7 6.1zm-43.8-19.4c-.9-.2-1.8-.4-2.6-.7.6.5 1.3.9 1.9 1.4.9.2 1.9.5 2.8.7-.8-.4-1.5-.9-2.1-1.4zm115.3 54.2c.6.2 1.1.4 1.7.6 1.5.4 3 .7 4.5 1-1.7-.5-3.3-1-5-1.5-.4.1-.8 0-1.2-.1zm-100-49.3c-1.2-.5-2.5-.9-3.7-1.4l3 2.1c1.4.5 2.8 1.1 4.2 1.7-1.2-.8-2.4-1.6-3.5-2.4zm100 49.3c.4.1.9.1 1.3.2-1.6-.5-3.1-1-4.7-1.5 1.1.5 2.2.9 3.4 1.3zm-4.3-1.9c.4.1.8.1 1.2.2-3.8-1.4-7.5-2.8-11.3-4.4-2.9-1.1-5.8-2.3-8.6-3.4 5.1 2.4 10.4 4.7 16 6.9.9.2 1.8.4 2.7.7zM428 52.6c-3.3-2-6.5-4.1-9.7-6.1l-6.9-3.3c2.1 1.4 4.2 2.7 6.3 4.1 3.4 1.7 6.8 3.5 10.3 5.3zm77.7 36.5c.9.3 1.9.5 2.8.8-.5-.2-1.1-.3-1.6-.5l-1.2-.3zm-8.4-3l-.9-.3c-.4-.1-.8-.1-1.2-.2.7.1 1.4.3 2.1.5zm-3.7-.9c.5.1 1.1.2 1.6.3-.9-.2-1.8-.5-2.8-.8.4.2.8.3 1.2.5zm9 2.7c-.6-.1-1.2-.2-1.9-.3 1.7.5 3.3 1 5 1.5l1.2.3c-1.4-.5-2.8-1-4.3-1.5zm-7.4-2.4c-.5-.1-1.1-.2-1.6-.3.4.2.8.3 1.3.5.4.2.8.3 1.2.5 1.6.5 3.1 1 4.7 1.5.6.1 1.2.2 1.9.3-1.8-.6-3.5-1.2-5.3-1.9-.8-.2-1.5-.4-2.2-.6zm-10.1-4.2c4.2 1.6 8.6 3.1 13.2 4.6-1.1-.4-2.1-.8-3.1-1.2-20.2-7.7-37.3-17-53.9-26.1-5.2-2.8-10.3-5.6-15.4-8.3 13.4 8.2 27.5 16.4 43.1 23.8 5.4 2.6 10.7 5 16.1 7.2zm31.7 11.1c-1.8-.6-3.5-1.1-5.1-1.6-1.1-.3-2.2-.6-3.2-.9 2.8.9 5.6 1.7 8.3 2.5zm-20.4-6.7c.9.2 1.7.3 2.6.5-.2-.1-.5-.2-.7-.3-4.5-1.5-8.9-3-13.2-4.6 3.8 1.6 7.5 3 11.3 4.4zm10.5 3.7c.5.2 1.1.3 1.6.5 1.1.3 2.2.6 3.2.9-1-.3-2-.7-2.9-1-.6-.2-1.2-.3-1.9-.4zm-5.6-2.3c-.8-.3-1.6-.6-2.3-.9-.9-.1-1.7-.3-2.6-.5l.9.3c1.4.4 2.7.7 4 1.1zm5.6 2.3c.6.1 1.3.3 1.9.4-1.6-.5-3.1-1.1-4.5-1.6-.6-.1-1.1-.2-1.7-.2 1.5.4 2.9.9 4.3 1.4zm-9.6-3.3c1.8.6 3.5 1.3 5.3 1.9.6.1 1.1.2 1.7.2-1.1-.4-2.1-.8-3-1.1-1.3-.4-2.6-.7-4-1zM334.2 63.2c56.9-6.9 87.9.2 120 11.3-2.7-1.1-5.4-2.2-8.1-3.4-.8-.4-1.7-.8-2.5-1.2-28.7-9-58.9-13.9-109.6-7.8l-.2.1c-88.6 53.4-155.3 50.1-256.2 45.1-23.4-1.1-49.2-2.4-77.6-3.1v1c28.3.6 54.2 1.9 77.5 3.1 101.1 5.1 167.9 8.4 256.7-45.1zm132 14.6c-2.3-.8-4.5-1.6-6.7-2.4 2.2.8 4.4 1.6 6.7 2.4zm317.9 10.6l-4.9 1.4c-15.3 4.3-31.1 8.8-47 12-99.7 19.7-165.3 7.4-211.2-5.5-14-3.9-25.9-8-37.2-12.1-4.4-1.1-8.7-2.3-13.1-3.7.4.1.8.3 1.2.4 14.7 5.4 30 11 48.8 16.3 46.1 13 111.8 25.3 211.7 5.5 15.9-3.1 31.8-7.6 47.1-12l4.9-1.4C845.6 72 895.8 43.2 933.7 3.4c1.1-1.1 2.2-2.3 3.2-3.5h-1C898.6 40.2 847 70.6 784.1 88.4zM472.2 80c-2-.7-4-1.5-6-2.2-2.3-.8-4.5-1.6-6.7-2.4-5.3-1.9-10.6-3.7-15.9-5.4.8.4 1.7.8 2.5 1.2 2.7 1.2 5.4 2.3 8.1 3.4 5.4 1.9 10.8 3.9 16.4 5.9 4.4 1.4 8.7 2.6 13.1 3.7-3.9-1.5-7.7-2.9-11.5-4.2zm-360 44.1c99.9 3.5 165.9 5.8 253.1-41.1 66-.3 95.2 6.6 128.9 14.7 15.5 3.7 31.5 7.5 52.4 10.9l3.9.6c36.4 6.1 104.1 17.4 210.7-2.6 15.1-2.8 30.2-6.8 44.9-10.7 2.9-.8 5.9-1.6 8.8-2.3 65.3-17 117.9-46.2 156.5-86.8 2.2-2.3 4.3-4.6 6.3-6.9h-1.4c-38 42.5-93.3 74.9-161.7 92.7-2.9.8-5.9 1.5-8.8 2.3-14.6 3.9-29.7 7.9-44.8 10.7-106.4 19.9-174 8.7-210.4 2.6l-3.9-.6c-20.9-3.5-36.8-7.3-52.3-10.9-33.8-8-63-15-129.3-14.7h-.1l-.1.1c-87 46.8-152.9 44.5-252.7 41-31.3-1.1-66.8-2.3-106.7-2-1.8 0-3.7 0-5.5.1v1c1.8 0 3.7-.1 5.5-.1 39.9-.3 75.4.9 106.7 2zm36.2 15.6c94.5 2 162.8 3.5 247.9-36.8 41.3 4.2 68.1 5.3 89.6 6.2 30.5 1.3 50.6 2.1 86.4 11h.2c11.6-2 27.8-1.3 48.3-.4 39.7 1.8 94 4.3 169-9 14.5-2.6 29.2-6.2 43.4-9.7l12-3c68.4-16.6 125-46.9 163.7-87.7 3.2-3.4 6.3-6.9 9.3-10.4h-.8c-38.1 45-97.1 78.9-172.4 97.2l-12 3c-14.2 3.5-28.8 7.1-43.3 9.7-74.9 13.3-129.2 10.8-168.8 9-20.5-.9-36.7-1.7-48.4.4-35.8-9-56-9.8-86.5-11-21.5-.9-48.3-2-89.7-6.2h-.1l-.1.1c-84.9 40.2-153.2 38.8-247.6 36.8-33.7-.7-71.9-1.5-115.3-.5-11.3.2-22.3.9-33.1 1.8v1c10.8-1 21.8-1.6 33.1-1.8 43.3-1.2 81.5-.4 115.2.3zm38 15.4c92 .8 158.5 1.4 240.9-32.4 62.6 12.5 90.8 10.1 115.7 8 17.1-1.5 32-2.7 55.1.9h.2c13.3-5.2 34.1-5.2 63-5.2 37.7-.1 89.4-.2 157.2-11.6 14.2-2.4 28.5-5.7 42.4-9 4.9-1.1 9.8-2.3 14.7-3.4 72.4-16.3 131.5-46.9 171-88.5 4.3-4.5 8.3-9.2 12.1-13.9h-1.2c-38.4 47.3-101.2 83.2-182.1 101.4-4.9 1.1-9.9 2.3-14.7 3.4-13.9 3.2-28.2 6.6-42.3 9-67.8 11.4-119.4 11.5-157 11.6-28.8.1-49.7.1-63.2 5.3-23.2-3.6-38.7-2.3-55.2-.9-24.8 2.1-53 4.5-115.5-8h-.1l-.1.1c-82.3 33.8-148.7 33.2-240.6 32.4-36.6-.3-78.1-.7-125.7 1.2-21.2.8-41.4 2.9-60.7 6v1c19.4-3.2 39.6-5.3 60.8-6.1 47.2-2 88.7-1.7 125.3-1.3zm40.6 15.1c85.1-.2 152.4-.3 231.3-27.7 71.4 20.7 96.9 13.6 121.5 6.7 13-3.6 25.4-7.1 44.1-6.1h.2l.1-.1c14.2-9.1 39.5-10.1 77.7-11.4 35.6-1.3 84.4-3.1 145.3-12.8 13.9-2.2 28-5.3 41.7-8.3 5.6-1.2 11.4-2.5 17.1-3.7 76.4-16 138-46.9 178.2-89.3 5.4-5.6 10.3-11.5 14.8-17.4h-1.7c-38.5 49.7-105 87.6-191.5 105.8-5.7 1.2-11.5 2.5-17.1 3.7-13.7 3-27.8 6.1-41.7 8.3-60.9 9.7-109.6 11.5-145.2 12.8-38.2 1.4-63.5 2.3-78 11.5-18.8-.9-31.1 2.5-44.2 6.2-24.5 6.8-49.8 13.9-121.1-6.8h-.2l-.2.1c-78.8 27.2-146 27.3-231.1 27.5-40.2.1-85.8.2-138.6 3.2-31.4 1.7-60.8 6.2-88.4 12.8v1c27.7-6.6 57-11.1 88.4-12.8 52.9-3 98.4-3.1 138.6-3.2zm43.8 14.9c80.5-.9 144.1-1.6 218.5-22.8 77.3 28.8 100.5 16.5 123 4.6 10.9-5.8 21.2-11.3 37.4-12.4h.2l.1-.1c14.5-13.8 43.9-15.6 92.4-18.6 35.2-2.1 78.9-4.8 133.4-13.1 13.7-2.1 27.7-5 41.2-7.8 6.3-1.3 12.9-2.7 19.3-3.9 80.4-15.7 144.6-46.9 185.5-90.1 6.4-6.7 12.2-13.7 17.3-21h-1.1c-37.9 52.2-108.1 91.8-202 110.1-6.5 1.3-13 2.6-19.4 3.9-14.2 2.9-27.5 5.7-41.2 7.8-54.5 8.3-98.2 10.9-133.3 13.1-48.6 3-78.1 4.7-92.9 18.7-16.3 1.2-27.1 6.9-37.6 12.5-22.3 11.8-45.3 24-122.3-4.7l-.2-.1h-.2c-74.4 21.2-138 21.9-218.4 22.8-44.6.5-95.2 1.1-154.8 5.4-41.9 2.9-80.4 10.8-116 21.9v1.1c35.6-11.1 74.1-19.1 116.1-22 59.9-4.3 110.4-4.8 155-5.3zm48.2 14.5c71.3-1.2 132.8-2.3 201.4-17.5 82.1 36.9 102.8 19.3 122.9 2.2 8.8-7.5 18-15.3 32.4-18.3h.2l.1-.2c14.3-19.1 49.3-21.8 107.2-26.4 32.6-2.5 73.1-5.7 121.5-12.7 13.5-2 26.8-4.5 40.9-7.3 7-1.4 14.2-2.8 21.4-4.1 51.2-9.3 95.7-24.4 132.5-45 34.7-19.4 61.7-43.1 80-70.5h-1.2c-37.8 55.9-112.8 96.5-211.5 114.5-7.2 1.3-14.4 2.7-21.4 4.1-14.1 2.7-27.3 5.3-40.9 7.3-48.4 7-88.9 10.1-121.4 12.7-58.1 4.5-93.2 7.3-107.8 26.6-14.5 3.1-23.7 10.9-32.6 18.5-9.9 8.5-20.2 17.2-37.9 19-19.9 2.1-47.4-5-84.1-21.5l-.2-.1h-.2c-68.6 15.2-130.1 16.3-201.4 17.5-50.2.9-107 1.8-175.4 7.9C90.8 211.1 43.3 223.4 0 240v1.1c43.3-16.6 90.9-29 143.7-33.5 68.4-6.1 125.2-7.1 175.3-8zm54.1 14.3c63.1-1.2 117.7-2.3 178.4-12 39.3 20.5 66.8 28.5 86.5 25.3 17.6-2.8 26.7-14.4 35.4-25.7 7.5-9.5 15.2-19.4 28.1-24.1l.2-.1.1-.2c13.7-24.9 52.2-28.3 122-34.6 29.8-2.7 66.9-6 109.6-11.8 13.4-1.8 26.7-4.3 40.7-6.9 7.6-1.4 15.5-2.9 23.4-4.2 105.3-17.9 183.9-60 221.3-118.7.2-.4.5-.7.7-1.1h-1.2c-.1.2-.2.4-.4.6C1180.7 59 1102.3 101 997.3 118.8c-7.9 1.3-15.7 2.8-23.4 4.2-14 2.6-27.2 5-40.6 6.9-42.6 5.8-79.7 9.2-109.5 11.8-70.1 6.3-108.8 9.7-122.8 34.9-13.1 4.8-20.8 14.8-28.3 24.3-18 23-35.1 44.8-120.9 0l-.1-.1h-.2c-60.7 9.7-115.3 10.8-178.4 12-57.1 1.1-121.9 2.4-201.8 10.8-64 6.6-120.6 24.4-171.3 47.2v1.1c50.7-22.8 107.3-40.7 171.4-47.2 79.8-8.4 144.5-9.7 201.7-10.8zm62.1 14.2c50-.7 97.2-1.4 147.3-6.4 42.4 24.9 71.1 34 90.3 28.6 15.7-4.4 23.2-18.2 30.4-31.6 6.2-11.5 12.6-23.4 24.2-29.8l.2-.1.1-.2c12.6-31.1 56.7-35.4 136.9-43.1 28.3-2.7 60.5-5.9 97.6-10.7 13.4-1.7 26.5-4 40.5-6.5 8.2-1.4 16.7-2.9 25.3-4.3 111.2-17.6 192.8-60.7 229.6-121.4.6-.9 1.1-1.8 1.6-2.7h-1.2c-.4.7-.9 1.5-1.3 2.2-36.7 60.4-118 103.4-228.9 120.9-8.5 1.4-17 2.8-25.3 4.3-14 2.4-27.1 4.7-40.5 6.5-37.1 4.8-69.2 8-97.6 10.7-80.4 7.8-124.7 12.1-137.7 43.6-11.8 6.6-18.2 18.5-24.5 30.1-7.4 13.8-14.5 26.9-29.8 31.1-18.9 5.3-47.4-3.8-89.6-28.6l-.1-.1h-.2c-50.2 4.9-97.4 5.6-147.4 6.4-66.1 1-141.1 2.1-236.3 13.7-75.4 8.9-141 33.4-198.8 62.8v1.1c57.8-29.4 123.5-54 199-62.9 95.2-11.5 170.1-12.6 236.2-13.6zm73.3 14.8c35.7 0 69.4 0 105-1.3 43.6 28.3 72.6 38.7 91.1 32.6 15.7-5.2 21.7-21.3 28-38.2 5-13.5 10.1-27.4 20.6-35.5l.1-.1v-.2c11.2-37.7 58.2-42.4 151.8-51.9 25.2-2.5 53.7-5.4 85.6-9.4 13.3-1.7 26.4-3.8 40.4-6.1 8.8-1.4 18-2.9 27.1-4.3 117-17.3 201.5-61.3 237.8-123.9.9-1.5 1.7-3.1 2.6-4.6h-1.1c-.7 1.4-1.5 2.7-2.3 4.1-36.2 62.3-120.4 106.1-237.1 123.4-9.2 1.4-18.3 2.9-27.1 4.3-13.9 2.3-27.1 4.4-40.3 6.1-31.9 4-60.4 6.8-85.6 9.4-45.6 4.6-81.5 8.2-106.6 15.4-26.3 7.5-40.5 18.9-45.9 37-10.6 8.3-15.8 22.3-20.8 35.8-6.2 16.8-12.1 32.6-27.3 37.6-18.2 6-46.9-4.3-90.4-32.5l-.1-.1h-.2c-35.7 1.3-69.4 1.3-105.2 1.3-81.6 0-166 0-282 16-87.2 11.7-161.9 43.9-226.5 80v1.1c64.7-36.2 139.4-68.5 226.7-80.2 115.8-15.8 200.2-15.8 281.7-15.8zm166.4 38.2c1 .6 2 1.2 3 1.7-.7-.6-1.5-1.1-2.2-1.7h-.8zm413.7-149.2c-9.8 1.4-19.5 2.9-29 4.3-13.9 2.1-27 4.2-40.2 5.7-26.9 3.2-51.7 5.7-73.6 8-105 10.8-157.8 16.2-167.5 61.3-9.5 9.9-13.5 26-17.3 41.5-4.9 19.9-9.6 38.6-24.9 44.3-12.7 4.7-31.4 0-57.5-15 1.9 1.5 3.9 2.9 5.8 4.3 23.2 12.3 40.2 16 52.1 11.6 15.8-5.9 20.5-24.9 25.5-45 3.8-15.4 7.8-31.4 17.2-41.1l.1-.1v-.1c9.5-44.5 62.1-49.9 166.7-60.7 21.9-2.3 46.7-4.8 73.7-8 13.2-1.6 26.4-3.6 40.3-5.7 9.4-1.5 19.2-3 29-4.3 62.6-8.6 116.1-24.5 158.9-47.2 40.5-21.5 69.8-48 87-78.9 1.2-2.2 2.4-4.4 3.5-6.7h-1.1c-1 2.1-2.1 4.1-3.2 6.2-36 64-123.1 108.7-245.5 125.6zM596.7 260c15.6.5 31.7 1 47.9 1.4 10.2 7.2 19.6 13.4 28.3 18.6.8.1 1.5.1 2.3.2-9.1-5.4-19.1-11.9-30.1-19.7l-.1-.1h-.2c-16.2-.4-32.4-.9-48-1.4-102.1-3.1-198.6-6.1-342.6 16-99.3 14.8-183 56.1-254.2 98.7v1.2c71.2-42.7 155-84 254.3-98.9 143.9-22.1 240.3-19.2 342.4-16zm79.4 20.3l-.1-.1h-.1c-.2 0-.5 0-.7-.1 1.1.7 2.3 1.3 3.4 1.9-.9-.5-1.7-1.1-2.5-1.7zM1284 88.7c-44.2 23.1-99.6 39.1-164.9 47.5-10.4 1.3-20.8 2.9-30.8 4.3-13.9 2-27 3.9-40.1 5.4-22.1 2.5-43.1 4.6-61.6 6.6-116.3 11.9-174.7 18-182.5 70.3-8.5 11.6-11.3 29.6-14 47.1-3.6 23.1-7 44.8-22.4 51.1-10.9 4.4-27.4.3-49.9-12.5 1.9 1.5 3.8 2.9 5.6 4.3 19.7 10.4 34.3 13.3 44.7 9.1 16-6.4 19.4-28.5 23-51.8 2.7-17.4 5.5-35.4 13.9-46.8l.1-.1v-.1c7.6-51.7 65.8-57.6 181.6-69.5 18.5-1.9 39.5-4.1 61.6-6.6 13.2-1.5 26.3-3.4 40.2-5.4 10-1.5 20.4-3 30.8-4.3 65.4-8.4 121-24.4 165.2-47.6 41.9-21.9 71.7-49.1 88.5-80.7 1.6-2.9 3-5.9 4.3-8.9h-1.1c-1.3 2.8-2.6 5.6-4.1 8.4-16.8 31.4-46.4 58.4-88.1 80.2zm-579 212c-.8-.1-1.6-.2-2.5-.4 5.3 3.5 10.3 6.6 15 9.2-2.1-1.6-4.2-3.2-6.3-5-1.9-1.1-4-2.4-6.2-3.8zm-30.1-19.6c-.7-.4-1.3-.8-2-1.2-121-10.2-227.2-15.6-391.1 12.1C170.2 310.5 77.3 362 0 410.3v1.2c77.4-48.4 170.3-100 282-118.5 164.7-27.9 271.1-22.2 392.9-11.9zm9.4 5.3c-2.1-1.1-4.2-2.3-6.4-3.5 8.1 6.1 15.7 11.5 22.8 16.2l2.4.3c-6-3.9-12.2-8.2-18.8-13zm-5.8-4.4c-1.1-.6-2.2-1.3-3.4-1.9-.8-.1-1.5-.1-2.3-.2.7.4 1.3.8 2 1.2.3 0 .5 0 .8.1.8.6 1.5 1.1 2.2 1.7 2.2 1.2 4.3 2.4 6.4 3.5-1.8-1.4-3.7-2.9-5.7-4.4zm54.4 37.8c-.8-.2-1.6-.3-2.4-.5 9.4 6.8 17.9 12.3 25.6 16.6-1.9-1.5-3.8-3-5.7-4.6-5.5-3.3-11.3-7.1-17.5-11.5zm28.6 17.8c-1.7-.9-3.4-1.8-5.2-2.8.9.7 1.9 1.5 2.8 2.2l2.4.6zm-58.9-37.2c-.6-.4-1.3-.9-1.9-1.3-114.8-16.3-226.2-20.5-391.2 10.1C185.2 331.6 82.9 394.8 0 447.6v1.2C83 396 185.3 332.7 309.6 310.2c165.9-30.8 277.5-26.3 393-9.8zm20.8 12.4c-1.9-1-3.8-2.1-5.8-3.2 3.8 2.9 7.4 5.7 11 8.3.8.2 1.6.3 2.4.5-2.5-1.8-5-3.7-7.6-5.6zm597.3-220c-45.6 23.5-103.2 39.6-171.1 47.7-11.1 1.3-22.1 2.8-32.7 4.3-13.8 1.9-26.9 3.7-40 5.1-17.5 1.9-33.8 3.5-49.6 5.1-65.4 6.6-112.7 11.4-145.1 22.1-33.9 11.2-49.6 28.2-52.3 57.1-7.4 13.2-9.1 33.3-10.7 52.7-2.2 26.4-4.2 51.3-19.8 57.9-6.6 2.8-15.4 2.1-26.6-2.2.7.7 1.5 1.3 2.2 2 10.2 3.5 18.4 3.9 24.8 1.1 16.1-6.9 18.2-32.1 20.4-58.7 1.6-19.4 3.2-39.4 10.6-52.4l.1-.2c2.7-28.5 18.1-45.3 51.6-56.3 32.3-10.6 79.5-15.4 144.9-22 15.8-1.6 32.1-3.3 49.6-5.1 13.1-1.4 26.2-3.2 40-5.1 10.6-1.5 21.6-3 32.7-4.3 68.1-8.2 125.7-24.3 171.4-47.8 42.6-22 73.8-50.5 90.1-82.4 1.9-3.7 3.6-7.5 5.1-11.3h-1.1c-1.5 3.6-3.1 7.3-4.9 10.8-16.2 31.7-47.2 60-89.6 81.9zM770 341.6c-1.3-.6-2.7-1.2-4.1-1.8-1.6-.4-3.3-.8-4.9-1.3l.3.3c3.9 2 7.6 3.7 11.1 5-.8-.7-1.6-1.4-2.4-2.2zM706.7 301c1.5 1.3 3.1 2.5 4.6 3.7 2.2 1.3 4.4 2.6 6.5 3.8-3.4-2.7-6.9-5.4-10.5-8.4l-.1-.1h-.1c-1.3-.2-2.6-.4-4-.6.7.4 1.3.9 2 1.3.5.1 1 .2 1.6.3zm-3.7-1.6l-2.4-.3c.7.4 1.3.9 1.9 1.3.8.1 1.6.2 2.5.4-.6-.5-1.3-.9-2-1.4zm14.8 9.1c-2.1-1.2-4.3-2.5-6.5-3.8 2.1 1.7 4.2 3.4 6.3 5 2 1.1 3.9 2.2 5.8 3.2-1.8-1.5-3.7-3-5.6-4.4zm-380.6 18.7c152.1-30.6 266.7-32.9 393.3-7.9-.6-.5-1.3-.9-1.9-1.4-125.8-24.6-240.1-22.1-391.5 8.3-126.5 24.9-231.6 91.6-316 145.3-7.1 4.5-14.2 9-21.1 13.4v1.2c7.1-4.5 14.3-9 21.6-13.7 84.3-53.6 189.3-120.3 315.6-145.2zm400.6-6.4c4.3 3.7 8.5 7.3 12.6 10.6 2 1.2 4 2.4 5.9 3.5-5.7-4.5-11.7-9.5-17.9-14.9l-.1-.1h-.1c-2.4-.5-4.8-1-7.1-1.4.7.5 1.3.9 2 1.4 1.4.2 3.1.5 4.7.9zM1180 144.9c-11.7 1.3-23.3 2.8-34.6 4.3-13.8 1.8-26.8 3.5-39.8 4.8-13.1 1.3-25.6 2.6-37.5 3.8-71.7 7.1-123.5 12.2-158.3 24-36.3 12.3-52.5 31.4-54.1 64-6.4 14.8-6.9 36.9-7.4 58.4-.7 29.7-1.4 57.8-17.1 64.8-5.5 2.4-12.6 2.1-21.6-.9.7.6 1.3 1.2 1.9 1.8 8.1 2.4 14.8 2.4 20 .1 16.3-7.2 17-35.6 17.7-65.7.5-21.3 1-43.4 7.4-58.1v-.2c3.2-66.5 68.5-73 211.6-87.2 12-1.2 24.5-2.4 37.5-3.8 13-1.3 26.1-3 39.9-4.8 11.2-1.5 22.8-3 34.5-4.3 137.3-15.4 235.4-63.5 269.3-132.1 2.2-4.6 4.2-9.2 5.8-13.8h-1.1c-1.6 4.5-3.5 9-5.7 13.4-33.6 68.2-131.5 116.2-268.4 131.5zM807.1 367.1c-4-1.6-8.4-3.6-13.2-6.2 1.5 1.2 3.1 2.5 4.5 3.6 3.8 1.9 7.4 3.4 10.7 4.5-.6-.6-1.3-1.2-2-1.9zm-21.5-11.2c-1.2-.4-2.5-.7-3.7-1.1 4.2 2.8 8.2 5.2 12 7.3-1.7-1.4-3.4-2.8-5.2-4.3-1.1-.6-2.1-1.2-3.1-1.9zm-29.5-20c.2.2.4.3.6.5.2 0 .3.1.5.1-.4-.2-.8-.4-1.1-.6zm5.2 2.9l-.6-.3c-.7-.2-1.5-.4-2.2-.5 7.4 5.8 14.2 10.8 20.5 15.1 1.1.3 2.3.7 3.4 1-6.4-4.4-13.5-9.4-21.1-15.3zM731 318.4c-.8-.2-1.6-.3-2.4-.5.6.5 1.3.9 1.9 1.4.8.2 1.6.3 2.4.5-.6-.5-1.3-1-1.9-1.4zm29.7 20.1l.6.3-.3-.3h-.3zM759 337c-.9-.7-1.9-1.5-2.8-2.2-1.9-1.1-3.9-2.2-5.9-3.5 1.9 1.6 3.8 3.1 5.7 4.6.4.2.7.4 1.1.6.7.2 1.3.3 1.9.5zm71.3 49.2l.2.2c.1 0 .2.1.3.1-.2-.1-.3-.2-.5-.3zm-61.5-45.6c.4.4.8.7 1.2 1.1.9.4 1.8.7 2.7 1.1l-3.3-3-.1-.1h-.1c-2.6-.7-5.1-1.3-7.7-2 1.5.8 3 1.5 4.4 2.2 1 .2 1.9.4 2.9.7zm16.1 14.1c.8.2 1.6.5 2.4.7-4-3.3-8.1-6.9-12.3-10.7-.8-.3-1.7-.6-2.5-.9 4.2 3.8 8.4 7.5 12.4 10.9zm425.6-205.4c-12.4 1.3-24.7 2.8-36.5 4.2-13.7 1.7-26.7 3.3-39.6 4.5l-13 1.3c-80.5 7.8-138.6 13.4-176.5 26.4-38.8 13.3-57.2 34-63.5 71.6-2.4 14.3-1.5 33.4-.6 53.6 1.6 36.2 3.3 73.7-14.8 82.2-4 1.9-8.8 2.3-14.4 1.3 1.1.5 2.3.9 3.4 1.4 4.4.3 8.2-.2 11.5-1.8 18.8-8.8 17.1-46.6 15.4-83.2-.9-20.2-1.8-39.2.6-53.4 6.2-37.2 24.4-57.7 62.8-70.8 37.8-12.9 95.9-18.6 176.3-26.4l13-1.3c13-1.3 25.9-2.8 39.7-4.5 11.8-1.4 24.1-2.9 36.5-4.2 142.6-14.9 243.5-63.6 277-133.8 2.6-5.4 4.7-10.9 6.4-16.5h-1c-1.7 5.4-3.8 10.8-6.3 16-33.6 70-134.2 118.5-276.4 133.4zm-412 215.2c-1.5-.7-3-1.6-4.6-2.4 3.2 2.6 6.3 5 9.3 7.3 1 .3 1.9.6 2.9.9-2.5-1.8-5-3.8-7.6-5.8zm-11.7-8.2l1.8 1.5c1.8 1.1 3.6 2.1 5.3 3.1-1.5-1.2-3.1-2.5-4.7-3.8-.8-.3-1.6-.6-2.4-.8zm56.6 35.9c-.2-.1-.5-.2-.7-.3l-2.4-.9c-2.5-1-5-1.9-7.5-2.8.4.3.8.6 1.2 1 4 2 7.7 3.5 11.1 4.6-.6-.6-1.2-1.1-1.7-1.6zm7.7 3.1c-1.7-.7-3.5-1.4-5.3-2.1.4.4.9.8 1.3 1.2 1.4.4 2.7.7 4 .9zm-486.2-51c158.8-34.4 273.9-36.4 393.7-6.4-.6-.5-1.3-1-1.9-1.5-119.2-29.5-233.9-27.3-392 6.9-124.3 26.4-229 92.8-313.2 146.2-17.8 11.3-35 22.2-51.5 32.1v1.2c16.6-10 34-21 52-32.5 84.1-53.3 188.8-119.7 312.9-146zm460.6 39.1c-5.2-3.1-10.9-6.9-16.9-11.3-1-.3-2-.7-3-1 7.3 5.4 14 9.9 20.1 13.5.7.2 1.4.5 2.1.7-.8-.5-1.6-1.2-2.3-1.9zm-53.1-39.6c.9.3 1.7.6 2.5.9-.7-.7-1.5-1.3-2.2-2-.9-.3-1.8-.7-2.7-1.1.8.8 1.6 1.5 2.4 2.2zm-11.4-5.3c1.6.4 3.3.8 4.9 1.3-1.4-.7-2.9-1.4-4.4-2.2l-2.4-.6c.6.5 1.3 1 1.9 1.5zm32.9 22.4c-1.7-.9-3.5-2-5.3-3.1 1.8 1.5 3.5 2.9 5.2 4.3 1.6.9 3.1 1.7 4.6 2.4-1.4-1.2-2.9-2.4-4.5-3.6zm-36.8-24.4c-.2 0-.3-.1-.5-.1.6.5 1.3 1 1.9 1.5.7.2 1.5.4 2.2.5-1.2-.5-2.4-1.2-3.6-1.9zm1.9.5c-.6-.2-1.3-.3-1.9-.5 1.2.7 2.4 1.3 3.6 1.9.1 0 .2 0 .3.1-.6-.5-1.3-1-2-1.5zm25.9 17.7c-.8-.2-1.6-.5-2.4-.7 1 .7 2 1.3 3 1.9.4.1.8.3 1.3.4-.6-.5-1.2-1.1-1.9-1.6zm-392.4 6.7c161.3-37.5 275.9-39.6 389.3-6.6-.9-.6-1.8-1.2-2.8-1.8-112.6-32.2-226.7-29.7-386.8 7.4-122 27.8-226.4 93.9-310.3 147-29.1 18.4-56.7 35.9-82 49.8v1.1c25.4-14 53.2-31.6 82.5-50.1 84-53 188.3-119 310.1-146.8zM841.1 396c.8.6 1.5 1.1 2.3 1.7 1.1.4 2.1.7 3.1 1.1-.9-.6-1.8-1.3-2.7-2-.9-.2-1.8-.5-2.7-.8zm37.9 21c-3.9-1.2-8.1-3-12.7-5.5 1.1.9 2.1 1.8 3.2 2.7 3.9 1.9 7.6 3.3 11 4.2-.5-.5-1-.9-1.5-1.4zm13.3 2.5h.2c-.5-.3-1.1-.5-1.6-.8h-.5c.6.3 1.3.6 1.9.8zm-58.4-30.4c-1.1-.6-2.3-1.2-3.5-1.8-.2-.1-.3-.1-.5-.2 3.1 2.6 6.2 5 9.2 7.3.9.3 1.8.5 2.6.8-2.5-1.9-5.2-3.9-7.8-6.1zm-16.4-13.9c-.8-.3-1.7-.6-2.5-.9 3.6 3.2 7 6.2 10.4 9.1 1.6 1 3.3 1.9 4.8 2.8-4-3.4-8.3-7.1-12.7-11zm43 34.1c1.8 1.1 3.5 2 5.2 2.9-.8-.7-1.7-1.4-2.5-2.2-.9-.2-1.8-.4-2.7-.7zm569.7-304c-49.9 24.7-113.5 40.9-189.3 48.3-13.1 1.3-26 2.8-38.5 4.2-13.6 1.6-26.5 3-39.4 4.2l-4.3.4c-85.9 7.9-148 13.7-187.8 27.7-40.7 14.3-59.2 37.1-63.8 78.7-1.7 15.6 0 36.4 1.8 58.5 3.3 39.8 6.7 81-11.5 89.8-.9.5-1.9.8-3 1.1.4.2.8.5 1.2.7.8-.2 1.5-.5 2.2-.9 18.9-9.1 15.4-50.6 12.1-90.8-1.8-22-3.5-42.8-1.8-58.3 9.3-83.2 75-89.2 250.7-105.5l4.3-.4c12.9-1.2 25.7-2.7 39.4-4.2 12.5-1.4 25.4-2.9 38.5-4.2 75.9-7.4 139.7-23.6 189.6-48.4 46.5-23 79.3-53.1 94.9-87 2.9-6.3 5.2-12.7 6.9-19.2h-1c-1.7 6.3-4 12.6-6.8 18.8-15.5 33.7-48.1 63.6-94.4 86.5zm-581 295.5c-1.1-.4-2.2-.8-3.4-1.2 4.3 3.1 8.4 5.9 12.3 8.3 1.1.3 2.2.6 3.4.9-3.9-2.3-8-5-12.3-8zm-36-28.1c.8.3 1.6.6 2.4.8-1.4-1.2-2.7-2.5-4.1-3.7-.7-.2-1.5-.5-2.3-.7 1.3 1.2 2.7 2.4 4 3.6zm80.4 46.2l.1.1.3.3c.1 0 .2-.1.3-.1-.4-.3-.9-.5-1.3-.7-.1 0-.2 0-.3.1.3 0 .6.2.9.3zm-93.7-58.5c2.5 2.3 4.9 4.6 7.2 6.8l2.4.9c-2.9-2.7-6-5.5-9.1-8.5l-.2-.1c-4.3-1.4-8.7-2.8-13-4.1.7.6 1.3 1.1 2 1.6 3.6 1.1 7.1 2.2 10.7 3.4zm90.6 59.3c-.8-.3-1.5-.6-2.3-1-2.2-.1-4.6-.5-7.2-1.2.5.5.9.9 1.4 1.3 2.5.6 4.8.8 7 .8.4.1.8.1 1.1.1zm-108-65.7c-1.1-.3-2.3-.7-3.4-1 .9.6 1.9 1.2 2.8 1.8 1.2.4 2.5.7 3.7 1.1-1-.6-2.1-1.3-3.1-1.9zm26.7 15.1c.8.3 1.5.5 2.3.7-.6-.6-1.3-1.2-1.9-1.8l-2.4-.9c.6.7 1.3 1.3 2 2zm21.1 17.1c-1.6-.9-3.2-1.8-4.8-2.8.8.7 1.6 1.3 2.4 2l2.7.9c-.2 0-.3-.1-.3-.1zm.1 1.1c1.2.6 2.3 1.2 3.5 1.8-.4-.3-.8-.6-1.2-1-.8-.2-1.5-.5-2.3-.8zm-43.6-31c.8.2 1.6.5 2.4.7-.7-.5-1.3-1.1-2-1.6-.8-.2-1.6-.5-2.4-.7.8.5 1.4 1.1 2 1.6zm77.4 54.1c.7.4 1.4.8 2.1 1.1-.3-.3-.6-.5-1-.8-.3-.1-.7-.2-1.1-.3zm-51-37.7l-7.2-2.4c.9.6 1.7 1.2 2.5 1.9 2.2.7 4.3 1.5 6.5 2.2-.6-.6-1.2-1.2-1.8-1.7zm653.4-263.1c-51.3 25-117 41.3-195.2 48.4-13.8 1.2-27.4 2.7-40.6 4.1-13.5 1.5-26.3 2.8-39 4-89.4 7.9-154 13.6-195.7 28.9-41.9 15.4-60.2 40.1-63.1 85.3-1.1 17 1.5 39.6 4.3 63.5 4.8 42 9.8 85.4-6.4 96.2l.9.6c16.3-11.6 11.4-54.9 6.5-96.9-2.7-23.9-5.3-46.4-4.3-63.3 2.9-44.7 20.9-69.2 62.4-84.4 41.6-15.3 106.2-21 195.5-28.9 12.7-1.1 25.5-2.5 39-4 13.1-1.4 26.7-2.9 40.6-4.1 78.4-7.1 144.2-23.4 195.6-48.5 47.8-23.3 81.1-53.9 96.5-88.5 3.2-7.2 5.6-14.6 7.3-22h-1c-1.6 7.3-4 14.5-7.2 21.6-15.4 34.4-48.6 64.8-96.1 88zM924.7 443.4c-.8-.3-1.6-.5-2.4-.8-1.9.1-4-.1-6.2-.6l1.2 1.2c2.7.4 5.2.5 7.4.2zm1.6-.3c.6-.1 1.1-.3 1.7-.5-.3-.2-.6-.5-1-.8-.8.3-1.7.5-2.7.6.7.2 1.3.5 2 .7zm-95.4-62.9c3.6 3.6 7.1 7 10.6 10.3.8.3 1.6.6 2.4 1-4-3.8-8.1-7.8-12.4-12l-.2-.1c-5.2-2-10.5-3.9-15.8-5.8.6.6 1.3 1.2 1.9 1.7 4.6 1.5 9.1 3.1 13.5 4.9zm97.2 61.2c.3.2.6.5.9.7.2-.1.4-.1.5-.2.3-.1.6-.3.9-.5-.4-.2-.7-.4-1.1-.5-.1 0-.1.1-.2.1-.3.2-.7.3-1 .4zm-73-38.4c2.3 2 4.5 4 6.7 5.9.7.2 1.5.4 2.2.6-2.1-1.8-4.1-3.6-6.3-5.5-.9-.3-1.8-.7-2.6-1zm-1.8-2.9l-2.4-.9c.7.7 1.5 1.4 2.2 2 .9.3 1.7.6 2.6 1l-2.4-2.1zm-6.2-5.7c-.7-.2-1.4-.4-2.2-.6 1.4 1.4 2.9 2.7 4.3 4 .8.3 1.6.5 2.3.8-1.4-1.4-2.9-2.8-4.4-4.2zm52.4 42c.6.3 1.2.7 1.8 1-.3-.3-.6-.5-.9-.8-.3 0-.6-.1-.9-.2zm-254.8-91h-.9c-64.7.1-135.8 10.3-223.9 32.1-119.7 29.2-223.8 94.9-307.4 147.8C79.4 546.2 48.2 565.9 20 581l.5.9c28.3-15.1 59.5-34.8 92.6-55.7 83.5-52.8 187.5-118.5 307.1-147.7 162.6-40.3 276.8-42.8 385.4-7.3l-2.4-1.8c-50.6-16.1-102.7-24-158.5-24zM898 434.5c-5.1-2.9-10.6-6.6-16.6-11l-2.4-.6c6.6 5 12.7 9.1 18.2 12.3.7.1 1.3.3 2 .4-.4-.4-.8-.7-1.2-1.1zm16.3 7.1c-3.4-.9-7.1-2.3-11.2-4.3-.2-.1-.4-.1-.7-.2.8.7 1.6 1.3 2.3 2 3.9 1.8 7.5 3 10.8 3.8-.4-.5-.8-.9-1.2-1.3zm-44.7-27.4c-1.3-.6-2.6-1.3-3.9-2 3.9 3.3 7.6 6.3 11.2 9 .8.2 1.6.4 2.3.6-3.1-2.3-6.3-4.8-9.6-7.6zM806 370.3c-1-.3-1.9-.6-2.9-.9l2.4 1.8c1 .3 2 .6 3 1-.8-.7-1.6-1.3-2.5-1.9zm39 23.4c.7.2 1.4.4 2.2.6-.4-.4-.9-.8-1.3-1.2-.8-.3-1.7-.6-2.5-1 .5.6 1.1 1.1 1.6 1.6zm21.4 17.8c-.7-.4-1.4-.7-2.1-1.1-.4-.1-.7-.2-1.1-.3.9.7 1.7 1.5 2.5 2.2 1.3.7 2.6 1.4 3.9 2-1.1-1-2.2-1.9-3.2-2.8zm-51.3-37.1c.8.3 1.7.6 2.5.9-.6-.6-1.3-1.2-1.9-1.7-.8-.3-1.6-.6-2.4-.8.5.4 1.1 1 1.8 1.6zm150.5 88.2c-.3-.2-.5-.4-.8-.6l-.5.5c.3.1.7.3 1 .4l.3-.3zm-3.3 2.7c-.3-.2-.5-.4-.8-.7-.2.1-.4.2-.7.4-.3.2-.6.3-1 .4.3.2.6.5 1 .7.1-.1.3-.1.4-.2.4-.2.8-.4 1.1-.6zm-136.6-80.6c-48.1-16.5-98.3-24.5-152.5-24.6h-.1c-64.5 0-136.1 11-225.5 34.5-117.5 30.4-221 95.9-304.3 148.5-35.4 22.4-68.8 43.5-98.8 59.2l.5.9c30-15.7 63.5-36.8 98.8-59.2 83.2-52.6 186.7-118 304-148.4 163.2-42.9 277.1-45.9 382.1-8.4-.1-.1-.2-.2-.3-.2-1.3-.8-2.6-1.5-3.9-2.3zm111.4 77c.6.6 1.3 1.1 1.9 1.7 1 .2 2 .4 3 .5-1.5-.7-3.2-1.4-4.9-2.2zM862 400c1.3 1.4 2.7 2.7 4 4.1.8.3 1.6.7 2.4 1-1.9-1.9-3.8-3.8-5.7-5.8l-.2-.1c-2.5-1.1-5-2.2-7.6-3.3-1.2-.1-2.5-.3-3.8-.5 3.6 1.4 7.3 3 10.9 4.6zm16.4 15c-.8-.3-1.5-.5-2.3-.8 1 .9 1.9 1.9 2.9 2.8.7.2 1.4.4 2 .6-.8-.9-1.7-1.7-2.6-2.6zm-26.9-20.6c-2.5-1-5-2-7.6-3 .6.5 1.1 1 1.7 1.6 2.1.6 4 1.1 5.9 1.4zm20.2 15.4c1.1 1.1 2.1 2.1 3.2 3.1.7.2 1.5.5 2.2.7-.9-.9-1.8-1.8-2.8-2.7-.9-.3-1.7-.7-2.6-1.1zm91.5 55c.4-.3.8-.6 1.1-.9-.4-.1-.7-.3-1.1-.4l-.9.6c.4.2.6.4.9.7zm-9.2 2.7h.4c-4.1-.9-8.1-1.8-12.2-2.5 4.4 1.6 8.4 2.5 11.8 2.5zm548.9-353.6c-52.7 25.4-120.3 41.7-201.1 48.4-14.6 1.2-28.9 2.7-42.7 4.1-13.4 1.4-26 2.6-38.6 3.7-97.5 8.2-159.7 14.3-200.4 30.1-21.5 8.4-36.1 19.1-45.9 33.6-9.8 14.5-14.9 33.5-15.4 58-.4 18.4 3.1 42.8 6.7 68.7 5.9 41.7 12.1 84.6.6 100 .3.2.6.3.9.5 11.6-16 5.5-58.9-.5-100.6-3.7-25.8-7.2-50.2-6.7-68.5 1.1-48 18.7-74.3 60.7-90.7 40.5-15.8 102.6-21.9 200.1-30.1 12.6-1.1 25.2-2.3 38.6-3.7 13.8-1.4 28.1-2.9 42.7-4.1 80.9-6.8 148.7-23.1 201.5-48.5 49-23.6 83-54.7 98.2-89.8 3.5-8.2 6-16.5 7.6-24.9h-1c-1.5 8.3-4 16.5-7.5 24.5-15.2 34.9-49 65.8-97.8 89.3zm-583.1 337c-.7-.1-1.5-.3-2.2-.4 7 5.1 13.3 9.1 18.9 11.9-1-.8-1.9-1.7-2.9-2.6-4.3-2.4-8.8-5.3-13.8-8.9zm-15-11.8c-1.1-.5-2.3-1.1-3.5-1.7 4.9 4.2 9.5 8 13.9 11.3.7.1 1.4.2 2.1.4-4-3-8.1-6.3-12.5-10zM872.3 409l-2.1-2.1c-.8-.4-1.7-.7-2.5-1.1l2.2 2.2c.8.3 1.6.7 2.4 1zm28.9 27c-3.7-3.2-7.5-6.6-11.5-10.3l-2.1-.6c3.6 3.3 7 6.4 10.4 9.4.8.5 1.6.9 2.3 1.3.3.1.6.2.9.2zm65.1 25.9l.2-.2c-.3-.2-.6-.3-.9-.5l-.1.1c.2.2.5.4.8.6zm-7.6 3.9c-1.2.4-2.5.6-3.9.6.9.2 1.9.4 2.8.7.7-.1 1.5-.3 2.2-.6-.4-.2-.8-.4-1.1-.7zm-76.2-46.9c-.6-.1-1.3-.3-1.9-.5 1.9 1.8 3.7 3.5 5.5 5.2l2.1.6c-2-1.7-3.8-3.5-5.7-5.3zM840.2 391l2.4.9c.2.1.5.2.7.3-.6-.6-1.2-1.2-1.9-1.8-3.6-1.4-7.1-2.7-10.7-4 3.4 1.8 6.5 3.4 9.5 4.6zm-12.4-5.6c-.7-.2-1.4-.5-2.1-.7 1.3.8 2.7 1.5 3.9 2.2l-1.8-1.5zm2.7 1c.7.6 1.5 1.2 2.2 1.8 2.5.9 5 1.8 7.5 2.8-3-1.2-6.1-2.7-9.4-4.5-.1-.1-.2-.1-.3-.1zm12.9 5.8c-.3-.1-.5-.2-.7-.3.2.1.4.2.7.3zm2.5 1c1.8.7 3.5 1.4 5.3 2.1 1.3.2 2.6.4 3.8.5-1.1-.5-2.3-1-3.4-1.4-1.9-.3-3.8-.8-5.9-1.5 0 .1.1.2.2.3zm-16.3-6.3c.1.1.2.2.3.2.2.1.3.1.5.2-.3-.1-.5-.2-.8-.4zm51.5 30.7c-.7-.2-1.3-.4-2-.6.5.5 1 1 1.5 1.4.7.2 1.3.3 1.9.5-.5-.4-1-.9-1.4-1.3zm-50.6-31.2l-2.7-.9 1.8 1.5c.3.1.5.3.8.4.8.3 1.5.6 2.3.8-.7-.6-1.5-1.2-2.2-1.8zm12.9 5.8c.8.3 1.5.5 2.2.7-.5-.5-1.1-1-1.7-1.6-.8-.3-1.6-.6-2.4-1 .6.7 1.2 1.3 1.9 1.9zm59.1 44.9c-.7-.2-1.4-.3-2.1-.5.3.3.6.5.9.8 1.2.6 2.4 1.2 3.5 1.7-.8-.6-1.5-1.3-2.3-2zm-4.5-2.6c.4.3.8.7 1.2 1 .4.1.8.2 1.1.2-.7-.3-1.5-.7-2.3-1.2zm-52.1-41.3c-.1-.1-.2-.2-.3-.2-.7-.2-1.5-.5-2.2-.7.8.2 1.6.6 2.5.9zm45 25.5c.6 0 1.2-.1 1.8-.2-6.8-3.4-13.6-6.5-20.4-9.5.7.6 1.3 1.3 1.9 1.9 5.6 2.5 11.2 5.1 16.7 7.8zm10.2 9.5c.7.2 1.4.5 2.1.7-2-2.1-4.1-4.3-6.2-6.5-.8-.4-1.6-.7-2.4-1.1 2.2 2.5 4.4 4.7 6.5 6.9zm-8.1-8.4l.1.1c.8.3 1.6.7 2.4 1-.5-.6-1-1.1-1.6-1.7-.5.1-1 .2-1.4.2.2.2.4.3.5.4zm32.1 32.2c2.9 2.7 5.8 5.3 8.5 7.8 1.2.7 2.4 1.3 3.6 1.9-3.3-2.9-6.7-6-10.2-9.2-.7-.2-1.3-.4-1.9-.5zm68.4 36.5c-.1 0-.1.1-.2.1.3.2.6.4.9.7.1-.1.2-.1.3-.2-.4-.2-.7-.4-1-.6zm-57-26.1c.2.2.5.4.7.6.3 0 .6.1.9.1-.5-.2-1.1-.5-1.6-.7zm-31.7-31.8c-.7-.3-1.4-.5-2.1-.7 2.9 3 5.7 5.9 8.5 8.7.6.2 1.3.3 1.9.5-2.7-2.8-5.5-5.6-8.3-8.5zm-83.9-39.9c-4.4-1-8.7-1.8-13.2-2.6 12.9 3.2 25.6 7 38.1 11.5-.8-.6-1.7-1.2-2.5-1.8-7.4-2.6-14.8-5-22.4-7.1zm179.6 91s0-.1 0 0c-.3-.2-.5-.4-.8-.5 0 0 0 .1-.1.1.3.1.6.2.9.4zm-83.2-38.5l-1.8-.3c2.6 2.6 5.1 5 7.6 7.4.6.1 1.2.3 1.9.4-2.5-2.4-5-4.9-7.7-7.5zm-45.6-33.4c-.6-.6-1.2-1.2-1.9-1.8-4.7-2-9.4-3.9-14.1-5.7.7.6 1.3 1.2 2 1.8 4.7 1.7 9.4 3.7 14 5.7zm85.8 68c-.7-.1-1.3-.2-2-.3 12.9 9.2 23.2 13.8 30.9 13.8 2.5 0 4.8-.5 6.7-1.5-.3-.2-.6-.5-.9-.7-7.5 3.5-19-.3-34.7-11.3zm-16.9-13.2c-.6-.1-1.2-.2-1.9-.3 5.6 4.8 10.8 8.9 15.6 12.4.6.1 1.3.2 1.9.2-4.8-3.4-10-7.5-15.6-12.3zm-87.5-63.3l-6.6-2.4c.9.7 1.8 1.3 2.7 1.9 2 .7 3.9 1.5 5.9 2.2-.7-.6-1.3-1.1-2-1.7zm61.2 38.9c-.7-.2-1.3-.4-2-.6.7.7 1.4 1.3 2 2 .6.2 1.2.3 1.8.4l-1.8-1.8zm81 47c-.3.2-.6.5-.9.7.3.2.6.4.9.5.2-.2.5-.4.7-.6-.1-.2-.4-.4-.7-.6zM702.6 374.9h-1c-64.2 0-136.1 11.7-226.3 36.8-115.2 31.6-214 94.1-301.1 149.2-37.7 23.9-73.4 46.4-105.2 62.7l.5.9c31.8-16.4 67.5-38.9 105.2-62.8 87-55 185.7-117.4 300.8-149 133.3-37.1 233.5-46.3 321.4-27.1 3.8.5 7.5 1.1 11.1 1.7-33.5-8.3-68.5-12.4-105.4-12.4zm836.6-256.7c-54.1 25.7-123.7 42-207 48.5-15.4 1.2-30.5 2.6-45.1 4-13.2 1.3-25.6 2.4-38 3.4-96.5 7.7-162.8 14-205 31.4-21.5 8.8-36.5 20.6-46 36-9.6 15.6-14 35.8-13.7 61.9.2 19.9 4.6 46.1 9.3 73.9 6.9 41.3 14 83.8 6.3 102.8.3.2.6.3.8.5 7.9-19.4.8-62-6.1-103.5-4.6-27.8-9-54-9.2-73.8-.6-51.3 16.5-79.4 59.1-96.9 42-17.3 108.3-23.6 204.7-31.3 12.4-1 24.8-2.2 38-3.4 14.6-1.4 29.6-2.8 45-4 83.4-6.5 153.1-22.8 207.3-48.5 50.3-23.9 84.8-55.5 99.8-91.2 3.8-9.1 6.4-18.4 7.6-27.9h-1c-1.3 9.3-3.8 18.5-7.6 27.5-14.8 35.4-49.1 66.8-99.2 90.6zM996.1 486.5c.2.2.5.4.7.7.2-.2.3-.4.5-.6-.3-.1-.7-.2-1-.3l-.2.2zm3.8-3.7c0-.1.1-.1.1-.2-.2-.1-.5-.2-.7-.3.2.2.4.3.6.5zm-2 3.1c.5-.7 1.1-1.4 1.5-2.2-.3-.2-.5-.4-.8-.6-.5.9-1.1 1.8-1.8 2.5.4.1.8.2 1.1.3zm-105.4-66.4c.5-.1 1-.1 1.4-.2l-.3-.3-.1-.1c-.3-.1-.6-.3-.8-.4-.6.1-1.2.2-1.8.2.5.3 1.1.5 1.6.8zm-46-20.7c-1-.4-2.1-.7-3.1-1.1.8.6 1.7 1.2 2.5 1.8 1.1.4 2.2.8 3.4 1.2-1-.5-1.9-1.2-2.8-1.9zm69.6 43.2c-.6-.1-1.2-.3-1.8-.4.4.4.9.8 1.3 1.3l1.8.3c-.5-.4-.9-.8-1.3-1.2zm-60.4-39.8c-.9-.3-1.7-.7-2.6-1 .6.6 1.3 1.1 1.9 1.7.9.3 1.7.7 2.6 1-.6-.5-1.2-1.1-1.9-1.7zm83.4 61.1c-.6-.5-1.3-1.1-1.9-1.7-1.2-.6-2.4-1.2-3.6-1.9 1 .9 2 1.7 2.9 2.6.5.3 1.1.5 1.6.8.3.1.6.1 1 .2zm-67.4-53.5c.9.4 1.7.8 2.6 1.1l-1.9-1.9c-.8-.4-1.7-.7-2.5-1.1.6.7 1.2 1.3 1.8 1.9zm49.5 26.3c-1.8-1.4-3.6-2.7-5.5-4.1-2.5-1.4-5-2.8-7.5-4.1 3.1 2.1 6.1 4.2 9.1 6.5 1.3.5 2.6 1.1 3.9 1.7zm-67.9-36c4.8 1.7 9.6 3.6 14.3 5.7-.6-.6-1.1-1.2-1.7-1.7-4.7-2-9.5-3.8-14.4-5.5.7.4 1.3 1 1.8 1.5zm-4-2.4c-2.5-.8-5-1.7-7.6-2.4.7.5 1.4 1.1 2.1 1.6 2.4.8 4.7 1.5 7.1 2.4-.5-.6-1.1-1.1-1.6-1.6zm146.1 90.7c-.3.2-.6.5-1 .7 2.8 1.6 5.5 3 8 4.3-1.2-1-2.3-2-3.5-3-1.1-.7-2.3-1.3-3.5-2zm-19.2-11.8c-2.8-1.8-5.6-3.7-8.5-5.8l-3-.9c6.2 4.4 12 8.3 17.5 11.7.2.1.4.1.7.2-2.3-1.6-4.5-3.4-6.7-5.2zm7.9 6.4c.1.1.3.2.4.3-.1-.1-.2-.2-.3-.2 0-.1-.1-.1-.1-.1zm-32.8-23.8c-1-.3-2-.7-3.1-1 3.6 2.7 7.1 5.2 10.5 7.7.4-.1.8-.3 1.2-.4-2.8-2.1-5.7-4.2-8.6-6.3zm36.3 24.6c-.3-.1-.6-.2-.9-.2 1.8 1.4 3.6 2.8 5.4 4.1.5.3.9.5 1.4.8.3-.2.7-.4 1-.7-2.2-1.2-4.5-2.5-6.9-4zm-2.4-1.4c.1 0 .1 0 .2.1-.2-.1-.4-.3-.6-.4.1.1.2.2.4.3zm31.2 15.8c-4.1-1.4-8.6-3.3-13.6-5.8 1.1.9 2.2 1.9 3.3 2.8 1.7.8 3.4 1.5 4.9 2.2 2.1.5 4.1 1 6.1 1.6-.2-.4-.4-.6-.7-.8zM902.3 424c2.5 1.2 4.9 2.4 7.3 3.6-4.6-3.1-9.2-6-13.9-8.8-.4.1-.9.3-1.3.4 2.6 1.6 5.2 3.2 7.9 4.8zm28.1 20.5c1 .4 2.1.7 3.1 1.1-1.5-1.1-3-2.3-4.5-3.5-.3.2-.7.3-1.1.4.9.7 1.7 1.4 2.5 2zM841.1 396c-.7-.5-1.3-1-2-1.5-10-2.9-20.4-5.3-31.1-7.2 4.3 1.1 8.6 2.2 12.9 3.4 6.8 1.5 13.5 3.3 20.2 5.3zm188.7 104.9c.4.3.8.7 1.2 1 1.2-.1 2.4-.2 3.5-.5-.4-.3-.8-.5-1.2-.8h-.1c-1 .2-2.2.3-3.4.3zm545.7-378.4c-55.5 26-127 42.3-212.8 48.5-16.3 1.2-32.2 2.6-47.5 4-12.9 1.2-25.1 2.2-37.3 3.2-95.3 7.2-166 13.8-209.6 32.6-21.7 9.4-36.8 21.9-46 38.4-9.3 16.6-13.2 38-12 65.7 1.1 24.6 10.1 56.6 18.9 87.6 12.5 44.3 24.4 86.2 9.3 96.2-1.1.8-2.4 1.3-3.9 1.7.4.2.9.4 1.3.7 1.1-.4 2.2-.9 3.1-1.5 15.6-10.4 3.7-52.6-8.9-97.3-8.7-30.9-17.8-62.9-18.8-87.4-4.8-110.6 73.4-121 266.7-135.6 12.1-.9 24.3-2 37.3-3.2 15.3-1.4 31.2-2.8 47.5-4 85.8-6.1 157.5-22.5 213.1-48.6 51.6-24.2 86.6-56.2 101.5-92.5 4.1-10.1 6.6-20.4 7.6-30.9h-.9c-1 10.3-3.5 20.5-7.6 30.5-14.8 36-49.7 67.8-101 91.9zM924.1 439.6c1 .8 1.9 1.5 2.9 2.3.4-.1.8-.3 1.1-.4-1.1-.9-2.2-1.8-3.4-2.7l-.1-.1c-1.3-.6-2.6-1.2-3.9-1.7 1.1.8 2.3 1.7 3.4 2.6zm-187.5-57c-74.9 2.2-156.6 23.5-233.7 46.2-113 32.8-211.2 94.9-297.8 149.7-40.1 25.4-78.1 49.4-111.7 66.4l.5.9c33.6-17 71.6-41 111.7-66.4 86.5-54.8 184.6-116.9 297.5-149.6 108-31.7 212.8-57.7 304.6-41.7-3.6-.9-7.2-1.7-10.9-2.5-18.9-2.6-39-3.6-60.2-3zm223.1 83.9c.8.6 1.6 1.2 2.4 1.7 1 .3 1.9.5 2.9.8l-4.2-3c-.3.2-.7.4-1.1.5zm59.5 32.9c2.7.7 5.4 1.5 8 2.4.7.1 1.4.1 2.1.1-.4-.4-.9-.7-1.4-1.1-2.8-.2-5.9-.8-9.3-1.9.3.2.4.3.6.5zm-86.8-53.3c4.4 3.4 8.6 6.7 12.8 9.8 1 .3 1.9.6 2.9.9-4-3-8.2-6.2-12.5-9.5-1.1-.5-2.2-.8-3.2-1.2zM893 418.4l1.5-.3c-8.4-4.9-17.1-9.3-26.1-13.1.6.6 1.2 1.2 1.8 1.9 7.7 3.4 15.3 7.3 22.8 11.5zm1.3.8c.5-.1.9-.2 1.3-.4-.4-.2-.8-.5-1.2-.7l-1.5.3c.5.3 1 .5 1.4.8zm-50.5-22.3c-.7-.5-1.4-1-2.1-1.6-.9-.3-1.8-.5-2.6-.8.7.5 1.3 1 2 1.5l2.7.9zm7.8 1.6c-.8-.3-1.6-.5-2.3-.8.6.5 1.1 1 1.7 1.5l2.4.9c-.6-.5-1.2-1.1-1.8-1.6zm75.4 43.3c.3.3.6.5 1 .8.4-.1.7-.3 1.1-.4-.3-.2-.6-.5-.9-.7-.5.1-.8.2-1.2.3zm-59.3-36c.8.4 1.7.7 2.5 1.1-.6-.6-1.2-1.2-1.8-1.9-.8-.3-1.6-.7-2.4-1 .5.6 1.1 1.2 1.7 1.8zm93.1 60.3c-.3-.2-.6-.5-1-.7-.4.2-.8.3-1.2.4.3.2.7.5 1 .7.5-.1.9-.3 1.2-.4zm33.7 21.8c-.3.2-.7.5-1 .7.3.2.7.4 1 .6.3-.2.7-.4 1-.7-.4-.3-.7-.4-1-.6zM808 387.3c-3.7-.6-7.4-1.2-11.1-1.7 3.6.8 7.3 1.6 10.9 2.5 4.4.8 8.8 1.6 13.2 2.6-4.4-1.2-8.7-2.3-13-3.4zm154.4 76.8c-.7-.6-1.5-1.2-2.2-1.8-.9-.3-1.8-.6-2.7-1 1.3 1.1 2.7 2.3 4 3.4l.9-.6zm75.9 54.1c-4.1-2.1-8.5-4.6-13.3-7.5h-.2c2.1 1.7 4.1 3.2 6.1 4.8 3.7 2.1 7.1 3.9 10.4 5.4l-3-2.7zm-75.1-53.4l-.9.6 5.4 4.5c.8.2 1.7.5 2.5.7-2.3-1.9-4.6-3.9-7-5.8zm9.2 7.5c-.8-.3-1.7-.5-2.5-.8l6.3 5.1c3 1.9 5.8 3.8 8.6 5.5-4-3.1-8.2-6.4-12.4-9.8zm94.4 52.8c.3.3.6.5.9.8 1-.4 2-.8 2.8-1.4.2-.1.4-.3.6-.4-.4-.1-.7-.3-1.1-.4-1 .6-2 1.1-3.2 1.4zm-49.9-19.6c-3.8-2.5-7.7-5.2-11.9-8.2-.9-.2-1.7-.4-2.6-.5 6.1 4.4 11.9 8.4 17.2 11.8.4.1.8.1 1.2.2-1.2-1.1-2.5-2.2-3.9-3.3zm-119.9-83c3.8 1.7 7.5 3.5 11.2 5.4l-6-3.9c-2.2-1.1-4.5-2.1-6.7-3.1.5.6 1 1.1 1.5 1.6zm-6.6-3.8c-4.4-1.8-8.8-3.5-13.3-5.1.5.4.9.9 1.4 1.3 3.3 1.2 6.6 2.4 9.8 3.7.7.2 1.4.2 2.1.1zm55.4 31.9c-1.7-1.3-3.4-2.5-5.1-3.8-2.4-1.3-4.7-2.6-7.1-3.8 2.8 1.9 5.6 3.9 8.4 5.9 1.2.6 2.5 1.1 3.8 1.7zm447.4-275.3c-17.2 1.1-34 2.5-50.2 3.9-12.6 1.1-24.5 2-36.3 2.9-93.9 6.8-169.3 13.6-214.1 33.9-43.6 19.8-60.4 52.7-56.4 110.3 1.9 26.3 12 60.7 21.7 94 13.2 44.8 25.6 87.4 14.8 101 .3.2.6.3.9.5 11-14.2-1.5-56.8-14.7-101.7-9.8-33.2-19.8-67.6-21.7-93.8-4-57.1 12.7-89.7 55.8-109.3 44.7-20.2 120-27 213.8-33.8 11.8-.9 23.7-1.8 36.3-2.9 16.2-1.4 32.9-2.8 50.2-3.9 88.3-5.8 161.9-22.2 218.9-48.5 52.8-24.5 88.5-56.9 103.1-93.8 4.4-11.1 6.9-22.4 7.5-34h-.9c-.6 11.4-3.1 22.6-7.5 33.6-30.9 77.4-150.9 130.4-321.2 141.6zM765.9 397.9c-77 1.9-162.2 25.3-235.4 48-110.8 33.9-208.3 95.7-294.4 150.2-42.6 27-82.8 52.5-118.3 70.1l.4.9C153.7 649.5 194 624 236.6 597c86-54.5 183.4-116.3 294.1-150.1 133.4-41.3 241-62 329.8-37.5l-2.4-1.5c-28.1-7.5-58.8-10.8-92.2-10zM1072.3 523l.4-.4c-.3-.2-.6-.3-.9-.5l-.3.3c.3.2.6.4.8.6zm-78.2-33.7c-.3.2-.6.4-1 .6 2.3 1.7 4.5 3.4 6.6 4.9.8.2 1.6.3 2.5.5-2.6-1.9-5.3-3.9-8.1-6zm72.5 36.9c-.3-.3-.6-.5-.9-.8-2.6.5-5.8.4-9.5-.4l.5.5 5.7 1.2c1.5 0 2.9-.2 4.2-.5zm-139.7-87.5c1.1.5 2.3 1.1 3.4 1.6.1-.1.3-.2.5-.3-6.9-4.5-14-8.6-21.2-12.4 2.1 1.4 4.2 2.9 6.2 4.4 3.7 2.1 7.5 4.3 11.1 6.7zm127.4 85.9c-3.7-1-8-2.5-12.7-4.8l2.7 2.4c1.6.7 3.1 1.3 4.6 1.8 2 .4 4 .7 6 1.1-.2-.2-.4-.3-.6-.5zM864 409.5c.5.4 1 .8 1.4 1.2 3.6 1.1 7.2 2.2 10.8 3.5-.4-.4-.9-.8-1.3-1.3-3.6-1.2-7.2-2.3-10.9-3.4zm69.9 32.6c-.7-.5-1.4-1-2.2-1.4-.1.1-.2.1-.3.2.8.3 1.6.7 2.5 1.2zm20.7 16.8c.9.3 1.8.6 2.7 1-.5-.4-1-.8-1.5-1.3-2.4-2.1-4.9-4-7.4-6-1.2-.6-2.5-1.1-3.7-1.6 3.3 2.5 6.6 5.2 9.9 7.9zm29.9 24.3c2.6 2.1 5.2 4 7.7 5.9.1-.1.3-.1.4-.2l.6-.3-1.2-.9c-2.4-1.4-4.9-2.9-7.5-4.5zm37.6 26.9c.7.4 1.4.9 2.1 1.3l-1.5-1.2c-.2 0-.4 0-.6-.1zm-131.6-90.4c1.4.6 2.7 1.2 4.1 1.7-.5-.5-1-1-1.4-1.5-.3-.1-.6-.2-.9-.4-.6.1-1.2.2-1.8.2zm-29-10.9c.2.1.3.2.5.3-.1-.1-.2-.2-.3-.2-.1-.1-.1-.1-.2-.1zm.5.3c-.2-.1-.3-.2-.5-.3-1.1-.3-2.2-.6-3.4-.9l2.4 1.5c.9.2 1.7.5 2.6.7-.3-.4-.7-.7-1.1-1zm28.4 9.6h-2.1c.8.3 1.5.6 2.3 1 .6 0 1.2-.1 1.8-.1-.7-.3-1.4-.6-2-.9zm-26.4-9.2c-.7-.2-1.5-.4-2.2-.6.1.1.2.2.3.2.8.4 1.5.9 2.2 1.3l1.2.3c-.6-.4-1.1-.8-1.5-1.2zm67.4 31.3c.1-.1.2-.1.3-.2l-.9-.6c-.1.1-.3.2-.5.3.4.2.8.3 1.1.5zm-68.3-30.7c.4.1.7.2 1.1.3-.7-.4-1.5-.8-2.2-1.3.4.3.8.6 1.1 1zm13.9 3.6c-.7-.3-1.5-.5-2.2-.7.4.4.9.8 1.3 1.3.8.3 1.5.5 2.3.8-.4-.6-.9-1-1.4-1.4zm85.4 50.4l-.9.6c.3.2.5.4.8.7l.9-.6c-.3-.3-.5-.5-.8-.7zm-67.8-42.7c.8.4 1.6.7 2.4 1.1-.5-.5-1-1-1.5-1.6-.8-.3-1.6-.7-2.4-1 .6.5 1 1 1.5 1.5zm98.7 67.3l-.6.3c-.1.1-.3.1-.4.2.3.2.6.5.9.7.3-.2.7-.4 1-.6-.4-.2-.6-.4-.9-.6zm-8.6-6.6c-2.8-1.7-5.6-3.5-8.6-5.5 2.2 1.8 4.4 3.6 6.6 5.2l2.4.6c-.1-.1-.2-.2-.4-.3zm-.5.9c.1.1.2.2.3.2 2.6 1.6 5.1 3.1 7.5 4.5-1.8-1.3-3.6-2.7-5.4-4.1-.7-.2-1.6-.4-2.4-.6zm-76-55.1c2.5 1.3 5 2.7 7.5 4.1-2.1-1.5-4.1-2.9-6.2-4.4-2.4-1.2-4.8-2.4-7.3-3.6 2.1 1.3 4.1 2.6 6 3.9zm151.1 109.2c1.2.7 2.3 1.5 3.4 2.1-.8-.7-1.6-1.3-2.4-2-.3 0-.7 0-1-.1zm42.7 11.2l.7.7c.9-.7 1.7-1.5 2.3-2.4-.3-.1-.7-.2-1-.3-.5.8-1.2 1.4-2 2zm3.5-2.3c.2-.3.4-.7.6-1.1-.3-.2-.5-.4-.8-.6-.3.5-.5 1-.8 1.4.3.1.7.2 1 .3zm-4.3 2.9c-2.3 1.4-5.1 1.9-8.6 1.6l1.1 1.1c3.3.1 6-.6 8.2-2-.2-.3-.5-.5-.7-.7zm-95.1-53.8c-1.2-.5-2.4-1.1-3.6-1.7 1 .9 2.1 1.8 3.1 2.6.7.2 1.4.3 2.1.5-.5-.5-1.1-.9-1.6-1.4zm50.2 38.8c-4.6-3-9.4-6.4-14.6-10.3-.7-.1-1.5-.2-2.2-.3 6.8 5.1 13.1 9.5 18.8 13.2.4 0 .8.1 1.2.1-1-.9-2.1-1.8-3.2-2.7zM901.1 428.2c-4.3-1.5-8.6-2.8-13.1-4 .6.5 1.1 1.1 1.7 1.6 4.4 1.3 8.7 2.6 13 4.1-.5-.6-1.1-1.1-1.6-1.7zm129.8 87.2c-2.1-1.2-4.4-2.5-6.7-4 4.9 3.9 9.5 7.5 13.9 10.9.7.1 1.5.2 2.2.3-3-2.2-6.1-4.6-9.4-7.2zm392.7-335.7c-18.3 1.1-36 2.5-53.1 3.8-12.2 1-23.7 1.9-35.2 2.6-71.6 4.9-124.1 9.7-165.1 18.3-43.5 9.2-71.6 22.6-88.3 42.3-17.6 20.7-24 49.7-20.1 91 2.6 28 13.8 64.7 24.5 100.3 13 43 25.4 84 20.4 102.4.3.2.6.3.8.5 5.3-18.8-7.2-60-20.2-103.2-10.7-35.5-21.8-72.2-24.5-100.1-3.9-41.1 2.4-69.8 19.8-90.3 36-42.4 123.4-51.4 252.7-60.3 11.5-.8 23-1.7 35.2-2.6 17.1-1.3 34.8-2.7 53-3.8 175.6-10.7 298.7-64.3 329.4-143.6 4.7-12.1 7.1-24.5 7.2-37.1h-.9c-.2 12.4-2.5 24.7-7.2 36.7-30.4 79-153.2 132.5-328.4 143.1zM1023 509.2c-4.2-3.4-8.5-6.9-13-10.7-.7-.2-1.4-.3-2.2-.5 3.1 2.6 6.1 5.1 9 7.6 1.9 1.2 3.7 2.4 5.5 3.6.3-.1.5-.1.7 0zm-464.6-45.3c125.2-40.6 231.8-62.6 320.6-41-.7-.5-1.4-1.1-2.2-1.6-25.2-6-52.4-8.6-81.7-8-62.6 1.3-133.5 16.1-237.1 49.7-108.6 34.9-205.4 96.4-290.9 150.7-34.1 21.7-67 42.6-97.1 59.3h2.1c29.7-16.6 62-37.1 95.7-58.5 85.3-54.3 182.1-115.8 290.6-150.6zm532.6 86.4c-3.4-.5-7.3-1.7-11.7-3.6.8.7 1.5 1.4 2.2 2.1 4 1.5 7.5 2.4 10.6 2.7-.3-.4-.7-.8-1.1-1.2zm15.6-6.4c.2-.4.3-.8.5-1.2-.3-.1-.6-.3-.9-.4-.1.3-.2.6-.4.9.3.3.6.5.8.7zM933.5 443l-2.7-1.8c-.1.1-.3.2-.4.3 1 .4 2.1 1 3.1 1.5zm62.6 43.5c-.2-.1-.3-.3-.5-.4-.8-.2-1.5-.4-2.3-.7.7.6 1.4 1.2 2 1.8.3-.2.5-.5.8-.7zm0 1.3c1 .8 1.9 1.7 2.9 2.5 1.3.7 2.6 1.4 3.9 2-2-1.7-4-3.4-6-5.2-.3.3-.6.5-.8.7zm-4.2-3.6c.8.2 1.5.4 2.3.6-2.4-2.1-4.8-4.2-7.3-6.4-.8-.7-1.6-1.4-2.4-2-.9-.3-1.7-.6-2.6-.9 1.4 1.2 2.9 2.5 4.3 3.7 2 1.7 3.8 3.3 5.7 5zm-67.3-45.5c1.6.7 3.2 1.5 4.7 2.2l.6-.3c-1-.6-2-1.3-3-1.9-1.9-.9-3.8-1.8-5.7-2.6 1.2.8 2.3 1.7 3.4 2.6zm26.8 14.4c2.4 1.1 4.9 2.3 7.3 3.5-8-5.3-16.2-10.2-24.8-14.5 2.3 1.5 4.6 3.1 6.8 4.7 3.6 2 7.1 4.1 10.7 6.3zm-30.7-16.2c-1.1-.9-2.2-1.7-3.4-2.5-4.6-1.9-9.4-3.8-14.1-5.4.5.6 1.1 1.1 1.6 1.6 5.4 1.9 10.7 4 15.9 6.3zm58.9 36.6c.9.3 1.8.6 2.7 1-2.5-2.2-5.1-4.2-7.7-6.3-1.2-.5-2.4-1.1-3.7-1.6 3 2.2 5.8 4.5 8.7 6.9zm96.7 71.9c-4-1.9-8.4-4.3-13.2-7.2 1.8 1.5 3.6 3 5.4 4.4 3.7 2 7.1 3.8 10.3 5.1-.8-.7-1.6-1.5-2.5-2.3zM886 423.6c-2.3-.6-4.5-1.2-6.8-1.8.7.6 1.5 1.1 2.2 1.7 2.1.5 4.2 1.1 6.3 1.7-.6-.6-1.2-1.1-1.7-1.6zm79.5 37.7c-.4-.3-.7-.5-1.1-.8-2.4-1.3-4.8-2.5-7.3-3.8 2.6 1.7 5.1 3.5 7.7 5.3.2-.2.5-.4.7-.7zm1.3 2.2c1.3.5 2.5 1.1 3.8 1.6-1.4-1.1-2.9-2.1-4.3-3.2-.2.3-.4.5-.7.7l1.2.9zm-37.5-22.6c.4.2.7.4 1.1.5.1-.1.3-.2.4-.3l-.9-.6c-.2.2-.4.3-.6.4zm-50.1-19.1c-.8-.2-1.6-.4-2.3-.6.7.6 1.4 1.1 2.2 1.6l2.4.6c-.8-.4-1.6-1-2.3-1.6zm87.1 40.1c-.3-.2-.5-.4-.8-.6-.2.3-.4.5-.7.7.3.2.5.4.8.6l.7-.7zM886 423.6c.6.5 1.1 1 1.7 1.5l2.1.6c-.6-.5-1.1-1.1-1.7-1.6-.7-.1-1.4-.3-2.1-.5zm16.7 6.3c.7.2 1.4.5 2.1.7-.5-.6-1.1-1.1-1.6-1.6-.7-.2-1.4-.5-2.1-.7.5.5 1.1 1 1.6 1.6zm92.6 57.3c.3.2.5.4.8.7l.7-.7c-.2-.2-.5-.4-.7-.7-.3.2-.5.5-.8.7zm-70.7-48.5c-1.1-.9-2.2-1.7-3.4-2.6-1.3-.6-2.6-1.1-3.9-1.7 1.1.8 2.2 1.7 3.4 2.5l3.9 1.8zm78.2 53.6c-1.3-.6-2.5-1.3-3.9-2 1.2 1 2.4 2 3.5 3 1.2.6 2.4 1.2 3.6 1.7-1-.8-2.1-1.7-3.2-2.7zm14.1 13.2c1.4 1.1 2.7 2.2 4 3.3.5.1 1 .2 1.5.2-1.8-1.1-3.6-2.3-5.5-3.5zm7.9 5.1c-.7-.1-1.4-.3-2.1-.4l1.5 1.2c2.3 1.4 4.5 2.7 6.7 4-2-1.5-4-3.1-6.1-4.8zm-94.4-70.3c-1.1-.6-2.3-1.1-3.4-1.6 1 .6 2 1.3 3 1.9.1-.1.2-.2.4-.3zm.4.9l2.7 1.8c2.4 1.2 4.8 2.5 7.1 3.8-2.2-1.6-4.5-3.2-6.8-4.7l-2.4-1.2c-.2 0-.4.2-.6.3zm0 0c.2-.1.4-.2.6-.4-.3-.2-.7-.4-1-.5-.2.1-.3.2-.5.3l.9.6zm68.3 41c-1.2-.5-2.3-1-3.5-1.5 1 .8 2 1.5 3 2.3.2-.2.4-.5.5-.8zM586 481c121.5-41.3 225.7-64.1 313.4-44.6-.7-.4-1.5-.8-2.3-1.3-22.7-4.8-46.9-7.1-72.8-6.6-80.8 1.3-170 28.2-238.6 51.6-106.5 35.8-202.5 97-287.2 151-23 14.7-45.5 29-66.9 41.9h1.9c21-12.7 43-26.7 65.5-41.1 84.7-54 180.7-115.1 287-150.9zm458.4 41.2c-1-.4-2.1-.9-3.1-1.4.9.8 1.8 1.6 2.6 2.3.6.1 1.3.2 1.9.3-.5-.3-1-.8-1.4-1.2zm-11-9.8c-.7-.2-1.3-.3-2-.4 2.3 2.1 4.6 4.2 6.9 6.2 1.1.6 2.3 1.1 3.4 1.6-2.8-2.4-5.5-4.8-8.3-7.4zm-108.7-69c2.6.9 5.1 1.8 7.7 2.7-.7-.5-1.3-1-2-1.6-1.4-.5-2.7-1-4.1-1.4-.5.1-1 .2-1.6.3zm865.4-403.5c-30.4 80.3-156 134.2-336 144.2-19.4 1.1-38.2 2.4-56.3 3.8-11.7.8-22.7 1.7-33.7 2.4-70 4.6-125.3 9.4-167.5 18.4-44.2 9.4-72.7 23.3-89.6 43.6-18.3 22-24.4 52.8-19.3 97 3.4 29.6 15.6 68.7 27.3 106.5 12.9 41.5 25.2 81.4 24.1 103 .1.1.3.2.4.2.2.1.3.2.5.2 1.4-21.9-11-61.9-24-103.7-11.7-37.8-23.8-76.8-27.2-106.4-5.1-44 1-74.6 19.1-96.3 33.9-40.7 106.5-51.9 256.4-61.7 11-.7 22-1.5 33.7-2.4 18.1-1.3 36.9-2.7 56.3-3.8 91.8-5.1 171.4-21.9 230.3-48.5 55.3-25 92.2-58.3 106.6-96.4 5-13.1 7.2-26.5 6.8-40.2h-1.1c.2 13.8-1.9 27.1-6.8 40.1zM924.3 442.4c-3.7-1.2-7.4-2.3-11.2-3.4l1.1 1.1 8.1 2.4c.7.1 1.4 0 2-.1zm94.4 56.5c-.2-.2-.5-.4-.7-.7-2.8-2.6-5.7-5.2-8.6-7.7-.9-.3-1.7-.6-2.6-.9 3.2 2.7 6.4 5.6 9.6 8.5.8.3 1.6.6 2.3.8zm43.1 38.5c.4.3.9.6 1.3.8-.3-.3-.6-.5-.9-.8-.1.1-.3 0-.4 0zm-40.4-35.9l-2.1-.6c3.6 3.3 7 6.5 10.4 9.6.7.1 1.3.3 2 .4-3.3-3-6.7-6.2-10.3-9.4zM977 467.9c2.2 1 4.5 2.1 6.7 3.2-5.5-3.6-11-7-16.7-10.1-.2.2-.4.5-.5.7 3.5 2 7 4 10.5 6.2zm-28.6-15.3c2.9 1.3 5.8 2.7 8.7 4.2-1.9-1.3-3.8-2.5-5.8-3.7-1.9-.9-3.7-1.7-5.6-2.5.9.6 1.8 1.3 2.7 2zm164.9 119.6c-3.2-1.4-6.8-3.2-10.7-5.4h-.7l3.3 2.7c3.7 2 7 3.5 10.1 4.6-.6-.6-1.3-1.3-2-1.9zm24-1.9c.8-1.5 1.5-3.3 1.9-5.3-.2-.2-.5-.4-.7-.6h-.1c-.5 2.2-1.2 4.2-2.1 5.8.3 0 .6 0 1 .1zm-9.7 6.1c-.3-.3-.6-.6-.9-1-3 .1-6.6-.7-10.8-2.2.6.6 1.2 1.2 1.8 1.7 3.2 1 6.1 1.5 8.6 1.5h1.3zm-162-115.2c.2-.2.4-.5.6-.7-2.5-1.4-5-2.7-7.5-3.9 1.9 1.3 3.9 2.6 5.8 4 .3.1.7.4 1.1.6zm174 101.9c.1-.8.2-1.7.3-2.6l-.9-.6c-.1 1-.2 1.9-.3 2.8.3.2.6.3.9.4zM1005 488.2l2.7.9c-2.6-2.2-5.1-4.3-7.8-6.3-.2.3-.3.6-.5.9 1.9 1.4 3.8 2.9 5.6 4.5zM944.7 451c-.9-.7-1.8-1.4-2.7-2-2.8-1.2-5.6-2.3-8.5-3.3.7.5 1.4 1.1 2.1 1.6 3 1.1 6 2.4 9.1 3.7zm188.1 122.8c-1.4.9-3 1.4-4.8 1.6l.9.9c1.7-.3 3.2-.8 4.5-1.6 1-.6 1.9-1.5 2.7-2.4l-.7-.7c-.8.8-1.7 1.6-2.6 2.2zM911.2 438.5c-3.3-.9-6.6-1.7-10-2.5.3.2.5.4.8.7.4.2.8.4 1.1.6 3.1.7 6.1 1.5 9.1 2.3-.3-.4-.6-.7-1-1.1zm150.3 98.4c-4.6-3.8-9.5-8-14.5-12.4-.6-.1-1.3-.2-1.9-.3 3.9 3.4 7.6 6.7 11.3 9.7 1.5 1 3 2 4.5 2.9.1 0 .4 0 .6.1zm-65.7-57.3c-1.4-1.1-2.9-2.1-4.3-3.2-2.2-1.2-4.4-2.3-6.6-3.5 2.4 1.7 4.9 3.4 7.3 5.1 1.2.6 2.4 1.1 3.6 1.6zm72.8 63c-1.9-1-3.8-2.2-5.8-3.4 5.1 4.2 9.9 8 14.5 11.5.6.1 1.3.1 1.9.1-3.4-2.4-7-5.2-10.6-8.2zm26.1 19.3c-4.2-2.7-8.6-5.8-13.4-9.4-.7-.1-1.4-.1-2-.2 6.9 5.2 13.2 9.5 18.9 13h.6c-1.4-1.1-2.8-2.2-4.1-3.4zM902 436.7c.2.1.3.3.5.4.2.1.4.1.7.2l-1.2-.6zm22.3 5.7c-.6.1-1.3.2-2 .2.8.3 1.6.5 2.4.8.5-.1 1-.2 1.6-.3-.7-.2-1.3-.5-2-.7zm-25.1-6.8c-.7-.1-1.3-.3-2-.4.8.4 1.5.9 2.3 1.3.3.1.6.1.9.2-.4-.4-.8-.8-1.2-1.1zm67.2 26.1c.2-.2.4-.5.5-.7-.3-.2-.6-.3-.9-.5-.2.2-.4.5-.6.7.5.2.7.3 1 .5zm-66.1-25.9c.6.3 1.1.6 1.7.9-.3-.2-.5-.4-.8-.7-.3 0-.6-.1-.9-.2zm0 0c-.4-.1-.8-.2-1.1-.2.4.4.8.7 1.2 1 .7.2 1.4.3 2.1.5-.2-.1-.3-.3-.5-.4-.6-.3-1.1-.6-1.7-.9zm10.9 2.7l1.1 1.1c.7.2 1.3.4 2 .6-.4-.4-.8-.7-1.1-1.1-.7-.2-1.4-.4-2-.6zm87.9 43.7c-.1.3-.3.6-.5.8.3.2.5.4.8.6.2-.3.3-.6.5-.9-.2-.2-.4-.3-.6-.5-.1.1-.1.1-.2 0zm17.3 16c.3.2.5.5.8.7.7.2 1.4.4 2.1.5l-.5-.5c-.8-.2-1.6-.5-2.4-.7zm-84-52.1c1 .4 2.1.8 3.1 1.2-.7-.5-1.4-1.1-2.1-1.6-1-.4-2-.8-3.1-1.1.8.4 1.4.9 2.1 1.5zm109.2 73.7c-1.1-.5-2.2-1.1-3.4-1.6 1 .9 2 1.8 3 2.6 1.1.5 2.1 1 3.1 1.4-.8-.8-1.7-1.6-2.7-2.4zm-93.2-67.2c-.9-.7-1.8-1.4-2.6-2-1.3-.6-2.5-1.1-3.8-1.6.9.7 1.8 1.3 2.7 2 1.2.5 2.4 1 3.7 1.6zm107.9 81.3c1.1.9 2.2 1.8 3.2 2.7.4 0 .8.1 1.2.2-1.4-.9-2.8-1.9-4.4-2.9zm6.9 4.3c-.4-.3-.9-.5-1.3-.8-.5-.1-1-.1-1.5-.2.8.7 1.6 1.4 2.4 2 2 1.2 3.9 2.3 5.8 3.4-1.8-1.4-3.6-2.8-5.4-4.4zm-106.1-81.4c2.4 1.2 4.9 2.5 7.3 3.8-1.9-1.4-3.8-2.7-5.8-4-2.4-1.2-4.8-2.4-7.3-3.5 2 1.2 3.9 2.4 5.8 3.7zm113.4 81.9l-1.8-.3c2.6 2.4 5.1 4.8 7.6 7.1 1 .5 2 .9 2.9 1.3-2.8-2.6-5.7-5.3-8.7-8.1zm11 10.1c-.9-.3-1.8-.7-2.7-1.1 1.3 1.2 2.6 2.3 3.8 3.5.6.1 1.2.1 1.7.2-.9-.9-1.8-1.7-2.8-2.6zm4.7 4.2c-.6-.1-1.2-.1-1.8-.2 3.5 3.2 6.9 6.2 10.2 9.1 2 1.3 3.9 2.5 5.7 3.6h.1c-4.5-3.8-9.2-8-14.2-12.5zm51 39.6c.9.8 1.9 1.6 2.8 2.4h1.6c-1.4-.7-2.9-1.5-4.4-2.4zm-31.9-23.1c-1.6-.9-3.3-1.8-5-2.9 6 5 11.5 9.5 16.7 13.4.6 0 1.2 0 1.8.1-4.3-3.2-8.8-6.7-13.5-10.6zm65 12.7c.3.3.6.5.9.8v-1.9l-.9-.3v1.4zM1120 581c-.6 0-1.2 0-1.9-.1 6.9 5.2 13.1 9.4 18.6 12.6-1.5-1.3-3.1-2.7-4.7-4.1-3.7-2.4-7.7-5.2-12-8.4zm51.2-2.8l-.9-.6c0 .6.1 1.2.1 1.8l.9.3c-.1-.5-.1-1-.1-1.5zm-115.2-52c4.1 4 8.1 7.8 12 11.5l1.8.3c-3.9-3.6-7.9-7.4-12-11.4-.5-.1-1.2-.2-1.8-.4zm-13.1-12.6l2.1.6c-2.9-2.7-5.8-5.4-8.8-7.9-.9-.3-1.8-.6-2.6-.9 3 2.5 6.2 5.3 9.3 8.2zm-14.9-12.8c.6 0 1.2.1 1.7.1-1.8-1.5-3.7-3-5.5-4.4-1.3-.6-2.7-1.2-4-1.7 2.6 1.9 5.3 3.9 7.8 6zm-64.7-37.3c.4-.3.7-.6 1.1-.9-2.3-.9-4.6-1.8-7-2.6 1 .8 1.9 1.6 2.9 2.4.9.2 2 .7 3 1.1zm186.1 135c-2-.7-4.2-1.7-6.5-2.8h-2.2c.1.1.2.2.4.3 3.7 1.9 7 3.3 9.9 4.1-.5-.5-1-1.1-1.6-1.6zM999.7 481.1c.2-.3.3-.7.5-1.1-5.4-3.2-10.8-6.2-16.4-9 2.6 1.7 5.2 3.5 7.8 5.4 2.6 1.6 5.3 3.1 8.1 4.7zm29.7 20.8c.4.3.8.6 1.2 1l2.7.9c-.7-.6-1.5-1.2-2.2-1.9h-1.7zm-28.6-20.1c2.8 1.2 5.5 2.5 8.3 3.9-2.7-1.8-5.4-3.5-8.1-5.1-.1.4-.3.7-.5 1.1.1 0 .2 0 .3.1zm161.4 118.9c-.2-.3-.5-.5-.8-.8-2.6.6-5.9.4-9.8-.7.5.5 1 1 1.5 1.4 1.9.4 3.6.7 5.1.6 1.5.1 2.8-.1 4-.5zm-207-141.3c-.2-.2-.4-.3-.6-.5-2.2-.8-4.4-1.5-6.6-2.2l3.3 2.4c2.1.7 4.1 1.4 6.2 2.1-.8-.6-1.6-1.2-2.3-1.8zm213.3 133.9c-.5 1.2-1 2.2-1.7 3.1.4 0 .7.1 1.1.1.5-.7.9-1.5 1.3-2.4-.2-.2-.5-.5-.7-.8zm1.1-.2c.6-1.6 1-3.4 1.3-5.4-.3-.1-.6-.1-.9-.2-.2 1.8-.6 3.4-1.1 4.8.2.2.5.5.7.8zM1827.9 43c-14.2 38.3-51.5 71.9-107.8 97-60.2 26.8-141.6 43.6-235.6 48.3-20.7 1.1-40.6 2.4-59.9 3.7-11 .7-21.4 1.5-31.8 2.1-149 9.2-226 21-260.8 63.4-19 23.2-24.9 55.9-18.5 103.1 4.2 31.3 17.3 72.7 30 112.8 12.6 39.9 24.7 78.3 26.6 102.2.3.2.6.3 1 .5-1.7-24.1-13.9-62.8-26.6-102.9-12.6-40-25.7-81.4-30-112.6-6.4-46.9-.5-79.4 18.3-102.3 34.6-42.1 111.4-53.9 260.1-63.1 10.4-.6 20.8-1.3 31.8-2.1 19.3-1.3 39.2-2.7 59.9-3.7 94.1-4.8 175.7-21.5 236-48.4 56.6-25.2 94-59 108.3-97.6 5.2-14.1 7.3-28.6 6.2-43.4h-1.1c1 14.6-.9 29.1-6.1 43zm-778.8 475.1c-.8-.8-1.6-1.5-2.4-2.3l-2.1-.6c1.2 1.2 2.5 2.3 3.7 3.5 2 2 4 3.9 5.9 5.8.6.2 1.3.3 1.9.4-2.2-2.2-4.6-4.5-7-6.8zm-82.3-54.6c-.5-.2-1-.4-1.4-.6l-1 1 6.6 2.7c-1.4-1.1-2.8-2.1-4.2-3.1zm54.5 30.8c-1.7-1.3-3.4-2.5-5.2-3.7-2.6-1.4-5.2-2.7-7.8-4 3 2 6 4 8.9 6.1 1.4.4 2.7 1 4.1 1.6zm-98.1-44.1c-2-.4-3.9-.8-5.9-1.2.9.6 1.7 1.3 2.5 1.9 1.8.3 3.5.7 5.3 1.1-.7-.6-1.3-1.2-1.9-1.8zm51.4 18c3.4 1.5 6.9 3.1 10.2 4.8-2.6-1.8-5.2-3.5-7.8-5.1-2.1-1-4.3-1.9-6.4-2.8 1.3 1 2.7 2 4 3.1zm196.6 116.1c-.3-.3-.6-.5-.9-.8 0 1-.1 2-.2 2.9.3.1.6.1.9.2.1-.7.1-1.5.2-2.3zm-7 14.5c-.5.3-1.1.6-1.7.8.3.3.5.5.7.8.5-.2 1-.5 1.5-.7 1-.6 1.9-1.4 2.7-2.4-.4 0-.8-.1-1.2-.1-.6.6-1.3 1.1-2 1.6zM925 450.6c.6.6 1.3 1.2 1.9 1.8 7.2 1.6 14.3 3.5 21.3 5.8-1-.8-2-1.5-3.1-2.3-6.5-2-13.2-3.8-20.1-5.3zm-311.3 47.5c104.4-37.1 210.6-65.4 303.9-47.7l-2.4-1.8c-19.4-3.5-39.9-5.2-61.6-4.9-64.1.8-138.2 17.2-240.2 53.4-104.4 36.7-199.6 97.6-283.5 151.3-13.1 8.4-26 16.6-38.7 24.6h1.9c12.2-7.7 24.7-15.7 37.3-23.8 83.9-53.6 179.1-114.5 283.3-151.1zM917.3 449c-.7-.1-1.4-.2-2.1-.4l2.4 1.8c.7.1 1.5.3 2.2.4-.8-.5-1.7-1.1-2.5-1.8zm47 14.9c.4-.3.7-.6 1-1-.3-.1-.7-.3-1-.4-.3.3-.7.7-1.1.9.4.2.8.3 1.1.5zm-41.1-13.7c.6.6 1.3 1.2 1.9 1.8.6.1 1.3.3 1.9.4-.6-.6-1.3-1.2-1.9-1.8-.7-.1-1.3-.3-1.9-.4zm77.3 31.4c.2-.3.3-.7.5-1.1-.3-.2-.6-.3-.8-.5-.1.4-.3.7-.5 1.1.2.2.5.4.8.5zM948 456.7c-.9-.3-1.9-.6-2.9-.9 1 .8 2.1 1.5 3.1 2.3 1 .3 2 .7 3.1 1-1.1-.7-2.2-1.6-3.3-2.4zm83 45.2c-.4-.3-.8-.7-1.2-1-.6 0-1.1 0-1.7-.1.5.4.9.7 1.4 1.1h1.5zm23.3 22.7l.6.6c.6.1 1.2.2 1.8.4l-.5-.5c-.6-.2-1.3-.4-1.9-.5zm-99.1-65.2c.8.7 1.5 1.3 2.3 1.9.9.3 1.8.6 2.7 1-.9-.8-1.9-1.6-2.9-2.4-.9-.3-1.8-.7-2.7-1 .2.2.4.3.6.5zm124.1 87.4c-1-.4-1.9-.8-2.9-1.3.8.8 1.7 1.5 2.5 2.3.9.4 1.8.8 2.7 1.1-.8-.8-1.6-1.5-2.3-2.1zm-108.4-80.2c1.2.5 2.5 1.1 3.7 1.6-1.3-1-2.7-2.1-4-3.1-1.3-.5-2.5-1.1-3.8-1.6 1.4 1 2.8 2 4.1 3.1zm127.9 98.8c.5 0 1.1.1 1.6.1-1.8-1.1-3.8-2.3-5.7-3.6 1.3 1.2 2.7 2.3 4.1 3.5zm-114-92.4c2.2 1.1 4.4 2.3 6.6 3.5l-7.8-5.4c-2.2-1.1-4.4-2.2-6.7-3.2 2.7 1.7 5.4 3.3 7.9 5.1zm115.4 93.6c1.7 1 3.4 2 5 2.9l-3.3-2.7c-.5-.1-1.1-.1-1.7-.2zM939.7 463.9c.3.2.6.5.9.7.5.1 1.1.2 1.6.3-.8-.3-1.6-.7-2.5-1zm245.9 161.2l-.8-.8c-3.4-.9-7.2-2.6-11.6-5 1.1 1 2.2 1.9 3.3 2.9 2.8 1.4 5.4 2.4 7.8 3 .3 0 .8-.1 1.3-.1zm-151.1-123.7c2.9 1.9 5.9 3.9 8.8 6 1.3.5 2.5 1 3.8 1.5-2-1.5-4.1-3-6.1-4.4-2.1-1.1-4.1-2.1-6.2-3.2-.2.1-.2.1-.3.1zm88.4 79.7c3.1 2.9 6.2 5.7 9.1 8.3 1.8 1.2 3.5 2.2 5.2 3.2-4-3.5-8.3-7.3-12.7-11.4-.6 0-1.1 0-1.6-.1zM1000 482.6c2.8 1.2 5.5 2.5 8.3 3.9-2.5-1.6-5-3.2-7.5-4.7-.1 0-.2-.1-.3-.1-.2.3-.3.6-.5.9zm201.1 130.6c.3.3.5.6.8.9.1-.3.1-.6.1-1-.3 0-.6-.1-.9-.1v.2zm1.2-9.9c-.3-.1-.6-.1-.9-.2.2 3.3.1 6.4-.2 9 .3 0 .6.1.9.1.3-2.6.4-5.6.2-8.9zm-122.2-65.4c-2.6-2.6-5.2-5.2-7.8-7.7-.7-.2-1.3-.4-2-.6 3.1 2.9 6.1 5.9 9.1 8.9.4.4.8.8 1.2 1.3.6.1 1.2.2 1.7.4-.7-.8-1.4-1.5-2.2-2.3zm121.2 64.1v.3c.1 0 .2.1.3.1 0-.2-.2-.3-.3-.4zm-132.4-73.7c.7.2 1.4.3 2 .5-1.1-1-2.2-2-3.2-3-.4.1-.7.2-1.1.3.7.8 1.5 1.5 2.3 2.2zm127.4 95c.2.2.4.5.7.7 2.3-1.8 3.9-4.7 4.7-8.6-.3-.3-.5-.6-.8-.9-.8 4-2.3 7-4.6 8.8zm-.2 1.3c-.2-.3-.5-.5-.7-.8-1.1.6-2.4 1-3.8 1.2h3.8c.2-.1.4-.2.7-.4zm4.5-29.4v.2c.2.1.3.1.5.2-.1-.2-.3-.3-.5-.4zm-559.3-80c101.8-37.7 205.4-66.7 297.4-50.9-.5-.4-1-.8-1.5-1.3-17.3-2.8-35.5-4.2-54.5-4-65.2.5-139.7 17.6-241.7 55.3-102.2 37.4-196.5 98-279.7 151.4-3.8 2.5-7.7 4.9-11.5 7.4h1.9c3.4-2.2 6.8-4.3 10.2-6.5 83.1-53.5 177.4-114 279.4-151.4zm548.9 110.9c.6 0 1.1 0 1.6-.1h-2.9c.4.1.8.1 1.3.1zM954.8 466.5c-4.2-1-8.5-1.8-12.8-2.6 4.9 1.9 9.1 2.7 12.8 2.6zm2.8.6c-1 .2-2 .3-3.1.3 3.4.8 6.8 1.6 10.2 2.6-.8-.6-1.7-1.2-2.5-1.7-1.6-.4-3.1-.8-4.6-1.2zm908.2-420.9c-14.1 38.9-51.9 72.9-109.5 98.2-61.5 27.1-145 43.8-241.3 48.3-22.2 1-43.5 2.4-64 3.7-10.2.6-19.8 1.2-29.4 1.8-61.5 3.6-125 8.4-172.3 18.7-45.5 9.9-74.8 24.6-92.3 46.2-19.7 24.4-25.4 59.1-17.7 109.2 5 33 19.1 76.7 32.7 118.9 12.4 38.5 24.3 75.6 28.2 101 .3.2.7.3 1 .5-3.7-25.6-15.8-63.1-28.2-101.8-13.6-42.2-27.6-85.9-32.6-118.8-7.6-49.8-2.1-84.3 17.5-108.4 17.3-21.4 46.4-35.9 91.7-45.8 47.2-10.3 110.6-15 172.1-18.6 9.6-.6 19.2-1.2 29.4-1.8 20.6-1.3 41.8-2.6 64-3.7 96.4-4.5 180-21.2 241.6-48.3 57.8-25.5 95.9-59.7 110-98.8 5.5-15.1 7.3-30.7 5.5-46.6h-1.1c1.8 15.6.1 31.1-5.3 46.1zM999.6 481.3c-1.3-.6-2.5-1.1-3.8-1.6 1.1.8 2.2 1.7 3.3 2.5.2-.3.3-.6.5-.9zm187 143.4l.4.4h2c-.8-.1-1.6-.2-2.4-.4zm-92.9-73.1c-.5 0-1-.1-1.5-.1l1 1c.5.1 1.1.1 1.6.2l-1.1-1.1zm-126-81.8c-.9-.3-1.8-.5-2.7-.8.9.6 1.8 1.2 2.6 1.8.7.2 1.5.4 2.2.6-.6-.5-1.3-1-2.1-1.6zm4.7 2.5c3.2 1 6.4 2 9.5 3.2-.8-.7-1.5-1.3-2.3-1.9-3.1-1-6.2-2-9.4-3 .8.5 1.5 1.1 2.2 1.7zm84.1 45.2l2.7.9-7.8-6.3c-1.3-.5-2.5-1.1-3.8-1.6 3 2.3 6 4.6 8.9 7zm-60.9-36.8c-1.2-.9-2.3-1.8-3.5-2.6-3.2-1.3-6.5-2.5-9.8-3.7.7.6 1.5 1.3 2.2 1.9 3.8 1.4 7.5 2.9 11.1 4.4zm206.6 120.7c-.1-1.4-.2-2.9-.4-4.5-.3-.1-.6-.2-1-.4.2 1.4.3 2.7.4 4 .3.4.7.7 1 .9zm-175.1-104.6c2.5 1.1 5 2.3 7.5 3.5-8.3-5.4-16.8-10.3-25.6-14.6 2.4 1.6 4.8 3.2 7.1 4.8 3.7 2 7.4 4.1 11 6.3zM1160.3 611h-1.7c5.1 3.7 9.7 6.7 13.9 9-1.3-1.2-2.6-2.4-4-3.6-2.6-1.5-5.3-3.3-8.2-5.4zm-19.1-15l-.6-.3h-1.4c6.6 5.6 12.6 10.4 18.1 14.5.6 0 1.2 0 1.7-.1-5.4-4-11.4-8.6-17.8-14.1zm-74.4-70.9c-1.7-1.6-3.5-3.1-5.2-4.6-.9-.3-1.7-.6-2.6-.9 2.2 1.9 4.5 3.8 6.7 5.8.4-.1.7-.2 1.1-.3zm69.9 68.4c.6.5 1.1 1 1.7 1.4h.9c-.8-.4-1.7-.9-2.6-1.4zm-53.5-52.5c-.6-.1-1.2-.2-1.8-.4 3.3 3.3 6.5 6.6 9.6 9.7.5.1 1.1.1 1.6.2-3.1-3.1-6.2-6.3-9.4-9.5zm26.6 26.4c-.5-.1-1.1-.1-1.6-.2 1.7 1.7 3.5 3.3 5.2 4.9.9.4 1.7.7 2.6 1-2.1-1.8-4.1-3.7-6.2-5.7zm7.9 7.5c-.8-.2-1.5-.5-2.3-.8 2.2 2.1 4.4 4.1 6.5 6.1.5 0 1.1 0 1.6.1-2-1.8-3.9-3.6-5.8-5.4zm-21.2-20.5c-.6-.1-1.1-.2-1.7-.2 4.1 4.1 8.1 8.1 12 11.8.5 0 1.1.1 1.6.1-3.8-3.7-7.8-7.6-11.9-11.7zm-142.1-87c1.1 0 2.1-.1 3.1-.3-.9-.2-1.8-.5-2.8-.7-3.7.2-7.9-.7-12.8-2.6-1-.2-2-.4-3-.5.2.2.4.4.7.6.8.4 1.7.7 2.5 1 4.2.8 8.3 1.6 12.3 2.5zm-14.7-3.5c-.5-.2-1.1-.5-1.6-.7-.3 0-.6-.1-.9-.1.5.4 1 .9 1.5 1.3.6.1 1.2.2 1.9.3-.3-.3-.6-.6-.9-.8zm59.6 18.4c.2.1.5.2.7.3.2-.3.3-.6.5-1-.3-.1-.6-.3-.9-.4-.1.3-.3.6-.4.9 0 .1 0 .2.1.2zm-61.2-19.2c.5.3 1.1.5 1.6.7-.2-.2-.4-.4-.7-.6-.3 0-.6 0-.9-.1zM965 469c-1-.3-1.9-.5-2.9-.8.8.6 1.7 1.2 2.5 1.7l3 .9c-.8-.5-1.7-1.1-2.6-1.8zm69.7 32.3c-.5-.2-.9-.5-1.4-.7.4.3.8.5 1.2.8.1 0 .1 0 .2-.1zm-67-31.5c.7.6 1.4 1.1 2.1 1.7.8.3 1.7.5 2.5.8-.7-.6-1.4-1.2-2.1-1.7-.8-.3-1.6-.6-2.5-.8zm100 56.1c-.3-.3-.6-.5-.9-.8l-1.2.3c.3.3.6.5.9.8l1.2-.3zm23.3 24.4l1.2 1.2c.5 0 1 .1 1.5.1l-1.1-1.1c-.5-.1-1.1-.1-1.6-.2zm-109.1-74.9c.9.3 1.7.6 2.6.9-.7-.6-1.5-1.3-2.2-1.9-.9-.3-1.8-.7-2.7-1 .8.7 1.6 1.4 2.3 2zm17.2 6.8c-1.1-.9-2.2-1.7-3.3-2.6-1.2-.5-2.4-1-3.7-1.5 1.2.9 2.3 1.7 3.5 2.6 1.2.5 2.4 1 3.5 1.5zm116.8 91c-.8-.3-1.7-.6-2.6-1 .7.7 1.4 1.3 2 1.9.8.3 1.6.6 2.3.8l-1.7-1.7zm-116.8-91c0 .1.1.1.1.1s0-.1-.1-.1zm9.2 4.3c2.6 1.3 5.2 2.6 7.8 4-2.3-1.7-4.7-3.3-7.1-4.8-2.7-1.3-5.5-2.6-8.3-3.9 2.6 1.5 5.1 3.1 7.6 4.7zM1140 595c-.9-.8-1.9-1.6-2.8-2.4-1.7-1-3.4-2-5.2-3.2 1.6 1.4 3.2 2.8 4.7 4.1.9.5 1.7 1 2.6 1.4.2.1.5.1.7.1zm.6.7l.6.3c-.1-.1-.2-.2-.4-.3h-.2zm91.7 22.3l-.9-5.4-.1-.1-.9-.3c.4 1.9.7 3.8 1 5.6.3.1.6.2.9.2zm-110.6-49.1c-.5-.1-1.1-.1-1.6-.2 2.2 2.3 4.4 4.6 6.5 6.8.5 0 .9 0 1.3-.1-2-2.2-4.1-4.3-6.2-6.5zm111 64.6c.3.3.6.7.9 1 .1-1.8 0-3.8-.1-5.9-.3 0-.6-.1-.9-.1 0 1.8.1 3.4.1 5zm-79.6-32.9c-.7-.2-1.3-.3-2-.5 3.6 3.5 7 6.8 10.4 9.9h1.5c-3.2-2.9-6.5-6.1-9.9-9.4zm23.3 21.5c-1.3-.6-2.6-1.3-3.9-2.1 2.1 1.9 4.1 3.6 6.1 5.3.5 0 1-.1 1.5-.1-1.2-.9-2.4-2-3.7-3.1zm-48.8-45.7c1.4 1.5 2.8 2.9 4.2 4.4.5 0 1 .1 1.5.1-1.5-1.5-3-3.1-4.5-4.6-.4 0-.8.1-1.2.1zm-145.5-94.7c-8.4-2-17-3.6-25.8-4.7.4.3.8.6 1.2.8 9 1.3 17.8 3 26.6 5.1-.7-.3-1.3-.8-2-1.2zm9.8 2.5c-2.2-.6-4.4-1.2-6.6-1.7.7.5 1.5.9 2.2 1.3 1.9.5 3.8 1 5.7 1.6-.4-.4-.8-.8-1.3-1.2zm142.4 97.7c-.5 0-1-.1-1.5-.1 4.6 4.7 9 9.1 13.2 13.3.5 0 1 0 1.5.1-4.2-4.2-8.6-8.6-13.2-13.3zm-93.4-77.4c4.3 2.3 8.5 4.7 12.7 7.2 2.3 1 4.6 2.1 6.9 3.2-8-5.2-16.1-9.8-24.6-14-.1 0-.2 0-.2.1 1.8 1.2 3.5 2.3 5.2 3.5zM1232.6 635c-.1 1.9-.3 3.6-.6 5.1h.9c.2-1.3.4-2.7.5-4.1-.2-.3-.5-.7-.8-1zm-197.9-134.7s-.1 0 0 0c-.1 0 0 0 0 0zm-14.5-5.5c-1-.7-2-1.4-3-2.2-3.1-1.2-6.3-2.4-9.5-3.5.6.5 1.2 1 1.7 1.5 3.6 1.3 7.2 2.7 10.8 4.2zm-23.9-8.5c.2-.2.4-.4.6-.7-.9-.3-1.8-.5-2.7-.8.5.4.9.8 1.4 1.2.2.1.5.2.7.3zm100.8 57.3c-3.2-3-6.5-5.9-9.8-8.7-.9-.3-1.7-.6-2.6-.9 3.5 2.9 6.9 5.9 10.3 9.1.7.1 1.4.3 2.1.5zm65.4 67.4c2 1.9 4 3.7 6 5.5 1.6 1 3.1 1.9 4.6 2.7-2.9-2.6-6-5.3-9.1-8.3-.5.1-1 .1-1.5.1zM997.3 486.6c3.2 1 6.3 2 9.5 3.1l-1.8-1.5c-2.4-.8-4.7-1.5-7.1-2.3-.2.2-.4.5-.6.7zm235.2 132.8c0-.1 0-.3-.1-.4-.2 0-.3-.1-.5-.1.2.1.4.3.6.5zM1102.7 549c-.3.2-.5.4-.8.6 1.7 1.7 3.4 3.4 5 5.1.6.1 1.1.2 1.7.3-1.9-2-3.9-4-5.9-6zm129 71.1c.4 2.6.6 5.1.8 7.4.3 0 .6.1.9.1-.1-2.1-.3-4.3-.6-6.6-.4-.2-.7-.5-1.1-.9zm-2.3 26.3c.2.2.4.5.7.8 1.2-1.6 2.1-3.6 2.6-6.1h-.9c-.5 2.2-1.3 4-2.4 5.3zm-18.3 1.6c3.6 1.6 6.7 2.6 9.5 2.8-.4-.4-.7-.8-1.1-1.1-3.1-.5-6.8-1.9-11.1-4.1.8.8 1.8 1.6 2.7 2.4zm-140-125.2c.1-.1.3-.2.4-.4-.8-.6-1.5-1.1-2.3-1.7-2.3-1.2-4.6-2.4-6.9-3.5 2.4 1.6 4.7 3.2 7.1 4.9.6.2 1.1.5 1.7.7zM1227 648.7c-1.6 1-3.6 1.3-5.9 1.2l1 1c2.1 0 3.9-.5 5.4-1.4.7-.4 1.4-1 2-1.6-.2-.2-.4-.5-.7-.7-.6.6-1.2 1.1-1.8 1.5zM955.5 477.5c-.4-.3-.7-.5-1.1-.8-13.2-1.7-26.8-2.6-41-2.6h-1.5c-65.3.3-142.6 18.4-243.2 57.2-93.9 35.9-181.9 91.1-260.5 141.6h1.8c78.2-50.3 165.7-105.1 259-140.7 97.6-37.5 196.9-66.8 286.5-54.7zM1231.1 611c0-.3-.1-.5-.1-.8-.4-.2-.7-.4-1.1-.6 0 .2.1.4.1.6.4.3.8.5 1.1.8zm-158-87.4c-.3-.2-.5-.4-.8-.6l-.2.2c.4.2.7.3 1 .4zm9.6 8.7c.9.3 1.7.5 2.6.8-2.8-2.3-5.5-4.5-8.4-6.7l-3.6-1.5c3.1 2.4 6.3 4.9 9.4 7.4zm65.5 63.5c-.5 0-1 0-1.5-.1l2.7 2.7c.7.3 1.5.5 2.2.7-1.1-1-2.2-2.1-3.4-3.3zm-46.2-47.5c-1.3-1.3-2.6-2.5-3.9-3.7-.7-.2-1.3-.4-2-.5 1.7 1.6 3.4 3.2 5 4.8.1 0 .2-.1.2-.1.3-.2.5-.4.7-.5zm9.2 9.4l-.8-.8c-.6-.1-1.1-.2-1.7-.3.6.6 1.2 1.2 1.7 1.8 2.9 3 5.6 6 8.4 8.9.5.1 1.1.1 1.6.2-3-3.2-6.1-6.4-9.2-9.8zm792.4-508.2c-14 39.4-52.5 73.8-111.3 99.4-62.9 27.4-148.3 44.1-246.9 48.2-24 1-46.8 2.3-68.8 3.6-8.9.5-17.7 1-26.3 1.5-149.5 8.3-232.1 20.8-268.3 66.2-20.5 25.6-25.8 62.3-16.9 115.3 5.8 34.6 20.8 80.5 35.3 125 12.1 37.1 23.8 73.1 29.2 99.5.4.2.7.4 1.1.6-5.3-26.6-17.1-62.9-29.3-100.4-14.5-44.4-29.5-90.3-35.3-124.8-8.9-52.8-3.6-89.1 16.6-114.5 36-45 118.3-57.5 267.6-65.8 8.6-.5 17.4-1 26.3-1.5 22.1-1.3 44.9-2.6 68.8-3.6 98.8-4.1 184.3-20.8 247.3-48.3 59-25.7 97.7-60.3 111.8-100 5.7-16.2 7.3-32.8 4.7-49.8h-1.1c2.6 16.7 1.2 33.3-4.5 49.4zm-701.8 592.2c-.6 0-1.2.1-1.7.1 2.7 1.8 5.2 3.3 7.6 4.5-1.1-1-2.2-2-3.3-3.1-.9-.4-1.8-.9-2.6-1.5zm-20.5-15.4c-.5 0-1 .1-1.5.1 7 5.9 13.4 10.8 19 14.6.6 0 1.1-.1 1.7-.1-5.7-3.8-12.1-8.6-19.2-14.6zm-157.1-129.8c3 1.3 6 2.7 9 4.1-2-1.3-4.1-2.6-6.1-3.8-1.9-.9-3.9-1.7-5.8-2.5 1 .7 2 1.4 2.9 2.2zm-27.3-10.9c-.2.2-.4.5-.6.7.3.1.7.2 1 .3.2-.2.4-.4.6-.7-.3-.1-.7-.2-1-.3zm-40.6-8.6c-.6-.1-1.3-.2-1.9-.2.4.3.8.6 1.1.8.7.1 1.3.2 2 .3-.4-.4-.8-.6-1.2-.9zm28.9 5.4l1.5 1.2c.3.1.6.2.9.2-.7-.4-1.5-.9-2.2-1.3-.1 0-.2 0-.2-.1zm48.1 18.2c-.1 0-.1 0 0 0zm-50.5-18.7c-.2-.1-.4-.1-.7-.2.7.4 1.3.8 2 1.2h.1c-.5-.3-.9-.7-1.4-1zm53 19.1c.1 0 .2 0 .2-.1-.4-.2-.9-.5-1.3-.7.4.3.7.6 1.1.8zm36.5 22c-.3-.2-.5-.4-.8-.6-.1.1-.3.2-.4.4.3.1.7.3 1 .4.1 0 .2-.1.2-.2zm-89.5-41.1c.5.4 1 .7 1.4 1.1.8.2 1.6.4 2.5.6l-1.5-1.2c-.8-.2-1.6-.3-2.4-.5zm118.6 66.8c-.1 0-.2.1-.2.1l.7.7c.3-.2.5-.4.8-.6l-.7-.7c-.2.2-.4.4-.6.5zm-107.2-63.9c-.8-.2-1.5-.4-2.3-.6.5.4.9.8 1.4 1.2.8.2 1.5.4 2.3.7-.5-.4-.9-.8-1.4-1.3zm12.6 4.9c.9.3 1.7.6 2.6.9-.6-.5-1.2-1-1.7-1.5l-2.7-.9 1.8 1.5zm119.8 85.7c.3.3.6.6.9 1 .4 0 .8-.1 1.3-.1l-.9-.9h-1.3zm25 23.8c-.7-.2-1.4-.4-2.2-.7.6.5 1.1 1.1 1.7 1.6.7.2 1.4.4 2 .5-.5-.4-1-.9-1.5-1.4zm-127.4-102.7c-1-.7-2-1.5-2.9-2.2-1.4-.6-2.7-1.1-4.1-1.7 1 .7 2 1.4 3 2.2 1.4.5 2.7 1.1 4 1.7zm9 4.1c.5-.1 1-.2 1.4-.3h-.1c-2.5-1.2-5-2.4-7.5-3.5 2.2 1.2 4.2 2.5 6.2 3.8zm139.9 118.7c-1.5-.8-3-1.8-4.6-2.7 1.4 1.2 2.7 2.4 4 3.6 1.4.8 2.7 1.4 3.9 2.1-1.1-1.1-2.2-2.1-3.3-3zm-132.2-114.8c-1.7-1.2-3.4-2.3-5.1-3.5-.3.1-.7.2-1.1.3 2.1 1.1 4.2 2.1 6.2 3.2zm-6.2-3.2c.4-.1.7-.2 1.1-.3-.4-.2-.7-.5-1.1-.7-.5.1-.9.2-1.4.3h.1c.4.3.9.5 1.3.7zm70.6 43c.2-.3.3-.7.5-1-1.1-.9-2.2-1.7-3.3-2.5-1.4-.6-2.8-1.2-4.2-1.7 2.4 1.6 4.7 3.4 7 5.2zm3.4 2.6c1 .3 1.9.6 2.9.9-1.6-1.4-3.3-2.7-4.9-4-.2.3-.3.7-.5 1 .8.8 1.6 1.5 2.5 2.1zm53.5 53.8c3 3.2 5.9 6.3 8.8 9.3h1.4c-3-3.1-6-6.3-9.1-9.7-.4.2-.8.3-1.1.4zm97.4 27.4c.4 1.7.8 3.4 1.1 5.1.3.1.7.2 1 .3l-.9-4.5c-.4-.4-.8-.6-1.2-.9zm2 9.4c.3 1.8.6 3.6.9 5.2.3 0 .6.1.9.1-.2-1.4-.5-2.8-.7-4.3-.4-.3-.8-.6-1.1-1zm-231-134.6c-1.1-.4-2.2-.7-3.3-1.1-2.1-.2-4.4-.6-6.9-1.3.3.3.7.6 1 1 4 1.2 8.1 2.4 12 3.8-.9-.8-1.8-1.7-2.8-2.4zm233.1 150.2l.9 1.2c-.2-3.2-.5-6.6-1.1-10.4-.3 0-.6-.1-.9-.1.5 3.4.9 6.5 1.1 9.3zm-128.4-81.6c.1-.1.1-.2.2-.3-.2 0-.4-.1-.6-.1.2.1.3.3.4.4zm124.4 55.3c.2.1.4.2.7.3-.1-.4-.2-.8-.3-1.1-.4-.2-.7-.4-1.1-.6l.3 1.2c.1 0 .2.1.4.2zm-52 19.6c14.3 13 25.8 21.6 34.6 26-.9-.9-1.9-1.8-2.8-2.7-7.6-4.4-17.1-11.6-28.4-21.7-1.1-.5-2.3-1-3.4-1.6zm53.9 23.7c-.6 1.2-1.4 2.1-2.3 2.9h1.5c.6-.6 1.1-1.3 1.5-2.1-.3-.3-.5-.5-.7-.8zm566.8-516.8c-64.3 27.7-151.6 44.3-252.5 48.1-26.1 1-50.7 2.3-74.6 3.6-7.5.4-15 .8-22.3 1.2-84.5 4.4-137.5 10.1-177.1 18.9-46.8 10.4-77 25.8-95 48.6-21.2 26.8-26.3 65.4-16 121.5 6.7 36.2 22.6 84.4 37.9 131 11.9 35.9 23.4 70.8 29.8 97.8.1.1.2.1.4.2s.5.3.7.4c-6.4-27.2-18-62.4-30-98.7-15.4-46.5-31.3-94.7-37.9-130.9-10.2-55.7-5.2-94.1 15.8-120.7 17.8-22.6 47.8-37.9 94.4-48.2 39.6-8.8 92.5-14.4 177-18.9 7.3-.4 14.7-.8 22.3-1.2 23.9-1.3 48.5-2.6 74.6-3.6 101.1-3.8 188.5-20.5 252.9-48.2 40.1-17.3 70.9-38.6 91.2-62.8v-1.6c-20.1 24.6-51.1 46.1-91.6 63.5zm-567.2 482.5c.4.4.8.7 1.1 1.1-.2-.8-.3-1.7-.5-2.5-.3-.1-.7-.2-1-.3.2.6.3 1.1.4 1.7zm-258.7-139c-.9-.6-1.8-1.3-2.7-1.9-18.6-3.6-38.1-5.5-58.6-5.5h-.2c-66.2 0-143.9 18.8-244.7 59.1-81.6 32.4-159.3 79.3-230 124.5h1.9c70.4-45 147.6-91.5 228.6-123.6 100-40.1 208.7-72.9 305.7-52.6zm242 176.2h1.7c-1-.4-2.1-.9-3.2-1.4.5.5 1 .9 1.5 1.4zm-71.2-61.9h-1.4c4.5 4.7 8.7 9.1 12.9 13.2.6.2 1.3.3 1.9.4-4.3-4.3-8.8-8.8-13.4-13.6zm14.7 15h-1.4c5.3 5.3 10.3 10.2 15 14.6.5 0 .9-.1 1.4-.1-4.7-4.4-9.7-9.2-15-14.5zm-110.2-100.5c3 1.3 6 2.7 8.9 4.1-4.3-2.8-8.7-5.4-13.2-7.9-.3.3-.5.7-.8 1 1.7.8 3.4 1.8 5.1 2.8zm-6-3.4c.3-.3.6-.6.9-1-4-2.2-8-4.3-12.1-6.3 2.9 1.9 5.8 3.8 8.6 5.8.9.5 1.7 1 2.6 1.5zm61.7 47.4c.6.1 1.1.2 1.7.3-3.1-3.2-6.2-6.3-9.4-9.3l-2.1-.6c3.3 3.1 6.6 6.3 9.8 9.6zm-10-11.2c-3.4-3.2-6.8-6.2-10.3-9.2-.9-.3-1.9-.6-2.8-.9 3.7 3.1 7.4 6.3 11.1 9.6.6.1 1.3.3 2 .5zm18.8 19.1c-1.9-2.1-3.7-4.1-5.6-6.1h-.1c-.2.3-.4.5-.6.8 1.9 2 3.7 4 5.5 6 1.2 1.3 2.3 2.6 3.5 3.9.5.1 1 .1 1.5.2-1.3-1.6-2.8-3.2-4.2-4.8zm17.3 19c-.5 0-1-.1-1.5-.1 1.1 1.2 2.2 2.4 3.3 3.5.4-.1.7-.2 1.1-.3-1-1-1.9-2.1-2.9-3.1zm-12-13.1c-.5-.1-1-.1-1.5-.2 3.9 4.3 7.7 8.4 11.4 12.4.5 0 1 .1 1.5.1-3.8-3.9-7.5-8-11.4-12.3zm114.5 85.7c.2.3.4.5.7.8 1.5-3.3 2.1-8.1 2-13.9l-.9-1.2c.1 6.1-.4 10.9-1.8 14.3zm-162.8-130.8c-1.6-1.1-3.1-2.3-4.7-3.4-2.9-1.5-5.8-3-8.6-4.4 3 1.9 6 3.9 9 6 1.4.7 2.8 1.2 4.3 1.8zm-81-38.4c-2.3-.7-4.7-1.6-7.3-2.6-1.1-.3-2.2-.5-3.3-.8.8.7 1.5 1.3 2.3 2 3.1.7 6.2 1.5 9.3 2.4-.3-.4-.7-.7-1-1zm-12.7-3.9c-1.1-.2-2.2-.5-3.3-.7.9.7 1.8 1.3 2.8 2 .9.2 1.9.4 2.8.6-.8-.6-1.5-1.2-2.3-1.9zm197 145.7c.6.6 1.2 1.1 1.8 1.6 1.4.8 2.7 1.6 4 2.3-1.4-1.3-2.9-2.6-4.3-4-.6 0-1.1 0-1.5.1zm-151.2-129.5c3.7 1.6 7.3 3.3 10.9 5-2.9-1.9-5.7-3.7-8.6-5.5-2.2-1-4.4-1.9-6.6-2.8 1.4 1.1 2.9 2.2 4.3 3.3zm-15.3-6c3.9 1.4 7.7 2.9 11.5 4.4-1.5-1.1-2.9-2.2-4.4-3.2-3.3-1.3-6.6-2.5-10-3.7 1 .8 2 1.7 2.9 2.5zm-18.9-7.3c-2-.5-4.1-1.1-6.1-1.6 2.6 1.1 5 1.9 7.3 2.6-.3-.3-.7-.6-1-.9l-.2-.1zm2 .5c.4.4.8.7 1.2 1.1 2.5.7 4.7 1.1 6.9 1.3-2.7-.9-5.4-1.7-8.1-2.4zm-16.9-4.1c-.8-.2-1.6-.4-2.5-.5.9.7 1.8 1.3 2.7 1.9.9.2 1.7.4 2.6.5-1-.5-1.9-1.2-2.8-1.9zm70.4 27.4c.3-.3.6-.6.8-1-.3-.2-.6-.3-.9-.5-.3.3-.6.7-.9 1 .4.1.7.3 1 .5zm-67.1-26.7c.8.6 1.5 1.3 2.3 1.9.7.2 1.4.3 2.2.5-.8-.6-1.5-1.3-2.3-2-.8-.1-1.5-.2-2.2-.4zm99.7 48.3c.3.2.5.4.8.6.2-.3.3-.7.5-1-.3-.2-.5-.4-.8-.6-.1.3-.3.7-.5 1zm30.2 26.9c-.1.1-.1.2-.2.3l.7.7c.2-.3.4-.5.6-.8-.4-.1-.7-.1-1.1-.2zm-115.1-70.7l-2.1-.6c.3.3.7.6 1 .9l2.1.6c-.3-.3-.6-.6-1-.9zm-1.2-1.1c-.7-.2-1.4-.4-2.1-.5l.1.1c.3.3.7.6 1 .9l2.1.6c-.3-.4-.7-.7-1.1-1.1zm14.3 5.9c.9.3 1.8.6 2.6.9-1-.8-1.9-1.7-2.9-2.5l-2.7-.9c1.1.8 2 1.7 3 2.5zm127.9 94.6l.8.8c.4-.1.7-.2 1-.4-.2-.3-.5-.5-.7-.8-.4.2-.7.3-1.1.4zm25.2 24.8c-.6-.1-1.2-.3-1.9-.4l.8.8h1.4c0-.1-.2-.3-.3-.4zm-135.2-112.5c-1.4-1.1-2.9-2.2-4.4-3.3-1.3-.5-2.5-1-3.8-1.5 1.5 1.1 2.9 2.1 4.4 3.2 1.3.5 2.6 1.1 3.8 1.6zm10.9 5c2.3 1.1 4.6 2.3 6.9 3.5-2.8-2-5.7-3.9-8.6-5.8-2.3-1.1-4.6-2.2-6.9-3.2 2.9 1.8 5.7 3.6 8.6 5.5zm146 128.4c-1.3-.7-2.6-1.4-4-2.3 1.1 1 2.2 2.1 3.3 3.1 1.2.6 2.3 1.2 3.4 1.7-.8-.9-1.8-1.7-2.7-2.5zm3.1-4.4c2.8 2.9 5.4 5.8 8.1 8.5.6.1 1.1.2 1.6.2-2.7-2.8-5.5-5.7-8.3-8.7h-1.4zm-164.7-125.4c4.1 1.2 8.2 2.4 12.3 3.8-.8-.7-1.7-1.4-2.5-2.1-3.8-1.2-7.7-2.4-11.6-3.4.6.6 1.2 1.1 1.8 1.7zm66.3 28.5c-1.8-1.1-3.5-2.2-5.3-3.3-.1.3-.2.5-.2.8 1.8.8 3.7 1.6 5.5 2.5zm175.5 99.7c.4 1.5.7 2.9 1.1 4.3.3.1.7.2 1 .3-.3-1.2-.6-2.5-.9-3.7l-1.2-.9zm-183.8-103.5c.6.3 1.3.5 1.9.8l.3-.9c-6.6-3.9-13.3-7.5-20.1-10.8 2.6 1.7 5.3 3.5 7.9 5.3 3.3 1.8 6.6 3.7 10 5.6zm-34.7-16.9c.3-.2.5-.4.7-.6-.5-.3-.9-.7-1.4-1-3.4-1.3-6.8-2.5-10.2-3.7l2.4 2.1c2.9 1.1 5.7 2.2 8.5 3.2zm-27.1-10c-3.7-1-7.4-1.8-11.2-2.6.6.5 1.1 1 1.7 1.5 3.8.9 7.5 1.8 11.2 2.8-.6-.6-1.1-1.2-1.7-1.7zm-20.8-3.5l-2.4-1.5c-15.9-2.7-32.4-4-49.7-4.1h-.9c-66.8 0-144.8 19.4-245.2 61.1-69.7 28.7-137 68-199.5 107.4h1.9c62.1-39.1 128.9-78 198-106.5 97.3-40.4 202.6-73.6 297.8-56.4zm151.8 87.9c-.5-.1-1-.1-1.5-.2l.2.2c3.7 4.3 7.4 8.5 10.9 12.5.5 0 .9.1 1.4.1-3.5-4.1-7.2-8.3-11-12.6zm117.1 56.5c1.4 6.5 2.5 12.4 3.2 17.6.2.3.5.6.7.9h.3c-.6-5.2-1.6-11-3-17.4-.4-.4-.8-.8-1.2-1.1zm-214.1-128c3 1.3 6 2.7 9 4.1-2.7-1.7-5.4-3.4-8.2-5-1.5-.7-3.1-1.3-4.7-1.9 1.4.9 2.6 1.8 3.9 2.8zm58.3 35.2l2.7.9c-3.2-2.6-6.4-5.2-9.6-7.6-1.4-.6-2.8-1.1-4.1-1.7 3.7 2.7 7.4 5.5 11 8.4zm24.9 22.7c.6.1 1.1.2 1.7.3-3.2-3.3-6.4-6.5-9.7-9.7l-2.1-.6c3.4 3.3 6.8 6.6 10.1 10zm79.4 85.3c1.2.7 2.4 1.3 3.5 1.9-6.4-5.9-13.4-12.8-21-20.6-.5 0-1 0-1.5-.1 6.8 7 13.1 13.3 19 18.8zm-70.3-75.6c.8.9 1.7 1.9 2.5 2.8.5.1 1 .1 1.5.2-1.2-1.4-2.4-2.7-3.6-4-.1.3-.3.7-.4 1zm121.4 58.5l1.2 1.2c-.3-1.4-.6-2.7-.9-4.1-.3-.1-.7-.2-1-.3.2 1.1.4 2.2.7 3.2zM1125.7 553c-1.9-1.4-3.8-2.7-5.7-4.1-2.7-1.4-5.5-2.8-8.2-4.1 3.3 2.1 6.5 4.2 9.7 6.5 1.4.6 2.8 1.2 4.2 1.7zm-96-42.5c-2.2-.5-4.5-.9-6.7-1.3l1.5 1.2c.2.1.3.2.5.3 2.1.4 4.3.8 6.4 1.3-.5-.5-1.1-1-1.7-1.5zm139.2 81.8c-1.9-2.1-3.9-4.2-5.8-6.3-.6-.1-1.1-.2-1.7-.3 2.4 2.5 4.8 5.1 7.2 7.7 0-.4.2-.8.3-1.1zM1243 673h.7c-.5-.2-.9-.4-1.4-.6.2.2.5.4.7.6zm46-30.6c-.1-.4-.2-.7-.3-1.1-.4-.2-.8-.4-1.1-.6.1.4.2.9.3 1.3.4.1.8.3 1.1.4zm317.3-436.6c-28.7 1-55.6 2.3-81.7 3.6-5.7.3-11.3.6-16.9.8-149.9 7.4-238.3 20.6-275.9 68.8-21.9 28.1-26.7 68.6-15.1 127.6 7.4 37.8 24.3 88.2 40.5 136.9 11.6 34.8 22.9 68.7 30.1 96 .4.2.8.4 1.1.6-7.1-27.5-18.6-61.7-30.3-96.9-16.2-48.7-33-99-40.5-136.8-11.6-58.7-6.8-99 14.9-126.8 37.4-47.8 125.6-60.9 275.2-68.4 5.6-.3 11.2-.6 16.9-.8 26.1-1.3 53-2.7 81.7-3.6 103.4-3.5 192.7-20.1 258.5-48.1 21-8.9 39.4-18.9 55.2-29.8v-1.2c-15.8 11-34.4 21.1-55.5 30.1-65.7 27.9-154.9 44.5-258.2 48zM1139.2 565c3 2.5 5.9 5.1 8.9 7.8.7.2 1.4.3 2.1.5-2.9-2.7-5.9-5.4-8.9-8-.7-.2-1.3-.4-2-.7 0 .2-.1.3-.1.4zm57.3 60h1.4c-.3-.3-.6-.7-.9-1-.3.2-.5.4-.8.6 0 .1.1.3.3.4zm-123.2-100c-.6-.4-1.1-.8-1.7-1.2-.2.1-.3.2-.5.4.7.2 1.4.5 2.2.8zm123 98.3c-3.4-3.7-6.8-7.6-10.4-11.7-.5 0-.9-.1-1.4-.1 3.8 4.3 7.4 8.4 11 12.3 0 0 .1 0 .2-.1s.3-.2.6-.4zm1.1 2.7c4.5 5 8.9 9.7 13.1 14.2.4 0 .9 0 1.3-.1-4.2-4.5-8.5-9.2-13-14.1h-1.4zm-125.8-102.3c-.3-.2-.6-.4-.8-.6-.2.2-.5.4-.7.6.4.1.7.3 1.1.4.1-.1.2-.3.4-.4zm-47.1-13.3l.3.3h.2c-.2-.1-.3-.2-.5-.3zm-3.6-1.6c-.4-.1-.8-.1-1.2-.2l2.4 1.5c.2 0 .4.1.6.1-.6-.4-1.2-.9-1.8-1.4zm1.5.2c.7.4 1.4.9 2.1 1.3l-1.5-1.2c-.2 0-.4 0-.6-.1zm85 32.7c.1-.3.2-.5.2-.8-.3-.2-.6-.3-.8-.5l-.3.9c.4.2.6.3.9.4zm-85-32.7c-.5-.1-1-.2-1.5-.2.6.5 1.2 1 1.8 1.4.7.1 1.4.3 2.1.4l-.3-.3c-.7-.4-1.4-.8-2.1-1.3zm7.3 1.5c.6.5 1.1 1 1.6 1.5.7.1 1.3.3 2 .4-.6-.5-1.1-1-1.7-1.5-.5-.1-1.2-.3-1.9-.4zm109.6 54.1c-.3-.1-.5-.2-.8-.3.2.2.5.4.7.6 0 0 .1-.1.1-.3zm29.2 28.7c.2.3.5.5.7.8.1-.3.3-.7.4-1-.2-.3-.5-.5-.7-.8-.1.3-.3.7-.4 1zm-123.6-79.2l-2.1-.6c.6.5 1.2 1.1 1.8 1.7l2.1.6c-.6-.6-1.2-1.1-1.8-1.7zm150.7 109.7s-.1 0-.2.1c.2.3.5.5.7.8.3-.2.6-.4.8-.6-.2-.2-.4-.5-.7-.7-.2.1-.4.2-.6.4zM1059 519.6c.9.3 1.7.6 2.6.9l-2.4-2.1-2.7-.9c.8.7 1.7 1.4 2.5 2.1zm12.1 3.2c-.6-.2-1.2-.5-1.7-.7.5.3.9.7 1.4 1l.3-.3zm148.3 126.9c.4.4.7.8 1.1 1.1.5 0 1 .1 1.5.1l-1-1c-.5 0-1-.1-1.6-.2zm-147.8-126c.6.4 1.1.8 1.7 1.2l3.6 1.5c-1.3-1-2.5-1.9-3.8-2.9-.3-.1-.6-.3-1-.4-.1.3-.3.5-.5.6zm0 0c.2-.2.4-.3.6-.5-.3-.1-.7-.3-1-.4-.1.1-.3.2-.4.3.2.2.5.4.8.6zm14.3 6.9c2.9 1.4 5.8 2.8 8.6 4.4-2.6-1.8-5.2-3.6-7.9-5.3-3-1.4-5.9-2.8-8.9-4.1 2.8 1.6 5.5 3.2 8.2 5zm153.6 139.1c1 .9 1.9 1.8 2.8 2.7.5.2.9.4 1.4.6h.8c-.5-.5-1-.9-1.6-1.4-1-.6-2.2-1.2-3.4-1.9zm-127.7-124.8c-1.5-.9-3-1.9-4.5-2.8-.1.2-.1.4-.2.6 1.6.7 3.1 1.4 4.7 2.2zm87.7 68c.5.5.9 1.1 1.4 1.6.1-.4.1-.8.2-1.3l-.2-.2c-.4 0-.9-.1-1.4-.1zm.5-.9c-3.4-4-6.9-7.8-10.5-11.5-.6-.1-1.1-.2-1.7-.3 3.6 3.7 7.2 7.6 10.7 11.6.5.1 1 .1 1.5.2zm-137.7-85.3c-1.5 0-3.1-.1-4.8-.4l.3.3c4.2.9 8.3 1.9 12.4 3-.5-.4-.9-.9-1.4-1.3-2.1-.5-4.3-1.1-6.5-1.6zm161 114.3l5.4 6.3c.2-.2.4-.5.7-.8-1.6-1.8-3.2-3.6-4.8-5.5h-1.3zm413.5-430.9c-32.1 1-62 2.4-91 3.7l-9.4.4c-86.1 4-140.5 9.8-182 19.1-48.2 10.9-79.2 27-97.7 50.9-22.7 29.3-27.2 71.8-14.2 133.8 8.2 39.4 25.9 92 43 142.7 11.4 33.7 22.5 66.7 30.2 94l1.2.6c-7.7-27.6-18.9-60.9-30.4-95-17.1-50.8-34.8-103.2-43-142.6-12.9-61.7-8.4-104 14-133 18.4-23.7 49.2-39.8 97.2-50.6 41.4-9.3 95.8-15 181.8-19.1l9.4-.4c28.9-1.4 58.8-2.8 90.9-3.7 105.7-3.1 197-19.7 264.1-48 6.6-2.8 13-5.7 19.1-8.7v-1.1c-6.2 3.1-12.7 6-19.5 8.9-67 28.5-158.2 45-263.7 48.1zm-581 315.9c-2.1-.5-4.4-1.1-6.9-2-1-.2-2.1-.4-3.2-.5.4.4.8.7 1.2 1 3 .5 6 1.1 9.1 1.7-.1 0-.1-.1-.2-.2zm131.1 73.2c.6.1 1.1.2 1.7.3-3.3-3.4-6.7-6.8-10.1-10-.7-.2-1.4-.4-2.1-.5 3.5 3.3 7 6.7 10.5 10.2zm-12.1-11.7c.7.2 1.4.4 2.1.5l-5.7-5.1c0 .4 0 .9-.1 1.3 1.3 1.1 2.5 2.2 3.7 3.3zm-26.5-21.3l3.9 1.5c-2.2-1.6-4.4-3.2-6.7-4.7-1.8-.9-3.7-1.9-5.5-2.8v.3c2.7 1.9 5.5 3.7 8.3 5.7zm13.9 10.5c.9.3 1.8.5 2.7.8-2.6-2.1-5.1-4.2-7.8-6.2-1.3-.5-2.6-1.1-3.9-1.6 3 2.3 6 4.6 9 7zm-89.9-46.5c4.2 1.2 8.3 2.4 12.4 3.8-.7-.6-1.4-1.1-2-1.7-3.9-1.2-7.8-2.4-11.8-3.5.5.5 1 .9 1.4 1.4zm129.6 83.9c-.1.4-.1.8-.2 1.2.7.8 1.4 1.6 2 2.4 2.2 2.6 4.3 5.1 6.4 7.6.5 0 .9.1 1.4.1-2.3-2.7-4.6-5.5-7-8.3-.9-1-1.8-2-2.6-3zm117.6 55c.4.4.9.8 1.3 1.3-.8-3.2-1.7-6.5-2.6-10l-1.2-.9c.9 3.3 1.8 6.5 2.5 9.6zM1316 656c.1.4.2.8.3 1.1.4.1.7.3 1.1.4l-.3-.9c-.3-.1-.7-.4-1.1-.6zm-145.7-73.8c-.9-.8-1.9-1.6-2.8-2.4l-2.7-.9c1.8 1.5 3.7 3.1 5.5 4.7v-1.4zm147.6 76.9c0-.1-.1-.3-.1-.4-.3-.1-.6-.3-.9-.4.3.3.6.5 1 .8zm-186-103.5c2.4 1 4.8 2.1 7.2 3.3v-.1c-8.4-5.4-17.1-10.2-26.1-14.5 2.3 1.5 4.7 3.1 7 4.7 4 2 7.9 4.2 11.9 6.6zm-88-32.4c-1.2-.2-2.4-.3-3.5-.5.5.3.9.7 1.4 1 1.1.2 2.2.3 3.3.5-.4-.4-.8-.7-1.2-1zM1139 560v-.2c-.4-.2-.9-.4-1.3-.6.4.2.9.5 1.3.8zm-40.7-21l-3.3-2.4c-3.2-1.2-6.4-2.4-9.7-3.5.7.6 1.3 1.1 2 1.7 3.7 1.3 7.3 2.7 11 4.2zm131.1 109c8 9.2 15.5 17.5 22.5 25h1.4c-7.2-7.7-14.9-16.3-23.2-25.8-.2.3-.4.5-.7.8zm90.6 22.9c.2.7.3 1.4.5 2.1h1c-.1-.3-.1-.5-.2-.8-.4-.4-.9-.8-1.3-1.3zm-280.5-147.6c-.4-.3-.9-.7-1.3-1-12.6-1.7-25.7-2.6-39.1-2.7h-2c-67.4 0-145.5 20.1-245.5 63-58.2 24.9-115.1 57.1-168.8 90.4h1.9c53.3-33 109.7-64.8 167.3-89.4 93.6-40.3 194.8-73.7 287.5-60.3zm183 116.7h1.3c-3.7-4.3-7.6-8.8-11.5-13.4-.5 0-.9-.1-1.4-.1 4 4.6 7.8 9.1 11.6 13.5zm-120-99.3c1.2.5 2.5 1.1 3.7 1.6.1-.2.2-.5.3-.7-.6-.4-1.2-.7-1.8-1.1-1.8-.8-3.6-1.5-5.4-2.3 1.1.9 2.1 1.7 3.2 2.5zm-40.2-14l-5.7-1.2.9.9c1.8.2 3.4.4 4.8.3zm-13.4-2.7c2.4.9 4.7 1.5 6.9 2l-.9-.9c-2-.4-4-.7-6-1.1zm57.3 18.3c.3.1.6.3.9.4.1-.2.1-.4.2-.6-.3-.2-.6-.3-.8-.5-.1.3-.2.5-.3.7zm-65.8-19.7c-.7-.1-1.5-.2-2.2-.3.4.3.9.7 1.3 1 .7.1 1.5.2 2.2.3-.4-.3-.9-.6-1.3-1zm99.1 36.4c-.1-.1-.3-.2-.4-.2v.1c.1 0 .2.1.4.1zm-95.6-35.8c.4.3.8.7 1.2 1 .6.1 1.3.2 1.9.3-.4-.3-.8-.7-1.2-1-.7-.1-1.3-.2-1.9-.3zm96 37.3v-.3c-.3-.1-.6-.3-.9-.4v.2c.3.2.6.3.9.5zm-82.3-34.1l-1.8-.3.2.2c.6.1 1.2.3 1.8.4 0-.2-.1-.3-.2-.3zm113.6 56.6c-.3-.3-.6-.5-.9-.8v1.3c.3.3.6.5.9.8V583zm-114.5-57.5c-.6-.1-1.2-.2-1.8-.4l.9.9 1.8.3c-.3-.2-.6-.5-.9-.8zm144.2 89c.3.3.5.6.8.9.1-.4.2-.8.2-1.2-.3-.3-.5-.6-.8-.9-.1.4-.1.8-.2 1.2zm-130-85.6c-.7-.2-1.4-.4-2-.5.5.4.9.9 1.4 1.3.7.2 1.3.4 2 .6-.4-.6-.9-1-1.4-1.4zm13.8 5.1c.9.3 1.7.6 2.6.9-.7-.6-1.3-1.2-2-1.7-.9-.3-1.7-.6-2.6-.8.7.5 1.4 1 2 1.6zm144.1 113.2c.2.2.4.5.7.7.2-.2.4-.5.7-.8-.2-.2-.4-.5-.7-.8-.3.4-.5.7-.7.9zm-126.3-106.5l-3.3-2.4c-1.4-.6-2.9-1.1-4.3-1.7l3.3 2.4c1.5.5 2.9 1.1 4.3 1.7zm4.8 1.4c1.5.9 3 1.8 4.5 2.8 2.7 1.3 5.5 2.7 8.2 4.1-2.3-1.6-4.6-3.2-7-4.7-1.8-.9-3.7-1.7-5.6-2.6 0 .2 0 .3-.1.4zm-.7-.8c-.6-.3-1.3-.5-1.9-.8.6.4 1.2.7 1.8 1.1 0-.1 0-.2.1-.3zm.7.8c0-.1.1-.2.1-.4-.3-.1-.6-.3-.9-.4 0 .1-.1.2-.1.3.4.2.6.3.9.5zm21 12.9c3.1 1.3 6.3 2.7 9.4 4.2-1.9-1.2-3.9-2.4-5.8-3.6-2-.9-4.1-1.7-6.2-2.6.9.7 1.7 1.3 2.6 2zm-23.2-8.4c1.8.5 3.5 1.1 5.2 1.7-.5-.4-1.1-.9-1.6-1.3-1.1-.3-2.1-.7-3.2-1-.1.2-.3.4-.4.6zm96.1 54c-2.4-2.2-4.9-4.3-7.4-6.4-.9-.3-1.7-.6-2.6-.9 3.4 2.8 6.7 5.7 10.1 8.7 0-.5 0-.9-.1-1.4zm26.7 27.3c-.5-.1-1-.1-1.5-.2 2.1 2.4 4.1 4.8 6.1 7.2 0-.5 0-1 .1-1.5-1.5-1.8-3.1-3.6-4.7-5.5zm-123.8-81.6c.2-.2.3-.4.5-.6-2.5-.7-4.9-1.4-7.4-2.1l1 1c1.9.5 3.9 1.1 5.9 1.7zm461.1-328c-86.9 3.8-142.1 9.6-184.4 19.2-48.9 11.1-80.4 27.6-99.1 52.1-23.4 30.5-27.6 75-13.3 140 9 41 27.6 95.6 45.5 148.5 11.1 32.7 22 64.7 30.1 92 .4.2.8.4 1.2.7-8.1-27.6-19.1-59.9-30.4-93-17.9-52.8-36.5-107.4-45.5-148.4-14.3-64.7-10.1-109 13.1-139.2 38.8-50.5 133.1-64.3 282.8-70.9 30.6-1.4 65.2-2.9 102-3.8 99.3-2.6 186.2-16.8 252.7-41.3v-1.1c-66.5 24.5-153.4 38.8-252.8 41.3-36.7 1-71.3 2.6-101.9 3.9zm-503.7 318.6c.2.2.5.4.7.6 2.2.3 4.4.6 6.5.9-.2-.2-.5-.4-.7-.6-2.1-.4-4.3-.7-6.5-.9zm34.6 7.1c-.4-.3-.7-.7-1.1-1-4.2-1.1-8.4-2-12.7-2.9l.8.8c4.4 1 8.7 2 13 3.1zm92.9 47.4l2.7.9c-2.8-2.3-5.6-4.5-8.4-6.6l-3.6-1.5c3.1 2.3 6.2 4.7 9.3 7.2zm-18.8-14l-1.2-.6c.4.3.8.5 1.2.8v-.2zm174.1 93.9c.2.6.3 1.1.5 1.7h1c-.1-.3-.2-.7-.3-1-.4-.2-.8-.5-1.2-.7zm-129.4-56.1c3.6 3.7 7.1 7.5 10.6 11.5.5.1 1 .1 1.5.2-3.4-3.9-6.9-7.7-10.4-11.4-.6-.1-1.2-.2-1.7-.3zm-90.7-61.9c-.9-.6-1.8-1.3-2.7-1.9-3.3-1.2-6.6-2.4-10-3.5.5.4 1 .9 1.6 1.3 3.7 1.3 7.4 2.6 11.1 4.1zm47 24.9c1.5 1 2.9 2 4.4 3.1 1.2.5 2.4.9 3.6 1.4-1.1-.8-2.3-1.7-3.5-2.5-1.5-.8-3.1-1.6-4.6-2.4.1.2.1.3.1.4zm-111.9-41.1c-.3-.2-.6-.4-1-.6-9.8-1.1-19.9-1.7-30.2-1.8h-3c-67.9 0-146.2 20.7-246 65-47 20.8-93.3 46.3-137.9 73.3h1.9c44.1-26.6 89.9-51.8 136.4-72.3 91-40.5 189-74.2 279.8-63.6zm144.4 65.7c-.5-.5-1-.9-1.5-1.4 0 .3 0 .7.1 1 .4.2.9.3 1.4.4zm10.1 11.3c.6.1 1.1.2 1.7.3-3.5-3.6-7-7-10.5-10.3-.7-.2-1.4-.4-2-.5 3.6 3.3 7.2 6.8 10.8 10.5zm19.7 20.5c0 .5 0 1-.1 1.5.4.5.9 1.1 1.3 1.6.7.9 1.5 1.8 2.2 2.7.5 0 .9.1 1.4.1-.9-1.1-1.8-2.3-2.8-3.4-.6-.9-1.3-1.7-2-2.5zm-88.1-71.7c4.6 2.4 9.2 4.9 13.7 7.6 2.3 1 4.5 2 6.8 3-8.4-5.3-17.1-10.1-25.9-14.4v.1c1.8 1.3 3.6 2.5 5.4 3.7zm116.8 108l1.8 2.1h1.3c-.9-1-1.7-2.1-2.6-3.1-.1.3-.3.7-.5 1zm-181.5-131c-3.6-.7-7.2-1.3-10.8-1.8.2.2.5.4.7.7 3.6.6 7.3 1.2 10.9 2-.3-.4-.6-.7-.8-.9zm158.4 101.5c-.5 0-.9-.1-1.4-.1 8.4 10.4 16.3 19.9 23.8 28.8.2-.3.3-.6.5-1-7.2-8.5-14.8-17.7-22.9-27.7zm-179.5-104.8c-.4 0-.8-.1-1.2-.1.3.2.6.4 1 .6.3 0 .7.1 1 .1-.3-.2-.6-.4-.8-.6zm45.5 10c.1-.2.3-.4.4-.6-.3-.1-.6-.2-1-.3-.1.2-.3.4-.5.6.4.1.7.2 1.1.3zm34.9 12.7c-.2-.1-.3-.2-.5-.2.1 0 .3.1.5.2zm-78.5-22.4c-.2 0-.5-.1-.7-.1.3.2.7.4 1 .6h.4c-.2-.1-.5-.3-.7-.5zm-1.9-.3c.2.2.5.4.7.6.5.1 1 .1 1.5.2-.3-.2-.7-.4-1-.6-.4-.1-.8-.1-1.2-.2zm10.2 1.4l-1.8-.3c.2.2.5.4.7.6l1.8.3c-.2-.2-.4-.4-.7-.6zm101.4 40.2v-.4c-.3-.2-.6-.3-.9-.5v.2c.2.3.6.5.9.7zm-88.8-38c-.6-.1-1.2-.2-1.7-.4l.8.8c.6.1 1.2.2 1.8.4-.4-.3-.6-.5-.9-.8zm119.9 62.3c0-.3 0-.7-.1-1-.3-.3-.7-.6-1-.9 0 .5.1 1 .1 1.4.1.1.2.2.4.3.2.1.4.1.6.2zm-104.2-57.9l-1-1c-.7-.2-1.4-.4-2-.5.4.3.7.7 1.1 1 .6.1 1.3.3 1.9.5zm134.5 90.4c.3.3.6.7.8 1 0-.5.1-1 .1-1.5-.3-.3-.6-.7-.9-1v1.5zm-122.3-86.8c.9.3 1.9.6 2.8.9-.5-.4-1-.9-1.6-1.3-1-.3-1.9-.6-2.9-.9.6.5 1.2.9 1.7 1.3zm151.3 121.9c.2.3.4.5.7.8.2-.3.3-.6.5-1-.2-.3-.4-.5-.7-.8-.2.4-.4.7-.5 1zM1128.3 555c-.9-.7-1.8-1.3-2.6-2-1.4-.6-2.8-1.1-4.2-1.6.9.6 1.8 1.3 2.7 1.9 1.4.5 2.7 1.1 4.1 1.7zm11.7 4.3c0 .3 0 .6-.1.9 1.8.9 3.7 1.8 5.5 2.8-1.8-1.3-3.6-2.5-5.4-3.7zm-1 .5c0-.3 0-.6.1-.9l-7.2-3.3c2 1.2 3.9 2.4 5.8 3.6.4.2.9.4 1.3.6zm0 0c.3.1.6.3.9.4 0-.3 0-.6.1-.9-.2-.1-.3-.2-.5-.3-.1-.1-.3-.1-.4-.2 0 .3-.1.7-.1 1zm31.1 15.9c-1.4-.7-2.8-1.4-4.2-2l4.2 2.7v-.7zm62.4 43.7c.1.6.2 1.2.2 1.8 2.7 2.5 5.3 5.1 7.9 7.7l1.8.3c-3.2-3.4-6.5-6.7-9.9-9.8zm-149.9-68.2c-1.2-.1-2.3-.2-3.5-.3.7.5 1.4 1.1 2.1 1.6 1 .1 2.1.2 3.1.3-.5-.5-1.1-1-1.7-1.6zm212.5-110.3c-15.6-67.8-11.8-114 12.2-145.4 39.6-52 135.1-65.8 286.7-72.1 32.1-1.3 66.9-2.7 103.8-3.5 84.5-1.9 160.1-12 222.3-29.6V189c-61.6 17.5-137 27.9-222.3 29.8-36.9.8-71.7 2.2-103.8 3.5-151.9 6.3-247.6 20.2-287.4 72.5-24.2 31.7-28.1 78.2-12.4 146.3 9.8 42.6 29.2 99.3 48 154.1 9.3 27.1 18.4 53.7 26 77.7h1c-7.7-24.2-16.8-50.9-26.1-78.1-18.8-54.7-38.2-111.4-48-153.9zm-169.3 119.7c4.2 1.1 8.4 2.4 12.6 3.8-1.1-.9-2.1-1.7-3.2-2.6-3.9-1.2-7.8-2.3-11.8-3.4.9.7 1.6 1.4 2.4 2.2zm104.8 57c-3.4-3.1-6.8-6.1-10.3-9-1.1-.4-2.1-.7-3.2-1 3.8 3 7.5 6.2 11.2 9.5.8.1 1.6.3 2.3.5zM1123.7 560c-.8-.7-1.6-1.5-2.3-2.2-4.2-1.1-8.5-2-12.8-2.8.6.6 1.2 1.3 1.8 1.9 4.5.9 8.9 2 13.3 3.1zm15 2.8c-.2-.1-.5-.1-.7-.2.2.2.4.4.6.5 0-.1.1-.2.1-.3zm18.4 8.5c4 1.7 8 3.5 12 5.4-3.3-2.2-6.5-4.2-9.9-6.2-2.3-1-4.7-2-7-2.9 1.6 1.3 3.2 2.5 4.9 3.7zm-50.1-16.6c-4-.8-8.1-1.4-12.2-2l1.7 1.7c4.1.6 8.2 1.3 12.3 2.2-.7-.7-1.2-1.3-1.8-1.9zm122.7 63.6c.7.6 1.4 1.2 2 1.9-.1-.5-.1-.9-.2-1.4-.6-.2-1.2-.4-1.8-.5zm23.9 24.3c3.4 3.9 6.8 8 10.2 12.2 0-.6-.1-1.1-.1-1.7-2.8-3.5-5.7-7-8.6-10.3-.6-.1-1-.1-1.5-.2zm11 11.7c0 .6.1 1.1.1 1.7.4.5.8.9 1.1 1.4 4.2 5.4 8.3 10.6 12.3 15.6h1.3c-4.1-5.2-8.4-10.6-12.8-16.2-.7-.8-1.3-1.6-2-2.5zm-171.5-101.9c-2.9-.4-5.8-.7-8.7-1 .6.5 1.2 1.1 1.8 1.6 2.9.3 5.8.7 8.6 1.1-.6-.5-1.1-1.1-1.7-1.7zm107.3 41.3c-2.8-1.4-5.5-2.8-8.3-4.1 2.9 1.8 5.7 3.7 8.5 5.6 0-.5-.1-1-.2-1.5zm-61-29.9l1.8 1.5c4 1.4 8 2.9 12 4.4-1.6-1.2-3.3-2.4-4.9-3.6-2.9-1.1-5.8-2.1-8.7-3.1-.1.3-.1.6-.2.8zm62.2 31.9c1.5.6 3 1.1 4.5 1.7-1.4-1-2.9-2.1-4.3-3.1-.1-.1-.2-.1-.3-.2 0 .6.1 1.1.1 1.6zm-25.9-15.5c2.5 1.3 5 2.7 7.6 4.1 3.4 1.4 6.8 2.9 10.2 4.5-7.3-4.7-14.8-8.9-22.4-12.7 0 .3 0 .6.1.9 1.5 1.1 3 2.1 4.5 3.2zm76.9 61.3c.5.1 1 .1 1.5.2-3.4-3.9-6.9-7.7-10.5-11.4l-1.8-.3c3.6 3.7 7.2 7.5 10.8 11.5zm-37.3-35.4c1 .3 2.1.6 3.1.9-2.9-2.4-5.8-4.7-8.8-6.9-1.6-.7-3.2-1.3-4.9-2 3.6 2.6 7.1 5.2 10.6 8zm-136-53.8c-.7-.5-1.4-1-2.1-1.6-6.6-.5-13.3-.8-20.1-.9-69.4-.8-148.9 20.5-250.3 67-36 16.5-71.7 35.7-106.6 56.2h2c34.4-20.1 69.6-39 105-55.3 84.1-38.6 180.8-73.5 272.1-65.4zm59.1 12c0 .1 0 .1 0 0 0 .1 0 0 0 0zm1-.5c0-.2.1-.5.1-.7l-.9-.3c0 .1 0 .2-.1.3.4.2.7.5.9.7zm-60.3-12.9c-.6-.1-1.3-.1-1.9-.1.7.5 1.4 1.1 2.1 1.6.7.1 1.4.1 2 .2-.7-.6-1.4-1.1-2.2-1.7zm3.5.3c.6.5 1.2 1.1 1.8 1.6.6.1 1.2.1 1.8.2-.6-.5-1.2-1.1-1.8-1.6-.6-.1-1.2-.1-1.8-.2zm88.5 25.8c0-.3 0-.6-.1-.9-.3-.2-.6-.3-1-.5v.7c.5.3.8.5 1.1.7zm30 18.6c.2.1.3.1.5.2-.1-.5-.1-1-.2-1.5-.3-.2-.7-.3-1-.5.1.5.1 1 .2 1.5.2 0 .4.1.5.3zm-108-43.2l1.7 1.7c.6.1 1.1.2 1.7.2l-1.7-1.7c-.6 0-1.1-.1-1.7-.2zm15.5 2.6c-.6-.1-1.1-.2-1.7-.3.6.6 1.2 1.2 1.8 1.9.6.1 1.1.2 1.7.3-.6-.6-1.2-1.3-1.8-1.9zm122.9 63.7c.1.5.1.9.2 1.4l1 1c-.1-.6-.2-1.2-.2-1.8-.2-.2-.4-.3-.6-.5-.1 0-.2 0-.4-.1zm-105.7-58.1c-.8-.7-1.6-1.5-2.4-2.2-.7-.2-1.4-.3-2.1-.5.8.7 1.6 1.4 2.3 2.2.8.1 1.5.3 2.2.5zm138 94.2l.9 1.2c0-.5 0-1.1-.1-1.7l-.9-1.2c0 .6 0 1.2.1 1.7zm-122.6-89.5l-1.8-1.5c-.1.3-.1.6-.2.8.7.3 1.4.5 2 .7zm-2.6-2.2c-.2-.2-.4-.4-.6-.5l-2.7-.9c1.1.9 2.1 1.7 3.2 2.6 0-.4.1-.8.1-1.2zm-.2 1.2s0 .1 0 0c.3.2.6.2.9.3.1-.3.1-.6.2-.8-.3-.2-.5-.5-.8-.7l-.3 1.2zm18.7 7c-1.6-1.2-3.3-2.5-4.9-3.7l-3.9-1.5c1.7 1.2 3.3 2.4 4.9 3.6 1.3.6 2.6 1.1 3.9 1.6zm18.6 8.9c-1.5-1.1-3.1-2.1-4.6-3.2v.8c1.6.8 3.1 1.6 4.6 2.4zm-6.7-3.4l1.2.6c0-.3 0-.7-.1-1l-4.2-2.7c-2.2-1.1-4.5-2.1-6.8-3 3.4 1.9 6.7 3.9 9.9 6.1zm2.1.2c-.3-.2-.6-.4-1-.6 0 .3 0 .7.1 1 .3.2.6.3.9.5v-.9zm.1 4c2.8 1 5.6 2.1 8.4 3.2-1.3-1-2.7-2-4.1-2.9-1.4-.5-2.9-1.1-4.4-1.6.1.4.1.9.1 1.3zm61.4 31c-.5-.3-.9-.7-1.4-1 0 .2.1.3.1.5.4.2.8.3 1.3.5zm38.1 33.2c-.6-.1-1.1-.2-1.7-.3 8.4 8.6 16.6 17.9 24.6 28.1h.7c0-.3-.1-.6-.1-.9-7.6-9.6-15.4-18.6-23.5-26.9zm-134.1-73.8c4.5.9 8.9 2 13.4 3.1-.6-.6-1.3-1.2-1.9-1.8-3.6-.9-7.2-1.7-10.8-2.4-.2.4-.5.7-.7 1.1zm94.8 41.2c3.7 2.6 7.3 5.4 10.9 8.2 1 .3 1.9.6 2.9.9-3.2-2.6-6.4-5.1-9.6-7.5-1.3-.5-2.8-1.1-4.2-1.6zm-48.1-26.9c3 1.2 5.9 2.6 8.9 3.9-2.9-1.8-5.9-3.6-8.8-5.3-1.4-.6-2.7-1.1-4.1-1.7 1.3 1.1 2.6 2.1 4 3.1zm-13-5v-1.3c-1.8-.6-3.6-1.3-5.5-1.9.9.7 1.8 1.5 2.7 2.2.9.4 1.9.7 2.8 1zm-36.8-11.1c-4.3-.8-8.7-1.5-13.1-2.1.4.5.9.9 1.3 1.4 4.4.6 8.8 1.4 13.2 2.2-.4-.5-.9-1-1.4-1.5zm125.4 64c-.7-.2-1.4-.3-2.1-.5l4.8 4.5c-.1-.6-.2-1.2-.3-1.7-.9-.9-1.6-1.6-2.4-2.3zm-106.8-58.5c4.3 1.1 8.5 2.4 12.7 3.8-.9-.7-1.8-1.4-2.6-2.2-4-1.2-8-2.4-12-3.4.6.6 1.2 1.2 1.9 1.8zm110.3 61.8c.1.6.2 1.2.3 1.7 1.7 1.6 3.4 3.3 5.1 5l1.8.3c-2.4-2.4-4.8-4.7-7.2-7zm-143.5-69.6c-3.5-.4-6.9-.9-10.4-1.2.5.4.9.9 1.4 1.3 3.5.3 6.9.8 10.4 1.2-.6-.4-1-.9-1.4-1.3zm202-114.9c-17-70.8-13.4-119 11.3-151.7 19.2-25.4 51.4-42.5 101.4-54 43.5-10 101.8-15.9 189.2-19.4 25.2-1 63.6-2.4 105.5-3.2 71-1.3 135.8-8.4 191.8-20.7v-1.1c-55.6 12.3-120.3 19.5-191.9 20.8-41.9.8-80.3 2.2-105.5 3.2-87.4 3.4-145.8 9.4-189.3 19.4-50.2 11.5-82.6 28.8-101.9 54.3-24.9 32.9-28.5 81.4-11.5 152.5 10.6 44.1 30.8 102.9 50.4 159.7 7.2 20.8 14.2 41.3 20.7 60.7h1c-6.5-19.5-13.6-40.1-20.8-61-19.6-56.7-39.9-115.5-50.4-159.5zm-220.7 114.2c-.7-.4-1.4-.8-2.1-1.3-4-.2-8-.4-12-.4-70.1-1-150.1 20.9-251.7 69-25.1 11.8-50.1 25.1-74.9 39.1h2c24.2-13.7 48.7-26.6 73.3-38.2 82-38.8 175.9-74 265.4-68.2zm101.6 27.8c3 1.6 6.1 3.2 9.1 5 3 1.2 6 2.6 8.9 3.9-6.1-3.8-12.2-7.4-18.5-10.6.1.5.1 1 .2 1.5 0 0 .1.1.3.2zm-1.6-2.3l-1.2-.6c-1.8-.9-3.6-1.8-5.5-2.7 2.3 1.5 4.6 3 6.9 4.6-.1-.4-.1-.8-.2-1.3zm30 19c-.1-.3-.1-.6-.2-.9-1-.7-1.9-1.4-2.9-2-2.8-1.5-5.7-2.8-8.5-4.2 3.3 2 6.5 4.2 9.7 6.4.6.2 1.3.5 1.9.7zm14 11.2c3.8 3 7.5 6.2 11.2 9.6.7.2 1.4.4 2.2.5-3.5-3.2-7-6.2-10.6-9.2-1-.3-1.9-.6-2.8-.9zm-107.9-52.2c-.4-.1-.7-.1-1.1-.2.2.3.5.5.7.8.1-.2.3-.4.4-.6zm-28.1-2.8l-1.3-1.3c-2.1-.2-4.2-.3-6.4-.5.1 0 .1.1.2.2.7.4 1.3.8 2 1.1 1.8.1 3.6.3 5.5.5zm28.4 4.1c.2-.3.4-.7.7-1.1-.3-.1-.7-.1-1-.2l-.3.6c.2.2.4.4.6.7zm-35.9-5.8c.4.4.9.7 1.3 1.1h.7c-.7-.3-1.4-.7-2-1.1zm-2.6-.2c.7.4 1.3.8 2 1.2-.5-.4-.9-.8-1.4-1.2h-.6zm73.1 15.6v-1.4l-.9-.3v1.3c.3.2.6.3.9.4zm-70.8-15.5c.1.1.2.1.3.2-.1-.1-.2-.2-.3-.2zm-.3 1.1c.1 0 .1 0 0 0 .1 0 .1 0 0 0 .1 0 .1 0 0 0zm1.9.1c-.4-.4-.9-.7-1.3-1.1-.1 0-.2-.1-.3-.2-.5 0-1.1-.1-1.6-.1.5.4.9.8 1.4 1.2 0 0 .1 0 .1.1.5.1 1.1.1 1.7.1zm99.4 27.4c-.1-.5-.1-1-.2-1.5-.3-.2-.7-.3-1-.5.1.4.1.9.2 1.3.3.3.7.5 1 .7zm-93-28c-.5 0-1.1-.1-1.6-.1l1.3 1.3c.5.1 1.1.1 1.6.2-.4-.5-.8-1-1.3-1.4zm12 1.4c-.5-.1-1.1-.1-1.6-.2.4.5.9.9 1.3 1.4.5.1 1.1.1 1.6.2-.4-.5-.8-1-1.3-1.4zm110.7 43.5c-.4-.3-.7-.5-1.1-.8.1.3.1.6.2.9.3.1.7.2 1 .4 0-.2 0-.3-.1-.5zm.3 1.6h-.1.1zm-96.2-42.7c-.6-.1-1.1-.2-1.7-.3l1.5 1.5c.2 0 .4.1.6.1.1-.2.3-.4.4-.5-.3-.3-.6-.5-.8-.8zm1.4 1.5zm125 66.1l1.1 1.1c-.1-.6-.2-1.1-.3-1.7-.4-.4-.8-.7-1.1-1.1 0 .6.2 1.2.3 1.7zm-125.7-66.8c-.1.2-.3.4-.4.5.4.1.7.1 1.1.2-.2-.3-.4-.5-.7-.7zM1294.3 673h.6c-.2-.3-.5-.6-.7-.9 0 .3.1.6.1.9zm-142.2-97.9c-.6-.6-1.3-1.2-1.9-1.8-.7-.2-1.4-.3-2.1-.5.6.6 1.3 1.2 1.9 1.8.7.1 1.4.3 2.1.5zm12.7 3.7l2.7.9c-.9-.8-1.8-1.5-2.7-2.2-.9-.3-1.8-.6-2.7-.8l2.7 2.1zm18.5 6.9c-1.4-1-2.7-2.1-4.1-3.1-1.2-.5-2.4-.9-3.6-1.4 1.4 1 2.7 1.9 4.1 2.9 1.2.6 2.4 1.1 3.6 1.6zm18.5 8.7c-.1-.1-.2-.2-.3-.2v.1s.2 0 .3.1zm-9.7-4.8c2.8 1.3 5.5 2.6 8.3 4.1v-.3c-2.3-1.6-4.6-3.1-6.9-4.6-3.4-1.6-6.8-3.1-10.2-4.5 2.9 1.7 5.9 3.5 8.8 5.3zm9.3 4.5c-.3-.2-.7-.5-1-.7v.3c.4.2.7.3 1 .4 0 .1 0 .1 0 0zm-31.4-6.6c0-.3.1-.7.1-1-2.7-.6-5.5-1.2-8.3-1.7.4.4.8.8 1.2 1.3 2.4.3 4.7.8 7 1.4zm59.9 22.1l-.3-1.5c-.2-.1-.4-.2-.7-.3-3.1-1.6-6.2-3.1-9.3-4.5 2.5 1.6 5 3.2 7.4 4.9 1.1.5 2 1 2.9 1.4zm30.9 19.3c3 2.2 5.9 4.4 8.8 6.7.9.3 1.8.6 2.7.8-3.3-2.7-6.6-5.3-10-7.8-.6-.2-1.2-.5-1.8-.7.1.4.2.7.3 1zM1118.1 581l-1.2-.9c-.6 0-1.1 0-1.7-.1-70.8-1.2-151.3 21.3-253.1 71.1-14.2 6.9-28.4 14.3-42.6 22h2.1c13.6-7.4 27.3-14.4 40.9-21.1 78.9-38.6 168.9-73.7 255.6-71zm120.5 33.4c2.7 1.1 5.4 2.3 8.1 3.6-5.2-3.3-10.5-6.4-15.9-9.2l.3 1.5c2.4 1.3 4.9 2.7 7.5 4.1zm-60.1-24.9c4.3 1.1 8.5 2.4 12.8 3.7-.8-.6-1.5-1.2-2.3-1.9-4-1.2-8-2.3-12.1-3.4.5.7 1 1.1 1.6 1.6zm80.8 37.1v-.2l-6-4.2c-2.7-1.4-5.4-2.7-8.1-3.9 3.5 2.2 6.9 4.4 10.3 6.8 1.3.6 2.5 1.1 3.8 1.5zm-137.5-46.4c-1 0-2.1-.1-3.1-.1.4.3.8.6 1.3.9 1 0 1.9.1 2.9.1-.4-.3-.7-.6-1.1-.9zm79.8 15.7c0 .4.1.7.1 1.1l3 1.2c-1-.8-2-1.6-3.1-2.3zm90.2 57.9c.1.6.3 1.2.4 1.8 5.6 5.4 11 11.2 16.4 17.4h1.3c-5.9-6.8-11.9-13.1-18.1-19.2zm-91-57.2c0-.4-.1-.8-.2-1.2-3-1.1-6-2.1-9-3.1.7.6 1.5 1.2 2.2 1.9 2.4.7 4.7 1.6 7 2.4zm145.9-132.7c-18.4-74-15.1-124.3 10.4-158.2 41.2-54.7 143.2-69 294.3-74.3 34.5-1.3 70.6-2.3 107.2-2.9 58.3-.9 112.6-5.6 161.4-13.9v-1c-48.5 8.2-102.6 13-161.4 13.9-36.6.6-72.7 1.5-107.2 2.9-88.1 3.1-147.3 9-191.7 19.3-50.8 11.7-83.7 29.3-103.4 55.4-25.7 34.2-29.1 84.7-10.6 159 11.4 45.6 32.4 106.4 52.8 165.1 5.1 14.8 10.2 29.5 15.1 43.8h1.1c-4.9-14.3-10-29.1-15.2-44.1-20.4-58.7-41.5-119.5-52.8-165zm-186.6 120.5c-4.5-.8-9-1.5-13.5-2.1.3.4.7.7 1 1.1 4.6.6 9.2 1.4 13.7 2.2l-1.2-1.2zm14.7 3.1c-1.3-.3-2.5-.6-3.8-.9 0 .3-.1.7-.1 1 1.8.4 3.7.9 5.5 1.3-.6-.4-1.1-.9-1.6-1.4zm34.9 12.6c3 1.2 6 2.6 8.9 3.9-2.6-1.6-5.2-3.2-7.8-4.7-1.6-.7-3.2-1.3-4.7-1.9l3.6 2.7zm-86.3-19.9c.4.3.7.6 1.1 1 2.8.1 5.6.3 8.3.6l-1-1-8.4-.6zm162.7 68.3c-.7-.2-1.4-.3-2.1-.5 2.3 2.1 4.6 4.3 6.9 6.5-.1-.6-.3-1.2-.4-1.8-1.4-1.5-2.9-2.9-4.4-4.2zm-12-10.6c-.9-.3-1.8-.6-2.7-.8 3.8 3 7.5 6.2 11.2 9.5.7.2 1.4.3 2.1.5-3.6-3.2-7.1-6.2-10.6-9.2zm-129-55.8c-3.9-.5-7.8-.9-11.7-1.2l1 1c3.9.3 7.8.8 11.7 1.3-.4-.4-.7-.8-1-1.1zm114.4 45.5c-.4-.2-.8-.3-1.2-.5.4.3.9.6 1.3 1 0-.2-.1-.3-.1-.5zm-88.6-39.9c0-.3.1-.7.1-1-.3-.1-.6-.1-.9-.2 0 .3-.1.7-.1 1 .3 0 .6.1.9.2zm-52.2-7.6c-.6 0-1.2 0-1.8-.1l1.2.9c.6 0 1.2 0 1.9.1-.5-.3-.9-.6-1.3-.9zm3.1.1l1 1c.5 0 1.1 0 1.6.1-.4-.3-.7-.6-1.1-1-.4-.1-.9-.1-1.5-.1zm80 16.8c0-.3-.1-.7-.1-1.1-.2-.1-.4-.2-.5-.4-.2-.1-.3-.1-.5-.2.1.4.1.8.2 1.2.2.2.5.3.9.5zm29.2 13.2l-.3-1.5c-.4-.2-.7-.4-1.1-.6l.3 1.5c.4.2.7.4 1.1.6zm-97.7-29.3c-.5 0-1-.1-1.5-.1l1 1c.5 0 1 .1 1.5.1-.3-.3-.6-.7-1-1zm127.5 48c-.1-.3-.1-.6-.2-.9-.4-.1-.7-.3-1.1-.4 0 .2.1.3.1.5.4.3.8.5 1.2.8zm-114.2-46.6c-.5-.1-1-.1-1.5-.2.3.4.7.7 1 1.1.5.1 1 .1 1.5.2-.3-.4-.7-.8-1-1.1zm112.6 44.2v.2c.1 0 .3.1.4.1-.1-.1-.2-.2-.4-.3zm-97.9-40.9c.6.1 1.2.2 1.7.3-.4-.4-.8-.8-1.2-1.3-.6-.1-1.1-.2-1.7-.3.4.5.8.9 1.2 1.3zm129.7 68.9l1.2 1.2c-.1-.6-.3-1.2-.4-1.8l-1.2-1.2c.1.6.2 1.2.4 1.8zM1176.4 589c.7.2 1.4.4 2.1.5-.5-.5-1.1-1-1.6-1.5-.7-.2-1.4-.4-2.1-.5.5.5 1 1 1.6 1.5zm14.9 4.3c.9.3 1.7.6 2.6.9-.7-.6-1.5-1.2-2.2-1.9l-2.7-.9c.7.7 1.5 1.3 2.3 1.9zm13.5 4.8c1.6.6 3.2 1.3 4.9 2-1.2-.9-2.4-1.8-3.6-2.6-1.5-.6-3-1.2-4.5-1.7v.2c1.1.6 2.1 1.4 3.2 2.1zm-3.2-2.4c-.2-.1-.3-.1-.5-.2.2.1.4.2.5.4v-.2zm17 8.3c2.9 1.3 5.7 2.7 8.5 4.2-2.5-1.7-4.9-3.3-7.4-4.9-2.9-1.4-5.9-2.7-8.9-3.9 2.6 1.5 5.2 3 7.8 4.6zm-72.6-8.9c-.6 0-1.2 0-1.9-.1h-2.6c.5.2.9.5 1.4.7 1.2 0 2.5.1 3.7.1-.1-.2-.4-.5-.6-.7zm143.3 48.3c.1.5.2 1 .4 1.5 2.4 1.8 4.8 3.6 7.2 5.5.9.3 1.7.5 2.6.8-3.3-2.7-6.6-5.3-10-7.8h-.2zm-2.5-1.9c-2.5-1.8-5-3.5-7.6-5.2-2.4-1.2-4.8-2.3-7.2-3.4 3.7 2.3 7.4 4.7 11 7.3 1.3.4 2.5.8 3.8 1.3zm85.6-166.2c-19.8-77-16.8-129.3 9.4-164.4 42-56 145.2-70.5 298.2-75.5 33.7-1.2 70.4-2.1 108.9-2.5 46.4-.6 90.3-3.5 130.9-8.7v-1c-40.7 5.2-84.5 8.1-131 8.7-38.6.5-75.2 1.3-109 2.5-153.3 5.1-256.8 19.6-299 75.9-26.5 35.4-29.5 87.9-9.6 165.2 12.1 47.1 34 109.8 55.2 170.5 3.2 9 6.3 18.1 9.4 26.9h1.1c-3.1-9-6.3-18.1-9.5-27.3-21-60.5-42.8-123.2-55-170.3zm-51.6 195.1c.2.6.3 1.2.5 1.8l.8.8h1.4c-.9-.9-1.8-1.8-2.7-2.6zm-90.4-58.2c0-.1 0-.2-.1-.3-.7-.5-1.4-1-2.1-1.4-3.3-1.2-6.5-2.3-9.9-3.4.6.5 1.3 1 1.9 1.6 3.5 1 6.9 2.2 10.2 3.5zm-91.2-16.6c-.3-.2-.5-.5-.8-.7-36.6-.1-75.5 6.3-118.8 19.5C980 626.5 937.5 644 889.7 668c-3.2 1.6-6.4 3.2-9.6 4.9h2.2c2.6-1.3 5.2-2.7 7.9-4 76.8-38.5 164.2-73.8 249-73.3zm65.8 8.4c4.1 1.1 8.1 2.2 12.2 3.5l-1.8-1.5c-3.8-1.2-7.7-2.3-11.6-3.2.3.4.8.8 1.2 1.2zm-45.4-7.5l6.6.6c.2-.2.4-.5.6-.7-2.6-.3-5.3-.5-7.9-.7.2.3.5.5.7.8zm41.8 6.6c0-.3 0-.6-.1-.9-4.2-1-8.4-1.9-12.7-2.7.3.3.6.7.9 1 4 .8 8 1.7 11.9 2.6zm65.1 26.4c2.4 1 4.9 2.1 7.3 3.2-4.6-2.9-9.3-5.6-14-8.2.1.4.2.9.3 1.3 2.1 1.3 4.3 2.5 6.4 3.7zm-98.6-33c-.2.2-.3.5-.5.7 1.7.2 3.4.4 5 .6-.2-.3-.5-.6-.7-.8-1.3-.2-2.5-.4-3.8-.5zm67.8 17.8c3.2 1.3 6.4 2.7 9.5 4.2-2.2-1.4-4.4-2.7-6.6-4l-6-2.4c1 .6 2 1.4 3.1 2.2zm65.7 38.5c-.8-.3-1.7-.5-2.6-.8 7.2 5.8 14.2 12.1 21.2 19-.2-.6-.3-1.2-.5-1.8-5.9-5.9-11.9-11.3-18.1-16.4zm-42.4-27.5c-.1-.4-.2-.9-.3-1.3-4-2.1-8-4.1-12-6 2.2 1.4 4.4 2.9 6.6 4.3l5.7 3zm-56.7-22.4v.4c.2.1.4.1.6.2l-.6-.6zm-44.9-7.3c-3.3-.2-6.6-.4-9.9-.5l.7.7c3.3.1 6.6.3 9.9.5l-.7-.7zm128.3 46.4c.9.7 1.9 1.4 2.8 2-.1-.4-.2-.7-.3-1.1-.8-.3-1.7-.6-2.5-.9zm-98.8-42.8c-4.5-.8-9.1-1.5-13.7-2.1l.2.2c.2.2.4.4.6.7 4.6.6 9.3 1.3 13.9 2.2-.4-.3-.7-.7-1-1zm-20.1-2.8c-.2.2-.4.5-.6.7.4 0 .8.1 1.2.1.2-.2.3-.5.5-.7-.4 0-.7-.1-1.1-.1zm-23.8-.7c-.5-.2-.9-.4-1.4-.7h-1.6c.3.2.5.5.8.7h2.2zm-3.7-.7h-.9c.3.2.5.5.8.7h1.4c-.4-.3-.9-.5-1.3-.7zm63 8.3v-.4l-.6-.6c-.1 0-.2-.1-.3-.1 0 .3 0 .6.1.9.2.1.5.2.8.2zM1140 595h-.7c.4.2.9.5 1.3.7h.2c-.3-.3-.5-.5-.8-.7zm8.2.8l-.7-.7c-.5 0-1 0-1.5-.1l.7.7c.5.1 1 .1 1.5.1zm82.2 16.1c0 .1 0 .2.1.3l.9.3c-.4-.2-.7-.4-1-.6zm29.7 14c-.1-.4-.2-.9-.3-1.3-.2-.1-.5-.3-.7-.4-.1-.1-.2-.1-.4-.2.1.4.2.9.3 1.3.3.2.7.4 1.1.6zm-101.2-30.2c-.5 0-1-.1-1.5-.1.2.3.5.5.7.8.5 0 1 .1 1.5.1-.2-.3-.5-.5-.7-.8zm14.5 1.6l-.2-.2c-.5-.1-1-.1-1.5-.2.2.3.5.6.7.8.5.1 1 .1 1.5.2-.2-.1-.3-.3-.5-.6zm115.1 46.7l1.2.9c-.1-.5-.2-1-.4-1.5-.4-.1-.7-.3-1.1-.4.1.3.2.7.3 1zm-100.7-43.8c.6.1 1.1.2 1.7.3-.3-.3-.6-.7-.9-1-.6-.1-1.1-.2-1.7-.3.3.3.6.7.9 1zm132.2 70.7l1.3 1.3c-.1-.6-.3-1.2-.5-1.8-.4-.4-.9-.8-1.3-1.3.2.6.4 1.2.5 1.8zm-117.7-68c.2.2.4.4.7.6.7.2 1.4.4 2 .5-.4-.4-.8-.8-1.3-1.2-.5-.1-1-.2-1.4-.3v.4zm-.6-.6l.6.6v-.4c-.2-.1-.4-.1-.6-.2zm15.5 5.2c1.1.3 2.1.7 3.2 1-.6-.5-1.3-1.1-1.9-1.6-1-.3-2.1-.6-3.1-.9.5.6 1.2 1.1 1.8 1.5zm13 3.6c-.6-.2-1.3-.5-1.9-.7.7.5 1.4 1 2.1 1.4-.1-.2-.1-.4-.2-.7zm1.2 1.5c1.4.5 2.8 1.1 4.2 1.7-1-.8-2.1-1.5-3.1-2.3-.4-.2-.9-.3-1.3-.5.1.4.2.7.2 1.1zm-.1-.1h.1c-.1-.4-.1-.7-.2-1.1-.3-.1-.7-.2-1-.4 0 .2.1.5.1.7.4.4.7.6 1 .8zm13.9 5.9c2.7 1.2 5.4 2.5 8.1 3.9-2.2-1.5-4.4-2.9-6.6-4.3-2.7-1.2-5.3-2.4-8.1-3.6 2.2 1.3 4.4 2.6 6.6 4zm-87.9-8.3c-34 1-70 7.5-109.6 19.8-33 10.3-67.9 24.4-106.1 43h2.3c82.6-39.9 153.2-60.3 214.6-61.9-.3-.2-.8-.5-1.2-.9zm240.9-123.3c-21.3-80.1-18.6-134.3 8.4-170.6 42.7-57.4 147.3-71.9 302.2-76.8 31.2-1 66.3-1.7 110.7-2.2 35-.3 68.6-1.9 100.5-4.8v-1c-31.9 2.9-65.5 4.5-100.5 4.8-44.3.5-79.5 1.2-110.7 2.2-155.2 4.9-260 19.5-302.9 77.2-27.2 36.6-30 91-8.6 171.5 12.9 48.6 35.6 113.2 57.5 175.7l3.6 10.2h1.1c-1.2-3.5-2.5-7-3.7-10.6-22-62.5-44.7-127.1-57.6-175.6zM1163 610c.4.3.7.7 1.1 1h7.9c-.3-.3-.6-.7-1-1h-8zm95.3 17.1c-.9-.6-1.8-1.3-2.7-1.9-3.4-1.2-6.8-2.4-10.3-3.5.6.5 1.2 1 1.7 1.4 3.8 1.3 7.5 2.6 11.3 4zm58.7 32.4l-.3-1.2c-1-.4-1.9-.7-2.9-1.1 1 .7 2.1 1.5 3.2 2.3zm-133.5-49c-3.5-.2-6.9-.4-10.4-.5h-.8c.3.3.6.7 1 1 3.7.1 7.5.2 11.2.5-.4-.3-.7-.6-1-1zm15.1 1.3c-4.5-.5-9-.9-13.6-1.2.3.3.6.7.9 1 4.6.3 9.1.7 13.6 1.3-.3-.4-.6-.7-.9-1.1zm115.4 44.4c-2.5-1.8-5.1-3.6-7.6-5.3-2-1-3.9-1.9-5.9-2.8 3.5 2.2 7 4.5 10.5 6.9.9.4 1.9.8 3 1.2zm-19-11.3c2 .9 4 1.7 5.9 2.6-3.9-2.5-7.9-4.8-11.9-7l-.6-.3c.1.4.2.8.3 1.1 2.2 1.1 4.2 2.3 6.3 3.6zm-94.1-31.8h.2c0-.3.1-.6.1-.9-.4-.1-.8-.1-1.2-.1.3.3.6.6.9 1zm86.7 27.6c-.1-.4-.2-.7-.3-1.1-4.4-2.4-9-4.7-13.5-6.8 1.8 1.1 3.6 2.3 5.4 3.5 2.8 1.4 5.6 2.8 8.4 4.4zm30.6 19.7c5.3 4 10.5 8.2 15.6 12.6h1.3c-5.6-4.9-11.4-9.6-17.2-13.9.1.4.2.9.3 1.3zM1161.5 610h-2.5c.4.3.9.7 1.3 1h2.2c-.3-.3-.7-.6-1-1zm40.6 2.3c0 .3-.1.6-.1.9 4.3.6 8.6 1.2 12.9 2l-1.1-1.1c-3.9-.7-7.7-1.3-11.7-1.8zm30.4 6.7c3.9 1 7.8 2.1 11.7 3.3-.6-.5-1.2-1-1.8-1.4-3.3-1-6.7-1.9-10-2.8 0 .3 0 .6.1.9zm27.9 8.3c.6.5 1.3.9 1.9 1.4 3.3 1.3 6.5 2.7 9.7 4.1-1.8-1.1-3.7-2.2-5.5-3.3-2-.9-4.1-1.7-6.2-2.5.1.1.1.2.1.3zm-29-9.5c-.2-.1-.5-.1-.7-.2l.8.8c-.1-.2-.1-.4-.1-.6zm-15.9-3.4l1.1 1.1c4.4.8 8.8 1.8 13.1 2.8-.4-.4-.9-.8-1.3-1.2-4.3-1.1-8.6-1.9-12.9-2.7zm-14.3-2.2c0 .3-.1.6-.1.9.3 0 .6.1.9.1 0-.3.1-.6.1-.9-.3-.1-.6-.1-.9-.1zm-42.2-2.1c-.6 0-1.2 0-1.7.1.4.3.9.6 1.3 1h1.7c-.4-.5-.9-.8-1.3-1.1zm72.4 7.7c0 .2.1.4.1.6l.5.5c.2 0 .3.1.5.1 0-.3-.1-.6-.1-.9-.4-.1-.7-.2-1-.3zm-69.9-7.8l1 1h1.5c-.3-.3-.7-.7-1.1-1h-1.4zm11.8 1.1c-.3-.3-.6-.7-1-1h-1.4c.3.3.6.7 1 1h1.4zm87 15.9c-.2-.1-.4-.2-.7-.3.2.2.5.4.7.5.1 0 .1-.1 0-.2zm28.5 14.3c-.1-.4-.2-.7-.3-1.1-.4-.2-.8-.4-1.1-.6.1.4.2.7.3 1.1.3.2.7.4 1.1.6zM1185 610.6c-.5 0-.9-.1-1.4-.1.3.3.6.7.9 1 .5 0 .9.1 1.4.1-.3-.3-.6-.7-.9-1zm131.7 47.6l.3 1.2 1.2.9c-.1-.4-.2-.9-.4-1.3-.3-.3-.7-.5-1-.8 0 .1-.1.1-.1 0zm-117.2-45.3c.5.1 1 .1 1.5.2-.3-.3-.6-.7-.9-1.1-.5-.1-1-.1-1.5-.2.3.4.6.7.9 1.1zm14.3 1.2l1.1 1.1c.6.1 1.1.2 1.7.3l-1.1-1.1c-.6-.1-1.1-.2-1.7-.3zm17.7 4.3l-.8-.8c-.8-.2-1.5-.4-2.3-.6.4.4.9.8 1.3 1.2.6.1 1.2.3 1.8.5v-.3zm.5.4l-.5-.5c0 .1 0 .2.1.4.1.1.2.1.4.1zm12.2 3.5c.9.3 1.9.6 2.8.9-.6-.5-1.2-1-1.7-1.4-1-.3-1.9-.6-2.9-.9.6.4 1.2.9 1.8 1.4zm18.1 6.4c-.6-.5-1.3-.9-1.9-1.4.1.2.1.5.2.7.5.2 1.1.5 1.7.7zm-2.8-1.1c-.1-.3-.1-.7-.2-1-1.2-.5-2.5-1-3.7-1.4.9.6 1.8 1.3 2.7 1.9.4.2.8.3 1.2.5zm1.1.4c-.1-.2-.1-.5-.2-.7-.2-.2-.5-.4-.7-.5-.1 0-.3-.1-.4-.1.1.3.2.7.2 1 .4 0 .7.2 1.1.3zm11.4 4.8c2.4 1.1 4.8 2.2 7.2 3.4-1.8-1.2-3.6-2.4-5.4-3.5-2.4-1.1-4.8-2.2-7.3-3.2 1.8 1.1 3.7 2.2 5.5 3.3zm-31.3-4c-2.4-.4-4.8-.8-7.3-1.2 0 .3 0 .6.1 1 2.8.4 5.6.8 8.4 1.3-.5-.3-.8-.7-1.2-1.1zm-12.8-.9c1.6.2 3.1.4 4.6.6 0-.3 0-.6-.1-1-1.8-.3-3.7-.5-5.5-.7.4.4.7.8 1 1.1zm61.4 15.4l.1.1c3.7 1.5 7.4 3.1 11 4.7l-5.4-3.3c-2-.8-4-1.7-6-2.5.1.4.2.7.3 1zm-46.8-14.1l1.1 1.1c4.4.8 8.8 1.7 13.2 2.8-.5-.4-.9-.8-1.4-1.2-4.3-1.1-8.6-2-12.9-2.7zm79.9 30.5c2 .9 4 1.7 5.9 2.7-3.1-1.9-6.2-3.8-9.3-5.6l-2.1-1.2c.1.4.2.7.3 1.1 1.8 1 3.5 1.9 5.2 3zm-143.8-34.3c-32 1.7-65.8 8.3-102.8 20-22.7 7.2-46.4 16.4-71.3 27.6h2.6c64.6-28.7 121.6-44.1 172.6-46.6-.3-.3-.7-.7-1.1-1zm32.8.1c.3.3.6.7.9 1 4.8.3 9.5.7 14.1 1.2-.3-.4-.6-.7-.9-1.1-4.6-.5-9.3-.8-14.1-1.1zm-25.3.1c-.6-.1-1.3-.3-1.9-.5-1.4 0-2.7.1-4.1.1.4.3.8.7 1.2 1 1.8-.1 3.5-.1 5.3-.2-.2 0-.4-.2-.5-.4zm72.8 8c.7.2 1.4.3 2 .5-.1-.3-.1-.6-.2-.9-1-.3-2.1-.5-3.2-.8.5.4.9.8 1.4 1.2zm172.3-312c20.4-27.6 54.4-46.1 107.1-58.4 46.8-10.9 108.2-17 199.2-19.7 31.7-1 67.5-1.6 112.4-1.9 24-.1 47.4-.9 70.1-2.2v-1c-22.6 1.3-46 2.1-70.1 2.2-45 .3-80.7.9-112.4 1.9-91 2.7-152.5 8.8-199.4 19.7-53 12.4-87.2 31.1-107.7 58.8-27.9 37.8-30.3 94.2-7.4 177.6 13.1 48.4 35.4 112.1 57.3 174.5h1.1c-22-62.5-44.3-126.3-57.4-174.7-22.8-83.2-20.5-139.3 7.2-176.8zM1195.3 625c-1.1.5-2.2.9-3.5 1h5.6c-.3-.3-.6-.7-.9-1h-1.2zm77 11.5c.6.5 1.2 1 1.7 1.4 3.9 1.3 7.8 2.6 11.6 4.1-.9-.6-1.8-1.3-2.7-1.9-3.4-1.3-7-2.5-10.6-3.6zm-80.7-11.5h-2.6c.9.1 1.8.1 2.6 0zm-3.8.9l.1.1h.9c-.3 0-.6 0-1-.1zM1288 642c-.4-.2-.8-.3-1.2-.5.4.3.9.6 1.3.9-.1-.1-.1-.3-.1-.4zm-26.3-8.6c.1.3.1.6.2.9 3.2.8 6.3 1.7 9.5 2.7-.6-.5-1.2-1-1.8-1.4-2.6-.8-5.3-1.5-7.9-2.2zM1316 656c-.1-.4-.2-.7-.3-1.1-4.8-2.7-9.8-5.1-14.8-7.4 1.8 1.1 3.6 2.3 5.4 3.5 3.3 1.6 6.5 3.3 9.7 5zm-118.2-31c.3.3.6.7.9 1h3.3c3 .1 5.9.2 8.9.4-.3-.4-.6-.7-.9-1-2.6-.1-5.3-.2-8-.3-1.3-.1-2.7-.1-4.2-.1zm130.3 38.1c4.9 3.1 9.8 6.4 14.6 9.9h1.4c-3.4-2.5-6.8-4.9-10.2-7.1-1.9-1-3.9-1.9-5.8-2.8zM1191.8 626c1.3-.2 2.5-.5 3.5-1h-3.8c-.8.1-1.7.1-2.6 0h-2l.9.9c.4 0 .7.1 1.1.1h2.9zm-7.6-.8c.7.2 1.3.3 1.9.5l-.5-.5c-.5-.1-1 0-1.4 0zm48.3 2.4c0 .3 0 .6.1 1 .3 0 .6.1.9.1 0-.3 0-.6-.1-1-.3-.1-.6-.1-.9-.1zm-52.4-2.3c-.5 0-1 .1-1.5.1.4.3.8.6 1.2 1 .5 0 1-.1 1.5-.1-.4-.3-.8-.6-1.2-1zm7.7.6c-.6-.1-1.1-.2-1.7-.3l.5.5h1.4l-.2-.2zm72.9 7.3c.1.3.1.6.2.9.3.1.7.2 1 .3-.1-.3-.1-.6-.2-.9-.3-.2-.7-.2-1-.3zm-73.7-8.1h-1.4l.5.5c.6.1 1.2.2 1.7.3-.3-.2-.5-.5-.8-.8zm102.3 18.2c-.1-.3-.2-.6-.2-.9-.4-.1-.7-.3-1.1-.4 0 .2.1.3.1.5.4.3.8.5 1.2.8zm-91.9-17.3h1.4c-.3-.3-.6-.7-.9-1h-1.4c.3.3.6.7.9 1zm12.7-.6c.3.4.6.7.9 1 .5 0 .9.1 1.4.1-.3-.3-.6-.7-.9-1-.5 0-1-.1-1.4-.1zm107.1 31.3c-.1-.4-.2-.7-.3-1.1l-1.2-.6c.1.4.2.7.3 1.1.4.1.8.4 1.2.6zm-90.2-29.8c-.5-.1-1-.1-1.5-.2.3.4.6.7.9 1.1.5.1 1 .1 1.5.2-.3-.4-.6-.8-.9-1.1zm13.7 1.9c.4.4.7.8 1.1 1.1l1.8.3-1.1-1.1c-.6 0-1.2-.2-1.8-.3zm16.8 3.6c-.7-.2-1.4-.4-2.2-.5.5.4.9.8 1.4 1.2.7.2 1.4.3 2.1.5-.4-.4-.8-.8-1.3-1.2zm12.1 3.2c.6.5 1.2 1 1.8 1.4.9.3 1.8.6 2.7.8-.6-.5-1.2-1-1.7-1.4-1-.2-1.9-.5-2.8-.8zm18.5 6.9c-.4-.3-.9-.6-1.3-.9-1.3-.5-2.5-1-3.8-1.4.9.6 1.8 1.2 2.7 1.9.8.3 1.7.6 2.5 1 0-.3-.1-.5-.1-.6zm1.2.9c0-.1 0 0 0 0zm-1.2-.9c0 .2.1.3.1.5.4.1.7.3 1.1.4-.4-.4-.8-.6-1.2-.9zm12.3 5.6c2 .9 4 1.8 5.9 2.8-1.8-1.2-3.6-2.3-5.4-3.5-2-.9-3.9-1.8-5.9-2.6l5.4 3.3zm299.9-388.8c-73.3 11.8-119.1 32.6-144.1 65.7-15 19.8-22.9 44.3-24 74.8-1.1 30.1 4.3 66.2 16.6 110.2 12.7 45.5 33.1 104.3 53.9 163h1.1c-20.8-58.8-41.2-117.7-54-163.2-24.3-87-22-145.5 7.2-184.1 24.8-32.8 70.4-53.6 143.4-65.3 75.3-12.1 179-14.1 279.9-14.4 13.4 0 26.6-.3 39.6-.7v-1c-13 .4-26.2.7-39.6.7-100.9.3-204.6 2.3-280 14.3zM1345.5 672c.6.3 1.2.7 1.8 1h1.7c-1.3-.7-2.5-1.4-3.8-2.2l.3 1.2zm-146.8-31.1c-41.8 3.3-84.9 14.9-128.5 32.1h2.7c43.2-16.8 85.8-28 127.1-31.2-.4-.2-.8-.6-1.3-.9zm64.7 2c.1.3.1.7.2 1l5.4.9-1.2-1.2c-1.5-.2-2.9-.5-4.4-.7zm-30.5-2.8c-.1.3-.1.7-.2 1 1.7.1 3.4.1 5.1.2-.3-.3-.6-.7-.8-1-1.4-.1-2.7-.1-4.1-.2zm83.7 18.1c-.1-.3-.2-.7-.3-1l-2.4-.9c1 .6 1.8 1.2 2.7 1.9zM1203 640.6c.3.3.7.6 1 .9 2.5-.2 4.9-.3 7.4-.4-.3-.3-.6-.6-.9-1-2.5.2-5 .4-7.5.5zm8.8-.4c.3.3.6.6.9 1 3.6-.1 7.1-.2 10.7-.2-.3-.3-.6-.7-.9-1-3.6 0-7.1 0-10.7.2zm99.1 14.9c-3.8-1.4-7.6-2.7-11.4-3.9.6.5 1.3 1.1 1.9 1.6 4.2 1.3 8.3 2.8 12.4 4.4-1-.8-2-1.5-2.9-2.1zm-55.9-12.3c2.5.3 5.1.6 7.6 1-.1-.3-.1-.7-.2-1-2.8-.4-5.6-.8-8.4-1.1.4.4.7.7 1 1.1zm-31.2-2.8c.3.3.6.7.9 1 2.4 0 4.7.1 7.1.1.1-.3.2-.6.2-1-2.7-.1-5.5-.1-8.2-.1zm-22.2.7c-.4 0-.8.1-1.2.1.5.3.9.6 1.4.9.3 0 .5 0 .8-.1-.4-.2-.7-.5-1-.9zm51 .8c-4.7-.5-9.5-.9-14.3-1.2.3.4.6.7.9 1 4.8.3 9.6.7 14.4 1.2-.4-.2-.7-.6-1-1zm33.5 7c1.2.3 2.5.6 3.7.9-.1-.4-.2-.7-.3-1.1-1.6-.4-3.3-.9-4.9-1.3l1.5 1.5zm31.4 9.1c.1.4.2.7.3 1.1 3.5 1.4 6.9 2.9 10.3 4.5-1.9-1.2-3.8-2.4-5.7-3.5-1.6-.7-3.3-1.4-4.9-2.1zM1284 648c-.5-.5-1-.9-1.5-1.4-3.1-.7-6.3-1.4-9.4-2l-3.6-.6 1.2 1.2c.7.1 1.5.3 2.2.4 3.8.7 7.5 1.5 11.1 2.4zm6.6.6c.1.4.2.7.3 1.1 2.7.7 5.3 1.5 8 2.3-.7-.5-1.3-1.1-2-1.6l-6.3-1.8zm37.7 13.7c1.8 1.2 3.7 2.3 5.5 3.6 3.5 1.7 7 3.5 10.4 5.5-.1-.4-.2-.8-.3-1.1-5.1-2.9-10.3-5.6-15.6-8zm-127.9-21.5c-.6 0-1.1.1-1.7.1.4.3.9.6 1.3.9.6 0 1.2-.1 1.7-.1-.4-.3-.8-.6-1.3-.9zm31.6-.7c-.1.3-.1.7-.2 1h.9c.1-.3.1-.7.2-1h-.9zm-30.4.6c.3.3.7.6 1 .9.5 0 .9-.1 1.4-.1-.3-.3-.7-.6-1-.9-.5.1-.9.1-1.4.1zm60.9 2.1c.1.3.1.7.2 1 .3 0 .6.1.9.1 0-.3-.1-.7-.2-1-.3 0-.6-.1-.9-.1zm-52-2.6c.3.3.6.6.9 1 .4 0 .9 0 1.3-.1-.3-.3-.6-.6-.9-1-.5.1-.9.1-1.3.1zm79 8.1c.1.4.2.7.3 1.1.3.1.7.2 1 .3-.1-.4-.2-.7-.3-1.1-.3-.1-.6-.2-1-.3zm26.9 8.9c.1.3.2.7.3 1l.2.2c.3.1.6.3.9.4-.1-.4-.2-.7-.3-1.1-.4-.2-.8-.4-1.1-.5zm-93.1-16.2h1.3c-.3-.3-.6-.7-.9-1h-1.3c.4.3.7.6.9 1zm121 30.3c.4.2.8.4 1.2.7-.1-.4-.2-.8-.3-1.1-.4-.2-.8-.4-1.2-.7.1.4.2.7.3 1.1zm-106-30.9c-.5 0-.9-.1-1.4-.1.3.3.6.7.8 1 .5 0 .9.1 1.4.1-.3-.3-.5-.7-.8-1zm15.3 2.2c.5.1 1 .1 1.5.2-.3-.4-.7-.7-1-1.1-.5-.1-1-.1-1.5-.2.3.4.6.8 1 1.1zm14.2 1l1.2 1.2c.6.1 1.1.2 1.7.3l-1.2-1.2c-.6-.1-1.1-.2-1.7-.3zm14.7 3c.5.5 1 .9 1.5 1.4.7.2 1.4.3 2.1.5-.5-.5-1-.9-1.5-1.4-.7-.2-1.4-.4-2.1-.5zm16.9 4.6c-.9-.3-1.7-.5-2.6-.8.7.5 1.3 1.1 2 1.6.9.3 1.7.5 2.6.8-.7-.6-1.3-1.1-2-1.6zm11.5 3.9c1 .7 1.9 1.4 2.9 2.1 1 .4 1.9.7 2.9 1.1v-.1c-.9-.6-1.8-1.3-2.7-1.9-1.1-.5-2.1-.9-3.1-1.2zm5.9 3.2l-.2-.2v.1c.1.1.2.1.2.1zm5.6 1.4c1.9 1.1 3.8 2.3 5.7 3.5l5.7 2.7c-1.8-1.2-3.7-2.4-5.5-3.6-1.9-.9-3.9-1.8-5.9-2.6z" fill="#748993"/></svg>