<svg version="1.1" xmlns="http://www.w3.org/2000/svg" x="0" y="0" viewBox="0 0 1920 1920" xml:space="preserve"><path fill="#e0ac7e" d="M0 0h1920v1920H0z"/><path d="M0 1h26v14H0zm28 0h52v14H28zm54 0h52v14H82zm54 0h52v14h-52zm54 0h52v14h-52zm54 0h52v14h-52zm54 0h52v14h-52zm54 0h52v14h-52zm54 0h52v14h-52zm54 0h52v14h-52zm54 0h52v14h-52zm54 0h52v14h-52zm54 0h52v14h-52zm54 0h52v14h-52zm54 0h52v14h-52zm54 0h52v14h-52zm54 0h52v14h-52zm54 0h52v14h-52zm54 0h52v14h-52zm54 0h52v14h-52zm54 0h52v14h-52zm54 0h52v14h-52zm54 0h52v14h-52zm54 0h52v14h-52zm54 0h52v14h-52zm54 0h52v14h-52zm54 0h52v14h-52zm54 0h52v14h-52zm54 0h52v14h-52zm54 0h52v14h-52zm54 0h52v14h-52zm54 0h52v14h-52zm54 0h52v14h-52zm54 0h52v14h-52zm54 0h52v14h-52zm54 0h52v14h-52zm54 0h2v14h-2zM0 17h52v14H0zm54 0h52v14H54zm54 0h52v14h-52zm54 0h52v14h-52zm54 0h52v14h-52zm54 0h52v14h-52zm54 0h52v14h-52zm54 0h52v14h-52zm54 0h52v14h-52zm54 0h52v14h-52zm54 0h52v14h-52zm54 0h52v14h-52zm54 0h52v14h-52zm54 0h52v14h-52zm54 0h52v14h-52zm54 0h52v14h-52zm54 0h52v14h-52zm54 0h52v14h-52zm54 0h52v14h-52zm54 0h52v14h-52zm54 0h52v14h-52zm54 0h52v14h-52zm54 0h52v14h-52zm54 0h52v14h-52zm54 0h52v14h-52zm54 0h52v14h-52zm54 0h52v14h-52zm54 0h52v14h-52zm54 0h52v14h-52zm54 0h52v14h-52zm54 0h52v14h-52zm54 0h52v14h-52zm54 0h52v14h-52zm54 0h52v14h-52zm54 0h52v14h-52zm54-.5h30v14h-30zM0 33h26v14H0zm28 0h52v14H28zm54 0h52v14H82zm54 0h52v14h-52zm54 0h52v14h-52zm54 0h52v14h-52zm54 0h52v14h-52zm54 0h52v14h-52zm54 0h52v14h-52zm54 0h52v14h-52zm54 0h52v14h-52zm54 0h52v14h-52zm54 0h52v14h-52zm54 0h52v14h-52zm54 0h52v14h-52zm54 0h52v14h-52zm54 0h52v14h-52zm54 0h52v14h-52zm54 0h52v14h-52zm54 0h52v14h-52zm54 0h52v14h-52zm54 0h52v14h-52zm54 0h52v14h-52zm54 0h52v14h-52zm54 0h52v14h-52zm54 0h52v14h-52zm54 0h52v14h-52zm54 0h52v14h-52zm54 0h52v14h-52zm54 0h52v14h-52zm54 0h52v14h-52zm54 0h52v14h-52zm54 0h52v14h-52zm54 0h52v14h-52zm54 0h52v14h-52zm54 0h52v14h-52zm54 0h2v14h-2zM0 49h52v14H0zm54 0h52v14H54zm54 0h52v14h-52zm54 0h52v14h-52zm54 0h52v14h-52zm54 0h52v14h-52zm54 0h52v14h-52zm54 0h52v14h-52zm54 0h52v14h-52zm54 0h52v14h-52zm54 0h52v14h-52zm54 0h52v14h-52zm54 0h52v14h-52zm54 0h52v14h-52zm54 0h52v14h-52zm54 0h52v14h-52zm54 0h52v14h-52zm54 0h52v14h-52zm54 0h52v14h-52zm54 0h52v14h-52zm54 0h52v14h-52zm54 0h52v14h-52zm54 0h52v14h-52zm54 0h52v14h-52zm54 0h52v14h-52zm54 0h52v14h-52zm54 0h52v14h-52zm54 0h52v14h-52zm54 0h52v14h-52zm54 0h52v14h-52zm54 0h52v14h-52zm54 0h52v14h-52zm54 0h52v14h-52zm54 0h52v14h-52zm54 0h52v14h-52zm54-.5h30v14h-30zM0 65h26v14H0zm28 0h52v14H28zm54 0h52v14H82zm54 0h52v14h-52zm54 0h52v14h-52zm54 0h52v14h-52zm54 0h52v14h-52zm54 0h52v14h-52zm54 0h52v14h-52zm54 0h52v14h-52zm54 0h52v14h-52zm54 0h52v14h-52zm54 0h52v14h-52zm54 0h52v14h-52zm54 0h52v14h-52zm54 0h52v14h-52zm54 0h52v14h-52zm54 0h52v14h-52zm54 0h52v14h-52zm54 0h52v14h-52zm54 0h52v14h-52zm54 0h52v14h-52zm54 0h52v14h-52zm54 0h52v14h-52zm54 0h52v14h-52zm54 0h52v14h-52zm54 0h52v14h-52zm54 0h52v14h-52zm54 0h52v14h-52zm54 0h52v14h-52zm54 0h52v14h-52zm54 0h52v14h-52zm54 0h52v14h-52zm54 0h52v14h-52zm54 0h52v14h-52zm54 0h52v14h-52zm54 0h2v14h-2zM0 81h52v14H0zm54 0h52v14H54zm54 0h52v14h-52zm54 0h52v14h-52zm54 0h52v14h-52zm54 0h52v14h-52zm54 0h52v14h-52zm54 0h52v14h-52zm54 0h52v14h-52zm54 0h52v14h-52zm54 0h52v14h-52zm54 0h52v14h-52zm54 0h52v14h-52zm54 0h52v14h-52zm54 0h52v14h-52zm54 0h52v14h-52zm54 0h52v14h-52zm54 0h52v14h-52zm54 0h52v14h-52zm54 0h52v14h-52zm54 0h52v14h-52zm54 0h52v14h-52zm54 0h52v14h-52zm54 0h52v14h-52zm54 0h52v14h-52zm54 0h52v14h-52zm54 0h52v14h-52zm54 0h52v14h-52zm54 0h52v14h-52zm54 0h52v14h-52zm54 0h52v14h-52zm54 0h52v14h-52zm54 0h52v14h-52zm54 0h52v14h-52zm54 0h52v14h-52zm54-.5h30v14h-30zM0 97h26v14H0zm28 0h52v14H28zm54 0h52v14H82zm54 0h52v14h-52zm54 0h52v14h-52zm54 0h52v14h-52zm54 0h52v14h-52zm54 0h52v14h-52zm54 0h52v14h-52zm54 0h52v14h-52zm54 0h52v14h-52zm54 0h52v14h-52zm54 0h52v14h-52zm54 0h52v14h-52zm54 0h52v14h-52zm54 0h52v14h-52zm54 0h52v14h-52zm54 0h52v14h-52zm54 0h52v14h-52zm54 0h52v14h-52zm54 0h52v14h-52zm54 0h52v14h-52zm54 0h52v14h-52zm54 0h52v14h-52zm54 0h52v14h-52zm54 0h52v14h-52zm54 0h52v14h-52zm54 0h52v14h-52zm54 0h52v14h-52zm54 0h52v14h-52zm54 0h52v14h-52zm54 0h52v14h-52zm54 0h52v14h-52zm54 0h52v14h-52zm54 0h52v14h-52zm54 0h52v14h-52zm54 0h2v14h-2zM0 113h52v14H0zm54 0h52v14H54zm54 0h52v14h-52zm54 0h52v14h-52zm54 0h52v14h-52zm54 0h52v14h-52zm54 0h52v14h-52zm54 0h52v14h-52zm54 0h52v14h-52zm54 0h52v14h-52zm54 0h52v14h-52zm54 0h52v14h-52zm54 0h52v14h-52zm54 0h52v14h-52zm54 0h52v14h-52zm54 0h52v14h-52zm54 0h52v14h-52zm54 0h52v14h-52zm54 0h52v14h-52zm54 0h52v14h-52zm54 0h52v14h-52zm54 0h52v14h-52zm54 0h52v14h-52zm54 0h52v14h-52zm54 0h52v14h-52zm54 0h52v14h-52zm54 0h52v14h-52zm54 0h52v14h-52zm54 0h52v14h-52zm54 0h52v14h-52zm54 0h52v14h-52zm54 0h52v14h-52zm54 0h52v14h-52zm54 0h52v14h-52zm54 0h52v14h-52zm54-.5h30v14h-30zM0 129h26v14H0zm28 0h52v14H28zm54 0h52v14H82zm54 0h52v14h-52zm54 0h52v14h-52zm54 0h52v14h-52zm54 0h52v14h-52zm54 0h52v14h-52zm54 0h52v14h-52zm54 0h52v14h-52zm54 0h52v14h-52zm54 0h52v14h-52zm54 0h52v14h-52zm54 0h52v14h-52zm54 0h52v14h-52zm54 0h52v14h-52zm54 0h52v14h-52zm54 0h52v14h-52zm54 0h52v14h-52zm54 0h52v14h-52zm54 0h52v14h-52zm54 0h52v14h-52zm54 0h52v14h-52zm54 0h52v14h-52zm54 0h52v14h-52zm54 0h52v14h-52zm54 0h52v14h-52zm54 0h52v14h-52zm54 0h52v14h-52zm54 0h52v14h-52zm54 0h52v14h-52zm54 0h52v14h-52zm54 0h52v14h-52zm54 0h52v14h-52zm54 0h52v14h-52zm54 0h52v14h-52zm54 0h2v14h-2zM0 145h52v14H0zm54 0h52v14H54zm54 0h52v14h-52zm54 0h52v14h-52zm54 0h52v14h-52zm54 0h52v14h-52zm54 0h52v14h-52zm54 0h52v14h-52zm54 0h52v14h-52zm54 0h52v14h-52zm54 0h52v14h-52zm54 0h52v14h-52zm54 0h52v14h-52zm54 0h52v14h-52zm54 0h52v14h-52zm54 0h52v14h-52zm54 0h52v14h-52zm54 0h52v14h-52zm54 0h52v14h-52zm54 0h52v14h-52zm54 0h52v14h-52zm54 0h52v14h-52zm54 0h52v14h-52zm54 0h52v14h-52zm54 0h52v14h-52zm54 0h52v14h-52zm54 0h52v14h-52zm54 0h52v14h-52zm54 0h52v14h-52zm54 0h52v14h-52zm54 0h52v14h-52zm54 0h52v14h-52zm54 0h52v14h-52zm54 0h52v14h-52zm54 0h52v14h-52zm54-.5h30v14h-30zM0 161h26v14H0zm28 0h52v14H28zm54 0h52v14H82zm54 0h52v14h-52zm54 0h52v14h-52zm54 0h52v14h-52zm54 0h52v14h-52zm54 0h52v14h-52zm54 0h52v14h-52zm54 0h52v14h-52zm54 0h52v14h-52zm54 0h52v14h-52zm54 0h52v14h-52zm54 0h52v14h-52zm54 0h52v14h-52zm54 0h52v14h-52zm54 0h52v14h-52zm54 0h52v14h-52zm54 0h52v14h-52zm54 0h52v14h-52zm54 0h52v14h-52zm54 0h52v14h-52zm54 0h52v14h-52zm54 0h52v14h-52zm54 0h52v14h-52zm54 0h52v14h-52zm54 0h52v14h-52zm54 0h52v14h-52zm54 0h52v14h-52zm54 0h52v14h-52zm54 0h52v14h-52zm54 0h52v14h-52zm54 0h52v14h-52zm54 0h52v14h-52zm54 0h52v14h-52zm54 0h52v14h-52zm54 0h2v14h-2zM0 177h52v14H0zm54 0h52v14H54zm54 0h52v14h-52zm54 0h52v14h-52zm54 0h52v14h-52zm54 0h52v14h-52zm54 0h52v14h-52zm54 0h52v14h-52zm54 0h52v14h-52zm54 0h52v14h-52zm54 0h52v14h-52zm54 0h52v14h-52zm54 0h52v14h-52zm54 0h52v14h-52zm54 0h52v14h-52zm54 0h52v14h-52zm54 0h52v14h-52zm54 0h52v14h-52zm54 0h52v14h-52zm54 0h52v14h-52zm54 0h52v14h-52zm54 0h52v14h-52zm54 0h52v14h-52zm54 0h52v14h-52zm54 0h52v14h-52zm54 0h52v14h-52zm54 0h52v14h-52zm54 0h52v14h-52zm54 0h52v14h-52zm54 0h52v14h-52zm54 0h52v14h-52zm54 0h52v14h-52zm54 0h52v14h-52zm54 0h52v14h-52zm54 0h52v14h-52zm54-.5h30v14h-30zM0 193h26v14H0zm28 0h52v14H28zm54 0h52v14H82zm54 0h52v14h-52zm54 0h52v14h-52zm54 0h52v14h-52zm54 0h52v14h-52zm54 0h52v14h-52zm54 0h52v14h-52zm54 0h52v14h-52zm54 0h52v14h-52zm54 0h52v14h-52zm54 0h52v14h-52zm54 0h52v14h-52zm54 0h52v14h-52zm54 0h52v14h-52zm54 0h52v14h-52zm54 0h52v14h-52zm54 0h52v14h-52zm54 0h52v14h-52zm54 0h52v14h-52zm54 0h52v14h-52zm54 0h52v14h-52zm54 0h52v14h-52zm54 0h52v14h-52zm54 0h52v14h-52zm54 0h52v14h-52zm54 0h52v14h-52zm54 0h52v14h-52zm54 0h52v14h-52zm54 0h52v14h-52zm54 0h52v14h-52zm54 0h52v14h-52zm54 0h52v14h-52zm54 0h52v14h-52zm54 0h52v14h-52zm54 0h2v14h-2zM0 209h52v14H0zm54 0h52v14H54zm54 0h52v14h-52zm54 0h52v14h-52zm54 0h52v14h-52zm54 0h52v14h-52zm54 0h52v14h-52zm54 0h52v14h-52zm54 0h52v14h-52zm54 0h52v14h-52zm54 0h52v14h-52zm54 0h52v14h-52zm54 0h52v14h-52zm54 0h52v14h-52zm54 0h52v14h-52zm54 0h52v14h-52zm54 0h52v14h-52zm54 0h52v14h-52zm54 0h52v14h-52zm54 0h52v14h-52zm54 0h52v14h-52zm54 0h52v14h-52zm54 0h52v14h-52zm54 0h52v14h-52zm54 0h52v14h-52zm54 0h52v14h-52zm54 0h52v14h-52zm54 0h52v14h-52zm54 0h52v14h-52zm54 0h52v14h-52zm54 0h52v14h-52zm54 0h52v14h-52zm54 0h52v14h-52zm54 0h52v14h-52zm54 0h52v14h-52zm54-.4h30v14h-30zM0 225h26v14H0zm28 0h52v14H28zm54 0h52v14H82zm54 0h52v14h-52zm54 0h52v14h-52zm54 0h52v14h-52zm54 0h52v14h-52zm54 0h52v14h-52zm54 0h52v14h-52zm54 0h52v14h-52zm54 0h52v14h-52zm54 0h52v14h-52zm54 0h52v14h-52zm54 0h52v14h-52zm54 0h52v14h-52zm54 0h52v14h-52zm54 0h52v14h-52zm54 0h52v14h-52zm54 0h52v14h-52zm54 0h52v14h-52zm54 0h52v14h-52zm54 0h52v14h-52zm54 0h52v14h-52zm54 0h52v14h-52zm54 0h52v14h-52zm54 0h52v14h-52zm54 0h52v14h-52zm54 0h52v14h-52zm54 0h52v14h-52zm54 0h52v14h-52zm54 0h52v14h-52zm54 0h52v14h-52zm54 0h52v14h-52zm54 0h52v14h-52zm54 0h52v14h-52zm54 0h52v14h-52zm54 0h2v14h-2zM0 241h52v14H0zm54 0h52v14H54zm54 0h52v14h-52zm54 0h52v14h-52zm54 0h52v14h-52zm54 0h52v14h-52zm54 0h52v14h-52zm54 0h52v14h-52zm54 0h52v14h-52zm54 0h52v14h-52zm54 0h52v14h-52zm54 0h52v14h-52zm54 0h52v14h-52zm54 0h52v14h-52zm54 0h52v14h-52zm54 0h52v14h-52zm54 0h52v14h-52zm54 0h52v14h-52zm54 0h52v14h-52zm54 0h52v14h-52zm54 0h52v14h-52zm54 0h52v14h-52zm54 0h52v14h-52zm54 0h52v14h-52zm54 0h52v14h-52zm54 0h52v14h-52zm54 0h52v14h-52zm54 0h52v14h-52zm54 0h52v14h-52zm54 0h52v14h-52zm54 0h52v14h-52zm54 0h52v14h-52zm54 0h52v14h-52zm54 0h52v14h-52zm54 0h52v14h-52zm54-.4h30v14h-30zM0 257h26v14H0zm28 0h52v14H28zm54 0h52v14H82zm54 0h52v14h-52zm54 0h52v14h-52zm54 0h52v14h-52zm54 0h52v14h-52zm54 0h52v14h-52zm54 0h52v14h-52zm54 0h52v14h-52zm54 0h52v14h-52zm54 0h52v14h-52zm54 0h52v14h-52zm54 0h52v14h-52zm54 0h52v14h-52zm54 0h52v14h-52zm54 0h52v14h-52zm54 0h52v14h-52zm54 0h52v14h-52zm54 0h52v14h-52zm54 0h52v14h-52zm54 0h52v14h-52zm54 0h52v14h-52zm54 0h52v14h-52zm54 0h52v14h-52zm54 0h52v14h-52zm54 0h52v14h-52zm54 0h52v14h-52zm54 0h52v14h-52zm54 0h52v14h-52zm54 0h52v14h-52zm54 0h52v14h-52zm54 0h52v14h-52zm54 0h52v14h-52zm54 0h52v14h-52zm54 0h52v14h-52zm54 0h2v14h-2zM0 273h52v14H0zm54 0h52v14H54zm54 0h52v14h-52zm54 0h52v14h-52zm54 0h52v14h-52zm54 0h52v14h-52zm54 0h52v14h-52zm54 0h52v14h-52zm54 0h52v14h-52zm54 0h52v14h-52zm54 0h52v14h-52zm54 0h52v14h-52zm54 0h52v14h-52zm54 0h52v14h-52zm54 0h52v14h-52zm54 0h52v14h-52zm54 0h52v14h-52zm54 0h52v14h-52zm54 0h52v14h-52zm54 0h52v14h-52zm54 0h52v14h-52zm54 0h52v14h-52zm54 0h52v14h-52zm54 0h52v14h-52zm54 0h52v14h-52zm54 0h52v14h-52zm54 0h52v14h-52zm54 0h52v14h-52zm54 0h52v14h-52zm54 0h52v14h-52zm54 0h52v14h-52zm54 0h52v14h-52zm54 0h52v14h-52zm54 0h52v14h-52zm54 0h52v14h-52zm54-.4h30v14h-30zM0 289h26v14H0zm28 0h52v14H28zm54 0h52v14H82zm54 0h52v14h-52zm54 0h52v14h-52zm54 0h52v14h-52zm54 0h52v14h-52zm54 0h52v14h-52zm54 0h52v14h-52zm54 0h52v14h-52zm54 0h52v14h-52zm54 0h52v14h-52zm54 0h52v14h-52zm54 0h52v14h-52zm54 0h52v14h-52zm54 0h52v14h-52zm54 0h52v14h-52zm54 0h52v14h-52zm54 0h52v14h-52zm54 0h52v14h-52zm54 0h52v14h-52zm54 0h52v14h-52zm54 0h52v14h-52zm54 0h52v14h-52zm54 0h52v14h-52zm54 0h52v14h-52zm54 0h52v14h-52zm54 0h52v14h-52zm54 0h52v14h-52zm54 0h52v14h-52zm54 0h52v14h-52zm54 0h52v14h-52zm54 0h52v14h-52zm54 0h52v14h-52zm54 0h52v14h-52zm54 0h52v14h-52zm54 0h2v14h-2zM0 305h52v14H0zm54 0h52v14H54zm54 0h52v14h-52zm54 0h52v14h-52zm54 0h52v14h-52zm54 0h52v14h-52zm54 0h52v14h-52zm54 0h52v14h-52zm54 0h52v14h-52zm54 0h52v14h-52zm54 0h52v14h-52zm54 0h52v14h-52zm54 0h52v14h-52zm54 0h52v14h-52zm54 0h52v14h-52zm54 0h52v14h-52zm54 0h52v14h-52zm54 0h52v14h-52zm54 0h52v14h-52zm54 0h52v14h-52zm54 0h52v14h-52zm54 0h52v14h-52zm54 0h52v14h-52zm54 0h52v14h-52zm54 0h52v14h-52zm54 0h52v14h-52zm54 0h52v14h-52zm54 0h52v14h-52zm54 0h52v14h-52zm54 0h52v14h-52zm54 0h52v14h-52zm54 0h52v14h-52zm54 0h52v14h-52zm54 0h52v14h-52zm54 0h52v14h-52zm54-.4h30v14h-30zM0 321h26v14H0zm28 0h52v14H28zm54 0h52v14H82zm54 0h52v14h-52zm54 0h52v14h-52zm54 0h52v14h-52zm54 0h52v14h-52zm54 0h52v14h-52zm54 0h52v14h-52zm54 0h52v14h-52zm54 0h52v14h-52zm54 0h52v14h-52zm54 0h52v14h-52zm54 0h52v14h-52zm54 0h52v14h-52zm54 0h52v14h-52zm54 0h52v14h-52zm54 0h52v14h-52zm54 0h52v14h-52zm54 0h52v14h-52zm54 0h52v14h-52zm54 0h52v14h-52zm54 0h52v14h-52zm54 0h52v14h-52zm54 0h52v14h-52zm54 0h52v14h-52zm54 0h52v14h-52zm54 0h52v14h-52zm54 0h52v14h-52zm54 0h52v14h-52zm54 0h52v14h-52zm54 0h52v14h-52zm54 0h52v14h-52zm54 0h52v14h-52zm54 0h52v14h-52zm54 0h52v14h-52zm54 0h2v14h-2zM0 337h52v14H0zm54 0h52v14H54zm54 0h52v14h-52zm54 0h52v14h-52zm54 0h52v14h-52zm54 0h52v14h-52zm54 0h52v14h-52zm54 0h52v14h-52zm54 0h52v14h-52zm54 0h52v14h-52zm54 0h52v14h-52zm54 0h52v14h-52zm54 0h52v14h-52zm54 0h52v14h-52zm54 0h52v14h-52zm54 0h52v14h-52zm54 0h52v14h-52zm54 0h52v14h-52zm54 0h52v14h-52zm54 0h52v14h-52zm54 0h52v14h-52zm54 0h52v14h-52zm54 0h52v14h-52zm54 0h52v14h-52zm54 0h52v14h-52zm54 0h52v14h-52zm54 0h52v14h-52zm54 0h52v14h-52zm54 0h52v14h-52zm54 0h52v14h-52zm54 0h52v14h-52zm54 0h52v14h-52zm54 0h52v14h-52zm54 0h52v14h-52zm54 0h52v14h-52zm54-.4h30v14h-30zM0 353h26v14H0zm28 0h52v14H28zm54 0h52v14H82zm54 0h52v14h-52zm54 0h52v14h-52zm54 0h52v14h-52zm54 0h52v14h-52zm54 0h52v14h-52zm54 0h52v14h-52zm54 0h52v14h-52zm54 0h52v14h-52zm54 0h52v14h-52zm54 0h52v14h-52zm54 0h52v14h-52zm54 0h52v14h-52zm54 0h52v14h-52zm54 0h52v14h-52zm54 0h52v14h-52zm54 0h52v14h-52zm54 0h52v14h-52zm54 0h52v14h-52zm54 0h52v14h-52zm54 0h52v14h-52zm54 0h52v14h-52zm54 0h52v14h-52zm54 0h52v14h-52zm54 0h52v14h-52zm54 0h52v14h-52zm54 0h52v14h-52zm54 0h52v14h-52zm54 0h52v14h-52zm54 0h52v14h-52zm54 0h52v14h-52zm54 0h52v14h-52zm54 0h52v14h-52zm54 0h52v14h-52zm54 0h2v14h-2zM0 369h52v14H0zm54 0h52v14H54zm54 0h52v14h-52zm54 0h52v14h-52zm54 0h52v14h-52zm54 0h52v14h-52zm54 0h52v14h-52zm54 0h52v14h-52zm54 0h52v14h-52zm54 0h52v14h-52zm54 0h52v14h-52zm54 0h52v14h-52zm54 0h52v14h-52zm54 0h52v14h-52zm54 0h52v14h-52zm54 0h52v14h-52zm54 0h52v14h-52zm54 0h52v14h-52zm54 0h52v14h-52zm54 0h52v14h-52zm54 0h52v14h-52zm54 0h52v14h-52zm54 0h52v14h-52zm54 0h52v14h-52zm54 0h52v14h-52zm54 0h52v14h-52zm54 0h52v14h-52zm54 0h52v14h-52zm54 0h52v14h-52zm54 0h52v14h-52zm54 0h52v14h-52zm54 0h52v14h-52zm54 0h52v14h-52zm54 0h52v14h-52zm54 0h52v14h-52zm54-.4h30v14h-30zM0 385h26v14H0zm28 0h52v14H28zm54 0h52v14H82zm54 0h52v14h-52zm54 0h52v14h-52zm54 0h52v14h-52zm54 0h52v14h-52zm54 0h52v14h-52zm54 0h52v14h-52zm54 0h52v14h-52zm54 0h52v14h-52zm54 0h52v14h-52zm54 0h52v14h-52zm54 0h52v14h-52zm54 0h52v14h-52zm54 0h52v14h-52zm54 0h52v14h-52zm54 0h52v14h-52zm54 0h52v14h-52zm54 0h52v14h-52zm54 0h52v14h-52zm54 0h52v14h-52zm54 0h52v14h-52zm54 0h52v14h-52zm54 0h52v14h-52zm54 0h52v14h-52zm54 0h52v14h-52zm54 0h52v14h-52zm54 0h52v14h-52zm54 0h52v14h-52zm54 0h52v14h-52zm54 0h52v14h-52zm54 0h52v14h-52zm54 0h52v14h-52zm54 0h52v14h-52zm54 0h52v14h-52zm54 0h2v14h-2zM0 401h52v14H0zm54 0h52v14H54zm54 0h52v14h-52zm54 0h52v14h-52zm54 0h52v14h-52zm54 0h52v14h-52zm54 0h52v14h-52zm54 0h52v14h-52zm54 0h52v14h-52zm54 0h52v14h-52zm54 0h52v14h-52zm54 0h52v14h-52zm54 0h52v14h-52zm54 0h52v14h-52zm54 0h52v14h-52zm54 0h52v14h-52zm54 0h52v14h-52zm54 0h52v14h-52zm54 0h52v14h-52zm54 0h52v14h-52zm54 0h52v14h-52zm54 0h52v14h-52zm54 0h52v14h-52zm54 0h52v14h-52zm54 0h52v14h-52zm54 0h52v14h-52zm54 0h52v14h-52zm54 0h52v14h-52zm54 0h52v14h-52zm54 0h52v14h-52zm54 0h52v14h-52zm54 0h52v14h-52zm54 0h52v14h-52zm54 0h52v14h-52zm54 0h52v14h-52zm54-.4h30v14h-30zM0 417h26v14H0zm28 0h52v14H28zm54 0h52v14H82zm54 0h52v14h-52zm54 0h52v14h-52zm54 0h52v14h-52zm54 0h52v14h-52zm54 0h52v14h-52zm54 0h52v14h-52zm54 0h52v14h-52zm54 0h52v14h-52zm54 0h52v14h-52zm54 0h52v14h-52zm54 0h52v14h-52zm54 0h52v14h-52zm54 0h52v14h-52zm54 0h52v14h-52zm54 0h52v14h-52zm54 0h52v14h-52zm54 0h52v14h-52zm54 0h52v14h-52zm54 0h52v14h-52zm54 0h52v14h-52zm54 0h52v14h-52zm54 0h52v14h-52zm54 0h52v14h-52zm54 0h52v14h-52zm54 0h52v14h-52zm54 0h52v14h-52zm54 0h52v14h-52zm54 0h52v14h-52zm54 0h52v14h-52zm54 0h52v14h-52zm54 0h52v14h-52zm54 0h52v14h-52zm54 0h52v14h-52zm54 0h2v14h-2zM0 433h52v14H0zm54 0h52v14H54zm54 0h52v14h-52zm54 0h52v14h-52zm54 0h52v14h-52zm54 0h52v14h-52zm54 0h52v14h-52zm54 0h52v14h-52zm54 0h52v14h-52zm54 0h52v14h-52zm54 0h52v14h-52zm54 0h52v14h-52zm54 0h52v14h-52zm54 0h52v14h-52zm54 0h52v14h-52zm54 0h52v14h-52zm54 0h52v14h-52zm54 0h52v14h-52zm54 0h52v14h-52zm54 0h52v14h-52zm54 0h52v14h-52zm54 0h52v14h-52zm54 0h52v14h-52zm54 0h52v14h-52zm54 0h52v14h-52zm54 0h52v14h-52zm54 0h52v14h-52zm54 0h52v14h-52zm54 0h52v14h-52zm54 0h52v14h-52zm54 0h52v14h-52zm54 0h52v14h-52zm54 0h52v14h-52zm54 0h52v14h-52zm54 0h52v14h-52zm54-.4h30v14h-30zM0 449h26v14H0zm28 0h52v14H28zm54 0h52v14H82zm54 0h52v14h-52zm54 0h52v14h-52zm54 0h52v14h-52zm54 0h52v14h-52zm54 0h52v14h-52zm54 0h52v14h-52zm54 0h52v14h-52zm54 0h52v14h-52zm54 0h52v14h-52zm54 0h52v14h-52zm54 0h52v14h-52zm54 0h52v14h-52zm54 0h52v14h-52zm54 0h52v14h-52zm54 0h52v14h-52zm54 0h52v14h-52zm54 0h52v14h-52zm54 0h52v14h-52zm54 0h52v14h-52zm54 0h52v14h-52zm54 0h52v14h-52zm54 0h52v14h-52zm54 0h52v14h-52zm54 0h52v14h-52zm54 0h52v14h-52zm54 0h52v14h-52zm54 0h52v14h-52zm54 0h52v14h-52zm54 0h52v14h-52zm54 0h52v14h-52zm54 0h52v14h-52zm54 0h52v14h-52zm54 0h52v14h-52zm54 0h2v14h-2zM0 465h52v14H0zm54 0h52v14H54zm54 0h52v14h-52zm54 0h52v14h-52zm54 0h52v14h-52zm54 0h52v14h-52zm54 0h52v14h-52zm54 0h52v14h-52zm54 0h52v14h-52zm54 0h52v14h-52zm54 0h52v14h-52zm54 0h52v14h-52zm54 0h52v14h-52zm54 0h52v14h-52zm54 0h52v14h-52zm54 0h52v14h-52zm54 0h52v14h-52zm54 0h52v14h-52zm54 0h52v14h-52zm54 0h52v14h-52zm54 0h52v14h-52zm54 0h52v14h-52zm54 0h52v14h-52zm54 0h52v14h-52zm54 0h52v14h-52zm54 0h52v14h-52zm54 0h52v14h-52zm54 0h52v14h-52zm54 0h52v14h-52zm54 0h52v14h-52zm54 0h52v14h-52zm54 0h52v14h-52zm54 0h52v14h-52zm54 0h52v14h-52zm54 0h52v14h-52zm54-.4h30v14h-30zM0 481h26v14H0zm28 0h52v14H28zm54 0h52v14H82zm54 0h52v14h-52zm54 0h52v14h-52zm54 0h52v14h-52zm54 0h52v14h-52zm54 0h52v14h-52zm54 0h52v14h-52zm54 0h52v14h-52zm54 0h52v14h-52zm54 0h52v14h-52zm54 0h52v14h-52zm54 0h52v14h-52zm54 0h52v14h-52zm54 0h52v14h-52zm54 0h52v14h-52zm54 0h52v14h-52zm54 0h52v14h-52zm54 0h52v14h-52zm54 0h52v14h-52zm54 0h52v14h-52zm54 0h52v14h-52zm54 0h52v14h-52zm54 0h52v14h-52zm54 0h52v14h-52zm54 0h52v14h-52zm54 0h52v14h-52zm54 0h52v14h-52zm54 0h52v14h-52zm54 0h52v14h-52zm54 0h52v14h-52zm54 0h52v14h-52zm54 0h52v14h-52zm54 0h52v14h-52zm54 0h52v14h-52zm54 0h2v14h-2zM0 497h52v14H0zm54 0h52v14H54zm54 0h52v14h-52zm54 0h52v14h-52zm54 0h52v14h-52zm54 0h52v14h-52zm54 0h52v14h-52zm54 0h52v14h-52zm54 0h52v14h-52zm54 0h52v14h-52zm54 0h52v14h-52zm54 0h52v14h-52zm54 0h52v14h-52zm54 0h52v14h-52zm54 0h52v14h-52zm54 0h52v14h-52zm54 0h52v14h-52zm54 0h52v14h-52zm54 0h52v14h-52zm54 0h52v14h-52zm54 0h52v14h-52zm54 0h52v14h-52zm54 0h52v14h-52zm54 0h52v14h-52zm54 0h52v14h-52zm54 0h52v14h-52zm54 0h52v14h-52zm54 0h52v14h-52zm54 0h52v14h-52zm54 0h52v14h-52zm54 0h52v14h-52zm54 0h52v14h-52zm54 0h52v14h-52zm54 0h52v14h-52zm54 0h52v14h-52zm54-.4h30v14h-30zM0 513h26v14H0zm28 0h52v14H28zm54 0h52v14H82zm54 0h52v14h-52zm54 0h52v14h-52zm54 0h52v14h-52zm54 0h52v14h-52zm54 0h52v14h-52zm54 0h52v14h-52zm54 0h52v14h-52zm54 0h52v14h-52zm54 0h52v14h-52zm54 0h52v14h-52zm54 0h52v14h-52zm54 0h52v14h-52zm54 0h52v14h-52zm54 0h52v14h-52zm54 0h52v14h-52zm54 0h52v14h-52zm54 0h52v14h-52zm54 0h52v14h-52zm54 0h52v14h-52zm54 0h52v14h-52zm54 0h52v14h-52zm54 0h52v14h-52zm54 0h52v14h-52zm54 0h52v14h-52zm54 0h52v14h-52zm54 0h52v14h-52zm54 0h52v14h-52zm54 0h52v14h-52zm54 0h52v14h-52zm54 0h52v14h-52zm54 0h52v14h-52zm54 0h52v14h-52zm54 0h52v14h-52zm54 0h2v14h-2zM0 529h52v14H0zm54 0h52v14H54zm54 0h52v14h-52zm54 0h52v14h-52zm54 0h52v14h-52zm54 0h52v14h-52zm54 0h52v14h-52zm54 0h52v14h-52zm54 0h52v14h-52zm54 0h52v14h-52zm54 0h52v14h-52zm54 0h52v14h-52zm54 0h52v14h-52zm54 0h52v14h-52zm54 0h52v14h-52zm54 0h52v14h-52zm54 0h52v14h-52zm54 0h52v14h-52zm54 0h52v14h-52zm54 0h52v14h-52zm54 0h52v14h-52zm54 0h52v14h-52zm54 0h52v14h-52zm54 0h52v14h-52zm54 0h52v14h-52zm54 0h52v14h-52zm54 0h52v14h-52zm54 0h52v14h-52zm54 0h52v14h-52zm54 0h52v14h-52zm54 0h52v14h-52zm54 0h52v14h-52zm54 0h52v14h-52zm54 0h52v14h-52zm54 0h52v14h-52zm54-.4h30v14h-30zM0 545h26v14H0zm28 0h52v14H28zm54 0h52v14H82zm54 0h52v14h-52zm54 0h52v14h-52zm54 0h52v14h-52zm54 0h52v14h-52zm54 0h52v14h-52zm54 0h52v14h-52zm54 0h52v14h-52zm54 0h52v14h-52zm54 0h52v14h-52zm54 0h52v14h-52zm54 0h52v14h-52zm54 0h52v14h-52zm54 0h52v14h-52zm54 0h52v14h-52zm54 0h52v14h-52zm54 0h52v14h-52zm54 0h52v14h-52zm54 0h52v14h-52zm54 0h52v14h-52zm54 0h52v14h-52zm54 0h52v14h-52zm54 0h52v14h-52zm54 0h52v14h-52zm54 0h52v14h-52zm54 0h52v14h-52zm54 0h52v14h-52zm54 0h52v14h-52zm54 0h52v14h-52zm54 0h52v14h-52zm54 0h52v14h-52zm54 0h52v14h-52zm54 0h52v14h-52zm54 0h52v14h-52zm54 0h2v14h-2zM0 561h52v14H0zm54 0h52v14H54zm54 0h52v14h-52zm54 0h52v14h-52zm54 0h52v14h-52zm54 0h52v14h-52zm54 0h52v14h-52zm54 0h52v14h-52zm54 0h52v14h-52zm54 0h52v14h-52zm54 0h52v14h-52zm54 0h52v14h-52zm54 0h52v14h-52zm54 0h52v14h-52zm54 0h52v14h-52zm54 0h52v14h-52zm54 0h52v14h-52zm54 0h52v14h-52zm54 0h52v14h-52zm54 0h52v14h-52zm54 0h52v14h-52zm54 0h52v14h-52zm54 0h52v14h-52zm54 0h52v14h-52zm54 0h52v14h-52zm54 0h52v14h-52zm54 0h52v14h-52zm54 0h52v14h-52zm54 0h52v14h-52zm54 0h52v14h-52zm54 0h52v14h-52zm54 0h52v14h-52zm54 0h52v14h-52zm54 0h52v14h-52zm54 0h52v14h-52zm54-.4h30v14h-30zM0 577h26v14H0zm28 0h52v14H28zm54 0h52v14H82zm54 0h52v14h-52zm54 0h52v14h-52zm54 0h52v14h-52zm54 0h52v14h-52zm54 0h52v14h-52zm54 0h52v14h-52zm54 0h52v14h-52zm54 0h52v14h-52zm54 0h52v14h-52zm54 0h52v14h-52zm54 0h52v14h-52zm54 0h52v14h-52zm54 0h52v14h-52zm54 0h52v14h-52zm54 0h52v14h-52zm54 0h52v14h-52zm54 0h52v14h-52zm54 0h52v14h-52zm54 0h52v14h-52zm54 0h52v14h-52zm54 0h52v14h-52zm54 0h52v14h-52zm54 0h52v14h-52zm54 0h52v14h-52zm54 0h52v14h-52zm54 0h52v14h-52zm54 0h52v14h-52zm54 0h52v14h-52zm54 0h52v14h-52zm54 0h52v14h-52zm54 0h52v14h-52zm54 0h52v14h-52zm54 0h52v14h-52zm54 0h2v14h-2zM0 593h52v14H0zm54 0h52v14H54zm54 0h52v14h-52zm54 0h52v14h-52zm54 0h52v14h-52zm54 0h52v14h-52zm54 0h52v14h-52zm54 0h52v14h-52zm54 0h52v14h-52zm54 0h52v14h-52zm54 0h52v14h-52zm54 0h52v14h-52zm54 0h52v14h-52zm54 0h52v14h-52zm54 0h52v14h-52zm54 0h52v14h-52zm54 0h52v14h-52zm54 0h52v14h-52zm54 0h52v14h-52zm54 0h52v14h-52zm54 0h52v14h-52zm54 0h52v14h-52zm54 0h52v14h-52zm54 0h52v14h-52zm54 0h52v14h-52zm54 0h52v14h-52zm54 0h52v14h-52zm54 0h52v14h-52zm54 0h52v14h-52zm54 0h52v14h-52zm54 0h52v14h-52zm54 0h52v14h-52zm54 0h52v14h-52zm54 0h52v14h-52zm54 0h52v14h-52zm54-.3h30v14h-30zM0 609h26v14H0zm28 0h52v14H28zm54 0h52v14H82zm54 0h52v14h-52zm54 0h52v14h-52zm54 0h52v14h-52zm54 0h52v14h-52zm54 0h52v14h-52zm54 0h52v14h-52zm54 0h52v14h-52zm54 0h52v14h-52zm54 0h52v14h-52zm54 0h52v14h-52zm54 0h52v14h-52zm54 0h52v14h-52zm54 0h52v14h-52zm54 0h52v14h-52zm54 0h52v14h-52zm54 0h52v14h-52zm54 0h52v14h-52zm54 0h52v14h-52zm54 0h52v14h-52zm54 0h52v14h-52zm54 0h52v14h-52zm54 0h52v14h-52zm54 0h52v14h-52zm54 0h52v14h-52zm54 0h52v14h-52zm54 0h52v14h-52zm54 0h52v14h-52zm54 0h52v14h-52zm54 0h52v14h-52zm54 0h52v14h-52zm54 0h52v14h-52zm54 0h52v14h-52zm54 0h52v14h-52zm54 0h2v14h-2zM0 625h52v14H0zm54 0h52v14H54zm54 0h52v14h-52zm54 0h52v14h-52zm54 0h52v14h-52zm54 0h52v14h-52zm54 0h52v14h-52zm54 0h52v14h-52zm54 0h52v14h-52zm54 0h52v14h-52zm54 0h52v14h-52zm54 0h52v14h-52zm54 0h52v14h-52zm54 0h52v14h-52zm54 0h52v14h-52zm54 0h52v14h-52zm54 0h52v14h-52zm54 0h52v14h-52zm54 0h52v14h-52zm54 0h52v14h-52zm54 0h52v14h-52zm54 0h52v14h-52zm54 0h52v14h-52zm54 0h52v14h-52zm54 0h52v14h-52zm54 0h52v14h-52zm54 0h52v14h-52zm54 0h52v14h-52zm54 0h52v14h-52zm54 0h52v14h-52zm54 0h52v14h-52zm54 0h52v14h-52zm54 0h52v14h-52zm54 0h52v14h-52zm54 0h52v14h-52zm54-.3h30v14h-30zM0 641h26v14H0zm28 0h52v14H28zm54 0h52v14H82zm54 0h52v14h-52zm54 0h52v14h-52zm54 0h52v14h-52zm54 0h52v14h-52zm54 0h52v14h-52zm54 0h52v14h-52zm54 0h52v14h-52zm54 0h52v14h-52zm54 0h52v14h-52zm54 0h52v14h-52zm54 0h52v14h-52zm54 0h52v14h-52zm54 0h52v14h-52zm54 0h52v14h-52zm54 0h52v14h-52zm54 0h52v14h-52zm54 0h52v14h-52zm54 0h52v14h-52zm54 0h52v14h-52zm54 0h52v14h-52zm54 0h52v14h-52zm54 0h52v14h-52zm54 0h52v14h-52zm54 0h52v14h-52zm54 0h52v14h-52zm54 0h52v14h-52zm54 0h52v14h-52zm54 0h52v14h-52zm54 0h52v14h-52zm54 0h52v14h-52zm54 0h52v14h-52zm54 0h52v14h-52zm54 0h52v14h-52zm54 0h2v14h-2zM0 657h52v14H0zm54 0h52v14H54zm54 0h52v14h-52zm54 0h52v14h-52zm54 0h52v14h-52zm54 0h52v14h-52zm54 0h52v14h-52zm54 0h52v14h-52zm54 0h52v14h-52zm54 0h52v14h-52zm54 0h52v14h-52zm54 0h52v14h-52zm54 0h52v14h-52zm54 0h52v14h-52zm54 0h52v14h-52zm54 0h52v14h-52zm54 0h52v14h-52zm54 0h52v14h-52zm54 0h52v14h-52zm54 0h52v14h-52zm54 0h52v14h-52zm54 0h52v14h-52zm54 0h52v14h-52zm54 0h52v14h-52zm54 0h52v14h-52zm54 0h52v14h-52zm54 0h52v14h-52zm54 0h52v14h-52zm54 0h52v14h-52zm54 0h52v14h-52zm54 0h52v14h-52zm54 0h52v14h-52zm54 0h52v14h-52zm54 0h52v14h-52zm54 0h52v14h-52zm54-.3h30v14h-30zM0 673h26v14H0zm28 0h52v14H28zm54 0h52v14H82zm54 0h52v14h-52zm54 0h52v14h-52zm54 0h52v14h-52zm54 0h52v14h-52zm54 0h52v14h-52zm54 0h52v14h-52zm54 0h52v14h-52zm54 0h52v14h-52zm54 0h52v14h-52zm54 0h52v14h-52zm54 0h52v14h-52zm54 0h52v14h-52zm54 0h52v14h-52zm54 0h52v14h-52zm54 0h52v14h-52zm54 0h52v14h-52zm54 0h52v14h-52zm54 0h52v14h-52zm54 0h52v14h-52zm54 0h52v14h-52zm54 0h52v14h-52zm54 0h52v14h-52zm54 0h52v14h-52zm54 0h52v14h-52zm54 0h52v14h-52zm54 0h52v14h-52zm54 0h52v14h-52zm54 0h52v14h-52zm54 0h52v14h-52zm54 0h52v14h-52zm54 0h52v14h-52zm54 0h52v14h-52zm54 0h52v14h-52zm54 0h2v14h-2zM0 689h52v14H0zm54 0h52v14H54zm54 0h52v14h-52zm54 0h52v14h-52zm54 0h52v14h-52zm54 0h52v14h-52zm54 0h52v14h-52zm54 0h52v14h-52zm54 0h52v14h-52zm54 0h52v14h-52zm54 0h52v14h-52zm54 0h52v14h-52zm54 0h52v14h-52zm54 0h52v14h-52zm54 0h52v14h-52zm54 0h52v14h-52zm54 0h52v14h-52zm54 0h52v14h-52zm54 0h52v14h-52zm54 0h52v14h-52zm54 0h52v14h-52zm54 0h52v14h-52zm54 0h52v14h-52zm54 0h52v14h-52zm54 0h52v14h-52zm54 0h52v14h-52zm54 0h52v14h-52zm54 0h52v14h-52zm54 0h52v14h-52zm54 0h52v14h-52zm54 0h52v14h-52zm54 0h52v14h-52zm54 0h52v14h-52zm54 0h52v14h-52zm54 0h52v14h-52zm54-.3h30v14h-30zM0 705h26v14H0zm28 0h52v14H28zm54 0h52v14H82zm54 0h52v14h-52zm54 0h52v14h-52zm54 0h52v14h-52zm54 0h52v14h-52zm54 0h52v14h-52zm54 0h52v14h-52zm54 0h52v14h-52zm54 0h52v14h-52zm54 0h52v14h-52zm54 0h52v14h-52zm54 0h52v14h-52zm54 0h52v14h-52zm54 0h52v14h-52zm54 0h52v14h-52zm54 0h52v14h-52zm54 0h52v14h-52zm54 0h52v14h-52zm54 0h52v14h-52zm54 0h52v14h-52zm54 0h52v14h-52zm54 0h52v14h-52zm54 0h52v14h-52zm54 0h52v14h-52zm54 0h52v14h-52zm54 0h52v14h-52zm54 0h52v14h-52zm54 0h52v14h-52zm54 0h52v14h-52zm54 0h52v14h-52zm54 0h52v14h-52zm54 0h52v14h-52zm54 0h52v14h-52zm54 0h52v14h-52zm54 0h2v14h-2zM0 721h52v14H0zm54 0h52v14H54zm54 0h52v14h-52zm54 0h52v14h-52zm54 0h52v14h-52zm54 0h52v14h-52zm54 0h52v14h-52zm54 0h52v14h-52zm54 0h52v14h-52zm54 0h52v14h-52zm54 0h52v14h-52zm54 0h52v14h-52zm54 0h52v14h-52zm54 0h52v14h-52zm54 0h52v14h-52zm54 0h52v14h-52zm54 0h52v14h-52zm54 0h52v14h-52zm54 0h52v14h-52zm54 0h52v14h-52zm54 0h52v14h-52zm54 0h52v14h-52zm54 0h52v14h-52zm54 0h52v14h-52zm54 0h52v14h-52zm54 0h52v14h-52zm54 0h52v14h-52zm54 0h52v14h-52zm54 0h52v14h-52zm54 0h52v14h-52zm54 0h52v14h-52zm54 0h52v14h-52zm54 0h52v14h-52zm54 0h52v14h-52zm54 0h52v14h-52zm54-.3h30v14h-30zM0 737h26v14H0zm28 0h52v14H28zm54 0h52v14H82zm54 0h52v14h-52zm54 0h52v14h-52zm54 0h52v14h-52zm54 0h52v14h-52zm54 0h52v14h-52zm54 0h52v14h-52zm54 0h52v14h-52zm54 0h52v14h-52zm54 0h52v14h-52zm54 0h52v14h-52zm54 0h52v14h-52zm54 0h52v14h-52zm54 0h52v14h-52zm54 0h52v14h-52zm54 0h52v14h-52zm54 0h52v14h-52zm54 0h52v14h-52zm54 0h52v14h-52zm54 0h52v14h-52zm54 0h52v14h-52zm54 0h52v14h-52zm54 0h52v14h-52zm54 0h52v14h-52zm54 0h52v14h-52zm54 0h52v14h-52zm54 0h52v14h-52zm54 0h52v14h-52zm54 0h52v14h-52zm54 0h52v14h-52zm54 0h52v14h-52zm54 0h52v14h-52zm54 0h52v14h-52zm54 0h52v14h-52zm54 0h2v14h-2zM0 753h52v14H0zm54 0h52v14H54zm54 0h52v14h-52zm54 0h52v14h-52zm54 0h52v14h-52zm54 0h52v14h-52zm54 0h52v14h-52zm54 0h52v14h-52zm54 0h52v14h-52zm54 0h52v14h-52zm54 0h52v14h-52zm54 0h52v14h-52zm54 0h52v14h-52zm54 0h52v14h-52zm54 0h52v14h-52zm54 0h52v14h-52zm54 0h52v14h-52zm54 0h52v14h-52zm54 0h52v14h-52zm54 0h52v14h-52zm54 0h52v14h-52zm54 0h52v14h-52zm54 0h52v14h-52zm54 0h52v14h-52zm54 0h52v14h-52zm54 0h52v14h-52zm54 0h52v14h-52zm54 0h52v14h-52zm54 0h52v14h-52zm54 0h52v14h-52zm54 0h52v14h-52zm54 0h52v14h-52zm54 0h52v14h-52zm54 0h52v14h-52zm54 0h52v14h-52zm54-.3h30v14h-30zM0 769h26v14H0zm28 0h52v14H28zm54 0h52v14H82zm54 0h52v14h-52zm54 0h52v14h-52zm54 0h52v14h-52zm54 0h52v14h-52zm54 0h52v14h-52zm54 0h52v14h-52zm54 0h52v14h-52zm54 0h52v14h-52zm54 0h52v14h-52zm54 0h52v14h-52zm54 0h52v14h-52zm54 0h52v14h-52zm54 0h52v14h-52zm54 0h52v14h-52zm54 0h52v14h-52zm54 0h52v14h-52zm54 0h52v14h-52zm54 0h52v14h-52zm54 0h52v14h-52zm54 0h52v14h-52zm54 0h52v14h-52zm54 0h52v14h-52zm54 0h52v14h-52zm54 0h52v14h-52zm54 0h52v14h-52zm54 0h52v14h-52zm54 0h52v14h-52zm54 0h52v14h-52zm54 0h52v14h-52zm54 0h52v14h-52zm54 0h52v14h-52zm54 0h52v14h-52zm54 0h52v14h-52zm54 0h2v14h-2zM0 785h52v14H0zm54 0h52v14H54zm54 0h52v14h-52zm54 0h52v14h-52zm54 0h52v14h-52zm54 0h52v14h-52zm54 0h52v14h-52zm54 0h52v14h-52zm54 0h52v14h-52zm54 0h52v14h-52zm54 0h52v14h-52zm54 0h52v14h-52zm54 0h52v14h-52zm54 0h52v14h-52zm54 0h52v14h-52zm54 0h52v14h-52zm54 0h52v14h-52zm54 0h52v14h-52zm54 0h52v14h-52zm54 0h52v14h-52zm54 0h52v14h-52zm54 0h52v14h-52zm54 0h52v14h-52zm54 0h52v14h-52zm54 0h52v14h-52zm54 0h52v14h-52zm54 0h52v14h-52zm54 0h52v14h-52zm54 0h52v14h-52zm54 0h52v14h-52zm54 0h52v14h-52zm54 0h52v14h-52zm54 0h52v14h-52zm54 0h52v14h-52zm54 0h52v14h-52zm54-.3h30v14h-30zM0 801h26v14H0zm28 0h52v14H28zm54 0h52v14H82zm54 0h52v14h-52zm54 0h52v14h-52zm54 0h52v14h-52zm54 0h52v14h-52zm54 0h52v14h-52zm54 0h52v14h-52zm54 0h52v14h-52zm54 0h52v14h-52zm54 0h52v14h-52zm54 0h52v14h-52zm54 0h52v14h-52zm54 0h52v14h-52zm54 0h52v14h-52zm54 0h52v14h-52zm54 0h52v14h-52zm54 0h52v14h-52zm54 0h52v14h-52zm54 0h52v14h-52zm54 0h52v14h-52zm54 0h52v14h-52zm54 0h52v14h-52zm54 0h52v14h-52zm54 0h52v14h-52zm54 0h52v14h-52zm54 0h52v14h-52zm54 0h52v14h-52zm54 0h52v14h-52zm54 0h52v14h-52zm54 0h52v14h-52zm54 0h52v14h-52zm54 0h52v14h-52zm54 0h52v14h-52zm54 0h52v14h-52zm54 0h2v14h-2zM0 817h52v14H0zm54 0h52v14H54zm54 0h52v14h-52zm54 0h52v14h-52zm54 0h52v14h-52zm54 0h52v14h-52zm54 0h52v14h-52zm54 0h52v14h-52zm54 0h52v14h-52zm54 0h52v14h-52zm54 0h52v14h-52zm54 0h52v14h-52zm54 0h52v14h-52zm54 0h52v14h-52zm54 0h52v14h-52zm54 0h52v14h-52zm54 0h52v14h-52zm54 0h52v14h-52zm54 0h52v14h-52zm54 0h52v14h-52zm54 0h52v14h-52zm54 0h52v14h-52zm54 0h52v14h-52zm54 0h52v14h-52zm54 0h52v14h-52zm54 0h52v14h-52zm54 0h52v14h-52zm54 0h52v14h-52zm54 0h52v14h-52zm54 0h52v14h-52zm54 0h52v14h-52zm54 0h52v14h-52zm54 0h52v14h-52zm54 0h52v14h-52zm54 0h52v14h-52zm54-.3h30v14h-30zM0 833h26v14H0zm28 0h52v14H28zm54 0h52v14H82zm54 0h52v14h-52zm54 0h52v14h-52zm54 0h52v14h-52zm54 0h52v14h-52zm54 0h52v14h-52zm54 0h52v14h-52zm54 0h52v14h-52zm54 0h52v14h-52zm54 0h52v14h-52zm54 0h52v14h-52zm54 0h52v14h-52zm54 0h52v14h-52zm54 0h52v14h-52zm54 0h52v14h-52zm54 0h52v14h-52zm54 0h52v14h-52zm54 0h52v14h-52zm54 0h52v14h-52zm54 0h52v14h-52zm54 0h52v14h-52zm54 0h52v14h-52zm54 0h52v14h-52zm54 0h52v14h-52zm54 0h52v14h-52zm54 0h52v14h-52zm54 0h52v14h-52zm54 0h52v14h-52zm54 0h52v14h-52zm54 0h52v14h-52zm54 0h52v14h-52zm54 0h52v14h-52zm54 0h52v14h-52zm54 0h52v14h-52zm54 0h2v14h-2zM0 849h52v14H0zm54 0h52v14H54zm54 0h52v14h-52zm54 0h52v14h-52zm54 0h52v14h-52zm54 0h52v14h-52zm54 0h52v14h-52zm54 0h52v14h-52zm54 0h52v14h-52zm54 0h52v14h-52zm54 0h52v14h-52zm54 0h52v14h-52zm54 0h52v14h-52zm54 0h52v14h-52zm54 0h52v14h-52zm54 0h52v14h-52zm54 0h52v14h-52zm54 0h52v14h-52zm54 0h52v14h-52zm54 0h52v14h-52zm54 0h52v14h-52zm54 0h52v14h-52zm54 0h52v14h-52zm54 0h52v14h-52zm54 0h52v14h-52zm54 0h52v14h-52zm54 0h52v14h-52zm54 0h52v14h-52zm54 0h52v14h-52zm54 0h52v14h-52zm54 0h52v14h-52zm54 0h52v14h-52zm54 0h52v14h-52zm54 0h52v14h-52zm54 0h52v14h-52zm54-.3h30v14h-30zM0 865h26v14H0zm28 0h52v14H28zm54 0h52v14H82zm54 0h52v14h-52zm54 0h52v14h-52zm54 0h52v14h-52zm54 0h52v14h-52zm54 0h52v14h-52zm54 0h52v14h-52zm54 0h52v14h-52zm54 0h52v14h-52zm54 0h52v14h-52zm54 0h52v14h-52zm54 0h52v14h-52zm54 0h52v14h-52zm54 0h52v14h-52zm54 0h52v14h-52zm54 0h52v14h-52zm54 0h52v14h-52zm54 0h52v14h-52zm54 0h52v14h-52zm54 0h52v14h-52zm54 0h52v14h-52zm54 0h52v14h-52zm54 0h52v14h-52zm54 0h52v14h-52zm54 0h52v14h-52zm54 0h52v14h-52zm54 0h52v14h-52zm54 0h52v14h-52zm54 0h52v14h-52zm54 0h52v14h-52zm54 0h52v14h-52zm54 0h52v14h-52zm54 0h52v14h-52zm54 0h52v14h-52zm54 0h2v14h-2zM0 881h52v14H0zm54 0h52v14H54zm54 0h52v14h-52zm54 0h52v14h-52zm54 0h52v14h-52zm54 0h52v14h-52zm54 0h52v14h-52zm54 0h52v14h-52zm54 0h52v14h-52zm54 0h52v14h-52zm54 0h52v14h-52zm54 0h52v14h-52zm54 0h52v14h-52zm54 0h52v14h-52zm54 0h52v14h-52zm54 0h52v14h-52zm54 0h52v14h-52zm54 0h52v14h-52zm54 0h52v14h-52zm54 0h52v14h-52zm54 0h52v14h-52zm54 0h52v14h-52zm54 0h52v14h-52zm54 0h52v14h-52zm54 0h52v14h-52zm54 0h52v14h-52zm54 0h52v14h-52zm54 0h52v14h-52zm54 0h52v14h-52zm54 0h52v14h-52zm54 0h52v14h-52zm54 0h52v14h-52zm54 0h52v14h-52zm54 0h52v14h-52zm54 0h52v14h-52zm54-.3h30v14h-30zM0 897h26v14H0zm28 0h52v14H28zm54 0h52v14H82zm54 0h52v14h-52zm54 0h52v14h-52zm54 0h52v14h-52zm54 0h52v14h-52zm54 0h52v14h-52zm54 0h52v14h-52zm54 0h52v14h-52zm54 0h52v14h-52zm54 0h52v14h-52zm54 0h52v14h-52zm54 0h52v14h-52zm54 0h52v14h-52zm54 0h52v14h-52zm54 0h52v14h-52zm54 0h52v14h-52zm54 0h52v14h-52zm54 0h52v14h-52zm54 0h52v14h-52zm54 0h52v14h-52zm54 0h52v14h-52zm54 0h52v14h-52zm54 0h52v14h-52zm54 0h52v14h-52zm54 0h52v14h-52zm54 0h52v14h-52zm54 0h52v14h-52zm54 0h52v14h-52zm54 0h52v14h-52zm54 0h52v14h-52zm54 0h52v14h-52zm54 0h52v14h-52zm54 0h52v14h-52zm54 0h52v14h-52zm54 0h2v14h-2zM0 913h52v14H0zm54 0h52v14H54zm54 0h52v14h-52zm54 0h52v14h-52zm54 0h52v14h-52zm54 0h52v14h-52zm54 0h52v14h-52zm54 0h52v14h-52zm54 0h52v14h-52zm54 0h52v14h-52zm54 0h52v14h-52zm54 0h52v14h-52zm54 0h52v14h-52zm54 0h52v14h-52zm54 0h52v14h-52zm54 0h52v14h-52zm54 0h52v14h-52zm54 0h52v14h-52zm54 0h52v14h-52zm54 0h52v14h-52zm54 0h52v14h-52zm54 0h52v14h-52zm54 0h52v14h-52zm54 0h52v14h-52zm54 0h52v14h-52zm54 0h52v14h-52zm54 0h52v14h-52zm54 0h52v14h-52zm54 0h52v14h-52zm54 0h52v14h-52zm54 0h52v14h-52zm54 0h52v14h-52zm54 0h52v14h-52zm54 0h52v14h-52zm54 0h52v14h-52zm54-.3h30v14h-30zM0 929h26v14H0zm28 0h52v14H28zm54 0h52v14H82zm54 0h52v14h-52zm54 0h52v14h-52zm54 0h52v14h-52zm54 0h52v14h-52zm54 0h52v14h-52zm54 0h52v14h-52zm54 0h52v14h-52zm54 0h52v14h-52zm54 0h52v14h-52zm54 0h52v14h-52zm54 0h52v14h-52zm54 0h52v14h-52zm54 0h52v14h-52zm54 0h52v14h-52zm54 0h52v14h-52zm54 0h52v14h-52zm54 0h52v14h-52zm54 0h52v14h-52zm54 0h52v14h-52zm54 0h52v14h-52zm54 0h52v14h-52zm54 0h52v14h-52zm54 0h52v14h-52zm54 0h52v14h-52zm54 0h52v14h-52zm54 0h52v14h-52zm54 0h52v14h-52zm54 0h52v14h-52zm54 0h52v14h-52zm54 0h52v14h-52zm54 0h52v14h-52zm54 0h52v14h-52zm54 0h52v14h-52zm54 0h2v14h-2zM0 945h52v14H0zm54 0h52v14H54zm54 0h52v14h-52zm54 0h52v14h-52zm54 0h52v14h-52zm54 0h52v14h-52zm54 0h52v14h-52zm54 0h52v14h-52zm54 0h52v14h-52zm54 0h52v14h-52zm54 0h52v14h-52zm54 0h52v14h-52zm54 0h52v14h-52zm54 0h52v14h-52zm54 0h52v14h-52zm54 0h52v14h-52zm54 0h52v14h-52zm54 0h52v14h-52zm54 0h52v14h-52zm54 0h52v14h-52zm54 0h52v14h-52zm54 0h52v14h-52zm54 0h52v14h-52zm54 0h52v14h-52zm54 0h52v14h-52zm54 0h52v14h-52zm54 0h52v14h-52zm54 0h52v14h-52zm54 0h52v14h-52zm54 0h52v14h-52zm54 0h52v14h-52zm54 0h52v14h-52zm54 0h52v14h-52zm54 0h52v14h-52zm54 0h52v14h-52zm54-.3h30v14h-30zM0 961h26v14H0zm28 0h52v14H28zm54 0h52v14H82zm54 0h52v14h-52zm54 0h52v14h-52zm54 0h52v14h-52zm54 0h52v14h-52zm54 0h52v14h-52zm54 0h52v14h-52zm54 0h52v14h-52zm54 0h52v14h-52zm54 0h52v14h-52zm54 0h52v14h-52zm54 0h52v14h-52zm54 0h52v14h-52zm54 0h52v14h-52zm54 0h52v14h-52zm54 0h52v14h-52zm54 0h52v14h-52zm54 0h52v14h-52zm54 0h52v14h-52zm54 0h52v14h-52zm54 0h52v14h-52zm54 0h52v14h-52zm54 0h52v14h-52zm54 0h52v14h-52zm54 0h52v14h-52zm54 0h52v14h-52zm54 0h52v14h-52zm54 0h52v14h-52zm54 0h52v14h-52zm54 0h52v14h-52zm54 0h52v14h-52zm54 0h52v14h-52zm54 0h52v14h-52zm54 0h52v14h-52zm54 0h2v14h-2zM0 977h52v14H0zm54 0h52v14H54zm54 0h52v14h-52zm54 0h52v14h-52zm54 0h52v14h-52zm54 0h52v14h-52zm54 0h52v14h-52zm54 0h52v14h-52zm54 0h52v14h-52zm54 0h52v14h-52zm54 0h52v14h-52zm54 0h52v14h-52zm54 0h52v14h-52zm54 0h52v14h-52zm54 0h52v14h-52zm54 0h52v14h-52zm54 0h52v14h-52zm54 0h52v14h-52zm54 0h52v14h-52zm54 0h52v14h-52zm54 0h52v14h-52zm54 0h52v14h-52zm54 0h52v14h-52zm54 0h52v14h-52zm54 0h52v14h-52zm54 0h52v14h-52zm54 0h52v14h-52zm54 0h52v14h-52zm54 0h52v14h-52zm54 0h52v14h-52zm54 0h52v14h-52zm54 0h52v14h-52zm54 0h52v14h-52zm54 0h52v14h-52zm54 0h52v14h-52zm54-.2h30v14h-30zM0 993h26v14H0zm28 0h52v14H28zm54 0h52v14H82zm54 0h52v14h-52zm54 0h52v14h-52zm54 0h52v14h-52zm54 0h52v14h-52zm54 0h52v14h-52zm54 0h52v14h-52zm54 0h52v14h-52zm54 0h52v14h-52zm54 0h52v14h-52zm54 0h52v14h-52zm54 0h52v14h-52zm54 0h52v14h-52zm54 0h52v14h-52zm54 0h52v14h-52zm54 0h52v14h-52zm54 0h52v14h-52zm54 0h52v14h-52zm54 0h52v14h-52zm54 0h52v14h-52zm54 0h52v14h-52zm54 0h52v14h-52zm54 0h52v14h-52zm54 0h52v14h-52zm54 0h52v14h-52zm54 0h52v14h-52zm54 0h52v14h-52zm54 0h52v14h-52zm54 0h52v14h-52zm54 0h52v14h-52zm54 0h52v14h-52zm54 0h52v14h-52zm54 0h52v14h-52zm54 0h52v14h-52zm54 0h2v14h-2zM0 1009h52v14H0zm54 0h52v14H54zm54 0h52v14h-52zm54 0h52v14h-52zm54 0h52v14h-52zm54 0h52v14h-52zm54 0h52v14h-52zm54 0h52v14h-52zm54 0h52v14h-52zm54 0h52v14h-52zm54 0h52v14h-52zm54 0h52v14h-52zm54 0h52v14h-52zm54 0h52v14h-52zm54 0h52v14h-52zm54 0h52v14h-52zm54 0h52v14h-52zm54 0h52v14h-52zm54 0h52v14h-52zm54 0h52v14h-52zm54 0h52v14h-52zm54 0h52v14h-52zm54 0h52v14h-52zm54 0h52v14h-52zm54 0h52v14h-52zm54 0h52v14h-52zm54 0h52v14h-52zm54 0h52v14h-52zm54 0h52v14h-52zm54 0h52v14h-52zm54 0h52v14h-52zm54 0h52v14h-52zm54 0h52v14h-52zm54 0h52v14h-52zm54 0h52v14h-52zm54-.2h30v14h-30zM0 1025h26v14H0zm28 0h52v14H28zm54 0h52v14H82zm54 0h52v14h-52zm54 0h52v14h-52zm54 0h52v14h-52zm54 0h52v14h-52zm54 0h52v14h-52zm54 0h52v14h-52zm54 0h52v14h-52zm54 0h52v14h-52zm54 0h52v14h-52zm54 0h52v14h-52zm54 0h52v14h-52zm54 0h52v14h-52zm54 0h52v14h-52zm54 0h52v14h-52zm54 0h52v14h-52zm54 0h52v14h-52zm54 0h52v14h-52zm54 0h52v14h-52zm54 0h52v14h-52zm54 0h52v14h-52zm54 0h52v14h-52zm54 0h52v14h-52zm54 0h52v14h-52zm54 0h52v14h-52zm54 0h52v14h-52zm54 0h52v14h-52zm54 0h52v14h-52zm54 0h52v14h-52zm54 0h52v14h-52zm54 0h52v14h-52zm54 0h52v14h-52zm54 0h52v14h-52zm54 0h52v14h-52zm54 0h2v14h-2zM0 1041h52v14H0zm54 0h52v14H54zm54 0h52v14h-52zm54 0h52v14h-52zm54 0h52v14h-52zm54 0h52v14h-52zm54 0h52v14h-52zm54 0h52v14h-52zm54 0h52v14h-52zm54 0h52v14h-52zm54 0h52v14h-52zm54 0h52v14h-52zm54 0h52v14h-52zm54 0h52v14h-52zm54 0h52v14h-52zm54 0h52v14h-52zm54 0h52v14h-52zm54 0h52v14h-52zm54 0h52v14h-52zm54 0h52v14h-52zm54 0h52v14h-52zm54 0h52v14h-52zm54 0h52v14h-52zm54 0h52v14h-52zm54 0h52v14h-52zm54 0h52v14h-52zm54 0h52v14h-52zm54 0h52v14h-52zm54 0h52v14h-52zm54 0h52v14h-52zm54 0h52v14h-52zm54 0h52v14h-52zm54 0h52v14h-52zm54 0h52v14h-52zm54 0h52v14h-52zm54-.2h30v14h-30zM0 1057h26v14H0zm28 0h52v14H28zm54 0h52v14H82zm54 0h52v14h-52zm54 0h52v14h-52zm54 0h52v14h-52zm54 0h52v14h-52zm54 0h52v14h-52zm54 0h52v14h-52zm54 0h52v14h-52zm54 0h52v14h-52zm54 0h52v14h-52zm54 0h52v14h-52zm54 0h52v14h-52zm54 0h52v14h-52zm54 0h52v14h-52zm54 0h52v14h-52zm54 0h52v14h-52zm54 0h52v14h-52zm54 0h52v14h-52zm54 0h52v14h-52zm54 0h52v14h-52zm54 0h52v14h-52zm54 0h52v14h-52zm54 0h52v14h-52zm54 0h52v14h-52zm54 0h52v14h-52zm54 0h52v14h-52zm54 0h52v14h-52zm54 0h52v14h-52zm54 0h52v14h-52zm54 0h52v14h-52zm54 0h52v14h-52zm54 0h52v14h-52zm54 0h52v14h-52zm54 0h52v14h-52zm54 0h2v14h-2zM0 1073h52v14H0zm54 0h52v14H54zm54 0h52v14h-52zm54 0h52v14h-52zm54 0h52v14h-52zm54 0h52v14h-52zm54 0h52v14h-52zm54 0h52v14h-52zm54 0h52v14h-52zm54 0h52v14h-52zm54 0h52v14h-52zm54 0h52v14h-52zm54 0h52v14h-52zm54 0h52v14h-52zm54 0h52v14h-52zm54 0h52v14h-52zm54 0h52v14h-52zm54 0h52v14h-52zm54 0h52v14h-52zm54 0h52v14h-52zm54 0h52v14h-52zm54 0h52v14h-52zm54 0h52v14h-52zm54 0h52v14h-52zm54 0h52v14h-52zm54 0h52v14h-52zm54 0h52v14h-52zm54 0h52v14h-52zm54 0h52v14h-52zm54 0h52v14h-52zm54 0h52v14h-52zm54 0h52v14h-52zm54 0h52v14h-52zm54 0h52v14h-52zm54 0h52v14h-52zm54-.2h30v14h-30zM0 1089h26v14H0zm28 0h52v14H28zm54 0h52v14H82zm54 0h52v14h-52zm54 0h52v14h-52zm54 0h52v14h-52zm54 0h52v14h-52zm54 0h52v14h-52zm54 0h52v14h-52zm54 0h52v14h-52zm54 0h52v14h-52zm54 0h52v14h-52zm54 0h52v14h-52zm54 0h52v14h-52zm54 0h52v14h-52zm54 0h52v14h-52zm54 0h52v14h-52zm54 0h52v14h-52zm54 0h52v14h-52zm54 0h52v14h-52zm54 0h52v14h-52zm54 0h52v14h-52zm54 0h52v14h-52zm54 0h52v14h-52zm54 0h52v14h-52zm54 0h52v14h-52zm54 0h52v14h-52zm54 0h52v14h-52zm54 0h52v14h-52zm54 0h52v14h-52zm54 0h52v14h-52zm54 0h52v14h-52zm54 0h52v14h-52zm54 0h52v14h-52zm54 0h52v14h-52zm54 0h52v14h-52zm54 0h2v14h-2zM0 1105h52v14H0zm54 0h52v14H54zm54 0h52v14h-52zm54 0h52v14h-52zm54 0h52v14h-52zm54 0h52v14h-52zm54 0h52v14h-52zm54 0h52v14h-52zm54 0h52v14h-52zm54 0h52v14h-52zm54 0h52v14h-52zm54 0h52v14h-52zm54 0h52v14h-52zm54 0h52v14h-52zm54 0h52v14h-52zm54 0h52v14h-52zm54 0h52v14h-52zm54 0h52v14h-52zm54 0h52v14h-52zm54 0h52v14h-52zm54 0h52v14h-52zm54 0h52v14h-52zm54 0h52v14h-52zm54 0h52v14h-52zm54 0h52v14h-52zm54 0h52v14h-52zm54 0h52v14h-52zm54 0h52v14h-52zm54 0h52v14h-52zm54 0h52v14h-52zm54 0h52v14h-52zm54 0h52v14h-52zm54 0h52v14h-52zm54 0h52v14h-52zm54 0h52v14h-52zm54-.2h30v14h-30zM0 1121h26v14H0zm28 0h52v14H28zm54 0h52v14H82zm54 0h52v14h-52zm54 0h52v14h-52zm54 0h52v14h-52zm54 0h52v14h-52zm54 0h52v14h-52zm54 0h52v14h-52zm54 0h52v14h-52zm54 0h52v14h-52zm54 0h52v14h-52zm54 0h52v14h-52zm54 0h52v14h-52zm54 0h52v14h-52zm54 0h52v14h-52zm54 0h52v14h-52zm54 0h52v14h-52zm54 0h52v14h-52zm54 0h52v14h-52zm54 0h52v14h-52zm54 0h52v14h-52zm54 0h52v14h-52zm54 0h52v14h-52zm54 0h52v14h-52zm54 0h52v14h-52zm54 0h52v14h-52zm54 0h52v14h-52zm54 0h52v14h-52zm54 0h52v14h-52zm54 0h52v14h-52zm54 0h52v14h-52zm54 0h52v14h-52zm54 0h52v14h-52zm54 0h52v14h-52zm54 0h52v14h-52zm54 0h2v14h-2zM0 1137h52v14H0zm54 0h52v14H54zm54 0h52v14h-52zm54 0h52v14h-52zm54 0h52v14h-52zm54 0h52v14h-52zm54 0h52v14h-52zm54 0h52v14h-52zm54 0h52v14h-52zm54 0h52v14h-52zm54 0h52v14h-52zm54 0h52v14h-52zm54 0h52v14h-52zm54 0h52v14h-52zm54 0h52v14h-52zm54 0h52v14h-52zm54 0h52v14h-52zm54 0h52v14h-52zm54 0h52v14h-52zm54 0h52v14h-52zm54 0h52v14h-52zm54 0h52v14h-52zm54 0h52v14h-52zm54 0h52v14h-52zm54 0h52v14h-52zm54 0h52v14h-52zm54 0h52v14h-52zm54 0h52v14h-52zm54 0h52v14h-52zm54 0h52v14h-52zm54 0h52v14h-52zm54 0h52v14h-52zm54 0h52v14h-52zm54 0h52v14h-52zm54 0h52v14h-52zm54-.2h30v14h-30zM0 1153h26v14H0zm28 0h52v14H28zm54 0h52v14H82zm54 0h52v14h-52zm54 0h52v14h-52zm54 0h52v14h-52zm54 0h52v14h-52zm54 0h52v14h-52zm54 0h52v14h-52zm54 0h52v14h-52zm54 0h52v14h-52zm54 0h52v14h-52zm54 0h52v14h-52zm54 0h52v14h-52zm54 0h52v14h-52zm54 0h52v14h-52zm54 0h52v14h-52zm54 0h52v14h-52zm54 0h52v14h-52zm54 0h52v14h-52zm54 0h52v14h-52zm54 0h52v14h-52zm54 0h52v14h-52zm54 0h52v14h-52zm54 0h52v14h-52zm54 0h52v14h-52zm54 0h52v14h-52zm54 0h52v14h-52zm54 0h52v14h-52zm54 0h52v14h-52zm54 0h52v14h-52zm54 0h52v14h-52zm54 0h52v14h-52zm54 0h52v14h-52zm54 0h52v14h-52zm54 0h52v14h-52zm54 0h2v14h-2zM0 1169h52v14H0zm54 0h52v14H54zm54 0h52v14h-52zm54 0h52v14h-52zm54 0h52v14h-52zm54 0h52v14h-52zm54 0h52v14h-52zm54 0h52v14h-52zm54 0h52v14h-52zm54 0h52v14h-52zm54 0h52v14h-52zm54 0h52v14h-52zm54 0h52v14h-52zm54 0h52v14h-52zm54 0h52v14h-52zm54 0h52v14h-52zm54 0h52v14h-52zm54 0h52v14h-52zm54 0h52v14h-52zm54 0h52v14h-52zm54 0h52v14h-52zm54 0h52v14h-52zm54 0h52v14h-52zm54 0h52v14h-52zm54 0h52v14h-52zm54 0h52v14h-52zm54 0h52v14h-52zm54 0h52v14h-52zm54 0h52v14h-52zm54 0h52v14h-52zm54 0h52v14h-52zm54 0h52v14h-52zm54 0h52v14h-52zm54 0h52v14h-52zm54 0h52v14h-52zm54-.2h30v14h-30zM0 1185h26v14H0zm28 0h52v14H28zm54 0h52v14H82zm54 0h52v14h-52zm54 0h52v14h-52zm54 0h52v14h-52zm54 0h52v14h-52zm54 0h52v14h-52zm54 0h52v14h-52zm54 0h52v14h-52zm54 0h52v14h-52zm54 0h52v14h-52zm54 0h52v14h-52zm54 0h52v14h-52zm54 0h52v14h-52zm54 0h52v14h-52zm54 0h52v14h-52zm54 0h52v14h-52zm54 0h52v14h-52zm54 0h52v14h-52zm54 0h52v14h-52zm54 0h52v14h-52zm54 0h52v14h-52zm54 0h52v14h-52zm54 0h52v14h-52zm54 0h52v14h-52zm54 0h52v14h-52zm54 0h52v14h-52zm54 0h52v14h-52zm54 0h52v14h-52zm54 0h52v14h-52zm54 0h52v14h-52zm54 0h52v14h-52zm54 0h52v14h-52zm54 0h52v14h-52zm54 0h52v14h-52zm54 0h2v14h-2zM0 1201h52v14H0zm54 0h52v14H54zm54 0h52v14h-52zm54 0h52v14h-52zm54 0h52v14h-52zm54 0h52v14h-52zm54 0h52v14h-52zm54 0h52v14h-52zm54 0h52v14h-52zm54 0h52v14h-52zm54 0h52v14h-52zm54 0h52v14h-52zm54 0h52v14h-52zm54 0h52v14h-52zm54 0h52v14h-52zm54 0h52v14h-52zm54 0h52v14h-52zm54 0h52v14h-52zm54 0h52v14h-52zm54 0h52v14h-52zm54 0h52v14h-52zm54 0h52v14h-52zm54 0h52v14h-52zm54 0h52v14h-52zm54 0h52v14h-52zm54 0h52v14h-52zm54 0h52v14h-52zm54 0h52v14h-52zm54 0h52v14h-52zm54 0h52v14h-52zm54 0h52v14h-52zm54 0h52v14h-52zm54 0h52v14h-52zm54 0h52v14h-52zm54 0h52v14h-52zm54-.2h30v14h-30zM0 1217h26v14H0zm28 0h52v14H28zm54 0h52v14H82zm54 0h52v14h-52zm54 0h52v14h-52zm54 0h52v14h-52zm54 0h52v14h-52zm54 0h52v14h-52zm54 0h52v14h-52zm54 0h52v14h-52zm54 0h52v14h-52zm54 0h52v14h-52zm54 0h52v14h-52zm54 0h52v14h-52zm54 0h52v14h-52zm54 0h52v14h-52zm54 0h52v14h-52zm54 0h52v14h-52zm54 0h52v14h-52zm54 0h52v14h-52zm54 0h52v14h-52zm54 0h52v14h-52zm54 0h52v14h-52zm54 0h52v14h-52zm54 0h52v14h-52zm54 0h52v14h-52zm54 0h52v14h-52zm54 0h52v14h-52zm54 0h52v14h-52zm54 0h52v14h-52zm54 0h52v14h-52zm54 0h52v14h-52zm54 0h52v14h-52zm54 0h52v14h-52zm54 0h52v14h-52zm54 0h52v14h-52zm54 0h2v14h-2zM0 1233h52v14H0zm54 0h52v14H54zm54 0h52v14h-52zm54 0h52v14h-52zm54 0h52v14h-52zm54 0h52v14h-52zm54 0h52v14h-52zm54 0h52v14h-52zm54 0h52v14h-52zm54 0h52v14h-52zm54 0h52v14h-52zm54 0h52v14h-52zm54 0h52v14h-52zm54 0h52v14h-52zm54 0h52v14h-52zm54 0h52v14h-52zm54 0h52v14h-52zm54 0h52v14h-52zm54 0h52v14h-52zm54 0h52v14h-52zm54 0h52v14h-52zm54 0h52v14h-52zm54 0h52v14h-52zm54 0h52v14h-52zm54 0h52v14h-52zm54 0h52v14h-52zm54 0h52v14h-52zm54 0h52v14h-52zm54 0h52v14h-52zm54 0h52v14h-52zm54 0h52v14h-52zm54 0h52v14h-52zm54 0h52v14h-52zm54 0h52v14h-52zm54 0h52v14h-52zm54-.2h30v14h-30zM0 1249h26v14H0zm28 0h52v14H28zm54 0h52v14H82zm54 0h52v14h-52zm54 0h52v14h-52zm54 0h52v14h-52zm54 0h52v14h-52zm54 0h52v14h-52zm54 0h52v14h-52zm54 0h52v14h-52zm54 0h52v14h-52zm54 0h52v14h-52zm54 0h52v14h-52zm54 0h52v14h-52zm54 0h52v14h-52zm54 0h52v14h-52zm54 0h52v14h-52zm54 0h52v14h-52zm54 0h52v14h-52zm54 0h52v14h-52zm54 0h52v14h-52zm54 0h52v14h-52zm54 0h52v14h-52zm54 0h52v14h-52zm54 0h52v14h-52zm54 0h52v14h-52zm54 0h52v14h-52zm54 0h52v14h-52zm54 0h52v14h-52zm54 0h52v14h-52zm54 0h52v14h-52zm54 0h52v14h-52zm54 0h52v14h-52zm54 0h52v14h-52zm54 0h52v14h-52zm54 0h52v14h-52zm54 0h2v14h-2zM0 1265h52v14H0zm54 0h52v14H54zm54 0h52v14h-52zm54 0h52v14h-52zm54 0h52v14h-52zm54 0h52v14h-52zm54 0h52v14h-52zm54 0h52v14h-52zm54 0h52v14h-52zm54 0h52v14h-52zm54 0h52v14h-52zm54 0h52v14h-52zm54 0h52v14h-52zm54 0h52v14h-52zm54 0h52v14h-52zm54 0h52v14h-52zm54 0h52v14h-52zm54 0h52v14h-52zm54 0h52v14h-52zm54 0h52v14h-52zm54 0h52v14h-52zm54 0h52v14h-52zm54 0h52v14h-52zm54 0h52v14h-52zm54 0h52v14h-52zm54 0h52v14h-52zm54 0h52v14h-52zm54 0h52v14h-52zm54 0h52v14h-52zm54 0h52v14h-52zm54 0h52v14h-52zm54 0h52v14h-52zm54 0h52v14h-52zm54 0h52v14h-52zm54 0h52v14h-52zm54-.2h30v14h-30zM0 1281h26v14H0zm28 0h52v14H28zm54 0h52v14H82zm54 0h52v14h-52zm54 0h52v14h-52zm54 0h52v14h-52zm54 0h52v14h-52zm54 0h52v14h-52zm54 0h52v14h-52zm54 0h52v14h-52zm54 0h52v14h-52zm54 0h52v14h-52zm54 0h52v14h-52zm54 0h52v14h-52zm54 0h52v14h-52zm54 0h52v14h-52zm54 0h52v14h-52zm54 0h52v14h-52zm54 0h52v14h-52zm54 0h52v14h-52zm54 0h52v14h-52zm54 0h52v14h-52zm54 0h52v14h-52zm54 0h52v14h-52zm54 0h52v14h-52zm54 0h52v14h-52zm54 0h52v14h-52zm54 0h52v14h-52zm54 0h52v14h-52zm54 0h52v14h-52zm54 0h52v14h-52zm54 0h52v14h-52zm54 0h52v14h-52zm54 0h52v14h-52zm54 0h52v14h-52zm54 0h52v14h-52zm54 0h2v14h-2zM0 1297h52v14H0zm54 0h52v14H54zm54 0h52v14h-52zm54 0h52v14h-52zm54 0h52v14h-52zm54 0h52v14h-52zm54 0h52v14h-52zm54 0h52v14h-52zm54 0h52v14h-52zm54 0h52v14h-52zm54 0h52v14h-52zm54 0h52v14h-52zm54 0h52v14h-52zm54 0h52v14h-52zm54 0h52v14h-52zm54 0h52v14h-52zm54 0h52v14h-52zm54 0h52v14h-52zm54 0h52v14h-52zm54 0h52v14h-52zm54 0h52v14h-52zm54 0h52v14h-52zm54 0h52v14h-52zm54 0h52v14h-52zm54 0h52v14h-52zm54 0h52v14h-52zm54 0h52v14h-52zm54 0h52v14h-52zm54 0h52v14h-52zm54 0h52v14h-52zm54 0h52v14h-52zm54 0h52v14h-52zm54 0h52v14h-52zm54 0h52v14h-52zm54 0h52v14h-52zm54-.2h30v14h-30zM0 1313h26v14H0zm28 0h52v14H28zm54 0h52v14H82zm54 0h52v14h-52zm54 0h52v14h-52zm54 0h52v14h-52zm54 0h52v14h-52zm54 0h52v14h-52zm54 0h52v14h-52zm54 0h52v14h-52zm54 0h52v14h-52zm54 0h52v14h-52zm54 0h52v14h-52zm54 0h52v14h-52zm54 0h52v14h-52zm54 0h52v14h-52zm54 0h52v14h-52zm54 0h52v14h-52zm54 0h52v14h-52zm54 0h52v14h-52zm54 0h52v14h-52zm54 0h52v14h-52zm54 0h52v14h-52zm54 0h52v14h-52zm54 0h52v14h-52zm54 0h52v14h-52zm54 0h52v14h-52zm54 0h52v14h-52zm54 0h52v14h-52zm54 0h52v14h-52zm54 0h52v14h-52zm54 0h52v14h-52zm54 0h52v14h-52zm54 0h52v14h-52zm54 0h52v14h-52zm54 0h52v14h-52zm54 0h2v14h-2zM0 1329h52v14H0zm54 0h52v14H54zm54 0h52v14h-52zm54 0h52v14h-52zm54 0h52v14h-52zm54 0h52v14h-52zm54 0h52v14h-52zm54 0h52v14h-52zm54 0h52v14h-52zm54 0h52v14h-52zm54 0h52v14h-52zm54 0h52v14h-52zm54 0h52v14h-52zm54 0h52v14h-52zm54 0h52v14h-52zm54 0h52v14h-52zm54 0h52v14h-52zm54 0h52v14h-52zm54 0h52v14h-52zm54 0h52v14h-52zm54 0h52v14h-52zm54 0h52v14h-52zm54 0h52v14h-52zm54 0h52v14h-52zm54 0h52v14h-52zm54 0h52v14h-52zm54 0h52v14h-52zm54 0h52v14h-52zm54 0h52v14h-52zm54 0h52v14h-52zm54 0h52v14h-52zm54 0h52v14h-52zm54 0h52v14h-52zm54 0h52v14h-52zm54 0h52v14h-52zm54-.2h30v14h-30zM0 1345h26v14H0zm28 0h52v14H28zm54 0h52v14H82zm54 0h52v14h-52zm54 0h52v14h-52zm54 0h52v14h-52zm54 0h52v14h-52zm54 0h52v14h-52zm54 0h52v14h-52zm54 0h52v14h-52zm54 0h52v14h-52zm54 0h52v14h-52zm54 0h52v14h-52zm54 0h52v14h-52zm54 0h52v14h-52zm54 0h52v14h-52zm54 0h52v14h-52zm54 0h52v14h-52zm54 0h52v14h-52zm54 0h52v14h-52zm54 0h52v14h-52zm54 0h52v14h-52zm54 0h52v14h-52zm54 0h52v14h-52zm54 0h52v14h-52zm54 0h52v14h-52zm54 0h52v14h-52zm54 0h52v14h-52zm54 0h52v14h-52zm54 0h52v14h-52zm54 0h52v14h-52zm54 0h52v14h-52zm54 0h52v14h-52zm54 0h52v14h-52zm54 0h52v14h-52zm54 0h52v14h-52zm54 0h2v14h-2zM0 1361h52v14H0zm54 0h52v14H54zm54 0h52v14h-52zm54 0h52v14h-52zm54 0h52v14h-52zm54 0h52v14h-52zm54 0h52v14h-52zm54 0h52v14h-52zm54 0h52v14h-52zm54 0h52v14h-52zm54 0h52v14h-52zm54 0h52v14h-52zm54 0h52v14h-52zm54 0h52v14h-52zm54 0h52v14h-52zm54 0h52v14h-52zm54 0h52v14h-52zm54 0h52v14h-52zm54 0h52v14h-52zm54 0h52v14h-52zm54 0h52v14h-52zm54 0h52v14h-52zm54 0h52v14h-52zm54 0h52v14h-52zm54 0h52v14h-52zm54 0h52v14h-52zm54 0h52v14h-52zm54 0h52v14h-52zm54 0h52v14h-52zm54 0h52v14h-52zm54 0h52v14h-52zm54 0h52v14h-52zm54 0h52v14h-52zm54 0h52v14h-52zm54 0h52v14h-52zm54-.1h30v14h-30zM0 1377h26v14H0zm28 0h52v14H28zm54 0h52v14H82zm54 0h52v14h-52zm54 0h52v14h-52zm54 0h52v14h-52zm54 0h52v14h-52zm54 0h52v14h-52zm54 0h52v14h-52zm54 0h52v14h-52zm54 0h52v14h-52zm54 0h52v14h-52zm54 0h52v14h-52zm54 0h52v14h-52zm54 0h52v14h-52zm54 0h52v14h-52zm54 0h52v14h-52zm54 0h52v14h-52zm54 0h52v14h-52zm54 0h52v14h-52zm54 0h52v14h-52zm54 0h52v14h-52zm54 0h52v14h-52zm54 0h52v14h-52zm54 0h52v14h-52zm54 0h52v14h-52zm54 0h52v14h-52zm54 0h52v14h-52zm54 0h52v14h-52zm54 0h52v14h-52zm54 0h52v14h-52zm54 0h52v14h-52zm54 0h52v14h-52zm54 0h52v14h-52zm54 0h52v14h-52zm54 0h52v14h-52zm54 0h2v14h-2zM0 1393h52v14H0zm54 0h52v14H54zm54 0h52v14h-52zm54 0h52v14h-52zm54 0h52v14h-52zm54 0h52v14h-52zm54 0h52v14h-52zm54 0h52v14h-52zm54 0h52v14h-52zm54 0h52v14h-52zm54 0h52v14h-52zm54 0h52v14h-52zm54 0h52v14h-52zm54 0h52v14h-52zm54 0h52v14h-52zm54 0h52v14h-52zm54 0h52v14h-52zm54 0h52v14h-52zm54 0h52v14h-52zm54 0h52v14h-52zm54 0h52v14h-52zm54 0h52v14h-52zm54 0h52v14h-52zm54 0h52v14h-52zm54 0h52v14h-52zm54 0h52v14h-52zm54 0h52v14h-52zm54 0h52v14h-52zm54 0h52v14h-52zm54 0h52v14h-52zm54 0h52v14h-52zm54 0h52v14h-52zm54 0h52v14h-52zm54 0h52v14h-52zm54 0h52v14h-52zm54-.1h30v14h-30zM0 1409h26v14H0zm28 0h52v14H28zm54 0h52v14H82zm54 0h52v14h-52zm54 0h52v14h-52zm54 0h52v14h-52zm54 0h52v14h-52zm54 0h52v14h-52zm54 0h52v14h-52zm54 0h52v14h-52zm54 0h52v14h-52zm54 0h52v14h-52zm54 0h52v14h-52zm54 0h52v14h-52zm54 0h52v14h-52zm54 0h52v14h-52zm54 0h52v14h-52zm54 0h52v14h-52zm54 0h52v14h-52zm54 0h52v14h-52zm54 0h52v14h-52zm54 0h52v14h-52zm54 0h52v14h-52zm54 0h52v14h-52zm54 0h52v14h-52zm54 0h52v14h-52zm54 0h52v14h-52zm54 0h52v14h-52zm54 0h52v14h-52zm54 0h52v14h-52zm54 0h52v14h-52zm54 0h52v14h-52zm54 0h52v14h-52zm54 0h52v14h-52zm54 0h52v14h-52zm54 0h52v14h-52zm54 0h2v14h-2zM0 1425h52v14H0zm54 0h52v14H54zm54 0h52v14h-52zm54 0h52v14h-52zm54 0h52v14h-52zm54 0h52v14h-52zm54 0h52v14h-52zm54 0h52v14h-52zm54 0h52v14h-52zm54 0h52v14h-52zm54 0h52v14h-52zm54 0h52v14h-52zm54 0h52v14h-52zm54 0h52v14h-52zm54 0h52v14h-52zm54 0h52v14h-52zm54 0h52v14h-52zm54 0h52v14h-52zm54 0h52v14h-52zm54 0h52v14h-52zm54 0h52v14h-52zm54 0h52v14h-52zm54 0h52v14h-52zm54 0h52v14h-52zm54 0h52v14h-52zm54 0h52v14h-52zm54 0h52v14h-52zm54 0h52v14h-52zm54 0h52v14h-52zm54 0h52v14h-52zm54 0h52v14h-52zm54 0h52v14h-52zm54 0h52v14h-52zm54 0h52v14h-52zm54 0h52v14h-52zm54-.1h30v14h-30zM0 1441h26v14H0zm28 0h52v14H28zm54 0h52v14H82zm54 0h52v14h-52zm54 0h52v14h-52zm54 0h52v14h-52zm54 0h52v14h-52zm54 0h52v14h-52zm54 0h52v14h-52zm54 0h52v14h-52zm54 0h52v14h-52zm54 0h52v14h-52zm54 0h52v14h-52zm54 0h52v14h-52zm54 0h52v14h-52zm54 0h52v14h-52zm54 0h52v14h-52zm54 0h52v14h-52zm54 0h52v14h-52zm54 0h52v14h-52zm54 0h52v14h-52zm54 0h52v14h-52zm54 0h52v14h-52zm54 0h52v14h-52zm54 0h52v14h-52zm54 0h52v14h-52zm54 0h52v14h-52zm54 0h52v14h-52zm54 0h52v14h-52zm54 0h52v14h-52zm54 0h52v14h-52zm54 0h52v14h-52zm54 0h52v14h-52zm54 0h52v14h-52zm54 0h52v14h-52zm54 0h52v14h-52zm54 0h2v14h-2zM0 1457h52v14H0zm54 0h52v14H54zm54 0h52v14h-52zm54 0h52v14h-52zm54 0h52v14h-52zm54 0h52v14h-52zm54 0h52v14h-52zm54 0h52v14h-52zm54 0h52v14h-52zm54 0h52v14h-52zm54 0h52v14h-52zm54 0h52v14h-52zm54 0h52v14h-52zm54 0h52v14h-52zm54 0h52v14h-52zm54 0h52v14h-52zm54 0h52v14h-52zm54 0h52v14h-52zm54 0h52v14h-52zm54 0h52v14h-52zm54 0h52v14h-52zm54 0h52v14h-52zm54 0h52v14h-52zm54 0h52v14h-52zm54 0h52v14h-52zm54 0h52v14h-52zm54 0h52v14h-52zm54 0h52v14h-52zm54 0h52v14h-52zm54 0h52v14h-52zm54 0h52v14h-52zm54 0h52v14h-52zm54 0h52v14h-52zm54 0h52v14h-52zm54 0h52v14h-52zm54-.1h30v14h-30zM0 1473h26v14H0zm28 0h52v14H28zm54 0h52v14H82zm54 0h52v14h-52zm54 0h52v14h-52zm54 0h52v14h-52zm54 0h52v14h-52zm54 0h52v14h-52zm54 0h52v14h-52zm54 0h52v14h-52zm54 0h52v14h-52zm54 0h52v14h-52zm54 0h52v14h-52zm54 0h52v14h-52zm54 0h52v14h-52zm54 0h52v14h-52zm54 0h52v14h-52zm54 0h52v14h-52zm54 0h52v14h-52zm54 0h52v14h-52zm54 0h52v14h-52zm54 0h52v14h-52zm54 0h52v14h-52zm54 0h52v14h-52zm54 0h52v14h-52zm54 0h52v14h-52zm54 0h52v14h-52zm54 0h52v14h-52zm54 0h52v14h-52zm54 0h52v14h-52zm54 0h52v14h-52zm54 0h52v14h-52zm54 0h52v14h-52zm54 0h52v14h-52zm54 0h52v14h-52zm54 0h52v14h-52zm54 0h2v14h-2zM0 1489h52v14H0zm54 0h52v14H54zm54 0h52v14h-52zm54 0h52v14h-52zm54 0h52v14h-52zm54 0h52v14h-52zm54 0h52v14h-52zm54 0h52v14h-52zm54 0h52v14h-52zm54 0h52v14h-52zm54 0h52v14h-52zm54 0h52v14h-52zm54 0h52v14h-52zm54 0h52v14h-52zm54 0h52v14h-52zm54 0h52v14h-52zm54 0h52v14h-52zm54 0h52v14h-52zm54 0h52v14h-52zm54 0h52v14h-52zm54 0h52v14h-52zm54 0h52v14h-52zm54 0h52v14h-52zm54 0h52v14h-52zm54 0h52v14h-52zm54 0h52v14h-52zm54 0h52v14h-52zm54 0h52v14h-52zm54 0h52v14h-52zm54 0h52v14h-52zm54 0h52v14h-52zm54 0h52v14h-52zm54 0h52v14h-52zm54 0h52v14h-52zm54 0h52v14h-52zm54-.1h30v14h-30zM0 1505h26v14H0zm28 0h52v14H28zm54 0h52v14H82zm54 0h52v14h-52zm54 0h52v14h-52zm54 0h52v14h-52zm54 0h52v14h-52zm54 0h52v14h-52zm54 0h52v14h-52zm54 0h52v14h-52zm54 0h52v14h-52zm54 0h52v14h-52zm54 0h52v14h-52zm54 0h52v14h-52zm54 0h52v14h-52zm54 0h52v14h-52zm54 0h52v14h-52zm54 0h52v14h-52zm54 0h52v14h-52zm54 0h52v14h-52zm54 0h52v14h-52zm54 0h52v14h-52zm54 0h52v14h-52zm54 0h52v14h-52zm54 0h52v14h-52zm54 0h52v14h-52zm54 0h52v14h-52zm54 0h52v14h-52zm54 0h52v14h-52zm54 0h52v14h-52zm54 0h52v14h-52zm54 0h52v14h-52zm54 0h52v14h-52zm54 0h52v14h-52zm54 0h52v14h-52zm54 0h52v14h-52zm54 0h2v14h-2zM0 1521h52v14H0zm54 0h52v14H54zm54 0h52v14h-52zm54 0h52v14h-52zm54 0h52v14h-52zm54 0h52v14h-52zm54 0h52v14h-52zm54 0h52v14h-52zm54 0h52v14h-52zm54 0h52v14h-52zm54 0h52v14h-52zm54 0h52v14h-52zm54 0h52v14h-52zm54 0h52v14h-52zm54 0h52v14h-52zm54 0h52v14h-52zm54 0h52v14h-52zm54 0h52v14h-52zm54 0h52v14h-52zm54 0h52v14h-52zm54 0h52v14h-52zm54 0h52v14h-52zm54 0h52v14h-52zm54 0h52v14h-52zm54 0h52v14h-52zm54 0h52v14h-52zm54 0h52v14h-52zm54 0h52v14h-52zm54 0h52v14h-52zm54 0h52v14h-52zm54 0h52v14h-52zm54 0h52v14h-52zm54 0h52v14h-52zm54 0h52v14h-52zm54 0h52v14h-52zm54-.1h30v14h-30zM0 1537h26v14H0zm28 0h52v14H28zm54 0h52v14H82zm54 0h52v14h-52zm54 0h52v14h-52zm54 0h52v14h-52zm54 0h52v14h-52zm54 0h52v14h-52zm54 0h52v14h-52zm54 0h52v14h-52zm54 0h52v14h-52zm54 0h52v14h-52zm54 0h52v14h-52zm54 0h52v14h-52zm54 0h52v14h-52zm54 0h52v14h-52zm54 0h52v14h-52zm54 0h52v14h-52zm54 0h52v14h-52zm54 0h52v14h-52zm54 0h52v14h-52zm54 0h52v14h-52zm54 0h52v14h-52zm54 0h52v14h-52zm54 0h52v14h-52zm54 0h52v14h-52zm54 0h52v14h-52zm54 0h52v14h-52zm54 0h52v14h-52zm54 0h52v14h-52zm54 0h52v14h-52zm54 0h52v14h-52zm54 0h52v14h-52zm54 0h52v14h-52zm54 0h52v14h-52zm54 0h52v14h-52zm54 0h2v14h-2zM0 1553h52v14H0zm54 0h52v14H54zm54 0h52v14h-52zm54 0h52v14h-52zm54 0h52v14h-52zm54 0h52v14h-52zm54 0h52v14h-52zm54 0h52v14h-52zm54 0h52v14h-52zm54 0h52v14h-52zm54 0h52v14h-52zm54 0h52v14h-52zm54 0h52v14h-52zm54 0h52v14h-52zm54 0h52v14h-52zm54 0h52v14h-52zm54 0h52v14h-52zm54 0h52v14h-52zm54 0h52v14h-52zm54 0h52v14h-52zm54 0h52v14h-52zm54 0h52v14h-52zm54 0h52v14h-52zm54 0h52v14h-52zm54 0h52v14h-52zm54 0h52v14h-52zm54 0h52v14h-52zm54 0h52v14h-52zm54 0h52v14h-52zm54 0h52v14h-52zm54 0h52v14h-52zm54 0h52v14h-52zm54 0h52v14h-52zm54 0h52v14h-52zm54 0h52v14h-52zm54-.1h30v14h-30zM0 1569h26v14H0zm28 0h52v14H28zm54 0h52v14H82zm54 0h52v14h-52zm54 0h52v14h-52zm54 0h52v14h-52zm54 0h52v14h-52zm54 0h52v14h-52zm54 0h52v14h-52zm54 0h52v14h-52zm54 0h52v14h-52zm54 0h52v14h-52zm54 0h52v14h-52zm54 0h52v14h-52zm54 0h52v14h-52zm54 0h52v14h-52zm54 0h52v14h-52zm54 0h52v14h-52zm54 0h52v14h-52zm54 0h52v14h-52zm54 0h52v14h-52zm54 0h52v14h-52zm54 0h52v14h-52zm54 0h52v14h-52zm54 0h52v14h-52zm54 0h52v14h-52zm54 0h52v14h-52zm54 0h52v14h-52zm54 0h52v14h-52zm54 0h52v14h-52zm54 0h52v14h-52zm54 0h52v14h-52zm54 0h52v14h-52zm54 0h52v14h-52zm54 0h52v14h-52zm54 0h52v14h-52zm54 0h2v14h-2zM0 1585h52v14H0zm54 0h52v14H54zm54 0h52v14h-52zm54 0h52v14h-52zm54 0h52v14h-52zm54 0h52v14h-52zm54 0h52v14h-52zm54 0h52v14h-52zm54 0h52v14h-52zm54 0h52v14h-52zm54 0h52v14h-52zm54 0h52v14h-52zm54 0h52v14h-52zm54 0h52v14h-52zm54 0h52v14h-52zm54 0h52v14h-52zm54 0h52v14h-52zm54 0h52v14h-52zm54 0h52v14h-52zm54 0h52v14h-52zm54 0h52v14h-52zm54 0h52v14h-52zm54 0h52v14h-52zm54 0h52v14h-52zm54 0h52v14h-52zm54 0h52v14h-52zm54 0h52v14h-52zm54 0h52v14h-52zm54 0h52v14h-52zm54 0h52v14h-52zm54 0h52v14h-52zm54 0h52v14h-52zm54 0h52v14h-52zm54 0h52v14h-52zm54 0h52v14h-52zm54-.1h30v14h-30zM0 1601h26v14H0zm28 0h52v14H28zm54 0h52v14H82zm54 0h52v14h-52zm54 0h52v14h-52zm54 0h52v14h-52zm54 0h52v14h-52zm54 0h52v14h-52zm54 0h52v14h-52zm54 0h52v14h-52zm54 0h52v14h-52zm54 0h52v14h-52zm54 0h52v14h-52zm54 0h52v14h-52zm54 0h52v14h-52zm54 0h52v14h-52zm54 0h52v14h-52zm54 0h52v14h-52zm54 0h52v14h-52zm54 0h52v14h-52zm54 0h52v14h-52zm54 0h52v14h-52zm54 0h52v14h-52zm54 0h52v14h-52zm54 0h52v14h-52zm54 0h52v14h-52zm54 0h52v14h-52zm54 0h52v14h-52zm54 0h52v14h-52zm54 0h52v14h-52zm54 0h52v14h-52zm54 0h52v14h-52zm54 0h52v14h-52zm54 0h52v14h-52zm54 0h52v14h-52zm54 0h52v14h-52zm54 0h2v14h-2zM0 1617h52v14H0zm54 0h52v14H54zm54 0h52v14h-52zm54 0h52v14h-52zm54 0h52v14h-52zm54 0h52v14h-52zm54 0h52v14h-52zm54 0h52v14h-52zm54 0h52v14h-52zm54 0h52v14h-52zm54 0h52v14h-52zm54 0h52v14h-52zm54 0h52v14h-52zm54 0h52v14h-52zm54 0h52v14h-52zm54 0h52v14h-52zm54 0h52v14h-52zm54 0h52v14h-52zm54 0h52v14h-52zm54 0h52v14h-52zm54 0h52v14h-52zm54 0h52v14h-52zm54 0h52v14h-52zm54 0h52v14h-52zm54 0h52v14h-52zm54 0h52v14h-52zm54 0h52v14h-52zm54 0h52v14h-52zm54 0h52v14h-52zm54 0h52v14h-52zm54 0h52v14h-52zm54 0h52v14h-52zm54 0h52v14h-52zm54 0h52v14h-52zm54 0h52v14h-52zm54-.1h30v14h-30zM0 1633h26v14H0zm28 0h52v14H28zm54 0h52v14H82zm54 0h52v14h-52zm54 0h52v14h-52zm54 0h52v14h-52zm54 0h52v14h-52zm54 0h52v14h-52zm54 0h52v14h-52zm54 0h52v14h-52zm54 0h52v14h-52zm54 0h52v14h-52zm54 0h52v14h-52zm54 0h52v14h-52zm54 0h52v14h-52zm54 0h52v14h-52zm54 0h52v14h-52zm54 0h52v14h-52zm54 0h52v14h-52zm54 0h52v14h-52zm54 0h52v14h-52zm54 0h52v14h-52zm54 0h52v14h-52zm54 0h52v14h-52zm54 0h52v14h-52zm54 0h52v14h-52zm54 0h52v14h-52zm54 0h52v14h-52zm54 0h52v14h-52zm54 0h52v14h-52zm54 0h52v14h-52zm54 0h52v14h-52zm54 0h52v14h-52zm54 0h52v14h-52zm54 0h52v14h-52zm54 0h52v14h-52zm54 0h2v14h-2zM0 1649h52v14H0zm54 0h52v14H54zm54 0h52v14h-52zm54 0h52v14h-52zm54 0h52v14h-52zm54 0h52v14h-52zm54 0h52v14h-52zm54 0h52v14h-52zm54 0h52v14h-52zm54 0h52v14h-52zm54 0h52v14h-52zm54 0h52v14h-52zm54 0h52v14h-52zm54 0h52v14h-52zm54 0h52v14h-52zm54 0h52v14h-52zm54 0h52v14h-52zm54 0h52v14h-52zm54 0h52v14h-52zm54 0h52v14h-52zm54 0h52v14h-52zm54 0h52v14h-52zm54 0h52v14h-52zm54 0h52v14h-52zm54 0h52v14h-52zm54 0h52v14h-52zm54 0h52v14h-52zm54 0h52v14h-52zm54 0h52v14h-52zm54 0h52v14h-52zm54 0h52v14h-52zm54 0h52v14h-52zm54 0h52v14h-52zm54 0h52v14h-52zm54 0h52v14h-52zm54-.1h30v14h-30zM0 1665h26v14H0zm28 0h52v14H28zm54 0h52v14H82zm54 0h52v14h-52zm54 0h52v14h-52zm54 0h52v14h-52zm54 0h52v14h-52zm54 0h52v14h-52zm54 0h52v14h-52zm54 0h52v14h-52zm54 0h52v14h-52zm54 0h52v14h-52zm54 0h52v14h-52zm54 0h52v14h-52zm54 0h52v14h-52zm54 0h52v14h-52zm54 0h52v14h-52zm54 0h52v14h-52zm54 0h52v14h-52zm54 0h52v14h-52zm54 0h52v14h-52zm54 0h52v14h-52zm54 0h52v14h-52zm54 0h52v14h-52zm54 0h52v14h-52zm54 0h52v14h-52zm54 0h52v14h-52zm54 0h52v14h-52zm54 0h52v14h-52zm54 0h52v14h-52zm54 0h52v14h-52zm54 0h52v14h-52zm54 0h52v14h-52zm54 0h52v14h-52zm54 0h52v14h-52zm54 0h52v14h-52zm54 0h2v14h-2zM0 1681h52v14H0zm54 0h52v14H54zm54 0h52v14h-52zm54 0h52v14h-52zm54 0h52v14h-52zm54 0h52v14h-52zm54 0h52v14h-52zm54 0h52v14h-52zm54 0h52v14h-52zm54 0h52v14h-52zm54 0h52v14h-52zm54 0h52v14h-52zm54 0h52v14h-52zm54 0h52v14h-52zm54 0h52v14h-52zm54 0h52v14h-52zm54 0h52v14h-52zm54 0h52v14h-52zm54 0h52v14h-52zm54 0h52v14h-52zm54 0h52v14h-52zm54 0h52v14h-52zm54 0h52v14h-52zm54 0h52v14h-52zm54 0h52v14h-52zm54 0h52v14h-52zm54 0h52v14h-52zm54 0h52v14h-52zm54 0h52v14h-52zm54 0h52v14h-52zm54 0h52v14h-52zm54 0h52v14h-52zm54 0h52v14h-52zm54 0h52v14h-52zm54 0h52v14h-52zm54-.1h30v14h-30zM0 1697h26v14H0zm28 0h52v14H28zm54 0h52v14H82zm54 0h52v14h-52zm54 0h52v14h-52zm54 0h52v14h-52zm54 0h52v14h-52zm54 0h52v14h-52zm54 0h52v14h-52zm54 0h52v14h-52zm54 0h52v14h-52zm54 0h52v14h-52zm54 0h52v14h-52zm54 0h52v14h-52zm54 0h52v14h-52zm54 0h52v14h-52zm54 0h52v14h-52zm54 0h52v14h-52zm54 0h52v14h-52zm54 0h52v14h-52zm54 0h52v14h-52zm54 0h52v14h-52zm54 0h52v14h-52zm54 0h52v14h-52zm54 0h52v14h-52zm54 0h52v14h-52zm54 0h52v14h-52zm54 0h52v14h-52zm54 0h52v14h-52zm54 0h52v14h-52zm54 0h52v14h-52zm54 0h52v14h-52zm54 0h52v14h-52zm54 0h52v14h-52zm54 0h52v14h-52zm54 0h52v14h-52zm54 0h2v14h-2zM0 1713h52v14H0zm54 0h52v14H54zm54 0h52v14h-52zm54 0h52v14h-52zm54 0h52v14h-52zm54 0h52v14h-52zm54 0h52v14h-52zm54 0h52v14h-52zm54 0h52v14h-52zm54 0h52v14h-52zm54 0h52v14h-52zm54 0h52v14h-52zm54 0h52v14h-52zm54 0h52v14h-52zm54 0h52v14h-52zm54 0h52v14h-52zm54 0h52v14h-52zm54 0h52v14h-52zm54 0h52v14h-52zm54 0h52v14h-52zm54 0h52v14h-52zm54 0h52v14h-52zm54 0h52v14h-52zm54 0h52v14h-52zm54 0h52v14h-52zm54 0h52v14h-52zm54 0h52v14h-52zm54 0h52v14h-52zm54 0h52v14h-52zm54 0h52v14h-52zm54 0h52v14h-52zm54 0h52v14h-52zm54 0h52v14h-52zm54 0h52v14h-52zm54 0h52v14h-52zm54-.1h30v14h-30zM0 1729h26v14H0zm28 0h52v14H28zm54 0h52v14H82zm54 0h52v14h-52zm54 0h52v14h-52zm54 0h52v14h-52zm54 0h52v14h-52zm54 0h52v14h-52zm54 0h52v14h-52zm54 0h52v14h-52zm54 0h52v14h-52zm54 0h52v14h-52zm54 0h52v14h-52zm54 0h52v14h-52zm54 0h52v14h-52zm54 0h52v14h-52zm54 0h52v14h-52zm54 0h52v14h-52zm54 0h52v14h-52zm54 0h52v14h-52zm54 0h52v14h-52zm54 0h52v14h-52zm54 0h52v14h-52zm54 0h52v14h-52zm54 0h52v14h-52zm54 0h52v14h-52zm54 0h52v14h-52zm54 0h52v14h-52zm54 0h52v14h-52zm54 0h52v14h-52zm54 0h52v14h-52zm54 0h52v14h-52zm54 0h52v14h-52zm54 0h52v14h-52zm54 0h52v14h-52zm54 0h52v14h-52zm54 0h2v14h-2zM0 1745h52v14H0zm54 0h52v14H54zm54 0h52v14h-52zm54 0h52v14h-52zm54 0h52v14h-52zm54 0h52v14h-52zm54 0h52v14h-52zm54 0h52v14h-52zm54 0h52v14h-52zm54 0h52v14h-52zm54 0h52v14h-52zm54 0h52v14h-52zm54 0h52v14h-52zm54 0h52v14h-52zm54 0h52v14h-52zm54 0h52v14h-52zm54 0h52v14h-52zm54 0h52v14h-52zm54 0h52v14h-52zm54 0h52v14h-52zm54 0h52v14h-52zm54 0h52v14h-52zm54 0h52v14h-52zm54 0h52v14h-52zm54 0h52v14h-52zm54 0h52v14h-52zm54 0h52v14h-52zm54 0h52v14h-52zm54 0h52v14h-52zm54 0h52v14h-52zm54 0h52v14h-52zm54 0h52v14h-52zm54 0h52v14h-52zm54 0h52v14h-52zm54 0h52v14h-52zm54 0h30v14h-30zM0 1761h26v14H0zm28 0h52v14H28zm54 0h52v14H82zm54 0h52v14h-52zm54 0h52v14h-52zm54 0h52v14h-52zm54 0h52v14h-52zm54 0h52v14h-52zm54 0h52v14h-52zm54 0h52v14h-52zm54 0h52v14h-52zm54 0h52v14h-52zm54 0h52v14h-52zm54 0h52v14h-52zm54 0h52v14h-52zm54 0h52v14h-52zm54 0h52v14h-52zm54 0h52v14h-52zm54 0h52v14h-52zm54 0h52v14h-52zm54 0h52v14h-52zm54 0h52v14h-52zm54 0h52v14h-52zm54 0h52v14h-52zm54 0h52v14h-52zm54 0h52v14h-52zm54 0h52v14h-52zm54 0h52v14h-52zm54 0h52v14h-52zm54 0h52v14h-52zm54 0h52v14h-52zm54 0h52v14h-52zm54 0h52v14h-52zm54 0h52v14h-52zm54 0h52v14h-52zm54 0h52v14h-52zm54 0h2v14h-2zM0 1777h52v14H0zm54 0h52v14H54zm54 0h52v14h-52zm54 0h52v14h-52zm54 0h52v14h-52zm54 0h52v14h-52zm54 0h52v14h-52zm54 0h52v14h-52zm54 0h52v14h-52zm54 0h52v14h-52zm54 0h52v14h-52zm54 0h52v14h-52zm54 0h52v14h-52zm54 0h52v14h-52zm54 0h52v14h-52zm54 0h52v14h-52zm54 0h52v14h-52zm54 0h52v14h-52zm54 0h52v14h-52zm54 0h52v14h-52zm54 0h52v14h-52zm54 0h52v14h-52zm54 0h52v14h-52zm54 0h52v14h-52zm54 0h52v14h-52zm54 0h52v14h-52zm54 0h52v14h-52zm54 0h52v14h-52zm54 0h52v14h-52zm54 0h52v14h-52zm54 0h52v14h-52zm54 0h52v14h-52zm54 0h52v14h-52zm54 0h52v14h-52zm54 0h52v14h-52zm54 0h30v14h-30zM0 1793h26v14H0zm28 0h52v14H28zm54 0h52v14H82zm54 0h52v14h-52zm54 0h52v14h-52zm54 0h52v14h-52zm54 0h52v14h-52zm54 0h52v14h-52zm54 0h52v14h-52zm54 0h52v14h-52zm54 0h52v14h-52zm54 0h52v14h-52zm54 0h52v14h-52zm54 0h52v14h-52zm54 0h52v14h-52zm54 0h52v14h-52zm54 0h52v14h-52zm54 0h52v14h-52zm54 0h52v14h-52zm54 0h52v14h-52zm54 0h52v14h-52zm54 0h52v14h-52zm54 0h52v14h-52zm54 0h52v14h-52zm54 0h52v14h-52zm54 0h52v14h-52zm54 0h52v14h-52zm54 0h52v14h-52zm54 0h52v14h-52zm54 0h52v14h-52zm54 0h52v14h-52zm54 0h52v14h-52zm54 0h52v14h-52zm54 0h52v14h-52zm54 0h52v14h-52zm54 0h52v14h-52zm54 0h2v14h-2zM0 1809h52v14H0zm54 0h52v14H54zm54 0h52v14h-52zm54 0h52v14h-52zm54 0h52v14h-52zm54 0h52v14h-52zm54 0h52v14h-52zm54 0h52v14h-52zm54 0h52v14h-52zm54 0h52v14h-52zm54 0h52v14h-52zm54 0h52v14h-52zm54 0h52v14h-52zm54 0h52v14h-52zm54 0h52v14h-52zm54 0h52v14h-52zm54 0h52v14h-52zm54 0h52v14h-52zm54 0h52v14h-52zm54 0h52v14h-52zm54 0h52v14h-52zm54 0h52v14h-52zm54 0h52v14h-52zm54 0h52v14h-52zm54 0h52v14h-52zm54 0h52v14h-52zm54 0h52v14h-52zm54 0h52v14h-52zm54 0h52v14h-52zm54 0h52v14h-52zm54 0h52v14h-52zm54 0h52v14h-52zm54 0h52v14h-52zm54 0h52v14h-52zm54 0h52v14h-52zm54 0h30v14h-30zM0 1825h26v14H0zm28 0h52v14H28zm54 0h52v14H82zm54 0h52v14h-52zm54 0h52v14h-52zm54 0h52v14h-52zm54 0h52v14h-52zm54 0h52v14h-52zm54 0h52v14h-52zm54 0h52v14h-52zm54 0h52v14h-52zm54 0h52v14h-52zm54 0h52v14h-52zm54 0h52v14h-52zm54 0h52v14h-52zm54 0h52v14h-52zm54 0h52v14h-52zm54 0h52v14h-52zm54 0h52v14h-52zm54 0h52v14h-52zm54 0h52v14h-52zm54 0h52v14h-52zm54 0h52v14h-52zm54 0h52v14h-52zm54 0h52v14h-52zm54 0h52v14h-52zm54 0h52v14h-52zm54 0h52v14h-52zm54 0h52v14h-52zm54 0h52v14h-52zm54 0h52v14h-52zm54 0h52v14h-52zm54 0h52v14h-52zm54 0h52v14h-52zm54 0h52v14h-52zm54 0h52v14h-52zm54 0h2v14h-2zM0 1841h52v14H0zm54 0h52v14H54zm54 0h52v14h-52zm54 0h52v14h-52zm54 0h52v14h-52zm54 0h52v14h-52zm54 0h52v14h-52zm54 0h52v14h-52zm54 0h52v14h-52zm54 0h52v14h-52zm54 0h52v14h-52zm54 0h52v14h-52zm54 0h52v14h-52zm54 0h52v14h-52zm54 0h52v14h-52zm54 0h52v14h-52zm54 0h52v14h-52zm54 0h52v14h-52zm54 0h52v14h-52zm54 0h52v14h-52zm54 0h52v14h-52zm54 0h52v14h-52zm54 0h52v14h-52zm54 0h52v14h-52zm54 0h52v14h-52zm54 0h52v14h-52zm54 0h52v14h-52zm54 0h52v14h-52zm54 0h52v14h-52zm54 0h52v14h-52zm54 0h52v14h-52zm54 0h52v14h-52zm54 0h52v14h-52zm54 0h52v14h-52zm54 0h52v14h-52zm54 0h30v14h-30zM0 1857h26v14H0zm28 0h52v14H28zm54 0h52v14H82zm54 0h52v14h-52zm54 0h52v14h-52zm54 0h52v14h-52zm54 0h52v14h-52zm54 0h52v14h-52zm54 0h52v14h-52zm54 0h52v14h-52zm54 0h52v14h-52zm54 0h52v14h-52zm54 0h52v14h-52zm54 0h52v14h-52zm54 0h52v14h-52zm54 0h52v14h-52zm54 0h52v14h-52zm54 0h52v14h-52zm54 0h52v14h-52zm54 0h52v14h-52zm54 0h52v14h-52zm54 0h52v14h-52zm54 0h52v14h-52zm54 0h52v14h-52zm54 0h52v14h-52zm54 0h52v14h-52zm54 0h52v14h-52zm54 0h52v14h-52zm54 0h52v14h-52zm54 0h52v14h-52zm54 0h52v14h-52zm54 0h52v14h-52zm54 0h52v14h-52zm54 0h52v14h-52zm54 0h52v14h-52zm54 0h52v14h-52zm54 0h2v14h-2zM0 1873h52v14H0zm54 0h52v14H54zm54 0h52v14h-52zm54 0h52v14h-52zm54 0h52v14h-52zm54 0h52v14h-52zm54 0h52v14h-52zm54 0h52v14h-52zm54 0h52v14h-52zm54 0h52v14h-52zm54 0h52v14h-52zm54 0h52v14h-52zm54 0h52v14h-52zm54 0h52v14h-52zm54 0h52v14h-52zm54 0h52v14h-52zm54 0h52v14h-52zm54 0h52v14h-52zm54 0h52v14h-52zm54 0h52v14h-52zm54 0h52v14h-52zm54 0h52v14h-52zm54 0h52v14h-52zm54 0h52v14h-52zm54 0h52v14h-52zm54 0h52v14h-52zm54 0h52v14h-52zm54 0h52v14h-52zm54 0h52v14h-52zm54 0h52v14h-52zm54 0h52v14h-52zm54 0h52v14h-52zm54 0h52v14h-52zm54 0h52v14h-52zm54 0h52v14h-52zm54 0h30v14h-30zM0 1889h26v14H0zm28 0h52v14H28zm54 0h52v14H82zm54 0h52v14h-52zm54 0h52v14h-52zm54 0h52v14h-52zm54 0h52v14h-52zm54 0h52v14h-52zm54 0h52v14h-52zm54 0h52v14h-52zm54 0h52v14h-52zm54 0h52v14h-52zm54 0h52v14h-52zm54 0h52v14h-52zm54 0h52v14h-52zm54 0h52v14h-52zm54 0h52v14h-52zm54 0h52v14h-52zm54 0h52v14h-52zm54 0h52v14h-52zm54 0h52v14h-52zm54 0h52v14h-52zm54 0h52v14h-52zm54 0h52v14h-52zm54 0h52v14h-52zm54 0h52v14h-52zm54 0h52v14h-52zm54 0h52v14h-52zm54 0h52v14h-52zm54 0h52v14h-52zm54 0h52v14h-52zm54 0h52v14h-52zm54 0h52v14h-52zm54 0h52v14h-52zm54 0h52v14h-52zm54 0h52v14h-52zm54 0h2v14h-2zM0 1905h52v14H0zm54 0h52v14H54zm54 0h52v14h-52zm54 0h52v14h-52zm54 0h52v14h-52zm54 0h52v14h-52zm54 0h52v14h-52zm54 0h52v14h-52zm54 0h52v14h-52zm54 0h52v14h-52zm54 0h52v14h-52zm54 0h52v14h-52zm54 0h52v14h-52zm54 0h52v14h-52zm54 0h52v14h-52zm54 0h52v14h-52zm54 0h52v14h-52zm54 0h52v14h-52zm54 0h52v14h-52zm54 0h52v14h-52zm54 0h52v14h-52zm54 0h52v14h-52zm54 0h52v14h-52zm54 0h52v14h-52zm54 0h52v14h-52zm54 0h52v14h-52zm54 0h52v14h-52zm54 0h52v14h-52zm54 0h52v14h-52zm54 0h52v14h-52zm54 0h52v14h-52zm54 0h52v14h-52zm54 0h52v14h-52zm54 0h52v14h-52zm54 0h52v14h-52zm54 0h30v14h-30z" fill="#a18267"/></svg>