<svg version="1.1" xmlns="http://www.w3.org/2000/svg" x="0" y="0" viewBox="0 0 1920 1920" xml:space="preserve"><path fill="#36434f" d="M0 0h1920v1920H0z"/><path d="M1491.8 722.7c-8.4-18.4-17.6-36.8-27.8-54.2l11.4-6.6c10.4 17.8 20 36.4 28.4 55.4l-12 5.4zm2.4 166.4c-3-23.2-7.6-46.4-13.8-69l-12.6 3.4c6 22 10.4 44.8 13.4 67.4l13-1.8zm-43.2-213l-11.4 6.6c9.6 16.6 18.6 34 26.4 51.6l12-5.4c-8-18-17.2-35.8-27-52.8zm-83-170.4c6.6 5.8 13 12 19.2 18.2 24.4 23.8 46.8 49.6 66.6 77l10.6-7.8c-17.8-24.6-37.8-47.8-59.2-69.6-9.2-9.4-18.8-18.6-28.6-27.4l-8.6 9.6zM902.8 1510.9l-1.4 13c19.4 2 39.2 3 58.6 3 60 0 119.2-9.4 175.8-27.8l-4-12.4c-55.2 18-113 27.2-171.6 27.2-19.2 0-38.6-1-57.4-3zm484-1026.2c7 6.2 13.6 12.6 20.4 19.2 25.4 24.8 48.8 51.8 69.6 80.2l10.6-7.8c-18.8-25.8-39.6-50.2-62-73-9.8-9.6-19.6-19.2-29.8-28.4l-8.8 9.8zm27.8-30.8l-8.8 9.8c7.2 6.6 14.4 13.2 21.4 20.2 26.4 25.8 50.8 53.8 72.4 83.6l10.6-7.8c-19.6-26.8-41.4-52.4-65-76.4-10-10.2-20.2-20-30.6-29.4zM895.4 1580.3c21.4 2.2 43.2 3.4 64.6 3.4 66 0 131-10.2 193.2-30.4l-4-12.4c-60.8 19.8-124.4 29.8-189 29.8-21 0-42.4-1-63.2-3.2l-1.6 12.8zM1349 526.7c6.2 5.6 12.2 11.2 18.2 17.2 23.2 22.8 44.8 47.4 63.8 73.6l10.6-7.8c-17-23.4-35.8-45.4-56.2-66.2-9-9.2-18.2-18-27.6-26.6l-8.8 9.8zM898.4 1552.1c20.4 2 41 3.2 61.6 3.2 63 0 125-9.8 184.4-29.2l-4-12.4c-58 19-118.8 28.4-180.4 28.4-20.2 0-40.4-1-60.2-3l-1.4 13zm419.2-227.8l6.6-6.6 1.2-1.2c14.2-14.6 27.6-30 40-46.2l-10.4-8.2c-12.4 16.2-25.8 31.6-40 46.2l-6.4 6.4-1.4 1.4c-45 44-98.2 79-156.4 103.2l5 12.2c60.4-25 115.2-61.6 161.8-107.2zm96.4-364.8zm28.2.4v-.4l-13.2.4c0 82.2-21.6 163.2-62.4 234l11.4 6.6c42-72.8 64.2-156 64.2-240.6zm-28.2-.4l-13.2.4c0 77.2-20.2 153.4-58.6 219.8l11.4 6.6c39.6-68.6 60.4-146.8 60.4-226.4v-.4zm52.2-66.8c-2.8-22-7.2-44-13-65.4l-12.6 3.4c5.6 20.8 9.8 42.4 12.6 63.8l13-1.8zM633.8 395.5l6.6 11.4c19.2-11.2 39.2-21.4 59.4-30.4l-5.4-12c-20.6 9.2-41 19.6-60.6 31zm-14.2-24.6l6.6 11.4c20-11.6 41-22.4 62.2-31.8l-5.4-12c-21.6 9.6-42.8 20.6-63.4 32.4zm28.2 49l6.6 11.4c18.4-10.6 37.6-20.4 56.8-29l-5.4-12c-19.6 8.8-39.2 18.8-58 29.6zM449.6 960.5l13.2-.6c0-87.2 22.8-173 66.2-248.2l-11.4-6.6c-44.4 77-68 165.2-68 254.6v.8zm212.4-516l6.6 11.4c17.4-10.2 35.8-19.4 54.2-27.8l-5.4-12c-18.8 8.4-37.6 18-55.4 28.4zm-118.4 90.2c-9.2 9-18 18.2-26.6 27.6l9.8 8.8c5.6-6.2 11.2-12.2 17.2-18.2 22.8-23.2 47.4-44.8 73.6-63.8l-7.8-10.6c-23.4 17-45.4 35.8-66.2 56.2zm-5.6 46.4l9.8 8.8c5.2-5.8 10.6-11.6 16.2-17.2 21.8-22.2 45.2-42.8 70.2-61l-7.8-10.6c-22.2 16.4-43.2 34.2-62.8 53.4-8.8 8.6-17.4 17.4-25.6 26.6zm45.6-6.6c-2.8 2.6-5.4 5.4-8.2 8.2l-.8.8c-15 15.4-29.4 31.8-42.6 49l10.4 8c13-17 27-33.2 42-48.4 49.4-50.4 108.6-90.6 174-117.8l-5-12.2c-63.2 26.4-121 64.6-169.8 112.4zm709-73.8c-64.8-47-137.4-79.2-215.4-95.6l-2.6 12.8c76.2 16 147 47.4 210.4 93.4l7.6-10.6zm-616.4-31.8l6.6 11.4c16.6-9.6 34-18.6 51.6-26.4l-5.4-12c-18 8-35.8 17.2-52.8 27zm283.2-47.8l.6 13.2c92.2 0 182.8 24.2 262.2 70l6.6-11.4c-81.4-47-174.4-71.8-268.8-71.8h-.6zm132.8-86.2c88 18.6 169.6 54.8 242.6 107.8l7.8-10.6c-74.6-54.2-157.8-91.2-247.6-110l-2.8 12.8zM1330 547.7c5.8 5.2 11.6 10.6 17.2 16.2 22.2 21.8 42.8 45.2 61 70.2l10.6-7.8c-16.2-22.2-34-43.2-53.2-62.8-8.6-8.8-17.4-17.4-26.6-25.6l-9 9.8zM758.2 339.9l4 12.4c63.6-20.8 130.2-31.2 197.8-31.2 22 0 44.4 1.2 66.2 3.4l1.4-13c-22.4-2.2-45-3.4-67.6-3.4-69 0-137 10.6-201.8 31.8zm537.6 678.8l-13-2.2c-3.2 18.8-8.2 37.2-14.6 55.2l12.4 4.4c6.6-18.6 11.8-38 15.2-57.4zm-656.2 176.2c4.8 6.6 9.8 12.8 15 19 .2.4.6.6.8 1 .2.2.2.4.4.4 6 7.2 12.2 14 18.8 20.6.2.6.6 1 1 1.4 1.2 1.2 2.2 2.4 3.4 3.4 24.6 24.6 52.2 46 82.8 63.6l6.6-11.4c-30.8-17.8-58.6-39.6-83-64.6-7-7-13.6-14.4-20-22l-.2-.2c-1-1-1.8-2.2-2.6-3.2l-2.4-3c-1-1.4-2.2-2.8-3.2-4l-1.8-2.4c-.8-1-1.6-2.2-2.4-3.2-.6-.8-1.2-1.6-1.8-2.2-.2-.4-.4-.6-.8-1-48-65.4-74.2-145-74.4-226.8h-13.2c0 82.2 25.8 162.2 72.8 228.8 1.4 2 2.8 4 4.2 5.8zm739.8-161.6l-13-2.2c-4.2 23.6-10.4 47-18.4 69.4l12.4 4.4c8.2-23.2 14.6-47.2 19-71.6zM540.6 886.5l13 2.2c4.2-23.6 10.4-47 18.4-69.4l-12.4-4.4c-8.2 23.2-14.6 47.2-19 71.6zm702.8 427.8c1.8-1.4 3.4-2.8 5.2-4.2l.2-.2.6-.6c9.2-7.6 18.2-15.6 26.8-24l.4-.4 2.2-2.2 5.4-5.4 1.2-1.2c12.4-12.8 24.2-26.2 35-40.4l-10.2-8c-10.8 14.2-22.6 27.6-35 40.2-1.8 1.8-3.6 3.8-5.6 5.6l-2 2c-40 39-87 70.2-138.6 91.6l5 12.2c39.4-16.4 76.2-38.4 109.4-65zm95.2-288.2c-3.8 22-9.6 43.8-17.2 64.6l12.4 4.4c7.8-21.6 13.8-44.2 17.8-67l-13-2zM581.4 893.7c3.8-22 9.6-43.8 17.2-64.6l-12.4-4.4c-7.8 21.6-13.8 44.2-17.8 67l13 2zm379.2 576.6l-.6-13.2c-87.2 0-173-22.8-248.2-66.2l-6.6 11.4c77 44.4 165.2 68 254.6 68h.8zm247.2-200c.4-.2.8-.6 1.2-.8.2-.2.4-.2.6-.4.6-.6 1.4-1.2 2-1.8l3.6-3c.2 0 .2-.2.4-.2 7.2-6 14-12.2 20.6-18.6 26.4-25.6 49.6-55 68.2-87.4l-11.4-6.6c-13.4 23.2-29 44.8-46.8 64.4-12.8 14.2-26.4 27.4-41.2 39.8-.6.4-1.2 1-1.8 1.4-.8.6-1.6 1.4-2.6 2-.6.4-1 .8-1.6 1.2-67.6 53.8-152 83.6-238.8 83.6v13.2c89.6 0 176.8-30.6 246.8-86.2.2-.2.6-.4.8-.6zM421.2 959.9v.6l13.2-.6c0-92.2 24.2-182.8 70-262.2l-11.4-6.6c-47 81.4-71.8 174.4-71.8 268.8zm202.4-345.6c-2.8 2.8-5.8 5.6-8.6 8.6l-.6.6c-13.4 13.6-25.8 28.2-37.6 43.4l10.6 8c11.4-15 23.8-29.2 36.8-42.6 44.2-45.4 97.2-81.4 155.8-105.8l-5-12.2c-56.4 23.4-107.8 57.4-151.4 100zm566.4 634.6c.4-.4.8-.8 1.4-1 1.2-.8 2.2-1.8 3.2-2.6.8-.6 1.6-1.2 2.4-2 .2 0 .2-.2.4-.2 6.4-5.4 12.8-11.2 18.8-17l.4-.4 4-4 5.4-5.4c1-1 2-2.2 3-3.2l6-6.6.6-.6c16.6-18.8 31.6-39.2 44.2-61.2l-11.2-7.2c-12.4 21.4-26.8 41.2-43 59.4-1.6 1.8-3.4 3.8-5.2 5.6-1.2 1.4-2.4 2.6-3.8 4-1.6 1.8-3.4 3.4-5.2 5.2-1.4 1.4-2.8 2.8-4.2 4-6.2 6-12.6 11.8-19.2 17.4-1.8 1.6-3.6 3-5.4 4.6l-.4.4c-.6.4-1.2 1-1.8 1.4-62.4 49.4-140.2 76.4-220.2 76.6v13.2c83 0 163.8-28.2 228.6-79.6.4-.2.8-.6 1.2-.8zm133.6-225.4l-13-2.2c-3.6 20.4-8.8 40.6-16 60l12.4 4.4c7.4-20.2 13-41 16.6-62.2zM683 600.3l-.2.2-2.4 1.8c-2.8 2.2-5.6 4.4-8.4 6.8-1 .8-2 1.8-3.2 2.6-2.8 2.2-5.4 4.6-8.2 7-.2.2-.6.4-.8.6-5.4 4.8-10.8 9.8-16.2 15l-.4.4-2.2 2.2-5.4 5.4-1.2 1.2c-12.4 12.8-24.2 26.2-35 40.4l10.4 8.2c10.8-14.2 22.6-27.6 35-40.2 1.8-1.8 3.6-3.8 5.6-5.6l2-2c40-39 87-70.2 138.6-91.6l-5-12.2c-37 15.4-71.6 35.6-103 59.8zm566.8 131.2c-2.4-3-4.8-6-7.4-9-.2-.2-.4-.4-.4-.6-1.4-1.8-2.8-3.4-4.4-5l-.2-.2c-1.6-2-3.4-3.8-5-5.6l-.4-.4c-1.6-1.8-3.4-3.6-5-5.4-.2-.2-.4-.4-.4-.6l-1.2-1.2-.2-.2c-1.2-1.2-2.4-2.6-3.8-3.8l-.4-.4c-.4-.4-.8-.6-1-1-22.6-22.4-48-42-76-58.2l-6.6 11.4c29 16.8 55.4 37.4 78.4 61.2l1.2 1.2.4.4c1.6 1.8 3.4 3.6 5 5.4 9.2 10 17.6 20.4 25.6 31.4 43.8 60.4 67.6 133.4 67.6 208.4l13.4.2c0-82.8-28.2-163.2-79.2-228zm46.6 574c2.8-2.8 5.8-5.6 8.6-8.6l.6-.6c13.4-13.6 25.8-28.2 37.6-43.4l-10.6-8c-11.4 15-23.8 29.2-36.8 42.6-44.2 45.4-97.2 81.4-155.8 105.8l5 12.2c56.4-23.4 107.8-57.4 151.4-100zm-842.6-278.4c2.8 22 7.2 44 13 65.4l12.6-3.4c-5.6-20.8-9.8-42.4-12.6-63.8l-13 1.8zm204 327.8c-16.2-12.4-31.6-25.8-46.2-40l-6.4-6.4-1.4-1.4c-44-45-79-98.2-103.2-156.4l-12.2 5c25 60.4 61.6 115.2 107.2 161.8l6.6 6.6 1.2 1.2c14.6 14.2 30 27.6 46.2 40l8.2-10.4zM482 1023.3c2.8 20.8 6.8 41.6 12.2 61.8l12.6-3.4c-5.2-19.6-9.2-40-12-60.2l-12.8 1.8zm-4.2-63.4v.4l13.2-.4c0-82.2 21.6-163.2 62.4-234l-11.4-6.6c-42 72.8-64.2 156-64.2 240.6zm276.4 357.6c-33.2-19.2-63.4-42.8-89.8-70-7.2-7.4-14-14.8-20.6-22.8-1.4-1.8-2.8-3.4-4.2-5.2-.4-.6-1-1.2-1.4-1.8-1.6-2-3.2-4-4.6-6-.2-.4-.6-.6-.8-1-3.8-5-7.6-10-11-15.2-48-68.8-74-151-74-235.4h-13.2c0 86.4 26.6 170.6 75.2 241.2.2.4.4.6.8 1 1.4 2 2.8 4.2 4.4 6.2.6.8 1 1.4 1.6 2.2 4.2 5.6 8.4 11.2 12.8 16.8.8 1 1.8 2 2.6 3.2l2.4 3c6.6 7.8 13.4 15.2 20.4 22.6l.6.6c1.2 1.2 2.4 2.6 3.6 3.8 26.4 26.4 56 49.4 88.8 68.2l6.4-11.4zm-79.2 15c-15-11.4-29.2-23.8-42.6-36.8-45.4-44.2-81.4-97.2-105.8-155.8l-12.2 5c23.4 56.4 57.4 107.8 100 151.4 2.8 2.8 5.6 5.8 8.6 8.6l.6.6c13.6 13.4 28.2 25.8 43.4 37.6l8-10.6zm17.2-22.4c-14.2-10.8-27.6-22.6-40.2-35-1.8-1.8-3.8-3.6-5.6-5.6l-2-2c-16.8-17.2-32.2-35.8-46-55.6-.2-.4-.4-.6-.6-1-17.8-25.6-33-53.2-45-82l-12.2 5c13 31.6 29.8 61.4 49.6 89 .6.8 1.2 1.8 1.8 2.6l3.6 4.8c1 1.4 2.2 3 3.2 4.4.2.4.6.8.8 1 .8 1 1.4 1.8 2.2 2.8 2.4 3 4.6 6 7 8.8.8 1 1.6 2 2.6 3 2.4 2.8 4.6 5.6 7 8.2 1 1.2 2 2.4 3.2 3.4 2.2 2.6 4.4 5 6.8 7.4 1.2 1.4 2.6 2.8 4 4.2 2 2.2 4.2 4.4 6.2 6.4l3.8 3.8 1.2 1.2c12.8 12.4 26.2 24.2 40.4 35l8.2-9.8zm267.2-860.6l.6 13.2c87.2 0 173 22.8 248.2 66.2l6.6-11.4c-77-44.4-165.2-68-254.6-68h-.8zm62.2-81.8c-20.4-2-41-3.2-61.6-3.2-63 0-125 9.8-184.4 29.2l4 12.4c58-19 118.8-28.4 180.4-28.4 20.2 0 40.4 1 60.2 3l1.4-13zm3-28.2c-21.4-2.2-43.2-3.4-64.6-3.4-66 0-131 10.2-193.2 30.4l4 12.4c60.8-19.8 124.4-29.8 189-29.8 21 0 42.4 1 63.2 3.2l1.6-12.8zm-7.4 69.4l1.4-13c-19.4-2-39.2-3-58.6-3-60 0-119.2 9.4-175.8 27.8l4 12.4c55.2-18 113-27.2 171.6-27.2 19.2 0 38.6 1 57.4 3zM506 960.3l13.2-.4c0-77.2 20.2-153.4 58.6-219.8l-11.4-6.6C527 802.1 506 880.3 506 959.9v.4zm96.4-364.8l-6.6 6.6-1.2 1.2c-14.2 14.6-27.6 30-40 46.2l10.4 8.2c12.4-16.2 25.8-31.6 40-46.2l6.4-6.4 1.4-1.4c45-44 98.2-79 156.4-103.2l-5-12.2c-60.4 25-115.2 61.6-161.8 107.2zm-80.8 482.2l12.6-3.4c-5-18.4-8.8-37.4-11.2-56.6l-13 1.6c2.6 19.8 6.4 39.4 11.6 58.4zm1021 5.4l-12.8-2.6c-16.8 80.2-50 154.6-98.2 221.2l10.6 7.8c49.4-68.4 83.2-144.4 100.4-226.4zM382.4 1293.7c-11.6-20-22.4-41-31.8-62.2l-12 5.4c9.6 21.6 20.6 42.8 32.4 63.4l11.4-6.6zM294 717.9l12.4 4.4c6.8-19 14.6-37.8 23.2-56l-11.8-5.6c-8.8 18.8-16.8 38-23.8 57.2zm-14.2 242c0 72 11.2 142.8 33.2 210.6l12.4-4c-21.6-66.4-32.6-136-32.6-206.6 0-23.2 1.2-46.4 3.6-69.2l-13-1.4c-2.4 23.2-3.6 47-3.6 70.6zm-17.6 123.2c14.4 81.6 42.6 159.4 84.2 231.2l11.4-6.6c-40.8-70.4-68.6-146.8-82.6-226.8l-13 2.2zm165.2 323.8c-13-15.4-25.4-31.6-37-48l-10.8 7.6c11.8 16.8 24.4 33.2 37.6 49l10.2-8.6zm185.2 155.4c-51.2-29.6-98-65.2-140-106.4l-1.6-1.6c-2.4-2.4-4.8-4.6-7-7l-9.2 9.2 4.4 4.4c1 1 2 1.8 2.8 2.8 43 42.6 91.4 79.6 144 110l6.6-11.4zm-189.4-57.4c46.4 45.6 98.2 85.2 154.8 118l6.6-11.4c-55.4-32-106.2-70.8-151.8-115.6l-.6-.6c-2.6-2.6-5.4-5.2-8-8l-9.2 9.2 4.4 4.4c1 1.4 2.4 2.6 3.8 4zm175.4 82c-53.4-30.8-102.2-68-145.8-111l-1.4-1.4-7.2-7.2-9.2 9.2 4.4 4.4c.8 1 1.8 2 2.8 3 44.8 44.4 95 82.6 149.8 114.4l6.6-11.4zM377.4 836.7l12.8 2.6c16.8-80.2 50-154.6 98.2-221.2l-10.6-7.8c-49.4 68.4-83.2 144.4-100.4 226.4zm-27.6-5.8l12.8 2.8c17.6-84 52.4-162 103-231.8l-10.6-7.8c-51.8 71.2-87.2 150.8-105.2 236.8zm68.2 14.4c16-76.2 47.4-147 93.4-210.4l-10.6-7.8c-47 64.8-79.2 137.4-95.6 215.4l12.8 2.8zm-95.8-20.4l12.8 2.8c18.6-88 54.8-169.6 107.8-242.6l-10.6-7.8c-54.2 74.6-91.2 157.8-110 247.6zm-15-3.2c19.4-91.8 57.2-177.2 112.6-253.4l-10.6-7.8c-56.4 77.8-95.2 164.8-114.8 258.4l12.8 2.8zm158.4-350.6c2.4-2.4 4.6-4.8 7-7l-9.2-9.2-4.4 4.4c-1 1-1.8 2-2.8 2.8-42.6 43-79.6 91.4-110 144l11.4 6.6c29.4-51.4 65.2-98.2 106.4-140l1.6-1.6zm331 772.8c-26.8-15.4-51-34.4-72.2-56.4-5.2-5.4-10.4-11-15.2-16.8-3.4-4-6.8-8.2-10-12.4-43-56.6-66.8-126.4-66.8-198h-13.2c0 73.6 24 145.2 68 203.8.2.4.6.6.8 1 2.2 3 4.4 5.8 6.8 8.6 0 .2.2.2.2.4 1.4 1.8 2.8 3.4 4.2 5 5 5.8 10 11.6 15.4 17l2.6 2.6 2.4 2.4c21 20.8 44.6 39.2 70.6 54.2l6.4-11.4zm657.8 204.8c-2.4 2.4-4.6 4.8-7 7l9.2 9.2 4.4-4.4c1-1 1.8-2 2.8-3 42.6-43 79.6-91.4 110-144l-11.4-6.6c-29.4 51.6-65.2 98.4-106.4 140.2l-1.6 1.6zm143.4-353.8l-12.8-2.8c-18.6 88-54.8 169.6-107.8 242.6l10.6 7.8c54.2-74.6 91.2-157.8 110-247.6zm15 3.2c-19.4 91.8-57.2 177.2-112.6 253.4l10.6 7.8c56.4-77.8 95.2-164.8 114.8-258.4l-12.8-2.8zm45-261.4c-14.4-81.6-42.6-159.4-84.2-231.2l-11.4 6.6c40.8 70.4 68.6 146.8 82.6 226.8l13-2.2zm-87.6 252.2l-12.8-2.8c-17.6 84-52.4 162-103 231.8l10.6 7.8c51.8-71.2 87.2-150.8 105.2-236.8zm70-129c0-72-11.2-142.8-33.2-210.6l-12.4 4c21.6 66.4 32.6 136 32.6 206.6 0 23.2-1.2 46.4-3.6 69.2l13 1.4c2.4-23.2 3.6-47 3.6-70.6zm-14.2 242l-12.4-4.4c-6.8 19-14.6 37.8-23.2 56l11.8 5.6c8.8-18.8 16.8-38 23.8-57.2zm-124-127.4c-16 76.2-47.4 147-93.4 210.4l10.6 7.8c47-64.8 79.2-137.4 95.6-215.4l-12.8-2.8zM496.2 543.1l9.8 8.8c5.8-6.6 12-13 18.2-19.2 23.8-24.4 49.6-46.8 77-66.6l-7.8-10.6c-24.8 18-48 37.8-69.8 59-9.4 9.2-18.6 18.8-27.4 28.6zm832.4 1054.8l-6.6-11.4c-73.4 42.4-152.8 71.4-236 86l2.2 13c84.8-14.8 165.8-44.4 240.4-87.6zm-162-3.6c-66.4 21.6-136 32.6-206.6 32.6-23.2 0-46.4-1.2-69.2-3.6l-1.4 13c23.2 2.4 47 3.6 70.6 3.6 72 0 142.8-11.2 210.6-33.2l-4-12.4zm147.8-20.8l-6.6-11.4c-70.4 40.8-146.8 68.6-226.8 82.6l2.2 13c81.6-14.4 159.4-42.6 231.2-84.2zM1027 1722.1l-1.2-13c-21.8 1.8-43.8 2.8-65.8 2.8-65.8 0-131.2-8.6-194.2-25.4l-3.4 12.6c64.2 17 130.6 25.8 197.6 25.8 22.4 0 45-1 67-2.8zm396.8-345.4l-9.8-8.8c-5.8 6.6-12 13-18.2 19.2-23.8 24.4-49.6 46.8-77 66.6l7.8 10.6c24.8-18 48-37.8 69.8-59 9.4-9.2 18.6-18.8 27.4-28.6zm73.2-961.6c-46.4-45.8-98.2-85.2-154.8-118l-6.6 11.4c55.4 32 106.2 70.8 151.8 115.6l.6.6 8 8 9.2-9.2-4.4-4.4c-1.2-1.6-2.6-2.8-3.8-4zm-224.8 1084.8l-6.6-11.4c-18.4 10.6-37.6 20.4-56.8 29l5.4 12c19.6-8.8 39.2-18.8 58-29.6zm-311.6-1.2l-.6-13.2c-92.2 0-182.8-24.2-262.2-70l-6.6 11.4c81.4 47 174.4 71.8 268.8 71.8h.6zm-333.2-79.6c64.8 47 137.4 79.2 215.4 95.6l2.6-12.8c-76.2-16-147-47.4-210.4-93.4l-7.6 10.6zm200.4 165.8c-88-18.6-169.6-54.8-242.6-107.8l-7.8 10.6c74.6 54.2 157.8 91.2 247.6 110l2.8-12.8zm508.6-239.6c2.8-2.6 5.4-5.4 8.2-8.2l.8-.8c15-15.4 29.4-31.8 42.6-49l-10.4-8c-13 17-27 33.2-42 48.4-49.4 50.4-108.6 90.6-174 117.8l5 12.2c63.2-26.4 121-64.6 169.8-112.4zm-78.4 130l-6.6-11.4c-17.4 10.2-35.8 19.4-54.2 27.8l5.4 12c18.8-8.4 37.6-18 55.4-28.4zm-14.2-24.4l-6.6-11.4c-16.6 9.6-34 18.6-51.6 26.4l5.4 12c18-8 35.8-17.2 52.8-27zm-82 129l-4-12.4c-63.6 20.8-130.2 31.2-197.8 31.2-22 0-44.4-1.2-66.2-3.4l-1.4 13c22.4 2.2 45 3.4 67.6 3.4 69 0 137-10.6 201.8-31.8zm-656.4-114l8.8-9.8c-7.2-6.6-14.4-13.2-21.4-20.2-26.4-25.8-50.8-54-72.4-83.6l-10.6 7.8c19.6 26.8 41.4 52.4 65 76.4 10 10.2 20.2 20 30.6 29.4zm-74-200.4c-10.6-18.4-20.4-37.6-29-56.8l-12 5.4c8.8 19.8 18.8 39.4 29.6 58l11.4-6.6zm101.8 169.6c-7-6.2-13.6-12.6-20.4-19.2-25.4-24.8-48.8-51.8-69.6-80.2l-10.6 7.8c18.8 25.8 39.6 50.2 62 73 9.8 9.6 19.6 19.2 29.8 28.4l8.8-9.8zm58.2-1113.2l6.6 11.4c73.4-42.4 152.8-71.4 236-86l-2.2-13C747 249.1 666 278.7 591.4 321.9zM552 1414.1c-6.6-5.8-13-12-19.2-18.2-24.4-23.8-46.8-49.6-66.6-77l-10.6 7.8c17.8 24.6 37.8 47.8 59.2 69.6 9.2 9.4 18.8 18.6 28.6 27.4l8.6-9.6zm19-21c-6.2-5.6-12.2-11.2-18.2-17.2-23.2-22.8-44.8-47.4-63.8-73.6l-10.6 7.8c17 23.4 35.8 45.4 56.2 66.2 9 9.2 18.2 18 27.6 26.6l8.8-9.8zm19-21c-5.8-5.2-11.6-10.6-17.2-16.2-22.2-21.8-42.8-45.2-61-70.2l-10.6 7.8c16.2 22.2 34 43.2 53.2 62.8 8.6 8.8 17.4 17.4 26.6 25.6l9-9.8zm696.2 152.2l-6.6-11.4c-19.2 11.2-39.2 21.4-59.4 30.4l5.4 12c20.6-9.2 41-19.6 60.6-31zm-879.4-244.8c-11.2-19.2-21.4-39.2-30.4-59.4l-12 5.4c9.2 20.6 19.6 41.2 31 60.8l11.4-6.8zm900.6-922c51.2 29.6 98 65.2 140 106.4l1.8 1.8 7 7 9.2-9.2-4.4-4.4-2.8-2.8c-43.2-42.6-91.4-79.6-144.2-110l-6.6 11.2zm-554-32c66.4-21.6 136-32.6 206.6-32.6 23.2 0 46.4 1.2 69.2 3.6l1.4-13c-23.2-2.4-47-3.6-70.6-3.6-72 0-142.8 11.2-210.6 33.2l4 12.4zm-147.8 20.8l6.6 11.4c70.4-40.8 146.8-68.6 226.8-82.6l-2.2-13c-81.6 14.4-159.4 42.6-231.2 84.2zm887 166.6c13 15.4 25.4 31.6 37 48l10.8-7.6a739.85 739.85 0 0 0-37.6-49l-10.2 8.6zM893 197.7l1.2 13c21.8-1.8 43.8-2.8 65.8-2.8 65.8 0 131.2 8.6 194.2 25.4l3.4-12.6c-64.2-17-130.6-25.8-197.6-25.8-22.4 0-45 1-67 2.8zm428.4 135.2c53.4 30.8 102.2 68 145.8 111l1.6 1.6 7.2 7.2 9.2-9.2-4.4-4.4c-1-1.2-2-2.2-3-3.2-44.8-44.4-95-82.8-149.8-114.4l-6.6 11.4zm216.2 293.2c11.6 20 22.4 41 31.8 62.2l12-5.4c-9.6-21.6-20.6-42.8-32.4-63.4l-11.4 6.6zm-237.2 922.8l-6.6-11.4c-20 11.6-41 22.4-62.2 31.8l5.4 12c21.6-9.6 42.8-20.6 63.4-32.4zm76-163.8c9.2-9 18-18.2 26.6-27.6l-9.8-8.8c-5.6 6.2-11.2 12.2-17.2 18.2-22.8 23.2-47.4 44.8-73.6 63.8l7.8 10.6c23.4-17 45.4-35.8 66.2-56.2zm5.6-46.4l-9.8-8.8c-5.2 5.8-10.6 11.6-16.2 17.2-21.8 22.2-45.2 42.8-70.2 61l7.8 10.6c22.2-16.4 43.2-34.2 62.8-53.4 8.8-8.6 17.4-17.4 25.6-26.6zm88.4-379.4l-13.2.6c0 87.2-22.8 173-66.2 248.2l11.4 6.6c44.4-77 68-165.2 68-254.6v-.8zm28.4.6v-.6l-13.2.6c0 92.2-24.2 182.8-70 262.2l11.4 6.6c47-81.4 71.8-174.4 71.8-268.8zM1295 240.5c-20.8-9.8-42.4-18.6-64-26.4l-4.4 12.4c21.2 7.8 42.4 16.4 63 26l5.4-12zm-272.8-115c20.8 1.6 41.6 3.8 62.2 6.8l2-13c-20.8-3-42-5.4-63.2-7l-1 13.2zm2-28.2c21.4 1.6 43.2 4 64.2 7.2l2-13c-21.4-3.2-43.4-5.6-65.2-7.2l-1 13zm74.6-61.8c-22.8-3.4-46.2-6-69.4-7.8l-1 13c23 1.6 46 4.2 68.4 7.6l2-12.8zM1020 153.7c20 1.4 40.2 3.8 60 6.6l2-13c-20-3-40.6-5.2-61-6.8l-1 13.2zm566.8 444.2c42.4 73.4 71.4 152.8 86 236l13-2.2c-14.8-84.8-44.4-165.8-87.6-240.4l-11.4 6.6zM1026.4 69.1c22.2 1.6 44.6 4.2 66.4 7.4l2-13c-22.2-3.4-44.8-5.8-67.4-7.4l-1 13zM890.6 169.7l1.2 13c22.6-2 45.6-3 68.4-3 68.4 0 136.2 8.8 201.6 26.2l3.4-12.6c-66.6-17.8-135.4-26.8-205-26.8-23.4.2-46.8 1.2-69.6 3.2zM780.4 1631.9l-3.4 12.6c59.4 15.8 121 23.8 183 23.8 20.6 0 41.6-1 62-2.6l-1.2-13c-80.4 7-162.8-.2-240.4-20.8zm-587-877c-17.8 66.6-26.8 135.4-26.8 205 0 23.2 1 46.6 3 69.4l13-1.2c-2-22.6-3-45.6-3-68.4 0-68.4 8.8-136.2 26.2-201.6l-12.4-3.2zm836 995.2l-1.2-13c-22.6 2-45.6 3-68.4 3-68.4 0-136.2-8.8-201.6-26.2l-3.4 12.6c66.6 17.8 135.4 26.8 205 26.8 23.4-.2 46.8-1.2 69.6-3.2zM692.4 93.7l3.8 12.6c85-26.2 173.6-39.6 263.2-39.6V53.5c-90.8 0-180.8 13.6-267 40.2zm1021 733c-15.4-88.2-46-172-91-249.6l-11.4 6.6c44 76.2 74.2 158.6 89.4 245.2l13-2.2zM959.6 94.9V81.7c-88.2 0-175.2 13.2-258.8 39l3.8 12.6c82.2-25.4 168-38.2 255-38.4zm-707 535.6l-11.8-5.6c-9.8 20.8-18.6 42.4-26.4 64l12.4 4.4c7.4-21 16.2-42.2 25.8-62.8zM900 1766.1c-20-1.4-40.2-3.8-60-6.6l-2 13c20 3 40.6 5.2 61 6.8l1-13.2zm198.2-1459c91.8 19.4 177.2 57.2 253.4 112.6l7.8-10.6c-77.8-56.4-164.8-95.2-258.4-114.8l-2.8 12.8zm109-27.6c19.8 7.2 39.4 15.4 58.4 24.2l5.6-11.8c-19.4-9-39.2-17.2-59.4-24.6l-4.6 12.2zm401.2 748c2.2-22.4 3.4-45 3.4-67.6 0-69-10.8-137-31.8-201.8l-12.4 4c20.8 63.6 31.2 130.2 31.2 197.8 0 22-1.2 44.4-3.4 66.2l13 1.4zm-411-721.4c19 6.8 37.8 14.6 56 23.2l5.6-11.8c-18.6-8.6-37.8-16.6-57.2-23.6l-4.4 12.2zm382.8 718.4c2.2-21.4 3.4-43.2 3.4-64.6 0-66-10.2-131-30.4-193.2l-12.4 4c19.8 60.8 29.8 124.4 29.8 189 0 21-1 42.4-3.2 63.2l12.8 1.6zm-56.2-6c2-19.4 3-39.2 3-58.6 0-60-9.4-119.2-27.8-175.8l-12.4 4c18 55.2 27.2 113 27.2 171.6 0 19-1 38.4-3 57.2l13 1.6zm28.2 3c2-20.4 3.2-41 3.2-61.6 0-63-9.8-125-29.2-184.4l-12.4 4c19 58 28.4 118.8 28.4 180.4 0 20.2-1 40.4-3 60.2l13 1.4zm5.4-563.2c14.6 17.2 28.4 35.4 41.4 54l10.8-7.6c-13.2-18.8-27.4-37.2-42.2-54.8l-10 8.4zm-844.8 1182c-19.8-7.2-39.4-15.4-58.4-24.2l-5.6 11.8c19.4 9 39.2 17.2 59.4 24.6l4.6-12.2zm-87.8 39c20.8 9.8 42.4 18.6 64 26.4l4.4-12.4c-21.2-7.8-42.4-16.4-63-26l-5.4 12zm78.2-12.4c-20.4-7.4-40.8-15.8-60.6-25l-5.6 11.8c20.2 9.4 41 18 61.6 25.6l4.6-12.4zm19.4-53.2c-19-6.8-37.8-14.6-56-23.2l-5.6 11.8c18.6 8.6 37.8 16.6 57.2 23.6l4.4-12.2zm99.2-1c-91.8-19.4-177.2-57.2-253.4-112.6l-7.8 10.6c77.8 56.4 164.8 95.2 258.4 114.8l2.8-12.8zm395-1359.8c20.4 7.4 40.8 15.8 60.6 25l5.6-11.8c-20.2-9.4-41-18-61.6-25.6l-4.6 12.4zM211 1025.7c-1.8-21.8-2.8-43.8-2.8-65.8 0-65.8 8.6-131.2 25.4-194.2l-12.6-3.4c-17 64.2-25.8 130.6-25.8 197.6 0 22.4 1 44.8 3 67l12.8-1.2zM503 0h-29.8c-36 18.3-71 38.6-104.8 60.9l7.2 11C416.4 45 459 21 503 0zm394.8 1794.3c-20.8-1.6-41.6-3.8-62.2-6.8l-2 13c20.8 3 42 5.4 63.2 7l1-13.2zm782-1692c2.4 2 4.6 4 7 6 1.8 1.6 3.6 3 5.4 4.6 2.4 2 4.8 4.2 7.2 6.2 1.6 1.4 3.4 3 5 4.4l.4.4c2.2 2 4.6 4.2 6.8 6.2 1.6 1.4 3.2 2.8 4.6 4.2l1.8 1.8c1.8 1.6 3.6 3.4 5.4 5.2 1.6 1.4 3 2.8 4.6 4.2 10.4 9.8 20.6 19.8 30.6 30 35.6 36.4 69 75 99.4 115.8l10.6-7.8c-30.2-40.6-63.4-79.2-98.8-115.4l-5-5c-2.6-2.6-5.2-5.2-7.6-7.8-6.4-6.4-12.8-12.6-19.2-18.8l-.6-.6c-15-14-30.2-27.8-46-41l-.2-.2-.4-.4-11.4-9.6c-.8-.6-1.6-1.2-2.2-1.8-.4-.2-.6-.6-1-.8h-.2c-1.4-1.2-3-2.4-4.4-3.6-2.2-1.8-4.2-3.4-6.4-5.2-33-26.3-67.6-50.8-103.3-73.3h-25.1c40.6 24.5 79.7 51.6 117.1 81.1 8.7 7 17.3 14 25.9 21.2zM1416.6 1920h29.8c36.2-18.4 71.3-38.8 105.2-61.1l-7.2-11c-40.9 26.9-83.7 51-127.8 72.1zM352.8 37.3l7.2 11c26.2-17.2 53.1-33.4 80.7-48.3h-27c-20.7 11.8-41 24.2-60.9 37.3zm1473.4 655.2l-12.6 3.8c26.2 85 39.6 173.6 39.6 263.2h13.2c0-91-13.6-180.8-40.2-267zM1540 263.3c-.4-.4-.8-.6-1.2-1-2.6-2.2-5.2-4.4-8-6.4-19.6-15.8-39.8-31-60.6-45.2l-7.4 10.8c48 32.6 92.4 69.8 133 111 6.4 6.4 12.8 13 19 19.8l9.6-9c-6.2-6.8-12.8-13.4-19.2-20-2.8-2.8-5.4-5.6-8.2-8.2-17.4-17.2-35.6-33.8-54.4-49.4l.6.4c-1.2-1.2-2.2-2-3.2-2.8zM0 16.8c4-4.1 8-8.1 12-12.1L16.7 0H0v16.8zM232.5 0h-21.4c-5.9 4.6-11.7 9.2-17.5 13.9l8.2 10.2c10.1-8.2 20.3-16.2 30.7-24.1zm1454.7 1920h21.4c6-4.7 11.9-9.3 17.7-14.1l-8.2-10.2c-10.1 8.3-20.4 16.4-30.9 24.3zm156.4-827.5l13 2c3.2-22.2 5.8-44.8 7.4-67.4l-13-1c-1.6 22.2-4.2 44.6-7.4 66.4zm-1658.8 675c-1.8-1.6-3.6-3.4-5.2-5-2.4-2.4-4.8-4.6-7.2-7-39.8-39.4-76.8-81.8-110.4-126.8l-10.6 7.8c26.4 35.2 54.8 69 85 101l.8.8c3.4 3.6 6.8 7.2 10.2 10.6l1.8 1.8c3.2 3.2 6.4 6.6 9.6 9.8l2.4 2.4 1.8 1.8 7.4 7.4c1.2 1.2 2.6 2.4 3.8 3.6 2.4 2.2 4.6 4.4 7 6.6.6.6 1.2 1.2 1.8 1.6 54.1 51.1 113.3 96.7 176.1 136.1h24.5c-57-34.4-111.2-73.8-161.3-117.9-12.7-11.2-25.3-22.8-37.5-34.6zM383.3 0h-25.1c-7.1 4.4-14.1 8.9-21 13.5l7.2 11c12.8-8.4 25.8-16.6 38.9-24.5zm1153 1920h25.1c7.2-4.5 14.3-9.1 21.3-13.7l-7.2-11c-12.8 8.5-25.9 16.7-39.2 24.7zm30.9-37.5l-7.2-11c-26.3 17.3-53.4 33.5-81 48.5h27.1c20.7-11.8 41.1-24.3 61.1-37.5zm-606.8-57.6v13.2c88.2 0 175.2-13.2 258.8-39l-3.8-12.6c-82.2 25.4-168 38.2-255 38.4zm267.2 1.2l-3.8-12.6c-85 26.2-173.6 39.6-263.2 39.6v13.2c90.8 0 180.8-13.6 267-40.2zm439.8-536.8l11.8 5.6c9.8-20.8 18.6-42.4 26.4-64l-12.4-4.4c-7.4 21-16.2 42.2-25.8 62.8zm54.8-396.4l-13 1.2c1.8 21.8 2.8 43.8 2.8 65.8 0 65.8-8.6 131.2-25.4 194.2l12.6 3.4c17-64.2 25.8-130.6 25.8-197.6 0-22.4-1-45-2.8-67zm-826.4 929.6c-21.4-1.6-43.2-4-64.2-7.2l-2 13c21.4 3.2 43.4 5.6 65.2 7.2l1-13zm-2.2 28.2c-22.2-1.6-44.6-4.2-66.4-7.4l-2 13c22.2 3.4 44.8 5.8 67.4 7.4l1-13zm-72.4 33.6c22.8 3.4 46.2 6 69.4 7.8l1-13c-23-1.6-46-4.2-68.4-7.6l-2 12.8zM76.6 827.1l-13-2c-3.4 22.2-5.8 44.8-7.4 67.4l13 1c1.6-22.2 4.2-44.6 7.4-66.4zm1683 252.8l13 2c3-20 5.2-40.6 6.8-61l-13-1c-1.6 20-3.8 40.4-6.8 60zm-1666 147.4l12.6-3.8c-26.2-85-39.6-173.6-39.6-263.2H53.4c0 91 13.6 180.8 40.2 267zm1678.6-518.2l-12.6 3.8c24.6 79.6 37 162.6 37 246.6h13.2c0-85.4-12.6-169.6-37.6-250.4zm-1639 506.2c-25.4-82.2-38.2-168-38.4-255H81.6c0 88.2 13.2 175.2 38.8 258.8l12.8-3.8zm1599.4-494.2c23.8 76.8 35.8 157 35.8 238.2h13.2c0-82.4-12.2-163.8-36.4-242l-12.6 3.8zm55.2 363l13 2c2.8-20.8 5.2-42 6.8-63.2l-13-1c-1.6 20.8-3.8 41.6-6.8 62.2zM1326 454.9c-71.2-51.8-151-87.2-236.8-105.2l-2.8 12.8c84 17.6 162 52.4 231.8 103l7.8-10.6zm-61.8 249.4c-.2-.2-.4-.4-.4-.6-.6-.6-1-1.2-1.6-1.8-1.2-1.4-2.6-3-3.8-4.4-.6-.6-1.2-1.2-1.8-2-1.4-1.6-2.8-3-4-4.6-.6-.6-1-1.2-1.6-1.6-1.4-1.6-3-3.2-4.4-4.6l-1.2-1.2-.4-.4c-1.4-1.6-3-3-4.6-4.6l-.6-.6c-24.2-24-51.6-45.2-81.6-62.4l-6.6 11.4c31.2 18 59.6 40.2 84.4 65.8.4.4.8.8 1 1.2 1.4 1.4 2.6 2.8 4 4.2l1.8 1.8c1.2 1.4 2.6 2.8 3.8 4.2.6.6 1.2 1.4 1.8 2l3.6 4.2c5.4 6.4 10.6 12.8 15.6 19.6 49.4 66 76.4 146.8 76.4 229.6h13.2c0-86.4-28.4-170.4-80.2-238.8v-.2c-4.2-5.4-8.4-10.8-12.8-16.2zm-70.2-151l6.6-11.4c-72.8-42-156-64.2-240.6-64.2h-.4l.4 13.2c82.2 0 163.2 21.6 234 62.4zm-234-34.2c77.2 0 153.4 20.2 219.8 58.6l6.6-11.4c-68.6-39.4-146.8-60.4-226.4-60.4h-.4l.4 13.2zm-66.2 819.4c-22-3.8-43.8-9.6-64.6-17.2l-4.4 12.4c21.6 7.8 44.2 13.8 67 17.8l2-13zm-78.8 21.6c23.2 8.4 47.4 14.8 71.6 19l2.2-13c-23.6-4.2-47-10.4-69.4-18.4l-4.4 12.4zm88.4-77.4c-18.8-3.2-37.2-8.2-55.2-14.6l-4.4 12.4c18.6 6.8 37.8 11.8 57.4 15.2l2.2-13zm-4.8 27.8c-20.4-3.6-40.6-8.8-60-16l-4.4 12.4c20.2 7.4 41 12.8 62.2 16.6l2.2-13zm-172.6 56l-6.6 11.4c72.8 42 156 64.2 240.6 64.2h.4l-.4-13.2c-82.2 0-163.2-21.6-234-62.4zm109-872.4l3.4 12.6c19.4-5.2 39.6-9.2 60-11.8l-1.6-13c-20.8 2.8-41.6 6.8-61.8 12.2zm67.2 28.8l-1.6-13c-19.8 2.6-39.4 6.4-58.4 11.6l3.4 12.6c18.4-5 37.4-8.8 56.6-11.2zm139 738.8l-3.4-12.6c-25.2 6.8-51.4 10.2-77.8 10.2-77.8 0-151-29.4-207-83-20.2-19.4-38-41.6-52.4-66.4l-11.4 6.6c14 24 30.8 45.6 50 64.8l-.2.2c59 58.8 137.4 91.2 220.6 91.2 28-.2 55.2-3.8 81.6-11zM827.4 466.9l3.4 12.6c20.8-5.6 42.4-9.8 63.8-12.6l-1.6-13c-22.2 2.8-44.2 7.2-65.6 13zM687.2 633.3c-.4.2-.6.6-1 .8-.2.2-.6.4-.8.6-2 1.8-4.2 3.6-6.2 5.2-.4.4-.8.6-1.2 1-2 1.6-3.8 3.4-5.6 5-.6.4-1 1-1.6 1.4-1.8 1.6-3.4 3.2-5.2 4.8l-1.8 1.8c-1.6 1.6-3.2 3.2-4.8 4.6l-1.8 1.8c-1.6 1.6-3.2 3.2-4.6 4.8-.6.6-1.2 1.2-1.6 1.8-1.4 1.4-2.8 2.8-4 4.4v.2c-21.2 23-40 48.4-55.8 75.8l11.4 6.6c19.2-33.4 43-63.8 70.4-90.2l2-2c1.4-1.2 2.6-2.4 4-3.8.8-.8 1.6-1.6 2.6-2.4 1.4-1.4 3-2.6 4.4-4 .8-.6 1.6-1.4 2.2-2 1.6-1.4 3.2-2.8 4.8-4 .6-.6 1.4-1.2 2-1.8 9.4-7.8 19-15.2 29-22.2 68.8-48 151.4-74.2 235.8-74.4v-13.2c-87.6.4-172.6 27.4-243.6 77.2-10 7-19.6 14.4-29 22.2zM820 439.5l3.4 12.6c22-6 44.8-10.4 67.4-13.4l-1.8-13c-23 3.2-46.4 7.8-69 13.8zm-55.4 241.2c-.8.6-1.8 1.2-2.6 1.8-1 .8-2.2 1.6-3.2 2.4-1.6 1.2-3 2.2-4.4 3.4-.4.4-.8.6-1.4 1-1.6 1.2-3.2 2.6-5 3.8-.2.2-.6.4-.8.6-1.6 1.2-3.2 2.6-4.6 3.8-.4.2-.6.6-1 .8l-.6.6c-.6.4-1 1-1.6 1.4-1.4 1.2-2.6 2.2-4 3.4-.6.6-1.2 1-1.8 1.6-1.2 1-2.4 2.2-3.6 3.4-.6.6-1.4 1.2-2 2-1.2 1-2.2 2-3.4 3.2l-.6.6-.4.4c-.4.4-.8.8-1.2 1l-3 3c-.8.8-1.6 1.6-2.2 2.4l-1 1c-.4.4-.8.8-1 1.2s-.6.6-.8 1l-.2.2c-18.8 19.8-35.4 41.8-49.2 65.6l11.4 6.6c13.6-23.6 30-45.2 48.6-64.4l.8-.8.4-.4c2.2-2.2 4.4-4.4 6.6-6.4l1.4-1.4c.8-.6 1.4-1.4 2.2-2 1-1 2-1.8 3-2.8.8-.8 1.8-1.6 2.6-2.4.8-.8 1.8-1.6 2.6-2.4 1-.8 2-1.8 3-2.6.8-.6 1.6-1.2 2.2-2 .6-.4 1.2-1 1.8-1.4 1.2-1 2.6-2.2 3.8-3.2.4-.4.8-.6 1.2-.8 1.6-1.2 3-2.4 4.6-3.6.2-.2.4-.4.6-.4 1.8-1.4 3.4-2.6 5.2-3.8.2-.2.6-.4.8-.6 1.6-1.2 3.2-2.4 5-3.6 54.6-38.2 120.2-59 187.4-59v-13.2c-70.4-.6-138.4 21-195.2 60.8-.2 0-.2.2-.4.2zm45.6 20l-6.6-11.4c-24 14-45.6 30.8-64.8 50l-.2-.2c-58.8 59-91.2 137.4-91.2 220.6 0 27.6 3.6 54.8 10.6 81.2l12.6-3.4c-6.8-25.2-10.2-51.4-10.2-77.8.2-77.6 29.6-150.8 83.4-206.6 19.4-20.2 41.6-38 66.4-52.4zm-186 200.4l13 2.2c3.2-18.8 8.2-37.2 14.6-55.2l-12.4-4.4c-6.6 18.6-11.8 38-15.2 57.4zM960 1400.7c-77.2 0-153.4-20.2-219.8-58.6l-6.6 11.4c68.6 39.6 146.8 60.4 226.4 60.4h.4l-.4-13.2zM732 634.1c-2.2 1.6-4.4 3-6.4 4.6-.2 0-.2.2-.4.2-6.8 5-13.4 10.2-19.8 15.6l-.2.2-.6.6-.2.2c-1 .8-1.8 1.6-2.8 2.4-1.2 1-2.4 2-3.4 3-1.2 1-2.4 2-3.4 3-1 .8-2 1.8-2.8 2.6-1.4 1.2-2.6 2.4-4 3.8l-2.2 2.2-1.8 1.8-.6.6c-.6.6-1.2 1.2-2 1.8l-1.8 1.8-4.6 4.6-1 1c-.2.2-.4.4-.4.6-1.4 1.6-3 3-4.4 4.6-.4.4-.8 1-1.2 1.4-19.8 21.6-37.4 45.2-52.2 71l11.2 6.6c15.8-27.4 34.8-52.6 56.6-75l.4-.4c2.8-3 5.8-5.8 8.6-8.6l2.2-2.2c.8-.8 1.6-1.4 2.2-2.2 1.2-1.2 2.6-2.4 3.8-3.6 1-.8 1.8-1.8 2.8-2.6 1-1 2.2-2 3.2-3 1.2-1 2.2-2 3.4-3 1-.8 2-1.6 2.8-2.4 8.6-7.2 17.6-14.2 26.8-20.6 64-44.8 140.8-69.2 219.6-69.2v-13.2c-81.4 0-160.8 25.4-227.2 71.6 0 0-.2 0-.2.2zm-9 43.2l-.4.4c-6.2 5.2-12.2 10.6-18 16.2l-.2.2-.6.6-4.8 4.8-.4.4c-1.2 1.2-2.2 2.4-3.4 3.4l-.6.6-1.2 1.2c-.2.2-.4.4-.4.6-.6.6-1.4 1.4-2 2.2-19.4 20.6-36.4 43.4-50.8 68.2l11.2 6.2c14.6-25.4 32.4-48.8 52.4-69.6l.8-.8c2.8-2.8 5.4-5.6 8.4-8.2l.6-.6c1.6-1.6 3.4-3.2 5-4.6l.6-.6 5.4-4.8.4-.4c1.8-1.6 3.8-3.2 5.6-4.8l.2-.2c8.2-6.8 16.6-13.4 25.4-19.4 59.4-41.4 130.4-64 203.4-64v-13.2c-86.2 0-170 30.6-236.2 85.8l-.4.4zm-126.6 219l13 2.2c3.6-20.4 8.8-40.6 16-60l-12.4-4.4c-7.4 20.2-13 41-16.6 62.2zm704 63c.4-70.6-22-139.6-62.8-197-.2-.2-.4-.4-.6-.8-2.4-3.4-5-6.8-7.6-10.2-.2-.2-.4-.6-.6-.8-2.6-3.4-5.2-6.6-8-9.8-.2-.2-.2-.4-.4-.6-.8-1-1.8-2-2.6-3-.6-.6-1.2-1.4-1.8-2-1-1.2-2-2.2-3-3.4-.6-.8-1.2-1.4-2-2.2-1-1-2-2.2-3-3.2-.8-.8-1.4-1.6-2.2-2.2l-.4-.4-.4-.4-2.2-2.2c-.8-.8-1.6-1.6-2.2-2.4l-.6-.6c-20.8-20.8-44.4-39-70.2-53.8l-6.6 11.4c26.8 15.4 51.2 34.6 72.4 56.6l.4.4c1 1 2 2.2 3 3.2.6.6 1.2 1.4 2 2 .8 1 1.8 2 2.6 3 .8.8 1.4 1.6 2.2 2.4s1.4 1.8 2.2 2.6c1.6 1.8 3.2 3.8 4.8 5.8.2.2.4.6.6.8 5 6.2 10 12.6 14.6 19.2 38.2 54.8 59.2 120.2 59.2 187.6h13.2zm-279-350c20.4 3.6 40.6 8.8 60 16l4.4-12.4c-20.2-7.4-41-12.8-62.2-16.6l-2.2 13zm4.8-28c22 3.8 43.8 9.6 64.6 17.2l4.4-12.4c-21.6-7.8-44.2-13.8-67-17.8l-2 13zm-9.6 55.8c18.8 3.2 37.2 8.2 55.2 14.6l4.4-12.4c-18.6-6.8-37.8-11.8-57.4-15.2l-2.2 13zm176.4 553l-3.4 3.4c-6 6-12.4 11.6-18.8 17.2-.2.2-.6.4-.8.8-2.4 2-4.8 4-7.4 6-57.4 45.2-128.8 70-202.2 70v13.2c76.4 0 150.6-26 210.4-73 .4-.4 1-.8 1.4-1.2l3-2.4 3-2.4c.4-.4.8-.6 1.2-1 5.8-5 11.6-10 17-15.4l1-1 6.6-6.6c.4-.4.8-.8 1-1.2 2.4-2.4 4.8-5 7-7.6.6-.6 1.2-1.4 1.8-2 .6-.8 1.4-1.4 2-2.2 14.8-16.8 28.2-35.2 39.6-55l-11.4-6.6c-13.2 22.8-29 43.8-46.8 62.6-1.4 1.4-2.8 2.8-4.2 4.4zm-88-630.4c-23.2-8.4-47.4-14.8-71.6-19l-2.2 13c23.6 4.2 47 10.4 69.4 18.4l4.4-12.4zm157 319.2l-12.6 3.4c6.8 25.2 10.2 51.4 10.2 77.8-.2 77.6-29.6 150.8-83.4 206.6-19.4 20.2-41.6 38-66.4 52.4l6.6 11.4c24-14 45.6-30.8 64.8-50l.2.2c58.8-59 91.2-137.4 91.2-220.6 0-27.6-3.6-54.8-10.6-81.2zM878.8 658.1l3.4 12.6c25.2-6.8 51.4-10.2 77.8-10.2 77.8 0 151 29.4 207 83 20.2 19.4 38 41.6 52.4 66.4l11.4-6.6c-14-24-30.8-45.6-50-64.8l.2-.2c-59-58.8-137.4-91.2-220.6-91.2-28 .2-55.2 3.8-81.6 11zm-39.2 871.6c-80.2-16.8-154.6-50-221.2-98.2l-7.8 10.6c68 49.4 144.2 83.2 226.2 100.4l2.8-12.8zm649-875.4c10.6 18.4 20.4 37.6 29 56.8l12-5.4c-8.8-19.8-18.8-39.4-29.6-58l-11.4 6.6zm67 40c-9.2-20.6-19.6-41.2-31-60.8l-11.4 6.8c11.2 19.2 21.4 39.2 30.4 59.4l12-5.4zM594 1464.9c71.2 51.8 151 87.2 236.8 105.2l2.8-12.8c-84-17.6-162-52.4-231.8-103l-7.8 10.6zm175.6 207c61.8 16.4 125.8 24.8 190.4 24.8 21.4 0 43.2-1 64.6-2.8l-1.2-13c-84 7.2-169.4 0-250.4-21.6l-3.4 12.6zM416 1202.5c8.4 19 18 37.6 28.4 55.4l11.4-6.6c-10.2-17.4-19.4-35.8-27.8-54.2l-12 5.4zm64.4 34.8c-9.6-16.6-18.6-34-26.4-51.6l-12 5.4c8 18 17.2 35.8 27 52.8l11.4-6.6zm160.2 140.2c-17-13-33.2-27-48.4-42-50.4-49.4-90.6-108.6-117.8-174l-12.2 5c26.2 63.2 64.6 120.8 112.2 169.8 2.6 2.8 5.4 5.4 8.2 8.2l.8.8c15.4 15 31.8 29.4 49 42.6l8.2-10.4zm509.8-1129.6c-61.8-16.4-125.8-24.8-190.4-24.8-21.4 0-43.2 1-64.6 2.8l1.2 13c84-7.2 169.4 0 250.4 21.6l3.4-12.6zm-711.6 781l-13 1.8c3 23.2 7.6 46.4 13.8 69l12.6-3.4c-6-22-10.4-44.8-13.4-67.4zM311.6 892.3c-2.2 22.4-3.4 45-3.4 67.6 0 69 10.8 137 31.8 201.8l12.4-4c-20.8-63.6-31.2-130.2-31.2-197.8 0-22 1.2-44.4 3.4-66.2l-13-1.4zm56.2 6c-2 20.4-3.2 41-3.2 61.6 0 63 9.8 125 29.2 184.4l12.4-4c-19-58-28.4-118.8-28.4-180.4 0-20.2 1-40.4 3-60.2l-13-1.4zm11.6 250.6c-19.8-60.8-29.8-124.4-29.8-189 0-21 1-42.4 3.2-63.2l-13-1.4c-2.2 21.4-3.4 43.2-3.4 64.6 0 66 10.2 131 30.4 193.2l12.6-4.2zM396 901.3c-2 19.4-3 39.2-3 58.6 0 60 9.4 119.2 27.8 175.8l12.4-4.2c-18-55.2-27.2-113-27.2-171.6 0-19 1-38.4 3-57.2l-13-1.4zm743.6-613.4l3.4-12.6c-59.4-15.8-121-23.8-183-23.8-20.6 0-41.6 1-62 2.6l1.2 13c80.4-7 162.8.2 240.4 20.8zm86.8 1004s.2 0 .2-.2l.2-.2c1.4-1.2 3-2.4 4.4-3.6.8-.6 1.4-1.2 2.2-1.8.2 0 .2-.2.4-.2 7.8-6.6 15.2-13.4 22.6-20.4 1.6-1.4 3-3 4.4-4.4l5.2-5.2c2-2.2 4-4.4 6.2-6.6 1-1.2 2.2-2.4 3.2-3.4 20.4-22.4 38.4-47 53.6-73.4l-11.4-6.6c-15.2 26.2-33 50.4-53.2 72.6l-7.8 8.4-3.6 3.6c-9 9.2-18.4 17.8-28.2 26l-6.6 5.4-.2.2-.2.2-.6.6c-72.6 57.8-163.2 89.6-256.4 89.8v13.2c96-.4 189.6-33.4 264.6-93.2.4-.2.8-.6 1-.8zM1085 1425.7l-3.4-12.6c-19.4 5.2-39.6 9.2-60 11.8l1.6 13c20.8-2.8 41.6-6.8 61.8-12.2zm-67.2-28.8l1.6 13c19.8-2.6 39.4-6.4 58.4-11.6l-3.4-12.6c-18.4 5-37.4 8.8-56.6 11.2zm210-787.2c14.2 10.8 27.4 22.4 40.2 34.8 2 1.8 3.8 3.8 5.6 5.6.6.6 1.2 1.2 1.8 2 39 40 70.2 87 91.6 138.6l12.2-5c-16-38.4-37.2-74.2-62.8-106.8-.2-.4-.6-.8-.8-1.2-1.6-2-3.2-4.2-5-6.2-1.4-1.8-3-3.6-4.6-5.4-1.6-2-3.4-4-5-5.8-1.6-2-3.4-3.8-5.2-5.8-1.6-1.8-3.2-3.6-4.8-5.2-1-1-2-2.2-3.2-3.2h-.2c-.8-.8-1.6-1.8-2.4-2.6l-.4-.4c-.6-.8-1.4-1.4-2-2-1.8-1.8-3.6-3.8-5.6-5.6-.4-.4-.8-.8-1.2-1-12.8-12.4-26.2-24.2-40.4-35l-7.8 10.2zm-62-7.4c33.4 19.2 63.8 43 90.2 70.4l1.8 1.8c.8.8 1.6 1.8 2.4 2.6 1.2 1.4 2.4 2.6 3.8 4 .8.8 1.4 1.6 2.2 2.4 1.4 1.4 2.6 2.8 3.8 4.4.6.8 1.2 1.4 2 2.2 5.4 6.2 10.6 12.8 15.8 19.4 54.6 71.6 84.6 159.6 84.8 250h13.2c0-94-31.4-185.6-88.8-259.6-.2-.4-.6-.6-.8-1-3.4-4.2-6.8-8.6-10.2-12.6l-.6-.6c-1.4-1.6-2.6-3.2-4-4.6-.4-.6-.8-1-1.2-1.6l-4.8-5.4c-.4-.6-1-1-1.4-1.6-1.6-1.6-3.2-3.4-4.6-5-.6-.6-1.2-1.2-1.6-1.8-.6-.6-1.2-1.4-2-2 0 0-.2 0-.2-.2l-2.6-2.6-1.8-1.8c-.4-.4-.8-.8-1.4-1.2-26-25.8-55.2-48.2-87.2-66.8l-6.8 11.2zm-73.2 850.6l-3.4-12.6c-20.8 5.6-42.4 9.8-63.8 12.6l1.6 13c22.2-2.8 44.2-7.2 65.6-13zm7.4 27.4l-3.4-12.6c-22 6-44.8 10.4-67.4 13.4l1.8 13c23-3.2 46.4-7.8 69-13.8zm145-893c15 11.4 29.2 23.8 42.4 36.8 45.4 44.2 81.4 97.4 105.8 155.8l12.2-5c-23.4-56.4-57.4-107.8-100-151.4-2.8-3-5.8-5.8-8.6-8.6l-.6-.6c-13.6-13.4-28.2-25.8-43.4-37.6l-7.8 10.6zm140.8 258.2c5 18.4 8.8 37.4 11.2 56.6l13-1.6c-2.6-19.6-6.4-39.2-11.6-58.2l-12.6 3.2zm-106.4-303.2c17 13 33.2 27 48.4 42 50.4 49.4 90.8 108.6 117.8 174l12.2-5c-26.2-63.2-64.6-120.8-112.2-169.8-2.6-2.8-5.4-5.4-8.2-8.2l-.8-.8c-15.4-15-31.8-29.4-49-42.6l-8.2 10.4zm-615.6 638c1 1.4 2 2.6 3 4l6.6 8.4c.2.2.4.4.6.8 1 1.2 2 2.6 3.2 3.8 7 8.2 14.2 16.2 21.8 23.8 22.8 22.8 48.4 42.6 76.6 58.8l6.6-11.4c-29-16.8-55.4-37.6-78.6-61.6-5.8-6-11.4-12.2-16.8-18.6-.4-.4-.8-1-1.2-1.4-.6-.6-1-1.4-1.6-2-.6-.8-1.4-1.8-2-2.6-1-1.4-2-2.6-3.2-4-.6-.6-1-1.4-1.6-2l-2.4-3c-.6-.8-1-1.4-1.6-2.2 0-.2-.2-.2-.2-.4-44.6-60.8-69-134.6-69.2-210.4h-13.2c0 79.4 26 156.8 73.2 220zm598.4-615.4c16.2 12.4 31.6 25.8 46 40l6.6 6.6 1.2 1.2c44 45 79 98.2 103.2 156.4l12.2-5c-25-60.2-61.6-115.2-107.2-161.6l-6.8-6.8-1.2-1.2c-14.6-14.2-30-27.6-46.2-40l-7.8 10.4zm-181.8-174.8c80.2 16.8 154.6 50 221.2 98.2l7.8-10.6c-68-49.4-144.2-83.2-226.2-100.4l-2.8 12.8zm332.6 448c5.2 19.6 9.2 40 12 60.2l13-1.6c-2.8-20.8-6.8-41.6-12.2-61.8l-12.8 3.2zM256.8 221.7c-5.6 5.4-11.2 10.8-16.6 16.2l-.4.4-.6.6-.4.4c-15.8 15.8-31 32-45.6 48.8-1.2 1.4-2.4 2.8-3.8 4.4l-6.6 7.8-3.6 4.2c-1.2 1.4-2.2 2.8-3.4 4.2-8.6 10.2-16.8 20.6-25 31.2l10.4 8c6.2-8.2 12.8-16.2 19.2-24.4.6-.6 1-1.2 1.6-1.8.8-1 1.6-2 2.4-2.8 1.6-2 3.2-3.8 4.8-5.8l3.6-4.2c1.8-2.2 3.8-4.4 5.6-6.4 16.2-18.8 33.2-37 50.8-54.6 5.2-5.2 10.6-10.4 16-15.6.4-.4.8-.8 1.2-1 5.4-5 10.8-10.2 16.2-15.2 53.4-48.6 111.8-91.4 174.2-127.6l-7-11.6c-69.2 40-133.6 88.2-191.6 143.4l-1.4 1.4zM0 539.3V573c26.5-65.5 59.7-128.4 99-187.3l-10.8-7.2C54.1 429.5 24.6 483.3 0 539.3zm0-36.4c3.1-6.6 6.3-13.1 9.6-19.6L0 478.6v24.3zm20.8 139l12.4 4.2c27.4-80.8 65.4-157.8 112.8-229l-10.8-7.2c-48.2 72-86.6 150.2-114.4 232zM0 615.7v19.2l6.4 2.2c28.2-83.2 67.2-162.4 116.2-235.6l-10.8-7.2C65.6 463.3 28 537.6 0 615.7zm201.8 1067.6c5.2 5.4 10.2 10.6 15.4 15.8l.8.8c.2.4.6.6.8 1 .2.2.2.4.4.4 16 16 32.6 31.6 49.6 46.4.2.2.4.2.4.4 1.4.8 2.2 1.6 3 2.4.4.4.8.6 1.2 1 16 13.8 32.6 27.4 49.4 40.2l8-10.4c-16.4-12.6-32.4-25.6-48-39.2-19-16.4-37.4-33.6-55.2-51.4l-.6-.6c-3.2-3.2-6.4-6.6-9.8-9.8-1.8-1.8-3.6-3.6-5.4-5.6-.8-.8-1.4-1.6-2.2-2.4-5-5.4-10-10.6-15-16-50-54.8-93.8-114.8-131-178.8l-11.4 6.6c41.6 72 91.8 138.8 149.4 199l.2.2zM57.4 1405.5c-22.8-46.1-42-93.8-57.4-142.7v41.1c13.1 36.7 28.3 72.6 45.6 107.6l11.8-6zM32 1417.9c-11.6-23.4-22.2-47.3-32-71.5v33.6c6.5 14.8 13.3 29.4 20.4 43.8l11.6-5.9zm50.6-25c-37.8-76.6-65.6-158-82.2-241.6l-.4.1v56.9c16.9 65.7 40.7 129.7 70.8 190.6l11.8-6zM1284.9 0l-2.1 6.3c83.2 28.2 162.4 67.2 235.6 116.2l7.2-10.8C1456.4 65.4 1381.8 27.9 1303.8 0h-18.9zM514.4 57.3C560.4 34.6 608 15.4 656.8 0h-41c-36.6 13.1-72.4 28.3-107.3 45.5l5.9 11.8zm964.2 140.6c24.4 16.6 48 34.4 70.6 53.2.8.6 1.6 1.4 2.4 2 4.6 3.8 9 7.6 13.6 11.6 1 1 2.2 1.8 3.2 2.8 4.8 4.2 9.6 8.4 14.2 12.8.4.4.8.6 1 1 5 4.6 9.8 9.2 14.6 13.8l2.2 2.2c4.8 4.6 9.4 9.2 14.2 14 1 1.2 2.2 2.2 3.2 3.4 6 6 11.8 12 17.4 18.2l9.6-9c-6.6-7-13.2-14-20-20.8l-.2-.2-8.2-8.2c-7.2-7.2-14.4-14.2-21.8-21-1-1-2.2-2-3.2-3-3-2.8-6.2-5.6-9.4-8.4-1.4-1.4-3-2.6-4.4-3.8-2.8-2.6-5.8-5-8.6-7.6-1.8-1.6-3.6-3-5.4-4.6l-7.8-6.6c-2-1.6-4-3.4-6.2-5-1-.8-1.8-1.6-2.8-2.2-19.6-16-40-31.2-61-45.4l-7.2 10.8zM385.2 239.5c72.2-57.6 152.2-104 237.8-137.6l-4.8-12.2c-86.8 34.2-168 81-241.2 139.6l8.2 10.2zM280 278.1c-.2.2-.4.2-.4.4l-.6.6-.4.4c-14.8 14.8-29.2 30.2-43 46-.8.8-1.4 1.6-2.2 2.4-1.2 1.2-2.2 2.6-3.2 3.8-12 13.8-23.6 28-34.6 42.4l10.4 8c8.6-11 17.4-22 26.4-32.8 1.2-1.4 2.2-2.6 3.4-4 1.2-1.4 2.4-2.6 3.4-4 .8-.8 1.6-1.8 2.4-2.6 15.2-17.4 30.8-34.4 47.2-50.8 1.6-1.6 3.2-3.2 5-4.8 2.2-2.2 4.6-4.4 6.8-6.6 2-2 4.2-4 6.2-6 54-51.2 113.8-96 178.2-133.2l-6.6-11.4c-72.4 41.8-139.2 93-198.4 152.2zM153.6 1714.3l.6.6 1.2 1.2c.4.4.8.8 1.2 1.4l1.2 1.2c3.2 3.4 6.6 6.8 9.8 10.2l2 2c3 3.2 6.2 6.2 9.2 9.4l2.4 2.4 1.8 1.8c2.4 2.4 4.8 4.8 7.4 7.2.4.4 1 .8 1.4 1.4 3 2.8 6 5.8 9 8.6.6.6 1.2 1 1.8 1.6 62.4 58.8 131.6 110.4 205.6 153.2l6.4-11.2c-62.4-36-121.2-78.4-175.4-126.2l-6-5.4c-1.4-1.2-2.8-2.4-4-3.6-9-8.2-18-16.6-26.8-25-1-1-2-1.8-2.8-2.8-2.4-2.2-4.6-4.6-7-7-9.6-9.4-19-19-28.2-28.8-1-1.2-2.2-2.4-3.2-3.4-27-29-52.6-59.6-76.4-91.4l-10.6 7.8c24.6 33 51 64.4 79 94.4l.4.4zM1860 1264.7c-26.6 78.4-63.4 153.2-109.6 222.4l10.8 7.2c46.8-70 84.2-146 111.2-225.4l-12.4-4.2zm60 39.4v-19.2l-6.4-2.2c-28.2 83.2-67.2 162.4-116.2 235.6l10.8 7.2c46.2-69 83.8-143.3 111.8-221.4zm-267.6 404.2c3-2.8 5.8-5.4 8.8-8.2.8-.6 1.4-1.4 2.2-2 2.6-2.6 5.2-5 7.8-7.6.8-.8 1.6-1.4 2.2-2.2 2.4-2.4 4.8-4.8 7.4-7.2 0 0 0-.2.2-.2 0 0 .2 0 .2-.2l.2-.2.2-.2.8-.8c15.4-15.4 30.4-31.4 44.8-47.8.2-.2.6-.6.8-1 1.8-2.2 3.8-4.4 5.6-6.6 1.4-1.8 3-3.4 4.4-5.2.4-.4.6-.8 1-1.2 1.8-2.2 3.8-4.4 5.6-6.6 1.4-1.6 2.8-3.2 4.2-5v-.2c.4-.6 1-1.2 1.4-1.8 6.6-8 13-16.2 19.2-24.4l-10.4-8c-9.6 12.4-19.6 24.8-29.8 37-.4.6-.8 1-1.4 1.6-1.2 1.4-2.6 3-3.8 4.4-16.6 19.4-33.8 38-51.8 56-5.4 5.4-10.8 10.8-16.4 16l-.6.6c-5.4 5.2-11 10.4-16.6 15.4-53.6 49-112.2 92-175 128.4l6.6 11.8c65.4-37.8 126.4-82.8 181.8-134.2.2-.2.4-.2.4-.4zm-94.2-1486.4c1.4 1.2 2.8 2.2 4.2 3.4 2.4 2 5 4 7.4 6.2 1.4 1.2 3 2.4 4.4 3.8 2.2 2 4.6 3.8 6.8 5.8 17.4 15 34 30.6 50.4 46.8 2 2 4 4.2 6.2 6.2 56.2 57.2 105 121.2 145.2 190.4l11.4-6.6c-42-72.4-93.2-139.2-152.4-198.6l-.6-.6-.8-.8c-14.8-14.8-30-29-45.6-42.6l-.4-.4c-2-1.8-4-3.4-6-5.2-1.6-1.4-3.2-2.8-5-4.2h-.2c-1.2-1-2.4-2-3.8-3l-3-2.4c-1.8-1.4-3.6-3-5.4-4.4h-.2c-1.4-1.2-2.8-2.2-4-3.4-.8-.8-1.8-1.4-2.6-2.2-.2-.2-.4-.2-.6-.4-5.8-4.8-11.8-9.4-17.8-14l-8 10.4c6.8 5 13.6 10.4 20.4 15.8zm341 1056l-12.4-4.2c-27.4 80.8-65.4 157.8-112.8 229l10.8 7.2c48.2-72 86.6-150.2 114.4-232zM1848 375.5c26.9 40.9 51 83.5 72 127.6v-29.7c-18.3-36.1-38.7-71.2-61-105.1l-11 7.2zm72 1005v-33.7c-26.5 65.5-59.7 128.4-99 187.3l10.8 7.2c34.1-51 63.6-104.8 88.2-160.8zm0 36.4c-3.1 6.6-6.3 13.1-9.6 19.6l9.6 4.7v-24.3zM635.1 1920l2.1-6.5c-83.2-28.2-162.4-67.2-235.6-116.2l-7.2 10.8c69.4 46.4 144.1 84 222.4 111.9h18.3zm1005.7-279.1l.2-.2.4-.4.4-.4.4-.4c14.6-14.6 28.6-29.8 42.2-45.2.2-.2.4-.6.8-.8 1.2-1.4 2.6-3 3.8-4.4 1.8-2 3.4-4 5-6 .2-.2.4-.4.6-.8v-.2c1.6-2 3.2-4 5-5.8 1.2-1.4 2.2-2.6 3.4-4 7.2-8.8 14.4-17.8 21.2-26.8l-10.4-8c-8.4 11-17.2 21.8-26 32.4-1 1.2-2.2 2.6-3.2 3.8-1 1-1.8 2.2-2.8 3.2-.4.6-1 1.2-1.4 1.6-15.4 17.8-31.4 35.2-48 51.8l-7.4 7.4c-57 56-120.8 104.6-189.8 144.4l6.6 11.4c72.6-41.6 139.6-93 199-152.6zm-1298 41.2c-1.4-1.2-3-2.6-4.4-3.8-17.6-15.2-34.6-31-51-47.4l-2-2-1.8-1.8c-2.6-2.6-5.2-5.4-7.8-8-1.4-1.4-2.8-2.8-4-4.2-51.8-54.4-97.2-114.8-134.8-179.6l-11.4 6.6c41.8 72 92.8 138.6 151.6 197.8l.4.4 1 1 .4.4c14.8 14.8 30 29 45.6 42.6l.4.4c1.6 1.4 3.4 2.8 5 4.2 1 .8 2 1.8 3 2.6 13.2 11.4 27 22.6 40.8 33l8-10.4c-12.8-10.2-26-20.8-39-31.8zm86.2 198.6c-59.2-34.2-115.4-74.4-167-119.4-5.8-4.8-11.4-9.8-16.8-14.8-.2-.2-.4-.4-.6-.4l-17.4-16.2c-3-2.8-5.8-5.6-8.8-8.4l-3.2-3.2c-1.2-1-2.2-2.2-3.4-3.2-9.2-9.2-18.4-18.4-27.2-28-.4-.4-.8-.8-1.2-1.4-27-28.8-52.4-59.2-76-90.8l-10.6 7.8c22.8 30.6 47.2 59.8 73.2 87.8 1.6 1.6 3 3.2 4.6 4.8l.4.4c.4.4.6.8 1 1.2.2.4.6.6.8 1 1.4 1.6 2.8 3 4.4 4.6 2.2 2.2 4.2 4.4 6.4 6.8l5 5 6 6 4.4 4.4.2.2.6.6c2 2 4 4 6 5.8 1.6 1.6 3.4 3.2 5 4.8 1.8 1.8 3.6 3.6 5.4 5.2.6.6 1.2 1 1.8 1.6 4.8 4.6 9.8 9.2 14.8 13.6 56.8 51.6 119.2 97.2 185.6 135.6l6.6-11.4zm12.4-158.8c-29-19.8-56.6-41.2-83.2-64-2.4-2.2-4.8-4.2-7.4-6.4l-12.6-11.4c-.8-.6-1.6-1.4-2.2-2-10.8-10-21.4-20.2-31.6-30.6-6.8-6.8-13.4-13.6-19.8-20.6l-9.6 9c3.6 3.8 7.2 7.8 11 11.6l.8.8c.6.8 1.4 1.4 2 2l6 6 .4.4.2.2c1.4 1.4 2.6 2.8 4 4.2l.2.2c1.2 1.2 2.4 2.2 3.4 3.4l.4.4c16.2 16 33 31.4 50.4 46.4 25.6 21.8 52.4 42.4 80.2 61.4l7.4-11zm964.2 140.6c-46.2 22.8-94 42-143 57.5h41.1c36.7-13.1 72.8-28.4 107.9-45.7l-6-11.8zm129.2-182.2c-72.2 57.6-152.2 104-237.8 137.6l4.8 12.2c86.8-34.2 168-81 241.2-139.6l-8.2-10.2zm-1251-181c-54-67.8-97.6-142.8-129.2-223.2l-12.2 4.8c32 81.6 76.2 157.8 131.2 226.6l10.2-8.2zM410 1784.7a993.65 993.65 0 0 0 232 114.4l4.2-12.4c-80.8-27.4-157.8-65.4-229-112.8l-7.2 10.8zm-86.8-179.8c39 38.4 81.2 73.4 126.6 104.4l7.4-10.8c-48-32.6-92.4-69.8-133-111-6.4-6.4-12.8-13-19-19.8l-9.6 9c6.4 6.6 12.8 13.4 19.4 20l8.2 8.2zm384.2 300.2l-3.4 12.6c2.9.8 5.8 1.5 8.8 2.3h59c-21.6-4.2-43.1-9.2-64.4-14.9zm-281.8-144c70 46.8 146 84.2 225.4 111.2l4.2-12.4c-78.4-26.6-153.2-63.4-222.4-109.6l-7.2 10.8zm1115-220l4.4-4.4c34.6-35.2 66.2-73.4 94-114.2l-10.8-7.4c-28.6 42-61.2 81-97 117-7 7-14 14-21.4 20.6l9 9.6c6.2-5.8 12-11.6 17.8-17.2 1.4-1.4 2.6-2.8 4-4zm-394.8 350.6l2.6 12.8c82.6-16.4 162.6-43.6 238-80.8l-5.8-11.8c-74.4 36.8-153.4 63.6-234.8 79.8zm247.2-54.4c-76.6 37.8-158 65.6-241.6 82.2l.1.5h56.5c65.8-16.9 130-40.7 191-70.9l-6-11.8zm124.2-179c-70 55.8-147.4 100.8-230.4 133.4l4.8 12.2c84.2-33 162.8-78.6 233.8-135.4l-8.2-10.2zM305.8 1481.7c-52.4-65.6-94.4-138.2-125-215.8l-12.2 4.8c31 79 73.8 152.8 126.8 219.2l10.4-8.2zm-66.2 53c-57.6-72.2-104-152.2-137.6-237.8l-12.2 4.8c34.2 86.8 81 168 139.6 241.2l10.2-8.2zm-1.4 145.4l.8.8.4.4c15.6 15.6 31.8 30.6 48.2 45.2 1.6 1.4 3.4 3 5 4.4.2.2.4.2.6.4 15 13 30.6 25.8 46.4 37.8l8.4-10.2c-15.4-11.8-30.4-24.2-45.2-36.8-.6-.4-1-1-1.6-1.4-18.4-16-36.2-32.4-53.4-49.8l-.2-.2c-4.4-4.4-8.6-8.8-13-13.2-1-1.2-2.2-2.2-3.2-3.4-3.2-3.4-6.6-7-9.8-10.4-51-55-95.8-115.6-133.4-180.4l-11.4 6.6c44.2 76.4 98.2 146.8 160.6 209.4l.8.8zm127 56.4c-14.6-11.2-29.2-23-43.2-35.2-.6-.6-1.4-1.2-2-1.8-17.8-15.4-35-31.4-51.6-48-.4-.4-.8-.8-1.2-1.4l-4.6-4.6c-2.4-2.4-4.8-4.8-7.2-7.4-2.8-2.8-5.4-5.6-8.2-8.6-51.6-54.8-96.8-115.4-134.4-180.4l-11.4 6.6c43 74.2 95.4 142.6 156.2 203.6l1.2 1.2.4.4.2.2.2.2c15.2 15.2 30.8 29.8 47 44l.4.4c.6.6 1.4 1.2 2 1.8s1.2 1 1.8 1.6c.8.8 1.8 1.6 2.6 2.2 14.2 12.2 28.8 24.2 43.6 35.4l8.2-10.2zM1441.5 0h-24.3c6.5 3.1 13 6.3 19.4 9.5l4.9-9.5zM261.6 1517.1c-55.8-70-100.8-147.4-133.4-230.4l-12.2 4.8c33 84.2 78.6 162.8 135.4 233.8l10.2-8.2zM1888 501.9c11.6 23.4 22.2 47.3 32 71.5v-33.6c-6.5-14.8-13.3-29.4-20.4-43.8l-11.6 5.9zm32 704.9v-59.2c-4.2 21.8-9.2 43.5-15 64.9l12.6 3.4c.8-3 1.6-6.1 2.4-9.1zm0-170.9v-76.5l-10.2.5c0 83.2-10.8 165.6-32 245.2l12.6 3.4c15.1-56.3 25-114.1 29.6-172.6zM1491.4 39.5c46.4 26.8 90.8 57.2 132.8 90.8 2.2 1.4 4.6 3.4 7 5.4 1.2 1 2.2 1.8 3.4 2.8.4.4 1 .8 1.4 1.2 2.4 2 4.6 3.8 7 5.8 1.8 1.6 3.8 3.2 5.6 4.8 2 1.8 4 3.4 6 5.2 2.2 2 4.4 4 6.6 5.8l4.8 4.2c2.4 2.2 4.8 4.4 7.4 6.6 1.4 1.2 2.8 2.4 4.2 3.8 2.4 2.2 4.8 4.6 7.2 6.8 1.4 1.2 2.8 2.6 4 3.8 10.8 10.2 21.2 20.6 31.6 31.2 33 33.8 63.8 69.8 92 107.6l10.6-7.8c-28.6-38.4-59.8-74.8-93.2-109l-3.4-3.4c-3.2-3.2-6.2-6.4-9.4-9.6-6-6-12-11.8-18-17.6l-.6-.6c-21.6-20.4-44.2-40-67.4-58.4l-.2-.2c-42-33.4-86.4-63.8-132.8-90.6l-6.6 11.4zm210.2 179.6l-.4-.4-.8-.8c-16-16-32.6-31.4-49.6-46.4-.2-.2-.4-.2-.4-.4-2.8-2-5-3.8-7.2-5.8l-1.2-1.2c-3.4-3-7-6-10.4-8.8l-.2-.2-.4-.4c-11-9.2-22.2-18.2-33.4-26.8l-8 10.4c7.4 5.6 14.8 11.6 22 17.4 1.6 1.2 3.2 2.6 4.8 3.8 2 1.6 3.8 3.2 5.8 4.8.4.4.8.6 1.2 1 2 1.6 4 3.4 6 5 2.2 1.8 4.2 3.6 6.4 5.4 19.2 16.6 38 34 56 52 3 3 6.2 6.2 9.2 9.4 60.2 61.6 112.4 130.4 155.4 204.8l11.4-6.6c-45.6-78.8-101.4-151.4-166-216l-.2-.2zm44.4-34.6c-3-3-6-6.2-9-9.2-6.2-6.2-12.4-12.2-18.6-18.2l-.6-.6c-13-12.2-26.2-24-39.8-35.6l-.4-.4-.6-.6c-3.6-3.2-7.4-6.2-11.2-9.4-.8-.6-1.4-1.2-2.2-1.8-1-.8-2.2-1.8-3.2-2.6-2.4-2-4.6-3.8-7-5.8-1.2-1-2.6-2-3.8-3.2-1.4-1.2-3-2.4-4.4-3.6-42.2-33.4-86.6-63.6-133-90.4l-6.8 11.4c59.4 34.4 115.6 74.4 167.6 119.4.8.8 1.6 1.4 2.4 2.2 3.2 2.8 6.2 5.4 9.4 8.2 1.4 1.2 2.8 2.6 4.2 3.8 2.6 2.2 5 4.6 7.6 6.8 1.6 1.4 3.2 3 4.8 4.4 2.2 2.2 4.6 4.2 6.8 6.4 11 10.4 21.8 21 32.2 31.8 34 34.8 65.8 71.8 94.8 110.8l10.6-7.8c-29.4-39.4-61.6-77-96-112.2l-3.8-3.8zm116.6 329.8c22.8 46.1 42 93.8 57.4 142.7v-41.1c-13.1-36.7-28.3-72.6-45.6-107.6l-11.8 6zm29.6 515l-13-1c-1.6 23-4.2 46-7.6 68.4l13 2c3.2-22.8 5.8-46.2 7.6-69.4zm-173.6 548.2c-.8 1-1.6 2-2.4 2.8-1.2 1.4-2.4 2.8-3.6 4.4-2.2 2.6-4.4 5.4-6.8 8-.4.4-.8.8-1.2 1.4-16.8 19.8-34.6 39-53 57.4l-5.4 5.4c-2.6 2.6-5.2 5-7.8 7.6-2 2-4.2 4-6.2 6-55.4 52.4-116.8 98.2-182.8 136.6l6.6 11.4c74.6-43.2 143.6-96.2 204.8-157.4 0 0 0-.2.2-.2 0 0 .2 0 .2-.2l1.2-1.2c15-15 29.4-30.6 43.4-46.6l.8-.8 7.2-8.4c.6-.8 1.4-1.6 2-2.4 2-2.2 3.8-4.6 5.8-6.8 1-1.2 2.2-2.6 3.2-3.8.6-.6 1-1.2 1.6-1.8l.2-.2c7-8.4 13.8-17.2 20.4-25.8l-10.4-8c-5.8 7.6-11.8 15.2-18 22.6zm-101.8 47.4l1.4-1.4c.8-.8 1.6-1.4 2.2-2.2l.2-.2c3.6-3.6 7-7 10.4-10.6.6-.8 1.4-1.4 2-2 2.8-2.8 5.4-5.8 8.2-8.6 1.2-1.2 2.4-2.4 3.6-3.8 7-7.6 13.8-15.2 20.6-23 1.6-1.8 3.2-3.8 4.8-5.6 1.2-1.4 2.4-2.6 3.4-4 20.8-24.6 40.6-50.4 58.8-77.2l-10.4-7.8c-19.6 28.6-40.6 56-63.2 82.2-3.4 3.8-6.8 7.8-10.2 11.6l-5.4 6c-2.8 3-5.4 6-8.2 9-9 9.6-18 19-27.4 28.2-6.8 6.8-13.6 13.4-20.6 19.8l9 9.6c7-6.6 14-13.2 20.8-20zm-20-20l8.4-8.4c1.8-1.8 3.4-3.6 5.2-5.2v.2l3-3c2.6-2.6 5-5.2 7.4-7.8 1.2-1.4 2.6-2.6 3.8-4 6.8-7.4 13.6-15 20.2-22.6 23.2-26.6 44.8-54.6 64.8-84l-10.8-7.4c-20.8 30.4-43.4 59.4-67.6 87-1.8 2-3.6 4.2-5.4 6.2-1.4 1.6-2.6 3-4 4.4-2.4 2.6-4.6 5.2-7 7.6-8.8 9.4-17.6 18.6-26.8 27.6-6.4 6.4-13 12.8-19.8 19l9 9.6c6.2-6.2 13-12.6 19.6-19.2zm-20.2-20l4.2-4.2 4.2-4.2c37.2-37.6 71-78.6 101-122.4l-10.8-7.4c-30.6 45-65.4 86.6-103.8 125-7.6 7.6-15.2 15-23 22.2l9 9.6c6.6-6 13-12.2 19.2-18.6zm-20-20c1.6-1.4 3.2-3 4.6-4.6l3.8-3.8c36-36.4 68.6-76 97.6-118.4l-10.8-7.4c-29.4 43.2-63 83.4-99.8 120.4-7.4 7.4-15 14.8-22.6 22l9 9.6c6-5.8 12.2-11.6 18.2-17.8zm274.6-406.8c-19.8 87-52.4 170.4-97.2 247.8l11.4 6.6c45.4-78.4 78.6-163 98.6-251.4l-12.8-3zm40.4 9.2l-12.8-3c-20.4 89.8-54 175.8-100.2 255.8l11.4 6.6c46.8-81 81-168.4 101.6-259.4zM60 655.1c26.6-78.4 63.4-153.2 109.6-222.4l-10.8-7.2c-46.8 70-84.2 146-111.2 225.4l12.4 4.2zM5.6 1868.5c-1.2-1.2-2.4-2.6-3.6-3.8-.7-.7-1.3-1.5-2-2v18.7c10 10.3 20 20.5 30.4 30.7 2.7 2.6 5.4 5.3 8.1 7.9h19.2c-9.5-8.9-18.9-18-28.1-27.1-8-8-16-16.2-24-24.4zm151-11.2l-6-5.4c-3.2-2.8-6.2-5.6-9.2-8.6-1.4-1.2-2.8-2.6-4-3.8-14.8-13.8-29-28-43-42.4-9.8-10.2-19.6-20.6-29.2-31.2l-9.8 8.8c14.4 16 29.4 31.6 44.6 46.8 14.2 14 28.6 27.8 43.4 41.2.6.6 1.2 1.2 1.8 1.6l.2.2c21.4 19.3 43.4 37.8 66.1 55.5h21.2c-25.2-19.1-49.6-39.3-73.3-60.3-1-.8-1.8-1.6-2.8-2.4zM19 37.7l2.4-2.4C33.2 23.4 45.2 11.6 57.5 0H38.4C25.4 12.4 12.5 25.2 0 38.2v19.3c.9-1 1.9-2 2.8-3L19 37.7zM1797.5 0h-19.9c13.3 11.4 26.4 23 39.2 34.9 7 6.6 14 13.2 21 20 3.4 3.2 6.6 6.4 10 9.8 16.8 16.8 33.4 34 49.2 51.6l9.8-8.8c-15-16.8-30.6-33-46.6-49C1840 38.3 1819 18.8 1797.5 0zM35.6 1836.7l1.8 1.8c3.4 3.6 6.8 7 10.2 10.6l.2.2c.2.4.6.6.8 1 3.8 3.8 7.6 7.8 11.4 11.6 20.1 20 40.9 39.4 62.3 58.1h20.3c-24.3-20.7-47.7-42.3-70.3-64.7-16.8-16.8-33.4-34-49.2-51.6l-9.8 8.8c5.4 5.8 10.8 11.8 16.2 17.6 1.9 2.2 3.9 4.4 6.1 6.6zm22.8-1777c-20.1 20.1-39.6 41-58.4 62.5v20.1c20.6-24.2 42.2-47.7 64.6-70.2 16.8-16.8 34-33.4 51.6-49.2l-8.8-9.8c-16.8 15.2-33.2 30.8-49 46.6zM0 1733.4v4.1l2-1.6c-.7-.8-1.3-1.7-2-2.5zm15 184.7l-15-15v16.9h16.9l-1.9-1.9zM78.4 79.7c-.8.8-1.8 1.6-2.6 2.6l-.6.6c-26.3 26.5-51.4 54.2-75.2 83v20.7c26.5-32.9 54.7-64.4 84.4-94.3 16.4-16.6 33.2-32.6 50.6-48.2l-8.8-9.8C109.8 48.9 94 64.1 78.4 79.7zm1807.4 46.6c-14.8-16.4-30-32.4-45.6-48l-2.6-2.6-.4-.4c-12.6-12.6-25.6-24.8-38.6-36.8l-.2-.2c-14.4-13.1-29.1-25.9-44-38.3h-20.8c19.1 15.4 37.7 31.4 55.9 47.9 1.8 1.6 3.6 3.4 5.4 5 1.6 1.4 3.2 2.8 4.6 4.4 3 2.8 5.8 5.4 8.6 8.2l1.2 1.2 23.4 22.8c14.8 14.8 29.4 30 43.4 45.6l9.7-8.8zM1751 51.7c.2.2.4.2.4.4 3 2.6 6 5.2 8.8 7.8.8.8 1.8 1.6 2.8 2.4h.2c1.8 1.6 3.6 3.4 5.6 5 2.6 2.4 5.4 4.8 8 7.2 1.6 1.6 3.4 3.2 5 4.6 2.8 2.6 5.4 5.2 8.2 7.8 1.4 1.4 3 2.8 4.4 4.2 3.2 3.2 6.4 6.2 9.8 9.4.8.8 1.8 1.8 2.8 2.6 2.4 2.4 4.8 4.8 7.2 7.4 14 14.2 27.8 28.6 41 43.2l9.8-8.8c-11.6-12.8-23.4-25.2-35.4-37.6-1-1-2-2-2.8-3l-4.8-4.8c-.4-.4-1-1-1.6-1.4-14.6-14.6-29.4-28.6-44.6-42.4-.4-.2-.6-.6-1-.8-21.2-19-43-37.4-65.5-54.9h-21.8c21.4 16.3 42.3 33.3 62.6 50.9.3.2.7.6.9.8zm-27.2 13.8c1.8 1.4 3.4 3 5.2 4.4.4.4.8.8 1.2 1 2.2 2 4.6 4 6.8 6 1.6 1.4 3.2 2.8 4.6 4 1.2 1 2.2 2 3.4 3 1.8 1.6 3.6 3.2 5.4 5 1.2 1.2 2.6 2.2 3.8 3.4 1.4 1.2 2.6 2.4 4 3.8 1.8 1.8 3.8 3.4 5.6 5.2 1 1 2 1.8 3 2.8 10.6 10 21.2 20.4 31.4 30.8 37.8 38.4 73 79.4 105.2 122.6l10.6-7.8c-32-42.8-67-83.6-104.4-121.8l-4-4c-2.8-2.8-5.6-5.8-8.4-8.6-6.8-6.8-13.6-13.4-20.6-20-.2-.2-.4-.4-.8-.6-10.6-10-21.2-19.6-32.2-29.2-.4-.2-.6-.6-1-.8-.6-.4-1-.8-1.6-1.4-25.5-22.2-51.9-43.3-79.1-63.3h-22.1c28.9 20.6 57 42.4 84 65.5zM99 99.1c-.2.2-.4.4-.8.6-34.9 35-67.7 72.2-98.2 111.1v21.3c17.6-23.1 36-45.7 55.2-67.4 4.4-5 8.6-9.8 13.2-14.6 1-1 1.8-2 2.8-3 .6-.8 1.2-1.4 2-2.2 2.8-3 5.6-6 8.4-9.2.8-.8 1.4-1.6 2.2-2.4 2.8-3 5.6-5.8 8.2-8.8.8-1 1.8-1.8 2.6-2.6 2.4-2.4 4.8-4.8 7-7.2 4-4 7.8-8 11.8-11.8 13.2-13 26.6-25.6 40.2-38l-8.8-9.8c-15.4 14.2-30.8 29-45.8 44zm33.6 6.6c-1.4 1.4-2.8 2.8-4.2 4l-12 12-1.2 1.2c-7 7-13.8 14-20.6 21.2-6 6.2-11.8 12.6-17.6 19l-5.4 6c-1.2 1.2-2.2 2.6-3.4 3.8l-3.6 4.2C41.9 203.1 20.4 230 0 257.8v22.5c22.7-32 47-62.9 72.8-92.5 2.8-3.2 5.4-6.2 8.2-9.4 2.4-2.8 4.8-5.4 7.4-8.2 1-1.2 2.2-2.4 3.2-3.6.4-.4.8-.8 1-1.2 3.2-3.6 6.6-7 9.8-10.6 7.4-8 15-15.8 22.8-23.6 4.6-4.6 9.2-9 13.8-13.6 1.6-1.6 3.4-3.2 5.2-5 35.8-34.4 73.6-66.8 113.6-96.4L250 5.5c-41 30.8-79.8 63.8-116.2 99l-1.2 1.2zM24 1718.1c-8.2-10.1-16.2-20.3-24-30.6v21.5c4.6 5.8 9.1 11.6 13.8 17.4l10.2-8.3zM61.2 17.7c-7.6 7.4-15.4 14.8-22.8 22.2l-2.8 2.8-.2.2c-3 3-5.8 6-8.8 8.8l-1.2 1.2c-.6.6-1 1-1.4 1.6C15.9 62.9 7.9 71.4 0 80v19.8c10.8-12 21.8-23.9 33-35.5l.2-.2c3.4-3.6 7-7.2 10.4-10.8l7.4-7.4 4.4-4.4C67 30.1 78.8 18.9 91 7.9c2-2 4.2-3.8 6.2-5.8L95.3 0H80c-6.4 5.8-12.7 11.7-18.8 17.7zm1806.6 26.8c17.2 17 34 34.6 50.2 52.6l2-1.8V79.7c-3-3.3-6.1-6.6-9.2-9.8-1-1-1.8-2-2.8-3-3-3.2-6-6.4-9.2-9.6-1.4-1.4-2.8-3-4.2-4.4l-1.2-1.2c-3.2-3.4-6.4-6.6-9.8-9.8l-2-2-1.6-1.6-2.8-2.8-.2-.2c-12.1-12-24.5-23.8-37-35.3h-19.3c16.1 14.4 31.8 29.3 47.1 44.5zM54.6 1877.7c-3-3-6-5.8-8.8-8.8l-5.2-5.2-2.2-2.2c-3-3.2-6.2-6.4-9.2-9.4l-4.2-4.2c-2.2-2.2-4.4-4.6-6.6-7-1.4-1.4-2.8-3-4.2-4.4-4.2-4.4-8.4-9-12.4-13.6l-1.8 1.6v15.9c.4.4.8.9 1.2 1.3l.6.6 6.6 7.2c1.2 1.2 2.2 2.4 3.4 3.6l1.6 1.6c.6.6 1 1.2 1.6 1.6l1.8 1.8c1.8 2 3.8 3.8 5.6 5.8 1 1.2 2.2 2.2 3.2 3.4 2.4 2.6 5 5 7.4 7.6l3.8 3.8 2.8 2.8 2.8 2.8.2.2c2.4 2.4 4.8 4.6 7 7 .6.6 1.4 1.2 2 2 9.2 9 18.6 17.8 28.1 26.5h19.8c-15.2-13.7-30.3-27.8-44.9-42.3zM186.4 0h-3.9l1.5 1.9c.8-.6 1.6-1.3 2.4-1.9zm1547 1920h4.3l-1.7-2.1c-.9.7-1.8 1.4-2.6 2.1zM1534.2 98.9l7.2-10.8C1490.5 54 1436.6 24.6 1380.7 0h-33.5c65.4 26.5 128.2 59.6 187 98.9zm333.2 1795.2c.6-.6 1.2-1.2 2-1.8l.2-.2 12-12 1.2-1.2.2-.2 3.8-3.8c2.4-2.6 5-5 7.4-7.6 1-1.2 2.2-2.2 3.2-3.4 3-3 6-6.2 9-9.4l1.6-1.6c.6-.8 1.4-1.4 2-2.2 3.4-3.6 6.7-7.2 10-10.8v-19.4c-14 15.6-28.3 30.8-43 45.7-4.4 4.4-8.6 8.8-13 13l-.2.2c-4.6 4.6-9.4 9.2-14.2 13.6-8.8 8.4-17.8 16.6-26.8 24.8l1.9 2.1h15.4c9.3-8.4 18.4-17 27.3-25.8zm35.2 25.9h17.4v-17.4c-4.1 4.2-8.2 8.3-12.4 12.5-1.6 1.6-3.3 3.3-5 4.9zm-81-99.9c9.8-9.8 19.6-20 29-30.2l.2-.2c1.2-1.4 2.6-2.6 3.8-4l6-6.6c1.4-1.4 2.8-3 4-4.4l.2-.2c19.1-21.3 37.6-43.3 55.2-65.9V1687c-15.4 20.3-31.5 40.1-48.2 59.4-3 3.4-5.8 6.8-8.8 10-.8.8-1.4 1.6-2.2 2.4-2.4 2.6-4.6 5.2-7 7.8-2 2.2-4 4.6-6.2 6.8l-.6.6-9.6 10.2-1.2 1.2c-2.2 2.4-4.4 4.6-6.6 7-3.8 4-7.8 8-11.6 12l-2.6 2.6-.2.2-2 2-12 12c-11.6 11.4-23.4 22.6-35.6 33.4l8.8 9.8c16.4-14.3 32-29.1 47.2-44.3zm-21.6-18.2l1-1 3.8-3.8c2.4-2.4 4.6-4.8 7-7.2l1.4-1.4 11.4-12 .4-.4.4-.4c.4-.4.6-.8 1-1 33.5-35.6 64.7-73.3 93.6-112.7v-22.5c-18.5 26.1-38 51.4-58.6 75.8-14.8 17.8-30.2 35.2-46.2 52l-.2.2-11.4 12-1 1-7.2 7.2c-41.4 41.8-85.8 80.4-133 115.6l7.8 10.6c41-30.6 80-63.8 116.6-99.2 4.4-4.2 8.8-8.6 13.2-12.8zm-1617.4 40.6c-3.4-3-7-6.2-10.4-9.4l-.4-.4c-3.2-2.8-6.2-5.6-9.4-8.6-1.4-1.2-2.8-2.6-4.2-4-5.8-5.4-11.6-11-17.4-16.6l-.2-.2c-2.8-2.8-5.6-5.4-8.4-8.2-41.8-41.4-80.6-85.8-115.6-133L6 1669.9c29.8 40 62.4 78.2 97 114.2 1.2 1.4 2.4 2.6 3.8 4l1.4 1.4c3.6 3.6 7.2 7.4 10.8 11l1 1c7.4 7.4 14.8 14.6 22.4 21.8l1.8 1.8c36 34 74.2 65.7 114.1 94.9h22.2c-34-24.1-66.7-50-97.9-77.5zm-148.4-48.8c14.8 16.4 30 32.4 45.6 48 .8.8 1.8 1.6 2.6 2.6l.6.6c26.4 26.2 54.1 51.3 82.8 75.1h20.8c-32.9-26.5-64.5-54.7-94.4-84.5-16.6-16.4-32.6-33.2-48.2-50.6l-9.8 8.8zm1798 55.6c.2-.2.4-.4.6-.4 3-3 6-6 9-8.8.8-.8 1.6-1.8 2.6-2.6l.6-.6c26.2-26.4 51.2-54 75-82.7v-20.7c-26.4 32.8-54.5 64.2-84.2 94.1-16.4 16.6-33.2 32.6-50.6 48.2l8.8 9.8c12.8-11.7 25.6-23.9 38.2-36.3zm11.4 28.6l2.2-2.2c1.8-1.6 3.4-3.4 5.2-5 3.6-3.6 7.2-7 10.8-10.6l1.2-1.2c3-3 5.8-6 8.8-9 16.5-16.9 32.6-34.4 48.2-52.2v-20c-20.6 24.1-42.1 47.5-64.4 70l-1.8 1.8-14 14c-11.8 11.4-23.6 22.6-35.8 33.6l8.8 9.8c10.4-9.6 20.6-19.4 30.8-29zm71.2 9l.6-.6c1.6-1.6 3.1-3.2 4.6-4.7V1862c-4.7 5-9.4 9.8-14.2 14.9l-1 1c-5.8 5.8-11.6 11.8-17.4 17.6-7.4 7.4-15 14.6-22.6 22-.9.8-1.8 1.7-2.7 2.5h19.3c11.3-10.9 22.4-21.9 33.4-33.1zM1684 1717.1c5.6-5.4 11.2-10.8 16.8-16.4l.2-.2.2-.2.2-.2.2-.2.2-.2.8-.8c15.8-16 31.2-32.4 46-49.2.2-.4.6-.6.8-1 1.8-2 3.6-4.2 5.4-6.2l.4-.4 9.6-11.4c.6-.8 1.2-1.4 1.8-2.2.6-.6 1-1.2 1.6-1.8 8.2-10 16.2-20 24-30.2l-10.4-8c-6.4 8.4-13 16.8-19.8 25-.4.6-.8 1.2-1.4 1.6-1 1.2-2 2.6-3.2 3.8-.6.8-1.2 1.4-1.8 2.2-2 2.4-4 4.8-6 7-1.4 1.6-2.6 3.2-4 4.8-17 19.8-34.6 38.8-53 57.2l-3.8 3.8c-2.6 2.4-5 5-7.6 7.4-2 2-4 3.8-6 5.8-.6.6-1.4 1.2-2 2-5.8 5.4-11.6 11-17.6 16.2-54.6 49.6-114.2 93.2-177.8 130l6.4 12c72-41.8 139-92 199.4-149.8l.4-.4zm-266 170.8c-23.5 11.6-47.4 22.3-71.7 32.1h33.7c14.8-6.5 29.5-13.3 44.1-20.5l-6.1-11.6zm-1032.2-67l-7.2 10.8c51.1 34.2 105 63.7 161.2 88.3h33.6c-65.7-26.5-128.6-59.7-187.6-99.1zm1330.2-56c1-1 2.2-2 3.2-3 3-2.8 6-5.8 9-8.6.4-.4 1-.8 1.4-1.4 3-3 6-6 9.2-9l2.4-2.4 3.6-3.6c1.8-1.8 3.6-3.6 5.4-5.6l2-2c3.4-3.4 6.6-6.8 9.8-10.2l1.2-1.2.2-.2.2-.2.8-.8c14.6-15.6 28.8-31.6 42.6-48 2.4-3 5-6 7.4-9 38-46.4 72.2-95.8 102.2-147.6l-11.4-6.6c-29.6 51-63.2 99.8-100.8 145.6-8 9.8-16.2 19.6-24.6 29l-.6.6-11.4 12.6c-.6.6-1.2 1.4-1.8 2-4.2 4.6-8.4 9-12.6 13.6-.4.4-.8.8-1 1.2-3.2 3.4-6.6 6.8-9.8 10.2l-1.8 1.8c-1.8 2-3.8 3.8-5.6 5.8-8.4 8.4-16.8 16.6-25.4 24.8-1.6 1.6-3.4 3.2-5 4.8-29.6 27.8-60.8 53.8-93.2 78l7.8 10.6c34-25.4 66-52.4 96.6-81.2zm22.6 17.6c2.2-2.2 4.6-4.4 6.8-6.6 1.2-1.2 2.6-2.4 3.8-3.6 3-3 6.2-6 9.2-9l2.4-2.4c1.2-1.2 2.4-2.4 3.6-3.8l6-6 1.8-1.8c3.4-3.6 6.8-7 10.2-10.6l1.2-1.2.2-.2.4-.4c.2-.2.4-.6.8-.8 15-16 29.6-32.4 43.8-49.2 2.4-3 4.8-5.8 7.2-8.8 30.4-37.1 58.6-76.1 84-116.8v-24.9c-28.3 47-60 91.9-95 134.3-3.4 4-6.8 8.2-10.2 12.2-1 1-1.8 2.2-2.8 3.2-3 3.6-6.2 7.2-9.2 10.8-1 1.2-2.2 2.6-3.2 3.8-3 3.4-6.2 7-9.4 10.4-1 1.2-2 2.4-3.2 3.4-4.2 4.6-8.4 9-12.6 13.6-.6.8-1.4 1.4-2 2.2-3 3.2-6.2 6.4-9.2 9.6l-2.4 2.4-5.4 5.4c-8.6 8.6-17.4 17.2-26.2 25.6l-1.6 1.6c-31.4 29.6-64.4 57.4-99 83.2l7.8 10.6c35.8-26.6 69.8-55.4 102.2-86.2zm-47.8-32.6c1.2-1.2 2.4-2.4 3.8-3.4.8-.6 1.4-1.4 2.2-2 1-1 2-2 3.2-3 1.8-1.8 3.6-3.4 5.4-5.2 1.6-1.6 3.4-3.2 5-4.8 2-2 4-3.8 6-5.8 1.8-1.8 3.6-3.4 5.2-5.2l3.4-3.4c.8-.8 1.6-1.8 2.6-2.6l5-5c2.2-2.2 4.2-4.4 6.4-6.8 1.4-1.4 2.8-3 4.2-4.4l.8-.8.2-.2c14.2-15.2 28.2-30.8 41.6-46.8 2.2-2.6 4.2-5.2 6.4-7.8l.6-.6c37.2-45.2 70.6-93.6 99.8-144.2l-11.4-6.6c-29.2 50.4-62.4 98.4-99.4 143.4-3.2 4-6.6 8-9.8 11.8-.8 1-1.6 1.8-2.4 2.8-3 3.6-6.2 7.2-9.2 10.6-.8 1-1.8 2-2.6 3l-9.6 10.8c-.8.8-1.4 1.6-2.2 2.4-4 4.4-8 8.6-12 13-1.8 2-3.6 3.8-5.4 5.6-1.8 1.8-3.4 3.6-5.2 5.4l-6.6 6.6-1 1c-8.4 8.6-17.2 17-26 25.2l-6.6 6c-28.2 26.2-57.6 50.8-88.2 73.6l7.8 10.6c30.6-22.8 60-47.2 88-73.2zM478.4 1920h24.8c-6.7-3.2-13.3-6.4-19.8-9.7l-5 9.7zM231 130.5c-.6.4-1.2 1-1.6 1.4-.8.8-1.8 1.6-2.8 2.4-1.8 1.6-3.6 3.2-5.2 4.8-.6.6-1.4 1.2-2 1.8-.8.8-1.8 1.6-2.8 2.4-.6.6-1.2 1.2-1.8 1.6-3.4 3-6.8 6.2-10 9.4-.6.6-1.2 1-1.8 1.6-.4.4-.8.8-1.2 1-8.8 8.2-17.4 16.8-26 25.4l-.8.8c-6.4 6.4-12.6 12.8-18.8 19.4-5.4 5.8-10.8 11.6-16 17.4-1 1.2-2 2.2-3 3.4l-9.6 10.8c-1 1.2-2 2.4-3.2 3.6-1.4 1.6-2.8 3.2-4 4.8-1.2 1.4-2.2 2.6-3.4 4C74.2 296.9 36 351.1 3 408.1l11.4 6.6c34.2-59.2 74-115.2 118.8-167 .2-.2.4-.6.8-.8l9-10.2c.6-.6 1-1.2 1.6-1.8 2.8-3.2 5.6-6.2 8.4-9.2.8-.8 1.6-1.8 2.4-2.6 2-2.2 4.2-4.6 6.4-6.8l1.6-1.6c7.2-7.6 14.6-15.2 22-22.8 14-14 28.2-27.8 43-41 .6-.4 1.2-1 1.6-1.4 25.2-22.6 51.2-44.2 78.4-64.4l-7.8-10.6c-24.2 17.4-47.4 36.2-69.6 56zm14.8 24.4l-.6.6c-1.6 1.4-3.4 3-5 4.4l-1.8 1.8-.2.2c-1.4 1.4-3 2.6-4.4 4-2.4 2.2-4.6 4.4-7 6.6-1.4 1.4-3 2.8-4.4 4.2-.2.2-.6.4-.8.8-8.6 8.2-17 16.4-25.4 24.8l-.8.8c-6.2 6.2-12.2 12.4-18.2 18.8s-12 13-18 19.6c-.8 1-1.6 1.8-2.6 2.8-5 5.6-9.8 11.2-14.6 16.8-1.8 2-3.6 4.2-5.4 6.2-40.8 48.4-77.2 100.4-108.8 155l11.4 6.6c30.2-52.2 65-102 103.6-148.4 3.4-4 6.8-8.2 10.4-12.2.8-1 1.8-2 2.6-3.2l3.6-4.2c1-1.2 2-2.4 3.2-3.6 1.2-1.4 2.4-2.6 3.6-4 2-2.2 4-4.4 6-6.8 1.4-1.6 3-3.2 4.4-4.8 1.8-2 3.6-3.8 5.4-5.8 7.6-8.2 15.2-16.2 23-24 9.2-9.2 18.6-18.4 28-27.2l.2-.2c4.4-4.4 9-8.6 13.6-12.8.8-.6 1.4-1.4 2.2-2 24.4-22 49.8-42.8 76-62.4l-7.8-10.6c-24.6 18.4-48.4 37.8-71.4 58.2zM1896 201.7c8.2 10.1 16.2 20.3 24 30.6v-21.5c-4.6-5.8-9.1-11.6-13.8-17.4l-10.2 8.3zM72 1544.3c-26.9-40.9-51-83.5-72-127.6v29.7c18.3 36.1 38.7 71.2 61 105.1l11-7.2zM502 31.9C525.3 20.4 549.1 9.7 573.2 0h-33.6c-14.7 6.4-29.2 13.2-43.6 20.3l6 11.6zm-297.6 84c-.8.8-1.6 1.6-2.6 2.2-.6.6-1.2 1-1.8 1.6-1.8 1.6-3.6 3.2-5.2 4.8-1.8 1.8-3.8 3.4-5.6 5.2-1.2 1.2-2.6 2.4-3.8 3.6-.8.8-1.8 1.6-2.6 2.4l-.6.6c-9 8.6-18 17.2-26.8 26.2l-.4.4c-6.6 6.6-13 13.2-19.4 20-1.6 1.6-3 3.4-4.6 5-1.6 1.8-3.4 3.6-5 5.4-5 5.4-10 10.8-14.8 16.4-2.8 3.2-5.8 6.4-8.6 9.8-.4.4-.8 1-1.2 1.4-.6.8-1.4 1.6-2 2.4C63 265.7 29.8 310.9 0 358.2v25.2c31.7-52.6 67.7-102.7 107.6-149.5 4.2-4.8 8.2-9.6 12.4-14.4.2-.2.4-.4.4-.6 4.2-4.8 8.6-9.6 12.8-14.4.2-.4.6-.6.8-1 .6-.6 1.2-1.4 1.8-2 2.4-2.8 5-5.4 7.6-8 7-7.4 14.2-14.8 21.4-22 9.6-9.8 19.4-19.2 29.4-28.6l.2-.2c4.6-4.4 9.4-8.8 14.2-13 .6-.6 1.4-1.2 2-1.8 25.8-23.2 52.4-45.2 80.2-65.8L283 51.5c-27.2 20.2-53.4 41.8-78.6 64.4zM1920 330.2V328l-1 .7c.3.5.7 1 1 1.5zM219.2 218.7l-.4.4-.4.4c-16.2 16.2-31.8 32.8-46.8 50l-3.6 4.2c-2.4 2.8-4.8 5.6-7.2 8.2-11.2 13.2-22.2 26.8-32.8 40.6l10.4 8c7-9.2 14.2-18.2 21.6-27.2 2.2-2.8 4.6-5.6 7-8.4 1.2-1.6 2.6-3 3.8-4.6 2-2.2 3.8-4.4 5.8-6.8 16.6-19.2 33.8-37.6 51.6-55.6l1-1c3.4-3.4 7-7 10.6-10.4 1.6-1.4 3-3 4.6-4.4 1.6-1.6 3.4-3.2 5-4.8 5.8-5.4 11.6-10.8 17.6-16.2 53.8-48.4 112.4-91.2 175-127.4l-6.2-11.2C357.2 97.9 284.6 153.7 220 217.9l-.8.8zM1589.3 1920h2.4l-.7-1.1c-.6.4-1.1.7-1.7 1.1zm179.5-126.9l1.2-1.2c11.8-11.6 23.6-23.4 34.8-35.4l.2-.2.8-.8c15.4-16.4 30.4-33.2 44.8-50.6 1.8-2 3.4-4.2 5.2-6.2 22.7-27.5 44.1-56 64.2-85.4v-24.1c-22.4 34.1-46.7 67.1-72.6 98.7-3.8 4.8-7.8 9.4-11.8 14.2-.6.6-1.2 1.4-1.8 2-3.6 4.2-7.2 8.2-10.8 12.4-.8 1-1.6 1.8-2.4 2.8-3.6 4-7 8-10.6 12-.8.8-1.4 1.6-2.2 2.4-4.4 4.8-8.6 9.4-13 14.2-6.4 6.8-12.8 13.4-19.2 20-40.4 40.8-83.8 78.6-129.8 112.8l7.8 10.6c38.2-28.6 74.8-59.6 109.4-92.6 2-1.8 3.8-3.8 5.8-5.6zm-1641.4-24.4l.4.4c11 11.4 22.4 22.6 34 33.6l1.8 1.8c44.7 42.3 92.8 80.9 143.5 115.5h23.7c-44.9-29.5-87.8-62.1-128.2-97.7-7-6.2-14-12.4-20.8-18.6-.2-.2-.4-.2-.4-.4-6.8-6.2-13.4-12.6-20-18.8l-1.2-1.2-7.8-7.8c-40.8-40.4-78.6-83.8-113-130l-10.6 7.8c28 37.6 58.6 73.6 91 107.6 2.6 2.6 5 5.2 7.6 7.8zM1920 186.4v-4.1l-2 1.6c.7.8 1.3 1.7 2 2.5zm-4.6-174.5l4.6 4.6V0h-16.6c4 3.9 8 7.9 12 11.9zM48.2 1559.9c-17.2-26.1-33.3-53-48.2-80.5v27.4c11.7 20.5 24 40.6 37 60.3l11.2-7.2zM1920 57.8V38.5c-4.9-5.1-10.2-10.3-15.6-15.8-2.6-2.6-5.2-5.4-8-8-5-4.9-10-9.8-15.1-14.7h-19.2c10.9 10.3 21.6 20.7 32.2 31.3 8.7 8.8 17.2 17.6 25.7 26.5zM330.4 0h-2l.6.9c.5-.3.9-.6 1.4-.9zm1565 344.5c8.5 12.9 16.7 25.9 24.6 39.1v-25c-4.5-7.1-9-14.1-13.6-21.1l-11 7zm-110.8-201.4l-7.8-7.8c-6.6-6.6-13.2-13-19.8-19.4l-.6-.6c-44.6-42.2-92.6-80.8-143.3-115.3h-23.6c32.3 21.2 63.5 44.1 93.5 68.5.6.6 1.4 1 2 1.6 1.4 1.2 3 2.4 4.4 3.6 2.8 2.2 5.4 4.6 8.2 6.8l3.6 3c.4.4.8.8 1.2 1 2.6 2.2 5.2 4.4 7.6 6.6 2 1.8 4 3.6 6 5.2 2.2 1.8 4.2 3.8 6.4 5.6l7.2 6.6c1.6 1.6 3.4 3 5 4.6l7.8 7.2c1.4 1.4 3 2.8 4.4 4.2 11.2 10.6 22.4 21.6 33.2 32.6 36 36.8 69.6 76 100.4 117.2l10.6-7.8c-31.2-41.8-65.2-81.4-101.6-118.6l-4.8-4.8zm87.2 216.8c17.2 26.1 33.3 53 48.2 80.5V413c-11.7-20.5-24-40.6-37-60.3l-11.2 7.2zM0 1589.6v2.2l1-.7c-.3-.5-.7-1-1-1.5zM169.2 110.3c-1.6 1.6-3.4 3.2-5 4.6l-.8.8c-9.2 8.8-18.4 17.6-27.2 26.6l-.6.6c-7.2 6.8-13.8 13.6-20.4 20.6-5.8 6.2-11.4 12.4-17.2 18.6-1.6 1.8-3.4 3.8-5 5.6-1.6 2-3.4 3.8-5 5.8-.4.6-1 1.2-1.4 1.6-31.1 35.5-60 72.8-86.6 111.8v23.7c27.5-41.8 57.7-81.8 90.4-119.7.4-.4.8-1 1.2-1.4 2.6-3 5.2-6 7.8-8.8 1.2-1.2 2.2-2.6 3.4-3.8.6-.6 1.2-1.4 1.8-2 1.8-2 3.4-3.8 5.2-5.8 1.4-1.6 2.8-3.2 4.4-4.8 1.4-1.4 2.6-2.8 4-4.2.8-.8 1.6-1.8 2.4-2.6 8-8.6 16.2-17.2 24.6-25.6 40.4-40.6 83.6-78.4 129.4-112.6l-7.8-10.6c-34 25.4-66.4 52.6-97.4 81.4l-.2.2zm-144.6 1465c-8.5-12.9-16.7-25.9-24.6-39.1v25c4.5 7.1 9 14.1 13.6 21.1l11-7zm87.8-678.4l13 1c1.6-20.8 3.8-41.6 6.8-62.2l-13-2c-2.8 20.8-5.2 42-6.8 63.2zM399 399.1l-3 3c-47.8 48.4-89.2 102.4-123.4 161.6l11.4 6.6c33.4-57.6 73.6-110.4 120-157.6l1.6-1.6c2.4-2.4 4.6-4.8 7-7l-9.2-9.2c-1.6 1.2-3 2.8-4.4 4.2zm1052.8 1146.8l-8.4-10c-16.6 14-34.2 27.4-52 40l7.6 10.8c18-12.8 35.8-26.6 52.8-40.8zm29.2-65.2l3-3c44.4-44.8 82.6-95 114.4-149.8l-11.4-6.6c-30.8 53.4-68 102.2-111 145.8l-1.4 1.4-7.2 7.2 9.2 9.2c1.4-1.2 3-2.6 4.4-4.2zm20 20l4-4c45.6-46.4 85.2-98.2 118-154.6l-11.4-6.6c-32.2 55.4-71 106.2-115.6 151.8l-.6.6c-2.6 2.6-5.2 5.4-8 8l9.2 9.2 4.4-4.4zm164.8-602.8l-13 1.2c7 80.6 0 162.8-20.8 240.6l12.6 3.4c15.8-59.4 23.8-121 23.8-183 0-20.8-.8-41.8-2.6-62.2zm-232.2 626.4l-8.4-10c-16 13.4-32.8 26.4-50 38.4l7.6 10.8c17.4-12.4 34.6-25.6 50.8-39.2zm219-312.8l-12.4-4.4c-7.2 19.8-15.4 39.4-24.2 58.4l11.8 5.6c9.2-19.4 17.6-39.4 24.8-59.6zm44.2-251.6c0-21.4-1-43.2-2.8-64.6l-13 1.2c7.2 84 0 169.4-21.6 250.4l12.6 3.4c16.4-61.8 24.8-125.8 24.8-190.4zm-736.4 808.4v13.2c82.6 0 164-12.2 242-36.4l-3.8-12.6c-76.8 23.8-157 35.8-238.2 35.8zm455-265.8l-8.4-10c-15.4 13-31.6 25.4-48 37l7.6 10.8c16.6-11.8 33.2-24.6 48.8-37.8zm-455 294.2v13.2c85.4 0 169.6-12.8 250.4-37.6l-3.8-12.6c-79.6 24.4-162.6 37-246.6 37zm375.8-185.6c-76.2 44-158.6 74.2-245.2 89.4l2.2 13c88.2-15.4 172-46 249.6-91l-6.6-11.4zm80.2-186c9.8-9.6 19.4-19.4 28.6-29.6l-9.8-8.8c-6.2 7-12.6 13.6-19.2 20.4-24.8 25.4-51.8 48.8-80.2 69.6l7.8 10.6c25.6-19 50-39.8 72.8-62.2zm20 20c10.2-9.8 20-20 29.4-30.6l-9.8-8.8c-6.6 7.2-13.2 14.4-20.2 21.4-25.8 26.4-54 50.8-83.6 72.4l7.8 10.6c27-19.6 52.6-41.4 76.4-65zm-271.8-1384c89.8 20.4 175.8 54 255.8 100.2l6.6-11.4c-81-46.8-168.4-81-259.4-101.6l-3 12.8zM959.5 0l.5 10.1c83.2 0 165.6 10.8 245.2 32l3.4-12.8C1152.9 14.4 1095.7 4.6 1037.9 0h-78.4zm793.7 959.9c0-23.2-1-46.6-3-69.4l-13 1.2c2 22.6 3 45.6 3 68.4 0 68.4-8.8 136.2-26.2 201.6l12.6 3.4c17.8-66.8 26.6-135.8 26.6-205.2zm-856-947.8L896.5 0h-13.6c-16.3 1.2-32.8 2.9-49.1 5.1l1.6 13c20.4-2.6 41.2-4.8 61.8-6zM688 79.1c87.6-27 179-40.8 271.6-40.8V25.1c-94 0-186.6 14-275.4 41.4l3.8 12.6zM447.6 317.7l8.2 10.2c63.4-50.6 133.4-91.2 208.6-120.6l-4.8-12.2c-76.4 29.8-147.6 71.2-212 122.6zm-35.2-44.2l8.2 10.2c67.8-54 142.8-97.6 223.2-129.2l-4.8-12.2c-81.8 32.2-158 76.2-226.6 131.2zm17.6 22l8.2 10.2c65.6-52.4 138.2-94.4 215.8-125l-4.8-12c-79 31-152.8 73.8-219.2 126.8zm139.8-11.2c79-45.8 164.6-77 254.4-92.8l-2.2-13c-91.4 16-178.4 47.8-258.8 94.2l6.6 11.6zm1015 58.8l-4.2-4.2-4.2-4.2c-37.6-37.2-78.6-71-122.4-101l-7.2 11c44.8 30.6 86.6 65.4 124.8 103.6 7.6 7.6 15 15.2 22.2 23l9.6-9c-6-6.6-12.2-13-18.6-19.2zm7.2 112.6c50.6 63.4 91.2 133.4 120.6 208.6l12.2-4.8c-30-76.2-71.2-147.6-122.6-212l-10.2 8.2zm43.6 114c45.8 79 77 164.6 92.8 254.4l13-2.2c-16-91.4-47.8-178.4-94.2-258.8l-11.6 6.6zm-855 1178.6c-78.8-17.8-154.2-47.4-224.4-88l-6.6 11.4c71.2 41.2 148 71.2 228 89.4l3-12.8zM1415 291.5c42 28.6 81 61.2 116.8 97 7 7 14 14.2 20.8 21.4l9.6-9c-5.6-6-11.2-11.8-17-17.8l-4.2-4.2c-1.4-1.4-2.8-3-4.4-4.4-35.2-34.6-73.4-66.2-114.2-94l-7.4 11zm16-23.4c43.2 29.4 83.4 62.8 120.2 99.8 7.4 7.4 14.8 15 22 22.8l9.6-9c-5.8-6.2-11.8-12.4-17.8-18.4-1.6-1.6-3.2-3.2-4.8-4.6l-3.8-3.8c-36.4-36-76-68.6-118.4-97.6l-7 10.8zm39 1299.4l-8.4-10c-17.2 14.6-35.4 28.4-54 41.4l7.6 10.8c18.8-13.2 37.2-27.4 54.8-42.2zM583.8 308.7c76.2-44 158.6-74.2 245.2-89.4l-2.2-13c-88.2 15.4-172 46-249.6 91l6.6 11.4zm-80.2 186c-9.8 9.6-19.4 19.4-28.6 29.6l9.8 8.8c6.2-7 12.6-13.6 19.2-20.4 24.8-25.4 51.8-48.8 80.2-69.6l-7.8-10.6c-25.6 19-50 39.8-72.8 62.2zm456-343.2v-13.2c-82.6 0-164 12.2-242 36.4l3.8 12.6c76.8-23.8 157-35.8 238.2-35.8zm-473.2 244l8.4 10c16-13.4 32.8-26.4 50-38.4l-7.6-10.8c-17.4 12.4-34.6 25.6-50.8 39.2zm-18.2-21.6l8.4 10c16.6-14 34.2-27.4 52-40l-7.6-10.8c-18 12.8-35.8 26.6-52.8 40.8zm15.4 100.8c-10.2 9.8-20 20-29.4 30.6l9.8 8.8c6.6-7.2 13.2-14.4 20.2-21.4 25.8-26.4 54-50.8 83.6-72.4l-7.8-10.6c-27 19.6-52.6 41.4-76.4 65zm21-57.4l8.4 10c15.4-13 31.6-25.4 48-37l-7.6-10.8c-16.6 11.8-33.2 24.6-48.8 37.8zm455-294.2v-13.2c-85.4 0-169.6 12.8-250.4 37.6l3.8 12.6c79.6-24.4 162.6-37 246.6-37zm179.8 48.4c78.8 17.8 154.2 47.4 224.4 88l6.6-11.4c-71.2-41.2-148-71.2-228-89.4l-3 12.8zm19-82.8c87 19.8 170.4 52.4 247.8 97.2l6.6-11.4c-78.6-45.4-163.2-78.6-251.6-98.6l-2.8 12.8zM774.2 1775.9c-81.6-18.4-159.6-49-232.2-91l-6.6 11.4c73.6 42.6 153 73.6 235.8 92.4l3-12.8zM1518 396.1c-48.4-47.8-102.4-89.4-161.6-123.6l-6.6 11.4c57.6 33.4 110.4 73.6 157.6 120l1.6 1.6 7 7 9.2-9.2-4.4-4.4c-1-1-2-1.8-2.8-2.8zm-372.2-252.2c81.6 18.4 159.6 49 232.2 91l6.6-11.4c-73.6-42.6-153-73.6-235.8-92.4l-3 12.8zm6.2-27.6c84.2 19.2 165 50.8 240 94l6.6-11.4c-76.2-44-158.2-76.2-243.6-95.4l-3 12.8zm362.2 378.4c13.4 16 26.4 32.8 38.4 50l10.8-7.6c-12.2-17.4-25.4-34.6-39.2-51l-10 8.6zM384 1443.3c-14-16.6-27.4-34.2-40-52l-10.8 7.6c12.8 18.2 26.4 36 40.6 52.8l10.2-8.4zm-21.6 18.2c-14.6-17.2-28.4-35.4-41.4-54l-10.8 7.6c13.2 18.8 27.4 37.2 42.2 54.8l10-8.4zm43.4-36.4c-13.4-16-26.4-32.8-38.4-50l-10.8 7.6c12.2 17.4 25.4 34.6 39.2 51l10-8.6zm355.8 406c-87-19.8-170.4-52.4-247.8-97.2l-6.6 11.4c78.6 45.4 163.2 78.6 251.6 98.6l2.8-12.8zm6.4-27.6c-84.2-19.2-165-50.8-240-94l-6.6 11.4c76.2 44 158.2 76.2 243.6 95.4l3-12.8zm-365.8-279.8c48.4 47.8 102.4 89.2 161.6 123.4l6.4-11.2c-57.6-33.4-110.4-73.6-157.6-120l-1.6-1.6c-2.4-2.4-4.8-4.6-7-7l-9.2 9.2 4.4 4.4c1 1 2 2 3 2.8zm-69-201.8c-42.4-73.4-71.4-152.8-86-236l-13 2.2c14.8 84.8 44.4 165.8 87.6 240.4l11.4-6.6zM439 439.1l-3 3c-44.4 44.8-82.6 95-114.4 149.8l11.4 6.6c30.8-53.4 68-102.2 111-145.8l1.4-1.4 7.2-7.2-9.2-9.2c-1.4 1.2-3 2.6-4.4 4.2zm-20-20l-4 4c-45.6 46.4-85.2 98.2-118 154.8l11.4 6.6c32.2-55.6 71-106.4 115.6-152l.6-.6c2.6-2.6 5.2-5.4 8-8l-9.2-9.2-4.4 4.4zm-110.2 917c-44-76.2-74.2-158.6-89.4-245.2l-13 2.2c15.4 88.2 46 172 91 249.6l11.4-6.6zm-41.4-627.8l12.4 4.4c7.2-19.8 15.4-39.4 24.2-58.4l-11.8-5.6c-9.2 19.4-17.6 39.4-24.8 59.6zm182.6-356l8.4 10c17.2-14.6 35.4-28.4 54-41.4l-7.6-10.8c-18.8 13.2-37.2 27.4-54.8 42.2zm-195.8 669.6l13-1.2c-7-80.6 0-162.8 20.8-240.6l-12.6-3.4c-15.8 59.4-23.8 121-23.8 183 0 20.8.8 41.8 2.6 62.2zm-31-62c0 21.4 1 43.2 2.8 64.6l13-1.2c-7.2-84 0-169.4 21.6-250.4l-12.6-3.4c-16.4 61.8-24.8 125.8-24.8 190.4zm-205 124.6c-2.6-20.4-4.8-41.2-6-61.8l-12.2.8v12.2c1.2 16.8 2.9 33.7 5.2 50.4l13-1.6zm1596-646.4c52.4 65.6 94.4 138.2 125 215.8l12.2-4.8c-31-79-73.8-152.8-126.8-219.2l-10.4 8.2zM240.8 698.7l12.4 4.4c7.4-20.4 15.8-40.8 25-60.6l-11.8-5.6c-9.6 20.2-18 41-25.6 61.8zm1395.4-278.2c54 67.8 97.6 142.8 129.2 223.2l12.2-4.8c-32-81.6-76.2-157.8-131.2-226.6l-10.2 8.2zM1510 135.1a993.65 993.65 0 0 0-232-114.4l-4.2 12.4c80.8 27.4 157.8 65.4 229 112.8l7.2-10.8zm148.4 267.6c55.8 70 100.8 147.4 133.4 230.4l12.2-4.8c-33-84.2-78.6-162.8-135.4-233.8l-10.2 8.2zM527 82.5C603.6 44.7 685 16.9 768.6.3l-.1-.3h-57.4A981.34 981.34 0 0 0 521 70.7l6 11.8zm685.6-67.8l3.4-12.6c-2.7-.7-5.3-1.4-8-2.1h-58.8c21.3 4.2 42.5 9.1 63.4 14.7zm611.2 518.8l-11.8 5.8c36.8 74.4 63.6 153.4 79.8 234.8l12.8-2.6c-16.4-82.6-43.6-162.6-80.8-238zm-143.4-148.4c57.6 72.2 104 152.2 137.6 237.8l12.2-4.8c-34.2-86.8-81-168-139.6-241.2l-10.2 8.2zM1920 896.3v-11c-1.3-17.2-3.1-34.6-5.4-51.6l-12.8 1.6c2.6 20.4 4.8 41.2 6 61.8l12.2-.8zM774.2 28.1l-2.6-12.8C689 31.7 609 58.9 533.6 96.1l5.8 11.8c74.4-36.8 153.4-63.6 234.8-79.8zm1063.2 498.8c37.8 76.6 65.6 158 82.2 241.6l.4-.1v-56.9c-16.9-65.7-40.7-129.7-70.8-190.6l-11.8 6zm-156.2-287.6l-.4-.4-.4-.4-.4-.4c-15.6-15.6-31.8-30.6-48.2-45.2l-.4-.4c-1.6-1.4-3.2-2.8-5-4.2-2.2-2-4.4-3.8-6.6-5.8-.8-.6-1.6-1.4-2.4-2-.8-.8-1.8-1.4-2.6-2.2l-7.2-6c-.8-.6-1.6-1.2-2.2-1.8-1-.8-1.8-1.4-2.8-2.2-2.2-1.8-4.4-3.4-6.4-5.2-5.2-4.2-10.6-8.4-16-12.6l-8.2 10.4c8.4 6.4 16.6 13 24.8 19.8.4.2.6.6 1 .8l10.2 8.4c.8.8 1.8 1.4 2.6 2.2 1.8 1.6 3.6 3.2 5.4 4.6.6.6 1.2 1 2 1.6 18.2 15.8 36 32.2 53 49.4 3.2 3.2 6.4 6.6 9.6 9.8 58.4 59.8 109 126.6 150.8 198.8l11.4-6.6c-44.4-76.6-98.8-147.4-161.4-210.2l-.2-.2zm-125.8-55.8c5.8 4.4 11.6 9 17.2 13.6.2.4.8 1 1.6 1.4 2 1.6 4 3.2 6.2 5l6.6 5.4c2 1.6 3.8 3.2 5.8 4.8 2.2 2 4.6 3.8 6.8 5.8 17.8 15.4 35.2 31.6 52 48.4l6.8 6.8c57.8 58.8 107.8 124.6 149 195.8l11.4-6.6c-43.2-74.6-96-143.2-157-204.4l-.6-.6-.4-.4-.4-.4c-15.2-15.2-30.8-29.8-47-43.8l-.4-.4c-1-.8-2-1.8-3-2.6-15.2-13.2-30.8-26-46.6-38.2l-8 10.4zm-1152.6 78c70-55.8 147.4-100.8 230.4-133.4l-4.8-12.2c-84.2 33-162.8 78.6-233.8 135.4l8.2 10.2zM25.2 960.3c0 94 14 186.6 41.4 275.4l12.6-3.8c-27-87.6-40.8-179-40.8-271.6H25.2zm23.2-207.8l12.8 3c20.4-89.8 54-175.8 100.2-255.8l-11.4-6.6c-46.8 81-81 168.4-101.6 259.4zm160.8-419.6c1.6-2 3.4-4 5.2-6 1.4-1.6 2.8-3.2 4-4.8 16-18.6 32.8-36.8 50.2-54.2 3.4-3.4 6.8-6.6 10.2-10l4.4-4.4c4.6-4.4 9.2-8.6 13.8-13 53-48.8 111.2-91.8 173.6-128l-6.6-11c-74.4 43-143 95.8-204 156.6l-.4.4-.6.6-.4.4c-15.2 15.4-30 31.2-44.4 47.4-14.2 16.2-28 33-41.2 50.2l10.4 8c8.4-10.8 17-21.6 25.8-32.2zM0 711.6v60.6c4.2-21.8 9.2-43.5 15-64.9l-13-3.4c-.7 2.6-1.3 5.1-2 7.7zm0 172.3v76.5l10.2-.5c0-83.2 10.8-165.6 32-245.2l-12.6-3.4C14.5 767.6 4.6 825.4 0 883.9zm27.8 6.6l13 1c1.6-23 4.2-46 7.6-68.4l-13-2c-3.2 22.8-5.8 46.2-7.6 69.4zm80.2 490c-36.8-74.4-63.6-153.4-79.8-234.8l-12.8 2.6c16.4 82.6 43.6 162.6 80.8 238l11.8-5.8zM379.4 378.7l-4.4 4.4c-34.6 35.2-66.2 73.4-94 114.2l10.8 7.4c28.6-42 61.2-81 97-117 7-7 14-14 21.4-20.6l-9-9.6c-6.2 5.8-12 11.6-17.8 17.2-1.4 1.4-2.6 2.8-4 4zm-16-23.8c-1.6 1.4-3.2 3-4.6 4.6l-3.8 3.8c-36 36.4-68.6 76-97.6 118.4l10.8 7.4c29.4-43.2 63-83.4 99.8-120.4 7.4-7.4 15-14.8 22.6-22l-9-9.6c-6 5.8-12.2 11.6-18.2 17.8zm-20-20l-4.2 4.2-4.2 4.2c-37.2 37.6-71 78.6-101 122.4l10.8 7.4c30.6-45 65.4-86.6 103.8-125 7.6-7.6 15.2-15 23-22.2l-9-9.6c-6.6 6-13 12.2-19.2 18.6zm1551.4 624.6c0-94-14-186.6-41.4-275.4l-12.6 3.8c27 87.6 40.8 179 40.8 271.6h13.2zM323.2 314.9l-8.4 8.4c-5.4 5.4-10.6 11-15.8 16.4v-.2c-1 1-2 2-2.8 3l-.4.4c-2.8 3-5.6 6-8.4 9.2-1 1.2-2.2 2.4-3.2 3.4-2.4 2.8-4.8 5.6-7.4 8.4-1.4 1.6-2.6 3-4 4.6s-2.6 3.2-4 4.8c-20.8 24.4-40.4 50-58.6 76.6l10.8 7.4c20.2-29.6 42.2-58 65.8-84.8.4-.6 1-1.2 1.4-1.6 14-16 28.8-31.6 43.8-46.6 6.4-6.4 13-12.8 19.8-19l-9-9.6c-6.2 6.2-13 12.6-19.6 19.2zM88.8 761.7c19.8-87 52.4-170.4 97.2-247.8l-11.4-6.6C129.2 585.7 96 670.3 76 758.7l12.8 3zm214.4-467l-8.2 8.2c-10.6 11-21 21.8-31 33l-.2.2c-3.6 4-7 8-10.6 12l-1.2 1.2c-2.8 3.2-5.4 6.4-8 9.6-20.2 24-39.2 48.8-56.8 74.8l10.8 7.6c20.8-30.4 43.2-59.4 67.4-87.2.8-1 1.6-1.8 2.4-2.8 4-4.6 8.2-9.2 12.4-13.8.6-.6 1.2-1.4 1.8-2 4.4-4.8 9-9.6 13.6-14.4 1-1 2-2.2 3.2-3.2 4.6-4.6 9-9.2 13.6-13.8 6.8-6.8 13.6-13.4 20.6-19.8l-9-9.6c-7 6.6-14 13.2-20.8 20zm1191.2-136c-70-46.8-146-84.2-225.4-111.2l-4.2 12.4c78.4 26.6 153.2 63.4 222.4 109.6l7.2-10.8zm-1210 1191.4c-45.8-79-77-164.6-92.8-254.4l-13 2.2c16 91.4 47.8 178.4 94.2 258.8l11.6-6.6zm471 508.6c-89.8-20.4-175.8-54-255.8-100.2l-6.6 11.4c81 46.8 168.4 81 259.4 101.6l3-12.8zM328 1464.1c-50.6-63.4-91.2-133.4-120.6-208.6l-12.2 4.8c30 76.2 71.2 147.6 122.6 212l10.2-8.2zm177 164.2c-42-28.6-81-61.2-117-97-7-7-14-14-20.6-21.4l-9.6 9c5.6 6 11.2 11.8 17 17.8 1.4 1.4 2.8 2.6 4 4l4.4 4.4c35.2 34.6 73.4 66.2 114.2 94l7.6-10.8zm-170-51.8l4.2 4.2 4.2 4.2c37.6 37.2 78.6 71 122.4 101l7.4-10.8c-45-30.6-86.6-65.4-125-103.8-7.6-7.6-15-15.2-22.2-23l-9.6 9c6 6.6 12.2 13 18.6 19.2zm-174.8-369.6c-24.6-79.6-37-162.6-37-246.6H110c0 85.4 12.8 169.6 37.6 250.4l12.6-3.8zM489 1651.7c-43.2-29.4-83.4-63-120.4-99.8-7.4-7.4-14.8-15-22-22.6l-9.6 9c5.8 6.2 11.8 12.4 17.8 18.4 1.6 1.6 3.2 3 4.6 4.6l3.8 3.8c36.4 36 76 68.6 118.4 97.6l7.4-11zm-301.6-453.2c-23.8-76.8-35.8-157-35.8-238.2h-13.2c0 82.6 12.2 164 36.4 242l12.6-3.8zm-56.2-427.2l12.8 3c18.4-81.6 49-159.6 91-232.2l-11.4-6.6c-42.6 73.6-73.6 153-92.4 235.8zm9.4 127.6l13 1c1.4-20 3.8-40.2 6.6-60l-13-2c-2.8 20-5 40.6-6.6 61zm18.2-121.4l12.8 3c17.8-78.8 47.4-154.2 88-224.4l-11.4-6.6c-41.2 71.2-71.4 148-89.4 228zM84.2 894.7l13 1c1.6-21.4 4-43.2 7.2-64.2l-13-2c-3.2 21.4-5.6 43.4-7.2 65.2zM1536 476.5c14 16.6 27.4 34.2 40 52l10.8-7.6c-12.8-18.2-26.4-36-40.6-52.8l-10.2 8.4zM103.6 764.9l12.8 3c19.2-84.2 50.8-165 94-240l-11.4-6.6c-44 76.2-76.2 158.2-95.4 243.6zM1232 1840.7c-87.6 27-179 40.8-271.6 40.8v13.2c94 0 186.6-14 275.4-41.4l-3.8-12.6zm556.8-692.2l-12.8-3c-18.4 81.6-49 159.6-91 232.2l11.4 6.6c42.6-73.6 73.6-153 92.4-235.8zm-27.6-6.2l-12.8-3c-17.8 78.8-47.4 154.2-88 224.4l11.4 6.6c41.2-71.2 71.4-148 89.4-228zm-82 78.8l-12.4-4.4c-7.4 20.4-15.8 40.8-25 60.6l11.8 5.6c9.6-20.2 18-41 25.6-61.8zm156.6-196l-13-1c-1.6 21.4-4 43.2-7.2 64.2l13 2c3.2-21.4 5.6-43.4 7.2-65.2zM1521 1520.7l3-3c47.8-48.4 89.2-102.4 123.4-161.6l-11.4-6.6c-33.4 57.6-73.6 110.4-120 157.6l-1.6 1.6c-2.4 2.4-4.6 4.8-7 7l9.2 9.2c1.6-1.2 3-2.8 4.4-4.2zm295.4-365.8l-12.8-3c-19.2 84.2-50.8 165-94 240l11.4 6.6c44-76.2 76.2-158.2 95.4-243.6zM960.5 1920l-.5-10.3c-83.2 0-165.6-10.8-245.2-32l-3.4 12.8c56.5 15.1 114.6 25 173.3 29.5h75.8zm838.7-1219.3l-12.6 3.8c25.4 82.2 38.2 168 38.4 255h13.2c0-88.2-13.2-175.2-39-258.8zm-449 934.8c-79 45.8-164.6 77-254.4 92.8l2.2 13c91.4-16 178.4-47.8 258.8-94.2l-6.6-11.6zm-327.4 272.2l.8 12.3h10.8c17.3-1.2 34.6-3 51.8-5.3l-1.6-13c-20.4 2.6-41.2 4.8-61.8 6zm449.6-305.6l-8.2-10.2c-63.4 50.6-133.4 91.2-208.6 120.6l4.8 12.2c76.4-29.8 147.6-71.2 212-122.6zm17.6 22.2l-8.2-10.2c-65.6 52.4-138.2 94.4-215.8 125l4.8 12c79-31 152.8-73.8 219.2-126.8zm17.6 22l-8.2-10.2c-67.8 54-142.8 97.6-223.2 129.2l4.8 12.2c81.8-32.2 158-76.2 226.6-131.2z" fill="#748993"/></svg>