<svg version="1.1" xmlns="http://www.w3.org/2000/svg" x="0" y="0" viewBox="0 0 1920 1920" xml:space="preserve"><style type="text/css">.st1{fill:#989898}</style><path fill="#445a76" d="M0 0h1920v1920H0z"/><path d="M253 551l1241 1125M1751 93l-257 1583m-82-1021l82 1021m-956-603l956 603m304-256l-304 256M1150 44l344 1632M834 968l660 708M1334 306l160 1370M1213 482l281 1194m133-1142l-133 1142M488 106l1006 1570m-923-184l923 184M584 982l910 694m-511 94l511-94m-284-727l284 727M254 169l1240 1507m-809-209l809 209M19 113l1475 1563m-712-663l712 663M1233 221l261 1455M115 1257l1379 419M381 1466l1113 210m-11-1054l11 1054M587 397l907 1279M842 907l652 769m-206-411l206 411M318 1813l1176-137m-146-175l146 175m-913-644l913 644m94-1310l-94 1310m104-749l-104 749m-864-663l864 663M825 330l669 1346M160 874l1334 802M1647 68l-153 1608M462 892l1032 784m146-700l-146 700M1062 244l432 1432m-793-381l793 381m-842 130l842-130m357 134l-357-134M45 1610l1449 66M895 881l599 795M276 1487l1218 189m363-334l-363 334m367-622l-367 622m-442 5l442-5m-975 171l975-171m35-931l-35 931m-902-465l902 465M169 963l1325 713M278 542l1216 1134m3-376l-3 376m86 152l-86-152m176-1004l-176 1004M334 170l1160 1506m-51-1090l51 1090m9-427l-9 427m-186-691l186 691m-21-54l21 54M637 248l857 1428m335 171l-335-171m-1307-34l1307 34m130-950l-130 950m-46-1356l46 1356m296-923l-296 923m73-1378l-73 1378m-179-794l179 794M688 185l806 1491m216-1219l-216 1219m414-561l-414 561M819 63l675 1613M229 1571l1265 105m85-1274l-85 1274m94-1277l-94 1277M29 804l1465 872M755 105l739 1571M69 488l1425 1188m-768 179l768-179M324 502l1170 1174M391 1311l1103 365M1842 62l-348 1614m121-1046l-121 1046M940 460l554 1216" fill="none" stroke="#989898" stroke-width="2"/><circle class="st1" cx="1494" cy="1676" r="9"/><circle class="st1" cx="1647" cy="68" r="10"/><circle class="st1" cx="488" cy="106" r="9"/><circle class="st1" cx="1288" cy="1265" r="7"/><circle class="st1" cx="274" cy="293" r="7"/><circle class="st1" cx="1052" cy="1681" r="10"/><circle class="st1" cx="1908" cy="1115" r="8"/><circle class="st1" cx="800" cy="1001" r="5"/><circle class="st1" cx="1163" cy="1543" r="7"/><circle class="st1" cx="571" cy="1492" r="8"/><circle class="st1" cx="983" cy="1770" r="9"/><circle class="st1" cx="1588" cy="366" r="8"/><circle class="st1" cx="1483" cy="622" r="7"/><circle class="st1" cx="1707" cy="927" r="5"/><circle class="st1" cx="253" cy="551" r="6"/><circle class="st1" cx="1136" cy="1604" r="9"/><circle class="st1" cx="1798" cy="1420" r="8"/><circle class="st1" cx="187" cy="1642" r="5"/><circle class="st1" cx="1239" cy="461" r="7"/><circle class="st1" cx="1779" cy="1851" r="9"/><circle class="st1" cx="625" cy="576" r="10"/><circle class="st1" cx="688" cy="185" r="9"/><circle class="st1" cx="584" cy="982" r="9"/><circle class="st1" cx="160" cy="874" r="6"/><circle class="st1" cx="1588" cy="399" r="7"/><circle class="st1" cx="45" cy="1610" r="10"/><circle class="st1" cx="1861" cy="1054" r="8"/><circle class="st1" cx="1497" cy="1300" r="10"/><circle class="st1" cx="278" cy="542" r="9"/><circle class="st1" cx="1770" cy="70" r="7"/><circle class="st1" cx="1598" cy="927" r="7"/><circle class="st1" cx="140" cy="292" r="9"/><circle class="st1" cx="592" cy="1211" r="6"/><circle class="st1" cx="1473" cy="1622" r="6"/><circle class="st1" cx="1790" cy="753" r="6"/><circle class="st1" cx="1829" cy="1847" r="10"/><circle class="st1" cx="1348" cy="1501" r="5"/><circle class="st1" cx="581" cy="1032" r="8"/><circle class="st1" cx="701" cy="1295" r="7"/><circle class="st1" cx="587" cy="397" r="7"/><circle class="st1" cx="1857" cy="1342" r="7"/><circle class="st1" cx="1150" cy="44" r="9"/><circle class="st1" cx="842" cy="907" r="7"/><circle class="st1" cx="1751" cy="93" r="9"/><circle class="st1" cx="1210" cy="949" r="6"/><circle class="st1" cx="637" cy="248" r="6"/><circle class="st1" cx="1851" cy="1810" r="8"/><circle class="st1" cx="755" cy="105" r="7"/><circle class="st1" cx="1233" cy="221" r="6"/><circle class="st1" cx="1443" cy="586" r="8"/><circle class="st1" cx="391" cy="1311" r="5"/><circle class="st1" cx="69" cy="488" r="9"/><circle class="st1" cx="276" cy="1487" r="7"/><circle class="st1" cx="1627" cy="534" r="6"/><circle class="st1" cx="73" cy="699" r="10"/><circle class="st1" cx="169" cy="963" r="10"/><circle class="st1" cx="1579" cy="402" r="10"/><circle class="st1" cx="19" cy="113" r="5"/><circle class="st1" cx="685" cy="1467" r="6"/><circle class="st1" cx="115" cy="1257" r="8"/><circle class="st1" cx="819" cy="63" r="7"/><circle class="st1" cx="519" cy="1847" r="6"/><circle class="st1" cx="825" cy="330" r="10"/><circle class="st1" cx="324" cy="502" r="6"/><circle class="st1" cx="1503" cy="1249" r="6"/><circle class="st1" cx="1580" cy="1828" r="6"/><circle class="st1" cx="1615" cy="630" r="6"/><circle class="st1" cx="334" cy="170" r="9"/><circle class="st1" cx="1443" cy="1615" r="5"/><circle class="st1" cx="1448" cy="320" r="6"/><circle class="st1" cx="782" cy="1013" r="10"/><circle class="st1" cx="652" cy="1806" r="5"/><circle class="st1" cx="254" cy="169" r="8"/><circle class="st1" cx="1640" cy="976" r="6"/><circle class="st1" cx="940" cy="460" r="10"/><circle class="st1" cx="726" cy="1855" r="5"/><circle class="st1" cx="1567" cy="298" r="6"/><circle class="st1" cx="1757" cy="516" r="6"/><circle class="st1" cx="1670" cy="672" r="6"/><circle class="st1" cx="1529" cy="745" r="5"/><circle class="st1" cx="630" cy="1013" r="6"/><circle class="st1" cx="1308" cy="985" r="5"/><circle class="st1" cx="1842" cy="62" r="10"/><circle class="st1" cx="1315" cy="882" r="8"/><circle class="st1" cx="1412" cy="655" r="6"/><circle class="st1" cx="1710" cy="457" r="6"/><circle class="st1" cx="462" cy="892" r="6"/><circle class="st1" cx="29" cy="804" r="7"/><circle class="st1" cx="318" cy="1813" r="9"/><circle class="st1" cx="1062" cy="244" r="10"/><circle class="st1" cx="274" cy="1047" r="6"/><circle class="st1" cx="1334" cy="306" r="5"/><circle class="st1" cx="895" cy="881" r="8"/><circle class="st1" cx="1213" cy="482" r="10"/><circle class="st1" cx="538" cy="1073" r="7"/><circle class="st1" cx="229" cy="1571" r="5"/><circle class="st1" cx="834" cy="968" r="6"/><circle class="st1" cx="1624" cy="726" r="8"/><circle class="st1" cx="381" cy="1466" r="6"/><circle class="st1" cx="1896" cy="494" r="6"/></svg>