<svg version="1.1" xmlns="http://www.w3.org/2000/svg" x="0" y="0" viewBox="0 0 1920 1920" xml:space="preserve"><style type="text/css">.st1{fill:#989898}</style><path fill="#445a76" d="M0 0h1920v1920H0z"/><path d="M565 951l-43-11m367 868l-74-196m-226-289h-43m886 411l-37-4M32 114l-6-39m702 1148l-139 100m638-711l-12-54m572 145l-62-39M92 999l-14-18m1558-490l-24 1m-12-54l-6 159M175 1490l-23-57m-22-851l-62 69m523 162l-60-1m-322 638l-25 177M348 326l-169-27m385 1254l-38 24m887-1337l-19-20m-122 684l-137-27m358 293l-13-11m-280-737l-7-145m586 1467l-27-125m-299-924l-172 23m-656 15l-39 3m-461 75l-11 182m1764 548l-8-4M906 726L790 619M626 423l-10-11m419 472l-11-8M771 602l-34-30m685-436l-23-83M383 906l-113 128m1159-818l-16 24M118 665l-50-14m983 308l-3 8M496 165L348 326m198 997l-51 16m95-262l-136 9M1304 32l-71 145m498-102l-34 14M748 1744l-30-38M60 108L26 75m1507 1833l-212-128m533-153l-69 111m-380-921l-133 87m4-12l-9-39M201 1243l-24-19m1219-866l-46 27M941 29l-4-8m790 713l-2-70M78 890l-54 43M1454 9l-55 44M669 1257l-105-93m558-783l-43 7m743 483l-93 128M435 1496l-1-90m859-73l-53 33m-873-322l-6 11m277 494l-38 1m-385-132L30 1276m521-379l-29 43m689-928l-10 13m622 652l-36 26M273 1413l-37 153M344 364l-164-50m-5 1176l-75-135M73 25L26 75m1365 1415l-15 31M184 1627L82 1771m469-874v19m1187 733l-27 115M1426 182l-27 35m10 1260l-18 13m-502 318l-213 34m862-896l-15-13m-265 238l-186-83M733 146v24M191 869l-30 17m14 604L59 1699m1658-436l-18 152m161 274l-50 155M1225 400l-25 22m81 296l-66-160m676 557l-113-184m-618 890l-11-222m-906-16l-7-17m482 140l-148-75m530-148l-73-16m-695-15l-10-43m704-169l-107-171m967-989l-40 34M791 825l-53 48m893-248l-37-28m-83 134l-64-11m-431 938l-65-183m154-130l-65 7m95-475l-46 1M118 665l-41-32m1023 850l-145-128m180-478l-20-49m191 540l-48-197m85-915l-184 16M950 877l-31 192M937 21l-41-2m522 1541l-129 108m-580-637l-3 13m-416 273l-55-177m1216 262l-145-34M227 235L85 324m282 720l-36-10m948 248l-51-22M1100 145l-166 22m794 1243l-15 15M34 1126l-10 81m673-785l-85-148M213 887l-66 154m1285 693l-138-94m349-653l-164-4m140-204l-20-25m-943 398l-84 110m404-582l-105-30m169 702l-179-107m334-227l-50-11m-441 153l-114-83m836-895l-4-46M711 1806l-35 36m43-727l-15 45m384 567l-199 81m286-1311l-60 4m195 96l-104 131M332 145l-41 184m673-43l-15-168m265 727l-19 173m-157-468l-193 30m774 199l-12 83M551 897l-162 73m869 201l-1-52m-97 702l-144-163m798 11l-42-143m-514-355l-40 20M289 770L170 902m1136-93l-18 31m-173-12l-64-23M227 235L32 114m1088 23l-20 8M612 1209l-3-29M508 993l-141 51m129-879l-164-20m1458 891l-20 46M219 498l-14 50m952-85l-33-20M77 633l-9 18m1392-246l-47-165m369 1313l-9 126m-65-1103l-23-135M69 120L26 75m1250 817l-4 12M262 129L60 108m520 358L441 588m404-8l-189 58m-215-50l-8-35M243 1583l-3-37m1354-479l-45-57m-414-133l-18 33m591-334l-25-6M595 1168l-49 155m682-63l-202-20M917 907l-179-34m844 921l-192 19M167 738l-26-208m-57 873l-16 6m1089-946l-115 94m-80 448l-13 62m702-598l-1 32m-583 1175l-126 155m514 36l-23 12M909 295l-80-156m40 187l-32-14m640 117l-103 178m203 803l-168-1m-236 106l-106 161m351-116l-30 1m-148-195l-167-12m16-476l-154-45M84 1403l-48 1m1127-699l-121-148m710 1062l-30 1M442 167l-180-38m908 312l-13 22m564 970l-72 145m-486-873l-32 5M554 1878l-72-48m991-837l-106-108m450-465l-10-40m-408-163l-5 3M270 1034l-26 4m1009-186l-104 122m-174 399l-20-18m552-232l-15-144m-452 373l-65 21m166 157l-190-55m-361-398l-29 38m1217-184l-8 151m-85-641l-20-37m-956 627l-144-80m1146 813l-37-16M36 1404l-2 2m25 293l-18 27M1293 391l-145-56M383 906l-170-19m109 522l-9-39m-181-14L15 1549m229-511l-67 186m1272-642l-66-165m0 0l-40-161m543-176l-114 161m96 424l-83-174M231 1171l-30-22m1225-967l-93 129M573 764l-42 48m1307-682l-210-84M728 1223l-156 39M185 758L78 890m1139 438l-117 155M917 907l-20 14m831 489l-92 131m-262-934l-159-49m-481 452l-28 34m31-472L620 466m401-393l-192 66m163-39l-133 28m1032 987l-34-28M324 1741l-140-114M612 274l-66-40m682 1026l-17-37M895 176l-33 33m-72 410l-19-17m642-362l-142 101M912 1840l-28 3m65-776l-88 178m349 558l-50 18m-120-469l-85 3m481-613l-38 172m-331 762l-61 190m409-261l-125-104M278 260l-51-25m1664 880l-162-116m-812-92l-138 140m-411 107l-66-3m-13-381l-155 87m1654-678l-138 118m-139 434l-137-124M951 737L845 580m-298 662l-32 29m1394-378l-53-45m-148-272l-96-84M78 981l-54-48m1408 801l-148 18m-167-842l-28-32m-321 355l-36-44m2-179l-17-29m446-276l-187-25m673 898l-1 37m-491-105l-16 20m-750-447l-156 57m502-568l-52-149m714-370l-12-11M845 580l-65 175m435-197l-33-157M551 916l-29 24m-375 101l-33-48m617-238l-28-26m494 858l-24 61m-904-207l-15 33m755-1197l-45 9M142 720L24 933m1793-513l-47 148m-263 555l-14 47m296 631l-16-122m-467-870l-39 44m-649 197l-28 27m1144 323l-157 10M1009 277l-147-68m952 1460l-25 132M30 1276l-6-69m1135-935l-80 116M885 1429l-60 16m-501 296l-50 23M1343 256l-10 55m-197 694l-187 62m911 622l-23 35M1120 137l-3 9M595 1357l-49-34m624-882l-71-140m182 770l-9-167M703 729l-36 187m381-668l-27-175M177 1224l-5-41m1506-185l-140-52m-564-71l-24 2m637-671l-161-24m-305 1517l-54-23m103-1235l-117-103M791 825L662 682M357 134L227 235m484 1571l-172-99m676-1149l-72-132m5-35l-26-10m269 1109l-85-122m586-662l-32-42M59 1699l-40 18m1150-434l-7-61m-394 11l-173-65m712 92l-28 22m5 470l-28 3m516-9l-61 18m-204-641l-27 36m229-412l-1-171M125 811l-30 17m1438 1080l-3-93M1374 189l-77-133M350 344l-170-30m476 838l-123 72m87-1072l-53-31m88 846l-147 26m764-89l-127 103m715-343l-4 184m-122 552l-135-103M443 606l-2-18m1419 1101l-78-136m-524-382l-63-153m6-993l-180 48m757 858l-43 18m-455 805l-107-106m478-1179l-51-31M198 231l-19 68m477 853l-109 90m-215 210l-157 38m87-1361l-55 18m1387 450l-83 134m-305-3l-71 149m-876 393l-58-27m1075-351l-159 18m511 192l-34-35m-873 267l-57-39m-210-209l-91-112m931 666l-5 28m-999-351l-89-168M78 981l-22 34m1346 620l-11-145m-1148 93l-228-34M1117 146l-17-1m283 272l-160-59m-108 470l-20-12m-392-87l-24-189m536 18l-9 170m-848 59l-173-29m1158-502l-50 135m561 1236l-116 22m-444-9l-21 20m-727-337l-143-68m494-334l-163 89m-237-50l-130 84m774 486l-41-47M350 344L219 498m1106-117l-177 10m587 558l-6 50m-1023 45l-141-93m132 618l-59-20M125 811L78 981m1039-835l-7 17m-726 914l-1-171m-206 318l-30-183m142-271L161 886m630-61l-57 185m-252 820l-149-181M1806 16l-219 190m-341 363l-115 141m159 791l-190-18m800-142l-183-78m100-843l-152-16m192 652l-20 8M728 1223l-90-140M207 147l-156 8m1817 510l-8-1M669 1257l-136-33m1117-723l-14-10m-615 1394l-80-54m846-1128l-104-133m217 771l-26-7M161 886L56 1015m1726 538l-48-153M65 1358l-35-82m1840 261l-149-104m96-1013l-105 119M289 770l-64-8m975-340l-30 19m-21 533l-125-98m798 856l-84-83M734 1010l-163-88m1243 747l-41 10M665 1206l-24 40M180 314l-43 12M69 120l-30 18m1092 572l-180 27m247 111l-35-143M471 1793l-197-29m1158-30l-139 95M291 329l-186 64m1044 581l-4 33m268-767l-30 177m-664 698l-34-11M513 14l-60 13m-10 1624l-86 25m-185-493l-40 173m629 488l-37 14M608 501l-167 87m1332 1091l-108-64M1120 137l-111 140m-707 874l-8-47m1313 92l-18 32M443 1651l-114 163m511-800l-49-189M640 146l-172 69M177 1224L42 1341m401 310l-37-24M207 147l-27-19m1132 1734l-19-33m-342-354v-35m-713 441l-59-28m1555-453l-13 33M180 314l-1-15m1658 1425l-99-75m-265-656l-58 146m187-998l-19 33M468 215l-56 41m349 1588l-50-38M1726 519l-14 20m133 935l-6 17M290 1317l-31-47m1611 267l-142-127M1399 53l-198-28M207 147l-168-9m1127 1674l-6 9M180 314L9 298m1079 1429l-21-51m184-124l-54 35m-884-217l-181-14m988-1219l-10 26M435 1496l-31-65m796-548l-2-35m-795 407l-101-104m639 680l-217 27m552-966l-106-126M963 558l-173 61m55-39l-166-40m1109-361l-16 62M565 951l-93 90m1329-743l-29-57m88 423l-31-5M1211 12l-19 19M39 270L9 298m1805 1371l-103 95m-209-483l-27-44m385 452l-46-20m-146-790l-130 67m11-70l-144-59M641 190l-19-13M254 1474l-79 16M633 431l-7-8m1147 1256l-14 18M372 104L181 72m1676 1015l-128-88M616 360l-4-86m-65 968l-110-86m1250-701l-2-14m-999 934l-86 175m106-506l-21 60m515-221l-69-173m519-209l-38-9M572 1262l-25-20M92 999l-36 16m91 26l-36-69m1364-238l-39 8m230 643l-11-38M1021 73l-24 11m-790 63l-27 167m1034 531l-16 3M193 760l-8-2m68-740L60 108m1305 1305l-137-153m527-520l-46 7M147 1041l-13-184m-38 652l-81 40m160-59l-139-86m218 70l-82 160m747-565l-210-38m709 529l-53-147m346 351l-30-13m-208-758l-10 39m-303 789l-18-26m64-1067l-36 38m626 581l-11-66m-208 129l-50 20m-206 350l-37-28m296-390l-3 48M1192 31l-200 69m423 1505l-13 30m16-75l-3 45m429-1030l-119 89m-900 781l-24 63m316-1362l-168-28M42 1341l-12-65m1699-277l-135 68M346 494l-205 36m1436 880l-161 35m-15 33l-10 12m-298-942l-51 9m815 499l-15-27M24 1207l-3-65m457 204l-165 24M253 18L26 75m52 789l-54 69M1229 52l-28-27M262 129L26 75m1134 1746l-219 10m926-142l-53-20M733 146L513 14m604 132L998 10M732 1189l-28-29m536 206l-22-175m-98-1054l-171-19m266 440l-15-136m-99-18l-8 29M313 1587l-45-18M567 121l-13 31m568 229l-21 23m-792 605l-78 162m-33-940l-18 83m1353 1594l-78-41m299-406l-41-36m-63-1128l-41 58M290 1317l-36 157M1201 25l-9 6m-17 466l-18-34M201 680l-34 58m98-242l-46 2m1232 904l-122 97m461-463l-29-18m-387-411l-64-10m106 848l-1 160m4-1275l-3-41M85 324L32 114m1814 0l-8 16m-244 937l-114 92m-75-342l-152 35m-689 312l-18 159m743-277l-140-72m-82 702l-51-18m393-249l-32-17M1192 31l-34 206M167 738L78 890m365 761l-6-33M344 342L219 498m8-263L60 108m769 1552l-14-48m302-702l-2 29m-945-37l-3-164m1246 145l-8-66M1192 31l-171 42M721 1334l-35 41m896 419l-187-45m-852-124l-17-48m722-730l-50 1m574 678l-8 19M1396 358l-22-169m-168 539l-44 47m-894 794l-28-23m1174-21l-38-4m491 168v5m-431-952l-23 141m-116-561l-26 19m-114 122l-104-125m-332 996l-175-11m-272 441l-38-198m1173-669l-4-80m-232 831l-24-49m576-935l-45 1m-851 995l-42 13M468 215L453 27m872 354l-32 10M565 951l-14-35M1872 36l-66-20m-533 1350h-33m-554-191l-30-23m-86 479l-44-54m803-78l-21 153M125 811L68 651m299 393l-132 96m367 480l-120 210m-125-154l-173-49M997 84l-5 16m519 631l-36 3M749 564l-12 8m-483 902l-70 153m1034-436l-23-173m-147-51l-86 38m906-340h-188m159-228l-22-17m-29-241l-201 27M724 1858l-13-52m446-1343l-119 87m473-463l-137 102m-134 1177l-140 117m233-1172l-62 144m460-380l-74-47m-39 604l-125 102M992 100l-163 39m570-86l-207-22m427 748l-6 4m-222 488l-151 95M289 770l-164 41m579 349l-48-8m-47 28l-63 143M372 104l-165 43m1303 1031l-30-19m-255-759l-146-12m-410 869l-4-51m1174-769l-28 25m-583 798l-59 23m238-677l-126 112m-949 734l-63-11m1222-476l-22-8M580 466l-1 70m283-327l-23-30m983 692l-113-124M711 1806l-229 24m271-487l-32-9m929-833l-14 52m151 150l-32 37M344 342l-53-13m1348 257l-21 46m-401-221l-17 11M724 1858l-74-229m1135 109l-6 6M198 231L51 155m820 495l-168 79m1080 52l-164-2M236 1566l-163-6m1757-147l-164-28m-253-502l-15 31M147 1041l-55-42m1371 738l-31-3M486 677v-8m-44 60L280 616m1138 944l-4-35m15-1309l-3-34M73 25l-13 83m1180 1258l-200-14m764-1200l-16 27M937 21l-75 188m512 398l-1-23m438-122l-33 8m-521 649l-185-31m221-697l-136 72m-453 697l-18 15m11-753l-58-9m-438 736L92 999m382-263l-32-7m-70-625l-7-23m1048 802l-146-30m458-189l-131-67m-446-206l-5 35M289 770l-63 10m328-628l-58 13m878 442l-55-167M741 1686l-23 20m894-1214l-5 11M835 1815l-117-109m1055-579l-3-45M441 588l-30 28m85-451l-85 202m908 73l-48 15M39 138l-7-24m1141 1534l-115 97m-334 113l-185-151m745 45l-111-104m278-246l-33 158m231 18l-130 95m269-270l-71-140m71-1084L1657 28m-138 1645l-6 31m-684-44l-118 146m698-397l-169-43M945 89l-83 120m50 1631l-201-34M105 393l-65 18m414 675l-29-154M73 1560l-58-11m1478-815l-46-14m64 11l-18 3m-404 144l-54 6M622 177l-2-25M205 548l-64-18m578 585l-110 65M752 158L612 274m718 178l-59 3M84 1403l-50 3m1857-291l-106 166M1021 73l-29 27m626 532l-24-35M227 235l-29-4m1132 221l-11-12m559 1101l-64 128M383 906L253 798m800-460l-22-9m576 533l-116 103m121-473l-12-54m291 677l-54-51M84 1403l-19-45m1108 157l-16-5M308 378l-17-49m1566 727v31m-19-957l-168 148m198 387l-39-6M478 1346l-16 4m796-179l-153-136m308-795l-14-23m353 1402l-14 30m-21-386l-153-40M186 729l-19 9m1326-4h-18m-229-165l-76-128M859 128l-20 51M443 1651l-169 113m96-1048l-169-36m1684-345l-74 127M526 1577l-169 99m-68-906l-36 28m681-631l-39 9m-70 1269l-103 146m611-1280l-36 11m573 1215l-56 132m-1615-2l-27-33m428-84l-36 3M383 906l-20 68m466-835l-12-18M308 649l-141 89m1123 763l-39 51m240-587l-12 18M79 116l-19-8m1419 875l-6 10M374 1478l-42-26m769-1048l-22-16m402 1033l-63 139m-9-663l-11 17m-263-37l-97-95m-705 226l-31 143m-67-11l-3 14m719 321l-55 43M372 104L227 235m393 231l-8-192m1231 162l-26-16M486 677l-12 59m1144 495l-111-108m339-1009l-23 235m-504 91l-162 23m572 536l-143-55m-94 35l-13 4M28 268L9 298m1883 408l-161 125m-525-103l-43-23m549-166l-4 37M706 1044l-41 162m826-241l-18 28m300 686l-123 21m-7-713l-151-8m-441-174l-13-23m259 364l-40-27M976 680l-70 46m523-510l-30 1M254 1474l-158 35m-28-100l-32-5m1296 46l-3 49m-134-481l-59-13M620 152h-66m1118 332l-21-15m-236 1136l-3-158m-214-599l-3 170m56 534l-151-69m-868-329l-1 17m488-56l-50 142m99-24l-159-53m-350 90l-64-47m1460-139l-69-140m-481 91l-16-157m182-423l-21 61m231 905l-30-19m198 176l-8 24M1352 198l-9 58M531 812l-46 19m127-557l-32 192m725-266l-32-28m-434 7l-10-40m789 493l-6-140m258 1045l-31-46M1229 52l-18-40M134 857l-9-46m788-653l-18 18m573 1563l-36-5m353-453l-86 134m-738 47l-10 13m319-499l-72-128m-724 177l-2 16m563-157l-86 183m833 486l-18-8M1079 388l-31-140M640 146l-20 6m763 265l-33-32m113 647l-50-149m404-463l-145 64M585 34l-72-20m215 1209l-22-179m1194 449l-30 44m-48-666l-95-137m133-70l-37 13M105 393l-48-44M1399 53l-166 124m552 1561l-13 8M1325 381l-6 59m-29 1061l-141 98m-836-12l-58-5M1273 172l-40 5M732 1189l-4 34m-246 607l-11-37m660-1007l-16 42m-394 506l-31 178m684-1323l-4 18m-120 309l-35 42m653 107l-142-146M425 932l-42-26m1509-200l-69-29M255 1582l-19-16m18-92l-122-118m1536-937l-3-15m203 261l-45 12m-391 1057l-14-174m81-759l-8 164m-1 472l-39-35m-130 378l-28 49M254 1474l-45-24m273 380l-84-21M1868 665l-156-126M859 128l-42-7m770 85l-4-32m-304 1108l-20-201M442 729l-24-33m907-315l-28-59m-679 728l-67-153m-307 250l-13 24m1554 110l-68-18M180 314L40 411M1731 75l-144 142m-279 433l-27 68m16 428l-39 25m532 730l-7-36m-543-499l-23-38M197 1608l-25 26m13-876L77 633m1640 630l-13-55M859 128L729 79m482-67l-190 61M84 1403l-60-196m1119-781l-19 17M116 98L73 25m1402 1212l-196 45m-677 338l-2-70M59 1699l-12 61M1399 53l-188-41M57 349L32 114m1364 244h-173m457 307l-169 66M179 299l-42 27m994 384l-50 22m-347 278l-2 179M551 897l-168 9m1508 209l-34-59m-444-816l-14-187m271 225l-20 19m-377-125l-156-26m7 297l-31-10M604 31l-19 3M51 155l-12-17m1220 943l-110-107m-381 259l-112-81m513 131l-69 200m707-1103l-19-201m7 689l-8-165M829 139l-31-46m1062 1596l-149 75m-594-854l-200-3m-528 63l-6-64m1396 838l-129-44m220-163l-33 187m1-1594l-236 11M631 1734l-188-83M1600 438l-129 85m-1330 7L85 324m936 1561l-15-19m802-622l-23 37M394 83l-29-2m1403 768l-39 150m-17-460l-29 31M495 1339l-17 7m184-664L531 812m843-623l-7-13M262 129l-21-49m1553 139l-22 22m-677 575l-44-11m239 696l-36-29m480-72l-21 25m-437-533l-23-40m-525 371l-7 23m1064 35l-72 144m-32 326l-7-3m-97-338l-165 37m-93-1007l-149 1m584 1020l-105 117M302 1151l-58-4m1049 186l-14-51m-555 576l-48-16m835-1111l-98 152m-842 39l-6 29m1078 36l-152-22m-826 218l-9-31m1129 129l-119 104M442 729l-59 177m1096 77l-112-98M179 299L16 355m688 805l-39 23m616-465l-75 10m-659 514l-144 13M859 128l-30 11m346 358l-53-116m596 819l-1 63m-650 413l-9 29m-784 59l-6-195m875-1143l-112-97M486 669v8m833-237l-144 57m-902 916l-239-7m1238-502l-21 35m-736 71l-148 34m1405-803l-185-35m51 954l-31 36M496 165L394 335m1400-116l-6-40M227 235L181 72m1272 623l-17 47m-41 988v19m-989-122l-73 22M1413 240l-88 141m-376 686L837 908m492 591l-39 2M950 877l-33 30m32 160l-30 2M250 634l-49 46m330 132l-148 94m922-706l-72-23m454 278l-22-51m227 302l-24-41M179 1853l-17-63M468 215l-26-48M1852 22l-46-6m-513 375l-22-50m508 1403l-57-124m-649-266l-33-2m39-964l-39 4m821-375l-55-1M919 1069l-200 46m-522 493l-13 19m134 112l-44 25M201 680l-15 49m1586 797l-34 123M791 825l-11-70m41 914l-34 4m580-969l-86 14m-181-573L937 21M130 582l-25-189m65 967l-38-4m346-10l-36-35M1021 73l-2-1m519 874l-39-145M917 907l-39 25M280 616l-95 142m-53 598l-67 2m237-207l-125 73m742-155l-27 10m-384-86l-34 32m244 681l-44-26m777-278l-42 7m-974 87l-61-18m1486 211l-138-69m-259-588l-19 40m-898 251l-155-20m1024-164l-136 143M1731 75l-61 203m-163 845l-5 158m-861-35l-29-37m801-326l-46 2M69 120l-9-12m448 885l-11-33m451 240l-180 33m480-386l-117-137M394 83l-22 21m1488 560l-151 83m-455 725l-43 8m172-1063l-9 190M235 1140l-34 9m1259 61l-181 72m-69 521l-37-155M862 209l-48 11m817 405l-13 7M697 422l-64 9m858 534l-34 149M851 805l-60 20m480-644l-38-4M814 594L703 729m594-407l-97 100m-466 588l-25 21m520-979l-37-21M114 993l-22 6m423 11l-7-17m-54 93l-19 37m1044-140l-64 156m-526 669l-54 7m-217-765l-146-9m1297-109l-34 17M845 580l-31 14m-26 976l-188-20m480-322l-125 127m208-650l-28 172m703-747l-42-23m-675 1592l-63 6M280 616L167 738m502 519l-28-11m-469 388L47 1760M1163 705l-25-48m395 1251l-101-29M235 1140l-4 31m743-296l-55 194m-562 607l-24-27m1483-212l-31-156m-662 287l-172-93m-68-915l-38 20M744 197l-177-76M291 329l-30 47m680 1455l-29 9m773-1399l-17-22m-706 586l-43 64m619-123l-94 126m-186 99l-22-197m-853-68l-16 138m1367 356l-6 10M564 52l-51-38m-141 90l-15 30m1372 865l-51-1m-78-560l-150 33M244 1038L24 933m614 150l-73-132m882-231l-166-2M738 873l-32 171m787-310l-14 176m-810 347l-5 38M262 129L32 114m1651 456l-83-132m156 1214l-18-3M1370 207l-27 49m548 859l-187 93m68-967l-107 163M845 580l-17 3m-220-82l-29 35m1185 1009l-12 74m-1034 87l-155 77m387-906l-15-44m29-547l-5 171M641 190l-29 84M167 738l-25-18m1003 287l-196 60m784-231l-4 163m-74 85l-61-17m178-826l-163 114m-195 1170l-23-35m228-575l-140 68M937 21L829 139M209 1450l-34 40m1407 304l-34-64M1319 440l-26-49m-212 341l-39-175m743 1181l-2 127M278 260l-21-23m503 490l-57 2m605 923l-14-12m372-255l-77-157m278 461h-7m-211-111l-35 4M513 14L278 55m1544 816l-54-22m-373 900v-19M486 677l-44 52M141 530l-11 52m54 1045l-12 7m393-683l-4 164m-200-60l-160 94m1092 184l-20 33m339-874l-3-137m61 1354l-137 199M1806 16l-136 262m-422 569l-99 127m577-455l-18 57m-289-246l-23 28m461 698l-158 72M262 129l-22-14m1533 1564l-124-101m-63-634l-63-11M472 1041l-141-7m1480-572l-26 29m-539 78l-31-11m-74 972l-101-178m-707-344l-98 132m1181-851l-20 69M309 1009l-39 25m1198 705l-5-2m-249-892l-14 38m499 532l-33-30m224-42l-156 57m-115-485l-33 29m-807 103l-11 186M191 869l-44 172m574 293l-17-174m-464 386l-4 20m1178-41l-163 27M974 875l-39-42m803 816l-20-14m-683-751l-24 32m162 732l-52 51m652-20l-17-27m17 27l-23 34m-581-430l-154 148M703 729l-172 83m-35-647l-54 2m167 1013l-14-12m605-746l-18-21m543 263l-126 90m245-179l-27-155m-79 1229l-16-29M706 1044L571 922m567-265l-7 53m265-352l-171 42m34 681l-2 38M925 479L790 619m45 1196l-17 45m869-1405l-93 142m244-467l-34 22M333 1649l-20-62M1846 114l-50-7M179 1853l-107-20m371-182l-188-69M240 115l-33 32m1380 70l-161-35m-168 989l-113-164m-105 345l-137-155m150-859l-13 54m691-317l-220 12M344 364L227 235M1894 11l-106 168m-296 800l-19 14m252-329l-106 115m-649 440l-22-19M170 902l-9-16m1478-300l-45 11m54 1018l-7-13m-23-970l-112-117M257 237l-30-2m382 945l-45-16m-349 254l-38-194m1303-65l-7-166m-356-847l-108 131m529 669l-15-47m59 895l-76 8m-337-519l-199-64M737 572l-12-54m1112 1206l-15 8m-673-758l-13 31m-275 240l-140 89M1796 107l-65-32m-145 869l-48 2M997 84l-168 55M291 329l-189 66m828 864l-162-26m381-259l-34-35m707-68l-35-168M257 237L241 80m285 1497l-92-171m676-1243l-10-18M269 1413l-15 61m1120-867l-103-152M185 758l-18-20m1240-132l-34-22m-102-243l-101 100M889 1808l-171-102m-246-665l-32-39m885-621l-132-104m-958 863L114 993m148-864l-83 170m1215-79l-69 161m387 158l-44-120M992 100L862 209m1005 1485l-7-5m-588-785l-157 35m228-683l-150 21m208 1201l-150 74m528 192l-2-20M1665 257l-15 40m-143 826l-16-158m103 102l-71-134m-317-205l-155 77m621-321l-22 17M567 121l-195-17m1537 789l-24 26M829 1660l-105 198m664-297l-12-40m-1002-43l-138 88m532-333l-40-10m86-629l-24 25m367 891l-57-27m609-736l-70-161m-243-228l-13 59M201 1149l-177 58m360-130l-17-33m733 439l-84 175m756-1417l-170-100M454 1086l-121-78m798-298l-89-153M344 342l-165-43m1721 1042l-10 2M161 886l-27-29M998 10l-61 11M125 811l-47 53m1206 888l-4 2m-331-687l-57 12m523 526l-78 137m281-511l-11-35m-192 409l-142 55M365 81l-158 66m790 178l-33-39m763 448l-18 13m-420 921l-129 153m627-1118l-19 36m-385-322l-53 35m-157 1196l-157 10m230-1089l-46-147M172 1634l-157-85m253 20L59 1699m512-777l-20-25m863 628l-65 148m130-690l-148-82m437-162l-59 8M703 729l-41-47m60 909l-25-22M604 31L496 165m272 1068l-47 13m811-688l-39 176m-296 853l-48 12m221-1392l-45 174M244 1147l-9-7m677 700l-23-32m362-256l-51-27m644-950l-136 1m148 272l-34 23M737 572l-34 157m114-608l-19-28m1024 778l-27-3M733 146L612 274M60 108l-28 6m1495 1316l-136 60m-124-637l-132 24m270-60l-38 68m38-68l-124-99m137 842l-167-8m331 242l-52 21m-23-692l-24-44m-308-582l-5-56m-39 269l-93-160m601 36l-3-33m-262-364l-22 9M132 1356l-32-1m979-967l-37 169M917 907l-11-181M257 237l-59-6m922-94L998 10m102 135h-11M274 1764l-192 7M1396 358l-125 97m-122 1144l-26-31m292 37l-27-44M522 940l-25 20M82 1771l-67-222m99-556l-58 22m1059-187l-141 47m121-59l-178 91M180 128l-1 171m20 1368l-15-40M997 325L862 209m671 1699l-240-79m-821-788l-139-33m943-116l-114-117m330 204l-1-14m86 445l-11 30m254-169l-35 10m3-1102l-186-38m159 877l-32-19M862 209l-129-63M186 729l-1 29m1123 894l-148 169m-271-13l-5 35m-646 38L59 1699m492-802l-77-161m902 785l-47-22m118-779l-11 22M837 312l-8-173m-314 871l-18-50m1273 122l-62 3m-435-913l-2 9m323 886l-150 5m-710-62l-169-59M34 1406l-19 143M964 286l-55 9m-80 1365l-8 9M496 165l-28 50m585 123l-94 119M600 1550l-5-193m1275 180l-152 98M331 1034l-184 7m570-60l-152-30m652 377l-48-45m701 254l-132 112M232 1154l-31-5m920 550l-33 28m548-1236l-36-53M889 1808l-133-156m419-1155l-96-109m328 218l-33 1m-93 111l-5 174m91-716L1192 31m676 634l-185-95m45 840l-7 23m64 305l-8-14M219 498l-78 32m493-425l-67 16M357 1676l-121-110m1413 12l-83-138M790 619v-7M278 55L26 75m1425 1327l-60-131m292-701l-47-17M976 680l-25 57M105 393l-3 2m1241-139l-120 102M443 1651l-175-82M161 886l-19-166m336 626l-104 132m364-605l-81-12M69 120l-37-6m697-35L513 14m1209 1606l-4 15m-87-1010l-138 109m-80 149l-4 14m-937 144l-18 45m588-529l-4-7m208 19l-40 159m-675 84l-23 181m1246 468l-33-28m-485-459l-41 44m584 726l-133-40M752 158l-19-12m683 143l-3-49m321 1160l-154-38m332 52l-12-73m-811-463l-8-146m351 1002l-143-66m61-1283l-25-4M724 1858l-242-28M697 422l-12 1M583 567l-4-31m500-148l-26-50m-599 748l-47-42M179 299L32 114m1196 1146l-188 92m-845-129l-18 1m923 259l-33 193M1019 72l-22 12m622 695l-141 79m-172 510l-33-2M262 129L91 204m242 1583l-59-23M68 1409l-34-3m1679 19l-47-40m-394-481l-5-51m-97-412l-27-15m-596 816l-14-18m1274-844l-122 61m-103 1353l-150-60m-597-297l-10 8M257 237l-9 158m1606 1232l-132-7m57 124l-7 2m-788-462l-29 71m87-798l-79 1M508 993l-124 84" fill="none" stroke="#989898" stroke-width="2"/><circle class="st1" cx="975" cy="1373" r="7"/><circle class="st1" cx="667" cy="916" r="3"/><circle class="st1" cx="686" cy="1175" r="3"/><circle class="st1" cx="580" cy="466" r="2"/><circle class="st1" cx="443" cy="606" r="4"/><circle class="st1" cx="1143" cy="426" r="5"/><circle class="st1" cx="1769" cy="530" r="5"/><circle class="st1" cx="998" cy="10" r="2"/><circle class="st1" cx="655" cy="967" r="5"/><circle class="st1" cx="869" cy="326" r="4"/><circle class="st1" cx="984" cy="1284" r="2"/><circle class="st1" cx="333" cy="1787" r="2"/><circle class="st1" cx="1319" cy="440" r="3"/><circle class="st1" cx="1089" cy="878" r="4"/><circle class="st1" cx="1383" cy="417" r="2"/><circle class="st1" cx="1769" cy="406" r="2"/><circle class="st1" cx="1376" cy="1521" r="2"/><circle class="st1" cx="1479" cy="983" r="5"/><circle class="st1" cx="142" cy="720" r="3"/><circle class="st1" cx="1218" cy="1191" r="6"/><circle class="st1" cx="1852" cy="22" r="2"/><circle class="st1" cx="344" cy="342" r="6"/><circle class="st1" cx="583" cy="567" r="7"/><circle class="st1" cx="1035" cy="1629" r="3"/><circle class="st1" cx="662" cy="682" r="2"/><circle class="st1" cx="949" cy="118" r="6"/><circle class="st1" cx="1728" cy="1410" r="8"/><circle class="st1" cx="1475" cy="1237" r="8"/><circle class="st1" cx="231" cy="1171" r="6"/><circle class="st1" cx="679" cy="540" r="2"/><circle class="st1" cx="1058" cy="1705" r="5"/><circle class="st1" cx="269" cy="1413" r="6"/><circle class="st1" cx="945" cy="89" r="4"/><circle class="st1" cx="232" cy="1154" r="6"/><circle class="st1" cx="1670" cy="278" r="6"/><circle class="st1" cx="36" cy="1404" r="6"/><circle class="st1" cx="1528" cy="859" r="8"/><circle class="st1" cx="34" cy="1126" r="5"/><circle class="st1" cx="1429" cy="216" r="8"/><circle class="st1" cx="1783" cy="1865" r="4"/><circle class="st1" cx="1876" cy="1604" r="2"/><circle class="st1" cx="201" cy="1243" r="3"/><circle class="st1" cx="116" cy="211" r="7"/><circle class="st1" cx="818" cy="1860" r="6"/><circle class="st1" cx="241" cy="80" r="4"/><circle class="st1" cx="253" cy="18" r="5"/><circle class="st1" cx="878" cy="932" r="3"/><circle class="st1" cx="839" cy="179" r="8"/><circle class="st1" cx="333" cy="1008" r="6"/><circle class="st1" cx="685" cy="1104" r="4"/><circle class="st1" cx="1332" cy="1450" r="6"/><circle class="st1" cx="1432" cy="1734" r="3"/><circle class="st1" cx="572" cy="1262" r="6"/><circle class="st1" cx="837" cy="312" r="6"/><circle class="st1" cx="955" cy="1355" r="3"/><circle class="st1" cx="1674" cy="1748" r="4"/><circle class="st1" cx="1738" cy="1649" r="7"/><circle class="st1" cx="1844" cy="575" r="3"/><circle class="st1" cx="1365" cy="1413" r="4"/><circle class="st1" cx="1788" cy="1403" r="5"/><circle class="st1" cx="257" cy="237" r="4"/><circle class="st1" cx="478" cy="1346" r="6"/><circle class="st1" cx="1713" cy="1425" r="4"/><circle class="st1" cx="253" cy="798" r="2"/><circle class="st1" cx="1200" cy="422" r="7"/><circle class="st1" cx="470" cy="531" r="4"/><circle class="st1" cx="1475" cy="1342" r="8"/><circle class="st1" cx="82" cy="1771" r="8"/><circle class="st1" cx="313" cy="1587" r="6"/><circle class="st1" cx="622" cy="177" r="3"/><circle class="st1" cx="442" cy="729" r="3"/><circle class="st1" cx="1208" cy="1772" r="6"/><circle class="st1" cx="531" cy="812" r="6"/><circle class="st1" cx="261" cy="376" r="2"/><circle class="st1" cx="801" cy="1508" r="8"/><circle class="st1" cx="1538" cy="946" r="7"/><circle class="st1" cx="179" cy="1853" r="6"/><circle class="st1" cx="1284" cy="1752" r="8"/><circle class="st1" cx="1175" cy="497" r="8"/><circle class="st1" cx="631" cy="1734" r="5"/><circle class="st1" cx="912" cy="1840" r="5"/><circle class="st1" cx="1011" cy="916" r="7"/><circle class="st1" cx="24" cy="933" r="5"/><circle class="st1" cx="1558" cy="1204" r="5"/><circle class="st1" cx="737" cy="572" r="6"/><circle class="st1" cx="1306" cy="809" r="7"/><circle class="st1" cx="1338" cy="1674" r="2"/><circle class="st1" cx="1170" cy="441" r="7"/><circle class="st1" cx="39" cy="138" r="3"/><circle class="st1" cx="1117" cy="146" r="7"/><circle class="st1" cx="409" cy="1332" r="5"/><circle class="st1" cx="1524" cy="1510" r="2"/><circle class="st1" cx="1048" cy="967" r="2"/><circle class="st1" cx="78" cy="890" r="8"/><circle class="st1" cx="291" cy="329" r="4"/><circle class="st1" cx="1027" cy="1467" r="4"/><circle class="st1" cx="741" cy="1686" r="2"/><circle class="st1" cx="1883" cy="493" r="6"/><circle class="st1" cx="1867" cy="1694" r="2"/><circle class="st1" cx="1343" cy="256" r="7"/><circle class="st1" cx="290" cy="1317" r="5"/><circle class="st1" cx="964" cy="286" r="2"/><circle class="st1" cx="815" cy="1612" r="6"/><circle class="st1" cx="546" cy="1323" r="6"/><circle class="st1" cx="309" cy="1009" r="2"/><circle class="st1" cx="640" cy="146" r="8"/><circle class="st1" cx="660" cy="1748" r="5"/><circle class="st1" cx="1772" cy="1526" r="7"/><circle class="st1" cx="780" cy="755" r="2"/><circle class="st1" cx="1491" cy="965" r="4"/><circle class="st1" cx="724" cy="1858" r="8"/><circle class="st1" cx="748" cy="1744" r="4"/><circle class="st1" cx="1810" cy="777" r="3"/><circle class="st1" cx="25" cy="207" r="7"/><circle class="st1" cx="1254" cy="1472" r="6"/><circle class="st1" cx="1391" cy="1271" r="7"/><circle class="st1" cx="243" cy="1583" r="7"/><circle class="st1" cx="280" cy="616" r="8"/><circle class="st1" cx="1594" cy="597" r="2"/><circle class="st1" cx="976" cy="680" r="4"/><circle class="st1" cx="209" cy="1450" r="8"/><circle class="st1" cx="883" cy="560" r="8"/><circle class="st1" cx="790" cy="612" r="7"/><circle class="st1" cx="1211" cy="1480" r="3"/><circle class="st1" cx="1709" cy="747" r="6"/><circle class="st1" cx="548" cy="397" r="3"/><circle class="st1" cx="1638" cy="1160" r="3"/><circle class="st1" cx="779" cy="1047" r="8"/><circle class="st1" cx="1331" cy="901" r="3"/><circle class="st1" cx="997" cy="84" r="2"/><circle class="st1" cx="201" cy="680" r="8"/><circle class="st1" cx="1138" cy="657" r="8"/><circle class="st1" cx="30" cy="1276" r="2"/><circle class="st1" cx="332" cy="145" r="6"/><circle class="st1" cx="1374" cy="607" r="6"/><circle class="st1" cx="56" cy="1015" r="5"/><circle class="st1" cx="1271" cy="455" r="6"/><circle class="st1" cx="1872" cy="36" r="3"/><circle class="st1" cx="842" cy="1360" r="4"/><circle class="st1" cx="1816" cy="1437" r="3"/><circle class="st1" cx="612" cy="274" r="3"/><circle class="st1" cx="1271" cy="341" r="8"/><circle class="st1" cx="814" cy="220" r="3"/><circle class="st1" cx="1870" cy="1537" r="2"/><circle class="st1" cx="1040" cy="1352" r="4"/><circle class="st1" cx="1756" cy="1652" r="7"/><circle class="st1" cx="60" cy="108" r="5"/><circle class="st1" cx="1251" cy="939" r="3"/><circle class="st1" cx="1530" cy="1815" r="8"/><circle class="st1" cx="896" cy="1518" r="5"/><circle class="st1" cx="608" cy="810" r="8"/><circle class="st1" cx="1628" cy="46" r="4"/><circle class="st1" cx="1373" cy="584" r="2"/><circle class="st1" cx="1507" cy="1123" r="2"/><circle class="st1" cx="226" cy="1664" r="5"/><circle class="st1" cx="1806" cy="1003" r="8"/><circle class="st1" cx="1407" cy="606" r="8"/><circle class="st1" cx="1095" cy="816" r="3"/><circle class="st1" cx="1519" cy="1673" r="7"/><circle class="st1" cx="685" cy="423" r="8"/><circle class="st1" cx="1636" cy="491" r="7"/><circle class="st1" cx="571" cy="922" r="2"/><circle class="st1" cx="1325" cy="381" r="6"/><circle class="st1" cx="1697" cy="89" r="5"/><circle class="st1" cx="40" cy="411" r="3"/><circle class="st1" cx="1281" cy="718" r="2"/><circle class="st1" cx="669" cy="1257" r="8"/><circle class="st1" cx="1837" cy="1724" r="7"/><circle class="st1" cx="51" cy="155" r="2"/><circle class="st1" cx="73" cy="25" r="5"/><circle class="st1" cx="665" cy="1206" r="8"/><circle class="st1" cx="1093" cy="433" r="3"/><circle class="st1" cx="1391" cy="1490" r="6"/><circle class="st1" cx="634" cy="105" r="3"/><circle class="st1" cx="302" cy="1151" r="7"/><circle class="st1" cx="1294" cy="1640" r="6"/><circle class="st1" cx="485" cy="831" r="6"/><circle class="st1" cx="760" cy="727" r="5"/><circle class="st1" cx="604" cy="31" r="6"/><circle class="st1" cx="508" cy="993" r="2"/><circle class="st1" cx="1015" cy="1431" r="2"/><circle class="st1" cx="1468" cy="1739" r="4"/><circle class="st1" cx="1868" cy="665" r="2"/><circle class="st1" cx="1038" cy="404" r="7"/><circle class="st1" cx="1293" cy="1829" r="5"/><circle class="st1" cx="1735" cy="949" r="4"/><circle class="st1" cx="1759" cy="1697" r="3"/><circle class="st1" cx="442" cy="167" r="5"/><circle class="st1" cx="1557" cy="1694" r="5"/><circle class="st1" cx="333" cy="1649" r="5"/><circle class="st1" cx="513" cy="14" r="5"/><circle class="st1" cx="1412" cy="1447" r="8"/><circle class="st1" cx="1073" cy="1354" r="2"/><circle class="st1" cx="1477" cy="429" r="6"/><circle class="st1" cx="358" cy="787" r="4"/><circle class="st1" cx="73" cy="1560" r="3"/><circle class="st1" cx="1532" cy="558" r="6"/><circle class="st1" cx="374" cy="1478" r="3"/><circle class="st1" cx="744" cy="197" r="4"/><circle class="st1" cx="1857" cy="1056" r="8"/><circle class="st1" cx="367" cy="1044" r="2"/><circle class="st1" cx="913" cy="158" r="6"/><circle class="st1" cx="391" cy="1303" r="7"/><circle class="st1" cx="1453" cy="695" r="5"/><circle class="st1" cx="749" cy="564" r="4"/><circle class="st1" cx="1469" cy="957" r="7"/><circle class="st1" cx="1680" cy="665" r="2"/><circle class="st1" cx="845" cy="580" r="5"/><circle class="st1" cx="1650" cy="1700" r="5"/><circle class="st1" cx="111" cy="972" r="4"/><circle class="st1" cx="118" cy="665" r="5"/><circle class="st1" cx="650" cy="1629" r="3"/><circle class="st1" cx="1865" cy="1201" r="6"/><circle class="st1" cx="1854" cy="1208" r="8"/><circle class="st1" cx="1548" cy="1730" r="4"/><circle class="st1" cx="47" cy="230" r="6"/><circle class="st1" cx="565" cy="951" r="6"/><circle class="st1" cx="1773" cy="1127" r="3"/><circle class="st1" cx="396" cy="418" r="2"/><circle class="st1" cx="348" cy="326" r="6"/><circle class="st1" cx="346" cy="494" r="2"/><circle class="st1" cx="1399" cy="53" r="8"/><circle class="st1" cx="1483" cy="1079" r="7"/><circle class="st1" cx="1115" cy="501" r="7"/><circle class="st1" cx="616" cy="412" r="6"/><circle class="st1" cx="1708" cy="1085" r="5"/><circle class="st1" cx="1312" cy="1862" r="8"/><circle class="st1" cx="179" cy="299" r="8"/><circle class="st1" cx="551" cy="897" r="5"/><circle class="st1" cx="725" cy="518" r="3"/><circle class="st1" cx="411" cy="616" r="4"/><circle class="st1" cx="232" cy="859" r="7"/><circle class="st1" cx="496" cy="165" r="3"/><circle class="st1" cx="941" cy="217" r="3"/><circle class="st1" cx="602" cy="1620" r="3"/><circle class="st1" cx="1493" cy="734" r="8"/><circle class="st1" cx="404" cy="1431" r="7"/><circle class="st1" cx="635" cy="1660" r="2"/><circle class="st1" cx="1837" cy="1064" r="4"/><circle class="st1" cx="1903" cy="1202" r="7"/><circle class="st1" cx="91" cy="204" r="8"/><circle class="st1" cx="1080" cy="1228" r="6"/><circle class="st1" cx="1754" cy="1461" r="6"/><circle class="st1" cx="1480" cy="1159" r="5"/><circle class="st1" cx="1657" cy="28" r="4"/><circle class="st1" cx="1288" cy="840" r="2"/><circle class="st1" cx="1731" cy="831" r="8"/><circle class="st1" cx="39" cy="270" r="5"/><circle class="st1" cx="1267" cy="853" r="5"/><circle class="st1" cx="1884" cy="1226" r="8"/><circle class="st1" cx="1477" cy="104" r="6"/><circle class="st1" cx="703" cy="729" r="3"/><circle class="st1" cx="1276" cy="892" r="5"/><circle class="st1" cx="308" cy="378" r="5"/><circle class="st1" cx="821" cy="1669" r="5"/><circle class="st1" cx="1734" cy="1400" r="2"/><circle class="st1" cx="620" cy="466" r="8"/><circle class="st1" cx="1633" cy="170" r="7"/><circle class="st1" cx="1770" cy="568" r="8"/><circle class="st1" cx="608" cy="501" r="6"/><circle class="st1" cx="1460" cy="1210" r="6"/><circle class="st1" cx="1892" cy="706" r="4"/><circle class="st1" cx="1402" cy="1635" r="5"/><circle class="st1" cx="391" cy="1083" r="5"/><circle class="st1" cx="1257" cy="1119" r="6"/><circle class="st1" cx="756" cy="1652" r="5"/><circle class="st1" cx="191" cy="869" r="2"/><circle class="st1" cx="1026" cy="1240" r="5"/><circle class="st1" cx="294" cy="1104" r="8"/><circle class="st1" cx="997" cy="325" r="2"/><circle class="st1" cx="1566" cy="1440" r="6"/><circle class="st1" cx="1293" cy="66" r="7"/><circle class="st1" cx="721" cy="1334" r="7"/><circle class="st1" cx="68" cy="1409" r="5"/><circle class="st1" cx="1900" cy="1493" r="7"/><circle class="st1" cx="185" cy="758" r="8"/><circle class="st1" cx="906" cy="726" r="7"/><circle class="st1" cx="941" cy="1831" r="7"/><circle class="st1" cx="665" cy="1183" r="4"/><circle class="st1" cx="1493" cy="1170" r="6"/><circle class="st1" cx="1166" cy="1812" r="6"/><circle class="st1" cx="1058" cy="1745" r="8"/><circle class="st1" cx="814" cy="1726" r="8"/><circle class="st1" cx="1259" cy="1081" r="5"/><circle class="st1" cx="1685" cy="441" r="6"/><circle class="st1" cx="1782" cy="1553" r="5"/><circle class="st1" cx="1665" cy="257" r="5"/><circle class="st1" cx="72" cy="1833" r="2"/><circle class="st1" cx="1102" cy="70" r="5"/><circle class="st1" cx="1717" cy="1263" r="2"/><circle class="st1" cx="1822" cy="871" r="3"/><circle class="st1" cx="1158" cy="237" r="6"/><circle class="st1" cx="172" cy="1634" r="5"/><circle class="st1" cx="1019" cy="72" r="3"/><circle class="st1" cx="217" cy="1696" r="2"/><circle class="st1" cx="1794" cy="219" r="3"/><circle class="st1" cx="1906" cy="791" r="4"/><circle class="st1" cx="1790" cy="1901" r="5"/><circle class="st1" cx="1424" cy="1791" r="4"/><circle class="st1" cx="411" cy="367" r="6"/><circle class="st1" cx="1305" cy="200" r="5"/><circle class="st1" cx="1297" cy="1146" r="2"/><circle class="st1" cx="114" cy="993" r="7"/><circle class="st1" cx="1699" cy="1415" r="3"/><circle class="st1" cx="1829" cy="659" r="5"/><circle class="st1" cx="1256" cy="1755" r="3"/><circle class="st1" cx="1100" cy="1483" r="4"/><circle class="st1" cx="1072" cy="1088" r="5"/><circle class="st1" cx="274" cy="1764" r="3"/><circle class="st1" cx="639" cy="413" r="5"/><circle class="st1" cx="1845" cy="1474" r="6"/><circle class="st1" cx="278" cy="55" r="8"/><circle class="st1" cx="57" cy="349" r="6"/><circle class="st1" cx="1042" cy="557" r="6"/><circle class="st1" cx="1874" cy="1334" r="2"/><circle class="st1" cx="1737" cy="1177" r="6"/><circle class="st1" cx="1409" cy="1409" r="5"/><circle class="st1" cx="215" cy="1418" r="7"/><circle class="st1" cx="1718" cy="1635" r="2"/><circle class="st1" cx="585" cy="34" r="4"/><circle class="st1" cx="454" cy="1086" r="3"/><circle class="st1" cx="963" cy="558" r="6"/><circle class="st1" cx="1602" cy="1681" r="4"/><circle class="st1" cx="68" cy="651" r="7"/><circle class="st1" cx="1650" cy="501" r="2"/><circle class="st1" cx="1229" cy="52" r="5"/><circle class="st1" cx="1864" cy="1238" r="6"/><circle class="st1" cx="1506" cy="1802" r="5"/><circle class="st1" cx="674" cy="1680" r="7"/><circle class="st1" cx="1599" cy="754" r="4"/><circle class="st1" cx="547" cy="1242" r="3"/><circle class="st1" cx="1122" cy="381" r="5"/><circle class="st1" cx="1105" cy="1345" r="6"/><circle class="st1" cx="543" cy="1625" r="3"/><circle class="st1" cx="1885" cy="335" r="4"/><circle class="st1" cx="835" cy="1815" r="3"/><circle class="st1" cx="1225" cy="400" r="4"/><circle class="st1" cx="1641" cy="1602" r="5"/><circle class="st1" cx="690" cy="1512" r="5"/><circle class="st1" cx="198" cy="231" r="4"/><circle class="st1" cx="1668" cy="419" r="2"/><circle class="st1" cx="700" cy="633" r="2"/><circle class="st1" cx="1839" cy="1491" r="4"/><circle class="st1" cx="1854" cy="1627" r="7"/><circle class="st1" cx="1279" cy="1282" r="7"/><circle class="st1" cx="851" cy="805" r="2"/><circle class="st1" cx="1846" cy="114" r="3"/><circle class="st1" cx="329" cy="1814" r="8"/><circle class="st1" cx="1413" cy="883" r="8"/><circle class="st1" cx="1289" cy="1046" r="8"/><circle class="st1" cx="1242" cy="1726" r="2"/><circle class="st1" cx="1839" cy="1199" r="6"/><circle class="st1" cx="533" cy="1224" r="8"/><circle class="st1" cx="1444" cy="1072" r="7"/><circle class="st1" cx="1405" cy="817" r="3"/><circle class="st1" cx="1206" cy="728" r="6"/><circle class="st1" cx="1450" cy="471" r="2"/><circle class="st1" cx="1293" cy="391" r="8"/><circle class="st1" cx="1752" cy="1619" r="3"/><circle class="st1" cx="621" cy="1301" r="5"/><circle class="st1" cx="1460" cy="405" r="3"/><circle class="st1" cx="901" cy="78" r="5"/><circle class="st1" cx="638" cy="1549" r="2"/><circle class="st1" cx="1486" cy="1442" r="2"/><circle class="st1" cx="768" cy="1233" r="7"/><circle class="st1" cx="1293" cy="1333" r="8"/><circle class="st1" cx="554" cy="1878" r="2"/><circle class="st1" cx="1511" cy="731" r="6"/><circle class="st1" cx="656" cy="1152" r="4"/><circle class="st1" cx="1721" cy="1433" r="3"/><circle class="st1" cx="814" cy="594" r="4"/><circle class="st1" cx="265" cy="496" r="3"/><circle class="st1" cx="1564" cy="1223" r="3"/><circle class="st1" cx="1426" cy="182" r="6"/><circle class="st1" cx="308" cy="649" r="8"/><circle class="st1" cx="1051" cy="959" r="6"/><circle class="st1" cx="1481" cy="1421" r="8"/><circle class="st1" cx="1796" cy="1347" r="6"/><circle class="st1" cx="1394" cy="220" r="2"/><circle class="st1" cx="1825" cy="1756" r="8"/><circle class="st1" cx="1511" cy="87" r="3"/><circle class="st1" cx="688" cy="647" r="4"/><circle class="st1" cx="859" cy="128" r="5"/><circle class="st1" cx="1582" cy="1794" r="5"/><circle class="st1" cx="1447" cy="720" r="6"/><circle class="st1" cx="659" cy="362" r="8"/><circle class="st1" cx="1217" cy="411" r="2"/><circle class="st1" cx="1178" cy="1549" r="2"/><circle class="st1" cx="435" cy="1496" r="3"/><circle class="st1" cx="240" cy="115" r="8"/><circle class="st1" cx="1123" cy="1568" r="5"/><circle class="st1" cx="116" cy="98" r="4"/><circle class="st1" cx="364" cy="1388" r="2"/><circle class="st1" cx="32" cy="114" r="6"/><circle class="st1" cx="186" cy="729" r="7"/><circle class="st1" cx="1666" cy="1385" r="3"/><circle class="st1" cx="1367" cy="885" r="6"/><circle class="st1" cx="840" cy="1014" r="7"/><circle class="st1" cx="539" cy="1707" r="2"/><circle class="st1" cx="1048" cy="248" r="2"/><circle class="st1" cx="1160" cy="1821" r="8"/><circle class="st1" cx="414" cy="419" r="6"/><circle class="st1" cx="459" cy="68" r="6"/><circle class="st1" cx="1306" cy="1368" r="5"/><circle class="st1" cx="738" cy="873" r="6"/><circle class="st1" cx="205" cy="548" r="2"/><circle class="st1" cx="1478" cy="219" r="7"/><circle class="st1" cx="595" cy="1357" r="4"/><circle class="st1" cx="227" cy="235" r="2"/><circle class="st1" cx="361" cy="1055" r="3"/><circle class="st1" cx="871" cy="650" r="4"/><circle class="st1" cx="1628" cy="1102" r="4"/><circle class="st1" cx="620" cy="152" r="6"/><circle class="st1" cx="394" cy="83" r="7"/><circle class="st1" cx="1764" cy="1545" r="5"/><circle class="st1" cx="657" cy="861" r="2"/><circle class="st1" cx="1214" cy="845" r="4"/><circle class="st1" cx="278" cy="260" r="6"/><circle class="st1" cx="1478" cy="858" r="3"/><circle class="st1" cx="1464" cy="525" r="6"/><circle class="st1" cx="1416" cy="1445" r="2"/><circle class="st1" cx="1040" cy="392" r="8"/><circle class="st1" cx="1779" cy="1744" r="7"/><circle class="st1" cx="125" cy="811" r="8"/><circle class="st1" cx="1889" cy="591" r="7"/><circle class="st1" cx="486" cy="669" r="7"/><circle class="st1" cx="471" cy="1793" r="7"/><circle class="st1" cx="618" cy="1050" r="3"/><circle class="st1" cx="1211" cy="1223" r="2"/><circle class="st1" cx="904" cy="314" r="4"/><circle class="st1" cx="706" cy="1044" r="7"/><circle class="st1" cx="1502" cy="1281" r="5"/><circle class="st1" cx="250" cy="634" r="3"/><circle class="st1" cx="1711" cy="1764" r="4"/><circle class="st1" cx="1149" cy="1599" r="6"/><circle class="st1" cx="1860" cy="664" r="5"/><circle class="st1" cx="350" cy="344" r="7"/><circle class="st1" cx="803" cy="1575" r="4"/><circle class="st1" cx="959" cy="457" r="8"/><circle class="st1" cx="890" cy="257" r="6"/><circle class="st1" cx="1687" cy="455" r="3"/><circle class="st1" cx="433" cy="553" r="4"/><circle class="st1" cx="1116" cy="652" r="3"/><circle class="st1" cx="474" cy="1025" r="8"/><circle class="st1" cx="175" cy="1490" r="6"/><circle class="st1" cx="1725" cy="664" r="2"/><circle class="st1" cx="817" cy="121" r="4"/><circle class="st1" cx="1228" cy="1260" r="7"/><circle class="st1" cx="1890" cy="1343" r="8"/><circle class="st1" cx="1163" cy="705" r="3"/><circle class="st1" cx="1506" cy="515" r="3"/><circle class="st1" cx="1891" cy="1115" r="5"/><circle class="st1" cx="1778" cy="470" r="4"/><circle class="st1" cx="1614" cy="1582" r="6"/><circle class="st1" cx="1696" cy="1451" r="8"/><circle class="st1" cx="835" cy="1437" r="4"/><circle class="st1" cx="885" cy="1429" r="4"/><circle class="st1" cx="1031" cy="329" r="8"/><circle class="st1" cx="1639" cy="586" r="7"/><circle class="st1" cx="398" cy="1809" r="3"/><circle class="st1" cx="788" cy="1570" r="6"/><circle class="st1" cx="1665" cy="1615" r="8"/><circle class="st1" cx="1523" cy="933" r="8"/><circle class="st1" cx="1533" cy="1908" r="8"/><circle class="st1" cx="497" cy="960" r="4"/><circle class="st1" cx="625" cy="733" r="8"/><circle class="st1" cx="370" cy="716" r="4"/><circle class="st1" cx="41" cy="1726" r="7"/><circle class="st1" cx="1308" cy="650" r="5"/><circle class="st1" cx="92" cy="999" r="4"/><circle class="st1" cx="1281" cy="1071" r="6"/><circle class="st1" cx="1587" cy="217" r="6"/><circle class="st1" cx="372" cy="104" r="7"/><circle class="st1" cx="184" cy="1627" r="3"/><circle class="st1" cx="207" cy="147" r="8"/><circle class="st1" cx="1105" cy="1035" r="8"/><circle class="st1" cx="1636" cy="1541" r="3"/><circle class="st1" cx="896" cy="19" r="7"/><circle class="st1" cx="1697" cy="221" r="7"/><circle class="st1" cx="1607" cy="503" r="6"/><circle class="st1" cx="919" cy="1069" r="3"/><circle class="st1" cx="1712" cy="539" r="7"/><circle class="st1" cx="564" cy="1553" r="5"/><circle class="st1" cx="1619" cy="915" r="2"/><circle class="st1" cx="1131" cy="786" r="6"/><circle class="st1" cx="1307" cy="1260" r="7"/><circle class="st1" cx="1612" cy="492" r="2"/><circle class="st1" cx="711" cy="1806" r="3"/><circle class="st1" cx="1067" cy="1676" r="2"/><circle class="st1" cx="141" cy="530" r="6"/><circle class="st1" cx="132" cy="1356" r="6"/><circle class="st1" cx="34" cy="1406" r="3"/><circle class="st1" cx="1321" cy="1780" r="5"/><circle class="st1" cx="1081" cy="732" r="6"/><circle class="st1" cx="1350" cy="385" r="8"/><circle class="st1" cx="1909" cy="893" r="8"/><circle class="st1" cx="1527" cy="1430" r="8"/><circle class="st1" cx="37" cy="392" r="8"/><circle class="st1" cx="453" cy="27" r="4"/><circle class="st1" cx="1162" cy="775" r="3"/><circle class="st1" cx="1513" cy="1229" r="8"/><circle class="st1" cx="1772" cy="241" r="5"/><circle class="st1" cx="65" cy="1358" r="8"/><circle class="st1" cx="21" cy="1142" r="4"/><circle class="st1" cx="834" cy="419" r="8"/><circle class="st1" cx="240" cy="1546" r="2"/><circle class="st1" cx="255" cy="1582" r="3"/><circle class="st1" cx="1271" cy="181" r="2"/><circle class="st1" cx="78" cy="864" r="3"/><circle class="st1" cx="1162" cy="1222" r="3"/><circle class="st1" cx="100" cy="1355" r="8"/><circle class="st1" cx="1159" cy="272" r="2"/><circle class="st1" cx="161" cy="886" r="8"/><circle class="st1" cx="917" cy="80" r="8"/><circle class="st1" cx="1755" cy="740" r="8"/><circle class="st1" cx="1571" cy="232" r="8"/><circle class="st1" cx="1088" cy="1727" r="7"/><circle class="st1" cx="1665" cy="404" r="8"/><circle class="st1" cx="1777" cy="1724" r="6"/><circle class="st1" cx="1583" cy="174" r="5"/><circle class="st1" cx="79" cy="116" r="6"/><circle class="st1" cx="1823" cy="349" r="2"/><circle class="st1" cx="909" cy="1678" r="3"/><circle class="st1" cx="1449" cy="582" r="6"/><circle class="st1" cx="268" cy="1569" r="2"/><circle class="st1" cx="1729" cy="999" r="5"/><circle class="st1" cx="1415" cy="1605" r="7"/><circle class="st1" cx="1415" cy="1139" r="5"/><circle class="st1" cx="1038" cy="550" r="6"/><circle class="st1" cx="1352" cy="198" r="2"/><circle class="st1" cx="383" cy="906" r="5"/><circle class="st1" cx="1683" cy="570" r="4"/><circle class="st1" cx="1149" cy="974" r="7"/><circle class="st1" cx="180" cy="314" r="5"/><circle class="st1" cx="1333" cy="311" r="2"/><circle class="st1" cx="262" cy="129" r="4"/><circle class="st1" cx="462" cy="1350" r="5"/><circle class="st1" cx="238" cy="1881" r="4"/><circle class="st1" cx="1810" cy="1844" r="2"/><circle class="st1" cx="676" cy="1842" r="4"/><circle class="st1" cx="1801" cy="298" r="4"/><circle class="st1" cx="951" cy="737" r="6"/><circle class="st1" cx="1736" cy="485" r="8"/><circle class="st1" cx="1218" cy="1762" r="7"/><circle class="st1" cx="437" cy="1156" r="6"/><circle class="st1" cx="389" cy="970" r="2"/><circle class="st1" cx="1770" cy="1082" r="6"/><circle class="st1" cx="551" cy="916" r="7"/><circle class="st1" cx="435" cy="1123" r="3"/><circle class="st1" cx="1631" cy="625" r="8"/><circle class="st1" cx="1549" cy="1010" r="4"/><circle class="st1" cx="718" cy="1532" r="5"/><circle class="st1" cx="940" cy="1653" r="2"/><circle class="st1" cx="1304" cy="32" r="4"/><circle class="st1" cx="1655" cy="1347" r="4"/><circle class="st1" cx="753" cy="1343" r="7"/><circle class="st1" cx="1867" cy="1689" r="7"/><circle class="st1" cx="790" cy="619" r="6"/><circle class="st1" cx="816" cy="1305" r="8"/><circle class="st1" cx="546" cy="234" r="8"/><circle class="st1" cx="1655" cy="1084" r="7"/><circle class="st1" cx="1860" cy="1689" r="2"/><circle class="st1" cx="600" cy="1550" r="3"/><circle class="st1" cx="181" cy="72" r="2"/><circle class="st1" cx="1731" cy="75" r="8"/><circle class="st1" cx="729" cy="79" r="4"/><circle class="st1" cx="1681" cy="1751" r="7"/><circle class="st1" cx="201" cy="1149" r="8"/><circle class="st1" cx="47" cy="1760" r="2"/><circle class="st1" cx="1223" cy="358" r="5"/><circle class="st1" cx="1830" cy="1413" r="2"/><circle class="st1" cx="180" cy="128" r="6"/><circle class="st1" cx="1817" cy="420" r="7"/><circle class="st1" cx="28" cy="268" r="5"/><circle class="st1" cx="1471" cy="523" r="7"/><circle class="st1" cx="638" cy="1083" r="7"/><circle class="st1" cx="1374" cy="189" r="3"/><circle class="st1" cx="1636" cy="553" r="5"/><circle class="st1" cx="1198" cy="848" r="4"/><circle class="st1" cx="270" cy="1034" r="4"/><circle class="st1" cx="1577" cy="1410" r="3"/><circle class="st1" cx="1491" cy="922" r="5"/><circle class="st1" cx="1398" cy="914" r="7"/><circle class="st1" cx="710" cy="487" r="2"/><circle class="st1" cx="1142" cy="1795" r="3"/><circle class="st1" cx="1900" cy="1341" r="6"/><circle class="st1" cx="225" cy="762" r="2"/><circle class="st1" cx="236" cy="1360" r="5"/><circle class="st1" cx="363" cy="974" r="3"/><circle class="st1" cx="570" cy="1631" r="5"/><circle class="st1" cx="1290" cy="1501" r="4"/><circle class="st1" cx="909" cy="295" r="3"/><circle class="st1" cx="1463" cy="1032" r="6"/><circle class="st1" cx="825" cy="1445" r="8"/><circle class="st1" cx="791" cy="825" r="8"/><circle class="st1" cx="589" cy="1323" r="2"/><circle class="st1" cx="193" cy="760" r="2"/><circle class="st1" cx="959" cy="417" r="3"/><circle class="st1" cx="614" cy="376" r="6"/><circle class="st1" cx="1587" cy="206" r="3"/><circle class="st1" cx="829" cy="1660" r="4"/><circle class="st1" cx="1807" cy="506" r="2"/><circle class="st1" cx="970" cy="1219" r="7"/><circle class="st1" cx="1136" cy="1005" r="5"/><circle class="st1" cx="1148" cy="335" r="2"/><circle class="st1" cx="357" cy="134" r="7"/><circle class="st1" cx="1768" cy="849" r="6"/><circle class="st1" cx="564" cy="1164" r="7"/><circle class="st1" cx="1240" cy="1366" r="3"/><circle class="st1" cx="1201" cy="25" r="6"/><circle class="st1" cx="498" cy="879" r="6"/><circle class="st1" cx="1413" cy="240" r="2"/><circle class="st1" cx="561" cy="1115" r="7"/><circle class="st1" cx="1370" cy="207" r="8"/><circle class="st1" cx="434" cy="1406" r="5"/><circle class="st1" cx="700" cy="628" r="5"/><circle class="st1" cx="1665" cy="1455" r="6"/><circle class="st1" cx="16" cy="355" r="6"/><circle class="st1" cx="407" cy="1044" r="5"/><circle class="st1" cx="1564" cy="77" r="6"/><circle class="st1" cx="1084" cy="1077" r="7"/><circle class="st1" cx="1726" cy="519" r="5"/><circle class="st1" cx="235" cy="1691" r="4"/><circle class="st1" cx="495" cy="1339" r="6"/><circle class="st1" cx="244" cy="1147" r="7"/><circle class="st1" cx="425" cy="932" r="5"/><circle class="st1" cx="1210" cy="1803" r="8"/><circle class="st1" cx="1297" cy="322" r="7"/><circle class="st1" cx="170" cy="902" r="2"/><circle class="st1" cx="752" cy="158" r="6"/><circle class="st1" cx="368" cy="1154" r="7"/><circle class="st1" cx="1387" cy="42" r="5"/><circle class="st1" cx="1200" cy="1525" r="6"/><circle class="st1" cx="1618" cy="632" r="6"/><circle class="st1" cx="1100" cy="145" r="5"/><circle class="st1" cx="798" cy="93" r="8"/><circle class="st1" cx="1401" cy="1478" r="7"/><circle class="st1" cx="1783" cy="781" r="7"/><circle class="st1" cx="9" cy="298" r="8"/><circle class="st1" cx="1436" cy="742" r="8"/><circle class="st1" cx="1907" cy="1656" r="8"/><circle class="st1" cx="1195" cy="1018" r="2"/><circle class="st1" cx="974" cy="875" r="6"/><circle class="st1" cx="1117" cy="910" r="5"/><circle class="st1" cx="395" cy="609" r="2"/><circle class="st1" cx="226" cy="780" r="6"/><circle class="st1" cx="728" cy="1223" r="2"/><circle class="st1" cx="1722" cy="1620" r="3"/><circle class="st1" cx="522" cy="940" r="5"/><circle class="st1" cx="403" cy="1255" r="5"/><circle class="st1" cx="1594" cy="1067" r="8"/><circle class="st1" cx="1678" cy="998" r="8"/><circle class="st1" cx="1613" cy="783" r="5"/><circle class="st1" cx="137" cy="326" r="6"/><circle class="st1" cx="1051" cy="805" r="2"/><circle class="st1" cx="1669" cy="1523" r="4"/><circle class="st1" cx="213" cy="887" r="7"/><circle class="st1" cx="1704" cy="1208" r="5"/><circle class="st1" cx="1367" cy="704" r="7"/><circle class="st1" cx="273" cy="1413" r="4"/><circle class="st1" cx="1021" cy="73" r="7"/><circle class="st1" cx="1607" cy="1196" r="2"/><circle class="st1" cx="1182" cy="401" r="2"/><circle class="st1" cx="468" cy="215" r="3"/><circle class="st1" cx="796" cy="184" r="6"/><circle class="st1" cx="412" cy="256" r="8"/><circle class="st1" cx="322" cy="1409" r="4"/><circle class="st1" cx="1422" cy="136" r="4"/><circle class="st1" cx="1814" cy="1669" r="6"/><circle class="st1" cx="1600" cy="438" r="8"/><circle class="st1" cx="704" cy="1160" r="7"/><circle class="st1" cx="764" cy="1474" r="6"/><circle class="st1" cx="513" cy="399" r="2"/><circle class="st1" cx="1861" cy="17" r="8"/><circle class="st1" cx="787" cy="1673" r="5"/><circle class="st1" cx="1409" cy="897" r="7"/><circle class="st1" cx="476" cy="458" r="7"/><circle class="st1" cx="244" cy="1038" r="5"/><circle class="st1" cx="1607" cy="862" r="5"/><circle class="st1" cx="1419" cy="330" r="6"/><circle class="st1" cx="813" cy="1551" r="5"/><circle class="st1" cx="440" cy="1002" r="2"/><circle class="st1" cx="586" cy="736" r="2"/><circle class="st1" cx="1789" cy="1801" r="7"/><circle class="st1" cx="837" cy="908" r="5"/><circle class="st1" cx="1549" cy="876" r="7"/><circle class="st1" cx="1796" cy="107" r="8"/><circle class="st1" cx="1668" cy="879" r="7"/><circle class="st1" cx="563" cy="1783" r="8"/><circle class="st1" cx="197" cy="1608" r="3"/><circle class="st1" cx="1778" cy="931" r="7"/><circle class="st1" cx="895" cy="176" r="4"/><circle class="st1" cx="1783" cy="781" r="7"/><circle class="st1" cx="357" cy="1676" r="8"/><circle class="st1" cx="1761" cy="1018" r="5"/><circle class="st1" cx="1856" cy="848" r="2"/><circle class="st1" cx="1405" cy="1357" r="7"/><circle class="st1" cx="886" cy="611" r="4"/><circle class="st1" cx="1893" cy="369" r="4"/><circle class="st1" cx="236" cy="1566" r="8"/><circle class="st1" cx="426" cy="1904" r="3"/><circle class="st1" cx="1330" cy="452" r="3"/><circle class="st1" cx="1157" cy="463" r="6"/><circle class="st1" cx="771" cy="602" r="3"/><circle class="st1" cx="567" cy="121" r="5"/><circle class="st1" cx="486" cy="677" r="6"/><circle class="st1" cx="394" cy="335" r="4"/><circle class="st1" cx="733" cy="146" r="3"/><circle class="st1" cx="1006" cy="1866" r="6"/><circle class="st1" cx="1145" cy="1007" r="4"/><circle class="st1" cx="1395" cy="1749" r="2"/><circle class="st1" cx="1823" cy="677" r="3"/><circle class="st1" cx="1670" cy="1709" r="3"/><circle class="st1" cx="1251" cy="1552" r="3"/><circle class="st1" cx="686" cy="1375" r="6"/><circle class="st1" cx="1499" cy="1509" r="5"/><circle class="st1" cx="1699" cy="1128" r="5"/><circle class="st1" cx="418" cy="696" r="7"/><circle class="st1" cx="1273" cy="172" r="7"/><circle class="st1" cx="84" cy="1403" r="5"/><circle class="st1" cx="1454" cy="9" r="2"/><circle class="st1" cx="105" cy="393" r="5"/><circle class="st1" cx="1135" cy="877" r="2"/><circle class="st1" cx="1215" cy="558" r="7"/><circle class="st1" cx="1772" cy="1746" r="2"/><circle class="st1" cx="941" cy="29" r="6"/><circle class="st1" cx="1349" cy="1673" r="2"/><circle class="st1" cx="1455" cy="1867" r="5"/><circle class="st1" cx="1492" cy="979" r="2"/><circle class="st1" cx="1513" cy="1704" r="3"/><circle class="st1" cx="1618" cy="1231" r="4"/><circle class="st1" cx="1399" cy="217" r="8"/><circle class="st1" cx="518" cy="1419" r="4"/><circle class="st1" cx="1310" cy="597" r="8"/><circle class="st1" cx="709" cy="1031" r="4"/><circle class="st1" cx="1101" cy="404" r="3"/><circle class="st1" cx="1806" cy="16" r="7"/><circle class="st1" cx="1016" cy="1658" r="7"/><circle class="st1" cx="1457" cy="1114" r="8"/><circle class="st1" cx="1272" cy="904" r="8"/><circle class="st1" cx="1811" cy="462" r="6"/><circle class="st1" cx="324" cy="1741" r="5"/><circle class="st1" cx="1473" cy="993" r="2"/><circle class="st1" cx="549" cy="1040" r="8"/><circle class="st1" cx="1035" cy="884" r="6"/><circle class="st1" cx="15" cy="397" r="5"/><circle class="st1" cx="1367" cy="176" r="5"/><circle class="st1" cx="355" cy="1083" r="4"/><circle class="st1" cx="332" cy="1452" r="3"/><circle class="st1" cx="515" cy="1010" r="8"/><circle class="st1" cx="1727" cy="734" r="5"/><circle class="st1" cx="1885" cy="919" r="2"/><circle class="st1" cx="1121" cy="258" r="7"/><circle class="st1" cx="1843" cy="436" r="4"/><circle class="st1" cx="1115" cy="939" r="5"/><circle class="st1" cx="734" cy="1010" r="6"/><circle class="st1" cx="992" cy="100" r="2"/><circle class="st1" cx="59" cy="1699" r="3"/><circle class="st1" cx="595" cy="1168" r="6"/><circle class="st1" cx="147" cy="1041" r="6"/><circle class="st1" cx="1246" cy="569" r="2"/><circle class="st1" cx="19" cy="1717" r="6"/><circle class="st1" cx="1121" cy="1699" r="4"/><circle class="st1" cx="1599" cy="1297" r="5"/><circle class="st1" cx="1409" cy="1477" r="2"/><circle class="st1" cx="829" cy="139" r="3"/><circle class="st1" cx="1053" cy="338" r="3"/><circle class="st1" cx="1804" cy="152" r="7"/><circle class="st1" cx="199" cy="1667" r="6"/><circle class="st1" cx="15" cy="1549" r="4"/><circle class="st1" cx="269" cy="1441" r="7"/><circle class="st1" cx="1197" cy="1587" r="5"/><circle class="st1" cx="472" cy="1041" r="3"/><circle class="st1" cx="1586" cy="944" r="8"/><circle class="st1" cx="228" cy="1613" r="7"/><circle class="st1" cx="1882" cy="335" r="7"/><circle class="st1" cx="406" cy="1627" r="6"/><circle class="st1" cx="1643" cy="987" r="8"/><circle class="st1" cx="1280" cy="1754" r="4"/><circle class="st1" cx="1912" cy="1414" r="8"/><circle class="st1" cx="873" cy="1894" r="4"/><circle class="st1" cx="1602" cy="141" r="3"/><circle class="st1" cx="337" cy="154" r="3"/><circle class="st1" cx="1416" cy="289" r="2"/><circle class="st1" cx="697" cy="422" r="3"/><circle class="st1" cx="1395" cy="1730" r="6"/><circle class="st1" cx="1808" cy="1244" r="5"/><circle class="st1" cx="733" cy="170" r="6"/><circle class="st1" cx="1609" cy="355" r="4"/><circle class="st1" cx="442" cy="1311" r="5"/><circle class="st1" cx="85" cy="324" r="2"/><circle class="st1" cx="1894" cy="11" r="8"/><circle class="st1" cx="1131" cy="710" r="3"/><circle class="st1" cx="172" cy="52" r="2"/><circle class="st1" cx="1646" cy="1704" r="7"/><circle class="st1" cx="414" cy="154" r="3"/><circle class="st1" cx="1308" cy="1652" r="6"/><circle class="st1" cx="788" cy="981" r="6"/><circle class="st1" cx="1650" cy="297" r="7"/><circle class="st1" cx="1499" cy="801" r="4"/><circle class="st1" cx="892" cy="1079" r="6"/><circle class="st1" cx="177" cy="1224" r="7"/><circle class="st1" cx="26" cy="75" r="7"/><circle class="st1" cx="573" cy="764" r="6"/><circle class="st1" cx="99" cy="1123" r="8"/><circle class="st1" cx="579" cy="536" r="4"/><circle class="st1" cx="1118" cy="12" r="7"/><circle class="st1" cx="499" cy="1200" r="4"/><circle class="st1" cx="538" cy="1125" r="2"/><circle class="st1" cx="42" cy="1341" r="5"/><circle class="st1" cx="1795" cy="868" r="4"/><circle class="st1" cx="1886" cy="80" r="6"/><circle class="st1" cx="344" cy="364" r="3"/><circle class="st1" cx="1807" cy="380" r="3"/><circle class="st1" cx="1093" cy="548" r="7"/><circle class="st1" cx="289" cy="770" r="4"/><circle class="st1" cx="591" cy="813" r="7"/><circle class="st1" cx="642" cy="860" r="7"/><circle class="st1" cx="1110" cy="163" r="2"/><circle class="st1" cx="1124" cy="443" r="6"/><circle class="st1" cx="1718" cy="1200" r="8"/><circle class="st1" cx="102" cy="395" r="3"/><circle class="st1" cx="1329" cy="1499" r="3"/><circle class="st1" cx="248" cy="395" r="5"/><circle class="st1" cx="732" cy="1189" r="3"/><circle class="st1" cx="717" cy="981" r="3"/><circle class="st1" cx="1031" cy="1786" r="7"/><circle class="st1" cx="1418" cy="1560" r="6"/><circle class="st1" cx="1024" cy="876" r="3"/><circle class="st1" cx="78" cy="981" r="5"/><circle class="st1" cx="1712" cy="870" r="5"/><circle class="st1" cx="1672" cy="484" r="3"/><circle class="st1" cx="554" cy="152" r="3"/><circle class="st1" cx="356" cy="659" r="3"/><circle class="st1" cx="1589" cy="1228" r="7"/><circle class="st1" cx="917" cy="907" r="6"/><circle class="st1" cx="1089" cy="145" r="3"/><circle class="st1" cx="1170" cy="766" r="4"/><circle class="st1" cx="1390" cy="1813" r="6"/><circle class="st1" cx="961" cy="1462" r="4"/><circle class="st1" cx="722" cy="1591" r="6"/><circle class="st1" cx="1524" cy="565" r="2"/><circle class="st1" cx="515" cy="1271" r="7"/><circle class="st1" cx="1715" cy="476" r="6"/><circle class="st1" cx="1648" cy="1615" r="2"/><circle class="st1" cx="384" cy="1077" r="2"/><circle class="st1" cx="609" cy="1180" r="3"/><circle class="st1" cx="1463" cy="1737" r="6"/><circle class="st1" cx="1169" cy="1283" r="8"/><circle class="st1" cx="1258" cy="1171" r="5"/><circle class="st1" cx="1157" cy="1510" r="6"/><circle class="st1" cx="259" cy="1270" r="5"/><circle class="st1" cx="152" cy="1433" r="8"/><circle class="st1" cx="861" cy="1245" r="4"/><circle class="st1" cx="219" cy="498" r="4"/><circle class="st1" cx="1733" cy="836" r="5"/><circle class="st1" cx="1842" cy="1029" r="5"/><circle class="st1" cx="934" cy="167" r="7"/><circle class="st1" cx="951" cy="1440" r="6"/><circle class="st1" cx="313" cy="1370" r="3"/><circle class="st1" cx="1414" cy="1525" r="5"/><circle class="st1" cx="1866" cy="540" r="2"/><circle class="st1" cx="1273" cy="1660" r="4"/><circle class="st1" cx="664" cy="1295" r="6"/><circle class="st1" cx="482" cy="1830" r="5"/><circle class="st1" cx="1651" cy="469" r="6"/><circle class="st1" cx="1649" cy="1578" r="6"/><circle class="st1" cx="930" cy="1259" r="8"/><circle class="st1" cx="935" cy="833" r="7"/><circle class="st1" cx="474" cy="1413" r="5"/><circle class="st1" cx="889" cy="1808" r="7"/><circle class="st1" cx="721" cy="1246" r="2"/><circle class="st1" cx="1788" cy="179" r="5"/><circle class="st1" cx="731" cy="755" r="3"/><circle class="st1" cx="1857" cy="1087" r="2"/><circle class="st1" cx="1148" cy="391" r="3"/><circle class="st1" cx="1250" cy="516" r="7"/><circle class="st1" cx="441" cy="588" r="7"/><circle class="st1" cx="289" cy="1857" r="8"/><circle class="st1" cx="1192" cy="31" r="2"/><circle class="st1" cx="761" cy="1844" r="7"/><circle class="st1" cx="1612" cy="1617" r="6"/><circle class="st1" cx="397" cy="1129" r="5"/><circle class="st1" cx="1388" cy="1561" r="4"/><circle class="st1" cx="1270" cy="976" r="4"/><circle class="st1" cx="1475" cy="734" r="4"/><circle class="st1" cx="616" cy="360" r="3"/><circle class="st1" cx="1768" cy="739" r="7"/><circle class="st1" cx="719" cy="1115" r="7"/><circle class="st1" cx="474" cy="736" r="7"/><circle class="st1" cx="1131" cy="1380" r="2"/><circle class="st1" cx="641" cy="190" r="2"/><circle class="st1" cx="1021" cy="1885" r="3"/><circle class="st1" cx="564" cy="52" r="5"/><circle class="st1" cx="1038" cy="782" r="4"/><circle class="st1" cx="1708" cy="576" r="3"/><circle class="st1" cx="949" cy="1067" r="2"/><circle class="st1" cx="170" cy="1360" r="3"/><circle class="st1" cx="1141" cy="1530" r="8"/><circle class="st1" cx="656" cy="638" r="8"/><circle class="st1" cx="1510" cy="1178" r="4"/><circle class="st1" cx="1092" cy="655" r="3"/><circle class="st1" cx="903" cy="1197" r="2"/><circle class="st1" cx="1750" cy="1713" r="4"/><circle class="st1" cx="1253" cy="852" r="8"/><circle class="st1" cx="1451" cy="1402" r="2"/><circle class="st1" cx="948" cy="1200" r="2"/><circle class="st1" cx="1795" cy="312" r="6"/><circle class="st1" cx="77" cy="633" r="7"/><circle class="st1" cx="1822" cy="1732" r="3"/><circle class="st1" cx="162" cy="1790" r="8"/><circle class="st1" cx="88" cy="1142" r="6"/><circle class="st1" cx="1396" cy="358" r="2"/><circle class="st1" cx="228" cy="794" r="2"/><circle class="st1" cx="1878" cy="1541" r="4"/><circle class="st1" cx="413" cy="1314" r="6"/><circle class="st1" cx="925" cy="479" r="3"/><circle class="st1" cx="1597" cy="1274" r="8"/><circle class="st1" cx="1820" cy="1271" r="4"/><circle class="st1" cx="1680" cy="1171" r="8"/><circle class="st1" cx="130" cy="582" r="8"/><circle class="st1" cx="962" cy="1005" r="7"/><circle class="st1" cx="1193" cy="277" r="8"/><circle class="st1" cx="1248" cy="847" r="7"/><circle class="st1" cx="1009" cy="277" r="4"/><circle class="st1" cx="437" cy="1618" r="4"/><circle class="st1" cx="1173" cy="1515" r="7"/><circle class="st1" cx="1233" cy="177" r="4"/><circle class="st1" cx="626" cy="423" r="3"/><circle class="st1" cx="596" cy="441" r="2"/><circle class="st1" cx="937" cy="21" r="6"/><circle class="st1" cx="1785" cy="1281" r="7"/><circle class="st1" cx="1523" cy="899" r="4"/><circle class="st1" cx="1619" cy="779" r="2"/><circle class="st1" cx="1785" cy="491" r="2"/><circle class="st1" cx="149" cy="133" r="3"/><circle class="st1" cx="1289" cy="1668" r="8"/><circle class="st1" cx="770" cy="1112" r="8"/><circle class="st1" cx="1479" cy="910" r="4"/><circle class="st1" cx="728" cy="497" r="7"/><circle class="st1" cx="633" cy="431" r="8"/><circle class="st1" cx="69" cy="120" r="4"/><circle class="st1" cx="318" cy="1739" r="3"/><circle class="st1" cx="828" cy="583" r="2"/><circle class="st1" cx="1377" cy="1392" r="3"/><circle class="st1" cx="1495" cy="45" r="8"/><circle class="st1" cx="392" cy="1319" r="8"/><circle class="st1" cx="1787" cy="703" r="4"/><circle class="st1" cx="354" cy="697" r="5"/><circle class="st1" cx="1297" cy="56" r="8"/><circle class="st1" cx="1580" cy="1362" r="6"/><circle class="st1" cx="1120" cy="137" r="5"/><circle class="st1" cx="897" cy="921" r="2"/><circle class="st1" cx="1838" cy="130" r="4"/><circle class="st1" cx="1490" cy="1437" r="2"/><circle class="st1" cx="666" cy="1452" r="4"/><circle class="st1" cx="1115" cy="828" r="8"/><circle class="st1" cx="1790" cy="1036" r="5"/><circle class="st1" cx="1211" cy="12" r="8"/><circle class="st1" cx="590" cy="1077" r="6"/><circle class="st1" cx="134" cy="857" r="7"/><circle class="st1" cx="1837" cy="1017" r="6"/><circle class="st1" cx="95" cy="828" r="8"/><circle class="st1" cx="697" cy="1569" r="3"/><circle class="st1" cx="235" cy="1140" r="3"/><circle class="st1" cx="172" cy="1183" r="4"/><circle class="st1" cx="365" cy="81" r="5"/><circle class="st1" cx="950" cy="877" r="8"/><circle class="st1" cx="884" cy="1843" r="5"/><circle class="st1" cx="1227" cy="612" r="2"/><circle class="st1" cx="24" cy="1207" r="6"/><circle class="st1" cx="331" cy="1034" r="7"/><circle class="st1" cx="1769" cy="932" r="2"/><circle class="st1" cx="96" cy="1509" r="4"/><circle class="st1" cx="1337" cy="1742" r="2"/><circle class="st1" cx="862" cy="209" r="6"/><circle class="st1" cx="460" cy="532" r="4"/><circle class="st1" cx="593" cy="1759" r="4"/><circle class="st1" cx="1273" cy="1366" r="5"/><circle class="st1" cx="254" cy="1474" r="8"/><circle class="st1" cx="1079" cy="388" r="6"/><circle class="st1" cx="1173" cy="1648" r="5"/><circle class="st1" cx="1432" cy="1879" r="2"/><circle class="st1" cx="195" cy="1223" r="5"/><circle class="st1" cx="1217" cy="1328" r="3"/><circle class="st1" cx="612" cy="1209" r="4"/><circle class="st1" cx="1839" cy="437" r="8"/><circle class="st1" cx="167" cy="738" r="2"/><circle class="st1" cx="1099" cy="301" r="4"/><circle class="st1" cx="1773" cy="1679" r="3"/><circle class="st1" cx="1236" cy="974" r="5"/><circle class="st1" cx="718" cy="1706" r="3"/><circle class="st1" cx="1305" cy="1019" r="4"/><circle class="st1" cx="951" cy="1475" r="6"/><circle class="st1" cx="526" cy="1577" r="8"/><circle class="st1" cx="641" cy="1246" r="5"/><circle class="st1" cx="1785" cy="1738" r="8"/><circle class="st1" cx="443" cy="1651" r="7"/><circle class="st1" cx="1200" cy="883" r="2"/><circle class="st1" cx="285" cy="559" r="4"/></svg>