<svg version="1.1" xmlns="http://www.w3.org/2000/svg" x="0" y="0" viewBox="0 0 1920 1920" xml:space="preserve"><path d="M0 0h1920v1920H0V0z" fill="#36434f"/><path d="M16 15h48v18H16zm64 0h128v18H80zm144 0h16v18h-16zm32 0h96v18h-96zm112 0h80v18h-80zm96 0h112v18H464zm128 0h16v18h-16zm32 0h32v18h-32zm48 0h16v18h-16zm32 0h96v18h-96zm112 0h128v18H816zm144 0h16v18h-16zm32 0h128v18H992zm144 0h48v18h-48zm64 0h64v18h-64zm80 0h64v18h-64zm80 0h64v18h-64zm80 0h144v18h-144zm160 0h80v18h-80zm96 0h176v18h-176zm192 0h16v18h-16zM16 51h112v18H16zm128 0h144v18H144zm160 0h16v18h-16zm32 0h16v18h-16zm32 0h32v18h-32zm48 0h96v18h-96zm112 0h80v18h-80zm96 0h80v18h-80zm96 0h32v18h-32zm48 0h160v18H768zm176 0h112v18H944zm128 0h80v18h-80zm96 0h80v18h-80zm96 0h128v18h-128zm144 0h32v18h-32zm48 0h288v18h-288zm304 0h48v18h-48zm64 0h32v18h-32zm48 0h32v18h-32zM16 87h80v18H16zm96 0h48v18h-48zm64 0h16v18h-16zm32 0h32v18h-32zm48 0h144v18H256zm160 0h160v18H416zm176 0h48v18h-48zm64 0h80v18h-80zm96 0h80v18h-80zm96 0h160v18H848zm176 0h128v18h-128zm144 0h96v18h-96zm112 0h176v18h-176zm192 0h160v18h-160zm176 0h48v18h-48zm64 0h96v18h-96zm112 0h80v18h-80zM16 123h208v18H16zm224 0h32v18h-32zm48 0h128v18H288zm144 0h16v18h-16zm32 0h32v18h-32zm48 0h80v18h-80zm96 0h96v18h-96zm112 0h64v18h-64zm80 0h400v18H800zm416 0h16v18h-16zm32 0h96v18h-96zm112 0h32v18h-32zm48 0h80v18h-80zm96 0h128v18h-128zm144 0h128v18h-128zm144 0h112v18h-112zM16 159h48v18H16zm64 0h128v18H80zm144 0h16v18h-16zm32 0h80v18h-80zm96 0h64v18h-64zm80 0h48v18h-48zm64 0h96v18h-96zm112 0h144v18H608zm160 0h48v18h-48zm64 0h64v18h-64zm80 0h16v18h-16zm32 0h128v18H944zm144 0h48v18h-48zm64 0h176v18h-176zm192 0h128v18h-128zm144 0h160v18h-160zm176 0h16v18h-16zm32 0h112v18h-112zm128 0h80v18h-80zM16 195h32v18H16zm48 0h176v18H64zm192 0h32v18h-32zm48 0h64v18h-64zm80 0h48v18h-48zm64 0h192v18H448zm208 0h32v18h-32zm48 0h32v18h-32zm48 0h96v18h-96zm112 0h80v18h-80zm96 0h48v18h-48zm64 0h16v18h-16zm32 0h16v18h-16zm32 0h32v18h-32zm48 0h96v18h-96zm112 0h80v18h-80zm96 0h32v18h-32zm48 0h160v18h-160zm176 0h32v18h-32zm48 0h128v18h-128zm144 0h144v18h-144zM16 231h32v18H16zm64 0h160v18H80zm176 0h16v18h-16zm32 0h176v18H288zm192 0h48v18h-48zm64 0h80v18h-80zm96 0h80v18h-80zm96 0h128v18H736zm144 0h80v18h-80zm96 0h48v18h-48zm64 0h64v18h-64zm80 0h48v18h-48zm64 0h48v18h-48zm64 0h96v18h-96zm112 0h128v18h-128zm144 0h16v18h-16zm32 0h64v18h-64zm80 0h48v18h-48zm64 0h32v18h-32zm48 0h48v18h-48zm64 0h112v18h-112zM16 267h64v18H16zm96 0h32v18h-32zm48 0h96v18h-96zm112 0h80v18h-80zm96 0h96v18h-96zm112 0h48v18h-48zm64 0h48v18h-48zm64 0h48v18h-48zm64 0h48v18h-48zm64 0h160v18H736zm176 0h48v18h-48zm64 0h16v18h-16zm32 0h48v18h-48zm64 0h48v18h-48zm64 0h48v18h-48zm64 0h96v18h-96zm112 0h32v18h-32zm48 0h48v18h-48zm64 0h48v18h-48zm64 0h96v18h-96zm112 0h32v18h-32zm48 0h160v18h-160zm176 0h16v18h-16zm32 0h48v18h-48zM16 303h112v18H16zm128 0h16v18h-16zm32 0h128v18H176zm144 0h64v18h-64zm80 0h160v18H400zm176 0h96v18h-96zm112 0h16v18h-16zm32 0h128v18H720zm144 0h32v18h-32zm48 0h176v18H912zm192 0h144v18h-144zm160 0h144v18h-144zm160 0h32v18h-32zm48 0h128v18h-128zm144 0h48v18h-48zm64 0h128v18h-128zm144 0h80v18h-80zM16 339h48v18H16zm64 0h128v18H80zm144 0h16v18h-16zm32 0h144v18H256zm160 0h80v18h-80zm96 0h112v18H512zm128 0h160v18H640zm176 0h16v18h-16zm32 0h32v18h-32zm48 0h32v18h-32zm48 0h64v18h-64zm80 0h32v18h-32zm48 0h192v18h-192zm208 0h96v18h-96zm112 0h144v18h-144zm160 0h16v18h-16zm32 0h96v18h-96zm112 0h128v18h-128zm144 0h64v18h-64zM16 375h80v18H16zm96 0h128v18H112zm144 0h176v18H256zm192 0h16v18h-16zm32 0h80v18h-80zm96 0h48v18h-48zm64 0h64v18h-64zm80 0h16v18h-16zm32 0h144v18H752zm160 0h16v18h-16zm32 0h112v18H944zm128 0h112v18h-112zm128 0h32v18h-32zm48 0h128v18h-128zm144 0h144v18h-144zm160 0h64v18h-64zm80 0h144v18h-144zm160 0h112v18h-112zM16 411h32v18H16zm48 0h80v18H64zm96 0h144v18H160zm160 0h128v18H320zm144 0h96v18h-96zm112 0h128v18H576zm144 0h176v18H720zm192 0h128v18H912zm144 0h16v18h-16zm32 0h96v18h-96zm112 0h160v18h-160zm176 0h144v18h-144zm160 0h96v18h-96zm112 0h48v18h-48zm64 0h32v18h-32zm48 0h96v18h-96zm112 0h32v18h-32zM16 447h144v18H16zm160 0h48v18h-48zm64 0h128v18H240zm144 0h112v18H384zm128 0h32v18h-32zm48 0h64v18h-64zm80 0h144v18H640zm160 0h80v18h-80zm96 0h176v18H896zm192 0h16v18h-16zm32 0h16v18h-16zm32 0h32v18h-32zm48 0h128v18h-128zm144 0h64v18h-64zm80 0h128v18h-128zm144 0h16v18h-16zm32 0h160v18h-160zm176 0h128v18h-128zM16 483h32v18H16zm64 0h64v18H80zm80 0h32v18h-32zm48 0h32v18h-32zm48 0h16v18h-16zm32 0h112v18H288zm128 0h128v18H416zm144 0h112v18H560zm128 0h96v18h-96zm112 0h128v18H800zm144 0h16v18h-16zm32 0h144v18H976zm160 0h112v18h-112zm128 0h160v18h-160zm176 0h64v18h-64zm80 0h128v18h-128zm144 0h96v18h-96zm112 0h112v18h-112zM16 519h144v18H16zm160 0h48v18h-48zm64 0h144v18H240zm160 0h16v18h-16zm32 0h32v18h-32zm48 0h144v18H480zm160 0h128v18H640zm144 0h160v18H784zm176 0h48v18h-48zm64 0h16v18h-16zm32 0h48v18h-48zm64 0h32v18h-32zm48 0h112v18h-112zm128 0h64v18h-64zm80 0h32v18h-32zm48 0h48v18h-48zm64 0h128v18h-128zm144 0h32v18h-32zm48 0h128v18h-128zm144 0h80v18h-80zM16 555h96v18H16zm112 0h16v18h-16zm32 0h48v18h-48zm64 0h80v18h-80zm96 0h144v18H320zm160 0h64v18h-64zm80 0h48v18h-48zm64 0h48v18h-48zm64 0h64v18h-64zm80 0h96v18h-96zm112 0h16v18h-16zm32 0h96v18h-96zm112 0h16v18h-16zm32 0h32v18h-32zm48 0h96v18h-96zm112 0h80v18h-80zm96 0h144v18h-144zm160 0h64v18h-64zm80 0h336v18h-336zM16 591h32v18H16zm48 0h176v18H64zm192 0h16v18h-16zm32 0h96v18h-96zm112 0h128v18H400zm144 0h16v18h-16zm32 0h16v18h-16zm32 0h64v18h-64zm80 0h48v18h-48zm64 0h144v18H752zm160 0h16v18h-16zm32 0h112v18H944zm128 0h128v18h-128zm144 0h144v18h-144zm160 0h16v18h-16zm32 0h128v18h-128zm144 0h64v18h-64zm80 0h272v18h-272zM16 627h32v18H16zm48 0h96v18H64zm112 0h16v18h-16zm32 0h112v18H208zm128 0h128v18H336zm144 0h16v18h-16zm32 0h32v18h-32zm48 0h16v18h-16zm32 0h80v18h-80zm96 0h16v18h-16zm32 0h80v18h-80zm96 0h16v18h-16zm32 0h80v18h-80zm96 0h16v18h-16zm32 0h32v18h-32zm48 0h96v18h-96zm112 0h16v18h-16zm32 0h96v18h-96zm112 0h64v18h-64zm80 0h64v18h-64zm80 0h80v18h-80zm96 0h128v18h-128zm144 0h128v18h-128zm144 0h16v18h-16zm32 0h32v18h-32zM16 663h48v18H16zm64 0h32v18H80zm48 0h48v18h-48zm64 0h16v18h-16zm32 0h96v18h-96zm112 0h128v18H336zm144 0h144v18H480zm160 0h16v18h-16zm32 0h48v18h-48zm64 0h64v18h-64zm80 0h128v18H816zm144 0h128v18H960zm144 0h128v18h-128zm144 0h16v18h-16zm32 0h160v18h-160zm176 0h64v18h-64zm80 0h112v18h-112zm128 0h128v18h-128zm144 0h48v18h-48zm64 0h32v18h-32zM16 699h112v18H16zm144 0h16v18h-16zm32 0h112v18H192zm128 0h64v18h-64zm80 0h304v18H400zm320 0h16v18h-16zm32 0h96v18h-96zm112 0h128v18H864zm144 0h112v18h-112zm128 0h80v18h-80zm96 0h192v18h-192zm208 0h48v18h-48zm64 0h32v18h-32zm48 0h128v18h-128zm144 0h112v18h-112zm128 0h80v18h-80zM16 735h96v18H16zm112 0h16v18h-16zm32 0h32v18h-32zm48 0h48v18h-48zm64 0h32v18h-32zm48 0h48v18h-48zm64 0h128v18H384zm144 0h128v18H528zm144 0h112v18H672zm128 0h16v18h-16zm32 0h80v18h-80zm96 0h128v18H928zm144 0h16v18h-16zm32 0h144v18h-144zm160 0h112v18h-112zm128 0h16v18h-16zm32 0h32v18h-32zm48 0h112v18h-112zm128 0h80v18h-80zm96 0h16v18h-16zm32 0h128v18h-128zm144 0h16v18h-16zM16 771h96v18H16zm112 0h32v18h-32zm48 0h64v18h-64zm80 0h112v18H256zm128 0h160v18H384zm176 0h96v18h-96zm112 0h32v18h-32zm48 0h96v18h-96zm112 0h16v18h-16zm32 0h32v18h-32zm48 0h112v18H912zm128 0h144v18h-144zm160 0h96v18h-96zm112 0h160v18h-160zm176 0h192v18h-192zm208 0h64v18h-64zm80 0h16v18h-16zm32 0h48v18h-48zm64 0h32v18h-32zM16 807h16v18H16zm32 0h16v18H48zm32 0h112v18H80zm128 0h16v18h-16zm32 0h144v18H240zm160 0h128v18H400zm144 0h144v18H544zm160 0h16v18h-16zm32 0h80v18h-80zm96 0h32v18h-32zm48 0h80v18h-80zm96 0h80v18h-80zm96 0h32v18h-32zm48 0h80v18h-80zm96 0h16v18h-16zm32 0h128v18h-128zm144 0h32v18h-32zm48 0h112v18h-112zm128 0h64v18h-64zm80 0h112v18h-112zm128 0h128v18h-128zM16 843h16v18H16zm48 0h144v18H64zm160 0h80v18h-80zm96 0h80v18h-80zm96 0h80v18h-80zm96 0h16v18h-16zm32 0h16v18h-16zm32 0h48v18h-48zm64 0h112v18H640zm128 0h80v18h-80zm96 0h128v18H864zm144 0h16v18h-16zm32 0h112v18h-112zm128 0h16v18h-16zm32 0h48v18h-48zm64 0h32v18h-32zm48 0h48v18h-48zm64 0h96v18h-96zm112 0h112v18h-112zm128 0h128v18h-128zm144 0h16v18h-16zm32 0h48v18h-48zm64 0h48v18h-48zM16 879h64v18H16zm80 0h96v18H96zm112 0h16v18h-16zm32 0h96v18h-96zm112 0h112v18H352zm128 0h288v18H480zm304 0h112v18H784zm128 0h80v18h-80zm96 0h80v18h-80zm96 0h16v18h-16zm32 0h64v18h-64zm80 0h96v18h-96zm112 0h192v18h-192zm208 0h160v18h-160zm176 0h144v18h-144zm160 0h32v18h-32zM16 915h96v18H16zm112 0h144v18H128zm160 0h144v18H288zm160 0h16v18h-16zm32 0h112v18H480zm128 0h96v18h-96zm112 0h272v18H720zm288 0h160v18h-160zm176 0h192v18h-192zm208 0h64v18h-64zm80 0h160v18h-160zm176 0h80v18h-80zm96 0h96v18h-96zm112 0h48v18h-48zM16 951h64v18H16zm80 0h16v18H96zm32 0h16v18h-16zm32 0h144v18H160zm160 0h64v18h-64zm80 0h48v18h-48zm64 0h112v18H464zm128 0h32v18h-32zm48 0h64v18h-64zm80 0h96v18h-96zm112 0h256v18H832zm272 0h160v18h-160zm176 0h112v18h-112zm128 0h16v18h-16zm32 0h48v18h-48zm64 0h32v18h-32zm48 0h160v18h-160zm176 0h112v18h-112zm128 0h48v18h-48zM16 987h64v18H16zm80 0h32v18H96zm48 0h80v18h-80zm96 0h96v18h-96zm112 0h16v18h-16zm32 0h16v18h-16zm32 0h32v18h-32zm48 0h64v18h-64zm80 0h80v18h-80zm96 0h112v18H640zm128 0h16v18h-16zm32 0h80v18h-80zm96 0h80v18h-80zm96 0h144v18H992zm160 0h80v18h-80zm96 0h16v18h-16zm32 0h96v18h-96zm112 0h16v18h-16zm32 0h160v18h-160zm176 0h48v18h-48zm64 0h160v18h-160zm176 0h16v18h-16zm32 0h32v18h-32zM16 1023h16v18H16zm32 0h48v18H48zm64 0h96v18h-96zm112 0h32v18h-32zm48 0h64v18h-64zm80 0h96v18h-96zm112 0h32v18h-32zm48 0h64v18h-64zm80 0h96v18h-96zm112 0h48v18h-48zm64 0h128v18H768zm144 0h16v18h-16zm32 0h16v18h-16zm32 0h160v18H976zm176 0h144v18h-144zm160 0h16v18h-16zm32 0h48v18h-48zm64 0h64v18h-64zm80 0h96v18h-96zm112 0h80v18h-80zm96 0h128v18h-128zm144 0h48v18h-48zM16 1059h80v18H16zm96 0h96v18h-96zm112 0h16v18h-16zm32 0h64v18h-64zm80 0h48v18h-48zm64 0h128v18H400zm144 0h112v18H544zm128 0h16v18h-16zm32 0h16v18h-16zm32 0h64v18h-64zm80 0h160v18H816zm176 0h128v18H992zm144 0h48v18h-48zm64 0h48v18h-48zm64 0h48v18h-48zm64 0h80v18h-80zm96 0h128v18h-128zm144 0h144v18h-144zm160 0h32v18h-32zm48 0h80v18h-80zm96 0h32v18h-32zM16 1095h64v18H16zm80 0h128v18H96zm144 0h64v18h-64zm80 0h16v18h-16zm32 0h112v18H352zm128 0h48v18h-48zm64 0h128v18H544zm144 0h96v18h-96zm112 0h16v18h-16zm32 0h128v18H832zm144 0h96v18h-96zm112 0h48v18h-48zm64 0h80v18h-80zm96 0h80v18h-80zm96 0h64v18h-64zm80 0h32v18h-32zm48 0h96v18h-96zm112 0h96v18h-96zm112 0h112v18h-112zm128 0h80v18h-80zM16 1131h48v18H16zm64 0h128v18H80zm144 0h64v18h-64zm80 0h112v18H304zm128 0h144v18H432zm160 0h48v18h-48zm64 0h32v18h-32zm48 0h160v18H704zm176 0h80v18h-80zm96 0h16v18h-16zm32 0h16v18h-16zm32 0h160v18h-160zm176 0h80v18h-80zm96 0h160v18h-160zm176 0h16v18h-16zm32 0h48v18h-48zm64 0h128v18h-128zm144 0h16v18h-16zm32 0h112v18h-112zm128 0h16v18h-16zM16 1167h112v18H16zm128 0h96v18h-96zm112 0h80v18h-80zm96 0h16v18h-16zm32 0h96v18h-96zm112 0h48v18h-48zm64 0h96v18h-96zm112 0h32v18h-32zm48 0h96v18h-96zm112 0h112v18H832zm128 0h16v18h-16zm32 0h80v18h-80zm96 0h80v18h-80zm96 0h192v18h-192zm208 0h80v18h-80zm96 0h80v18h-80zm96 0h96v18h-96zm112 0h48v18h-48zm64 0h16v18h-16zm32 0h112v18h-112zM16 1203h208v18H16zm240 0h48v18h-48zm64 0h64v18h-64zm80 0h112v18H400zm128 0h16v18h-16zm32 0h32v18h-32zm48 0h48v18h-48zm64 0h32v18h-32zm48 0h80v18h-80zm96 0h32v18h-32zm48 0h112v18H864zm128 0h16v18h-16zm32 0h48v18h-48zm64 0h192v18h-192zm208 0h80v18h-80zm96 0h16v18h-16zm32 0h16v18h-16zm32 0h144v18h-144zm160 0h80v18h-80zm96 0h64v18h-64zm80 0h96v18h-96zM16 1239h80v18H16zm96 0h48v18h-48zm64 0h48v18h-48zm64 0h48v18h-48zm64 0h16v18h-16zm32 0h96v18h-96zm112 0h16v18h-16zm32 0h64v18h-64zm80 0h32v18h-32zm48 0h96v18h-96zm112 0h128v18H720zm144 0h16v18h-16zm32 0h32v18h-32zm48 0h48v18h-48zm64 0h80v18h-80zm96 0h64v18h-64zm80 0h112v18h-112zm128 0h32v18h-32zm48 0h80v18h-80zm96 0h16v18h-16zm32 0h80v18h-80zm96 0h64v18h-64zm80 0h80v18h-80zm96 0h48v18h-48zm64 0h80v18h-80zM16 1275h48v18H16zm80 0h112v18H96zm128 0h144v18H224zm160 0h96v18h-96zm112 0h80v18h-80zm96 0h96v18h-96zm112 0h16v18h-16zm32 0h16v18h-16zm32 0h96v18h-96zm112 0h112v18H880zm128 0h80v18h-80zm96 0h80v18h-80zm96 0h144v18h-144zm160 0h96v18h-96zm112 0h48v18h-48zm64 0h48v18h-48zm64 0h48v18h-48zm64 0h80v18h-80zm96 0h80v18h-80zm96 0h48v18h-48zM16 1311h16v18H16zm32 0h48v18H48zm64 0h112v18H112zm128 0h112v18H240zm128 0h16v18h-16zm32 0h96v18h-96zm112 0h80v18h-80zm96 0h128v18H608zm144 0h80v18h-80zm96 0h96v18h-96zm112 0h16v18h-16zm32 0h160v18H992zm176 0h112v18h-112zm128 0h16v18h-16zm32 0h160v18h-160zm176 0h64v18h-64zm80 0h144v18h-144zm160 0h16v18h-16zm32 0h80v18h-80zm96 0h32v18h-32zM16 1347h32v18H16zm48 0h16v18H64zm32 0h96v18H96zm112 0h80v18h-80zm96 0h128v18H304zm144 0h112v18H448zm128 0h144v18H576zm160 0h304v18H736zm320 0h144v18h-144zm160 0h80v18h-80zm96 0h16v18h-16zm32 0h176v18h-176zm192 0h32v18h-32zm48 0h96v18h-96zm112 0h96v18h-96zm112 0h96v18h-96zM16 1383h16v18H16zm32 0h144v18H48zm160 0h160v18H208zm176 0h96v18h-96zm112 0h208v18H496zm224 0h48v18h-48zm64 0h64v18h-64zm80 0h48v18h-48zm64 0h128v18H928zm144 0h224v18h-224zm240 0h16v18h-16zm32 0h176v18h-176zm192 0h112v18h-112zm128 0h112v18h-112zm128 0h112v18h-112zM16 1419h80v18H16zm112 0h80v18h-80zm96 0h48v18h-48zm64 0h16v18h-16zm32 0h320v18H320zm336 0h80v18h-80zm96 0h48v18h-48zm64 0h64v18h-64zm80 0h112v18H896zm128 0h16v18h-16zm32 0h96v18h-96zm112 0h16v18h-16zm32 0h96v18h-96zm112 0h96v18h-96zm112 0h16v18h-16zm32 0h128v18h-128zm144 0h96v18h-96zm112 0h16v18h-16zm32 0h48v18h-48zm64 0h96v18h-96zM16 1455h80v18H16zm96 0h48v18h-48zm64 0h32v18h-32zm48 0h80v18h-80zm96 0h288v18H320zm304 0h144v18H624zm160 0h96v18h-96zm112 0h288v18H896zm304 0h112v18h-112zm128 0h192v18h-192zm208 0h48v18h-48zm64 0h144v18h-144zm160 0h80v18h-80zm96 0h16v18h-16zm32 0h16v18h-16zM16 1491h80v18H16zm96 0h112v18H112zm128 0h48v18h-48zm64 0h80v18h-80zm96 0h32v18h-32zm48 0h96v18h-96zm112 0h96v18h-96zm112 0h32v18h-32zm48 0h96v18h-96zm112 0h176v18H832zm192 0h80v18h-80zm96 0h16v18h-16zm32 0h128v18h-128zm144 0h96v18h-96zm112 0h48v18h-48zm64 0h112v18h-112zm128 0h96v18h-96zm112 0h112v18h-112zm128 0h64v18h-64zM16 1527h208v18H16zm224 0h16v18h-16zm32 0h176v18H272zm192 0h96v18h-96zm112 0h176v18H576zm192 0h48v18h-48zm64 0h48v18h-48zm64 0h80v18h-80zm96 0h160v18H992zm176 0h32v18h-32zm48 0h80v18h-80zm96 0h32v18h-32zm48 0h48v18h-48zm64 0h80v18h-80zm96 0h112v18h-112zm128 0h144v18h-144zm160 0h96v18h-96zM16 1563h96v18H16zm128 0h128v18H144zm144 0h144v18H288zm160 0h176v18H448zm192 0h64v18h-64zm80 0h48v18h-48zm64 0h128v18H784zm144 0h128v18H928zm144 0h32v18h-32zm48 0h48v18h-48zm64 0h144v18h-144zm160 0h96v18h-96zm112 0h16v18h-16zm32 0h80v18h-80zm96 0h128v18h-128zm144 0h96v18h-96zm112 0h48v18h-48zM16 1599h32v18H16zm48 0h48v18H64zm64 0h64v18h-64zm80 0h64v18h-64zm80 0h80v18h-80zm96 0h80v18h-80zm96 0h80v18h-80zm96 0h128v18H576zm144 0h16v18h-16zm32 0h160v18H752zm176 0h128v18H928zm144 0h128v18h-128zm144 0h16v18h-16zm32 0h144v18h-144zm160 0h128v18h-128zm144 0h32v18h-32zm48 0h112v18h-112zm128 0h144v18h-144zm160 0h16v18h-16zM16 1635h64v18H16zm80 0h128v18H96zm144 0h96v18h-96zm112 0h16v18h-16zm32 0h80v18h-80zm96 0h80v18h-80zm96 0h80v18h-80zm96 0h96v18h-96zm112 0h176v18H784zm192 0h112v18H976zm128 0h16v18h-16zm32 0h112v18h-112zm128 0h112v18h-112zm128 0h128v18h-128zm144 0h128v18h-128zm144 0h16v18h-16zm32 0h64v18h-64zm80 0h80v18h-80zm96 0h16v18h-16zM16 1671h144v18H16zm160 0h112v18H176zm128 0h48v18h-48zm64 0h160v18H368zm176 0h96v18h-96zm112 0h128v18H656zm144 0h112v18H800zm128 0h16v18h-16zm32 0h80v18h-80zm96 0h80v18h-80zm96 0h64v18h-64zm80 0h176v18h-176zm192 0h80v18h-80zm96 0h96v18h-96zm112 0h208v18h-208zm224 0h48v18h-48zM16 1707h48v18H16zm64 0h16v18H80zm32 0h80v18h-80zm96 0h128v18H208zm144 0h112v18H352zm128 0h32v18h-32zm48 0h96v18h-96zm112 0h176v18H640zm192 0h16v18h-16zm32 0h96v18h-96zm112 0h272v18H976zm288 0h48v18h-48zm64 0h80v18h-80zm96 0h80v18h-80zm96 0h64v18h-64zm80 0h160v18h-160zm176 0h64v18h-64zm80 0h48v18h-48zM16 1743h64v18H16zm80 0h16v18H96zm32 0h32v18h-32zm48 0h48v18h-48zm64 0h64v18h-64zm80 0h16v18h-16zm32 0h32v18h-32zm48 0h64v18h-64zm80 0h80v18h-80zm96 0h48v18h-48zm64 0h80v18h-80zm96 0h160v18H736zm176 0h192v18H912zm208 0h48v18h-48zm64 0h96v18h-96zm112 0h96v18h-96zm112 0h48v18h-48zm64 0h64v18h-64zm80 0h144v18h-144zm160 0h112v18h-112zm128 0h16v18h-16zm32 0h32v18h-32zM16 1779h64v18H16zm80 0h16v18H96zm32 0h80v18h-80zm96 0h96v18h-96zm112 0h96v18h-96zm112 0h80v18h-80zm96 0h32v18h-32zm48 0h96v18h-96zm112 0h64v18h-64zm80 0h16v18h-16zm32 0h112v18H816zm128 0h112v18H944zm128 0h16v18h-16zm32 0h128v18h-128zm144 0h112v18h-112zm128 0h128v18h-128zm144 0h80v18h-80zm96 0h128v18h-128zm144 0h128v18h-128zM16 1815h16v18H16zm32 0h80v18H48zm96 0h192v18H144zm208 0h112v18H352zm128 0h128v18H480zm144 0h112v18H624zm128 0h128v18H752zm144 0h80v18h-80zm96 0h16v18h-16zm32 0h144v18h-144zm160 0h48v18h-48zm64 0h16v18h-16zm32 0h48v18h-48zm64 0h80v18h-80zm96 0h16v18h-16zm32 0h96v18h-96zm112 0h32v18h-32zm48 0h64v18h-64zm80 0h176v18h-176zM16 1851h16v18H16zm32 0h80v18H48zm96 0h176v18H144zm192 0h48v18h-48zm64 0h80v18h-80zm96 0h32v18h-32zm48 0h80v18h-80zm96 0h80v18h-80zm96 0h48v18h-48zm64 0h32v18h-32zm48 0h48v18h-48zm64 0h16v18h-16zm32 0h48v18h-48zm64 0h80v18h-80zm96 0h16v18h-16zm32 0h96v18h-96zm112 0h144v18h-144zm160 0h96v18h-96zm112 0h32v18h-32zm48 0h80v18h-80zm96 0h144v18h-144zm160 0h80v18h-80zM16 1887h176v18H16zm192 0h144v18H208zm160 0h160v18H368zm176 0h96v18h-96zm112 0h32v18h-32zm48 0h112v18H704zm128 0h16v18h-16zm32 0h128v18H864zm144 0h16v18h-16zm32 0h144v18h-144zm160 0h144v18h-144zm160 0h96v18h-96zm112 0h96v18h-96zm112 0h64v18h-64zm80 0h80v18h-80zm96 0h16v18h-16zm32 0h112v18h-112z" fill="#999"/></svg>