<svg version="1.1" xmlns="http://www.w3.org/2000/svg" x="0" y="0" viewBox="0 0 1920 1920" xml:space="preserve"><path fill="#4db7ad" d="M0 0h1920v1920H0z"/><path d="M1334 492.3l-54 31.2-4-2.3 58-33.5v4.6zm0 172.1l-97 56 4 2.3 93-53.7v-4.6zm-2-13.9l-106 61.2v2.3l2 1.2 106-61.2v-2.3l-2-1.2zm1-134.5l-4 2.3v107.4l4 2.3V516zm1-43.3l-71 41 4 2.3 67-38.7v-4.6zm-1-178.4l-4 2.3V404l4 2.3v-112zm-1 134.5L1226 490v2.3l2 1.2 106-61.2V430l-2-1.2zm2 28.9l-84 48.5 4 2.3 80-46.2v-4.6zm0-15l-97 56 4 2.3 93-53.7v-4.6zm0-176.7l-58 33.5 4 2.3 54-31.2V266zm0 635.1l-84 48.5 4 2.3 80-46.2v-4.6zm0 15l-71 41 4 2.3 67-38.7v-4.6zm0-30l-97 56 4 2.3 93-53.7v-4.6zm0 45l-58 33.5 4 2.3 54-31.2v-4.6zm0-221.7l-58 33.5 4 2.3 54-31.2v-4.6zm-2 162.8l-106 61.2v2.3l2 1.2 106-61.2v-2.3l-2-1.2zm2-192.8l-84 48.5 4 2.3 80-46.2v-4.6zm0 15l-71 41 4 2.3 67-38.7v-4.6zm-1 43.3l-4 2.3v107.4l4 2.3v-112zm-115 438.2l-2-1.2-2 1.2v122.4l2 1.2 2-1.2v-122.4zm8-1159.3v4.6L1262.8 0h-8L1226 16.6zm0-15v4.6l10.8-6.2h-8l-2.8 1.6zM1334 0h-1.2L1237 55.3l4 2.3 93-53.7V0zm0 251l-71 41 4 2.3 67-38.7V251zM1226 31.6v4.6L1288.8 0h-8L1226 31.6zm-8 700.9l-2-1.2-2 1.2v122.4l2 1.2 2-1.2V732.5zm0 221.7l-2-1.2-2 1.2v122.4l2 1.2 2-1.2V954.2zm-4 665.1v122.4l2 1.2 2-1.2v-122.4l-2-1.2-2 1.2zm4-221.7l-2-1.2-2 1.2V1520l2 1.2 2-1.2v-122.4zm8-1351v2.3l2 1.2L1314.8 0h-8L1226 46.6zm107 26l-4 2.3v107.4l4 2.3v-112zm1 148.4l-97 56 4 2.3 93-53.7V221zm-2-13.9l-106 61.2v2.3l2 1.2 106-61.2v-2.3l-2-1.2zm2 28.9l-84 48.5 4 2.3 80-46.2V236zm0-221.7l-84 48.5 4 2.3 80-46.2v-4.6zm-1 945.1l-4 2.3v107.4l4 2.3v-112zm1-915.1l-58 33.5 4 2.3 54-31.2v-4.6zm0-15l-71 41 4 2.3 67-38.7v-4.6zm0 1078.5l-97 56 4 2.3 93-53.7v-4.6zm-81 531.7v82l4-2.3v-77.4l-4-2.3zm13 7.5v67l4-2.3v-62.4l-4-2.3zm-26-15v97l4-2.3v-92.4l-4-2.3zm-13-7.5v112l4-2.3v-107.4l-4-2.3zm-1 140.3l58-33.5-4-2.3-54 31.2v4.6zm81-125.3l-4 2.3v77.4l4 2.3v-82zm16 114.4l-4-2.3-93 53.7v4.6l97-56zm-29-106.9l-4 2.3v62.4l4 2.3v-67zm-68 132.8l71-41-4-2.3-67 38.7v4.6zm0 15.1l84-48.5-4-2.3-80 46.2v4.6zm27-377.1v82l4-2.3v-77.4l-4-2.3zm13 7.5v67l4-2.3v-62.4l-4-2.3zm54-15l-4 2.3v92.4l4 2.3v-97zm-80 0v97l4-2.3v-92.4l-4-2.3zm-14 147.8l71-41-4-2.3-67 38.7v4.6zm68-132.8l-4 2.3v62.4l4 2.3v-67zm29 106.9l-4-2.3-93 53.7v4.6l97-56zm-16-114.4l-4 2.3v77.4l4 2.3v-82zm-81 155.3l84-48.5-4-2.3-80 46.2v4.6zm108-243.6l-97 56 4 2.3 93-53.7v-4.6zm0 30l-71 41 4 2.3 67-38.7v-4.6zm-2-265.6l-106 61.2v2.3l2 1.2 106-61.2v-2.3l-2-1.2zm1 87.2l-4 2.3v107.4l4 2.3v-112zm1 163.4l-84 48.5 4 2.3 80-46.2v-4.6zm-2-28.9l-106 61.2v2.3l2 1.2 106-61.2v-2.3l-2-1.2zm-114-804.8l-2-1.2-2 1.2v122.4l2 1.2 2-1.2V510.8zm116 612l-84 48.5 4 2.3 80-46.2v-4.6zM842 669l93 53.7 4-2.3-97-56v4.6zm492 468.8l-71 41 4 2.3 67-38.7v-4.6zm0 428.4l-84 48.5 4 2.3 80-46.2v-4.6zm0 15l-71 41 4 2.3 67-38.7v-4.6zm0-206.7l-58 33.5 4 2.3 54-31.2v-4.6zm0 221.7l-58 33.5 4 2.3 54-31.2v-4.6zm-1 28.3l-4 2.3v107.4l4 2.3v-112zm-13 7.5l-4 2.3v92.4l4 2.3v-97zm13-229.2l-4 2.3v107.4l4 2.3v-112zm1 148.4l-97 56 4 2.3 93-53.7v-4.6zm-2-13.8l-106 61.2v2.3l2 1.2 106-61.2v-2.3l-2-1.2zm-144-1455v92.4l4 2.3v-97l-4 2.3zm0 443.4v92.4l4 2.3v-97l-4 2.3zm-59 84.9v-77.4l-4-2.3v82l4-2.3zm46-77.4v77.4l4 2.3v-82l-4 2.3zm31 148.4l-80-46.2-4 2.3 84 48.5v-4.6zm0-15l-67-38.7-4 2.3 71 41v-4.6zm12-377.6l-2-1.2-2 1.2v122.4l2 1.2 2-1.2V289.1zm-40 219.4l4-2.3-84-48.5v4.6l80 46.2zm-30 336l58 33.5v-4.6l-54-31.2-4 2.3zm43-121.8l4-2.3-97-56v4.6l93 53.7zm10 17.3v107.4l4 2.3v-112l-4 2.3zm-45-218.8l-58-33.5v4.6l54 31.2 4-2.3zm45-2.9v107.4l4 2.3V516l-4 2.3zm-59 84.9v-62.4l-4-2.3v67l4-2.3zm49-102.2l4-2.3-97-56v4.6l93 53.7zm-43 121.8l58 33.5v-4.6l-54-31.2-4 2.3zm-50-150.1v4.6l67 38.7 4-2.3-71-41zm18 145.5v-92.4l-4-2.3v97l4-2.3zm46-15l4 2.3v-67l-4 2.3v62.4zm-59 22.5V518.3l-4-2.3v112l4-2.3zm53 338.9l-58-33.5v4.6l54 31.2 4-2.3zm-8 101.6l58 33.5v-4.6l-54-31.2-4 2.3zm43-121.8l4-2.3-97-56v4.6l93 53.7zm-13-214.2l4-2.3-84-48.5v4.6l80 46.2zm23 231.5v107.4l4 2.3v-112l-4 2.3zm-23-674.9l4-2.3-84-48.5v4.6l80 46.2zm-75 782.3V961.7l-4-2.3v112l4-2.3zm-5-153v4.6l67 38.7 4-2.3-71-41zm18 145.5v-92.4l-4-2.3v97l4-2.3zm72-314.1v92.4l4 2.3v-97l-4 2.3zm-72 92.4v-92.4l-4-2.3v97l4-2.3zm46-15l4 2.3v-67l-4 2.3v62.4zm-20 0v-62.4l-4-2.3v67l4-2.3zm-44-130.5v4.6l67 38.7 4-2.3-71-41zm5 153V740l-4-2.3v112l4-2.3zm103 56l-80-46.2-4 2.3 84 48.5v-4.6zm0-15l-67-38.7-4 2.3 71 41v-4.6zm-77-56V755l-4-2.3v82l4-2.3zm46-77.4v77.4l4 2.3v-82l-4 2.3zm-19-12.1l-58-33.5v4.6l54 31.2 4-2.3zm71 659.9v112l4-2.3v-107.4l-4-2.3zm-71-1325l-58-33.5v4.6l54 31.2 4-2.3zm45-2.9v107.4l4 2.3v-112l-4 2.3zm-53 104.5l58 33.5v-4.6l-54-31.2-4 2.3zm-50-150.1v4.6l67 38.7 4-2.3-71-41zm64 130.5l4 2.3v-67l-4 2.3v62.4zm33 1669.1l-97-56v4.6l93 53.7 4-2.3zm-92-1646.6V74.9l-4-2.3v112l4-2.3zm13-7.5V82.4l-4-2.3v97l4-2.3zm90-153.6v-4.6L1177.2 0h-8l36.8 21.2zm-64 138.6V97.4l-4-2.3v67l4-2.3zm64-123.6v-4.6L1151.2 0h-8l62.8 36.2zm0-30V1.6l-2.8-1.6h-8l10.8 6.2zm12 61.2l-2-1.2-2 1.2v122.4l2 1.2 2-1.2V67.4zm-36 1769l-84-48.5v4.6l80 46.2 4-2.3zm-84-13.8l54 31.2 4-2.3-58-33.5v4.6zm71 21.3l-71-41v4.6l67 38.7 4-2.3zm35-1793.8l2-1.2v-2.3L1125.2 0h-8l86.8 50.1zm-42 331.4l4 2.3v-67l-4 2.3v62.4zm26-77.4v92.4l4 2.3v-97l-4 2.3zm-90-53.1v4.6l67 38.7 4-2.3-71-41zm18 145.5v-92.4l-4-2.3v97l4-2.3zm26-15v-62.4l-4-2.3v67l4-2.3zm-39 22.5V296.6l-4-2.3v112l4-2.3zm103 41l-67-38.7-4 2.3 71 41V445zm-31-133.4V389l4 2.3v-82l-4 2.3zm31 148.4l-80-46.2-4 2.3 84 48.5V460zm-77-71v-77.4l-4-2.3v82l4-2.3zm0-221.7V89.9l-4-2.3v82l4-2.3zm27 132.2l-58-33.5v4.6l54 31.2 4-2.3zm50-76.2l-67-38.7-4 2.3 71 41v-4.6zm0 15l-80-46.2-4 2.3 84 48.5v-4.6zM1098 18.9l80 46.2 4-2.3-84-48.5v4.6zm77 71v77.4l4 2.3v-82l-4 2.3zm26 206.7V404l4 2.3v-112l-4 2.3zm-53 104.5l58 33.5V430l-54-31.2-4 2.3zm43-121.8l4-2.3-97-56v4.6l93 53.7zm163 1084.8l67 38.7 4-2.3-71-41v4.6zm77 277.8v77.4l4 2.3v-82l-4 2.3zm-77-86.1l93 53.7 4-2.3-97-56v4.6zm90 78.5v92.4l4 2.3v-97l-4 2.3zm-26 15.1v62.4l4 2.3v-67l-4 2.3zm-64-78.6l80 46.2 4-2.3-84-48.5v4.6zm54 61.2l4-2.3-58-33.5v4.6l54 31.2zm-36 94.7v-92.4l-4-2.3v97l4-2.3zm26-77.3l-4-2.3v67l4-2.3v-62.4zm-39 84.8v-107.4l-4-2.3v112l4-2.3zm-5-148.4l67 38.7 4-2.3-71-41v4.6zm0-236.7l80 46.2 4-2.3-84-48.5v4.6zm-128 194l58-33.5-4-2.3-54 31.2v4.6zm182-132.8l4-2.3-58-33.5v4.6l54 31.2zm-66 209v122.4l2 1.2 2-1.2v-122.4l-2-1.2-2 1.2zm62 112l58 33.5v-4.6l-54-31.2-4 2.3zm-19-89.4l-4-2.3v82l4-2.3v-77.4zm77 133.3l-67-38.7-4 2.3 71 41v-4.6zm0 19.7v-4.6l-80-46.2-4 2.3 84 48.5zm-5-168.1v107.4l4 2.3v-112l-4 2.3zm-85-121.8v-92.4l-4-2.3v97l4-2.3zm90 317.6v-2.3l-106-61.2-2 1.2v2.3l106 61.2 2-1.2zm0-1125.9l-93-53.7-4 2.3 97 56v-4.6zm0-206.7l-106-61.2-2 1.2v2.3l106 61.2 2-1.2V490zm0 221.7l-106-61.2-2 1.2v2.3l106 61.2 2-1.2v-2.3zm-116 685.9l-2-1.2-2 1.2V1520l2 1.2 2-1.2v-122.4zm116-479.2l-93-53.7-4 2.3 97 56v-4.6zM1354 3.9l93 53.7 4-2.3L1355.2 0h-1.2v3.9zm108 249.4l-93-53.7-4 2.3 97 56v-4.6zm0 15l-106-61.2-2 1.2v2.3l106 61.2 2-1.2v-2.3zm0 206.7l-93-53.7-4 2.3 97 56V475zm0 1108.5l-93-53.7-4 2.3 97 56v-4.6zm0 15.1l-106-61.2-2 1.2v2.3l106 61.2 2-1.2v-2.3zm0 206.6l-93-53.7-4 2.3 97 56v-4.6zm0-871.8l-106-61.2-2 1.2v2.3l106 61.2 2-1.2v-2.3zm0 443.4l-106-61.2-2 1.2v2.3l106 61.2 2-1.2v-2.3zm0-15l-93-53.7-4 2.3 97 56v-4.6zm0-221.7l-93-53.7-4 2.3 97 56v-4.6zm0 15l-106-61.2-2 1.2v2.3l106 61.2 2-1.2v-2.3zm-300-108.5l4 2.3v-67l-4 2.3v62.4zm242 241.3l58 33.5v-4.6l-54-31.2-4 2.3zm-32-226.3v-92.4l-4-2.3v97l4-2.3zm-13 7.5V961.7l-4-2.3v112l4-2.3zm49-102.2l4-2.3-58-33.5v4.6l54 31.2zm-23 231.5l-4-2.3v82l4-2.3v-77.4zm-31-277.7l67 38.7 4-2.3-71-41v4.6zm108 411.1l-67-38.7-4 2.3 71 41v-4.6zm-5-148.4v107.4l4 2.3v-112l-4 2.3zm0-221.7v107.4l4 2.3v-112l-4 2.3zm-59 22.5l-4-2.3v67l4-2.3v-62.4zm0 221.8l-4-2.3v67l4-2.3V1206zm-13-229.3l-4-2.3v82l4-2.3v-77.4zm77 133.4l-67-38.7-4 2.3 71 41v-4.6zm0 19.6v-4.6l-80-46.2-4 2.3 84 48.5zm-44-145.5v62.4l4 2.3v-67l-4 2.3zm-64-78.5l80 46.2 4-2.3-84-48.5v4.6zm90 63.5v92.4l4 2.3v-97l-4 2.3zm-90-78.5l93 53.7 4-2.3-97-56v4.6zm77 86v77.4l4 2.3v-82l-4 2.3zm-77 357.4l93 53.7 4-2.3-97-56v4.6zm108 239v-4.6l-80-46.2-4 2.3 84 48.5zm0-19.6l-67-38.7-4 2.3 71 41v-4.6zm-58-43.9l58 33.5v-4.6l-54-31.2-4 2.3zm53-104.5v107.4l4 2.3v-112l-4 2.3zm-72 15l-4-2.3v82l4-2.3v-77.4zm46 0v77.4l4 2.3v-82l-4 2.3zm13-7.5v92.4l4 2.3v-97l-4 2.3zm-46 15.1l-4-2.3v67l4-2.3v-62.4zm20 0v62.4l4 2.3v-67l-4 2.3zm0-221.7v62.4l4 2.3v-67l-4 2.3zm-64-93.6l93 53.7 4-2.3-97-56v4.6zm5 178.4v-107.4l-4-2.3v112l4-2.3zm85-99.9v92.4l4 2.3v-97l-4 2.3zm-13 7.5v77.4l4 2.3v-82l-4 2.3zm-77-71l80 46.2 4-2.3-84-48.5v4.6zm18 155.9v-92.4l-4-2.3v97l4-2.3zm-18-140.9l67 38.7 4-2.3-71-41v4.6zm54 46.2l4-2.3-58-33.5v4.6l54 31.2zm-49 323.9v-107.4l-4-2.3v112l4-2.3zM1226 908l84-48.5-4-2.3-80 46.2v4.6zm81-155.3l-4 2.3v77.4l4 2.3v-82zm16 114.3l-4-2.3-93 53.7v4.6l97-56zm-29-106.8l-4 2.3v62.4l4 2.3v-67zm-68 339.5l58-33.5-4-2.3-54 31.2v4.6zm94-354.5l-4 2.3v92.4l4 2.3v-97zm-80 221.7v97l4-2.3v-92.4l-4-2.3zm-13-7.5v112l4-2.3V961.7l-4-2.3zm-1-66.4l71-41-4-2.3-67 38.7v4.6zm0-206.7l84-48.5-4-2.3-80 46.2v4.6zm94-162.8l-4 2.3v92.4l4 2.3v-97zm3 121.8l-4-2.3-93 53.7v4.6l97-56zM1307 531l-4 2.3v77.4l4 2.3v-82zm-54 443.4v82l4-2.3v-77.4l-4-2.3zm0-221.7v82l4-2.3V755l-4-2.3zm13 7.5v67l4-2.3v-62.4l-4-2.3zM1226 878l58-33.5-4-2.3-54 31.2v4.6zm14-132.8v97l4-2.3v-92.4l-4-2.3zm-13-7.5v112l4-2.3V740l-4-2.3zm96 351l-4-2.3-93 53.7v4.6l97-56zm-29 114.9l-4 2.3v62.4l4 2.3v-67zm-54-15v97l4-2.3v-92.4l-4-2.3zm26-206.7v67l4-2.3v-62.4l-4-2.3zm-13 214.2v82l4-2.3v-77.4l-4-2.3zm-27 140.3l71-41-4-2.3-67 38.7v4.6zm97-25.9l-4-2.3-93 53.7v4.6l97-56zm-3-121.9l-4 2.3v92.4l4 2.3v-97zm-94 162.8l84-48.5-4-2.3-80 46.2v4.6zm81-155.3l-4 2.3v77.4l4 2.3v-82zm-41 7.5v67l4-2.3V1206l-4-2.4zm28-221.7l-4 2.3v62.4l4 2.3v-67zm-68 147.8l84-48.5-4-2.3-80 46.2v4.6zm1 51.4v112l4-2.3v-107.4l-4-2.3zm-1-66.4l71-41-4-2.3-67 38.7v4.6zm81-140.3l-4 2.3v77.4l4 2.3v-82zm-81 347l58-33.5-4-2.3-54 31.2v4.6zm68-782.9l-4 2.3v62.4l4 2.3v-67zm26 428.4l-4 2.3v92.4l4 2.3v-97zm26-456.1l-2-1.2-2 1.2v122.4l2 1.2 2-1.2V510.8zm-39-423.2l-4 2.3v77.4l4 2.3v-82zm25 1671.5l-106 61.2v2.3l2 1.2 106-61.2v-2.3l-2-1.2zm-92-1679v97l4-2.3V82.4l-4-2.3zm-14 132.8l58-33.5-4-2.3-54 31.2v4.6zm1-140.3v112l4-2.3V74.9l-4-2.3zm67 22.5l-4 2.3v62.4l4 2.3v-67zm-68 147.8l84-48.5-4-2.3-80 46.2v4.6zm0-15l71-41-4-2.3-67 38.7v4.6zm40-132.8v67l4-2.3V97.4l-4-2.3zm-13-7.5v82l4-2.3V89.9l-4-2.3zm93 1088.3l-2-1.2-2 1.2v122.4l2 1.2 2-1.2v-122.4zm0-443.4l-2-1.2-2 1.2v122.4l2 1.2 2-1.2V732.5zm0-443.4l-2-1.2-2 1.2v122.4l2 1.2 2-1.2V289.1zm0 665.1l-2-1.2-2 1.2v122.4l2 1.2 2-1.2V954.2zm-12 833.7l-84 48.5 4 2.3 80-46.2v-4.6zm12-1720.5l-2-1.2-2 1.2v122.4l2 1.2 2-1.2V67.4zm-12 1755.2v-4.6l-58 33.5 4 2.3 54-31.2zm0-49.7l-97 56 4 2.3 93-53.7v-4.6zm0 30l-71 41 4 2.3 67-38.7v-4.6zM1320 80.1l-4 2.3v92.4l4 2.3v-97zm0 221.7l-4 2.3v92.4l4 2.3v-97zm-94 354.5l58-33.5-4-2.3-54 31.2v4.6zm97-232.7l-4-2.3-93 53.7v4.6l97-56zm-97 41l84-48.5-4-2.3-80 46.2v4.6zm81-155.3l-4 2.3V389l4 2.3v-82zM1227 516v112l4-2.3V518.3l-4-2.3zm26 15v82l4-2.3v-77.4l-4-2.3zm-27-273.1l97-56-4-2.3-93 53.7v4.6zm14 265.6v97l4-2.3v-92.4l-4-2.3zm26 15v67l4-2.3v-62.4l-4-2.3zm-40-103.9l58-33.5-4-2.3-54 31.2v4.6zm14-132.8v97l4-2.3v-92.4l-4-2.3zm54 15l-4 2.3v62.4l4 2.3v-67zm-68 354.5l71-41-4-2.3-67 38.7v4.6zm1-377v112l4-2.3V296.6l-4-2.3zm-1 155.3l71-41-4-2.3-67 38.7v4.6zm27-140.3v82l4-2.3v-77.4l-4-2.3zm13 7.5v67l4-2.3v-62.4l-4-2.3zm196 1034.6v-4.6l-80-46.2-4 2.3 84 48.5zm-492 443.5l84-48.5-4-2.3-80 46.2v4.6zm0 27.7l2 1.2 106-61.2v-2.3l-2-1.2-106 61.2v2.3zm0-12.7l97-56-4-2.3-93 53.7v4.6zm1-73.4l4-2.3v-107.4l-4-2.3v112zm107-407l-97 56 4 2.3 93-53.7v-4.6zm0-221.7l-97 56 4 2.3 93-53.7v-4.6zm0 443.4l-97 56 4 2.3 93-53.7v-4.6zm0-665.1l-97 56 4 2.3 93-53.7v-4.6zm-81 835.4l4-2.3v-77.4l-4-2.3v82zm80 15v-112l-4 2.3v107.4l4 2.3zm-13-7.5v-97l-4 2.3v92.4l4 2.3zm14-162.8l-84 48.5 4 2.3 80-46.2v-4.6zm0-901.8l-97 56 4 2.3 93-53.7v-4.6zm0 931.8l-58 33.5 4 2.3 54-31.2v-4.6zm-27 125.3v-82l-4 2.3v77.4l4 2.3zm-81 58.3l71-41-4-2.3-67 38.7v4.6zm108-198.6l-71 41 4 2.3 67-38.7v-4.6zm-68 132.8l4-2.3v-62.4l-4-2.3v67zm28-67l-4 2.3v62.4l4 2.3v-67zm-76-249.4l-2-1.2-2 1.2V1520l2 1.2 2-1.2v-122.4zm0-443.4l-2-1.2-2 1.2v122.4l2 1.2 2-1.2V954.2zm0-443.4l-2-1.2-2 1.2v122.4l2 1.2 2-1.2V510.8zm0-221.7l-2-1.2-2 1.2v122.4l2 1.2 2-1.2V289.1zm0 443.4l-2-1.2-2 1.2v122.4l2 1.2 2-1.2V732.5zm0-665.1l-2-1.2-2 1.2v122.4l2 1.2 2-1.2V67.4zm-12-31.2v-4.6L895.2 0h-8L950 36.2zm128 406.5l-97 56 4 2.3 93-53.7v-4.6zM950 6.2V1.6L947.2 0h-8L950 6.2zm0 15v-4.6L921.2 0h-8L950 21.2zm-2 28.9l2-1.2v-2.3L869.2 0h-8L948 50.1zm22-3.5v2.3l2 1.2L1058.8 0h-8L970 46.6zm0-15v4.6L1032.8 0h-8L970 31.6zm-8 1144.3l-2-1.2-2 1.2v122.4l2 1.2 2-1.2v-122.4zm8-1159.3v4.6L1006.8 0h-8L970 16.6zM1078 221l-97 56 4 2.3 93-53.7V221zM958 1619.3v122.4l2 1.2 2-1.2v-122.4l-2-1.2-2 1.2zM970 1.6v4.6L980.8 0h-8L970 1.6zM984 1632v97l4-2.3v-92.4l-4-2.3zm0-221.7v97l4-2.3v-92.4l-4-2.3zm-14-73.9l71-41-4-2.3-67 38.7v4.6zm68-132.8l-4 2.3v62.4l4 2.3v-67zm40-65.8l-71 41 4 2.3 67-38.7v-4.6zm-27 140.3v-82l-4 2.3v77.4l4 2.3zm-41-7.5l4-2.3V1206l-4-2.3v66.9zm-13 7.5l4-2.3v-77.4l-4-2.3v82zm-26 15l4-2.3v-107.4l-4-2.3v112zm107-170.3l-84 48.5 4 2.3 80-46.2v-4.6zm-14 162.8v-97l-4 2.3v92.4l4 2.3zm13 7.5v-112l-4 2.3v107.4l4 2.3zm-107-163.4l84-48.5-4-2.3-80 46.2v4.6zm1-58.3l4-2.3V961.7l-4-2.3v112zm-1 73.4l97-56-4-2.3-93 53.7v4.6zm27-88.4l4-2.3v-77.4l-4-2.3v82zm-13 132.2v97l4-2.3v-92.4l-4-2.3zm94-35.8l-58 33.5 4 2.3 54-31.2v-4.6zm-108 198.6l84-48.5-4-2.3-80 46.2v4.6zm0-193.9l2 1.2 106-61.2v-2.3l-2-1.2-106 61.2v2.3zm0 163.9l58-33.5-4-2.3-54 31.2v4.6zm68 103.9l-4 2.3v62.4l4 2.3v-67zm-28 67l4-2.3v-62.4l-4-2.3v67zm-40 272.5l58-33.5-4-2.3-54 31.2v4.6zm108-420.3l-84 48.5 4 2.3 80-46.2v-4.6zm0 15l-71 41 4 2.3 67-38.7v-4.6zm-81 140.3l4-2.3v-77.4l-4-2.3v82zm-27 88.4l97-56-4-2.3-93 53.7v4.6zm0-221.7l97-56-4-2.3-93 53.7v4.6zm1 148.3l4-2.3v-107.4l-4-2.3v112zm-1 58.3l84-48.5-4-2.3-80 46.2v4.6zm0 27.8l2 1.2 106-61.2v-2.3l-2-1.2-106 61.2v2.3zm-57 243l-71-41v4.6l67 38.7 4-2.3zm57-300.8l58-33.5-4-2.3-54 31.2v4.6zm0-163.9l2 1.2 106-61.2v-2.3l-2-1.2-106 61.2v2.3zm108-4.7l-58 33.5 4 2.3 54-31.2v-4.6zm-14 132.8v-97l-4 2.3v92.4l4 2.3zm13 7.5v-112l-4 2.3v107.4l4 2.3zm-26-15v-82l-4 2.3v77.4l4 2.3zm-81 58.3l71-41-4-2.3-67 38.7v4.6zm-128-209l80 46.2 4-2.3-84-48.5v4.6zm28-48.5l-4 2.3 84 48.5v-4.6l-80-46.2zm-10-17.3v-92.4l-4-2.3v97l4-2.3zm23 9.8l-4 2.3 71 41v-4.6l-67-38.7zm-36-2.3v-107.4l-4-2.3v112l4-2.3zm103 71l-93-53.7-4 2.3 97 56v-4.6zm-44-377.6v62.4l4 2.3v-67l-4 2.3zm44 170.9l-106-61.2-2 1.2v2.3l106 61.2 2-1.2v-2.3zm-5-193.4v107.4l4 2.3v-112l-4 2.3zm-53 104.5l58 33.5v-4.6l-54-31.2-4 2.3zm-50 76.2l67 38.7 4-2.3-71-41v4.6zm77 56v77.4l4 2.3v-82l-4 2.3zm26-15v107.4l4 2.3v-112l-4 2.3zm-13 7.5v92.4l4 2.3v-97l-4 2.3zm-26 15.1v62.4l4 2.3v-67l-4 2.3zm-64-78.6l80 46.2 4-2.3-84-48.5v4.6zm0 30.1l54 31.2 4-2.3-58-33.5v4.6zm31 118.3v-77.4l-4-2.3v82l4-2.3zm13-7.5V1206l-4-2.3v67l4-2.4zm33-291.6v77.4l4 2.3v-82l-4 2.3zm-77 135.7l93 53.7 4-2.3-97-56v4.6zm50-267.9l58 33.5v-4.6l-54-31.2-4 2.3zm-9 226.9l-4 2.3 71 41v-4.6l-67-38.7zm67 68.7l-93-53.7-4 2.3 97 56v-4.6zm-80-61.2l-4 2.3 84 48.5v-4.6l-80-46.2zm80-145.5l-106-61.2-2 1.2v2.3l106 61.2 2-1.2v-2.3zm-18-185.9v92.4l4 2.3v-97l-4 2.3zm-13 7.5v77.4l4 2.3v-82l-4 2.3zm-13 7.5v62.4l4 2.3v-67l-4 2.3zm39-22.5v107.4l4 2.3v-112l-4 2.3zM842 905.7l80 46.2 4-2.3-84-48.5v4.6zm0 30.1l54 31.2 4-2.3-58-33.5v4.6zm0-15.1l67 38.7 4-2.3-71-41v4.6zm90 48.5v92.4l4 2.3v-97l-4 2.3zm-90-78.5l93 53.7 4-2.3-97-56v4.6zm18 170.9v-92.4l-4-2.3v97l4-2.3zm26-15v-62.4l-4-2.3v67l4-2.3zm-39 22.5V961.7l-4-2.3v112l4-2.3zm26-15v-77.4l-4-2.3v82l4-2.3zm10 460.7l-4 2.3 71 41v-4.6l-67-38.7zm-10 204.4v-77.4l-4-2.3v82l4-2.3zm10 17.3l-4 2.3 71 41v-4.6l-67-38.7zm3-24.8v-62.4l-4-2.3v67l4-2.3zm-44-125.9l67 38.7 4-2.3-71-41v4.6zm18 140.9v-92.4l-4-2.3v97l4-2.3zm10 17.3l-4 2.3 84 48.5v-4.6l-80-46.2zm22-456.1l58 33.5v-4.6l-54-31.2-4 2.3zm58 517.3l-93-53.7-4 2.3 97 56v-4.6zm-103-71v-107.4l-4-2.3v112l4-2.3zm-5-133.3l54 31.2 4-2.3-58-33.5v4.6zm108 221.7v-2.3l-106-61.2-2 1.2v2.3l106 61.2 2-1.2zm-58-91.3l58 33.5v-4.6l-54-31.2-4 2.3zm47 97.6l-97-56v4.6l93 53.7 4-2.3zm-13 7.5l-84-48.5v4.6l80 46.2 4-2.3zm-84-280.6l93 53.7 4-2.3-97-56v4.6zm103 71v107.4l4 2.3v-112l-4 2.3zm-13 7.5v92.4l4 2.3v-97l-4 2.3zm-13 7.6v77.4l4 2.3v-82l-4 2.3zm-13 7.5v62.4l4 2.3v-67l-4 2.3zm-64-78.6l80 46.2 4-2.3-84-48.5v4.6zm0-191.6l54 31.2 4-2.3-58-33.5v4.6zm5 133.3v-107.4l-4-2.3v112l4-2.3zm26-15v-77.4l-4-2.3v82l4-2.3zm13-7.5v-62.4l-4-2.3v67l4-2.3zm-26 15v-92.4l-4-2.3v97l4-2.3zm90-128.2l-106-61.2-2 1.2v2.3l106 61.2 2-1.2v-2.3zm-108 445.8l54 31.2 4-2.3-58-33.5v4.6zm28-300.3l-4 2.3 84 48.5v-4.6l-80-46.2zm80 61.2l-93-53.7-4 2.3 97 56v-4.6zm-108-219.4l67 38.7 4-2.3-71-41v4.6zm108 234.5l-106-61.2-2 1.2v2.3l106 61.2 2-1.2v-2.3zm-5-193.5v107.4l4 2.3v-112l-4 2.3zm-53 104.5l58 33.5v-4.6l-54-31.2-4 2.3zm250-463v-62.4l-4-2.3v67l4-2.3zm-236 381.1v62.4l4 2.3v-67l-4 2.3zm26-15.1v92.4l4 2.3v-97l-4 2.3zm146-511.5l-84 48.5 4 2.3 80-46.2v-4.6zm-236 433l93 53.7 4-2.3-97-56v4.6zm77 86v77.4l4 2.3v-82l-4 2.3zm287-265l-106-61.2-2 1.2v2.3l106 61.2 2-1.2v-2.3zm-31 486.8v77.4l4 2.3v-82l-4 2.3zm3-24.9l4-2.3-84-48.5v4.6l80 46.2zm10 17.3v92.4l4 2.3v-97l-4 2.3zm18 170.9l-93-53.7-4 2.3 97 56v-4.6zm0-206.6l-106-61.2-2 1.2v2.3l106 61.2 2-1.2v-2.3zm0-236.8l-93-53.7-4 2.3 97 56v-4.6zm0 15l-106-61.2-2 1.2v2.3l106 61.2 2-1.2v-2.3zm0 206.7l-93-53.7-4 2.3 97 56v-4.6zm0 239.1v-2.3l-106-61.2-2 1.2v2.3l106 61.2 2-1.2zm-5-195.8v107.4l4 2.3v-112l-4 2.3zm-85 99.9v-92.4l-4-2.3v97l4-2.3zm40-97l-58-33.5v4.6l54 31.2 4-2.3zM981 55.3l4 2.3 93-53.7V0h-1.2L981 55.3zm181 1656.4l4 2.3v-67l-4 2.3v62.4zm44 78.5l-80-46.2-4 2.3 84 48.5v-4.6zm-77-71v-77.4l-4-2.3v82l4-2.3zm13-7.5v-62.4l-4-2.3v67l4-2.3zm64 63.5l-67-38.7-4 2.3 71 41v-4.6zm-103-41v-107.4l-4-2.3v112l4-2.3zm-17-114.9v122.4l2 1.2 2-1.2v-122.4l-2-1.2-2 1.2zm4-443.4l-2-1.2-2 1.2v122.4l2 1.2 2-1.2v-122.4zm0-221.7l-2-1.2-2 1.2v122.4l2 1.2 2-1.2V954.2zm8-950.3l93 53.7 4-2.3L1099.2 0h-1.2v3.9zm-8 1393.7l-2-1.2-2 1.2V1520l2 1.2 2-1.2v-122.4zm0-1108.5l-2-1.2-2 1.2v122.4l2 1.2 2-1.2V289.1zm0-221.7l-2-1.2-2 1.2v122.4l2 1.2 2-1.2V67.4zm116 1072.7l-93-53.7-4 2.3 97 56v-4.6zm-116-407.6l-2-1.2-2 1.2v122.4l2 1.2 2-1.2V732.5zm0-221.7l-2-1.2-2 1.2v122.4l2 1.2 2-1.2V510.8zm116 200.9l-106-61.2-2 1.2v2.3l106 61.2 2-1.2v-2.3zm0-15l-93-53.7-4 2.3 97 56v-4.6zm0 221.7l-93-53.7-4 2.3 97 56v-4.6zm0 15l-106-61.2-2 1.2v2.3l106 61.2 2-1.2v-2.3zm0-665.1l-106-61.2-2 1.2v2.3l106 61.2 2-1.2v-2.3zm0-15l-93-53.7-4 2.3 97 56v-4.6zm0 221.7l-93-53.7-4 2.3 97 56V475zm0 15l-106-61.2-2 1.2v2.3l106 61.2 2-1.2V490zm-108 1091.2v4.6l67 38.7 4-2.3-71-41zm5-290.4v-107.4l-4-2.3v112l4-2.3zm59-22.5l4 2.3v-67l-4 2.3v62.4zm-64-130.5v4.6l67 38.7 4-2.3-71-41zm18 145.5v-92.4l-4-2.3v97l4-2.3zm40-97l-58-33.5v4.6l54 31.2 4-2.3zm50 160.5l-80-46.2-4 2.3 84 48.5v-4.6zm-31-148.4v77.4l4 2.3v-82l-4 2.3zm-46 77.4v-77.4l-4-2.3v82l4-2.3zm13-7.5V1206l-4-2.3v67l4-2.4zm64 63.5l-67-38.7-4 2.3 71 41v-4.6zm0-221.7l-67-38.7-4 2.3 71 41v-4.6zm-5 73.3v107.4l4 2.3v-112l-4 2.3zm-26-206.7v77.4l4 2.3v-82l-4 2.3zm-46 77.4v-77.4l-4-2.3v82l4-2.3zm77 71l-80-46.2-4 2.3 84 48.5v-4.6zm-18-155.9v92.4l4 2.3v-97l-4 2.3zm3 196.9l4-2.3-97-56v4.6l93 53.7zm-43 121.8l58 33.5v-4.6l-54-31.2-4 2.3zm30-336l4-2.3-84-48.5v4.6l80 46.2zm23 453.2v107.4l4 2.3v-112l-4 2.3zm5 163.4l-80-46.2-4 2.3 84 48.5v-4.6zm-77-71v-77.4l-4-2.3v82l4-2.3zm77 56l-67-38.7-4 2.3 71 41v-4.6zm-64-63.5v-62.4l-4-2.3v67l4-2.3zm46-77.4v92.4l4 2.3v-97l-4 2.3zm3 196.9l4-2.3-97-56v4.6l93 53.7zm-13-214.2l4-2.3-84-48.5v4.6l80 46.2zm-16 94.7l4 2.3v-67l-4 2.3v62.4zm13-69.9v77.4l4 2.3v-82l-4 2.3zm-77-60.6v4.6l67 38.7 4-2.3-71-41zm50 150.1l58 33.5v-4.6l-54-31.2-4 2.3zm43-121.8l4-2.3-97-56v4.6l93 53.7zm-13-214.2l4-2.3-84-48.5v4.6l80 46.2zm-30 557.7l58 33.5v-4.6l-54-31.2-4 2.3zm8-323.3l-58-33.5v4.6l54 31.2 4-2.3zm-53 104.5v-107.4l-4-2.3v112l4-2.3zm85-321.6v92.4l4 2.3v-97l-4 2.3zm-72 314.1v-92.4l-4-2.3v97l4-2.3zm-38-810.6l-71 41 4 2.3 67-38.7v-4.6zM970 878l58-33.5-4-2.3-54 31.2v4.6zm0-164l2 1.2 106-61.2v-2.3l-2-1.2-106 61.2v2.3zm14 31.2v97l4-2.3v-92.4l-4-2.3zm-14-43.9l97-56-4-2.3-93 53.7v4.6zm94 140.9v-97l-4 2.3v92.4l4 2.3zm-13-7.5v-82l-4 2.3v77.4l4 2.3zm-81-148.4l84-48.5-4-2.3-80 46.2v4.6zm0 206.7l71-41-4-2.3-67 38.7v4.6zm108-183.6l-58 33.5 4 2.3 54-31.2v-4.6zm0 1093.5l-71 41 4 2.3 67-38.7v-4.6zM1051 613v-82l-4 2.3v77.4l4 2.3zm-13-74.5l-4 2.3v62.4l4 2.3v-67zm-68 132.8l71-41-4-2.3-67 38.7v4.6zm1-43.3l4-2.3V518.3l-4-2.3v112zm93-7.5v-97l-4 2.3v92.4l4 2.3zm-67-7.5l4-2.3v-77.4l-4-2.3v82zm81-140.3l-71 41 4 2.3 67-38.7v-4.6zm0-15l-84 48.5 4 2.3 80-46.2v-4.6zm-1 170.3V516l-4 2.3v107.4l4 2.3zm-67-22.5l4-2.3v-62.4l-4-2.3v67zm67 465.9v-112l-4 2.3v107.4l4 2.3zm-13-7.5v-97l-4 2.3v92.4l4 2.3zm14-132.8l-58 33.5 4 2.3 54-31.2v-4.6zm-94 35.8v97l4-2.3v-92.4l-4-2.3zm94-50.8l-71 41 4 2.3 67-38.7v-4.6zm-40 65.8l-4 2.3v62.4l4 2.3v-67zm13 74.5v-82l-4 2.3v77.4l4 2.3zm-81 43.3l58-33.5-4-2.3-54 31.2v4.6zm0 15l71-41-4-2.3-67 38.7v4.6zm108-435.3l-84 48.5 4 2.3 80-46.2v-4.6zm-68 147.8l4-2.3v-62.4l-4-2.3v67zm28-67l-4 2.3v62.4l4 2.3v-67zm-28 288.7l4-2.3v-62.4l-4-2.3v67zm-40-113.1l2 1.2 106-61.2v-2.3l-2-1.2-106 61.2v2.3zm27-101.1l4-2.3V755l-4-2.3v82zM970 923l97-56-4-2.3-93 53.7v4.6zm1-73.3l4-2.3V740l-4-2.3v112zm-1 58.3l84-48.5-4-2.3-80 46.2v4.6zm107-58.3v-112l-4 2.3v107.4l4 2.3zm-67-687.6l4-2.3V97.4l-4-2.3v67zm68-132.8l-71 41 4 2.3 67-38.7v-4.6zm0-15l-84 48.5 4 2.3 80-46.2v-4.6zm-40 147.8v-67l-4 2.3v62.4l4 2.3zm-68 65.8l71-41-4-2.3-67 38.7v4.6zm0 15l84-48.5-4-2.3-80 46.2v4.6zm27-73.3l4-2.3V89.9l-4-2.3v82zm-27 88.3l97-56-4-2.3-93 53.7v4.6zm81-88.3v-82l-4 2.3v77.4l4 2.3zm27 1653v-4.6l-58 33.5 4 2.3 54-31.2zM970 212.9l58-33.5-4-2.3-54 31.2v4.6zm108 1575l-84 48.5 4 2.3 80-46.2v-4.6zm0-15l-97 56 4 2.3 93-53.7v-4.6zM970 270.6l2 1.2 106-61.2v-2.3l-2-1.2-106 61.2v2.3zm94-93.5v-97l-4 2.3v92.4l4 2.3zM971 72.6v112l4-2.3V74.9l-4-2.3zm106 112v-112l-4 2.3v107.4l4 2.3zm1-140.3l-58 33.5 4 2.3 54-31.2v-4.6zm-94 35.8v97l4-2.3V82.4l-4-2.3zm-13 326.2l4-2.3V296.6l-4-2.3v112zm39-22.5l4-2.3v-62.4l-4-2.3v67zm68 103.9l-58 33.5 4 2.3 54-31.2v-4.6zm-108-23.1l84-48.5-4-2.3-80 46.2v4.6zM1078 236l-84 48.5 4 2.3 80-46.2V236zm-81 155.3l4-2.3v-77.4l-4-2.3v82zm-27 43.3l58-33.5-4-2.3-54 31.2v4.6zm14 88.9v97l4-2.3v-92.4l-4-2.3zm-14 132.8l58-33.5-4-2.3-54 31.2v4.6zm0-164l2 1.2 106-61.2V430l-2-1.2L970 490v2.3zm0-12.7l97-56-4-2.3-93 53.7v4.6zM1078 266l-58 33.5 4 2.3 54-31.2V266zm-14 132.8v-97l-4 2.3v92.4l4 2.3zm13 7.5v-112l-4 2.3V404l4 2.3zm1-155.3l-71 41 4 2.3 67-38.7V251zm-94 50.8v97l4-2.3v-92.4l-4-2.3zm54 15l-4 2.3v62.4l4 2.3v-67zm13 74.5v-82l-4 2.3V389l4 2.3zm-81 58.3l71-41-4-2.3-67 38.7v4.6zm364 703.2l-58 33.5 4 2.3 54-31.2v-4.6zm404 448.1l2 1.2 106-61.2v-2.3l-2-1.2-106 61.2v2.3zm0-12.7l97-56-4-2.3-93 53.7v4.6zm0 176.6l58-33.5-4-2.3-54 31.2v4.6zm1-250l4-2.3v-107.4l-4-2.3v112zm107 81.4l-58 33.5 4 2.3 54-31.2v-4.6zm-68-103.9l4-2.3v-62.4l-4-2.3v67zm67 244.2v-112l-4 2.3v107.4l4 2.3zm-93-104.5v97l4-2.3v-92.4l-4-2.3zm13 7.5v82l4-2.3v-77.4l-4-2.3zm81-265l-58 33.5 4 2.3 54-31.2v-4.6zm-14 132.8v-97l-4 2.3v92.4l4 2.3zm13 7.5v-112l-4 2.3v107.4l4 2.3zm-13 214.2v-97l-4 2.3v92.4l4 2.3zm-67-311.2v82l4-2.3v-77.4l-4-2.3zm-27 140.3l71-41-4-2.3-67 38.7v4.6zm0 15l84-48.5-4-2.3-80 46.2v4.6zm81-155.3l-4 2.3v77.4l4 2.3v-82zm27-58.3l-71 41 4 2.3 67-38.7v-4.6zm-40 65.8l-4 2.3v62.4l4 2.3v-67zm-68 397.3l2 1.2 106-61.2v-2.3l-2-1.2-106 61.2v2.3zm68-1062.4l-4 2.3v62.4l4 2.3v-67zm-68 1019.6l71-41-4-2.3-67 38.7v4.6zm108-657l-84 48.5 4 2.3 80-46.2v-4.6zm0 428.4l-97 56 4 2.3 93-53.7v-4.6zm0-871.8l-84 48.5 4 2.3 80-46.2v-4.6zm0 886.8l-84 48.5 4 2.3 80-46.2v-4.6zm0-458.4l-97 56 4 2.3 93-53.7v-4.6zm0-221.7l-97 56 4 2.3 93-53.7v-4.6zm0 15l-84 48.5 4 2.3 80-46.2v-4.6zm0 428.4l-97 56 4 2.3 93-53.7v-4.6zm0 251.7l-71 41 4 2.3 67-38.7v-4.6zm-108 213.7l84-48.5-4-2.3-80 46.2v4.6zm81-155.4l-4 2.3v77.4l4 2.3v-82zm-67-229.2v97l4-2.3v-92.4l-4-2.3zm54 236.7l-4 2.3v62.4l4 2.3v-67zm-68 162.9l97-56-4-2.3-93 53.7v4.6zm40-95.9l4-2.3v-62.4l-4-2.3v67zm-39 22.5l4-2.3v-107.4l-4-2.3v112zm67-532.9l-4 2.3v62.4l4 2.3v-67zm26-139.7v-97l-4 2.3v92.4l4 2.3zm-94 50.8l71-41-4-2.3-67 38.7v4.6zm107-43.3v-112l-4 2.3v107.4l4 2.3zm1-140.3l-58 33.5 4 2.3 54-31.2v-4.6zm0-15l-71 41 4 2.3 67-38.7v-4.6zm-81 58.3v82l4-2.3v-77.4l-4-2.3zm13 74.5l4-2.3v-62.4l-4-2.3v67zm41-74.5l-4 2.3v77.4l4 2.3v-82zm-81 155.3l84-48.5-4-2.3-80 46.2v4.6zm68-147.8l-4 2.3v62.4l4 2.3v-67zm40-287.5l-71 41 4 2.3 67-38.7v-4.6zm-27 58.3l-4 2.3v77.4l4 2.3v-82zm-41 74.5l4-2.3v-62.4l-4-2.3v67zm-40 80.8l84-48.5-4-2.3-80 46.2v4.6zm0 27.8l2 1.2 106-61.2v-2.3l-2-1.2-106 61.2v2.3zm1-86.1l4-2.3V740l-4-2.3v112zm-1 693.4l58-33.5-4-2.3-54 31.2v4.6zm0-443.4l58-33.5-4-2.3-54 31.2v4.6zm0-176.7l97-56-4-2.3-93 53.7v4.6zm14 43.9v97l4-2.3v-92.4l-4-2.3zm-14 384.5l84-48.5-4-2.3-80 46.2v4.6zm81-155.3l-4 2.3v77.4l4 2.3v-82zm27-531.7l-97 56 4 2.3 93-53.7v-4.6zm0 473.4l-71 41 4 2.3 67-38.7v-4.6zm-108 198.6l71-41-4-2.3-67 38.7v4.6zm0 42.8l2 1.2 106-61.2v-2.3l-2-1.2-106 61.2v2.3zm40-108.6l4-2.3V1206l-4-2.3v66.9zm-40 95.9l97-56-4-2.3-93 53.7v4.6zm1-73.4l4-2.3v-107.4l-4-2.3v112zm-1-135.6l2 1.2 106-61.2v-2.3l-2-1.2-106 61.2v2.3zm14 31.1v97l4-2.3v-92.4l-4-2.3zm-14 132.8l58-33.5-4-2.3-54 31.2v4.6zm1-250l4-2.3V961.7l-4-2.3v112zm-1 73.4l97-56-4-2.3-93 53.7v4.6zm108 8l-58 33.5 4 2.3 54-31.2v-4.6zm-1 140.3v-112l-4 2.3v107.4l4 2.3zm-13-7.5v-97l-4 2.3v92.4l4 2.3zm-67-89.5v82l4-2.3v-77.4l-4-2.3zm81 148.4l-84 48.5 4 2.3 80-46.2v-4.6zM1610 270.6l54 31.2 4-2.3-58-33.5v4.6zm18 125.9v-92.4l-4-2.3v97l4-2.3zm-18-140.9l67 38.7 4-2.3-71-41v4.6zm0-15l80 46.2 4-2.3-84-48.5v4.6zm0 191.7l106 61.2 2-1.2V490l-106-61.2-2 1.2v2.3zm31 101l-4-2.3v82l4-2.3v-77.4zm77 153v-4.6l-80-46.2-4 2.3 84 48.5zM1615 404V296.6l-4-2.3v112l4-2.3zm-5-178.4l93 53.7 4-2.3-97-56v4.6zm54 173.2l-4 2.3 58 33.5V430l-54-31.2zm-23-87.2l-4-2.3v82l4-2.3v-77.4zm77 133.4l-67-38.7-4 2.3 71 41V445zm-64-125.9l-4-2.3v67l4-2.3v-62.4zm64 145.5V460l-80-46.2-4 2.3 84 48.5zm-44-145.5v62.4l4 2.3v-67l-4 2.3zm13-7.5V389l4 2.3v-82l-4 2.3zm13-7.5v92.4l4 2.3v-97l-4 2.3zm18 362.6l-67-38.7-4 2.3 71 41v-4.6zm-5-370.1V404l4 2.3v-112l-4 2.3zm-26 236.7v77.4l4 2.3v-82l-4 2.3zm-72 92.4V518.3l-4-2.3v112l4-2.3zm-5 28.3l106 61.2 2-1.2v-2.3l-106-61.2-2 1.2v2.3zm44-113.2l-4-2.3v67l4-2.3v-62.4zm64 367.2v-4.6l-80-46.2-4 2.3 84 48.5zm-108-415.7l54 31.2 4-2.3-58-33.5v4.6zm31 262.7l-4-2.3v82l4-2.3V755zm13 7.5l-4-2.3v67l4-2.3v-62.4zm10 79.7l-4 2.3 58 33.5v-4.6l-54-31.2zm54 46.2l-67-38.7-4 2.3 71 41v-4.6zm-90-270.2v-92.4l-4-2.3v97l4-2.3zm-18-407.6l106 61.2 2-1.2v-2.3l-106-61.2-2 1.2v2.3zm90 315.2v92.4l4 2.3v-97l-4 2.3zm-90-48.5l67 38.7 4-2.3-71-41v4.6zm54 143.2l-4 2.3 58 33.5v-4.6l-54-31.2zm10-79.7v62.4l4 2.3v-67l-4 2.3zm-64-78.5l80 46.2 4-2.3-84-48.5v4.6zm0-15l93 53.7 4-2.3-97-56v4.6zm103 71v107.4l4 2.3V516l-4 2.3zm17 435.9l-2-1.2-2 1.2v122.4l2 1.2 2-1.2V954.2zm0-221.7l-2-1.2-2 1.2v122.4l2 1.2 2-1.2V732.5zm0-221.7l-2-1.2-2 1.2v122.4l2 1.2 2-1.2V510.8zm116-53.1l-84 48.5 4 2.3 80-46.2v-4.6zm-120 1161.6v122.4l2 1.2 2-1.2v-122.4l-2-1.2-2 1.2zm4-443.4l-2-1.2-2 1.2v122.4l2 1.2 2-1.2v-122.4zM1718 6.2V1.6l-2.8-1.6h-8l10.8 6.2zm12 282.9l-2-1.2-2 1.2v122.4l2 1.2 2-1.2V289.1zm-12-267.9v-4.6L1689.2 0h-8l36.8 21.2zm12 46.2l-2-1.2-2 1.2v122.4l2 1.2 2-1.2V67.4zm8-50.8v4.6L1774.8 0h-8L1738 16.6zM1846 221l-97 56 4 2.3 93-53.7V221zm0 15l-84 48.5 4 2.3 80-46.2V236zm0 206.7l-97 56 4 2.3 93-53.7v-4.6zm0-428.4l-84 48.5 4 2.3 80-46.2v-4.6zm-108 32.3v2.3l2 1.2L1826.8 0h-8L1738 46.6zm0-45v4.6l10.8-6.2h-8l-2.8 1.6zm-8 1396l-2-1.2-2 1.2V1520l2 1.2 2-1.2v-122.4zM1718 36.2v-4.6L1663.2 0h-8l62.8 36.2zm20-4.6v4.6L1800.8 0h-8L1738 31.6zm-31 1797.3l-97-56v4.6l93 53.7 4-2.3zM1674 97.4v62.4l4 2.3v-67l-4 2.3zm-20 0l-4-2.3v67l4-2.3V97.4zm-13-7.5l-4-2.3v82l4-2.3V89.9zm46 0v77.4l4 2.3v-82l-4 2.3zm31 133.4l-67-38.7-4 2.3 71 41v-4.6zM1610 48.9l54 31.2 4-2.3-58-33.5v4.6zm0-30l80 46.2 4-2.3-84-48.5v4.6zm18 155.9V82.4l-4-2.3v97l4-2.3zm-18-140.9l67 38.7 4-2.3-71-41v4.6zm84 1802.5l-84-48.5v4.6l80 46.2 4-2.3zm-79-1654.1V74.9l-4-2.3v112l4-2.3zm103 1640.3v-2.3l-106-61.2-2 1.2v2.3l106 61.2 2-1.2zm-37 21.3l-71-41v4.6l67 38.7 4-2.3zm-71-21.3l54 31.2 4-2.3-58-33.5v4.6zm90-1740.2v92.4l4 2.3v-97l-4 2.3zm13-7.5v107.4l4 2.3v-112l-4 2.3zm-53 104.5l58 33.5v-4.6l-54-31.2-4 2.3zm58 63.5v-4.6l-80-46.2-4 2.3 84 48.5zm179 1476.3v-77.4l-4-2.3v82l4-2.3zm0-665.1v-77.4l-4-2.3v82l4-2.3zm-31-133.4l54 31.2v-4.6l-54-31.2v4.6zm54 263.3l-54-31.2v4.6l54 31.2v-4.6zm-54-278.3l54 31.2v-4.6l-54-31.2v4.6zm0-15l54 31.2v-4.6l-54-31.2v4.6zm5 178.4V961.7l-4-2.3v112l4-2.3zm45-2.9l4 2.3v-4.6l-4 2.3zm-9 5.2l-4 2.3 17 9.8v-4.6l-13-7.5zm13 22.5l-26-15-4 2.3 30 17.3v-4.6zm-10-47.3v-62.4l-4-2.3v67l4-2.3zm-13-214.2V755l-4-2.3v82l4-2.3zm13-7.5v-62.4l-4-2.3v67l4-2.3zm10 47.3l-26-15-4 2.3 30 17.3v-4.6zm-36 189.4v-92.4l-4-2.3v97l4-2.3zM1866 699l54 31.2v-4.6l-54-31.2v4.6zm41 150.7l-4 2.3 17 9.8v-4.6l-13-7.5zm13 112.6l-54-31.2v4.6l54 31.2v-4.6zM1866 669l54 31.2v-4.6l-54-31.2v4.6zm50 175.5l4 2.3v-4.6l-4 2.3zm-19 431.3v-77.4l-4-2.3v82l4-2.3zm-26 236.7v-107.4l-4-2.3v112l4-2.3zm13-7.5v-92.4l-4-2.3v97l4-2.3zm-18-392.6l54 31.2v-4.6l-54-31.2v4.6zm0 236.7l54 31.2v-4.6l-54-31.2v4.6zm54 56.6l-54-31.2v4.6l54 31.2v-4.6zm-54-41.6l54 31.2v-4.6l-54-31.2v4.6zm54 173.3l-26-15-4 2.3 30 17.3v-4.6zm-23-39.9v-77.4l-4-2.3v82l4-2.3zm13-7.5v-62.4l-4-2.3v67l4-2.3zm-39-199.2v-107.4l-4-2.3v112l4-2.3zm39-22.5V1206l-4-2.3v67l4-2.4zm-44-125.9l54 31.2v-4.6l-54-31.2v4.6zm50 145.5l4 2.3v-4.6l-4 2.3zm-32-4.6v-92.4l-4-2.3v97l4-2.3zm-18-155.9l54 31.2v-4.6l-54-31.2v4.6zm41 165.7l-4 2.3 17 9.8v-4.6l-13-7.5zm13 22.5l-26-15-4 2.3 30 17.3v-4.6zM1866 684l54 31.2v-4.6l-54-31.2v4.6zm50-282.9l4 2.3v-4.6l-4 2.3zM1866 0v3.9l54 31.2v-4.6L1867.2 0h-1.2zm50 179.4l4 2.3v-4.6l-4 2.3zm4 117.8l-54-31.2v4.6l54 31.2v-4.6zm-13-112.6l-4 2.3 17 9.8v-4.6l-13-7.5zm3 196.9v-62.4l-4-2.3v67l4-2.3zm-44-125.9l54 31.2v-4.6l-54-31.2v4.6zm18 140.9v-92.4l-4-2.3v97l4-2.3zm-18-155.9l54 31.2v-4.6l-54-31.2v4.6zm5 163.4V296.6l-4-2.3v112l4-2.3zm49-196.9l-26-15-4 2.3 30 17.3v-4.6zM8.8 0h-8L0 .4V5l8.8-5zM1871 847.4V740l-4-2.3v112l4-2.3zm13-672.6V82.4l-4-2.3v97l4-2.3zm13-7.5V89.9l-4-2.3v82l4-2.3zm9 1752.7h4v-48.9l-4-2.3v51.2zM1866 33.9l54 31.2v-4.6l-54-31.2v4.6zm44 125.9V97.4l-4-2.3v67l4-2.3zm-44-140.9l54 31.2v-4.6l-54-31.2v4.6zm5 163.4V74.9l-4-2.3v112l4-2.3zm49-106.8l-54-31.2v4.6l54 31.2v-4.6zM1907 628l-4 2.3 17 9.8v-4.6l-13-7.5zm13 22.5l-26-15-4 2.3 30 17.3v-4.6zm-23-39.8v-77.4l-4-2.3v82l4-2.3zm0-221.7v-77.4l-4-2.3v82l4-2.3zm13 214.2v-62.4l-4-2.3v67l4-2.3zm10 137.4l-54-31.2v4.6l54 31.2v-4.6zm-4-117.8l4 2.3v-4.6l-4 2.3zm-32 217.1v-92.4l-4-2.3v97l4-2.3zm-18-392.6l54 31.2v-4.6l-54-31.2v4.6zm0 30l54 31.2v-4.6l-54-31.2v4.6zm41 1037.5l-4 2.3 17 9.8v-4.6l-13-7.5zm-41-1052.5l54 31.2v-4.6l-54-31.2v4.6zm41-56l-4 2.3 17 9.8v-4.6l-13-7.5zm13 22.5l-26-15-4 2.3 30 17.3v-4.6zm-54-203.2l54 31.2v-4.6l-54-31.2v4.6zm54 293.3l-54-31.2v4.6l54 31.2v-4.6zm-49 106.8V518.3l-4-2.3v112l4-2.3zm13-7.5v-92.4l-4-2.3v97l4-2.3zm-18 715.9l54 31.2v-4.6l-54-31.2v4.6zm-127-927.8l4-2.3V296.6l-4-2.3v112zm-1 58.3l84-48.5-4-2.3-80 46.2v4.6zM1846 251l-71 41 4 2.3 67-38.7V251zm-27 58.3l-4 2.3V389l4 2.3v-82zm-41 74.5l4-2.3v-62.4l-4-2.3v67zm-26 139.7v97l4-2.3v-92.4l-4-2.3zm-14 132.8l58-33.5-4-2.3-54 31.2v4.6zm0-164l2 1.2 106-61.2V430l-2-1.2-106 61.2v2.3zm27 38.7v82l4-2.3v-77.4l-4-2.3zm-27-51.4l97-56-4-2.3-93 53.7v4.6zm0-221.7l97-56-4-2.3-93 53.7v4.6zm0 176.7l58-33.5-4-2.3-54 31.2v4.6zm0-164l2 1.2 106-61.2v-2.3l-2-1.2-106 61.2v2.3zm27 38.7v82l4-2.3v-77.4l-4-2.3zm80 97v-112l-4 2.3V404l4 2.3zm-13-7.5v-97l-4 2.3v92.4l4 2.3zm-94 50.8l71-41-4-2.3-67 38.7v4.6zM1846 266l-58 33.5 4 2.3 54-31.2V266zm-40 50.8l-4 2.3v62.4l4 2.3v-67zm-54-15v97l4-2.3v-92.4l-4-2.3zm0 443.4v97l4-2.3v-92.4l-4-2.3zM1738 878l58-33.5-4-2.3-54 31.2v4.6zm0-164l2 1.2 106-61.2v-2.3l-2-1.2-106 61.2v2.3zm0-12.7l97-56-4-2.3-93 53.7v4.6zm94 140.9v-97l-4 2.3v92.4l4 2.3zm13 7.5v-112l-4 2.3v107.4l4 2.3zM1739 628l4-2.3V518.3l-4-2.3v112zm107 81.4l-58 33.5 4 2.3 54-31.2v-4.6zm-81 43.3v82l4-2.3V755l-4-2.3zm67-132.2v-97l-4 2.3v92.4l4 2.3zm14-132.8l-58 33.5 4 2.3 54-31.2v-4.6zm-108 183.6l71-41-4-2.3-67 38.7v4.6zm68-132.8l-4 2.3v62.4l4 2.3v-67zm-28 67l4-2.3v-62.4l-4-2.3v67zm67 22.5V516l-4 2.3v107.4l4 2.3zm1-155.3l-71 41 4 2.3 67-38.7v-4.6zm-108 213.6l84-48.5-4-2.3-80 46.2v4.6zm81-155.3l-4 2.3v77.4l4 2.3v-82zm35 1088.3v122.4l2 1.2 2-1.2v-122.4l-2-1.2-2 1.2zm4-221.7l-2-1.2-2 1.2V1520l2 1.2 2-1.2v-122.4zm49 338.9l-4 2.3 17 9.8v-4.6l-13-7.5zm-41-180.7l54 31.2v-4.6l-54-31.2v4.6zm50 175.5l4 2.3v-4.6l-4 2.3zm0-221.7l4 2.3v-4.6l-4 2.3zm-58-998.8l-2-1.2-2 1.2v122.4l2 1.2 2-1.2V510.8zm0 221.7l-2-1.2-2 1.2v122.4l2 1.2 2-1.2V732.5zm0 443.4l-2-1.2-2 1.2v122.4l2 1.2 2-1.2v-122.4zm0-886.8l-2-1.2-2 1.2v122.4l2 1.2 2-1.2V289.1zm0 665.1l-2-1.2-2 1.2v122.4l2 1.2 2-1.2V954.2zm26 772.5v-92.4l-4-2.3v97l4-2.3zm36-99.3l-54-31.2v4.6l54 31.2v-4.6zm-49 106.8v-107.4l-4-2.3v112l4-2.3zM1738 893l71-41-4-2.3-67 38.7v4.6zm182 866.1l-26-15-4 2.3 30 17.3v-4.6zm-10-47.4v-62.4l-4-2.3v67l4-2.3zm-236-949.2v62.4l4 2.3v-67l-4 2.3zm192 808.3l54 31.2v-4.6l-54-31.2v4.6zm0 15l54 31.2v-4.6l-54-31.2v4.6zm-20 202.1l-84 48.5 4 2.3 80-46.2v-4.6zm-14-1610.8v-97l-4 2.3v92.4l4 2.3zm13 7.5v-112l-4 2.3v107.4l4 2.3zm-26-15v-82l-4 2.3v77.4l4 2.3zm27-125.3l-58 33.5 4 2.3 54-31.2v-4.6zm-68 117.8l4-2.3V97.4l-4-2.3v67zm-13-74.5v82l4-2.3V89.9l-4-2.3zm-27 140.3l71-41-4-2.3-67 38.7v4.6zm68-65.8v-67l-4 2.3v62.4l4 2.3zm40-132.8l-71 41 4 2.3 67-38.7v-4.6zm0 1793.3v-4.6l-58 33.5 4 2.3 54-31.2zm0-19.7l-71 41 4 2.3 67-38.7v-4.6zm12-1735.5l-2-1.2-2 1.2v122.4l2 1.2 2-1.2V67.4zm-106 12.7v97l4-2.3V82.4l-4-2.3zm-14 162.8l84-48.5-4-2.3-80 46.2v4.6zm11-187.6l4 2.3 93-53.7V0h-1.2L1749 55.3zm-10 17.3v112l4-2.3V74.9l-4-2.3zm107 1700.3l-97 56 4 2.3 93-53.7v-4.6zm-108-1560l58-33.5-4-2.3-54 31.2v4.6zm-148 1368.3l-71 41 4 2.3 67-38.7v-4.6zm-27-1271.9l-4 2.3V389l4 2.3v-82zm-81 170.3l97-56-4-2.3-93 53.7v4.6zm94-177.8l-4 2.3v92.4l4 2.3v-97zm-26 15l-4 2.3v62.4l4 2.3v-67zm-68 147.8l84-48.5-4-2.3-80 46.2v4.6zM1590 236l-84 48.5 4 2.3 80-46.2V236zm0 15l-71 41 4 2.3 67-38.7V251zm-1 43.3l-4 2.3V404l4 2.3v-112zm1-28.3l-58 33.5 4 2.3 54-31.2V266zm-108 168.6l58-33.5-4-2.3-54 31.2v4.6zM1590 221l-97 56 4 2.3 93-53.7V221zm-108 228.6l71-41-4-2.3-67 38.7v4.6zm108-6.9l-97 56 4 2.3 93-53.7v-4.6zm0 15l-84 48.5 4 2.3 80-46.2v-4.6zm-2-28.9L1482 490v2.3l2 1.2 106-61.2V430l-2-1.2zm-105-134.5v112l4-2.3V296.6l-4-2.3zm39 22.5v67l4-2.3v-62.4l-4-2.3zm-13-7.5v82l4-2.3v-77.4l-4-2.3zm-13-7.5v97l4-2.3v-92.4l-4-2.3zm-14-255.2v2.3l2 1.2L1570.8 0h-8L1482 46.6zm106 160.5l-106 61.2v2.3l2 1.2 106-61.2v-2.3l-2-1.2zm-12-127l-4 2.3v92.4l4 2.3v-97zm-94 177.8l97-56-4-2.3-93 53.7v4.6zm81-170.3l-4 2.3v77.4l4 2.3v-82zm27-43.3l-58 33.5 4 2.3 54-31.2v-4.6zm0 428.4l-71 41 4 2.3 67-38.7v-4.6zM1590 0h-1.2L1493 55.3l4 2.3 93-53.7V0zm0 14.3l-84 48.5 4 2.3 80-46.2v-4.6zm0 15l-71 41 4 2.3 67-38.7v-4.6zm-1 43.3l-4 2.3v107.4l4 2.3v-112zm-93 7.5v97l4-2.3V82.4l-4-2.3zm13 7.5v82l4-2.3V89.9l-4-2.3zm-26-15v112l4-2.3V74.9l-4-2.3zm-1 140.3l58-33.5-4-2.3-54 31.2v4.6zm0 15l71-41-4-2.3-67 38.7v4.6zm68-132.8l-4 2.3v62.4l4 2.3v-67zM1687 755v77.4l4 2.3v-82l-4 2.3zm-205-512.1l84-48.5-4-2.3-80 46.2v4.6zm1 494.8v112l4-2.3V740l-4-2.3zm-1-706.1v4.6L1544.8 0h-8L1482 31.6zm40 728.6v67l4-2.3v-62.4l-4-2.3zM1482 893l71-41-4-2.3-67 38.7v4.6zm14-147.8v97l4-2.3v-92.4l-4-2.3zm13 7.5v82l4-2.3V755l-4-2.3zM1482 923l97-56-4-2.3-93 53.7v4.6zm81-170.3l-4 2.3v77.4l4 2.3v-82zm-13 7.5l-4 2.3v62.4l4 2.3v-67zM1482 908l84-48.5-4-2.3-80 46.2v4.6zm0-30l58-33.5-4-2.3-54 31.2v4.6zm107 81.4l-4 2.3v107.4l4 2.3v-112zm1-28.3l-58 33.5 4 2.3 54-31.2v-4.6zm-14 35.8l-4 2.3v92.4l4 2.3v-97zm-94 177.9l97-56-4-2.3-93 53.7v4.6zm108-228.7l-71 41 4 2.3 67-38.7v-4.6zm0-30l-97 56 4 2.3 93-53.7v-4.6zm-2-13.9l-106 61.2v2.3l2 1.2 106-61.2v-2.3l-2-1.2zm2 28.9l-84 48.5 4 2.3 80-46.2v-4.6zm-14-155.9l-4 2.3v92.4l4 2.3v-97zm14-35.8l-58 33.5 4 2.3 54-31.2v-4.6zm-40-170.9l-4 2.3v62.4l4 2.3v-67zm-68 132.8l71-41-4-2.3-67 38.7v4.6zm40-132.8v67l4-2.3v-62.4l-4-2.3zm-40 147.8l84-48.5-4-2.3-80 46.2v4.6zm94-162.8l-4 2.3v92.4l4 2.3v-97zm-13 7.5l-4 2.3v77.4l4 2.3v-82zm-54 0v82l4-2.3v-77.4l-4-2.3zm80-15l-4 2.3v107.4l4 2.3V516zm-107 185.3l97-56-4-2.3-93 53.7v4.6zm108-36.9l-97 56 4 2.3 93-53.7v-4.6zm0 30l-71 41 4 2.3 67-38.7v-4.6zm0-15l-84 48.5 4 2.3 80-46.2v-4.6zm-1 58.3l-4 2.3v107.4l4 2.3v-112zm-93-214.2v97l4-2.3v-92.4l-4-2.3zm94-35.8l-58 33.5 4 2.3 54-31.2v-4.6zm-2 162.8l-106 61.2v2.3l2 1.2 106-61.2v-2.3l-2-1.2zM1483 516v112l4-2.3V518.3l-4-2.3zm-1 140.3l58-33.5-4-2.3-54 31.2v4.6zm-64-558.9v62.4l4 2.3v-67l-4 2.3zm0 443.4v62.4l4 2.3v-67l-4 2.3zm44 125.9l-67-38.7-4 2.3 71 41v-4.6zm-64-125.9l-4-2.3v67l4-2.3v-62.4zm-13-7.5l-4-2.3v82l4-2.3v-77.4zm59-7.5v92.4l4 2.3v-97l-4 2.3zm-13 7.5v77.4l4 2.3v-82l-4 2.3zm-77-56l67 38.7 4-2.3-71-41v4.6zm0-15l80 46.2 4-2.3-84-48.5v4.6zm108 224v-4.6l-80-46.2-4 2.3 84 48.5zm-108-239l93 53.7 4-2.3-97-56v4.6zm0-221.7l93 53.7 4-2.3-97-56v4.6zm0 15l80 46.2 4-2.3-84-48.5v4.6zm0 15l67 38.7 4-2.3-71-41v4.6zm90 48.5v92.4l4 2.3v-97l-4 2.3zm-36-2.3l4-2.3-58-33.5v4.6l54 31.2zM1359 404V296.6l-4-2.3v112l4-2.3zm45 218.8l58 33.5v-4.6l-54-31.2-4 2.3zm53-104.5v107.4l4 2.3V516l-4 2.3zm-85-121.8v-92.4l-4-2.3v97l4-2.3zm85 343.5v107.4l4 2.3v-112l-4 2.3zm-103-56l80 46.2 4-2.3-84-48.5v4.6zm0-15l93 53.7 4-2.3-97-56v4.6zm90 78.5v92.4l4 2.3v-97l-4 2.3zm-13 7.5v77.4l4 2.3v-82l-4 2.3zm-77-56l67 38.7 4-2.3-71-41v4.6zm18 140.9v-92.4l-4-2.3v97l4-2.3zm46-77.4v62.4l4 2.3v-67l-4 2.3zm-10-239l4-2.3-58-33.5v4.6l54 31.2zm0 221.7l4-2.3-58-33.5v4.6l54 31.2zm-49 102.2V740l-4-2.3v112l4-2.3zm0-221.7V518.3l-4-2.3v112l4-2.3zm39 136.8l-4-2.3v67l4-2.3v-62.4zm-26-144.3v-92.4l-4-2.3v97l4-2.3zm59-306.6V389l4 2.3v-82l-4 2.3zm-27 532.9l58 33.5v-4.6l-54-31.2-4 2.3zm58 43.9l-67-38.7-4 2.3 71 41v-4.6zM1385 755l-4-2.3v82l4-2.3V755zm77 153v-4.6l-80-46.2-4 2.3 84 48.5zm-64-588.9l-4-2.3v67l4-2.3v-62.4zm62-269l2-1.2v-2.3L1381.2 0h-8l86.8 50.1zm2-13.9v-4.6L1407.2 0h-8l62.8 36.2zm-37 1807.7l-71-41v4.6l67 38.7 4-2.3zm37-1822.7v-4.6L1433.2 0h-8l36.8 21.2zm-18 61.2v92.4l4 2.3v-97l-4 2.3zm18-76.2V1.6l-2.8-1.6h-8l10.8 6.2zm-58 173.2l58 33.5v-4.6l-54-31.2-4 2.3zm34 1657l-84-48.5v4.6l80 46.2 4-2.3zm-30 17.3l4-2.3-58-33.5v4.6l54 31.2zm43-24.8l-97-56v4.6l93 53.7 4-2.3zm23-431.3l-2-1.2-2 1.2V1520l2 1.2 2-1.2v-122.4zm-4 221.7v122.4l2 1.2 2-1.2v-122.4l-2-1.2-2 1.2zm4-443.4l-2-1.2-2 1.2v122.4l2 1.2 2-1.2v-122.4zm8-1174.3v4.6l10.8-6.2h-8l-2.8 1.6zm-8 952.6l-2-1.2-2 1.2v122.4l2 1.2 2-1.2V954.2zm0-665.1l-2-1.2-2 1.2v122.4l2 1.2 2-1.2V289.1zm0 221.7l-2-1.2-2 1.2v122.4l2 1.2 2-1.2V510.8zm0-443.4l-2-1.2-2 1.2v122.4l2 1.2 2-1.2V67.4zm0 665.1l-2-1.2-2 1.2v122.4l2 1.2 2-1.2V732.5zm-43-642.6v77.4l4 2.3v-82l-4 2.3zm-27 311.2l58 33.5V430l-54-31.2-4 2.3zm53-104.5V404l4 2.3v-112l-4 2.3zm-98-114.3V74.9l-4-2.3v112l4-2.3zm13-7.5V82.4l-4-2.3v97l4-2.3zm110-158.2v4.6L1518.8 0h-8L1482 16.6zM1462 445l-67-38.7-4 2.3 71 41V445zm-54-364.9l4-2.3-58-33.5v4.6l54 31.2zm-23 231.5l-4-2.3v82l4-2.3v-77.4zm77 153V460l-80-46.2-4 2.3 84 48.5zm101 509.8l-4 2.3v77.4l4 2.3v-82zm-165-877l-4-2.3v67l4-2.3V97.4zm-13-7.5l-4-2.3v82l4-2.3V89.9zm77 133.4l-67-38.7-4 2.3 71 41v-4.6zm0 19.6v-4.6l-80-46.2-4 2.3 84 48.5zm-5-168v107.4l4 2.3v-112l-4 2.3zm-103-56l80 46.2 4-2.3-84-48.5v4.6zm0 15l67 38.7 4-2.3-71-41v4.6zm64 285.2v62.4l4 2.3v-67l-4 2.3zm104-224v67l4-2.3V97.4l-4-2.3zm88 1254l80 46.2 4-2.3-84-48.5v4.6zm0 15l67 38.7 4-2.3-71-41v4.6zm0-30l93 53.7 4-2.3-97-56v4.6zm103 71v107.4l4 2.3v-112l-4 2.3zm-85 99.9v-92.4l-4-2.3v97l4-2.3zm-18 35.8l106 61.2 2-1.2v-2.3l-106-61.2-2 1.2v2.3zm0-161.6l54 31.2 4-2.3-58-33.5v4.6zm5 133.3v-107.4l-4-2.3v112l4-2.3zm85-99.9v92.4l4 2.3v-97l-4 2.3zm-85-121.8v-107.4l-4-2.3v112l4-2.3zm-5 28.3l106 61.2 2-1.2v-2.3l-106-61.2-2 1.2v2.3zm77 101v77.4l4 2.3v-82l-4 2.3zm31 374.8v-4.6l-80-46.2-4 2.3 84 48.5zm0-876.5l-93-53.7-4 2.3 97 56v-4.6zm0 654.7v-4.6l-80-46.2-4 2.3 84 48.5zm-54-65.8l-4 2.3 58 33.5v-4.6l-54-31.2zm54 46.2l-67-38.7-4 2.3 71 41v-4.6zm-44-125.8v62.4l4 2.3v-67l-4 2.3zm-20 0l-4-2.3v67l4-2.3v-62.4zm-26 299v-92.4l-4-2.3v97l4-2.3zm0-443.4v-92.4l-4-2.3v97l4-2.3zm-18 317.6l54 31.2 4-2.3-58-33.5v4.6zm0-15.1l67 38.7 4-2.3-71-41v4.6zm5 148.4v-107.4l-4-2.3v112l4-2.3zm26-92.3l-4-2.3v82l4-2.3v-77.4zm77-280.1l-93-53.7-4 2.3 97 56v-4.6zm0-221.7l-93-53.7-4 2.3 97 56v-4.6zm0 665.1l-93-53.7-4 2.3 97 56v-4.6zm0-221.7l-93-53.7-4 2.3 97 56v-4.6zm-108-12.7l80 46.2 4-2.3-84-48.5v4.6zm54 158.2l-4 2.3 58 33.5v-4.6l-54-31.2zm-182-599.3l84-48.5-4-2.3-80 46.2v4.6zm236 645.5l-67-38.7-4 2.3 71 41v-4.6zm-44-125.8v62.4l4 2.3v-67l-4 2.3zm26-15.1v92.4l4 2.3v-97l-4 2.3zm-13 7.6v77.4l4 2.3v-82l-4 2.3zm26-15.1v107.4l4 2.3v-112l-4 2.3zm-103-71l93 53.7 4-2.3-97-56v4.6zm31-135.7l-4-2.3v82l4-2.3v-77.4zm13-435.9l-4-2.3v67l4-2.3v-62.4zm10 79.7l-4 2.3 58 33.5v-4.6l-54-31.2zm54 46.2l-67-38.7-4 2.3 71 41v-4.6zm-77-133.4l-4-2.3v82l4-2.3v-77.4zm33 7.5v62.4l4 2.3v-67l-4 2.3zm44 145.5v-4.6l-80-46.2-4 2.3 84 48.5zm-5-168v107.4l4 2.3v-112l-4 2.3zm-13 7.5v92.4l4 2.3v-97l-4 2.3zm-13 7.5v77.4l4 2.3v-82l-4 2.3zm26-236.7v107.4l4 2.3v-112l-4 2.3zm-103 150.7l93 53.7 4-2.3-97-56v4.6zm0-221.7l93 53.7 4-2.3-97-56v4.6zm0 15l80 46.2 4-2.3-84-48.5v4.6zm90 63.5v92.4l4 2.3v-97l-4 2.3zm-85 99.9V740l-4-2.3v112l4-2.3zm13-7.5v-92.4l-4-2.3v97l4-2.3zM1610 699l67 38.7 4-2.3-71-41v4.6zm0 176.7l106 61.2 2-1.2v-2.3l-106-61.2-2 1.2v2.3zm0-161.7l54 31.2 4-2.3-58-33.5v4.6zm0 191.7l80 46.2 4-2.3-84-48.5v4.6zm90 285.2v92.4l4 2.3v-97l-4 2.3zm-46 15.1l-4-2.3v67l4-2.3V1206zm33-7.6v77.4l4 2.3v-82l-4 2.3zm-23 87.2l-4 2.3 58 33.5v-4.6l-54-31.2zm10-79.6v62.4l4 2.3v-67l-4 2.3zm-64-78.6l80 46.2 4-2.3-84-48.5v4.6zm0 30.1l54 31.2 4-2.3-58-33.5v4.6zm103 25.9v107.4l4 2.3v-112l-4 2.3zm-103-71l93 53.7 4-2.3-97-56v4.6zm0 30l67 38.7 4-2.3-71-41v4.6zm0-206.6l54 31.2 4-2.3-58-33.5v4.6zm5 133.3V961.7l-4-2.3v112l4-2.3zm13-7.5v-92.4l-4-2.3v97l4-2.3zm-18-140.9l67 38.7 4-2.3-71-41v4.6zm108 411.1l-67-38.7-4 2.3 71 41v-4.6zm-77-133.4l-4-2.3v82l4-2.3v-77.4zm77 153v-4.6l-80-46.2-4 2.3 84 48.5zm-108-254l106 61.2 2-1.2v-2.3l-106-61.2-2 1.2v2.3zm44 552l-4-2.3v67l4-2.3v-62.4zm-64-289.9l-71 41 4 2.3 67-38.7v-4.6zm-108-38.1l58-33.5-4-2.3-54 31.2v4.6zm108 8.1l-97 56 4 2.3 93-53.7v-4.6zm0 15l-84 48.5 4 2.3 80-46.2v-4.6zm-108-8.1l71-41-4-2.3-67 38.7v4.6zm40-132.8v67l4-2.3V1206l-4-2.4zm-13-7.5v82l4-2.3v-77.4l-4-2.3zm-13-7.5v97l4-2.3v-92.4l-4-2.3zm-13-7.5v112l4-2.3v-107.4l-4-2.3zm105 134.5l-106 61.2v2.3l2 1.2 106-61.2v-2.3l-2-1.2zm-106 242.5l71-41-4-2.3-67 38.7v4.6zm0 15l84-48.5-4-2.3-80 46.2v4.6zm68-147.8l-4 2.3v62.4l4 2.3v-67zm-28 0v67l4-2.3v-62.4l-4-2.3zm54-15l-4 2.3v92.4l4 2.3v-97zm14-35.8l-58 33.5 4 2.3 54-31.2v-4.6zm-1 28.3l-4 2.3v107.4l4 2.3v-112zm-26 15l-4 2.3v77.4l4 2.3v-82zm-81 170.4l97-56-4-2.3-93 53.7v4.6zm106-494.3l-106 61.2v2.3l2 1.2 106-61.2v-2.3l-2-1.2zm-92-127v97l4-2.3v-92.4l-4-2.3zm-14 132.8l58-33.5-4-2.3-54 31.2v4.6zm1-140.3v112l4-2.3V961.7l-4-2.3zm26 458.4v82l4-2.3v-77.4l-4-2.3zm0-443.4v82l4-2.3v-77.4l-4-2.3zm-27 140.3l71-41-4-2.3-67 38.7v4.6zm68-132.8l-4 2.3v62.4l4 2.3v-67zm-28 0v67l4-2.3v-62.4l-4-2.3zm68 125.9l-97 56 4 2.3 93-53.7v-4.6zm-108 243.6l84-48.5-4-2.3-80 46.2v4.6zm81-155.3l-4 2.3v77.4l4 2.3v-82zm27-73.3l-84 48.5 4 2.3 80-46.2v-4.6zm-40 80.8l-4 2.3v62.4l4 2.3v-67zm26-15l-4 2.3v92.4l4 2.3v-97zm-94 177.9l97-56-4-2.3-93 53.7v4.6zm108-228.7l-71 41 4 2.3 67-38.7v-4.6zm0 15l-58 33.5 4 2.3 54-31.2v-4.6zm-1 28.3l-4 2.3v107.4l4 2.3v-112zm1 621.8l-71 41 4 2.3 67-38.7v-4.6zm12-1735.5l-2-1.2-2 1.2v122.4l2 1.2 2-1.2V67.4zm-120 1697.4l58-33.5-4-2.3-54 31.2v4.6zm120-1475.7l-2-1.2-2 1.2v122.4l2 1.2 2-1.2V289.1zm0 221.7l-2-1.2-2 1.2v122.4l2 1.2 2-1.2V510.8zm0 221.7l-2-1.2-2 1.2v122.4l2 1.2 2-1.2V732.5zm-66 1121.2l54-31.2v-4.6l-58 33.5 4 2.3zm52-94.6l-106 61.2v2.3l2 1.2 106-61.2v-2.3l-2-1.2zm2 13.8l-97 56 4 2.3 93-53.7v-4.6zm0 15l-84 48.5 4 2.3 80-46.2v-4.6zm128-1091.2l-93-53.7-4 2.3 97 56v-4.6zm-2-646.6l2-1.2v-2.3L1637.2 0h-8l86.8 50.1zm2 203.2l-93-53.7-4 2.3 97 56v-4.6zM1610 3.9l93 53.7 4-2.3L1611.2 0h-1.2v3.9zM1718 475l-93-53.7-4 2.3 97 56V475zm-222 935.3v97l4-2.3v-92.4l-4-2.3zm106-234.4l-2-1.2-2 1.2v122.4l2 1.2 2-1.2v-122.4zm0 221.7l-2-1.2-2 1.2V1520l2 1.2 2-1.2v-122.4zm0-443.4l-2-1.2-2 1.2v122.4l2 1.2 2-1.2V954.2zm-4 665.1v122.4l2 1.2 2-1.2v-122.4l-2-1.2-2 1.2zm-8-23.1l-58 33.5 4 2.3 54-31.2v-4.6zm-14 35.8l-4 2.3v92.4l4 2.3v-97zm13-7.5l-4 2.3v107.4l4 2.3v-112zm1-58.3l-84 48.5 4 2.3 80-46.2v-4.6zm-186-500l58 33.5v-4.6l-54-31.2-4 2.3zm78 476.9l58-33.5-4-2.3-54 31.2v4.6zm1-140.3v112l4-2.3v-107.4l-4-2.3zm105 134.6l-106 61.2v2.3l2 1.2 106-61.2v-2.3l-2-1.2zm2 13.8l-97 56 4 2.3 93-53.7v-4.6zm-108 243.7l84-48.5-4-2.3-80 46.2v4.6zm27-155.4v82l4-2.3v-77.4l-4-2.3zm-27 140.3l71-41-4-2.3-67 38.7v4.6zm40-132.8v67l4-2.3v-62.4l-4-2.3zm-26-15v97l4-2.3v-92.4l-4-2.3zm67 7.5l-4 2.3v77.4l4 2.3v-82zm-81 170.4l97-56-4-2.3-93 53.7v4.6zm1-185.4v112l4-2.3v-107.4l-4-2.3zm67 22.5l-4 2.3v62.4l4 2.3v-67zm-964-327.9l106 61.2 2-1.2v-2.3l-106-61.2-2 1.2v2.3zM180 50.1l2-1.2v-2.3L101.2 0h-8L180 50.1zm2-13.9v-4.6L127.2 0h-8L182 36.2zm-37 1807.7l-71-41v4.6l67 38.7 4-2.3zM182 21.2v-4.6L153.2 0h-8L182 21.2zm-24 1815.2l-84-48.5v4.6l80 46.2 4-2.3zm13-7.5l-97-56v4.6l93 53.7 4-2.3zm11-6.3v-2.3l-106-61.2-2 1.2v2.3l106 61.2 2-1.2zm-108 0l54 31.2 4-2.3-58-33.5v4.6zM182 6.2V1.6L179.2 0h-8L182 6.2zm20-4.6v4.6L212.8 0h-8L202 1.6zm-8 1396l-2-1.2-2 1.2V1520l2 1.2 2-1.2v-122.4zm0-221.7l-2-1.2-2 1.2v122.4l2 1.2 2-1.2v-122.4zm-4 443.4v122.4l2 1.2 2-1.2v-122.4l-2-1.2-2 1.2zm-66 112l58 33.5v-4.6l-54-31.2-4 2.3zm70-777.1l-2-1.2-2 1.2v122.4l2 1.2 2-1.2V954.2zm0-443.4l-2-1.2-2 1.2v122.4l2 1.2 2-1.2V510.8zm0-221.7l-2-1.2-2 1.2v122.4l2 1.2 2-1.2V289.1zm0-221.7l-2-1.2-2 1.2v122.4l2 1.2 2-1.2V67.4zm0 665.1l-2-1.2-2 1.2v122.4l2 1.2 2-1.2V732.5zm-70 777.1l58 33.5v-4.6l-54-31.2-4 2.3zm-50 91.3l54 31.2 4-2.3-58-33.5v4.6zm5 133.3v-107.4l-4-2.3v112l4-2.3zm13-7.5v-92.4l-4-2.3v97l4-2.3zm85-99.9v107.4l4 2.3v-112l-4 2.3zm5 178.4l-93-53.7-4 2.3 97 56v-4.6zM202 16.6v4.6L238.8 0h-8L202 16.6zm-25 1388.5v107.4l4 2.3v-112l-4 2.3zm5 193.5l-106-61.2-2 1.2v2.3l106 61.2 2-1.2v-2.3zM102 1744l-4 2.3 84 48.5v-4.6l-80-46.2zm3-24.8v-77.4l-4-2.3v82l4-2.3zm13-69.8l-4-2.3v67l4-2.3v-62.4zm33-7.5v77.4l4 2.3v-82l-4 2.3zm-13 7.5v62.4l4 2.3v-67l-4 2.3zm44 130.4v-4.6l-67-38.7-4 2.3 71 41zm-108-209l80 46.2 4-2.3-84-48.5v4.6zm0 15l67 38.7 4-2.3-71-41v4.6zm90 48.5v92.4l4 2.3v-97l-4 2.3zm-90-78.5l93 53.7 4-2.3-97-56v4.6zM310 44.3l-58 33.5 4 2.3 54-31.2v-4.6zm-27 265l-4 2.3V389l4 2.3v-82zm13-7.5l-4 2.3v92.4l4 2.3v-97zm14-80.8l-97 56 4 2.3 93-53.7V221zM202 464.6l84-48.5-4-2.3-80 46.2v4.6zM310 251l-71 41 4 2.3 67-38.7V251zm0-15l-84 48.5 4 2.3 80-46.2V236zm-40 80.8l-4 2.3v62.4l4 2.3v-67zm40-50.8l-58 33.5 4 2.3 54-31.2V266zm-1 28.3l-4 2.3V404l4 2.3v-112zM202 479.6l97-56-4-2.3-93 53.7v4.6zm108-36.9l-97 56 4 2.3 93-53.7v-4.6zm-108-8.1l58-33.5-4-2.3-54 31.2v4.6zm108-4.6l-2-1.2L202 490v2.3l2 1.2 106-61.2V430zm0 27.7l-84 48.5 4 2.3 80-46.2v-4.6zm-68-140.9v67l4-2.3v-62.4l-4-2.3zm-40 132.8l71-41-4-2.3-67 38.7v4.6zm27-140.3v82l4-2.3v-77.4l-4-2.3zM202 31.6v4.6L264.8 0h-8L202 31.6zm1 262.7v112l4-2.3V296.6l-4-2.3zm13 7.5v97l4-2.3v-92.4l-4-2.3zm-34 1256.3v-4.6l-67-38.7-4 2.3 71 41zM309 72.6l-4 2.3v107.4l4 2.3v-112zm-13 7.5l-4 2.3v92.4l4 2.3v-97zm-94 177.8l97-56-4-2.3-93 53.7v4.6zm108-49.6l-2-1.2-106 61.2v2.3l2 1.2 106-61.2v-2.3zm0-179l-71 41 4 2.3 67-38.7v-4.6zM202 46.6v2.3l2 1.2L290.8 0h-8L202 46.6zM310 0h-1.2L213 55.3l4 2.3 93-53.7V0zm0 14.3l-84 48.5 4 2.3 80-46.2v-4.6zm-27 73.3l-4 2.3v77.4l4 2.3v-82zm-54 0v82l4-2.3V89.9l-4-2.3zm-26-15v112l4-2.3V74.9l-4-2.3zm13 7.5v97l4-2.3V82.4l-4-2.3zm-14 162.8l84-48.5-4-2.3-80 46.2v4.6zm0-30l58-33.5-4-2.3-54 31.2v4.6zm68-117.8l-4 2.3v62.4l4 2.3v-67zm-28 0v67l4-2.3V97.4l-4-2.3zm-40 132.8l71-41-4-2.3-67 38.7v4.6zM177 740v107.4l4 2.3v-112l-4 2.3zm-26 15v77.4l4 2.3v-82l-4 2.3zm-33 7.5l-4-2.3v67l4-2.3v-62.4zm20 0v62.4l4 2.3v-67l-4 2.3zM74 714l54 31.2 4-2.3-58-33.5v4.6zm0-45l93 53.7 4-2.3-97-56v4.6zm0 15l80 46.2 4-2.3-84-48.5v4.6zm90 63.5v92.4l4 2.3v-97l-4 2.3zM74 699l67 38.7 4-2.3-71-41v4.6zm236-226.3l-71 41 4 2.3 67-38.7v-4.6zM182 893v-4.6l-67-38.7-4 2.3 71 41zM74 935.8l54 31.2 4-2.3-58-33.5v4.6zm31 118.3v-77.4l-4-2.3v82l4-2.3zM74 920.7l67 38.7 4-2.3-71-41v4.6zm18 140.9v-92.4l-4-2.3v97l4-2.3zm90 78.5l-93-53.7-4 2.3 97 56v-4.6zm-80-61.2l-4 2.3 84 48.5v-4.6l-80-46.2zm80-145.5L76 872.2l-2 1.2v2.3l106 61.2 2-1.2v-2.3zm-58-88.9l58 33.5v-4.6l-54-31.2-4 2.3zm-45 224.6V961.7l-4-2.3v112l4-2.3zm72-535.8v77.4l4 2.3v-82l-4 2.3zm-77-86l93 53.7 4-2.3-97-56v4.6zm90 78.5v92.4l4 2.3v-97l-4 2.3zm-46 15l-4-2.3v67l4-2.3v-62.4zm20 0v62.4l4 2.3v-67l-4 2.3zM74 905.7l80 46.2 4-2.3-84-48.5v4.6zm0-413.4l54 31.2 4-2.3-58-33.5v4.6zm31 118.4v-77.4l-4-2.3v82l4-2.3zm0 221.7V755l-4-2.3v82l4-2.3zM74 477.3l67 38.7 4-2.3-71-41v4.6zm0-15l80 46.2 4-2.3-84-48.5v4.6zm5 385.1V740l-4-2.3v112l4-2.3zm23 9.8l-4 2.3 84 48.5v-4.6l-80-46.2zm16 570.5l-4-2.3v67l4-2.3v-62.4zm64-756.4v-4.6L115 628l-4 2.3 71 41zM92 839.9v-92.4l-4-2.3v97l4-2.3zm85-321.6v107.4l4 2.3V516l-4 2.3zm5 193.4L76 650.5l-2 1.2v2.3l106 61.2 2-1.2v-2.3zm-58-88.9l58 33.5v-4.6l-54-31.2-4 2.3zm58 295.6l-93-53.7-4 2.3 97 56v-4.6zm-58 369.5l58 33.5v-4.6l-54-31.2-4 2.3zm58 88.9l-106-61.2-2 1.2v2.3l106 61.2 2-1.2v-2.3zM74 890.7l93 53.7 4-2.3-97-56v4.6zm5 621.8v-107.4l-4-2.3v112l4-2.3zm103 71l-93-53.7-4 2.3 97 56v-4.6zM118 1206l-4-2.3v67l4-2.3V1206zm20 0v62.4l4 2.3v-67l-4 2.3zm39-22.6v107.4l4 2.3v-112l-4 2.3zm5 153v-4.6l-67-38.7-4 2.3 71 41zm-108-2.3l93 53.7 4-2.3-97-56v4.6zm77 86v77.4l4 2.3v-82l-4 2.3zm13-7.5v92.4l4 2.3v-97l-4 2.3zm-13-214.2v77.4l4 2.3v-82l-4 2.3zm-13 229.3v62.4l4 2.3v-67l-4 2.3zm-64-63.6l67 38.7 4-2.3-71-41v4.6zm31 133.4v-77.4l-4-2.3v82l4-2.3zm-31-148.4l80 46.2 4-2.3-84-48.5v4.6zm0 30.1l54 31.2 4-2.3-58-33.5v4.6zM92 1505v-92.4l-4-2.3v97l4-2.3zm10 17.3l-4 2.3 84 48.5v-4.6l-80-46.2zm75-560.6v107.4l4 2.3v-112l-4 2.3zm-53 104.5l58 33.5v-4.6l-54-31.2-4 2.3zm58 88.9l-106-61.2-2 1.2v2.3l106 61.2 2-1.2v-2.3zm0-40.4v-4.6l-67-38.7-4 2.3 71 41zm-64-130.5l-4-2.3v67l4-2.3v-62.4zm46-15v92.4l4 2.3v-97l-4 2.3zm-62 331.4l-4 2.3 84 48.5v-4.6l-80-46.2zm49-323.9v77.4l4 2.3v-82l-4 2.3zm-13 7.5v62.4l4 2.3v-67l-4 2.3zm44 377.6l-93-53.7-4 2.3 97 56v-4.6zM74 1157.5l54 31.2 4-2.3-58-33.5v4.6zm18-539.3v-92.4l-4-2.3v97l4-2.3zm-18 509.2l80 46.2 4-2.3-84-48.5v4.6zm0-15l93 53.7 4-2.3-97-56v4.6zm31 163.4v-77.4l-4-2.3v82l4-2.3zm59-84.9v92.4l4 2.3v-97l-4 2.3zm-85 99.9v-107.4l-4-2.3v112l4-2.3zm13-7.5v-92.4l-4-2.3v97l4-2.3zm-18-140.9l67 38.7 4-2.3-71-41v4.6zm248-853.3l-2-1.2-2 1.2v122.4l2 1.2 2-1.2V289.1zm-12 1513.8l-71 41 4 2.3 67-38.7v-4.6zM322 67.4l-2-1.2-2 1.2v122.4l2 1.2 2-1.2V67.4zm0 443.4l-2-1.2-2 1.2v122.4l2 1.2 2-1.2V510.8zm-12 1249.4l-2-1.2-106 61.2v2.3l2 1.2 106-61.2v-2.3zm12-1027.7l-2-1.2-2 1.2v122.4l2 1.2 2-1.2V732.5zm-12 1090.1v-4.6l-58 33.5 4 2.3 54-31.2zm0-49.7l-97 56 4 2.3 93-53.7v-4.6zm0 15l-84 48.5 4 2.3 80-46.2v-4.6zM438 475l-93-53.7-4 2.3 97 56V475zM202 1764.8l58-33.5-4-2.3-54 31.2v4.6zM438 253.3l-93-53.7-4 2.3 97 56v-4.6zm0 15l-106-61.2-2 1.2v2.3l106 61.2 2-1.2v-2.3zm0 221.7l-106-61.2-2 1.2v2.3l106 61.2 2-1.2V490zm-116 685.9l-2-1.2-2 1.2v122.4l2 1.2 2-1.2v-122.4zm0-221.7l-2-1.2-2 1.2v122.4l2 1.2 2-1.2V954.2zm116-257.5L345 643l-4 2.3 97 56v-4.6zm-120 922.6v122.4l2 1.2 2-1.2v-122.4l-2-1.2-2 1.2zm4-221.7l-2-1.2-2 1.2V1520l2 1.2 2-1.2v-122.4zM330 3.9l93 53.7 4-2.3L331.2 0H330v3.9zm-20 1562.3l-84 48.5 4 2.3 80-46.2v-4.6zm0 15l-71 41 4 2.3 67-38.7v-4.6zm0 15l-58 33.5 4 2.3 54-31.2v-4.6zm-1 28.3l-4 2.3v107.4l4 2.3v-112zm-13 7.5l-4 2.3v92.4l4 2.3v-97zm-94-88.9l58-33.5-4-2.3-54 31.2v4.6zm108 8.1l-97 56 4 2.3 93-53.7v-4.6zm-107-148.4v112l4-2.3v-107.4l-4-2.3zm107 135.7l-2-1.2-106 61.2v2.3l2 1.2 106-61.2v-2.3zm-27 101l-4 2.3v77.4l4 2.3v-82zm-41 7.5v67l4-2.3v-62.4l-4-2.3zm-26-236.7v97l4-2.3v-92.4l-4-2.3zm-14 399.6l97-56-4-2.3-93 53.7v4.6zm0-30.1l71-41-4-2.3-67 38.7v4.6zm14-147.8v97l4-2.3v-92.4l-4-2.3zm54 15l-4 2.3v62.4l4 2.3v-67zm-67-22.5v112l4-2.3v-107.4l-4-2.3zm-1 170.4l84-48.5-4-2.3-80 46.2v4.6zm27-155.4v82l4-2.3v-77.4l-4-2.3zm101-305.4l93 53.7 4-2.3-97-56v4.6zm67 68.7l4-2.3-71-41v4.6l67 38.7zm36 224v107.4l4 2.3v-112l-4 2.3zm-72 92.4v-77.4l-4-2.3v82l4-2.3zm19 12.1l58 33.5v-4.6l-54-31.2-4 2.3zm8-101.6l-58-33.5v4.6l54 31.2 4-2.3zm-53 104.5v-107.4l-4-2.3v112l4-2.3zm39-22.5v-62.4l-4-2.3v67l4-2.3zm-64-1224l-58 33.5 4 2.3 54-31.2v-4.6zm100 907.6l4-2.3-84-48.5v4.6l80 46.2zm-36 94.7v-62.4l-4-2.3v67l4-2.3zm-13 7.5v-77.4l-4-2.3v82l4-2.3zm-26 15v-107.4l-4-2.3v112l4-2.3zm13-7.5v-92.4l-4-2.3v97l4-2.3zm90 48.5l-67-38.7-4 2.3 71 41v-4.6zm-31-133.4v77.4l4 2.3v-82l-4 2.3zm31 148.4l-80-46.2-4 2.3 84 48.5v-4.6zm-44-140.8v62.4l4 2.3v-67l-4 2.3zm26-15.1v92.4l4 2.3v-97l-4 2.3zm-26 236.8v62.4l4 2.3v-67l-4 2.3zm44-287.6l-93-53.7-4 2.3 97 56v-4.6zm0 15l-106-61.2-2 1.2v2.3l106 61.2 2-1.2v-2.3zm0 206.7l-93-53.7-4 2.3 97 56v-4.6zm0 15.1l-106-61.2-2 1.2v2.3l106 61.2 2-1.2v-2.3zm0-665.2l-106-61.2-2 1.2v2.3l106 61.2 2-1.2v-2.3zm0 871.8l-93-53.7-4 2.3 97 56v-4.6zm0-886.8l-93-53.7-4 2.3 97 56v-4.6zm0 221.7l-93-53.7-4 2.3 97 56v-4.6zm0 15l-106-61.2-2 1.2v2.3l106 61.2 2-1.2v-2.3zm-108 400.7l93 53.7 4-2.3-97-56v4.6zm77 86.1v77.4l4 2.3v-82l-4 2.3zm13-7.6v92.4l4 2.3v-97l-4 2.3zm18 188.3v-2.3l-106-61.2-2 1.2v2.3l106 61.2 2-1.2zm0-47.4l-67-38.7-4 2.3 71 41v-4.6zm0-1063.5l-106-61.2-2 1.2v2.3l106 61.2 2-1.2v-2.3zm0 1078.5l-80-46.2-4 2.3 84 48.5v-4.6zm-41-165.7l4-2.3-71-41v4.6l67 38.7zm13-7.5l4-2.3-84-48.5v4.6l80 46.2zm-62 109.7v-92.4l-4-2.3v97l4-2.3zm-119-974v82l4-2.3V755l-4-2.3zM202 893l71-41-4-2.3-67 38.7v4.6zm40-132.8v67l4-2.3v-62.4l-4-2.3zm-26-15v97l4-2.3v-92.4l-4-2.3zm54 15l-4 2.3v62.4l4 2.3v-67zm13 214.2l-4 2.3v77.4l4 2.3v-82zm-80-236.7v112l4-2.3V740l-4-2.3zm80 15l-4 2.3v77.4l4 2.3v-82zM202 908l84-48.5-4-2.3-80 46.2v4.6zm107 51.4l-4 2.3v107.4l4 2.3v-112zm1-28.3l-58 33.5 4 2.3 54-31.2v-4.6zm-14-185.9l-4 2.3v92.4l4 2.3v-97zm0 221.7l-4 2.3v92.4l4 2.3v-97zM202 878l58-33.5-4-2.3-54 31.2v4.6zm0 266.8l97-56-4-2.3-93 53.7v4.6zm108-258.7l-97 56 4 2.3 93-53.7v-4.6zm0-12.7l-2-1.2-106 61.2v2.3l2 1.2 106-61.2v-2.3zm0 42.7l-71 41 4 2.3 67-38.7v-4.6zm0-15l-84 48.5 4 2.3 80-46.2v-4.6zM202 923l97-56-4-2.3-93 53.7v4.6zm68-384.5l-4 2.3v62.4l4 2.3v-67zm-68 147.8l84-48.5-4-2.3-80 46.2v4.6zm107 51.4l-4 2.3v107.4l4 2.3v-112zm-67-199.2v67l4-2.3v-62.4l-4-2.3zm41-7.5l-4 2.3v77.4l4 2.3v-82zm13-7.5l-4 2.3v92.4l4 2.3v-97zm13-7.5l-4 2.3v107.4l4 2.3V516zM202 701.3l97-56-4-2.3-93 53.7v4.6zM229 531v82l4-2.3v-77.4l-4-2.3zm-27 140.3l71-41-4-2.3-67 38.7v4.6zm108 23.1l-71 41 4 2.3 67-38.7v-4.6zm0-15l-84 48.5 4 2.3 80-46.2v-4.6zm0 30l-58 33.5 4 2.3 54-31.2v-4.6zm0-45l-97 56 4 2.3 93-53.7v-4.6zm-108-8.1l58-33.5-4-2.3-54 31.2v4.6zm1-140.3v112l4-2.3V518.3l-4-2.3zm13 7.5v97l4-2.3v-92.4l-4-2.3zm94 128.2l-2-1.2-106 61.2v2.3l2 1.2L310 654v-2.3zm-68 330.2v67l4-2.3v-62.4l-4-2.3zm68 377.6l-71 41 4 2.3 67-38.7v-4.6zm0-42.7l-2-1.2-106 61.2v2.3l2 1.2 106-61.2v-2.3zm-108 4.6l58-33.5-4-2.3-54 31.2v4.6zm108 23.1l-84 48.5 4 2.3 80-46.2v-4.6zm0-15l-97 56 4 2.3 93-53.7v-4.6zm-108 6.9l71-41-4-2.3-67 38.7v4.6zm27-140.3v82l4-2.3v-77.4l-4-2.3zm-26-15v112l4-2.3v-107.4l-4-2.3zm13 7.5v97l4-2.3v-92.4l-4-2.3zm26 15v67l4-2.3V1206l-4-2.4zm28 221.7l-4 2.3v62.4l4 2.3v-67zm-68 132.8l71-41-4-2.3-67 38.7v4.6zm40-132.8v67l4-2.3v-62.4l-4-2.3zm-40 147.8l84-48.5-4-2.3-80 46.2v4.6zm94-162.8l-4 2.3v92.4l4 2.3v-97zm13-7.5l-4 2.3v107.4l4 2.3v-112zm-26 15l-4 2.3v77.4l4 2.3v-82zm27-43.3l-58 33.5 4 2.3 54-31.2v-4.6zm-108 213.7l97-56-4-2.3-93 53.7v4.6zm94-399.6l-4 2.3v92.4l4 2.3v-97zm-93-229.2v112l4-2.3V961.7l-4-2.3zm-1 140.3l58-33.5-4-2.3-54 31.2v4.6zm108-4.6l-2-1.2-106 61.2v2.3l2 1.2 106-61.2v-2.3zm-94-128.2v97l4-2.3v-92.4l-4-2.3zm54 236.7l-4 2.3v62.4l4 2.3v-67zm0-221.7l-4 2.3v62.4l4 2.3v-67zm40 125.9l-97 56 4 2.3 93-53.7v-4.6zm-81-133.4v82l4-2.3v-77.4l-4-2.3zm0 443.4v82l4-2.3v-77.4l-4-2.3zm-27-303.1l71-41-4-2.3-67 38.7v4.6zm108 8.1l-84 48.5 4 2.3 80-46.2v-4.6zm-108 243.7l97-56-4-2.3-93 53.7v4.6zm0-15.1l84-48.5-4-2.3-80 46.2v4.6zm0-221.7l84-48.5-4-2.3-80 46.2v4.6zm81 66.4l-4 2.3v77.4l4 2.3v-82zm26-15l-4 2.3v107.4l4 2.3v-112zm1-43.3l-71 41 4 2.3 67-38.7v-4.6zm0 15l-58 33.5 4 2.3 54-31.2v-4.6zm1571-953.2l-4 2.3 43 24.8v-4.6l-39-22.5zM578 1841l-2-1.2-2 1.2v79h4v-79zm204 27.8l-4 2.3v48.9h4v-51.2zm-37-5.2l-4-2.3v58.8h4v-56.5zm-13-7.6l-4-2.3v66.3h4v-64zm63 5.2l-4 2.3v56.4h4v-58.7zm39-20.2l-2-1.2-2 1.2v79h4v-79zm-115 7.5l-4-2.3v73.8h4v-71.5zm102-2.3l-4 2.3v71.5h4v-73.8zm-13 7.5l-4 2.3v64h4v-66.3zm308 2.3l-4-2.3v66.3h4v-64zm-499 7.6l-4-2.3v58.8h4v-56.5zm-13-7.6l-4-2.3v66.3h4v-64zm-13-7.5l-4-2.3v73.8h4v-71.5zm39 22.6l-4-2.3v51.2h4v-48.9zm24-2.3l-4 2.3v48.9h4v-51.2zm193-20.3l-4-2.3v73.8h4v-71.5zm-141-7.5l-2-1.2-2 1.2v79h4v-79zm-13 5.2l-4 2.3v71.5h4v-73.8zm-26 15l-4 2.3v56.4h4v-58.7zm91 9.9l-4-2.3v51.2h4v-48.9zm293-9.9l-4 2.3v56.4h4v-58.7zm-13 7.6l-4 2.3v48.9h4v-51.2zM860 1856l-4-2.3v66.3h4v-64zm141 7.6l-4-2.3v58.8h4v-56.5zm-13-7.6l-4-2.3v66.3h4v-64zm102-15l-2-1.2-2 1.2v79h4v-79zm13 7.5l-4-2.3v73.8h4v-71.5zm-39 5.2l-4 2.3v64h4v-66.3zm13-7.5l-4 2.3v71.5h4v-73.8zm-63 24.9l-4-2.3v51.2h4v-48.9zm-104-2.3l-4 2.3v48.9h4v-51.2zm13-7.6l-4 2.3v56.4h4v-58.7zm-37 9.9l-4-2.3v51.2h4v-48.9zm89-22.6l-4-2.3v73.8h4v-71.5zm-102 15.1l-4-2.3v58.8h4v-56.5zm89-22.6l-2-1.2-2 1.2v79h4v-79zm-13 5.2l-4 2.3v71.5h4v-73.8zm-13 7.5l-4 2.3v64h4v-66.3zm-909 7.5l-4 2.3v56.4h4v-58.7zm180-12.7l-4-2.3v73.8h4v-71.5zm-39 5.2l-4 2.3v64h4v-66.3zm52 2.3l-4-2.3v66.3h4v-64zm-39-9.8l-4 2.3v71.5h4v-73.8zm13-5.2l-2-1.2-2 1.2v79h4v-79zm371 5.2l-4 2.3v71.5h4v-73.8zm-295 22.6l-4 2.3v48.9h4v-51.2zm-24 2.3l-4-2.3v51.2h4v-48.9zm-13-7.5l-4-2.3v58.8h4v-56.5zm-193-9.9l-4 2.3v64h4v-66.3zm115 7.5l-4 2.3v56.4h4v-58.7zm-102-15l-4 2.3v71.5h4v-73.8zm13-5.2l-2-1.2-2 1.2v79h4v-79zm230 12.7l-4 2.3v64h4v-66.3zm-217-5.2l-4-2.3v73.8h4v-71.5zm39 22.6l-4-2.3v51.2h4v-48.9zm24-2.3l-4 2.3v48.9h4v-51.2zm-37-5.2l-4-2.3v58.8h4v-56.5zm-13-7.6l-4-2.3v66.3h4v-64zm191 5.2l-4 2.3v56.4h4v-58.7zm180-12.7l-4-2.3v73.8h4v-71.5zm13 7.5l-4-2.3v66.3h4v-64zm13 7.6l-4-2.3v58.8h4v-56.5zm-39-22.6l-2-1.2-2 1.2v79h4v-79zm52 30.1l-4-2.3v51.2h4v-48.9zm37-9.9l-4 2.3v56.4h4v-58.7zm13-7.5l-4 2.3v64h4v-66.3zm-26 15.1l-4 2.3v48.9h4v-51.2zm-89-22.6l-4 2.3v71.5h4v-73.8zm-115-5.2l-2-1.2-2 1.2v79h4v-79zm13 7.5l-4-2.3v73.8h4v-71.5zm13 7.5l-4-2.3v66.3h4v-64zm13 7.6l-4-2.3v58.8h4v-56.5zm-52-17.4l-4 2.3v71.5h4v-73.8zm89 22.6l-4 2.3v48.9h4v-51.2zm13-7.6l-4 2.3v56.4h4v-58.7zm-37 9.9l-4-2.3v51.2h4v-48.9zm50-17.4l-4 2.3v64h4v-66.3zm256 0l-4 2.3v64h4v-66.3zm1178-12.7l-2-1.2-2 1.2v79h4v-79zm9 79h4v-71.5l-4-2.3v73.8zm13 0h4v-64l-4-2.3v66.3zm-35-73.8l-4 2.3v71.5h4v-73.8zm75 2.9l-54-31.2v4.6l54 31.2v-4.6zm-27 70.9h4v-56.4l-4-2.3v58.7zm-27-147.1v4.6l54 31.2v-4.6l-54-31.2zm0 30v4.6l54 31.2v-4.6l-54-31.2zm-34 50.8l-4 2.3v64h4v-66.3zm34-65.8v4.6l54 31.2v-4.6l-54-31.2zm-149 58.3l-4 2.3v71.5h4v-73.8zm26 2.3l-4-2.3v73.8h4v-71.5zm-13-7.5l-2-1.2-2 1.2v79h4v-79zm-26 12.7l-4 2.3v64h4v-66.3zm115 7.5l-4 2.3v56.4h4v-58.7zm-13 7.6l-4 2.3v48.9h4v-51.2zm-50-12.8l-4-2.3v66.3h4v-64zm26 15.1l-4-2.3v51.2h4v-48.9zm-13-7.5l-4-2.3v58.8h4v-56.5zm112-112.1l-4 2.3 43 24.8v-4.6l-39-22.5zm-13 7.6l-2 1.2v2.3l54 31.2v-4.6l-52-30.1zM1881 643l-4 2.3 43 24.8v-4.6l-39-22.5zm-15 8.7v2.3l54 31.2v-4.6l-52-30-2 1.1zm15 213l-4 2.3 43 24.8v-4.6l-39-22.5zm0-443.4l-4 2.3 43 24.8v-4.6l-39-22.5zM1885.2 0l34.8 20.1v-4.6L1893.2 0h-8zm34 0h-8l8.8 5.1V.4l-.8-.4zM388 1408l-58-33.5v4.6l54 31.2 4-2.3zM1866 208.3v2.3l54 31.2v-4.6l-52-30-2 1.1zm0 221.7v2.3l54 31.2v-4.6l-52-30-2 1.1zm15 1099.8l-4 2.3 43 24.8v-4.6l-39-22.5zm-15-213v2.3l54 31.2v-4.6l-52-30-2 1.1zm0-443.4v2.3l54 31.2v-4.6l-52-30-2 1.1zm-175 987.8l-4 2.3v56.4h4v-58.7zm-562 2.4l-4-2.3v58.8h4v-56.5zm752-777.2l-4 2.3 43 24.8v-4.6l-39-22.5zm-15 8.7v2.3l54 31.2v-4.6l-52-30-2 1.1zm15 213l-4 2.3 43 24.8v-4.6l-39-22.5zm-15 230.4v2.3l54 31.2v-4.6l-52-30-2 1.1zm-533 307.7l-4 2.3v71.5h4v-73.8zm-26 15l-4 2.3v56.4h4v-58.7zm13-7.5l-4 2.3v64h4v-66.3zm-26 15.1l-4 2.3v48.9h4v-51.2zm104 2.3l-4-2.3v51.2h4v-48.9zm-26-15.1l-4-2.3v66.3h4v-64zm-26-15l-2-1.2-2 1.2v79h4v-79zm-76 30.1l-4-2.3v51.2h4v-48.9zm89-22.6l-4-2.3v73.8h4v-71.5zm26 15.1l-4-2.3v58.8h4v-56.5zm-206-2.4l-4 2.3v56.4h4v-58.7zM79 625.7V518.3l-4-2.3v112l4-2.3zm1113 1228l-4 2.3v64h4v-66.3zm-50 17.4l-4-2.3v51.2h4v-48.9zm115-7.5l-4-2.3v58.8h4v-56.5zm-52-17.4l-4 2.3v71.5h4v-73.8zm39 9.8l-4-2.3v66.3h4v-64zm-13-7.5l-4-2.3v73.8h4v-71.5zm-13-7.5l-2-1.2-2 1.2v79h4v-79zm384 0l-2-1.2-2 1.2v79h4v-79zm-180 27.8l-4 2.3v48.9h4v-51.2zm128 0l-4 2.3v48.9h4v-51.2zm39-22.6l-4 2.3v71.5h4v-73.8zm-26 15l-4 2.3v56.4h4v-58.7zm115 7.6l-4 2.3v48.9h4v-51.2zm-37-5.2l-4-2.3v58.8h4v-56.5zm13 7.5l-4-2.3v51.2h4v-48.9zm-26-15.1l-4-2.3v66.3h4v-64zm-13-7.5l-4-2.3v73.8h4v-71.5zm-39 5.2l-4 2.3v64h4v-66.3zm-115-7.5l-4 2.3v71.5h4v-73.8zm-13 7.5l-4 2.3v64h4v-66.3zm-13 7.5l-4 2.3v56.4h4v-58.7zm39-20.2l-2-1.2-2 1.2v79h4v-79zm13 7.5l-4-2.3v73.8h4v-71.5zm26 15.1l-4-2.3v58.8h4v-56.5zm13 7.5l-4-2.3v51.2h4v-48.9zm-26-15.1l-4-2.3v66.3h4v-64zm-334 12.8l-4 2.3v48.9h4v-51.2zM54 266L0 297.2v4.6l54-31.2V266zm0 665.1L0 962.3v4.6l54-31.2v-4.6zm-14 132.8v-97l-4 2.3v92.4l4 2.3zm14 88.9L0 1184v4.6l54-31.2v-4.6zM40 842.2v-97l-4 2.3v92.4l4 2.3zm0-221.7v-97l-4 2.3v92.4l4 2.3zm14-132.8L0 518.9v4.6l54-31.2v-4.6zm0 221.7L0 740.6v4.6L54 714v-4.6zm-14 797.9v-97l-4 2.3v92.4l4 2.3zm0-221.7v-97l-4 2.3v92.4l4 2.3zm26-553.1l-2-1.2-2 1.2v122.4l2 1.2 2-1.2V732.5zm0-221.7l-2-1.2-2 1.2v122.4l2 1.2 2-1.2V510.8zm-12 863.7l-54 31.2v4.6l54-31.2v-4.6zM66 289.1l-2-1.2-2 1.2v122.4l2 1.2 2-1.2V289.1zm0 665.1l-2-1.2-2 1.2v122.4l2 1.2 2-1.2V954.2zm-13 782.3v-112l-4 2.3v107.4l4 2.3zM66 67.4l-2-1.2-2 1.2v122.4l2 1.2 2-1.2V67.4zM40 1729v-97l-4 2.3v92.4l4 2.3zm26-553.1l-2-1.2-2 1.2v122.4l2 1.2 2-1.2v-122.4zm-12 420.3l-54 31.2v4.6l54-31.2v-4.6zM53 72.6l-4 2.3v107.4l4 2.3v-112zm-36 336l-4-2.3-13 7.5v4.6l17-9.8zm-17-9.8v4.6l4-2.3-4-2.3zm40 0v-97l-4 2.3v92.4l4 2.3zM54 251L0 282.2v4.6l54-31.2V251zm-27 58.3l-4 2.3V389l4 2.3v-82zm26-15l-4 2.3V404l4 2.3v-112zM26 413.8l-26 15v4.6l30-17.3-4-2.3zm-12-97l-4 2.3v62.4l4 2.3v-67zm-14-75l54-31.2v-2.3l-2-1.2-52 30v4.7zm40-64.7v-97l-4 2.3v92.4l4 2.3zM54 29.3L0 60.5v4.6l54-31.2v-4.6zm0 15L0 75.5v4.6l54-31.2v-4.6zM27 87.6l-4 2.3v77.4l4 2.3v-82zM0 177.1v4.6l4-2.3-4-2.3zm26 15l-26 15v4.6l30-17.3-4-2.3zm-12-97l-4 2.3v62.4l4 2.3v-67zM14 1920v-51.2l-4 2.3v48.9h4zM182 227.9v-4.6l-67-38.7-4 2.3 71 41zM74 270.6l54 31.2 4-2.3L74 266v4.6zm28 143.2l-4 2.3 84 48.5V460l-80-46.2zM74 255.6l67 38.7 4-2.3-71-41v4.6zm0-30l93 53.7 4-2.3-97-56v4.6zm90 78.5v92.4l4 2.3v-97l-4 2.3zM79 404V296.6l-4-2.3v112l4-2.3zm103 71l-93-53.7-4 2.3 97 56V475zm-77-86v-77.4l-4-2.3v82l4-2.3zm-13 7.5v-92.4l-4-2.3v97l4-2.3zM74 240.6l80 46.2 4-2.3L74 236v4.6zm77 71V389l4 2.3v-82l-4 2.3zm-49 323.9l-4 2.3 84 48.5v-4.6l-80-46.2zM182 490L76 428.8l-2 1.2v2.3l106 61.2 2-1.2V490zm0 206.7L89 643l-4 2.3 97 56v-4.6zm-58-295.6l58 33.5V430l-54-31.2-4 2.3zm-6-82l-4-2.3v67l4-2.3v-62.4zm20 0v62.4l4 2.3v-67l-4 2.3zm39-22.5V404l4 2.3v-112l-4 2.3zm5 153V445l-67-38.7-4 2.3 71 41zm-77-282.3V89.9l-4-2.3v82l4-2.3zm-43 1452v122.4l2 1.2 2-1.2v-122.4l-2-1.2-2 1.2zm17-1437V74.9l-4-2.3v112l4-2.3zm13-7.5V82.4l-4-2.3v97l4-2.3zM74 33.9l67 38.7 4-2.3-71-41v4.6zm0 15l54 31.2 4-2.3-58-33.5v4.6zm-8 1348.7l-2-1.2-2 1.2V1520l2 1.2 2-1.2v-122.4zM74 3.9l93 53.7 4-2.3L75.2 0H74v3.9zm28 188.2l-4 2.3 84 48.5v-4.6l-80-46.2zm80 61.2l-93-53.7-4 2.3 97 56v-4.6zM74 18.9l80 46.2 4-2.3-84-48.5v4.6zm103 56v107.4l4 2.3v-112l-4 2.3zm-13 7.5v92.4l4 2.3v-97l-4 2.3zM0 463.5l54-31.2V430l-2-1.2-52 30v4.7zm182-195.2L76 207.1l-2 1.2v2.3l106 61.2 2-1.2v-2.3zm-58-88.9l58 33.5v-4.6l-54-31.2-4 2.3zm27-89.5v77.4l4 2.3v-82l-4 2.3zm-33 7.5l-4-2.3v67l4-2.3V97.4zm20 0v62.4l4 2.3v-67l-4 2.3zM17 186.9l-4-2.3-13 7.5v4.6l17-9.8zm37 714.2L0 932.3v4.6l54-31.2v-4.6zm0 221.7L0 1154v4.6l54-31.2v-4.6zm0-15L0 1139v4.6l54-31.2v-4.6zm0 221.7l-54 31.2v4.6l54-31.2v-4.6zm0-443.4L0 917.3v4.6l54-31.2v-4.6zm0 458.4l-54 31.2v4.6l54-31.2v-4.6zm0-680.1L0 695.6v4.6L54 669v-4.6zm0-206.7L0 488.9v4.6l54-31.2v-4.6zm0 221.7L0 710.6v4.6L54 684v-4.6zM17 1738.8l-4-2.3-13 7.5v4.6l17-9.8zm-3-91.8l-4 2.3v62.4l4 2.3v-67zM54 442.7L0 473.9v4.6l54-31.2v-4.6zM0 1729v4.6l4-2.3-4-2.3zm0-157l54-31.2v-2.3l-2-1.2-52 30v4.7zm54 9.2l-54 31.2v4.6l54-31.2v-4.6zm0-30l-54 31.2v4.6l54-31.2v-4.6zm-1-148.4l-4 2.3v107.4l4 2.3v-112zM26 1744l-26 15v4.6l30-17.3-4-2.3zm1-104.5l-4 2.3v77.4l4 2.3v-82zm27-73.3l-54 31.2v4.6l54-31.2v-4.6zm-15 185.3L0 1774v4.6l43-24.8-4-2.3zm0-221.7l-39 22.5v4.6l43-24.8-4-2.3zm0-221.7l-39 22.5v4.6l43-24.8-4-2.3zm15 454.4v-2.3l-2-1.2-52 30v4.6l54-31.1zm0 15v-4.6l-54 31.2v4.6l54-31.2zM54 236L0 267.2v4.6l54-31.2V236zm-15 850.4L0 1109v4.6l43-24.8-4-2.4zm15 736.2v-4.6l-54 31.2v4.6l54-31.2zm0-30.1v-4.6l-54 31.2v4.6l54-31.2zm0 15.1v-4.6l-54 31.2v4.6l54-31.2zM54 0h-1.2L0 30.5v4.6L54 3.9V0zm0 14.3L0 45.5v4.6l54-31.2v-4.6zM39 864.7L0 887.3v4.6L43 867l-4-2.3zM0 15.5v4.6L34.8 0h-8L0 15.5zM54 221L0 252.2v4.6l54-31.2V221zM39 643L0 665.6v4.6l43-24.8-4-2.4zm0-221.7L0 443.8v4.6l43-24.8-4-2.3zm0-221.7L0 222.1v4.6l43-24.8-4-2.3zM17 1295.4l-4-2.3-13 7.5v4.6l17-9.8zm9-438.2l-26 15v4.6l30-17.3-4-2.3zm-12-97l-4 2.3v62.4l4 2.3v-67zm13-7.5l-4 2.3v77.4l4 2.3v-82zM0 842.2v4.6l4-2.3-4-2.3zm17 9.8l-4-2.3-13 7.5v4.6l17-9.8zm0 221.7l-4-2.3-13 7.5v4.6l17-9.8zm-17-9.8v4.6l4-2.3-4-2.3zm0-157l54-31.2v-2.3l-2-1.2-52 30v4.7zm53-169.2l-4 2.3v107.4l4 2.3v-112zm1 178.4L0 947.3v4.6l54-31.2v-4.6zM14 538.5l-4 2.3v62.4l4 2.3v-67zm12 97l-26 15v4.6l30-17.3-4-2.3zm-9-5.2l-4-2.3-13 7.5v4.6l17-9.8zm-17-9.8v4.6l4-2.3-4-2.3zm54 73.9L0 725.6v4.6L54 699v-4.6zm-54-9.2L54 654v-2.3l-2-1.2-52 30v4.7zM27 531l-4 2.3v77.4l4 2.3v-82zm26-15l-4 2.3v107.4l4 2.3V516zM14 981.9l-4 2.3v62.4l4 2.3v-67zm39 199.2l-4 2.3v107.4l4 2.3v-112zM0 1350.3l54-31.2v-2.3l-2-1.2-52 30v4.7zm54 9.2l-54 31.2v4.6l54-31.2v-4.6zm-27-163.4l-4 2.3v77.4l4 2.3v-82zm-10 321l-4-2.3-13 7.5v4.6l17-9.8zm-17-9.8v4.6l4-2.3-4-2.3zm27-89.5l-4 2.3v77.4l4 2.3v-82zm-13 7.5l-4 2.3v62.4l4 2.3v-67zm12-124.7l-26 15v4.6l30-17.3-4-2.3zm0 221.7l-26 15v4.6l30-17.3-4-2.3zm1-547.9l-4 2.3v77.4l4 2.3v-82zm26-15l-4 2.3v107.4l4 2.3v-112zm-27 119.5l-26 15v4.6l30-17.3-4-2.3zm-26 49.7l54-31.2v-2.3l-2-1.2-52 30v4.7zm54-655.9L0 503.9v4.6l54-31.2v-4.6zm-40 730.9l-4 2.3v62.4l4 2.3v-67zm-14 82v4.6l4-2.3-4-2.3zm54-147.8L0 1169v4.6l54-31.2v-4.6zm829-288.1l-4 2.3 71 41v-4.6l-67-38.7zM714 46.6v2.3l2 1.2L802.8 0h-8L714 46.6zM822 0h-1.2L725 55.3l4 2.3 93-53.7V0zm0 14.3l-84 48.5 4 2.3 80-46.2v-4.6zm0 15l-71 41 4 2.3 67-38.7v-4.6zm-108 2.3v4.6L776.8 0h-8L714 31.6zm-8 1366l-2-1.2-2 1.2V1520l2 1.2 2-1.2v-122.4zM822 221l-97 56 4 2.3 93-53.7V221zM714 1.6v4.6L724.8 0h-8L714 1.6zm-12 1617.7v122.4l2 1.2 2-1.2v-122.4l-2-1.2-2 1.2zM714 16.6v4.6L750.8 0h-8L714 16.6zm108 662.8l-84 48.5 4 2.3 80-46.2v-4.6zm0-15l-97 56 4 2.3 93-53.7v-4.6zm0 30l-71 41 4 2.3 67-38.7v-4.6zm0 191.7l-97 56 4 2.3 93-53.7v-4.6zm0-413.4l-71 41 4 2.3 67-38.7v-4.6zm0-30l-97 56 4 2.3 93-53.7v-4.6zm0-191.7l-71 41 4 2.3 67-38.7V251zm0 650.1l-84 48.5 4 2.3 80-46.2v-4.6zm0-443.4l-84 48.5 4 2.3 80-46.2v-4.6zm0-221.7l-84 48.5 4 2.3 80-46.2V236zM617 89.9l-4-2.3v82l4-2.3V89.9zm66 1739l-97-56v4.6l93 53.7 4-2.3zm-26 15l-71-41v4.6l67 38.7 4-2.3zm-71-21.3l54 31.2 4-2.3-58-33.5v4.6zm108 0v-2.3l-106-61.2-2 1.2v2.3l106 61.2 2-1.2zm12-646.7l-2-1.2-2 1.2v122.4l2 1.2 2-1.2v-122.4zm-70-996.5l58 33.5v-4.6l-54-31.2-4 2.3zm58 63.5v-4.6l-80-46.2-4 2.3 84 48.5zM676 82.4v92.4l4 2.3v-97l-4 2.3zm13-7.5v107.4l4 2.3v-112l-4 2.3zm17 435.9l-2-1.2-2 1.2v122.4l2 1.2 2-1.2V510.8zM694 36.2v-4.6L639.2 0h-8L694 36.2zm12 252.9l-2-1.2-2 1.2v122.4l2 1.2 2-1.2V289.1zm0 665.1l-2-1.2-2 1.2v122.4l2 1.2 2-1.2V954.2zm0-221.7l-2-1.2-2 1.2v122.4l2 1.2 2-1.2V732.5zM694 21.2v-4.6L665.2 0h-8L694 21.2zm0-15V1.6L691.2 0h-8L694 6.2zm12 61.2l-2-1.2-2 1.2v122.4l2 1.2 2-1.2V67.4zm10 1312.9l106-61.2v-2.3l-2-1.2-106 61.2v2.3l2 1.2zm95 151.9l-4-2.3-93 53.7v4.6l97-56zm-96-17.4l4-2.3v-107.4l-4-2.3v112zm1 87.2l106-61.2v-2.3l-2-1.2-106 61.2v2.3l2 1.2zm-2-28.9l84-48.5-4-2.3-80 46.2v4.6zm81-155.3l-4 2.3v77.4l4 2.3v-82zM630 1206l-4-2.3v67l4-2.3V1206zm111 433.5v82l4-2.3v-77.4l-4-2.3zm-27 125.3l58-33.5-4-2.3-54 31.2v4.6zm14-132.8v97l4-2.3v-92.4l-4-2.3zm0-221.7v97l4-2.3v-92.4l-4-2.3zm13 7.5v82l4-2.3v-77.4l-4-2.3zm81 178.4l-58 33.5 4 2.3 54-31.2v-4.6zm-108-53.1l58-33.5-4-2.3-54 31.2v4.6zm40-117.8v67l4-2.3v-62.4l-4-2.3zm67 89.5v-112l-4 2.3v107.4l4 2.3zm-107 43.3l71-41-4-2.3-67 38.7v4.6zm94-50.8v-97l-4 2.3v92.4l4 2.3zm-26-82l-4 2.3v62.4l4 2.3v-67zm40-50.8l-58 33.5 4 2.3 54-31.2v-4.6zm0-45l-97 56 4 2.3 93-53.7v-4.6zm0 251.7l-71 41 4 2.3 67-38.7v-4.6zm0-30l-97 56 4 2.3 93-53.7v-4.6zm0 15l-84 48.5 4 2.3 80-46.2v-4.6zm0-221.7l-84 48.5 4 2.3 80-46.2v-4.6zm0 15l-71 41 4 2.3 67-38.7v-4.6zm0-236.7l-84 48.5 4 2.3 80-46.2v-4.6zm0-15l-97 56 4 2.3 93-53.7v-4.6zm0-191.7l-71 41 4 2.3 67-38.7v-4.6zm0 221.7l-71 41 4 2.3 67-38.7v-4.6zm-27 501.7l-4 2.3v77.4l4 2.3v-82zm-13 7.5l-4 2.3v62.4l4 2.3v-67zm-68 132.8l71-41-4-2.3-67 38.7v4.6zm0 15.1l84-48.5-4-2.3-80 46.2v4.6zm94-65.9v-97l-4 2.3v92.4l4 2.3zm-92 94.7l106-61.2v-2.3l-2-1.2-106 61.2v2.3l2 1.2zm95-69.8l-4-2.3-93 53.7v4.6l97-56zm-96-17.4l4-2.3v-107.4l-4-2.3v112zm106 0v-112l-4 2.3v107.4l4 2.3zm-151 99.9l-84-48.5v4.6l80 46.2 4-2.3zM586 684l80 46.2 4-2.3-84-48.5v4.6zm0-15l93 53.7 4-2.3-97-56v4.6zm0 30l67 38.7 4-2.3-71-41v4.6zm103 41v107.4l4 2.3v-112l-4 2.3zm-103-26l54 31.2 4-2.3-58-33.5v4.6zm90 33.5v92.4l4 2.3v-97l-4 2.3zm-85 99.9V740l-4-2.3v112l4-2.3zm-5 28.3l106 61.2 2-1.2v-2.3l-106-61.2-2 1.2v2.3zm18-35.8v-92.4l-4-2.3v97l4-2.3zm90 48.5l-67-38.7-4 2.3 71 41v-4.6zM663 755v77.4l4 2.3v-82l-4 2.3zm-77-101l106 61.2 2-1.2v-2.3l-106-61.2-2 1.2v2.3zm5-28.3V518.3l-4-2.3v112l4-2.3zM617 755l-4-2.3v82l4-2.3V755zm77 153v-4.6l-80-46.2-4 2.3 84 48.5zm-44-145.5v62.4l4 2.3v-67l-4 2.3zm44 110.9l-54-31.2-4 2.3 58 33.5v-4.6zm-64-110.9l-4-2.3v67l4-2.3v-62.4zm64 367.2v-4.6l-80-46.2-4 2.3 84 48.5zm-44-145.5v62.4l4 2.3v-67l-4 2.3zm-59 84.9V961.7l-4-2.3v112l4-2.3zm-5-163.4l80 46.2 4-2.3-84-48.5v4.6zm0 30.1l54 31.2 4-2.3-58-33.5v4.6zm0-15.1l67 38.7 4-2.3-71-41v4.6zm18 140.9v-92.4l-4-2.3v97l4-2.3zm-18 35.8l106 61.2 2-1.2v-2.3l-106-61.2-2 1.2v2.3zm108 234.4l-67-38.7-4 2.3 71 41v-4.6zm-77-133.4l-4-2.3v82l4-2.3v-77.4zm77 153v-4.6l-80-46.2-4 2.3 84 48.5zm-77-374.7l-4-2.3v82l4-2.3v-77.4zm13 7.5l-4-2.3v67l4-2.3v-62.4zm64 110.9l-54-31.2-4 2.3 58 33.5v-4.6zm-90-476.9v-92.4l-4-2.3v97l4-2.3zm90 491.9l-67-38.7-4 2.3 71 41v-4.6zm-31-133.4v77.4l4 2.3v-82l-4 2.3zm26-15v107.4l4 2.3v-112l-4 2.3zm-103-71l93 53.7 4-2.3-97-56v4.6zm90 78.5v92.4l4 2.3v-97l-4 2.3zm-26-650.1v62.4l4 2.3v-67l-4 2.3zM694 430l-54-31.2-4 2.3 58 33.5V430zm0 15l-67-38.7-4 2.3 71 41V445zm-64-125.9l-4-2.3v67l4-2.3v-62.4zm-13-7.5l-4-2.3v82l4-2.3v-77.4zm77-88.3l-67-38.7-4 2.3 71 41v-4.6zm-5 73.3V404l4 2.3v-112l-4 2.3zm-13 7.5v92.4l4 2.3v-97l-4 2.3zm-90-78.5l93 53.7 4-2.3-97-56v4.6zm77 86V389l4 2.3v-82l-4 2.3zm31 153V460l-80-46.2-4 2.3 84 48.5zM650 97.4v62.4l4 2.3v-67l-4 2.3zm13-7.5v77.4l4 2.3v-82l-4 2.3zm-33 7.5l-4-2.3v67l4-2.3V97.4zm-44-78.5l80 46.2 4-2.3-84-48.5v4.6zm0 30l54 31.2 4-2.3-58-33.5v4.6zm0-15l67 38.7 4-2.3-71-41v4.6zm18 140.9V82.4l-4-2.3v97l4-2.3zm-13 7.5V74.9l-4-2.3v112l4-2.3zm-5 28.3l106 61.2 2-1.2v-2.3l-106-61.2-2 1.2v2.3zm64 330.2v62.4l4 2.3v-67l-4 2.3zm-64-48.5l54 31.2 4-2.3-58-33.5v4.6zm77 41v77.4l4 2.3v-82l-4 2.3zm-33 7.5l-4-2.3v67l4-2.3v-62.4zm46-15v92.4l4 2.3v-97l-4 2.3zm18 125.9l-54-31.2-4 2.3 58 33.5v-4.6zM586 462.3l80 46.2 4-2.3-84-48.5v4.6zm0 15l67 38.7 4-2.3-71-41v4.6zm0-30l93 53.7 4-2.3-97-56v4.6zm103 71v107.4l4 2.3V516l-4 2.3zm-72 15l-4-2.3v82l4-2.3v-77.4zm-31-262.7l54 31.2 4-2.3-58-33.5v4.6zm18 125.9v-92.4l-4-2.3v97l4-2.3zm-18-140.9l67 38.7 4-2.3-71-41v4.6zm5 148.4V296.6l-4-2.3v112l4-2.3zm103 262.7L627 628l-4 2.3 71 41v-4.6zM586 240.6l80 46.2 4-2.3-84-48.5v4.6zm108 445.7v-4.6l-80-46.2-4 2.3 84 48.5zm-108-254l106 61.2 2-1.2V490l-106-61.2-2 1.2v2.3zM754 1647v67l4-2.3v-62.4l-4-2.3zM842 48.9l54 31.2 4-2.3-58-33.5v4.6zm0-15l67 38.7 4-2.3-71-41v4.6zm44 125.9V97.4l-4-2.3v67l4-2.3zM842 18.9l80 46.2 4-2.3-84-48.5v4.6zm-88 76.2v67l4-2.3V97.4l-4-2.3zm196 158.2l-93-53.7-4 2.3 97 56v-4.6zM919 89.9v77.4l4 2.3v-82l-4 2.3zm-46 77.4V89.9l-4-2.3v82l4-2.3zm-13 7.5V82.4l-4-2.3v97l4-2.3zm32 4.6l58 33.5v-4.6l-54-31.2-4 2.3zm14-82v62.4l4 2.3v-67l-4 2.3zm-36 316.4l-4 2.3 84 48.5V460l-80-46.2zm-23-9.8V296.6l-4-2.3v112l4-2.3zm36 2.3l-4 2.3 71 41V445l-67-38.7zm67 68.7l-93-53.7-4 2.3 97 56V475zm-517 930.1v107.4l4 2.3v-112l-4 2.3zM932 82.4v92.4l4 2.3v-97l-4 2.3zm18 185.9l-106-61.2-2 1.2v2.3l106 61.2 2-1.2v-2.3zm-80-76.2l-4 2.3 84 48.5v-4.6l-80-46.2zm-48 1630.5v-4.6l-58 33.5 4 2.3 54-31.2zm0-34.7l-84 48.5 4 2.3 80-46.2v-4.6zm38-1391.4v-92.4l-4-2.3v97l4-2.3zm-38 1406.4l-71 41 4 2.3 67-38.7v-4.6zm0-30l-97 56 4 2.3 93-53.7v-4.6zM834 67.4l-2-1.2-2 1.2v122.4l2 1.2 2-1.2V67.4zm-93 20.2v82l4-2.3V89.9l-4-2.3zm-27 125.3l58-33.5-4-2.3-54 31.2v4.6zm14-132.8v97l4-2.3V82.4l-4-2.3zm-13-7.5v112l4-2.3V74.9l-4-2.3zm168 112l-4 2.3 71 41v-4.6l-67-38.7zm-49 1213l-2-1.2-2 1.2V1520l2 1.2 2-1.2v-122.4zm-4 221.7v122.4l2 1.2 2-1.2v-122.4l-2-1.2-2 1.2zm4-443.4l-2-1.2-2 1.2v122.4l2 1.2 2-1.2v-122.4zm8-1172l93 53.7 4-2.3L843.2 0H842v3.9zm-8 728.6l-2-1.2-2 1.2v122.4l2 1.2 2-1.2V732.5zm0-221.7l-2-1.2-2 1.2v122.4l2 1.2 2-1.2V510.8zm0-221.7l-2-1.2-2 1.2v122.4l2 1.2 2-1.2V289.1zm0 665.1l-2-1.2-2 1.2v122.4l2 1.2 2-1.2V954.2zm13-771.9V74.9l-4-2.3v112l4-2.3zm98 336v107.4l4 2.3V516l-4 2.3zm-39 22.5v62.4l4 2.3v-67l-4 2.3zm44 170.9l-106-61.2-2 1.2v2.3l106 61.2 2-1.2v-2.3zm-58-88.9l58 33.5v-4.6l-54-31.2-4 2.3zm27-89.5v77.4l4 2.3v-82l-4 2.3zm13-7.5v92.4l4 2.3v-97l-4 2.3zm-90-48.5l67 38.7 4-2.3-71-41v4.6zm0-15l80 46.2 4-2.3-84-48.5v4.6zm0-15l93 53.7 4-2.3-97-56v4.6zm0 236.7l80 46.2 4-2.3-84-48.5v4.6zm44 140.9v-62.4l-4-2.3v67l4-2.3zm-13 7.5V755l-4-2.3v82l4-2.3zM842 714l54 31.2 4-2.3-58-33.5v4.6zm0-15l67 38.7 4-2.3-71-41v4.6zm5 148.4V740l-4-2.3v112l4-2.3zm23 9.8l-4 2.3 84 48.5v-4.6l-80-46.2zm80 61.2l-93-53.7-4 2.3 97 56v-4.6zm-90-78.5v-92.4l-4-2.3v97l4-2.3zm-18-347.6l54 31.2 4-2.3-58-33.5v4.6zm108 204.4L857 643l-4 2.3 97 56v-4.6zM842 225.6l93 53.7 4-2.3-97-56v4.6zm103 71V404l4 2.3v-112l-4 2.3zm-26 15V389l4 2.3v-82l-4 2.3zm-33 291.6v-62.4l-4-2.3v67l4-2.3zm46-299.1v92.4l4 2.3v-97l-4 2.3zm-90-33.5l54 31.2 4-2.3-58-33.5v4.6zm44 110.9v-62.4l-4-2.3v67l4-2.3zm-44-140.9l80 46.2 4-2.3-84-48.5v4.6zm0 15l67 38.7 4-2.3-71-41v4.6zm64 63.5v62.4l4 2.3v-67l-4 2.3zM873 389v-77.4l-4-2.3v82l4-2.3zm-26 236.7V518.3l-4-2.3v112l4-2.3zm45-224.6l58 33.5V430l-54-31.2-4 2.3zm-19 209.6v-77.4l-4-2.3v82l4-2.3zm-13 7.5v-92.4l-4-2.3v97l4-2.3zM950 490l-106-61.2-2 1.2v2.3l106 61.2 2-1.2V490zm-80 145.5l-4 2.3 84 48.5v-4.6l-80-46.2zm13-7.5l-4 2.3 71 41v-4.6L883 628zm-72 239l-4-2.3-93 53.7v4.6l97-56zm-83 99.9v97l4-2.3v-92.4l-4-2.3zm-14 132.8l58-33.5-4-2.3-54 31.2v4.6zm27-347v82l4-2.3V755l-4-2.3zm0 221.7v82l4-2.3v-77.4l-4-2.3zm-25-37.5l106-61.2v-2.3l-2-1.2-106 61.2v2.3l2 1.2zm105 134.5v-112l-4 2.3v107.4l4 2.3zm-67-89.5v67l4-2.3v-62.4l-4-2.3zm54 82v-97l-4 2.3v92.4l4 2.3zm14-132.8l-58 33.5 4 2.3 54-31.2v-4.6zm-14-88.9v-97l-4 2.3v92.4l4 2.3zm14-132.8l-58 33.5 4 2.3 54-31.2v-4.6zM715 849.7l4-2.3V740l-4-2.3v112zm106 0v-112l-4 2.3v107.4l4 2.3zm-67-89.5v67l4-2.3v-62.4l-4-2.3zm-40 354.5l71-41-4-2.3-67 38.7v4.6zm0-206.7l84-48.5-4-2.3-80 46.2v4.6zm81-155.3l-4 2.3v77.4l4 2.3v-82zm-13 7.5l-4 2.3v62.4l4 2.3v-67zM714 893l71-41-4-2.3-67 38.7v4.6zm97 417.5l-4-2.3-93 53.7v4.6l97-56zm-3-24.9v-97l-4 2.3v92.4l4 2.3zm-94 50.8l71-41-4-2.3-67 38.7v4.6zm107-43.3v-112l-4 2.3v107.4l4 2.3zm1-140.3l-58 33.5 4 2.3 54-31.2v-4.6zm-107 140.3l4-2.3v-107.4l-4-2.3v112zm39-89.5v67l4-2.3V1206l-4-2.4zm41-7.5l-4 2.3v77.4l4 2.3v-82zm-13 7.5l-4 2.3v62.4l4 2.3v-67zm-68 147.8l84-48.5-4-2.3-80 46.2v4.6zm1-280l4-2.3V961.7l-4-2.3v112zm96 17.3l-4-2.3-93 53.7v4.6l97-56zm-70 107.4v82l4-2.3v-77.4l-4-2.3zm54-221.7l-4 2.3v77.4l4 2.3v-82zm-81 155.3l84-48.5-4-2.3-80 46.2v4.6zm68-147.8l-4 2.3v62.4l4 2.3v-67zm-54 206.7v97l4-2.3v-92.4l-4-2.3zm-12-30l106-61.2v-2.3l-2-1.2-106 61.2v2.3l2 1.2zm-2 162.8l58-33.5-4-2.3-54 31.2v4.6zm1-693.4l4-2.3V518.3l-4-2.3v112zm106-221.7v-112l-4 2.3V404l4 2.3zm1-140.3l-58 33.5 4 2.3 54-31.2V266zm-68 50.8v67l4-2.3v-62.4l-4-2.3zm-13-7.5v82l4-2.3v-77.4l-4-2.3zm-13-7.5v97l4-2.3v-92.4l-4-2.3zm-14 162.8l84-48.5-4-2.3-80 46.2v4.6zm68-147.8l-4 2.3v62.4l4 2.3v-67zm-68 132.8l71-41-4-2.3-67 38.7v4.6zm94-50.8v-97l-4 2.3v92.4l4 2.3zm-94-155.9l84-48.5-4-2.3-80 46.2v4.6zm0 191.7l58-33.5-4-2.3-54 31.2v4.6zm81-265v-82l-4 2.3v77.4l4 2.3zm13 7.5v-97l-4 2.3v92.4l4 2.3zm13 7.5v-112l-4 2.3v107.4l4 2.3zm-39-22.5v-67l-4 2.3v62.4l4 2.3zm-66 109.7l106-61.2v-2.3l-2-1.2-106 61.2v2.3l2 1.2zm-2-43.9l71-41-4-2.3-67 38.7v4.6zm0 30l97-56-4-2.3-93 53.7v4.6zm81 51.4l-4 2.3V389l4 2.3v-82zm-79 184.2l106-61.2V430l-2-1.2L714 490v2.3l2 1.2zm-2 192.8l84-48.5-4-2.3-80 46.2v4.6zm68-147.8l-4 2.3v62.4l4 2.3v-67zm-68 132.8l71-41-4-2.3-67 38.7v4.6zM795 531l-4 2.3v77.4l4 2.3v-82zm-81 347l58-33.5-4-2.3-54 31.2v4.6zM822 44.3l-58 33.5 4 2.3 54-31.2v-4.6zM716 715.2L822 654v-2.3l-2-1.2-106 61.2v2.3l2 1.2zm92-94.7v-97l-4 2.3v92.4l4 2.3zm3 24.8l-4-2.3-93 53.7v4.6l97-56zm10-17.3V516l-4 2.3v107.4l4 2.3zm-93-104.5v97l4-2.3v-92.4l-4-2.3zm-14 132.8l58-33.5-4-2.3-54 31.2v4.6zm14 88.9v97l4-2.3v-92.4l-4-2.3zm83-321.6l-4-2.3-93 53.7v4.6l97-56zm-57 114.9v67l4-2.3v-62.4l-4-2.3zm68-50.8l-58 33.5 4 2.3 54-31.2v-4.6zm-107-81.4l4-2.3V296.6l-4-2.3v112zM741 531v82l4-2.3v-77.4l-4-2.3zM945 74.9v107.4l4 2.3v-112l-4 2.3zm-495 1101l-2-1.2-2 1.2v122.4l2 1.2 2-1.2v-122.4zm0-443.4l-2-1.2-2 1.2v122.4l2 1.2 2-1.2V732.5zm0 221.7l-2-1.2-2 1.2v122.4l2 1.2 2-1.2V954.2zm-4 665.1v122.4l2 1.2 2-1.2v-122.4l-2-1.2-2 1.2zm4-221.7l-2-1.2-2 1.2V1520l2 1.2 2-1.2v-122.4zm0-886.8l-2-1.2-2 1.2v122.4l2 1.2 2-1.2V510.8zm0-443.4l-2-1.2-2 1.2v122.4l2 1.2 2-1.2V67.4zM438 6.2V1.6L435.2 0h-8L438 6.2zm12 282.9l-2-1.2-2 1.2v122.4l2 1.2 2-1.2V289.1zm8-257.5v4.6L520.8 0h-8L458 31.6zm108-17.3l-84 48.5 4 2.3 80-46.2v-4.6zM458 1.6v4.6L468.8 0h-8L458 1.6zm108 27.7l-71 41 4 2.3 67-38.7v-4.6zm-1 43.3l-4 2.3v107.4l4 2.3v-112zm1-28.3l-58 33.5 4 2.3 54-31.2v-4.6zM566 0h-1.2L469 55.3l4 2.3 93-53.7V0zM458 16.6v4.6L494.8 0h-8L458 16.6zm-20 4.6v-4.6L409.2 0h-8L438 21.2zm20 25.4v2.3l2 1.2L546.8 0h-8L458 46.6zm-51 43.3v77.4l4 2.3v-82l-4 2.3zm-46 77.4V89.9l-4-2.3v82l4-2.3zm13-7.5V97.4l-4-2.3v67l4-2.3zm-39 22.5V74.9l-4-2.3v112l4-2.3zm13-7.5V82.4l-4-2.3v97l4-2.3zm90 48.5l-67-38.7-4 2.3 71 41v-4.6zM394 97.4v62.4l4 2.3v-67l-4 2.3zm158-17.3l-4 2.3v92.4l4 2.3v-97zM438 36.2v-4.6L383.2 0h-8L438 36.2zm-50 41.6l-58-33.5v4.6l54 31.2 4-2.3zm50 160.5l-80-46.2-4 2.3 84 48.5v-4.6zm-37 1605.6l-71-41v4.6l67 38.7 4-2.3zm13-7.5l-84-48.5v4.6l80 46.2 4-2.3zM433 74.9v107.4l4 2.3v-112l-4 2.3zm3-24.8l2-1.2v-2.3L357.2 0h-8L436 50.1zm-52 1803.6l4-2.3-58-33.5v4.6l54 31.2zm43-24.8l-97-56v4.6l93 53.7 4-2.3zM420 82.4v92.4l4 2.3v-97l-4 2.3zm-40 97l58 33.5v-4.6l-54-31.2-4 2.3zm118-84.3v67l4-2.3V97.4l-4-2.3zm-26 206.7v97l4-2.3v-92.4l-4-2.3zm-14 132.8l58-33.5-4-2.3-54 31.2v4.6zm1-140.3v112l4-2.3V296.6l-4-2.3zm105 134.5L458 490v2.3l2 1.2 106-61.2V430l-2-1.2zm-38-112l-4 2.3v62.4l4 2.3v-67zm40 125.9l-97 56 4 2.3 93-53.7v-4.6zm-108 6.9l71-41-4-2.3-67 38.7v4.6zm40-132.8v67l4-2.3v-62.4l-4-2.3zm-13-7.5v82l4-2.3v-77.4l-4-2.3zM539 531l-4 2.3v77.4l4 2.3v-82zm-81 155.3l84-48.5-4-2.3-80 46.2v4.6zm0-221.7l84-48.5-4-2.3-80 46.2v4.6zm68 73.9l-4 2.3v62.4l4 2.3v-67zm40-80.8l-84 48.5 4 2.3 80-46.2v-4.6zM458 701.3l97-56-4-2.3-93 53.7v4.6zm108-213.6l-58 33.5 4 2.3 54-31.2v-4.6zm0-15l-71 41 4 2.3 67-38.7v-4.6zm-1 43.3l-4 2.3v107.4l4 2.3V516zm-13 7.5l-4 2.3v92.4l4 2.3v-97zm-94-43.9l97-56-4-2.3-93 53.7v4.6zM330 18.9l80 46.2 4-2.3-84-48.5v4.6zm155 68.7v82l4-2.3V89.9l-4-2.3zm-13-7.5v97l4-2.3V82.4l-4-2.3zm-13-7.5v112l4-2.3V74.9l-4-2.3zm-1 155.3l71-41-4-2.3-67 38.7v4.6zm81-140.3l-4 2.3v77.4l4 2.3v-82zm0 221.7l-4 2.3V389l4 2.3v-82zm-81-66.4l84-48.5-4-2.3-80 46.2v4.6zm68-147.8l-4 2.3v62.4l4 2.3v-67zm-68 117.8l58-33.5-4-2.3-54 31.2v4.6zm107 81.4l-4 2.3V404l4 2.3v-112zm-13 7.5l-4 2.3v92.4l4 2.3v-97zm12-94.7l-106 61.2v2.3l2 1.2 106-61.2v-2.3l-2-1.2zm2 58.9l-58 33.5 4 2.3 54-31.2V266zm-108-8.1l97-56-4-2.3-93 53.7v4.6zm108-6.9l-71 41 4 2.3 67-38.7V251zm0-30l-97 56 4 2.3 93-53.7V221zm0 15l-84 48.5 4 2.3 80-46.2V236zM374 824.9v-62.4l-4-2.3v67l4-2.3zm-26 236.7v-92.4l-4-2.3v97l4-2.3zm26-15v-62.4l-4-2.3v67l4-2.3zm-39 22.5V961.7l-4-2.3v112l4-2.3zm103 56l-80-46.2-4 2.3 84 48.5v-4.6zm-77-71v-77.4l-4-2.3v82l4-2.3zm46-77.4v77.4l4 2.3v-82l-4 2.3zm13-7.5v92.4l4 2.3v-97l-4 2.3zm-26 15v62.4l4 2.3v-67l-4 2.3zm44 125.9l-67-38.7-4 2.3 71 41v-4.6zM330 890.7l93 53.7 4-2.3-97-56v4.6zm90-143.2v92.4l4 2.3v-97l-4 2.3zm-13 7.5v77.4l4 2.3v-82l-4 2.3zm-13 7.5v62.4l4 2.3v-67l-4 2.3zM330 669l93 53.7 4-2.3-97-56v4.6zm67 68.7l4-2.3-71-41v4.6l67 38.7zm-17 328.5l58 33.5v-4.6l-54-31.2-4 2.3zm30-336l4-2.3-84-48.5v4.6l80 46.2zm23 231.5v107.4l4 2.3v-112l-4 2.3zm-45 2.9l-58-33.5v4.6l54 31.2 4-2.3zm50 367.2l-67-38.7-4 2.3 71 41v-4.6zm-18-140.9v92.4l4 2.3v-97l-4 2.3zM397 72.6l4-2.3-71-41v4.6l67 38.7zm13 879.3l4-2.3-84-48.5v4.6l80 46.2zm28-63.5l-67-38.7-4 2.3 71 41v-4.6zm-28 285.2l4-2.3-84-48.5v4.6l80 46.2zm-30 336l58 33.5v-4.6l-54-31.2-4 2.3zm17-328.5l4-2.3-71-41v4.6l67 38.7zm41 165.7l-80-46.2-4 2.3 84 48.5v-4.6zm-108-234.4l93 53.7 4-2.3-97-56v4.6zm64 93.6v62.4l4 2.3v-67l-4 2.3zm-14 81.9l58 33.5v-4.6l-54-31.2-4 2.3zm-19-12.1v-77.4l-4-2.3v82l4-2.3zm36-316.4l4-2.3-71-41v4.6l67 38.7zm-9 226.9l-58-33.5v4.6l54 31.2 4-2.3zm45-2.9v107.4l4 2.3v-112l-4 2.3zm-59 84.9V1206l-4-2.3v67l4-2.4zm-26 15v-92.4l-4-2.3v97l4-2.3zm-13 7.5v-107.4l-4-2.3v112l4-2.3zm72-92.4v77.4l4 2.3v-82l-4 2.3zm13-894.3v92.4l4 2.3v-97l-4 2.3zm-10-17.3l4-2.3-84-48.5v4.6l80 46.2zm-80-61.2l93 53.7 4-2.3-97-56v4.6zm77 86V389l4 2.3v-82l-4 2.3zm26 206.7v107.4l4 2.3V516l-4 2.3zm-39-199.2v62.4l4 2.3v-67l-4 2.3zm-6 202.1l-58-33.5v4.6l54 31.2 4-2.3zm-8 101.6l58 33.5v-4.6l-54-31.2-4 2.3zm17-328.5l4-2.3-71-41v4.6l67 38.7zm-49 102.2v-92.4l-4-2.3v97l4-2.3zm40-97L330 266v4.6l54 31.2 4-2.3zm45-2.9V404l4 2.3v-112l-4 2.3zm-85 321.6v-92.4l-4-2.3v97l4-2.3zm32-217.1l58 33.5V430l-54-31.2-4 2.3zM361 389v-77.4l-4-2.3v82l4-2.3zm-26 15V296.6l-4-2.3v112l4-2.3zm103 41l-67-38.7-4 2.3 71 41V445zm0 15l-80-46.2-4 2.3 84 48.5V460zm-64-78.5v-62.4l-4-2.3v67l4-2.3zm-26 458.4v-92.4l-4-2.3v97l4-2.3zm32 4.6l58 33.5v-4.6l-54-31.2-4 2.3zM433 740v107.4l4 2.3v-112l-4 2.3zm-45 2.9l-58-33.5v4.6l54 31.2 4-2.3zm22-234.4l4-2.3-84-48.5v4.6l80 46.2zm-13 7.5l4-2.3-71-41v4.6l67 38.7zm61 155.3l71-41-4-2.3-67 38.7v4.6zm-20 232.1l-80-46.2-4 2.3 84 48.5v-4.6zm-77-71V755l-4-2.3v82l4-2.3zm-26 15V740l-4-2.3v112l4-2.3zm0-221.7V518.3l-4-2.3v112l4-2.3zm103 41L371 628l-4 2.3 71 41v-4.6zm0 15l-80-46.2-4 2.3 84 48.5v-4.6zm256 635.1l-54-31.2-4 2.3 58 33.5v-4.6zM374 603.2v-62.4l-4-2.3v67l4-2.3zm-44-155.9l93 53.7 4-2.3-97-56v4.6zm90 78.5v92.4l4 2.3v-97l-4 2.3zm-13 7.5v77.4l4 2.3v-82l-4 2.3zm-13 7.5v62.4l4 2.3v-67l-4 2.3zm-33 69.9v-77.4l-4-2.3v82l4-2.3zm333-357.4l-93-53.7-4 2.3 97 56v-4.6zM586 1600.9l54 31.2 4-2.3-58-33.5v4.6zM692 50.1l2-1.2v-2.3L613.2 0h-8L692 50.1zm-114 239l-2-1.2-2 1.2v122.4l2 1.2 2-1.2V289.1zm8-285.2l93 53.7 4-2.3L587.2 0H586v3.9zm-8 1172l-2-1.2-2 1.2v122.4l2 1.2 2-1.2v-122.4zm0-443.4l-2-1.2-2 1.2v122.4l2 1.2 2-1.2V732.5zm0-221.7l-2-1.2-2 1.2v122.4l2 1.2 2-1.2V510.8zm0 443.4l-2-1.2-2 1.2v122.4l2 1.2 2-1.2V954.2zm-4 665.1v122.4l2 1.2 2-1.2v-122.4l-2-1.2-2 1.2zm17 114.9v-107.4l-4-2.3v112l4-2.3zm103-150.7l-93-53.7-4 2.3 97 56v-4.6zm0 221.7l-93-53.7-4 2.3 97 56v-4.6zm-90-78.5v-92.4l-4-2.3v97l4-2.3zm90-364.9l-93-53.7-4 2.3 97 56v-4.6zm0-886.8l-93-53.7-4 2.3 97 56V475zm0 221.7L601 643l-4 2.3 97 56v-4.6zm0 221.7l-93-53.7-4 2.3 97 56v-4.6zm0 221.7l-93-53.7-4 2.3 97 56v-4.6zm-116 257.5l-2-1.2-2 1.2V1520l2 1.2 2-1.2v-122.4zM526 1647l-4 2.3v62.4l4 2.3v-67zm-68 147.9l84-48.5-4-2.3-80 46.2v4.6zm0-15.1l71-41-4-2.3-67 38.7v4.6zm40-132.8v67l4-2.3v-62.4l-4-2.3zm41-7.5l-4 2.3v77.4l4 2.3v-82zm13-7.5l-4 2.3v92.4l4 2.3v-97zm13-7.5l-4 2.3v107.4l4 2.3v-112zm-80 15v82l4-2.3v-77.4l-4-2.3zm-27 170.4l97-56-4-2.3-93 53.7v4.6zm14-177.9v97l4-2.3v-92.4l-4-2.3zm94 155.9l-84 48.5 4 2.3 80-46.2v-4.6zm0 34.7v-4.6l-58 33.5 4 2.3 54-31.2zm0-49.7l-97 56 4 2.3 93-53.7v-4.6zm0 30l-71 41 4 2.3 67-38.7v-4.6zm-2-43.8l-106 61.2v2.3l2 1.2 106-61.2v-2.3l-2-1.2zm-105-134.6v112l4-2.3v-107.4l-4-2.3zM578 67.4l-2-1.2-2 1.2v122.4l2 1.2 2-1.2V67.4zM458 1764.8l58-33.5-4-2.3-54 31.2v4.6zm231-359.7v107.4l4 2.3v-112l-4 2.3zm-98-114.3v-107.4l-4-2.3v112l4-2.3zm103 262.7l-67-38.7-4 2.3 71 41v-4.6zm-64-125.8l-4-2.3v67l4-2.3v-62.4zm64 145.4v-4.6l-80-46.2-4 2.3 84 48.5zm-128 23.1l-58 33.5 4 2.3 54-31.2v-4.6zm110-183.6v92.4l4 2.3v-97l-4 2.3zm-13 7.5v77.4l4 2.3v-82l-4 2.3zm31 118.4l-54-31.2-4 2.3 58 33.5v-4.6zm-44-110.8v62.4l4 2.3v-67l-4 2.3zm-33-7.6l-4-2.3v82l4-2.3v-77.4zm59-229.2v92.4l4 2.3v-97l-4 2.3zm-13 7.5v77.4l4 2.3v-82l-4 2.3zm-13 7.6v62.4l4 2.3v-67l-4 2.3zm39-22.6v107.4l4 2.3v-112l-4 2.3zm-103-56l80 46.2 4-2.3-84-48.5v4.6zm0-15l93 53.7 4-2.3-97-56v4.6zm0 45.1l54 31.2 4-2.3-58-33.5v4.6zm0-15.1l67 38.7 4-2.3-71-41v4.6zm18 140.9v-92.4l-4-2.3v97l4-2.3zm-18 65.8l80 46.2 4-2.3-84-48.5v4.6zm77 292.8v77.4l4 2.3v-82l-4 2.3zm-13 7.5v62.4l4 2.3v-67l-4 2.3zm44 110.8l-54-31.2-4 2.3 58 33.5v-4.6zm-64-110.8l-4-2.3v67l4-2.3v-62.4zm59-22.6v107.4l4 2.3v-112l-4 2.3zm-103-56l80 46.2 4-2.3-84-48.5v4.6zm0-15l93 53.7 4-2.3-97-56v4.6zm108 219.4l-67-38.7-4 2.3 71 41v-4.6zm-18-140.9v92.4l4 2.3v-97l-4 2.3zm-90-300.2l93 53.7 4-2.3-97-56v4.6zm0 45.1l54 31.2 4-2.3-58-33.5v4.6zm18 125.8v-92.4l-4-2.3v97l4-2.3zm-18-140.9l67 38.7 4-2.3-71-41v4.6zm0 221.7l67 38.7 4-2.3-71-41v4.6zm108 209.1v-4.6l-80-46.2-4 2.3 84 48.5zm-77-153l-4-2.3v82l4-2.3v-77.4zm-31-101.1l106 61.2 2-1.2v-2.3l-106-61.2-2 1.2v2.3zm5-28.3v-107.4l-4-2.3v112l4-2.3zm-27 24.9l-106 61.2v2.3l2 1.2 106-61.2v-2.3l-2-1.2zm2-606.3l-58 33.5 4 2.3 54-31.2v-4.6zm0-15l-71 41 4 2.3 67-38.7v-4.6zm0-15l-84 48.5 4 2.3 80-46.2v-4.6zm-1 58.3l-4 2.3v107.4l4 2.3v-112zm1 621.8l-71 41 4 2.3 67-38.7v-4.6zM458 878l58-33.5-4-2.3-54 31.2v4.6zm94 88.9l-4 2.3v92.4l4 2.3v-97zm-93-229.2v112l4-2.3V740l-4-2.3zm105 134.5l-106 61.2v2.3l2 1.2 106-61.2v-2.3l-2-1.2zm-106 227.5l58-33.5-4-2.3-54 31.2v4.6zm40-117.8v67l4-2.3v-62.4l-4-2.3zm-26-15v97l4-2.3v-92.4l-4-2.3zm0-221.7v97l4-2.3v-92.4l-4-2.3zm-13 214.2v112l4-2.3V961.7l-4-2.3zm-1 170.3l84-48.5-4-2.3-80 46.2v4.6zm81-155.3l-4 2.3v77.4l4 2.3v-82zm-81 140.3l71-41-4-2.3-67 38.7v4.6zm0 30.1l97-56-4-2.3-93 53.7v4.6zm68-162.9l-4 2.3v62.4l4 2.3v-67zm-41-7.5v82l4-2.3v-77.4l-4-2.3zm81-295l-84 48.5 4 2.3 80-46.2v-4.6zm-2-28.9l-106 61.2v2.3l2 1.2L566 654v-2.3l-2-1.2zm2 58.9l-58 33.5 4 2.3 54-31.2v-4.6zm0-15l-71 41 4 2.3 67-38.7v-4.6zm0-30l-97 56 4 2.3 93-53.7v-4.6zm-108-8.1l58-33.5-4-2.3-54 31.2v4.6zm27 96.4v82l4-2.3V755l-4-2.3zm0-221.7v82l4-2.3v-77.4l-4-2.3zm-26-15v112l4-2.3V518.3l-4-2.3zm13 7.5v97l4-2.3v-92.4l-4-2.3zM458 908l84-48.5-4-2.3-80 46.2v4.6zm0-15l71-41-4-2.3-67 38.7v4.6zm68-132.8l-4 2.3v62.4l4 2.3v-67zm-28 0v67l4-2.3v-62.4l-4-2.3zm54-15l-4 2.3v92.4l4 2.3v-97zm13-7.5l-4 2.3v107.4l4 2.3v-112zM458 923l97-56-4-2.3-93 53.7v4.6zm81-170.3l-4 2.3v77.4l4 2.3v-82zm27 133.4l-97 56 4 2.3 93-53.7v-4.6zm-27 531.7l-4 2.3v77.4l4 2.3v-82zm-81 155.3l84-48.5-4-2.3-80 46.2v4.6zm0 15.1l97-56-4-2.3-93 53.7v4.6zm108-243.7l-84 48.5 4 2.3 80-46.2v-4.6zm-14 65.8l-4 2.3v92.4l4 2.3v-97zm14-35.8l-58 33.5 4 2.3 54-31.2v-4.6zm-108 183.6l71-41-4-2.3-67 38.7v4.6zm108-198.6l-71 41 4 2.3 67-38.7v-4.6zm-1 43.3l-4 2.3v107.4l4 2.3v-112zm-39 22.5l-4 2.3v62.4l4 2.3v-67zm-28-886.8v67l4-2.3v-62.4l-4-2.3zm68 1012.7l-97 56 4 2.3 93-53.7v-4.6zm-108-8.1l58-33.5-4-2.3-54 31.2v4.6zm108 23.1l-84 48.5 4 2.3 80-46.2v-4.6zm-81-148.4v82l4-2.3v-77.4l-4-2.3zm-26-15v112l4-2.3v-107.4l-4-2.3zm39 22.5v67l4-2.3v-62.4l-4-2.3zm-26-15v97l4-2.3v-92.4l-4-2.3zm94-257.5l-58 33.5 4 2.3 54-31.2v-4.6zm-108 213.7l97-56-4-2.3-93 53.7v4.6zm94-177.9l-4 2.3v92.4l4 2.3v-97zm-13 7.5l-4 2.3v77.4l4 2.3v-82zm26-15l-4 2.3v107.4l4 2.3v-112zm1-58.3l-84 48.5 4 2.3 80-46.2v-4.6zm-108 228.6l84-48.5-4-2.3-80 46.2v4.6zm106-257.5l-106 61.2v2.3l2 1.2 106-61.2v-2.3l-2-1.2zm2 13.9l-97 56 4 2.3 93-53.7v-4.6zm0 221.7l-97 56 4 2.3 93-53.7v-4.6zm0-191.7l-71 41 4 2.3 67-38.7v-4.6zm-107 43.3v112l4-2.3v-107.4l-4-2.3zm67 22.5l-4 2.3v62.4l4 2.3v-67zm38 112l-106 61.2v2.3l2 1.2 106-61.2v-2.3l-2-1.2zm-92-127v97l4-2.3v-92.4l-4-2.3zm-14 132.8l58-33.5-4-2.3-54 31.2v4.6zm0 15l71-41-4-2.3-67 38.7v4.6zm40-132.8v67l4-2.3V1206l-4-2.4zm-13-7.5v82l4-2.3v-77.4l-4-2.3z" fill="#80cbc4"/></svg>