<svg version="1.1" xmlns="http://www.w3.org/2000/svg" x="0" y="0" viewBox="0 0 1920 1920" xml:space="preserve"><style type="text/css">.st1{fill:#989898}</style><path fill="#445a76" d="M0 0h1920v1920H0z"/><path d="M1154 1624l-368-554M279 405l507 665m177 49l-177-49m417-25l-417 25m841 86l-841-86m412 333l-412-333m351-79l-351 79m233-608l-233 608m704-864l-704 864m259-419l-259 419m562-264l-562 264m-299 325l299-325m-496-56l496 56m-655 453l655-453m-92-84l92 84m638-164l-638 164m211 600l-211-600m624 310l-624-310m494-575l-494 575m-125 521l125-521M262 315l524 755m341-284l-341 284m-148-57l148 57m840 621l-840-621m1080-911L786 1070m-142 276l142-276m-95-411l95 411m747 14l-747-14m-477 506l477-506M163 740l623 330m-656 775l656-775M160 499l626 571m-587 189l587-189m854 280l-854-280M1519 44L786 1070m1043-515L786 1070m-427 667l427-667m-423 622l423-622M280 429l506 641M76 687l710 383m-391 502l391-502m792-885l-792 885m395 833l-395-833M222 478l564 592m-225 155l225-155M74 516l712 554m-204 533l204-533m931-945l-931 945m694-532l-694 532M165 96l621 974m459 394l-459-394m923 638l-923-638m4-507l-4 507m-16 830l16-830M515 821l271 249m959-940l-959 940m970 75l-970-75m318-929l-318 929M79 677l707 393m449-231l-449 231M358 540l428 530m427-431l-427 431m1009-951L786 1070m-689-68l689 68M114 574l672 496m620 809l-620-809m569 646l-569-646m590 528l-590-528M75 312l711 758m70 815l-70-815M764 65l22 1005m266 357l-266-357M61 194l725 876m391-357l-391 357m875-824l-875 824m969 62l-969-62m-662 444l662-444m427-96l-427 96m1094-62l-1094 62m503 355l-503-355M51 161l735 909m-90 688l90-688m120-510l-120 510m612 539l-612-539m919 6l-919-6M555 37l231 1033m370 643l-370-643" fill="none" stroke="#989898" stroke-width="2"/><circle class="st1" cx="786" cy="1070" r="8"/><circle class="st1" cx="1205" cy="1191" r="5"/><circle class="st1" cx="1756" cy="1145" r="10"/><circle class="st1" cx="790" cy="563" r="10"/><circle class="st1" cx="1424" cy="906" r="5"/><circle class="st1" cx="856" cy="1885" r="7"/><circle class="st1" cx="1795" cy="119" r="6"/><circle class="st1" cx="1626" cy="1691" r="9"/><circle class="st1" cx="694" cy="986" r="8"/><circle class="st1" cx="75" cy="312" r="10"/><circle class="st1" cx="1092" cy="486" r="9"/><circle class="st1" cx="963" cy="1119" r="7"/><circle class="st1" cx="487" cy="1395" r="10"/><circle class="st1" cx="130" cy="1845" r="8"/><circle class="st1" cx="309" cy="1576" r="9"/><circle class="st1" cx="163" cy="740" r="7"/><circle class="st1" cx="1709" cy="1708" r="8"/><circle class="st1" cx="1154" cy="1624" r="10"/><circle class="st1" cx="1755" cy="1132" r="9"/><circle class="st1" cx="1533" cy="1084" r="5"/><circle class="st1" cx="1717" cy="125" r="8"/><circle class="st1" cx="561" cy="1225" r="7"/><circle class="st1" cx="510" cy="395" r="6"/><circle class="st1" cx="1480" cy="538" r="10"/><circle class="st1" cx="997" cy="1670" r="9"/><circle class="st1" cx="1487" cy="65" r="9"/><circle class="st1" cx="1137" cy="991" r="9"/><circle class="st1" cx="663" cy="1786" r="8"/><circle class="st1" cx="644" cy="1346" r="7"/><circle class="st1" cx="199" cy="1259" r="8"/><circle class="st1" cx="1181" cy="1903" r="8"/><circle class="st1" cx="160" cy="499" r="5"/><circle class="st1" cx="1289" cy="1425" r="9"/><circle class="st1" cx="1627" cy="1156" r="5"/><circle class="st1" cx="131" cy="1523" r="10"/><circle class="st1" cx="279" cy="405" r="5"/><circle class="st1" cx="1121" cy="1351" r="8"/><circle class="st1" cx="1127" cy="786" r="9"/><circle class="st1" cx="124" cy="1514" r="7"/><circle class="st1" cx="515" cy="821" r="9"/><circle class="st1" cx="1085" cy="1100" r="9"/><circle class="st1" cx="1213" cy="639" r="7"/><circle class="st1" cx="222" cy="478" r="9"/><circle class="st1" cx="1348" cy="806" r="8"/><circle class="st1" cx="1245" cy="1464" r="7"/><circle class="st1" cx="824" cy="162" r="10"/><circle class="st1" cx="1829" cy="555" r="9"/><circle class="st1" cx="1640" cy="1350" r="9"/><circle class="st1" cx="764" cy="65" r="6"/><circle class="st1" cx="280" cy="429" r="7"/><circle class="st1" cx="638" cy="1013" r="7"/><circle class="st1" cx="1213" cy="974" r="5"/><circle class="st1" cx="661" cy="1591" r="10"/><circle class="st1" cx="165" cy="96" r="8"/><circle class="st1" cx="74" cy="516" r="5"/><circle class="st1" cx="262" cy="315" r="6"/><circle class="st1" cx="582" cy="1603" r="5"/><circle class="st1" cx="76" cy="687" r="7"/><circle class="st1" cx="395" cy="1572" r="8"/><circle class="st1" cx="290" cy="1014" r="6"/><circle class="st1" cx="1866" cy="159" r="5"/><circle class="st1" cx="1235" cy="839" r="9"/><circle class="st1" cx="1490" cy="206" r="8"/><circle class="st1" cx="1376" cy="1598" r="5"/><circle class="st1" cx="363" cy="1692" r="5"/><circle class="st1" cx="1156" cy="1713" r="6"/><circle class="st1" cx="1398" cy="1609" r="9"/><circle class="st1" cx="1355" cy="1716" r="9"/><circle class="st1" cx="1280" cy="495" r="10"/><circle class="st1" cx="1203" cy="1045" r="9"/><circle class="st1" cx="1177" cy="713" r="9"/><circle class="st1" cx="97" cy="1002" r="8"/><circle class="st1" cx="1880" cy="1008" r="8"/><circle class="st1" cx="1198" cy="1403" r="5"/><circle class="st1" cx="931" cy="787" r="10"/><circle class="st1" cx="359" cy="1737" r="5"/><circle class="st1" cx="1661" cy="246" r="10"/><circle class="st1" cx="79" cy="677" r="10"/><circle class="st1" cx="906" cy="560" r="7"/><circle class="st1" cx="358" cy="540" r="7"/><circle class="st1" cx="1406" cy="1879" r="9"/><circle class="st1" cx="1705" cy="1076" r="10"/><circle class="st1" cx="691" cy="659" r="6"/><circle class="st1" cx="61" cy="194" r="7"/><circle class="st1" cx="1519" cy="44" r="9"/><circle class="st1" cx="51" cy="161" r="6"/><circle class="st1" cx="1745" cy="130" r="6"/><circle class="st1" cx="867" cy="514" r="9"/><circle class="st1" cx="555" cy="37" r="10"/><circle class="st1" cx="288" cy="1526" r="5"/><circle class="st1" cx="1045" cy="651" r="7"/><circle class="st1" cx="1019" cy="462" r="5"/><circle class="st1" cx="1398" cy="254" r="8"/><circle class="st1" cx="1410" cy="1380" r="6"/><circle class="st1" cx="770" cy="1900" r="6"/><circle class="st1" cx="696" cy="1758" r="7"/><circle class="st1" cx="114" cy="574" r="5"/><circle class="st1" cx="1578" cy="185" r="5"/><circle class="st1" cx="1104" cy="141" r="9"/><circle class="st1" cx="1052" cy="1427" r="5"/></svg>