<svg version="1.1" xmlns="http://www.w3.org/2000/svg" x="0" y="0" viewBox="0 0 1920 1920" xml:space="preserve"><style type="text/css">.st1{fill:#748993}</style><path fill="#36434f" d="M0 0h1920v1920H0z"/><path class="st1" d="M169.9 1913.5c36.9-5.3 97.4-1.9 172.5 6.5h41.8c-94.6-12-171.1-17.7-215-11.5-20.4 2.9-38.3 6.8-54.4 11.5h19.8c10.9-2.5 22.6-4.7 35.3-6.5zm1750.1 2.2v-5.1c-16.9 3-34.2 6.2-51.8 9.4h28.1c8-1.4 15.9-2.9 23.7-4.3z"/><path class="st1" d="M177.9 1881.2c17.8-2.9 39.4-4.2 64.2-4 79 .7 208 20.3 342.8 42.7h30.3c-145.5-24.4-288-46.9-373.1-47.7-25-.3-46.9 1.1-65 4-54.1 8.7-91.8 24.4-122.4 43.7h9.7c28.9-17 64.4-30.8 113.5-38.7zm1000.3 37.6c-26-.3-53.9.3-83.2 1.2h107.6c-8-.7-16.2-1.1-24.4-1.2zm523.7-18.5c71.4-12.9 147.5-25.4 218.1-36.1v-5.1c-70.8 10.7-147.3 23.4-219 36.3-28.5 5.2-58.4 14.4-88.2 24.7h15.7c24.9-8.3 49.7-15.5 73.4-19.8z"/><path class="st1" d="M185.9 1849c19.7-3.5 41.6-5.4 65.2-5.7 91.3-1.1 266.3 29.8 420.6 57.1 33.8 6 65.7 11.6 96.7 16.9 5.4.9 10.9 1.8 16.4 2.6h43.8c-20.4-1.8-40.3-4.2-59.4-7.6-31-5.3-62.9-11-96.7-16.9-154.5-27.3-329.7-58.3-421.5-57.2-23.9.2-46.1 2.2-66.1 5.7-78.7 14.1-122.8 42.2-165.7 76h8.1c41-31.5 84.2-57.7 158.6-70.9z"/><path class="st1" d="M1361.6 1901.1c-48-19.7-102.5-42-160.7-39.4-37.4 1.7-80.4 6.7-126 12-94.7 11-202.1 23.5-286.9 8.3-29.3-5.2-60.8-11.1-94.1-17.3-160.4-29.8-342.3-63.5-433.7-60.4-22.9.7-45.5 3.2-67.1 7.5-86.8 17-134.1 51.8-188.9 92.2-1.3 1-2.7 2-4.1 3v6.2c2.4-1.7 4.7-3.5 7-5.2 54.3-40 101.2-74.5 186.9-91.3 21.4-4.2 43.7-6.7 66.3-7.4 90.9-3.1 280.4 32.1 432.7 60.3 33.4 6.2 64.9 12 94.2 17.3 85.5 15.3 193.3 2.8 288.4-8.3 45.5-5.3 88.4-10.3 125.6-11.9 57.2-2.6 111.1 19.5 158.6 39 12.2 5 24.2 9.9 35.9 14.2h15c-15.9-5.1-32.3-11.9-49.1-18.8zm232.4-11.5c42.3-19.7 86-40.1 124.9-47.3 58.2-10.7 129.9-21.5 201.1-30.4v-5c-71.5 8.9-143.6 19.7-202 30.5-39.5 7.3-83.5 27.8-126.1 47.7-28.6 13.3-56 26.1-81.7 35h14.6c22.1-8.6 45.2-19.3 69.2-30.5z"/><path class="st1" d="M1735 1779.4c-37.5 7-81.1 32.2-123.4 56.6-34 19.6-69.2 39.9-100 49.8-10.2 3.3-19 4.9-27.1 5h-.8c-28.6 0-62-17.9-97.4-36.8-48.5-26-103.6-55.4-163-49.3-36.6 3.8-80.5 12.4-126.9 21.5-97.3 19.1-207.6 40.7-289.9 25.4-28.1-5.2-59.9-11.4-93.6-17.9-157.4-30.5-353.3-68.4-444-63.4-22.3 1.2-44.6 4.2-68.2 9.2-80.6 17.1-130.5 50.5-188.4 89.1-4.1 2.8-8.3 5.6-12.6 8.4v6c5.2-3.4 10.3-6.9 15.3-10.2 57.4-38.3 107-71.5 186.6-88.4 23.3-4.9 45.3-7.9 67.4-9.1 90-5 285.6 32.9 442.8 63.3 33.7 6.5 65.5 12.7 93.6 17.9 83.2 15.4 194-6.3 291.7-25.4 46.3-9.1 90.1-17.7 126.5-21.4 57.9-6 112.2 23.1 160.1 48.7 35.9 19.2 69.9 37.4 99.7 37.4h.9c8.5-.1 17.9-1.8 28.5-5.3 31.2-10.1 66.7-30.5 100.9-50.2 41.9-24.1 85.2-49.1 121.8-56 50.8-9.5 116.3-18.3 184.1-25.1v-4.9c-68.8 7-135.3 15.8-184.6 25.1z"/><path class="st1" d="M1752 1721.4c-35.1 6.7-78.1 36.3-119.6 64.9-34.2 23.5-69.5 47.8-100.1 59.3-10.3 3.9-19.2 5.7-27.3 5.7h-.1c-27.9 0-60.5-21.6-95-44.5-48.7-32.3-103.8-68.9-163.9-59.1-35.3 5.7-79.3 17.7-125.9 30.4-100.6 27.4-214.6 58.5-294.8 43.1-25.8-5-56.4-11.1-88.9-17.7-155.2-31.3-367.6-74.1-458.4-67.1-21.9 1.6-43.9 5.1-69.2 10.9-74.9 17.2-127.6 49.3-188.8 86.6-6.6 4-13.3 8.1-20.1 12.2v5.8c7.8-4.7 15.3-9.3 22.7-13.8 63.3-38.6 113.2-69 187.3-86 25.1-5.7 46.8-9.2 68.5-10.8 90-7 302.1 35.8 457 67.1 32.5 6.5 63.1 12.7 88.9 17.7 15.1 2.9 31.3 4.2 48.4 4.2 75 0 166.3-24.9 248.7-47.3 46.5-12.7 90.3-24.6 125.4-30.3 58.1-9.5 112.4 26.6 160.3 58.3 35.2 23.3 68.4 45.4 97.8 45.4h.1c8.6 0 18.1-2 29-6.1 31.2-11.7 66.8-36.2 101.2-59.8 41.1-28.3 83.6-57.6 117.7-64.1 41.4-7.9 101.5-15 167.1-20v-4.9c-65.9 5-126.7 12-168 19.9z"/><path class="st1" d="M1769 1663.5c-32.6 6.4-72.7 38.6-115.2 72.6-34.5 27.7-70.2 56.3-100.9 69.3-10.5 4.4-19.5 6.6-27.5 6.5-27.2-.3-59-25.6-92.7-52.3-48.6-38.6-103.7-82.4-164-68.8-33.7 7.6-77.4 22.7-123.6 38.7-104.3 36.1-222.5 77.1-301.1 61.4-22.8-4.6-49.9-10.2-81.2-16.8-153-32.1-384.3-80.6-475.7-71.6-21.5 2.1-43.8 6.1-70.3 12.6-69.8 17.2-123.3 47.2-191.1 85-8.4 4.7-17 9.5-25.7 14.3v5.7c9.7-5.3 19-10.6 28.2-15.7 67.5-37.7 120.7-67.5 189.9-84.5 26.2-6.5 48.3-10.5 69.5-12.5 90.6-9 321.4 39.4 474.2 71.5 31.4 6.6 58.5 12.3 81.3 16.8 12.2 2.4 25.2 3.5 39 3.5 76.7 0 175.8-34.3 264.7-65.1 46.1-16 89.6-31 123-38.5 58-13 112.1 30 159.8 67.9 34.4 27.3 66.8 53.1 95.8 53.4 8.8.1 18.4-2.1 29.5-6.9 31.4-13.3 67.3-42.2 102.1-70 40.1-32.2 81.6-65.4 113-71.6 33.9-6.6 88.4-12 150-15.2v-5c-62 3.2-116.9 8.6-151 15.3z"/><path class="st1" d="M1786 1605.5c-30 6.1-69 41.8-110.3 79.7-35 32.1-71.2 65.3-102.2 80-10.6 5-19.7 7.4-27.7 7.2-26.7-.6-57.8-29.5-90.8-60.2-48.4-45-103.3-96-163.7-78.5-32 9.2-74.9 27.1-120.3 46.1-103.1 43-231.3 96.6-308.3 80.6-19.4-4-43.4-9.3-71.2-15.3-150.7-32.8-402.9-87.8-495.4-76.6-21.5 2.6-44.1 7.1-71.3 14.4-65.8 17.5-124.1 47.5-197.8 85.5-8.8 4.5-17.7 9.1-26.9 13.8v5.6c10-5.1 19.7-10.1 29.2-15 73.5-37.8 131.6-67.7 196.8-85.1 27-7.2 49.4-11.7 70.6-14.2 91.6-11.1 343.3 43.7 493.7 76.5 27.8 6.1 51.9 11.3 71.3 15.3 78.5 16.4 207.6-37.6 311.3-80.9 45.3-18.9 88-36.8 119.7-45.9 57.8-16.7 111.5 33.3 159 77.4 33.7 31.3 65.5 60.9 94.1 61.5 8.9.2 18.7-2.3 30-7.7 31.7-15 68.2-48.5 103.4-80.9 40.7-37.4 79.2-72.7 107.9-78.5 24.5-5 72.9-9.1 133-10.9v-5c-57.8 1.8-107.1 5.6-134.1 11.1z"/><path class="st1" d="M1803 1547.5c-27.4 5.8-65.1 44.8-105 86.1-35.6 36.9-72.4 75-103.9 91.5-10.7 5.6-19.8 8.2-28 7.9-26.2-.9-56.8-33.5-89.1-68.1-48.1-51.4-102.7-109.7-163.2-88.2-30.1 10.7-69.9 30.1-116 52.5-107.3 52.3-240.9 117.3-316.5 100.7-16.6-3.6-38.1-8.4-63-14.1-146.8-33.2-420-94.9-513.3-81.4-22 3.2-45 8.3-72.4 16.1-64.4 18.4-128.5 49-217.3 91.4-5.1 2.4-10.2 4.9-15.5 7.4v5.5c6-2.8 11.8-5.6 17.6-8.4 88.5-42.2 152.4-72.7 216.5-91.1 27.1-7.8 49.9-12.8 71.7-15.9 92.4-13.3 365 48.3 511.5 81.3 24.9 5.6 46.4 10.5 63 14.1 8.5 1.9 17.7 2.7 27.4 2.7 79.1 0 196.2-57 292.3-103.9 46-22.4 85.6-41.7 115.5-52.3 57.4-20.4 110.8 36.6 157.8 86.9 33.1 35.3 64.3 68.7 92.6 69.7 9 .3 19-2.5 30.5-8.5 32.1-16.8 69.2-55.3 105.1-92.4 39.3-40.7 76.5-79.2 102.4-84.7 19-4 61.6-6.6 116-7v-5c-54.5.6-97.5 3.2-116.7 7.2z"/><path class="st1" d="M1820 1489.6c-24.8 5.5-60.9 47.3-99.2 91.6-46.2 53.4-98.6 114-134.1 112.4-25.8-1.2-55.9-37.5-87.8-76.1-47.8-57.8-102-123.3-162.3-97.7-28.2 11.9-66.5 33.1-110.8 57.7-112 62-251.3 139.1-325.7 122.2-11.8-2.7-27.1-6.3-44.8-10.5-144.4-34-444.8-104.6-541.2-88.6-79.7 13.3-168 50.3-314.1 115.6v5.5c146.9-65.7 235.4-102.9 314.9-116.1 95.4-15.9 395.1 54.6 539.2 88.5 17.7 4.2 33 7.8 44.8 10.5 7.4 1.7 15.4 2.5 23.9 2.5 79.3 0 203.5-68.8 305.3-125.1 44.2-24.5 82.4-45.6 110.3-57.5 56.9-24.1 109.8 39.9 156.5 96.3 34 41.1 63.3 76.6 91.4 77.9 37.9 1.8 88.9-57.2 138.1-114.1 37.7-43.6 73.4-84.8 96.5-90 12.2-2.7 48.8-4.1 99-3.3v-5.1c-48.8-1-86 .3-99.9 3.4z"/><path class="st1" d="M1822.1 1467c-26 4.7-62.4 41.9-100.8 81.3-45.6 46.8-97.3 99.7-135.1 99.7h-1.9c-36.9-1.9-72.9-39.9-111-80-47.7-50.2-96.9-102.2-151.5-83-30.4 10.7-72.5 31.3-121.4 55.3-20.9 10.3-42.6 20.9-65.7 31.9-10.4 5-20.9 10.1-31 15-88.4 43-171.8 83.6-227.2 75.7-33.8-4.8-94.1-17.3-163.9-31.8-75.4-15.7-160.9-33.4-244.6-48.3-80.4-14.3-148.6-20.6-187.3-17.4-89.6 7.3-164.3 35.9-280.7 86.8v5.5c117-51.2 191.8-79.9 281.1-87.2 38.2-3.1 106 3.2 186 17.4 83.6 14.8 169.1 32.6 244.5 48.2 69.9 14.5 130.2 27 164.2 31.9 56.9 8.1 137.2-30.9 230.1-76.1 10.1-4.9 20.6-10 31-15 23.1-11 44.8-21.7 65.7-31.9 48.7-23.9 90.8-44.5 120.8-55.1 51.5-18.1 99.7 32.7 146.2 81.8 38.8 40.9 75.5 79.6 114.4 81.6 40.3 2 91.4-50.4 140.9-101.1 37.9-38.8 73.7-75.5 98.1-79.9 16.8-3 51.8-4.9 97-5.3v-5c-45.6 0-80.9 2-97.9 5z"/><path class="st1" d="M1824.2 1444.5c-27.1 4.1-63.4 36.5-101.8 70.8-46.8 41.8-99.8 89.2-140.6 87.1-49-2.7-92.3-42.7-134.2-81.4-47-43.5-91.4-84.5-140.7-70.9-37 10.2-89.4 33.1-155.8 62.1-11.9 5.2-24.3 10.6-37.3 16.2-29.6 12.8-57.1 25.9-83.6 38.5-72.8 34.6-130.4 62-177.4 59.1-50.5-3.1-153.5-23.4-272.7-46.9-46.2-9.1-93.9-18.5-143-27.8-94.6-18-153.3-24.5-190.1-21.3-92.3 8-158.7 27.4-247 62.2v5.4c88.8-35 155.2-54.5 247.5-62.6 36.4-3.2 94.6 3.4 188.8 21.2 49 9.3 96.8 18.7 142.9 27.8 119.4 23.6 222.5 43.9 273.3 47 2.4.1 4.7.2 7.1.2 46.9 0 102.8-26.6 172.7-59.8 26.5-12.6 53.9-25.7 83.5-38.5 12.9-5.6 25.3-11 37.3-16.2 66.2-28.9 118.5-51.7 155.1-61.8 46.6-12.9 90 27.2 136 69.7 42.5 39.3 86.5 79.9 137.3 82.8 1 .1 2 .1 3 .1 42.2 0 92.5-44.9 141.2-88.4 37.9-33.8 73.6-65.8 99.2-69.6 21.1-3.2 54.8-5.5 95.1-6.8v-5c-40.6 1.3-74.5 3.6-95.8 6.8z"/><path class="st1" d="M1826.3 1422c-28 3.6-64.1 31.2-102.3 60.3-47.4 36.1-101 77.1-144.6 74.6-62.2-3.5-112.9-44.7-157.7-81-43.9-35.7-85.4-69.4-129.7-60.5-44.2 8.9-107.5 33.2-199.1 69.4-44 17.4-82.7 35.8-116.8 52.1-58.7 28-105 50.1-147.1 52.5-61.9 3.6-192.7-22.9-358.3-56.4-21-4.2-42.5-8.6-64.4-13-94.6-19-154-26.8-192.8-25.2-87.5 3.6-148.2 15.7-213.5 37.6v5.3c65.6-22.1 126.1-34.3 213.7-37.9 38.4-1.6 97.5 6.2 191.6 25.1 21.9 4.4 43.4 8.8 64.4 13 155.8 31.5 280.8 56.8 347.3 56.8 4.3 0 8.4-.1 12.3-.3 43.1-2.5 89.8-24.8 149-53 34.1-16.3 72.7-34.7 116.5-52 91.3-36 154.4-60.3 198.2-69.1 41.9-8.4 80.7 23 125.6 59.5 45.3 36.8 96.7 78.6 160.5 82.2 1.4.1 2.8.1 4.2.1 44.4 0 94.9-38.5 143.7-75.7 37.7-28.7 73.3-55.9 99.9-59.3 23.5-3 55.8-5.7 93.1-7.7v-5c-37.5 1.9-70.1 4.6-93.7 7.6z"/><path class="st1" d="M1828.4 1399.5c-28.8 3.2-64.6 25.9-102.5 49.8-48 30.3-102.4 64.7-148.9 62.1-76.4-4.6-132.1-44.3-181.3-79.3-42.4-30.2-79-56.3-118.4-51.5-42.2 5.2-95.9 21-205.1 60.5-56.5 20.4-101.3 43.3-140.9 63.5-48.8 24.9-87.3 44.6-125.8 48.1-62.5 5.8-187.1-12.8-430-64.1-69.5-14.7-140.7-25.3-195.4-29.1-75.3-5.2-130-1.1-180.2 10.5v5.2c50-11.8 104.6-15.9 179.8-10.7 54.4 3.8 125.4 14.3 194.7 29 215.1 45.4 337.7 65.2 406.8 65.2 9.1 0 17.3-.3 24.7-1 39.5-3.6 78.4-23.5 127.6-48.7 39.4-20.1 84.1-43 140.3-63.3 91-32.9 156.8-54.4 204-60.2 37.5-4.6 73.4 21 114.9 50.6 49.7 35.4 106.1 75.6 183.9 80.3 1.8.1 3.6.2 5.4.2 46.8 0 99.6-33.4 146.4-63 37.4-23.7 72.8-46 100.4-49.1 24.8-2.8 56-5.6 91.1-8.2v-5c-35.2 2.6-66.6 5.4-91.5 8.2z"/><path class="st1" d="M1830.4 1377c-29.4 2.9-64.7 20.6-102 39.4-48.8 24.6-104.1 52.4-153.8 49.5-89.4-5.5-151.5-45.3-201.4-77.3-42-26.9-75.2-48.2-110.9-42.7l-1.2.2c-45.8 7.1-102.9 15.9-209.7 51.3-67.9 22.5-116.4 49-159.2 72.3-41.6 22.6-74.4 40.5-110.2 46.4-67.8 11.1-202.7-7-437.2-58.8-92.5-20.4-163.8-29.4-198.1-32.9-57.2-5.9-104.4-7-146.6-3.1v4.9c40.2-3.7 86.8-3 146.1 3.1 34.2 3.5 105.3 12.5 197.5 32.8 235.2 51.9 370.6 70 439.1 58.8 36.7-6 69.8-24.1 111.8-46.9 42.6-23.2 91-49.6 158.4-71.9 106.4-35.3 163.2-44.1 208.9-51.1l1.2-.2c33.8-5.2 66.3 15.6 107.5 41.9 50.4 32.3 113.2 72.5 203.8 78.1 51.1 3 107-25.1 156.4-50 36.9-18.6 71.8-36.2 100.3-38.9 26.9-2.6 57-5.4 89.1-8.3v-5c-32.5 2.9-62.8 5.8-89.8 8.4z"/><path class="st1" d="M1832.5 1354.5c-29.6 2.5-64 15.4-100.4 29.1-49.9 18.8-106.5 40-159.9 36.8-105.8-6.7-172.1-43.6-225.3-73.3-37.9-21.2-67.9-37.9-99.4-35.9-41.3 2.6-97.9 6.2-216.9 42.6-78.5 24-131.3 55-173.7 79.8-34.8 20.4-64.9 38.1-98.6 45.9-36.1 8.4-88.3 8.3-159.7-.2-72.8-8.6-166-26.1-284.7-53.3-86.9-19.9-157.2-31-200.8-36.8-42.6-5.6-79.7-8.8-113-9.5v4.9c32.2.7 68.9 3.7 112.4 9.5 43.6 5.8 113.7 16.8 200.4 36.7 118.9 27.3 212.2 44.8 285.2 53.4 72 8.5 124.8 8.6 161.4.1 34.4-8 64.8-25.8 100-46.4 42.2-24.7 94.7-55.5 172.6-79.4 118.4-36.2 174.7-39.8 215.8-42.4 30.1-1.9 59.5 14.5 96.7 35.3 53.7 29.9 120.5 67.2 227.4 73.9 3.8.2 7.6.3 11.4.3 51 0 103.7-19.8 150.6-37.4 36.1-13.6 70.1-26.4 99.1-28.8 27.7-2.4 57-5.1 87.1-8.1v-5c-30.4 3.1-59.8 5.8-87.7 8.2z"/><path class="st1" d="M1834.6 1332c-29 2.1-61.6 10.3-96 18.9-51.8 12.9-110.5 27.6-168.7 24-130.4-8.3-204.2-43.7-258.1-69.5-30.1-14.4-53.8-25.8-78.7-28.9-45.2-5.8-96.2-2.1-223.2 33.6-88.2 25.1-141.9 59.1-185.1 86.5-31.1 19.7-57.9 36.7-90 46.2-76.5 22.8-215.8 7.9-451.6-48.2-70.6-16.8-139.1-30.5-203.6-40.6-28.8-4.5-55.1-8-79.5-10.4v5c23.7 2.4 49.8 5.8 78.7 10.4 64.3 10.1 132.7 23.8 203.2 40.6 236.8 56.3 376.9 71.2 454.2 48.1 32.7-9.7 59.8-26.9 91.2-46.8 45.1-28.6 96.2-61 183.7-85.9 126.2-35.5 176.7-39.1 221.2-33.5 24.1 3.1 47.5 14.3 77.2 28.5 54.3 26 128.6 61.5 260 69.9 59 3.7 118.1-11.1 170.3-24.1 34.2-8.6 66.6-16.6 95.2-18.7 28.2-2.1 56.7-4.7 85.1-7.8v-5c-28.6 3-57.2 5.6-85.5 7.7z"/><path class="st1" d="M1836.6 1309.5c-25.3 1.6-52.4 5.1-81 8.7-56.7 7.2-120.9 15.4-188.2 11.1-156.5-10.1-232.8-42.3-288.4-65.8-22.3-9.4-41.5-17.5-60.7-21.8-47.5-10.5-98.1-9.7-229.3 24.6-97.5 25.6-149 61.1-194.5 92.5-28.2 19.4-52.5 36.2-83.2 47.3-81.5 29.4-218.7 16.6-458.9-42.9-76.3-18.6-145.7-33.6-206.3-44.5-16-2.9-31.3-5.5-45.9-7.7v5c14.2 2.2 29.2 4.7 45 7.6 60.5 10.9 129.8 25.9 206 44.4 241.2 59.8 379.3 72.5 461.8 42.8 31.4-11.3 55.9-28.3 84.4-47.9 45.1-31.1 96.3-66.3 192.9-91.7 130.2-34 180.2-34.9 227-24.6 18.8 4.1 37.8 12.2 59.9 21.5 56 23.6 132.7 56 290.1 66.2 67.8 4.3 132.3-3.9 189.2-11.1 28.6-3.6 55.6-7.1 80.7-8.7 28.6-1.8 56.3-4.3 83-7.2v-5c-27.1 2.9-54.9 5.4-83.6 7.2z"/><path class="st1" d="M1565 1283.8c-194.6-12.7-270.2-42.1-325.4-63.5-65.1-25.3-101-39.2-271.6 2.4-106.2 25.9-157.2 64.1-202.3 97.9-86.4 64.7-148.8 111.5-544.4 11.3-87.1-22.1-159.8-38.8-221.4-50.8v5.2c60.5 11.8 132.7 28.3 220.2 50.5 165.6 42 273.2 58.2 348.7 58.2 106 0 148.8-32.1 199.9-70.4 44.7-33.5 95.3-71.4 200.4-97 169.1-41.2 204.4-27.5 268.6-2.6 55.5 21.5 131.4 51 326.8 63.8 136.5 8.9 252.4 7.9 355.3-3.3v-5.3c-95.8 10.4-211.1 13-354.8 3.6z"/><path class="st1" d="M1824.8 1263.2c-70.4 5.2-150.3 3.1-251.4-6.8-104.6-10.2-177.2-25.4-234.4-38.8-39.7-9.4-67-18.5-91.1-26.5-68.5-22.8-99.7-33.3-277.3 3.3-112.3 23.2-165.5 58.9-212.5 90.5-55.1 37-98.7 66.3-216.1 62.8l-3.3-.1c-75.7-2.2-169.8-5-306.3-36.2-54.9-12.5-105.3-24.5-149.8-35.1l-15-3.6c-23.9-5.7-46.3-10.7-67.5-15.1v5.1c20.6 4.3 42.7 9.2 66.3 14.8l15 3.6c44.5 10.6 95 22.6 149.9 35.1 137 31.2 235.4 34.2 307.3 36.3l3.3.1c6.2.2 12.2.3 18 .3 105.8 0 150.1-29.7 201-63.9 46.6-31.3 99.4-66.7 210.7-89.7 176.3-36.3 207.1-26 274.7-3.4 23 7.7 51.5 17.2 91.5 26.6 57.3 13.5 130.1 28.7 235 39 101.4 9.9 181.6 12 252.3 6.8 33.3-2.5 64.9-5.7 94.9-9.6v-5c-30.1 3.8-61.8 7-95.2 9.5z"/><path class="st1" d="M1834.7 1238.3c-70.7 7.5-146.3 4.8-253-9.2-84.6-11.1-150.3-25.8-203.1-37.6-11.3-2.5-22-4.9-32.4-7.2-37.8-8.2-65.3-15.9-87.4-22.2-74-20.8-98.9-27.8-285.7 3.8-124.1 21.2-180.2 51.8-229.7 78.8-50.7 27.7-94.6 51.6-197.4 61.3-80.2 7.5-172.4 10.9-302.8-15.3-52-10.4-103.8-22.4-163-37.8-28.5-7.4-55.2-13.8-80.3-19.2v5.1c24.3 5.2 50.5 11.5 79 18.9 59.4 15.4 111.3 27.4 163.3 37.8 77.9 15.6 142.3 20.8 198.6 20.8 38.3 0 72.9-2.4 105.6-5.4 103.8-9.7 148-33.9 199.3-61.9 49.2-26.8 104.9-57.3 228.2-78.3 185.7-31.5 210.3-24.5 283.5-4 22.2 6.2 49.8 14 87.7 22.2 10.4 2.2 21 4.6 32.3 7.2 52.9 11.8 118.8 26.5 203.5 37.6 107.1 14 183.1 16.8 254.2 9.2 29.4-3.1 57.7-6.8 84.8-10.8v-5.1c-27.2 4.5-55.6 8.1-85.2 11.3z"/><path class="st1" d="M1844.6 1213.4c-88.8 12.3-174.8 1.7-254.5-11.6-61.9-10.3-114-22.6-160.1-33.4-27-6.4-52.4-12.4-76.5-17.2-33.1-6.6-58.4-12.5-78.8-17.3-83.9-19.6-99-23.2-299 3.9-138.6 18.9-195.2 45.4-249.9 70.9-45.5 21.2-88.4 41.3-175.5 56.1-73.7 12.5-165.5 28.1-296 5.7-51.5-8.8-104.2-20.8-161.2-36.9-34-9.6-64.9-17.4-93.1-23.7v5.1c27.8 6.2 58.2 13.9 91.7 23.4 57.1 16.1 110 28.2 161.7 37 48.4 8.3 91.4 11.4 130.2 11.4 66.6 0 120.7-9.2 167.5-17.1 87.8-14.9 131-35.1 176.8-56.5 54.4-25.4 110.6-51.7 248.5-70.5 199.1-26.9 214.1-23.4 297.2-3.9 20.4 4.8 45.8 10.7 78.9 17.3 24 4.8 49.4 10.8 76.3 17.1 46.1 10.9 98.3 23.2 160.4 33.5 80.1 13.3 166.6 24 256 11.6 25.3-3.5 50.2-7.3 74.7-11.4v-5.1c-24.7 4.2-49.8 8.1-75.3 11.6z"/><path class="st1" d="M1854.5 1188.5c-90 15.2-176.3 2.2-256.1-14.1-47.3-9.7-88.5-20.4-128.3-30.7-38.4-10-74.7-19.4-109.4-25.8-23-4.2-41.9-7.9-58.6-11.1-102.9-20-102.9-20-304.3.6l-19.7 2c-160.8 16.7-215.3 39.1-278.4 65.1-38.2 15.7-77.7 32-145.5 48.8-4.1 1-8.2 2-12.3 3.1-75 18.7-159.9 40-277 23.6-50.9-7-103-18.8-159.3-36-39.1-12-74.1-21.2-105.8-28.4v5.1c31.4 7.1 65.8 16.2 104.4 28 56.6 17.3 108.9 29.1 160.1 36.2 29.7 4.1 57.3 5.9 83.2 5.9 77.1 0 139.2-15.5 195.7-29.6 4.1-1 8.2-2.1 12.3-3.1 68.1-16.9 107.8-33.2 146.2-49 62.7-25.8 116.9-48.1 277-64.7l19.7-2c200.6-20.5 200.6-20.5 302.8-.7 16.7 3.2 35.6 6.9 58.6 11.1 34.5 6.3 70.7 15.7 109 25.7 38 9.9 81.1 21.1 128.6 30.8 80.3 16.4 167.1 29.4 257.9 14.1 21.7-3.7 43.3-7.5 64.7-11.6v-5.1c-21.7 4.1-43.5 8.1-65.5 11.8z"/><path class="st1" d="M1864.4 1163.6c-86.8 17.3-165.7 5.9-257.6-16.5-37.1-9.1-71.2-18.9-104.1-28.5-46.8-13.6-91-26.5-134.6-33.8l-6.3-1.1c-132.7-22.5-132.7-22.5-252.2-12.6-32.8 2.7-73.6 6.1-128.8 10-195 14.1-242 32.6-319.9 63.2-27.7 10.9-59 23.2-102.3 37.5-7.4 2.4-15 5-22.3 7.5-75.1 25.3-152.7 51.5-260.2 40.2-50-5.2-101.5-16.7-157.4-35.1-44-14.5-83.1-25.3-118.6-33.2v5.1c35.1 7.9 73.7 18.5 117.1 32.8 56.3 18.6 108.1 30.1 158.5 35.4 17.9 1.9 35 2.7 51.5 2.7 82.9 0 147.8-21.9 210.9-43.1 7.3-2.5 14.9-5 22.3-7.5 43.4-14.4 74.9-26.7 102.6-37.6 77.4-30.5 124.2-48.9 318.4-62.9 55.2-3.9 96-7.3 128.8-10 118.8-9.9 118.8-9.9 250.9 12.5l6.3 1.1c43.3 7.3 87.4 20.1 134.1 33.7 33 9.6 67.1 19.5 104.3 28.6 92.5 22.5 172.1 34 259.8 16.5 18.3-3.7 36.6-7.4 54.6-11.2v-5.1c-18.6 3.8-37.1 7.6-55.8 11.4z"/><path class="st1" d="M1874.3 1138.7c-88.9 20.4-167.9 7.2-259.2-18.9-29.6-8.5-57.8-17.7-85.1-26.6-53.1-17.3-103.2-33.6-154.8-41.7-118.1-18.4-135.2-16.9-207.1-10.6-38.8 3.4-91.9 8.1-184.8 11.9-239 10-265 21.2-374.4 68.1-13.6 5.8-29 12.4-46.1 19.6-9.5 4-19.1 8.1-28.5 12.1-72.3 31.1-147.2 63.3-247.3 56.5-49.2-3.2-100-14.4-155.5-34.2-48.5-17.4-91.7-29.5-131.5-38.2v5.1c39.3 8.7 82 20.7 129.8 37.7 55.9 20 107.2 31.2 156.9 34.5 9.3.6 18.4.9 27.3.9 87.9 0 156.1-29.3 222.3-57.8 9.3-4 19-8.2 28.4-12.1 17.1-7.2 32.6-13.8 46.2-19.6 111.4-47.8 134.6-57.7 372.7-67.7 93-3.8 146.2-8.5 185.1-11.9 71.4-6.3 88.4-7.8 205.9 10.6 51.2 8 101.1 24.3 154 41.5 27.3 8.9 55.6 18.1 85.3 26.6 92 26.3 171.7 39.6 261.6 19 14.5-3.3 29.3-6.8 44.6-10.3v-5.1c-15.7 3.6-31 7.2-45.8 10.6z"/><path class="st1" d="M1884.2 1113.7c-91.2 23.7-170.2 8.6-260.7-21.3-23.8-7.9-47.1-16.4-69.7-24.6-57.7-21.1-112.3-41-171.3-49.5-105.7-15.2-131.8-12.2-183.8-6.2-40.1 4.6-94.9 11-212.9 12.4l-20 .3c-127.9 1.6-192.1 2.4-242.7 11.7-50.8 9.3-86.5 26.9-156.2 62.6-10.5 5.4-21.1 11-31.4 16.4-70.4 37.2-143.2 75.6-237.7 73.1-48.4-1.2-98.6-12.2-153.6-33.4C92 1135 44.5 1121.7 0 1112v5.1c44 9.6 90.9 22.9 142.4 42.7 55.5 21.4 106.3 32.4 155.3 33.7 3.1.1 6.1.1 9.1.1 91.4 0 162.3-37.5 231-73.8 10.3-5.4 20.9-11 31.4-16.4 137.5-70.5 142.4-70.6 396.7-73.8l20-.3c118.2-1.4 173.2-7.8 213.4-12.4 51.6-6 77.5-9 182.5 6.2 58.5 8.4 112.8 28.3 170.3 49.3 22.6 8.3 46 16.8 69.8 24.7 36.6 12.1 80.3 25.2 126.9 30.6 47 5.5 91.7 2.5 136.6-9.2 11.5-3 23-6 34.5-8.9v-5.2c-11.9 3.2-23.8 6.3-35.7 9.3z"/><path class="st1" d="M1894.1 1088.8c-104.2 30.2-190 3.6-262.2-23.8-19.2-7.3-38.5-15.2-57.1-22.8-58.5-23.9-118.9-48.6-184.9-57.3-99.3-13.3-128.7-8.7-173.1-1.7-39.9 6.3-94.5 14.9-228.3 12.8-42-.6-77.5-1.5-108.9-2.3-174.6-4.3-197.1-4.9-308.4 63.8-10.5 6.5-21 13.1-31.2 19.6-72.5 45.9-141 89.3-231.2 90.8-47.8.9-97.4-9.7-151.7-32.5-54.8-22.9-106.8-37.5-157-48.5v5.1c49.7 11 101.1 25.4 155.1 48 52.9 22.1 101.4 32.9 148.1 32.9 1.9 0 3.7 0 5.6-.1 91.6-1.6 160.7-45.3 233.8-91.6 10.2-6.4 20.7-13.1 31.2-19.6 110-67.9 132.3-67.4 305.6-63.1 31.3.8 66.9 1.7 108.9 2.3 134.3 2.1 189.1-6.5 229.2-12.8 44-6.9 73.1-11.5 171.7 1.7 65.4 8.6 125.5 33.2 183.7 56.9 18.7 7.6 38 15.5 57.3 22.8 73 27.6 159.7 54.5 265.4 23.9 8.1-2.3 16.3-4.7 24.5-7v-5.2c-8.9 2.8-17.5 5.3-26.1 7.7z"/><path class="st1" d="M1904.1 1063.9c-121.5 38.9-213-2.7-309.9-46.8-61-27.7-124.1-56.4-197-65.3-96.2-11.8-127.9-5.3-168 3-41.6 8.5-93.3 19.1-238.2 13-62.7-2.6-112.3-6.1-152.1-8.9-70.6-4.9-113.2-7.9-149.6-.9-34.3 6.5-64.1 21.8-113.9 58.3-9.2 6.8-18.5 13.7-27.4 20.3C440.2 1117 338.4 1193 169.9 1116c-55.8-25.5-113.2-41.2-169.9-54.4v5.1c56.1 13 112.8 28.7 167.8 53.8 50.4 23 94.8 32.6 135.3 32.6 97 0 170.9-55.1 247.8-112.5 8.9-6.7 18.2-13.6 27.4-20.3 92.8-68 118.3-66.2 260.1-56.4 39.9 2.8 89.5 6.2 152.3 8.9 145.5 6.1 197.6-4.5 239.4-13.1 39.7-8.1 71-14.6 166.4-2.9 72.2 8.8 134.9 37.4 195.5 64.9 49.3 22.4 95.8 43.6 146.6 54.7 57.6 12.7 110.7 10.2 166.9-7.8 4.8-1.5 9.6-3.1 14.4-4.6v-5.2c-5.2 1.8-10.6 3.4-15.8 5.1z"/><path class="st1" d="M1876.9 1045.3c-114.5 36.9-200.4-2.8-291.4-44.8-59.9-27.7-121.8-56.3-194.7-63.8-90.6-9.4-124.8-2.6-164.3 5.3-44.1 8.8-94.1 18.7-235.5 9.6-53.1-3.4-96.1-7.1-134-10.4-150.9-13.1-191.5-16.6-286.1 56.4-111.2 85.7-216.3 166.7-396.6 96.6-58.2-22.6-117-38.2-174.2-52.7v5.2c56.7 14.3 114.9 29.8 172.4 52.2 46.9 18.2 90.1 27.3 131.6 27.3 31.7 0 62.4-5.3 93-15.8 64.9-22.4 121.8-66.3 176.9-108.8 93.1-71.8 133.2-68.3 282.6-55.3 38 3.3 81 7 134.1 10.4 142.1 9.1 192.4-.9 236.8-9.7 39.2-7.8 73-14.5 162.9-5.2 72 7.4 133.6 35.9 193.1 63.4 66.2 30.6 129.7 59.9 203.6 59.9 28.7 0 58.9-4.4 91.5-14.9 13.4-4.3 27.3-8.7 41.5-13v-5.2c-14.8 4.3-29.2 8.8-43.2 13.3z"/><path class="st1" d="M1849.8 1026.6c-107.6 35-188.1-2.8-273.2-42.9-58.6-27.6-119.3-56.1-192-62.1-84.8-7.2-121.4-.1-160.1 7.5-46.9 9.1-95.5 18.6-233.4 6.3-42.8-3.8-79.9-7.7-112.6-11.2-162-17.1-216.6-22.8-312 54.5-124.5 100.9-223.1 145.7-387.7 93.5-46.1-14.6-91.6-27.3-135.5-39.6-14.3-4-28.6-8-43.1-12.1v5.2c14 4 27.9 7.8 41.7 11.7 43.9 12.3 89.4 24.9 135.4 39.5 46.2 14.6 88.3 21.9 128.1 21.9 31.5 0 61.6-4.5 91.1-13.6 65.7-20.2 122.1-61.3 173.2-102.7 93.9-76.1 147.9-70.4 308.4-53.5 32.8 3.5 69.9 7.4 112.7 11.2 138.7 12.3 189.8 2.4 234.8-6.4 38.4-7.5 74.6-14.5 158.7-7.4 71.8 6 132.1 34.3 190.3 61.7 86.1 40.5 167.4 78.7 276.9 43.1 21.5-7 44.5-14 68.6-21v-5.2c-24.8 7.3-48.4 14.5-70.3 21.6z"/><path class="st1" d="M1822.7 1007.9c-100.9 33.1-176-2.9-255.4-41.1-57.3-27.5-116.5-55.9-189-60.4-78.9-5.1-117.7 2.4-155.3 9.6-47.9 9.2-97.5 18.8-232 3.1-31.7-3.7-61.1-7.4-87-10.7-173.5-22-245.4-31.1-342.3 51.5-102.6 87.5-201.8 133.1-378.9 90.4-62.9-15.1-122.1-31.7-183-51.6v5.3c60.5 19.7 119.3 36.2 181.8 51.2 45.6 11 86.6 16.5 124.6 16.5 31.5 0 60.9-3.8 89.2-11.3 56.4-15 108.7-44.8 169.5-96.7 95.3-81.2 166.4-72.2 338.4-50.4 25.9 3.3 55.3 7 87 10.7 135.2 15.7 185.2 6.1 233.5-3.2 38.9-7.5 75.7-14.6 154-9.5 71.5 4.4 130.3 32.6 187.1 59.9 58.1 27.9 113.8 54.6 179 54.6 25.1 0 51.6-4 80.1-13.3 28.6-9.4 61-18.9 95.7-28.4v-5.2c-35.1 9.9-68 19.5-97 29z"/><path class="st1" d="M1795.6 989.3c-94.3 31.3-164.1-3-238-39.3-55.7-27.4-113.3-55.7-185.6-58.6-73-3.1-112 4.4-149.8 11.7-51.6 9.9-100.4 19.3-231.1 0-19.4-2.9-37.6-5.6-55.3-8.3-95-14.4-163.7-24.8-222.3-20.8-61.6 4.3-108.3 24.4-156.2 67.4-102.5 91.9-199.3 114.7-370 87.3C120.6 1018 60.8 999.1 0 975.8v5.4c60.5 23.1 120 41.7 186.5 52.4 46 7.4 85.6 11.1 121 11.1 32 0 60.6-3 87.4-9 58.9-13.2 111.6-42 165.8-90.6 97.5-87.4 184.3-74.2 374.4-45.4 17.7 2.7 36 5.5 55.4 8.3 131.5 19.4 180.7 9.9 232.7 0 37.5-7.2 76.2-14.6 148.6-11.6 71.2 2.8 128.3 30.9 183.6 58 54.2 26.6 106.1 52.2 167.2 52.2 23.3 0 48-3.7 74.6-12.5 34.6-11.5 76.7-23.3 122.8-35.2v-5.2c-46.7 12-89.4 24-124.4 35.6z"/><path class="st1" d="M1768.5 970.6c-87.9 29.4-152.5-3.2-220.9-37.7-54-27.3-109.9-55.5-181.8-56.6-67.1-1.2-106 6.3-143.7 13.6-55.9 10.8-104.2 20.1-230.8-3l-14.8-2.7c-101.4-18.5-181.5-33.2-249-31.1-72.1 2.2-126 23.6-174.6 69.5-104.1 98.2-205.1 96-361.2 84.3-70.4-5.3-129.3-27.5-191.6-55.7v5.5c62.1 28 120.8 50 191.3 55.2 41.2 3.1 79.9 5.6 116.2 5.6 30.7 0 59.6-1.8 86.7-6.7 62-11.2 112-37.3 162.2-84.5 101.1-95.3 214.1-74.7 419.3-37.1l14.8 2.7c127.5 23.3 176.2 13.9 232.7 3 37.4-7.2 76.1-14.7 142.6-13.5 70.7 1.1 126.1 29.1 179.6 56.1 50.3 25.4 98.6 49.8 155.6 49.8 21.6 0 44.5-3.5 69.2-11.8 39.6-13.3 91.8-27.3 149.9-41.4V929c-58.9 14.1-111.7 28.2-151.7 41.6z"/><path class="st1" d="M1741.3 951.9c-81.6 27.7-141.2-3.3-204.2-36.2-51.6-26.9-105-54.6-175.2-54.6h-2.5c-61.3.4-101.4 8.3-136.9 15.3-58.5 11.5-109 21.5-231.2-5.8-92.7-20.7-182-39.1-256.9-38-79.2 1.1-138.3 23.8-186.1 71.2-83.8 83.2-166.1 82.4-280 81.3-23-.2-46.8-.5-72.5-.1-74.1 1.3-131.6-26.8-195.8-60.8v5.7c63.9 33.8 121.4 61.4 196 60.2 25.6-.4 49.3-.2 72.3.1 13 .1 25.6.3 37.8.3 96.1 0 170.1-7.8 245.8-83C651 809 789.8 831 990.3 875.7c123.2 27.5 174.2 17.4 233.3 5.8 35.2-6.9 75.2-14.8 136-15.2h2.4c69 0 121.8 27.5 172.9 54.1 46.6 24.2 91.2 47.5 144.3 47.5 19.9 0 41-3.3 63.9-11 43-14.6 106.4-30.7 177-46.9v-5.1c-71.3 16.1-135.4 32.3-178.8 47z"/><path class="st1" d="M1714.2 933.3c-75.4 25.9-130.1-3.5-187.9-34.7-50.3-27.1-102.2-55.1-173.1-52.5-55.5 1.9-94.7 9.8-129.4 16.8-64.2 13-115 23.3-232.3-8.4-74.5-20.1-170.8-43-255-42.2-83.6.9-146.6 24.7-192.6 72.8-69.4 72.6-138.8 72.8-226.7 73.1-34.7.1-74.1.2-117 5.1-73.7 8.3-126.8-24-188.3-61.4C8 899.5 4 897.1 0 894.7v5.8c3.1 1.9 6.2 3.8 9.3 5.6 55.5 33.8 104.3 63.4 167.7 63.4 7.7 0 15.6-.4 23.8-1.4 42.7-4.8 81.9-4.9 116.5-5 89-.3 159.4-.5 230.3-74.6 45-47 106.8-70.3 189-71.2 83.6-.9 179.5 22 253.6 42 118.5 32 169.8 21.6 234.6 8.5 34.5-7 73.5-14.9 128.6-16.7 69.5-2.5 120.9 25.2 170.6 51.9 58.8 31.7 114.4 61.7 191.9 35 45.8-15.7 120.7-33.8 204.2-51.8v-5.1c-84.1 18.1-159.7 36.3-205.9 52.2z"/><path class="st1" d="M1687.1 914.6c-69.4 24.2-119.3-3.7-172-33.3-48.1-27-97.9-54.9-168.2-50.4-49.7 3.1-87.6 11.1-121 18.1-68.2 14.3-122.1 25.7-234.3-10.7-96.2-31.2-181.3-46.8-253.1-46.3-88 .6-154.9 25.6-199.1 74.3-60.3 66.5-119.9 65.8-195.3 64.9-41-.5-87.5-1-139.6 10.2-69.3 14.9-116.4-17.9-170.9-55.9-10.9-7.6-22-15.3-33.6-23v6c10.6 7 20.8 14.1 30.8 21.1 46 32.1 86.8 60.6 140.1 60.6 11 0 22.5-1.2 34.7-3.8 51.6-11.1 97.8-10.6 138.5-10.1 36.8.4 71.6.8 104.3-7.4 36.3-9.1 66.4-27.9 94.8-59.2 99.4-109.6 297.9-75 446.9-26.6 113.4 36.8 167.9 25.4 236.8 10.9 33.3-7 71-14.9 120.3-18 68.8-4.4 118 23.1 165.5 49.8 53.8 30.2 104.5 58.6 176.1 33.7 47.7-16.7 134.8-36.5 231.3-56.2V858c-97.1 19.9-184.9 39.8-233 56.6z"/><path class="st1" d="M1660 896c-63.6 22.6-108.7-3.9-156.5-32-45.8-26.9-93.3-54.8-162.9-48.2-44 4.2-80 12.1-111.7 19.1-73 16.1-130.7 28.7-237.1-12.7-83.5-32.5-171.9-50.4-249.2-50.4h-1.9c-92.1.4-163.2 26.6-205.6 75.8-53.9 62.6-109.7 60.3-174.2 57.5-44.4-1.9-94.7-4-151.9 14.6-65.4 21.3-104.9-10.6-155-50.9-16.5-13-34.2-27.2-54-40.3v5.9c18.2 12.3 34.7 25.6 50.6 38.4 38.5 31 72.9 58.7 118.6 58.7 12.7 0 26.3-2.1 41.1-7 56.4-18.4 106.2-16.3 150.2-14.4 65.9 2.8 122.7 5.2 178.2-59.3 41.4-48.1 111.2-73.8 201.9-74.1 77.2-.3 165.7 17.5 249.3 50.1 54 21 95.5 28.3 132.9 28.3 37.2 0 70.3-7.3 107.2-15.4 31.6-6.9 67.4-14.8 111.1-19 68.1-6.5 114.8 21 159.9 47.5 35.8 21 70.2 41.2 112 41.2 15.1 0 31.2-2.6 48.7-8.8 48.8-17.3 148.7-38.8 258.3-60.1v-5.1c-110.2 21.5-210.8 43.1-260 60.6z"/><path class="st1" d="M1705.6 871.6c-63.7 17.4-111-7.6-161.1-34.1-48.2-25.5-98-51.8-167.3-44.9-20.7 2.1-40.9 5.4-63.7 10.3-6.1 1.3-12.1 2.6-18 3.9-88.4 19.5-152.3 33.6-274.4-12.1-51-18.9-104.3-33-154.1-40.7-56.9-8.8-109.1-9.5-155.1-2.1-69.9 11.3-123.6 35.1-159.4 70.8C495.4 879.7 441 875 372 869c-21.1-1.8-43-3.7-66.5-3.9-30.9-.1-59.4 3.5-87.4 11.1-67.8 18.3-113.8-10.7-167.1-44.3-16.2-10-32.9-20.5-51-30.2v5.7c17.1 9.3 32.9 19.3 48.2 29 42.6 26.8 80.6 50.7 128.8 50.7 13.2 0 27.3-1.8 42.3-5.9 27.5-7.5 55.7-11.1 86.1-10.9 23.3.2 45.1 2.1 66.1 3.9C439 880 497.3 885 556 826.4c35.1-35 87.8-58.3 156.7-69.4 85.2-13.7 197 1.8 306.7 42.6 56.9 21.3 105.2 31 151.9 30.7 42.9-.3 81.1-8.7 125.3-18.5 5.9-1.3 11.9-2.6 18-3.9 22.6-4.9 42.6-8.2 63.1-10.3 67.8-6.8 116.9 19.2 164.4 44.3 39.1 20.7 76.6 40.5 121.6 40.5 13.6 0 28-1.8 43.2-6 44.6-12.2 123.9-29.3 213.1-47.6v-5.1c-89.7 18.4-169.5 35.6-214.4 47.9z"/><path class="st1" d="M1751.2 847.2c-63.4 12.4-112.7-11.1-164.8-35.9-50.9-24.2-103.4-49.3-172.6-41.9-20.8 2.3-41.9 6.2-64.8 11.8-90 22.4-164.1 34.5-298.6-13.7-54.3-19.3-107.4-32.6-157.9-39.8-58.4-8.2-111.7-7.7-158.2 1.5-72.8 14.4-126.6 37-164.3 68.9-60.1 51-115.7 43.9-186.2 35-21.4-2.7-43.4-5.5-67.4-6.9-30.5-1.8-59.7.5-89.2 6.9-69.9 15.2-120.3-8.9-178.7-36.8C33.1 788.8 17 781.1 0 773.9v5.4c16.3 6.9 31.6 14.2 46.5 21.3 46.4 22.2 87.9 42 138.2 42 13.8 0 28.3-1.5 43.7-4.8 29.1-6.3 57.9-8.5 87.9-6.8 23.8 1.4 45.8 4.2 67.1 6.9 34.5 4.4 67.1 8.5 98 4.9 34.4-4 63.6-17 92-41.1 37.1-31.4 90.1-53.5 162.1-67.8 85.3-16.9 196.6-3.4 313.5 38.1 68.7 24.6 121.7 33.7 169.2 33.7 46.4 0 87.4-8.6 132.3-19.8 22.6-5.6 43.6-9.5 64.1-11.7 67.8-7.3 119.7 17.5 169.9 41.5 42.8 20.4 83.6 39.9 132 39.9 11.5 0 23.4-1.1 35.8-3.5 38.7-7.5 99.3-20 167.8-34.4v-5.1c-69 14.4-130 27-168.9 34.6z"/><path class="st1" d="M1796.8 822.8c-62.6 7.6-113.3-14.3-167-37.4-54-23.2-109.8-47.3-179.3-39.4-21.3 2.5-42.8 6.9-65.9 13.3-84.1 23.6-164.3 28.6-304.7-19.3-86.6-29.6-212.9-59.4-323-33.8-76 17.7-129.8 39-169.2 66.9-63.3 45-120.2 35.6-192.3 23.6-21.4-3.6-43.6-7.3-67.8-9.9-30.1-3.2-60.7-2.4-91 2.7-71.4 11.8-128.4-7.8-188.6-28.6C32.6 755.6 16.8 750.1.1 745v5.2c16 5 31.4 10.2 46.2 15.4 60.9 21 118.4 40.8 191.1 28.8 29.9-4.9 60-5.8 89.7-2.6 24 2.6 46.1 6.3 67.5 9.8 73.2 12.2 131.1 21.8 196-24.4 38.9-27.6 92.1-48.6 167.5-66.2 108.9-25.4 234.3 4.3 320.3 33.6 78 26.6 137.6 37 189.7 37 42.4 0 79.8-6.9 118-17.6 22.8-6.4 44.1-10.7 65.1-13.2 68.2-7.7 123.4 16 176.8 39 44.9 19.3 91.2 39.2 144.3 39.2 8.2 0 16.7-.5 25.3-1.5 31.4-3.8 74.3-11.4 122.6-21.2v-5.1c-48.8 10.1-91.9 17.8-123.4 21.6z"/><path class="st1" d="M1842.4 798.4c-61.1 3-115.1-18-167.2-38.4-57.9-22.6-117.7-45.9-188.1-37.2-21.7 2.7-43.6 7.5-67 14.8-86.2 27-173.3 20-310.8-24.9-131-42.8-242-52.6-329.9-29.3-79.7 21.2-133.4 41.2-174.1 65-66.5 39-124.8 27.1-198.6 12-21.5-4.4-43.6-8.9-68-12.7-30.2-4.7-61.4-5.2-92.8-1.5-71.6 8.3-131.6-5.3-195.2-19.8-16.6-3.8-33.4-7.6-50.6-11.1v5.1c16.8 3.4 33.2 7.1 49.5 10.8 64 14.5 124.4 28.2 196.9 19.8 31-3.6 61.7-3.1 91.5 1.5 24.2 3.7 46.4 8.3 67.8 12.7 74.9 15.3 134 27.4 202.2-12.6 40.3-23.5 93.6-43.4 172.9-64.5 86.9-23.1 197-13.3 327.1 29.2 70 22.9 125.5 35.4 174.8 39.4 50.2 4.1 94.4-.5 139.1-14.5 23.1-7.2 44.8-12 66.2-14.6 69.1-8.5 128.4 14.6 185.7 36.9 49.2 19.2 100 39 157.2 39 4 0 8-.1 12.1-.3 21.9-1.1 48.3-4.3 77.3-9.1V789c-29.6 5.1-56 8.3-78 9.4z"/><path class="st1" d="M1888 774c-58.8-1.1-112.8-20.2-164.9-38.7-62.6-22.2-127.4-45.1-199.4-35.8-22.5 2.9-44.8 8.3-68.2 16.3-86.4 29.8-189.2 9.4-316.9-30.5-137.8-43.1-248-51.2-336.8-24.8-86.1 25.6-138 43.9-179 63.1-69.9 32.9-129.6 18.5-205.1.3-21.5-5.2-43.6-10.5-68.1-15.4-30.3-6-62.2-8-94.6-5.8-68.7 4.7-129-2.8-192.8-10.7-20.5-2.5-41.1-5.1-62.2-7.2v5c20.9 2.1 41.3 4.7 61.6 7.2 64.1 7.9 124.5 15.4 193.7 10.7 32-2.2 63.4-.3 93.3 5.7 24.4 4.8 46.5 10.2 67.9 15.4 43.1 10.4 81.2 19.6 118.9 19.6 29.2 0 58.3-5.5 89.5-20.2 40.7-19.1 92.4-37.3 178.3-62.8 87.8-26.1 197-18 333.9 24.7 76.1 23.8 131.5 36.8 179.5 42.3 54.6 6.2 99.3 2.5 140.6-11.8 23.1-8 45-13.2 67.2-16.1 70.8-9.2 132.1 12.5 197.1 35.5 52.6 18.6 106.9 37.9 166.5 39 2 0 3.9.1 5.9.1 8.3 0 17-.3 26.1-.9v-5c-11.3.7-22 1-32 .8z"/><path class="st1" d="M1774.8 711.5c-71.9-23.3-139.9-45.3-214.5-35.2-23.6 3.3-46.2 9.1-69.3 17.8-83 31.5-195.4 2.3-323.1-36.1-91.3-27.1-226.3-58.6-343.7-20.2-16.9 5.5-33 10.8-48.4 15.8-55 17.9-98.4 32-135.5 45.5-73.3 26.7-131.4 10.7-211.8-11.6-21.4-5.9-43.6-12-68.1-17.9-30.5-7.3-63-10.7-96.4-10-54.8 1.2-107.6-.8-158.6-2.8C71 655.4 36 654 0 653.7v5c35.9.3 70.9 1.7 105.4 3 51.1 2 103.9 4 158.9 2.8 33-.7 65 2.6 95.1 9.8 24.4 5.9 46.5 12 67.9 17.9 40.1 11.1 74.8 20.7 109.2 24.2 37.7 3.9 71.2-.2 105.7-12.8 37-13.4 80.4-27.5 135.3-45.4 15.3-5 31.4-10.2 48.4-15.8 116.1-38 250-6.6 340.7 20.3 62.2 18.7 127.6 37.2 184.2 45.2 58.4 8.3 103.6 5.4 142.1-9.2 22.7-8.6 45-14.4 68.2-17.6 73.4-9.9 140.9 11.9 212.3 35 47.1 15.2 95.7 31 146.7 37.1v-5c-50.5-6-98.6-21.6-145.3-36.7z"/><path class="st1" d="M1833.1 689c-80.9-24.3-157.3-47.2-236.1-36-24.1 3.5-47.8 10-70.4 19.4-75.4 31.1-183.7 0-320.8-39.3l-8.4-2.4c-68.6-19.5-124.8-30.5-176.8-34.7-66.2-5.3-123 .9-173.8 18.9-69.5 24.7-131.2 44.1-188.7 59.3-76.8 20.5-136.3 2-218.7-23.6-21.3-6.6-43.4-13.5-67.8-20.3-31-8.7-64-13.5-98.2-14.2-101.2-2.5-189.8-.8-273.4 5.6v5c83.6-6.4 172.2-8 273.3-5.6 33.7.7 66.4 5.4 97 14 24.4 6.8 46.4 13.7 67.7 20.3 83.2 25.8 143.3 44.5 221.4 23.7 57.6-15.3 119.5-34.7 189.1-59.5 114.9-40.8 246.1-13 347.5 15.8l8.4 2.4c98.3 28.2 181.9 52.2 249.7 52.2 27.4 0 52.2-3.9 74.4-13.1 22.2-9.2 45.5-15.6 69.2-19 77.7-11.1 153.6 11.7 234 35.9 28.9 8.7 58.4 17.5 88.3 24.8v-5.1c-29.4-7.2-58.4-15.9-86.9-24.5z"/><path class="st1" d="M1902.9 669.3c-94.3-27-183.3-52.4-269.2-39.5-25.1 3.8-49.2 10.8-71.5 20.9-64.4 28.9-165.4.4-282.4-32.6-17.2-4.8-34.9-9.8-52.9-14.8-71-19.3-128.4-30-180.6-33.5-67.4-4.6-125.3 2.7-176.9 22.3-76.3 29.3-139.6 48.1-193.6 57.5-80.6 14.1-141.8-6.9-226.5-36.1-20.9-7.2-42.6-14.6-66.6-22.3-31.3-9.9-64.9-16.1-100-18.4C188.5 566.5 92.9 575 0 589.3v5.1c92.8-14.4 188.4-22.9 282.3-16.6 34.6 2.2 67.9 8.3 98.8 18.1 24 7.7 45.6 15.1 66.5 22.3 85.4 29.4 147.1 50.6 229 36.3 54.3-9.5 117.9-28.3 194.5-57.7 115.4-43.9 250-17 354.4 11.4 17.9 4.9 35.7 9.9 52.8 14.7 117.9 33.2 219.8 62 285.8 32.4 21.9-9.8 45.6-16.7 70.2-20.5 84.9-12.8 173.4 12.6 267.1 39.4 6.1 1.8 12.3 3.5 18.5 5.3v-5.2c-5.6-1.8-11.4-3.4-17-5z"/><path class="st1" d="M1597.6 628.9c-56.5 27.4-149.9.8-258-29.9-69-19.6-147.1-41.9-223.7-51.5-87.9-11-161.2-3.9-224.1 21.7-216 88.1-288 61.1-431.5 7.3-21-7.9-42.6-16-66.8-24.5-72.5-25.7-157.4-32-259.8-19.5C88.7 538 44 546.6-.1 556.6v5.1c132.7-30.2 270.7-47.9 392-5 24.1 8.5 45.7 16.6 66.7 24.5 70.5 26.4 126.1 47.3 189.8 49.8 67.2 2.7 140.5-14.4 245.3-57.2 139.4-56.9 301.5-10.8 444.5 29.9 109.1 31 203.3 57.8 261.5 29.6 91.5-44.4 205.2-24.4 320.2 6.3v-5.2c-115.4-30.7-229.6-50.5-322.3-5.5z"/><path class="st1" d="M1798.6 554.3c-84.9-7.9-150.1.5-205.2 26.4-65.3 30.7-164.1 7.4-278.5-19.6-20.6-4.9-41.8-9.9-63.3-14.7-110.4-24.7-247.9-55.4-372.1-12.5-205.2 70.8-286.3 52.2-436.3 6.9-8.7-2.6-17.3-5.4-26.5-8.3-14.1-4.5-28.7-9.1-44.1-13.5-87-24.7-181.2-31.2-288-19.8-28.4 3-56.5 7.1-84.4 12v5.2c119.8-20.8 245.7-28.1 371 7.4 15.4 4.4 29.9 9 44 13.5 9.2 2.9 17.9 5.7 26.6 8.3 79.3 23.9 139.4 40.4 208.6 40.4 62.6 0 132.6-13.6 230.8-47.4 122.9-42.4 259.6-11.9 369.4 12.6 21.5 4.8 42.7 9.8 63.3 14.7 115.3 27.2 214.9 50.7 281.8 19.3 54.3-25.5 118.7-33.7 202.6-25.9 39.9 3.6 80.8 10.9 121.9 19.9v-5.1c-41.1-8.9-81.9-16.2-121.6-19.8z"/><path class="st1" d="M1795.7 500c-85.6-3-151.3 7.3-206.6 32.5-75.6 34.5-181.1 14.5-303.3-8.5-13.7-2.6-27.9-5.3-42.2-7.9-12.2-2.3-24.8-4.6-37-7-110.9-21.1-225.5-43-339.8-10.4-201.9 57.5-291 41.5-443.7 5.7-10.2-2.4-20.4-5.1-31.1-7.9-13.2-3.5-26.8-7-40.9-10.2C222.3 457.4 108.5 456.6 0 469v5c108.2-12.4 221.7-11.6 350.1 17.1 14.1 3.1 27.6 6.7 40.7 10.2 10.8 2.8 21 5.5 31.2 7.9 72.3 17 137.9 31.1 207.4 32.2 2.9 0 5.9.1 8.8.1 66.8 0 138.2-11.8 230-38 113.1-32.2 227.2-10.5 337.5 10.5 12.2 2.3 24.8 4.7 37 7 14.2 2.6 28.4 5.3 42.2 7.9 75.1 14.2 143.9 27.2 203.6 27.2 38.2 0 72.6-5.3 102.6-19 54.6-24.9 119.6-35.1 204.4-32.1 41 1.5 82.7 6.7 124.4 13.8v-5.1c-41.6-7.1-83.2-12.3-124.2-13.7z"/><path class="st1" d="M1792.9 445.6c-86 1.6-152.1 13.9-208.1 38.7-88.3 39.1-202.9 22.5-335.6 3.3l-13.4-1.9c-23.8-3.4-47.5-7.5-72.5-11.8-99.1-17.1-201.7-34.8-308.9-10.5-185.9 42.1-284.6 33.2-451.1 4.4-11.4-2-22.6-4.3-34.5-6.8-12.6-2.6-25.6-5.4-38.9-7.6-122.5-20.8-227.7-28.2-330-23.2v5c98.8-5 202 1.6 329.1 23.1 13.2 2.2 26.1 4.9 38.7 7.6 11.9 2.5 23.2 4.9 34.7 6.8 167.1 28.9 266.3 37.9 453-4.4 106.2-24.1 208.3-6.5 306.9 10.5 25.1 4.3 48.7 8.4 72.6 11.9l13.4 1.9c73.8 10.7 141.9 20.5 203.3 20.5 49.7 0 95-6.5 135.1-24.3 55.3-24.5 120.8-36.7 206.1-38.3 41.8-.8 83.9 2.2 127 7.6v-5c-42.9-5.2-84.9-8.2-126.9-7.5z"/><path class="st1" d="M1790.1 391.3c-86.1 6-152.7 20.3-209.5 44.8-96.8 41.8-212.1 33.9-352.7 19.2-33-3.5-66-8.8-100.9-14.6-90.1-14.7-183.3-30-285.1-12.7-184 31.2-296 22-458.5 3.1-12.6-1.5-25.4-3.5-37.8-5.4-12-1.9-24.4-3.8-36.9-5.3C174 404.2 80.4 396.4 0 395.2v4.9c88 1.3 184.4 10.3 308.1 25.3 12.4 1.5 24.8 3.4 36.7 5.3 12.5 1.9 25.4 4 38 5.4 162.9 19 275.2 28.2 459.9-3.1 101-17.1 193.7-2 283.5 12.7 35 5.7 68.1 11.1 101.2 14.6 60.5 6.3 119.4 12 174.9 12 5.8 0 11.7-.1 17.4-.2 64.9-1.5 116.7-11.4 162.8-31.4 56.3-24.3 122.3-38.4 207.9-44.4 43.5-3 87.1-2 129.6 1.3v-5c-42.6-3.3-86.3-4.3-129.9-1.3z"/><path class="st1" d="M1787.3 337c-85.9 10.3-152.9 26.5-211 51-102.8 43.3-212.6 46.3-356.3 37.1-40.8-2.6-81.9-9.2-125.4-16.2-82.7-13.2-168.3-26.9-265.2-16-166.7 18.8-287.2 13.2-465.8 1.8-13.9-.9-28-2.4-41.6-3.8-11.3-1.2-22.9-2.4-34.5-3.3-57.1-4.4-108.2-8.8-153.2-12.8-49.1-4.3-93.2-8.1-134.3-10.9v5c40.4 2.8 84.2 6.6 133.9 10.9 45.1 3.9 96.1 8.4 153.3 12.8 11.5.9 23.1 2.1 34.3 3.3 13.7 1.4 27.8 2.9 41.8 3.8 178.9 11.4 299.6 17 466.7-1.8 96.3-10.8 181.5 2.8 263.9 16 43.6 7 84.8 13.6 125.8 16.2 41 2.6 79.2 4.3 115.4 4.3 91.2 0 168.9-10.4 243.2-41.8 57.6-24.3 124.2-40.4 209.6-50.6 44.6-5.4 89.1-6.4 132.1-4.9v-5c-43.2-1.5-87.9-.5-132.7 4.9z"/><path class="st1" d="M1784.5 282.7c-83.8 14.1-153.3 32.8-212.4 57.1-103.6 42.6-207.8 58.5-359.9 55-61.9-1.5-126-9.2-193.9-17.3-62.8-7.5-127.7-15.3-201-19.8-90.6-5.6-173-3.6-260.1-1.5-65.9 1.6-134 3.2-213.4 2-15.7-.2-31.3-1.1-46.4-1.9-10.2-.5-20.7-1.1-31-1.5-111-3.9-196.5-12-266.4-19.1v5c69.8 7.1 155.3 15.1 266.2 19.1 10.2.4 20.7.9 30.9 1.5 15.2.8 30.9 1.7 46.6 1.9 79.5 1.2 147.7-.4 213.6-2 87-2.1 169.3-4 259.7 1.5 73.2 4.5 138.1 12.3 200.7 19.8 68 8.1 132.2 15.8 194.3 17.3 13.8.3 27.2.5 40.3.5 131.4 0 226.8-16.8 321.6-55.8 58.8-24.2 127.9-42.8 211.3-56.8 42.6-7.2 86.6-10.9 134.7-11.1v-5c-48.3.2-92.6 3.9-135.4 11.1z"/><path class="st1" d="M1781.7 228.4c-80.9 17.2-150.8 37.9-213.9 63.2-122.8 49.4-228.1 70.5-363.5 72.8-72.7 1.2-146.3-9.1-231.6-21-52.5-7.4-106.8-15-167.9-21-126-12.4-247.9-8.4-402.3-3.3-25.2.8-51.4 1.7-78.6 2.5-24.1.7-52 1.4-78.7.3C143.6 317.8 65 310.1 0 302.4v5c65 7.7 143.5 15.3 245.1 19.5 26.8 1.1 54.9.4 79-.3 27.2-.8 53.3-1.7 78.6-2.5 154.2-5.1 276-9 401.6 3.3 61 6 115.3 13.6 167.7 20.9 80.8 11.3 151.2 21.2 220.4 21.2 4 0 8 0 12-.1 68.8-1.2 130.7-7.5 189.2-19.3 58-11.7 113.9-28.8 176.1-53.8 62.8-25.3 132.5-45.9 213.1-63 43.4-9.4 88.6-15.2 137.3-17.4v-5c-49.2 2.2-94.7 8-138.4 17.5z"/><path class="st1" d="M1778.9 174.1c-77.5 20-147.9 42.7-215.3 69.4-131.8 51.5-234.1 82.9-367.1 90.7-64.3 3.7-128.6-7.3-203.2-20.1-58.8-10.1-125.4-21.6-201.2-26.8-135.4-9.3-284.6-17.2-487.9-2.1-26.1 1.8-50.9 2.8-75 3.8l-5.1.2c-91.5 3.7-163.9.8-224-5.1v5c60.2 5.8 132.7 8.7 224.2 5l5.1-.2c24.1-1 49-1.9 75.2-3.8 203-15 352-7.2 487.2 2.1 75.5 5.2 142 16.6 200.7 26.7 64.8 11.1 121.9 21 178.1 21 8.8 0 17.5-.2 26.3-.7 133.6-7.8 236.3-39.3 368.6-91 67.3-26.6 137.5-49.2 214.8-69.2 44.9-11.7 90.9-19.5 139.9-23.7v-5c-49.6 4.1-96 12-141.3 23.8z"/><path class="st1" d="M1776.1 119.8c-101.8 30.8-183.4 62.5-255.3 90.4-117.1 45.5-209.6 81.4-332.2 93.6-76.2 7.6-151.6-6.5-247-24.5-76.4-14.3-163-30.6-269.7-39.1-123.5-9.8-250.3-7.1-387.6 8.3C164 262.1 72.8 263.4 0 258.5v5c24.7 1.7 51.5 2.6 80.8 2.6 57.4 0 124.4-3.6 204.1-12.5 308.3-34.5 501 1.6 655.8 30.7 77.6 14.6 142 26.7 204.5 26.7 14.7 0 29.3-.7 44-2.1 123.3-12.3 216.1-48.4 333.5-94 71.9-27.9 153.3-59.5 255-90.3 48.4-14.6 95.9-24.2 142.5-30v-4.9c-50.2 6.1-97.9 16.1-144.1 30.1z"/><path class="st1" d="M1765.1 82.3c-98.7 30.9-178.3 62.5-249.6 92.1-117.3 49.1-208 79.1-324.9 87.3-56.6 4-113.9-3.8-180.2-12.7-4.7-.6-9.5-1.3-14.3-1.9-23.2-3.1-47.2-6.6-72.7-10.4-150.6-22.2-338-49.9-619.8-23.3-46.8 4.3-91.8 7-133.6 8-66.7 1.8-122.3-.4-170-4.9v5c36.2 3.4 76.9 5.5 123.5 5.5 14.9 0 30.4-.2 46.5-.7 42-1 87.1-3.7 134-8.1 281.2-26.6 468.3 1 618.6 23.2 25.5 3.8 49.5 7.3 72.7 10.4 4.8.6 9.6 1.3 14.3 1.9 54.3 7.3 102.5 13.8 149.4 13.8 10.7 0 21.3-.3 31.9-1.1 117.6-8.2 208.8-38.4 326.5-87.6 71.2-29.5 150.7-61 249.2-91.9 53.3-16.7 105.1-27 153.4-33.3v-5c-48.8 6.4-101.1 16.8-154.9 33.7z"/><path class="st1" d="M1754.1 44.7c-82.9 26.9-160.3 56.7-243.4 93.5-124.1 55-210.3 77-318.2 81.1-42 1.6-83.7-2.8-131.9-8-18.8-2-38.3-4.1-58.9-5.9-32.6-2.8-67.3-6.7-104.1-10.7-144-16-323.2-35.8-574.9-16.8-43.8 3.2-86.7 4.8-131 5.1-76.7.5-139-3.6-191.7-9.6v5c49.9 5.7 108.3 9.6 179.4 9.6h12.4c44.4-.3 87.4-2 131.3-5.1 251.2-19 430.2.8 574 16.8 36.8 4.1 71.6 7.9 104.2 10.7 20.5 1.8 40 3.9 58.8 5.9 41.6 4.4 78.4 8.3 114.8 8.3 6 0 11.9-.1 17.9-.3 108.5-4.1 195.3-26.2 320-81.5 83-36.8 160.1-66.5 242.9-93.4 57.4-18.6 112.8-30.2 164.4-37.3v-5c-52.2 7.2-108.1 18.8-166 37.6z"/><path class="st1" d="M1743.1 7.2c-83.4 28.1-160.9 59.2-237.2 95-128.4 60.4-211.4 73.2-311.4 74.9-31.5.5-63.9-2.7-98.1-6.1-28-2.8-56.9-5.6-88.9-6.9-44.7-1.7-93.9-5.5-146.1-9.6-134.3-10.4-301.4-23.3-519.5-11.8-40.7 2.1-81.5 2.8-128.3 2.2-87-1.2-155.9-7.1-213.6-14.5v5c57.7 7.3 126.6 13.2 213.5 14.4 46.9.7 87.8 0 128.6-2.2 217.7-11.5 384.7 1.4 518.8 11.8 52.2 4 101.5 7.8 146.3 9.6 31.9 1.3 60.7 4.2 88.6 6.9 31.9 3.2 62.1 6.1 91.6 6.1 2.4 0 4.7 0 7.1-.1 58-1 104.4-6.1 150.4-16.6 50.8-11.6 102.6-30.3 163.1-58.7 76-35.8 153.4-66.8 236.6-94.8 12.8-4.3 25.5-8.3 38-11.9h-17.4c-7.3 2.4-14.7 4.8-22.1 7.3z"/><path class="st1" d="M1501.1 66.2c-125.1 62.1-206.4 72.2-304.6 68.7-22-.8-44.3-3-67.9-5.3-35.6-3.5-72.5-7.1-115.5-6.9-61.3.5-128.6-2.9-206.6-6.9-119.2-6.1-267.5-13.7-445.5-8.3-38.5 1.2-78.4.9-125.7-.7C138.1 103.2 62.6 95.6 0 87.4v5c62.6 8.2 138.1 15.8 235.3 19.2 47.3 1.7 87.4 1.9 126 .7 177.9-5.3 326.1 2.2 445.1 8.3 78 4 145.4 7.4 206.8 6.9 42.8-.3 79.5 3.4 114.9 6.9 23.7 2.3 46 4.5 68.2 5.3 11.1.4 22.1.6 32.9.6 85.1 0 162.2-14.3 274.1-69.8C1554.7 45 1607.7 21.7 1664-.1h-13.7c-52 20.6-101.3 42.5-149.2 66.3z"/><path class="st1" d="M1496.3 30.1c-132.3 69.2-210 69.4-297.7 62.5-15-1.2-30-2.9-45.8-4.7-40.5-4.6-82.3-9.4-133.8-6.7-84.2 4.7-182 1.3-295.3-2.5-100.1-3.4-213.6-7.3-343.3-6.6-36.7.2-75.8-1-123-3.7C149.8 62.3 67.5 53.1 0 44.8v5c67.5 8.3 149.6 17.4 257.1 23.6 47.3 2.7 86.5 3.9 123.3 3.7 129.6-.7 243.1 3.2 343.1 6.6 113.4 3.9 211.3 7.2 295.7 2.5 51.1-2.7 92.7 2.1 133 6.7 15.9 1.8 30.9 3.5 46 4.7 19.4 1.5 39.7 2.7 60.7 2.7 24.5 0 50.2-1.7 77.1-6.4 50.5-8.9 102.1-27.8 162.7-59.4 22.9-12 46.2-23.4 70.1-34.5H1557c-20.7 9.7-40.8 19.7-60.7 30.1z"/><path class="st1" d="M1200.6 50.4c-9.2-1.2-18.3-2.4-27.9-3.8-41.8-5.9-89.2-12.6-148-6.7-117.6 12.1-257.2 7.8-433.9 2.3-60.7-1.9-123.5-3.8-191.2-5.3-35.9-.8-73-2.8-120.4-6.6C179.7 22.2 99.5 13.7 35 6.8 22.9 5.5 11.3 4.3 0 3.1v5c11.1 1.2 22.6 2.4 34.5 3.7C99 18.6 179.2 27.2 278.8 35.2c47.5 3.8 84.7 5.8 120.6 6.6 67.7 1.5 130.4 3.4 191.2 5.3 176.9 5.5 316.6 9.8 434.5-2.3 58.2-5.8 103.2.5 146.8 6.7 9.7 1.4 18.8 2.7 28 3.8 27.6 3.5 53.7 6.1 80.3 6.1 60 0 122.5-13.5 210.8-61.4h-10.6c-121 63.9-192.7 61.2-279.8 50.4z"/><path class="st1" d="M418.8 1.5c-8.4-.4-17-.9-25.8-1.5h-61.8c32.3 3 60.6 5.2 87.3 6.5C669 19.2 873.2 27 1031.2 3.3c10.7-1.6 20.9-2.7 30.7-3.3h-42.7c-156 21.6-356.1 13.9-600.4 1.5zm783.8 6.6l-13.2-2.4c-10.9-2-22-4-33.3-5.7h-43.6c27.3 1.8 51.9 6.3 76 10.7l13.2 2.4c34 6 62.6 10.5 92.5 10.5 10.6 0 21.4-.6 32.6-1.8 27.3-3.1 55.2-10.2 85-21.8h-14.2c-80 28.4-134.4 18.8-195 8.1z"/></svg>