<svg version="1.1" xmlns="http://www.w3.org/2000/svg" x="0" y="0" viewBox="0 0 1920 1920" xml:space="preserve"><path fill="#e0ac7e" d="M0 0h1920v1920H0z"/><path d="M0 2h52v28H0zm56 0h104v28H56zm108 0h104v28H164zm108 0h104v28H272zm108 0h104v28H380zm108 0h104v28H488zm108 0h104v28H596zm108 0h104v28H704zm108 0h104v28H812zm108 0h104v28H920zm108 0h104v28h-104zm108 0h104v28h-104zm108 0h104v28h-104zm108 0h104v28h-104zm108 0h104v28h-104zm108 0h104v28h-104zm108 0h104v28h-104zm108 0h104v28h-104zm108 0h28v28h-28zM0 34h104v28H0zm108 0h104v28H108zm108 0h104v28H216zm108 0h104v28H324zm108 0h104v28H432zm108 0h104v28H540zm108 0h104v28H648zm108 0h104v28H756zm108 0h104v28H864zm108 0h104v28H972zm108 0h104v28h-104zm108 0h104v28h-104zm108 0h104v28h-104zm108 0h104v28h-104zm108 0h104v28h-104zm108 0h104v28h-104zm108 0h104v28h-104zm108 0h84v28h-84zM0 66h52v28H0zm56 0h104v28H56zm108 0h104v28H164zm108 0h104v28H272zm108 0h104v28H380zm108 0h104v28H488zm108 0h104v28H596zm108 0h104v28H704zm108 0h104v28H812zm108 0h104v28H920zm108 0h104v28h-104zm108 0h104v28h-104zm108 0h104v28h-104zm108 0h104v28h-104zm108 0h104v28h-104zm108 0h104v28h-104zm108 0h104v28h-104zm108 0h104v28h-104zm108 0h28v28h-28zM0 98h104v28H0zm108 0h104v28H108zm108 0h104v28H216zm108 0h104v28H324zm108 0h104v28H432zm108 0h104v28H540zm108 0h104v28H648zm108 0h104v28H756zm108 0h104v28H864zm108 0h104v28H972zm108 0h104v28h-104zm108 0h104v28h-104zm108 0h104v28h-104zm108 0h104v28h-104zm108 0h104v28h-104zm108 0h104v28h-104zm108 0h104v28h-104zm108 0h84v28h-84zM0 130h52v28H0zm56 0h104v28H56zm108 0h104v28H164zm108 0h104v28H272zm108 0h104v28H380zm108 0h104v28H488zm108 0h104v28H596zm108 0h104v28H704zm108 0h104v28H812zm108 0h104v28H920zm108 0h104v28h-104zm108 0h104v28h-104zm108 0h104v28h-104zm108 0h104v28h-104zm108 0h104v28h-104zm108 0h104v28h-104zm108 0h104v28h-104zm108 0h104v28h-104zm108 0h28v28h-28zM0 162h104v28H0zm108 0h104v28H108zm108 0h104v28H216zm108 0h104v28H324zm108 0h104v28H432zm108 0h104v28H540zm108 0h104v28H648zm108 0h104v28H756zm108 0h104v28H864zm108 0h104v28H972zm108 0h104v28h-104zm108 0h104v28h-104zm108 0h104v28h-104zm108 0h104v28h-104zm108 0h104v28h-104zm108 0h104v28h-104zm108 0h104v28h-104zm108 0h84v28h-84zM0 194h52v28H0zm56 0h104v28H56zm108 0h104v28H164zm108 0h104v28H272zm108 0h104v28H380zm108 0h104v28H488zm108 0h104v28H596zm108 0h104v28H704zm108 0h104v28H812zm108 0h104v28H920zm108 0h104v28h-104zm108 0h104v28h-104zm108 0h104v28h-104zm108 0h104v28h-104zm108 0h104v28h-104zm108 0h104v28h-104zm108 0h104v28h-104zm108 0h104v28h-104zm108 0h28v28h-28zM0 226h104v28H0zm108 0h104v28H108zm108 0h104v28H216zm108 0h104v28H324zm108 0h104v28H432zm108 0h104v28H540zm108 0h104v28H648zm108 0h104v28H756zm108 0h104v28H864zm108 0h104v28H972zm108 0h104v28h-104zm108 0h104v28h-104zm108 0h104v28h-104zm108 0h104v28h-104zm108 0h104v28h-104zm108 0h104v28h-104zm108 0h104v28h-104zm108 0h84v28h-84zM0 258h52v28H0zm56 0h104v28H56zm108 0h104v28H164zm108 0h104v28H272zm108 0h104v28H380zm108 0h104v28H488zm108 0h104v28H596zm108 0h104v28H704zm108 0h104v28H812zm108 0h104v28H920zm108 0h104v28h-104zm108 0h104v28h-104zm108 0h104v28h-104zm108 0h104v28h-104zm108 0h104v28h-104zm108 0h104v28h-104zm108 0h104v28h-104zm108 0h104v28h-104zm108 0h28v28h-28zM0 290h104v28H0zm108 0h104v28H108zm108 0h104v28H216zm108 0h104v28H324zm108 0h104v28H432zm108 0h104v28H540zm108 0h104v28H648zm108 0h104v28H756zm108 0h104v28H864zm108 0h104v28H972zm108 0h104v28h-104zm108 0h104v28h-104zm108 0h104v28h-104zm108 0h104v28h-104zm108 0h104v28h-104zm108 0h104v28h-104zm108 0h104v28h-104zm108 0h84v28h-84zM0 322h52v28H0zm56 0h104v28H56zm108 0h104v28H164zm108 0h104v28H272zm108 0h104v28H380zm108 0h104v28H488zm108 0h104v28H596zm108 0h104v28H704zm108 0h104v28H812zm108 0h104v28H920zm108 0h104v28h-104zm108 0h104v28h-104zm108 0h104v28h-104zm108 0h104v28h-104zm108 0h104v28h-104zm108 0h104v28h-104zm108 0h104v28h-104zm108 0h104v28h-104zm108 0h28v28h-28zM0 354h104v28H0zm108 0h104v28H108zm108 0h104v28H216zm108 0h104v28H324zm108 0h104v28H432zm108 0h104v28H540zm108 0h104v28H648zm108 0h104v28H756zm108 0h104v28H864zm108 0h104v28H972zm108 0h104v28h-104zm108 0h104v28h-104zm108 0h104v28h-104zm108 0h104v28h-104zm108 0h104v28h-104zm108 0h104v28h-104zm108 0h104v28h-104zm108 0h84v28h-84zM0 386h52v28H0zm56 0h104v28H56zm108 0h104v28H164zm108 0h104v28H272zm108 0h104v28H380zm108 0h104v28H488zm108 0h104v28H596zm108 0h104v28H704zm108 0h104v28H812zm108 0h104v28H920zm108 0h104v28h-104zm108 0h104v28h-104zm108 0h104v28h-104zm108 0h104v28h-104zm108 0h104v28h-104zm108 0h104v28h-104zm108 0h104v28h-104zm108 0h104v28h-104zm108 0h28v28h-28zM0 418h104v28H0zm108 0h104v28H108zm108 0h104v28H216zm108 0h104v28H324zm108 0h104v28H432zm108 0h104v28H540zm108 0h104v28H648zm108 0h104v28H756zm108 0h104v28H864zm108 0h104v28H972zm108 0h104v28h-104zm108 0h104v28h-104zm108 0h104v28h-104zm108 0h104v28h-104zm108 0h104v28h-104zm108 0h104v28h-104zm108 0h104v28h-104zm108 0h84v28h-84zM0 450h52v28H0zm56 0h104v28H56zm108 0h104v28H164zm108 0h104v28H272zm108 0h104v28H380zm108 0h104v28H488zm108 0h104v28H596zm108 0h104v28H704zm108 0h104v28H812zm108 0h104v28H920zm108 0h104v28h-104zm108 0h104v28h-104zm108 0h104v28h-104zm108 0h104v28h-104zm108 0h104v28h-104zm108 0h104v28h-104zm108 0h104v28h-104zm108 0h104v28h-104zm108 0h28v28h-28zM0 482h104v28H0zm108 0h104v28H108zm108 0h104v28H216zm108 0h104v28H324zm108 0h104v28H432zm108 0h104v28H540zm108 0h104v28H648zm108 0h104v28H756zm108 0h104v28H864zm108 0h104v28H972zm108 0h104v28h-104zm108 0h104v28h-104zm108 0h104v28h-104zm108 0h104v28h-104zm108 0h104v28h-104zm108 0h104v28h-104zm108 0h104v28h-104zm108 0h84v28h-84zM0 514h52v28H0zm56 0h104v28H56zm108 0h104v28H164zm108 0h104v28H272zm108 0h104v28H380zm108 0h104v28H488zm108 0h104v28H596zm108 0h104v28H704zm108 0h104v28H812zm108 0h104v28H920zm108 0h104v28h-104zm108 0h104v28h-104zm108 0h104v28h-104zm108 0h104v28h-104zm108 0h104v28h-104zm108 0h104v28h-104zm108 0h104v28h-104zm108 0h104v28h-104zm108 0h28v28h-28zM0 546h104v28H0zm108 0h104v28H108zm108 0h104v28H216zm108 0h104v28H324zm108 0h104v28H432zm108 0h104v28H540zm108 0h104v28H648zm108 0h104v28H756zm108 0h104v28H864zm108 0h104v28H972zm108 0h104v28h-104zm108 0h104v28h-104zm108 0h104v28h-104zm108 0h104v28h-104zm108 0h104v28h-104zm108 0h104v28h-104zm108 0h104v28h-104zm108 0h84v28h-84zM0 578h52v28H0zm56 0h104v28H56zm108 0h104v28H164zm108 0h104v28H272zm108 0h104v28H380zm108 0h104v28H488zm108 0h104v28H596zm108 0h104v28H704zm108 0h104v28H812zm108 0h104v28H920zm108 0h104v28h-104zm108 0h104v28h-104zm108 0h104v28h-104zm108 0h104v28h-104zm108 0h104v28h-104zm108 0h104v28h-104zm108 0h104v28h-104zm108 0h104v28h-104zm108 0h28v28h-28zM0 610h104v28H0zm108 0h104v28H108zm108 0h104v28H216zm108 0h104v28H324zm108 0h104v28H432zm108 0h104v28H540zm108 0h104v28H648zm108 0h104v28H756zm108 0h104v28H864zm108 0h104v28H972zm108 0h104v28h-104zm108 0h104v28h-104zm108 0h104v28h-104zm108 0h104v28h-104zm108 0h104v28h-104zm108 0h104v28h-104zm108 0h104v28h-104zm108 0h84v28h-84zM0 642h52v28H0zm56 0h104v28H56zm108 0h104v28H164zm108 0h104v28H272zm108 0h104v28H380zm108 0h104v28H488zm108 0h104v28H596zm108 0h104v28H704zm108 0h104v28H812zm108 0h104v28H920zm108 0h104v28h-104zm108 0h104v28h-104zm108 0h104v28h-104zm108 0h104v28h-104zm108 0h104v28h-104zm108 0h104v28h-104zm108 0h104v28h-104zm108 0h104v28h-104zm108 0h28v28h-28zM0 674h104v28H0zm108 0h104v28H108zm108 0h104v28H216zm108 0h104v28H324zm108 0h104v28H432zm108 0h104v28H540zm108 0h104v28H648zm108 0h104v28H756zm108 0h104v28H864zm108 0h104v28H972zm108 0h104v28h-104zm108 0h104v28h-104zm108 0h104v28h-104zm108 0h104v28h-104zm108 0h104v28h-104zm108 0h104v28h-104zm108 0h104v28h-104zm108 0h84v28h-84zM0 706h52v28H0zm56 0h104v28H56zm108 0h104v28H164zm108 0h104v28H272zm108 0h104v28H380zm108 0h104v28H488zm108 0h104v28H596zm108 0h104v28H704zm108 0h104v28H812zm108 0h104v28H920zm108 0h104v28h-104zm108 0h104v28h-104zm108 0h104v28h-104zm108 0h104v28h-104zm108 0h104v28h-104zm108 0h104v28h-104zm108 0h104v28h-104zm108 0h104v28h-104zm108 0h28v28h-28zM0 738h104v28H0zm108 0h104v28H108zm108 0h104v28H216zm108 0h104v28H324zm108 0h104v28H432zm108 0h104v28H540zm108 0h104v28H648zm108 0h104v28H756zm108 0h104v28H864zm108 0h104v28H972zm108 0h104v28h-104zm108 0h104v28h-104zm108 0h104v28h-104zm108 0h104v28h-104zm108 0h104v28h-104zm108 0h104v28h-104zm108 0h104v28h-104zm108 0h84v28h-84zM0 770h52v28H0zm56 0h104v28H56zm108 0h104v28H164zm108 0h104v28H272zm108 0h104v28H380zm108 0h104v28H488zm108 0h104v28H596zm108 0h104v28H704zm108 0h104v28H812zm108 0h104v28H920zm108 0h104v28h-104zm108 0h104v28h-104zm108 0h104v28h-104zm108 0h104v28h-104zm108 0h104v28h-104zm108 0h104v28h-104zm108 0h104v28h-104zm108 0h104v28h-104zm108 0h28v28h-28zM0 802h104v28H0zm108 0h104v28H108zm108 0h104v28H216zm108 0h104v28H324zm108 0h104v28H432zm108 0h104v28H540zm108 0h104v28H648zm108 0h104v28H756zm108 0h104v28H864zm108 0h104v28H972zm108 0h104v28h-104zm108 0h104v28h-104zm108 0h104v28h-104zm108 0h104v28h-104zm108 0h104v28h-104zm108 0h104v28h-104zm108 0h104v28h-104zm108 0h84v28h-84zM0 834h52v28H0zm56 0h104v28H56zm108 0h104v28H164zm108 0h104v28H272zm108 0h104v28H380zm108 0h104v28H488zm108 0h104v28H596zm108 0h104v28H704zm108 0h104v28H812zm108 0h104v28H920zm108 0h104v28h-104zm108 0h104v28h-104zm108 0h104v28h-104zm108 0h104v28h-104zm108 0h104v28h-104zm108 0h104v28h-104zm108 0h104v28h-104zm108 0h104v28h-104zm108 0h28v28h-28zM0 866h104v28H0zm108 0h104v28H108zm108 0h104v28H216zm108 0h104v28H324zm108 0h104v28H432zm108 0h104v28H540zm108 0h104v28H648zm108 0h104v28H756zm108 0h104v28H864zm108 0h104v28H972zm108 0h104v28h-104zm108 0h104v28h-104zm108 0h104v28h-104zm108 0h104v28h-104zm108 0h104v28h-104zm108 0h104v28h-104zm108 0h104v28h-104zm108 0h84v28h-84zM0 898h52v28H0zm56 0h104v28H56zm108 0h104v28H164zm108 0h104v28H272zm108 0h104v28H380zm108 0h104v28H488zm108 0h104v28H596zm108 0h104v28H704zm108 0h104v28H812zm108 0h104v28H920zm108 0h104v28h-104zm108 0h104v28h-104zm108 0h104v28h-104zm108 0h104v28h-104zm108 0h104v28h-104zm108 0h104v28h-104zm108 0h104v28h-104zm108 0h104v28h-104zm108 0h28v28h-28zM0 930h104v28H0zm108 0h104v28H108zm108 0h104v28H216zm108 0h104v28H324zm108 0h104v28H432zm108 0h104v28H540zm108 0h104v28H648zm108 0h104v28H756zm108 0h104v28H864zm108 0h104v28H972zm108 0h104v28h-104zm108 0h104v28h-104zm108 0h104v28h-104zm108 0h104v28h-104zm108 0h104v28h-104zm108 0h104v28h-104zm108 0h104v28h-104zm108 0h84v28h-84zM0 962h52v28H0zm56 0h104v28H56zm108 0h104v28H164zm108 0h104v28H272zm108 0h104v28H380zm108 0h104v28H488zm108 0h104v28H596zm108 0h104v28H704zm108 0h104v28H812zm108 0h104v28H920zm108 0h104v28h-104zm108 0h104v28h-104zm108 0h104v28h-104zm108 0h104v28h-104zm108 0h104v28h-104zm108 0h104v28h-104zm108 0h104v28h-104zm108 0h104v28h-104zm108 0h28v28h-28zM0 994h104v28H0zm108 0h104v28H108zm108 0h104v28H216zm108 0h104v28H324zm108 0h104v28H432zm108 0h104v28H540zm108 0h104v28H648zm108 0h104v28H756zm108 0h104v28H864zm108 0h104v28H972zm108 0h104v28h-104zm108 0h104v28h-104zm108 0h104v28h-104zm108 0h104v28h-104zm108 0h104v28h-104zm108 0h104v28h-104zm108 0h104v28h-104zm108 0h84v28h-84zM0 1026h52v28H0zm56 0h104v28H56zm108 0h104v28H164zm108 0h104v28H272zm108 0h104v28H380zm108 0h104v28H488zm108 0h104v28H596zm108 0h104v28H704zm108 0h104v28H812zm108 0h104v28H920zm108 0h104v28h-104zm108 0h104v28h-104zm108 0h104v28h-104zm108 0h104v28h-104zm108 0h104v28h-104zm108 0h104v28h-104zm108 0h104v28h-104zm108 0h104v28h-104zm108 0h28v28h-28zM0 1058h104v28H0zm108 0h104v28H108zm108 0h104v28H216zm108 0h104v28H324zm108 0h104v28H432zm108 0h104v28H540zm108 0h104v28H648zm108 0h104v28H756zm108 0h104v28H864zm108 0h104v28H972zm108 0h104v28h-104zm108 0h104v28h-104zm108 0h104v28h-104zm108 0h104v28h-104zm108 0h104v28h-104zm108 0h104v28h-104zm108 0h104v28h-104zm108 0h84v28h-84zM0 1090h52v28H0zm56 0h104v28H56zm108 0h104v28H164zm108 0h104v28H272zm108 0h104v28H380zm108 0h104v28H488zm108 0h104v28H596zm108 0h104v28H704zm108 0h104v28H812zm108 0h104v28H920zm108 0h104v28h-104zm108 0h104v28h-104zm108 0h104v28h-104zm108 0h104v28h-104zm108 0h104v28h-104zm108 0h104v28h-104zm108 0h104v28h-104zm108 0h104v28h-104zm108 0h28v28h-28zM0 1122h104v28H0zm108 0h104v28H108zm108 0h104v28H216zm108 0h104v28H324zm108 0h104v28H432zm108 0h104v28H540zm108 0h104v28H648zm108 0h104v28H756zm108 0h104v28H864zm108 0h104v28H972zm108 0h104v28h-104zm108 0h104v28h-104zm108 0h104v28h-104zm108 0h104v28h-104zm108 0h104v28h-104zm108 0h104v28h-104zm108 0h104v28h-104zm108 0h84v28h-84zM0 1154h52v28H0zm56 0h104v28H56zm108 0h104v28H164zm108 0h104v28H272zm108 0h104v28H380zm108 0h104v28H488zm108 0h104v28H596zm108 0h104v28H704zm108 0h104v28H812zm108 0h104v28H920zm108 0h104v28h-104zm108 0h104v28h-104zm108 0h104v28h-104zm108 0h104v28h-104zm108 0h104v28h-104zm108 0h104v28h-104zm108 0h104v28h-104zm108 0h104v28h-104zm108 0h28v28h-28zM0 1186h104v28H0zm108 0h104v28H108zm108 0h104v28H216zm108 0h104v28H324zm108 0h104v28H432zm108 0h104v28H540zm108 0h104v28H648zm108 0h104v28H756zm108 0h104v28H864zm108 0h104v28H972zm108 0h104v28h-104zm108 0h104v28h-104zm108 0h104v28h-104zm108 0h104v28h-104zm108 0h104v28h-104zm108 0h104v28h-104zm108 0h104v28h-104zm108 0h84v28h-84zM0 1218h52v28H0zm56 0h104v28H56zm108 0h104v28H164zm108 0h104v28H272zm108 0h104v28H380zm108 0h104v28H488zm108 0h104v28H596zm108 0h104v28H704zm108 0h104v28H812zm108 0h104v28H920zm108 0h104v28h-104zm108 0h104v28h-104zm108 0h104v28h-104zm108 0h104v28h-104zm108 0h104v28h-104zm108 0h104v28h-104zm108 0h104v28h-104zm108 0h104v28h-104zm108 0h28v28h-28zM0 1250h104v28H0zm108 0h104v28H108zm108 0h104v28H216zm108 0h104v28H324zm108 0h104v28H432zm108 0h104v28H540zm108 0h104v28H648zm108 0h104v28H756zm108 0h104v28H864zm108 0h104v28H972zm108 0h104v28h-104zm108 0h104v28h-104zm108 0h104v28h-104zm108 0h104v28h-104zm108 0h104v28h-104zm108 0h104v28h-104zm108 0h104v28h-104zm108 0h84v28h-84zM0 1282h52v28H0zm56 0h104v28H56zm108 0h104v28H164zm108 0h104v28H272zm108 0h104v28H380zm108 0h104v28H488zm108 0h104v28H596zm108 0h104v28H704zm108 0h104v28H812zm108 0h104v28H920zm108 0h104v28h-104zm108 0h104v28h-104zm108 0h104v28h-104zm108 0h104v28h-104zm108 0h104v28h-104zm108 0h104v28h-104zm108 0h104v28h-104zm108 0h104v28h-104zm108 0h28v28h-28zM0 1314h104v28H0zm108 0h104v28H108zm108 0h104v28H216zm108 0h104v28H324zm108 0h104v28H432zm108 0h104v28H540zm108 0h104v28H648zm108 0h104v28H756zm108 0h104v28H864zm108 0h104v28H972zm108 0h104v28h-104zm108 0h104v28h-104zm108 0h104v28h-104zm108 0h104v28h-104zm108 0h104v28h-104zm108 0h104v28h-104zm108 0h104v28h-104zm108 0h84v28h-84zM0 1346h52v28H0zm56 0h104v28H56zm108 0h104v28H164zm108 0h104v28H272zm108 0h104v28H380zm108 0h104v28H488zm108 0h104v28H596zm108 0h104v28H704zm108 0h104v28H812zm108 0h104v28H920zm108 0h104v28h-104zm108 0h104v28h-104zm108 0h104v28h-104zm108 0h104v28h-104zm108 0h104v28h-104zm108 0h104v28h-104zm108 0h104v28h-104zm108 0h104v28h-104zm108 0h28v28h-28zM0 1378h104v28H0zm108 0h104v28H108zm108 0h104v28H216zm108 0h104v28H324zm108 0h104v28H432zm108 0h104v28H540zm108 0h104v28H648zm108 0h104v28H756zm108 0h104v28H864zm108 0h104v28H972zm108 0h104v28h-104zm108 0h104v28h-104zm108 0h104v28h-104zm108 0h104v28h-104zm108 0h104v28h-104zm108 0h104v28h-104zm108 0h104v28h-104zm108 0h84v28h-84zM0 1410h52v28H0zm56 0h104v28H56zm108 0h104v28H164zm108 0h104v28H272zm108 0h104v28H380zm108 0h104v28H488zm108 0h104v28H596zm108 0h104v28H704zm108 0h104v28H812zm108 0h104v28H920zm108 0h104v28h-104zm108 0h104v28h-104zm108 0h104v28h-104zm108 0h104v28h-104zm108 0h104v28h-104zm108 0h104v28h-104zm108 0h104v28h-104zm108 0h104v28h-104zm108 0h28v28h-28zM0 1442h104v28H0zm108 0h104v28H108zm108 0h104v28H216zm108 0h104v28H324zm108 0h104v28H432zm108 0h104v28H540zm108 0h104v28H648zm108 0h104v28H756zm108 0h104v28H864zm108 0h104v28H972zm108 0h104v28h-104zm108 0h104v28h-104zm108 0h104v28h-104zm108 0h104v28h-104zm108 0h104v28h-104zm108 0h104v28h-104zm108 0h104v28h-104zm108 0h84v28h-84zM0 1474h52v28H0zm56 0h104v28H56zm108 0h104v28H164zm108 0h104v28H272zm108 0h104v28H380zm108 0h104v28H488zm108 0h104v28H596zm108 0h104v28H704zm108 0h104v28H812zm108 0h104v28H920zm108 0h104v28h-104zm108 0h104v28h-104zm108 0h104v28h-104zm108 0h104v28h-104zm108 0h104v28h-104zm108 0h104v28h-104zm108 0h104v28h-104zm108 0h104v28h-104zm108 0h28v28h-28zM0 1506h104v28H0zm108 0h104v28H108zm108 0h104v28H216zm108 0h104v28H324zm108 0h104v28H432zm108 0h104v28H540zm108 0h104v28H648zm108 0h104v28H756zm108 0h104v28H864zm108 0h104v28H972zm108 0h104v28h-104zm108 0h104v28h-104zm108 0h104v28h-104zm108 0h104v28h-104zm108 0h104v28h-104zm108 0h104v28h-104zm108 0h104v28h-104zm108 0h84v28h-84zM0 1538h52v28H0zm56 0h104v28H56zm108 0h104v28H164zm108 0h104v28H272zm108 0h104v28H380zm108 0h104v28H488zm108 0h104v28H596zm108 0h104v28H704zm108 0h104v28H812zm108 0h104v28H920zm108 0h104v28h-104zm108 0h104v28h-104zm108 0h104v28h-104zm108 0h104v28h-104zm108 0h104v28h-104zm108 0h104v28h-104zm108 0h104v28h-104zm108 0h104v28h-104zm108 0h28v28h-28zM0 1570h104v28H0zm108 0h104v28H108zm108 0h104v28H216zm108 0h104v28H324zm108 0h104v28H432zm108 0h104v28H540zm108 0h104v28H648zm108 0h104v28H756zm108 0h104v28H864zm108 0h104v28H972zm108 0h104v28h-104zm108 0h104v28h-104zm108 0h104v28h-104zm108 0h104v28h-104zm108 0h104v28h-104zm108 0h104v28h-104zm108 0h104v28h-104zm108 0h84v28h-84zM0 1602h52v28H0zm56 0h104v28H56zm108 0h104v28H164zm108 0h104v28H272zm108 0h104v28H380zm108 0h104v28H488zm108 0h104v28H596zm108 0h104v28H704zm108 0h104v28H812zm108 0h104v28H920zm108 0h104v28h-104zm108 0h104v28h-104zm108 0h104v28h-104zm108 0h104v28h-104zm108 0h104v28h-104zm108 0h104v28h-104zm108 0h104v28h-104zm108 0h104v28h-104zm108 0h28v28h-28zM0 1634h104v28H0zm108 0h104v28H108zm108 0h104v28H216zm108 0h104v28H324zm108 0h104v28H432zm108 0h104v28H540zm108 0h104v28H648zm108 0h104v28H756zm108 0h104v28H864zm108 0h104v28H972zm108 0h104v28h-104zm108 0h104v28h-104zm108 0h104v28h-104zm108 0h104v28h-104zm108 0h104v28h-104zm108 0h104v28h-104zm108 0h104v28h-104zm108 0h84v28h-84zM0 1666h52v28H0zm56 0h104v28H56zm108 0h104v28H164zm108 0h104v28H272zm108 0h104v28H380zm108 0h104v28H488zm108 0h104v28H596zm108 0h104v28H704zm108 0h104v28H812zm108 0h104v28H920zm108 0h104v28h-104zm108 0h104v28h-104zm108 0h104v28h-104zm108 0h104v28h-104zm108 0h104v28h-104zm108 0h104v28h-104zm108 0h104v28h-104zm108 0h104v28h-104zm108 0h28v28h-28zM0 1698h104v28H0zm108 0h104v28H108zm108 0h104v28H216zm108 0h104v28H324zm108 0h104v28H432zm108 0h104v28H540zm108 0h104v28H648zm108 0h104v28H756zm108 0h104v28H864zm108 0h104v28H972zm108 0h104v28h-104zm108 0h104v28h-104zm108 0h104v28h-104zm108 0h104v28h-104zm108 0h104v28h-104zm108 0h104v28h-104zm108 0h104v28h-104zm108 0h84v28h-84zM0 1730h52v28H0zm56 0h104v28H56zm108 0h104v28H164zm108 0h104v28H272zm108 0h104v28H380zm108 0h104v28H488zm108 0h104v28H596zm108 0h104v28H704zm108 0h104v28H812zm108 0h104v28H920zm108 0h104v28h-104zm108 0h104v28h-104zm108 0h104v28h-104zm108 0h104v28h-104zm108 0h104v28h-104zm108 0h104v28h-104zm108 0h104v28h-104zm108 0h104v28h-104zm108 0h28v28h-28zM0 1762h104v28H0zm108 0h104v28H108zm108 0h104v28H216zm108 0h104v28H324zm108 0h104v28H432zm108 0h104v28H540zm108 0h104v28H648zm108 0h104v28H756zm108 0h104v28H864zm108 0h104v28H972zm108 0h104v28h-104zm108 0h104v28h-104zm108 0h104v28h-104zm108 0h104v28h-104zm108 0h104v28h-104zm108 0h104v28h-104zm108 0h104v28h-104zm108 0h84v28h-84zM0 1794h52v28H0zm56 0h104v28H56zm108 0h104v28H164zm108 0h104v28H272zm108 0h104v28H380zm108 0h104v28H488zm108 0h104v28H596zm108 0h104v28H704zm108 0h104v28H812zm108 0h104v28H920zm108 0h104v28h-104zm108 0h104v28h-104zm108 0h104v28h-104zm108 0h104v28h-104zm108 0h104v28h-104zm108 0h104v28h-104zm108 0h104v28h-104zm108 0h104v28h-104zm108 0h28v28h-28zM0 1826h104v28H0zm108 0h104v28H108zm108 0h104v28H216zm108 0h104v28H324zm108 0h104v28H432zm108 0h104v28H540zm108 0h104v28H648zm108 0h104v28H756zm108 0h104v28H864zm108 0h104v28H972zm108 0h104v28h-104zm108 0h104v28h-104zm108 0h104v28h-104zm108 0h104v28h-104zm108 0h104v28h-104zm108 0h104v28h-104zm108 0h104v28h-104zm108 0h84v28h-84zM0 1858h52v28H0zm56 0h104v28H56zm108 0h104v28H164zm108 0h104v28H272zm108 0h104v28H380zm108 0h104v28H488zm108 0h104v28H596zm108 0h104v28H704zm108 0h104v28H812zm108 0h104v28H920zm108 0h104v28h-104zm108 0h104v28h-104zm108 0h104v28h-104zm108 0h104v28h-104zm108 0h104v28h-104zm108 0h104v28h-104zm108 0h104v28h-104zm108 0h104v28h-104zm108 0h28v28h-28zM0 1890h104v28H0zm108 0h104v28H108zm108 0h104v28H216zm108 0h104v28H324zm108 0h104v28H432zm108 0h104v28H540zm108 0h104v28H648zm108 0h104v28H756zm108 0h104v28H864zm108 0h104v28H972zm108 0h104v28h-104zm108 0h104v28h-104zm108 0h104v28h-104zm108 0h104v28h-104zm108 0h104v28h-104zm108 0h104v28h-104zm108 0h104v28h-104zm108 0h84v28h-84z" fill="#a18267"/></svg>