<svg version="1.1" xmlns="http://www.w3.org/2000/svg" x="0" y="0" viewBox="0 0 1920 1920" xml:space="preserve"><style type="text/css">.st1{fill:#748993}</style><path fill="#36434f" d="M0 0h1920v1920H0z"/><path class="st1" d="M557.9 1018.4c-5.7-68.9-69-168.6-161.3-254.1-45.2-41.8-93.3-76.4-139.1-100-50.8-26.1-96.1-37.8-134.8-34.6-37.7 3.1-71.5 36-100.3 97.8C14.5 744.3 7 763.2 0 783.9v3.7c7.4-22.1 15.2-42 23.4-59.6 28.7-61.3 62.1-94 99.4-97.1 4.1-.3 8.4-.5 12.7-.5 35.5 0 76.3 11.7 121.5 34.9 45.7 23.5 93.7 58 138.8 99.8 92.1 85.3 155.2 184.7 160.9 253.3 2.3 27.2-.2 41.7-7.7 45.8-11.2 6.1-33.1-11-63.5-34.6-24.9-19.4-56-43.5-90.6-61.7-40.6-21.3-77.9-30.2-114-27.2-36.7 3-76.4 32.5-121.6 90-40.5 51.6-78.2 116.7-109.8 173.6-8.5 15.4-16.7 30.4-24.6 44.8-8.7 16-17.1 31.3-24.9 45.2v2.4c8-14.3 16.7-30.2 25.9-47.1 7.9-14.5 16.1-29.4 24.6-44.8 31.5-56.9 69.2-121.9 109.7-173.5 45-57.3 84.5-86.6 120.8-89.6 81.1-6.7 152 48.4 203.8 88.6 30.7 23.9 52.9 41.2 64.8 34.7 7.9-4 10.6-18.9 8.3-46.6z"/><path class="st1" d="M594.8 1018.6c-3.5-33.5-21.7-74.9-54.2-122.9-26.1-38.6-61.3-81.7-107.7-131.9-46.4-50.2-104.3-87.3-176.9-113.4-41.6-14.9-73.8-20.1-104.4-16.7-38.7 4.2-73.3 37.3-102.8 98.2C30.6 769.3 14.3 817.3 0 875v4.9c14.5-59.7 31.2-109.2 49.8-147.5 29.4-60.5 63.7-93.3 101.9-97.5 5.9-.6 11.8-1 17.9-1 25.3 0 52.6 5.7 85.9 17.7 72.5 26 130.2 63 176.5 113.1 102.5 110.8 155.3 193.9 161.6 254.1 2.9 27.5.8 42.3-6.5 46.4-10.7 6-32.6-10.5-62.8-33.4-4.2-3.2-8.6-6.5-13.1-9.9-24.2-18.1-53.4-38.7-86-54-37.4-17.4-72-24.6-105.9-21.8-80.1 6.6-164.2 133.9-235.9 257.6-9.9 17.2-19.3 33.7-28.4 49.7-21.3 37.7-40.1 70.8-55.1 91.7v2.1c15-20.5 33.8-53.6 56.1-93.1 9.1-16 18.4-32.5 28.4-49.7 71.5-123.4 155.4-250.5 234.9-257 71.7-5.9 136.8 34.9 191.1 75.5 4.5 3.4 8.9 6.7 13.1 9.9 30.6 23.2 52.6 39.9 64.1 33.5 7.8-4.5 10.1-19.6 7.2-47.7z"/><path class="st1" d="M632.2 1018.9c-8.2-65.2-73.8-146.1-137.3-224.3-8.3-10.2-16.9-20.8-25.2-31.2-52.5-65.5-117.6-90.6-179.8-110.8-39.7-12.9-71.8-19.9-108.9-14.9-72.5 9.7-130 111.9-170.8 303.9-3.8 18-7.2 36.2-10.2 54.2v7.5c3.2-20.5 7-41 11.3-61.5 40.8-191.5 97.9-293.4 169.8-303l-.1-.6.1.6c36.9-4.9 68.8 2.1 108.4 14.9 62 20.1 127 45.2 179.3 110.4 8.3 10.4 16.9 20.9 25.2 31.2 63.4 78.1 128.9 158.8 137 223.7 3.5 27.9 1.8 42.9-5.3 47-10.3 6-32-10-62.1-32.2-3.9-2.9-7.9-5.8-12.1-8.9-54.3-39.7-119.7-79.4-193.1-73.4-37.6 3.1-78.7 31.1-125.7 85.9-43.1 50.2-83.9 114.9-114.7 165.6-11 18.2-21.3 35.6-31.2 52.4-35.1 60-63.1 107.6-79.5 107.6-.5 0-.9 0-1.3-.1-2.2-.4-4.2-1.8-6-4.1v1.8c1.7 1.9 3.7 3.1 5.8 3.5.5.1 1 .1 1.5.1 17 0 43.8-45.6 80.5-108.1 9.9-16.8 20.1-34.3 31.2-52.4 30.7-50.7 71.5-115.3 114.5-165.5 46.8-54.5 87.6-82.4 124.9-85.5 73.1-5.9 138.2 33.7 192.3 73.2 4.2 3 8.2 6 12.1 8.9 30.5 22.5 52.5 38.7 63.4 32.3 7.8-4.5 9.6-19.3 6-48.2z"/><path class="st1" d="M40.4 1359.2c-.5 0-1.1 0-1.6-.1-6.7-1-11.7-8.6-15.4-23.1-9.5-38-14.9-99.2-14.3-163.9.5-54.9 5.5-139.2 26.1-229.4C55 856 77.1 790 102.8 740.8c31-59.4 67.3-92.7 107.9-98.9l.1.6-.1-.6c38-5.8 68-.2 113.5 13.1 3.3 1 6.6 1.9 9.9 2.9 63.8 18.5 124.1 36 172.8 105.3 17.7 25.2 37.3 50.5 56.3 74.9 50.8 65.5 98.9 127.4 106.8 181.3 4.3 29.2 2.8 44.3-4.7 48.9-10.6 6.4-31.4-8.5-63-31.2-3.5-2.5-7.2-5.2-10.9-7.8-53.9-38.4-119.1-76.9-193.6-70.9-37.7 3-79.2 30.3-126.9 83.4-44.2 49.2-85.7 112.1-117 161.5-11.8 18.6-22.7 36.4-33.2 53.7-36.2 59-62.6 102.2-80.3 102.2zm199.3-718.4c-9.3 0-18.8.7-28.8 2.3-40.1 6.2-76.1 39.2-107 98.3C78.2 790.5 56.1 856.5 36.3 943c-38.4 167.8-27.6 330-11.8 392.8 3.5 14 8.2 21.3 14.4 22.3.5.1.9.1 1.4.1 17.1 0 44.7-45.1 79.3-101.8 10.5-17.2 21.4-35 33.2-53.7 31.3-49.3 72.8-112.3 117.1-161.6 47.9-53.3 89.6-80.7 127.7-83.8 74.9-6 140.3 32.6 194.4 71.1 3.8 2.7 7.4 5.3 10.9 7.8 30 21.6 51.8 37.1 61.7 31.1 7-4.2 8.3-19.4 4.1-47.7-7.8-53.6-55.7-115.4-106.4-180.8-19-24.4-38.6-49.7-56.3-75-48.5-68.9-108.6-86.4-172.2-104.8-3.3-1-6.6-1.9-9.9-2.9-33.3-9.7-58.3-15.3-84.2-15.3z"/><path class="st1" d="M73.5 1354.3c-.5 0-1.1 0-1.6-.1-7.1-.9-12.7-8.2-17.1-22.3-11.9-38.4-19.2-97.3-19.8-161.4-.5-53.9 3.4-136.9 25.4-226.8 20.9-85.4 43.7-150.3 69.8-198.5 15.2-28.1 31.8-50.6 49.2-66.9 19-17.7 39.6-28.6 61.2-32.3 41.1-7.1 68.8-1.7 118 11.3 12.9 3.4 26.6 6.1 39.8 8.8 58.1 11.6 118.3 23.6 145.9 96.8 41.3 43.9 77.8 89 105.5 130.6 32.8 49.2 52.3 91.7 58.1 126.3 5 29.7 3.9 45-3.4 49.6-1.7 1-3.6 1.5-5.8 1.5-11.5 0-30.4-13.2-56.9-31.7-3.1-2.2-6.3-4.4-9.6-6.7-50.6-35.1-118.5-74.6-194.9-68.6-84.3 6.7-177 131.1-248.4 238.8-12.4 18.7-23.7 36.5-34.7 53.8-35.9 56.5-62.1 97.8-80.7 97.8zm167.3-707.7l.1.6c-41.1 7.1-78 40.2-109.6 98.6-26 48.1-48.9 112.9-69.7 198.2-40.4 165.3-24.9 325.4-5.6 387.5 4.2 13.6 9.5 20.6 16.1 21.5 17.9 2.4 44.5-39.3 81.2-97.1 11-17.2 22.3-35 34.7-53.8 71.5-107.9 164.5-232.6 249.3-239.3 76.8-6.1 144.9 33.6 195.6 68.8 3.3 2.3 6.5 4.5 9.7 6.7 30.1 21 51.8 36.2 61.4 30.1 6.8-4.3 7.7-19.7 2.9-48.4-5.8-34.5-25.3-76.8-58-125.8-27.7-41.5-64.1-86.6-105.5-130.5l-.1-.2c-27.4-72.7-87.2-84.6-145-96.2-13.2-2.6-26.9-5.4-39.8-8.8-49.1-13-76.6-18.3-117.5-11.3l-.2-.6z"/><path class="st1" d="M106.7 1349.4c-.5 0-1.1 0-1.6-.1-7.5-.9-13.6-7.9-18.6-21.4-14.3-38.4-23.5-96.3-25.4-158.9-1.6-52.8 1.4-134.5 24.8-224 21.9-84.1 45.5-148 72-195.1 15.6-27.8 32.6-50.2 50.3-66.4 19.4-17.7 40.5-28.8 62.6-33l.1.6-.1-.6c44.3-8.4 71-2.8 122.5 9.5 15.3 3.7 31.7 5.9 47.5 8.1 58.2 8 118.3 16.3 141 94.9 54.6 60.1 148.3 173.4 164.3 257.6 5.7 30.1 5 45.6-2.2 50.3-1.6 1.1-3.6 1.6-5.8 1.6-11.3 0-30.3-12.9-56.8-30.8-2.7-1.8-5.4-3.6-8.2-5.5-50.4-34.1-118.3-72.4-196.1-66.3-85.7 6.8-180.2 127.9-252.9 232.8-12.8 18.5-24.5 36-35.7 53-36 54-62.2 93.7-81.7 93.7zm203.5-701.9c-12.2 0-24.8 1.2-39.2 4-42 7.9-79.8 41.2-112.2 98.9-26.4 47.1-49.9 110.8-71.9 194.8-42.8 164.1-23.1 318.5.6 382.2 4.9 13.1 10.7 19.9 17.7 20.7.5.1 1 .1 1.5.1 18.8 0 44.9-39.4 80.7-93.4 11.3-17 22.9-34.5 35.7-53 72.8-105 167.5-226.5 253.7-233.3 78.2-6.1 146.3 32.3 196.9 66.5 2.8 1.9 5.5 3.7 8.2 5.5 30.2 20.5 52.1 35.3 61.3 29.2 6.6-4.4 7.2-20 1.6-49.1-15.9-83.9-109.6-197.1-164.1-257.1l-.1-.1v-.1c-22.4-78-82.2-86.2-140.1-94.1-15.9-2.2-32.3-4.4-47.6-8.1-34.4-8.4-57.7-13.6-82.7-13.6z"/><path class="st1" d="M139.9 1344.5c-.5 0-1 0-1.5-.1-7.9-.8-14.5-7.5-20.2-20.6-16.7-38.4-28-95.5-31.1-156.5-3.7-74.1 4.6-150.6 24.2-221.2 23-82.8 47.2-145.6 74.1-191.8 16-27.5 33.3-49.7 51.5-66 19.8-17.8 41.4-29.1 64.1-33.7 47.1-9.6 73.1-4 124.9 7.2l2.2.5c17.2 3.7 35.8 5.2 53.8 6.6 29.4 2.3 59.7 4.7 84.4 17 27.6 13.8 45 38.9 53.2 76.7 96.6 110.7 152.1 197.6 164.9 258.3 6.4 30.6 6.2 46.3-.9 51.1-1.6 1.1-3.6 1.6-5.8 1.6-11.2 0-30.3-12.6-56.9-30.1l-6.5-4.3c-50.3-33-118.1-70.1-197.4-63.9-39.2 3.1-82.7 28.3-133 77.2-48.2 46.9-94.1 107.8-124.4 149.5-13.1 18-24.9 35.1-36.4 51.7-36.3 52.5-62.8 90.8-83.2 90.8zm161.2-689.3l.1.6c-102.7 21-156.9 175.9-188.7 290.7-19.6 70.5-27.9 146.9-24.2 220.8 3.1 60.9 14.4 117.8 31 156.1 5.5 12.6 11.8 19.1 19.2 19.9 19.9 2 46.6-36.7 83.7-90.2 11.5-16.5 23.3-33.6 36.4-51.7 74.2-102.2 170.6-220.3 258.2-227.2 79.6-6.2 147.7 31 198.1 64.1l6.5 4.3c30.5 20.1 52.5 34.5 61.4 28.5 6.6-4.5 6.7-19.9.4-49.9-12.7-60.6-68.1-147.3-164.7-257.9l-.1-.1v-.1c-18-83.6-75.6-88.2-136.6-92.9-18-1.4-36.7-2.9-54-6.6l-2.2-.5c-51.6-11.2-77.5-16.8-124.4-7.2l-.1-.7z"/><path class="st1" d="M173.1 1339.6c-.5 0-1 0-1.5-.1-8.3-.7-15.3-7.1-21.6-19.7-19.2-38.5-32.6-94.7-36.9-154.2-5.2-72.5 3-148 23.8-218.4 24-81.5 48.9-143.2 76.2-188.5 34.6-57.5 73.3-90.1 118.2-100l.1.6-.1-.6c48.2-10.5 73.4-5.5 123.7 4.3l7.9 1.6c18.8 3.7 39.4 4.2 59.3 4.6 29.8.7 60.7 1.4 85.1 13.2 27.3 13.2 43.6 39.3 49.9 79.9 67.9 80.9 148 183.5 165.5 259 7.3 31.5 7.4 47 .4 51.9-9.3 6.6-30.7-7.1-63.1-27.8l-4.6-2.9c-46.2-29.5-117-67.9-198.7-61.6-39.1 3-84.5 28.3-135 75.1-49.4 45.8-96 105-126.8 145.5-13.2 17.4-25.1 33.9-36.7 49.8-36.9 51.1-63.8 88.3-85.1 88.3zm207.1-685.4c-14.7 0-29.9 1.7-48.7 5.8-44.6 9.7-83 42.2-117.4 99.4-27.2 45.2-52.1 106.8-76 188.2-43.9 149.3-24 297.3 13 371.7 6.1 12.2 12.8 18.4 20.6 19 .5 0 .9.1 1.4.1 20.7 0 47.4-36.9 84.1-87.5 11.6-15.9 23.5-32.4 36.7-49.8 30.8-40.6 77.5-99.8 127-145.7 51.4-47.7 95.8-72.4 135.7-75.4 82-6.3 153.1 32.2 199.4 61.8l4.6 2.9c32 20.4 53.1 33.9 61.8 27.8 6.4-4.5 6.2-20.2-.9-50.7C804.1 946.4 724 844 656.2 763.1l-.1-.1v-.2c-6.3-40.7-22-65.9-49.3-79.1-24.1-11.7-53.5-12.4-84.6-13.1-20-.5-40.6-.9-59.5-4.6l-7.9-1.6c-30.6-6-51.8-10.2-74.6-10.2z"/><path class="st1" d="M204.1 1335.6c-.9 0-1.8-.1-2.7-.2-7.7-1.3-13.5-8-17.9-20.5-26-31.3-42.7-84.2-47.2-148.8-4.7-69.3 4.9-144.9 27.8-218.6 25.3-81.3 50.2-140.1 78.2-185.1 35.4-56.8 74.9-89.6 120.8-100.2l.1.6-.1-.6c49.4-11.4 72.6-7.3 123.3 1.8 4.1.7 8.4 1.5 12.8 2.3 20.3 3.6 42.7 2.9 64.4 2.3 31.8-.9 61.8-1.8 86 9.6 27.3 12.9 42.2 39.3 46.8 83.2 61.8 76.9 146.5 182.1 166.1 259.7 8.1 32 8.6 47.8 1.8 52.8-9.1 6.6-30.8-6.8-63.7-27.2l-2.5-1.5c-46-28.5-116.8-65.6-199.9-59.3-39.6 3-85.7 27.6-137 73.1-38.5 34.1-79.6 79-129.3 141.5-10.1 12.6-19.7 25-29 36.9-42.4 54.7-76.3 98.2-98.8 98.2zm212.7-679.1c-15.7 0-32.1 2-53.2 6.9-45.6 10.5-84.9 43.1-120.1 99.6-28 44.9-52.8 103.7-78.1 184.9-22.9 73.6-32.5 149-27.8 218.1 4.4 64.4 21.1 117 47 148.2l.1.2c4.2 12.2 9.8 18.7 17 19.9 21.7 3.6 56.5-41.1 100.5-97.6 9.3-11.9 18.9-24.3 29-36.9 49.8-62.5 91-107.6 129.5-141.7 51.5-45.6 97.8-70.3 137.7-73.4 83.5-6.4 154.5 30.9 200.6 59.5l2.5 1.5c32.5 20.1 54 33.4 62.4 27.3 6.3-4.6 5.6-20.5-2.2-51.5C842 944.1 757.4 838.9 695.6 762l-.1-.1v-.2c-9.9-95.4-69-93.7-131.6-91.9-21.7.6-44.2 1.3-64.6-2.3-4.5-.8-8.7-1.6-12.8-2.3-28.9-5.1-48.8-8.7-69.7-8.7z"/><path class="st1" d="M237.2 1331c-1 0-1.9-.1-2.8-.2-8-1.3-14.1-7.8-18.9-20-28.9-30.7-47.8-82.4-53.4-145.8-6-68 3.7-142.8 27.8-216.3 26.3-79.9 51.8-137.7 80.3-181.8 36.2-56.2 76.6-89 123.5-100.4l.1.6-.1-.6c50.9-12.4 73.6-8.6 123.6-.5 5.4.9 11 1.8 17.1 2.8 21.7 3.5 45.8 1.6 69.1-.2 39.6-3.1 77.1-6 102.1 15.8 17.1 14.9 26.6 40.1 28.8 76.9 5.5 7.1 11.1 14.4 16.8 21.8 58.2 75.2 130.7 168.8 149.8 238.7 8.9 32.5 9.8 48.6 3.1 53.7-8.9 6.7-29.9-5.9-64.7-26.8-45.8-27.5-116.6-63.4-201.2-57-92.5 7-198.9 122.4-270.8 208.5-10.2 12.2-19.9 24.1-29.3 35.6-43 52.9-77.5 95.1-100.9 95.2zm214.4-671.4c-16.9 0-34.3 2.3-57.6 7.9-106.3 25.8-164.3 164-202.9 281.4-53.5 162.6-27.7 304.7 25.4 361l.1.2c4.6 11.8 10.5 18.1 18 19.3.9.1 1.8.2 2.7.2 22.7 0 57.1-42.1 100.1-94.8 9.4-11.5 19.1-23.5 29.3-35.7 72.1-86.3 178.6-201.9 271.6-208.9 84.9-6.4 155.9 29.5 201.9 57.2 33.2 19.9 55.1 33.1 63.4 26.9 6.2-4.7 5.1-20.8-3.6-52.4-19-69.6-91.5-163.2-149.6-238.3-5.8-7.5-11.4-14.8-16.9-21.9l-.1-.1v-.2c-2.2-36.6-11.5-61.5-28.4-76.2-24.7-21.5-61.9-18.6-101.3-15.5-23.4 1.8-47.5 3.7-69.4.2-6.1-1-11.7-1.9-17.1-2.8-26.9-4.4-45.9-7.5-65.6-7.5z"/><path class="st1" d="M270.3 1326.3c-1 0-2-.1-3-.2-8.3-1.2-14.8-7.6-19.9-19.4-31.7-30-52.9-80.7-59.6-142.9-7.2-66.7 2.4-140.7 27.8-214 27.2-78.4 53.3-135.2 82.3-178.5 37.1-55.5 78.3-88.4 126.2-100.6 52.4-13.3 74.9-9.9 124.3-2.6 6.5 1 13.4 2 20.9 3.1 23 3.3 48.8.1 73.7-3 39.9-4.9 77.6-9.6 102.2 11.6 17.3 15 26.2 41.5 27.1 81.2 10 13.6 20.7 27.8 32 42.7 54.6 72.4 116.5 154.5 135.3 218.5 9.8 33.1 11.1 49.4 4.5 54.6-1.6 1.3-3.7 1.9-6.2 1.9-10.5 0-29-10.4-57.1-26.8-71.6-41.6-137.8-59.5-202.4-54.7-94 7.1-202.1 118.9-275.3 202.5-10.3 11.7-20.1 23.2-29.6 34.3-43.9 51.3-78.9 92.3-103.2 92.3zm154-655.1l.1.6c-47.6 12.1-88.6 44.8-125.5 100.1-28.9 43.3-55 99.9-82.2 178.3-25.4 73.2-35 147-27.8 213.5 6.7 61.9 27.8 112.5 59.3 142.2l.1.2c4.9 11.5 11.2 17.6 19 18.8.9.1 1.9.2 2.9.2 23.7 0 58.5-40.8 102.2-91.9 9.5-11.1 19.3-22.6 29.6-34.3 73.3-83.7 181.6-195.8 276.1-202.9 37.9-2.8 77.1 2.2 116.5 15.1 27.8 9.1 56.2 22.1 86.6 39.8 31.3 18.2 53.9 31.3 61.9 25 6.1-4.8 4.7-20.8-4.9-53.3-18.8-63.8-80.6-145.8-135.1-218.1-11.3-15-22-29.2-32.1-42.9l-.1-.2v-.2c-.9-39.4-9.6-65.8-26.7-80.5-24.1-20.9-61.6-16.2-101.3-11.3-25 3.1-50.8 6.3-74 3-7.5-1.1-14.4-2.1-20.9-3.1-49.2-7.3-71.7-10.7-123.9 2.6l.2-.7z"/><path class="st1" d="M303.4 1323.3c-1.1 0-2.1-.1-3.2-.2-8.6-1.2-15.4-7.4-20.9-18.8-34.6-29.3-58-79-65.9-139.9-8.5-65.4 1.2-138.7 27.8-211.8 28.1-77 54.9-132.7 84.3-175.3 37.9-54.9 80.1-87.8 128.9-100.7 54-14.3 76.4-11.2 125.4-4.6 7.3 1 15.5 2.1 24.4 3.2 24.3 3.1 51.6-1.5 78.1-5.9 40.3-6.7 78.3-13.1 102.4 7.6 17.5 15 25.8 42.9 25.3 85.5 13.2 18.9 28 38.9 43.6 60 49.5 66.9 105.5 142.7 124.2 201.9 10.8 34.1 12.5 50.3 5.9 55.6-8.1 6.6-28.8-4.4-61.8-23-71.3-40.1-137.9-57.2-203.7-52.4-95.5 7.1-205.4 115.5-279.8 196.4-10.3 11.2-20.2 22.3-29.8 33-44.4 49.8-80 89.4-105.2 89.4zm151.3-646.1l.2.6C345.6 706.6 286.2 833.1 242.5 953c-26.6 72.9-36.2 146-27.8 211.2 7.8 60.7 31.1 110.2 65.5 139.3l.1.1.1.1c5.3 11.1 11.9 17.1 20 18.3 1 .1 2 .2 3.1.2 24.6 0 60-39.5 104.4-89 9.6-10.7 19.5-21.7 29.8-33 74.5-81 184.6-189.6 280.5-196.8 66-4.9 132.9 12.3 204.4 52.5 32.6 18.3 53 29.3 60.5 23.1 6-4.9 4.2-21.1-6.3-54.3-18.6-59.1-74.6-134.8-124.1-201.6C837.1 802 822.3 782 809 763l-.1-.2v-.2c.5-42.3-7.7-70-24.9-84.8-23.7-20.3-61.5-14-101.4-7.3-26.5 4.4-53.9 9-78.4 5.9-8.9-1.1-17.1-2.3-24.4-3.2-48.9-6.6-71.2-9.7-124.9 4.5l-.2-.5z"/><path class="st1" d="M336.5 1321.7c-1.1 0-2.3-.1-3.4-.2-8.9-1.2-16-7.2-21.9-18.2-37.5-28.6-63.1-77.3-72.1-137-9.7-64.2-.1-136.6 27.9-209.5 28.9-75.5 56.3-130.1 86.2-172 38.8-54.2 81.8-87.3 131.6-100.9l.2.6-.2-.6c55.6-15.2 76.4-12.7 126.7-6.4 8.2 1 17.4 2.2 27.6 3.3 25.6 2.9 54.4-3.1 82.4-8.9 40.6-8.4 79-16.4 102.8 3.7 17.7 15 25.4 44.3 23.6 89.7 15.5 23.3 33.7 48.2 53 74.6 47.6 65.2 96.9 132.6 115.5 188 11.7 34.8 13.8 51.2 7.4 56.6-7.8 6.6-28.1-3.6-60.4-21.2-71-38.6-138-54.9-205-50-41.5 3.1-90.2 24.8-144.8 64.7-41.4 30.2-87 71.3-139.4 125.6-10.4 10.8-20.4 21.3-30 31.6-45.4 48.1-81.6 86.5-107.7 86.5zm218.9-648c-20 0-39.9 3-70.2 11.3-111 30.4-172.1 154.7-217.1 272.2-54.4 142-36.4 284 44 345.2l.1.1.1.1c5.7 10.8 12.6 16.6 21.1 17.7 25.7 3.5 62.9-36 109.9-85.9 9.6-10.2 19.6-20.8 30-31.6 52.5-54.3 98.1-95.5 139.6-125.8 54.8-40 103.7-61.9 145.4-65 67.2-4.9 134.4 11.5 205.6 50.2 31 16.9 51.9 27.4 59.1 21.4 5.9-5 3.6-21.5-7.7-55.3-18.6-55.2-67.8-122.6-115.3-187.7-19.3-26.5-37.6-51.5-53.1-74.8l-.1-.2v-.2c1.8-45.1-5.7-74.2-23.1-89-23.3-19.8-61.4-11.8-101.8-3.5-28 5.8-57 11.8-82.7 8.9-10.2-1.2-19.4-2.3-27.6-3.3-22.8-2.7-39.5-4.8-56.2-4.8z"/><path class="st1" d="M369.7 1320.3c-1.2 0-2.4-.1-3.5-.2-9.2-1.2-16.7-7-22.9-17.6-40.4-28-68.2-75.6-78.4-134-10.9-62.9-1.3-134.6 27.9-207.3 18.7-46.5 48.2-114.6 88.2-168.7 39.6-53.6 83.6-86.7 134.4-101.1l.2.6-.2-.6c57.3-16.2 78.1-13.9 128.3-8.2 9 1 19.2 2.2 30.6 3.3 26.8 2.7 57.2-4.8 86.6-12 41-10.1 79.8-19.6 103.2 0 17.8 14.9 24.9 45.7 21.7 94 17.1 27 38.3 56.3 60.7 87.3 44.1 61 89.8 124 108.4 176 12.7 35.4 15.2 52.1 8.9 57.7-7.7 6.7-28.4-3.3-59.1-19.4-69.7-36.6-139.1-52.6-206.2-47.7-42 3.1-91.4 24.2-146.8 62.6-42.3 29.4-88.7 69.2-142 121.6-10.4 10.3-20.5 20.4-30.1 30.2-46.2 46.3-82.9 83.5-109.9 83.5zM590.1 680c-21.1 0-41.8 3.2-74.4 12.4-113 32-175.5 154-221.8 269.1-29.1 72.5-38.8 143.9-27.9 206.6 10.1 58.2 37.8 105.5 78 133.3l.1.1.1.1c6 10.4 13.3 16 22.1 17.2 26.7 3.4 64.5-34.7 112.4-83.1 9.7-9.8 19.7-19.9 30.2-30.2 53.3-52.5 99.8-92.4 142.1-121.8 55.6-38.6 105.1-59.8 147.3-62.9 67.4-4.9 137 11.2 206.9 47.9 29.3 15.4 50.6 25.8 57.8 19.6 5.9-5.1 3.1-22-9.2-56.4-18.5-51.9-64.1-114.8-108.2-175.7-22.5-31.1-43.8-60.5-60.9-87.5l-.1-.2v-.2c3.2-48-3.8-78.5-21.3-93.2-23-19.3-61.4-9.8-102.2.2-29.5 7.3-60 14.8-87 12-11.4-1.2-21.6-2.3-30.6-3.3-21.5-2.2-37.6-4-53.4-4z"/><path class="st1" d="M402.8 1318.8c-1.3 0-2.5-.1-3.7-.2-9.5-1.1-17.3-6.7-23.9-17.1-43.3-27.3-73.4-73.9-84.7-131-12.2-61.7-2.5-132.6 28-205 47.6-113 111.9-233.1 227.3-266.7l.2.6-.2-.6c59.1-17.2 79.8-15.1 129.9-10 9.8 1 20.8 2.1 33.4 3.2 28 2.5 59.9-6.5 90.8-15.3 41.5-11.7 80.6-22.8 103.8-3.6 18 14.9 24.5 47 19.9 98.1 18.1 30.2 42 63.4 67.3 98.5 41.2 57.2 83.9 116.4 102.5 165.6 13.8 36.5 16.7 53 10.4 58.8-6.9 6.2-24.2-.7-57.8-17.7-69.4-35.1-139.2-50.3-207.5-45.4-42.5 3.1-92.5 23.5-148.7 60.6-43.1 28.5-90.4 67-144.5 117.7-10.4 9.8-20.5 19.4-30.2 28.8-47 44.9-84.3 80.7-112.3 80.7zm221.9-632.5c-22.2 0-43.7 3.4-78.6 13.6-115 33.5-179 153.3-226.6 266.1-68.8 163.3-21.3 285.8 56.4 334.7l.1.1.1.1c6.4 10.1 14 15.5 23.2 16.7 1.2.1 2.4.2 3.6.2 27.5 0 64.7-35.7 111.3-80.5 9.7-9.3 19.8-19 30.2-28.8 54.2-50.7 101.5-89.3 144.7-117.8 56.4-37.2 106.6-57.7 149.2-60.8 68.5-4.9 138.5 10.4 208.1 45.5 32.4 16.4 50 23.6 56.4 17.9 5.9-5.3 2.8-21.9-10.7-57.5-18.5-49-61.1-108.1-102.3-165.3-25.3-35.2-49.3-68.4-67.4-98.8l-.1-.2v-.2c4.6-50.8-1.8-82.7-19.4-97.3-22.7-18.8-61.5-7.8-102.7 3.8-31 8.7-63 17.8-91.2 15.3-12.6-1.1-23.7-2.3-33.4-3.2-20.3-2-35.8-3.6-50.9-3.6z"/><path class="st1" d="M435.9 1317.5c-1.3 0-2.6-.1-3.9-.2-9.8-1.1-18-6.5-25-16.5-46.3-26.7-78.6-72.2-91-128.1-13.5-60.5-3.7-130.6 28.1-202.8 48.8-110.6 114.5-228.4 232-263.6 60.8-18.2 81.6-16.3 131.8-11.7 10.5 1 22.4 2.1 36.1 3.1 29.1 2.2 62.6-8.3 94.9-18.6 41.9-13.3 81.5-25.8 104.4-7 18.1 14.8 24 48.3 18 102.3 18.7 33.1 45 69.8 72.9 108.5 38.8 53.9 78.9 109.7 97.4 156.2 14.9 37.2 18.2 54 11.9 59.9-6.8 6.3-24.4-.4-56.5-16-69.1-33.6-139.3-48-208.7-43.1-76.2 5.5-173.6 61.8-297.7 172.2-10.4 9.3-20.5 18.5-30.3 27.4-47.5 43.4-85.5 78-114.4 78zm140.4-610.7l.2.6c-117 35.1-182.6 152.6-231.3 263-71.3 161.6-20 281.9 62.6 329.4l.1.1.1.1c6.8 9.8 14.7 15.1 24.2 16.1 28.8 3.3 67.9-32.4 117.4-77.4 9.7-8.9 19.8-18.1 30.3-27.4 55.1-48.9 103.2-86.2 147.3-113.8 57.1-35.8 108-55.6 151.1-58.7 69.7-5 140.1 9.6 209.3 43.2 30.9 15 48.9 22.1 55.1 16.2 5.8-5.4 2.3-22.4-12.2-58.6-18.5-46.4-58.6-102.1-97.3-156-27.9-38.9-54.3-75.6-73-108.8l-.1-.2v-.2c6-53.7.2-86.9-17.6-101.5-22.4-18.4-61.7-5.9-103.3 7.2-32.4 10.3-66 20.9-95.3 18.6-13.8-1.1-25.7-2.2-36.2-3.1-51.5-4.8-70.7-6.5-131.3 11.6l-.1-.4z"/><path class="st1" d="M469.1 1316.2c-1.4 0-2.7-.1-4-.2-10.2-1.1-18.7-6.3-26.1-16-24.4-12.9-45.2-30.1-61.7-51.2-16.8-21.4-28.8-46.3-35.7-73.9-14.7-59.3-5-128.6 28.2-200.6 49.9-108.2 117.1-223.8 236.7-260.5 62.6-19.2 82-17.6 133.7-13.3 11.2.9 23.8 2 38.7 3 30.3 2 65.2-10.2 99-22 42.4-14.8 82.4-28.8 105-10.4 18.2 14.8 23.5 49.6 16.1 106.4 18.9 35.7 48.8 77.4 77.8 117.6 36.6 51 74.5 103.7 93.1 147.9 16.2 38.4 19.8 55 13.5 61.1-6.7 6.4-24.6-.1-55.2-14.4-67.8-31.6-140.4-45.7-210-40.8-77.3 5.5-176.2 59.9-302.2 166.1-10.4 8.8-20.5 17.5-30.3 25.9-48.1 41.9-86.7 75.3-116.6 75.3zm137.6-601.8l.2.6c-119.2 36.6-186.2 151.9-236 259.9-64.9 140.5-37.9 267.8 68.8 324.1l.1.1.1.1c7.2 9.5 15.5 14.6 25.4 15.6 1.3.1 2.6.2 3.9.2 29.5 0 67.9-33.2 116-74.8 9.8-8.4 19.8-17.1 30.3-25.9 56-47.2 105-83.1 149.9-109.8 57.9-34.4 109.3-53.5 153-56.6 69.8-5 142.7 9.2 210.6 40.9 29.5 13.7 47.7 20.5 53.9 14.6 5.8-5.6 2-22.4-13.8-59.8-18.5-44.1-56.4-96.7-93-147.6-29-40.4-59-82.1-78-117.9l-.1-.2v-.2c7.3-56.5 2.2-91-15.6-105.6-22.1-18-61.9-4.1-103.9 10.6-33.9 11.8-69 24.1-99.5 22-14.9-1-27.6-2-38.8-3-51.6-4.3-70.9-5.9-133.3 13.3l-.2-.6z"/><path class="st1" d="M502 1314.8c-11.7 0-22.2-4.7-31.1-15.5-25.9-12.6-47.9-29.4-65.5-49.8-17.9-20.9-30.8-45.2-38.3-72.3-16-58.1-6.2-126.7 28.3-198.3 51-105.8 119.6-219.1 241.4-257.4l.2.6-.2-.6c64.4-20.3 83.8-18.8 135.7-14.9 11.8.9 25.2 1.9 41.3 2.8 31.5 1.8 67.9-12.1 103.1-25.5 42.8-16.3 83.3-31.7 105.7-13.6 18.3 14.7 22.9 50.9 14.2 110.5 18.8 38 51 82.7 82.2 126 34.8 48.3 70.8 98.2 89.4 140.3 17.3 39.2 21.4 56.1 15.1 62.3-6.6 6.5-24.8.3-54-12.8-47-21-121.8-44.7-211.3-38.5-78.4 5.6-178.8 57.9-306.7 160.1-10.4 8.3-20.4 16.5-30.2 24.5-47.6 39-88.1 72.1-119.3 72.1zm226-609.5c-25.5 0-48.3 3.9-90.7 17.2-121.4 38.2-189.8 151.3-240.7 256.8-67 139-37.6 264.2 75 318.9l.1.1.1.1c32.1 38.9 83.7-3.3 149-56.8 9.7-8 19.8-16.2 30.2-24.5 128.1-102.3 228.6-154.7 307.3-160.3 89.7-6.3 164.7 17.5 211.8 38.6 28 12.5 46.6 19.1 52.7 13 5.8-5.8 1.5-22.9-15.4-61-18.5-42-54.5-91.8-89.2-140.1-31.2-43.3-63.5-88.1-82.4-126.3l-.1-.2v-.2c8.7-59.3 4.3-95.2-13.7-109.6-21.9-17.6-62.1-2.3-104.6 13.8-33.3 12.6-67.6 25.7-98 25.7-1.9 0-3.8-.1-5.6-.2-16-.9-29.4-1.9-41.3-2.8-17.5-1.2-31.4-2.2-44.5-2.2z"/><path class="st1" d="M535.2 1313.6c-12.1 0-23-4.5-32.4-15-52.9-23.8-90.1-62.2-107.5-111.1-20.8-58.6-11.9-129.2 25.9-204.1 52-103.4 122-214.5 246.1-254.4l.2.6-.2-.6c66.2-21.3 85.7-20 137.8-16.5 12.5.8 26.6 1.8 43.7 2.6 32.6 1.5 70.5-14 107.2-29 43.3-17.7 84.2-34.5 106.4-16.8 18.4 14.6 22.4 52.1 12.2 114.6 18.5 40.2 52.9 87.7 86.1 133.6 33.1 45.8 67.4 93.2 86 133.3 18.5 39.9 23 57.2 16.8 63.6-6.5 6.7-25 .6-52.8-11.2-46.8-20-121.6-42.5-212.5-36.1-79.6 5.6-181.4 56-311.2 154-10.3 7.8-20.4 15.6-30.1 23.1-48.4 37.5-89.6 69.4-121.7 69.4zm227.5-601.9c-26.7 0-50.1 4-95 18.4C544 769.9 474.2 880.7 422.2 983.9c-37.6 74.6-46.5 144.9-25.8 203.2 17.3 48.7 54.3 86.9 107 110.5l.1.1.1.1c9.2 10.2 19.8 14.7 31.7 14.7 31.8 0 72.7-31.7 121.1-69.1 9.7-7.5 19.7-15.3 30.1-23.1 130-98.2 232-148.6 311.8-154.2 91.2-6.4 166.2 16.2 213.1 36.2 26.6 11.4 45.5 17.7 51.5 11.5 6.6-6.8-2-29.8-17-62.3-18.5-40-52.8-87.4-85.9-133.1-33.3-46.1-67.8-93.7-86.3-134l-.1-.2v-.2c10.1-62.2 6.3-99.4-11.7-113.7-21.7-17.3-62.3-.6-105.3 17-36.8 15.1-74.8 30.6-107.7 29.1-17.1-.8-31.3-1.7-43.7-2.6-16.7-1.2-30-2.1-42.5-2.1z"/><path class="st1" d="M568.4 1312.4c-12.5 0-23.8-4.4-33.7-14.5-57.4-23.8-97.2-62.6-115.1-112.1-20.5-56.6-11-125 27.3-197.9 21.2-40.4 54.6-99.8 99.3-149.4 45-49.9 94.6-83.2 151.5-101.9 68.1-22.3 87.6-21.2 140-18.1 13.1.8 27.9 1.6 46.1 2.3 33.8 1.3 73.2-16 111.3-32.6 43.8-19.2 85.1-37.2 107.2-19.9 18.7 14.7 22 52.5 10.2 118.7 17.9 42.2 54.5 92.3 89.8 140.8 31.7 43.5 64.4 88.5 83 126.9 19.9 41.2 24.8 58.2 18.5 64.9-5.6 6-19.6 3.3-51.7-9.7-38.1-15.5-116.5-40.5-213.8-33.8-80.7 5.6-183.9 54-315.7 147.9-10.2 7.3-20.2 14.6-29.9 21.7-49.4 36.1-91.2 66.7-124.3 66.7zm129.5-575.2l.2.6C572 779.2 500.9 887.7 447.9 988.5c-38.1 72.6-47.5 140.7-27.2 196.9 17.8 49.3 57.5 87.8 114.6 111.5l.2.1c9.7 9.9 20.7 14.2 33 14.2 32.7 0 74.4-30.4 123.6-66.4 9.7-7.1 19.6-14.3 29.9-21.7 131.9-94.1 235.3-142.5 316.3-148.2 97.6-6.7 176.2 18.3 214.3 33.9 26 10.6 44.4 16.3 50.4 10 6.6-7.1-2.2-29.6-18.7-63.6-18.5-38.3-51.2-83.2-82.9-126.7-35.4-48.6-72-98.9-90-141.2l-.1-.2v-.2c11.5-65 8.3-103.5-9.8-117.8-21.5-16.9-62.5 1-106 20-36.9 16.1-75 32.8-108.2 32.8-1.2 0-2.4 0-3.6-.1-18.2-.7-33-1.6-46.1-2.3-52.2-3.1-71.7-4.2-139.6 18l-.1-.3z"/><path class="st1" d="M601.6 1311.3c-12.9 0-24.6-4.2-35.1-14-62-23.8-104.5-62.8-122.8-112.9-9.7-26.5-12.5-55.9-8.2-87.1 4.5-33 17-68.3 37-104.8 21.6-39.3 55.5-97.3 101.1-146.2 45.9-49.2 96.4-82.6 154.5-101.9l.2.6-.2-.6c69.9-23.3 88.1-22.4 142.2-19.6 13.7.7 29.1 1.5 48.4 2.1 34.9 1 75.8-18 115.4-36.3 44.3-20.5 86.1-40 108-22.9 18.8 14.7 21.4 53.7 8.2 122.8 17.2 44 55.8 96.6 93.1 147.5 30.4 41.4 61.7 84.2 80.3 120.9 21.2 42 26.5 59.4 20.2 66.3-5.5 6-19.7 3.7-50.6-8.3-37.9-14.7-116.1-38.3-215.1-31.5-81.8 5.7-186.5 52.1-320.1 141.9-10.1 6.8-20.1 13.6-29.6 20.2-50.3 34.5-92.8 63.8-126.9 63.8zm229.8-586.8c-29.4 0-52.8 4.2-103 21-128.6 43-201 149.3-254.9 247.6-38.7 70.6-48.6 136.6-28.7 190.9 18.3 49.8 60.6 88.6 122.3 112.2l.2.1c37.2 35 91.6-2.5 160.4-49.9 9.6-6.6 19.5-13.4 29.7-20.3 133.8-89.9 238.7-136.4 320.7-142.1 99.2-6.8 177.6 16.9 215.6 31.6 30 11.6 44.3 14.1 49.3 8.6 6.6-7.3-2.9-30.3-20.4-65-18.5-36.6-49.8-79.3-80.2-120.7-37.4-51-76.1-103.8-93.3-148l-.1-.2v-.2c12.9-67.8 10.4-107.6-7.8-121.8-21.3-16.6-62.8 2.6-106.7 23C994.9 710 953.8 729 918.6 728c-19.3-.6-34.7-1.4-48.4-2.1-15.1-.8-27.4-1.4-38.8-1.4z"/><path class="st1" d="M634.9 1310.1c-13.4 0-25.5-4.1-36.4-13.5-66.7-23.7-111.9-63-130.6-113.5-9.5-25.7-12.1-54.1-7.5-84.3 4.8-32 17.5-66.2 37.8-101.7 21.8-38.3 56.3-94.7 102.9-143 46.8-48.6 98.3-81.9 157.4-102 71.7-24.4 90.1-23.6 144.5-21.1 14.2.6 30.4 1.4 50.6 1.8 36.1.8 80.4-20.9 119.5-40.1 46.7-22.9 87-42.6 108.7-25.8 18.9 14.6 20.8 54.9 6.2 126.8 16.3 45.7 57 100.7 96.3 153.9 30.5 41.2 59.3 80.2 77.7 115.3 19.3 36.7 29.1 59.6 22 67.7-5.3 6.1-19.7 4.1-49.5-6.8-37.6-13.8-115.8-36-216.3-29.2-82.9 5.7-189.1 50.1-324.6 135.8-10 6.3-19.9 12.7-29.4 18.9-51 32.8-94.3 60.8-129.3 60.8zm123.7-557.5l.2.6c-131.2 44.6-204.9 148.6-259.6 244.5-39.8 69.7-50 131.9-30.2 185.1 18.6 50.2 63.6 89.2 130 112.8l.2.1c38.9 33.7 94.3-2.2 164.4-47.6 9.5-6.2 19.3-12.5 29.4-18.9 135.7-85.8 242.1-130.3 325.2-136 100.8-6.9 179.1 15.4 216.8 29.3 28.9 10.6 43.3 12.8 48.2 7.2 6.6-7.6-3.6-31-22.2-66.4-18.4-35-47.2-73.9-77.6-115.1-39.4-53.3-80.2-108.4-96.5-154.3l-.1-.2v-.2c14.3-70.6 12.5-111.7-5.8-125.8-21.1-16.3-63.1 4.2-107.5 25.9-38.5 18.9-82.1 40.2-118.1 40.2h-1.9c-20.3-.4-36.4-1.2-50.7-1.8-54.3-2.4-72.5-3.2-144.1 21.1l-.1-.5z"/><path class="st1" d="M668 1308.3c-14.5 0-26.8-4.3-37.7-12.9-71.6-23.6-119.5-63-138.5-113.8-9.3-24.9-11.6-52.3-6.8-81.7 5.1-30.9 18.1-64.2 38.7-98.8 35.1-59.1 68.4-103.5 104.6-139.8 47.8-47.9 100.2-81.3 160.4-102.1l.2.6-.2-.6c81.4-28.1 95.9-27.3 165.5-23.1 10 .6 21.4 1.3 34.2 1.9 38.1 2 85-22.1 126.4-43.4 46.1-23.7 85.9-44.2 107-28.1 18.6 14.3 19.9 55.5 3.9 129.8 15.3 47.3 58 104.6 99.3 159.9 29.3 39.3 57 76.4 75.4 109.9 20.5 37.4 30.9 60.7 23.8 69.1-5.3 6.3-19.3 4.7-48.5-5.5-30.1-10.5-111.6-34-217.6-26.9-84 5.7-191.7 48.2-329.1 129.8-9.9 5.9-19.6 11.8-29 17.5-34.6 21-67.4 40.9-95.7 51-13.5 4.8-25.5 7.2-36.3 7.2zm236.1-573.2c-33.6 0-57.7 5.4-115 25.2-134.7 46.5-212 153.5-264.4 241.4-40.3 67.8-51.1 128.2-31.9 179.5 18.9 50.5 66.6 89.7 137.9 113.2l.2.1c11.2 8.9 23.6 12.8 37.2 12.8 35.7 0 79.5-26.6 131.2-58 9.4-5.7 19.1-11.6 29-17.5 137.6-81.7 245.4-124.2 329.6-129.9 106.2-7.2 187.9 16.4 218.1 26.9 28.2 9.8 42.4 11.6 47.2 5.8 6.7-7.9-3.7-30.8-23.9-67.8-18.3-33.5-46-70.6-75.3-109.8-41.4-55.5-84.2-112.9-99.5-160.4v-.3c15.6-72.9 14.5-115-3.4-128.8-20.5-15.7-60 4.6-105.7 28.2-39.9 20.5-85 43.7-122.5 43.7-1.5 0-3 0-4.5-.1-12.8-.7-24.2-1.3-34.2-1.9-20.4-1.4-36.1-2.3-50.1-2.3z"/><path class="st1" d="M699.5 1305.4c-13.4 0-26.1-2.7-38.2-8.8-42.1-21.1-72.7-40.4-96.2-60.8-27.5-23.8-44.7-48.7-52.4-76-12.3-43.6-.6-93.4 35.9-152.3 53.2-85.8 131.9-190.5 269.7-238.9l.2.6-.2-.6c82.9-29.1 97.3-28.3 166.7-24.8 10.9.6 23.3 1.2 37.6 1.8 39.2 1.7 87.6-24.4 130.4-47.4 46.7-25.1 86.9-46.7 107.9-30.8 18.7 14.2 19.3 56.7 1.9 133.9 14.1 48.9 58.8 108.2 102.1 165.7 28.2 37.4 54.9 72.8 73.1 104.9 22.2 39 32.8 61.8 25.7 70.6-5.2 6.3-19.4 5.1-47.5-4.1-29.9-9.8-111.1-31.8-218.9-24.5-85.1 5.7-194.2 46.2-333.6 123.7-4.6 2.6-9.2 5.1-13.6 7.6-58.8 32.7-108 60.2-150.6 60.2zm238.3-562.1c-35.1 0-59.2 5.4-119.2 26.4-137.5 48.3-216 152.7-269.1 238.4-36.3 58.6-48 108.1-35.7 151.4 14.1 49.9 59.8 91.9 148 136.1 11.9 6 24.5 8.6 37.7 8.6 42.3 0 91.4-27.4 149.8-60 4.5-2.5 9-5 13.6-7.6 139.5-77.6 248.8-118.1 334.1-123.8 107.9-7.2 189.3 14.8 219.3 24.6 27.2 8.9 41.5 10.3 46.2 4.5 6.7-8.2-4.4-31.6-25.8-69.3-18.2-32.1-44.8-67.4-73-104.8-43.4-57.6-88.3-117.1-102.3-166.2v-.2c17-75.7 16.6-119.2-1.4-132.8-20.3-15.4-60.3 6.1-106.6 30.9-42.9 23-91.5 49.2-131 47.5-14.2-.6-26.6-1.2-37.6-1.8-18.9-1.1-33.8-1.9-47-1.9z"/><path class="st1" d="M732.7 1304.4c-13.8 0-26.9-2.6-39.4-8.4-44.7-20.8-77-39.7-101.7-59.6-29-23.4-46.9-48-54.7-75.1-12.3-42.4 0-91.1 37.4-149.1 53.8-83.4 133.7-185.6 274.4-235.8l.2.6-.2-.6c84.4-30 98.7-29.4 167.9-26.4 11.8.5 25.3 1.1 40.9 1.6 40.3 1.3 90.3-26.6 134.3-51.3 47.2-26.4 88-49.3 108.8-33.6 18.7 14.1 18.7 57.9-.1 138 12.7 50.3 59.6 111.8 104.8 171.2 27.2 35.7 52.9 69.4 71 100.1 23.4 39.7 34.8 63 27.6 72.1-5.1 6.5-19 5.6-46.6-2.8-29.7-9.1-110.6-29.5-220.1-22.2-86.2 5.8-196.8 44.2-338.1 117.6-3.8 2-7.5 3.9-11.2 5.8-60.5 31.4-111.2 57.9-155.2 57.9zm239.9-554.7c-36.8 0-60.7 5.3-123.5 27.7-140.4 50-220.1 152-273.8 235.3-37.2 57.7-49.4 106.1-37.2 148.2 14.5 50 61 90 155.8 134 12.4 5.7 25.3 8.3 38.9 8.3 43.8 0 94.4-26.3 154.7-57.7 3.7-1.9 7.4-3.9 11.2-5.8 141.5-73.5 252.3-112 338.6-117.8 109.7-7.3 190.8 13.2 220.5 22.3 26.6 8.2 40.6 9.2 45.3 3.2 6.7-8.5-5-32.4-27.7-70.8-18.1-30.7-43.7-64.3-70.9-100-45.4-59.6-92.3-121.2-105.1-171.8v-.2c18.7-79.6 18.9-123.1.6-136.9-20.2-15.2-60.7 7.4-107.5 33.7-43.2 24.2-92 51.5-132.1 51.5h-2.9c-15.7-.5-29.1-1.1-40.9-1.6-17.6-.9-31.6-1.6-44-1.6z"/><path class="st1" d="M765.9 1303.4c-14.2 0-27.7-2.5-40.7-8-47.4-20.3-81.4-38.9-107.2-58.3-30.4-23-49-47.2-57-74.2-12.1-41.2.6-89 38.9-146.1 36.1-53.8 71-95.3 109.7-130.4 50.6-45.9 106-79.4 169.4-102.3l.2.6-.2-.6c85.9-31 100.2-30.5 169.1-28 12.7.5 27.1 1 44.2 1.4 41.4 1 92.9-28.9 138.3-55.3 47.7-27.8 89-51.7 109.7-36.3 18.8 14 18.1 59.2-2.1 142 11.3 51.7 60.2 115.2 107.5 176.5 26.2 34 51 66.1 68.9 95.5 24.7 40.5 36.7 64.2 29.5 73.7-5 6.5-19.1 6.1-45.7-1.5-23-6.6-107-27.5-221.4-19.9-87.2 5.8-199.2 42.3-342.6 111.6l-8.7 4.2c-62 30.1-114.3 55.4-159.8 55.4zm241.6-547.2c-38.6 0-62.3 5.2-128.1 28.9-143.4 51.8-224.1 151.3-278.5 232.2-38.1 56.8-50.8 104.2-38.8 145.1 14.6 49.4 63.5 88.9 163.5 131.8 12.8 5.5 26.2 7.9 40.2 7.9 45.2 0 97.4-25.2 159.5-55.3l8.7-4.2c143.5-69.4 255.7-105.9 343-111.7 114.6-7.6 198.7 13.4 221.8 20 26.1 7.5 39.8 8.1 44.4 2 6.8-8.9-5.7-33.3-29.6-72.4-17.9-29.4-42.7-61.4-68.9-95.4-47.4-61.5-96.5-125.1-107.8-177.1v-.2c20.1-82.4 21-127.2 2.6-140.9-20.1-15-61 8.8-108.4 36.3-44.8 26-95.5 55.5-136.9 55.5h-2.1c-17.1-.4-31.5-.9-44.2-1.4-15.7-.6-28.7-1.1-40.4-1.1z"/><path class="st1" d="M799.3 1302.4c-14.7 0-28.7-2.4-42.1-7.7-74.6-29.6-153.4-68.3-172-130.3-12-40.1 1.2-86.9 40.5-143.1 36.4-52.1 71.8-92.5 111.4-127.3 51.5-45.2 107.9-78.7 172.4-102.3 87.3-32 101.7-31.5 170.5-29.5 13.5.4 28.9.9 47.4 1.1 42.5.7 95.6-31.2 142.3-59.4 48.3-29.1 90-54.2 110.6-38.9 18.8 14 17.5 60.4-4.2 146.1 9.8 53 60.8 118.4 110.2 181.7 25.3 32.4 49.1 63 66.9 91.1 26 41.2 38.8 65.4 31.5 75.3-4.9 6.7-18.7 6.6-44.8-.3-22.8-6.1-106.4-25.2-222.6-17.6-88.1 5.8-201.7 40.3-347.1 105.5l-6.1 2.7c-64.2 28.8-117.9 52.9-164.8 52.9zm110.4-510.1l.2.6C761.7 847 677.2 949.6 626.6 1022c-39.1 55.9-52.3 102.4-40.4 142.1 18.5 61.5 97 100 171.3 129.6 13.3 5.3 27.2 7.6 41.7 7.6 46.7 0 100.3-24.1 164.2-52.8l6.1-2.7c145.6-65.2 259.2-99.8 347.5-105.6 116.4-7.6 200.1 11.6 223 17.6 25.2 6.7 39 6.9 43.5.7 6.8-9.3-6.4-34.2-31.5-73.9-17.7-28.1-41.6-58.6-66.8-91-49.5-63.4-100.7-129-110.4-182.3v-.2c21.6-85.3 23-131.3 4.6-145-20-14.8-61.4 10.1-109.3 39-46.4 27.9-98.9 59.6-141.6 59.6h-1.3c-18.5-.3-33.9-.7-47.4-1.1-68.6-2-82.9-2.4-170 29.4l-.1-.7z"/><path class="st1" d="M832.4 1301.8c-15.8 0-30-2.4-43.3-7.3-52.6-19.3-90.2-36.9-118.3-55.5-33.3-22.1-53.5-45.7-61.6-72.4-11.9-39 1.9-84.9 42.2-140.2 51.1-70.3 136.7-170.2 288.5-226.5 83-30.7 100.6-30.6 158.9-30 16.6.2 37.2.4 63.5-.2 43.1-.8 96.8-34.2 144.1-63.6 49.7-30.9 92.6-57.5 113.5-42.1 19.1 14.1 17.2 62-6 150.9 8.1 54.3 61.3 121.6 112.8 186.7 24.4 30.8 47.4 59.9 64.9 86.8 27.4 41.9 40.8 66.5 33.5 76.9-4.9 6.9-18.4 7.2-44 .9-46.7-11.4-130-21.4-223.9-15.3-89 5.8-204 38.4-351.6 99.4l-3.5 1.4c-41.7 17.3-81 33.6-116.4 42.5-19.7 5.1-37.3 7.6-53.3 7.6zm107.7-501.4l.2.6c-151.5 56.1-236.9 155.9-288 226.1-40 55-53.8 100.5-42 139.2 18.6 61 101 98.5 179.2 127.2 13.8 5.1 28.2 7.3 43.3 7.3 48.1 0 103.3-22.8 168.9-50l3.5-1.4c147.7-61.1 262.8-93.7 352-99.5 94-6.1 177.5 3.9 224.3 15.3 24.7 6 38.2 5.9 42.7-.5 6.9-9.7-7.1-35.1-33.5-75.6-17.5-26.8-40.5-55.9-64.9-86.7-51.6-65.2-104.9-132.7-113-187.4v-.2c23.1-88.4 25.1-136 6.5-149.8-20.2-14.9-62.8 11.5-112.1 42.2-47.5 29.5-101.4 63-144.7 63.8-26.3.5-47 .3-63.5.2-58.1-.6-75.7-.7-158.5 29.9l-.4-.7z"/><path class="st1" d="M865.7 1300.8c-15.7 0-30.6-2.1-44.8-6.9-55.3-18.7-94.7-35.8-123.9-54-34.8-21.6-55.7-45-63.9-71.5-11.7-38.1 2.6-83 43.9-137.5 36.2-47.9 73.8-87.5 114.7-121.1 52.6-43.2 112.7-77.6 178.5-102.3 84.9-31.8 102.6-31.7 161.4-31.4 17.1.1 38.3.2 65.6-.5 44.2-1.1 99.5-36.5 148.3-67.7 50.2-32.1 93.5-59.8 114.2-44.6 19.1 14 16.5 63.2-8.1 154.9 6.4 55.6 61.8 124.7 115.3 191.6 23.5 29.3 45.7 57 63 82.6 28.7 42.6 42.9 67.7 35.5 78.5-4.7 6.9-18.5 7.6-43.2 2.1-16-3.6-102-20.9-225.2-13-89.8 5.8-206.3 36.4-356.1 93.4l-.8.3c-65.1 24.8-123.5 47.1-174.4 47.1zm104.8-492.7l.2.6c-155 58.1-241.3 155.1-292.7 223-41 54.1-55.3 98.7-43.7 136.4 18.6 60.6 105 97 187 124.7 59.9 20.2 133.4-7.8 218.5-40.2l.8-.3c149.9-57 266.5-87.6 356.4-93.5 123.3-8 209.5 9.4 225.5 13 24.2 5.4 37.5 4.9 41.9-1.6 7-10.2-7.8-36-35.6-77.2-17.3-25.6-39.4-53.3-62.9-82.6-53.7-67-109.2-136.4-115.6-192.3v-.2c24.5-91.2 27.2-140.1 8.5-153.8-20.1-14.7-63.1 12.8-112.9 44.7-48.9 31.3-104.3 66.8-148.9 67.9-27.3.7-48.5.6-65.6.5-58.6-.3-76.3-.4-160.9 31.4v-.5z"/><path class="st1" d="M899.8 1302.3c-16.3 0-32-2-46.9-6.7-57.9-18-99.1-34.6-129.6-52.4-36.3-21.1-57.9-44.2-66.1-70.6-11.5-37.1 3.4-81.2 45.5-134.7 36.4-46.1 74.4-84.7 116.3-118 53.5-42.5 114.6-76.9 181.6-102.3l.2.6-.2-.6c86.8-32.9 104.6-32.9 163.9-32.9 17.5 0 39.3 0 67.6-.9 46-1.4 95.8-41 139.8-75.9 41.3-32.8 77-61.2 99.1-49.2 22.1 12 28 64.5 18.4 165.1-5.3 56 55 126.1 113.3 193.9 24.7 28.7 48.1 55.9 65.6 81.1 30.1 43.3 45.1 68.9 37.6 80.2-4.7 7.1-18.2 8.2-42.4 3.3-15.8-3.2-101.2-18.7-226.4-10.6-90.5 5.8-208.5 34.4-360.6 87.3-65.8 22.7-124.8 43.3-176.7 43.3zM1459.4 657c-21.6 0-52.2 24.3-86.7 51.8-44.1 35-94.1 74.8-140.5 76.2-28.3.9-50.1.9-67.6.9-59.1 0-76.9 0-163.4 32.8-120.7 45.7-215.2 115.6-297.4 219.9-41.9 53.2-56.8 96.9-45.3 133.7 18.7 60.2 109 95.6 194.9 122.2 14.8 4.6 30.3 6.6 46.5 6.6 51.7 0 110.7-20.5 176.4-43.4 152.2-53 270.2-81.5 360.9-87.4 125.3-8 210.9 7.5 226.8 10.7 23.7 4.8 36.8 3.9 41.2-2.8 7-10.7-8.5-37-37.6-78.9-17.5-25.1-40.8-52.3-65.5-81-58.5-68-119-138.3-113.6-194.8 9.5-100.1 3.9-152.2-17.8-163.9-3.5-1.7-7.3-2.6-11.3-2.6z"/><path class="st1" d="M933.5 1301.3c-17 0-33.2-1.9-48.7-6.3-60.5-17.2-103.5-33.3-135.3-50.7-37.8-20.6-60.2-43.5-68.4-69.8-11.3-36.3 4.1-79.5 47.3-132.1C810 943.1 909 872 1031.1 825.3l.2.6-.2-.6c88.6-34 106.7-34 166.4-34.3 18-.1 40.4-.2 69.6-1.3 47.1-1.7 98.9-43.4 144.5-80.1 42.4-34.2 79.1-63.7 101-51.6 21.9 12.1 26.6 65.8 14.6 169-6.6 56.7 55.6 128.4 115.6 197.8 23.9 27.6 46.5 53.7 63.9 77.9 31.5 43.9 47.2 70 39.8 81.9-4.6 7.3-17.9 8.7-41.7 4.4-43.4-7.8-129-14.6-227.7-8.3-92.3 5.9-208.3 31.7-365.1 81.3-63.6 20-124.6 39.3-178.5 39.3zm567.8-644.9c-21.7 0-53.3 25.4-88.9 54.1-45.8 36.9-97.7 78.6-145.2 80.4-29.3 1.1-51.7 1.2-69.7 1.3-59.5.3-77.5.4-166 34.2-121.9 46.7-220.7 117.6-302.2 216.8-42.9 52.3-58.3 95.1-47.1 131 18.7 59.9 113.1 94.1 202.8 119.7 15.3 4.4 31.5 6.3 48.4 6.3 53.8 0 114.6-19.2 178.2-39.3 156.8-49.6 272.9-75.4 365.3-81.3 98.8-6.3 184.6.6 228 8.3 23 4.1 36.2 2.8 40.5-3.9 7.1-11.2-9.2-38-39.7-80.5-17.4-24.2-39.9-50.2-63.8-77.8-29.5-34.1-60.1-69.4-82.5-103.3-25.4-38.5-36.4-69.7-33.4-95.3 11.9-102.6 7.5-156-14-167.8-3.2-2.1-6.8-2.9-10.7-2.9z"/><path class="st1" d="M967.5 1300.3c-17.7 0-34.7-1.8-50.8-6-63.1-16.4-107.9-32-141-49-39.3-20.2-62.4-42.7-70.6-68.9-11.1-35.5 4.9-77.8 49-129.4 81.8-95.7 182.3-165.7 307.4-214.1l.2.6-.2-.6c90.5-35 107.1-35.2 168.9-35.7 18.5-.2 41.4-.4 71.6-1.6 48.3-2 101.9-45.7 149.3-84.3 43.6-35.5 81.2-66.1 103-53.9 21.7 12.2 25.1 67.1 10.7 172.8-3.5 25.7 7.4 57.2 33.4 96.4 23 34.7 54.4 70.6 84.8 105.5 23 26.4 44.8 51.3 62 74.6 33 44.6 49.4 71.1 41.9 83.5-4.5 7.5-17.6 9.3-41 5.6-42.9-6.7-128.6-12.4-229-6-92.6 5.9-210.1 29.8-369.5 75.2-61.3 17.4-124.2 35.3-180.1 35.3zm575.7-644.5c-21.9 0-54.4 26.5-91.1 56.4-47.5 38.7-101.4 82.5-150 84.5-30.2 1.3-53.2 1.5-71.7 1.6-61.6.6-78.2.7-168.5 35.7C937 882.3 836.7 952.3 755 1047.8c-43.9 51.3-59.8 93.3-48.8 128.3 18.8 59.7 117.1 92.7 210.8 117.1 66.4 17.3 149.7-6.4 230.2-29.4 159.6-45.4 277.1-69.3 369.8-75.2 100.5-6.4 186.3-.7 229.2 6 22.6 3.5 35.6 1.9 39.8-5 7.1-11.8-9.9-39.1-41.8-82.2-17.1-23.2-38.9-48.1-61.9-74.5-30.4-34.8-61.9-70.9-84.9-105.6-26.1-39.4-37.1-71.2-33.6-97.2 14.4-105.2 11.1-159.7-10.1-171.6-3.1-1.9-6.6-2.7-10.5-2.7z"/><path class="st1" d="M1002.4 1299.5c-18.8 0-36.6-1.8-53.8-5.9-65.7-15.6-112.3-30.6-146.7-47.2-40.8-19.7-64.7-42-72.9-68-10.9-34.7 5.7-76.2 50.8-126.9 36.4-40.9 76.1-76.5 121.2-108.8 56.1-40.2 120.3-74.6 190.9-102.1l.2.5-.2-.5c92.4-36.1 109.2-36.3 171.5-37.2 18.9-.3 42.5-.6 73.6-2 49.4-2.3 105.1-48 154.2-88.4 44.8-36.8 83.4-68.5 105-56.2 21.5 12.3 23.6 68.4 6.6 176.6-9.2 58.4 59.9 136.8 120.8 206.1 22.1 25.1 43 48.9 59.9 71.1 34.4 45.2 51.7 72.2 44.1 85.2-4.5 7.7-17.3 9.8-40.3 6.7-9.4-1.3-95.8-12.1-230.2-3.7-121.6 7.7-271.7 43.1-374 69.1-71 18-129.4 31.6-180.7 31.6zm582.9-644.3c-22 0-55.5 27.5-93.4 58.6-49.3 40.5-105.1 86.4-154.9 88.7-31.2 1.4-54.7 1.8-73.7 2-62.1.8-78.8 1.1-171.1 37.1-128 50-229.9 118.9-311.6 210.7-44.8 50.3-61.4 91.5-50.6 125.7 18.8 59.5 121.1 91.3 218.8 114.4 63.8 15.1 137.2-1.1 233.9-25.7 102.4-26 252.5-61.5 374.3-69.2 134.6-8.5 221.1 2.4 230.5 3.7 22.2 3 35 1 39.2-6.1 7.2-12.4-10.7-40.2-44-83.9-16.8-22.1-37.7-45.9-59.9-71-31.3-35.6-63.7-72.4-87.3-107.9-26.9-40.4-37.9-72.8-33.8-99.2 16.9-107.6 15-163.4-6.1-175.4-3.1-1.7-6.5-2.5-10.3-2.5z"/><path class="st1" d="M1037.2 1298.4c-19.8 0-38.6-1.7-56.7-5.6-68.2-14.7-116.7-29.1-152.5-45.4-42.4-19.2-66.9-41.2-75.1-67.2-10.7-33.9 6.5-74.6 52.6-124.3 80.6-86.8 187.2-156.8 316.8-207.9l.2.5-.2-.5c94.3-37.2 111.2-37.5 174-38.6 19.4-.3 43.5-.8 75.6-2.4 50.5-2.6 108.3-50.4 159.3-92.5 46-38 85.6-70.8 107-58.4 21.3 12.4 22.1 69.7 2.4 180.3-10.5 59.3 60.8 139.6 123.7 210.4 21.2 23.8 41.2 46.3 57.7 67.4 35.1 44.8 53.9 73.4 46.3 87-4.3 7.8-17.3 10.3-39.7 7.8-33.7-3.8-120.3-8.3-231.5-1.4-119.5 7.5-265.1 37.6-378.5 63.1-68.8 15.5-128.5 27.7-181.4 27.7zm590.3-643.7c-22.1 0-56.6 28.5-95.6 60.8-51.1 42.3-109 90.2-160 92.8-32.1 1.6-56.3 2.1-75.6 2.4-62.6 1.1-79.5 1.4-173.6 38.5-129.5 51-235.9 120.9-316.4 207.6-45.8 49.4-62.9 89.6-52.4 123.1 18.8 59.5 125.2 89.9 226.8 111.7 65.9 14.2 143.3-.9 237.5-22 113.5-25.4 259.1-55.6 378.7-63.1 111.2-6.9 198-2.4 231.7 1.4 21.9 2.5 34.5.1 38.5-7.2 7.3-13-11.4-41.3-46.2-85.7-16.5-21-36.5-43.5-57.6-67.4-63.1-71-134.6-151.6-124-211.4 19.5-110 18.9-166.9-1.9-179.1-2.8-1.6-6.2-2.4-9.9-2.4z"/><path class="st1" d="M1072.7 1297.3c-21.1 0-41.2-1.6-60.2-5.3-70.7-13.7-121-27.6-158.3-43.5-43.9-18.8-69.2-40.5-77.4-66.3-10.5-33.2 7.3-73.1 54.4-121.8 80.3-83 188.4-151.9 321.5-204.8 96.2-38.3 113.3-38.6 176.6-40 19.8-.4 44.5-1 77.6-2.8 51.7-2.9 111.6-52.7 164.4-96.6 47.2-39.2 87.9-73.1 109.1-60.5 21 12.5 20.4 70.9-1.9 183.9-11.9 60.3 61.8 142.5 126.8 215 20.2 22.5 39.2 43.7 55.2 63.6 36.5 45.4 56.1 74.4 48.5 88.7-4.3 8-17 10.9-39.1 8.9-33.2-3-119.5-6.1-232.8 1-117 7.3-259.3 32.9-383 57-66.2 12.8-127 23.5-181.4 23.5zm80.2-441.2l.2.5c-132.9 52.9-240.9 121.7-321.1 204.5-46.8 48.3-64.5 87.8-54.2 120.6 8 25.5 33.1 47 76.7 65.6 37.2 15.9 87.4 29.7 158.1 43.4 68.2 13.3 149.6-.4 241.2-18.3 123.8-24.1 266.1-49.7 383.2-57 113.4-7 199.8-3.9 233-.9 21.5 1.9 34-.8 38-8.3 7.3-13.7-12.2-42.4-48.4-87.4-16-19.9-35-41.1-55.2-63.6-65.2-72.7-139.1-155.1-127.1-216 22.2-112.4 23-170.4 2.5-182.6-20.5-12.2-60.9 21.5-107.8 60.4-53 44.1-113 94-165.1 96.9-33.1 1.8-57.8 2.4-77.6 2.8-63.2 1.3-80.2 1.7-176.2 39.9l-.2-.5z"/><path class="st1" d="M1911.1 1221.1c-30.3-2-118.3-3.9-234.2 3.3-113 7-253.1 28.6-387.6 51-92.1 15.3-174.1 26.9-244.8 14.6-103.2-18-224-46.4-242.8-106.3-10.1-32.1 8.2-70.7 56-118 79.6-78.9 189.2-146.7 325.8-201.4l-.2-.5.2.5c97.9-39.3 115.1-39.7 178.8-41.3 20.3-.5 45.5-1.1 79.6-3.2 53.2-3.2 115.4-55.1 170.3-101 48.1-40.1 89.6-74.8 109.8-62.5 20.3 12.3 18.1 71.5-6.9 186.1-13.5 62 62.9 146.3 130.3 220.7 19.1 21 37.1 40.9 52.5 59.6 8.2 10 15.6 19.1 22.1 27.6v-1.9c-6.3-8.1-13.4-16.9-21.2-26.4-15.5-18.7-33.5-38.6-52.6-59.7-67.2-74.2-143.4-158.2-130-219.7 13.2-60.3 19.9-104.7 20.6-135.6.6-28.7-4-45.6-14.2-51.8-21-12.7-62.8 22.2-111.2 62.6-54.8 45.7-116.9 97.5-169.7 100.7-34 2-59.2 2.7-79.5 3.2-63.9 1.6-81.1 2-179.2 41.4-136.7 54.9-246.5 122.7-326.2 201.7-48.1 47.7-66.5 86.7-56.3 119.2 8.1 25.8 34.1 47.2 79.6 65.5 38.8 15.6 91 28.8 164.1 41.6 20.9 3.6 42.7 5.2 65.5 5.2 54.6 0 114.7-9 179.7-19.8 134.5-22.3 274.6-44 387.5-50.9 115.8-7.1 203.7-5.3 234-3.3 3.2.2 6.1.3 8.9.3v-1.2c-2.6 0-5.5-.1-8.7-.3z"/><path class="st1" d="M1716.9 1233.2c-119.8 7.3-270.8 28.2-392.1 44.9-89 12.3-175 22.3-248.4 10.9-158.9-24.7-236.3-56.7-250.9-103.6-9.8-31.4 9.1-69.2 57.8-115.5 54.2-51.4 155.5-127.6 330.5-198.4l-.2-.5.2.5c99.8-40.4 117.1-40.9 181.4-42.7 20.7-.6 46.5-1.3 81.5-3.6 54.3-3.5 118.8-57.4 175.7-105 49.3-41.3 91.9-76.9 111.9-64.5 20 12.4 16.4 72.6-11.5 189.5-15.1 63.3 64 149.5 133.7 225.6 11.7 12.7 22.9 25 33.4 36.8v-1.8c-10.3-11.5-21.2-23.5-32.6-35.8-69.6-75.9-148.4-161.8-133.5-224.5 14.7-61.5 22.5-106.7 23.9-138.1 1.3-29.2-2.9-46.5-13-52.7-20.7-12.8-63.6 23.1-113.3 64.6-56.7 47.5-121.1 101.3-175 104.7-35 2.2-60.7 3-81.5 3.6-64.4 1.9-81.8 2.4-181.8 42.8-75.9 30.7-144.3 64.9-203.4 101.7-49.3 30.7-92.2 63.3-127.5 96.9-49.1 46.6-68.1 84.8-58.1 116.7 14.8 47.4 92.5 79.6 251.9 104.4 22.7 3.5 46.7 5 71.5 5 55.6 0 115.7-7.4 177.3-15.9 121.3-16.7 272.3-37.5 392-44.9 89.1-5.5 160.5-6.6 203-6.3v-1.2c-42.4-.2-113.8 1-202.9 6.4z"/><path class="st1" d="M1756.9 1241.9c-103.1 6.3-228.2 20.2-349.2 33.6-15.8 1.8-31.6 3.5-47.3 5.2-85.6 9.4-175.5 17.7-252.1 7.2-76.8-10.6-134.2-22.9-175.6-37.7-48.3-17.3-75.5-37.9-83.4-63.2-4.6-14.9-2.2-31.6 7-49.7 9.7-19.1 27.5-40.3 52.7-63.3 53.4-48.5 154.9-121.8 335.3-195.3 101.7-41.5 119.2-42 184-44.1 21.2-.7 47.5-1.5 83.4-4 55.5-3.8 122.2-59.7 181.1-109 43.7-36.6 82.3-68.9 104.7-68.9 3.5 0 6.6.8 9.3 2.5 19.8 12.5 14.6 73.8-16.2 192.9-16.1 62.2 59.3 146.3 129.4 221.9v-1.7c-69.7-75.2-144.1-158.6-128.2-219.9 16.2-62.6 25.2-108.6 27.4-140.6 2.1-29.7-1.8-47.2-11.7-53.5-20.5-12.9-64.5 23.9-115.4 66.6-58.8 49.2-125.3 105-180.4 108.7-35.9 2.4-62.2 3.3-83.4 4-65 2.1-82.5 2.7-184.4 44.2l.2.5-.2-.5c-180.6 73.6-282.2 146.9-335.6 195.5-50.1 45.5-69.7 82.9-60 114.2 7.9 25.6 35.4 46.5 84.1 63.9 41.5 14.8 99 27.2 175.9 37.8 25.4 3.5 52.3 4.9 80 4.9 55.9 0 115.1-5.8 172.4-12.1 15.7-1.7 31.5-3.5 47.3-5.2 121-13.4 246.1-27.3 349.2-33.6 63.6-3.9 120-6.1 163-7.2v-1.2c-43.3 1.1-99.7 3.3-163.3 7.1z"/><path class="st1" d="M1796.9 1250.6c-81.2 4.9-173.7 13-271.6 21.6-42.5 3.7-86.5 7.6-129.4 11.1-101.2 8.4-183.4 12.2-255.7 3.5-167.9-20.2-252.7-51.5-267.1-98.2-4.5-14.5-1.9-30.9 7.7-48.6 10.1-18.7 28.2-39.4 53.9-61.8 52.3-45.5 153.7-115.7 340-192.2l-.2-.5.2.5c103.6-42.6 119.6-43.1 186.6-45.5 21.6-.8 48.5-1.7 85.4-4.4 56.6-4.1 125.7-61.9 186.6-113 51.8-43.4 96.6-80.9 116.1-68.4 19.5 12.6 12.8 74.9-20.9 196.1-14.3 51.4 34.1 117.6 91.6 181.9v-1.8c-56.9-63.8-104.6-129.2-90.5-179.8 17.8-63.8 27.8-110.6 30.9-143 2.8-30.2-.6-48-10.4-54.3-20.2-13-65.3 24.7-117.5 68.5-60.8 50.9-129.7 108.7-186 112.7-36.8 2.7-63.7 3.6-85.3 4.4-67.2 2.4-83.2 3-187 45.6-186.4 76.5-288 146.9-340.3 192.4-25.8 22.4-44 43.3-54.1 62.1-9.7 18-12.3 34.7-7.8 49.5 14.5 47.3 99.7 78.7 268.1 99 28.8 3.5 59.2 5 91.8 5 49.2 0 103.2-3.4 164.2-8.5 42.9-3.6 86.9-7.4 129.4-11.1 97.9-8.6 190.4-16.7 271.6-21.6 46-2.8 87.6-4.9 123.1-6.5v-1.2c-35.8 1.6-77.4 3.7-123.4 6.5z"/><path class="st1" d="M1836.9 1259.1c-51.7 3.1-108.4 7-168.3 11.2-77.5 5.4-157.7 11-237.1 15.4-82.6 4.7-178 8.3-259.4-.2-81.2-8.5-142.5-19.6-187.4-33.9-50.7-16.2-80.3-36.9-87.8-61.7-8.9-29.2 12.5-65.5 63.4-107.8 51.4-42.7 153-110.2 344.7-189.1 104.8-43.6 122.4-44.3 188-46.8 22.3-.9 50-1.9 88.5-4.9 57.8-4.3 129.3-64.1 192.4-116.9 46.1-38.6 86.7-72.6 109.1-72.6 3.4 0 6.4.8 8.9 2.4 19.2 12.6 11 75.9-25.8 199.2-9 30.1 3 68 36.7 115.9 5.3 7.6 11.1 15.3 17.2 23v-1.9c-5.7-7.3-11.1-14.5-16.2-21.7-33.4-47.6-45.4-85.2-36.5-114.9 19.3-64.8 30.6-112.4 34.4-145.4 3.6-30.7.6-48.7-9.1-55.1-19.9-13.1-66 25.5-119.4 70.2-62.9 52.7-134.3 112.4-191.7 116.7-38.5 3-66.2 4.1-88.5 4.9-65.7 2.5-83.4 3.2-188.4 46.9-191.9 79-293.6 146.5-345 189.3-26.3 21.8-44.9 42.2-55.4 60.6-10 17.6-12.9 33.9-8.5 48.5 7.7 25.5 36.7 45.9 88.5 62.4 45 14.4 106.4 25.5 187.6 33.9 35.7 3.7 74.1 5.1 112.9 5.1 49.8 0 100.2-2.3 146.6-4.9 79.4-4.5 159.6-10.1 237.2-15.5 60-4.2 116.6-8.1 168.3-11.2 29.4-1.8 57.3-3.4 83.1-4.8v-1.2c-25.7 1.5-53.6 3.1-83 4.9z"/><path class="st1" d="M1904 855.8c-7.4 23.3-2.2 51.3 16 84.9v-2.5c-17.2-32.5-22.1-59.5-14.9-82.1 5.6-17.5 10.5-33.8 14.9-48.9V803c-4.7 16.2-10 33.8-16 52.8z"/><path class="st1" d="M1876.8 1267.3l-23 1.4c-112.7 6.7-252.9 15.1-386.9 19.2-112.8 3.4-193.9 2.2-263-3.9-83.3-7.4-146.6-17.8-193.3-32-52.3-15.8-82.6-36.3-90-60.9-8.6-28.6 13.4-64 65.3-105.3 70.7-56.1 191.6-120.5 349.5-186.1 107.1-44.7 123.2-45.4 191.2-48.2 22.6-.9 50.7-2.1 89.8-5.3 59-4.6 132.8-66.4 198-120.9 43.4-36.3 82.1-68.6 105.5-73.7v-1.2c-23.9 5.1-62.7 37.5-106.3 73.9-65 54.4-138.8 116-197.3 120.6-39.1 3.1-67.2 4.3-89.8 5.3-68.2 2.9-84.3 3.5-191.6 48.3-158 65.6-278.9 130-349.7 186.2-52.4 41.5-74.5 77.4-65.7 106.5 14.2 47.3 107.2 78 284.3 93.7 43.8 3.9 92.5 5.8 151 5.8 33.8 0 70.8-.6 112.1-1.9 134.1-4.1 274.3-12.5 387-19.2l23-1.4c14.8-.9 29.2-1.8 43.1-2.6v-1.2c-13.9 1.2-28.3 2-43.2 2.9z"/><path class="st1" d="M1235.8 1281.9c-186.1-13.7-284.5-45.8-292.5-95.2-10.5-64.3 131.7-158.7 422.6-280.6 109.4-45.8 125.7-46.6 194.5-49.7 22.9-1 51.4-2.3 91.1-5.6 60.1-5 136.4-68.6 203.7-124.7 23.6-19.6 45.7-38.1 64.9-52v-1.5c-19 13.7-41.3 32.3-65.7 52.6-63.8 53.3-143.3 119.5-203 124.5-39.7 3.3-68.2 4.6-91.1 5.6-69 3.1-85.3 3.9-194.9 49.8-152.1 63.8-264.7 120.6-334.6 168.8-63.9 44.1-93.7 82.1-88.7 113.1 8.2 50.1 107 82.4 293.6 96.2 74.1 5.5 156.9 7.7 242.3 7.7 150.6 0 309.1-6.9 442-14.8v-1.2c-208.2 12.3-479.3 22.1-684.2 7z"/></svg>