<svg version="1.1" xmlns="http://www.w3.org/2000/svg" x="0" y="0" viewBox="0 0 1920 1920" xml:space="preserve"><path fill="#e0ac7e" d="M0 0h1920v1920H0z"/><path d="M0 4h104v56H0zm112 0h208v56H112zm216 0h208v56H328zm216 0h208v56H544zm216 0h208v56H760zm216 0h208v56H976zm216 0h208v56h-208zm216 0h208v56h-208zm216 0h208v56h-208zm216 0h80v56h-80zM0 68h208v56H0zm216 0h208v56H216zm216 0h208v56H432zm216 0h208v56H648zm216 0h208v56H864zm216 0h208v56h-208zm216 0h208v56h-208zm216 0h208v56h-208zm216 0h192v56h-192zM0 132h104v56H0zm112 0h208v56H112zm216 0h208v56H328zm216 0h208v56H544zm216 0h208v56H760zm216 0h208v56H976zm216 0h208v56h-208zm216 0h208v56h-208zm216 0h208v56h-208zm216 0h80v56h-80zM0 196h208v56H0zm216 0h208v56H216zm216 0h208v56H432zm216 0h208v56H648zm216 0h208v56H864zm216 0h208v56h-208zm216 0h208v56h-208zm216 0h208v56h-208zm216 0h192v56h-192zM0 260h104v56H0zm112 0h208v56H112zm216 0h208v56H328zm216 0h208v56H544zm216 0h208v56H760zm216 0h208v56H976zm216 0h208v56h-208zm216 0h208v56h-208zm216 0h208v56h-208zm216 0h80v56h-80zM0 324h208v56H0zm216 0h208v56H216zm216 0h208v56H432zm216 0h208v56H648zm216 0h208v56H864zm216 0h208v56h-208zm216 0h208v56h-208zm216 0h208v56h-208zm216 0h192v56h-192zM0 388h104v56H0zm112 0h208v56H112zm216 0h208v56H328zm216 0h208v56H544zm216 0h208v56H760zm216 0h208v56H976zm216 0h208v56h-208zm216 0h208v56h-208zm216 0h208v56h-208zm216 0h80v56h-80zM0 452h208v56H0zm216 0h208v56H216zm216 0h208v56H432zm216 0h208v56H648zm216 0h208v56H864zm216 0h208v56h-208zm216 0h208v56h-208zm216 0h208v56h-208zm216 0h192v56h-192zM0 516h104v56H0zm112 0h208v56H112zm216 0h208v56H328zm216 0h208v56H544zm216 0h208v56H760zm216 0h208v56H976zm216 0h208v56h-208zm216 0h208v56h-208zm216 0h208v56h-208zm216 0h80v56h-80zM0 580h208v56H0zm216 0h208v56H216zm216 0h208v56H432zm216 0h208v56H648zm216 0h208v56H864zm216 0h208v56h-208zm216 0h208v56h-208zm216 0h208v56h-208zm216 0h192v56h-192zM0 644h104v56H0zm112 0h208v56H112zm216 0h208v56H328zm216 0h208v56H544zm216 0h208v56H760zm216 0h208v56H976zm216 0h208v56h-208zm216 0h208v56h-208zm216 0h208v56h-208zm216 0h80v56h-80zM0 708h208v56H0zm216 0h208v56H216zm216 0h208v56H432zm216 0h208v56H648zm216 0h208v56H864zm216 0h208v56h-208zm216 0h208v56h-208zm216 0h208v56h-208zm216 0h192v56h-192zM0 772h104v56H0zm112 0h208v56H112zm216 0h208v56H328zm216 0h208v56H544zm216 0h208v56H760zm216 0h208v56H976zm216 0h208v56h-208zm216 0h208v56h-208zm216 0h208v56h-208zm216 0h80v56h-80zM0 836h208v56H0zm216 0h208v56H216zm216 0h208v56H432zm216 0h208v56H648zm216 0h208v56H864zm216 0h208v56h-208zm216 0h208v56h-208zm216 0h208v56h-208zm216 0h192v56h-192zM0 900h104v56H0zm112 0h208v56H112zm216 0h208v56H328zm216 0h208v56H544zm216 0h208v56H760zm216 0h208v56H976zm216 0h208v56h-208zm216 0h208v56h-208zm216 0h208v56h-208zm216 0h80v56h-80zM0 964h208v56H0zm216 0h208v56H216zm216 0h208v56H432zm216 0h208v56H648zm216 0h208v56H864zm216 0h208v56h-208zm216 0h208v56h-208zm216 0h208v56h-208zm216 0h192v56h-192zM0 1028h104v56H0zm112 0h208v56H112zm216 0h208v56H328zm216 0h208v56H544zm216 0h208v56H760zm216 0h208v56H976zm216 0h208v56h-208zm216 0h208v56h-208zm216 0h208v56h-208zm216 0h80v56h-80zM0 1092h208v56H0zm216 0h208v56H216zm216 0h208v56H432zm216 0h208v56H648zm216 0h208v56H864zm216 0h208v56h-208zm216 0h208v56h-208zm216 0h208v56h-208zm216 0h192v56h-192zM0 1156h104v56H0zm112 0h208v56H112zm216 0h208v56H328zm216 0h208v56H544zm216 0h208v56H760zm216 0h208v56H976zm216 0h208v56h-208zm216 0h208v56h-208zm216 0h208v56h-208zm216 0h80v56h-80zM0 1220h208v56H0zm216 0h208v56H216zm216 0h208v56H432zm216 0h208v56H648zm216 0h208v56H864zm216 0h208v56h-208zm216 0h208v56h-208zm216 0h208v56h-208zm216 0h192v56h-192zM0 1284h104v56H0zm112 0h208v56H112zm216 0h208v56H328zm216 0h208v56H544zm216 0h208v56H760zm216 0h208v56H976zm216 0h208v56h-208zm216 0h208v56h-208zm216 0h208v56h-208zm216 0h80v56h-80zM0 1348h208v56H0zm216 0h208v56H216zm216 0h208v56H432zm216 0h208v56H648zm216 0h208v56H864zm216 0h208v56h-208zm216 0h208v56h-208zm216 0h208v56h-208zm216 0h192v56h-192zM0 1412h104v56H0zm112 0h208v56H112zm216 0h208v56H328zm216 0h208v56H544zm216 0h208v56H760zm216 0h208v56H976zm216 0h208v56h-208zm216 0h208v56h-208zm216 0h208v56h-208zm216 0h80v56h-80zM0 1476h208v56H0zm216 0h208v56H216zm216 0h208v56H432zm216 0h208v56H648zm216 0h208v56H864zm216 0h208v56h-208zm216 0h208v56h-208zm216 0h208v56h-208zm216 0h192v56h-192zM0 1540h104v56H0zm112 0h208v56H112zm216 0h208v56H328zm216 0h208v56H544zm216 0h208v56H760zm216 0h208v56H976zm216 0h208v56h-208zm216 0h208v56h-208zm216 0h208v56h-208zm216 0h80v56h-80zM0 1604h208v56H0zm216 0h208v56H216zm216 0h208v56H432zm216 0h208v56H648zm216 0h208v56H864zm216 0h208v56h-208zm216 0h208v56h-208zm216 0h208v56h-208zm216 0h192v56h-192zM0 1668h104v56H0zm112 0h208v56H112zm216 0h208v56H328zm216 0h208v56H544zm216 0h208v56H760zm216 0h208v56H976zm216 0h208v56h-208zm216 0h208v56h-208zm216 0h208v56h-208zm216 0h80v56h-80zM0 1732h208v56H0zm216 0h208v56H216zm216 0h208v56H432zm216 0h208v56H648zm216 0h208v56H864zm216 0h208v56h-208zm216 0h208v56h-208zm216 0h208v56h-208zm216 0h192v56h-192zM0 1796h104v56H0zm112 0h208v56H112zm216 0h208v56H328zm216 0h208v56H544zm216 0h208v56H760zm216 0h208v56H976zm216 0h208v56h-208zm216 0h208v56h-208zm216 0h208v56h-208zm216 0h80v56h-80zM0 1860h208v56H0zm216 0h208v56H216zm216 0h208v56H432zm216 0h208v56H648zm216 0h208v56H864zm216 0h208v56h-208zm216 0h208v56h-208zm216 0h208v56h-208zm216 0h192v56h-192z" fill="#a18267"/></svg>