<svg version="1.1" xmlns="http://www.w3.org/2000/svg" x="0" y="0" viewBox="0 0 1920 1920" xml:space="preserve"><style type="text/css">.st0{fill:#989898}</style><path fill="#445a76" d="M0 0h1920v1920H0z"/><circle class="st0" cx="101.053" cy="101.053" r="8.25"/><circle class="st0" cx="101.053" cy="202.105" r="12.75"/><circle class="st0" cx="101.053" cy="303.158" r="15"/><circle class="st0" cx="101.053" cy="404.211" r="24"/><circle class="st0" cx="101.053" cy="505.263" r="23"/><circle class="st0" cx="101.053" cy="606.316" r="10.5"/><circle class="st0" cx="101.053" cy="707.368" r="12"/><circle class="st0" cx="101.053" cy="808.421" r="12"/><circle class="st0" cx="101.053" cy="909.474" r="16.75"/><circle class="st0" cx="101.053" cy="1010.526" r="24.75"/><circle class="st0" cx="101.053" cy="1111.579" r="14.25"/><circle class="st0" cx="101.053" cy="1212.632" r="21"/><circle class="st0" cx="101.053" cy="1313.684" r="18.75"/><circle class="st0" cx="101.053" cy="1414.737" r="21.75"/><circle class="st0" cx="101.053" cy="1515.789" r="19.25"/><circle class="st0" cx="101.053" cy="1616.842" r="20.25"/><circle class="st0" cx="101.053" cy="1717.895" r="8.25"/><circle class="st0" cx="101.053" cy="1818.947" r="22.75"/><circle class="st0" cx="202.105" cy="101.053" r="12.5"/><circle class="st0" cx="202.105" cy="202.105" r="15.5"/><circle class="st0" cx="202.105" cy="303.158" r="20.5"/><circle class="st0" cx="202.105" cy="404.211" r="17"/><circle class="st0" cx="202.105" cy="505.263" r="18.5"/><circle class="st0" cx="202.105" cy="606.316" r="25"/><circle class="st0" cx="202.105" cy="707.368" r="22.75"/><circle class="st0" cx="202.105" cy="808.421" r="13"/><circle class="st0" cx="202.105" cy="909.474" r="16"/><circle class="st0" cx="202.105" cy="1010.526" r="21.75"/><circle class="st0" cx="202.105" cy="1111.579" r="20.5"/><circle class="st0" cx="202.105" cy="1212.632" r="10"/><circle class="st0" cx="202.105" cy="1313.684" r="16.75"/><circle class="st0" cx="202.105" cy="1414.737" r="16.5"/><circle class="st0" cx="202.105" cy="1515.789" r="10"/><circle class="st0" cx="202.105" cy="1616.842" r="16"/><circle class="st0" cx="202.105" cy="1717.895" r="12.5"/><circle class="st0" cx="202.105" cy="1818.947" r="8"/><circle class="st0" cx="303.158" cy="101.053" r="17.25"/><circle class="st0" cx="303.158" cy="202.105" r="23.25"/><circle class="st0" cx="303.158" cy="303.158" r="18.75"/><circle class="st0" cx="303.158" cy="404.211" r="12.25"/><circle class="st0" cx="303.158" cy="505.263" r="22.25"/><circle class="st0" cx="303.158" cy="606.316" r="13.25"/><circle class="st0" cx="303.158" cy="707.368" r="15.25"/><circle class="st0" cx="303.158" cy="808.421" r="22.25"/><circle class="st0" cx="303.158" cy="909.474" r="19.75"/><circle class="st0" cx="303.158" cy="1010.526" r="19"/><circle class="st0" cx="303.158" cy="1111.579" r="22.75"/><circle class="st0" cx="303.158" cy="1212.632" r="11"/><circle class="st0" cx="303.158" cy="1313.684" r="23"/><circle class="st0" cx="303.158" cy="1414.737" r="16.5"/><circle class="st0" cx="303.158" cy="1515.789" r="12"/><circle class="st0" cx="303.158" cy="1616.842" r="20"/><circle class="st0" cx="303.158" cy="1717.895" r="14"/><circle class="st0" cx="303.158" cy="1818.947" r="21.25"/><circle class="st0" cx="404.211" cy="101.053" r="11"/><circle class="st0" cx="404.211" cy="202.105" r="24.5"/><circle class="st0" cx="404.211" cy="303.158" r="17.75"/><circle class="st0" cx="404.211" cy="404.211" r="12.75"/><circle class="st0" cx="404.211" cy="505.263" r="21.75"/><circle class="st0" cx="404.211" cy="606.316" r="18.75"/><circle class="st0" cx="404.211" cy="707.368" r="22.75"/><circle class="st0" cx="404.211" cy="808.421" r="14.5"/><circle class="st0" cx="404.211" cy="909.474" r="15"/><circle class="st0" cx="404.211" cy="1010.526" r="11.75"/><circle class="st0" cx="404.211" cy="1111.579" r="17.25"/><circle class="st0" cx="404.211" cy="1212.632" r="25"/><circle class="st0" cx="404.211" cy="1313.684" r="21.75"/><circle class="st0" cx="404.211" cy="1414.737" r="12.5"/><circle class="st0" cx="404.211" cy="1515.789" r="17.5"/><circle class="st0" cx="404.211" cy="1616.842" r="23.25"/><circle class="st0" cx="404.211" cy="1717.895" r="8.5"/><circle class="st0" cx="404.211" cy="1818.947" r="14.75"/><circle class="st0" cx="505.263" cy="101.053" r="18.25"/><circle class="st0" cx="505.263" cy="202.105" r="22"/><circle class="st0" cx="505.263" cy="303.158" r="23.75"/><circle class="st0" cx="505.263" cy="404.211" r="16.25"/><circle class="st0" cx="505.263" cy="505.263" r="20.25"/><circle class="st0" cx="505.263" cy="606.316" r="23.75"/><circle class="st0" cx="505.263" cy="707.368" r="17.25"/><circle class="st0" cx="505.263" cy="808.421" r="20"/><circle class="st0" cx="505.263" cy="909.474" r="14.25"/><circle class="st0" cx="505.263" cy="1010.526" r="14.75"/><circle class="st0" cx="505.263" cy="1111.579" r="16.5"/><circle class="st0" cx="505.263" cy="1212.632" r="24.75"/><circle class="st0" cx="505.263" cy="1313.684" r="13.5"/><circle class="st0" cx="505.263" cy="1414.737" r="23"/><circle class="st0" cx="505.263" cy="1515.789" r="8.5"/><circle class="st0" cx="505.263" cy="1616.842" r="18.75"/><circle class="st0" cx="505.263" cy="1717.895" r="23"/><circle class="st0" cx="505.263" cy="1818.947" r="12.25"/><circle class="st0" cx="606.316" cy="101.053" r="20.5"/><circle class="st0" cx="606.316" cy="202.105" r="20.25"/><circle class="st0" cx="606.316" cy="303.158" r="19"/><circle class="st0" cx="606.316" cy="404.211" r="20.5"/><circle class="st0" cx="606.316" cy="505.263" r="7.5"/><circle class="st0" cx="606.316" cy="606.316" r="15.5"/><circle class="st0" cx="606.316" cy="707.368" r="25"/><circle class="st0" cx="606.316" cy="808.421" r="17"/><circle class="st0" cx="606.316" cy="909.474" r="23"/><circle class="st0" cx="606.316" cy="1010.526" r="13.5"/><circle class="st0" cx="606.316" cy="1111.579" r="10.75"/><circle class="st0" cx="606.316" cy="1212.632" r="17"/><circle class="st0" cx="606.316" cy="1313.684" r="8.5"/><circle class="st0" cx="606.316" cy="1414.737" r="23.75"/><circle class="st0" cx="606.316" cy="1515.789" r="11.75"/><circle class="st0" cx="606.316" cy="1616.842" r="14.25"/><circle class="st0" cx="606.316" cy="1717.895" r="18"/><circle class="st0" cx="606.316" cy="1818.947" r="16.5"/><circle class="st0" cx="707.368" cy="101.053" r="14"/><circle class="st0" cx="707.368" cy="202.105" r="17.25"/><circle class="st0" cx="707.368" cy="303.158" r="14.5"/><circle class="st0" cx="707.368" cy="404.211" r="19.25"/><circle class="st0" cx="707.368" cy="505.263" r="20.5"/><circle class="st0" cx="707.368" cy="606.316" r="11.75"/><circle class="st0" cx="707.368" cy="707.368" r="8.75"/><circle class="st0" cx="707.368" cy="808.421" r="23.5"/><circle class="st0" cx="707.368" cy="909.474" r="15.5"/><circle class="st0" cx="707.368" cy="1010.526" r="15.5"/><circle class="st0" cx="707.368" cy="1111.579" r="17.5"/><circle class="st0" cx="707.368" cy="1212.632" r="12.25"/><circle class="st0" cx="707.368" cy="1313.684" r="21"/><circle class="st0" cx="707.368" cy="1414.737" r="23.5"/><circle class="st0" cx="707.368" cy="1515.789" r="18.5"/><circle class="st0" cx="707.368" cy="1616.842" r="18.5"/><circle class="st0" cx="707.368" cy="1717.895" r="24.5"/><circle class="st0" cx="707.368" cy="1818.947" r="24.5"/><circle class="st0" cx="808.421" cy="101.053" r="16.5"/><circle class="st0" cx="808.421" cy="202.105" r="8.5"/><circle class="st0" cx="808.421" cy="303.158" r="12.25"/><circle class="st0" cx="808.421" cy="404.211" r="21.75"/><circle class="st0" cx="808.421" cy="505.263" r="16.25"/><circle class="st0" cx="808.421" cy="606.316" r="10"/><circle class="st0" cx="808.421" cy="707.368" r="8"/><circle class="st0" cx="808.421" cy="808.421" r="22.75"/><circle class="st0" cx="808.421" cy="909.474" r="11"/><circle class="st0" cx="808.421" cy="1010.526" r="19.75"/><circle class="st0" cx="808.421" cy="1111.579" r="9.75"/><circle class="st0" cx="808.421" cy="1212.632" r="11"/><circle class="st0" cx="808.421" cy="1313.684" r="16.75"/><circle class="st0" cx="808.421" cy="1414.737" r="20"/><circle class="st0" cx="808.421" cy="1515.789" r="8.75"/><circle class="st0" cx="808.421" cy="1616.842" r="23.75"/><circle class="st0" cx="808.421" cy="1717.895" r="18.5"/><circle class="st0" cx="808.421" cy="1818.947" r="11"/><circle class="st0" cx="909.474" cy="101.053" r="23"/><circle class="st0" cx="909.474" cy="202.105" r="15"/><circle class="st0" cx="909.474" cy="303.158" r="13"/><circle class="st0" cx="909.474" cy="404.211" r="19.5"/><circle class="st0" cx="909.474" cy="505.263" r="18.5"/><circle class="st0" cx="909.474" cy="606.316" r="22.25"/><circle class="st0" cx="909.474" cy="707.368" r="12"/><circle class="st0" cx="909.474" cy="808.421" r="11.25"/><circle class="st0" cx="909.474" cy="909.474" r="17"/><circle class="st0" cx="909.474" cy="1010.526" r="8.5"/><circle class="st0" cx="909.474" cy="1111.579" r="15.5"/><circle class="st0" cx="909.474" cy="1212.632" r="13"/><circle class="st0" cx="909.474" cy="1313.684" r="22"/><circle class="st0" cx="909.474" cy="1414.737" r="20.5"/><circle class="st0" cx="909.474" cy="1515.789" r="23.5"/><circle class="st0" cx="909.474" cy="1616.842" r="13.75"/><circle class="st0" cx="909.474" cy="1717.895" r="21.25"/><circle class="st0" cx="909.474" cy="1818.947" r="14"/><circle class="st0" cx="1010.526" cy="101.053" r="23.75"/><circle class="st0" cx="1010.526" cy="202.105" r="10.25"/><circle class="st0" cx="1010.526" cy="303.158" r="22.5"/><circle class="st0" cx="1010.526" cy="404.211" r="9.75"/><circle class="st0" cx="1010.526" cy="505.263" r="10.5"/><circle class="st0" cx="1010.526" cy="606.316" r="10.5"/><circle class="st0" cx="1010.526" cy="707.368" r="19"/><circle class="st0" cx="1010.526" cy="808.421" r="9.5"/><circle class="st0" cx="1010.526" cy="909.474" r="11.5"/><circle class="st0" cx="1010.526" cy="1010.526" r="20"/><circle class="st0" cx="1010.526" cy="1111.579" r="9.75"/><circle class="st0" cx="1010.526" cy="1212.632" r="24"/><circle class="st0" cx="1010.526" cy="1313.684" r="19.75"/><circle class="st0" cx="1010.526" cy="1414.737" r="18.5"/><circle class="st0" cx="1010.526" cy="1515.789" r="22.5"/><circle class="st0" cx="1010.526" cy="1616.842" r="11.75"/><circle class="st0" cx="1010.526" cy="1717.895" r="21.5"/><circle class="st0" cx="1010.526" cy="1818.947" r="23.5"/><circle class="st0" cx="1111.579" cy="101.053" r="9.25"/><circle class="st0" cx="1111.579" cy="202.105" r="17.25"/><circle class="st0" cx="1111.579" cy="303.158" r="21.25"/><circle class="st0" cx="1111.579" cy="404.211" r="23.5"/><circle class="st0" cx="1111.579" cy="505.263" r="11.75"/><circle class="st0" cx="1111.579" cy="606.316" r="8.5"/><circle class="st0" cx="1111.579" cy="707.368" r="21.25"/><circle class="st0" cx="1111.579" cy="808.421" r="24.75"/><circle class="st0" cx="1111.579" cy="909.474" r="21.75"/><circle class="st0" cx="1111.579" cy="1010.526" r="10"/><circle class="st0" cx="1111.579" cy="1111.579" r="10"/><circle class="st0" cx="1111.579" cy="1212.632" r="21"/><circle class="st0" cx="1111.579" cy="1313.684" r="12.25"/><circle class="st0" cx="1111.579" cy="1414.737" r="17.5"/><circle class="st0" cx="1111.579" cy="1515.789" r="16"/><circle class="st0" cx="1111.579" cy="1616.842" r="19.5"/><circle class="st0" cx="1111.579" cy="1717.895" r="15.75"/><circle class="st0" cx="1111.579" cy="1818.947" r="22.25"/><circle class="st0" cx="1212.632" cy="101.053" r="24.75"/><circle class="st0" cx="1212.632" cy="202.105" r="8"/><circle class="st0" cx="1212.632" cy="303.158" r="7.5"/><circle class="st0" cx="1212.632" cy="404.211" r="7.5"/><circle class="st0" cx="1212.632" cy="505.263" r="8.25"/><circle class="st0" cx="1212.632" cy="606.316" r="12"/><circle class="st0" cx="1212.632" cy="707.368" r="20.75"/><circle class="st0" cx="1212.632" cy="808.421" r="14.5"/><circle class="st0" cx="1212.632" cy="909.474" r="23.25"/><circle class="st0" cx="1212.632" cy="1010.526" r="24.25"/><circle class="st0" cx="1212.632" cy="1111.579" r="23"/><circle class="st0" cx="1212.632" cy="1212.632" r="9.75"/><circle class="st0" cx="1212.632" cy="1313.684" r="22"/><circle class="st0" cx="1212.632" cy="1414.737" r="21.75"/><circle class="st0" cx="1212.632" cy="1515.789" r="16.25"/><circle class="st0" cx="1212.632" cy="1616.842" r="11.25"/><circle class="st0" cx="1212.632" cy="1717.895" r="9.75"/><circle class="st0" cx="1212.632" cy="1818.947" r="15"/><circle class="st0" cx="1313.684" cy="101.053" r="21.5"/><circle class="st0" cx="1313.684" cy="202.105" r="11"/><circle class="st0" cx="1313.684" cy="303.158" r="9.75"/><circle class="st0" cx="1313.684" cy="404.211" r="18.25"/><circle class="st0" cx="1313.684" cy="505.263" r="9.25"/><circle class="st0" cx="1313.684" cy="606.316" r="16.75"/><circle class="st0" cx="1313.684" cy="707.368" r="20.5"/><circle class="st0" cx="1313.684" cy="808.421" r="14"/><circle class="st0" cx="1313.684" cy="909.474" r="24.25"/><circle class="st0" cx="1313.684" cy="1010.526" r="19.75"/><circle class="st0" cx="1313.684" cy="1111.579" r="9.75"/><circle class="st0" cx="1313.684" cy="1212.632" r="9.5"/><circle class="st0" cx="1313.684" cy="1313.684" r="8.5"/><circle class="st0" cx="1313.684" cy="1414.737" r="23.75"/><circle class="st0" cx="1313.684" cy="1515.789" r="20"/><circle class="st0" cx="1313.684" cy="1616.842" r="10.25"/><circle class="st0" cx="1313.684" cy="1717.895" r="21.5"/><circle class="st0" cx="1313.684" cy="1818.947" r="21.75"/><circle class="st0" cx="1414.737" cy="101.053" r="18"/><circle class="st0" cx="1414.737" cy="202.105" r="9.75"/><circle class="st0" cx="1414.737" cy="303.158" r="13"/><circle class="st0" cx="1414.737" cy="404.211" r="8"/><circle class="st0" cx="1414.737" cy="505.263" r="17.75"/><circle class="st0" cx="1414.737" cy="606.316" r="14"/><circle class="st0" cx="1414.737" cy="707.368" r="20.5"/><circle class="st0" cx="1414.737" cy="808.421" r="12.75"/><circle class="st0" cx="1414.737" cy="909.474" r="22.5"/><circle class="st0" cx="1414.737" cy="1010.526" r="11.5"/><circle class="st0" cx="1414.737" cy="1111.579" r="19.5"/><circle class="st0" cx="1414.737" cy="1212.632" r="17.25"/><circle class="st0" cx="1414.737" cy="1313.684" r="11.5"/><circle class="st0" cx="1414.737" cy="1414.737" r="10"/><circle class="st0" cx="1414.737" cy="1515.789" r="14.5"/><circle class="st0" cx="1414.737" cy="1616.842" r="12"/><circle class="st0" cx="1414.737" cy="1717.895" r="19"/><circle class="st0" cx="1414.737" cy="1818.947" r="18.75"/><circle class="st0" cx="1515.789" cy="101.053" r="18"/><circle class="st0" cx="1515.789" cy="202.105" r="8"/><circle class="st0" cx="1515.789" cy="303.158" r="23.25"/><circle class="st0" cx="1515.789" cy="404.211" r="8.5"/><circle class="st0" cx="1515.789" cy="505.263" r="12.25"/><circle class="st0" cx="1515.789" cy="606.316" r="9"/><circle class="st0" cx="1515.789" cy="707.368" r="22.25"/><circle class="st0" cx="1515.789" cy="808.421" r="19.25"/><circle class="st0" cx="1515.789" cy="909.474" r="21"/><circle class="st0" cx="1515.789" cy="1010.526" r="14.25"/><circle class="st0" cx="1515.789" cy="1111.579" r="14"/><circle class="st0" cx="1515.789" cy="1212.632" r="19.75"/><circle class="st0" cx="1515.789" cy="1313.684" r="11.25"/><circle class="st0" cx="1515.789" cy="1414.737" r="19.5"/><circle class="st0" cx="1515.789" cy="1515.789" r="14.25"/><circle class="st0" cx="1515.789" cy="1616.842" r="20.5"/><circle class="st0" cx="1515.789" cy="1717.895" r="22.5"/><circle class="st0" cx="1515.789" cy="1818.947" r="16.25"/><circle class="st0" cx="1616.842" cy="101.053" r="20.75"/><circle class="st0" cx="1616.842" cy="202.105" r="16.75"/><circle class="st0" cx="1616.842" cy="303.158" r="22.75"/><circle class="st0" cx="1616.842" cy="404.211" r="21.75"/><circle class="st0" cx="1616.842" cy="505.263" r="16.75"/><circle class="st0" cx="1616.842" cy="606.316" r="21.75"/><circle class="st0" cx="1616.842" cy="707.368" r="23.75"/><circle class="st0" cx="1616.842" cy="808.421" r="22.75"/><circle class="st0" cx="1616.842" cy="909.474" r="12.25"/><circle class="st0" cx="1616.842" cy="1010.526" r="13.25"/><circle class="st0" cx="1616.842" cy="1111.579" r="13.25"/><circle class="st0" cx="1616.842" cy="1212.632" r="21"/><circle class="st0" cx="1616.842" cy="1313.684" r="15.5"/><circle class="st0" cx="1616.842" cy="1414.737" r="9.75"/><circle class="st0" cx="1616.842" cy="1515.789" r="9.75"/><circle class="st0" cx="1616.842" cy="1616.842" r="8.5"/><circle class="st0" cx="1616.842" cy="1717.895" r="10.5"/><circle class="st0" cx="1616.842" cy="1818.947" r="7.5"/><circle class="st0" cx="1717.895" cy="101.053" r="22.25"/><circle class="st0" cx="1717.895" cy="202.105" r="17.75"/><circle class="st0" cx="1717.895" cy="303.158" r="13.5"/><circle class="st0" cx="1717.895" cy="404.211" r="22"/><circle class="st0" cx="1717.895" cy="505.263" r="24"/><circle class="st0" cx="1717.895" cy="606.316" r="8.25"/><circle class="st0" cx="1717.895" cy="707.368" r="22.25"/><circle class="st0" cx="1717.895" cy="808.421" r="9"/><circle class="st0" cx="1717.895" cy="909.474" r="15.5"/><circle class="st0" cx="1717.895" cy="1010.526" r="24.25"/><circle class="st0" cx="1717.895" cy="1111.579" r="15.25"/><circle class="st0" cx="1717.895" cy="1212.632" r="8.75"/><circle class="st0" cx="1717.895" cy="1313.684" r="23.25"/><circle class="st0" cx="1717.895" cy="1414.737" r="14.75"/><circle class="st0" cx="1717.895" cy="1515.789" r="17"/><circle class="st0" cx="1717.895" cy="1616.842" r="23.25"/><circle class="st0" cx="1717.895" cy="1717.895" r="24.25"/><circle class="st0" cx="1717.895" cy="1818.947" r="12.5"/><circle class="st0" cx="1818.947" cy="101.053" r="9.5"/><circle class="st0" cx="1818.947" cy="202.105" r="24"/><circle class="st0" cx="1818.947" cy="303.158" r="17.75"/><circle class="st0" cx="1818.947" cy="404.211" r="24.25"/><circle class="st0" cx="1818.947" cy="505.263" r="11.5"/><circle class="st0" cx="1818.947" cy="606.316" r="24.25"/><circle class="st0" cx="1818.947" cy="707.368" r="16.75"/><circle class="st0" cx="1818.947" cy="808.421" r="21"/><circle class="st0" cx="1818.947" cy="909.474" r="22.75"/><circle class="st0" cx="1818.947" cy="1010.526" r="19.25"/><circle class="st0" cx="1818.947" cy="1111.579" r="24.25"/><circle class="st0" cx="1818.947" cy="1212.632" r="16.5"/><circle class="st0" cx="1818.947" cy="1313.684" r="18"/><circle class="st0" cx="1818.947" cy="1414.737" r="10"/><circle class="st0" cx="1818.947" cy="1515.789" r="21.5"/><circle class="st0" cx="1818.947" cy="1616.842" r="9"/><circle class="st0" cx="1818.947" cy="1717.895" r="18"/><circle class="st0" cx="1818.947" cy="1818.947" r="8.75"/></svg>