<svg version="1.1" xmlns="http://www.w3.org/2000/svg" x="0" y="0" viewBox="0 0 1920 1920" xml:space="preserve"><path d="M0 0h1920v1920H0V0z" fill="#36434f"/><path d="M33 33h64v18H33zm80 0h64v18h-64zm80 0h128v18H193zm144 0h32v18h-32zm48 0h112v18H385zm128 0h48v18h-48zM33 69h80v18H33zm96 0h288v18H129zm304 0h256v18H433zm272 0h32v18h-32zM33 105h80v18H33zm96 0h240v18H129zm256 0h416v18H385zm432 0h208v18H817zm224 0h128v18h-128zm144 0h112v18h-112zm128 0h176v18h-176zM33 141h80v18H33zm96 0h240v18H129zm256 0h416v18H385zm432 0h208v18H817zm224 0h128v18h-128zm144 0h112v18h-112zm128 0h160v18h-160zm176 0h400v18h-400zM33 177h80v18H33zm96 0h240v18H129zm256 0h480v18H385zm496 0h32v18h-32zM33 213h64v18H33zm80 0h64v18h-64zm80 0h64v18h-64zm80 0h64v18h-64zm80 0h48v18h-48zm64 0h96v18h-96zm112 0h144v18H529zm160 0h32v18h-32zm48 0h240v18H737zm256 0h96v18h-96zm112 0h96v18h-96zm112 0h16v18h-16zm32 0h80v18h-80zm96 0h144v18h-144zm160 0h128v18h-128zm144 0h16v18h-16zM33 249h112v18H33zm128 0h352v18H161zm368 0h336v18H529zM33 285h64v18H33zm80 0h160v18H113zm304 0h16v18h-16zm32 0h128v18H449zM33 321h64v18H33zm80 0h208v18H113zm304 0h16v18h-16zm32 0h80v18h-80zM33 357h64v18H33zm80 0h288v18H113zm304 0h16v18h-16zm32 0h48v18h-48zM33 393h16v18H33zm0 36h64v18H33zm80 0h160v18H113zm176 0h16v18h-16zm32 0h432v18H321zM33 501h48v18H33zm64 0h128v18H97zm144 0h32v18h-32zm48 0h96v18h-96zm112 0h80v18h-80zm96 0h48v18h-48zm64 0h80v18h-80zm96 0h32v18h-32zM33 537h144v18H33zm160 0h368v18H193zm384 0h16v18h-16zM33 573h128v18H33zm144 0h544v18H177zm560 0h16v18h-16zm32 0h128v18H769zm144 0h16v18h-16zm32 0h48v18h-48zM33 609h32v18H33zm0 72h48v18H33zm64 0h112v18H97zm128 0h128v18H225zm144 0h32v18h-32zm48 0h48v18h-48zm64 0h112v18H481zm128 0h96v18h-96zm112 0h112v18H721zm128 0h32v18h-32zM33 717h48v18H33zm64 0h16v18H97zm32 0h368v18H129zm384 0h16v18h-16zm32 0h16v18h-16zM33 753h320v18H33zm336 0h16v18h-16zm32 0h80v18h-80zM33 789h32v18H33zm0 72h48v18H33zm64 0h112v18H97zm128 0h128v18H225zm144 0h32v18h-32zM33 897h144v18H33zm160 0h304v18H193zm320 0h16v18h-16zM33 933h16v18H33zm48 0h240v18H81zm256 0h16v18h-16zm32 0h160v18H369zm176 0h16v18h-16zm32 0h112v18H577zm128 0h192v18H705zm208 0h32v18h-32zm48 0h48v18h-48zm64 0h64v18h-64zm80 0h128v18h-128zm144 0h64v18h-64zm80 0h128v18h-128zM33 969h16v18H33zm48 0h288v18H81zm304 0h16v18h-16zm32 0h80v18h-80zm-384 36h32v18H33zm0 36h16v18H33zm0 36h48v18H33zm64 0h16v18H97zm32 0h208v18H129zm224 0h16v18h-16zm32 0h16v18h-16zm-352 36h1248v18H33zm0 36h832v18H33zm848 0h448v18H881zm-848 36h1312v18H33zm0 36h1392v18H33zm0 72h368v18H33zm384 0h256v18H417zm272 0h128v18H689zm-656 36h320v18H33zm336 0h176v18H369zm192 0h96v18h-96zm-528 36h528v18H33zm0 36h32v18H33zm48 0h64v18H81zm80 0h16v18h-16zm-128 36h224v18H33zm240 0h32v18h-32zm48 0h32v18h-32zm-288 36h208v18H33zm224 0h16v18h-16zm-224 36h80v18H33zm96 0h1168v18H129zm1184 0h32v18h-32zM33 1545h96v18H33zm112 0h96v18h-96zm112 0h16v18h-16zm32 0h160v18H289zm176 0h16v18h-16zm-432 36h160v18H33zm176 0h80v18h-80zm-176 36h80v18H33zm0 36h96v18H33zm112 0h160v18H145zm176 0h16v18h-16zm32 0h160v18H353zm176 0h16v18h-16zm-496 36h160v18H33zm176 0h80v18h-80zm-176 36h80v18H33zm0 36h96v18H33zm112 0h112v18H145zm128 0h16v18h-16zm32 0h160v18H305zm176 0h16v18h-16zm-448 36h160v18H33zm176 0h80v18h-80zm-176 36h80v18H33zm0 36h96v18H33zm112 0h16v18h-16zm32 0h16v18h-16zm32 0h288v18H209z" fill="#999"/></svg>