<svg version="1.1" xmlns="http://www.w3.org/2000/svg" x="0" y="0" viewBox="0 0 1920 1920" xml:space="preserve"><style type="text/css">.st1{fill:#989898}</style><path fill="#445a76" d="M0 0h1920v1920H0z"/><path d="M791 1398l-74 56m-354-399l-66 31m-282-2l-4-95m660-452l-32 39m36 878l-47 21m1113-756l-45-5M514 566l-2-109m1063 1377l-66-88M762 391l-100 16M135 110l-87 18m269-21l-11 93m1414 657l-10 73M391 1447v-55M1447 299l-24-9M176 713l-14-142m442 900l-30 21m910-506l-42 62m-338 521l-43-111M409 999l-46 56m-102 137l-52-79m83-167h-93m1626 549l-47-19m-133 250l-9-46M403 1885l-2-143m0 0l-67 42m-5-439l-19-2m645-520l-31 72m124 815l-80-22m719-742l-49 89m67 15l-97-34M162 1708l-10 2m109-518l-51-76M84 1509l-6-124M1773 255l-78-5M304 1590l-7 37m863-590l-40 7m-621 555l-84-22m637-1288l-2 15m-672 707l-47 111m1248 94l-23 86m-245-61l-36 90m-262-2l-20 88M983 49l-19 86m268 493l-50-53m-819 747l-53 21m1494-584l-82-22M261 1192l-88-40m107 379l-30-21m1547-76l-19 42m-528 350l-12 15m577-1051l-11-31m-776 331l-38-78M157 77L60 18m1643 1725l-67-63m146-1559l-81 2m-407 1109l-19 99m291-528l-106-46m-374-331l-69-3m710 401l-7 33m-216-595l-57 37M955 823l-17 47m-20 594l-27 26M476 797l-27 44m1356-162l-39 16M84 1509l-64 33m1162-967l-47 61M317 107H211m1280 996l-31-33m286 42l-30 25m49-858l-40-64m-450 1116l-23-58m614-903l-15-21m-141 581l-23 16m9-299l-64-42m-662 782l-34 7M449 841l-24 19m378 295l-33 95m355 612l-23-62m-488-427l-54-85m1335 547l-73-67m-79-59l-40 34M354 824l-6 14m210 444l-11-83m-58-783l-112 67M199 946l-14 60m1259 536l-9-3m-126 175l-59 112m-748-696l-15 51m1233-324l-33 89m-199-69l-34 69M802 48l-130 88m1219 1391l-113-51M910 643l-22 52m-557 427l-70 70m818 82l-66 55m-45 359l-84 23m195-1167l-90 36m-658 542l-44 59m354-871l-13 42m298 201l-16 90m773-609l-29 58m-166 785l-4 109M163 1641l-16-81M1686 294l-10 3m-80 723l-12-29m-828 612l-23 115m726-1186l-56-30m469 129l-63-77m-468-379l-49-45m375 357l-11 8M382 1385l-19-63m846-966l-25 50m327 1117l-5 24m-57-1132l-5 40M138 502l-53 26m1017 1272l-138 93m-282-22l-130-35M540 675l-41-23M308 857l-2-61m604-153l-2-33m873-428l-56 33m-116 740l-60 54M439 1487l-48-40m651-419l-52-16m619-57l-1 61m-206 580l-29 35m-839 234l-105 39m-249-621L78 1385m1057-220l-7-39m-966 582l-2-20m140-431l-23 1M413 105l-96 2m1187 155l-17-73M512 457l-23-41m1167 79l-77 29m148 300l-5-87M207 1679l-44-38m141-51l-54-80m440-215l-64 34m116 165l-67-40m1066 290l-38-1M46 808l-13-38m1634-283l-2 52M762 391l-94 25M211 107l-49-66m220 1344l-53-40m1414 364l-56-61M885 305l-77 3m641 107l-97 50m514-95l-96 26M435 584l-58-101m438 505l-78 13m288 4l-35 7m-175-24l-58-60m926-894l-107-19m300 1298l-111-92m-45-364l-94-15m115 841l-38 60M549 918l-47 87m177-754l-38 59m409 279l-61-9m-739 930l-34 17m271-346l-59 24m634 495l-4 38m-140-274l-63 80m207 219l-98 130m286-67l-68-108m280-1270l-110 17m389 254l-19 43m169 765l-74 113m-774 266l-79-13m480-1438l-41 47m-917 914l-65-25m247-975l-6-9m-331 715l-34-36m1138 164l-39-97m-586 565h-77m329 45v-63M25 1609l-5-67m747-116l-50 28M534 197l-7 30M199 946l-14 64m1067 263l-71 23M84 1509l-59 100m1373-946l-108 110M147 1560l-63-51m754 243l-17 88M662 407l-34-55m507 284l-80 23m-36-559l-55 35m758 602l-26-23M594 809l-45 109m1089 117l-42-15m-55 676l-73 85M1232 628l-12-53m-173 411l-5 42m20 672l-14 10m-128-527l-117-28m703 392l-71-8M234 1394l-7-46m949-225l-17 6m441 780l-32-16M546 1576l-47 23M367 598l-54 36m953 310l-24 46m-821 401l-15 13m1489 431l-94-5M1477 345l-30-46M574 1492l-16 39m-411 29l-65-17m1094-420l-48 3m166 106l-33 20m-149 358l-8-41m534-534l-54-44M658 606l-19-30m870 1170l-41 35m-673-675l-69-5m1147-956l-39-28M329 1345l-29-88M927 171l-19 89m874-139l-99-87M160 1688l-8 22M946 147l-47 94M55 1106l-40-22m787 652l-69-18M85 528l-36-75m409 211l-52 44m1489 1127l-14 28m-340-167l-76-51m144-690l-25 36M560 1288l-61 9m-421 88l-55 90m1039 288l-14-53m617-1171l-9-44M908 610l-103 4m-63 880l-25-40M44 1159l-12-5m1474 393l-62-5m122-739l-78 74M363 1055l-32 67m1335 581l-30-23M1423 290l-82-115m485 4l-37 6m102 1342l-66-32M148 344L22 260m735 798l-31 43M348 838l-9 85m723 840l-83-42M377 987l-85-41m27 372l-92 30m827-147l-29-7m-897 555l-72-21m1205-476l-80 44m594-869l-32-45M339 923l-47 23m773 98l-37 46m610-55l-84-14m-53-616l-52 10m20 1175l-34-51M34 1599l-9 10m1847-978l-60-7m-630-49l-103-31m500-20l-43 60M207 1679l-45 29m1339-633l-59-27m392-931l-8 62M936 1394l-18 70m258-341l-16-86m-229 597l-47 77M138 502l-89-49m1824-308l-13 7m-359 923l-10 28m-700 295l-47-7m975 29l-22-57m-262-113l-36 114m465-566h-5M351 779l-7 49m0 0l-36 29m1136 685l-42 54M989 580l-81 30m534 438l-14-31m440-816l-42-22M439 1487l-48-95m414-778l-11 61M77 897L33 770m151 277l-62 26m928-769l-1-55m1 55l-92 80m946-296l-22-59m-394 848l-51 36m-747 382l-91-61m651 592l-125 36m-112-533l-43 58m-6-1252L858 68m579 845l-61-71m145 792l-56 11m317-1524l-8 20m130-53l-31 57m-168 905l-67-15M534 1865l-131 20M1683 34l-78-2M163 1641l-11 69m271-115l-63 87m633-265l-57-23m28-337l-81 12m820 674l-58-17M1220 575h-38M540 675l-7-35m282 348l-25-78m378 531l-9-95m-105-145v18m-555 78l-65-34M1789 185l-7-64m-728 1080l-63-1M657 375l-29-23m51-101l-28-75m-48 1526l-4 55m863-1309l-13-33M968 1688l-37-54M218 654l-42 59m510 17l-14-98M402 905l-63 18m1299 112l-29-80M892 675l-4 20m-382 948l-7-44M628 352l-97-37m845 527l-86-69m-784 870l-83-48M1882 29l-4 10M199 946l-68 3m894 56l-61 52m-65-816l-14 64M802 48l-87 47m1102 1545l-74 69m-715-619l-3-85m459-19l-30-40M534 197l-94 41m487-67l-28 70m882-59l-75 26m-866-59l-72 51m-40 485l-21-64m634-446l-66-95M744 1391l-27 63M594 809l-56 8m927 617l-66-70m492 163l-172-107M499 652l-93 56m1130-124l-19-48m-456 922l-48-129m-175 423l-105-34m1147-702l-63-101m-191 933l-58 45M377 483l-63-46m1261 1397l-107-53M794 675l-66 10M416 993l-39-6m103-807l-40 58M319 1318l-19-61m-3 640l-90-23m171-863l-15 44M82 1543l-57 66m1286-368l-59 32M216 1527l-17-34m120-175l-9 25m485-237l-40 26m365-88l-78-16m139 268l-22 50m717-33l-79 121M840 149L802 48M277 1258l-16-66m238 407l-76-4M1701 123l-47-31m219 53l-5 56m-692 922l-41 42m300 85l-24 99m295-1141l-5-85m-241 947l-18-22m-380 715l-4-25m0 0l-10-28M514 566l-79 18m1433-383l-8-49m-570 621l-58-145M417 101l-100 6m621 763l-14 25m581 766l-37 120M304 1590l-24-59m701 74l-53 11M885 305l-25 21M432 119l-11-3m1376 1318l-78-14m-600-265l-65 46m81-36l-16-10M1654 92l-78-77M884 1711l-74 7m931-999l-19 18M611 1579l-53-48m933-904l-93 36m408 220l-86-26M731 567l-24 54m755-173l-18 7m253 908l-106-57M660 420l-32-68m908 232l-77-52M300 1257l-13-76M157 77l-22 33m675 1608l-55-92M512 457l-2-30m-89 964l-30 56m1235-605l-17 113m-484 907l-82 44m-724-588l-42-60m1400 547l-32-79M530 1144l-43 37M262 727l-44-73m88-454l-5-76m919 451l-85 61m219-145l-2-26m-171 831l-29 26m-208-302l-61 49m-331 767l-123 68M1897 546l-25 85M416 993l-7 6m555-864l-18 12m9 676l-2-71m662 773l-8 95m192-274l-102 17M790 910l-49-49m979 337l-141 18M672 632l-33-56m-153 840l-47 71m197-262l-76 63m1127 360l-21 55m40-1495l-11 42M891 1490l-33 7m696-476l-5-12m-495 210l-41 110M44 1159l-29-75m345 598l-40 41m1577-136l-80 53m-52-419l-45-23M899 241l-59-92m892-38l-49-77m-408 1297l-94-35m-629 540l-18 29m-247-684l-10 77m530-773l-28 15m656 750l-12 69m-539 392l-46 41m762-1110l-64-58M429 1904l-39 7M908 260l-23 45m620 1314l-36-29M1019 100l-36-51m-772 58l-61-13m1606 792l-29-62M684 233l-5 18m1026 1573l-28-19M107 226l-32-15m860 885l-52-27m455 554l-50-25m110-464l-2 19M1904 88l-26-49M926 553l-18 57m909 1030l-130 8M227 1348l-47-65m773-531l-100 23m743 245l-47-11M162 41l-12 53m1088 1747l-113 21m376-1457l-57 50m-641 700l-8-49m-25 144l-80 45m1080-140l-50 43m-211 548l-4-85m-498-911l-52 73m-827 926l-21 16m369-968l-70 12m479-504l-1 44m822-141l-30 48M301 124l-90-17m513 288l-67-20m1048 675l-18-104M162 571l-15 133m878 490l-34 6M351 779l-45 17m27 925l-13 2M176 713L33 770m1692-555l-19-7M162 41l-27 69m1309 345l-90 36m-599 641l-33 73m352 490l-12 5m415-1355l-1 18m150 1485l-26 61m-843-383l-40-72M435 584l-68 14m305-462l-21 40m338 404l-79 63m698 373l-24-25M127 1141l-84 84m1754 209l-100-71m184 500l-80-33m-55-718l-41-62M199 1493l-52 67m1359-13l-37 43m-1306 51l-1 67m437-474l-52-35M1789 185l-16 70M133 444l-84 9m342 994l-9-62m777-39l-17-18m753-238l-15-74m-105-589l-5-31M767 1426l-10 100M1781 182l-7-41M955 823l-26-61m766-512l-19 6M476 797l-51 63m299-465l-62 12m64 694l-17-68m410 122l-24 77m632-408l-101 18M533 640l-34 12m855-161l-61-57m403 213l-33-45M560 1288l-13-89m548 33l-41-31m-633 190l-30 1m598-812l-63-27m751 1252l-77 104M1209 356l-38 47m-780 989l-9-7m697-841l-29 45m672 148v25m-579-474l-18-2M626 1329l-27-95M409 999l-7-94m906 668l-20 25m-991-512l-64-11m366 159l-39 54m1160-90l-4-61m-895 703l-19-104M199 946l-14-49m1649-780l-10-50M150 94L60 18m1394 928l-17-33m460 674l-72-92m-564-243l-9 21m384 407l-29-60M707 621l-49-15m344 978l-21 21m447-588l-43 4m-421 872l-143-53M55 1106l-23 48m1444-791l-29-64M84 1509l-61-34M724 395l-56 21m958 426l-60-39m331-257l-92 133m-812 738l-23-30m-179 11l-24 28m-457-83l-83 5m112-425l-42 29m1411 414l-11-3m-672-169l-105-11m956 719l-126-51M207 819l-31-106m615 685l-14-27m-356 20l-58-69m1097-565l-62-94m-870 430l-26-88m-350 705l-96 18M1292 130l-17-50M377 987l-14 68m447 663l-8 18m177-15l-95-10M1078 42l-59 58m36 559l-5-70M320 1723l-23-96m1375-172l-57 70M910 643l-18 32m1013 1155l-29 72M1460 757l-84 85m-573 313l-81 50m340 495l-83 21m173-399l-10-78M899 241l-39 85m456-149l-51-96M558 1282l-59 15m-331 550l-61-82m1580-117l-52 3m-587 59l-69 11M49 453l-30-11m1457-79l-14 85M439 1487l-33-83m1095-999l-39 43M211 107l-76 3m1640 317l-25 4M790 910l-107 3m926 42l-13 65m-970 309l-24 29m998 551l-25-75M506 1643l-105 99M33 770l-2-74m1646 1109l-51 43m-1519-83l-51-37m92-1384l-15 100m1336 1146l-4 55m-284-349l-39 32M100 1732l-44-4M421 116l-8-11m852 1236l-13-68m249-868l-25-42m-411 681l-18-58M808 308l-46 83m1114 922l-179 50M552 1660l-53-61m385 112l-82 25m658-666l-64 83m140-569l-45 43m274 594l-19-109m-471 219l-10 10M157 77l-7 17m1386 490l-57 44m291 527l-24-43m0 0l-26 86M406 708v101m1070-446l-27 52M127 1141l-95 13m738 96l-48-45m-393 140l-10-27M148 344l-41-118m109 1301l-69 33M480 180l-59-64m173 693l-118-12m552 293l-64-33m-739 625l-65 6M1605 32l-29-17m-502 1680l-16 43m70-612l-9 29m558 650l-109 88M60 18L48 128m1431 500l-20-96m-412 454l-7-102m-706 900l-14-61m-193-582l-72-35m1746 724l-71 50M858 68l-56-20M287 1181l-26 11m1193 279l-15-73m136 436l-7 59m-640-277l-73-72M135 110l-28 116m136 227l-110-9m1592-229l-30 35m-750 892l-10-46M178 962l-47-13m1766 638l-6-60M377 483l-10 115m971 1025l-29 91M757 928l-20 73m20 525l-1 77M660 420l-3-45m158 613l-58 70m101 376l-67-36m1081-767l-67 48m-80-464l-49 41M946 147l-19 24m120 815l-22 19m429 466l-19 68m331-844l-70-48M32 1154l-17-70m992-334l-54 2m-150 403l-77-54m227-349l-61-77m-54 1077l-36-16m369-1333l-16 67m386 1226l-36-35m-750-35l-22 92M533 640l-19-74m85 1191l-65 108M958 384l-73-79m599 681l-56 31m397 478l-28-61m25 334l-79-59M429 1904l-132-7M662 407l-5-32m909 428l-157-9M234 1394l-35 99m81 38l-81-38m972-1090l-28-115m-23 756h-55M707 621l-21 109M527 227l-87 11m90 906l-28-14m1403 700l-10 5M199 946l-13-32m1363 95l-65-23m-841 585l-32 8m-443 268l-40-98M1143 288l-93 16M421 116l-4-15m644 1357l-68-41m-871-344l-90 81m265-202l-5-6m1603 889l-19 67m-774-102l-40-37m-515-564l-17-55M107 226l-59-98m114 443l-77-43m799-179l-24-23m913-71l-67-47m-687-108l-92 71m-190 830l-66-22m1209 37l-74-133m-322 103l-47-73m-372 131l-23-16m780 740l-5-128M354 745l-48 51m-133 356l-46-11m781-881l-48 66m827 620l-78 9m-1007 48l-100 2m1264-310l-44 42m-87 914l-28-31m-172-81l-33 57M138 502l-5-58m-90 781l-11-71m1790 614l-81-24m-236-83v-42M1052 289l-3-40M403 1885l-13 26m-111-309l-29-92M131 949l-54-52m1388 537l-26-36m-937-393l-93-6m549-615l-74-35m-285 885l-41 48m1026-291l-30 30M531 315l-4-88m849 615l-74-84m574 1144l-75-72M983 49l-37 98M163 1641l-3 47m1016-565l-57 32m-15 414l-123 36m785-910l-70 19M636 1225l-89-26m1350-653l-63-47m-679 1055l-51 15m-598 74l-91-66m-6-578l-31 12m294-379l-14-26m826 380l-10-71m-684-5l-33 18M858 68l-18 81m331 254l-85 23m790 887l-51 182M733 1718l-130-16M1773 255l-8 24m-289 84l-53-73M251 805l-75-92m581 813l-15-32M1765 279l-70-29M964 1648l-36-32m481-822l-33 48m320-195v67M363 1322l-34 23m973-587l-12 15m-654 452l-37 9m321-51l-37-114M211 107l-54-30m807 980l-19 85M668 416l-8 4M421 116l-104-9M162 571L49 453m897-306l-106 2m113 603l-65-57m47 401l-15 87M420 543l-43-60m568 659l-25 41m572 44l-57 23m-713-45l-86 20M1834 117l-52 4m-481 932l-45-69m250 563l-1 72m6-96l-46-89M425 860l-23 45m-71 217l-98-47M34 1599l-14-57m1786-659l-50 3M367 598l-47 41m1506-460l-45 3m-539 808l-1-53m664 893l-83-62M1462 448l-3 84M406 708l-55 71m1399 1072l-73-46m-759-341l-21-35m506-927l-51-37m284 1215l-1-29M84 1509l-2 34m1156 298l-56-123m-578-247l-46 60m851-737l-11-131M534 1865l-144 46M162 41l-5 36m401 1454l-59 68m1055-578l-70-35m400 33l-4-3m-406-101l-20 31M802 48l-34 152m1036 559l-38-64m-301 950l-63-49m-766-371l-78 57m963 352l-16 27m-340-692l-5 68M147 704l-116-8m827 801l-3 47m-369-128l-95 31M186 914l-55 35m860 251l-46-58m923-941l-79-16M979 1721l-15 172m-404-605l-2-6m249-797l-19 15M416 993l-38 18m1411-826l-15-44M891 1490l-36 54m632-1355l-146-14M300 1257l-39-65m1204 242l-11 37m-389-427l-40-39m741-310l-25 24M360 1682l-27 39M668 416l-40-64m1075 1391l-26 62m-709-117l-40-72m215-1328l-91 1m-10 739l-17-23m267-875l-27-49m509 60l-73-18M334 1784l-1-63m293-392l-66-41m1137 75l-25 92m196-1254l-87-19M717 1454h-42m-47 21l-54 17m-264-149l-10-86m116-264l-53 62m1138 20l-41-5m-563 359l-6 61m-363-397l-26 37m253 2l-29-31m583 613l-21-116m160-891l-50-44M790 910l-53 91m-630 764l-7-33M927 171l-87-22M227 1348l-149 37m777 159l-98-18M176 713l-29-9M1882 29l-57-20m70 1826l-44 51M566 1668l-14-8m885-747l-9 104m-671 41l-20-57m209-854l-88-79M363 1322l-44-4M162 571l-24-69m12-408l-15 16m8 1131l-100-16m1595-190l-30-19m-1230-5l-1-24m1318-737l-9 44M406 708l-52 37m1057 604l-12 15M1824 67l-42 54m-749 1195l-20 13m776-1144l-64 30M520 1109l-18 21m650 192l-10 6m-22-284l-73-58m850-440l-85 78m-657-154l-76 74M354 824l-46 33m1448 29l-36-29M147 704L33 770M1654 92l-49-60M908 260l-9-19m842 1442l-54-35m-613 47l-12 68M807 485l-45-94m-76 339l-92 79m875 781l-67 6M314 437l-71 16m1341 538l-35 18m152-886l-18-89m-172 1489l-67 19m-285-196l-17-102m709 642l-50-56m-35-1135l-44 67m-985 239l-28 32m1150-235l-44-8m-851 267l-29 39m-638 531l-18-25m771-1298l-33 119m504 1211l-16-15M75 211l-27-83m563 1451l-65-3M348 838l-4-10m1473 87l-11-32m-119 765l-80-28m175-1499l-1 61M440 238l-48 70m767 821l-24 36m49-759l-13-3M964 1648l-33-14m556-1445l-40 110m240 1349l-51 32m-575-222l-91-71m-541 517l-26-19m-223-602l-37-42m141 596l-77 37m36-1421l-95-109m77 1338l-63 26m-35-567l-112-57m1447-636l-59 54M415 1577l-55 105M1444 455l-92 10m-184 976l-107 17m18-914l-62-121M439 1487l-24 90m17-1458l-19-14m689 1695l-44-62m549-118l-86 14m182 109l-37-40m54-505l-15-148M207 1874l-39-27m1708 55l-25-16m-1567-8l-77-4m835-846l-14 62m-454 402l-28 84m1335 287l-5 39m-371-283l-40 26m14-1017l-81 35M148 344L49 453m374 1142l-8-18m468-508l-88 37m892-160l-61-104M662 407l-2 13m1137 1014l-89-68M261 1192l-81 91m1711 244l-94-93M1017 423l-59-39m21 1337l-11-33m549-1152l-58-4M425 860l-19-51m850 175l-14 6M964 135l-37 36M406 1404l-15 43M762 391l-38 4M401 1742l-68-21m-56-463l-97 25m19-337l-21 16m1028 574l-102 33m269 62l-35-8m-213 239l-161 31m835-547l-2 88m-642 120l-94-96M77 897l-66 92m1036-3l-57 26m737-188l-5-62m51-507l-48-40M82 1543l-48 56M860 326l-52-18M284 1837l-116 10m1301-257l-25-48m-35-748l-119-21M44 1159l-1 66m35 160l-20 45m1217-99l-14-79M162 571l-29-127m1002 192l-85-47m54 980l-102 15M133 444l-48 84m646 39l-60-30m820 566l-95 50m-794 205l-42-70M768 200l-89 51m54 838l-7 12M1265 81l-129-13M538 817l-62-20m291 629l-25 68m7-1156l-25 57m992 742l-11-87m192-504l-88 8m-304 1107l-40-16M1341 175l-76-94M981 1605l-50 29m557-757l-79-83m413 974l-72 83M243 453l-105 49m290 33l-8 8m248-127l-11-41m654 866l-50 11m-504 274l-2 100m1001-740l-69 60M671 537l-13 69m658-429l-41-97m19 1152l-42 41M225 1682l-62-41m395-110l-12 45M46 808L31 696m608-120l-44 50m210-12l-74-47m1129-415l-26-35M333 1721l-36-94m42-704l-31-66m83 535l-28-70m902 19l-106 5m-875 491v41m1324-862l-59-7M107 226l-85 34m295-153l-16 17m1488 61l-8-3M803 841l-62 20m1139 155l-15 79m-934 539l-3-18m593 18l-15-87m295 283l-51 21m-209-155l-32 50M304 1590l-25 12m723-18l-74 32m837-1337l-79 15M152 1710l-45 55m1367-850l-46 102m-881 182l-45-69m289 268l-49 96m249-294l-71-17m567-994l-64 101m-404-190l-73 47m-49 1282l-39 5m602-677l-12-50m-820 768l-70 56m-3-1360l-21 26m150 36l-33-57m1081-65l-78-19m-529 194l-73 3M803 841l-13 69M420 543l-53 55m180 601l-60-18m351 571l-28-34m-290-609l-18-104m456-621l-98-58M207 1679l-47 9M805 614l-98 7m229 773l-39 35m-770-288l-83 18m1081-873l-75 18m576 1544l-51-14M421 1391l-39-6m153-810l-21-9m838-101l-59-31M351 779l-3 59m-141-19L33 770m856 580l-41-63M306 200l-95-93m1355 696l-118-96m40 170l-14 38m-71-413l-49-11m105 41l-15-77m-818 874l-12 44m339-621l-24 10M762 391l-13-53M614 1373l-12-15m557-229l-40 26m-437 716l-148-6m625-519l-7-24M728 685l-56-53m1109-450l-8 73M724 395l-64 25m47 201l-35 11M417 101l-4 4m996 689l-107-36m158-1l-51 37m467 519l-77 33m67-976l-123 12M391 1392l-62-47m399-660l-42 45m802 147l-112-35m-395 763l-13 83m-173-582l-62-17m235 599l-4-40m818-1527l-50-10M502 1005l-86-12m259 461l-61-81m965-157l-87 11M251 805l-44 14m1615 949l-21 62M439 1487l-18-96m-73-553l-40 19m93 885l-41-60m-52-825l-16 89m782 749l-26 15m828-397l-168 53m96-607l-63-40m76 921l-76 104M731 567l-92 9m-517 497l-107 11m1444-552l-105-41M415 1577l-111 13M558 155l-3 16m73 1304l-24-4m190-796l-108 55m-326 952l-63-55m874-1224l-46-117M225 1682l-18-3m550-751l-16-67m188-99l-41-67m293 601l-39-52m-372 6l-15-118m719-217l-37-2m-616 927l-11-122m919-1220l-73-3m161 1145l-76 43M354 824l-3-45m161-322l-84 78m508 859l-47-44m47 44l-78 40m194-1145l-35 134m-210 62l-76 82M262 727l-86-14m1197 918l-64 83M1275 80l-10 1m601 289l-91 57m59-310l-60 24m107 1722l-30 23M707 621l-68-45M401 1742l-81-19m89-724l-32-12m602 734l-15-73M218 654l-56-83m1563-356l-39 79m-684 1290l-71 50m949-618l-134 96m-688 626l-79-17M480 180l-67-75m1319 6l-31 12m-757 897l-9 76m-728 583l-55 31M428 535l-51-52M162 1708l-55 57m568-311l-71 17m191-365l-38-48M354 745l-3 34m630 826l-17 43m347-407l-17-9m160 239l-10 71m122-739l-92 112M658 606l-63 20m253 661l-78-37M377 987l-38-64m74-818l-112 19m626 47L858 68m483 107l-25 2m440 709l-46 44M250 1510l-51-17m814-164l-77 65M150 94L48 128m1194 862l-77-21m521-675l-10-38m139 534l-88 34M690 1295l-54-70m-509-84l-5-68m1221 629l-34 12M145 1056l-23 17m492 300l-10 98m7 108l-37-87" fill="none" stroke="#989898" stroke-width="2"/><circle class="st1" cx="1778" cy="1476" r="3"/><circle class="st1" cx="860" cy="326" r="6"/><circle class="st1" cx="668" cy="416" r="6"/><circle class="st1" cx="1683" cy="34" r="6"/><circle class="st1" cx="1677" cy="1805" r="6"/><circle class="st1" cx="1444" cy="1542" r="7"/><circle class="st1" cx="199" cy="1493" r="2"/><circle class="st1" cx="429" cy="1904" r="4"/><circle class="st1" cx="225" cy="1682" r="6"/><circle class="st1" cx="162" cy="571" r="7"/><circle class="st1" cx="1261" cy="1252" r="5"/><circle class="st1" cx="1895" cy="1090" r="3"/><circle class="st1" cx="855" cy="1544" r="2"/><circle class="st1" cx="547" cy="1199" r="4"/><circle class="st1" cx="709" cy="1033" r="7"/><circle class="st1" cx="1423" cy="1319" r="8"/><circle class="st1" cx="858" cy="1434" r="4"/><circle class="st1" cx="135" cy="110" r="3"/><circle class="st1" cx="297" cy="1086" r="2"/><circle class="st1" cx="168" cy="1847" r="5"/><circle class="st1" cx="1626" cy="842" r="2"/><circle class="st1" cx="1851" cy="349" r="4"/><circle class="st1" cx="1488" cy="877" r="6"/><circle class="st1" cx="218" cy="654" r="6"/><circle class="st1" cx="502" cy="1130" r="8"/><circle class="st1" cx="1732" cy="111" r="7"/><circle class="st1" cx="1112" cy="1610" r="8"/><circle class="st1" cx="148" cy="344" r="6"/><circle class="st1" cx="1727" cy="824" r="5"/><circle class="st1" cx="671" cy="979" r="8"/><circle class="st1" cx="540" cy="675" r="7"/><circle class="st1" cx="1061" cy="1458" r="6"/><circle class="st1" cx="22" cy="260" r="4"/><circle class="st1" cx="1459" cy="532" r="8"/><circle class="st1" cx="234" cy="1394" r="4"/><circle class="st1" cx="77" cy="897" r="7"/><circle class="st1" cx="1385" cy="1021" r="5"/><circle class="st1" cx="1608" cy="1016" r="7"/><circle class="st1" cx="1773" cy="255" r="7"/><circle class="st1" cx="233" cy="1075" r="2"/><circle class="st1" cx="1866" cy="370" r="7"/><circle class="st1" cx="1701" cy="123" r="8"/><circle class="st1" cx="131" cy="949" r="4"/><circle class="st1" cx="1155" cy="1554" r="2"/><circle class="st1" cx="838" cy="1752" r="4"/><circle class="st1" cx="639" cy="576" r="6"/><circle class="st1" cx="49" cy="453" r="5"/><circle class="st1" cx="1338" cy="1623" r="8"/><circle class="st1" cx="186" cy="914" r="2"/><circle class="st1" cx="1165" cy="969" r="2"/><circle class="st1" cx="744" cy="1391" r="8"/><circle class="st1" cx="1119" cy="1155" r="2"/><circle class="st1" cx="216" cy="1527" r="6"/><circle class="st1" cx="413" cy="105" r="7"/><circle class="st1" cx="594" cy="809" r="5"/><circle class="st1" cx="1696" cy="714" r="8"/><circle class="st1" cx="25" cy="9" r="4"/><circle class="st1" cx="1095" cy="1232" r="5"/><circle class="st1" cx="983" cy="49" r="6"/><circle class="st1" cx="1477" cy="345" r="5"/><circle class="st1" cx="85" cy="528" r="6"/><circle class="st1" cx="306" cy="200" r="7"/><circle class="st1" cx="1891" cy="1527" r="7"/><circle class="st1" cx="1411" cy="1349" r="6"/><circle class="st1" cx="1468" cy="1781" r="3"/><circle class="st1" cx="1815" cy="790" r="4"/><circle class="st1" cx="660" cy="420" r="5"/><circle class="st1" cx="1050" cy="304" r="4"/><circle class="st1" cx="107" cy="1765" r="4"/><circle class="st1" cx="1895" cy="1835" r="7"/><circle class="st1" cx="1797" cy="1434" r="8"/><circle class="st1" cx="790" cy="910" r="3"/><circle class="st1" cx="297" cy="1627" r="3"/><circle class="st1" cx="157" cy="77" r="8"/><circle class="st1" cx="1491" cy="627" r="5"/><circle class="st1" cx="1722" cy="737" r="2"/><circle class="st1" cx="1033" cy="1316" r="5"/><circle class="st1" cx="1065" cy="1044" r="3"/><circle class="st1" cx="310" cy="1343" r="2"/><circle class="st1" cx="1725" cy="215" r="3"/><circle class="st1" cx="1025" cy="1194" r="8"/><circle class="st1" cx="1316" cy="177" r="5"/><circle class="st1" cx="546" cy="1576" r="3"/><circle class="st1" cx="1302" cy="758" r="8"/><circle class="st1" cx="391" cy="1392" r="2"/><circle class="st1" cx="1465" cy="1645" r="3"/><circle class="st1" cx="1596" cy="1020" r="6"/><circle class="st1" cx="319" cy="1318" r="4"/><circle class="st1" cx="534" cy="197" r="5"/><circle class="st1" cx="1054" cy="1219" r="4"/><circle class="st1" cx="1479" cy="628" r="8"/><circle class="st1" cx="628" cy="1475" r="4"/><circle class="st1" cx="1766" cy="695" r="3"/><circle class="st1" cx="207" cy="1874" r="7"/><circle class="st1" cx="1801" cy="1830" r="3"/><circle class="st1" cx="762" cy="391" r="6"/><circle class="st1" cx="434" cy="1263" r="5"/><circle class="st1" cx="1062" cy="1700" r="7"/><circle class="st1" cx="1028" cy="1090" r="4"/><circle class="st1" cx="614" cy="1373" r="6"/><circle class="st1" cx="75" cy="211" r="6"/><circle class="st1" cx="1292" cy="130" r="7"/><circle class="st1" cx="1576" cy="15" r="3"/><circle class="st1" cx="1609" cy="955" r="4"/><circle class="st1" cx="489" cy="416" r="2"/><circle class="st1" cx="1007" cy="750" r="3"/><circle class="st1" cx="1437" cy="913" r="8"/><circle class="st1" cx="964" cy="1648" r="7"/><circle class="st1" cx="1536" cy="584" r="4"/><circle class="st1" cx="964" cy="1057" r="6"/><circle class="st1" cx="946" cy="147" r="2"/><circle class="st1" cx="802" cy="1736" r="8"/><circle class="st1" cx="209" cy="1113" r="6"/><circle class="st1" cx="1774" cy="141" r="7"/><circle class="st1" cx="150" cy="94" r="8"/><circle class="st1" cx="981" cy="1605" r="5"/><circle class="st1" cx="377" cy="987" r="8"/><circle class="st1" cx="262" cy="727" r="3"/><circle class="st1" cx="1905" cy="1830" r="7"/><circle class="st1" cx="1730" cy="1880" r="7"/><circle class="st1" cx="331" cy="1122" r="2"/><circle class="st1" cx="1789" cy="185" r="4"/><circle class="st1" cx="20" cy="1542" r="7"/><circle class="st1" cx="1541" cy="1696" r="4"/><circle class="st1" cx="250" cy="1510" r="3"/><circle class="st1" cx="791" cy="1398" r="8"/><circle class="st1" cx="243" cy="453" r="3"/><circle class="st1" cx="1159" cy="1346" r="6"/><circle class="st1" cx="1825" cy="9" r="2"/><circle class="st1" cx="415" cy="1577" r="7"/><circle class="st1" cx="1806" cy="883" r="8"/><circle class="st1" cx="599" cy="1757" r="2"/><circle class="st1" cx="420" cy="543" r="4"/><circle class="st1" cx="1743" cy="382" r="5"/><circle class="st1" cx="280" cy="1531" r="4"/><circle class="st1" cx="138" cy="502" r="2"/><circle class="st1" cx="931" cy="1634" r="6"/><circle class="st1" cx="1448" cy="707" r="2"/><circle class="st1" cx="810" cy="1718" r="6"/><circle class="st1" cx="1756" cy="886" r="6"/><circle class="st1" cx="755" cy="1626" r="3"/><circle class="st1" cx="1605" cy="32" r="3"/><circle class="st1" cx="432" cy="119" r="2"/><circle class="st1" cx="1812" cy="624" r="4"/><circle class="st1" cx="1579" cy="524" r="5"/><circle class="st1" cx="535" cy="575" r="5"/><circle class="st1" cx="1687" cy="946" r="2"/><circle class="st1" cx="390" cy="1911" r="6"/><circle class="st1" cx="1746" cy="1112" r="4"/><circle class="st1" cx="1454" cy="946" r="8"/><circle class="st1" cx="1566" cy="803" r="4"/><circle class="st1" cx="1128" cy="1126" r="8"/><circle class="st1" cx="1048" cy="1710" r="3"/><circle class="st1" cx="1398" cy="663" r="6"/><circle class="st1" cx="506" cy="1643" r="3"/><circle class="st1" cx="726" cy="1101" r="4"/><circle class="st1" cx="432" cy="1250" r="6"/><circle class="st1" cx="1206" cy="1536" r="2"/><circle class="st1" cx="1504" cy="262" r="7"/><circle class="st1" cx="127" cy="1141" r="4"/><circle class="st1" cx="779" cy="500" r="5"/><circle class="st1" cx="574" cy="1492" r="8"/><circle class="st1" cx="968" cy="1688" r="4"/><circle class="st1" cx="757" cy="1058" r="7"/><circle class="st1" cx="25" cy="1609" r="3"/><circle class="st1" cx="1706" cy="208" r="8"/><circle class="st1" cx="1050" cy="589" r="4"/><circle class="st1" cx="1487" cy="189" r="8"/><circle class="st1" cx="1049" cy="249" r="5"/><circle class="st1" cx="690" cy="1295" r="4"/><circle class="st1" cx="1309" cy="1714" r="6"/><circle class="st1" cx="1491" cy="1103" r="5"/><circle class="st1" cx="715" cy="95" r="6"/><circle class="st1" cx="1160" cy="1037" r="3"/><circle class="st1" cx="683" cy="913" r="5"/><circle class="st1" cx="284" cy="1878" r="3"/><circle class="st1" cx="1799" cy="1346" r="7"/><circle class="st1" cx="60" cy="18" r="7"/><circle class="st1" cx="1040" cy="884" r="7"/><circle class="st1" cx="908" cy="260" r="2"/><circle class="st1" cx="840" cy="149" r="7"/><circle class="st1" cx="58" cy="1430" r="3"/><circle class="st1" cx="1209" cy="356" r="2"/><circle class="st1" cx="210" cy="1116" r="2"/><circle class="st1" cx="1632" cy="605" r="2"/><circle class="st1" cx="367" cy="598" r="4"/><circle class="st1" cx="955" cy="823" r="2"/><circle class="st1" cx="1288" cy="1598" r="2"/><circle class="st1" cx="1241" cy="937" r="8"/><circle class="st1" cx="1750" cy="1851" r="2"/><circle class="st1" cx="1676" cy="256" r="3"/><circle class="st1" cx="1584" cy="991" r="4"/><circle class="st1" cx="499" cy="1297" r="7"/><circle class="st1" cx="1743" cy="1709" r="5"/><circle class="st1" cx="1352" cy="465" r="8"/><circle class="st1" cx="1591" cy="1306" r="6"/><circle class="st1" cx="884" cy="1711" r="4"/><circle class="st1" cx="185" cy="1010" r="4"/><circle class="st1" cx="1294" cy="1232" r="4"/><circle class="st1" cx="1078" cy="42" r="6"/><circle class="st1" cx="979" cy="1721" r="5"/><circle class="st1" cx="1120" cy="1044" r="3"/><circle class="st1" cx="533" cy="640" r="6"/><circle class="st1" cx="1501" cy="405" r="8"/><circle class="st1" cx="595" cy="626" r="6"/><circle class="st1" cx="1101" cy="1246" r="2"/><circle class="st1" cx="1074" cy="1695" r="4"/><circle class="st1" cx="602" cy="1003" r="6"/><circle class="st1" cx="360" cy="1682" r="7"/><circle class="st1" cx="1501" cy="1075" r="7"/><circle class="st1" cx="821" cy="1840" r="3"/><circle class="st1" cx="1897" cy="546" r="2"/><circle class="st1" cx="219" cy="877" r="6"/><circle class="st1" cx="1474" cy="915" r="7"/><circle class="st1" cx="1549" cy="1009" r="8"/><circle class="st1" cx="297" cy="952" r="3"/><circle class="st1" cx="1182" cy="1718" r="8"/><circle class="st1" cx="1817" cy="915" r="6"/><circle class="st1" cx="1600" cy="642" r="2"/><circle class="st1" cx="803" cy="841" r="8"/><circle class="st1" cx="684" cy="233" r="2"/><circle class="st1" cx="558" cy="1531" r="4"/><circle class="st1" cx="733" cy="1089" r="6"/><circle class="st1" cx="334" cy="1784" r="6"/><circle class="st1" cx="499" cy="652" r="4"/><circle class="st1" cx="964" cy="1893" r="5"/><circle class="st1" cx="897" cy="1429" r="8"/><circle class="st1" cx="147" cy="704" r="7"/><circle class="st1" cx="1104" cy="1569" r="5"/><circle class="st1" cx="1373" cy="1631" r="8"/><circle class="st1" cx="1834" cy="499" r="7"/><circle class="st1" cx="1509" cy="1746" r="8"/><circle class="st1" cx="558" cy="1282" r="7"/><circle class="st1" cx="808" cy="308" r="7"/><circle class="st1" cx="1741" cy="719" r="7"/><circle class="st1" cx="329" cy="1345" r="5"/><circle class="st1" cx="56" cy="1728" r="5"/><circle class="st1" cx="44" cy="1159" r="5"/><circle class="st1" cx="514" cy="566" r="7"/><circle class="st1" cx="1460" cy="1070" r="2"/><circle class="st1" cx="354" cy="745" r="7"/><circle class="st1" cx="1043" cy="1906" r="6"/><circle class="st1" cx="1256" cy="984" r="2"/><circle class="st1" cx="251" cy="805" r="4"/><circle class="st1" cx="1878" cy="39" r="8"/><circle class="st1" cx="1697" cy="1363" r="6"/><circle class="st1" cx="534" cy="1865" r="4"/><circle class="st1" cx="671" cy="537" r="5"/><circle class="st1" cx="1290" cy="773" r="2"/><circle class="st1" cx="133" cy="444" r="2"/><circle class="st1" cx="1055" cy="659" r="8"/><circle class="st1" cx="1804" cy="759" r="7"/><circle class="st1" cx="403" cy="1885" r="7"/><circle class="st1" cx="152" cy="1710" r="6"/><circle class="st1" cx="945" cy="1142" r="5"/><circle class="st1" cx="802" cy="48" r="2"/><circle class="st1" cx="417" cy="101" r="5"/><circle class="st1" cx="1343" cy="1702" r="8"/><circle class="st1" cx="1275" cy="80" r="8"/><circle class="st1" cx="1817" cy="1640" r="8"/><circle class="st1" cx="284" cy="1837" r="2"/><circle class="st1" cx="409" cy="999" r="6"/><circle class="st1" cx="1663" cy="602" r="7"/><circle class="st1" cx="1741" cy="1683" r="2"/><circle class="st1" cx="777" cy="1371" r="4"/><circle class="st1" cx="185" cy="897" r="5"/><circle class="st1" cx="439" cy="1487" r="5"/><circle class="st1" cx="1399" cy="1364" r="2"/><circle class="st1" cx="566" cy="1668" r="2"/><circle class="st1" cx="279" cy="1602" r="6"/><circle class="st1" cx="795" cy="1106" r="2"/><circle class="st1" cx="1250" cy="1826" r="8"/><circle class="st1" cx="277" cy="1258" r="4"/><circle class="st1" cx="1398" cy="1134" r="8"/><circle class="st1" cx="1665" cy="539" r="2"/><circle class="st1" cx="722" cy="1205" r="3"/><circle class="st1" cx="1851" cy="1886" r="8"/><circle class="st1" cx="768" cy="200" r="3"/><circle class="st1" cx="1705" cy="1824" r="3"/><circle class="st1" cx="333" cy="1721" r="3"/><circle class="st1" cx="416" cy="993" r="7"/><circle class="st1" cx="1635" cy="1651" r="3"/><circle class="st1" cx="908" cy="610" r="8"/><circle class="st1" cx="1676" cy="297" r="8"/><circle class="st1" cx="993" cy="1417" r="6"/><circle class="st1" cx="1881" cy="1863" r="7"/><circle class="st1" cx="1409" cy="794" r="5"/><circle class="st1" cx="991" cy="1200" r="6"/><circle class="st1" cx="300" cy="1257" r="7"/><circle class="st1" cx="1667" cy="487" r="2"/><circle class="st1" cx="889" cy="1350" r="2"/><circle class="st1" cx="1155" cy="934" r="4"/><circle class="st1" cx="1741" cy="1744" r="8"/><circle class="st1" cx="634" cy="70" r="3"/><circle class="st1" cx="924" cy="895" r="5"/><circle class="st1" cx="853" cy="775" r="8"/><circle class="st1" cx="558" cy="155" r="5"/><circle class="st1" cx="313" cy="634" r="7"/><circle class="st1" cx="1125" cy="1862" r="5"/><circle class="st1" cx="641" cy="310" r="3"/><circle class="st1" cx="147" cy="1560" r="5"/><circle class="st1" cx="1897" cy="1587" r="3"/><circle class="st1" cx="1017" cy="423" r="6"/><circle class="st1" cx="1705" cy="1050" r="6"/><circle class="st1" cx="555" cy="171" r="8"/><circle class="st1" cx="1439" cy="1398" r="2"/><circle class="st1" cx="184" cy="1047" r="5"/><circle class="st1" cx="1242" cy="990" r="6"/><circle class="st1" cx="47" cy="1853" r="4"/><circle class="st1" cx="1521" cy="1634" r="8"/><circle class="st1" cx="34" cy="1599" r="6"/><circle class="st1" cx="377" cy="483" r="4"/><circle class="st1" cx="1062" cy="1763" r="5"/><circle class="st1" cx="339" cy="923" r="2"/><circle class="st1" cx="1238" cy="1841" r="6"/><circle class="st1" cx="1449" cy="415" r="8"/><circle class="st1" cx="1079" cy="544" r="5"/><circle class="st1" cx="1517" cy="536" r="4"/><circle class="st1" cx="1266" cy="944" r="4"/><circle class="st1" cx="858" cy="68" r="2"/><circle class="st1" cx="926" cy="553" r="2"/><circle class="st1" cx="953" cy="752" r="7"/><circle class="st1" cx="1568" cy="1893" r="8"/><circle class="st1" cx="1656" cy="495" r="7"/><circle class="st1" cx="989" cy="580" r="3"/><circle class="st1" cx="1600" cy="1909" r="4"/><circle class="st1" cx="11" cy="989" r="2"/><circle class="st1" cx="421" cy="1391" r="5"/><circle class="st1" cx="1293" cy="434" r="3"/><circle class="st1" cx="1136" cy="68" r="6"/><circle class="st1" cx="658" cy="606" r="4"/><circle class="st1" cx="1775" cy="427" r="3"/><circle class="st1" cx="528" cy="1093" r="5"/><circle class="st1" cx="604" cy="1471" r="2"/><circle class="st1" cx="1607" cy="1620" r="3"/><circle class="st1" cx="672" cy="632" r="4"/><circle class="st1" cx="306" cy="796" r="6"/><circle class="st1" cx="531" cy="315" r="8"/><circle class="st1" cx="1232" cy="628" r="3"/><circle class="st1" cx="378" cy="1011" r="6"/><circle class="st1" cx="788" cy="500" r="2"/><circle class="st1" cx="392" cy="308" r="5"/><circle class="st1" cx="1275" cy="1331" r="4"/><circle class="st1" cx="1873" cy="145" r="2"/><circle class="st1" cx="990" cy="1012" r="2"/><circle class="st1" cx="749" cy="338" r="7"/><circle class="st1" cx="1447" cy="299" r="5"/><circle class="st1" cx="1666" cy="1703" r="6"/><circle class="st1" cx="33" cy="770" r="8"/><circle class="st1" cx="549" cy="918" r="7"/><circle class="st1" cx="1465" cy="1434" r="8"/><circle class="st1" cx="858" cy="1497" r="6"/><circle class="st1" cx="1556" cy="1302" r="4"/><circle class="st1" cx="1654" cy="92" r="5"/><circle class="st1" cx="603" cy="1702" r="4"/><circle class="st1" cx="717" cy="1454" r="5"/><circle class="st1" cx="1696" cy="647" r="7"/><circle class="st1" cx="1884" cy="1019" r="8"/><circle class="st1" cx="1135" cy="636" r="6"/><circle class="st1" cx="406" cy="708" r="3"/><circle class="st1" cx="805" cy="614" r="3"/><circle class="st1" cx="1860" cy="152" r="5"/><circle class="st1" cx="1615" cy="1525" r="3"/><circle class="st1" cx="458" cy="664" r="6"/><circle class="st1" cx="883" cy="1069" r="4"/><circle class="st1" cx="48" cy="128" r="3"/><circle class="st1" cx="1505" cy="1661" r="6"/><circle class="st1" cx="1822" cy="1768" r="7"/><circle class="st1" cx="1220" cy="575" r="5"/><circle class="st1" cx="1142" cy="1328" r="3"/><circle class="st1" cx="520" cy="1109" r="6"/><circle class="st1" cx="1710" cy="930" r="7"/><circle class="st1" cx="1876" cy="1902" r="7"/><circle class="st1" cx="1311" cy="1241" r="4"/><circle class="st1" cx="636" cy="1225" r="2"/><circle class="st1" cx="406" cy="809" r="7"/><circle class="st1" cx="382" cy="1385" r="3"/><circle class="st1" cx="199" cy="946" r="8"/><circle class="st1" cx="920" cy="1183" r="7"/><circle class="st1" cx="1396" cy="1153" r="4"/><circle class="st1" cx="672" cy="136" r="5"/><circle class="st1" cx="1476" cy="363" r="8"/><circle class="st1" cx="938" cy="870" r="3"/><circle class="st1" cx="1058" cy="1738" r="7"/><circle class="st1" cx="686" cy="730" r="8"/><circle class="st1" cx="32" cy="1154" r="8"/><circle class="st1" cx="1720" cy="857" r="6"/><circle class="st1" cx="675" cy="1454" r="3"/><circle class="st1" cx="1575" cy="1834" r="2"/><circle class="st1" cx="737" cy="1001" r="4"/><circle class="st1" cx="1265" cy="81" r="6"/><circle class="st1" cx="180" cy="1283" r="4"/><circle class="st1" cx="351" cy="779" r="5"/><circle class="st1" cx="1171" cy="403" r="5"/><circle class="st1" cx="1880" cy="1016" r="3"/><circle class="st1" cx="354" cy="824" r="6"/><circle class="st1" cx="1834" cy="117" r="3"/><circle class="st1" cx="731" cy="567" r="8"/><circle class="st1" cx="363" cy="1055" r="2"/><circle class="st1" cx="552" cy="1660" r="7"/><circle class="st1" cx="23" cy="1475" r="4"/><circle class="st1" cx="499" cy="1599" r="8"/><circle class="st1" cx="1505" cy="1619" r="4"/><circle class="st1" cx="1782" cy="121" r="4"/><circle class="st1" cx="733" cy="1718" r="3"/><circle class="st1" cx="552" cy="1836" r="2"/><circle class="st1" cx="1135" cy="1165" r="2"/><circle class="st1" cx="1506" cy="1547" r="3"/><circle class="st1" cx="626" cy="1329" r="8"/><circle class="st1" cx="1703" cy="1743" r="4"/><circle class="st1" cx="487" cy="1181" r="3"/><circle class="st1" cx="918" cy="1464" r="5"/><circle class="st1" cx="1354" cy="491" r="2"/><circle class="st1" cx="598" cy="1085" r="5"/><circle class="st1" cx="1127" cy="743" r="3"/><circle class="st1" cx="1086" cy="426" r="8"/><circle class="st1" cx="428" cy="1205" r="8"/><circle class="st1" cx="1002" cy="1584" r="2"/><circle class="st1" cx="1868" cy="201" r="8"/><circle class="st1" cx="1904" cy="88" r="3"/><circle class="st1" cx="1826" cy="179" r="5"/><circle class="st1" cx="1442" cy="1048" r="4"/><circle class="st1" cx="1765" cy="279" r="8"/><circle class="st1" cx="107" cy="226" r="4"/><circle class="st1" cx="1052" cy="289" r="5"/><circle class="st1" cx="486" cy="1416" r="4"/><circle class="st1" cx="1825" cy="1495" r="4"/><circle class="st1" cx="794" cy="675" r="7"/><circle class="st1" cx="682" cy="1871" r="6"/><circle class="st1" cx="43" cy="1225" r="8"/><circle class="st1" cx="756" cy="1603" r="5"/><circle class="st1" cx="1265" cy="1341" r="7"/><circle class="st1" cx="173" cy="1152" r="6"/><circle class="st1" cx="628" cy="352" r="6"/><circle class="st1" cx="440" cy="238" r="4"/><circle class="st1" cx="1579" cy="1216" r="2"/><circle class="st1" cx="1645" cy="1726" r="4"/><circle class="st1" cx="128" cy="1749" r="2"/><circle class="st1" cx="1042" cy="1028" r="2"/><circle class="st1" cx="1152" cy="1322" r="8"/><circle class="st1" cx="1686" cy="294" r="3"/><circle class="st1" cx="1181" cy="1296" r="4"/><circle class="st1" cx="651" cy="176" r="6"/><circle class="st1" cx="1428" cy="1017" r="8"/><circle class="st1" cx="1182" cy="575" r="8"/><circle class="st1" cx="292" cy="946" r="5"/><circle class="st1" cx="1025" cy="1005" r="4"/><circle class="st1" cx="1013" cy="1329" r="8"/><circle class="st1" cx="707" cy="621" r="8"/><circle class="st1" cx="970" cy="1387" r="4"/><circle class="st1" cx="1876" cy="1313" r="3"/><circle class="st1" cx="320" cy="1723" r="5"/><circle class="st1" cx="1142" cy="1244" r="4"/><circle class="st1" cx="958" cy="384" r="8"/><circle class="st1" cx="162" cy="1708" r="7"/><circle class="st1" cx="344" cy="828" r="6"/><circle class="st1" cx="1047" cy="986" r="4"/><circle class="st1" cx="1672" cy="1455" r="6"/><circle class="st1" cx="724" cy="395" r="7"/><circle class="st1" cx="1695" cy="250" r="7"/><circle class="st1" cx="1435" cy="1250" r="5"/><circle class="st1" cx="530" cy="1144" r="7"/><circle class="st1" cx="767" cy="1426" r="5"/><circle class="st1" cx="1554" cy="1021" r="2"/><circle class="st1" cx="757" cy="1526" r="5"/><circle class="st1" cx="662" cy="407" r="4"/><circle class="st1" cx="1809" cy="554" r="3"/><circle class="st1" cx="1872" cy="631" r="5"/><circle class="st1" cx="892" cy="675" r="2"/><circle class="st1" cx="510" cy="427" r="4"/><circle class="st1" cx="1687" cy="1648" r="7"/><circle class="st1" cx="1770" cy="1155" r="7"/><circle class="st1" cx="1079" cy="1274" r="6"/><circle class="st1" cx="304" cy="1590" r="7"/><circle class="st1" cx="476" cy="797" r="6"/><circle class="st1" cx="888" cy="695" r="6"/><circle class="st1" cx="929" cy="762" r="7"/><circle class="st1" cx="611" cy="1579" r="6"/><circle class="st1" cx="402" cy="905" r="4"/><circle class="st1" cx="406" cy="1404" r="2"/><circle class="st1" cx="287" cy="1181" r="7"/><circle class="st1" cx="82" cy="1543" r="5"/><circle class="st1" cx="428" cy="535" r="4"/><circle class="st1" cx="927" cy="171" r="4"/><circle class="st1" cx="1781" cy="182" r="4"/><circle class="st1" cx="742" cy="1494" r="6"/><circle class="st1" cx="1460" cy="757" r="6"/><circle class="st1" cx="1376" cy="842" r="4"/><circle class="st1" cx="1252" cy="1273" r="7"/><circle class="st1" cx="1123" cy="8" r="6"/><circle class="st1" cx="1626" cy="1848" r="6"/><circle class="st1" cx="1159" cy="1129" r="5"/><circle class="st1" cx="1019" cy="100" r="6"/><circle class="st1" cx="425" cy="860" r="8"/><circle class="st1" cx="363" cy="1322" r="8"/><circle class="st1" cx="308" cy="857" r="4"/><circle class="st1" cx="207" cy="819" r="3"/><circle class="st1" cx="1125" cy="286" r="8"/><circle class="st1" cx="1720" cy="1198" r="5"/><circle class="st1" cx="160" cy="1688" r="7"/><circle class="st1" cx="178" cy="962" r="6"/><circle class="st1" cx="207" cy="1679" r="7"/><circle class="st1" cx="560" cy="1288" r="2"/><circle class="st1" cx="1469" cy="1590" r="3"/><circle class="st1" cx="602" cy="1358" r="3"/><circle class="st1" cx="1859" cy="798" r="8"/><circle class="st1" cx="936" cy="1394" r="6"/><circle class="st1" cx="143" cy="1241" r="4"/><circle class="st1" cx="435" cy="584" r="3"/><circle class="st1" cx="807" cy="485" r="6"/><circle class="st1" cx="891" cy="1490" r="6"/><circle class="st1" cx="320" cy="639" r="3"/><circle class="st1" cx="1403" cy="502" r="3"/><circle class="st1" cx="884" cy="349" r="5"/><circle class="st1" cx="185" cy="1006" r="8"/><circle class="st1" cx="728" cy="685" r="3"/><circle class="st1" cx="122" cy="1073" r="7"/><circle class="st1" cx="1176" cy="1123" r="3"/><circle class="st1" cx="899" cy="241" r="3"/><circle class="st1" cx="538" cy="817" r="3"/><circle class="st1" cx="1454" cy="1471" r="2"/><circle class="st1" cx="391" cy="1447" r="2"/><circle class="st1" cx="1301" cy="1053" r="3"/><circle class="st1" cx="449" cy="841" r="2"/><circle class="st1" cx="1484" cy="986" r="6"/><circle class="st1" cx="741" cy="861" r="7"/><circle class="st1" cx="423" cy="1595" r="4"/><circle class="st1" cx="31" cy="696" r="7"/><circle class="st1" cx="15" cy="1084" r="7"/><circle class="st1" cx="803" cy="1155" r="5"/><circle class="st1" cx="100" cy="1732" r="6"/><circle class="st1" cx="1750" cy="431" r="3"/><circle class="st1" cx="317" cy="107" r="6"/><circle class="st1" cx="657" cy="375" r="3"/><circle class="st1" cx="1722" cy="762" r="8"/><circle class="st1" cx="885" cy="305" r="6"/><circle class="st1" cx="848" cy="1287" r="4"/><circle class="st1" cx="643" cy="1571" r="8"/><circle class="st1" cx="815" cy="988" r="3"/><circle class="st1" cx="176" cy="713" r="3"/><circle class="st1" cx="1341" cy="175" r="8"/><circle class="st1" cx="297" cy="1897" r="2"/><circle class="st1" cx="944" cy="1020" r="6"/><circle class="st1" cx="78" cy="1385" r="7"/><circle class="st1" cx="46" cy="808" r="7"/><circle class="st1" cx="527" cy="227" r="6"/><circle class="st1" cx="162" cy="41" r="5"/><circle class="st1" cx="55" cy="1106" r="6"/><circle class="st1" cx="512" cy="457" r="4"/><circle class="st1" cx="19" cy="442" r="5"/><circle class="st1" cx="1492" cy="1227" r="3"/><circle class="st1" cx="502" cy="1005" r="7"/><circle class="st1" cx="1308" cy="1573" r="2"/><circle class="st1" cx="1435" cy="1539" r="6"/><circle class="st1" cx="1729" cy="498" r="4"/><circle class="st1" cx="1155" cy="470" r="2"/><circle class="st1" cx="1402" cy="1596" r="2"/><circle class="st1" cx="928" cy="1616" r="2"/><circle class="st1" cx="348" cy="838" r="6"/><circle class="st1" cx="755" cy="1132" r="3"/><circle class="st1" cx="1168" cy="1441" r="4"/><circle class="st1" cx="964" cy="135" r="3"/><circle class="st1" cx="1882" cy="29" r="8"/><circle class="st1" cx="1054" cy="1201" r="4"/><circle class="st1" cx="679" cy="251" r="4"/><circle class="st1" cx="84" cy="1509" r="4"/><circle class="st1" cx="261" cy="1192" r="4"/><circle class="st1" cx="480" cy="180" r="2"/><circle class="st1" cx="1636" cy="1680" r="6"/><circle class="st1" cx="1511" cy="1523" r="7"/><circle class="st1" cx="145" cy="1056" r="4"/><circle class="st1" cx="1423" cy="290" r="4"/><circle class="st1" cx="421" cy="116" r="6"/><circle class="st1" cx="1708" cy="1366" r="6"/><circle class="st1" cx="1444" cy="455" r="8"/><circle class="st1" cx="1102" cy="1800" r="6"/><circle class="st1" cx="1719" cy="1420" r="5"/><circle class="st1" cx="314" cy="437" r="7"/><circle class="st1" cx="1462" cy="448" r="3"/><circle class="st1" cx="1184" cy="406" r="8"/><circle class="st1" cx="757" cy="928" r="6"/><circle class="st1" cx="1770" cy="396" r="5"/><circle class="st1" cx="1765" cy="1221" r="5"/><circle class="st1" cx="227" cy="1348" r="8"/><circle class="st1" cx="1143" cy="288" r="2"/><circle class="st1" cx="1824" cy="67" r="6"/><circle class="st1" cx="163" cy="1641" r="7"/><circle class="st1" cx="770" cy="1250" r="8"/><circle class="st1" cx="301" cy="124" r="3"/><circle class="st1" cx="1716" cy="1137" r="7"/><circle class="st1" cx="910" cy="643" r="6"/><circle class="st1" cx="211" cy="107" r="7"/><circle class="st1" cx="1638" cy="1035" r="6"/><circle class="st1" cx="1865" cy="1095" r="7"/><circle class="st1" cx="599" cy="1234" r="3"/><circle class="st1" cx="1864" cy="798" r="4"/><circle class="st1" cx="1358" cy="1579" r="7"/><circle class="st1" cx="1805" cy="679" r="4"/><circle class="st1" cx="935" cy="1096" r="4"/><circle class="st1" cx="401" cy="1742" r="3"/></svg>