<svg version="1.1" xmlns="http://www.w3.org/2000/svg" x="0" y="0" viewBox="0 0 1920 1920" xml:space="preserve"><path fill="#e0ac7e" d="M0 0h1920v1920H0z"/><path d="M0 8h208v112H0zm224 0h416v112H224zm432 0h416v112H656zm432 0h416v112h-416zm432 0h400v112h-400zM0 136h416v112H0zm432 0h416v112H432zm432 0h416v112H864zm432 0h416v112h-416zm432 0h192v112h-192zM0 264h208v112H0zm224 0h416v112H224zm432 0h416v112H656zm432 0h416v112h-416zm432 0h400v112h-400zM0 392h416v112H0zm432 0h416v112H432zm432 0h416v112H864zm432 0h416v112h-416zm432 0h192v112h-192zM0 520h208v112H0zm224 0h416v112H224zm432 0h416v112H656zm432 0h416v112h-416zm432 0h400v112h-400zM0 648h416v112H0zm432 0h416v112H432zm432 0h416v112H864zm432 0h416v112h-416zm432 0h192v112h-192zM0 776h208v112H0zm224 0h416v112H224zm432 0h416v112H656zm432 0h416v112h-416zm432 0h400v112h-400zM0 904h416v112H0zm432 0h416v112H432zm432 0h416v112H864zm432 0h416v112h-416zm432 0h192v112h-192zM0 1032h208v112H0zm224 0h416v112H224zm432 0h416v112H656zm432 0h416v112h-416zm432 0h400v112h-400zM0 1160h416v112H0zm432 0h416v112H432zm432 0h416v112H864zm432 0h416v112h-416zm432 0h192v112h-192zM0 1288h208v112H0zm224 0h416v112H224zm432 0h416v112H656zm432 0h416v112h-416zm432 0h400v112h-400zM0 1416h416v112H0zm432 0h416v112H432zm432 0h416v112H864zm432 0h416v112h-416zm432 0h192v112h-192zM0 1544h208v112H0zm224 0h416v112H224zm432 0h416v112H656zm432 0h416v112h-416zm432 0h400v112h-400zM0 1672h416v112H0zm432 0h416v112H432zm432 0h416v112H864zm432 0h416v112h-416zm432 0h192v112h-192zM0 1800h208v112H0zm224 0h416v112H224zm432 0h416v112H656zm432 0h416v112h-416zm432 0h400v112h-400z" fill="#a18267"/></svg>