<svg version="1.1" xmlns="http://www.w3.org/2000/svg" x="0" y="0" viewBox="0 0 1920 1920" xml:space="preserve"><path fill="#4db7ad" d="M0 0h1920v1920H0z"/><path d="M1071 731.4l139.5-80.5 6 3.4-145.5 84v-6.9zm0-15.6l126-72.8-6-3.4-120 69.3v6.9zm0 41.6l3 1.8 159-91.8v-3.6l-3-1.6-159 91.8v3.4zm21-140.3l6-3.5V475l-6-3.4v145.5zm210 495.3l6 3.5V970.4l-6 3.4v138.6zm-229.5-484l6-3.5V463.8l-6-3.4v168zm-1.5 42.4l87-50.3-6-3.4-81 46.6v7.1zm0 22.5l106.5-61.5-6-3.4-100.5 58v6.9zm96 155.8v6.9l139.5 80.6 6-3.5-145.5-84zm0 74.6l81 46.7 6-3.5-87-50.3v7.1zm66-173.2l-87 50.3 6 3.4 81-46.8v-6.9zm-66 121.1v6.9l120 69.3 6-3.5-126-72.7zm66-143.6l-106.5 61.5 6 3.4 100.5-58V728zm49.5 373.1l6 3.5v-123l-6 3.4v116.1zm-115.5-207v6.9l100.5 58.1 6-3.5-106.5-61.5zm96 195.8l6 3.5V992.9l-6 3.4v93.6zm-96-528.3v6.9l100.5 58 6-3.4-106.5-61.5zm115.5 207l6 3.4V649l-6 3.5v116.1zm-115.5-252v6.9l139.5 80.5 6-3.4-145.5-84zm135 263.3l6 3.4V637.8l-6 3.5v138.6zm-69-429.6l-145.5 84 6 3.6 139.5-80.6v-7zm-162 74.5l3 1.8 159-91.8v-3.6l-3-1.7-159 91.8v3.5zm0-19l145.5-84-6-3.5-139.5 80.6v6.9zm0-45l106.5-61.5-6-3.5-100.5 58.1v6.9zm0 22.5l126-72.8-6-3.5-120 69.3v7zm96 155.8v6.9l120 69.3 6-3.4-126-72.8zm-36 388l6-3.5V830l-6-3.5v100.6zm102-554.2l-126 72.8 6 3.5 120-69.3v-7zm-102 221.7l6-3.6v-93.5l-6-3.4v100.5zm-19.5 11.3l6-3.5V486.3l-6-3.4v123zM1233 395.4l-106.5 61.5 6 3.5 100.5-58.1v-6.9zm30 362l6 3.4V660.3l-6 3.5v93.6zM1167 591l81 46.8 6-3.4-87-50.3v6.9zm66-173.1l-87 50.3 6 3.5 81-46.8v-7zm69 1359.6l6 3.5v-145.5l-6 3.4v138.6zm-210-495.3l6-3.5v-138.6l-6-3.4v145.5zm19.5-11.2l6-3.5v-116.1l-6-3.4v123zM1233 705.5l-126 72.8 6 3.4 120-69.3v-6.9zm-160.5 588l6-3.5v-161.1l-6-3.4v168zm58.5-33.8l6-3.5v-93.6l-6-3.4v100.5zm102-199.2l-106.5 61.5 6 3.5 100.5-58.1v-6.9zm0-22.5l-126 72.8 6 3.5 120-69.3v-7zm-162 297.9l87-50.3-6-3.4-81 46.8v6.9zm211.5 430.4l6 3.5v-123l-6 3.4v116.1zM1167 1536.8v6.9l120 69.3 6-3.5-126-72.7zm-96-1198.5l87-50.3-6-3.5-81 46.7v7.1zm0 1020.1l106.5-61.5-6-3.4-100.5 58v6.9zm162-275.4l-87 50.3 6 3.5 81-46.8v-7zm-66 431.3v6.9l139.5 80.6 6-3.5-145.5-84zm-96-133.4l126-72.8-6-3.4-120 69.3v6.9zm0 22.5l145.5-84-6-3.4-139.5 80.5v6.9zm0 19.1l3 1.8 159-91.8v-3.5l-3-1.8-159 91.8v3.5zm162-407l-145.5 84 6 3.5 139.5-80.6v-6.9zm-162 10.4l106.5-61.5-6-3.5-100.5 58v7zm1.5-65l6-3.5v-161l-6-3.5v168zm-1.5 42.5l87-50.3-6-3.5-81 46.7v7.1zm0 45l126-72.8-6-3.5-120 69.3v7zm21-98.8l6-3.5V807.6l-6-3.5v145.5zm19.5-11.2l6-3.5v-116l-6-3.5v123zm-40.5 132.5l145.5-84-6-3.5L1071 1064v6.9zm96 185.4l81 46.6 6-3.4-87-50.3v7.1zm66-573.5L1087.5 767l6 3.4 139.5-80.5v-7.1zm49.5 750.9l6 3.4v-123l-6 3.5v116.1zm-115.5-207v6.9l100.5 58 6-3.4-106.5-61.5zm-96-136.8l3 1.8 159-91.8v-3.6l-3-1.7-159 91.8v3.5zm192 332.6l6 3.4v-100.5l-6 3.6v93.5zm-96-240.8v6.9l139.5 80.5 6-3.4-145.5-84zm0 22.5v6.9l120 69.3 6-3.4-126-72.8zm135 240.8l6 3.4v-145.5l-6 3.5V1445zM1071 73.2L1197.8 0h-12L1071 66.3v6.9zm538.5 723.2v161.1l6 3.5V793l-6 3.4zm7.5-42.5l-159-91.8-3 1.6v3.6l159 91.8 3-1.8v-3.4zm0-45l-120-69.3-6 3.4 126 72.8v-6.9zm0 287.4l-81-46.7-6 3.5 87 50.3v-7.1zm0-264.9l-139.5-80.5-6 3.4 145.5 84v-6.9zm-7.5-600.1v161.1l6 3.4v-168l-6 3.5zm7.5 910.1l-120-69.3-6 3.5 126 72.8v-7zm0-22.5l-100.5-58-6 3.5 106.5 61.5v-7zm0-355.1l-81-46.6-6 3.4 87 50.3v-7.1zm0-309.9l-100.5-58.1-6 3.5 106.5 61.5v-6.9zm0 45l-139.5-80.6-6 3.5 145.5 84v-6.9zm0-22.5L1497 307l-6 3.5 126 72.8v-6.9zm0-45.2l-81-46.7-6 3.5 87 50.3v-7.1zm-544.5-35.4l6-3.4V131.3l-6-3.5v168zm544.5 790.7l-159-91.8-3 1.7v3.6l159 91.8 3-1.8v-3.5zm0-665.1l-159-91.8-3 1.7v3.6l159 91.8 3-1.8v-3.5zm0 265l-100.5-58-6 3.4 106.5 61.5v-6.9zm0 377.6l-139.5-80.6-6 3.5 145.5 84v-6.9zm0 665l-139.5-80.5-6 3.5 145.5 84v-7zm0 26v-3.5l-159-91.8-3 1.8v3.5l159 91.8 3-1.8zm0-71l-100.5-58-6 3.5L1617 1691v-7zm-162 3.5l139.5 80.5 6-3.4-145.5-84v6.9zm162 19l-120-69.3-6 3.5 126 72.8v-7zm-66 121.3v92.3h6v-95.7l-6 3.4zm58.5-698.9V1290l6 3.5v-168l-6 3.4zm-19.5 676.4V1920h6v-118.2l-6 3.5zm-19.5 11.2V1920h6v-107l-6 3.5zm46.5-465l-100.5-58-6 3.4 106.5 61.5v-6.9zm0-22.5l-81-46.8-6 3.4 87 50.3v-6.9zm0 45l-120-69.3-6 3.4 126 72.8v-6.9zm0 287.5l-81-46.8-6 3.5 87 50.3v-7zm-7.5-200v161.1l6 3.5v-168l-6 3.4zm7.5-42.5l-159-91.8-3 1.8v3.5l159 91.8 3-1.8v-3.5zm0-22.5l-139.5-80.5-6 3.4 145.5 84v-6.9zm-7.5-932.7v161.1l6 3.5v-168l-6 3.4zM1167 229v6.9l100.5 58 6-3.5L1167 229zm115.5 207l6 3.5v-123l-6 3.5v116zm-19.5-11.2l6 3.5V327.8l-6 3.5v93.5zm-96-166.3l81 46.8 6-3.5-87-50.3v7zm0-52v6.9l120 69.3 6-3.5-126-72.7zm-96-114.2l3 1.6 159-91.8V0h-8.2L1071 88.8v3.5zm96 1467v6.9l100.5 58.1 6-3.5-106.5-61.5zm0-1375.3v6.9l139.5 80.5 6-3.5L1167 184zm135 263.3l6 3.5V305.3l-6 3.5v138.5zm-69-429.6l-145.5 84 6 3.6L1233 24.8v-7.1zm0 67.6l-87 50.3 6 3.5 81-46.8v-7zm-141 199.2l6-3.5V142.5l-6-3.5v145.5zm19.5-11.2l6-3.5v-116l-6-3.5v123zm121.5-233l-126 72.8 6 3.5 120-69.3v-7zm0 22.5l-106.5 61.5 6 3.5 100.5-58v-7zM1131 262l6-3.6V165l-6-3.5V262zm216 356.8l-3-1.6-3 1.6v183.6l3 1.8 3-1.8V618.8zM1617 0h-9.9l9.9 5.7V0zm-250.5 126V0h-6v129.5l6-3.5zM1071 50.7L1158.8 0h-12L1071 43.8v6.9zm276 1233.2l-3-1.7-3 1.7v183.6l3 1.8 3-1.8v-183.6zM1617 43.8L1541.2 0h-12l87.8 50.7v-6.9zm0-22.5L1580.1 0h-12l48.8 28.2v-6.9zm0 45L1502.2 0h-12L1617 73.2v-6.9zm-276 1550.1V1800l3 1.8 3-1.8v-183.6l-3-1.6-3 1.6zm0-1479.1l3 1.8 3-1.8V0h-6v137.3zM1288.5 0h-6v103.5l6 3.5V0zm19.5 0h-6v114.8l6 3.5V0zm39 951.3l-3-1.7-3 1.7v183.6l3 1.8 3-1.8V951.3zM1071 28.2L1119.8 0h-12L1071 21.3v6.9zm546 60.6L1463.2 0h-8.2v2.1l159 91.8 3-1.6v-3.5zm-270 197.4l-3-1.7-3 1.7v183.6l3 1.8 3-1.8V286.2zM1269 0h-6v92.3l6 3.5V0zm-102 1588.8l81 46.7 6-3.5-87-50.3v7.1zM975 591l6 3.6V494.1l-6 3.4V591zm-96-166.2l81 46.8 6-3.5-87-50.3v7zm66-173.3l-87 50.3 6 3.5 81-46.8v-7zm-66 143.9v6.9l100.5 58.1 6-3.5L879 395.4zm0-22.5v6.9l120 69.3 6-3.5-126-72.7zm115.5 229.5l6 3.5v-123l-6 3.4v116.1zm19.5 11.2l6 3.5V471.6l-6 3.4v138.6zM945 229l-106.5 61.5 6 3.5L945 236v-7zM783 504.5l87-50.3-6-3.5-81 46.8v7zm1.5-42.5l6-3.5v-161l-6-3.5v168zM879 350.3v7l139.5 80.6 6-3.6-145.5-84zm-36 78l6-3.5v-93.6l-6-3.5v100.6zm-60 121.2l126-72.8-6-3.5-120 69.3v7zm21-98.7l6-3.5V308.7l-6-3.5v145.6zm141-244.3l-126 72.8 6 3.5 120-69.3v-7zm0-22.5l-145.5 84 6 3.5L945 191v-7zM823.5 439.5l6-3.5V320l-6-3.5v123zM783 527l106.5-61.5-6-3.5L783 520v7zm96-486.7v6.9l120 69.3 6-3.5-126-72.7zm0 22.5v6.9l100.5 58 6-3.5L879 62.8zm115.5 207l6 3.5v-123l-6 3.5v116zM879 92.3l81 46.8 6-3.5-87-50.3v7zm96 166.2l6 3.6V161.5l-6 3.5v93.5zm-192 0l3 1.8 159-91.8V165l-3-1.8L783 255v3.5zm96-240.8v7l139.5 80.5 6-3.6L879 17.7zm135 263.4l6 3.5V139l-6 3.5v138.6zm-69 1565.7L818.2 1920h12l114.8-66.3v-6.9zM829.5 0h-6v107l6-3.5V0zM783 239.4l145.5-84-6-3.4L783 232.5v6.9zm0-45l106.5-61.5-6-3.4-100.5 58v6.9zm0 22.5l126-72.8-6-3.4L783 210v6.9zM849 0h-6v95.7l6-3.5V0zm-66 171.9l87-50.3-6-3.4-81 46.8v6.9zM810 0h-6v118.2l6-3.5V0zm125.1 1920h9.9v-5.7l-9.9 5.7zM879 1015.5v6.9l139.5 80.6 6-3.5-145.5-84zm135 263.3l6 3.5v-145.5l-6 3.4v138.6zM783 923.7l3 1.7 159-91.8v-3.4l-3-1.8-159 91.8v3.5zm96 114.3v6.9l120 69.3 6-3.5-126-72.7zm-96-178.5L889.5 798l-6-3.5L783 852.6v6.9zm211.5 408l6 3.5v-123l-6 3.4v116.1zM783 904.5l145.5-84-6-3.5L783 897.6v6.9zm0-22.5l126-72.8-6-3.5L783 875v7zm162 12.1l-106.5 61.5 6 3.5L945 901v-6.9zM783 837l87-50.3-6-3.5-81 46.8v7zm96 223.5v6.9l100.5 58.1 6-3.5-106.5-61.5zm66-188.9l-126 72.8 6 3.5 120-69.3v-7zm-102 221.8l6-3.5v-93.6l-6-3.4v100.5zM783 572l145.5-84-6-3.5L783 565v7zm162 344.6l-87 50.3 6 3.5 81-46.7v-7.1zm-66 173.3l81 46.8 6-3.5-87-50.3v7zm96 166.4l6 3.5v-100.5l-6 3.4v93.6zM879 728v6.9l100.5 58 6-3.4L879 728zm115.5 206.9l6 3.5v-123l-6 3.5v116zM975 923.7l6 3.5V826.6l-6 3.5v93.6zm-96-218.2v6.9l120 69.3 6-3.4-126-72.8zM783 591l3 1.8L945 501v-3.5l-3-1.8-159 91.8v3.5zm96 166.4l81 46.8 6-3.4-87-50.3v6.9zm135 188.8l6 3.5V804.1l-6 3.5v138.6zM879 682.8v7.1l139.5 80.5 6-3.4L879 682.8zm-94.5 111.7l6-3.4V630l-6-3.5v168zM945 516.6l-145.5 84 6 3.4L945 523.5v-6.9zM823.5 772l6-3.4V652.5l-6-3.5v123zM804 783.3l6-3.4V641.3l-6-3.5v145.5zm141-221.7l-106.5 61.5 6 3.4 100.5-58v-6.9zm0 22.5l-87 50.3 6 3.4 81-46.8v-6.9zm0-45l-126 72.8 6 3.4L945 546v-6.9zM843 760.8l6-3.4v-93.6l-6-3.5v100.5zM1131 1920h6v-92.3l-6-3.5v95.8zm36-50.7v6.9l75.8 43.8h12l-87.8-50.7zm0 22.5v6.9l36.9 21.3h12l-48.9-28.2zm0 28.2h9.9l-9.9-5.7v5.7zm0-66.3l114.8 66.3h12l-126.8-73.2v6.9zm-55.5-40.7v107h6v-103.5l-6-3.5zm121.5-87.4l-106.5 61.5 6 3.4 100.5-58v-6.9zm-135 79.7l-6-3.5V1920h6v-114.7zm135-102.2l-126 72.8 6 3.4 120-69.3v-6.9zm0 45l-87 50.3 6 3.4 81-46.8v-6.9zm96-185.4l-139.5-80.6-6 3.6 145.5 84v-7zm0 22.5l-159-91.8-3 1.8v3.4l159 91.8 3-1.7v-3.5zm0-45l-120-69.3-6 3.5 126 72.8v-7zm0 355.1l-139.5-80.5-6 3.6 145.5 84v-7.1zm-7.5-267.7v161.1l6 3.5v-168l-6 3.4zm7.5 245.2l-120-69.3-6 3.4 126 72.8v-6.9zm0-45l-81-46.8-6 3.4 87 50.3v-6.9zm0 22.5l-100.5-58-6 3.4 106.5 61.5v-6.9zm-237-235.5l6-3.5v-138.6l-6-3.5v145.6zm19.5-11.3l6-3.5v-116l-6-3.5v123zm121.5-233l-126 72.8 6 3.5 120-69.3v-7zm-102 221.8l6-3.5v-93.6l-6-3.5v100.6zm198-74.6l-100.5-58.1-6 3.5 106.5 61.5v-6.9zm-96-169.7l-145.5 84 6 3.5L1233 1355v-7zm0 45l-106.5 61.5 6 3.5 100.5-58v-7zm309 405.4l-87-50.3v6.9l81 46.8 6-3.4zm-309-382.9l-87 50.3 6 3.5 81-46.8v-7zm30 339.5l6 3.5V1658l-6 3.6v93.4zm-192 0l3 1.8 159-91.8v-3.5l-3-1.8-159 91.8v3.5zm0-19l145.5-84-6-3.5L1071 1729v7zm1.5-110l6-3.5v-161.1l-6-3.5V1626zm160.5 61.5v-6.9l-145.5 84 6 3.4 139.5-80.5zm-162-19l87-50.3-6-3.5-81 46.8v7zm0 22.5l106.5-61.5-6-3.5-100.5 58v7zm0 22.5l126-72.8-6-3.5-120 69.3v7zm-126 178.3l-48.8 28.2h12l36.9-21.3v-6.9zM1329 210l-120-69.3-6 3.4 126 72.8V210zm0-22.5l-100.5-58-6 3.4 106.5 61.5v-6.9zm0-22.5l-81-46.8-6 3.4 87 50.3V165zm0 67.5L1189.5 152l-6 3.4 145.5 84v-6.9zm0 22.5l-159-91.8-3 1.8v3.5l159 91.8 3-1.8V255zm-7.5-129l6 3.5V0h-6v126zm7.5 371.5l-81-46.8-6 3.5 87 50.3v-7zm0 997.7l-81-46.8-6 3.5 87 50.3v-7zm0-975.2l-100.5-58-6 3.5L1329 527v-7zm-270-400l-3-1.8-3 1.8v183.6l3 1.6 3-1.6V120zm0 332.5l-3-1.8-3 1.8v183.6l3 1.7 3-1.7V452.5zM945 1869.3l-87.8 50.7h12l75.8-43.8v-6.9zm114-751.7l-3-1.8-3 1.8v183.6l3 1.6 3-1.6v-183.6zM1071 5.7l9.9-5.7h-9.9v5.7zm-12 779.4l-3-1.8-3 1.8v183.6l3 1.7 3-1.7V785.1zm-6 665.1v183.6l3 1.7 3-1.7v-183.6l-3-1.8-3 1.8zm268.5-1152.7v161.1l6 3.5V294l-6 3.5zm7.5 910.1l-120-69.3-6 3.4 126 72.8v-6.9zm0-22.5l-100.5-58-6 3.4L1329 1192v-6.9zm0-22.5l-81-46.8-6 3.4 87 50.3v-6.9zm-7.5-200.1v161.1l6 3.5v-168l-6 3.4zm7.5-42.4l-159-91.8-3 1.8v3.4l159 91.8 3-1.7v-3.5zm-7.5 375v161.1l6 3.4v-168l-6 3.5zm7.5-42.5l-159-91.8-3 1.8v3.5l159 91.8 3-1.6v-3.7zm0-22.5l-139.5-80.5-6 3.4 145.5 84.2v-7.1zm0-642.6l-159-91.8-3 1.8v3.5l159 91.8 3-1.8v-3.5zm0-45l-120-69.3-6 3.5 126 72.8v-7zm-7.5 87.5v161.1l6 3.4v-168l-6 3.5zm7.5 267.6L1189.5 817l-6 3.5 145.5 84v-6.9zm0-332.6l-139.5-80.5-6 3.5 145.5 84v-7zm0 310.1l-120-69.3-6 3.5 126 72.8v-7zm0-22.5l-100.5-58.1-6 3.5 106.5 61.5v-6.9zm0-22.5l-81-46.8-6 3.5 87 50.3v-7zm576-242.6l-159-91.8-3 1.8v3.5l159 91.8 3-1.8v-3.5zm-162 949.3v6.9l120 69.3 6-3.5-126-72.7zm0-22.5v6.9l139.5 80.6 6-3.5-145.5-84zm-94.5-220.8l6-3.5v-161.1l-6-3.4v168zm-1.5 109.9l145.5-84-6-3.4-139.5 80.5v6.9zm0 19.1l3 1.8 159-91.8v-3.5l-3-1.8-159 91.8v3.5zm0-86.6l87-50.3-6-3.4-81 46.8v6.9zm0 45l126-72.8-6-3.4-120 69.3v6.9zm0-22.5l106.5-61.5-6-3.4-100.5 58v6.9zm231 419.1l6 3.5v-145.5l-6 3.4v138.6zm-69-384.5l-106.5 61.5 6 3.5 100.5-58v-7zm0 22.5l-87 50.3 6 3.5 81-46.8v-7zm-102 176.8l6-3.5v-93.6l-6-3.5v100.6zm-19.5 11.2l6-3.5v-116l-6-3.5v123zm55.5-14.7l81 46.7 6-3.5-87-50.3v7.1zm0-29.5v6.9l100.5 58.1 6-3.5-106.5-61.5zm96 195.7l6 3.5V1658l-6 3.6v93.4zm19.5 11.3l6 3.5v-123l-6 3.4v116.1zM1647 1048.4l126-72.8-6-3.5-120 69.3v7zm211.5 385.3l6 3.4v-123l-6 3.5v116.1zm-19.5-11.2l6 3.4v-100.5l-6 3.6v93.5zm39 22.5l6 3.4v-145.5l-6 3.5V1445zm-135-218.3v6.9l100.5 58 6-3.4-106.5-61.5zm0-22.5v6.9l120 69.3 6-3.4-126-72.8zm0-22.5v6.9l139.5 80.5 6-3.4-145.5-84zm-96-110.8l145.5-84-6-3.5L1647 1064v6.9zm0 19l3 1.8 159-91.8v-3.6l-3-1.7-159 91.8v3.5zm40.5 181.1l6-3.5v-116.1l-6-3.4v123zm121.5-233l-126 72.8 6 3.5 120-69.3v-7zm-141 244.2l6-3.5v-138.6l-6-3.4v145.5zm75-25.9l81 46.6 6-3.4-87-50.3v7.1zm66-240.8l-145.5 84 6 3.5 139.5-80.6v-6.9zm-102 244.2l6-3.5v-93.6l-6-3.4v100.5zm102-176.7l-87 50.3 6 3.5 81-46.8v-7zm0-22.5l-106.5 61.5 6 3.5 100.5-58.1v-6.9zm0 310l-126 72.8 6 3.5 120-69.3v-7zm88.5 257.1v161.1l6 3.5v-168l-6 3.4zm7.5 200.2l-81-46.8-6 3.4 87 50.3v-6.9zm0-242.6l-159-91.8-3 1.8v3.4l159 91.8 3-1.7v-3.5zm0 265.1l-100.5-58-6 3.4 106.5 61.5v-6.9zm-96-102.2l-87 50.3 6 3.4 81-46.8v-6.9zm96-185.4l-139.5-80.6-6 3.6 145.5 84v-7zm-162 291l114.8 66.3h12l-126.8-73.2v6.9zm162 41.6l-139.5-80.5-6 3.6 145.5 84v-7.1zm-96-547.3l-145.5 84 6 3.5L1809 1355v-7zm96-140.4l-120-69.3-6 3.4 126 72.8v-6.9zm0 332.6l-120-69.3-6 3.5 126 72.8v-7zm0-310.1l-139.5-80.5-6 3.4 145.5 84.2v-7.1zm0-45l-100.5-58-6 3.4L1905 1192v-6.9zm0 67.5l-159-91.8-3 1.8v3.5l159 91.8 3-1.6v-3.7zm0 265.1l-100.5-58.1-6 3.5 106.5 61.5v-6.9zm-7.5-222.6v161.1l6 3.4v-168l-6 3.5zm7.5 200.1l-81-46.8-6 3.5 87 50.3v-7zm0 377.6l-120-69.3-6 3.4 126 72.8v-6.9zM1647 1736l145.5-84-6-3.5L1647 1729v7zm0-22.5l126-72.8-6-3.5-120 69.3v7zm0 41.5l3 1.8 159-91.8v-3.5l-3-1.8-159 91.8v3.5zm0-64l106.5-61.5-6-3.5-100.5 58v7zm162-3.5v-6.9l-145.5 84 6 3.4 139.5-80.5zm-141-72.7l6-3.5v-138.6l-6-3.5v145.6zm-21 53.7l87-50.3-6-3.5-81 46.8v7zm1.5-42.5l6-3.5v-161.1l-6-3.5V1626zm39 187v107h6v-103.5l-6-3.5zm55.5 107h9.9l-9.9-5.7v5.7zm-69-114.7l-6-3.5V1920h6v-114.7zm33 114.7h6v-92.3l-6-3.5v95.8zm36-28.2v6.9l36.9 21.3h12l-48.9-28.2zm0-22.5v6.9l75.8 43.8h12l-87.8-50.7zm66-143.7l-106.5 61.5 6 3.4 100.5-58v-6.9zm0-22.5l-126 72.8 6 3.4 120-69.3v-6.9zM1647 693.3l106.5-61.5-6-3.4-100.5 58v6.9zm96-154.2v6.9l120 69.3 6-3.4-126-72.8zM1707 262l6-3.6V165l-6-3.5V262zm102-221.7l-126 72.8 6 3.5 120-69.3v-7zm-121.5 233l6-3.5v-116l-6-3.5v123zM1809 17.7l-145.5 84 6 3.6L1809 24.8v-7.1zm0 67.6l-87 50.3 6 3.5 81-46.8v-7zM1743 229v6.9l100.5 58 6-3.5L1743 229zm0 29.5l81 46.8 6-3.5-87-50.3v7zm96 166.3l6 3.5V327.8l-6 3.5v93.5zm-96 91.8v6.9l139.5 80.5 6-3.4-145.5-84zm-96-133.3l126-72.8-6-3.5-120 69.3v7zm0 41.5l3 1.8 159-91.8v-3.6l-3-1.7-159 91.8v3.5zm21-140.3l6-3.5V142.5l-6-3.5v145.5zm210 495.4l6 3.4V637.8l-6 3.5v138.6zm-231-419.1l106.5-61.5-6-3.5-100.5 58.1v6.9zm1.5-65l6-3.4V131.3l-6-3.5v168zm-1.5 42.5l87-50.3-6-3.5-81 46.7v7.1zm162-275.5l-106.5 61.5 6 3.5 100.5-58v-7zm108 1404.7l3 1.8v-187l-3 1.7v183.5zM1845 0h-6v92.3l6 3.5V0zm39 0h-6v114.8l6 3.5V0zm-19.5 0h-6v103.5l6 3.5V0zm52.5 1800l3 1.8v-187l-3 1.6V1800zm0-665.1l3 1.8V949.6l-3 1.7v183.6zm0-665.1l3 1.8V284.5l-3 1.7v183.6zm0 332.6l3 1.8v-187l-3 1.6v183.6zM1858.5 436l6 3.5v-123l-6 3.5v116zm19.5 11.3l6 3.5V305.3l-6 3.5v138.5zm-135-240.8v6.9l120 69.3 6-3.5-126-72.7zm0-22.5v6.9l139.5 80.5 6-3.5L1743 184zm-96-110.8L1773.8 0h-12L1647 66.3v6.9zm0-22.5L1734.8 0h-12L1647 43.8v6.9zm0 41.6l3 1.6 159-91.8V0h-8.2L1647 88.8v3.5zm0-64.1L1695.8 0h-12L1647 21.3v6.9zm258 1134.4l-81-46.8-6 3.4 87 50.3v-6.9zm-162-238.9l81 46.7 6-3.5-87-50.3v7.1zm0-29.6v6.9l100.5 58.1 6-3.5-106.5-61.5zm0-45v6.9l139.5 80.6 6-3.5-145.5-84zm66-98.6l-87 50.3 6 3.4 81-46.8v-6.9zm30 339.4l6 3.5V992.9l-6 3.4v93.6zm19.5 11.2l6 3.5v-123l-6 3.4v116.1zm19.5 11.3l6 3.5V970.4l-6 3.4v138.6zm-135-240.8v6.9l120 69.3 6-3.5-126-72.7zm115.5-103l6 3.4V649l-6 3.5v116.1zm-190.5 181l6-3.5V807.6l-6-3.5v145.5zm39-22.5l6-3.5V830l-6-3.5v100.6zm-60 76.3l87-50.3-6-3.5-81 46.7v7.1zm1.5-42.5l6-3.5v-161l-6-3.5v168zM1809 705.5l-126 72.8 6 3.4 120-69.3v-6.9zm0-22.7L1663.5 767l6 3.4 139.5-80.5v-7.1zm-121.5 255.6l6-3.5v-116l-6-3.5v123zM1809 728l-106.5 61.5 6 3.4 100.5-58V728zm0-332.6l-106.5 61.5 6 3.5 100.5-58.1v-6.9zm0 22.5l-87 50.3 6 3.5 81-46.8v-7zm-102 176.7l6-3.6v-93.5l-6-3.4v100.5zm102-221.7l-126 72.8 6 3.5 120-69.3v-7zM1743 591l81 46.8 6-3.4-87-50.3v6.9zm0-29.4v6.9l100.5 58 6-3.4-106.5-61.5zm-96 195.8l3 1.8 159-91.8v-3.6l-3-1.6-159 91.8v3.4zm40.5-151.5l6-3.5V486.3l-6-3.4v123zM1839 757.4l6 3.4V660.3l-6 3.5v93.6zm-192 268.5l106.5-61.5-6-3.5-100.5 58v7zm0-310.1l126-72.8-6-3.4-120 69.3v6.9zm0 22.5l145.5-84-6-3.4-139.5 80.5v6.9zm1.5-109.9l6-3.5V463.8l-6-3.4v168zm19.5-11.3l6-3.5V475l-6-3.4v145.5zm141-266.8l-145.5 84 6 3.6 139.5-80.6v-7zm-162 320.5l87-50.3-6-3.4-81 46.6v7.1zm-126-109.2l-106.5 61.5 6 3.4 100.5-58v-6.9zm0 332.5l-106.5 61.5 6 3.5L1521 901v-6.9zm0 22.5l-87 50.3 6 3.5 81-46.7v-7.1zm-102 176.8l6-3.5v-93.6l-6-3.4v100.5zm-60 162.9l3 1.6 159-91.8v-3.5l-3-1.8-159 91.8v3.7zm96-218.3v6.9l120 69.3 6-3.5-126-72.7zm115.5 229.5l6 3.5v-123l-6 3.4v116.1zm-19.5-11.2l6 3.5v-100.5l-6 3.4v93.6zm-30-384.7l-126 72.8 6 3.5 120-69.3v-7zm-66 188.9v6.9l100.5 58.1 6-3.5-106.5-61.5zm-96 131.5l106.5-61.5-6-3.4-100.5 58v6.9zm0 22.5l126-72.8-6-3.4-120 69.3v6.9zm0 22.7l145.5-84.2-6-3.4-139.5 80.5v7.1zm40.5-132.6l6-3.5V985l-6-3.4v123zm-40.5 64.9l87-50.3-6-3.4-81 46.8v6.9zm1.5-42.4l6-3.5V962.5l-6-3.4v168zm160.5-278l-145.5 84 6 3.5L1521 856v-6.9zm-141 266.8l6-3.5V973.8l-6-3.4v145.5zm75-26l81 46.8 6-3.5-87-50.3v7zm66-550.8l-126 72.8 6 3.4 120-69.3v-6.9zm-102 221.7l6-3.4v-93.6l-6-3.5v100.5zm-19.5 11.2l6-3.4V652.5l-6-3.5v123zM1521 516.6l-145.5 84 6 3.4 139.5-80.5v-6.9zm-141 266.7l6-3.4V641.3l-6-3.5v145.5zm210 495.5l6 3.5v-145.5l-6 3.4v138.6zm-135-521.4l81 46.8 6-3.4-87-50.3v6.9zm66-173.3l-87 50.3 6 3.4 81-46.8v-6.9zm-162 1318.2l145.5-84-6-3.6-139.5 80.5v7.1zm1.5-1107.8l6-3.4V630l-6-3.5v168zm-1.5 110l145.5-84-6-3.5-139.5 80.6v6.9zm96 111v6.9l139.5 80.6 6-3.5-145.5-84zm-96-91.8l3 1.7 159-91.8v-3.4l-3-1.8-159 91.8v3.5zm0-41.7l126-72.8-6-3.5-120 69.3v7zm0-45l87-50.3-6-3.5-81 46.8v7zm0 22.5l106.5-61.5-6-3.5-100.5 58.1v6.9zm192 64.2l6 3.5V826.6l-6 3.5v93.6zm-96 808.8l100.5 58 6-3.4-106.5-61.5v6.9zm66-173.2l-106.5 61.5 6 3.5 100.5-58.1v-6.9zm0 22.5l-87 50.3 6 3.5 81-46.7v-7.1zm-102 176.7l6-3.5v-93.5l-6-3.6v100.6zm-60-211.4l126-72.8-6-3.5-120 69.3v7zm222 228.8l-126-72.8v6.9l120 69.3 6-3.4zm-222-206.1l145.5-84-6-3.6-139.5 80.6v7zm96-221.8v6.9l139.5 80.5 6-3.5L1455 1348zm-96 240.8l3 1.7 159-91.8v-3.4l-3-1.8-159 91.8v3.5zm0 268.3l106.5-61.5-6-3.4-100.5 58v6.9zm0-22.5l87-50.3-6-3.4-81 46.8v6.9zm40.5-64.9l6-3.5v-116.1l-6-3.4v123zm-40.5 109.9l126-72.8-6-3.4-120 69.3v6.9zm1.5-87.4l6-3.5v-161.1l-6-3.4v168zm160.5-277.9l-145.5 84 6 3.5 139.5-80.6v-6.9zM1380 1781l6-3.5v-138.6l-6-3.4V1781zm141-244.2l-126 72.8 6 3.5 120-69.3v-7zm-66-143.8v6.9l100.5 58 6-3.5L1455 1393zm96 195.8l6 3.5v-100.5l-6 3.5v93.5zm-96-166.3l81 46.8 6-3.5-87-50.3v7zm66-173.3l-87 50.3 6 3.4 81-46.6v-7.1zm49.5 350.8l6 3.5v-123l-6 3.5v116zm19.5 11.3l6 3.5v-145.5l-6 3.5v138.5zm-231-86.7l106.5-61.5-6-3.5-100.5 58.1v6.9zm162-297.9l-106.5 61.5 6 3.4 100.5-58v-6.9zm-66 143.8v6.9l120 69.3 6-3.5-126-72.7zm-94.5 89.1l6-3.4v-161.1l-6-3.5v168zm58.5-33.7l6-3.4V1329l-6-3.6v100.5zm-60 76.2l87-50.3-6-3.5-81 46.8v7zm21-53.7l6-3.4v-138.6l-6-3.5v145.5zm141-266.7l-145.5 84 6 3.4 139.5-80.5v-6.9zm0 22.5l-126 72.8 6 3.4 120-69.3v-6.9zm-121.5 232.9l6-3.4v-116.1l-6-3.5v123zm171-834.7l6 3.5v-123l-6 3.4v116.1zm58.5 847.8v183.6l3 1.7 3-1.7v-183.6l-3-1.8-3 1.8zm6-997.7l-3-1.8-3 1.8v183.6l3 1.7 3-1.7V452.5zm0 332.6l-3-1.8-3 1.8v183.6l3 1.7 3-1.7V785.1zm0-665.1l-3-1.8-3 1.8v183.6l3 1.6 3-1.6V120zm0 997.6l-3-1.8-3 1.8v183.6l3 1.6 3-1.6v-183.6zM1897.5 126l6 3.5V0h-6v126zM1521 1891.8l-48.8 28.2h12l36.9-21.3v-6.9zM1647 5.7l9.9-5.7h-9.9v5.7zm-76.5 264.1l6 3.5v-123l-6 3.5v116zM1905 165l-81-46.8-6 3.4 87 50.3V165zM1455 40.3v6.9l120 69.3 6-3.5-126-72.7zm66 1829l-87.8 50.7h12l75.8-43.8v-6.9zM1455 62.8v6.9l100.5 58 6-3.5L1455 62.8zm135 218.3l6 3.5V139l-6 3.5v138.6zm-69 1565.7l-126.8 73.2h12l114.8-66.3v-6.9zm-9.9 73.2h9.9v-5.7l-9.9 5.7zM1455 17.7v7l139.5 80.5 6-3.6L1455 17.7zM1905 565l-139.5-80.5-6 3.5 145.5 84v-7zm-7.5 65v161.1l6 3.4v-168l-6 3.5zm7.5 222.6l-100.5-58.1-6 3.5 106.5 61.5v-6.9zm0-22.5l-81-46.8-6 3.5 87 50.3v-7zM823.5 1104.6l6-3.5V985l-6-3.4v123zM1551 258.5l6 3.6V161.5l-6 3.5v93.5zm354 661.6l-159-91.8-3 1.8v3.4l159 91.8 3-1.7v-3.5zm0-22.5L1765.5 817l-6 3.5 145.5 84v-6.9zm0-22.5l-120-69.3-6 3.5 126 72.8v-7zm0-665.1l-120-69.3-6 3.4 126 72.8V210zm0 22.5L1765.5 152l-6 3.4 145.5 84v-6.9zm0-45l-100.5-58-6 3.4 106.5 61.5v-6.9zm0 67.5l-159-91.8-3 1.8v3.5l159 91.8 3-1.8V255zm0 287.5l-120-69.3-6 3.5 126 72.8v-7zm-7.5-245v161.1l6 3.5V294l-6 3.5zM1905 520l-100.5-58-6 3.5L1905 527v-7zm-450 208v6.9l100.5 58 6-3.4L1455 728zm450-230.5l-81-46.8-6 3.5 87 50.3v-7zM1521 184l-145.5 84 6 3.5L1521 191v-7zm-160.5 278l6-3.5v-161l-6-3.5v168zm19.5-11.2l6-3.5V308.7l-6-3.5v145.6zm-21 53.7l87-50.3-6-3.5-81 46.8v7zm162-298l-126 72.8 6 3.5 120-69.3v-7zm-121.5 233l6-3.5V320l-6-3.5v123zm19.5-11.2l6-3.5v-93.6l-6-3.5v100.6zm-60 98.7l106.5-61.5-6-3.5-100.5 58v7zm96 155.8v7.1l139.5 80.5 6-3.4-145.5-84.2zm0 22.7v6.9l120 69.3 6-3.4-126-72.8zm115.5 229.4l6 3.5v-123l-6 3.5v116zm19.5 11.3l6 3.5V804.1l-6 3.5v138.6zM1359 572l145.5-84-6-3.5L1359 565v7zm0-22.5l126-72.8-6-3.5-120 69.3v7zm0 41.5l3 1.8 159-91.8v-3.5l-3-1.8-159 91.8v3.5zm162-362l-106.5 61.5 6 3.5 100.5-58v-7zm-66 195.8l81 46.8 6-3.5-87-50.3v7zm-96-207.9l126-72.8-6-3.4-120 69.3v6.9zm0-45l87-50.3-6-3.4-81 46.8v6.9zm0 86.6l3 1.8 159-91.8V165l-3-1.8-159 91.8v3.5zm162-7l-87 50.3 6 3.5 81-46.8v-7zm-162-57.1l106.5-61.5-6-3.4-100.5 58v6.9zM1405.5 0h-6v107l6-3.5V0zm19.5 0h-6v95.7l6-3.5V0zm-39 0h-6v118.2l6-3.5V0zm-27 239.4l145.5-84-6-3.4-139.5 80.5v6.9zM1551 591l6 3.6V494.1l-6 3.4V591zm-96-195.6v6.9l100.5 58.1 6-3.5-106.5-61.5zm0-303.1l81 46.8 6-3.5-87-50.3v7zm0 258v7l139.5 80.6 6-3.6-145.5-84zm442.5 612.2v161.1l6 3.5v-168l-6 3.4zM1590 613.6l6 3.5V471.6l-6 3.4v138.6zm-135-240.7v6.9l120 69.3 6-3.5-126-72.7zm192 32.9l145.5-84-6-3.5-139.5 80.6v6.9zM465 1729l-139.5-80.5-6 3.5 145.5 84v-7zm-258-140.2l3 1.7 159-91.8v-3.4l-3-1.8-159 91.8v3.5zm258 117.7l-120-69.3-6 3.5 126 72.8v-7zm0-45l-81-46.8-6 3.5 87 50.3v-7zm0 22.5l-100.5-58-6 3.5L465 1691v-7zm0 71v-3.5l-159-91.8-3 1.8v3.5l159 91.8 3-1.8zm-27 50.3V1920h6v-118.2l-6 3.5zm-135-117.8l139.5 80.5 6-3.4-145.5-84v6.9zm115.5 129V1920h6v-107l-6 3.5zm46.5-775.1l-120-69.3-6 3.5 126 72.8v-7zm-7.5 87.5V1290l6 3.5v-168l-6 3.4zm7.5-64.9l-139.5-80.6-6 3.5 145.5 84v-6.9zm0 265l-81-46.8-6 3.4 87 50.3v-6.9zm0 67.5L325.5 1316l-6 3.4 145.5 84v-6.9zm0-45l-100.5-58-6 3.4 106.5 61.5v-6.9zm0 67.5l-159-91.8-3 1.8v3.5l159 91.8 3-1.8v-3.5zm0-45l-120-69.3-6 3.4 126 72.8v-6.9zm0-287.5l-159-91.8-3 1.7v3.6l159 91.8 3-1.8v-3.5zm-198 672l6-3.5v-93.5l-6-3.6v100.6zm102-199.2l-106.5 61.5 6 3.5 100.5-58.1v-6.9zm0-45l-145.5 84 6 3.5 139.5-80.6v-6.9zm-121.5 255.4l6-3.5v-116.1l-6-3.4v123zM369 1536.8l-126 72.8 6 3.5 120-69.3v-7zm0 45l-87 50.3 6 3.5 81-46.7v-7.1zm60 194.1l-126-72.8v6.9l120 69.3 6-3.4zm-126-43.4l100.5 58 6-3.4-106.5-61.5v6.9zm-94.5 59.7l6-3.5v-161.1l-6-3.4v168zm-1.5 110.1l145.5-84-6-3.6-139.5 80.6v7zm0-22.7l126-72.8-6-3.4-120 69.3v6.9zm183-81.2l-87-50.3v6.9l81 46.8 6-3.4zM228 1781l6-3.5v-138.6l-6-3.4V1781zm171 46.8v92.3h6v-95.7l-6 3.4zm-192 29.3l106.5-61.5-6-3.4-100.5 58v6.9zm0-22.5l87-50.3-6-3.4-81 46.8v6.9zm250.5-373.1v161.1l6 3.5v-168l-6 3.4zM189 137.3l3 1.8 3-1.8V0h-6v137.3zm6 1146.6l-3-1.7-3 1.7v183.6l3 1.8 3-1.8v-183.6zm-6 332.5V1800l3 1.8 3-1.8v-183.6l-3-1.6-3 1.6zm6-665.1l-3-1.7-3 1.7v183.6l3 1.8 3-1.8V951.3zM465 0h-9.9l9.9 5.7V0zM81 1748.1l-81 46.8v6.9l81-46.8v-6.9zM214.5 126V0h-6v129.5l6-3.5zM195 618.8l-3-1.6-3 1.6v183.6l3 1.8 3-1.8V618.8zm270-575L389.2 0h-12L465 50.7v-6.9zM195 286.2l-3-1.7-3 1.7v183.6l3 1.8 3-1.8V286.2zM15 1869.3v6.9l75.8 43.8h12L15 1869.3zm0 50.7h9.9l-9.9-5.7v5.7zm0-66.3l114.8 66.3h12L15 1846.8v6.9zm0 38.1v6.9l36.9 21.3h12L15 1891.8zm66-166.2l-81 46.8v6.9l81-46.8v-6.9zm0-45l-81 46.8v6.9l81-46.8v-6.9zm0 22.5l-81 46.8v6.9l81-46.8v-6.9zm384-684.2l-100.5-58-6 3.5 106.5 61.5v-7zm0-952.6L350.2 0h-12L465 73.2v-6.9zm0 620.1l-100.5-58-6 3.4L465 693.3v-6.9zm0-22.6l-81-46.6-6 3.4 87 50.3v-7.1zm0 67.6l-139.5-80.5-6 3.4 145.5 84v-6.9zm0 264.9l-81-46.7-6 3.5 87 50.3v-7.1zm-7.5-532.5v161.1l6 3.5v-168l-6 3.4zm0 332.6v161.1l6 3.5V793l-6 3.4zm7.5-42.5l-159-91.8-3 1.6v3.6l159 91.8 3-1.8v-3.4zm0-45l-120-69.3-6 3.4 126 72.8v-6.9zm0-377.7l-81-46.7-6 3.5 87 50.3v-7.1zm-7.5-199.9v161.1l6 3.4v-168l-6 3.5zm7.5-42.5L311.2 0H303v2.1l159 91.8 3-1.6v-3.5zm0 287.6L345 307l-6 3.5 126 72.8v-6.9zm0-22.5l-100.5-58.1-6 3.5L465 360.8v-6.9zm0 45l-139.5-80.6-6 3.5 145.5 84v-6.9zm0 22.5l-159-91.8-3 1.7v3.6l159 91.8 3-1.8v-3.5zm0-400.1L428.1 0h-12L465 28.2v-6.9zm-96 495.3l-145.5 84 6 3.4L369 523.5v-6.9zM207 837l87-50.3-6-3.5-81 46.8v7zm40.5-65l6-3.4V652.5l-6-3.5v123zm-39 22.5l6-3.4V630l-6-3.5v168zM369 584.1l-87 50.3 6 3.4 81-46.8v-6.9zm0-22.5l-106.5 61.5 6 3.4 100.5-58v-6.9zm0-22.5l-126 72.8 6 3.4L369 546v-6.9zM267 760.8l6-3.4v-93.6l-6-3.5v100.5zm-39 22.5l6-3.4V641.3l-6-3.5v145.5zm210 495.5l6 3.5v-145.5l-6 3.4v138.6zM303 1038v6.9l120 69.3 6-3.5-126-72.7zm115.5 229.5l6 3.5v-123l-6 3.4v116.1zm-115.5-252v6.9l139.5 80.6 6-3.5-145.5-84zm-96-111l145.5-84-6-3.5L207 897.6v6.9zm0 19.2l3 1.7 159-91.8v-3.4l-3-1.8-159 91.8v3.5zm0-41.7l126-72.8-6-3.5L207 875v7zm0-22.5L313.5 798l-6-3.5L207 852.6v6.9zm0-310l126-72.8-6-3.5-120 69.3v7zm96 207.9l81 46.8 6-3.4-87-50.3v6.9zm-96-252.9l87-50.3-6-3.5-81 46.8v7zm0 67.5l145.5-84-6-3.5L207 565v7zm96 488.5v6.9l100.5 58.1 6-3.5-106.5-61.5zM208.5 462l6-3.5v-161l-6-3.5v168zm39-22.5l6-3.5V320l-6-3.5v123zM228 450.8l6-3.5V308.7l-6-3.5v145.6zM369 184l-145.5 84 6 3.5L369 191v-7zM207 527l106.5-61.5-6-3.5L207 520v7zm211.5 407.9l6 3.5v-123l-6 3.5v116zM207 591l3 1.8L369 501v-3.5l-3-1.8-159 91.8v3.5zm192 332.7l6 3.5V826.6l-6 3.5v93.6zM303 728v6.9l100.5 58 6-3.4L303 728zm0-45.2v7.1l139.5 80.5 6-3.4L303 682.8zm-96 887l145.5-84-6-3.6-139.5 80.5v7.1zm231-623.6l6 3.5V804.1l-6 3.5v138.6zM303 705.5v6.9l120 69.3 6-3.4-126-72.8zm0 717l81 46.8 6-3.5-87-50.3v7zm66-173.3l-87 50.3 6 3.4 81-46.6v-7.1zm0-22.5l-106.5 61.5 6 3.4 100.5-58v-6.9zm-102 199.2l6-3.4V1329l-6-3.6v100.5zm132 162.9l6 3.5v-100.5l-6 3.5v93.5zm19.5 11.2l6 3.5v-123l-6 3.5v116zM303 1370.5v6.9l120 69.3 6-3.5-126-72.7zm66-166.3L243 1277l6 3.4 120-69.3v-6.9zM303 1393v6.9l100.5 58 6-3.5L303 1393zm96-136.7l6 3.5v-100.5l-6 3.4v93.6zm-192 290.8l126-72.8-6-3.5-120 69.3v7zm0-45l87-50.3-6-3.5-81 46.8v7zm40.5-65l6-3.4v-116.1l-6-3.5v123zM369 1181.7l-145.5 84 6 3.4 139.5-80.5v-6.9zm-160.5 277.9l6-3.4v-161.1l-6-3.5v168zm19.5-11.2l6-3.4v-138.6l-6-3.5v145.5zm-21 76.2l106.5-61.5-6-3.5-100.5 58.1v6.9zm60-431.2l6-3.5v-93.6l-6-3.4v100.5zm-39 22.5l6-3.5V973.8l-6-3.4v145.5zm141-244.3l-126 72.8 6 3.5 120-69.3v-7zm0-22.5l-145.5 84 6 3.5L369 856v-6.9zm-121.5 255.5l6-3.5V985l-6-3.4v123zM369 894.1l-106.5 61.5 6 3.5L369 901v-6.9zm-66 195.8l81 46.8 6-3.5-87-50.3v7zm66-173.3l-87 50.3 6 3.5 81-46.7v-7.1zm-162 252.9l87-50.3-6-3.4-81 46.8v6.9zm0 86.8l3 1.6 159-91.8v-3.5l-3-1.8-159 91.8v3.7zm0-19.1l145.5-84.2-6-3.4-139.5 80.5v7.1zm96 110.8v6.9l139.5 80.5 6-3.5L303 1348zm-96-156l106.5-61.5-6-3.4-100.5 58v6.9zm231 419.3l6 3.5v-145.5l-6 3.5v138.5zm-231-396.8l126-72.8-6-3.4-120 69.3v6.9zm1.5-87.4l6-3.5V962.5l-6-3.4v168zM81 62.8L0 109.6v6.9l81-46.8v-6.9zm36 32.9V0h-6v92.3l6 3.4zm52.5 30.3l6 3.5V0h-6v126zM6.8 0H0v3.9L6.8 0zM156 0h-6v114.8l6 3.5V0zm-19.5 0h-6v103.5l6 3.5V0zM177 187.5l-100.5-58-6 3.4L177 194.4v-6.9zm0-22.5l-81-46.8-6 3.4 87 50.3V165zM45.8 0h-12L0 19.5v6.9L45.8 0zM177 210L57 140.7l-6 3.4 126 72.8V210zM6 620.5l-6-3.4v6.9l6-3.5zm58.5-298.7l-6-3.5L0 352.1v6.9l64.5-37.2zm16.5 13v-3.6l-3-1.7-78 45v7l81-46.7zm-55.5 297l-6-3.4L0 639.6v6.9l25.5-14.7zm0-332.5l-6-3.5L0 307.1v6.9l25.5-14.7zM6 288l-6-3.5v6.9l6-3.4zM81 2.1V0h-8.2L0 42v6.8L81 2.1zM45 310.5l-6-3.5-39 22.6v6.9l45-26zm66 114.3l6 3.5V327.8l-6 3.5v93.5zM81 40.3L0 87.1V94l81-46.8v-6.9zm96 192.2L37.5 152l-6 3.4 145.5 84v-6.9zm-27 214.8l6 3.5V305.3l-6 3.5v138.5zM15 184v6.9l139.5 80.5 6-3.5L15 184zm354 22.5l-126 72.8 6 3.5 120-69.3v-7zM177 520L76.5 462l-6 3.5L177 527v-7zm0-22.5l-81-46.8-6 3.5 87 50.3v-7zM81 17.7L0 64.5v7.1l81-46.8v-7.1zm0 67.6L0 132.1v6.9l81-46.8v-6.9zm21 216.5l-87-50.3v6.9l81 46.8 6-3.4zm67.5-4.3v161.1l6 3.5V294l-6 3.5zM15 206.5v6.9l120 69.3 6-3.5-126-72.7zM177 255L18 163.2l-3 1.8v3.5l159 91.8 3-1.8V255zM45 643l-6-3.4-39 22.5v6.9l45-26zm85.5-207l6 3.5v-123l-6 3.5v116zM15 229v6.9l100.5 58 6-3.5L15 229zm1594.5 1565v126h6v-129.5l-6 3.5zM753 1917.9l-159-91.8-3 1.6v3.5l153.8 88.8h8.2v-2.1zm306-135.1l-3-1.8-3 1.8V1920h6v-137.2zm-114 48.4v-3.5l-3-1.6-159 91.8v2.1h8.2l153.8-88.8zm88.5-37.2v126h6v-129.5l-6 3.5zm-531 0l-6-3.5V1920h6v-126zm-19.5-11.2l-3-1.8-3 1.8V1920h6v-137.2zm-114 48.4v-3.5l-3-1.6-159 91.8v2.1h8.2l153.8-88.8zm-192 86.7l-159-91.8-3 1.6v3.5l153.8 88.8h8.2v-2.1zM457.5 1794v126h6v-129.5l-6 3.5zm1197 0l-6-3.5V1920h6v-126zm-576 0l-6-3.5V1920h6v-126zM1917 0v137.3l3 1.8V0h-3zm-282 1782.8l-3-1.8-3 1.8V1920h6v-137.2zm270 135.1l-159-91.8-3 1.6v3.5l153.8 88.8h8.2v-2.1zM177 542.5L57 473.3l-6 3.5 126 72.8v-7.1zm1152 1375.4l-159-91.8-3 1.6v3.5l153.8 88.8h8.2v-2.1zm192-86.7v-3.5l-3-1.6-159 91.8v2.1h8.2l153.8-88.8zM45 1308.1l-6-3.4-39 22.5v6.9l45-26zm19.5-321.2l-6-3.5L0 1017.2v6.9l64.5-37.2zM81 1665v-3.5l-3-1.8-78 45v7l81-46.7zm0-665.1v-3.6l-3-1.7-78 45v7l81-46.7zM6 1285.6l-6-3.4v6.9l6-3.5zm19.5-321.2l-6-3.5L0 972.2v6.9l25.5-14.7zm55.5-297v-3.6l-3-1.6-78 45v7l81-46.8zm-55.5 629.5l-6-3.4L0 1304.7v6.9l25.5-14.7zM6 953.1l-6-3.5v6.9l6-3.4zm39 22.5l-6-3.5-39 22.6v6.9l45-26zm0 665.1l-6-3.5-39 22.5v6.9l45-25.9zm19.5 11.3l-6-3.5L0 1682.3v6.9l64.5-37.2zm-39-22.5l-6-3.5L0 1637.3v6.9l25.5-14.7zM6 1618.2l-6-3.5v6.9l6-3.4zm171 277.1l-139.5-80.5-6 3.6 145.5 84v-7.1zM64.5 1319.4l-6-3.4L0 1349.7v6.9l64.5-37.2zm16.5 13.1v-3.5l-3-1.8-78 45v7l81-46.7zM64.5 654.3l-6-3.4L0 684.6v6.9l64.5-37.2zM15 1181.7v6.9l139.5 80.5 6-3.4-145.5-84zm66-121.2l-81 46.8v6.9l81-46.8v-6.9zm0-45l-81 46.8v6.9l81-46.8v-6.9zm96 547.2l-139.5-80.6-6 3.6 145.5 84v-7zM81 1038l-81 46.8v6.9l81-46.8v-6.9zm96 502.2l-120-69.3-6 3.5 126 72.8v-7zm0-45l-81-46.8-6 3.5 87 50.3v-7zm0 22.5l-100.5-58.1-6 3.5 106.5 61.5v-6.9zM81 1083l-81 46.8v6.9l81-46.8v-6.9zm88.5 212.1v161.1l6 3.4v-168l-6 3.5zm-67.5 4.4l-87-50.3v7l81 46.6 6-3.3zm75-46.9l-159-91.8-3 1.8v3.5l159 91.8 3-1.6v-3.7zm0-22.5l-139.5-80.5-6 3.4 145.5 84.2v-7.1zm-46.5 203.6l6 3.4v-123l-6 3.5v116.1zM15 1226.7v6.9l100.5 58 6-3.4L15 1226.7zm0-22.5v6.9l120 69.3 6-3.4-126-72.8zM150 1445l6 3.4v-145.5l-6 3.5V1445zm-39-22.5l6 3.4v-100.5l-6 3.6v93.5zm-30-52l-81 46.8v6.9l81-46.8v-6.9zm0 22.5l-81 46.8v6.9l81-46.8v-6.9zm0 22.5l-81 46.8v6.9l81-46.8v-6.9zm0-67.5l-81 46.8v6.9l81-46.8v-6.9zm96 524.8l-120-69.3-6 3.4 126 72.8v-6.9zM15 1514.3v6.9l139.5 80.6 6-3.5-145.5-84zm162 70.9l-159-91.8-3 1.8v3.4l159 91.8 3-1.7v-3.5zm0 265.1l-100.5-58-6 3.4 106.5 61.5v-6.9zm0-22.5L96 1781l-6 3.4 87 50.3v-6.9zM102 1632l-87-50.3v7l81 46.7 6-3.4zm67.5-4.4v161.1l6 3.5v-168l-6 3.4zM111 1755l6 3.5V1658l-6 3.6v93.4zm-96-218.2v6.9l120 69.3 6-3.5-126-72.7zm135 240.7l6 3.5v-145.5l-6 3.4v138.6zM15 1559.3v6.9l100.5 58.1 6-3.5L15 1559.3zm115.5 207l6 3.5v-123l-6 3.4v116.1zM15 516.6v6.9L154.5 604l6-3.4-145.5-84zm66-121.2L0 442.2v6.9l81-46.8v-6.9zm0 22.5L0 464.7v6.9l81-46.8v-6.9zM177 565L37.5 484.5l-6 3.5L177 572v-7zm-27 214.9l6 3.4V637.8l-6 3.5v138.6zm-69-407L0 419.7v6.9l81-46.8v-6.9zm96 479.7L76.5 794.5l-6 3.5L177 859.5v-6.9zM81 350.3L0 397v7.1l81-46.8v-7zm96 479.8l-81-46.8-6 3.5 87 50.3v-7zm-75-195.7l-87-50.3v6.9l81 46.8 6-3.4zm67.5-4.4v161.1l6 3.4v-168l-6 3.5zm7.5-42.5L18 495.8l-3 1.8v3.5l159 91.8 3-1.8v-3.6zm0 287.6L57 805.8l-6 3.5L177 882v-6.9zM15 561.6v6.9l100.5 58 6-3.4L15 561.6zm162 646l-120-69.3-6 3.4 126 72.8v-6.9zm-46.5-439l6 3.4V649l-6 3.5v116.1zM15 539.1v6.9l120 69.3 6-3.4-126-72.8zm96 218.3l6 3.4V660.3l-6 3.5v93.6zm-30-51.9L0 752.2v6.9l81-46.8v-6.8zm0 45L0 797.2v6.9l81-46.8v-6.8zm0-22.5L0 774.7v6.9l81-46.8V728zM15 849.1v6.9l139.5 80.6 6-3.5-145.5-84zm162 336l-100.5-58-6 3.4L177 1192v-6.9zM81 682.8L0 729.6v7l81-46.8v-7zm69 429.6l6 3.5V970.4l-6 3.4v138.6zm27 50.2l-81-46.8-6 3.4 87 50.3v-6.9zm-75-195.7l-87-50.3v7l81 46.7 6-3.4zm75-69.3L37.5 817l-6 3.5 145.5 84v-6.9zm768-48.5l-145.5 84 6 3.5L945 856v-6.9zm-768 71L18 828.3l-3 1.8v3.4l159 91.8 3-1.7v-3.5zM15 871.6v6.9l120 69.3 6-3.5-126-72.7zm115.5 229.5l6 3.5v-123l-6 3.4v116.1zm-19.5-11.2l6 3.5V992.9l-6 3.4v93.6zM15 894.1v6.9l100.5 58.1 6-3.5L15 894.1zm154.5 68.4v161.1l6 3.5v-168l-6 3.4zM495 28.2L543.8 0h-12L495 21.3v6.9zM712.5 0h-6v103.5l6 3.5V0zM732 0h-6v114.8l6 3.5V0zm39 951.3l-3-1.7-3 1.7v183.6l3 1.8 3-1.8V951.3zM495 50.7L582.8 0h-12L495 43.8v6.9zm276 568.1l-3-1.6-3 1.6v183.6l3 1.8 3-1.8V618.8zM693 0h-6v92.3l6 3.5V0zm-36 85.3l-87 50.3 6 3.5 81-46.8v-7zM495 73.2L621.8 0h-12L495 66.3v6.9zm192 351.6l6 3.5V327.8l-6 3.5v93.5zM591 229v6.9l100.5 58 6-3.5L591 229zm0 29.5l81 46.8 6-3.5-87-50.3v7zM706.5 436l6 3.5v-123l-6 3.5v116zM591 184v6.9l139.5 80.5 6-3.5L591 184zm0 22.5v6.9l120 69.3 6-3.5-126-72.7zM495 92.3l3 1.6L657 2.1V0h-8.2L495 88.8v3.5zm231 355l6 3.5V305.3l-6 3.5v138.5zm315 216.5l-81-46.6-6 3.4 87 50.3v-7.1zm0-309.9l-100.5-58.1-6 3.5 106.5 61.5v-6.9zm0-265.1L887.2 0H879v2.1l159 91.8 3-1.6v-3.5zm0 242.4l-81-46.7-6 3.5 87 50.3v-7.1zm-7.5-199.9v161.1l6 3.4v-168l-6 3.5zm7.5 245.1L921 307l-6 3.5 126 72.8v-6.9zm-276 1240V1800l3 1.8 3-1.8v-183.6l-3-1.6-3 1.6zm276-1217.5l-139.5-80.6-6 3.5 145.5 84v-6.9zm0 22.5l-159-91.8-3 1.7v3.6l159 91.8 3-1.8v-3.5zm-7.5 42.4v161.1l6 3.5v-168l-6 3.4zm7.5-397.5L926.2 0h-12L1041 73.2v-6.9zM790.5 126V0h-6v129.5l6-3.5zM771 1283.9l-3-1.7-3 1.7v183.6l3 1.8 3-1.8v-183.6zm-6-1146.6l3 1.8 3-1.8V0h-6v137.3zm276-93.5L965.2 0h-12l87.8 50.7v-6.9zm0-22.5L1004.1 0h-12l48.8 28.2v-6.9zm0-21.3h-9.9l9.9 5.7V0zM771 286.2l-3-1.7-3 1.7v183.6l3 1.8 3-1.8V286.2zm-114 86.7l-126 72.8 6 3.5 120-69.3v-7zm-121.5 233l6-3.5V486.3l-6-3.4v123zm19.5-11.3l6-3.6v-93.5l-6-3.4v100.5zm102-244.3l-145.5 84 6 3.6L657 357.3v-7zm30 407.1l6 3.4V660.3l-6 3.5v93.6zM516 617.1l6-3.5V475l-6-3.4v145.5zm141-199.2l-87 50.3 6 3.5 81-46.8v-7zm0-22.5l-106.5 61.5 6 3.5L657 402.3v-6.9zM591 591l81 46.8 6-3.4-87-50.3v6.9zm-96 147.3l145.5-84-6-3.4L495 731.4v6.9zm96 110.8v6.9l139.5 80.6 6-3.5-145.5-84zm-96-91.7l3 1.8 159-91.8v-3.6l-3-1.6L495 754v3.4zm231 355l6 3.5V970.4l-6 3.4v138.6zm-229.5-484l6-3.5V463.8l-6-3.4v168zM657 62.8l-106.5 61.5 6 3.5 100.5-58v-7zm-162 608l87-50.3-6-3.4-81 46.6v7.1zm0 22.5l106.5-61.5-6-3.4-100.5 58v6.9zm0 22.5L621 643l-6-3.4-120 69.3v6.9zm0-355l106.5-61.5-6-3.5L495 353.9v6.9zM657 17.7l-145.5 84 6 3.6L657 24.8v-7.1zM516 284.5l6-3.5V142.5l-6-3.5v145.5zm-21 53.8l87-50.3-6-3.5-81 46.7v7.1zm1.5-42.5l6-3.4V131.3l-6-3.5v168zM555 262l6-3.6V165l-6-3.5V262zm-19.5 11.3l6-3.5v-116l-6-3.5v123zM657 40.3l-126 72.8 6 3.5 120-69.3v-7zm-162 343l126-72.8-6-3.5-120 69.3v7zm96 155.8v6.9l120 69.3 6-3.4-126-72.8zm0 22.5v6.9l100.5 58 6-3.4L591 561.6zm115.5 207l6 3.4V649l-6 3.5v116.1zm19.5 11.3l6 3.4V637.8l-6 3.5v138.6zM591 516.6v6.9L730.5 604l6-3.4-145.5-84zm-96-110.8l145.5-84-6-3.5L495 398.9v6.9zm0 19l3 1.8 159-91.8v-3.6l-3-1.7-159 91.8v3.5zM879 1348v6.9l139.5 80.5 6-3.5L879 1348zm-96 154.1l87-50.3-6-3.5-81 46.8v7zm258-815.7l-100.5-58-6 3.4 106.5 61.5v-6.9zm-237 762l6-3.4v-138.6l-6-3.5v145.5zm-21 98.7l126-72.8-6-3.5-120 69.3v7zm0-22.5l106.5-61.5-6-3.5-100.5 58.1v6.9zm162-320.4L819 1277l6 3.4 120-69.3v-6.9zm0-22.5l-145.5 84 6 3.4 139.5-80.5v-6.9zm-121.5 255.4l6-3.4v-116.1l-6-3.5v123zM945 1581.8l-87 50.3 6 3.5 81-46.7v-7.1zm-102 176.7l6-3.5v-93.5l-6-3.6v100.6zm102-199.2l-106.5 61.5 6 3.5 100.5-58.1v-6.9zm-102-133.4l6-3.4V1329l-6-3.6v100.5zm-60 143.9l145.5-84-6-3.6-139.5 80.5v7.1zm162-33l-126 72.8 6 3.5 120-69.3v-7zm-162 52l3 1.7 159-91.8v-3.4l-3-1.8-159 91.8v3.5zm222 187.1l-126-72.8v6.9l120 69.3 6-3.4zm-126-43.4l100.5 58 6-3.4-106.5-61.5v6.9zm-75-616.6l6-3.5V973.8l-6-3.4v145.5zM591 871.6v6.9l120 69.3 6-3.5-126-72.7zm192 342.9l126-72.8-6-3.4-120 69.3v6.9zm162 12.2l-106.5 61.5 6 3.4 100.5-58v-6.9zm-162 29.6l3 1.6 159-91.8v-3.5l-3-1.8-159 91.8v3.7zm0-19.1l145.5-84.2-6-3.4-139.5 80.5v7.1zm40.5 532.5l6-3.5v-116.1l-6-3.4v123zm-39-642.6l6-3.5V962.5l-6-3.4v168zm-1.5 42.4l87-50.3-6-3.4-81 46.8v6.9zm0 22.5l106.5-61.5-6-3.4-100.5 58v6.9zm96 230.5l81 46.8 6-3.5-87-50.3v7zm66-173.3l-87 50.3 6 3.4 81-46.6v-7.1zm69 362.1l6 3.5v-145.5l-6 3.5v138.5zm-39-22.5l6 3.5v-100.5l-6 3.5v93.5zm-96-218.3v6.9l120 69.3 6-3.5-126-72.7zM994.5 1600l6 3.5v-123l-6 3.5v116zM879 1393v6.9l100.5 58 6-3.5L879 1393zm-94.5 66.6l6-3.4v-161.1l-6-3.5v168zm249-330.7V1290l6 3.5v-168l-6 3.4zm7.5 222.6l-100.5-58-6 3.4 106.5 61.5v-6.9zm0-287.5l-139.5-80.6-6 3.5 145.5 84v-6.9zm0 22.5l-159-91.8-3 1.7v3.6l159 91.8 3-1.8v-3.5zm0 242.5l-81-46.8-6 3.4 87 50.3v-6.9zm-7.5 132.5v161.1l6 3.5v-168l-6 3.4zm7.5-65L901.5 1316l-6 3.4 145.5 84v-6.9zm0-22.5l-120-69.3-6 3.4 126 72.8v-6.9zm0 45l-159-91.8-3 1.8v3.5l159 91.8 3-1.8v-3.5zm0-687.6l-139.5-80.5-6 3.4 145.5 84v-6.9zm0-22.5l-120-69.3-6 3.4 126 72.8v-6.9zm0 332.5l-120-69.3-6 3.5 126 72.8v-7zm0-287.5l-159-91.8-3 1.6v3.6l159 91.8 3-1.8v-3.4zm0 265l-100.5-58-6 3.5 106.5 61.5v-7zm-7.5-222.5v161.1l6 3.5V793l-6 3.4zm7.5 199.9l-81-46.7-6 3.5 87 50.3v-7.1zm-75 802.1l-87-50.3v6.9l81 46.8 6-3.4zm75-136.9l-81-46.8-6 3.5 87 50.3v-7zm-258 218.1l126-72.8-6-3.4-120 69.3v6.9zm0-22.5l106.5-61.5-6-3.4-100.5 58v6.9zm162-342.8l-145.5 84 6 3.5 139.5-80.6v-6.9zm-162 320.3l87-50.3-6-3.4-81 46.8v6.9zm21-53.6l6-3.5v-138.6l-6-3.4V1781zm-19.5 11.2l6-3.5v-161.1l-6-3.4v168zm190.5 35.6v92.3h6v-95.7l-6 3.4zm-192 74.5l145.5-84-6-3.6-139.5 80.6v7zm258-195.8l-120-69.3-6 3.5 126 72.8v-7zm0 22.5l-139.5-80.5-6 3.5 145.5 84v-7zm0-45l-100.5-58-6 3.5L1041 1691v-7zm-162 3.5l139.5 80.5 6-3.4-145.5-84v6.9zm135 117.8V1920h6v-118.2l-6 3.5zm27-50.3v-3.5l-159-91.8-3 1.8v3.5l159 91.8 3-1.8zM267 428.3l6-3.5v-93.6l-6-3.5v100.6zm727.5 1388.2V1920h6v-107l-6 3.5zM753 565l-139.5-80.5-6 3.5L753 572v-7zm0 22.5l-159-91.8-3 1.8v3.5l159 91.8 3-1.8v-3.5zm-7.5 42.5v161.1l6 3.4v-168l-6 3.5zm7.5-87.5l-120-69.3-6 3.5 126 72.8v-7zm0 310.1l-100.5-58.1-6 3.5L753 859.5v-6.9zm-46.5 248.5l6 3.5v-123l-6 3.4v116.1zM753 520l-100.5-58-6 3.5L753 527v-7zm0 310.1l-81-46.8-6 3.5 87 50.3v-7zm0-620.1l-120-69.3-6 3.4 126 72.8V210zm0-45l-81-46.8-6 3.4 87 50.3V165zm0 732.6L613.5 817l-6 3.5 145.5 84v-6.9zm0-400.1l-81-46.8-6 3.5 87 50.3v-7zM745.5 126l6 3.5V0h-6v126zm7.5 61.5l-100.5-58-6 3.4L753 194.4v-6.9zm-7.5 110v161.1l6 3.5V294l-6 3.5zM753 255l-159-91.8-3 1.8v3.5l159 91.8 3-1.8V255zm0-22.5L613.5 152l-6 3.4 145.5 84v-6.9zm0 1617.8l-100.5-58-6 3.4 106.5 61.5v-6.9zm0-355.1l-81-46.8-6 3.5 87 50.3v-7zm0 45l-120-69.3-6 3.5 126 72.8v-7zm0 22.5l-139.5-80.6-6 3.6 145.5 84v-7zm0-45l-100.5-58.1-6 3.5 106.5 61.5v-6.9zm0 67.5l-159-91.8-3 1.8v3.4l159 91.8 3-1.7v-3.5zM495 5.7l9.9-5.7H495v5.7zm250.5 1621.9v161.1l6 3.5v-168l-6 3.4zm7.5 200.2l-81-46.8-6 3.4 87 50.3v-6.9zm-7.5-532.7v161.1l6 3.4v-168l-6 3.5zm7.5-110l-100.5-58-6 3.4L753 1192v-6.9zm0-22.5l-81-46.8-6 3.4 87 50.3v-6.9zm-7.5-200.1v161.1l6 3.5v-168l-6 3.4zm7.5 267.6l-139.5-80.5-6 3.4 145.5 84.2v-7.1zm0-22.5l-120-69.3-6 3.4 126 72.8v-6.9zm0 45l-159-91.8-3 1.8v3.5l159 91.8 3-1.6v-3.7zm0-332.5l-159-91.8-3 1.8v3.4l159 91.8 3-1.7v-3.5zM399 258.5l6 3.6V161.5l-6 3.5v93.5zm-192-19.1l145.5-84-6-3.4L207 232.5v6.9zm0 19.1l3 1.8 159-91.8V165l-3-1.8L207 255v3.5zm0-41.6l126-72.8-6-3.4L207 210v6.9zm96 133.4v7l139.5 80.6 6-3.6-145.5-84zm-96-155.9l106.5-61.5-6-3.4-100.5 58v6.9zM234 0h-6v118.2l6-3.5V0zm-27 171.9l87-50.3-6-3.4-81 46.8v6.9zm231 441.7l6 3.5V471.6l-6 3.4v138.6zM303 424.8l81 46.8 6-3.5-87-50.3v7zm180 692.8l-3-1.8-3 1.8v183.6l3 1.6 3-1.6v-183.6zM369 229l-106.5 61.5 6 3.5L369 236v-7zM273 0h-6v95.7l6-3.5V0zm30 395.4v6.9l100.5 58.1 6-3.5L303 395.4zm115.5 207l6 3.5v-123l-6 3.4v116.1zM399 591l6 3.6V494.1l-6 3.4V591zm-96-218.1v6.9l120 69.3 6-3.5-126-72.7zm66-121.4l-87 50.3 6 3.5 81-46.8v-7zm0 1617.8l-87.8 50.7h12l75.8-43.8v-6.9zm0 22.5l-48.8 28.2h12l36.9-21.3v-6.9zm-9.9 28.2h9.9v-5.7l-9.9 5.7zm9.9-73.2L242.2 1920h12l114.8-66.3v-6.9zM483 120l-3-1.8-3 1.8v183.6l3 1.6 3-1.6V120zm-6 1330.2v183.6l3 1.7 3-1.7v-183.6l-3-1.8-3 1.8zm6-665.1l-3-1.8-3 1.8v183.6l3 1.7 3-1.7V785.1zm0-332.6l-3-1.8-3 1.8v183.6l3 1.7 3-1.7V452.5zM303 62.8v6.9l100.5 58 6-3.5L303 62.8zM253.5 0h-6v107l6-3.5V0zM753 1872.8l-120-69.3-6 3.4 126 72.8v-6.9zM303 92.3l81 46.8 6-3.5-87-50.3v7zm115.5 177.5l6 3.5v-123l-6 3.5v116zm19.5 11.3l6 3.5V139l-6 3.5v138.6zM303 40.3v6.9l120 69.3 6-3.5-126-72.7zm0-22.6v7l139.5 80.5 6-3.6L303 17.7zm450 857.4l-120-69.3-6 3.5L753 882v-6.9zm-66 547.4l6 3.4v-100.5l-6 3.6v93.5zm-96-166.2l81 46.6 6-3.4-87-50.3v7.1zm66-173.3l-87 50.3 6 3.5 81-46.8v-7zm-66 143.7v6.9l100.5 58 6-3.4-106.5-61.5zm0-22.5v6.9l120 69.3 6-3.4-126-72.8zM726 1445l6 3.4v-145.5l-6 3.5V1445zm-19.5-11.3l6 3.4v-123l-6 3.5v116.1zM657 1060.5L550.5 1122l6 3.5 100.5-58.1v-6.9zm-162 297.9l106.5-61.5-6-3.4-100.5 58v6.9zm0-22.5l87-50.3-6-3.4-81 46.8v6.9zm1.5-42.4l6-3.5v-161.1l-6-3.4v168zm-1.5 87.4l126-72.8-6-3.4-120 69.3v6.9zm21-98.7l6-3.5v-138.6l-6-3.4v145.5zm19.5-11.2l6-3.5v-116.1l-6-3.4v123zM657 1038l-126 72.8 6 3.5 120-69.3v-7zm-102 221.7l6-3.5v-93.6l-6-3.4v100.5zm102-244.2l-145.5 84 6 3.5 139.5-80.6v-6.9zm-66 166.2v6.9l139.5 80.5 6-3.4-145.5-84zm-55.5-243.3l6-3.5v-116l-6-3.5v123zM657 728l-106.5 61.5 6 3.4 100.5-58V728zm0-22.5l-126 72.8 6 3.4 120-69.3v-6.9zm0 45l-87 50.3 6 3.4 81-46.8v-6.9zM555 927.1l6-3.5V830l-6-3.5v100.6zm36-33v6.9l100.5 58.1 6-3.5L591 894.1zm96 195.8l6 3.5V992.9l-6 3.4v93.6zm-96-166.2l81 46.7 6-3.5-87-50.3v7.1zm66-240.9L511.5 767l6 3.4L657 689.9v-7.1zm-162 365.6l126-72.8-6-3.5-120 69.3v7zm0-22.5l106.5-61.5-6-3.5-100.5 58v7zm0 64l3 1.8 159-91.8v-3.6l-3-1.7-159 91.8v3.5zm0-19l145.5-84-6-3.5L495 1064v6.9zm258 824.4l-139.5-80.5-6 3.6 145.5 84v-7.1zM496.5 960.9l6-3.5v-161l-6-3.5v168zm-1.5 42.5l87-50.3-6-3.5-81 46.7v7.1zm21-53.8l6-3.5V807.6l-6-3.5v145.5zM495 1755l3 1.8 159-91.8v-3.5l-3-1.8-159 91.8v3.5zm60 165h6v-92.3l-6-3.5v95.8zm102-232.5v-6.9l-145.5 84 6 3.4 139.5-80.5zM535.5 1813v107h6v-103.5l-6-3.5zm-40.5-99.5l126-72.8-6-3.5-120 69.3v7zm0 22.5l145.5-84-6-3.5L495 1729v7zm0-45l106.5-61.5-6-3.5-100.5 58v7zm162 34.6l-106.5 61.5 6 3.4 100.5-58v-6.9zm0-22.5l-126 72.8 6 3.4 120-69.3v-6.9zm-66 150.6l114.8 66.3h12L591 1846.8v6.9zm0 15.6v6.9l75.8 43.8h12l-87.8-50.7zm66-121.2l-87 50.3 6 3.4 81-46.8v-6.9zm-66 143.7v6.9l36.9 21.3h12l-48.9-28.2zm-69-86.5l-6-3.5V1920h6v-114.7zm-27-136.8l87-50.3-6-3.5-81 46.8v7zm96 251.5h9.9l-9.9-5.7v5.7zm66-504.5l-87 50.3 6 3.5 81-46.8v-7zm49.5 350.8l6 3.5v-123l-6 3.4v116.1zM591 1588.8l81 46.7 6-3.5-87-50.3v7.1zm0-29.5v6.9l100.5 58.1 6-3.5-106.5-61.5zm96 195.7l6 3.5V1658l-6 3.6v93.4zm-96-218.2v6.9l120 69.3 6-3.5-126-72.7zm135 240.7l6 3.5v-145.5l-6 3.4v138.6zM496.5 1626l6-3.5v-161.1l-6-3.5V1626zm94.5-111.7v6.9l139.5 80.6 6-3.5-145.5-84zm-96-91.8l3 1.8 159-91.8v-3.5l-3-1.8-159 91.8v3.5zm0-19.1l145.5-84-6-3.4-139.5 80.5v6.9zm21 211.4l6-3.5v-138.6l-6-3.5v145.6zm19.5-11.3l6-3.5v-116l-6-3.5v123zM657 1348l-145.5 84 6 3.5L657 1355v-7zm0 22.5l-126 72.8 6 3.5 120-69.3v-7zm0 22.5l-106.5 61.5 6 3.5 100.5-58v-7zm-102 199.3l6-3.5v-93.6l-6-3.5v100.6z" fill="#80cbc4"/></svg>