<svg version="1.1" xmlns="http://www.w3.org/2000/svg" x="0" y="0" viewBox="0 0 1920 1920" xml:space="preserve"><path d="M0 0h1920v1920H0V0z" fill="#36434f"/><path d="M8 10.5h8v9H8zm16 0h56v9H24zm64 0h32v9H88zm40 0h32v9h-32zm40 0h56v9h-56zm64 0h48v9h-48zm56 0h64v9h-64zm72 0h32v9h-32zm40 0h8v9h-8zm16 0h48v9h-48zm56 0h104v9H472zm112 0h104v9H584zm112 0h8v9h-8zm16 0h24v9h-24zm32 0h40v9h-40zm48 0h40v9h-40zm48 0h72v9h-72zm80 0h16v9h-16zm24 0h56v9h-56zm64 0h16v9h-16zm24 0h64v9h-64zm72 0h56v9h-56zm64 0h64v9h-64zm72 0h104v9h-104zm112 0h8v9h-8zm16 0h64v9h-64zm72 0h64v9h-64zm72 0h8v9h-8zm16 0h56v9h-56zm64 0h32v9h-32zm40 0h56v9h-56zm64 0h64v9h-64zm72 0h144v9h-144zM8 28.5h72v9H8zm88 0h40v9H96zm48 0h56v9h-56zm64 0h32v9h-32zm40 0h32v9h-32zm40 0h32v9h-32zm40 0h16v9h-16zm24 0h48v9h-48zm56 0h24v9h-24zm32 0h72v9h-72zm80 0h8v9h-8zm16 0h56v9h-56zm64 0h64v9h-64zm72 0h56v9h-56zm64 0h48v9h-48zm56 0h48v9h-48zm56 0h152v9H848zm160 0h40v9h-40zm48 0h8v9h-8zm16 0h64v9h-64zm72 0h16v9h-16zm24 0h56v9h-56zm64 0h64v9h-64zm72 0h16v9h-16zm24 0h72v9h-72zm80 0h72v9h-72zm80 0h8v9h-8zm16 0h88v9h-88zm96 0h72v9h-72zm80 0h40v9h-40zm48 0h64v9h-64zm72 0h56v9h-56zm64 0h48v9h-48zM8 46.5h32v9H8zm40 0h48v9H48zm56 0h40v9h-40zm48 0h88v9h-88zm96 0h48v9h-48zm56 0h8v9h-8zm16 0h16v9h-16zm24 0h72v9h-72zm80 0h48v9h-48zm56 0h8v9h-8zm16 0h96v9h-96zm104 0h80v9h-80zm88 0h16v9h-16zm24 0h56v9h-56zm64 0h8v9h-8zm16 0h32v9h-32zm40 0h32v9h-32zm40 0h40v9h-40zm48 0h40v9h-40zm48 0h16v9h-16zm24 0h32v9h-32zm40 0h40v9h-40zm48 0h32v9h-32zm40 0h48v9h-48zm56 0h56v9h-56zm64 0h40v9h-40zm48 0h96v9h-96zm104 0h8v9h-8zm16 0h48v9h-48zm56 0h80v9h-80zm88 0h8v9h-8zm16 0h64v9h-64zm72 0h56v9h-56zm64 0h8v9h-8zm16 0h56v9h-56zm64 0h16v9h-16zm24 0h72v9h-72zm80 0h24v9h-24zM8 64.5h48v9H8zm56 0h24v9H64zm32 0h56v9H96zm64 0h56v9h-56zm64 0h24v9h-24zm32 0h136v9H256zm144 0h40v9h-40zm48 0h64v9h-64zm72 0h32v9h-32zm40 0h16v9h-16zm24 0h56v9h-56zm64 0h32v9h-32zm40 0h40v9h-40zm48 0h56v9h-56zm64 0h8v9h-8zm16 0h80v9h-80zm88 0h48v9h-48zm56 0h72v9h-72zm80 0h72v9h-72zm80 0h8v9h-8zm16 0h48v9h-48zm56 0h56v9h-56zm64 0h24v9h-24zm32 0h64v9h-64zm72 0h40v9h-40zm48 0h64v9h-64zm72 0h8v9h-8zm16 0h64v9h-64zm72 0h40v9h-40zm48 0h24v9h-24zm32 0h32v9h-32zm40 0h8v9h-8zm16 0h8v9h-8zm16 0h48v9h-48zm56 0h88v9h-88zm96 0h40v9h-40zM8 82.5h40v9H8zm48 0h32v9H56zm40 0h48v9H96zm56 0h88v9h-88zm96 0h32v9h-32zm40 0h8v9h-8zm16 0h64v9h-64zm72 0h40v9h-40zm48 0h16v9h-16zm24 0h24v9h-24zm32 0h80v9h-80zm88 0h24v9h-24zm32 0h48v9h-48zm56 0h40v9h-40zm48 0h112v9H704zm120 0h24v9h-24zm32 0h112v9H856zm120 0h8v9h-8zm16 0h64v9h-64zm72 0h40v9h-40zm48 0h136v9h-136zm144 0h72v9h-72zm80 0h16v9h-16zm24 0h56v9h-56zm64 0h40v9h-40zm48 0h24v9h-24zm32 0h32v9h-32zm40 0h72v9h-72zm80 0h80v9h-80zm88 0h72v9h-72zm80 0h8v9h-8zm16 0h48v9h-48zm56 0h48v9h-48zM8 100.5h56v9H8zm64 0h80v9H72zm88 0h8v9h-8zm16 0h8v9h-8zm16 0h32v9h-32zm40 0h40v9h-40zm48 0h48v9h-48zm56 0h80v9h-80zm88 0h104v9H424zm112 0h48v9h-48zm56 0h40v9h-40zm48 0h16v9h-16zm24 0h24v9h-24zm32 0h64v9h-64zm72 0h16v9h-16zm24 0h72v9h-72zm80 0h72v9h-72zm80 0h88v9h-88zm96 0h64v9h-64zm72 0h40v9h-40zm48 0h32v9h-32zm40 0h40v9h-40zm48 0h48v9h-48zm56 0h16v9h-16zm24 0h56v9h-56zm64 0h48v9h-48zm56 0h32v9h-32zm40 0h32v9h-32zm40 0h48v9h-48zm56 0h32v9h-32zm40 0h40v9h-40zm48 0h16v9h-16zm24 0h56v9h-56zm64 0h16v9h-16zm24 0h48v9h-48zm56 0h48v9h-48zm56 0h8v9h-8zM8 118.5h48v9H8zm56 0h8v9h-8zm16 0h56v9H80zm64 0h32v9h-32zm40 0h16v9h-16zm24 0h40v9h-40zm48 0h40v9h-40zm48 0h8v9h-8zm16 0h64v9h-64zm72 0h72v9h-72zm80 0h16v9h-16zm24 0h48v9h-48zm56 0h64v9h-64zm72 0h32v9h-32zm40 0h72v9h-72zm80 0h16v9h-16zm24 0h40v9h-40zm48 0h16v9h-16zm24 0h48v9h-48zm56 0h32v9h-32zm40 0h144v9H936zm152 0h72v9h-72zm80 0h24v9h-24zm32 0h64v9h-64zm72 0h16v9h-16zm24 0h16v9h-16zm24 0h48v9h-48zm56 0h16v9h-16zm24 0h48v9h-48zm56 0h16v9h-16zm24 0h72v9h-72zm80 0h48v9h-48zm56 0h48v9h-48zm56 0h8v9h-8zm16 0h8v9h-8zm16 0h48v9h-48zm56 0h40v9h-40zm48 0h40v9h-40zm48 0h16v9h-16zm24 0h32v9h-32zM8 136.5h56v9H8zm64 0h40v9H72zm48 0h48v9h-48zm56 0h56v9h-56zm64 0h8v9h-8zm16 0h64v9h-64zm72 0h24v9h-24zm32 0h56v9h-56zm64 0h64v9h-64zm72 0h32v9h-32zm40 0h48v9h-48zm56 0h32v9h-32zm40 0h120v9H632zm128 0h48v9h-48zm56 0h64v9h-64zm72 0h40v9h-40zm48 0h16v9h-16zm24 0h24v9h-24zm32 0h32v9h-32zm40 0h64v9h-64zm72 0h24v9h-24zm32 0h32v9h-32zm40 0h48v9h-48zm56 0h48v9h-48zm56 0h24v9h-24zm32 0h8v9h-8zm16 0h64v9h-64zm72 0h40v9h-40zm48 0h48v9h-48zm56 0h32v9h-32zm40 0h64v9h-64zm72 0h16v9h-16zm24 0h80v9h-80zm88 0h32v9h-32zm40 0h80v9h-80zm88 0h16v9h-16zm24 0h16v9h-16zM8 154.5h32v9H8zm40 0h72v9H48zm80 0h80v9h-80zm88 0h24v9h-24zm32 0h32v9h-32zm40 0h64v9h-64zm72 0h16v9h-16zm24 0h104v9H384zm112 0h88v9h-88zm96 0h24v9h-24zm32 0h16v9h-16zm24 0h24v9h-24zm32 0h56v9h-56zm64 0h40v9h-40zm48 0h16v9h-16zm24 0h96v9h-96zm104 0h80v9h-80zm88 0h8v9h-8zm16 0h32v9h-32zm40 0h48v9h-48zm56 0h48v9h-48zm56 0h48v9h-48zm56 0h64v9h-64zm72 0h64v9h-64zm72 0h24v9h-24zm32 0h64v9h-64zm72 0h120v9h-120zm128 0h8v9h-8zm16 0h72v9h-72zm80 0h56v9h-56zm64 0h8v9h-8zm16 0h96v9h-96zm104 0h24v9h-24zM8 172.5h40v9H8zm48 0h56v9H56zm64 0h8v9h-8zm16 0h56v9h-56zm64 0h48v9h-48zm56 0h16v9h-16zm24 0h40v9h-40zm48 0h8v9h-8zm16 0h48v9h-48zm56 0h24v9h-24zm32 0h16v9h-16zm24 0h48v9h-48zm56 0h40v9h-40zm48 0h8v9h-8zm16 0h64v9h-64zm72 0h16v9h-16zm24 0h24v9h-24zm32 0h24v9h-24zm32 0h48v9h-48zm56 0h8v9h-8zm16 0h72v9h-72zm80 0h16v9h-16zm24 0h96v9h-96zm104 0h80v9h-80zm88 0h48v9h-48zm56 0h8v9h-8zm16 0h48v9h-48zm56 0h56v9h-56zm64 0h64v9h-64zm72 0h56v9h-56zm64 0h24v9h-24zm32 0h40v9h-40zm48 0h16v9h-16zm24 0h48v9h-48zm56 0h8v9h-8zm16 0h48v9h-48zm56 0h72v9h-72zm80 0h24v9h-24zm32 0h48v9h-48zm56 0h48v9h-48zm56 0h24v9h-24zM8 190.5h40v9H8zm48 0h64v9H56zm72 0h32v9h-32zm40 0h24v9h-24zm32 0h72v9h-72zm80 0h72v9h-72zm80 0h96v9h-96zm104 0h32v9h-32zm40 0h16v9h-16zm24 0h40v9h-40zm48 0h104v9H576zm112 0h24v9h-24zm32 0h48v9h-48zm56 0h16v9h-16zm24 0h72v9h-72zm80 0h40v9h-40zm48 0h56v9h-56zm64 0h16v9h-16zm24 0h80v9h-80zm88 0h80v9h-80zm88 0h16v9h-16zm24 0h48v9h-48zm56 0h40v9h-40zm48 0h48v9h-48zm56 0h72v9h-72zm80 0h56v9h-56zm64 0h40v9h-40zm48 0h40v9h-40zm48 0h24v9h-24zm32 0h64v9h-64zm72 0h64v9h-64zm72 0h64v9h-64zm72 0h40v9h-40zM8 208.5h56v9H8zm64 0h64v9H72zm72 0h16v9h-16zm24 0h8v9h-8zm16 0h24v9h-24zm32 0h24v9h-24zm32 0h24v9h-24zm32 0h32v9h-32zm40 0h64v9h-64zm72 0h48v9h-48zm56 0h48v9h-48zm56 0h56v9h-56zm64 0h16v9h-16zm24 0h64v9h-64zm72 0h16v9h-16zm24 0h24v9h-24zm32 0h24v9h-24zm32 0h104v9H752zm112 0h56v9h-56zm64 0h24v9h-24zm32 0h40v9h-40zm48 0h72v9h-72zm80 0h32v9h-32zm40 0h40v9h-40zm48 0h56v9h-56zm64 0h80v9h-80zm88 0h8v9h-8zm16 0h32v9h-32zm40 0h24v9h-24zm32 0h56v9h-56zm64 0h40v9h-40zm48 0h64v9h-64zm72 0h8v9h-8zm16 0h64v9h-64zm72 0h104v9h-104zm112 0h32v9h-32zm40 0h8v9h-8zm16 0h56v9h-56zM8 226.5h32v9H8zm48 0h8v9h-8zm16 0h24v9H72zm32 0h56v9h-56zm64 0h56v9h-56zm64 0h56v9h-56zm64 0h8v9h-8zm16 0h72v9h-72zm80 0h16v9h-16zm24 0h8v9h-8zm16 0h48v9h-48zm56 0h96v9h-96zm104 0h72v9h-72zm80 0h96v9h-96zm104 0h72v9h-72zm80 0h72v9h-72zm80 0h56v9h-56zm64 0h56v9h-56zm64 0h40v9h-40zm48 0h40v9h-40zm48 0h24v9h-24zm32 0h24v9h-24zm32 0h32v9h-32zm40 0h88v9h-88zm96 0h8v9h-8zm16 0h72v9h-72zm80 0h16v9h-16zm24 0h40v9h-40zm48 0h40v9h-40zm48 0h48v9h-48zm56 0h56v9h-56zm64 0h64v9h-64zm72 0h56v9h-56zm64 0h32v9h-32zm40 0h16v9h-16zm24 0h16v9h-16zM8 244.5h72v9H8zm88 0h16v9H96zm24 0h88v9h-88zm96 0h64v9h-64zm72 0h40v9h-40zm48 0h56v9h-56zm64 0h48v9h-48zm56 0h8v9h-8zm16 0h80v9h-80zm88 0h8v9h-8zm16 0h8v9h-8zm16 0h16v9h-16zm24 0h72v9h-72zm80 0h32v9h-32zm40 0h8v9h-8zm16 0h32v9h-32zm40 0h16v9h-16zm24 0h16v9h-16zm24 0h72v9h-72zm80 0h8v9h-8zm16 0h32v9h-32zm40 0h8v9h-8zm16 0h48v9h-48zm56 0h72v9h-72zm80 0h8v9h-8zm16 0h24v9h-24zm32 0h40v9h-40zm48 0h16v9h-16zm24 0h48v9h-48zm56 0h16v9h-16zm24 0h56v9h-56zm64 0h16v9h-16zm24 0h56v9h-56zm64 0h32v9h-32zm40 0h88v9h-88zm96 0h80v9h-80zm88 0h80v9h-80zm88 0h24v9h-24zm32 0h72v9h-72zm80 0h8v9h-8zM8 262.5h16v9H8zm24 0h32v9H32zm40 0h64v9H72zm72 0h8v9h-8zm16 0h48v9h-48zm56 0h56v9h-56zm64 0h48v9h-48zm56 0h64v9h-64zm72 0h24v9h-24zm32 0h56v9h-56zm64 0h16v9h-16zm24 0h64v9h-64zm72 0h40v9h-40zm48 0h88v9h-88zm96 0h72v9h-72zm80 0h72v9h-72zm80 0h24v9h-24zm32 0h24v9h-24zm32 0h32v9h-32zm40 0h56v9h-56zm64 0h48v9h-48zm56 0h16v9h-16zm24 0h72v9h-72zm80 0h64v9h-64zm72 0h8v9h-8zm16 0h48v9h-48zm56 0h24v9h-24zm32 0h24v9h-24zm32 0h136v9h-136zm144 0h40v9h-40zm48 0h48v9h-48zm56 0h32v9h-32zm40 0h80v9h-80zm88 0h8v9h-8zm16 0h24v9h-24zm32 0h48v9h-48zM8 280.5h32v9H8zm40 0h8v9h-8zm16 0h56v9H64zm64 0h16v9h-16zm24 0h24v9h-24zm32 0h8v9h-8zm16 0h8v9h-8zm16 0h64v9h-64zm72 0h8v9h-8zm16 0h48v9h-48zm56 0h8v9h-8zm16 0h24v9h-24zm32 0h48v9h-48zm56 0h112v9H464zm120 0h8v9h-8zm16 0h64v9h-64zm72 0h64v9h-64zm72 0h48v9h-48zm56 0h32v9h-32zm40 0h96v9h-96zm104 0h16v9h-16zm24 0h40v9h-40zm48 0h8v9h-8zm16 0h104v9h-104zm112 0h8v9h-8zm16 0h96v9h-96zm104 0h32v9h-32zm40 0h24v9h-24zm32 0h40v9h-40zm48 0h48v9h-48zm56 0h16v9h-16zm24 0h80v9h-80zm88 0h8v9h-8zm16 0h48v9h-48zm56 0h80v9h-80zm88 0h80v9h-80zm88 0h8v9h-8zm16 0h40v9h-40zm48 0h8v9h-8zm16 0h32v9h-32zM8 298.5h32v9H8zm40 0h16v9H48zm24 0h72v9H72zm80 0h64v9h-64zm72 0h24v9h-24zm32 0h88v9h-88zm96 0h8v9h-8zm16 0h40v9h-40zm48 0h48v9h-48zm56 0h104v9H472zm112 0h8v9h-8zm16 0h48v9h-48zm56 0h48v9h-48zm56 0h48v9h-48zm56 0h88v9h-88zm96 0h64v9h-64zm72 0h96v9h-96zm104 0h64v9h-64zm72 0h16v9h-16zm24 0h72v9h-72zm80 0h80v9h-80zm88 0h8v9h-8zm16 0h56v9h-56zm64 0h72v9h-72zm80 0h48v9h-48zm56 0h16v9h-16zm24 0h56v9h-56zm64 0h8v9h-8zm16 0h32v9h-32zm40 0h40v9h-40zm48 0h16v9h-16zm24 0h8v9h-8zm16 0h40v9h-40zm48 0h56v9h-56zm64 0h48v9h-48zM8 316.5h24v9H8zm32 0h48v9H40zm56 0h24v9H96zm32 0h32v9h-32zm40 0h24v9h-24zm32 0h32v9h-32zm40 0h32v9h-32zm40 0h16v9h-16zm24 0h72v9h-72zm80 0h48v9h-48zm56 0h24v9h-24zm32 0h64v9h-64zm72 0h32v9h-32zm40 0h16v9h-16zm24 0h24v9h-24zm32 0h152v9H640zm160 0h32v9h-32zm40 0h64v9h-64zm72 0h8v9h-8zm16 0h16v9h-16zm24 0h32v9h-32zm40 0h32v9h-32zm40 0h104v9h-104zm112 0h48v9h-48zm56 0h16v9h-16zm24 0h56v9h-56zm64 0h72v9h-72zm80 0h72v9h-72zm80 0h88v9h-88zm96 0h80v9h-80zm88 0h152v9h-152zm160 0h40v9h-40zm48 0h32v9h-32zm40 0h32v9h-32zM8 334.5h8v9H8zm24 0h56v9H32zm64 0h8v9h-8zm16 0h56v9h-56zm64 0h8v9h-8zm16 0h24v9h-24zm32 0h8v9h-8zm16 0h72v9h-72zm80 0h48v9h-48zm56 0h136v9H376zm144 0h40v9h-40zm48 0h80v9h-80zm88 0h64v9h-64zm72 0h24v9h-24zm32 0h48v9h-48zm56 0h64v9h-64zm72 0h64v9h-64zm72 0h56v9h-56zm64 0h56v9h-56zm64 0h40v9h-40zm48 0h64v9h-64zm72 0h56v9h-56zm64 0h8v9h-8zm16 0h112v9h-112zm120 0h48v9h-48zm56 0h48v9h-48zm56 0h40v9h-40zm48 0h8v9h-8zm16 0h64v9h-64zm72 0h40v9h-40zm48 0h8v9h-8zm16 0h80v9h-80zm88 0h24v9h-24zm32 0h8v9h-8zm16 0h24v9h-24zm32 0h8v9h-8zm16 0h8v9h-8zM8 352.5h16v9H8zm24 0h56v9H32zm64 0h24v9H96zm32 0h56v9h-56zm64 0h56v9h-56zm64 0h24v9h-24zm32 0h16v9h-16zm24 0h56v9h-56zm64 0h24v9h-24zm32 0h8v9h-8zm16 0h64v9h-64zm72 0h8v9h-8zm16 0h72v9h-72zm80 0h16v9h-16zm24 0h8v9h-8zm16 0h56v9h-56zm64 0h8v9h-8zm16 0h96v9h-96zm104 0h80v9h-80zm88 0h8v9h-8zm16 0h24v9h-24zm32 0h24v9h-24zm32 0h32v9h-32zm40 0h8v9h-8zm16 0h64v9h-64zm72 0h16v9h-16zm24 0h8v9h-8zm16 0h80v9h-80zm88 0h64v9h-64zm72 0h56v9h-56zm64 0h8v9h-8zm16 0h56v9h-56zm64 0h48v9h-48zm56 0h80v9h-80zm88 0h8v9h-8zm16 0h56v9h-56zm64 0h16v9h-16zm24 0h64v9h-64zm72 0h72v9h-72zm80 0h8v9h-8zm16 0h40v9h-40zM8 370.5h24v9H8zm32 0h8v9h-8zm16 0h120v9H56zm128 0h40v9h-40zm48 0h16v9h-16zm24 0h72v9h-72zm80 0h8v9h-8zm16 0h72v9h-72zm80 0h16v9h-16zm24 0h8v9h-8zm16 0h88v9h-88zm96 0h72v9h-72zm80 0h8v9h-8zm16 0h80v9h-80zm88 0h96v9h-96zm104 0h80v9h-80zm88 0h56v9h-56zm64 0h96v9h-96zm104 0h8v9h-8zm16 0h40v9h-40zm48 0h24v9h-24zm32 0h56v9h-56zm64 0h16v9h-16zm24 0h64v9h-64zm72 0h8v9h-8zm16 0h40v9h-40zm48 0h32v9h-32zm40 0h8v9h-8zm16 0h48v9h-48zm56 0h8v9h-8zm16 0h48v9h-48zm56 0h80v9h-80zm88 0h8v9h-8zm16 0h16v9h-16zm24 0h40v9h-40zm48 0h80v9h-80zm88 0h32v9h-32zM8 388.5h32v9H8zm40 0h72v9H48zm80 0h24v9h-24zm32 0h56v9h-56zm64 0h8v9h-8zm16 0h48v9h-48zm56 0h96v9h-96zm104 0h104v9H400zm112 0h40v9h-40zm48 0h8v9h-8zm16 0h56v9h-56zm64 0h48v9h-48zm56 0h72v9h-72zm80 0h88v9h-88zm96 0h16v9h-16zm24 0h48v9h-48zm56 0h88v9h-88zm96 0h88v9h-88zm96 0h56v9h-56zm64 0h32v9h-32zm40 0h16v9h-16zm24 0h48v9h-48zm56 0h80v9h-80zm88 0h8v9h-8zm16 0h8v9h-8zm16 0h16v9h-16zm24 0h16v9h-16zm24 0h72v9h-72zm80 0h104v9h-104zm112 0h88v9h-88zm96 0h8v9h-8zm16 0h56v9h-56zm64 0h48v9h-48zM8 406.5h16v9H8zm24 0h48v9H32zm56 0h88v9H88zm96 0h80v9h-80zm88 0h136v9H272zm144 0h16v9h-16zm24 0h32v9h-32zm40 0h48v9h-48zm56 0h64v9h-64zm72 0h8v9h-8zm16 0h72v9h-72zm80 0h64v9h-64zm72 0h88v9h-88zm96 0h40v9h-40zm48 0h56v9h-56zm64 0h40v9h-40zm48 0h48v9h-48zm56 0h104v9h-104zm112 0h48v9h-48zm56 0h56v9h-56zm64 0h48v9h-48zm56 0h16v9h-16zm24 0h48v9h-48zm56 0h64v9h-64zm72 0h40v9h-40zm48 0h72v9h-72zm80 0h16v9h-16zm24 0h8v9h-8zm16 0h56v9h-56zm64 0h40v9h-40zm48 0h56v9h-56zm64 0h24v9h-24zm32 0h8v9h-8zM8 424.5h32v9H8zm40 0h48v9H48zm56 0h8v9h-8zm16 0h56v9h-56zm64 0h64v9h-64zm72 0h48v9h-48zm56 0h128v9H312zm136 0h72v9h-72zm80 0h48v9h-48zm56 0h16v9h-16zm24 0h56v9h-56zm64 0h64v9h-64zm72 0h64v9h-64zm72 0h40v9h-40zm48 0h104v9H864zm112 0h64v9h-64zm72 0h40v9h-40zm48 0h48v9h-48zm56 0h40v9h-40zm48 0h8v9h-8zm16 0h64v9h-64zm72 0h56v9h-56zm64 0h32v9h-32zm40 0h8v9h-8zm16 0h24v9h-24zm32 0h24v9h-24zm32 0h32v9h-32zm40 0h24v9h-24zm32 0h32v9h-32zm40 0h8v9h-8zm16 0h72v9h-72zm80 0h24v9h-24zm32 0h120v9h-120zm128 0h8v9h-8zm16 0h56v9h-56zM8 442.5h16v9H8zm24 0h56v9H32zm64 0h56v9H96zm64 0h8v9h-8zm16 0h64v9h-64zm72 0h56v9h-56zm64 0h32v9h-32zm40 0h8v9h-8zm16 0h72v9h-72zm80 0h72v9h-72zm80 0h8v9h-8zm16 0h72v9h-72zm80 0h56v9h-56zm64 0h32v9h-32zm40 0h8v9h-8zm16 0h96v9h-96zm104 0h8v9h-8zm16 0h88v9h-88zm96 0h48v9h-48zm56 0h16v9h-16zm24 0h40v9h-40zm48 0h8v9h-8zm16 0h64v9h-64zm72 0h56v9h-56zm64 0h80v9h-80zm88 0h112v9h-112zm120 0h64v9h-64zm72 0h40v9h-40zm48 0h40v9h-40zm48 0h64v9h-64zm72 0h64v9h-64zm72 0h80v9h-80zm88 0h40v9h-40zm48 0h16v9h-16zM8 460.5h8v9H8zm16 0h72v9H24zm80 0h8v9h-8zm16 0h48v9h-48zm56 0h48v9h-48zm56 0h40v9h-40zm48 0h16v9h-16zm24 0h88v9h-88zm96 0h72v9h-72zm80 0h48v9h-48zm56 0h72v9h-72zm80 0h40v9h-40zm48 0h32v9h-32zm40 0h16v9h-16zm24 0h32v9h-32zm40 0h56v9h-56zm64 0h24v9h-24zm32 0h56v9h-56zm64 0h8v9h-8zm16 0h16v9h-16zm24 0h56v9h-56zm64 0h64v9h-64zm72 0h56v9h-56zm64 0h56v9h-56zm64 0h64v9h-64zm72 0h64v9h-64zm72 0h40v9h-40zm48 0h80v9h-80zm88 0h8v9h-8zm16 0h72v9h-72zm80 0h32v9h-32zm40 0h64v9h-64zm72 0h64v9h-64zm72 0h96v9h-96zm104 0h16v9h-16zM8 478.5h64v9H8zm72 0h64v9H80zm72 0h40v9h-40zm48 0h56v9h-56zm64 0h16v9h-16zm24 0h72v9h-72zm80 0h16v9h-16zm24 0h40v9h-40zm48 0h16v9h-16zm24 0h56v9h-56zm64 0h80v9h-80zm88 0h16v9h-16zm24 0h112v9H640zm120 0h32v9h-32zm40 0h72v9h-72zm80 0h48v9h-48zm56 0h8v9h-8zm16 0h24v9h-24zm32 0h16v9h-16zm24 0h56v9h-56zm64 0h80v9h-80zm88 0h64v9h-64zm72 0h64v9h-64zm72 0h8v9h-8zm16 0h24v9h-24zm32 0h16v9h-16zm24 0h48v9h-48zm56 0h80v9h-80zm88 0h72v9h-72zm80 0h8v9h-8zm16 0h16v9h-16zm24 0h40v9h-40zm48 0h24v9h-24zm32 0h24v9h-24zm32 0h96v9h-96zm104 0h56v9h-56zM8 496.5h16v9H8zm24 0h16v9H32zm24 0h32v9H56zm40 0h88v9H96zm96 0h72v9h-72zm80 0h32v9h-32zm40 0h8v9h-8zm16 0h16v9h-16zm24 0h40v9h-40zm48 0h40v9h-40zm48 0h8v9h-8zm16 0h64v9h-64zm72 0h72v9h-72zm80 0h24v9h-24zm32 0h32v9h-32zm40 0h8v9h-8zm16 0h56v9h-56zm64 0h64v9h-64zm72 0h72v9h-72zm80 0h64v9h-64zm72 0h48v9h-48zm56 0h56v9h-56zm64 0h8v9h-8zm16 0h64v9h-64zm72 0h8v9h-8zm16 0h40v9h-40zm48 0h24v9h-24zm32 0h32v9h-32zm40 0h16v9h-16zm24 0h56v9h-56zm64 0h8v9h-8zm16 0h48v9h-48zm56 0h40v9h-40zm48 0h80v9h-80zm88 0h48v9h-48zm56 0h104v9h-104zm112 0h16v9h-16zm24 0h48v9h-48zm56 0h32v9h-32zM8 514.5h32v9H8zm40 0h8v9h-8zm16 0h32v9H64zm40 0h24v9h-24zm32 0h88v9h-88zm96 0h72v9h-72zm80 0h144v9H312zm152 0h8v9h-8zm16 0h16v9h-16zm24 0h64v9h-64zm72 0h16v9h-16zm24 0h48v9h-48zm56 0h48v9h-48zm56 0h32v9h-32zm40 0h8v9h-8zm16 0h24v9h-24zm32 0h48v9h-48zm56 0h24v9h-24zm32 0h16v9h-16zm24 0h40v9h-40zm48 0h40v9h-40zm48 0h8v9h-8zm16 0h64v9h-64zm72 0h80v9h-80zm88 0h16v9h-16zm24 0h48v9h-48zm56 0h72v9h-72zm80 0h16v9h-16zm24 0h56v9h-56zm64 0h32v9h-32zm40 0h8v9h-8zm16 0h88v9h-88zm96 0h24v9h-24zm32 0h48v9h-48zm56 0h8v9h-8zm16 0h48v9h-48zm56 0h64v9h-64zm72 0h32v9h-32zm40 0h24v9h-24zm32 0h24v9h-24zM8 532.5h24v9H8zm32 0h8v9h-8zm16 0h72v9H56zm80 0h24v9h-24zm32 0h40v9h-40zm48 0h8v9h-8zm16 0h40v9h-40zm48 0h32v9h-32zm40 0h80v9h-80zm88 0h16v9h-16zm24 0h40v9h-40zm48 0h48v9h-48zm56 0h32v9h-32zm40 0h72v9h-72zm80 0h8v9h-8zm16 0h24v9h-24zm32 0h24v9h-24zm32 0h8v9h-8zm16 0h16v9h-16zm24 0h64v9h-64zm72 0h24v9h-24zm32 0h8v9h-8zm16 0h24v9h-24zm32 0h24v9h-24zm32 0h8v9h-8zm16 0h64v9h-64zm72 0h64v9h-64zm72 0h8v9h-8zm16 0h48v9h-48zm56 0h40v9h-40zm48 0h64v9h-64zm72 0h72v9h-72zm80 0h8v9h-8zm16 0h32v9h-32zm40 0h168v9h-168zm176 0h8v9h-8zm16 0h24v9h-24zm32 0h24v9h-24zm32 0h40v9h-40zm48 0h160v9h-160zM8 550.5h32v9H8zm48 0h152v9H56zm160 0h32v9h-32zm40 0h152v9H256zm160 0h8v9h-8zm16 0h24v9h-24zm32 0h32v9h-32zm40 0h144v9H504zm152 0h8v9h-8zm16 0h48v9h-48zm56 0h16v9h-16zm24 0h72v9h-72zm80 0h8v9h-8zm16 0h32v9h-32zm40 0h152v9H888zm160 0h24v9h-24zm32 0h64v9h-64zm72 0h128v9h-128zm136 0h8v9h-8zm16 0h48v9h-48zm56 0h32v9h-32zm40 0h64v9h-64zm72 0h8v9h-8zm16 0h32v9h-32zm40 0h16v9h-16zm24 0h8v9h-8zm16 0h96v9h-96zm104 0h88v9h-88zm96 0h24v9h-24zm32 0h24v9h-24zm32 0h24v9h-24zm32 0h8v9h-8zm16 0h32v9h-32zM8 568.5h32v9H8zm40 0h8v9h-8zm16 0h56v9H64zm64 0h24v9h-24zm32 0h48v9h-48zm56 0h32v9h-32zm40 0h40v9h-40zm48 0h24v9h-24zm32 0h32v9h-32zm40 0h16v9h-16zm24 0h48v9h-48zm56 0h8v9h-8zm16 0h32v9h-32zm40 0h152v9H512zm160 0h16v9h-16zm24 0h32v9h-32zm40 0h72v9h-72zm80 0h24v9h-24zm32 0h64v9h-64zm72 0h8v9h-8zm16 0h72v9h-72zm80 0h72v9h-72zm80 0h24v9h-24zm32 0h16v9h-16zm24 0h48v9h-48zm56 0h32v9h-32zm40 0h56v9h-56zm64 0h40v9h-40zm48 0h8v9h-8zm16 0h48v9h-48zm56 0h64v9h-64zm72 0h72v9h-72zm80 0h56v9h-56zm64 0h80v9h-80zm88 0h8v9h-8zm16 0h72v9h-72zm80 0h24v9h-24zm32 0h48v9h-48zM8 586.5h32v9H8zm40 0h64v9H48zm72 0h8v9h-8zm16 0h16v9h-16zm24 0h32v9h-32zm40 0h8v9h-8zm16 0h64v9h-64zm72 0h64v9h-64zm72 0h72v9h-72zm80 0h8v9h-8zm16 0h24v9h-24zm32 0h80v9h-80zm88 0h64v9h-64zm72 0h8v9h-8zm16 0h16v9h-16zm24 0h32v9h-32zm40 0h32v9h-32zm40 0h8v9h-8zm16 0h48v9h-48zm56 0h24v9h-24zm32 0h40v9h-40zm48 0h96v9h-96zm104 0h8v9h-8zm16 0h64v9h-64zm72 0h40v9h-40zm48 0h40v9h-40zm48 0h88v9h-88zm96 0h8v9h-8zm16 0h64v9h-64zm72 0h72v9h-72zm80 0h88v9h-88zm96 0h16v9h-16zm24 0h80v9h-80zm88 0h40v9h-40zm48 0h104v9h-104zm112 0h64v9h-64zM8 604.5h80v9H8zm88 0h8v9h-8zm16 0h48v9h-48zm56 0h40v9h-40zm48 0h40v9h-40zm48 0h24v9h-24zm32 0h24v9h-24zm32 0h88v9h-88zm96 0h24v9h-24zm32 0h48v9h-48zm56 0h16v9h-16zm24 0h88v9h-88zm96 0h8v9h-8zm16 0h24v9h-24zm32 0h24v9h-24zm32 0h64v9h-64zm72 0h16v9h-16zm24 0h48v9h-48zm56 0h40v9h-40zm48 0h40v9h-40zm48 0h24v9h-24zm32 0h56v9h-56zm64 0h48v9h-48zm56 0h48v9h-48zm56 0h56v9h-56zm64 0h48v9h-48zm56 0h56v9h-56zm64 0h16v9h-16zm24 0h96v9h-96zm104 0h40v9h-40zm48 0h56v9h-56zm64 0h16v9h-16zm24 0h112v9h-112zm120 0h40v9h-40zm48 0h16v9h-16zm24 0h56v9h-56zm64 0h8v9h-8zm16 0h24v9h-24zM8 622.5h40v9H8zm56 0h8v9h-8zm16 0h56v9H80zm64 0h56v9h-56zm64 0h24v9h-24zm32 0h40v9h-40zm48 0h32v9h-32zm40 0h32v9h-32zm40 0h8v9h-8zm16 0h64v9h-64zm72 0h64v9h-64zm72 0h64v9h-64zm72 0h8v9h-8zm16 0h80v9h-80zm88 0h72v9h-72zm80 0h8v9h-8zm16 0h56v9h-56zm64 0h24v9h-24zm32 0h56v9h-56zm64 0h16v9h-16zm24 0h32v9h-32zm40 0h16v9h-16zm24 0h48v9h-48zm56 0h16v9h-16zm24 0h72v9h-72zm80 0h56v9h-56zm64 0h8v9h-8zm16 0h72v9h-72zm80 0h56v9h-56zm64 0h56v9h-56zm64 0h64v9h-64zm72 0h64v9h-64zm72 0h64v9h-64zm72 0h32v9h-32zm40 0h8v9h-8zm16 0h48v9h-48zm56 0h40v9h-40zm48 0h40v9h-40zM8 640.5h16v9H8zm24 0h8v9h-8zm16 0h48v9H48zm56 0h72v9h-72zm80 0h72v9h-72zm80 0h8v9h-8zm16 0h32v9h-32zm40 0h72v9h-72zm80 0h8v9h-8zm16 0h40v9h-40zm48 0h40v9h-40zm48 0h56v9h-56zm64 0h64v9h-64zm72 0h96v9h-96zm104 0h72v9h-72zm80 0h48v9h-48zm56 0h48v9h-48zm56 0h8v9h-8zm16 0h16v9h-16zm24 0h16v9h-16zm24 0h40v9h-40zm48 0h88v9h-88zm96 0h8v9h-8zm16 0h64v9h-64zm72 0h8v9h-8zm16 0h48v9h-48zm56 0h72v9h-72zm80 0h88v9h-88zm96 0h16v9h-16zm24 0h16v9h-16zm24 0h48v9h-48zm56 0h104v9h-104zm112 0h8v9h-8zm16 0h64v9h-64zm72 0h48v9h-48zm56 0h64v9h-64zM8 658.5h8v9H8zm24 0h16v9H32zm24 0h48v9H56zm56 0h16v9h-16zm24 0h128v9H136zm136 0h16v9h-16zm24 0h112v9H296zm120 0h16v9h-16zm24 0h128v9H440zm136 0h8v9h-8zm16 0h16v9h-16zm24 0h48v9h-48zm56 0h80v9h-80zm88 0h96v9h-96zm104 0h8v9h-8zm16 0h56v9h-56zm64 0h48v9h-48zm56 0h72v9h-72zm80 0h64v9h-64zm72 0h40v9h-40zm48 0h64v9h-64zm72 0h8v9h-8zm16 0h56v9h-56zm64 0h96v9h-96zm104 0h56v9h-56zm64 0h72v9h-72zm80 0h56v9h-56zm64 0h72v9h-72zm80 0h40v9h-40zm48 0h40v9h-40zm48 0h40v9h-40zm48 0h8v9h-8zm16 0h8v9h-8zM8 676.5h56v9H8zm64 0h96v9H72zm104 0h40v9h-40zm48 0h32v9h-32zm40 0h8v9h-8zm16 0h48v9h-48zm56 0h24v9h-24zm32 0h56v9h-56zm64 0h8v9h-8zm16 0h40v9h-40zm48 0h8v9h-8zm16 0h64v9h-64zm72 0h8v9h-8zm16 0h24v9h-24zm32 0h40v9h-40zm48 0h80v9h-80zm88 0h64v9h-64zm72 0h72v9h-72zm80 0h80v9h-80zm88 0h64v9h-64zm72 0h8v9h-8zm16 0h56v9h-56zm64 0h72v9h-72zm80 0h48v9h-48zm56 0h48v9h-48zm56 0h16v9h-16zm24 0h56v9h-56zm64 0h72v9h-72zm80 0h40v9h-40zm48 0h80v9h-80zm88 0h40v9h-40zm48 0h40v9h-40zm48 0h8v9h-8zm16 0h8v9h-8zm16 0h88v9h-88zm96 0h32v9h-32zM8 694.5h56v9H8zm64 0h48v9H72zm56 0h40v9h-40zm48 0h56v9h-56zm64 0h32v9h-32zm40 0h96v9h-96zm104 0h72v9h-72zm80 0h32v9h-32zm40 0h104v9H504zm112 0h24v9h-24zm32 0h104v9H648zm112 0h48v9h-48zm56 0h8v9h-8zm16 0h48v9h-48zm56 0h8v9h-8zm16 0h96v9h-96zm104 0h8v9h-8zm16 0h64v9h-64zm72 0h64v9h-64zm72 0h64v9h-64zm72 0h88v9h-88zm96 0h32v9h-32zm40 0h64v9h-64zm72 0h72v9h-72zm80 0h24v9h-24zm32 0h40v9h-40zm48 0h56v9h-56zm64 0h8v9h-8zm16 0h72v9h-72zm80 0h8v9h-8zm16 0h40v9h-40zm48 0h8v9h-8zm16 0h64v9h-64zM8 712.5h24v9H8zm32 0h8v9h-8zm16 0h72v9H56zm80 0h8v9h-8zm16 0h104v9H152zm112 0h88v9h-88zm96 0h16v9h-16zm24 0h64v9h-64zm72 0h80v9h-80zm88 0h80v9h-80zm88 0h56v9h-56zm64 0h96v9h-96zm104 0h56v9h-56zm64 0h48v9h-48zm56 0h96v9h-96zm104 0h80v9h-80zm88 0h48v9h-48zm56 0h40v9h-40zm48 0h40v9h-40zm48 0h56v9h-56zm64 0h56v9h-56zm64 0h56v9h-56zm64 0h56v9h-56zm64 0h48v9h-48zm56 0h16v9h-16zm24 0h64v9h-64zm72 0h56v9h-56zm64 0h40v9h-40zm48 0h8v9h-8zm16 0h48v9h-48zm56 0h56v9h-56zM8 730.5h8v9H8zm16 0h40v9H24zm48 0h64v9H72zm72 0h40v9h-40zm48 0h88v9h-88zm96 0h56v9h-56zm64 0h8v9h-8zm16 0h72v9h-72zm80 0h40v9h-40zm48 0h48v9h-48zm56 0h64v9h-64zm72 0h40v9h-40zm48 0h64v9h-64zm72 0h56v9h-56zm64 0h96v9h-96zm104 0h8v9h-8zm16 0h48v9h-48zm56 0h56v9h-56zm64 0h8v9h-8zm16 0h88v9h-88zm96 0h56v9h-56zm64 0h8v9h-8zm16 0h48v9h-48zm56 0h32v9h-32zm40 0h72v9h-72zm80 0h8v9h-8zm16 0h56v9h-56zm64 0h48v9h-48zm56 0h80v9h-80zm88 0h8v9h-8zm16 0h16v9h-16zm24 0h40v9h-40zm48 0h32v9h-32zm40 0h48v9h-48zm56 0h56v9h-56zm64 0h16v9h-16zM8 748.5h56v9H8zm64 0h32v9H72zm40 0h8v9h-8zm16 0h72v9h-72zm80 0h40v9h-40zm48 0h24v9h-24zm32 0h40v9h-40zm48 0h8v9h-8zm16 0h16v9h-16zm24 0h32v9h-32zm40 0h32v9h-32zm40 0h32v9h-32zm40 0h40v9h-40zm48 0h48v9h-48zm56 0h56v9h-56zm64 0h16v9h-16zm24 0h32v9h-32zm40 0h64v9h-64zm72 0h16v9h-16zm24 0h32v9h-32zm40 0h8v9h-8zm16 0h16v9h-16zm24 0h72v9h-72zm80 0h80v9h-80zm88 0h64v9h-64zm72 0h32v9h-32zm40 0h64v9h-64zm72 0h40v9h-40zm48 0h32v9h-32zm40 0h40v9h-40zm48 0h64v9h-64zm72 0h48v9h-48zm56 0h16v9h-16zm24 0h56v9h-56zm64 0h8v9h-8zm16 0h56v9h-56zm64 0h48v9h-48zm56 0h80v9h-80zm88 0h48v9h-48zm56 0h24v9h-24zM8 766.5h16v9H8zm24 0h152v9H32zm160 0h32v9h-32zm40 0h64v9h-64zm72 0h64v9h-64zm72 0h56v9h-56zm64 0h32v9h-32zm40 0h120v9H480zm128 0h8v9h-8zm16 0h40v9h-40zm48 0h24v9h-24zm32 0h64v9h-64zm72 0h56v9h-56zm64 0h56v9h-56zm64 0h40v9h-40zm48 0h16v9h-16zm24 0h40v9h-40zm48 0h48v9h-48zm56 0h32v9h-32zm40 0h32v9h-32zm40 0h72v9h-72zm80 0h40v9h-40zm48 0h56v9h-56zm64 0h40v9h-40zm48 0h8v9h-8zm16 0h40v9h-40zm48 0h80v9h-80zm88 0h56v9h-56zm64 0h104v9h-104zm112 0h56v9h-56zm64 0h32v9h-32zm40 0h48v9h-48zm56 0h16v9h-16zM8 784.5h48v9H8zm56 0h16v9H64zm24 0h40v9H88zm48 0h24v9h-24zm32 0h64v9h-64zm72 0h64v9h-64zm72 0h72v9h-72zm80 0h152v9H392zm160 0h64v9h-64zm72 0h8v9h-8zm16 0h32v9h-32zm40 0h64v9h-64zm72 0h88v9h-88zm96 0h8v9h-8zm16 0h88v9h-88zm96 0h32v9h-32zm40 0h88v9h-88zm96 0h56v9h-56zm64 0h40v9h-40zm48 0h16v9h-16zm24 0h80v9h-80zm88 0h16v9h-16zm24 0h48v9h-48zm56 0h32v9h-32zm40 0h72v9h-72zm80 0h104v9h-104zm112 0h72v9h-72zm80 0h24v9h-24zm32 0h88v9h-88zm96 0h24v9h-24zm32 0h40v9h-40zM8 802.5h8v9H8zm16 0h40v9H24zm48 0h8v9h-8zm16 0h64v9H88zm72 0h152v9H160zm160 0h8v9h-8zm16 0h40v9h-40zm48 0h40v9h-40zm48 0h24v9h-24zm32 0h16v9h-16zm24 0h64v9h-64zm72 0h32v9h-32zm40 0h88v9h-88zm96 0h96v9h-96zm104 0h24v9h-24zm32 0h8v9h-8zm16 0h56v9h-56zm64 0h104v9H912zm112 0h24v9h-24zm32 0h88v9h-88zm96 0h88v9h-88zm96 0h32v9h-32zm40 0h72v9h-72zm80 0h72v9h-72zm80 0h8v9h-8zm16 0h112v9h-112zm120 0h72v9h-72zm80 0h72v9h-72zm80 0h24v9h-24zm32 0h8v9h-8zm16 0h80v9h-80zm88 0h32v9h-32zM8 820.5h40v9H8zm48 0h96v9H56zm104 0h8v9h-8zm16 0h64v9h-64zm72 0h96v9h-96zm104 0h8v9h-8zm16 0h16v9h-16zm24 0h16v9h-16zm24 0h40v9h-40zm48 0h8v9h-8zm16 0h64v9h-64zm72 0h64v9h-64zm72 0h8v9h-8zm16 0h56v9h-56zm64 0h32v9h-32zm40 0h48v9h-48zm56 0h48v9h-48zm56 0h80v9h-80zm88 0h64v9h-64zm72 0h8v9h-8zm16 0h24v9h-24zm32 0h32v9h-32zm40 0h72v9h-72zm80 0h40v9h-40zm48 0h48v9h-48zm56 0h56v9h-56zm64 0h48v9h-48zm56 0h16v9h-16zm24 0h48v9h-48zm56 0h56v9h-56zm64 0h112v9h-112zm120 0h8v9h-8zm16 0h48v9h-48zm56 0h16v9h-16zm24 0h72v9h-72zm80 0h64v9h-64zM8 838.5h32v9H8zm48 0h72v9H56zm80 0h56v9h-56zm64 0h16v9h-16zm24 0h32v9h-32zm40 0h16v9h-16zm24 0h64v9h-64zm72 0h48v9h-48zm56 0h8v9h-8zm16 0h48v9h-48zm56 0h8v9h-8zm16 0h72v9h-72zm80 0h80v9h-80zm88 0h16v9h-16zm24 0h48v9h-48zm56 0h16v9h-16zm24 0h72v9h-72zm80 0h24v9h-24zm32 0h56v9h-56zm64 0h72v9h-72zm80 0h56v9h-56zm64 0h8v9h-8zm16 0h64v9h-64zm72 0h16v9h-16zm24 0h24v9h-24zm32 0h96v9h-96zm104 0h64v9h-64zm72 0h8v9h-8zm16 0h40v9h-40zm48 0h88v9h-88zm96 0h24v9h-24zm32 0h24v9h-24zm32 0h16v9h-16zm24 0h16v9h-16zm24 0h56v9h-56zm64 0h8v9h-8zm16 0h32v9h-32zm40 0h56v9h-56zm64 0h16v9h-16zm24 0h16v9h-16zM8 856.5h24v9H8zm40 0h16v9H48zm24 0h56v9H72zm64 0h24v9h-24zm32 0h24v9h-24zm32 0h48v9h-48zm56 0h64v9h-64zm72 0h64v9h-64zm72 0h48v9h-48zm56 0h24v9h-24zm32 0h24v9h-24zm32 0h32v9h-32zm40 0h56v9h-56zm64 0h56v9h-56zm64 0h40v9h-40zm48 0h64v9h-64zm72 0h40v9h-40zm48 0h144v9H856zm152 0h80v9h-80zm88 0h48v9h-48zm56 0h40v9h-40zm48 0h72v9h-72zm80 0h8v9h-8zm16 0h40v9h-40zm48 0h88v9h-88zm96 0h24v9h-24zm32 0h48v9h-48zm56 0h40v9h-40zm48 0h104v9h-104zm112 0h40v9h-40zm48 0h40v9h-40zm48 0h32v9h-32zm40 0h72v9h-72zm80 0h8v9h-8zM8 874.5h16v9H8zm24 0h56v9H32zm64 0h64v9H96zm72 0h48v9h-48zm56 0h56v9h-56zm64 0h40v9h-40zm48 0h104v9H336zm112 0h40v9h-40zm48 0h40v9h-40zm48 0h8v9h-8zm16 0h48v9h-48zm56 0h72v9h-72zm80 0h40v9h-40zm48 0h32v9h-32zm40 0h16v9h-16zm24 0h136v9H808zm144 0h24v9h-24zm32 0h64v9h-64zm72 0h72v9h-72zm80 0h24v9h-24zm32 0h24v9h-24zm32 0h40v9h-40zm48 0h88v9h-88zm96 0h40v9h-40zm48 0h8v9h-8zm16 0h24v9h-24zm32 0h24v9h-24zm32 0h24v9h-24zm32 0h56v9h-56zm64 0h80v9h-80zm88 0h56v9h-56zm64 0h96v9h-96zm104 0h88v9h-88zM8 892.5h64v9H8zm80 0h8v9h-8zm16 0h56v9h-56zm64 0h96v9h-96zm104 0h64v9h-64zm72 0h40v9h-40zm48 0h8v9h-8zm16 0h64v9h-64zm72 0h64v9h-64zm72 0h72v9h-72zm80 0h32v9h-32zm40 0h88v9h-88zm96 0h16v9h-16zm24 0h48v9h-48zm56 0h104v9H848zm112 0h80v9h-80zm88 0h72v9h-72zm80 0h72v9h-72zm80 0h48v9h-48zm56 0h40v9h-40zm48 0h40v9h-40zm48 0h72v9h-72zm80 0h56v9h-56zm64 0h16v9h-16zm24 0h72v9h-72zm80 0h16v9h-16zm24 0h56v9h-56zm64 0h72v9h-72zm80 0h112v9h-112zm120 0h16v9h-16zM8 910.5h24v9H8zm32 0h8v9h-8zm16 0h72v9H56zm80 0h40v9h-40zm48 0h56v9h-56zm64 0h16v9h-16zm24 0h40v9h-40zm48 0h72v9h-72zm80 0h72v9h-72zm80 0h8v9h-8zm16 0h104v9H496zm112 0h48v9h-48zm56 0h24v9h-24zm32 0h72v9h-72zm80 0h48v9h-48zm56 0h32v9h-32zm40 0h24v9h-24zm32 0h64v9h-64zm72 0h64v9h-64zm72 0h80v9h-80zm88 0h8v9h-8zm16 0h72v9h-72zm80 0h56v9h-56zm64 0h40v9h-40zm48 0h24v9h-24zm32 0h24v9h-24zm32 0h88v9h-88zm96 0h24v9h-24zm32 0h24v9h-24zm32 0h80v9h-80zm88 0h8v9h-8zm16 0h72v9h-72zm80 0h48v9h-48zm56 0h72v9h-72zm80 0h24v9h-24zM8 928.5h32v9H8zm40 0h72v9H48zm80 0h56v9h-56zm64 0h8v9h-8zm16 0h48v9h-48zm56 0h56v9h-56zm64 0h40v9h-40zm48 0h24v9h-24zm32 0h64v9h-64zm72 0h16v9h-16zm24 0h80v9h-80zm88 0h56v9h-56zm64 0h24v9h-24zm32 0h64v9h-64zm72 0h8v9h-8zm16 0h32v9h-32zm40 0h32v9h-32zm40 0h40v9h-40zm48 0h40v9h-40zm48 0h56v9h-56zm64 0h96v9h-96zm104 0h16v9h-16zm24 0h40v9h-40zm48 0h48v9h-48zm56 0h40v9h-40zm48 0h16v9h-16zm24 0h96v9h-96zm104 0h96v9h-96zm104 0h8v9h-8zm16 0h24v9h-24zm32 0h48v9h-48zm56 0h16v9h-16zm24 0h40v9h-40zm48 0h96v9h-96zm104 0h48v9h-48zm56 0h16v9h-16zm24 0h24v9h-24zM8 946.5h40v9H8zm48 0h32v9H56zm40 0h80v9H96zm88 0h64v9h-64zm72 0h88v9h-88zm96 0h16v9h-16zm24 0h40v9h-40zm48 0h8v9h-8zm16 0h16v9h-16zm24 0h64v9h-64zm72 0h8v9h-8zm16 0h48v9h-48zm56 0h144v9H608zm152 0h56v9h-56zm64 0h64v9h-64zm72 0h8v9h-8zm16 0h56v9h-56zm64 0h48v9h-48zm56 0h104v9h-104zm112 0h16v9h-16zm24 0h40v9h-40zm48 0h56v9h-56zm64 0h72v9h-72zm80 0h48v9h-48zm56 0h32v9h-32zm40 0h96v9h-96zm104 0h48v9h-48zm56 0h40v9h-40zm48 0h24v9h-24zm32 0h88v9h-88zm96 0h56v9h-56zm64 0h8v9h-8zm16 0h16v9h-16zm24 0h16v9h-16zM8 964.5h32v9H8zm40 0h24v9H48zm32 0h64v9H80zm72 0h64v9h-64zm72 0h40v9h-40zm48 0h24v9h-24zm32 0h80v9h-80zm88 0h16v9h-16zm24 0h8v9h-8zm16 0h24v9h-24zm32 0h48v9h-48zm56 0h72v9h-72zm80 0h8v9h-8zm16 0h32v9h-32zm40 0h144v9H656zm152 0h56v9h-56zm64 0h72v9h-72zm80 0h32v9h-32zm40 0h32v9h-32zm40 0h72v9h-72zm80 0h64v9h-64zm72 0h16v9h-16zm24 0h32v9h-32zm40 0h136v9h-136zm144 0h24v9h-24zm32 0h72v9h-72zm80 0h64v9h-64zm72 0h56v9h-56zm64 0h16v9h-16zm24 0h64v9h-64zm72 0h24v9h-24zm32 0h8v9h-8zm16 0h48v9h-48zm56 0h64v9h-64zM8 982.5h56v9H8zm64 0h40v9H72zm48 0h24v9h-24zm32 0h72v9h-72zm80 0h8v9h-8zm16 0h48v9h-48zm56 0h72v9h-72zm80 0h56v9h-56zm64 0h40v9h-40zm48 0h72v9h-72zm80 0h64v9h-64zm72 0h88v9h-88zm96 0h16v9h-16zm24 0h64v9h-64zm72 0h112v9H840zm120 0h40v9h-40zm48 0h32v9h-32zm40 0h64v9h-64zm72 0h72v9h-72zm80 0h32v9h-32zm40 0h64v9h-64zm72 0h56v9h-56zm64 0h8v9h-8zm16 0h24v9h-24zm32 0h88v9h-88zm96 0h64v9h-64zm72 0h8v9h-8zm16 0h48v9h-48zm56 0h24v9h-24zm32 0h8v9h-8zm16 0h56v9h-56zm64 0h56v9h-56zm64 0h16v9h-16zm24 0h48v9h-48zm-1856 18h8v9H8zm16 0h24v9H24zm32 0h8v9h-8zm16 0h56v9H72zm64 0h56v9h-56zm64 0h8v9h-8zm16 0h72v9h-72zm80 0h80v9h-80zm88 0h8v9h-8zm16 0h64v9h-64zm72 0h72v9h-72zm80 0h80v9h-80zm88 0h24v9h-24zm32 0h8v9h-8zm16 0h64v9h-64zm72 0h64v9h-64zm72 0h24v9h-24zm32 0h40v9h-40zm48 0h8v9h-8zm16 0h72v9h-72zm80 0h64v9h-64zm72 0h80v9h-80zm88 0h56v9h-56zm64 0h48v9h-48zm56 0h8v9h-8zm16 0h64v9h-64zm72 0h8v9h-8zm16 0h40v9h-40zm48 0h64v9h-64zm72 0h32v9h-32zm40 0h200v9h-200zm208 0h8v9h-8zm16 0h16v9h-16zm24 0h24v9h-24zm32 0h16v9h-16zm24 0h24v9h-24zm32 0h24v9h-24zm-1880 18h56v9H8zm64 0h8v9h-8zm16 0h48v9H88zm56 0h64v9h-64zm72 0h64v9h-64zm72 0h8v9h-8zm16 0h48v9h-48zm56 0h16v9h-16zm24 0h40v9h-40zm48 0h8v9h-8zm16 0h8v9h-8zm16 0h32v9h-32zm40 0h32v9h-32zm40 0h112v9H544zm120 0h8v9h-8zm16 0h56v9h-56zm64 0h64v9h-64zm72 0h64v9h-64zm72 0h80v9h-80zm88 0h16v9h-16zm24 0h56v9h-56zm64 0h16v9h-16zm24 0h16v9h-16zm24 0h8v9h-8zm16 0h40v9h-40zm48 0h8v9h-8zm16 0h48v9h-48zm56 0h16v9h-16zm24 0h64v9h-64zm72 0h48v9h-48zm56 0h8v9h-8zm16 0h24v9h-24zm32 0h48v9h-48zm56 0h56v9h-56zm64 0h32v9h-32zm40 0h64v9h-64zm72 0h8v9h-8zm16 0h56v9h-56zm64 0h40v9h-40zm48 0h8v9h-8zm16 0h80v9h-80zm-1816 18h56v9H8zm64 0h8v9h-8zm16 0h24v9H88zm32 0h48v9h-48zm56 0h88v9h-88zm96 0h24v9h-24zm32 0h32v9h-32zm40 0h8v9h-8zm16 0h40v9h-40zm48 0h24v9h-24zm32 0h72v9h-72zm80 0h16v9h-16zm24 0h24v9h-24zm32 0h64v9h-64zm72 0h40v9h-40zm48 0h56v9h-56zm64 0h80v9h-80zm88 0h40v9h-40zm48 0h40v9h-40zm48 0h24v9h-24zm32 0h48v9h-48zm56 0h24v9h-24zm32 0h72v9h-72zm80 0h40v9h-40zm48 0h48v9h-48zm56 0h24v9h-24zm32 0h48v9h-48zm56 0h8v9h-8zm16 0h16v9h-16zm24 0h56v9h-56zm64 0h24v9h-24zm32 0h56v9h-56zm64 0h80v9h-80zm88 0h48v9h-48zm56 0h40v9h-40zm48 0h56v9h-56zm64 0h64v9h-64zm72 0h8v9h-8zm16 0h32v9h-32zm-1872 18h8v9H8zm16 0h16v9H24zm24 0h24v9H48zm32 0h56v9H80zm64 0h40v9h-40zm48 0h72v9h-72zm80 0h96v9h-96zm104 0h8v9h-8zm16 0h64v9h-64zm72 0h80v9h-80zm88 0h48v9h-48zm56 0h32v9h-32zm40 0h32v9h-32zm40 0h80v9h-80zm88 0h8v9h-8zm16 0h56v9h-56zm64 0h80v9h-80zm88 0h56v9h-56zm64 0h80v9h-80zm88 0h56v9h-56zm64 0h40v9h-40zm48 0h48v9h-48zm56 0h64v9h-64zm72 0h16v9h-16zm24 0h40v9h-40zm48 0h8v9h-8zm16 0h104v9h-104zm112 0h32v9h-32zm40 0h56v9h-56zm64 0h8v9h-8zm16 0h16v9h-16zm24 0h72v9h-72zm80 0h72v9h-72zm80 0h8v9h-8zm16 0h56v9h-56zm-1848 18h48v9H8zm56 0h64v9H64zm72 0h8v9h-8zm16 0h32v9h-32zm40 0h48v9h-48zm56 0h8v9h-8zm16 0h24v9h-24zm32 0h24v9h-24zm32 0h64v9h-64zm72 0h8v9h-8zm16 0h56v9h-56zm64 0h64v9h-64zm72 0h64v9h-64zm72 0h24v9h-24zm32 0h80v9h-80zm88 0h8v9h-8zm16 0h80v9h-80zm88 0h40v9h-40zm48 0h56v9h-56zm64 0h16v9h-16zm24 0h80v9h-80zm88 0h32v9h-32zm40 0h24v9h-24zm32 0h64v9h-64zm72 0h64v9h-64zm72 0h48v9h-48zm56 0h80v9h-80zm88 0h8v9h-8zm16 0h48v9h-48zm56 0h64v9h-64zm72 0h56v9h-56zm64 0h56v9h-56zm64 0h72v9h-72zm80 0h16v9h-16zm24 0h56v9h-56zm64 0h16v9h-16zm24 0h16v9h-16zm-1888 18h40v9H8zm48 0h8v9h-8zm16 0h144v9H72zm152 0h8v9h-8zm16 0h48v9h-48zm56 0h16v9h-16zm24 0h56v9h-56zm64 0h8v9h-8zm16 0h80v9h-80zm88 0h8v9h-8zm16 0h96v9h-96zm104 0h56v9h-56zm64 0h56v9h-56zm64 0h64v9h-64zm72 0h8v9h-8zm16 0h24v9h-24zm32 0h64v9h-64zm72 0h8v9h-8zm16 0h48v9h-48zm56 0h40v9h-40zm48 0h56v9h-56zm64 0h8v9h-8zm16 0h16v9h-16zm24 0h8v9h-8zm16 0h48v9h-48zm56 0h64v9h-64zm72 0h8v9h-8zm16 0h64v9h-64zm72 0h24v9h-24zm32 0h32v9h-32zm40 0h32v9h-32zm40 0h32v9h-32zm40 0h72v9h-72zm80 0h40v9h-40zm48 0h88v9h-88zm96 0h64v9h-64zm72 0h72v9h-72zm-1824 18h8v9H8zm16 0h8v9h-8zm16 0h16v9H40zm24 0h48v9H64zm56 0h40v9h-40zm48 0h40v9h-40zm48 0h16v9h-16zm24 0h80v9h-80zm88 0h56v9h-56zm64 0h40v9h-40zm48 0h40v9h-40zm48 0h64v9h-64zm72 0h16v9h-16zm24 0h144v9H584zm152 0h24v9h-24zm32 0h16v9h-16zm24 0h56v9h-56zm64 0h24v9h-24zm32 0h8v9h-8zm16 0h16v9h-16zm24 0h72v9h-72zm80 0h80v9h-80zm88 0h24v9h-24zm32 0h40v9h-40zm48 0h40v9h-40zm48 0h80v9h-80zm88 0h64v9h-64zm72 0h48v9h-48zm56 0h88v9h-88zm96 0h80v9h-80zm88 0h24v9h-24zm32 0h48v9h-48zm56 0h144v9h-144zm152 0h16v9h-16zm24 0h24v9h-24zm-1880 18h40v9H8zm48 0h8v9h-8zm16 0h16v9H72zm24 0h40v9H96zm48 0h48v9h-48zm56 0h32v9h-32zm40 0h200v9H240zm208 0h8v9h-8zm16 0h48v9h-48zm56 0h16v9h-16zm24 0h40v9h-40zm48 0h64v9h-64zm72 0h64v9h-64zm72 0h80v9h-80zm88 0h64v9h-64zm72 0h8v9h-8zm16 0h40v9h-40zm48 0h32v9h-32zm40 0h24v9h-24zm32 0h48v9h-48zm56 0h72v9h-72zm80 0h24v9h-24zm32 0h32v9h-32zm40 0h8v9h-8zm16 0h64v9h-64zm72 0h24v9h-24zm32 0h88v9h-88zm96 0h64v9h-64zm72 0h80v9h-80zm88 0h8v9h-8zm16 0h56v9h-56zm64 0h56v9h-56zm64 0h88v9h-88zm96 0h16v9h-16zm24 0h32v9h-32zm-1872 18h24v9H8zm40 0h96v9H48zm104 0h16v9h-16zm24 0h16v9h-16zm24 0h48v9h-48zm56 0h40v9h-40zm48 0h24v9h-24zm32 0h8v9h-8zm16 0h8v9h-8zm16 0h16v9h-16zm24 0h48v9h-48zm56 0h40v9h-40zm48 0h16v9h-16zm24 0h80v9h-80zm88 0h16v9h-16zm24 0h64v9h-64zm72 0h72v9h-72zm80 0h16v9h-16zm24 0h80v9h-80zm88 0h8v9h-8zm16 0h88v9h-88zm96 0h24v9h-24zm32 0h40v9h-40zm48 0h40v9h-40zm48 0h64v9h-64zm72 0h40v9h-40zm48 0h24v9h-24zm32 0h32v9h-32zm40 0h24v9h-24zm32 0h24v9h-24zm32 0h48v9h-48zm56 0h64v9h-64zm72 0h8v9h-8zm16 0h32v9h-32zm40 0h24v9h-24zm32 0h16v9h-16zm24 0h24v9h-24zm32 0h56v9h-56zm64 0h32v9h-32zm40 0h16v9h-16zm24 0h48v9h-48zm56 0h40v9h-40zm48 0h16v9h-16zm-1888 18h32v9H8zm40 0h24v9H48zm32 0h24v9H80zm32 0h24v9h-24zm32 0h24v9h-24zm32 0h80v9h-80zm88 0h24v9h-24zm32 0h8v9h-8zm16 0h24v9h-24zm32 0h24v9h-24zm32 0h24v9h-24zm32 0h48v9h-48zm56 0h16v9h-16zm24 0h24v9h-24zm32 0h24v9h-24zm32 0h48v9h-48zm56 0h16v9h-16zm24 0h80v9h-80zm88 0h8v9h-8zm16 0h80v9h-80zm88 0h8v9h-8zm16 0h64v9h-64zm72 0h32v9h-32zm40 0h80v9h-80zm88 0h48v9h-48zm56 0h8v9h-8zm16 0h64v9h-64zm72 0h16v9h-16zm24 0h88v9h-88zm96 0h72v9h-72zm80 0h72v9h-72zm80 0h16v9h-16zm24 0h64v9h-64zm72 0h24v9h-24zm32 0h64v9h-64zm72 0h64v9h-64zm72 0h64v9h-64zm72 0h8v9h-8zm16 0h72v9h-72zm80 0h8v9h-8zm-1896 18h32v9H8zm40 0h56v9H48zm64 0h80v9h-80zm88 0h8v9h-8zm16 0h16v9h-16zm24 0h16v9h-16zm24 0h32v9h-32zm40 0h16v9h-16zm24 0h96v9h-96zm104 0h48v9h-48zm56 0h72v9h-72zm80 0h8v9h-8zm16 0h48v9h-48zm56 0h64v9h-64zm72 0h72v9h-72zm80 0h64v9h-64zm72 0h88v9h-88zm96 0h8v9h-8zm16 0h40v9h-40zm48 0h24v9h-24zm32 0h32v9h-32zm40 0h8v9h-8zm16 0h72v9h-72zm80 0h8v9h-8zm16 0h56v9h-56zm64 0h56v9h-56zm64 0h16v9h-16zm24 0h64v9h-64zm72 0h72v9h-72zm80 0h32v9h-32zm40 0h72v9h-72zm80 0h72v9h-72zm80 0h40v9h-40zm48 0h72v9h-72zm80 0h64v9h-64zm-1832 18h48v9H8zm56 0h64v9H64zm72 0h88v9h-88zm96 0h64v9h-64zm72 0h8v9h-8zm16 0h48v9h-48zm56 0h80v9h-80zm88 0h72v9h-72zm80 0h48v9h-48zm56 0h24v9h-24zm32 0h16v9h-16zm24 0h48v9h-48zm56 0h88v9h-88zm96 0h24v9h-24zm32 0h64v9h-64zm72 0h56v9h-56zm64 0h16v9h-16zm24 0h32v9h-32zm40 0h72v9h-72zm80 0h40v9h-40zm48 0h88v9h-88zm96 0h8v9h-8zm16 0h8v9h-8zm16 0h16v9h-16zm24 0h64v9h-64zm72 0h32v9h-32zm40 0h64v9h-64zm72 0h8v9h-8zm16 0h80v9h-80zm88 0h64v9h-64zm72 0h16v9h-16zm24 0h32v9h-32zm40 0h16v9h-16zm24 0h16v9h-16zm24 0h8v9h-8zm16 0h56v9h-56zm64 0h40v9h-40zm-1864 18h24v9H8zm32 0h56v9H40zm64 0h48v9h-48zm56 0h64v9h-64zm72 0h8v9h-8zm16 0h72v9h-72zm80 0h56v9h-56zm64 0h80v9h-80zm88 0h32v9h-32zm40 0h64v9h-64zm72 0h48v9h-48zm56 0h56v9h-56zm64 0h72v9h-72zm80 0h24v9h-24zm32 0h72v9h-72zm80 0h8v9h-8zm16 0h16v9h-16zm24 0h72v9h-72zm80 0h64v9h-64zm72 0h80v9h-80zm88 0h24v9h-24zm32 0h8v9h-8zm16 0h24v9h-24zm32 0h16v9h-16zm24 0h56v9h-56zm64 0h32v9h-32zm40 0h16v9h-16zm24 0h24v9h-24zm32 0h64v9h-64zm72 0h16v9h-16zm24 0h64v9h-64zm72 0h88v9h-88zm96 0h8v9h-8zm16 0h24v9h-24zm32 0h40v9h-40zm48 0h72v9h-72zm80 0h24v9h-24zm-1880 18h8v9H8zm16 0h24v9H24zm32 0h24v9H56zm32 0h32v9H88zm40 0h48v9h-48zm56 0h8v9h-8zm16 0h48v9h-48zm56 0h8v9h-8zm16 0h16v9h-16zm24 0h48v9h-48zm56 0h40v9h-40zm48 0h72v9h-72zm80 0h32v9h-32zm40 0h168v9H520zm176 0h16v9h-16zm24 0h88v9h-88zm96 0h8v9h-8zm16 0h48v9h-48zm56 0h64v9h-64zm72 0h8v9h-8zm16 0h8v9h-8zm16 0h32v9h-32zm40 0h24v9h-24zm32 0h72v9h-72zm80 0h8v9h-8zm16 0h56v9h-56zm64 0h64v9h-64zm72 0h72v9h-72zm80 0h8v9h-8zm16 0h64v9h-64zm72 0h32v9h-32zm40 0h152v9h-152zm160 0h48v9h-48zm56 0h8v9h-8zm16 0h56v9h-56zm64 0h64v9h-64zm72 0h8v9h-8zm16 0h16v9h-16zm-1880 18h8v9H8zm16 0h40v9H24zm48 0h8v9h-8zm16 0h40v9H88zm48 0h8v9h-8zm16 0h40v9h-40zm48 0h8v9h-8zm16 0h16v9h-16zm24 0h48v9h-48zm56 0h8v9h-8zm16 0h48v9h-48zm56 0h32v9h-32zm40 0h32v9h-32zm40 0h40v9h-40zm48 0h64v9h-64zm72 0h64v9h-64zm72 0h8v9h-8zm16 0h16v9h-16zm24 0h24v9h-24zm32 0h16v9h-16zm24 0h24v9h-24zm32 0h8v9h-8zm16 0h48v9h-48zm56 0h64v9h-64zm72 0h72v9h-72zm80 0h8v9h-8zm16 0h24v9h-24zm32 0h32v9h-32zm40 0h64v9h-64zm72 0h64v9h-64zm72 0h64v9h-64zm72 0h8v9h-8zm16 0h80v9h-80zm88 0h32v9h-32zm40 0h56v9h-56zm64 0h64v9h-64zm72 0h24v9h-24zm32 0h16v9h-16zm24 0h56v9h-56zm64 0h8v9h-8zm16 0h56v9h-56zm64 0h32v9h-32zm40 0h96v9h-96zm-1808 18h56v9H8zm64 0h8v9h-8zm16 0h48v9H88zm56 0h64v9h-64zm72 0h56v9h-56zm64 0h40v9h-40zm48 0h96v9h-96zm104 0h24v9h-24zm32 0h16v9h-16zm24 0h64v9h-64zm72 0h56v9h-56zm64 0h88v9h-88zm96 0h8v9h-8zm16 0h16v9h-16zm24 0h24v9h-24zm32 0h16v9h-16zm24 0h24v9h-24zm32 0h64v9h-64zm72 0h64v9h-64zm72 0h56v9h-56zm64 0h8v9h-8zm16 0h40v9h-40zm48 0h64v9h-64zm72 0h8v9h-8zm16 0h72v9h-72zm80 0h56v9h-56zm64 0h8v9h-8zm16 0h16v9h-16zm24 0h56v9h-56zm64 0h40v9h-40zm48 0h8v9h-8zm16 0h64v9h-64zm72 0h8v9h-8zm16 0h48v9h-48zm56 0h16v9h-16zm24 0h32v9h-32zm40 0h56v9h-56zm64 0h80v9h-80zm88 0h32v9h-32zm-1872 18h16v9H8zm24 0h16v9H32zm24 0h48v9H56zm56 0h8v9h-8zm16 0h16v9h-16zm24 0h56v9h-56zm64 0h72v9h-72zm80 0h48v9h-48zm56 0h80v9h-80zm88 0h96v9h-96zm104 0h32v9h-32zm40 0h8v9h-8zm16 0h24v9h-24zm32 0h24v9h-24zm32 0h8v9h-8zm16 0h56v9h-56zm64 0h8v9h-8zm16 0h72v9h-72zm80 0h64v9h-64zm72 0h72v9h-72zm80 0h8v9h-8zm16 0h40v9h-40zm48 0h16v9h-16zm24 0h40v9h-40zm48 0h40v9h-40zm48 0h16v9h-16zm24 0h40v9h-40zm48 0h8v9h-8zm16 0h64v9h-64zm72 0h16v9h-16zm24 0h56v9h-56zm64 0h32v9h-32zm40 0h56v9h-56zm64 0h64v9h-64zm72 0h8v9h-8zm16 0h72v9h-72zm80 0h40v9h-40zm48 0h40v9h-40zm48 0h40v9h-40zm48 0h8v9h-8zm16 0h8v9h-8zm16 0h24v9h-24zm32 0h8v9h-8zm-1896 18h48v9H8zm56 0h40v9H64zm48 0h64v9h-64zm72 0h8v9h-8zm16 0h56v9h-56zm64 0h8v9h-8zm16 0h24v9h-24zm32 0h16v9h-16zm24 0h24v9h-24zm32 0h48v9h-48zm56 0h56v9h-56zm64 0h64v9h-64zm72 0h8v9h-8zm16 0h24v9h-24zm32 0h56v9h-56zm64 0h48v9h-48zm56 0h8v9h-8zm16 0h48v9h-48zm56 0h56v9h-56zm64 0h144v9H864zm152 0h56v9h-56zm64 0h40v9h-40zm48 0h40v9h-40zm48 0h8v9h-8zm16 0h32v9h-32zm40 0h48v9h-48zm56 0h96v9h-96zm104 0h80v9h-80zm88 0h72v9h-72zm80 0h64v9h-64zm72 0h72v9h-72zm80 0h72v9h-72zm80 0h8v9h-8zm16 0h56v9h-56zm64 0h40v9h-40zm-1864 18h8v9H8zm16 0h136v9H24zm144 0h80v9h-80zm88 0h96v9h-96zm104 0h32v9h-32zm40 0h80v9h-80zm88 0h40v9h-40zm48 0h48v9h-48zm56 0h56v9h-56zm64 0h8v9h-8zm16 0h8v9h-8zm16 0h72v9h-72zm80 0h32v9h-32zm40 0h24v9h-24zm32 0h56v9h-56zm64 0h16v9h-16zm24 0h32v9h-32zm40 0h48v9h-48zm56 0h128v9h-128zm136 0h80v9h-80zm88 0h56v9h-56zm64 0h8v9h-8zm16 0h24v9h-24zm32 0h16v9h-16zm24 0h80v9h-80zm88 0h56v9h-56zm64 0h56v9h-56zm64 0h16v9h-16zm24 0h40v9h-40zm48 0h48v9h-48zm56 0h8v9h-8zm16 0h8v9h-8zm16 0h16v9h-16zm24 0h32v9h-32zm40 0h40v9h-40zm48 0h40v9h-40zm-1864 18h16v9H8zm24 0h8v9h-8zm16 0h40v9H48zm48 0h40v9H96zm48 0h72v9h-72zm80 0h40v9h-40zm48 0h8v9h-8zm16 0h48v9h-48zm56 0h8v9h-8zm16 0h80v9h-80zm88 0h24v9h-24zm32 0h80v9h-80zm88 0h8v9h-8zm16 0h24v9h-24zm32 0h24v9h-24zm32 0h48v9h-48zm56 0h16v9h-16zm24 0h32v9h-32zm40 0h48v9h-48zm56 0h16v9h-16zm24 0h32v9h-32zm40 0h48v9h-48zm56 0h24v9h-24zm32 0h64v9h-64zm72 0h8v9h-8zm16 0h8v9h-8zm16 0h80v9h-80zm88 0h72v9h-72zm80 0h8v9h-8zm16 0h24v9h-24zm32 0h32v9h-32zm40 0h48v9h-48zm56 0h40v9h-40zm48 0h64v9h-64zm72 0h24v9h-24zm32 0h40v9h-40zm48 0h48v9h-48zm56 0h8v9h-8zm16 0h32v9h-32zm40 0h24v9h-24zm32 0h64v9h-64zm72 0h56v9h-56zm64 0h8v9h-8zm16 0h8v9h-8zm16 0h8v9h-8zm-1896 18h24v9H8zm32 0h80v9H40zm88 0h64v9h-64zm72 0h24v9h-24zm32 0h24v9h-24zm32 0h24v9h-24zm32 0h40v9h-40zm48 0h64v9h-64zm72 0h72v9h-72zm80 0h16v9h-16zm24 0h40v9h-40zm48 0h48v9h-48zm56 0h64v9h-64zm72 0h32v9h-32zm40 0h8v9h-8zm16 0h56v9h-56zm64 0h24v9h-24zm32 0h64v9h-64zm72 0h48v9h-48zm56 0h8v9h-8zm16 0h64v9h-64zm72 0h48v9h-48zm56 0h24v9h-24zm32 0h40v9h-40zm48 0h40v9h-40zm48 0h32v9h-32zm40 0h16v9h-16zm24 0h48v9h-48zm56 0h48v9h-48zm56 0h56v9h-56zm64 0h64v9h-64zm72 0h64v9h-64zm72 0h32v9h-32zm40 0h56v9h-56zm64 0h72v9h-72zm80 0h24v9h-24zm32 0h16v9h-16zm24 0h40v9h-40zm-1864 18h40v9H8zm48 0h40v9H56zm48 0h8v9h-8zm16 0h8v9h-8zm16 0h80v9h-80zm88 0h40v9h-40zm48 0h80v9h-80zm88 0h8v9h-8zm16 0h24v9h-24zm32 0h64v9h-64zm72 0h8v9h-8zm16 0h56v9h-56zm64 0h64v9h-64zm72 0h48v9h-48zm56 0h40v9h-40zm48 0h8v9h-8zm16 0h48v9h-48zm56 0h24v9h-24zm32 0h48v9h-48zm56 0h16v9h-16zm24 0h48v9h-48zm56 0h56v9h-56zm64 0h8v9h-8zm16 0h40v9h-40zm48 0h40v9h-40zm48 0h96v9h-96zm104 0h40v9h-40zm48 0h40v9h-40zm48 0h48v9h-48zm56 0h24v9h-24zm32 0h8v9h-8zm16 0h56v9h-56zm64 0h104v9h-104zm112 0h24v9h-24zm32 0h32v9h-32zm40 0h56v9h-56zm64 0h8v9h-8zm16 0h16v9h-16zm24 0h24v9h-24zm32 0h16v9h-16zm24 0h40v9h-40zm-1856 18h16v9H8zm24 0h56v9H32zm64 0h8v9h-8zm16 0h24v9h-24zm32 0h96v9h-96zm104 0h40v9h-40zm48 0h8v9h-8zm16 0h8v9h-8zm16 0h72v9h-72zm80 0h40v9h-40zm48 0h32v9h-32zm40 0h48v9h-48zm56 0h40v9h-40zm48 0h24v9h-24zm32 0h24v9h-24zm32 0h24v9h-24zm32 0h8v9h-8zm16 0h48v9h-48zm56 0h8v9h-8zm16 0h32v9h-32zm40 0h16v9h-16zm24 0h48v9h-48zm56 0h64v9h-64zm72 0h8v9h-8zm16 0h16v9h-16zm24 0h24v9h-24zm32 0h40v9h-40zm48 0h32v9h-32zm40 0h56v9h-56zm64 0h16v9h-16zm24 0h40v9h-40zm48 0h8v9h-8zm16 0h40v9h-40zm48 0h32v9h-32zm40 0h40v9h-40zm48 0h24v9h-24zm32 0h40v9h-40zm48 0h24v9h-24zm32 0h56v9h-56zm64 0h72v9h-72zm80 0h48v9h-48zm56 0h40v9h-40zm48 0h48v9h-48zm56 0h8v9h-8zm16 0h8v9h-8zm16 0h40v9h-40zm-1864 18h8v9H8zm16 0h56v9H24zm64 0h40v9H88zm48 0h40v9h-40zm48 0h72v9h-72zm80 0h48v9h-48zm56 0h24v9h-24zm32 0h24v9h-24zm32 0h24v9h-24zm32 0h40v9h-40zm48 0h40v9h-40zm48 0h32v9h-32zm40 0h24v9h-24zm32 0h56v9h-56zm64 0h56v9h-56zm64 0h8v9h-8zm16 0h48v9h-48zm56 0h40v9h-40zm48 0h64v9h-64zm72 0h40v9h-40zm48 0h48v9h-48zm56 0h8v9h-8zm16 0h80v9h-80zm88 0h56v9h-56zm64 0h8v9h-8zm16 0h80v9h-80zm88 0h32v9h-32zm40 0h72v9h-72zm80 0h8v9h-8zm16 0h40v9h-40zm48 0h32v9h-32zm40 0h8v9h-8zm16 0h48v9h-48zm56 0h40v9h-40zm48 0h64v9h-64zm72 0h56v9h-56zm64 0h72v9h-72zm80 0h72v9h-72zm-1832 18h80v9H8zm88 0h72v9H96zm80 0h40v9h-40zm48 0h8v9h-8zm16 0h88v9h-88zm96 0h16v9h-16zm24 0h48v9h-48zm56 0h48v9h-48zm56 0h56v9h-56zm64 0h72v9h-72zm80 0h80v9h-80zm88 0h48v9h-48zm56 0h104v9H760zm112 0h24v9h-24zm32 0h32v9h-32zm40 0h24v9h-24zm32 0h64v9h-64zm72 0h112v9h-112zm120 0h8v9h-8zm16 0h88v9h-88zm96 0h56v9h-56zm64 0h56v9h-56zm64 0h56v9h-56zm64 0h40v9h-40zm48 0h40v9h-40zm48 0h24v9h-24zm32 0h8v9h-8zm16 0h160v9h-160zm168 0h40v9h-40zm48 0h24v9h-24zm32 0h32v9h-32zm40 0h8v9h-8zm-1896 18h48v9H8zm56 0h8v9h-8zm16 0h48v9H80zm56 0h8v9h-8zm16 0h48v9h-48zm56 0h48v9h-48zm56 0h8v9h-8zm16 0h64v9h-64zm72 0h48v9h-48zm56 0h8v9h-8zm16 0h24v9h-24zm32 0h88v9h-88zm96 0h24v9h-24zm32 0h16v9h-16zm24 0h40v9h-40zm48 0h144v9H656zm152 0h72v9h-72zm80 0h48v9h-48zm56 0h144v9H944zm152 0h56v9h-56zm64 0h96v9h-96zm104 0h24v9h-24zm32 0h72v9h-72zm80 0h40v9h-40zm48 0h8v9h-8zm16 0h48v9h-48zm56 0h56v9h-56zm64 0h24v9h-24zm32 0h40v9h-40zm48 0h16v9h-16zm24 0h48v9h-48zm56 0h48v9h-48zm56 0h16v9h-16zm24 0h48v9h-48zm56 0h56v9h-56zm-1848 18h32v9H8zm40 0h40v9H48zm48 0h8v9h-8zm16 0h64v9h-64zm72 0h48v9h-48zm56 0h24v9h-24zm32 0h56v9h-56zm64 0h48v9h-48zm56 0h56v9h-56zm64 0h136v9H456zm144 0h8v9h-8zm16 0h88v9h-88zm96 0h48v9h-48zm56 0h88v9h-88zm96 0h24v9h-24zm32 0h24v9h-24zm32 0h40v9h-40zm48 0h80v9h-80zm88 0h16v9h-16zm24 0h40v9h-40zm48 0h16v9h-16zm24 0h24v9h-24zm32 0h40v9h-40zm48 0h56v9h-56zm64 0h72v9h-72zm80 0h48v9h-48zm56 0h48v9h-48zm56 0h64v9h-64zm72 0h72v9h-72zm80 0h88v9h-88zm96 0h32v9h-32zm40 0h24v9h-24zm32 0h64v9h-64zm72 0h24v9h-24zm-1880 18h40v9H8zm48 0h16v9H56zm24 0h24v9H80zm32 0h72v9h-72zm80 0h48v9h-48zm56 0h8v9h-8zm16 0h40v9h-40zm48 0h64v9h-64zm72 0h48v9h-48zm56 0h24v9h-24zm32 0h16v9h-16zm24 0h24v9h-24zm32 0h32v9h-32zm40 0h32v9h-32zm40 0h40v9h-40zm48 0h40v9h-40zm48 0h40v9h-40zm48 0h64v9h-64zm72 0h8v9h-8zm16 0h80v9h-80zm88 0h64v9h-64zm72 0h64v9h-64zm72 0h8v9h-8zm16 0h72v9h-72zm80 0h64v9h-64zm72 0h16v9h-16zm24 0h56v9h-56zm64 0h72v9h-72zm80 0h40v9h-40zm48 0h64v9h-64zm72 0h48v9h-48zm56 0h8v9h-8zm16 0h40v9h-40zm48 0h40v9h-40zm48 0h40v9h-40zm48 0h48v9h-48zm56 0h88v9h-88zm96 0h16v9h-16zm-1888 18h40v9H8zm48 0h8v9h-8zm16 0h56v9H72zm64 0h56v9h-56zm64 0h64v9h-64zm72 0h64v9h-64zm72 0h8v9h-8zm16 0h32v9h-32zm40 0h40v9h-40zm48 0h80v9h-80zm88 0h56v9h-56zm64 0h24v9h-24zm32 0h80v9h-80zm88 0h48v9h-48zm56 0h64v9h-64zm72 0h56v9h-56zm64 0h8v9h-8zm16 0h40v9h-40zm48 0h40v9h-40zm48 0h32v9h-32zm40 0h88v9h-88zm96 0h40v9h-40zm48 0h48v9h-48zm56 0h104v9h-104zm112 0h48v9h-48zm56 0h8v9h-8zm16 0h40v9h-40zm48 0h64v9h-64zm72 0h56v9h-56zm64 0h16v9h-16zm24 0h48v9h-48zm56 0h88v9h-88zm96 0h8v9h-8zm16 0h48v9h-48zm56 0h32v9h-32zm-1872 18h104v9H8zm112 0h24v9h-24zm32 0h40v9h-40zm48 0h40v9h-40zm48 0h32v9h-32zm40 0h80v9h-80zm88 0h32v9h-32zm40 0h56v9h-56zm64 0h8v9h-8zm16 0h16v9h-16zm24 0h24v9h-24zm32 0h32v9h-32zm40 0h8v9h-8zm16 0h16v9h-16zm24 0h32v9h-32zm40 0h40v9h-40zm48 0h24v9h-24zm32 0h40v9h-40zm48 0h80v9h-80zm88 0h96v9h-96zm104 0h24v9h-24zm32 0h48v9h-48zm56 0h48v9h-48zm56 0h24v9h-24zm32 0h32v9h-32zm40 0h72v9h-72zm80 0h56v9h-56zm64 0h8v9h-8zm16 0h48v9h-48zm56 0h8v9h-8zm16 0h40v9h-40zm48 0h48v9h-48zm56 0h48v9h-48zm56 0h40v9h-40zm48 0h16v9h-16zm24 0h48v9h-48zm56 0h32v9h-32zm40 0h8v9h-8zm16 0h56v9h-56zm64 0h56v9h-56zm-1840 18h8v9H8zm16 0h64v9H24zm72 0h56v9H96zm64 0h64v9h-64zm72 0h40v9h-40zm48 0h64v9h-64zm72 0h64v9h-64zm72 0h8v9h-8zm16 0h40v9h-40zm48 0h96v9h-96zm104 0h56v9h-56zm64 0h64v9h-64zm72 0h56v9h-56zm64 0h64v9h-64zm72 0h40v9h-40zm48 0h8v9h-8zm16 0h72v9h-72zm80 0h24v9h-24zm32 0h8v9h-8zm16 0h24v9h-24zm32 0h40v9h-40zm48 0h8v9h-8zm16 0h48v9h-48zm56 0h16v9h-16zm24 0h32v9h-32zm40 0h88v9h-88zm96 0h8v9h-8zm16 0h40v9h-40zm48 0h88v9h-88zm96 0h24v9h-24zm32 0h40v9h-40zm48 0h16v9h-16zm24 0h40v9h-40zm48 0h40v9h-40zm48 0h24v9h-24zm32 0h16v9h-16zm24 0h24v9h-24zm32 0h8v9h-8zm16 0h24v9h-24zm32 0h40v9h-40zm-1856 18h8v9H8zm16 0h48v9H24zm56 0h72v9H80zm80 0h48v9h-48zm56 0h16v9h-16zm24 0h40v9h-40zm48 0h72v9h-72zm80 0h128v9H368zm136 0h72v9h-72zm80 0h80v9h-80zm88 0h48v9h-48zm56 0h16v9h-16zm24 0h56v9h-56zm64 0h8v9h-8zm16 0h64v9h-64zm72 0h8v9h-8zm16 0h72v9h-72zm80 0h72v9h-72zm80 0h48v9h-48zm56 0h48v9h-48zm56 0h32v9h-32zm40 0h40v9h-40zm48 0h8v9h-8zm16 0h80v9h-80zm88 0h88v9h-88zm96 0h8v9h-8zm16 0h32v9h-32zm40 0h56v9h-56zm64 0h72v9h-72zm80 0h56v9h-56zm64 0h72v9h-72zm80 0h64v9h-64zm72 0h16v9h-16zm-1888 18h64v9H8zm80 0h48v9H88zm56 0h64v9h-64zm72 0h64v9h-64zm72 0h72v9h-72zm80 0h16v9h-16zm24 0h16v9h-16zm24 0h32v9h-32zm40 0h48v9h-48zm56 0h48v9h-48zm56 0h32v9h-32zm40 0h56v9h-56zm64 0h40v9h-40zm48 0h72v9h-72zm80 0h64v9h-64zm72 0h8v9h-8zm16 0h112v9H888zm120 0h16v9h-16zm24 0h8v9h-8zm16 0h64v9h-64zm72 0h56v9h-56zm64 0h40v9h-40zm48 0h72v9h-72zm80 0h8v9h-8zm16 0h40v9h-40zm48 0h8v9h-8zm16 0h32v9h-32zm40 0h80v9h-80zm88 0h16v9h-16zm24 0h32v9h-32zm40 0h8v9h-8zm16 0h48v9h-48zm56 0h16v9h-16zm24 0h24v9h-24zm32 0h48v9h-48zm56 0h48v9h-48zm56 0h48v9h-48zm56 0h24v9h-24zm-1872 18h40v9H8zm48 0h48v9H56zm56 0h8v9h-8zm16 0h40v9h-40zm48 0h40v9h-40zm48 0h8v9h-8zm16 0h8v9h-8zm16 0h32v9h-32zm40 0h8v9h-8zm16 0h56v9h-56zm64 0h56v9h-56zm64 0h64v9h-64zm72 0h8v9h-8zm16 0h24v9h-24zm32 0h56v9h-56zm64 0h48v9h-48zm56 0h40v9h-40zm48 0h72v9h-72zm80 0h72v9h-72zm80 0h64v9h-64zm72 0h32v9h-32zm40 0h72v9h-72zm80 0h80v9h-80zm88 0h8v9h-8zm16 0h56v9h-56zm64 0h56v9h-56zm64 0h56v9h-56zm64 0h8v9h-8zm16 0h80v9h-80zm88 0h80v9h-80zm88 0h56v9h-56zm64 0h72v9h-72zm80 0h8v9h-8zm16 0h24v9h-24zm32 0h24v9h-24zm32 0h48v9h-48zm56 0h8v9h-8zm16 0h48v9h-48zm-1856 18h48v9H8zm56 0h8v9h-8zm16 0h56v9H80zm64 0h56v9h-56zm64 0h8v9h-8zm16 0h56v9h-56zm64 0h56v9h-56zm64 0h40v9h-40zm48 0h16v9h-16zm24 0h24v9h-24zm32 0h8v9h-8zm16 0h32v9h-32zm40 0h80v9h-80zm88 0h8v9h-8zm16 0h128v9H616zm136 0h56v9h-56zm64 0h24v9h-24zm32 0h80v9h-80zm88 0h80v9h-80zm88 0h56v9h-56zm64 0h16v9h-16zm24 0h16v9h-16zm24 0h56v9h-56zm64 0h64v9h-64zm72 0h8v9h-8zm16 0h64v9h-64zm72 0h48v9h-48zm56 0h64v9h-64zm72 0h72v9h-72zm80 0h56v9h-56zm64 0h56v9h-56zm64 0h64v9h-64zm72 0h64v9h-64zm72 0h24v9h-24zm32 0h40v9h-40zm-1864 18h32v9H8zm40 0h24v9H48zm32 0h16v9H80zm24 0h56v9h-56zm64 0h40v9h-40zm48 0h16v9h-16zm24 0h24v9h-24zm32 0h64v9h-64zm72 0h16v9h-16zm24 0h24v9h-24zm32 0h48v9h-48zm56 0h48v9h-48zm56 0h8v9h-8zm16 0h32v9h-32zm40 0h56v9h-56zm64 0h80v9h-80zm88 0h56v9h-56zm64 0h8v9h-8zm16 0h56v9h-56zm64 0h64v9h-64zm72 0h8v9h-8zm16 0h8v9h-8zm16 0h32v9h-32zm40 0h16v9h-16zm24 0h48v9h-48zm56 0h64v9h-64zm72 0h8v9h-8zm16 0h8v9h-8zm16 0h32v9h-32zm40 0h8v9h-8zm16 0h56v9h-56zm64 0h56v9h-56zm64 0h56v9h-56zm64 0h8v9h-8zm16 0h40v9h-40zm48 0h24v9h-24zm32 0h32v9h-32zm40 0h72v9h-72zm80 0h48v9h-48zm56 0h8v9h-8zm16 0h24v9h-24zm32 0h16v9h-16zm24 0h56v9h-56zm64 0h8v9h-8zm16 0h24v9h-24zm32 0h16v9h-16zm-1888 18h24v9H8zm32 0h72v9H40zm80 0h48v9h-48zm56 0h72v9h-72zm80 0h8v9h-8zm16 0h48v9h-48zm56 0h56v9h-56zm64 0h8v9h-8zm16 0h24v9h-24zm32 0h8v9h-8zm16 0h24v9h-24zm32 0h40v9h-40zm48 0h40v9h-40zm48 0h72v9h-72zm80 0h8v9h-8zm16 0h64v9h-64zm72 0h8v9h-8zm16 0h56v9h-56zm64 0h40v9h-40zm48 0h32v9h-32zm40 0h16v9h-16zm24 0h24v9h-24zm32 0h8v9h-8zm16 0h16v9h-16zm24 0h48v9h-48zm56 0h32v9h-32zm40 0h16v9h-16zm24 0h88v9h-88zm96 0h8v9h-8zm16 0h16v9h-16zm24 0h24v9h-24zm32 0h16v9h-16zm24 0h16v9h-16zm24 0h56v9h-56zm64 0h56v9h-56zm64 0h8v9h-8zm16 0h24v9h-24zm32 0h40v9h-40zm48 0h48v9h-48zm56 0h40v9h-40zm48 0h24v9h-24zm32 0h80v9h-80zm88 0h8v9h-8zm16 0h16v9h-16zm24 0h56v9h-56zm64 0h8v9h-8zm-1896 18h24v9H8zm32 0h24v9H40zm32 0h48v9H72zm56 0h24v9h-24zm32 0h8v9h-8zm16 0h40v9h-40zm48 0h80v9h-80zm88 0h8v9h-8zm16 0h48v9h-48zm56 0h56v9h-56zm64 0h56v9h-56zm64 0h88v9h-88zm96 0h8v9h-8zm16 0h16v9h-16zm24 0h40v9h-40zm48 0h16v9h-16zm24 0h88v9h-88zm96 0h24v9h-24zm32 0h24v9h-24zm32 0h48v9h-48zm56 0h8v9h-8zm16 0h56v9h-56zm64 0h16v9h-16zm24 0h48v9h-48zm56 0h24v9h-24zm32 0h56v9h-56zm64 0h8v9h-8zm16 0h16v9h-16zm24 0h24v9h-24zm32 0h16v9h-16zm24 0h8v9h-8zm16 0h48v9h-48zm56 0h8v9h-8zm16 0h24v9h-24zm32 0h8v9h-8zm16 0h8v9h-8zm16 0h32v9h-32zm40 0h8v9h-8zm16 0h56v9h-56zm64 0h8v9h-8zm16 0h32v9h-32zm40 0h72v9h-72zm80 0h32v9h-32zm40 0h48v9h-48zm56 0h8v9h-8zm16 0h56v9h-56zm64 0h16v9h-16zm24 0h16v9h-16zm-1888 18h32v9H8zm40 0h80v9H48zm88 0h48v9h-48zm56 0h48v9h-48zm56 0h56v9h-56zm64 0h56v9h-56zm64 0h56v9h-56zm64 0h32v9h-32zm40 0h32v9h-32zm40 0h72v9h-72zm80 0h64v9h-64zm72 0h56v9h-56zm64 0h16v9h-16zm24 0h40v9h-40zm48 0h8v9h-8zm16 0h40v9h-40zm48 0h56v9h-56zm64 0h80v9h-80zm88 0h8v9h-8zm16 0h80v9h-80zm88 0h56v9h-56zm64 0h32v9h-32zm40 0h8v9h-8zm16 0h56v9h-56zm64 0h64v9h-64zm72 0h32v9h-32zm40 0h8v9h-8zm16 0h32v9h-32zm40 0h48v9h-48zm56 0h104v9h-104zm112 0h16v9h-16zm24 0h56v9h-56zm64 0h64v9h-64zm72 0h104v9h-104zm-1800 18h88v9H8zm104 0h80v9h-80zm88 0h48v9h-48zm56 0h8v9h-8zm16 0h32v9h-32zm40 0h56v9h-56zm64 0h16v9h-16zm24 0h56v9h-56zm64 0h80v9h-80zm88 0h64v9h-64zm72 0h48v9h-48zm56 0h32v9h-32zm40 0h72v9h-72zm80 0h56v9h-56zm64 0h96v9h-96zm104 0h16v9h-16zm24 0h72v9h-72zm80 0h88v9h-88zm96 0h48v9h-48zm56 0h8v9h-8zm16 0h56v9h-56zm64 0h80v9h-80zm88 0h16v9h-16zm24 0h80v9h-80zm88 0h88v9h-88zm96 0h136v9h-136zm144 0h72v9h-72zm80 0h56v9h-56zm64 0h24v9h-24zm-1880 18h16v9H8zm24 0h48v9H32zm56 0h80v9H88zm88 0h8v9h-8zm16 0h80v9h-80zm88 0h64v9h-64zm72 0h40v9h-40zm48 0h8v9h-8zm16 0h56v9h-56zm64 0h152v9H480zm160 0h40v9h-40zm48 0h88v9h-88zm96 0h16v9h-16zm24 0h40v9h-40zm48 0h48v9h-48zm56 0h48v9h-48zm56 0h56v9h-56zm64 0h8v9h-8zm16 0h88v9h-88zm96 0h32v9h-32zm40 0h104v9h-104zm112 0h8v9h-8zm16 0h32v9h-32zm40 0h8v9h-8zm16 0h48v9h-48zm56 0h64v9h-64zm72 0h88v9h-88zm96 0h16v9h-16zm24 0h96v9h-96zm104 0h24v9h-24zm32 0h40v9h-40zm48 0h32v9h-32zm40 0h48v9h-48zm56 0h16v9h-16zm-1888 18h56v9H8zm64 0h72v9H72zm80 0h80v9h-80zm88 0h8v9h-8zm16 0h72v9h-72zm80 0h104v9H336zm112 0h56v9h-56zm64 0h72v9h-72zm80 0h8v9h-8zm16 0h8v9h-8zm16 0h48v9h-48zm56 0h48v9h-48zm56 0h40v9h-40zm48 0h64v9h-64zm72 0h8v9h-8zm16 0h56v9h-56zm64 0h56v9h-56zm64 0h8v9h-8zm16 0h64v9h-64zm72 0h80v9h-80zm88 0h72v9h-72zm80 0h8v9h-8zm16 0h80v9h-80zm88 0h96v9h-96zm104 0h96v9h-96zm104 0h8v9h-8zm16 0h48v9h-48zm56 0h88v9h-88zm96 0h72v9h-72zm80 0h48v9h-48zm56 0h40v9h-40zm-1864 18h40v9H8zm56 0h24v9H64zm32 0h56v9H96zm64 0h8v9h-8zm16 0h24v9h-24zm32 0h8v9h-8zm16 0h104v9H224zm112 0h48v9h-48zm56 0h40v9h-40zm48 0h8v9h-8zm16 0h8v9h-8zm16 0h48v9h-48zm56 0h32v9h-32zm40 0h56v9h-56zm64 0h64v9h-64zm72 0h24v9h-24zm32 0h40v9h-40zm48 0h16v9h-16zm24 0h32v9h-32zm40 0h64v9h-64zm72 0h16v9h-16zm24 0h40v9h-40zm48 0h56v9h-56zm64 0h64v9h-64zm72 0h16v9h-16zm24 0h32v9h-32zm40 0h24v9h-24zm32 0h80v9h-80zm88 0h80v9h-80zm88 0h48v9h-48zm56 0h40v9h-40zm48 0h32v9h-32zm40 0h16v9h-16zm24 0h80v9h-80zm88 0h8v9h-8zm16 0h40v9h-40zm48 0h24v9h-24zm32 0h104v9h-104zm112 0h16v9h-16zm24 0h8v9h-8zm16 0h8v9h-8zm-1896 18h80v9H8zm88 0h8v9h-8zm16 0h48v9h-48zm56 0h32v9h-32zm40 0h48v9h-48zm56 0h24v9h-24zm32 0h24v9h-24zm32 0h32v9h-32zm40 0h40v9h-40zm48 0h64v9h-64zm72 0h48v9h-48zm56 0h80v9h-80zm88 0h48v9h-48zm56 0h40v9h-40zm48 0h32v9h-32zm40 0h72v9h-72zm80 0h8v9h-8zm16 0h72v9h-72zm80 0h72v9h-72zm80 0h48v9h-48zm56 0h24v9h-24zm32 0h56v9h-56zm64 0h64v9h-64zm72 0h8v9h-8zm16 0h56v9h-56zm64 0h8v9h-8zm16 0h32v9h-32zm40 0h24v9h-24zm32 0h24v9h-24zm32 0h48v9h-48zm56 0h128v9h-128zm136 0h24v9h-24zm32 0h32v9h-32zm40 0h40v9h-40zm48 0h32v9h-32zm40 0h16v9h-16zm24 0h64v9h-64zm72 0h8v9h-8zm-1896 18h8v9H8zm16 0h112v9H24zm120 0h48v9h-48zm56 0h56v9h-56zm64 0h32v9h-32zm40 0h64v9h-64zm72 0h8v9h-8zm16 0h56v9h-56zm64 0h72v9h-72zm80 0h8v9h-8zm16 0h40v9h-40zm48 0h88v9h-88zm96 0h24v9h-24zm32 0h40v9h-40zm48 0h16v9h-16zm24 0h64v9h-64zm72 0h24v9h-24zm32 0h48v9h-48zm56 0h48v9h-48zm56 0h40v9h-40zm48 0h16v9h-16zm24 0h48v9h-48zm56 0h32v9h-32zm40 0h8v9h-8zm16 0h32v9h-32zm40 0h24v9h-24zm32 0h80v9h-80zm88 0h24v9h-24zm32 0h48v9h-48zm56 0h48v9h-48zm56 0h16v9h-16zm24 0h16v9h-16zm24 0h24v9h-24zm32 0h24v9h-24zm32 0h32v9h-32zm40 0h16v9h-16zm24 0h16v9h-16zm24 0h16v9h-16zm24 0h48v9h-48zm56 0h48v9h-48zm56 0h56v9h-56zm64 0h8v9h-8zm-1896 18h16v9H8zm24 0h32v9H32zm40 0h8v9h-8zm16 0h8v9h-8zm16 0h56v9h-56zm64 0h24v9h-24zm32 0h48v9h-48zm56 0h88v9h-88zm96 0h56v9h-56zm64 0h32v9h-32zm40 0h88v9h-88zm96 0h32v9h-32zm40 0h16v9h-16zm24 0h16v9h-16zm24 0h24v9h-24zm32 0h16v9h-16zm24 0h8v9h-8zm16 0h24v9h-24zm32 0h16v9h-16zm24 0h32v9h-32zm40 0h64v9h-64zm72 0h72v9h-72zm80 0h8v9h-8zm16 0h72v9h-72zm80 0h8v9h-8zm16 0h48v9h-48zm56 0h16v9h-16zm24 0h72v9h-72zm80 0h8v9h-8zm16 0h64v9h-64zm72 0h48v9h-48zm56 0h24v9h-24zm32 0h120v9h-120zm128 0h64v9h-64zm72 0h64v9h-64zm72 0h96v9h-96zm104 0h40v9h-40zm48 0h8v9h-8zm16 0h64v9h-64zm-1840 18h8v9H8zm16 0h56v9H24zm64 0h48v9H88zm56 0h144v9H144zm152 0h8v9h-8zm16 0h40v9h-40zm48 0h32v9h-32zm40 0h48v9h-48zm56 0h56v9h-56zm64 0h24v9h-24zm32 0h96v9h-96zm104 0h16v9h-16zm24 0h16v9h-16zm24 0h72v9h-72zm80 0h24v9h-24zm32 0h72v9h-72zm80 0h80v9h-80zm88 0h48v9h-48zm56 0h56v9h-56zm64 0h56v9h-56zm64 0h48v9h-48zm56 0h8v9h-8zm16 0h16v9h-16zm24 0h136v9h-136zm144 0h24v9h-24zm32 0h56v9h-56zm64 0h56v9h-56zm64 0h24v9h-24zm32 0h64v9h-64zm72 0h64v9h-64zm72 0h8v9h-8zm16 0h56v9h-56zm64 0h8v9h-8zm16 0h64v9h-64zm-1832 18h24v9H8zm32 0h56v9H40zm64 0h112v9H104zm120 0h48v9h-48zm56 0h56v9h-56zm64 0h88v9h-88zm96 0h16v9h-16zm24 0h56v9h-56zm64 0h56v9h-56zm64 0h8v9h-8zm16 0h8v9h-8zm16 0h8v9h-8zm16 0h24v9h-24zm32 0h56v9h-56zm64 0h16v9h-16zm24 0h88v9h-88zm96 0h16v9h-16zm24 0h72v9h-72zm80 0h56v9h-56zm64 0h56v9h-56zm64 0h48v9h-48zm56 0h32v9h-32zm40 0h24v9h-24zm32 0h80v9h-80zm88 0h72v9h-72zm80 0h80v9h-80zm88 0h96v9h-96zm104 0h24v9h-24zm32 0h88v9h-88zm96 0h56v9h-56zm64 0h24v9h-24zm32 0h88v9h-88zm96 0h16v9h-16zm-1888 18h24v9H8zm32 0h72v9H40zm80 0h80v9h-80zm88 0h40v9h-40zm48 0h56v9h-56zm64 0h32v9h-32zm40 0h48v9h-48zm56 0h24v9h-24zm32 0h64v9h-64zm72 0h88v9h-88zm96 0h48v9h-48zm56 0h8v9h-8zm16 0h16v9h-16zm24 0h72v9h-72zm80 0h40v9h-40zm48 0h8v9h-8zm16 0h40v9h-40zm48 0h56v9h-56zm64 0h8v9h-8zm16 0h48v9h-48zm56 0h64v9h-64zm72 0h56v9h-56zm64 0h88v9h-88zm96 0h32v9h-32zm40 0h8v9h-8zm16 0h16v9h-16zm24 0h32v9h-32zm40 0h104v9h-104zm112 0h64v9h-64zm72 0h8v9h-8zm16 0h72v9h-72zm80 0h88v9h-88zm96 0h16v9h-16zm24 0h32v9h-32zm40 0h56v9h-56zm64 0h16v9h-16zm-1888 18h24v9H8zm32 0h112v9H40zm120 0h112v9H160zm120 0h40v9h-40zm48 0h80v9h-80zm88 0h48v9h-48zm56 0h8v9h-8zm16 0h48v9h-48zm56 0h104v9H544zm112 0h64v9h-64zm72 0h8v9h-8zm16 0h48v9h-48zm56 0h80v9h-80zm88 0h32v9h-32zm40 0h48v9h-48zm56 0h48v9h-48zm56 0h16v9h-16zm24 0h72v9h-72zm80 0h16v9h-16zm24 0h56v9h-56zm64 0h48v9h-48zm56 0h72v9h-72zm80 0h24v9h-24zm32 0h8v9h-8zm16 0h24v9h-24zm32 0h16v9h-16zm24 0h88v9h-88zm96 0h56v9h-56zm64 0h72v9h-72zm80 0h24v9h-24zm32 0h16v9h-16zm24 0h40v9h-40zm48 0h40v9h-40zm48 0h48v9h-48zm-1856 18h48v9H8zm56 0h32v9H64zm40 0h112v9H104zm120 0h72v9h-72zm80 0h56v9h-56zm64 0h80v9h-80zm88 0h16v9h-16zm24 0h16v9h-16zm24 0h40v9h-40zm48 0h40v9h-40zm48 0h64v9h-64zm72 0h24v9h-24zm32 0h8v9h-8zm16 0h48v9h-48zm56 0h8v9h-8zm16 0h8v9h-8zm16 0h40v9h-40zm48 0h64v9h-64zm72 0h112v9H928zm120 0h72v9h-72zm80 0h48v9h-48zm56 0h8v9h-8zm16 0h48v9h-48zm56 0h32v9h-32zm40 0h24v9h-24zm32 0h56v9h-56zm64 0h8v9h-8zm16 0h48v9h-48zm56 0h64v9h-64zm72 0h72v9h-72zm80 0h8v9h-8zm16 0h40v9h-40zm48 0h56v9h-56zm64 0h8v9h-8zm16 0h24v9h-24zm32 0h64v9h-64zm72 0h48v9h-48z" fill="#999"/></svg>