<svg version="1.1" xmlns="http://www.w3.org/2000/svg" x="0" y="0" viewBox="0 0 1920 1920" xml:space="preserve"><style type="text/css">.st1{fill:#748993}</style><path fill="#36434f" d="M0 0h1920v1920H0z"/><path class="st1" d="M953.8 198.7c-4.9 13.2-9.8 26.4-15 40.5-67.9 184.3-152.5 413.6-350.2 466-110.1 29.2-187-33-248.8-83-28.8-23.3-55.9-45.2-82.1-54.5-29-10.3-54.2-4.2-79.4 19.2C111.8 648.6 62.5 662 0 659.5v1c62.7 2.5 112.2-11 179-73 24.9-23.1 49.8-29.1 78.4-19 26 9.2 53.1 31.1 81.8 54.4 31.1 25.2 66.3 53.7 107 71.7 46.7 20.8 93.4 24.5 142.7 11.4 198.2-52.6 282.9-282.1 350.9-466.6 5.2-14 10.1-27.3 15-40.5l-1-.2z"/><path class="st1" d="M965.6 204.8c-12.4 33.1-23.1 67.5-34.4 104.1-19 61.2-38.7 124.4-67.6 184.4-48.3 100-116 167.7-201.3 201.3-16 6.3-30.7 11.1-45 14.6-92.1 23-157.9-9.1-199.4-35.3-18.6-11.7-35.5-24.4-51.9-36.6-27.2-20.3-52.8-39.4-78-47.5-27.9-8.9-52.8-3.6-78.5 16.8-78.8 62.6-133.4 70.3-209.5 65v1c12.4.9 24.2 1.4 35.6 1.4 59.1 0 108.2-14 174.4-66.6 55.3-43.9 99.4-11 155.3 30.7 16.4 12.3 33.4 24.9 52 36.6 31.6 19.9 77.3 43.3 138 43.3 19.2 0 39.9-2.3 62.2-7.9 14.3-3.6 29-8.4 45.1-14.7 85.6-33.6 153.5-101.5 201.8-201.7 29-60 48.6-123.3 67.7-184.5 11.3-36.5 22.1-71 34.4-104l-.9-.4z"/><path class="st1" d="M977.4 211c-15.1 40.4-24.9 82.8-35.2 127.7-11.8 51-23.9 103.8-44.8 155.6-28.2 69.8-86.5 162-204.7 204.6-18.5 6.6-32.9 11.1-46.7 14.3-96.1 22.6-161.5-5.1-202.3-27.8-18.8-10.5-35.8-22-52.1-33.2-25.3-17.3-49.3-33.6-73.4-40.4-26.7-7.5-51.3-2.9-77.6 14.6C149.8 686.9 90.7 690 0 683.8v1c39.9 2.7 73.9 3.7 106.6-1.1 44.3-6.6 85.8-24 134.5-56.5 56.6-37.8 97.8-9.8 149.9 25.7 16.4 11.2 33.3 22.7 52.2 33.2 28.5 15.9 56.2 26.3 84.7 31.7 37.3 7.2 77.2 5.9 118.3-3.8 13.9-3.3 28.3-7.7 46.8-14.3 118.5-42.6 177-135.1 205.3-205.1 20.9-51.9 33.1-104.7 44.8-155.7 10.3-44.9 20.1-87.3 35.2-127.6l-.9-.3z"/><path class="st1" d="M989.2 217.1c-16.2 43.3-22.6 88.9-29.4 137.1-6.4 45.8-13 93.1-28.7 141.1-32.8 100.5-106.7 174.3-208 207.9-14.4 4.8-31.2 10.2-48.4 14-74.6 16.5-141.7 9.8-205.3-20.4-19.4-9.2-36.4-19.7-52.9-29.8-23.3-14.3-45.3-27.9-68.3-33.5-25.4-6.2-49.7-2.2-76.6 12.6-102.1 56.2-162.5 56.5-271.7 51v1c109.3 5.5 169.8 5.2 272.2-51.1 58-31.9 95.9-8.7 143.9 20.8 16.5 10.1 33.5 20.6 53 29.8 27.6 13.1 54.9 21.6 83.3 26 38.4 5.9 79.7 4 122.7-5.5 17.3-3.8 34.1-9.2 48.5-14 101.7-33.6 175.8-107.7 208.7-208.5 15.7-48.1 22.3-95.4 28.7-141.2 6.8-48.2 13.1-93.7 29.3-136.9l-1-.4z"/><path class="st1" d="M1001.1 223.3c-16.5 44.2-18.5 90.6-20.7 139.8-1.8 42.8-3.8 87-15.4 133.3-25.4 101-102.4 177.9-211.4 211.2-16.2 4.9-33 10.1-50.2 13.7-113 23.6-184.7-3.9-208.3-12.9-20.2-7.8-37.3-17.1-53.9-26.1-21.1-11.5-41.1-22.4-62.9-26.8-24.1-4.9-48.2-1.6-75.7 10.6-112 49.5-174.2 49.3-302.6 45.7v1c128.6 3.6 190.8 3.8 303.2-45.9 59.5-26.4 94-7.6 137.6 16.2 16.6 9 33.7 18.4 54 26.1 17.4 6.7 44.8 16 81.8 20.3 39.6 4.5 82.3 2.1 127-7.3 17.2-3.6 34-8.7 50.2-13.7 57.1-17.4 104.9-46 142.1-84.9 33.8-35.4 58-79.3 70-126.9 11.6-46.3 13.6-90.6 15.4-133.5 2.1-49.1 4.1-95.5 20.6-139.5l-.8-.4z"/><path class="st1" d="M1013.8 229.8l-.9-.4c-16.5 44-13.7 90.1-10.8 138.9 2.4 41 4.9 83.4-3.2 129.1-18.4 103-96.7 181.2-214.8 214.5l-4.9 1.4c-15.3 4.3-31.1 8.8-47 12-99.7 19.7-165.3 7.4-211.2-5.5-18.8-5.3-34-10.9-48.7-16.3-39.5-14.5-70.8-25.9-138.2-17.7l-.2.1C245.3 739.3 178.6 736 77.7 731c-23.4-1.1-49.2-2.4-77.6-3.1v1c28.3.6 54.2 1.9 77.5 3.1 101.1 5 167.9 8.2 256.7-45.2 67.1-8.1 98.2 3.3 137.6 17.7 14.7 5.4 30 11 48.8 16.3 46.1 13 111.8 25.3 211.7 5.5 15.9-3.1 31.8-7.6 47.1-12l4.9-1.4c61.2-17.3 111.4-46.1 149.3-85.9 34.7-36.4 57.5-81.1 66.2-129.4 8.2-45.7 5.7-88.2 3.2-129.3-2.9-48.7-5.7-94.7 10.7-138.5z"/><path class="st1" d="M1025.1 371.4c-7.9-47.6-15.5-92.5.6-135.4l-.9-.4c-16.1 43.1-8.6 88.2-.6 135.9 6.7 39.9 13.6 81.2 8.6 126.9-11.2 103.6-92.8 185-218.1 217.8-2.9.8-5.9 1.5-8.8 2.3-14.6 3.9-29.7 7.9-44.8 10.7-106.4 19.9-174 8.7-210.4 2.6l-3.9-.6c-20.9-3.5-36.8-7.3-52.3-10.9-33.8-8-63-15-129.3-14.7h-.1l-.1.1c-87 46.8-152.9 44.5-252.7 41-31.3-1.1-66.8-2.3-106.7-2-1.8 0-3.7 0-5.5.1v1c1.8 0 3.7-.1 5.5-.1 39.9-.3 75.4.9 106.7 2 99.9 3.5 165.9 5.8 253.1-41.1 66-.3 95.2 6.6 128.9 14.7 15.5 3.7 31.5 7.5 52.4 10.9l3.9.6c36.4 6.1 104.1 17.4 210.7-2.6 15.1-2.8 30.2-6.8 44.9-10.7 2.9-.8 5.9-1.6 8.8-2.3 65.3-17 117.9-46.2 156.5-86.8 35.5-37.3 57.1-82.9 62.4-131.9 4.7-45.8-2.2-87.2-8.8-127.1z"/><path class="st1" d="M1047 373.2c-12.9-46-25.1-89.5-9.5-131.1l-.9-.4c-15.7 41.9-3.5 85.5 9.5 131.7 11 39.2 22.3 79.7 20.5 126-4.2 105.8-87 188.5-221.5 221.1l-12 3c-14.2 3.5-28.8 7.1-43.3 9.7-74.9 13.3-129.2 10.8-168.8 9-20.5-.9-36.7-1.7-48.4.4-35.8-9-56-9.8-86.5-11-21.5-.9-48.3-2-89.7-6.2h-.1l-.1.1c-84.9 40.2-153.2 38.8-247.6 36.8-33.7-.7-71.9-1.5-115.3-.5-11.3.2-22.3.9-33.1 1.8v1c10.8-1 21.8-1.6 33.1-1.8 43.3-1 81.5-.2 115.2.5 94.5 2 162.8 3.5 247.9-36.8 41.3 4.2 68.1 5.3 89.6 6.2 30.5 1.3 50.6 2.1 86.4 11h.2c11.6-2 27.8-1.3 48.3-.4 39.7 1.8 94 4.3 169-9 14.5-2.6 29.2-6.2 43.4-9.7l12-3c68.4-16.6 125-46.9 163.7-87.7 36.3-38.2 56.5-84.6 58.5-134.4 1.9-46.4-9.5-87-20.5-126.3z"/><path class="st1" d="M1101.3 500.5c-1.3-47.3-18-89.2-32.8-126.2-18.4-46.1-34.3-85.9-19.3-126l-.9-.4c-15.1 40.5.8 80.4 19.3 126.7 14.7 36.9 31.4 78.7 32.7 125.9C1103.2 607 1017 693 875.5 724.9c-4.9 1.1-9.9 2.3-14.7 3.4-13.9 3.2-28.2 6.6-42.3 9-67.8 11.4-119.4 11.5-157 11.6-28.8.1-49.7.1-63.2 5.3-23.2-3.6-38.7-2.3-55.2-.9-24.8 2.1-53 4.5-115.5-8h-.1l-.1.1c-82.3 33.8-148.7 33.2-240.6 32.4-36.6-.3-78.1-.7-125.7 1.2-21.2.8-41.4 2.9-60.7 6v1c19.4-3.2 39.6-5.3 60.8-6.1 47.6-1.9 89.1-1.5 125.7-1.2 92 .8 158.5 1.4 240.9-32.4 62.6 12.5 90.8 10.1 115.7 8 17.1-1.5 32-2.7 55.1.9h.2c13.3-5.2 34.1-5.2 63-5.2 37.7-.1 89.4-.2 157.2-11.6 14.2-2.4 28.5-5.7 42.4-9 4.9-1.1 9.8-2.3 14.7-3.4 72.4-16.3 131.5-46.9 171-88.5 36.7-39.2 55.6-86.5 54.2-137z"/><path class="st1" d="M1135.2 501.5c-4.4-48.5-26.2-89.9-45.4-126.5-23.1-44-43-82-28.6-120.5l-.9-.4c-14.6 38.9 5.5 77.1 28.7 121.3 19.2 36.5 40.9 77.9 45.3 126.2 9.8 107.2-79.8 196.6-228.3 227.7-5.7 1.2-11.5 2.5-17.1 3.7-13.7 3-27.8 6.1-41.7 8.3-60.9 9.7-109.6 11.5-145.2 12.8-38.2 1.4-63.5 2.3-78 11.5-18.8-.9-31.1 2.5-44.2 6.2-24.5 6.8-49.8 13.9-121.1-6.8h-.2l-.2.1c-78.9 27.4-146.1 27.5-231.2 27.7-40.2.1-85.8.2-138.6 3.2-31.5 1.6-60.9 6.1-88.5 12.7v1c27.7-6.6 57-11.1 88.4-12.8 52.9-3 98.4-3.1 138.6-3.2 85.1-.2 152.4-.3 231.3-27.7 71.4 20.7 96.9 13.6 121.5 6.7 13-3.6 25.4-7.1 44.1-6.1h.2l.1-.1c14.2-9.1 39.5-10.1 77.7-11.4 35.6-1.3 84.4-3.1 145.3-12.8 13.9-2.2 28-5.3 41.7-8.3 5.6-1.2 11.4-2.5 17.1-3.7 76.4-16 138-46.9 178.2-89.3 38.1-40.1 55.6-88.3 51-139.5z"/><path class="st1" d="M1169 502.5c-7.7-49.7-34.7-90.9-58.6-127.1-27.5-41.8-51.3-77.9-37.5-114.7l-.9-.4c-13.9 37.2 9.9 73.6 37.6 115.6 23.8 36.2 50.8 77.2 58.4 126.7 16.9 109.5-74 200.2-231.6 231-6.5 1.3-13 2.6-19.4 3.9-14.2 2.9-27.5 5.7-41.2 7.8-54.5 8.3-98.2 10.9-133.3 13.1-48.6 3-78.1 4.7-92.9 18.7-16.3 1.2-27.1 6.9-37.6 12.5-22.3 11.8-45.3 24-122.3-4.7l-.2-.1h-.2c-74.4 21.2-138 21.9-218.4 22.8-44.6.5-95.2 1.1-154.8 5.4-41.9 2.9-80.4 10.8-116 21.9v1.1c35.6-11.1 74.1-19.1 116.1-22 59.6-4.3 110.2-4.9 154.8-5.4 80.5-.9 144.1-1.6 218.5-22.8 77.3 28.8 100.5 16.5 123 4.6 10.9-5.8 21.2-11.3 37.4-12.4h.2l.1-.1c14.5-13.8 43.9-15.6 92.4-18.6 35.2-2.1 78.9-4.8 133.4-13.1 13.7-2.1 27.7-5 41.2-7.8 6.3-1.3 12.9-2.7 19.3-3.9 80.4-15.7 144.6-46.9 185.5-90.1 19.3-20.4 33.1-43 41-67.3 8-23.9 9.9-49.1 6-74.6z"/><path class="st1" d="M1202.8 503.4c-11-51.1-43.6-91.9-72.3-127.9-31.6-39.6-58.9-73.8-45.8-108.8l-.9-.4c-13.3 35.6 14.1 69.9 45.9 109.8 28.6 35.9 61.1 76.5 72.1 127.5 9 41.9 1.1 83-23 119-37.6 56.3-112.9 97.2-212 115.3-7.2 1.3-14.4 2.7-21.4 4.1-14.1 2.7-27.3 5.3-40.9 7.3-48.4 7-88.9 10.1-121.4 12.7-58.1 4.5-93.2 7.3-107.8 26.6-14.5 3.1-23.7 10.9-32.6 18.5-9.9 8.5-20.2 17.2-37.9 19-19.9 2.1-47.4-5-84.1-21.5l-.2-.1h-.2c-68.6 15.2-130.1 16.3-201.4 17.5-50.2.9-107 1.8-175.4 7.9-52.7 4.7-100.2 17-143.5 33.6v1.1c43.3-16.6 90.9-29 143.7-33.5C212 825 268.9 824 319 823.2c71.3-1.2 132.8-2.3 201.4-17.5 82.1 36.9 102.8 19.3 122.9 2.2 8.8-7.5 18-15.3 32.4-18.3h.2l.1-.2c14.3-19.1 49.3-21.8 107.2-26.4 32.6-2.5 73.1-5.7 121.5-12.7 13.5-2 26.8-4.5 40.9-7.3 7-1.4 14.2-2.8 21.4-4.1 51.2-9.3 95.7-24.4 132.5-45 34.8-19.5 61.8-43.3 80.2-70.7 24.2-36.2 32.2-77.6 23.1-119.8z"/><path class="st1" d="M1236.7 504.4c-14.5-52.6-52.8-93-86.6-128.7-35.4-37.3-66-69.6-53.5-102.8l-.9-.4c-12.7 33.8 18.1 66.3 53.7 103.9 33.7 35.5 71.9 75.8 86.3 128.2 11.5 41.7 5.3 83-17.8 119.4-37.2 58.4-115.5 100.4-220.6 118.2-7.9 1.3-15.7 2.8-23.4 4.2-14 2.6-27.2 5-40.6 6.9-42.6 5.8-79.7 9.2-109.5 11.8-70.1 6.3-108.8 9.7-122.7 34.9-13.1 4.8-20.8 14.8-28.3 24.3-18 23-35.1 44.8-120.9 0l-.1-.1h-.2c-60.7 9.7-115.3 10.8-178.4 12-57.1 1.1-121.9 2.4-201.8 10.8-64 6.5-120.6 24.4-171.3 47.1v1.1c50.7-22.8 107.3-40.7 171.4-47.2 79.8-8.4 144.6-9.7 201.7-10.8 63.1-1.2 117.7-2.3 178.4-12 39.3 20.5 66.8 28.5 86.5 25.3 17.6-2.8 26.7-14.4 35.4-25.7 7.5-9.5 15.2-19.4 28.1-24.1l.2-.1.1-.2c13.7-24.9 52.2-28.3 122-34.6 29.8-2.7 66.9-6 109.6-11.8 13.4-1.8 26.7-4.3 40.7-6.9 7.6-1.4 15.5-2.9 23.4-4.2 105.3-17.9 183.9-60 221.3-118.7 23.1-36.2 29.3-77.8 17.8-119.8z"/><path class="st1" d="M1270.5 505.4c-18.1-54.2-62.4-94.2-101.4-129.4-40.5-36.5-72.4-65.3-60.6-96.9l-.9-.4c-12 32.1 20.2 61.2 60.9 98 39 35.2 83.2 75 101.2 129 13.9 41.8 9.5 83.3-12.9 120-36.7 60.4-118 103.4-228.9 120.9-8.5 1.4-17 2.8-25.3 4.3-14 2.4-27.1 4.7-40.5 6.5-37.1 4.8-69.2 8-97.6 10.7-80.4 7.8-124.7 12.1-137.7 43.6-11.8 6.6-18.2 18.5-24.5 30.1-7.4 13.8-14.5 26.9-29.8 31.1-18.9 5.3-47.4-3.8-89.6-28.6l-.1-.1h-.2c-50.2 4.9-97.4 5.6-147.4 6.4-66.1 1-141.1 2.1-236.3 13.7C123.4 873.1 57.8 897.6 0 927v1.1c57.8-29.4 123.5-54 199-62.9 95.2-11.6 170.1-12.7 236.2-13.7 50-.7 97.2-1.4 147.3-6.4 42.4 24.9 71.1 34 90.3 28.6 15.7-4.4 23.2-18.2 30.4-31.6 6.2-11.5 12.6-23.4 24.2-29.8l.2-.1.1-.2c12.6-31.1 56.7-35.4 136.9-43.1 28.3-2.7 60.5-5.9 97.6-10.7 13.4-1.7 26.5-4 40.5-6.5 8.2-1.4 16.7-2.9 25.3-4.3 111.2-17.6 192.8-60.7 229.6-121.4 22.4-36.8 26.9-78.6 12.9-120.6z"/><path class="st1" d="M1304.3 506.4c-21.8-55.9-74.5-97.1-116.9-130.2-43.8-34.2-78.3-61.2-67.2-91l-.9-.4c-11.4 30.5 23.4 57.7 67.5 92.1 42.3 33 94.9 74.1 116.6 129.7 16.3 41.9 13.5 83.6-8.1 120.9-36.2 62.3-120.4 106.1-237.1 123.4-9.2 1.4-18.3 2.9-27.1 4.3-13.9 2.3-27.1 4.4-40.3 6.1-31.9 4-60.4 6.8-85.6 9.4-45.6 4.6-81.5 8.2-106.6 15.4-26.3 7.5-40.5 18.9-45.9 37-10.6 8.3-15.8 22.3-20.8 35.8-6.2 16.8-12.1 32.6-27.3 37.6-18.2 6-46.9-4.3-90.4-32.5l-.1-.1h-.2c-35.7 1.3-69.4 1.3-105.2 1.3-81.6 0-166 0-282 16C139.3 893 64.7 925.3 0 961.4v1.1c64.7-36.2 139.4-68.5 226.7-80.2 116-15.9 200.3-16 281.9-16 35.7 0 69.4 0 105-1.3 43.6 28.3 72.6 38.7 91.1 32.6 15.7-5.2 21.7-21.3 28-38.2 5-13.5 10.1-27.4 20.6-35.5l.1-.1v-.2c11.2-37.7 58.2-42.4 151.8-51.9 25.2-2.5 53.7-5.4 85.6-9.4 13.3-1.7 26.4-3.8 40.4-6.1 8.8-1.4 18-2.9 27.1-4.3 117-17.3 201.5-61.3 237.8-123.9 21.8-37.4 24.6-79.5 8.2-121.6z"/><path class="st1" d="M1338.1 507.4c-25.6-57.6-85.1-98.2-132.9-130.8-46.7-31.9-83.7-57.1-73.1-85.1l-.9-.4c-10.8 28.8 26.4 54.2 73.5 86.3 47.7 32.5 107.1 73 132.6 130.4 18.7 42 17.5 84.2-3.5 121.9-35.7 64.2-122.7 108.8-245.1 125.7-9.8 1.4-19.5 2.9-29 4.3-13.9 2.1-27 4.2-40.2 5.7-26.9 3.2-51.7 5.7-73.6 8-105 10.8-157.8 16.2-167.5 61.3-9.5 9.9-13.5 26-17.3 41.5-4.9 19.9-9.6 38.6-24.9 44.3-17.6 6.5-46.5-5.1-91-36.6l-.1-.1h-.2c-16.2-.4-32.4-.9-48-1.4-102.1-3.1-198.6-6.1-342.6 16C155 913.2 71.3 954.5.1 997.1v1.2c71.2-42.7 155-84 254.3-98.9 143.9-22.1 240.3-19.1 342.4-16 15.6.5 31.7 1 47.9 1.4 44.7 31.6 73.9 43.3 91.8 36.6 15.8-5.9 20.5-24.9 25.5-45 3.8-15.4 7.8-31.4 17.2-41.1l.1-.1v-.1c9.5-44.5 62.1-49.9 166.7-60.7 21.9-2.3 46.7-4.8 73.7-8 13.2-1.6 26.4-3.6 40.3-5.7 9.4-1.5 19.2-3 29-4.3 62.6-8.6 116.1-24.5 158.9-47.2 40.5-21.5 69.8-48 87-78.9 20.9-38.1 22.1-80.6 3.2-122.9z"/><path class="st1" d="M1372 508.4c-29.6-59.4-96.1-99.3-149.6-131.4-49.4-29.6-88.4-53-78.5-79.4l-.9-.4c-10.2 27.2 29.2 50.7 78.9 80.6 53.3 32 119.7 71.8 149.2 130.9 21.1 42.3 21.5 84.9 1 123.1-16.8 31.5-46.4 58.5-88.1 80.3-44.2 23.1-99.6 39.1-164.9 47.5-10.4 1.3-20.8 2.9-30.8 4.3-13.9 2-27 3.9-40.1 5.4-22.1 2.5-43.1 4.6-61.6 6.6-116.3 11.9-174.7 18-182.5 70.3-8.5 11.6-11.3 29.6-14 47.1-3.6 23.1-7 44.8-22.4 51.1-16.8 6.8-46.7-6.5-91.5-40.7l-.1-.1h-.1c-122.2-10.4-228.8-16.1-394.1 11.9C170.2 934 77.3 985.5 0 1033.8v1.2c77.4-48.4 170.3-100 282-118.5 165.1-27.9 271.6-22.2 393.7-11.9 45.7 34.8 75 47.7 92.4 40.7 16-6.4 19.4-28.5 23-51.8 2.7-17.4 5.5-35.4 13.9-46.8l.1-.1v-.1c7.6-51.7 65.8-57.6 181.6-69.5 18.5-1.9 39.5-4.1 61.6-6.6 13.2-1.5 26.3-3.4 40.2-5.4 10-1.5 20.4-3 30.8-4.3 65.4-8.4 121-24.4 165.2-47.6 41.9-21.9 71.7-49.1 88.5-80.7 20.6-38.6 20.2-81.4-1-124z"/><path class="st1" d="M1405.8 509.4C1372 448.1 1298.3 409 1239 377.6c-51.7-27.4-92.5-49.1-83.3-73.8l-.9-.4c-9.6 25.6 31.6 47.4 83.8 75 59.1 31.4 132.8 70.4 166.4 131.4 23.5 42.6 25.4 85.6 5.4 124.5-16.3 31.7-47.3 60.1-89.7 82-45.6 23.5-103.2 39.6-171.1 47.7-11.1 1.3-22.1 2.8-32.7 4.3-13.8 1.9-26.9 3.7-40 5.1-17.5 1.9-33.8 3.5-49.6 5.1-65.4 6.6-112.7 11.4-145.1 22.1-33.9 11.2-49.6 28.2-52.3 57.1-7.4 13.2-9.1 33.3-10.7 52.7-2.2 26.4-4.2 51.3-19.8 57.9-16.3 7-46.5-7.7-92.1-44.8l-.1-.1h-.1c-117.1-17-229.5-22-397.6 9.1C185.2 955.1 82.9 1018.3 0 1071.1v1.2c83-52.8 185.3-116.1 309.6-138.6 167.9-31.1 280.2-26.1 397.1-9.2 46.6 37.8 76.1 52.1 93 44.9 16.1-6.9 18.2-32.1 20.4-58.7 1.6-19.4 3.2-39.4 10.6-52.4l.1-.2c2.7-28.5 18.1-45.3 51.6-56.3 32.3-10.6 79.5-15.4 144.9-22 15.8-1.6 32.1-3.3 49.6-5.1 13.1-1.4 26.2-3.2 40-5.1 10.6-1.5 21.6-3 32.7-4.3 68.1-8.2 125.7-24.3 171.4-47.8 42.6-22 73.8-50.5 90.1-82.4 20.2-39.5 18.3-82.8-5.3-125.7z"/><path class="st1" d="M1439.6 510.3c-38.1-63.2-119.3-101.4-184.6-132.1-53.7-25.3-96.1-45.2-87.5-68.3l-.9-.4c-9 24 33.8 44.1 88 69.6 65.2 30.6 146.3 68.8 184.2 131.7 25.9 43 29.3 86.5 9.8 126-33.7 68.3-131.6 116.2-268.5 131.5-11.7 1.3-23.3 2.8-34.6 4.3-13.8 1.8-26.8 3.5-39.8 4.8-13.1 1.3-25.6 2.6-37.5 3.8-71.7 7.1-123.5 12.2-158.3 24-36.3 12.3-52.5 31.4-54.1 64-6.4 14.8-6.9 36.9-7.4 58.4-.7 29.7-1.4 57.8-17.1 64.8-15.9 7.1-46.2-9-92.8-49l-.1-.1h-.1c-129.6-26.6-245.8-24.7-401 6.4-126.5 24.9-231.6 91.6-316 145.3-7.1 4.5-14.2 9-21.1 13.4v1.2c7.1-4.5 14.3-9 21.6-13.7 84.3-53.6 189.3-120.3 315.6-145.1 155-31.1 271.1-33 400.5-6.5 47.5 40.8 77.2 56.4 93.7 49.1 16.3-7.2 17-35.6 17.7-65.7.5-21.3 1-43.4 7.4-58.1v-.2c3.2-66.5 68.5-73 211.6-87.2 12-1.2 24.5-2.4 37.5-3.8 13-1.3 26.1-3 39.9-4.8 11.2-1.5 22.8-3 34.5-4.3 137.3-15.4 235.4-63.5 269.3-132.1 19.6-39.7 16.2-83.6-9.9-126.9z"/><path class="st1" d="M1473.4 511.3c-18.9-28.9-48.7-55-91.3-79.6-36.7-21.3-76.5-37.9-111.7-52.6-55.4-23.2-99.1-41.5-91.1-63l-.9-.4c-8.4 22.5 33.6 40 91.6 64.3 71.4 29.8 160.2 67 202.6 131.9 28.3 43.4 33.1 87.5 14 127.6-33.3 69.8-133.9 118.4-276.2 133.2-12.4 1.3-24.7 2.8-36.5 4.2-13.7 1.7-26.7 3.3-39.6 4.5l-13 1.3c-80.5 7.8-138.6 13.4-176.5 26.4-38.8 13.3-57.2 34-63.5 71.6-2.4 14.3-1.5 33.4-.6 53.6 1.6 36.2 3.3 73.7-14.8 82.2-16.7 7.8-48.2-9.6-96.5-53.4l-.1-.1h-.1c-123.7-32.8-240.9-31.7-404.5 3.7-124.3 26.4-229 92.8-313.2 146.2-17.8 11.3-35 22.2-51.5 32.1v1.2c16.6-10 34-21 52-32.5 84.1-53.3 188.8-119.7 312.9-146 163.4-35.4 280.4-36.5 403.9-3.7 48.6 44 80.5 61.5 97.5 53.5 18.8-8.8 17.1-46.6 15.4-83.2-.9-20.2-1.8-39.2.6-53.4 6.2-37.2 24.4-57.7 62.8-70.8 37.8-12.9 95.9-18.6 176.3-26.4l13-1.3c13-1.3 25.9-2.8 39.7-4.5 11.8-1.4 24.1-2.9 36.5-4.2 142.6-14.9 243.5-63.6 277-133.8 19.2-40.4 14.3-84.9-14.2-128.6z"/><path class="st1" d="M1507.3 512.3c-47.1-67.1-148.2-104.8-222-132.2-48.3-18-86.5-32.2-93.7-48-1.5-3.3-1.6-6.5-.4-9.8l-.9-.4c-1.3 3.5-1.2 7.1.4 10.6 7.4 16.2 45.7 30.5 94.3 48.5 73.7 27.4 174.6 65 221.5 131.9 30.7 43.8 37 88.5 18.2 129.4-15.5 33.7-48.2 63.6-94.4 86.5-49.9 24.7-113.5 40.9-189.3 48.3-13.1 1.3-26 2.8-38.5 4.2-13.6 1.6-26.5 3-39.4 4.2l-4.3.4c-85.9 7.9-148 13.7-187.8 27.7-40.7 14.3-59.2 37.1-63.8 78.7-1.7 15.6 0 36.4 1.8 58.5 3.3 39.8 6.7 81-11.5 89.8-16.3 7.8-48-11-97-57.5l-.2-.1c-119.6-38.8-237.8-38.5-408 1-122 27.8-226.4 93.9-310.3 147-29.1 18.4-56.7 35.9-82 49.8v1.1c25.4-14 53.2-31.6 82.5-50.1 83.9-53.1 188.2-119.1 310-146.9 169.9-39.4 287.9-39.7 407.3-1 42 39.8 71.5 59.4 89.6 59.4 3.2 0 6-.6 8.4-1.8 18.9-9.1 15.4-50.6 12.1-90.8-1.8-22-3.5-42.8-1.8-58.3 9.3-83.2 75-89.2 250.7-105.5l4.3-.4c12.9-1.2 25.7-2.7 39.4-4.2 12.5-1.4 25.4-2.9 38.5-4.2 75.9-7.4 139.7-23.6 189.6-48.4 46.5-23 79.3-53.1 94.9-87 19-41.2 12.7-86.3-18.2-130.4z"/><path class="st1" d="M20.6 1205.3l-.5-.9c28.2-15 59.4-34.8 92.5-55.7 83.6-52.9 187.6-118.6 307.4-147.8 88.1-21.8 159.2-32 223.9-32.1h.9c66.1 0 127.2 11.1 186.6 33.9l.2.1c49.8 49.2 81.7 69.4 97.5 61.6 18.3-8.9 13.1-53.8 8.2-97.2-2.8-23.9-5.3-46.5-4.3-63.5 2.9-45.2 21.2-69.9 63.1-85.3 41.8-15.4 106.3-21.1 195.7-28.9 12.7-1.1 25.5-2.5 39-4 13.1-1.4 26.7-2.9 40.6-4.1 78.3-7 144-23.3 195.2-48.4 47.5-23.2 80.8-53.6 96.1-88 18.5-41.6 10.8-86.9-22.4-131.2-51.6-69-161.1-105.2-241.1-131.7-50-16.6-89.5-29.6-96.7-44.8-1.5-3.1-1.6-6.2-.4-9.3l.9.4c-1.1 2.9-1 5.7.4 8.5 7.1 14.8 46.4 27.8 96.1 44.3 80.1 26.5 189.7 62.9 241.6 132.1 33.4 44.6 41.1 90.3 22.5 132.2-15.4 34.5-48.8 65.1-96.5 88.5-51.4 25.1-117.2 41.4-195.6 48.5-13.8 1.2-27.4 2.7-40.6 4.1-13.5 1.5-26.3 2.8-39 4-89.3 7.9-153.8 13.6-195.5 28.9-41.5 15.3-59.6 39.7-62.4 84.4-1.1 16.9 1.5 39.5 4.3 63.3 5 43.8 10.2 89-8.7 98.2-16.3 7.9-48.6-12.3-98.6-61.8-116.4-44.6-235.5-45.1-410.7-1.7-119.6 29.1-223.5 94.8-307.1 147.7-33.2 20.9-64.4 40.7-92.6 55.7z"/><path class="st1" d="M45 1226.7l-.5-.9c30-15.7 63.4-36.8 98.8-59.2 83.2-52.6 186.8-118.1 304.3-148.5 89.4-23.5 161-34.5 225.5-34.5h.1c68.1 0 130 12.8 189.3 39l.2.1c50.5 51.9 82.7 73.4 98.2 65.8 18.3-9 11.4-57.6 4.7-104.5-3.7-25.8-7.2-50.3-6.7-68.7.6-24.5 5.6-43.4 15.4-58 9.8-14.6 24.4-25.2 45.9-33.6 40.7-15.8 102.8-22 200.4-30.1 12.6-1.1 25.2-2.3 38.6-3.7 13.8-1.4 28.1-2.9 42.7-4.1 80.8-6.8 148.5-23 201.1-48.4 48.8-23.5 82.6-54.4 97.7-89.3 18.3-42.3 9.1-88.3-26.5-133.1-56.5-71.1-174.8-106-261.2-131.4-51.1-15.1-91.5-27-98.6-41.1-1.3-2.7-1.5-5.4-.5-8.2l.9.4c-.9 2.5-.8 4.9.4 7.4 6.8 13.7 47.1 25.6 98 40.6 86.5 25.5 205 60.4 261.7 131.8 35.8 45.1 45 91.4 26.6 134.1-15.2 35.2-49.1 66.2-98.2 89.8-52.8 25.4-120.6 41.8-201.5 48.5-14.6 1.2-28.9 2.7-42.7 4.1-13.4 1.4-26 2.6-38.6 3.7-97.5 8.2-159.5 14.3-200.1 30.1-42 16.4-59.6 42.7-60.7 90.7-.4 18.3 3.1 42.7 6.7 68.5 6.8 47.3 13.7 96.2-5.2 105.6-2.1 1-4.5 1.6-7.3 1.6-17.7 0-48-22.2-92-67.5-114.3-50.5-234.2-51.7-414.2-4.4-117.3 30.4-220.8 95.8-304 148.4-35.3 22.1-68.7 43.3-98.7 59z"/><path class="st1" d="M69.4 1248l-.5-.9c31.8-16.3 67.4-38.9 105.2-62.7 87.1-55.1 185.8-117.5 301.1-149.2 90.2-25.1 162.1-36.8 226.3-36.8h1c69.6.1 132 14.5 191 44.1l.1.1c51.4 54.6 83.8 77.5 99 70 18.3-9.1 9.6-61.3 1.2-111.8-4.6-27.8-9-54.1-9.3-73.9-.3-26.1 4.2-46.3 13.7-61.9 9.5-15.4 24.5-27.2 46-36 42.1-17.3 108.5-23.7 205-31.4 12.4-1 24.8-2.2 38-3.4 14.6-1.4 29.6-2.8 45.1-4 83.3-6.4 152.9-22.7 207-48.5 50.1-23.8 84.4-55.2 99.3-90.7 18.1-43.1 7.5-89.8-30.6-135-61.6-73.3-189-106.6-282-131-54-14.1-93.1-24.4-99.9-37.4-1.2-2.3-1.4-4.7-.5-7.2l.9.4c-.8 2.2-.7 4.3.4 6.4 6.6 12.7 47.5 23.4 99.2 36.9 44.9 11.7 100.7 26.4 152.2 47 60.3 24.2 102.9 51.7 130.2 84.3 19.1 22.8 31.4 46.1 36.6 69.4 5.1 22.9 3.1 45.4-5.9 66.7-15 35.7-49.5 67.3-99.8 91.2-54.2 25.8-123.9 42.1-207.3 48.5-15.4 1.2-30.5 2.6-45 4-13.2 1.3-25.6 2.4-38 3.4-96.4 7.7-162.7 14-204.7 31.3-42.6 17.5-59.7 45.6-59.1 96.9.2 19.8 4.6 46 9.2 73.8 8.5 50.8 17.2 103.4-1.7 112.8-2 1-4.2 1.5-6.7 1.5-17.5 0-48.2-23.6-93.3-71.6-112.6-56.3-233.6-58.4-417.6-7.1-115.1 31.6-213.8 94-300.8 149-37.5 23.9-73.2 46.4-105 62.8z"/><path class="st1" d="M93.8 1269.3l-.5-.9c33.6-17 71.5-41 111.7-66.4 86.6-54.8 184.7-117 297.8-149.7 77.2-22.7 158.9-44 233.7-46.2 76.1-2.3 137.7 16.1 188.1 56.2 62.6 49.6 99.8 69.2 113.9 59.8 15-10 3.2-51.9-9.3-96.2-8.8-31-17.8-63-18.9-87.6-1.2-27.7 2.7-49.1 12-65.7 9.2-16.4 24.3-29 46-38.4 43.5-18.8 114.3-25.4 209.6-32.6 12.1-.9 24.3-2 37.3-3.2 15.3-1.4 31.2-2.8 47.5-4 85.7-6.1 157.3-22.4 212.8-48.5 51.3-24.1 86.2-55.9 101-92 17.9-43.8 5.9-91.2-34.6-137-66.9-75.5-209.1-108.5-303.3-130.3-54.6-12.7-94.1-21.8-100.6-33.9-1.1-2-1.2-4.1-.4-6.3l.9.4c-.7 1.9-.6 3.6.4 5.4 6.3 11.7 47.6 21.3 99.9 33.4 47.8 11.1 107.4 24.9 162.9 45.2 65.2 23.9 111.3 51.9 140.9 85.4 20.4 23 33.7 46.7 39.5 70.4 5.7 23.3 4.2 46.1-4.7 67.7-14.8 36.3-49.9 68.3-101.5 92.5-55.6 26.1-127.3 42.4-213.1 48.6-16.3 1.2-32.2 2.6-47.5 4-12.9 1.2-25.1 2.2-37.3 3.2-193.2 14.7-271.4 25-266.7 135.6 1.1 24.5 10.1 56.5 18.8 87.4 12.6 44.7 24.6 86.9 8.9 97.3-14.7 9.8-51.2-9.3-115-59.9-113.5-90-263.9-56-421-9.8-112.9 32.7-211 94.8-297.5 149.6-40.1 25.5-78 49.5-111.7 66.5z"/><path class="st1" d="M118.3 1290.6l-.4-.9c35.4-17.6 75.7-43.1 118.3-70.1 86-54.6 183.5-116.4 294.4-150.2 73.2-22.6 158.4-46 235.4-48 77-1.9 139.1 17.9 189.9 60.7 62.9 52.9 100.2 74.2 114.2 65.1 15.3-10 2-55.4-12.1-103.4-9.8-33.3-19.9-67.7-21.7-94-4.1-57.5 12.8-90.5 56.4-110.3 44.8-20.3 120.2-27.1 214.1-33.9 11.8-.9 23.7-1.8 36.3-2.9 16.2-1.4 32.9-2.8 50.2-3.9 170.3-11.2 290.3-64.2 321.2-141.7 17.7-44.6 4.4-92.7-38.7-139.1-72.3-77.9-224.5-108.9-325.2-129.5-54.9-11.2-94.6-19.3-100.7-30.4-1-1.8-1.1-3.6-.4-5.4l.9.4c-.6 1.6-.5 3.1.4 4.6 5.9 10.7 45.4 18.7 100 29.9 100.8 20.6 253.2 51.7 325.7 129.8 21.6 23.3 35.9 47.3 42.4 71.3 6.4 23.6 5.2 46.8-3.5 68.8-14.7 36.9-50.3 69.4-103.1 93.8-57 26.4-130.6 42.7-218.9 48.5-17.2 1.1-34 2.5-50.2 3.9-12.6 1.1-24.5 2-36.3 2.9-93.8 6.8-169.1 13.6-213.8 33.8-43.1 19.5-59.8 52.2-55.8 109.3 1.8 26.2 11.9 60.5 21.7 93.8 14.2 48.4 27.6 94.1 11.7 104.5-14.6 9.5-51.2-11.2-115.4-65.2-104.1-87.5-239.6-69.7-424.4-12.5-110.7 33.8-208.2 95.6-294.1 150.1-42.8 27.1-83.1 52.6-118.5 70.2z"/><path class="st1" d="M142.7 1311.9l-.4-.9c37.3-18.2 79.9-45.2 125-73.9 85.4-54.3 182.2-115.8 290.9-150.7 103.5-33.6 174.4-48.5 237.1-49.7 77.9-1.6 140.6 19.7 191.7 65.2 63.2 56.2 100.7 79.2 114.5 70.3 15.6-9.9.8-58.9-14.9-110.7-10.8-35.6-21.9-72.3-24.5-100.3-3.9-41.4 2.5-70.3 20.1-91 16.7-19.7 44.8-33.2 88.3-42.3 40.9-8.6 93.5-13.4 165.1-18.3 11.5-.8 23-1.7 35.2-2.6 17.1-1.3 34.8-2.7 53.1-3.8 175.2-10.6 298-64.1 328.6-143 17.6-45.5 2.9-94.3-42.7-141.2-77.9-80.2-240.3-109.2-347.7-128.4-54.8-9.8-94.5-16.9-100.2-27-.9-1.5-1-3.1-.4-4.7l.9.4c-.5 1.3-.4 2.6.3 3.9 5.5 9.7 45 16.8 99.6 26.5 107.6 19.2 270.1 48.2 348.2 128.7 22.9 23.6 38.1 47.9 45.3 72.3 7.1 24 6.3 47.5-2.4 69.9-30.7 79.3-153.9 133-329.4 143.6-18.3 1.1-35.9 2.5-53 3.8-12.2 1-23.7 1.9-35.2 2.6-129.2 8.9-216.7 17.8-252.7 60.3-17.4 20.5-23.7 49.2-19.8 90.3 2.6 27.9 13.7 64.6 24.5 100.1 15.8 52.2 30.7 101.5 14.5 111.8-14.5 9.2-51.2-13.1-115.7-70.4-105.4-93.7-247.3-73.8-427.8-15.2-108.5 34.8-205.3 96.3-290.6 150.5-45.6 28.7-88.2 55.8-125.5 73.9z"/><path class="st1" d="M167.1 1333.2l-.4-.9c39.1-18.7 84.1-47.4 131.8-77.8 84.7-54 180.8-115.2 287.2-151 68.7-23.3 157.9-50.3 238.6-51.6 78.7-1.3 142.1 21.6 193.6 69.7 63.6 59.4 101.1 84.1 114.8 75.5 15.7-9.9-.5-62.4-17.8-118-11.7-37.8-23.8-76.9-27.3-106.5-5.1-44.2 1-75.1 19.3-97 17-20.3 45.4-34.2 89.6-43.6 42.1-9 97.4-13.9 167.5-18.4 11-.7 22-1.5 33.7-2.4 18.1-1.3 36.9-2.7 56.3-3.8 180-10 305.6-63.9 336-144.2 17.3-45.6.7-96.5-46.7-143.3-83.7-82.7-256.5-109.5-370.8-127.2-54.5-8.4-93.8-14.5-99.2-23.7-.8-1.3-.9-2.7-.4-4l.9.4c-.4 1.1-.3 2.1.3 3.2 5.1 8.8 44.3 14.9 98.5 23.3 56.8 8.8 127.5 19.8 195.9 39.1 81 22.9 138.4 51.8 175.4 88.4 24.1 23.8 40.4 48.5 48.3 73.4 7.7 24.3 7.3 48.2-1.3 71-14.4 38-51.2 71.4-106.6 96.4-58.9 26.6-138.5 43.4-230.3 48.5-19.4 1.1-38.2 2.4-56.3 3.8-11.7.8-22.7 1.7-33.7 2.4-149.8 9.8-222.4 21-256.4 61.7-18.1 21.7-24.2 52.3-19.1 96.3 3.4 29.5 15.5 68.6 27.2 106.4 17.3 56 33.7 108.8 17.3 119.1-1.9 1.2-4.3 1.8-7.1 1.8-17.7 0-52.9-25.1-109-77.5-107.1-100.1-249.8-79.6-431.2-17.9-106.4 35.7-202.3 96.9-287 150.9-47.4 30.1-92.4 58.8-131.6 77.5z"/><path class="st1" d="M191.6 1354.6l-.4-.9c41-19.3 88.5-49.6 138.7-81.8 84-53.7 179.2-114.6 283.5-151.2 102-36.2 176.1-52.7 240.2-53.4 79.6-.9 143.5 23.4 195.5 74.3 63.9 62.6 101.6 89 115.1 80.7 15.9-9.8-1.9-65.9-20.6-125.3-12.7-40-25.8-81.5-30-112.8-6.4-47.2-.5-79.9 18.5-103.1 34.8-42.4 111.8-54.2 260.8-63.4 10.4-.6 20.8-1.3 31.8-2.1 19.3-1.3 39.2-2.7 59.9-3.7 94-4.8 175.5-21.5 235.6-48.3 56.3-25.1 93.6-58.7 107.8-97 17.2-46.4-.8-98.1-50.7-145.5-89.8-85.3-280.6-110.6-394.5-125.8-55.7-7.4-92.5-12.3-97.5-20.6-.7-1.1-.8-2.3-.3-3.5l.9.4c-.3.9-.3 1.8.2 2.6 4.7 7.9 43.3 13 96.8 20.1C1497 409.5 1688 434.9 1778 520.4c25.4 24.1 42.7 49.2 51.2 74.4 8.4 24.7 8.3 49-.3 72.2-14.3 38.6-51.7 72.3-108.3 97.6-60.3 26.9-141.9 43.6-236 48.4-20.7 1.1-40.6 2.4-59.9 3.7-11 .7-21.4 1.5-31.8 2.1-148.7 9.2-225.5 21-260.1 63.1-18.8 23-24.6 55.5-18.3 102.3 4.2 31.2 17.3 72.6 30 112.6 18.9 59.8 36.8 116.3 20.2 126.4-1.8 1.1-3.9 1.7-6.5 1.7-17.5 0-52.9-26.7-109.9-82.5-115.1-112.9-276.9-76.6-434.7-20.7-104.2 36.6-199.4 97.5-283.3 151.1-50.2 32.1-97.7 62.5-138.7 81.8z"/><path class="st1" d="M216 1375.9l-.4-.9c42.9-19.8 92.9-51.9 145.7-85.8 83.2-53.4 177.5-113.9 279.7-151.4 102-37.7 176.5-54.8 241.7-55.3 80.4-.7 145 25.2 197.4 78.9 64.3 65.9 102 94 115.4 85.9 16-9.6-3.2-69.4-23.6-132.6-13.6-42.3-27.6-85.9-32.7-118.9-7.7-50.1-2.1-84.8 17.7-109.2 17.4-21.6 46.8-36.2 92.3-46.2 47.3-10.3 110.7-15.1 172.3-18.7 9.6-.6 19.2-1.2 29.4-1.8 20.6-1.3 41.8-2.6 64-3.7 96.3-4.4 179.8-21.1 241.3-48.3 57.5-25.4 95.4-59.3 109.5-98.2 17.1-47.3-2.3-99.7-54.7-147.7-96-87.9-298.1-110.6-418.9-124.2-54.6-6.1-90.6-10.2-95.2-17.6-.6-.9-.7-1.9-.3-2.9l.9.4c-.3.7-.2 1.4.2 2.1 4.3 7 42.1 11.3 94.4 17.1 120.9 13.6 323.2 36.3 419.5 124.4 26.7 24.4 44.9 49.8 54.2 75.4 9.1 25.1 9.3 49.7.8 73.3-14.2 39.2-52.2 73.3-110 98.8-61.6 27.2-145.2 43.9-241.6 48.3-22.2 1-43.5 2.4-64 3.7-10.2.6-19.8 1.2-29.4 1.8-61.5 3.6-124.9 8.4-172.1 18.6-45.3 9.9-74.4 24.4-91.7 45.8-19.6 24.2-25.1 58.6-17.5 108.4 5 32.9 19.1 76.5 32.6 118.8 20.5 63.6 39.8 123.7 23.1 133.8-1.7 1-3.6 1.5-5.9 1.5-17.3 0-52.9-28.3-110.7-87.5-116.8-119.7-279.6-82-438.1-23.4-102.1 37.4-196.3 97.9-279.5 151.3-52.9 34-102.8 66.1-145.8 86z"/><path class="st1" d="M240.4 1397.2l-.4-.9c44.8-20.3 97.3-54.2 152.9-90 82.4-53.1 175.7-113.2 275.7-151.4 100.7-38.7 177.9-56.9 243.2-57.2h1.5c80.6 0 145.3 27.3 197.9 83.5 64.6 69.1 102.5 98.8 115.7 91 16.1-9.5-4.6-72.9-26.5-140-14.5-44.4-29.5-90.4-35.3-125-9-53.1-3.6-89.7 16.9-115.3 36.2-45.3 118.8-57.9 268.3-66.2 8.6-.5 17.4-1 26.3-1.5 22.1-1.3 44.9-2.6 68.8-3.6 98.6-4.1 184-20.8 246.9-48.2 58.8-25.6 97.3-60 111.3-99.4 17.1-48.1-3.8-101.3-58.7-149.9-44.4-39.2-116.3-69.8-213.8-90.8-82.7-17.8-167.9-25.7-230.1-31.5-53-4.9-88.1-8.2-92.2-14.8-.5-.8-.6-1.6-.3-2.5l.9.4c-.2.6-.2 1.1.2 1.6 3.9 6.2 40.6 9.6 91.5 14.3 62.3 5.8 147.5 13.7 230.2 31.5 97.6 21 169.7 51.7 214.2 91 28 24.7 47.2 50.5 57.2 76.5 9.7 25.5 10.4 50.5 1.9 74.5-14.1 39.7-52.7 74.3-111.8 100-63 27.5-148.5 44.1-247.3 48.3-23.9 1-46.8 2.3-68.8 3.6-8.9.5-17.7 1-26.3 1.5-149.2 8.3-231.6 20.7-267.6 65.8-20.3 25.4-25.6 61.8-16.6 114.5 5.8 34.5 20.8 80.4 35.3 124.8 22 67.5 42.8 131.3 26.1 141.2-1.5.9-3.3 1.4-5.4 1.4-17 0-52.9-29.8-111.5-92.5-118.5-126.7-282.2-87.4-441.5-26.1-99.9 38.1-193.2 98.3-275.5 151.3-55.9 35.9-108.4 69.7-153.3 90.1z"/><path class="st1" d="M1879.4 523.3c-109.6-93.7-344.2-111.1-470.2-120.5-49-3.6-84.4-6.3-87.8-11.6-.3-.4-.3-.8-.1-1.2l-.9-.4c-.3.7-.2 1.4.2 2.1 3.7 5.8 37.5 8.3 88.6 12.1 125.9 9.4 360.3 26.8 469.6 120.2 16.8 14.4 30.6 29.2 41.3 44.1v-1.7c-10.7-14.5-24.3-29-40.7-43.1zm-51 253.5c-64.3 27.7-151.6 44.3-252.5 48.1-26.1 1-50.7 2.3-74.6 3.6-7.5.4-15 .8-22.3 1.2-84.5 4.4-137.5 10.1-177.1 18.9-46.8 10.4-77 25.8-95 48.6-21.2 26.8-26.3 65.4-16 121.5 6.7 36.2 22.6 84.4 37.9 131 23.4 71 45.6 138.1 29.5 147.4-13.1 7.6-51.1-23.8-116-96.1-53.3-59.3-119.1-88.2-201.1-88.2h-.2c-66.2 0-143.9 18.8-244.7 59.1-97.9 38.8-190.2 98.6-271.6 151.4-58.3 37.8-113.4 73.4-160.1 94.3l.4.9c46.8-20.9 101.9-56.6 160.3-94.3 81.4-52.7 173.7-112.5 271.5-151.3 152.4-60.9 324.5-105.2 444.9 28.8 59.4 66.1 95.5 97.5 112.3 97.5 1.9 0 3.6-.4 5-1.2 16.8-9.8-5.5-77.2-29-148.6-15.4-46.5-31.3-94.7-37.9-130.9-10.2-55.7-5.2-94.1 15.8-120.7 17.8-22.6 47.8-37.9 94.4-48.2 39.6-8.8 92.5-14.4 177-18.9 7.3-.4 14.7-.8 22.3-1.2 23.9-1.3 48.5-2.6 74.6-3.6 101.1-3.8 188.5-20.5 252.9-48.2 40.1-17.3 70.9-38.6 91.2-62.8v-1.6c-20.4 24.6-51.4 46.1-91.9 63.5z"/><path class="st1" d="M1864.5 781.3c-65.6 27.9-154.9 44.5-258.1 48-28.7 1-55.6 2.3-81.7 3.6-5.7.3-11.3.6-16.9.8-149.9 7.4-238.3 20.6-275.9 68.8-21.9 28.1-26.7 68.6-15.1 127.6 7.4 37.8 24.3 88.2 40.5 136.9 25 74.9 48.6 145.7 32.5 154.9-13 7.4-51-25.7-116.4-101.2-53.9-62.2-120.4-92.6-203.4-92.8h-.9c-66.8 0-144.8 19.4-245.2 61.1-95.7 39.4-187 98.8-267.5 151.2-61.1 39.8-118.8 77.3-167.5 98.7l.4.9c48.8-21.4 106.5-59 167.7-98.7 80.5-52.4 171.7-111.7 267.3-151.1 153.2-63.5 326.2-109.5 448.3 31.5 60.2 69.5 96.5 102.5 113 102.5 1.8 0 3.3-.4 4.6-1.1 16.8-9.6-6.9-80.8-32-156.1-16.2-48.7-33-99-40.5-136.8-11.6-58.7-6.8-99 14.9-126.8 37.4-47.8 125.6-60.9 275.2-68.4 5.6-.3 11.2-.6 16.9-.8 26.1-1.3 53-2.7 81.7-3.6 103.4-3.5 192.7-20.1 258.5-48.1 21-8.9 39.4-18.9 55.2-29.8v-1.2c-15.9 10.9-34.5 21-55.6 30zm48.7-257c-116.6-96.6-363.8-110.6-496.6-118.2-46.7-2.6-80.5-4.6-83.5-9.1-.2-.3-.2-.5-.1-.9l-.9-.4c-.2.6-.2 1.2.2 1.7 3.3 5 33.7 6.7 84.2 9.6 132.7 7.5 379.6 21.5 496 117.9 2.6 2.1 5 4.2 7.5 6.4V530c-2.2-1.8-4.5-3.7-6.8-5.7z"/><path class="st1" d="M1900.5 785.7c-67 28.2-158.2 44.8-263.7 47.9-32.1 1-62 2.4-91 3.7l-9.4.4c-86.1 4-140.5 9.8-182 19.1-48.2 10.9-79.2 27-97.7 50.9-22.7 29.3-27.2 71.8-14.2 133.8 8.2 39.4 25.9 92 43 142.7 26.6 78.9 51.7 153.4 35.6 162.4-12.8 7.2-50.9-27.6-116.7-106.2-54.5-65.1-121.6-97-205.4-97.5h-2c-67.4 0-145.5 20.1-245.5 63-93.6 40-183.7 98.9-263.2 150.9-63.9 41.8-124.3 81.3-175 103.2l.4.9c50.8-21.9 111.2-61.4 175.2-103.2 79.4-52 169.5-110.9 263-150.8 153.9-66.1 328-113.8 451.8 34.2 60.9 72.9 97.5 107.4 113.7 107.4 1.6 0 3-.3 4.3-1 16.8-9.4-8.4-84.3-35.1-163.6-17.1-50.8-34.8-103.2-43-142.6-12.9-61.7-8.4-104 14-133 18.4-23.7 49.2-39.8 97.2-50.6 41.4-9.3 95.8-15 181.8-19.1l9.4-.4c28.9-1.4 58.8-2.8 90.9-3.7 105.7-3.1 197-19.7 264.1-48 6.6-2.8 13-5.7 19.1-8.7v-1.1c-6.3 3.2-12.8 6.2-19.6 9zm-212-353.6c-98.8-15.8-198.9-19.7-265.2-22.4-44-1.7-75.8-3-78.4-6.8-.1-.2-.1-.3-.1-.5l-.9-.4c-.2.5-.1 1 .2 1.5 2.8 4.2 31.6 5.4 79.2 7.3 66.2 2.6 166.4 6.6 265.1 22.3 100.1 16 177.8 41 231.7 74.4v-1.2c-54-33.3-131.7-58.2-231.6-74.2z"/><path class="st1" d="M1667.2 838c-36.8 1-71.5 2.5-102.1 3.8-86.9 3.8-142.1 9.6-184.4 19.2-48.9 11.1-80.4 27.6-99.1 52.1-23.4 30.5-27.6 75-13.3 140 9 41 27.6 95.6 45.5 148.5 28.2 82.9 54.8 161.1 38.7 170-12.6 6.9-50.9-29.4-117-111.2-55-68-122.9-101.5-207.4-102.2h-3c-67.9 0-146.2 20.7-246 65-91.5 40.4-180.3 98.9-258.7 150.5-66.8 44-129.9 85.5-182.6 107.8l.4.9c52.8-22.4 116-63.9 182.8-107.9 78.4-51.6 167.2-110 258.6-150.4 154.7-68.7 329.8-118.1 455.2 36.9 61.7 76.2 98.4 112.4 114.3 112.4 1.5 0 2.8-.3 3.9-.9 16.8-9.3-9.9-87.9-38.2-171.2-17.9-52.8-36.5-107.4-45.5-148.4-14.3-64.7-10.1-109 13.1-139.2 38.8-50.5 133.1-64.3 282.8-70.9 30.6-1.4 65.2-2.9 102-3.8 99.3-2.6 186.2-16.8 252.7-41.3v-1.1c-66.4 24.6-153.3 38.8-252.7 41.4zm-238-424.4c-40.9-.9-70.4-1.6-72.5-4.7-.1-.1-.1-.2 0-.3l-.9-.4c-.2.4-.1.8.1 1.2 2.3 3.4 25.4 4.1 73.3 5.2 117.9 2.7 346.3 8 490.8 76.3v-1.1c-144.7-68.2-372.9-73.5-490.8-76.2z"/><path class="st1" d="M1697.7 842.3c-36.9.8-71.7 2.2-103.8 3.5-151.9 6.3-247.6 20.2-287.4 72.5-24.2 31.7-28.1 78.2-12.4 146.3 9.8 42.6 29.2 99.3 48 154.1 29.7 86.9 57.8 169 41.8 177.7-12.4 6.7-50.8-31.3-117.3-116.1-55.6-71-124.1-105.9-209.5-107-69.4-.8-148.9 20.5-250.3 67-89.3 40.8-176.9 98.8-254.2 150-69.7 46.2-135.6 89.8-190.4 112.5l.4.9c54.9-22.8 120.8-66.5 190.6-112.6 77.2-51.1 164.8-109.1 254-149.9 146.4-67.2 330.8-123.4 458.6 39.7 62.4 79.6 99.2 117.3 114.9 117.3 1.4 0 2.6-.3 3.6-.9 16.8-9.1-11.5-91.6-41.3-178.9-18.8-54.8-38.2-111.5-48-154-15.6-67.8-11.8-114 12.2-145.4 39.6-52 135.1-65.8 286.7-72.1 32.1-1.3 66.9-2.7 103.8-3.5 84.5-1.9 160.1-12 222.3-29.6v-1.2c-61.6 17.4-137 27.8-222.3 29.7zm24.8-409.4c-110.7-14-221.8-14.8-288.2-15.2-37.2-.3-64.1-.5-65.8-3l-.9-.4c-.1.3-.1.7.1 1 1.9 2.8 21.8 3 66.6 3.3 66.4.5 177.4 1.3 288.1 15.2 78.2 9.9 144.2 24.8 197.6 44.7v-1.1c-53.4-19.7-119.4-34.6-197.5-44.5z"/><path class="st1" d="M1737.8 433.4c-117.1-12.9-231.2-11.9-299.3-11.3-31.8.3-57 .5-58.2-1.2l-.9-.4c-.1.3-.1.6.1.8 1.5 2.2 18.2 2.1 59 1.8 68.1-.6 182.1-1.6 299.2 11.3 70.1 7.7 130.9 19.4 182.3 34.9v-1c-51.4-15.5-112.2-27.2-182.2-34.9zm-9.7 413.3c-41.9.8-80.3 2.2-105.5 3.2-87.4 3.4-145.8 9.4-189.3 19.4-50.2 11.5-82.6 28.8-101.9 54.3-24.9 32.9-28.5 81.4-11.5 152.5 10.6 44.1 30.8 102.9 50.4 159.7 31.3 90.9 61 176.9 45 185.4-12.2 6.5-50.7-33.1-117.6-121.1-28.9-38-62.2-66.7-98.7-85.1-33.8-17-71.8-26-112.8-26.6-70.1-1-150.1 20.9-251.7 69-87.2 41.1-173.4 98.6-249.5 149.3-72.7 48.4-141.4 94.2-198.3 117.4l.4.9c57-23.3 125.7-69.1 198.4-117.5 76.1-50.7 162.3-108.1 249.4-149.2 147.1-69.7 332.6-127.8 462 42.4 63.1 82.9 100.1 122.1 115.6 122.1 1.3 0 2.4-.3 3.4-.8 16.7-8.9-13-95.2-44.5-186.6-19.6-56.8-39.8-115.5-50.4-159.6-17-70.8-13.4-119 11.3-151.7 19.2-25.4 51.4-42.5 101.4-54 43.5-10 101.8-15.9 189.2-19.4 25.2-1 63.6-2.4 105.5-3.2 71-1.3 135.8-8.4 191.8-20.7v-1.1c-55.8 12.4-120.5 19.6-192.1 21z"/><path class="st1" d="M1441.6 426.8c-27.9.7-48.1 1.2-49.5 0 0 0 .1.1 0 .3l-.9-.4c-.1.2-.1.5.1.7 1.2 1.6 13.8 1.4 50.3.5 96.3-2.4 309.1-7.8 478.4 34v-1c-169.4-41.9-382.1-36.5-478.4-34.1zm317 424.2c-36.6.6-72.7 1.5-107.2 2.9-88.1 3.1-147.3 9-191.7 19.3-50.8 11.7-83.7 29.3-103.4 55.4-25.7 34.2-29.1 84.7-10.6 159 11.4 45.6 32.4 106.4 52.8 165.1 33 95 64.1 184.8 48.2 193.2-12 6.4-50.6-34.9-118-126-29.2-39.6-62.8-69.4-99.8-88.6-34.1-17.8-72.4-27.1-113.9-27.9-70.8-1.2-151.3 21.3-253.1 71.1-85 41.4-169.8 98.3-244.7 148.5-75.7 50.8-147.3 98.8-206.3 122.5l.4.9c59.1-23.7 130.7-71.7 206.4-122.6 74.8-50.2 159.6-107.1 244.6-148.4 147.9-72.2 334.4-132.3 465.5 45.1 63.7 86.2 101 127 116.1 127 1.2 0 2.2-.2 3.1-.7 7.7-4 6-24.6-5.2-64.9-9.9-35.5-25.7-81.2-42.5-129.5-20.4-58.7-41.4-119.5-52.8-165-18.4-74-15.1-124.3 10.4-158.2 41.2-54.7 143.2-69 294.3-74.3 34.5-1.3 70.6-2.3 107.2-2.9 58.3-.9 112.6-5.6 161.4-13.9v-1c-48.3 8.2-102.4 13-161.2 13.9z"/><path class="st1" d="M1789 855.4c-38.6.5-75.2 1.3-109 2.5-153.3 5.1-256.8 19.6-299 75.9-26.5 35.4-29.5 87.9-9.6 165.2 12.1 47.1 34 109.8 55.2 170.5 34.6 99.2 67.3 192.9 51.5 201.1-11.8 6.2-50.6-36.6-118.3-130.9-29.5-41.1-63.5-72.1-100.8-92.1-34.5-18.5-73.1-28.3-114.9-29.1-38.3-.8-79 5.6-124.6 19.5-39.6 12.1-82.1 29.6-129.9 53.6-82.8 41.6-162.6 95.4-239.8 147.5-78.8 53.2-153.3 103.5-214.4 127.6l.4.9c61.2-24.2 135.7-74.5 214.6-127.7 77.1-52.1 156.9-105.9 239.6-147.4 148.6-74.7 336.1-136.8 468.9 47.8 64.4 89.5 101.8 131.8 116.7 131.8 1.1 0 2-.2 2.9-.7 7.6-4 5.6-25.3-6.3-67.2-10.5-36.9-27.1-84.6-44.7-135.1-21.1-60.6-43-123.3-55.1-170.4-19.8-77-16.8-129.3 9.4-164.4 42-56 145.2-70.5 298.2-75.5 33.7-1.2 70.4-2.1 108.9-2.5 46.4-.6 90.3-3.5 130.9-8.7v-1c-40.5 5.3-84.3 8.2-130.8 8.8zM1443.7 432c-22.3.9-38.5 1.6-39.8.8.1 0 .2.2.1.4l-.9-.4c-.1.2 0 .4.1.6.8 1.1 8.4.9 40.6-.5 87.2-3.6 299.3-12.5 476.3 23.5v-1c-177.3-35.9-389.2-27.1-476.4-23.4z"/><path class="st1" d="M1771.8 435.2c-139.7-8.7-271.3-.9-327.5 2.4-16.1.9-27.7 1.6-28.7 1.2.1 0 .3.3.2.5l-.9-.4-.1.3.2.2c.5.7 3.5.6 29.4-.9 193.1-11.4 352-6.8 475.6 13.7v-.8c-44.8-7.4-94.2-12.9-148.2-16.2zm47.7 424.5c-44.3.5-79.5 1.2-110.7 2.2-155.2 4.9-260 19.5-302.9 77.2-27.2 36.6-30 91-8.6 171.5 12.9 48.6 35.6 113.2 57.5 175.7 36.2 103.4 70.5 201 54.8 209-11.7 6-50.5-38.4-118.7-135.7-29.9-42.6-64.1-74.8-101.9-95.6-34.8-19.2-73.8-29.5-115.9-30.4-38.6-.9-79.6 5.6-125.4 19.9-39.8 12.4-82.5 30.5-130.4 55.3-80.7 41.7-159 94.9-234.7 146.4-82 55.8-159.4 108.4-222.7 133l.4.9c63.4-24.6 140.9-77.3 222.9-133.1 75.7-51.5 153.9-104.7 234.6-146.3 100.8-52.1 184.3-76.7 255.3-75.1 88.2 2 159.2 43.1 217 125.6 69.5 99.1 107.6 142.4 119.9 136 7.6-3.9 5.2-26-7.4-69.6-11.1-38.4-28.5-88.1-47-140.6-21.9-62.5-44.6-127.1-57.4-175.6-21.3-80.1-18.6-134.3 8.4-170.6 42.7-57.4 147.3-71.9 302.2-76.8 31.2-1 66.3-1.7 110.7-2.2 35-.3 68.6-1.9 100.5-4.8v-1c-31.9 2.9-65.5 4.5-100.5 4.7z"/><path class="st1" d="M1849.9 864.1c-45 .3-80.7.9-112.4 1.9-91 2.7-152.5 8.8-199.4 19.7-53 12.4-87.2 31.1-107.7 58.8-27.9 37.8-30.3 94.2-7.4 177.6 13.6 50.4 37.3 117.4 60.1 182.3 19.1 54.4 37.2 105.7 48.9 145.3 12.9 43.8 15.8 66.8 8.9 70.3-11.4 5.8-50.3-40.2-119-140.6-30.2-44.2-64.8-77.5-102.9-99.1-35.2-20-74.5-30.6-117-31.7-38.9-1-80.2 5.7-126.3 20.4-40.1 12.8-82.9 31.4-130.9 56.9-78.5 41.7-155.2 94.3-229.4 145.1-85.2 58.4-165.6 113.5-231.1 138.5l.4.9c65.6-25 146.1-80.2 231.3-138.6 74.2-50.8 150.9-103.4 229.3-145.1 101-53.7 185-78.9 256.6-77.1 89 2.2 160.6 44.9 219.1 130.4 65.7 96.1 103.4 141.5 117.8 141.5.9 0 1.7-.2 2.5-.6 16.2-8.2-17.9-104.9-57.3-216.9-22.8-64.8-46.4-131.8-60.1-182.2-22.8-83-20.5-139.2 7.2-176.7 20.4-27.6 54.4-46.1 107.1-58.4 46.8-10.9 108.2-17 199.2-19.7 31.7-1 67.5-1.6 112.4-1.9 24-.1 47.4-.9 70.1-2.2v-1c-22.5 1.3-45.9 2.1-70 2.2zM1774.6 436c-149.4-6.6-286.4 4.2-331.4 7.8-9.2.7-15.2 1.2-15.8 1.1l-.2.4-.5-.2-.1.3.2.2c.3.4.3.4 16.5-.9 186.3-14.7 347.6-12.8 476.7 4.8v-1.1c-44.4-5.9-92.9-10.1-145.4-12.4z"/><path class="st1" d="M1880.4 868.4c-100.9.3-204.7 2.3-280.1 14.4-73.3 11.8-119.1 32.6-144.1 65.7-15 19.8-22.9 44.3-24 74.8-1.1 30.1 4.3 66.2 16.6 110.2 14.4 51.4 38.6 119.7 61.9 185.8 37.9 107 77 217.6 61.6 225.3-5.3 2.7-17.2-7-35.4-28.8-19.9-23.7-48.1-63-84-116.6-25.4-38.1-54-68.5-84.9-90.4-29-20.5-61-34.3-95.1-40.8-163-31.1-355.1 101.5-524.6 218.5-88.4 61.1-172 118.8-239.7 144.1l.4.9c67.8-25.4 151.4-83.1 239.9-144.3 169.3-116.9 361.2-249.4 523.8-218.4 71 13.6 129.6 56.3 179.3 130.7 66.4 99.4 104.2 146.2 118.4 146.2.9 0 1.6-.2 2.3-.5 7.5-3.7 4.4-27.4-9.7-74.5-12.4-41.5-31.4-95.2-51.5-152-23.4-66.1-47.6-134.4-61.9-185.7-24.3-87-22-145.5 7.2-184.1 24.8-32.8 70.4-53.6 143.4-65.3 75.3-12.1 179-14.1 279.9-14.4 13.4 0 26.6-.3 39.6-.7v-1c-12.7.6-25.9.9-39.3.9zm-136.1-431.8c-164.8-2-304 14.2-305.4 14.4l.1 1c1.4-.2 140.6-16.4 305.3-14.4 54 .7 114.7 3.4 175.7 10.1v-1.1c-53.7-5.8-112.5-9.2-175.7-10z"/></svg>