<svg version="1.1" xmlns="http://www.w3.org/2000/svg" x="0" y="0" viewBox="0 0 1920 1920" xml:space="preserve"><path fill="#183e5e" d="M0 0h1920v1920H0z"/><path d="M581 834.1l59.4 59.4-2.8 2.8-59.4-59.3 2.8-2.9zm-14.2 14.2l59.4 59.4 2.8-2.8-59.4-59.4-2.8 2.8zm25.5-107.5l59.4-59.4-2.8-2.8-59.4 59.4 2.8 2.8zm-80.6 97.6l2.8 2.8 59.4-59.4-2.8-2.8-59.4 59.4zm135.8-220.6l59.4-59.4-2.8-2.8-59.4 59.4 2.8 2.8zm31.1-237.6l59.4 59.4 2.8-2.8-59.4-59.4-2.8 2.8zm-11.3 11.3l59.4 59.4 2.8-2.8-59.4-59.4-2.8 2.8zm-11.4 11.3l59.4 59.4 2.8-2.8-59.3-59.4-2.9 2.8zM500.4 827.1l2.8 2.8 59.4-59.4-2.8-2.8-59.4 59.4zm144.2-413l59.4 59.4 2.8-2.8-59.4-59.4-2.8 2.8zM388.7 893.5l2.8 2.8 59.4-59.4-2.8-2.8-59.4 59.4zm33.9-257.4l59.4 59.4 2.8-2.8-59.4-59.4-2.8 2.8zM458 784.6l59.4-59.4-2.8-2.8-59.4 59.4 2.8 2.8zm-2.9-181l59.4 59.4 2.8-2.8-59.3-59.4-2.9 2.8zm-52.3 304.1l59.4-59.4-2.8-2.8-59.4 59.3 2.8 2.9zm212.1-263.1L555.5 704l2.8 2.8 59.4-59.4-2.8-2.8zm134.4-216.3l2.8-2.8-59.4-59.5-2.8 2.8 59.4 59.5zm-282.9 164l59.4 59.4 2.8-2.8-59.4-59.4-2.8 2.8zm25.5 226.3l59.4-59.4-2.8-2.8-59.4 59.4 2.8 2.8zm52.3-125.9l2.8 2.8 59.4-59.4-2.8-2.8-59.4 59.4zm-66.4 111.7l2.8 2.8 59.4-59.4-2.8-2.8-59.4 59.4zm-11.4-11.3l2.8 2.8 59.4-59.4-2.8-2.8-59.4 59.4zm379-579.8l59.4 59.4 2.8-2.8-59.4-59.4-2.8 2.8zM1035 380.2l59.4 59.4 2.8-2.8-59.4-59.4-2.8 2.8zm48-158.4l-59.4 59.4 2.8 2.8 59.4-59.4-2.8-2.8zm-70.7 48.1l2.8 2.8 59.4-59.4-2.8-2.8-59.4 59.4zm-11.3-11.3l2.8 2.8 59.4-59.4-2.8-2.8-59.4 59.4zm45.3 110.3l59.4 59.4 2.8-2.8-59.4-59.4-2.8 2.8zm69.3 182.4l59.4-59.4-2.8-2.8-59.4 59.4 2.8 2.8zm-36.8-215l59.4 59.4 2.8-2.8-59.4-59.4-2.8 2.8zm84.8 1103.1l-59.4-59.4-2.8 2.8 59.4 59.4 2.8-2.8zM1124 291.1l59.4 59.4 2.8-2.8-59.4-59.4-2.8 2.8zm-22.6 246.1l2.8 2.8 59.4-59.4-2.8-2.8-59.4 59.4zM1090.1 325l59.4 59.4 2.8-2.8-59.4-59.4-2.8 2.8zM366 692.7l59.4 59.4 2.8-2.8-59.4-59.4-2.8 2.8zm401.7-489.3l2.8 2.8 59.4-59.4-2.8-2.8-59.4 59.4zm11.3 11.3l2.8 2.8 59.4-59.4-2.8-2.8-59.4 59.4zm-34 99l59.4 59.4 2.8-2.8-59.4-59.4-2.8 2.8zm11.4-11.3l59.4 59.4 2.8-2.8-59.4-59.4-2.8 2.8zm77.7-77.8l59.4 59.4 2.8-2.8-59.3-59.4-2.9 2.8zm22.7-22.6l59.4 59.4 2.8-2.8-59.4-59.4-2.8 2.8zm55.1-55.2l59.4 59.4 2.8-2.8-59.4-59.4-2.8 2.8zm-11.3 11.3l59.4 59.4 2.8-2.8-59.4-59.4-2.8 2.8zM689.9 303.8l2.8 2.8 59.4-59.4-2.8-2.8-59.4 59.4zm178.2-113.1l59.4 59.4 2.8-2.8-59.4-59.4-2.8 2.8zM923.2 359l2.8 2.8 59.4-59.4-2.8-2.8-59.4 59.4zm247.5 69.3l59.4-59.4-2.8-2.8-59.4 59.4 2.8 2.8zm-207.9 1277l-2.8-2.8-59.4 59.4 2.8 2.8 59.4-59.4zm-55.1-9.9l-59.4-59.4-2.8 2.8 59.4 59.4 2.8-2.8zm-100.4-145.7l-2.8-2.8-59.4 59.4 2.8 2.8 59.4-59.4zm89.1 157l-59.4-59.4-2.8 2.8 59.4 59.4 2.8-2.8zm89.1-89.1l-59.4-59.4-2.8 2.8 59.4 59.4 2.8-2.8zm-144.3 144.3l-59.4-59.4-2.8 2.8 59.4 59.4 2.8-2.8zm-11.3 11.3l-59.4-59.4-2.8 2.8 59.4 59.4 2.8-2.8zM818.6 1561l-2.8-2.8-59.4 59.4 2.8 2.8 59.4-59.4zm55.1 168.3l-59.4-59.4-2.8 2.8 59.4 59.4 2.8-2.8zm123.1-123l-59.4-59.4-2.8 2.8 59.4 59.4 2.8-2.8zM885 1718l-59.4-59.4-2.8 2.8 59.4 59.4 2.8-2.8zm89.1-1.4l-2.8-2.8-59.4 59.4 2.8 2.8 59.4-59.4zm100.5 168.3l-59.4-59.4-2.8 2.8 59.4 59.4 2.8-2.8zm11.3-11.3l-59.4-59.4-2.8 2.8 59.4 59.4 2.8-2.8zm-34-257.4l-2.8-2.8-59.4 59.4 2.8 2.8 59.4-59.4zm97.6-80.6l-59.4 59.4 2.8 2.8 59.4-59.4-2.8-2.8zm-55.1 123L1035 1718l2.8 2.8 59.4-59.4-2.8-2.8zm2.8 203.7l-59.4-59.4-2.8 2.8 59.4 59.4 2.8-2.8zm-34 33.9l-59.4-59.4-2.8 2.8 59.4 59.4 2.8-2.8zm0-268.7l-2.8-2.8-59.4 59.4 2.8 2.8 59.4-59.4zm-114.5 182.4l59.4-59.4-2.8-2.8-59.4 59.4 2.8 2.8zm103.2 97.6l-59.4-59.4-2.8 2.8 59.4 59.4 2.8-2.8zm-32.5-145.6l-2.8-2.8-59.4 59.4 2.8 2.8 59.4-59.4zm-390.3-500.7l-59.4-59.4-2.8 2.8 59.4 59.4 2.8-2.8zm-77.8-145.6l-2.8-2.8-59.4 59.4 2.8 2.8 59.4-59.4zM450.9 1083l-59.4-59.4-2.8 2.8 59.4 59.4 2.8-2.8zm11.3-11.3l-59.4-59.4-2.8 2.8 59.4 59.4 2.8-2.8zm55.2 9.9l-2.8-2.8-59.4 59.4 2.8 2.8 59.4-59.4zm11.3 11.3l-2.8-2.8-59.4 59.4 2.8 2.8 59.4-59.4zM395.7 960l-2.8-2.8-59.4 59.4 2.8 2.8 59.4-59.4zm-73.5-223.4l59.4 59.4 2.8-2.8-59.4-59.5-2.8 2.9zm2.8 271.5l59.4-59.4-2.8-2.8-59.4 59.4 2.8 2.8zm8.5-282.9l59.4 59.4 2.8-2.8-59.4-59.4-2.8 2.8zm35.4 148.5l59.4-59.4-2.8-2.8-59.5 59.4 2.9 2.8zm70.7-48.1l-2.8-2.8-59.4 59.4 2.8 2.8 59.4-59.4zm289.9 691.6l-59.4-59.4-2.8 2.8 59.4 59.4 2.8-2.8zm-34-257.4l-2.8-2.8-59.4 59.4 2.8 2.8 59.4-59.4zm-55.1-9.9l-59.4-59.4-2.8 2.8 59.4 59.4 2.8-2.8zm66.5 21.2l-2.8-2.8-59.4 59.4 2.8 2.8 59.4-59.4zm77.7 256l-2.8-2.8-59.4 59.4 2.8 2.8 59.4-59.4zm11.4 11.3l-2.8-2.8-59.4 59.4 2.8 2.8 59.4-59.4zm-237.6-325.3l-2.8 2.8 59.4 59.4 2.8-2.8-59.4-59.4zm48 70.8l-59.4-59.4-2.8 2.8 59.4 59.4 2.8-2.8zm-32.5 32.5l-59.4-59.4-2.8 2.8 59.4 59.4 2.8-2.8zm-11.3 11.3l-59.4-59.4-2.8 2.8 59.4 59.4 2.8-2.8zM439.6 738l-59.4-59.4-2.8 2.8 59.4 59.4 2.8-2.8zm497.8-364.9l59.4-59.4-2.8-2.8-59.4 59.4 2.8 2.8zM873.7 1438l-2.8-2.8-59.4 59.4 2.8 2.8 59.4-59.4zm-32.5 145.7l-2.8-2.8-59.4 59.4 2.8 2.8 59.4-59.4zm-56.6-413l-2.8-2.8-59.4 59.4 2.8 2.8 59.4-59.4zm-14.1 461.1l59.4-59.4-2.8-2.8-59.4 59.4 2.8 2.8zM885 1449.3l-2.8-2.8-59.4 59.4 2.8 2.8 59.4-59.4zm134.4 134.4l-59.4-59.4-2.8 2.8 59.4 59.4 2.8-2.8zm-223.4-133l-59.4-59.4-2.8 2.8 59.4 59.4 2.8-2.8zm-125.9-97.5l59.4-59.4-2.8-2.8-59.4 59.4 2.8 2.8zm70.7 152.7l-59.4-59.4-2.8 2.8 59.4 59.4 2.8-2.8zm11.3-11.3l-59.4-59.4-2.8 2.8 59.4 59.4 2.8-2.8zm32.5-32.6l-59.4-59.4-2.8 2.8 59.4 59.4 2.8-2.8zm34-33.9l-59.4-59.4-2.8 2.8 59.4 59.4 2.8-2.8zm164-59.4l-59.4 59.4 2.8 2.8 59.4-59.4-2.8-2.8zm-55.1 123l-59.4 59.4 2.8 2.8 59.4-59.4-2.8-2.8zm46.6 137.2l-59.4-59.4-2.8 2.8 59.4 59.4 2.8-2.8zm34-33.9l-59.4-59.4-2.8 2.8 59.4 59.4 2.8-2.8zm-11.3-212.2l-2.8-2.8-59.4 59.4 2.8 2.8 59.4-59.4zM919 1483.3l-2.8-2.8-59.4 59.4 2.8 2.8 59.4-59.4zm-25.5-25.5l-59.4 59.4 2.8 2.8 59.4-59.4-2.8-2.8zm14.2 14.1l-2.8-2.8-59.4 59.4 2.8 2.8 59.4-59.4zm11.3 212.2l-59.4-59.4-2.8 2.8 59.4 59.4 2.8-2.8zm11.3-11.3l-59.4-59.4-2.8 2.8 59.4 59.4 2.8-2.8zm32.5-32.6l-59.4-59.4-2.8 2.8L960 1643l2.8-2.8zm-155.5-200.8l-59.4-59.4-2.8 2.8 59.4 59.4 2.8-2.8zm-77.8-278.6l-59.4-59.4-2.8 2.8 59.4 59.4 2.8-2.8zM745 537.2l2.8 2.8 59.4-59.4-2.8-2.8-59.4 59.4zm-22.6-200.9l59.4 59.4 2.8-2.8-59.4-59.4-2.8 2.8zm2.8 181.1l59.4-59.4-2.8-2.8-59.4 59.4 2.8 2.8zm34 33.9l59.4-59.4-2.8-2.8-59.4 59.4 2.8 2.8zm-89.1 89.1l59.4-59.4-2.8-2.8-59.4 59.4 2.8 2.8zm152.7-404.5l59.4 59.4 2.8-2.8-59.4-59.4-2.8 2.8zm-8.5 192.4l59.4-59.4-2.8-2.8-59.4 59.4 2.8 2.8zm-2.8-181.1l59.4 59.4 2.8-2.8-59.4-59.4-2.8 2.8zm-43.8 43.9l59.4 59.4 2.8-2.8-59.4-59.4-2.8 2.8zm11.3-11.3l59.4 59.4 2.8-2.8-59.4-59.4-2.8 2.8zM733.7 325l59.4 59.4 2.8-2.8-59.4-59.4-2.8 2.8zm-82 913.6l-59.4-59.4-2.8 2.8 59.4 59.4 2.8-2.8zm11.3-11.3l-59.4-59.4-2.8 2.8 59.4 59.4 2.8-2.8zm32.5-32.5l-59.4-59.4-2.8 2.8 59.4 59.4 2.8-2.8zm11.4-11.4l-59.4-59.4-2.8 2.8 59.4 59.4 2.8-2.8zm11.3-11.3l-59.4-59.4-2.8 2.8 59.4 59.4 2.8-2.8zm-82.1-209.3l59.4-59.4-2.8-2.8-59.4 59.4 2.8 2.8zm-32.5-210.7l59.4-59.4-2.8-2.8-59.4 59.4 2.8 2.8zm-14.1 73.5l59.4 59.4 2.8-2.8-59.4-59.4-2.8 2.8zm545.9-545.8l59.4 59.4 2.8-2.8-59.4-59.4-2.8 2.8zm-483.7 758l-2.8-2.8-59.4 59.4 2.8 2.8 59.4-59.4zm4.2-411.6l2.8 2.8 59.4-59.4-2.8-2.8-59.4 59.4zm690.2 155.6l59.4 59.4 2.8-2.8-59.4-59.4-2.8 2.8zm11.3-11.3l59.4 59.4 2.8-2.8-59.4-59.4-2.8 2.8zm-43.8 43.8l59.4 59.4 2.8-2.8-59.4-59.4-2.8 2.8zm55.1 168.3l2.8 2.8 59.4-59.4-2.8-2.8-59.4 59.4zm-18.4-315.3l-59.4 59.4 2.8 2.8 59.4-59.4-2.8-2.8zm-48.1 158.3l59.4 59.4 2.8-2.8-59.4-59.4-2.8 2.8zm140 335.2l-59.4-59.4-2.8 2.8 59.4 59.4 2.8-2.8zm8.5-214.9l-59.4 59.4 2.8 2.8 59.4-59.4-2.8-2.8zm-19.8 226.2l-59.4-59.4-2.8 2.8 59.4 59.4 2.8-2.8zm22.7-22.6l-59.4-59.4-2.8 2.8 59.4 59.4 2.8-2.8zm11.3-11.3l-59.4-59.4-2.8 2.8 59.4 59.4 2.8-2.8zm-185.3-422.9l2.8 2.8 59.4-59.4-2.8-2.8-59.4 59.4zm-77.8-145.6l59.4 59.4 2.8-2.8-59.4-59.4-2.8 2.8zm11.3-11.3l59.4 59.4 2.8-2.8-59.4-59.4-2.8 2.8zm36.8-169.7l-59.4 59.4 2.8 2.8 59.4-59.4-2.8-2.8zm-82-141.5l59.4 59.4 2.8-2.8-59.4-59.4-2.8 2.8zm11.3-11.3l59.4 59.4 2.8-2.8-59.4-59.4-2.8 2.8zm89.1 468.1l2.8 2.8 59.4-59.4-2.8-2.8-59.4 59.4zm151.3 479.4l-59.4-59.4-2.8 2.8 59.4 59.4 2.8-2.8zm-151.3-680.2l59.4 59.4 2.8-2.8-59.4-59.4-2.8 2.8zm-11.3 11.3l59.4 59.4 2.8-2.8-59.4-59.4-2.8 2.8zm-32.5 32.5l59.4 59.4 2.8-2.8-59.4-59.4-2.8 2.8zm-86.3 977.3l-59.4 59.4 2.8 2.8 59.4-59.4-2.8-2.8zm-32.5-210.7l-59.4 59.4 2.8 2.8 59.4-59.4-2.8-2.8zm69.3-108.9l-2.8-2.8-59.4 59.4 2.8 2.8 59.4-59.4zm-14.2-14.2l-59.4 59.4 2.8 2.8 59.4-59.4-2.8-2.8zm36.8 215l-59.4-59.4-2.8 2.8 59.4 59.4 2.8-2.8zm-11.3 11.3l-59.4-59.4-2.8 2.8 59.4 59.4 2.8-2.8zm43.8-43.8l-59.4-59.4-2.8 2.8 59.4 59.4 2.8-2.8zm-166.9 166.8l-59.4-59.4-2.8 2.8 59.4 59.4 2.8-2.8zm-48 158.4l59.4-59.4-2.8-2.8-59.4 59.4 2.8 2.8zm137.1-247.5l-59.4-59.4-2.8 2.8 59.4 59.4 2.8-2.8zm-100.4 100.4l-59.4-59.4-2.8 2.8 59.4 59.4 2.8-2.8zm34 99l-2.8-2.8-59.4 59.4 2.8 2.8 59.4-59.4zm253.1-637.8l-59.4 59.4 2.8 2.8 59.4-59.4-2.8-2.8zm14.2 14.2l-2.8-2.8-59.4 59.4 2.8 2.8 59.4-59.4zm-111.8 335.1l-59.4-59.4-2.8 2.8 59.4 59.4 2.8-2.8zm123.1-123l-59.4-59.4-2.8 2.8 59.4 59.4 2.8-2.8zm-80.6-103.2l-59.4 59.4 2.8 2.8 59.4-59.4-2.8-2.8zm91.9 91.9l-59.4-59.4-2.8 2.8 59.4 59.4 2.8-2.8zm32.5-32.5l-59.4-59.4-2.8 2.8 59.4 59.4 2.8-2.8zm-77.8 77.7l-59.4-59.4-2.8 2.8 59.4 59.4 2.8-2.8zm-77.8 77.8l-59.4-59.4-2.8 2.8 59.4 59.4 2.8-2.8zm11.4-11.3l-59.4-59.4-2.8 2.8 59.4 59.4 2.8-2.8zm55.1 9.9l-2.8-2.8-59.4 59.4 2.8 2.8 59.4-59.4zM1149.5 110.1l-59.4 59.4 2.8 2.8 59.4-59.4-2.8-2.8zM807.3 1795.8l-59.4-59.4-2.8 2.8 59.4 59.4 2.8-2.8zm66.4-1.4l-2.8-2.8-59.4 59.4 2.8 2.8 59.4-59.4zm-55.1-9.9l-59.4-59.4-2.8 2.8 59.4 59.4 2.8-2.8zm77.8 32.5l-2.8-2.8-59.4 59.4 2.8 2.8 59.4-59.4zm11.3 11.3l-2.8-2.8-59.4 59.4 2.8 2.8 59.4-59.4zm-22.7-22.6l-2.8-2.8-59.4 59.4 2.8 2.8 59.4-59.4zm-214.9-96.2l59.4-59.4-2.8-2.8-59.4 59.4 2.8 2.8zm48.1-181l-59.4-59.4-2.8 2.8 59.4 59.4 2.8-2.8zm22.6 132.9l-2.8-2.8-59.4 59.4 2.8 2.8 59.4-59.4zm55.2 145.7l-59.4-59.4-2.8 2.8 59.4 59.4 2.8-2.8zm-43.9-134.3l-2.8-2.8-59.4 59.4 2.8 2.8 59.4-59.4zm205.1 210.7l36.5 36.5h5.7l-39.3-39.3-2.9 2.8zm-38.2-43.9l-2.8-2.8-59.4 59.4 2.8 2.8 59.4-59.4zm219.2 41.1l-39.3 39.3h5.7l36.5-36.5-2.9-2.8zm14.1-73.6l-59.4-59.4-2.8 2.8 59.4 59.4 2.8-2.8zM1175 1561l-2.8-2.8-59.4 59.4 2.8 2.8 59.4-59.4zm-14.2-14.1l-59.4 59.4 2.8 2.8 59.4-59.4-2.8-2.8zm-55.1 123l-59.4 59.4 2.8 2.8 59.4-59.4-2.8-2.8zm-123.1 55.2l-59.4 59.4 2.8 2.8 59.4-59.4-2.8-2.8zM930.3 1851l-2.8-2.8-59.4 59.4 2.8 2.8 59.4-59.4zm46.4 69l-28-28-2.8 2.8 25.2 25.2h5.6zm209.6-146.8l-59.4-59.4-2.8 2.8 59.4 59.4 2.8-2.8zm-189.5-34l-2.8-2.8-59.4 59.4 2.8 2.8 59.4-59.4zm-289.9-199.4l-59.4-59.4-2.8 2.8 59.4 59.4 2.8-2.8zm-222.1-134.3l-59.4-59.4-2.8 2.8 59.4 59.4 2.8-2.8zm32.6-32.5l-59.4-59.4-2.8 2.8 59.4 59.4 2.8-2.8zm11.3-11.4l-59.4-59.4-2.8 2.8 59.4 59.4 2.8-2.8zm22.6-22.6l-59.4-59.4-2.8 2.8 59.4 59.4 2.8-2.8zm-11.3 11.3l-59.4-59.4-2.8 2.8 59.4 59.4 2.8-2.8zm-148.5-97.6l59.4-59.4-2.8-2.8-59.4 59.4 2.8 2.8zm48.1-158.3l-59.4-59.4-2.8 2.8 59.4 59.4 2.8-2.8zm33.9 322.4l-59.4-59.4-2.8 2.8 59.4 59.4 2.8-2.8zm132.9-67.9l-2.8-2.8-59.4 59.4 2.8 2.8 59.4-59.4zM473.5 1216l-2.8-2.8-59.4 59.4 2.8 2.8 59.4-59.4zm-11.3-11.3l-2.8-2.8-59.4 59.4 2.8 2.8 59.4-59.4zm111.7 468.1l-59.4-59.4-2.8 2.8 59.4 59.4 2.8-2.8zm77.8-278.6l-2.8-2.8-59.4 59.4 2.8 2.8 59.4-59.4zm-159.8 137.1l59.4-59.4-2.8-2.8-59.4 59.4 2.8 2.8zm-63.6-425.6l-59.4-59.4-2.8 2.8 59.4 59.4 2.8-2.8zM651.7 1595l-59.4-59.4-2.8 2.8 59.4 59.4 2.8-2.8zm11.3-11.3l-59.4-59.4-2.8 2.8 59.4 59.4 2.8-2.8zm-22.6-200.9l-2.8-2.8-59.4 59.4 2.8 2.8 59.4-59.4zm-77.8 301.3l-59.4-59.4-2.8 2.8 59.4 59.4 2.8-2.8zm8.5-192.4l-59.4 59.4 2.8 2.8 59.4-59.4-2.8-2.8zm124.4 59.4l-59.4-59.4-2.8 2.8 59.4 59.4 2.8-2.8zm-89.1 89.1l-59.4-59.4-2.8 2.8 59.4 59.4 2.8-2.8zm19.8-271.5l-59.4 59.4 2.8 2.8 59.4-59.4-2.8-2.8zm1069.2-712.8l-59.4 59.4 2.8 2.8 59.4-59.4-2.8-2.8zm2.8 248.9l-59.4-59.4-2.8 2.8 59.4 59.4 2.8-2.8zm-73.5-401.6l59.4 59.4 2.8-2.8-59.4-59.4-2.8 2.8zm2.8 353.6l-2.8 2.8 59.4 59.4 2.8-2.8-59.4-59.4zm-14.1-342.3l59.4 59.4 2.8-2.8-59.4-59.4-2.8 2.8zm-26.9 567.1l-2.8-2.8-59.4 59.4 2.8 2.8 59.4-59.4zm11.3 11.3l-2.8-2.8-59.4 59.4 2.8 2.8 59.4-59.4zm-17-545.9l59.4 59.4 2.8-2.8-59.4-59.4-2.8 2.8zm-383.2 1214.9l-59.4-59.4-2.8 2.8 59.4 59.4 2.8-2.8zm431.3-637.9l-59.4 59.4 2.8 2.8 59.4-59.4-2.8-2.8zm55.2-123l-59.4 59.4 2.8 2.8 59.4-59.4-2.8-2.8zm-63.7 114.6l-2.8-2.8-59.4 59.4 2.8 2.8 59.4-59.4zm-217.8-455.4l2.8 2.8 59.4-59.4-2.8-2.8-59.4 59.4zm55.2 9.9l59.4 59.4 2.8-2.8-59.4-59.4-2.8 2.8zm-66.5-21.2l2.8 2.8 59.4-59.4-2.8-2.8-59.4 59.4zm-33.9-234.8l59.4 59.4 2.8-2.8-59.4-59.4-2.8 2.8zm11.3 212.1l2.8 2.8 59.4-59.4-2.8-2.8-59.4 59.4zm200.8-67.8l59.4 59.4 2.8-2.8-59.4-59.4-2.8 2.8zm-11.3 11.3l59.4 59.4 2.8-2.8-59.4-59.4-2.8 2.8zm-11.3 11.3l59.4 59.4 2.8-2.8-59.4-59.4-2.8 2.8zm-7.1 125.9l2.8-2.8-59.4-59.4-2.8 2.8 59.4 59.4zm-48.1-135.8l2.8 2.8 59.4-59.4-2.8-2.8-59.4 59.4zm-22.6 87.7l59.4 59.4 2.8-2.8-59.4-59.4-2.8 2.8zm100.4 612.3l59.4 59.4 2.8-2.8-59.4-59.4-2.8 2.8zm-239 357.8l-59.4-59.4-2.8 2.8 59.4 59.4 2.8-2.8zm8.5-260.2l-59.4 59.4 2.8 2.8 59.4-59.4-2.8-2.8zm192.3-297l-59.4-59.4-2.8 2.8 59.4 59.4 2.8-2.8zM1364.5 1595l-59.4-59.4-2.8 2.8 59.4 59.4 2.8-2.8zm-11.3-212.2l-2.8-2.8-59.4 59.4 2.8 2.8 59.4-59.4zm-89.1 312.6l-59.4-59.4-2.8 2.8 59.4 59.4 2.8-2.8zm-22.7 22.6l-59.4-59.4-2.8 2.8 59.4 59.4 2.8-2.8zm-11.3 11.3l-59.4-59.4-2.8 2.8 59.4 59.4 2.8-2.8zm145.7-145.6l-59.4-59.4-2.8 2.8 59.4 59.4 2.8-2.8zm-123.1 123l-59.4-59.4-2.8 2.8 59.4 59.4 2.8-2.8zm66.5-1.4l-2.8-2.8-59.4 59.4 2.8 2.8 59.4-59.4zm-35.3-213.6l-59.4 59.4 2.8 2.8 59.4-59.4-2.8-2.8zm181 2.9l-59.4-59.4-2.8 2.8 59.4 59.4 2.8-2.8zm-14.2-192.4l-59.4 59.4 2.8 2.8 59.4-59.4-2.8-2.8zm55.2-123l-59.4 59.4 2.8 2.8 59.4-59.4-2.8-2.8zm14.1-96.2l-59.4-59.4-2.8 2.8 59.4 59.4 2.8-2.8zm-70.7-48l-2.8 2.8 59.4 59.4 2.8-2.8-59.4-59.4zm-18.4 493.5l-59.4-59.4-2.8 2.8 59.4 59.4 2.8-2.8zm-22.6 22.6l-59.4-59.4-2.8 2.8 59.4 59.4 2.8-2.8zm45.3-45.2l-59.4-59.4-2.8 2.8 59.4 59.4 2.8-2.8zm-34 33.9l-59.4-59.4-2.8 2.8 59.4 59.4 2.8-2.8zm22.6-22.6l-59.4-59.4-2.8 2.8 59.4 59.4 2.8-2.8zm-140-1047.9l59.4 59.4 2.8-2.8-59.4-59.4-2.8 2.8zm43.9 134.3l2.8 2.8 59.4-59.4-2.8-2.8-59.4 59.4zM1175 1428.1l-59.4-59.4-2.8 2.8 59.4 59.4 2.8-2.8zm115.9-947.5l59.4 59.4 2.8-2.8-59.4-59.4-2.8 2.8zm-77.8-9.9l2.8 2.8 59.4-59.4-2.8-2.8-59.4 59.4zm11.4 11.3l2.8 2.8 59.4-59.4-2.8-2.8-59.4 59.4zm55.1 9.9l59.4 59.4 2.8-2.8-59.4-59.4-2.8 2.8zm100.4 256l59.4 59.4 2.8-2.8-59.4-59.4-2.8 2.8zm-11.3 11.3l59.4 59.4 2.8-2.8-59.4-59.4-2.8 2.8zm-66.5-21.2l2.8 2.8 59.4-59.4-2.8-2.8-59.4 59.4zm11.4 11.3l2.8 2.8 59.4-59.4-2.8-2.8-59.4 59.4zm103.2-193.8l-59.4 59.4 2.8 2.8 59.4-59.4-2.8-2.8zm-281.4-340.8l2.8 2.8 59.4-59.4-2.8-2.8-59.4 59.4zm55.1 9.9l59.4 59.4 2.8-2.8-59.4-59.4-2.8 2.8zM822.8 436.7l2.8 2.8 59.4-59.4-2.8-2.8-59.4 59.4zm256-278.6l2.8 2.8 59.4-59.4-2.8-2.8-59.4 59.4zm-32.5-145.6l59.4 59.4 2.8-2.8-59.4-59.4-2.8 2.8zM1035 23.8l59.4 59.4 2.8-2.8-59.4-59.4-2.8 2.8zm0 268.7l2.8 2.8 59.4-59.4-2.8-2.8-59.4 59.4zm89-89.1l2.8 2.8 59.4-59.4-2.8-2.8-59.4 59.4zm267.3 533.2l59.4 59.4 2.8-2.8-59.4-59.4-2.8 2.8zm-345-432.8l2.8 2.8 59.4-59.4-2.8-2.8-59.4 59.4zm55.1 9.9l59.4 59.4 2.8-2.8-59.4-59.4-2.8 2.8zm11.3-11.3l59.4 59.4 2.8-2.8-59.4-59.4-2.8 2.8zM1230.1 1438l-2.8-2.8-59.4 59.4 2.8 2.8 59.4-59.4zm172.5-712.8l59.4 59.4 2.8-2.8-59.4-59.4-2.8 2.8zm-74.9 632.2l-59.4 59.4 2.8 2.8 59.4-59.4-2.8-2.8zm80.6-97.6l-2.8-2.8-59.4 59.4 2.8 2.8 59.4-59.4zm-144.2 212.1l-2.8-2.8-59.4 59.4 2.8 2.8 59.4-59.4zm155.5-200.8l-2.8-2.8-59.4 59.4 2.8 2.8 59.4-59.4zm-66.4-21.2l-59.4-59.4-2.8 2.8 59.4 59.4 2.8-2.8zm-111.8 199.4l-2.8-2.8-59.4 59.4 2.8 2.8 59.4-59.4zM1023.6 35.1l59.4 59.4 2.8-2.8-59.4-59.4-2.8 2.8zM395.7 1138.2l-59.4-59.4-2.8 2.8 59.4 59.4 2.8-2.8zm854.2 319.6l-59.4 59.4 2.8 2.8 59.4-59.4-2.8-2.8zm-123 174l59.4-59.4-2.8-2.8-59.4 59.4 2.8 2.8zm214.9-370.6l-59.4-59.4-2.8 2.8 59.4 59.4 2.8-2.8zm104.7-379l2.8 2.8 59.4-59.4-2.8-2.8-59.4 59.4zm-141.4 571.4l59.4-59.4-2.8-2.8-59.4 59.4 2.8 2.8zm130.1-760.9l59.4 59.4 2.8-2.8-59.4-59.4-2.8 2.8zm11.3-11.3l59.4 59.4 2.8-2.8-59.4-59.4-2.8 2.8zm-11.3 367.7l59.4 59.4 2.8-2.8-59.4-59.4-2.8 2.8zm26.8-91.9l-59.4 59.4 2.8 2.8 59.4-59.4-2.8-2.8zm-86.2 448.3l-2.8-2.8-59.4 59.4 2.8 2.8 59.4-59.4zm52.3-125.9l-59.4 59.4 2.8 2.8 59.4-59.4-2.8-2.8zm14.1 14.2l-2.8-2.8-59.4 59.4 2.8 2.8 59.4-59.4zm52.4-125.9l-59.4 59.4 2.8 2.8 59.4-59.4-2.8-2.8zm-297 415.8l-2.8-2.8-59.4 59.4 2.8 2.8 59.4-59.4zm-775-1012.6l2.8 2.8 59.4-59.4-2.8-2.8-59.4 59.4zm48.1 135.8l2.8-2.8-59.4-59.4-2.8 2.8 59.4 59.4zm84.8-203.7l59.4 59.4 2.8-2.8-59.4-59.4-2.8 2.8zm-222 157l2.8 2.8 59.4-59.4-2.8-2.8-59.4 59.4zm55.2 9.9l59.4 59.4 2.8-2.8-59.4-59.4-2.8 2.8zm11.3-11.3l59.4 59.4 2.8-2.8-59.4-59.4-2.8 2.8zm144.2-144.3l59.4 59.4 2.8-2.8-59.4-59.4-2.8 2.8zM511.7 547l59.4 59.4 2.8-2.8-59.4-59.4-2.8 2.8zm-11.3 11.4l59.4 59.4 2.8-2.8-59.4-59.4-2.8 2.8zm-11.3 11.3l59.4 59.4 2.8-2.8-59.4-59.4-2.8 2.8zM477.8 581l59.4 59.4 2.8-2.8-59.4-59.4-2.8 2.8zm-155.6 67.9l2.8 2.8 59.4-59.4-2.8-2.8-59.4 59.4zM359 923.2l-59.4 59.4 2.8 2.8 59.4-59.4-2.8-2.8zm-123.1 174l59.4-59.4-2.8-2.8-59.4 59.4 2.8 2.8zm70.7-48.1l-2.8-2.8-59.4 59.4 2.8 2.8 59.4-59.4zm66.5-111.7l-2.8-2.8-59.4 59.4 2.8 2.8 59.4-59.4zm639.2-891l59.4 59.4 2.8-2.8-59.4-59.4-2.8 2.8zM291.1 974.1l59.4-59.4-2.8-2.8-59.4 59.4 2.8 2.8zm8.5-214.9l59.4 59.4 2.8-2.8-59.4-59.4-2.8 2.8zm-11.4 11.3l59.4 59.4 2.8-2.8-59.4-59.4-2.8 2.8zm-11.3 11.3l59.4 59.4 2.8-2.8-59.3-59.4-2.9 2.8zm34-33.9l59.4 59.4 2.8-2.8-59.4-59.5-2.8 2.9zm73.5 401.6l-59.4-59.4-2.8 2.8 59.4 59.4 2.8-2.8zm182.4-434.2l2.8 2.8 59.4-59.4-2.8-2.8-59.4 59.4zM845.4 103l2.8 2.8 59.4-59.4-2.8-2.8-59.4 59.4zm-11.3-11.3l2.8 2.8 59.4-59.4-2.8-2.8-59.4 59.4zm-11.3-11.3l2.8 2.8L885 23.8l-2.8-2.8-59.4 59.4zm45.3 45.2l2.8 2.8L930.3 69l-2.8-2.8-59.4 59.4zm-11.3-11.3l2.8 2.8L919 57.7l-2.8-2.8-59.4 59.4zM989.7 69l59.4 59.4 2.8-2.8-59.4-59.4-2.8 2.8zm11.3-11.3l59.4 59.4 2.8-2.8-59.4-59.4-2.8 2.8zm-77.8 77.8l59.4 59.4 2.8-2.8-59.4-59.4-2.8 2.8zm11.3-11.3l59.4 59.4 2.8-2.8-59.4-59.4-2.8 2.8zm22.7-22.6l59.4 59.4 2.8-2.8L960 98.7l-2.8 2.9zM811.5 69l2.8 2.8 59.4-59.4-2.8-2.8L811.5 69zM603.6 395.7l59.4-59.4-2.8-2.8-59.4 59.4 2.8 2.8zm52.3-125.8l2.8 2.8 59.4-59.4-2.8-2.8-59.4 59.4zm-66.4 199.4l59.4 59.4 2.8-2.8-59.4-59.4-2.8 2.8zm169.7-274.4l59.4-59.4-2.8-2.8-59.4 59.4 2.8 2.8zM581 729.5l59.4-59.4-2.8-2.8-59.4 59.4 2.8 2.8zm55.1-123.1l59.4-59.4-2.8-2.8-59.4 59.4 2.8 2.8zm97.6-436.9l2.8 2.8 59.4-59.4-2.8-2.8-59.4 59.4zm11.3 11.3l2.8 2.8 59.4-59.4-2.8-2.8-59.4 59.4zm-77.7 100.4l2.8 2.8 59.4-59.4-2.8-2.8-59.4 59.4zm14.1 14.1l59.4-59.4-2.8-2.8-59.4 59.4 2.8 2.8zM1899 1060.4l-59.4-59.4-2.8 2.8 59.4 59.4 2.8-2.8zm-852.7 734l59.4 59.4 2.8-2.8-59.4-59.4-2.8 2.8zm226.2-314l-59.4 59.4 2.8 2.8 59.4-59.4-2.8-2.8zm-557.2-200.8l-59.4 59.4 2.8 2.8 59.4-59.4-2.8-2.8zm-111.7 185.3l59.4-59.4-2.8-2.8-59.4 59.4 2.8 2.8zm609.5 162.6l59.4 59.4 2.8-2.8-59.4-59.4-2.8 2.8zm-72.1 190.9l-59.4-59.4-2.8 2.8 59.4 59.4 2.8-2.8zm330.9-910.7l59.4-59.4-2.8-2.8-59.4 59.4 2.8 2.8zm-152.7 732.5l-59.4-59.4-2.8 2.8 59.4 59.4 2.8-2.8zm207.9-855.6l59.4-59.4-2.8-2.8-59.4 59.4 2.8 2.8zm-69.3 108.9l2.8 2.8L1520 837l-2.8-2.8-59.4 59.3zm-233.3 722.7l59.4 59.4 2.8-2.8-59.4-59.4-2.8 2.8zM695.5 482l-59.4-59.4-2.8 2.8 59.4 59.4 2.8-2.8zm687.3 514.8l59.4-59.4-2.8-2.8L1380 994l2.8 2.8zM945.9 112.9l59.4 59.4 2.8-2.8-59.4-59.4-2.8 2.8zM411.3 916.2l2.8 2.8 59.4-59.4-2.8-2.8-59.4 59.4zm1083.3-104.7l-59.4 59.4 2.8 2.8 59.4-59.4-2.8-2.8zM992.5 250.1l59.4-59.4-2.8-2.8-59.4 59.4 2.8 2.8zm499.2 386l59.4 59.4 2.8-2.8-59.4-59.4-2.8 2.8zm-988.5 906.6l59.4-59.4-2.8-2.8-59.4 59.4 2.8 2.8zm34-441.3l-59.4 59.4 2.8 2.8 59.4-59.4-2.8-2.8zm77.7 256l-59.4 59.4 2.8 2.8 59.4-59.4-2.8-2.8zm-189.5-70.7l59.4-59.4-2.8-2.8-59.4 59.4 2.8 2.8zM600.8 458l59.4 59.4 2.8-2.8-59.4-59.4-2.8 2.8zm1083.3 186.6l-59.4 59.4 2.8 2.8 59.4-59.4-2.8-2.8zm-114.6 270.1l59.4 59.4 2.8-2.8-59.4-59.4-2.8 2.8zm-45.2-311.1l59.4 59.4 2.8-2.8-59.4-59.4-2.8 2.8zm62.2 413l-59.4-59.4-2.8 2.8 59.4 59.4 2.8-2.8zm22.6-22.7l-59.4-59.4-2.8 2.8 59.4 59.4 2.8-2.8zm11.3-11.3l-59.4-59.4-2.8 2.8 59.4 59.4 2.8-2.8zm-22.6 22.7l-59.4-59.4-2.8 2.8 59.4 59.4 2.8-2.8zM1483.3 919l59.4-59.4-2.8-2.8-59.4 59.4 2.8 2.8zm-166.9-642.1l-59.4 59.4 2.8 2.8 59.4-59.4-2.8-2.8zM1595 733.7l-59.4 59.4 2.8 2.8 59.4-59.4-2.8-2.8zm-41 137.2l-2.8-2.8-59.4 59.4 2.8 2.8 59.4-59.4zm-14.2 192.3l2.8-2.8-59.4-59.4-2.8 2.8 59.4 59.4zm14.2-14.1l-59.4-59.4-2.8 2.8 59.4 59.4 2.8-2.8zm59.4-356.4l2.8 2.8 59.4-59.4-2.8-2.8-59.4 59.4zM1561 818.6l59.4-59.4-2.8-2.8-59.4 59.4 2.8 2.8zm-25.4-226.3l59.4 59.4 2.8-2.8-59.4-59.4-2.8 2.8zm11.3 212.1l2.8 2.8 59.4-59.4-2.8-2.8-59.4 59.4zm96.2 155.6l-59.4-59.4-2.8 2.8 59.4 59.4 2.8-2.8zM484.8 870.9l-2.8-2.8-59.4 59.4 2.8 2.8 59.4-59.4zm1190.8 121.6l-2.8-2.8-59.4 59.4 2.8 2.8 59.4-59.4zm-62.2-121.6l59.4 59.4 2.8-2.8-59.4-59.4-2.8 2.8zm26.8-91.9l-59.4 59.4 2.8 2.8 59.4-59.4-2.8-2.8zm-70.7 48.1l2.8 2.8 59.4-59.4-2.8-2.8-59.4 59.4zM793.1 466.4l-59.4 59.4 2.8 2.8 59.4-59.4-2.8-2.8zm479.4 657.6l-59.4 59.4 2.8 2.8 59.4-59.4-2.8-2.8zM1141 1462l-59.4-59.4-2.8 2.8 59.4 59.4 2.8-2.8zm-94.7-24l59.4 59.4 2.8-2.8-59.4-59.4-2.8 2.8zm-331-514.8l-59.4 59.4 2.8 2.8 59.4-59.4-2.8-2.8zm319.7 526.1l59.4 59.4 2.8-2.8-59.4-59.4-2.8 2.8zM1346.1 960l2.8 2.8 59.4-59.4-2.8-2.8-59.4 59.4zm-66.5-111.7l59.4 59.4 2.8-2.8-59.4-59.4-2.8 2.8zM834.1 448.1l2.8 2.8 59.4-59.4-2.8-2.8-59.4 59.4zm485.1 835.8l-59.4-59.4-2.8 2.8 59.4 59.4 2.8-2.8zm-94.7-24.1l59.4 59.4 2.8-2.8-59.4-59.4-2.8 2.8zm-11.4 11.3l59.4 59.4 2.8-2.8-59.4-59.4-2.8 2.8zm-609.5-162.6l59.4-59.4-2.8-2.8-59.4 59.4 2.8 2.8zm620.9-205.1l59.4 59.4 2.8-2.8-59.4-59.4-2.8 2.8zm-11.4 11.3l59.4 59.4 2.8-2.8-59.4-59.4-2.8 2.8zm43.9 134.4l2.8 2.8 59.4-59.4-2.8-2.8-59.4 59.4zm-66.5-111.7l59.4 59.4 2.8-2.8-59.4-59.4-2.8 2.8zm-495-99L636.1 779l-2.8 2.8 59.4 59.4 2.8-2.8zm506.3 87.7l59.4 59.4 2.8-2.8-59.4-59.4-2.8 2.8zM681.4 651.7l59.4-59.4-2.8-2.8-59.4 59.4 2.8 2.8zm-80.6 162.6l59.4 59.4 2.8-2.8-59.4-59.4-2.8 2.8zm603.9-352.1l59.4-59.4-2.8-2.8-59.4 59.4 2.8 2.8zm52.3 408.7l59.4 59.4 2.8-2.8-59.4-59.4-2.8 2.8zm-783.5 189.5l-59.4-59.4-2.8 2.8 59.4 59.4 2.8-2.8zm857-144.2l-59.4-59.4-2.8 2.8 59.4 59.4 2.8-2.8zm-786.3-45.3l59.4 59.4 2.8-2.8-59.4-59.4-2.8 2.8zm-32.5 32.5l59.4 59.4 2.8-2.8-59.4-59.4-2.8 2.8zm106.1 12.8l-59.4-59.4-2.8 2.8L615 919l2.8-2.8zm-11.4 76.3l-2.8-2.8-59.4 59.4 2.8 2.8 59.4-59.4zm11.4 11.3l-2.8-2.8-59.4 59.4 2.8 2.8 59.4-59.4zm-117.4-89.1l59.4 59.4 2.8-2.8-59.4-59.4-2.8 2.8zm17 101.9L458 957.2l-2.8 2.8 59.4 59.4 2.8-2.8zm33.9-34l-59.4-59.4-2.8 2.8 59.4 59.4 2.8-2.8zm-66.5 66.5l-59.4-59.4-2.8 2.8 59.4 59.4 2.8-2.8zm43.9-43.8l-59.4-59.4-2.8 2.8 59.4 59.4 2.8-2.8zm11.3-11.4l-59.4-59.4-2.8 2.8 59.4 59.4 2.8-2.8zm776.4-360.6l-59.4 59.4 2.8 2.8 59.4-59.4-2.8-2.8zm-111.7 185.3l59.4-59.4-2.8-2.8-59.4 59.4 2.8 2.8zm212.1 93.3l-59.4 59.4 2.8 2.8 59.4-59.4-2.8-2.8zm-178.2-534.6l-59.4 59.4 2.8 2.8 59.4-59.4-2.8-2.8zm63.6 717.1l2.8 2.8 59.4-59.4-2.8-2.8-59.4 59.4zm73.6-45.3l-2.8-2.8-59.4 59.4 2.8 2.8 59.4-59.4zm-735.4-22.6l-2.8-2.8-59.4 59.4 2.8 2.8 59.4-59.4zm-66.5 111.7l-2.8-2.8-59.4 59.4 2.8 2.8 59.4-59.4zm52.3-125.9l-59.4 59.4 2.8 2.8 59.4-59.4-2.8-2.8zm-123 174l59.4-59.4-2.8-2.8-59.4 59.4 2.8 2.8zm623.7-623.7l59.4-59.4-2.8-2.8-59.4 59.4 2.8 2.8zm-991.4 256l59.4-59.4-2.8-2.8-59.4 59.4 2.8 2.8zm223.5 461l-59.4 59.4 2.8 2.8 59.4-59.4-2.8-2.8zm943.2 615.2l25.2 25.2h5.7l-28-28-2.9 2.8zM0 1333.1l28-28-2.8-2.8L0 1327.4v5.7zm80.4-153.9L21 1238.6l2.8 2.8 59.4-59.4-2.8-2.8zm166.8 285.7l59.4-59.4-2.8-2.8-59.4 59.4 2.8 2.8zm1250.2 353.5L1438 1759l-2.8 2.8 59.4 59.4 2.8-2.8zm287.1-538.8l-59.4 59.4 2.8 2.8 59.4-59.4-2.8-2.8zm-111.7 185.3l59.4-59.4-2.8-2.8-59.4 59.4 2.8 2.8zm-178.2 178.2l59.4-59.4-2.8-2.8-59.4 59.4 2.8 2.8zm-92 151.3l59.4 59.4 2.8-2.8-59.4-59.4-2.8 2.8zm203.7-336.6l-59.4 59.4 2.8 2.8 59.4-59.4-2.8-2.8zM247.2 633.3l-59.4 59.4 2.8 2.8 59.4-59.4-2.8-2.8zm1670.2 289.9l-2.8 2.8 5.4 5.4v-5.7l-2.6-2.5zm0-104.6l2.6-2.6v-5.7l-5.4 5.4 2.8 2.9zm-11.3 115.9l-2.8 2.8L1920 954v-5.7l-13.9-13.8zM1894.8 796l25.2-25.2v-5.7l-28 28 2.8 2.9zm-767.9 123l59.4-59.4-2.8-2.8-59.4 59.4 2.8 2.8zm779.2-111.7l13.9-13.9v-5.7l-16.7 16.7 2.8 2.9zm1.4 60.8l-59.4 59.4 2.8 2.8 59.4-59.4-2.8-2.8zm12.5-459.4l-28 28 2.8 2.8 25.2-25.2v-5.6zm-359 53.5l59.4-59.4-2.8-2.8-59.4 59.4 2.8 2.8zM1839.6 919l59.4-59.4-2.8-2.8-59.4 59.4 2.8 2.8zm80.4 52.1l-25.2-25.2-2.8 2.8 28 28v-5.6zm-247.2-694.2l-59.4 59.4 2.8 2.8 59.4-59.4-2.8-2.8zm175.3 1363.3l2.8 2.8 59.4-59.4-2.8-2.8-59.4 59.4zm58 7.1l-2.8 2.8 16.7 16.7v-5.7l-13.9-13.8zm-14.1 14.1l28 28v-5.7l-25.2-25.2-2.8 2.9zm28-160.9l-16.7 16.7 2.8 2.8 13.9-13.9v-5.6zM436.7 1892l-28 28h5.7l25.2-25.2-2.9-2.8zm512-1864l28-28H971l-25.2 25.2 2.9 2.8zm936.2-22.6l2.8-2.8-2.6-2.6h-5.7l5.5 5.4zM224.6 1903.3l-2.8 2.8 13.9 13.9h5.7l-16.8-16.7zm1434-8.5l25.2 25.2h5.7l-28-28-2.9 2.8zM25.2 1658.6L0 1683.8v5.7l28-28-2.8-2.9zm1692.8 89.1l-59.4 59.4 2.8 2.8 59.4-59.4-2.8-2.8zM80.4 1535.6L21 1595l2.8 2.8 59.4-59.4-2.8-2.8zM0 597.7L16.7 581l-2.8-2.8L0 592.1v5.6zm12.5-80.3L71.9 458l-2.8-2.8-59.5 59.3 2.9 2.9zM0 414.4l25.2 25.2 2.8-2.8-28-28v5.6zm1839.6 148.2l59.4-59.4-2.8-2.8-59.4 59.4 2.8 2.8zM169.5 377.3l-59.4 59.4 2.8 2.8 59.4-59.4-2.8-2.8zM57.7 562.6l59.4-59.4-2.8-2.8-59.4 59.4 2.8 2.8zm189.5-285.7l-59.4 59.4 2.8 2.8 59.4-59.4-2.8-2.8zM146.8 1542.7l59.4-59.4-2.8-2.8-59.4 59.4 2.8 2.8zM135.5 462.2l59.4-59.4-2.8-2.8-59.4 59.4 2.8 2.8zm123.1 895.2l-59.4 59.4 2.8 2.8 59.4-59.4-2.8-2.8zM241.3 0h-5.7l-13.9 13.9 2.8 2.8L241.3 0zm1506.4 1092.9l59.4 59.4 2.8-2.8-59.4-59.4-2.8 2.8zm50.9-155.5l-2.8-2.8-59.4 59.4 2.8 2.8 59.4-59.4zm22.7 200.8l-59.4-59.4-2.8 2.8 59.4 59.4 2.8-2.8zm41-315.4l-59.4 59.4 2.8 2.8 59.4-59.4-2.8-2.8zm-55.2 123.1l-59.4 59.4 2.8 2.8 59.4-59.4-2.8-2.8zm-31.1-31.2l-2.8-2.8-59.4 59.4 2.8 2.8 59.4-59.4zm0-87.6l-59.4-59.4-2.8 2.8 59.4 59.4 2.8-2.8zm15.6 43.8l2.8 2.8 59.4-59.4-2.8-2.8-59.4 59.4zm-121.7-56.6l59.4 59.4 2.8-2.8-59.4-59.4-2.8 2.8zm-11.3 11.3L1718 885l2.8-2.8-59.4-59.4-2.8 2.8zm46.7 137.2l59.4-59.4-2.8-2.8-59.4 59.4 2.8 2.8zm-58-125.8l59.4 59.4 2.8-2.8-59.4-59.4-2.8 2.8zm-152.7 449.7l59.4-59.4-2.8-2.8-59.4 59.4 2.8 2.8zm181-2.8l-59.4-59.4-2.8 2.8 59.4 59.4 2.8-2.8zm-69.3-182.5l-59.4 59.4 2.8 2.8 59.4-59.4-2.8-2.8zM525.8 377.3l-59.4 59.4 2.8 2.8 59.4-59.4-2.8-2.8zm1210.6 370.6l59.4 59.4 2.8-2.8-59.4-59.4-2.8 2.8zM414.1 562.6l59.4-59.4-2.8-2.8-59.4 59.4 2.8 2.8zm1166.7 697.2l59.4 59.4 2.8-2.8-59.4-59.4-2.8 2.8zm144.3-500.6l59.4 59.4 2.8-2.8-59.4-59.4-2.8 2.8zm-55.2-9.9l2.8 2.8 59.4-59.4-2.8-2.8-59.4 59.4zm-11.3-11.3l2.8 2.8 59.4-59.4-2.8-2.8-59.4 59.4zm43.9 43.8l59.4 59.4 2.8-2.8-59.4-59.4-2.8 2.8zm-130.1 760.9l59.4-59.4-2.8-2.8-59.4 59.4 2.8 2.8zm111.7-185.3l-59.4 59.4 2.8 2.8 59.4-59.4-2.8-2.8zm199.4-572.8l36.5-36.5v-5.7l-39.3 39.3 2.8 2.9zm-35.4-148.5l59.4 59.4 2.8-2.8-59.4-59.4-2.8 2.8zm-19.8 271.6l59.4-59.4-2.8-2.8-59.4 59.4 2.8 2.8zm-14.1-14.2l2.8 2.8 59.4-59.4-2.8-2.8-59.4 59.4zm22.6-246l59.4 59.4 2.8-2.8-59.4-59.4-2.8 2.8zm43.9-43.9L1920 643v-5.7l-36.5-36.5-2.8 2.8zm39.3 390.1l-36.5-36.5-2.8 2.8 39.3 39.3v-5.6zm-9.6 55.4l-59.4-59.4-2.8 2.8 59.4 59.4 2.8-2.8zm7 125.9l2.6-2.6v-5.7l-5.4 5.4 2.8 2.9zM1892 592.3l28 28v-5.7l-25.2-25.2-2.8 2.9zM695.5 125.6l-59.4-59.4-2.8 2.8 59.4 59.4 2.8-2.8zm799.1 329.5l-59.4 59.4 2.8 2.8 59.4-59.4-2.8-2.8zm-11.3 107.5l59.4-59.4-2.8-2.8-59.4 59.4 2.8 2.8zm-100.5 77.8l59.4-59.4-2.8-2.8-59.4 59.4 2.8 2.8zm-36.7-215l59.4 59.4 2.8-2.8-59.4-59.4-2.8 2.8zm248.9-48.1l-59.4 59.4 2.8 2.8 59.4-59.4-2.8-2.8zm189.5 545.9l-59.4 59.4 2.8 2.8 59.4-59.4-2.8-2.8zM537.2 1457.8l-59.4 59.4 2.8 2.8 59.4-59.4-2.8-2.8zm-111.8 185.3l59.4-59.4-2.8-2.8-59.4 59.4 2.8 2.8zm1247.4-534.6l59.4-59.4-2.8-2.8-59.4 59.4 2.8 2.8zM600.8 101.6l59.4 59.4 2.8-2.8-59.4-59.4-2.8 2.8zM1290.9 837l59.4 59.4 2.8-2.8-59.4-59.4-2.8 2.8zm-635-77.8l59.4 59.4 2.8-2.8-59.4-59.4-2.8 2.8zm11.4-11.3l59.4 59.4 2.8-2.8-59.4-59.5-2.8 2.9zm-19.8 226.2l59.4-59.4-2.8-2.8-59.4 59.4 2.8 2.8zM738 796l2.8-2.8-59.4-59.4-2.8 2.8L738 796zm-8.5 141.4l-2.8-2.8-59.4 59.4 2.8 2.8 59.4-59.4zm-84.9-166.9l59.4 59.4 2.8-2.8-59.4-59.4-2.8 2.8zm123.1-210.7l2.8 2.8 59.4-59.4-2.8-2.8-59.4 59.4zm-77.8 100.4l2.8 2.8 59.4-59.4-2.8-2.8-59.4 59.4zm89.1-89.1l2.8 2.8 59.4-59.4-2.8-2.8-59.4 59.4zm-22.6 87.7l59.4 59.4 2.8-2.8-59.4-59.4-2.8 2.8zM745 670.1l59.4 59.4 2.8-2.8-59.4-59.4-2.8 2.8zm7.1 468.1l-59.4-59.4-2.8 2.8 59.4 59.4 2.8-2.8zm77.8 77.8l-2.8-2.8-59.4 59.4 2.8 2.8 59.4-59.4zm-11.3-11.3l-2.8-2.8-59.4 59.4 2.8 2.8 59.4-59.4zm11.3 212.1l-59.4-59.4-2.8 2.8 59.4 59.4 2.8-2.8zm-25.5-226.3l-59.4 59.4 2.8 2.8 59.4-59.4-2.8-2.8zm36.8 215l-59.4-59.4-2.8 2.8 59.4 59.4 2.8-2.8zm-159.8-41l59.4-59.4-2.8-2.8-59.4 59.4 2.8 2.8zm103.2-258.8l-59.4-59.4-2.8 2.8 59.4 59.4 2.8-2.8zm-32.5 210.7l-2.8-2.8-59.4 59.4 2.8 2.8 59.4-59.4zm82-735.4l59.4 59.4 2.8-2.8-59.3-59.4-2.9 2.8zm-93.3 568.5l-59.4-59.4-2.8 2.8 59.4 59.4 2.8-2.8zm-4.2 91.9L796 1182l-2.8-2.8-59.4 59.4 2.8 2.8zm253.1-816l59.4 59.4 2.8-2.8-59.4-59.4-2.8 2.8zm93.3 152.8l-59.4 59.4 2.8 2.8 59.4-59.4-2.8-2.8zm-36.7 147l59.4 59.4 2.8-2.8-59.4-59.4-2.8 2.8zm-11.3 11.4l59.4 59.4 2.8-2.8-59.4-59.4-2.8 2.8zm-34-322.5l59.4 59.4 2.8-2.8-59.4-59.4-2.8 2.8zm11.3 212.1l2.8 2.8 59.4-59.4-2.8-2.8-59.4 59.4zm-11.3-11.3l2.8 2.8 59.4-59.4-2.8-2.8-59.4 59.4zm77.8 77.8l59.4 59.4 2.8-2.8-59.4-59.4-2.8 2.8zm26.9 264.5l-59.4 59.4 2.8 2.8 59.4-59.4-2.8-2.8zM845.4 569.7l59.4 59.4 2.8-2.8-59.4-59.4-2.8 2.8zm244.7 111.7l59.4 59.4 2.8-2.8-59.4-59.4-2.8 2.8zm0 200.8l2.8 2.8 59.4-59.4-2.8-2.8-59.4 59.4zm62.2 212.2l-59.4-59.4-2.8 2.8 59.4 59.4 2.8-2.8zM900.6 514.5l59.4 59.4 2.8-2.8-59.4-59.4-2.8 2.8zm11.3-11.3l59.4 59.4 2.8-2.8-59.4-59.4-2.8 2.8zM873.7 1373l-59.4-59.4-2.8 2.8 59.4 59.4 2.8-2.8zm-16.9-814.6l59.4 59.4 2.8-2.8-59.4-59.4-2.8 2.8zm11.3-11.4l59.4 59.4 2.8-2.8-59.4-59.4-2.8 2.8zm55.1 168.3l2.8 2.8 59.4-59.4-2.8-2.8-59.4 59.4zm34-257.3l59.4 59.4 2.8-2.8-59.4-59.5-2.8 2.9zm-19.8 271.5l59.4-59.4-2.8-2.8-59.4 59.4 2.8 2.8zm8.5-260.2l59.4 59.4 2.8-2.8-59.4-59.4-2.8 2.8zm46.6 137.1l59.4-59.4-2.8-2.8-59.4 59.4 2.8 2.8zm-96.1 743.9l-59.4-59.4-2.8 2.8 59.4 59.4 2.8-2.8zm149.9-690.1l2.8 2.8 59.4-59.4-2.8-2.8-59.4 59.4zm55.1 9.9l59.4 59.4 2.8-2.8-59.4-59.4-2.8 2.8zm11.3-11.3l59.4 59.4 2.8-2.8-59.4-59.4-2.8 2.8zm36.8-192.4l-59.4 59.4 2.8 2.8 59.4-59.4-2.8-2.8zm-70.7 48.1l2.8 2.8L1141 458l-2.8-2.8-59.4 59.3zM1035 648.9l2.8 2.8 59.4-59.4-2.8-2.8-59.4 59.4zm178.1 178.2l2.8 2.8 59.4-59.4-2.8-2.8-59.4 59.4zm11.4 11.3l2.8 2.8 59.4-59.4-2.8-2.8-59.4 59.4zm-41.1-131.5l2.8-2.8-59.4-59.4-2.8 2.8 59.4 59.4zm-48-135.8l2.8 2.8 59.4-59.4-2.8-2.8-59.4 59.4zm55.1 9.9l59.4 59.4 2.8-2.8-59.4-59.4-2.8 2.8zm-178.2-178.2l59.4 59.4 2.8-2.8-59.4-59.4-2.8 2.8zm-155.5 67.9l2.8 2.8 59.4-59.4-2.8-2.8-59.4 59.4zm11.3 11.3l2.8 2.8 59.4-59.4-2.8-2.8-59.4 59.4zm103.2-193.8l-59.4 59.4 2.8 2.8 59.4-59.4-2.8-2.8zm-70.7 48.1l2.8 2.8 59.4-59.4-2.8-2.8-59.4 59.4zm-52.3 125.9l59.4-59.4-2.8-2.8-59.4 59.4 2.8 2.8zm479.4 538.8l-59.4 59.4 2.8 2.8 59.4-59.4-2.8-2.8zm-304.1-609.5l59.4 59.4 2.8-2.8-59.4-59.4-2.8 2.8zM923.2 491.9l59.4 59.4 2.8-2.8-59.4-59.4-2.8 2.8zm34-99l2.8 2.8 59.4-59.4-2.8-2.8-59.4 59.4zm-22.7 87.7l59.4 59.4 2.8-2.8-59.4-59.4-2.8 2.8zm11.4-99l2.8 2.8 59.4-59.4-2.8-2.8-59.4 59.4zm217.7 701.4l-59.4-59.4-2.8 2.8 59.4 59.4 2.8-2.8zm-111.7 176.8l-2.8-2.8-59.4 59.4 2.8 2.8 59.4-59.4zm11.3 11.3l-2.8-2.8-59.4 59.4 2.8 2.8 59.4-59.4zm-114.5 182.5l59.4-59.4-2.8-2.8-59.4 59.4 2.8 2.8zm125.9 74.9l-59.4-59.4-2.8 2.8 59.4 59.4 2.8-2.8zm-77.8-278.6l-59.4-59.4-2.8 2.8 59.4 59.4 2.8-2.8zm22.6 155.6l-2.8-2.8-59.4 59.4 2.8 2.8 59.4-59.4zm-33.9-144.3l-59.4-59.4-2.8 2.8 59.4 59.4 2.8-2.8zm96.1-214.9l-2.8 2.8 59.4 59.4 2.8-2.8-59.4-59.4zM907.7 1339l-59.4-59.4-2.8 2.8 59.4 59.4 2.8-2.8zm55.1 9.9l-2.8-2.8-59.4 59.4 2.8 2.8 59.4-59.4zm11.3 11.3l-2.8-2.8-59.4 59.4 2.8 2.8 59.4-59.4zm264.5-626.5l-59.4 59.4 2.8 2.8 59.4-59.4-2.8-2.8zm-111.7 541.7l59.4-59.4-2.8-2.8-59.4 59.4 2.8 2.8zm114.5-182.5l-2.8-2.8-59.4 59.4 2.8 2.8 59.4-59.4zm-43.8 134.4l-2.8-2.8-59.4 59.4 2.8 2.8 59.4-59.4zm32.5-145.7l-2.8-2.8-59.4 59.4 2.8 2.8 59.4-59.4zm19.8 19.8l-59.4 59.4 2.8 2.8 59.4-59.4-2.8-2.8zm14.2 14.2l-2.8-2.8-59.4 59.4 2.8 2.8 59.4-59.4zm-114.6 63.6l-59.4 59.4 2.8 2.8 59.4-59.4-2.8-2.8zm-63.6 338l-59.4-59.4-2.8 2.8 59.4 59.4 2.8-2.8zm89.1-445.5l-59.4-59.4-2.8 2.8 59.4 59.4 2.8-2.8zm-290 289.9l-59.4-59.4-2.8 2.8 59.4 59.4 2.8-2.8zm209.4-59.4l-59.4 59.4 2.8 2.8 59.4-59.4-2.8-2.8zm-70.8-554.3l59.4 59.4 2.8-2.8-59.4-59.4-2.8 2.8zm114.6 63.6l-59.4 59.4 2.8 2.8 59.4-59.4-2.8-2.8zM945.9 738l2.8 2.8 59.4-59.4-2.8-2.8-59.4 59.4zm66.4 21.2l59.4 59.4 2.8-2.8-59.4-59.4-2.8 2.8zm-55.1-9.9l2.8 2.8 59.4-59.4-2.8-2.8-59.4 59.4zm58 236.2l59.4-59.4-2.8-2.8-59.4 59.4 2.8 2.8zm4.2 63.6l-2.8-2.8-59.4 59.4 2.8 2.8 59.4-59.4zm75-103.2l-59.4 59.4 2.8 2.8 59.4-59.4-2.8-2.8zm-145.7 151.3l59.4-59.4-2.8-2.8-59.4 59.4 2.8 2.8zm137.2 63.6l-59.4-59.4-2.8 2.8 59.4 59.4 2.8-2.8zm-11.3 11.3l-59.4-59.4-2.8 2.8 59.4 59.4 2.8-2.8zm-51-178.2l2.8 2.8 59.4-59.4-2.8-2.8-59.4 59.4zm-182.4 55.2l-59.4-59.4-2.8 2.8 59.4 59.4 2.8-2.8zm32.5-32.5l-59.4-59.4-2.8 2.8 59.4 59.4 2.8-2.8zm11.3-11.3l-59.4-59.4-2.8 2.8 59.4 59.4 2.8-2.8zM934.5 837l59.4 59.4 2.8-2.8-59.4-59.4-2.8 2.8zm-38.1 156.9L837 934.5l-2.8 2.8 59.4 59.4 2.8-2.8zm-66.5 66.5l-59.4-59.4-2.8 2.8 59.4 59.4 2.8-2.8zm141.4-59.4l-59.4 59.4 2.8 2.8 59.4-59.4-2.8-2.8zM841.2 870.9l-2.8-2.8-59.4 59.4 2.8 2.8 59.4-59.4zm82-22.6l59.4 59.4 2.8-2.8-59.4-59.4-2.8 2.8zm-63.6 338l59.4-59.4-2.8-2.8-59.4 59.4 2.8 2.8zm-91.9-270.1l2.8 2.8 59.4-59.4-2.8-2.8-59.4 59.4zm340.8 222l-59.4-59.4-2.8 2.8 59.4 59.4 2.8-2.8zm7.1-230.5l59.4-59.4-2.8-2.8-59.4 59.4 2.8 2.8zM1249.9 745l-59.4 59.4 2.8 2.8 59.4-59.4-2.8-2.8zm-82-141.4l59.4 59.4 2.8-2.8-59.4-59.4-2.8 2.8zm2.8 181l59.4-59.4-2.8-2.8-59.4 59.4 2.8 2.8zm-107.5 130.1l-2.8-2.8-59.4 59.4 2.8 2.8 59.4-59.4zm116-322.4l59.4 59.4 2.8-2.8-59.4-59.4-2.8 2.8zm18.4 456.8l-59.4-59.4-2.8 2.8 59.4 59.4 2.8-2.8zm-14.2 14.1l2.8-2.8-59.4-59.4-2.8 2.8 59.4 59.4zm-48-135.7l2.8 2.8 59.4-59.4-2.8-2.8-59.4 59.4zm94.7 89.1l-59.4-59.4-2.8 2.8 59.4 59.4 2.8-2.8zm11.3-11.3l-59.4-59.4-2.8 2.8 59.4 59.4 2.8-2.8zm-106-369.2l59.4 59.4 2.8-2.8-59.4-59.4-2.8 2.8zm-72.2 191l-59.4-59.4-2.8 2.8 59.4 59.4 2.8-2.8zm-106-12.8l59.4 59.4 2.8-2.8-59.4-59.4-2.8 2.8zm32.5-32.5l59.4 59.4 2.8-2.8-59.4-59.4-2.8 2.8zm-43.8 43.8l59.4 59.4 2.8-2.8-59.4-59.4-2.8 2.8zm155.5 67.9l2.8 2.8 59.4-59.4-2.8-2.8-59.4 59.4zm-108.9 69.3l59.4-59.4-2.8-2.8-59.4 59.4 2.8 2.8zm-84.8 19.8l-59.4-59.4-2.8 2.8 59.4 59.4 2.8-2.8zm-125.9 304.1l59.4-59.4-2.8-2.8-59.4 59.4 2.8 2.8zm111.7-185.3l-59.4 59.4 2.8 2.8 59.4-59.4-2.8-2.8zm141.5-8.5l59.4 59.4 2.8-2.8-59.4-59.4-2.8 2.8zm-116 234.8l-59.4-59.4-2.8 2.8 59.4 59.4 2.8-2.8zm-11.3-212.1l-2.8-2.8-59.4 59.4 2.8 2.8 59.4-59.4zm-34-34l-2.8-2.8-59.4 59.4 2.8 2.8 59.4-59.4zm11.3 11.3l-2.8-2.8-59.4 59.4 2.8 2.8 59.4-59.4zm45.3 223.5l-59.4-59.4-2.8 2.8 59.4 59.4 2.8-2.8zm207.9-148.5l-59.4 59.4 2.8 2.8 59.4-59.4-2.8-2.8zM752.1 960l-2.8-2.8-59.4 59.4 2.8 2.8 59.4-59.4zm210.7 323.9l-59.4-59.4-2.8 2.8 59.4 59.4 2.8-2.8zm-281.4-275.8l59.4-59.4-2.8-2.8-59.4 59.4 2.8 2.8zm186.7-104.7l59.4 59.4 2.8-2.8-59.4-59.4-2.8 2.8zm-72.1 191l-59.4-59.4-2.8 2.8 59.4 59.4 2.8-2.8zm11.3-11.4l-59.4-59.4-2.8 2.8 59.4 59.4 2.8-2.8zm255.9 100.4l-59.4-59.4-2.8 2.8 59.4 59.4 2.8-2.8zM796 825.6l-2.8-2.8-59.4 59.4 2.8 2.8 59.4-59.4zm255.9 369.2l-59.4-59.4-2.8 2.8 59.4 59.4 2.8-2.8zm-36.7 147l59.4-59.4-2.8-2.8-59.4 59.4 2.8 2.8zm70.7-48l-2.8-2.8-59.4 59.4 2.8 2.8 59.4-59.4zm-66.5-66.5l-59.4-59.4-2.8 2.8 59.4 59.4 2.8-2.8zm-36.8-215l-59.4 59.4 2.8 2.8 59.4-59.4-2.8-2.8zm-55.1 123.1l-59.4 59.4 2.8 2.8 59.4-59.4-2.8-2.8zm80.6 103.2l-59.4-59.4-2.8 2.8 59.4 59.4 2.8-2.8zm-34 33.9l-59.4-59.4-2.8 2.8 59.4 59.4 2.8-2.8zm22.7-246l-2.8-2.8-59.4 59.4 2.8 2.8 59.4-59.4zm-178.2 45.2l-59.4-59.4-2.8 2.8 59.4 59.4 2.8-2.8zm38.2-244.6l2.8 2.8 59.4-59.4-2.8-2.8-59.4 59.4zm43.8-134.4l2.8 2.8 59.4-59.4-2.8-2.8-59.4 59.4zm-175.4 181l59.4-59.4-2.8-2.8-59.4 59.4 2.8 2.8zm123.1-55.1l59.4-59.4-2.8-2.8-59.4 59.4 2.8 2.8zm-25.5-25.5l2.8 2.8 59.4-59.4-2.8-2.8-59.4 59.4zm11.3 11.3l2.8 2.8 59.4-59.4-2.8-2.8-59.4 59.4zm128.7 123.1l-59.4-59.4-2.8 2.8 59.4 59.4 2.8-2.8zm-94.7-89.1l2.8 2.8 59.4-59.4-2.8-2.8-59.4 59.4zm-11.3 76.3l59.4 59.4 2.8-2.8-59.4-59.4-2.8 2.8zm106 77.8l-2.8-2.8-59.4 59.4 2.8 2.8 59.4-59.4zm-48.1-135.7l-2.8 2.8 59.4 59.4 2.8-2.8-59.4-59.4zm56.6-212.2L911.9 704l2.8 2.8 59.4-59.4-2.8-2.8zM745 893.5l2.8 2.8 59.4-59.4-2.8-2.8-59.4 59.4zm-22.6-200.8l59.4 59.4 2.8-2.8-59.4-59.4-2.8 2.8zm36.8 215l59.4-59.4-2.8-2.8-59.4 59.4 2.8 2.8zm-69.3-182.5l59.4 59.4 2.8-2.8-59.4-59.4-2.8 2.8zM796 738l-59.4-59.4-2.8 2.8 59.4 59.4 2.8-2.8zm15.5-134.4l59.4 59.4 2.8-2.8-59.4-59.4-2.8 2.8zm2.8 181l59.4-59.4-2.8-2.8-59.4 59.4 2.8 2.8zm8.5-192.3l59.4 59.4 2.8-2.8-59.4-59.4-2.8 2.8zM779 636.1l59.4 59.4 2.8-2.8-59.4-59.4-2.8 2.8zm-11.3 11.4l59.4 59.4 2.8-2.8-59.4-59.4-2.8 2.8zm-417.2 535.9l-59.4-59.4-2.8 2.8 59.4 59.4 2.8-2.8zM1546.9 91.7l2.8 2.8 59.4-59.4-2.8-2.8-59.4 59.4zm11.3 11.3l2.8 2.8 59.4-59.4-2.8-2.8-59.4 59.4zm-22.6-22.6l2.8 2.8 59.4-59.4-2.8-2.8-59.4 59.4zm33.9 33.9l2.8 2.8 59.4-59.4-2.8-2.8-59.4 59.4zM1524.3 69l2.8 2.8 59.4-59.4-2.8-2.8-59.4 59.4zm189.5 189.5l2.8 2.8L1776 202l-2.8-2.8-59.4 59.3zm-11.3-11.3l2.8 2.8 59.4-59.4-2.8-2.8-59.4 59.4zm-230.6-52.3l59.4-59.4-2.8-2.8-59.4 59.4 2.8 2.8zm178.2 178.2l59.4-59.4-2.8-2.8-59.4 59.4 2.8 2.8zm-69.3-247.5l2.8 2.8L1643 69l-2.8-2.8-59.4 59.4zm55.2 9.9l59.4 59.4 2.8-2.8-59.4-59.4-2.8 2.8zm-322.4-99l2.8 2.8L1355.7 0h-5.7l-36.4 36.5zm-874-11.3L414.4 0h-5.7l28 28 2.9-2.8zm1018.2 155.6l2.8 2.8 59.4-59.4-2.8-2.8-59.4 59.4zM366 158.1l2.8 2.8 59.4-59.4-2.8-2.8-59.4 59.4zM333.5 12.5l59.4 59.4 2.8-2.8-59.4-59.5-2.8 2.9zm125.9-7.1l2.8-2.8-2.6-2.6H454l5.4 5.4zm-11.3 11.3l2.8-2.8L437 0h-5.7l16.8 16.7zm998.4 152.8l2.8 2.8 59.4-59.4-2.8-2.8-59.4 59.4zM569.7 5.4l5.4-5.4h-5.7l-2.6 2.6 2.9 2.8zM1477.9 0l28 28 2.8-2.8L1483.5 0h-5.6zm19.5 36.5L1460.9 0h-5.7l39.3 39.3 2.9-2.8zm227.7 233.4l2.8 2.8 59.4-59.4-2.8-2.8-59.4 59.4zM322.2 23.8l59.4 59.4 2.8-2.8L325 21l-2.8 2.8zm1565.5 1180.9l-2.8-2.8-59.4 59.4 2.8 2.8 59.4-59.4zm-14.1-14.2l-59.4 59.4 2.8 2.8 59.4-59.4-2.8-2.8zm25.4 226.3l-59.4-59.4-2.8 2.8 59.4 59.4 2.8-2.8zM339.2 1907.5l-59.4-59.4-2.8 2.8 59.4 59.4 2.8-2.8zM1899 1216l-2.8-2.8-59.4 59.4 2.8 2.8 59.4-59.4zm-45.2 311.1l-2.8-2.8-59.4 59.4 2.8 2.8 59.4-59.4zm-59.4-124.5l-2.8 2.8 59.4 59.4 2.8-2.8-59.4-59.4zm-18.4 137.2l-59.4-59.4-2.8 2.8 59.4 59.4 2.8-2.8zm11.3-11.3l-59.4-59.4-2.8 2.8 59.4 59.4 2.8-2.8zm123.1-123l-59.4-59.4-2.8 2.8 59.4 59.4 2.8-2.8zm-111.8 111.7l-59.4-59.4-2.8 2.8 59.4 59.4 2.8-2.8zm84.9-1088.9l36.5-36.5v-5.7l-39.3 39.3 2.8 2.9zm36.5 921.8l-36.5-36.5-2.8 2.8 39.3 39.3v-5.6zm-105.8-813l2.8 2.8 59.4-59.4-2.8-2.8-59.4 59.4zm-22.6-200.8l59.4 59.4 2.8-2.8-59.4-59.4-2.8 2.8zm-43.9 43.9l59.4 59.4 2.8-2.8-59.4-59.4-2.8 2.8zm11.3-11.3l59.4 59.4 2.8-2.8-59.4-59.4-2.8 2.8zm43.9-43.9l59.4 59.4 2.8-2.8-59.4-59.4-2.8 2.8zm25.4 226.3l59.4-59.4-2.8-2.8-59.4 59.4 2.8 2.8zm77.8-100.4L1920 437v-5.7l-16.7 16.7 2.8 2.9zm11.3 11.3l2.6-2.6V454l-5.4 5.4 2.8 2.8zm-121.6-240.4l-59.4 59.4 2.8 2.8 59.4-59.4-2.8-2.8zM128.4 1583.7l-2.8-2.8-59.4 59.4 2.8 2.8 59.4-59.4zm43.9-134.4l-2.8-2.8-59.4 59.4 2.8 2.8 59.4-59.4zM161 1438l-2.8-2.8-59.4 59.4 2.8 2.8L161 1438zm1603.7 113.1l-59.4-59.4-2.8 2.8 59.4 59.4 2.8-2.8zm-1658.9-123l-59.4-59.4-2.8 2.8 59.4 59.4 2.8-2.8zm-48.1 203.7l59.4-59.4-2.8-2.8-59.4 59.4 2.8 2.8zm36.8-192.4L35.1 1380l-2.8 2.8 59.4 59.4 2.8-2.8zM28 1505.9l-28-28v5.7l25.2 25.2 2.8-2.9zm152.8-48.1l-59.4 59.4 2.8 2.8 59.4-59.4-2.8-2.8zm-141.5 36.8L0 1455.2v5.7l36.5 36.5 2.8-2.8zm32.6-32.6l-59.4-59.4-2.8 2.8 59.4 59.4 2.8-2.8zm11.3-11.3l-59.4-59.4-2.8 2.8 59.4 59.4 2.8-2.8zm278.6 188.1l-2.8-2.8-59.4 59.4 2.8 2.8 59.4-59.4zm-11.3-11.3l-2.8-2.8-59.4 59.4 2.8 2.8 59.4-59.4zm-11.3-11.3l-2.8-2.8-59.4 59.4 2.8 2.8 59.4-59.4zm-144.3-144.3l-2.8-2.8-59.4 59.4 2.8 2.8 59.4-59.4zm89.1 134.4l-59.4-59.4-2.8 2.8 59.4 59.4 2.8-2.8zm-36.8 215l59.4-59.4-2.8-2.8-59.4 59.4 2.8 2.8zM2.6 462.2l2.8-2.8L0 454v5.7l2.6 2.5zm214.9 1210.6l-59.4-59.4-2.8 2.8 59.4 59.4 2.8-2.8zm52.4-304.1l-59.4 59.4 2.8 2.8 59.4-59.4-2.8-2.8zm-63.7 315.4l-59.4-59.4-2.8 2.8 59.4 59.4 2.8-2.8zm43.9-43.9l-59.4-59.4-2.8 2.8 59.4 59.4 2.8-2.8zm-35.4-148.5l-59.4 59.4 2.8 2.8 59.4-59.4-2.8-2.8zM21 325l59.4 59.4 2.8-2.8-59.4-59.4L21 325zm260.2 215l2.8-2.8-59.4-59.4-2.8 2.8 59.4 59.4zm-70.7-48.1l59.4 59.4 2.8-2.8-59.4-59.4-2.8 2.8zm14.1-118.8l59.4-59.4-2.8-2.8-59.4 59.4 2.8 2.8zM144 470.7l2.8 2.8 59.4-59.4-2.8-2.8-59.4 59.4zm-22.6-22.6l2.8 2.8 59.4-59.4-2.8-2.8-59.4 59.4zm33.9 33.9l2.8 2.8 59.4-59.4-2.8-2.8-59.4 59.4zM299.6 46.4l59.4 59.4 2.8-2.8-59.4-59.4-2.8 2.8zm-11.4 11.3l59.4 59.4 2.8-2.8L291 54.9l-2.8 2.8zM276.9 69l59.4 59.4 2.8-2.8-59.4-59.4-2.8 2.8zm2.9 181.1l59.4-59.4-2.8-2.8-59.4 59.4 2.8 2.8zm-35.4-148.5l59.4 59.4 2.8-2.8-59.4-59.4-2.8 2.8zM13.9 450.9l2.8-2.8L0 431.3v5.7l13.9 13.9zm18.4 86.3l2.8 2.8 59.4-59.4-2.8-2.8-59.4 59.4zM310.9 35.1l59.4 59.4 2.8-2.8-59.4-59.4-2.8 2.8zM21 525.8l2.8 2.8 59.4-59.4-2.8-2.8L21 525.8zM0 391.7l36.5 36.5 2.8-2.8L0 386.1v5.6zm9.6-55.4L69 395.7l2.8-2.8-59.4-59.4-2.8 2.8zm36.8 215l59.4-59.4-2.8-2.8-59.4 59.4 2.8 2.8zm19.8-271.5l59.4 59.4 2.8-2.8L69 276.9l-2.8 2.9zm32.5-32.6l59.4 59.4 2.8-2.8-59.4-59.4-2.8 2.8zm11.4-11.3l59.4 59.4 2.8-2.8-59.4-59.4-2.8 2.8zm-8.5 192.4l59.4-59.4-2.8-2.8-59.4 59.4 2.8 2.8zm1716.8 885.3L1759 1373l2.8 2.8 59.4-59.4-2.8-2.8zM114.3 706.9l2.8-2.8-59.4-59.4-2.8 2.8 59.4 59.4zm-70.7-48.1l59.4 59.4 2.8-2.8L46.4 656l-2.8 2.8zM0 637.3v5.7l39.3-39.3-2.8-2.8L0 637.3zm66.2-66.2l2.8 2.8 59.4-59.4-2.8-2.8-59.4 59.4zm-33.9 99l59.4 59.4 2.8-2.8-59.4-59.4-2.8 2.8zm100.4-100.4l59.4 59.4 2.8-2.8-59.4-59.4-2.8 2.8zm55.1-55.2l59.4 59.4 2.8-2.8-59.4-59.4-2.8 2.8zM121.4 581l59.4 59.4 2.8-2.8-59.4-59.4-2.8 2.8zm33.9-34l59.4 59.4 2.8-2.8-59.4-59.4-2.8 2.8zM0 614.7v5.7l28-28-2.8-2.8L0 614.7zm144-56.3l59.4 59.4 2.8-2.8-59.4-59.4-2.8 2.8zM13.9 1290.9L0 1304.8v5.7l16.7-16.7-2.8-2.9zm114.5 114.6L69 1346.1l-2.8 2.8 59.4 59.4 2.8-2.8zM161 1373l-59.4-59.4-2.8 2.8 59.4 59.4 2.8-2.8zm11.3-11.4l-59.4-59.4-2.8 2.8 59.4 59.4 2.8-2.8zm11.3-11.3l-59.4-59.4-2.8 2.8 59.4 59.4 2.8-2.8zM0 569.4v5.7l5.4-5.4-2.8-2.8-2.6 2.5zm117.1 847.4l-59.4-59.4-2.8 2.8 59.4 59.4 2.8-2.8zm77.8-77.8l-59.4-59.4-2.8 2.8 59.4 59.4 2.8-2.8zm4.3-835.8l59.4 59.4 2.8-2.8-59.4-59.4-2.8 2.8zM2.6 1279.6l-2.6 2.6v5.7l5.4-5.4-2.8-2.9zm33.9 34L0 1350.1v5.7l39.3-39.3-2.8-2.9zm55.2-123.1l-59.4 59.4 2.8 2.8 59.4-59.4-2.8-2.8zm14.1 14.2l-2.8-2.8-59.4 59.4 2.8 2.8 59.4-59.4zm372-1113l2.8 2.8L540 35.1l-2.8-2.8-59.4 59.4zm-89.1 89.1l2.8 2.8 59.4-59.4-2.8-2.8-59.4 59.4zM455.1 69l2.8 2.8 59.4-59.4-2.8-2.8L455.1 69zm34 34l2.8 2.8 59.4-59.4-2.8-2.8-59.4 59.4zm-86.3 91.9l59.4-59.4-2.8-2.8-59.4 59.4 2.8 2.8zm63.6-114.5l2.8 2.8 59.4-59.4-2.8-2.8-59.4 59.4zm34 33.9l2.8 2.8 59.4-59.4-2.8-2.8-59.4 59.4zm1231.8 1469.4l-59.4-59.4-2.8 2.8 59.4 59.4 2.8-2.8zM640.4 180.8L581 121.4l-2.8 2.8 59.4 59.4 2.8-2.8zm-73.6-45.3l59.4 59.4 2.8-2.8-59.4-59.4-2.8 2.8zm-55.1-9.9l2.8 2.8L573.9 69l-2.8-2.8-59.4 59.4zM581 16.7L597.7 0H592l-13.9 13.9 2.9 2.8zM377.3 169.5l2.8 2.8 59.4-59.4-2.8-2.8-59.4 59.4zm-84.8 359.2l2.8-2.8-59.4-59.4-2.8 2.8 59.4 59.4zm-67.9 200.8l59.4-59.4-2.8-2.8-59.4 59.4 2.8 2.8zm11.3-345.1l59.4-59.4-2.8-2.8-59.4 59.4 2.8 2.8zm-25.4 330.9l2.8 2.8 59.4-59.4-2.8-2.8-59.4 59.4zm69.3-108.9l59.4-59.4-2.8-2.8-59.4 59.4 2.8 2.8zm8.4-347.8l2.8 2.8 59.4-59.4-2.8-2.8-59.4 59.4zm36.8 36.7l59.4-59.4-2.8-2.8-59.4 59.4 2.8 2.8zm-14.1-14.1l2.8 2.8 59.4-59.4-2.8-2.8-59.4 59.4zm-11.3-11.3l2.8 2.8 59.4-59.4-2.8-2.8-59.4 59.4zM199.2 704l2.8 2.8 59.4-59.4-2.8-2.8-59.4 59.4zm1343.5 868.4l-2.8-2.8-59.4 59.4 2.8 2.8 59.4-59.4zm-25.5-25.5l-59.4 59.4 2.8 2.8 59.4-59.4-2.8-2.8zm14.1 14.1l-2.8-2.8-59.4 59.4 2.8 2.8 59.4-59.4zm55.2 168.3l-59.4-59.4-2.8 2.8 59.4 59.4 2.8-2.8zm-43.8 43.9l-59.4-59.4-2.8 2.8 59.4 59.4 2.8-2.8zm11.3-11.3l-59.4-59.4-2.8 2.8 59.4 59.4 2.8-2.8zm-59.4 118.8l-39.3 39.3h5.7l36.5-36.5-2.9-2.8zm-181 2.8l36.5 36.5h5.7l-39.3-39.3-2.9 2.8zm192.3 8.5l-28 28h5.7l25.2-25.2-2.9-2.8zM250.1 1348.9l-2.8-2.8-59.4 59.4 2.8 2.8 59.4-59.4zm1199.2 398.8l-2.8 2.8 59.4 59.4 2.8-2.8-59.4-59.4zm271.5-353.5l-2.8-2.8-59.4 59.4 2.8 2.8 59.4-59.4zm-123 323.8l-59.4-59.4-2.8 2.8 59.4 59.4 2.8-2.8zm100.4-100.4l-59.4-59.4-2.8 2.8 59.4 59.4 2.8-2.8zm-70.7-48.1l-2.8 2.8 59.4 59.4 2.8-2.8-59.4-59.4zm-333.7 333.8l-2.8 2.8 13.9 13.9h5.7l-16.8-16.7zm427-308.3l-59.4-59.4-2.8 2.8 59.4 59.4 2.8-2.8zm-11.3-212.2l-2.8-2.8-59.4 59.4 2.8 2.8 59.4-59.4zm-89.1 312.6L1561 1636l-2.8 2.8 59.4 59.4 2.8-2.8zm-11.3 11.3l-59.4-59.4-2.8 2.8 59.4 59.4 2.8-2.8zm66.5-1.4l-2.8-2.8-59.4 59.4 2.8 2.8 59.4-59.4zm11.3 11.3l-2.8-2.8-59.4 59.4 2.8 2.8 59.4-59.4zm-224.9-46.7l-59.4 59.4 2.8 2.8 59.4-59.4-2.8-2.8zm-1155.4-86.2l-59.4-59.4-2.8 2.8 59.4 59.4 2.8-2.8zm43.9-43.9l-59.4-59.4-2.8 2.8 59.4 59.4 2.8-2.8zm77.8-12.7l-2.8-2.8-59.4 59.4 2.8 2.8 59.4-59.4zm-66.5 1.4l-59.4-59.4-2.8 2.8 59.4 59.4 2.8-2.8zm11.3-11.3l-59.4-59.4-2.8 2.8 59.4 59.4 2.8-2.8zM1279.6 2.6l2.8 2.8 5.4-5.4h-5.7l-2.5 2.6zM295.3 1595l-59.4-59.4-2.8 2.8 59.4 59.4 2.8-2.8zm-22.6-333.8l-59.4-59.4-2.8 2.8 59.4 59.4 2.8-2.8zm-70.7-48.1l-2.8 2.8 59.4 59.4 2.8-2.8-59.4-59.4zm93.3 181.1l-2.8-2.8-59.4 59.4 2.8 2.8 59.4-59.4zm987.1 520.4l-2.8 2.8 2.6 2.6h5.7l-5.5-5.4zM224.6 1442.2l59.4-59.4-2.8-2.8-59.4 59.4 2.8 2.8zm237.6 342.3l-59.4-59.4-2.8 2.8 59.4 59.4 2.8-2.8zm66.5 21.2l-2.8-2.8-59.4 59.4 2.8 2.8 59.4-59.4zm-11.3-11.3l-2.8-2.8-59.4 59.4 2.8 2.8 59.4-59.4zm52.3 120.2l-2.8 2.8 2.6 2.6h5.7l-5.5-5.4zm11.3-11.3l-2.8 2.8 13.9 13.9h5.7l-16.8-16.7zm-141.4-96.2l-59.4-59.4-2.8 2.8 59.4 59.4 2.8-2.8zm-43.9-134.3l-2.8-2.8-59.4 59.4 2.8 2.8 59.4-59.4zm-11.3-11.3l-2.8-2.8-59.4 59.4 2.8 2.8 59.4-59.4zm-70.7 48l59.4-59.4-2.8-2.8-59.4 59.4 2.8 2.8zm137.2 86.3l-59.4-59.4-2.8 2.8 59.4 59.4 2.8-2.8zm-111.7-244.7l-59.4-59.4-2.8 2.8 59.4 59.4 2.8-2.8zM1661.4 28l28-28h-5.7l-25.2 25.2 2.9 2.8zm-11.3-11.3L1666.9 0h-5.7l-13.9 13.9 2.8 2.8zM210.5 135.5l59.4 59.4 2.8-2.8-59.4-59.4-2.8 2.8zM144 114.3l2.8 2.8 59.4-59.4-2.8-2.8-59.4 59.4zm1528.8-75L1712.1 0h-5.7l-36.5 36.5 2.9 2.8zM155.3 125.6l2.8 2.8L217.5 69l-2.8-2.8-59.4 59.4zm1698.5-89.1L1817.3 0h-5.7l39.3 39.3 2.9-2.8zM16.7 1873.6L0 1856.9v5.7l13.9 13.9 2.8-2.9zM1825.5 192.1l2.8 2.8 59.4-59.4-2.8-2.8-59.4 59.4zm22.6 22.6l2.8 2.8 59.4-59.4-2.8-2.8-59.4 59.4zM1834.2 0l28 28 2.8-2.8L1839.9 0h-5.7zm-20 180.8l2.8 2.8 59.4-59.4-2.8-2.8-59.4 59.4zM9.6 158.1l2.8 2.8 59.4-59.4-2.8-2.8-59.4 59.4zM0 241.3l16.7-16.7-2.8-2.8L0 235.7v5.6zM132.7 103l2.8 2.8 59.4-59.4-2.8-2.8-59.4 59.4zM2.6 1636l-2.6 2.6v5.7l5.4-5.4-2.8-2.9zM0 213v5.7l5.4-5.4-2.8-2.8L0 213zm21-43.5l2.8 2.8 59.4-59.4-2.8-2.8L21 169.5zm89.1-89.1l2.8 2.8 59.4-59.4-2.8-2.8-59.4 59.4zm11.3 11.3l2.8 2.8 59.4-59.4-2.8-2.8-59.4 59.4zm-89.1 89.1l2.8 2.8 59.4-59.4-2.8-2.8-59.4 59.4zm14.1 14.1l59.4-59.4-2.8-2.8-59.4 59.4 2.8 2.8zM98.7 69l2.8 2.8L161 12.5l-2.8-2.8L98.7 69zm1738.1 134.4l2.8 2.8 59.4-59.4-2.8-2.8-59.4 59.4zm66.5 21.2l16.7 16.7v-5.7l-13.9-13.9-2.8 2.9zm-138.6 1682.9l-59.4-59.4-2.8 2.8 59.4 59.4 2.8-2.8zm56.6-56.5l-59.4-59.4-2.8 2.8 59.4 59.4 2.8-2.8zm-22.7 22.6l-59.4-59.4-2.8 2.8 59.4 59.4 2.8-2.8zm11.3-11.3l-59.4-59.4-2.8 2.8 59.4 59.4 2.8-2.8zm-33.9 33.9l-59.4-59.4-2.8 2.8 59.4 59.4 2.8-2.8zm-43.8-134.3l-2.8-2.8-59.4 59.4 2.8 2.8 59.4-59.4zM428.3 1883.5l-2.8-2.8-39.3 39.3h5.7l36.4-36.5zm1100.2 31.1l-5.4 5.4h5.7l2.6-2.6-2.9-2.8zm181-175.4l-2.8-2.8-59.4 59.4 2.8 2.8 59.4-59.4zm-73.5 178.2l2.6 2.6h5.7l-5.4-5.4-2.9 2.8zm151.3-32.5l-59.4-59.4-2.8 2.8 59.4 59.4 2.8-2.8zm123.1-123l-59.4-59.4-2.8 2.8 59.4 59.4 2.8-2.8zm-11.4 11.3l-59.4-59.4-2.8 2.8 59.4 59.4 2.8-2.8zm-45.2 45.2l-59.4-59.4-2.8 2.8 59.4 59.4 2.8-2.8zm63.6-182.4l-2.8 2.8 5.4 5.4v-5.7l-2.6-2.5zm-2.8-1422.7l5.4 5.4V213l-2.6-2.6-2.8 2.9zm5.4 1493.2l-36.5-36.5-2.8 2.8 39.3 39.3v-5.6zm-46.4-159.6l-59.4 59.4 2.8 2.8 59.4-59.4-2.8-2.8zm-55.2 123l-59.4 59.4 2.8 2.8 59.4-59.4-2.8-2.8zm80.6-97.5l-2.8-2.8-59.4 59.4 2.8 2.8 59.4-59.4zm-11.3-11.4l-2.8-2.8-59.4 59.4 2.8 2.8 59.4-59.4zM91.7 16.7l2.8-2.8L80.6 0H75l16.7 16.7zm152.7 1866.8l36.5 36.5h5.7l-39.3-39.3-2.9 2.8zM1914.6 103l2.8 2.8 2.6-2.6v-5.7l-5.4 5.5zM80.4 28l2.8-2.8L58 0h-5.7l28.1 28zM25.2 83.2l2.8-2.8-28-28V58l25.2 25.2zM0 35.4l36.5 36.5 2.8-2.8L0 29.7v5.7zm69 3.9l2.8-2.8L35.4 0h-5.7L69 39.3zm1823 41.1l2.8 2.8L1920 58v-5.7l-28 28.1zM213.3 5.4l5.4-5.4H213l-2.6 2.6 2.9 2.8zm1690 86.3l2.8 2.8 13.9-13.9V75l-16.7 16.7zm-29.7-75l2.8-2.8L1862.5 0h-5.7l16.8 16.7zm7.1 52.3l2.8 2.8 36.5-36.5v-5.7L1880.7 69zM103 5.4l2.8-2.8-2.6-2.6h-5.7l5.5 5.4zm2.8 1912l-2.8-2.8-5.4 5.4h5.7l2.5-2.6zM28 1862.3l-28-28v5.7l25.2 25.2 2.8-2.9zm185.3 52.3l-2.8 2.8 2.6 2.6h5.7l-5.5-5.4zM13.9 94.5l2.8-2.8L0 75v5.7l13.9 13.8zm1906.1 1785l-5.4 5.4 2.8 2.8 2.6-2.6v-5.6zm-32.3 37.9l-2.8-2.8-5.4 5.4h5.7l2.5-2.6zM5.4 1884.9l-5.4-5.4v5.7l2.6 2.6 2.8-2.9zM2.6 105.8l2.8-2.8L0 97.6v5.7l2.6 2.5zm69.3 1777.7l-2.8-2.8-39.4 39.3h5.7l36.5-36.5zm11.3 11.3l-2.8-2.8-28 28H58l25.2-25.2zm11.3 11.3l-2.8-2.8L75 1920h5.7l13.8-13.9zm1779.1-2.8l-16.7 16.7h5.7l13.9-13.9-2.9-2.8zm-1690-86.3l-2.8-2.8-59.4 59.4 2.8 2.8 59.4-59.4zm-11.3-11.3l-2.8-2.8-59.4 59.4 2.8 2.8 59.4-59.4zm-11.3-11.3l-2.8-2.8-59.5 59.4 2.8 2.8 59.5-59.4zm56.5 56.6l-2.8-2.8-59.4 59.4 2.8 2.8 59.4-59.4zm-22.6-22.7l-2.8-2.8-59.4 59.4 2.8 2.8 59.4-59.4zm11.3 11.3l-2.8-2.8-59.4 59.4 2.8 2.8 59.4-59.4zm-134.3-21.2L12.5 1759l-2.8 2.8 59.4 59.4 2.8-2.8zm33.9-33.9l-59.4-59.4-2.8 2.8 59.4 59.4 2.8-2.8zM39.3 1851L0 1811.6v5.7l36.5 36.5 2.8-2.8zm43.9-43.9l-59.4-59.4-2.8 2.8 59.4 59.4 2.8-2.8zm11.3-11.3l-59.4-59.4-2.8 2.8 59.4 59.4 2.8-2.8zm1756.5 84.9l-39.3 39.3h5.7l36.5-36.5-2.9-2.8zM269.9 1725.1l-59.4 59.4 2.8 2.8 59.4-59.4-2.8-2.8zm1535.8 22.6l-2.8 2.8 59.4 59.4 2.8-2.8-59.4-59.4zm82 36.8l-59.4-59.4-2.8 2.8 59.4 59.4 2.8-2.8zm32.3 55.4v-5.7l-28 28 2.8 2.8 25.2-25.1zm0-22.6v-5.7l-39.3 39.3 2.8 2.8 36.5-36.4zm-43.6-21.5l-59.4-59.4-2.8 2.8 59.4 59.4 2.8-2.8zm-14.1 96.2l-28 28h5.7l25.2-25.2-2.9-2.8zm-212.2 11.3l-2.8 2.8 13.9 13.9h5.7l-16.8-16.7zm19.8-19.8l36.5 36.5h5.7l-39.3-39.3-2.9 2.8zm250.1-21v-5.7l-16.7 16.7 2.8 2.8 13.9-13.8zM132.7 213.3l59.4 59.4 2.8-2.8-59.4-59.4-2.8 2.8zm1677.2 1448.1l-2.8-2.8-59.4 59.4 2.8 2.8 59.4-59.4zm110.1-132.6v-5.7l-5.4 5.4 2.8 2.8 2.6-2.5zm-39.3-1281.6l39.3 39.3v-5.7l-36.5-36.5-2.8 2.9zm39.3 1236.3v-5.7l-28 28 2.8 2.8 25.2-25.1zm-71.9-1203.7l59.4 59.4 2.8-2.8-59.4-59.4-2.8 2.8zm-11.3 11.3l59.4 59.4 2.8-2.8-59.4-59.4-2.8 2.8zm-31.1 1100.2l-2.8 2.8 59.4 59.4 2.8-2.8-59.4-59.4zm56.6 144.3l-59.4 59.4 2.8 2.8 59.4-59.4-2.8-2.8zm57.7-74.7v-5.7l-39.3 39.3 2.8 2.8 36.5-36.4zm-32.3-32.8l-59.4-59.4-2.8 2.8 59.4 59.4 2.8-2.8zM1702.5 69l59.4 59.4 2.8-2.8-59.4-59.4-2.8 2.8zM1892 235.9l28 28v-5.7l-25.2-25.2-2.8 2.9zM1736.4 35.1l59.4 59.4 2.8-2.8-59.4-59.4-2.8 2.8zm11.3-11.3l59.4 59.4 2.8-2.8-59.4-59.4-2.8 2.8zm11.3-11.3l59.4 59.4 2.8-2.8-59.4-59.4-2.8 2.8zm-45.2 45.2l59.4 59.4 2.8-2.8-59.4-59.4-2.8 2.8zm11.3-11.3l59.4 59.4 2.8-2.8-59.4-59.4-2.8 2.8zm100.4 256l59.4 59.4 2.8-2.8-59.4-59.4-2.8 2.8zm-66.5 1.4l2.8 2.8 59.4-59.4-2.8-2.8-59.4 59.4zm55.2 9.9l59.4 59.4 2.8-2.8-59.4-59.4-2.8 2.8zm-22.6-155.6l2.8 2.8 59.4-59.4-2.8-2.8-59.4 59.4zm70.7-48l-59.4 59.4 2.8 2.8 59.4-59.4-2.8-2.8zm-114.6 182.4l2.8 2.8 59.4-59.4-2.8-2.8-59.4 59.4zm128.7 1146.9L1817 1380l-2.8 2.8 59.4 59.4 2.8-2.8zm-1414.2 478l-2.8-2.8-5.4 5.4h5.7l2.5-2.6zm1055-14.1l-16.7 16.7h5.7l13.9-13.9-2.9-2.8zm-59.4-164.1l59.4 59.4 2.8-2.8-59.4-59.4-2.8 2.8zM448.1 1903.3l-16.7 16.7h5.7l13.9-13.9-2.9-2.8zm1083.2-118.8l-59.4-59.4-2.8 2.8 59.4 59.4 2.8-2.8zM361.8 1884.9l-59.4-59.4-2.8 2.8 59.4 59.4 2.8-2.8zm11.3-11.3l-59.4-59.4-2.8 2.8 59.4 59.4 2.8-2.8zm55.2-55.2l-59.4-59.4-2.8 2.8 59.4 59.4 2.8-2.8zm1158.2-24l-2.8-2.8-59.4 59.4 2.8 2.8 59.4-59.4zm-1202.1 67.9l-59.4-59.4-2.8 2.8 59.4 59.4 2.8-2.8zm11.3-11.3l-59.4-59.4-2.8 2.8 59.4 59.4 2.8-2.8zm1213.4-34l-2.8-2.8-59.4 59.4 2.8 2.8 59.4-59.4zm155.6-200.8l-2.8-2.8-59.4 59.4 2.8 2.8 59.4-59.4zm-55.2-9.9l-59.4-59.4-2.8 2.8 59.4 59.4 2.8-2.8zm-14.1 118.8l-59.4 59.4 2.8 2.8 59.4-59.4-2.8-2.8zm-97.6 80.6l-2.8-2.8-59.4 59.4 2.8 2.8 59.4-59.4zm178.2-178.2l-2.8-2.8-59.4 59.4 2.8 2.8 59.4-59.4zm11.3 11.3l-2.8-2.8-59.4 59.4 2.8 2.8 59.4-59.4zm-166.9 189.5l-2.8-2.8-59.4 59.4 2.8 2.8 59.4-59.4zm22.7 22.7l-2.8-2.8-59.4 59.4 2.8 2.8 59.4-59.4zM264 1920l-28-28-2.8 2.8 25.2 25.2h5.6zm1367.8-80.4l-2.8-2.8-59.4 59.4 2.8 2.8 59.4-59.4zm166.8-189.5l-2.8-2.8-59.4 59.4 2.8 2.8 59.4-59.4zM0 1666.9l16.7-16.7-2.8-2.8L0 1661.2v5.7zm91.7-120l-59.4 59.4 2.8 2.8 59.4-59.4-2.8-2.8zm36.7 215L69 1702.5l-2.8 2.8 59.4 59.4 2.8-2.8zm-11.3 11.3l-59.4-59.4-2.8 2.8 59.4 59.4 2.8-2.8zM105.8 1561l-2.8-2.8-59.4 59.4 2.8 2.8 59.4-59.4zm-69.3 108.9L0 1706.5v5.7l39.3-39.3-2.8-3zm35.4-142.8l-2.8-2.8-59.4 59.4 2.8 2.8 59.4-59.4zM0 280.9v5.7l39.3-39.3-2.8-2.8L0 280.9zm32.3 32.8l59.4 59.4 2.8-2.8-59.4-59.4-2.8 2.8zM5.4 1528.5l-5.4-5.4v5.7l2.6 2.6 2.8-2.9zm11.3-11.3L0 1500.5v5.7l13.9 13.9 2.8-2.9zM0 258.3v5.7l28-28-2.8-2.8L0 258.3zm202 1311.2l-2.8 2.8 59.4 59.4 2.8-2.8-59.4-59.4zm59.4 147.1l-2.8-2.8-59.4 59.4 2.8 2.8 59.4-59.4zM161 1729.3l-59.4-59.4-2.8 2.8 59.4 59.4 2.8-2.8zM1669.9 101.6l59.4 59.4 2.8-2.8-59.4-59.4-2.8 2.8zM295.3 1750.5l-2.8-2.8-59.4 59.4 2.8 2.8 59.4-59.4zm-22.6-132.9l-59.4-59.4-2.8 2.8 59.4 59.4 2.8-2.8zm-22.6 87.7l-2.8-2.8-59.4 59.4 2.8 2.8 59.4-59.4zm-66.5 1.4l-59.4-59.4-2.8 2.8 59.4 59.4 2.8-2.8zm-11.3 11.3l-59.4-59.4-2.8 2.8 59.4 59.4 2.8-2.8zm22.6-22.6l-59.4-59.4-2.8 2.8 59.4 59.4 2.8-2.8zm29.7 103.2l59.4-59.4-2.8-2.8-59.4 59.4 2.8 2.8zM247.2 39.3L286.6 0h-5.7l-36.5 36.5 2.8 2.8zM235.9 28l28-28h-5.7L233 25.2l2.9 2.8zm56.6 144.3l2.8-2.8-59.4-59.4-2.8 2.8 59.4 59.4zm-82 186.7l2.8 2.8 59.4-59.4-2.8-2.8-59.4 59.4zM428.3 36.5L391.7 0H386l39.3 39.3 3-2.8zm-206.5 87.7l59.4 59.4 2.8-2.8-59.4-59.4-2.8 2.8zm1425.5 0l59.4 59.4 2.8-2.8-59.4-59.4-2.8 2.8zm11.3-11.3l59.4 59.4 2.8-2.8-59.4-59.4-2.8 2.8zM1636 2.6l2.8 2.8 5.4-5.4h-5.7l-2.5 2.6zm-118.8 14.1l2.8-2.8L1506.1 0h-5.7l16.8 16.7zm11.3-11.3l2.8-2.8-2.6-2.6h-5.7l5.5 5.4zM114.3 350.5l2.8-2.8-59.4-59.4-2.8 2.8 59.4 59.4zM66.2 214.7l2.8 2.8 59.4-59.4-2.8-2.8-59.4 59.4zm284.3 1681.5l-59.4-59.4-2.8 2.8 59.4 59.4 2.8-2.8zM121.4 224.6l59.4 59.4 2.8-2.8-59.4-59.4-2.8 2.8zm-77.8 77.8l59.4 59.4 2.8-2.8-59.4-59.4-2.8 2.8zm11.3-99l2.8 2.8 59.4-59.4-2.8-2.8-59.4 59.4zm144.3-56.6l59.4 59.4 2.8-2.8L202 144l-2.8 2.8zm-11.4 11.3l59.4 59.4 2.8-2.8-59.4-59.4-2.8 2.8zm11.4 189.5l2.8 2.8 59.4-59.4-2.8-2.8-59.4 59.4zm-43.9-156.9l59.4 59.4 2.8-2.8-59.4-59.4-2.8 2.8zM144 202l59.4 59.4 2.8-2.8-59.4-59.4-2.8 2.8zm1603.7 1247.3l59.4 59.4 2.8-2.8-59.4-59.4-2.8 2.8zm-26.9-411.5l-2.8-2.8-59.4 59.4 2.8 2.8 59.4-59.4zm-11.3-11.3l-2.8-2.8-59.4 59.4 2.8 2.8 59.4-59.4zm55.2 168.3l-59.4-59.4-2.8 2.8 59.4 59.4 2.8-2.8zm-69.3-182.5l-59.4 59.4 2.8 2.8 59.4-59.4-2.8-2.8zm36.8 215l-59.4-59.4-2.8 2.8 59.4 59.4 2.8-2.8zm-11.4 11.3l-59.4-59.4-2.8 2.8 59.4 59.4 2.8-2.8zm-111.7 111.7l-59.4-59.4-2.8 2.8 59.4 59.4 2.8-2.8zm11.3-11.3l-59.4-59.4-2.8 2.8 59.4 59.4 2.8-2.8zm7.1-125.9l-2.8 2.8 59.4 59.4 2.8-2.8-59.4-59.4zm12.7-77.7l-59.4 59.4 2.8 2.8 59.4-59.4-2.8-2.8zm35.4 213.5l-2.8-2.8-59.4 59.4 2.8 2.8 59.4-59.4zm127.3-667.5l59.4 59.4 2.8-2.8-59.4-59.4-2.8 2.8zm-43.9 43.8l59.4 59.4 2.8-2.8-59.4-59.4-2.8 2.8zm32.6-32.5l59.4 59.4 2.8-2.8-59.4-59.4-2.8 2.8zm-193.8 668.9l-59.4-59.4-2.8 2.8 59.4 59.4 2.8-2.8zm149.9-625l59.4 59.4 2.8-2.8-59.4-59.4-2.8 2.8zm48.1-158.4l-59.4 59.4 2.8 2.8 59.4-59.4-2.8-2.8zm-8.5 593.9l-59.4-59.4-2.8 2.8 59.4 59.4 2.8-2.8zm31.1-214.9l-59.4 59.4 2.8 2.8 59.4-59.4-2.8-2.8zm-19.8 203.6l-59.4-59.4-2.8 2.8 59.4 59.4 2.8-2.8zm-22.6 22.6l-59.4-59.4-2.8 2.8 59.4 59.4 2.8-2.8zm18.4-137.1l-2.8 2.8 59.4 59.4 2.8-2.8-59.4-59.4zm59.4 124.4l-2.8-2.8-59.4 59.4 2.8 2.8 59.4-59.4zM1175 1784.5l-59.4-59.4-2.8 2.8 59.4 59.4 2.8-2.8zm166.8-166.9l-59.4-59.4-2.8 2.8 59.4 59.4 2.8-2.8zm-14.1 96.2l-59.4 59.4 2.8 2.8 59.4-59.4-2.8-2.8zm25.5-107.5l-59.4-59.4-2.8 2.8 59.4 59.4 2.8-2.8zm55.1 9.9l-2.8-2.8-59.4 59.4 2.8 2.8 59.4-59.4zm-132.9 223.4l-2.8-2.8-59.4 59.4 2.8 2.8 59.4-59.4zm-34-33.9l-2.8-2.8-59.4 59.4 2.8 2.8 59.4-59.4zm-11.3-11.3l-2.8-2.8-59.4 59.4 2.8 2.8 59.4-59.4zm495-1168.2l2.8 2.8 59.4-59.4-2.8-2.8-59.4 59.4zm-305.5 1001.3l-2.8-2.8-59.4 59.4 2.8 2.8 59.4-59.4zm-155.5 200.8l-2.8-2.8-59.4 59.4 2.8 2.8 59.4-59.4zm-11.4-11.3l-2.8-2.8-59.4 59.4 2.8 2.8 59.4-59.4zm241.9-292.7l-59.4 59.4 2.8 2.8 59.4-59.4-2.8-2.8zm22.6-333.8l-59.4 59.4 2.8 2.8 59.4-59.4-2.8-2.8zm25.5 25.5l-2.8-2.8-59.4 59.4 2.8 2.8 59.4-59.4zm-11.4-11.3l-2.8-2.8-59.4 59.4 2.8 2.8 59.4-59.4zm11.4 212.1l-59.4-59.4-2.8 2.8 59.4 59.4 2.8-2.8zm11.3-11.3l-59.4-59.4-2.8 2.8 59.4 59.4 2.8-2.8zm-123.1 233.3l-2.8-2.8-59.4 59.4 2.8 2.8 59.4-59.4zm11.3 11.3l-2.8-2.8-59.4 59.4 2.8 2.8 59.4-59.4zm144.3-277.1l-59.4-59.4-2.8 2.8 59.4 59.4 2.8-2.8zm-124.5-59.4l-59.4 59.4 2.8 2.8 59.4-59.4-2.8-2.8zm-26.8 91.9l59.4 59.4 2.8-2.8-59.4-59.4-2.8 2.8zm214.9-676l59.4-59.4-2.8-2.8-59.4 59.4 2.8 2.8zm-865.5-693L748.1 0h-5.7l39.3 39.3 2.9-2.8zm439.9 89.1l2.8 2.8 59.4-59.4-2.8-2.8-59.4 59.4zm-11.4-11.3l2.8 2.8 59.4-59.4-2.8-2.8-59.4 59.4zm-41-108.9l2.8-2.8-2.6-2.6h-5.7l5.5 5.4zm-11.3 11.3l2.8-2.8L1149.8 0h-5.7l16.7 16.7zm118.8 118.8l59.4 59.4 2.8-2.8-59.4-59.4-2.8 2.8zm77.8 123l2.8 2.8 59.4-59.4-2.8-2.8-59.4 59.4zm70.7-48l-59.4 59.4 2.8 2.8 59.4-59.4-2.8-2.8zm-82 36.7l2.8 2.8 59.4-59.4-2.8-2.8-59.4 59.4zm-55.2-123l59.4 59.4 2.8-2.8-59.4-59.4-2.8 2.8zm11.3-11.3l59.4 59.4 2.8-2.8-59.4-59.4-2.8 2.8zM603.6 39.3L643 0h-5.7l-36.5 36.5 2.8 2.8zm-48.1 107.5l59.4 59.4 2.8-2.8-59.3-59.4-2.9 2.8zm-43.8 43.9l59.4 59.4 2.8-2.8-59.4-59.4-2.8 2.8zm32.5-32.6l59.4 59.4 2.8-2.8-59.4-59.4-2.8 2.8zM500.4 202l59.4 59.4 2.8-2.8-59.4-59.4-2.8 2.8zm-11.3 11.3l59.4 59.4 2.8-2.8-59.4-59.4-2.8 2.8zm159.8-41l2.8-2.8-59.4-59.4-2.8 2.8 59.4 59.4zM566.8 359l2.8 2.8 59.4-59.4-2.8-2.8-59.4 59.4zm746.8 33.9l2.8 2.8 59.4-59.4-2.8-2.8-59.4 59.4zM592.3 28l28-28h-5.7l-25.2 25.2 2.9 2.8zM581 373.1l59.4-59.4-2.8-2.8-59.4 59.4 2.8 2.8zm55.1-123l59.4-59.4-2.8-2.8-59.4 59.4 2.8 2.8zm835.8 301.2l59.4-59.4-2.8-2.8-59.4 59.4 2.8 2.8zm164.1-59.4l59.4 59.4 2.8-2.8-59.4-59.4-2.8 2.8zm-55.2-9.9l2.8 2.8 59.4-59.4-2.8-2.8-59.4 59.4zm-56.5-234.8l59.4 59.4 2.8-2.8-59.4-59.4-2.8 2.8zm11.3-11.3l59.4 59.4 2.8-2.8-59.4-59.4-2.8 2.8zm11.3 212.2l2.8 2.8 59.4-59.4-2.8-2.8-59.4 59.4zm22.6 22.6l2.8 2.8 59.4-59.4-2.8-2.8-59.4 59.4zm133-45.3l59.4 59.4 2.8-2.8-59.4-59.4-2.8 2.8zm11.3-11.3l59.4 59.4 2.8-2.8-59.4-59.4-2.8 2.8zm-43.9 43.9l59.4 59.4 2.8-2.8-59.4-59.4-2.8 2.8zm-506.3 1337.8l-59.4-59.4-2.8 2.8 59.4 59.4 2.8-2.8zm205.1-1393l59.4 59.4 2.8-2.8-59.4-59.4-2.8 2.8zm336.6 203.6l59.4-59.4-2.8-2.8-59.4 59.4 2.8 2.8zm-302.7-237.5l59.4 59.4 2.8-2.8-59.4-59.4-2.8 2.8zm89.1-89.1l59.4 59.4 2.8-2.8-59.4-59.4-2.8 2.8zm-56.5 56.5l59.4 59.4 2.8-2.8-59.4-59.4-2.8 2.8zm-43.9 43.9l59.4 59.4 2.8-2.8-59.4-59.4-2.8 2.8zm-11.3 11.3l59.4 59.4 2.8-2.8-59.4-59.4-2.8 2.8zm66.5-66.5l59.4 59.4 2.8-2.8-59.4-59.4-2.8 2.8zm0 200.8l2.8 2.8 59.4-59.4-2.8-2.8-59.4 59.4zm267.3 89.1l2.8 2.8 59.4-59.4-2.8-2.8-59.4 59.4zm-186.7-186.6l59.4-59.4-2.8-2.8-59.4 59.4 2.8 2.8zm-69.3 108.8l2.8 2.8 59.4-59.4-2.8-2.8-59.4 59.4zM629.1 1617.6l-59.4-59.4-2.8 2.8 59.4 59.4 2.8-2.8zm18.4-1356.2l59.4-59.4-2.8-2.8-59.4 59.4 2.8 2.8zm-55.2 123l59.4-59.4-2.8-2.8-59.4 59.4 2.8 2.8zm-14.1 96.2l59.4 59.4 2.8-2.8-59.4-59.4-2.8 2.8zm66.4-422.9l59.4 59.4 2.8-2.8-59.4-59.4-2.8 2.8zm-77.8 434.2l59.4 59.4 2.8-2.8-59.4-59.4-2.8 2.8zm155.6-333.8l2.8 2.8 59.4-59.4-2.8-2.8-59.4 59.4zM689.9 12.5l59.4 59.4 2.8-2.8-59.4-59.5-2.8 2.9zM377.3 525.8l2.8 2.8 59.4-59.4-2.8-2.8-59.4 59.4zM655.9 46.4l59.4 59.4 2.8-2.8-59.4-59.4-2.8 2.8zm22.7-22.6L738 83.2l2.8-2.8L681.4 21l-2.8 2.8zm-11.3 11.3l59.4 59.4 2.8-2.8-59.4-59.4-2.8 2.8zM511.7 482l2.8 2.8 59.4-59.4-2.8-2.8-59.4 59.4zM458 428.3l59.4-59.4-2.8-2.8-59.4 59.4 2.8 2.8zm-35.4-148.5l59.4 59.4 2.8-2.8-59.4-59.4-2.8 2.8zm-19.8 271.5l59.4-59.4-2.8-2.8-59.4 59.4 2.8 2.8zm52.3-304.1l59.4 59.4 2.8-2.8-59.3-59.4-2.9 2.8zm45.3 223.5l2.8 2.8 59.4-59.4-2.8-2.8-59.4 59.4zm-111.7 66.5l2.8 2.8 59.4-59.4-2.8-2.8-59.4 59.4zm77.7-301.3l59.4 59.4 2.8-2.8-59.4-59.4-2.8 2.8zm148.5 52.3l-59.4 59.4 2.8 2.8 59.4-59.4-2.8-2.8zm-70.7 48.1l2.8 2.8 59.4-59.4-2.8-2.8-59.4 59.4zm-66.4 111.8l2.8 2.8 59.4-59.4-2.8-2.8-59.4 59.4zm14.1 14.1l59.4-59.4-2.8-2.8-59.4 59.4 2.8 2.8zM796 25.2L770.7 0H765l28 28 3-2.8zM1213.1 202l59.4 59.4 2.8-2.8-59.4-59.4-2.8 2.8zm11.4-11.3l59.4 59.4 2.8-2.8-59.4-59.4-2.8 2.8zm32.5-32.6l59.4 59.4 2.8-2.8-59.4-59.4-2.8 2.8zM1149.5 1892l-28 28h5.7l25.2-25.2-2.9-2.8zm52.3-1678.7l59.4 59.4 2.8-2.8-59.4-59.4-2.8 2.8zm59.4-169.7l-59.4 59.4 2.8 2.8 59.4-59.4-2.8-2.8zm100.4 278.6l-59.4 59.4 2.8 2.8 59.4-59.4-2.8-2.8zM804.4 16.7l2.8-2.8L793.4 0h-5.7l16.7 16.7zM1279.6 359l2.8 2.8 59.4-59.4-2.8-2.8-59.4 59.4zm-11.3-212.2l59.4 59.4 2.8-2.8-59.4-59.4-2.8 2.8zm0 200.8l2.8 2.8 59.4-59.4-2.8-2.8-59.4 59.4zm22.6 22.7l2.8 2.8 59.4-59.4-2.8-2.8-59.4 59.4zM1179.2 80.4l2.8 2.8 59.4-59.4-2.8-2.8-59.4 59.4zm-222-43.9l2.8 2.8L999.3 0h-5.7l-36.4 36.5zm183.8 0L1104.5 0h-5.7l39.3 39.3 2.9-2.8zM926.1 5.4l5.4-5.4h-5.7l-2.6 2.6 2.9 2.8zm-110.4 0l2.8-2.8L816 0h-5.7l5.4 5.4zm121.7 11.3L954.1 0h-5.7l-13.9 13.9 2.9 2.8zM1121.5 0l28 28 2.8-2.8L1127.1 0h-5.6zm-5.9 194.9l59.4-59.4-2.8-2.8-59.4 59.4 2.8 2.8zM1167.9 69l2.8 2.8 59.4-59.4-2.8-2.8-59.4 59.4zm-66.5 111.8l2.8 2.8 59.4-59.4-2.8-2.8-59.4 59.4zm89.1-89.1l2.8 2.8 59.4-59.4-2.8-2.8-59.4 59.4zM706.9 1627.5l-2.8-2.8-59.4 59.4 2.8 2.8 59.4-59.4zm-11.4-11.3l-2.8-2.8-59.4 59.4 2.8 2.8 59.4-59.4zm22.7 22.6l-2.8-2.8-59.4 59.4 2.8 2.8 59.4-59.4zm-22.7 268.7l-59.4-59.4-2.8 2.8 59.4 59.4 2.8-2.8zm-91.9-86.2l59.4-59.4-2.8-2.8-59.4 59.4 2.8 2.8zm-45.2-251.8l-2.8 2.8 59.4 59.4 2.8-2.8-59.4-59.4zm59.4 147.1l-2.8-2.8-59.4 59.4 2.8 2.8 59.4-59.4zm-11.4-11.3l-2.8-2.8-59.4 59.4 2.8 2.8 59.4-59.4zm100.5 190.9l-59.4-59.4-2.8 2.8L704 1899l2.9-2.8zm-155.6-200.8l-59.4-59.4-2.8 2.8 59.4 59.4 2.8-2.8zm89.1-89.1l-59.4-59.4-2.8 2.8 59.4 59.4 2.8-2.8zM477.8 224.6l59.4 59.4 2.8-2.8-59.4-59.4-2.8 2.8zm340.8 1692.8l-2.8-2.8-5.4 5.4h5.7l2.5-2.6zm-14.2-14.1l-16.7 16.7h5.7l13.9-13.9-2.9-2.8zm-33.7 16.7l25.2-25.2-2.8-2.8-28 28h5.6zm155.4-5.4l-2.8 2.8 2.6 2.6h5.7l-5.5-5.4zm11.3-11.3l-2.8 2.8 13.9 13.9h5.7l-16.8-16.7zm-207.9-29.7l-59.4-59.4-2.8 2.8 59.4 59.4 2.8-2.8zm55.1-55.2l-59.4-59.4-2.8 2.8 59.4 59.4 2.8-2.8zm-43.8 43.9l-59.4-59.4-2.8 2.8 59.4 59.4 2.8-2.8zm-22.6 22.6l-59.4-59.4-2.8 2.8 59.4 59.4 2.8-2.8zm33.9-33.9l-59.4-59.4-2.8 2.8 59.4 59.4 2.8-2.8zm-445.5-623.7l-59.4-59.4-2.8 2.8 59.4 59.4 2.8-2.8zm-82-141.4l59.4-59.4-2.8-2.8-59.4 59.4 2.8 2.8zm55.2-123.1l59.4-59.4-2.8-2.8-59.5 59.4 2.9 2.8zm248.9 486.5l-2.8-2.8-59.4 59.4 2.8 2.8 59.4-59.4zm-233.4-210.7l-59.4-59.4-2.8 2.8 59.4 59.4 2.8-2.8zm8.5-364.9l2.8-2.8-59.4-59.4-2.8 2.8 59.4 59.4zm-56.6-121.6l59.4-59.4-2.8-2.8-59.4 59.4 2.8 2.8zm92 442.7l-59.4-59.4-2.8 2.8 59.4 59.4 2.8-2.8zM366 336.3l59.4 59.4 2.8-2.8-59.4-59.4-2.8 2.8zm2.9 181.1l59.4-59.4-2.8-2.8-59.5 59.3 2.9 2.9zm-69.3 108.8l2.8 2.8 59.4-59.4-2.8-2.8-59.4 59.4zm14.1 14.2l59.4-59.4-2.8-2.8-59.4 59.4 2.8 2.8zM377.3 325l59.4 59.4 2.8-2.8-59.4-59.4-2.8 2.8zm73.6 1114.4l-59.4-59.4-2.8 2.8 59.4 59.4 2.8-2.8zm-89.1-267.3l-59.4-59.4-2.8 2.8L359 1175l2.8-2.9zm33.9 144.3l-2.8-2.8-59.4 59.4 2.8 2.8 59.4-59.4zm66.5 111.7l-59.4-59.4-2.8 2.8 59.4 59.4 2.8-2.8zm55.2 9.9l-2.8-2.8-59.4 59.4 2.8 2.8 59.4-59.4zm-77.8 12.7l-59.4-59.4-2.8 2.8 59.4 59.4 2.8-2.8zm-66.5-289.9l-59.4-59.4-2.8 2.8 59.4 59.4 2.8-2.8zm55.2 9.9l-2.8-2.8-59.4 59.4 2.8 2.8 59.4-59.4zM325 1364.5l59.4-59.4-2.8-2.8-59.4 59.4 2.8 2.8zM439.6 1182l-2.8-2.8-59.4 59.4 2.8 2.8 59.4-59.4zM292.5 885l2.8-2.8-59.4-59.4-2.8 2.8 59.4 59.4zm1383.1 755.2l-59.4-59.4-2.8 2.8 59.4 59.4 2.8-2.8zm-32.5 32.6l-59.4-59.4-2.8 2.8 59.4 59.4 2.8-2.8zm-11.3 11.3l-59.4-59.4-2.8 2.8 59.4 59.4 2.8-2.8zm7-482.3l-2.8 2.8 59.4 59.4 2.8-2.8-59.4-59.4zm56.6 166.9l-59.4 59.4 2.8 2.8 59.4-59.4-2.8-2.8zm-55.2 123l-59.4 59.4 2.8 2.8 59.4-59.4-2.8-2.8zm-19.8-19.8l-2.8-2.8-59.4 59.4 2.8 2.8 59.4-59.4zm-89.1-43.8l-59.4-59.4-2.8 2.8 59.4 59.4 2.8-2.8zm-11.3 11.3l-59.4-59.4-2.8 2.8 59.4 59.4 2.8-2.8zm77.8 9.9l-2.8-2.8-59.4 59.4 2.8 2.8 59.4-59.4zm-11.3-11.3l-2.8-2.8-59.4 59.4 2.8 2.8 59.4-59.4zm289.9-355l-59.4-59.4-2.8 2.8 59.4 59.4 2.8-2.8zm-70.7-48l-2.8 2.8 59.4 59.4 2.8-2.8-59.4-59.4zm56.6 144.2l-59.4 59.4 2.8 2.8 59.4-59.4-2.8-2.8zm-413 212.1l-2.8 2.8 59.4 59.4 2.8-2.8-59.4-59.4zm438.4-319.6l-59.4-59.4-2.8 2.8 59.4 59.4 2.8-2.8zm-80.6 230.5l-59.4 59.4 2.8 2.8 59.4-59.4-2.8-2.8zm-31.1-31.1l-2.8-2.8-59.4 59.4 2.8 2.8 59.4-59.4zm-66.5-21.2l-59.4-59.4-2.8 2.8 59.4 59.4 2.8-2.8zM1313.6 458l59.4 59.4 2.8-2.8-59.4-59.4-2.8 2.8zm451.1 801.8l-2.8-2.8-59.4 59.4 2.8 2.8 59.4-59.4zm56.6 234.8l-59.4-59.4-2.8 2.8 59.4 59.4 2.8-2.8zm-22.7-200.8l-2.8-2.8-59.4 59.4 2.8 2.8 59.4-59.4zM620.3 1920l-28-28-2.8 2.8 25.2 25.2h5.6zm-19.5-36.5l36.5 36.5h5.7l-39.3-39.3-2.9 2.8zm1319.2-779v-5.7l-39.3 39.3 2.8 2.8 36.5-36.4zm-1135.4 779l-2.8-2.8-39.3 39.3h5.7l36.4-36.5zm376.2 19.8l-16.7 16.7h5.7l13.9-13.9-2.9-2.8zm11.3 11.3l-5.4 5.4h5.7l2.6-2.6-2.9-2.8zm-520.4-164.1l-2.8-2.8-59.4 59.4 2.8 2.8 59.4-59.4zm-89.1 89.1l-2.8-2.8-59.4 59.4 2.8 2.8 59.4-59.4zm11.3 11.4l-2.8-2.8-59.4 59.4 2.8 2.8 59.4-59.4zm710-2.9l-59.4 59.4 2.8 2.8 59.4-59.4-2.8-2.8zm-657.7-123l-59.4 59.4 2.8 2.8 59.4-59.4-2.8-2.8zm14.2 14.1l-2.8-2.8-59.4 59.4 2.8 2.8 59.4-59.4zm801.8 134.4l-59.4-59.4-2.8 2.8 59.4 59.4 2.8-2.8zm-11.3 11.3l-59.4-59.4-2.8 2.8 59.4 59.4 2.8-2.8zm75-349.3l-59.4 59.4 2.8 2.8 59.4-59.4-2.8-2.8zM1339 1725.1l-59.4 59.4 2.8 2.8 59.4-59.4-2.8-2.8zm80.6 171.1l-59.4-59.4-2.8 2.8 59.4 59.4 2.8-2.8zm34-33.9l-59.4-59.4-2.8 2.8 59.4 59.4 2.8-2.8zm-2.9-203.7l-59.4 59.4 2.8 2.8 59.4-59.4-2.8-2.8zm-97.5 80.6l-2.8-2.8-59.4 59.4 2.8 2.8 59.4-59.4zm11.3 11.3l-2.8-2.8-59.4 59.4 2.8 2.8 59.4-59.4zm43.8 157l-59.4-59.4-2.8 2.8 59.4 59.4 2.8-2.8zm-32.5-145.6l-2.8-2.8-59.4 59.4 2.8 2.8 59.4-59.4zm15.5-1469.4l2.8 2.8 59.4-59.4-2.8-2.8-59.4 59.4zm148.5 58l2.8-2.8-59.4-59.4-2.8 2.8 59.4 59.4zm380.2 776.6v-5.7l-28 28 2.8 2.8 25.2-25.1zm-517.4-823.3l2.8 2.8 59.4-59.4-2.8-2.8-59.4 59.4zm66.5-1.4l59.4 59.4 2.8-2.8-59.4-59.4-2.8 2.8zm22.6-87.7l2.8 2.8 59.4-59.4-2.8-2.8-59.4 59.4zm-33.9 99l59.4 59.4 2.8-2.8-59.4-59.4-2.8 2.8zm155.6-155.6l59.4 59.4 2.8-2.8-59.4-59.4-2.8 2.8zm11.3-11.3l59.4 59.4 2.8-2.8-59.4-59.4-2.8 2.8zm-55.2 55.2l59.4 59.4 2.8-2.8-59.4-59.4-2.8 2.8zm-22.6 22.6l59.4 59.4 2.8-2.8-59.4-59.4-2.8 2.8zm11.3-11.3l59.4 59.4 2.8-2.8-59.4-59.4-2.8 2.8zm22.6-22.6l59.4 59.4 2.8-2.8-59.4-59.4-2.8 2.8zm-223.4-133l59.4 59.4 2.8-2.8-59.4-59.4-2.8 2.8zM551.3 1828.3l-2.8-2.8-59.4 59.4 2.8 2.8 59.4-59.4zM1327.4 0l-25.2 25.2 2.8 2.8 28-28h-5.6zm41.3 46.4l59.4 59.4 2.8-2.8-59.4-59.4-2.8 2.8zm-55.1 55.2L1373 161l2.8-2.8-59.4-59.4-2.8 2.8zm32.5-32.6l59.4 59.4 2.8-2.8-59.4-59.4-2.8 2.8zm33.9-33.9l59.4 59.4 2.8-2.8-59.4-59.4-2.8 2.8zm0 246.1l2.8 2.8 59.4-59.4-2.8-2.8-59.4 59.4zm114.6-182.5l-59.4 59.4 2.8 2.8 59.4-59.4-2.8-2.8zm-103.3-74.9l59.4 59.4 2.8-2.8-59.3-59.4-2.9 2.8zm11.3-11.3l59.4 59.4 2.8-2.8-59.4-59.4-2.8 2.8zm77.8 190.9l2.8 2.8 59.4-59.4-2.8-2.8-59.4 59.4zm434.2 366.3l5.4 5.4v-5.7l-2.6-2.6-2.8 2.9zm-11.3 11.3l16.7 16.7V592l-13.9-13.9-2.8 2.9zM1759 660.2l2.8 2.8 59.4-59.4-2.8-2.8-59.4 59.4zm55.2 9.9l59.4 59.4 2.8-2.8-59.4-59.4-2.8 2.8zm11.3-11.3l59.4 59.4 2.8-2.8-59.4-59.4-2.8 2.8zm22.6-87.7l2.8 2.8 59.4-59.4-2.8-2.8-59.4 59.4zM422.6 214.7l2.8 2.8 59.4-59.4-2.8-2.8-59.4 59.4zM1920 1149.8v-5.7l-16.7 16.7 2.8 2.8 13.9-13.8zm0 177.6l-25.2-25.2-2.8 2.8 28 28v-5.6zm-2.6-47.8l-2.8 2.8 5.4 5.4v-5.7l-2.6-2.5zm-11.3 11.3l-2.8 2.8 16.7 16.7v-5.7l-13.9-13.8zm-43.8-824.5l-59.4 59.4 2.8 2.8 59.4-59.4-2.8-2.8zM1718 528.7l2.8-2.8-59.4-59.4-2.8 2.8 59.4 59.4zm-59.4-147.1l2.8 2.8 59.4-59.4-2.8-2.8-59.4 59.4zm-11.3 99l59.4 59.4 2.8-2.8-59.4-59.4-2.8 2.8zm22.6-87.7l2.8 2.8 59.4-59.4-2.8-2.8-59.4 59.4zm77.8 256l2.8 2.8 59.4-59.4-2.8-2.8-59.4 59.4zm-52.3-349.3L1636 359l2.8 2.8 59.4-59.4-2.8-2.8zm96.2 214.9l2.8 2.8 59.4-59.4-2.8-2.8-59.4 59.4zm-166.9-166.9l2.8 2.8 59.4-59.4-2.8-2.8-59.4 59.4zm100.4 55.2l59.4 59.4 2.8-2.8-59.4-59.4-2.8 2.8zm11.3-11.3l59.4 59.4 2.8-2.8-59.4-59.4-2.8 2.8zm114.6 895.2l59.4-59.4-2.8-2.8-59.4 59.4 2.8 2.8zm-1707-372l59.4 59.4 2.8-2.8-59.4-59.4-2.8 2.8zm11.3-11.3l59.4 59.4 2.8-2.8-59.4-59.4-2.8 2.8zm106.1 12.8L202 856.8l-2.8 2.8 59.4 59.4 2.8-2.8zm-11.3 76.3l-2.8-2.8-59.4 59.4 2.8 2.8 59.4-59.4zm11.3 11.3l-2.8-2.8-59.4 59.4 2.8 2.8 59.4-59.4zM155.3 838.4l2.8 2.8 59.4-59.4-2.8-2.8-59.4 59.4zm17 166.9l-59.4-59.4-2.8 2.8 59.4 59.4 2.8-2.8zm-11.3 11.3l-59.4-59.4-2.8 2.8 59.4 59.4 2.8-2.8zm22.6-22.7l-59.4-59.4-2.8 2.8 59.4 59.4 2.8-2.8zm11.3-11.3l-59.4-59.4-2.8 2.8 59.4 59.4 2.8-2.8zm-66.5 66.5L69 989.7l-2.8 2.8 59.4 59.4 2.8-2.8zm59.4-178.2l59.4 59.4 2.8-2.8-59.4-59.4-2.8 2.8zM32.3 893.5l2.8 2.8L94.5 837l-2.8-2.8-59.4 59.3zm14.1 14.2l59.4-59.4-2.8-2.8-59.4 59.4 2.8 2.8zM2.6 923.2L0 925.8v5.7l5.4-5.4-2.8-2.9zM0 948.4v5.7l16.7-16.7-2.8-2.8L0 948.4zm25.2-2.5L0 971.1v5.7l28-28-2.8-2.9zm84.9-353.6l59.4 59.4 2.8-2.8-59.4-59.4-2.8 2.8zM144 827.1l2.8 2.8 59.4-59.4-2.8-2.8-59.4 59.4zm-22.6-22.7l2.8 2.8 59.4-59.4-2.8-2.8-59.4 59.4zM98.7 603.6l59.4 59.4 2.8-2.8-59.4-59.4-2.8 2.8zm-32.5 32.5l59.4 59.4 2.8-2.8L69 633.3l-2.8 2.8zm35.4 148.5l59.4-59.4-2.8-2.8-59.4 59.4 2.8 2.8zm291.3-356.3l2.8-2.8-59.4-59.5-2.8 2.8 59.4 59.5zm-148.5-35.4l2.8 2.8 59.4-59.4-2.8-2.8-59.4 59.4zM69 811.5L9.6 870.9l2.8 2.8 59.4-59.4-2.8-2.8zm253.2-431.3l59.4 59.4 2.8-2.8-59.4-59.5-2.8 2.9zm-22.6 22.6l59.4 59.4 2.8-2.8-59.4-59.4-2.8 2.8zm-11.4 11.3l59.4 59.4 2.8-2.8-59.4-59.4-2.8 2.8zm22.7-22.6l59.4 59.4 2.8-2.8-59.4-59.4-2.8 2.8zm22.6-87.7l2.8 2.8 59.4-59.4-2.8-2.8-59.4 59.4zm137.2 46.7l2.8-2.8-59.4-59.4-2.8 2.8 59.4 59.4zm-59.4-147.1l2.8 2.8 59.4-59.4-2.8-2.8-59.4 59.4zm-22.6 110.3l59.4 59.4 2.8-2.8-59.4-59.4-2.8 2.8zm11.3-11.3l59.4 59.4 2.8-2.8-59.4-59.4-2.8 2.8zM128.4 870.9l-2.8-2.8-59.4 59.4 2.8 2.8 59.4-59.4zM57.7 919l59.4-59.4-2.8-2.8-59.4 59.4 2.8 2.8zm164.1-82l59.4 59.4 2.8-2.8-59.4-59.4-2.8 2.8zm-11.3 11.3l59.4 59.4 2.8-2.8-59.4-59.4-2.8 2.8zm-96.2 214.9l2.8-2.8-59.4-59.4-2.8 2.8 59.4 59.4zm55.2-329.5l-59.4 59.4 2.8 2.8 59.4-59.4-2.8-2.8zm1124.3-717L1310.5 0h-5.7l-13.9 13.9 2.9 2.8zM339.2 482l-59.4-59.4-2.8 2.8 59.4 59.4 2.8-2.8zm-48.1 135.8l59.4-59.4-2.8-2.8-59.4 59.4 2.8 2.8zm12.7-100.4l2.8-2.8-59.4-59.4-2.8 2.8 59.4 59.4zm-67.9 223.4l59.4-59.4-2.8-2.8-59.4 59.4 2.8 2.8zM9.6 692.7L69 752.1l2.8-2.8-59.4-59.4-2.8 2.8zm196.6 434.2l-2.8-2.8-59.4 59.4 2.8 2.8 59.4-59.4zm144.3 144.2l-2.8-2.8-59.4 59.4 2.8 2.8 59.4-59.4zm-11.3-11.3l-2.8-2.8-59.4 59.4 2.8 2.8 59.4-59.4zm45.2 246.1l-59.4-59.4-2.8 2.8 59.4 59.4 2.8-2.8zm-11.3-212.1l-2.8-2.8-59.4 59.4 2.8 2.8 59.4-59.4zm-155.6 22.6l-59.4-59.4-2.8 2.8 59.4 59.4 2.8-2.8zm178.2 178.2l-59.4-59.4-2.8 2.8 59.4 59.4 2.8-2.8zm-189.5-166.9l-59.4-59.4-2.8 2.8 59.4 59.4 2.8-2.8zm8.5-192.3l-59.4 59.4 2.8 2.8 59.4-59.4-2.8-2.8zm55.2-123.1l-59.4 59.4 2.8 2.8 59.4-59.4-2.8-2.8zm-19.8 271.6l-59.4-59.4-2.8 2.8 59.4 59.4 2.8-2.8zm33.9-34l-59.4-59.4-2.8 2.8 59.4 59.4 2.8-2.8zm200.8 512l-59.4-59.4-2.8 2.8 59.4 59.4 2.8-2.8zm32.6-32.6l-59.4-59.4-2.8 2.8 59.4 59.4 2.8-2.8zm22.6-22.6l-59.4-59.4-2.8 2.8 59.4 59.4 2.8-2.8zm-66.5 66.5l-59.4-59.4-2.8 2.8 59.4 59.4 2.8-2.8zm55.2-55.2l-59.4-59.4-2.8 2.8 59.4 59.4 2.8-2.8zm-66.5-157l-2.8-2.8-59.4 59.4 2.8 2.8 59.4-59.4zm-11.3-11.3l-2.8-2.8-59.4 59.4 2.8 2.8 59.4-59.4zm-70.7 48.1l59.4-59.4-2.8-2.8-59.4 59.4 2.8 2.8zm93.3-25.4l-2.8-2.8-59.4 59.4 2.8 2.8 59.4-59.4zM428.3 1462l-59.4-59.4-2.8 2.8 59.4 59.4 2.8-2.8zm-256-369.1l-2.8-2.8-59.4 59.4 2.8 2.8 59.4-59.4zM21 882.2l2.8 2.8 59.4-59.4-2.8-2.8L21 882.2zm62.2 212.2L23.8 1035l-2.8 2.8 59.4 59.4 2.8-2.8zM36.5 957.2L0 993.7v5.7L39.3 960l-2.8-2.8zM21 681.4l59.4 59.4 2.8-2.8-59.4-59.4-2.8 2.8zM0 748.1l36.5 36.5 2.8-2.8L0 742.5v5.6zm194.9 367.5l-2.8-2.8-59.4 59.4 2.8 2.8 59.4-59.4zm-181-308.3l2.8-2.8L0 787.7v5.7l13.9 13.9zm58 298.4l-59.4-59.4-2.8 2.8 59.4 59.4 2.8-2.8zM2.6 818.6l2.8-2.8-5.4-5.5v5.7l2.6 2.6zM28 1149.5l-28-28v5.7l25.2 25.2 2.8-2.9zm11.3-11.3L0 1098.8v5.7l36.5 36.5 2.8-2.8zm441.3 738.2L540 1817l-2.8-2.8-59.4 59.4 2.8 2.8zM0 770.7L25.2 796l2.8-2.8-28-28v5.5zm57.7 504.7l59.4-59.4-2.8-2.8-59.4 59.4 2.8 2.8zM161 1081.6l-2.8-2.8-59.4 59.4 2.8 2.8 59.4-59.4zm-32.6 145.7l-2.8-2.8-59.4 59.4 2.8 2.8 59.4-59.4zm-123-55.2l-5.4-5.4v5.7l2.6 2.6 2.8-2.9zm175.4-70.7l-59.4 59.4 2.8 2.8 59.4-59.4-2.8-2.8zm-75-29.7l-59.4-59.4-2.8 2.8 59.4 59.4 2.8-2.8zm-33.9 99l-2.8-2.8-59.4 59.4 2.8 2.8 59.4-59.4zm-55.2-9.9L0 1144.1v5.7l13.9 13.9 2.8-2.9zm77.8-77.8l-59.4-59.4-2.8 2.8 59.4 59.4 2.8-2.8z" opacity=".2" fill="#fff"/></svg>