<svg version="1.1" xmlns="http://www.w3.org/2000/svg" x="0" y="0" viewBox="0 0 1920 1920" xml:space="preserve"><style type="text/css">.st1{fill:#989898}</style><path fill="#445a76" d="M0 0h1920v1920H0z"/><path d="M570 491l27 21m-168 521l-41-23m246-652l12-29m-306 14l16-42M131 1753h7M1293 491h19M950 265l-12-24m896 942v37M872 366l-21 24M737 242l69-49M13 1473v-15m1668-818l16 45M166 1388l55-24m1071-212l-9-6M416 378l21-41m1041 219l-7 23m-62 1324l11-15m-245-768l48-28m614-323l19 15M618 1749l18-14m774-5l-14-6M398 495l63-48m185-118l-2-8m840 1139l-12-15m134-784l9-43m124-544l-10-7M789 1600l-31 5m77-924l-2 53M183 454l8-18m872 813l12 26M969 216l-31 25m887 1418l-2 34m-50-37l-30-32M437 952l-3-32m616 564l16-32M749 784l-21 7m210-550l12 24M25 172l51-8m757 1053l4-39M141 598l-33 60m629 69l12 57M64 811l-39 39m629 310l10 30m898-321l-18 61m-412 5l-33 9m283-711l-18-12m-29 1359h-80m-814-163l-42-31M1661 296l27 40m159-207l-28 28m-209 49l21 1M646 1699l31-15m500-675l-8 20m-157-418l16 15M271 890l40 25m858 114l8-20m500 34l11 38m-923-54l-23-37m757-732l-6 13m274-45l36-12M48 243l8 35m42-176l-27 16M13 1458v15m1344-895l9-33m501-210l-52-39M750 1496l72 43M739 456l-11 53m274 45h-10m556 380l-4-4M468 561l-70-66m697 984l21 14m-27-329l8 7m-652 52l-67 11m695-909l-38 42m-24-143l28-27m505 733l4 4M947 471l-30-19M470 164l-38-55m374 84l45 6M16 1523l-3-50M1487 320l6-49m-105 956l-18-42m88 12l-70 30m309-542l-16-45M913 866l-8 28m784-401v-44m187-290l-29-30m-381 584l29-13m-584 794l18 28M669 932h-7M25 850l10 33m556 706l1-68m1242-301v-37M275 103l-12-13m414 1594l-10-22m1049-176l32-8m-1223 32l13 9m-186 114l50-25m121-831l35 23m617-79l-2 69M274 1866l-47-38M19 1403l25 45m1628-679l17 34m-485 540l-8 26m638-8l-30-92M1114 229l-9-52M328 978l-7-9m714-602l38-42M585 847l-27-47M356 301l4-41m-39 709l7 9m-47-839l18 23m277 1642l-66-2M436 736l66 2M172 1784l-34-31m924-419l-8 17m776-1155l-27 18M287 1342l8-7M113 994l-28 23m1132 392l-38 1m648-599l29-27M859 1895l68-63m484-1371l-26 16m-130 1103l-2 3m551-314l30-49m-139-48l-4 12M687 1061l52 8m-305 411l7-63m1011-420l-30 6m100-584l2-36m-448 1199l-16 48m-550 172l-12-17M1819 157l28-28m-168 1321l37 36M939 156l-37 49M64 1789l23 35m575-892h7M148 215l-72-51m1174 1127l9 54M764 585l17 35m585-75l-9 33m-189 991l59 49M142 1235H84m508 286l-54-2M728 509l11-53m147 607l3 24M108 658l39 26m1165-193h-19m-274 344l40-23m-412 661l-8-21m531-59l9 17m-164 406l-30 27M352 985l-24-7m521-199l-16-45M426 1890l9-22m1392-271l-13-54m-685-260l-10-17M827 62l-24 41m-45 1502l31-5m-532-546l-34 13m264 842l-61-19m574-738l-86 9m145-349l5-10m-3-208l-40-3m613 721l30 63m-737 457l34 47m828-1569l26-14m-354 803l3 11m283-31l23 41M61 509l-38 53m1303-180l-6-15M809 563l3 24M301 1757l-5 33m725-1199l-9 20M675 1867l-15-34m-89-705l64-2M70 1607l-19 21m977-1002l-16-15M585 335l49 23m423 347l-17-14m817 1153l-2-16M1168 154l-56-27M305 599h-17M25 1312l-6 12M1284 158l-1 13m81 50l18 12M979 702l61-11m684-428l17-6m-987 996l-28-13m746-354l-25-15M434 920l3 32m18 786l49 3m597-1204l-28 16M742 990l-26 27m1099-721l-26 14m-566 782l35-25m-838 245l-75 10M1331 33l53 79M957 960l20 22m-703 578l38-19m-1-626l-40-25m-46-381l4 59m1378 1209l50-48M599 262l14 8m946 818l-15-8m-273 450l-16 50m141 144l14 6m-311-786l33-9m404 637l-20-38M191 436l-8 18m-36 230l-39-26m1312 1230l-11 15M145 1088l46-44m767 296l-61 14m-585 187l-38 19m86-1300l-4 41M1428 89l15 3M638 810l-53 37m248-113l16 45M1883 25l-36 104m-731 1364l-21-14M44 1448l-31 10m453-557l19 20m612 250l-8-7M26 37l45 81m1249 249l6 15m-117 11l-21 43m-291 918l61-14m-820 413h-7m404-271l-10 28M1236 99l3 39M437 337l34-9m646 808l-28 28m85-1073l-37 1M730 936l-29 4m721 63l30-6M184 1845l43-17M1856 784l-19-15M626 1257l-23 54m781-1199l-2 40m330 819l2 6M318 1289l27 33m290-196l19 34M9 381l47 25m10 836l18-7m1391 272l9-47m-305-50l-9-17m231-1060l-4-34m157 448l-41 41m5 597l13 36m-463-955l37 31m-810 838l8-3M1748 142l13-33m52 336l6-7M798 1197l35 20m549-1065l2-40m40 930l-2-39M728 791l21-7m266-676l3 7m582 1284l64-24M250 1151l65 9m1581-155l-45-92m-525 347l62-33m-1202 67l11 2m915-1169l25-35M654 1898l21-31M1804 676l3 28m20 1029l-4-40m-1-836l5-46M26 1576l44 31M812 587l-3-24M538 46l35-16m279 550l-40 7M502 371l-31-43m225 536l19 15m315-843l8 52M613 270l-14-8m378 720l-20-22M56 278l-8-35m218 730l55-4m-22-807l-18-23m1408 310v44m-584 4l-4 40M755 638l26-18m0 0h27M701 940l29-4m804 164l10-20m-559 763l30-27M23 562l38-53m1285 247l53-92M485 921l-19-20m-193 554l5-21m1465 190l10-15M609 241l-10 21M221 1364l19-20M76 164l-5-46m1752 1575l2-34m-313-396l-54-66m236 11l-3-24m70-1075l-13 33M63 960l50 34m153 294l2 36m1476-511l-30 7M977 410l-30 61m-313-79l1 19m878 377l-31-22m124-680l-22-38M418 1158l27 65m858 623l1 37m-137-7l-36-23M597 512l-27-21M325 802l15 14m1558 810l-71-29m-574-14l2-3M135 78l-37 24m808 704l7 60m184 901l64 41m309-1175l3-10M435 1868l-9 22M690 614l8-4m209-359l-1 6M763 848l-48 31m1134 926l6 23m-526-800l-57 36M558 800l-35-23m437 634l-2-71m802 160l-12-22M197 1296l-11-2m1293-768l-1 30M635 411l-1-19M316 849l-3-7m404-457l30-37m59 1039l91-33M644 321l2 8m732 1107l63-51m-715-145l28 13m-216 266l-13-9M1631 207l-21-1m-94 1328l20 38m-388-718l7-54M697 995l19 22m511 652v-51m255-852l31 22M906 257l1-6M341 770l7 16m734-11l-18 27m653-733l12-2M278 1434l-1-7M852 317l24-38m358 734l19 27m-16-746l44-87m268 343l-71 6m-220 1309l45-19m67-661l18 42m-699 384l-22 51m857-1279l21-28m0 0l-21 28M388 1010l-36-25m1312 390l-64 24m80-1386l44 37M402 1608l-50 25m-125 195l-43 17m721-951l8-28m816-799l-12 2m23 1080l30-29m-66 164l-70 28m-163-733l7-23M679 1773l-13-13M84 1235l-18 7M942 60l-49-46m639 82l52-48M378 1234l67-11m573-1108l-3-7M313 842l3 7" fill="none" stroke="#989898" stroke-width="2"/><circle class="st1" cx="1599" cy="1905" r="3"/><circle class="st1" cx="85" cy="1017" r="8"/><circle class="st1" cx="1176" cy="972" r="6"/><circle class="st1" cx="1020" cy="1265" r="3"/><circle class="st1" cx="1075" cy="1275" r="6"/><circle class="st1" cx="498" cy="1785" r="2"/><circle class="st1" cx="1215" cy="810" r="4"/><circle class="st1" cx="1364" cy="221" r="8"/><circle class="st1" cx="1401" cy="333" r="3"/><circle class="st1" cx="872" cy="366" r="8"/><circle class="st1" cx="1250" cy="1291" r="7"/><circle class="st1" cx="61" cy="509" r="5"/><circle class="st1" cx="378" cy="1234" r="8"/><circle class="st1" cx="352" cy="1633" r="7"/><circle class="st1" cx="1729" cy="67" r="2"/><circle class="st1" cx="734" cy="1204" r="7"/><circle class="st1" cx="1747" cy="1079" r="5"/><circle class="st1" cx="1531" cy="1421" r="2"/><circle class="st1" cx="1329" cy="1028" r="2"/><circle class="st1" cx="1281" cy="207" r="6"/><circle class="st1" cx="701" cy="940" r="5"/><circle class="st1" cx="1748" cy="1478" r="3"/><circle class="st1" cx="913" cy="866" r="4"/><circle class="st1" cx="516" cy="1762" r="8"/><circle class="st1" cx="1379" cy="1825" r="2"/><circle class="st1" cx="9" cy="381" r="7"/><circle class="st1" cx="502" cy="738" r="7"/><circle class="st1" cx="754" cy="1253" r="4"/><circle class="st1" cx="348" cy="786" r="3"/><circle class="st1" cx="388" cy="1010" r="5"/><circle class="st1" cx="1272" cy="1064" r="7"/><circle class="st1" cx="1292" cy="1152" r="6"/><circle class="st1" cx="939" cy="156" r="2"/><circle class="st1" cx="1059" cy="812" r="6"/><circle class="st1" cx="311" cy="915" r="5"/><circle class="st1" cx="1217" cy="1737" r="3"/><circle class="st1" cx="1522" cy="419" r="2"/><circle class="st1" cx="1385" cy="477" r="2"/><circle class="st1" cx="1802" cy="1501" r="8"/><circle class="st1" cx="1393" cy="256" r="6"/><circle class="st1" cx="56" cy="406" r="8"/><circle class="st1" cx="809" cy="563" r="4"/><circle class="st1" cx="1332" cy="1102" r="5"/><circle class="st1" cx="502" cy="371" r="4"/><circle class="st1" cx="1255" cy="593" r="4"/><circle class="st1" cx="418" cy="1158" r="8"/><circle class="st1" cx="25" cy="850" r="4"/><circle class="st1" cx="939" cy="541" r="7"/><circle class="st1" cx="1827" cy="1597" r="6"/><circle class="st1" cx="1105" cy="177" r="6"/><circle class="st1" cx="746" cy="1698" r="3"/><circle class="st1" cx="764" cy="585" r="7"/><circle class="st1" cx="1545" cy="355" r="3"/><circle class="st1" cx="1137" cy="92" r="2"/><circle class="st1" cx="1105" cy="497" r="4"/><circle class="st1" cx="1770" cy="1120" r="3"/><circle class="st1" cx="560" cy="1651" r="3"/><circle class="st1" cx="690" cy="614" r="5"/><circle class="st1" cx="789" cy="1600" r="5"/><circle class="st1" cx="570" cy="491" r="6"/><circle class="st1" cx="1760" cy="1500" r="4"/><circle class="st1" cx="1704" cy="1284" r="2"/><circle class="st1" cx="1753" cy="1609" r="6"/><circle class="st1" cx="1562" cy="869" r="5"/><circle class="st1" cx="1901" cy="845" r="7"/><circle class="st1" cx="730" cy="936" r="4"/><circle class="st1" cx="938" cy="241" r="6"/><circle class="st1" cx="1129" cy="1283" r="7"/><circle class="st1" cx="1855" cy="1828" r="4"/><circle class="st1" cx="13" cy="1473" r="5"/><circle class="st1" cx="1607" cy="1777" r="7"/><circle class="st1" cx="1663" cy="977" r="7"/><circle class="st1" cx="191" cy="1044" r="4"/><circle class="st1" cx="1132" cy="935" r="3"/><circle class="st1" cx="1815" cy="296" r="4"/><circle class="st1" cx="750" cy="1496" r="3"/><circle class="st1" cx="1466" cy="713" r="3"/><circle class="st1" cx="1479" cy="526" r="7"/><circle class="st1" cx="1040" cy="691" r="8"/><circle class="st1" cx="1567" cy="1843" r="4"/><circle class="st1" cx="1397" cy="299" r="2"/><circle class="st1" cx="961" cy="1879" r="3"/><circle class="st1" cx="1038" cy="88" r="4"/><circle class="st1" cx="538" cy="46" r="3"/><circle class="st1" cx="1689" cy="803" r="2"/><circle class="st1" cx="634" cy="392" r="4"/><circle class="st1" cx="739" cy="1657" r="2"/><circle class="st1" cx="141" cy="598" r="8"/><circle class="st1" cx="897" cy="1354" r="4"/><circle class="st1" cx="669" cy="932" r="6"/><circle class="st1" cx="288" cy="599" r="8"/><circle class="st1" cx="352" cy="985" r="2"/><circle class="st1" cx="1744" cy="813" r="8"/><circle class="st1" cx="1035" cy="367" r="4"/><circle class="st1" cx="266" cy="1288" r="8"/><circle class="st1" cx="315" cy="1160" r="3"/><circle class="st1" cx="957" cy="960" r="2"/><circle class="st1" cx="1227" cy="1618" r="8"/><circle class="st1" cx="675" cy="1867" r="2"/><circle class="st1" cx="906" cy="257" r="2"/><circle class="st1" cx="1382" cy="233" r="3"/><circle class="st1" cx="654" cy="1160" r="7"/><circle class="st1" cx="1283" cy="171" r="4"/><circle class="st1" cx="1576" cy="328" r="3"/><circle class="st1" cx="1470" cy="633" r="4"/><circle class="st1" cx="1073" cy="553" r="2"/><circle class="st1" cx="929" cy="1522" r="3"/><circle class="st1" cx="1097" cy="1767" r="8"/><circle class="st1" cx="688" cy="137" r="2"/><circle class="st1" cx="1741" cy="257" r="4"/><circle class="st1" cx="1283" cy="1146" r="5"/><circle class="st1" cx="644" cy="321" r="4"/><circle class="st1" cx="26" cy="37" r="6"/><circle class="st1" cx="808" cy="620" r="8"/><circle class="st1" cx="296" cy="1790" r="7"/><circle class="st1" cx="166" cy="1388" r="6"/><circle class="st1" cx="1544" cy="930" r="2"/><circle class="st1" cx="942" cy="60" r="5"/><circle class="st1" cx="849" cy="779" r="6"/><circle class="st1" cx="1499" cy="258" r="4"/><circle class="st1" cx="1623" cy="1469" r="2"/><circle class="st1" cx="1714" cy="820" r="2"/><circle class="st1" cx="84" cy="1235" r="2"/><circle class="st1" cx="812" cy="587" r="4"/><circle class="st1" cx="230" cy="8" r="3"/><circle class="st1" cx="543" cy="1202" r="5"/><circle class="st1" cx="977" cy="410" r="8"/><circle class="st1" cx="468" cy="561" r="6"/><circle class="st1" cx="917" cy="452" r="4"/><circle class="st1" cx="1167" cy="1876" r="7"/><circle class="st1" cx="1326" cy="1260" r="7"/><circle class="st1" cx="1819" cy="157" r="7"/><circle class="st1" cx="613" cy="270" r="7"/><circle class="st1" cx="1409" cy="1903" r="4"/><circle class="st1" cx="1304" cy="1883" r="8"/><circle class="st1" cx="1722" cy="1744" r="8"/><circle class="st1" cx="859" cy="1895" r="5"/><circle class="st1" cx="1495" cy="700" r="4"/><circle class="st1" cx="1447" cy="511" r="4"/><circle class="st1" cx="1689" cy="449" r="7"/><circle class="st1" cx="927" cy="1832" r="8"/><circle class="st1" cx="1388" cy="1227" r="7"/><circle class="st1" cx="1661" cy="296" r="5"/><circle class="st1" cx="1234" cy="1013" r="8"/><circle class="st1" cx="1071" cy="159" r="2"/><circle class="st1" cx="1717" cy="69" r="2"/><circle class="st1" cx="1269" cy="600" r="7"/><circle class="st1" cx="1204" cy="1343" r="3"/><circle class="st1" cx="907" cy="251" r="8"/><circle class="st1" cx="1697" cy="685" r="6"/><circle class="st1" cx="852" cy="580" r="5"/><circle class="st1" cx="1337" cy="1103" r="3"/><circle class="st1" cx="1743" cy="1624" r="6"/><circle class="st1" cx="366" cy="676" r="7"/><circle class="st1" cx="791" cy="422" r="7"/><circle class="st1" cx="186" cy="1294" r="4"/><circle class="st1" cx="1382" cy="152" r="3"/><circle class="st1" cx="1822" cy="857" r="2"/><circle class="st1" cx="1484" cy="1460" r="4"/><circle class="st1" cx="19" cy="1324" r="3"/><circle class="st1" cx="87" cy="1824" r="3"/><circle class="st1" cx="1015" cy="1816" r="8"/><circle class="st1" cx="739" cy="456" r="8"/><circle class="st1" cx="1012" cy="611" r="5"/><circle class="st1" cx="147" cy="684" r="3"/><circle class="st1" cx="70" cy="1607" r="5"/><circle class="st1" cx="1856" cy="713" r="3"/><circle class="st1" cx="25" cy="172" r="3"/><circle class="st1" cx="836" cy="1257" r="7"/><circle class="st1" cx="1076" cy="1582" r="3"/><circle class="st1" cx="1249" cy="1376" r="3"/><circle class="st1" cx="697" cy="1826" r="8"/><circle class="st1" cx="806" cy="193" r="5"/><circle class="st1" cx="1237" cy="294" r="6"/><circle class="st1" cx="1030" cy="36" r="4"/><circle class="st1" cx="591" cy="1589" r="5"/><circle class="st1" cx="1255" cy="1580" r="3"/><circle class="st1" cx="257" cy="1054" r="4"/><circle class="st1" cx="1695" cy="1172" r="5"/><circle class="st1" cx="295" cy="1335" r="7"/><circle class="st1" cx="1460" cy="34" r="6"/><circle class="st1" cx="1512" cy="1263" r="7"/><circle class="st1" cx="1672" cy="1749" r="8"/><circle class="st1" cx="26" cy="1576" r="8"/><circle class="st1" cx="148" cy="215" r="3"/><circle class="st1" cx="341" cy="770" r="2"/><circle class="st1" cx="1664" cy="1735" r="4"/><circle class="st1" cx="466" cy="901" r="3"/><circle class="st1" cx="113" cy="994" r="8"/><circle class="st1" cx="902" cy="205" r="3"/><circle class="st1" cx="1461" cy="1099" r="3"/><circle class="st1" cx="1062" cy="1334" r="4"/><circle class="st1" cx="1680" cy="13" r="5"/><circle class="st1" cx="1239" cy="138" r="5"/><circle class="st1" cx="11" cy="1628" r="6"/><circle class="st1" cx="128" cy="1575" r="4"/><circle class="st1" cx="1175" cy="1120" r="2"/><circle class="st1" cx="1898" cy="1626" r="5"/><circle class="st1" cx="240" cy="1344" r="5"/><circle class="st1" cx="1827" cy="811" r="3"/><circle class="st1" cx="660" cy="1833" r="6"/><circle class="st1" cx="313" cy="842" r="8"/><circle class="st1" cx="183" cy="454" r="4"/><circle class="st1" cx="703" cy="1130" r="2"/><circle class="st1" cx="1422" cy="1003" r="5"/><circle class="st1" cx="1513" cy="788" r="8"/><circle class="st1" cx="504" cy="1741" r="6"/><circle class="st1" cx="1255" cy="160" r="8"/><circle class="st1" cx="1168" cy="154" r="3"/><circle class="st1" cx="434" cy="1480" r="7"/><circle class="st1" cx="523" cy="1353" r="3"/><circle class="st1" cx="803" cy="103" r="7"/><circle class="st1" cx="1618" cy="1076" r="5"/><circle class="st1" cx="1217" cy="1409" r="6"/><circle class="st1" cx="1174" cy="91" r="2"/><circle class="st1" cx="764" cy="122" r="6"/><circle class="st1" cx="1116" cy="1493" r="4"/><circle class="st1" cx="737" cy="242" r="3"/><circle class="st1" cx="1834" cy="1361" r="2"/><circle class="st1" cx="1688" cy="336" r="6"/><circle class="st1" cx="1549" cy="550" r="7"/><circle class="st1" cx="755" cy="638" r="7"/><circle class="st1" cx="747" cy="348" r="2"/><circle class="st1" cx="726" cy="1240" r="6"/><circle class="st1" cx="1689" cy="493" r="4"/><circle class="st1" cx="678" cy="688" r="2"/><circle class="st1" cx="1471" cy="579" r="3"/><circle class="st1" cx="1761" cy="109" r="5"/><circle class="st1" cx="851" cy="390" r="3"/><circle class="st1" cx="1424" cy="1042" r="5"/><circle class="st1" cx="670" cy="1470" r="2"/><circle class="st1" cx="1226" cy="1208" r="6"/><circle class="st1" cx="1712" cy="971" r="4"/><circle class="st1" cx="1331" cy="33" r="4"/><circle class="st1" cx="1245" cy="545" r="6"/><circle class="st1" cx="874" cy="1226" r="6"/><circle class="st1" cx="1819" cy="438" r="5"/><circle class="st1" cx="1603" cy="1499" r="4"/><circle class="st1" cx="40" cy="1639" r="7"/><circle class="st1" cx="1452" cy="61" r="4"/><circle class="st1" cx="1487" cy="320" r="4"/><circle class="st1" cx="1054" cy="1351" r="5"/><circle class="st1" cx="1168" cy="1569" r="5"/><circle class="st1" cx="312" cy="1541" r="4"/><circle class="st1" cx="1179" cy="1410" r="6"/><circle class="st1" cx="523" cy="777" r="5"/><circle class="st1" cx="445" cy="1223" r="4"/><circle class="st1" cx="1516" cy="1534" r="5"/><circle class="st1" cx="1443" cy="92" r="7"/><circle class="st1" cx="1548" cy="934" r="3"/><circle class="st1" cx="1063" cy="1249" r="5"/><circle class="st1" cx="1028" cy="626" r="8"/><circle class="st1" cx="1002" cy="554" r="2"/><circle class="st1" cx="1767" cy="226" r="7"/><circle class="st1" cx="1679" cy="1450" r="4"/><circle class="st1" cx="1691" cy="1184" r="5"/><circle class="st1" cx="523" cy="709" r="7"/><circle class="st1" cx="191" cy="436" r="8"/><circle class="st1" cx="1320" cy="367" r="5"/><circle class="st1" cx="1524" cy="383" r="5"/><circle class="st1" cx="1227" cy="1669" r="4"/><circle class="st1" cx="1472" cy="1445" r="4"/><circle class="st1" cx="1188" cy="436" r="6"/><circle class="st1" cx="1584" cy="48" r="8"/><circle class="st1" cx="1019" cy="835" r="7"/><circle class="st1" cx="1559" cy="1088" r="6"/><circle class="st1" cx="1730" cy="998" r="8"/><circle class="st1" cx="1001" cy="1664" r="8"/><circle class="st1" cx="1867" cy="335" r="5"/><circle class="st1" cx="639" cy="1452" r="7"/><circle class="st1" cx="646" cy="1699" r="5"/><circle class="st1" cx="266" cy="973" r="8"/><circle class="st1" cx="64" cy="1789" r="6"/><circle class="st1" cx="1748" cy="142" r="5"/><circle class="st1" cx="1830" cy="196" r="6"/><circle class="st1" cx="487" cy="1909" r="6"/><circle class="st1" cx="765" cy="1027" r="6"/><circle class="st1" cx="1544" cy="1080" r="7"/><circle class="st1" cx="429" cy="1033" r="6"/><circle class="st1" cx="662" cy="932" r="7"/><circle class="st1" cx="1518" cy="1385" r="4"/><circle class="st1" cx="13" cy="1458" r="8"/><circle class="st1" cx="647" cy="1473" r="3"/><circle class="st1" cx="852" cy="317" r="2"/><circle class="st1" cx="1847" cy="129" r="5"/><circle class="st1" cx="299" cy="162" r="3"/><circle class="st1" cx="889" cy="666" r="5"/><circle class="st1" cx="19" cy="1403" r="8"/><circle class="st1" cx="1057" cy="705" r="6"/><circle class="st1" cx="1793" cy="747" r="5"/><circle class="st1" cx="599" cy="262" r="7"/><circle class="st1" cx="1131" cy="1853" r="2"/><circle class="st1" cx="1177" cy="1009" r="3"/><circle class="st1" cx="1804" cy="1269" r="5"/><circle class="st1" cx="1664" cy="1375" r="8"/><circle class="st1" cx="1606" cy="86" r="4"/><circle class="st1" cx="1095" cy="1479" r="6"/><circle class="st1" cx="781" cy="620" r="6"/><circle class="st1" cx="969" cy="216" r="6"/><circle class="st1" cx="573" cy="30" r="7"/><circle class="st1" cx="646" cy="329" r="6"/><circle class="st1" cx="1039" cy="197" r="5"/><circle class="st1" cx="1082" cy="775" r="8"/><circle class="st1" cx="157" cy="1729" r="5"/><circle class="st1" cx="1253" cy="1583" r="2"/><circle class="st1" cx="531" cy="911" r="8"/><circle class="st1" cx="223" cy="1067" r="4"/><circle class="st1" cx="1357" cy="578" r="6"/><circle class="st1" cx="1896" cy="1005" r="6"/><circle class="st1" cx="696" cy="864" r="8"/><circle class="st1" cx="1723" cy="1837" r="3"/><circle class="st1" cx="806" cy="1387" r="2"/><circle class="st1" cx="1883" cy="25" r="8"/><circle class="st1" cx="172" cy="1784" r="8"/><circle class="st1" cx="1493" cy="271" r="4"/><circle class="st1" cx="609" cy="241" r="4"/><circle class="st1" cx="1284" cy="158" r="8"/><circle class="st1" cx="1536" cy="1572" r="7"/><circle class="st1" cx="837" cy="1178" r="6"/><circle class="st1" cx="679" cy="1773" r="5"/><circle class="st1" cx="340" cy="343" r="7"/><circle class="st1" cx="911" cy="1494" r="8"/><circle class="st1" cx="360" cy="260" r="5"/><circle class="st1" cx="271" cy="890" r="8"/><circle class="st1" cx="255" cy="77" r="2"/><circle class="st1" cx="1410" cy="1730" r="5"/><circle class="st1" cx="837" cy="1115" r="7"/><circle class="st1" cx="1634" cy="1312" r="8"/><circle class="st1" cx="1903" cy="1442" r="2"/><circle class="st1" cx="29" cy="638" r="3"/><circle class="st1" cx="1243" cy="1738" r="7"/><circle class="st1" cx="76" cy="164" r="5"/><circle class="st1" cx="634" cy="358" r="7"/><circle class="st1" cx="1303" cy="1846" r="4"/><circle class="st1" cx="1050" cy="1484" r="5"/><circle class="st1" cx="638" cy="810" r="7"/><circle class="st1" cx="558" cy="800" r="5"/><circle class="st1" cx="635" cy="1126" r="8"/><circle class="st1" cx="416" cy="378" r="7"/><circle class="st1" cx="1326" cy="382" r="7"/><circle class="st1" cx="340" cy="816" r="8"/><circle class="st1" cx="252" cy="1338" r="4"/><circle class="st1" cx="1837" cy="769" r="4"/><circle class="st1" cx="728" cy="509" r="6"/><circle class="st1" cx="345" cy="1322" r="2"/><circle class="st1" cx="1068" cy="466" r="2"/><circle class="st1" cx="397" cy="1070" r="7"/><circle class="st1" cx="1101" cy="537" r="2"/><circle class="st1" cx="227" cy="1828" r="4"/><circle class="st1" cx="1089" cy="1164" r="7"/><circle class="st1" cx="518" cy="451" r="3"/><circle class="st1" cx="1209" cy="393" r="6"/><circle class="st1" cx="822" cy="1539" r="4"/><circle class="st1" cx="1803" cy="214" r="6"/><circle class="st1" cx="1441" cy="1385" r="3"/><circle class="st1" cx="974" cy="292" r="8"/><circle class="st1" cx="905" cy="894" r="7"/><circle class="st1" cx="432" cy="109" r="3"/><circle class="st1" cx="1384" cy="112" r="6"/><circle class="st1" cx="1370" cy="1185" r="5"/><circle class="st1" cx="739" cy="1069" r="8"/><circle class="st1" cx="677" cy="1684" r="4"/><circle class="st1" cx="1399" cy="664" r="7"/><circle class="st1" cx="471" cy="328" r="5"/><circle class="st1" cx="955" cy="1701" r="7"/><circle class="st1" cx="274" cy="1560" r="4"/><circle class="st1" cx="398" cy="495" r="7"/><circle class="st1" cx="56" cy="278" r="4"/><circle class="st1" cx="715" cy="879" r="8"/><circle class="st1" cx="666" cy="1760" r="3"/><circle class="st1" cx="728" cy="791" r="5"/><circle class="st1" cx="758" cy="1605" r="6"/><circle class="st1" cx="1061" cy="594" r="7"/><circle class="st1" cx="1396" cy="1724" r="2"/><circle class="st1" cx="510" cy="1802" r="7"/><circle class="st1" cx="1851" cy="913" r="3"/><circle class="st1" cx="108" cy="658" r="3"/><circle class="st1" cx="585" cy="335" r="2"/><circle class="st1" cx="1672" cy="769" r="2"/><circle class="st1" cx="455" cy="1738" r="8"/><circle class="st1" cx="592" cy="1521" r="3"/><circle class="st1" cx="1210" cy="787" r="2"/><circle class="st1" cx="664" cy="120" r="3"/><circle class="st1" cx="1482" cy="766" r="7"/><circle class="st1" cx="626" cy="1257" r="3"/><circle class="st1" cx="603" cy="1311" r="4"/><circle class="st1" cx="162" cy="935" r="3"/><circle class="st1" cx="1694" cy="1756" r="7"/><circle class="st1" cx="1823" cy="1693" r="5"/><circle class="st1" cx="437" cy="952" r="4"/><circle class="st1" cx="1856" cy="784" r="6"/><circle class="st1" cx="1175" cy="905" r="8"/><circle class="st1" cx="328" cy="978" r="3"/><circle class="st1" cx="197" cy="1296" r="5"/><circle class="st1" cx="798" cy="1197" r="6"/><circle class="st1" cx="977" cy="982" r="7"/><circle class="st1" cx="1175" cy="721" r="4"/><circle class="st1" cx="277" cy="1427" r="5"/><circle class="st1" cx="1196" cy="1369" r="5"/><circle class="st1" cx="64" cy="811" r="8"/><circle class="st1" cx="1402" cy="1801" r="8"/><circle class="st1" cx="218" cy="846" r="5"/><circle class="st1" cx="876" cy="279" r="6"/><circle class="st1" cx="1254" cy="156" r="3"/><circle class="st1" cx="278" cy="1434" r="3"/><circle class="st1" cx="1169" cy="1029" r="2"/><circle class="st1" cx="1739" cy="74" r="4"/><circle class="st1" cx="1615" cy="618" r="4"/><circle class="st1" cx="1464" cy="123" r="8"/><circle class="st1" cx="633" cy="231" r="4"/><circle class="st1" cx="1773" cy="1656" r="2"/><circle class="st1" cx="452" cy="294" r="2"/><circle class="st1" cx="1060" cy="1630" r="5"/><circle class="st1" cx="1148" cy="854" r="8"/><circle class="st1" cx="687" cy="1061" r="4"/><circle class="st1" cx="1827" cy="1733" r="2"/><circle class="st1" cx="1155" cy="800" r="5"/><circle class="st1" cx="229" cy="568" r="6"/><circle class="st1" cx="992" cy="554" r="5"/><circle class="st1" cx="281" cy="139" r="6"/><circle class="st1" cx="461" cy="447" r="7"/><circle class="st1" cx="71" cy="118" r="4"/><circle class="st1" cx="737" cy="727" r="3"/><circle class="st1" cx="490" cy="229" r="7"/><circle class="st1" cx="1000" cy="1152" r="2"/><circle class="st1" cx="1099" cy="944" r="6"/><circle class="st1" cx="889" cy="1087" r="7"/><circle class="st1" cx="1740" cy="1149" r="7"/><circle class="st1" cx="1342" cy="1097" r="4"/><circle class="st1" cx="1177" cy="26" r="7"/><circle class="st1" cx="576" cy="1804" r="5"/><circle class="st1" cx="287" cy="1342" r="4"/><circle class="st1" cx="436" cy="736" r="7"/><circle class="st1" cx="947" cy="471" r="5"/><circle class="st1" cx="795" cy="973" r="7"/><circle class="st1" cx="635" cy="411" r="7"/><circle class="st1" cx="457" cy="826" r="4"/><circle class="st1" cx="48" cy="243" r="8"/><circle class="st1" cx="1447" cy="871" r="2"/><circle class="st1" cx="426" cy="1890" r="8"/><circle class="st1" cx="420" cy="1312" r="4"/><circle class="st1" cx="66" cy="1242" r="5"/><circle class="st1" cx="145" cy="1088" r="3"/><circle class="st1" cx="833" cy="734" r="6"/><circle class="st1" cx="1346" cy="884" r="8"/><circle class="st1" cx="1223" cy="1092" r="6"/><circle class="st1" cx="303" cy="1332" r="4"/><circle class="st1" cx="1458" cy="1197" r="4"/><circle class="st1" cx="35" cy="883" r="3"/><circle class="st1" cx="1677" cy="1043" r="6"/><circle class="st1" cx="1857" cy="1844" r="7"/><circle class="st1" cx="664" cy="1190" r="3"/><circle class="st1" cx="1789" cy="310" r="5"/><circle class="st1" cx="1269" cy="903" r="3"/><circle class="st1" cx="1554" cy="747" r="3"/><circle class="st1" cx="1807" cy="704" r="3"/><circle class="st1" cx="763" cy="848" r="2"/><circle class="st1" cx="1600" cy="1399" r="4"/><circle class="st1" cx="1534" cy="1100" r="6"/><circle class="st1" cx="886" cy="1063" r="7"/><circle class="st1" cx="1606" cy="661" r="6"/><circle class="st1" cx="402" cy="1608" r="3"/><circle class="st1" cx="1464" cy="1110" r="7"/><circle class="st1" cx="1631" cy="207" r="4"/><circle class="st1" cx="1073" cy="325" r="3"/><circle class="st1" cx="1452" cy="997" r="2"/><circle class="st1" cx="1657" cy="1729" r="3"/><circle class="st1" cx="1428" cy="89" r="3"/><circle class="st1" cx="597" cy="512" r="5"/><circle class="st1" cx="1475" cy="1507" r="7"/><circle class="st1" cx="398" cy="235" r="8"/><circle class="st1" cx="325" cy="802" r="3"/><circle class="st1" cx="1011" cy="224" r="7"/><circle class="st1" cx="1814" cy="1543" r="2"/><circle class="st1" cx="698" cy="610" r="8"/><circle class="st1" cx="117" cy="1861" r="7"/><circle class="st1" cx="960" cy="1411" r="6"/><circle class="st1" cx="1097" cy="1171" r="6"/><circle class="st1" cx="1021" cy="591" r="4"/><circle class="st1" cx="1366" cy="545" r="2"/><circle class="st1" cx="717" cy="385" r="4"/><circle class="st1" cx="768" cy="937" r="3"/><circle class="st1" cx="1335" cy="1580" r="6"/><circle class="st1" cx="985" cy="1843" r="5"/><circle class="st1" cx="1258" cy="1865" r="4"/><circle class="st1" cx="766" cy="1843" r="3"/><circle class="st1" cx="273" cy="1455" r="2"/><circle class="st1" cx="690" cy="1152" r="3"/><circle class="st1" cx="716" cy="1017" r="2"/><circle class="st1" cx="667" cy="1662" r="3"/><circle class="st1" cx="618" cy="1749" r="2"/><circle class="st1" cx="1795" cy="1114" r="2"/><circle class="st1" cx="1724" cy="263" r="3"/><circle class="st1" cx="1253" cy="1040" r="2"/><circle class="st1" cx="305" cy="599" r="4"/><circle class="st1" cx="835" cy="681" r="7"/><circle class="st1" cx="470" cy="164" r="8"/><circle class="st1" cx="1015" cy="108" r="6"/><circle class="st1" cx="1411" cy="461" r="2"/><circle class="st1" cx="1478" cy="556" r="7"/><circle class="st1" cx="1597" cy="486" r="5"/><circle class="st1" cx="636" cy="1735" r="7"/><circle class="st1" cx="1259" cy="1345" r="4"/><circle class="st1" cx="1813" cy="445" r="3"/><circle class="st1" cx="749" cy="784" r="4"/><circle class="st1" cx="16" cy="1523" r="2"/><circle class="st1" cx="985" cy="1049" r="7"/><circle class="st1" cx="131" cy="1753" r="4"/><circle class="st1" cx="1066" cy="1452" r="2"/><circle class="st1" cx="51" cy="1628" r="6"/><circle class="st1" cx="1804" cy="676" r="4"/><circle class="st1" cx="397" cy="209" r="3"/><circle class="st1" cx="434" cy="920" r="8"/><circle class="st1" cx="654" cy="1898" r="3"/><circle class="st1" cx="23" cy="562" r="5"/><circle class="st1" cx="1378" cy="1436" r="2"/><circle class="st1" cx="1849" cy="1805" r="2"/><circle class="st1" cx="1681" cy="640" r="6"/><circle class="st1" cx="1170" cy="1393" r="5"/><circle class="st1" cx="63" cy="960" r="4"/><circle class="st1" cx="1226" cy="1148" r="7"/><circle class="st1" cx="958" cy="1340" r="2"/><circle class="st1" cx="135" cy="78" r="6"/><circle class="st1" cx="896" cy="396" r="6"/><circle class="st1" cx="1126" cy="659" r="8"/><circle class="st1" cx="827" cy="62" r="4"/><circle class="st1" cx="1119" cy="1266" r="4"/><circle class="st1" cx="1630" cy="848" r="4"/><circle class="st1" cx="914" cy="1161" r="6"/><circle class="st1" cx="1064" cy="802" r="2"/><circle class="st1" cx="221" cy="1364" r="5"/><circle class="st1" cx="1236" cy="99" r="7"/><circle class="st1" cx="321" cy="969" r="3"/><circle class="st1" cx="976" cy="1703" r="7"/><circle class="st1" cx="318" cy="1289" r="7"/><circle class="st1" cx="414" cy="831" r="5"/><circle class="st1" cx="1346" cy="756" r="2"/><circle class="st1" cx="98" cy="102" r="2"/><circle class="st1" cx="1271" cy="1530" r="5"/><circle class="st1" cx="1114" cy="229" r="2"/><circle class="st1" cx="906" cy="806" r="7"/><circle class="st1" cx="585" cy="847" r="4"/><circle class="st1" cx="538" cy="1519" r="4"/><circle class="st1" cx="851" cy="199" r="7"/><circle class="st1" cx="274" cy="1866" r="6"/><circle class="st1" cx="1686" cy="381" r="6"/><circle class="st1" cx="1694" cy="1208" r="2"/><circle class="st1" cx="275" cy="103" r="2"/><circle class="st1" cx="1610" cy="206" r="3"/><circle class="st1" cx="535" cy="1482" r="7"/><circle class="st1" cx="1724" cy="50" r="7"/><circle class="st1" cx="697" cy="995" r="6"/><circle class="st1" cx="485" cy="921" r="7"/><circle class="st1" cx="301" cy="1757" r="7"/><circle class="st1" cx="833" cy="1217" r="3"/><circle class="st1" cx="1018" cy="115" r="3"/><circle class="st1" cx="1834" cy="1183" r="5"/><circle class="st1" cx="979" cy="702" r="2"/><circle class="st1" cx="268" cy="1324" r="8"/><circle class="st1" cx="571" cy="1128" r="2"/><circle class="st1" cx="225" cy="509" r="6"/><circle class="st1" cx="1834" cy="1220" r="7"/><circle class="st1" cx="138" cy="1753" r="5"/><circle class="st1" cx="142" cy="1235" r="6"/><circle class="st1" cx="950" cy="265" r="6"/><circle class="st1" cx="1173" cy="790" r="2"/><circle class="st1" cx="1716" cy="1486" r="7"/><circle class="st1" cx="1472" cy="886" r="6"/><circle class="st1" cx="1289" cy="940" r="8"/><circle class="st1" cx="437" cy="337" r="7"/><circle class="st1" cx="1258" cy="1067" r="2"/><circle class="st1" cx="1532" cy="96" r="6"/><circle class="st1" cx="441" cy="1417" r="5"/><circle class="st1" cx="1473" cy="623" r="5"/><circle class="st1" cx="1551" cy="955" r="5"/><circle class="st1" cx="316" cy="849" r="8"/><circle class="st1" cx="1825" cy="1659" r="3"/><circle class="st1" cx="525" cy="1510" r="7"/><circle class="st1" cx="184" cy="1845" r="5"/><circle class="st1" cx="25" cy="1312" r="3"/><circle class="st1" cx="801" cy="18" r="4"/><circle class="st1" cx="1161" cy="1808" r="6"/><circle class="st1" cx="1688" cy="1081" r="5"/><circle class="st1" cx="689" cy="1611" r="3"/><circle class="st1" cx="1699" cy="928" r="5"/><circle class="st1" cx="435" cy="1868" r="2"/><circle class="st1" cx="742" cy="990" r="5"/><circle class="st1" cx="1112" cy="127" r="3"/><circle class="st1" cx="356" cy="301" r="7"/><circle class="st1" cx="399" cy="1386" r="2"/><circle class="st1" cx="1312" cy="491" r="7"/><circle class="st1" cx="1117" cy="1136" r="4"/><circle class="st1" cx="44" cy="1448" r="7"/><circle class="st1" cx="1293" cy="491" r="2"/><circle class="st1" cx="263" cy="90" r="7"/><circle class="st1" cx="250" cy="1151" r="6"/><circle class="st1" cx="1420" cy="1888" r="6"/><circle class="st1" cx="893" cy="14" r="7"/><circle class="st1" cx="1876" cy="159" r="7"/><circle class="st1" cx="1714" cy="977" r="3"/></svg>