<svg version="1.1" xmlns="http://www.w3.org/2000/svg" x="0" y="0" viewBox="0 0 1920 673" xml:space="preserve"><path fill="#36434f" d="M0 0h1920v673H0z"/><path d="M1354.6 450.1c21.2 88.3 39.4 164.6 7.8 204.7-6 7.6-13.6 13.6-22.9 18.2h-2.3c10.1-4.6 18.2-10.9 24.5-18.9 31.4-39.7 13.1-115.8-8-203.8-15.3-63.7-31-129.6-31-192 0-47.1-11.1-80.1-33.9-101.1-25.5-23.4-64.1-30.2-110.5-30.2-30.4 0-64.1 2.9-99.7 6-40.7 3.5-82.7 7.1-125.9 7.1-100.5 0-253.3 37.7-371.6 91.8C495.5 271 352 353.3 352 465.7c0 43.6 39.9 81.9 118.5 113.7 65.6 26.5 158.2 48.7 275.4 65.9 89.5 13.1 184.5 22 271.7 27.8h-14.7c-83.1-5.8-172.6-14.4-257.2-26.8-117.3-17.2-210-39.4-275.7-65.9-79-32-119.1-70.5-119.1-114.6 0-44.7 22.7-88.9 67.4-131.4 39.2-37.3 93.8-72 162.3-103.3 60.5-27.6 128.9-51 197.9-67.6 64.9-15.6 126.8-24.3 174.2-24.3 43.1 0 85.1-3.6 125.8-7.1 90.4-7.8 168.5-14.5 211 24.5 23 21.1 34.2 54.4 34.2 101.8-.1 62.2 15.7 128 30.9 191.7zM0 30.8C26.3 20.2 53 10 80 0h-3.4C50.7 9.6 25.2 19.5 0 29.7v1.1zM0 49C41.3 31.9 83.8 15.5 127.1 0h-3.5C81.5 15.2 40.2 31.2 0 47.9V49zm983.8 287.5c0 13.1-10.7 23.8-23.8 23.8-13.1 0-23.8-10.7-23.8-23.8 0-13.1 10.7-23.8 23.8-23.8 13.1 0 23.8 10.7 23.8 23.8zm-1 0c0-12.6-10.2-22.8-22.8-22.8-12.6 0-22.8 10.2-22.8 22.8 0 12.6 10.2 22.8 22.8 22.8 12.6 0 22.8-10.2 22.8-22.8zM290.2 669.4c-108.4-42.9-163.4-94.7-163.4-154.1 0-152.7 197.2-264.5 314.7-317.6C603.8 124.5 812.8 73.3 949.8 73.3c60.7 0 119.9-5.6 177.2-11 49.6-4.7 96.5-9.1 138.4-9.1 59.7 0 109.3 9 142.5 39.2 30.6 27.9 45.5 72.3 45.5 135.8 0 86.3 24.1 181.7 45.3 265.8 16.8 66.7 32.4 128.3 35.3 179h1c-3-50.8-18.5-112.4-35.4-179.2-21.2-84.1-45.3-179.4-45.3-265.6 0-63.8-15-108.5-45.9-136.6-56.7-51.6-160.9-41.7-281.6-30.3-57.2 5.4-116.4 11-177.1 11-64.5 0-148.9 11.7-237.7 32.9-94.5 22.6-188.2 54.3-271.1 91.7-94 42.4-168.9 89.6-222.8 140.1-61.4 57.7-92.5 117.7-92.5 178.4 0 59.8 55.2 111.9 164.1 155 2.3.9 4.5 1.8 6.8 2.7h2.8c-3-1.3-6.1-2.5-9.1-3.7zm36-18c-102.5-40.7-154.4-89.8-154.4-146 0-144.7 186.5-250.6 297.6-300.8 153.5-69.4 351.3-117.9 481-117.9 57.2 0 113-5.2 166.9-10.2 46.8-4.4 91.1-8.5 130.6-8.5 57.1 0 104.4 8.6 136.1 37.4 29.1 26.5 43.2 68.6 43.2 128.9 0 81.6 22.5 171.6 42.4 251.1 17.9 71.4 34.2 136.6 33.6 187.7h1c.6-51.3-15.8-116.5-33.6-188-19.9-79.4-42.4-169.4-42.4-250.8 0-60.5-14.2-102.9-43.5-129.6-53.9-49.1-152.9-39.8-267.5-29.1-53.9 5-109.6 10.2-166.8 10.2-61.1 0-141 11.1-225 31.1-89.4 21.4-178.1 51.4-256.4 86.8-88.9 40.2-159.8 84.8-210.7 132.7-58.1 54.6-87.5 111.5-87.5 169 0 56.6 52.2 106.1 155.1 146.9 18 7.1 37.6 14 58.7 20.7h3.3c-22.3-6.9-42.9-14.1-61.7-21.6zm404.3 16.3c-126.1-18.3-225.7-42-296.2-70.4-84.6-34-127.5-75-127.5-121.7 0-120.5 154.3-208.7 246.2-250.6 127.2-57.9 291.2-98.3 399-98.3 46.6 0 92.1-4 136.1-7.9 38.5-3.4 74.8-6.6 107.5-6.6 49.1 0 89.9 7.2 116.9 32 24.4 22.3 36.2 57.6 36.2 108 0 67.3 18 141.4 33.9 206.8 22.2 91.3 41.4 170.4 12.1 213.9h1.2c29-44 9.8-123.1-12.4-214.2-16.6-68.6-33.9-139.4-33.9-206.6 0-50.7-12-86.2-36.5-108.7-45.3-41.5-128.7-34.2-225.1-25.7-44 3.9-89.4 7.9-136 7.9-50.8 0-117.2 9.2-186.9 26-74.1 17.8-147.6 42.8-212.5 72.4-73.6 33.5-132.3 70.7-174.4 110.6-48.1 45.5-72.4 92.9-72.4 140.8 0 47.2 43.1 88.5 128.1 122.7 70.6 28.4 170.3 52.1 296.5 70.4 10.2 1.5 20.5 2.9 30.8 4.3h7.6c-12.9-1.5-25.6-3.2-38.3-5.1zM1010 335.4c.1 18 .1 35.1-8.7 43.9-4 4-9.4 5.9-16.5 5.9-26.7 0-93.6-11.5-93.6-38.8 0-26.9 41.4-47.1 68.3-47.1 25 0 50.5 3.7 50.5 31.2v4.9zm-1 0v-4.9c0-26.5-23.8-30.2-49.5-30.2-26.5 0-67.3 19.8-67.3 46.1 0 26.2 67.1 37.8 92.6 37.8 6.9 0 12-1.8 15.8-5.6 8.5-8.6 8.4-25.4 8.4-43.2zM0 86.5C70.8 55.2 146.1 26.2 223.2 0h-3.9C143.3 26 69.7 54.6 0 85.4v1.1zm1065.7 274.2c3.3 26.7 6.4 52-5.1 64.9-5.6 6.3-14.1 9.4-26.2 9.4-27 0-85.7-3.7-136.7-13.9-44.1-8.8-96.7-25.5-96.7-54.7 0-54.1 103.4-93.7 157.2-93.7 6.5 0 13.1-.1 19.4-.2 31.5-.6 58.7-1.1 73.4 13.3 7.5 7.4 11.2 18.1 11.2 32.7 0 13.8 1.8 28.2 3.5 42.2zm-1 .1c-1.7-13.9-3.5-28.4-3.5-42.3 0-14.4-3.5-24.9-10.9-32-11.6-11.4-31.3-13.3-54.7-13.3-5.8 0-11.8.1-18 .2-6.3.1-12.8.2-19.4.2-53.5 0-156.2 39.1-156.2 92.7 0 51.6 170.3 67.7 232.3 67.7 11.7 0 20.1-3 25.4-9 11.3-12.7 8.2-37.7 5-64.2zM1920 48.2v-8.4c-1.8-13.9-4-27.1-6.8-39.8h-1c3.3 15.2 5.9 31.2 7.8 48.2zm-882.6 302c1.6 21.5 3.1 41.9-6.7 52.4-4.7 5-11.6 7.5-21.1 7.5-41.9 0-163.5-13.2-163.5-53.7 0-18.1 14.7-36 41.3-50.4 22.4-12.1 50.5-20 71.4-20h5.8c25.7-.1 49.9-.1 62.4 12.3 6.1 6.1 9 14.6 9 26.2.1 8.5.7 17.2 1.4 25.7zm-1 .1c-.6-8.5-1.3-17.3-1.3-25.8 0-11.3-2.9-19.6-8.8-25.5-11.3-11.3-32.8-12.1-56.2-12.1h-11.3c-20.8 0-48.6 7.8-70.9 19.8-15.2 8.2-40.8 25.6-40.8 49.6 0 21.4 35.9 34.2 66.1 41.2 36.5 8.5 77.7 11.5 96.4 11.5 9.2 0 15.8-2.3 20.3-7.2 9.5-10.1 8-30.2 6.5-51.5zM.6 659.6L0 659v1.4c4.8 4.3 9.9 8.5 15.3 12.7H17c-5.8-4.5-11.3-9-16.4-13.5zM0 67.6C56.2 43.6 114.9 21 174.8 0H171C112.3 20.7 55 42.9 0 66.5v1.1zm1897.6 58.3c0 70.5 8.9 144.1 22.4 218v-5.6c-13-72-21.4-143.8-21.4-212.4 0-47.6-4.4-89.5-13.4-125.9h-1c9 36.4 13.4 78.2 13.4 125.9zM245.7 149.2C148.7 192.6 66.4 239.6 0 289.5v1.2c66.4-50 148.9-97.1 246.1-140.6C398.5 81.9 580.5 27.7 740.5 0h-6c-37.3 6.5-76 14.5-115.3 23.8C489.1 54.7 359.9 98 245.7 149.2zM42.6 645.8C53 655.1 65 664.1 78.5 673h1.9C39.5 646.5 12.6 617.8 0 587v2.6c8.5 19.6 22.7 38.4 42.6 56.2zm1776.6-501.9c0 153 45.3 322.5 85.3 472.1 5.1 19.2 10.2 38.2 15.2 57h.3v-2.7c-4.7-17.9-9.6-36.1-14.5-54.5-40-149.5-85.3-318.9-85.3-471.8 0-56.7-6.8-104.4-20.7-143.9h-1.1c13.9 39.4 20.8 87.1 20.8 143.8zm-724.9 226.3c5.2 33.7 9.7 62.8-3.7 78.4-6.5 7.6-16.8 11.3-31.5 11.3-30.4 0-106.5-3.4-176.7-16.3-37.6-6.9-67.3-15.5-88.4-25.4-25.3-12-38.1-26.1-38.1-41.9 0-40.5 47.4-70 75.6-83.9 40-19.8 90.6-33 126.1-33 10.6 0 21-.4 31.1-.7 36.9-1.3 68.8-2.4 86.1 14.4 9 8.7 13.4 21.6 13.4 39.5.2 18.8 3.2 38.5 6.1 57.6zm-.9.1c-2.9-19.1-6-38.9-6-57.9 0-17.6-4.3-30.3-13.1-38.8-12.6-12.2-33.2-14.7-57.9-14.7-8.7 0-17.9.3-27.5.6-10.1.4-20.6.7-31.1.7-35.3 0-85.8 13.2-125.6 32.9-28 13.9-75 43.1-75 83 0 67.9 242.2 82.6 302.1 82.6 14.3 0 24.4-3.6 30.7-11 13-15 8.5-43.9 3.4-77.4zM33.5 0h-3.3C20.1 3.9 10 7.7 0 11.7v1.2C11.1 8.5 22.3 4.2 33.5 0zm1759.6 150c0 148.3 43.8 312.5 82.5 457.4 5.9 22.2 11.8 44.1 17.4 65.7h1c-5.6-21.6-11.5-43.6-17.5-65.9-38.6-144.8-82.4-309-82.4-457.1 0-60-7.9-109.7-23.9-150h-1.1c16 40.1 24 89.8 24 149.9zm78.4-18.1c0 108.4 21.5 224.6 48.5 337.2v-4.3c-26.5-111.2-47.5-225.9-47.5-332.9 0-50.5-5.1-94.3-15.5-131.9h-1c10.3 37.5 15.5 81.4 15.5 131.9zM1550.6 14.5c40 36.2 59.5 94.3 59.5 177.5 0 114.9 33.2 242.1 62.4 354.3 11.5 44.3 22.6 86.8 31.4 126.7h1c-8.7-40.1-19.9-82.8-31.4-126.9-29.2-112.1-62.4-239.2-62.4-354 0-83.5-19.6-141.9-59.8-178.3-5.6-5.1-11.5-9.6-17.8-13.8h-1.8c6.6 4.4 13 9.2 18.9 14.5zm23.8-12.9c41.6 37.6 61.9 98 61.9 184.5 0 119.7 34.7 252.1 65.3 369 10.7 41 21.1 80.5 29.7 117.9h1c-8.6-37.7-19-77.3-29.7-118.2-30.6-116.8-65.3-249.2-65.3-368.7 0-86.8-20.3-147.4-62.2-185.2-.3-.3-.6-.5-.9-.8h-1.5c.5.4 1.1.9 1.7 1.5zM1766.9 156c0 143.5 42.3 302.4 79.6 442.6 6.7 25.2 13.3 50.1 19.6 74.4h1c-6.3-24.4-12.9-49.3-19.6-74.6-37.3-140.2-79.6-299-79.6-442.4 0-63.5-9.2-115.2-27.7-156h-1.1c18.6 40.7 27.8 92.4 27.8 156zM1526.8 27.5c38.5 34.8 57.2 90.6 57.2 170.6 0 110.2 31.6 232 59.6 339.5 12.4 47.6 24.2 93.2 32.9 135.4h1c-8.7-42.5-20.6-88.2-32.9-135.6-27.9-107.5-59.5-229.2-59.5-339.3 0-80.3-18.8-136.3-57.5-171.3-12.3-11.1-26.3-19.9-41.9-26.8h-2.5c16.2 7 30.8 16 43.6 27.5zM0 235.3v1.2c55.9-35 119.4-68.4 190.3-100.1C316.6 80 461.6 32.5 600.3 0h-5.1l-2.4.6c-140.4 33.2-279.7 79.9-402.9 135C119.2 167.1 55.8 200.5 0 235.3zm0 26v1.2c61.8-42 134.7-81.9 218.2-119.2C356 81.6 517 31 666 0h-5.4c-18 3.8-36.2 7.8-54.6 12.2-135.2 32-269.5 77.1-388.2 130.2-83.3 37.2-156.1 77-217.8 118.9zm1845.3-123.4c0 140.7 37.3 295 74.7 436.1v-3.9c-37-140.1-73.7-292.8-73.7-432.2 0-53.5-5.9-99.3-17.9-137.9h-1.1c12.1 38.6 18 84.4 18 137.9zM1715.7 168c0-71.5-12.4-127-37.6-168h-1.2c25.4 40.9 37.8 96.4 37.8 168 0 134 39.3 282.3 73.9 413.2 8.3 31.3 16.4 62 23.8 91.8h1c-7.4-29.9-15.6-60.6-23.9-92.1-34.6-130.8-73.8-279-73.8-412.9zm-235.3 54.2c0-67.1-15.8-114-48.2-143.5-59.6-54.1-169-43.6-295.7-31.5C1076 53 1013.4 59 949.2 59c-67.9 0-156.8 12.3-250.3 34.6-99.6 23.7-198.4 57.1-285.7 96.5C314 234.7 235 284.3 178.3 337.5c-64.8 60.7-97.6 123.9-97.6 187.7 0 56 46.1 105.6 137.1 147.7h2.4c-91.9-42.2-138.5-91.8-138.5-147.7 0-160.8 207.9-278.5 331.8-334.3C584.6 113.9 804.9 60 949.2 60c64.3 0 126.9-6 187.4-11.8 52.4-5 101.9-9.8 146.1-9.8 62.4 0 114.2 9.5 148.9 41 32.2 29.3 47.9 76 47.9 142.8 0 91.1 25.6 191.8 48.1 280.6 15.9 62.5 30.7 120.6 36 170.3h1c-5.3-49.7-20.1-108-36-170.5-22.6-88.9-48.2-189.4-48.2-280.4zm26.2-6c0-70.4-16.5-119.6-50.5-150.5C1393.7 9 1279 20.2 1146.2 33.1c-63.8 6.2-129.8 12.6-197.5 12.6-71.3 0-164.7 12.9-263 36.3-104.7 24.9-208.5 60-300.4 101.3-104.2 46.9-187.3 99-246.9 154.8C70.2 401.8 35.7 468.2 35.7 535.2c0 34.4 16.6 66.7 49.5 96.1 16.1 14.4 36.3 28.4 60.4 41.7h2.1c-73.7-40.3-111-86.5-111-137.8 0-66.8 34.4-132.9 102.3-196.4C198.5 283 281.5 231 385.6 184.2c179.9-81 411.4-137.5 563-137.5 67.8 0 133.8-6.4 197.6-12.6 55.2-5.4 107.3-10.4 153.8-10.4 65.1 0 119.1 9.9 155.4 42.8 33.8 30.7 50.2 79.6 50.2 149.7 0 95.9 27.1 201.8 51 295.3 15 58.5 29 113.4 35.9 161.5h1c-6.9-48.2-20.9-103.2-35.9-161.8-24-93.4-51-199.3-51-295zm-174.4 415.7c-14.4 18.2-38.8 27-74.5 27-96.2 0-309.1-7.4-496.8-35.2C652.5 607.6 566.7 587 506 562.3c-73-29.7-110.1-65.6-110.1-106.5 0-41.5 21-82.6 62.4-122.1 36.3-34.6 86.8-66.9 150.2-95.9 56-25.6 119.3-47.3 183.2-62.8 60.1-14.5 117.5-22.5 161.5-22.5 39.5 0 78.1-3.2 115.5-6.4 84.4-7.1 157.3-13.1 196.9 23.3 21.5 19.7 31.9 50.8 31.9 94.8 0 57.6 14.3 118.3 28.2 177 19.3 82.3 36.1 153.3 6.5 190.7zm-.8-.7c29.3-37 12.6-107.8-6.7-189.7-13.9-58.8-28.2-119.6-28.2-177.3 0-43.8-10.3-74.6-31.6-94.1-24-22.1-60.4-28.4-104.2-28.4-28 0-59.1 2.6-92 5.3-37.4 3.1-76 6.4-115.6 6.4-94.6 0-233 34.2-344.3 85.2-79.2 36.3-212 112.7-212 217 0 40.5 36.8 76 109.5 105.6 60.6 24.7 146.3 45.3 254.6 61.4 187.6 27.8 400.5 35.2 496.7 35.2 35.5.1 59.6-8.6 73.8-26.6zm44.5-385c0-53.9-12.7-91.8-38.9-115.7-48.2-44-136.7-36.1-239.2-26.8-47.3 4.3-96.2 8.7-146.3 8.7-54.3 0-125.1 9.8-199.6 27.7-79.2 19-157.7 45.7-227.2 77.2-78.7 35.7-141.4 75.4-186.5 118-51.4 48.6-77.5 99.1-77.5 150.2 0 50.4 46.1 94.4 137.1 130.8 53.8 21.5 123.5 40.5 207.9 56.7h5.4c-86.7-16.4-158-35.7-212.9-57.6-90.5-36.2-136.4-79.9-136.4-129.8 0-128.5 165-222.6 263.4-267.3 135.9-61.7 311.3-104.8 426.3-104.8 50.2 0 99.1-4.4 146.4-8.7 41.3-3.7 80.2-7.2 115.2-7.2 51.7 0 94.7 7.7 123.3 33.8 25.9 23.7 38.5 61.3 38.5 115 0 72 19.5 151.5 36.7 221.6 20.4 83 38.5 156.6 24 205.2h1c14.4-48.8-3.7-122.5-24.1-205.4-17.1-70.3-36.6-149.7-36.6-221.6zm181.9-42.1c0 105.4 30.1 222 56.7 324.8 13.2 51.1 25.8 99.7 34.2 144.1h1c-8.4-44.4-21-93.1-34.3-144.3-26.6-102.8-56.7-219.3-56.7-324.5 0-77-18.1-130.7-55.2-164.4-22.8-20.6-52-33-86.1-39.7h-5.4c36.3 6.5 67.1 18.9 90.9 40.5 37 33.3 54.9 86.9 54.9 163.5zM1402 240.2c0-57.2-13.5-97.4-41.2-122.6-51-46.6-144.8-37.9-253.3-28-50.6 4.6-102.9 9.5-156.6 9.5-57.7 0-133.1 10.4-212.3 29.4-84.3 20.2-167.9 48.6-241.8 82-83.8 38-150.6 80.1-198.6 125.4-54.7 51.6-82.5 105.3-82.5 159.6 0 53.5 49.1 100.2 146.1 138.8 34.9 13.9 76.2 26.8 123.4 38.7h4.1c-48.8-12.1-91.3-25.3-127.2-39.6-96.5-38.5-145.4-84.9-145.4-137.9 0-136.6 175.7-236.6 280.5-284.1C642 145.8 828.5 100.1 950.9 100.1c53.7 0 106-4.8 156.7-9.5 44-4 85.7-7.9 122.9-7.9 54.4 0 99.6 8.1 129.7 35.6 27.5 25.1 40.9 65 40.9 121.9 0 76.8 21 161.6 39.6 236.3 19 76.7 36.2 145.8 30.2 196.4h1c5.9-50.8-11.2-120-30.3-196.7-18.6-74.6-39.6-159.3-39.6-236zM948.1 32.3c-74.7 0-172.7 13.5-275.7 38-109.8 26.1-218.7 62.8-315 106.1C248 225.6 160.9 280.1 98.3 338.6 47.8 385.8 15 434.3 0 483.5v3.5c14.4-50.1 47.5-99.6 99-147.7 62.5-58.4 149.5-112.9 258.7-162 188.7-84.8 431.5-144 590.3-144 71.3 0 140.7-6.8 207.9-13.4 58-5.7 112.7-11 161.4-11 67.8 0 124.1 10.4 161.8 44.6 35.3 32 52.5 83.3 52.5 156.7 0 100.6 28.6 211.9 53.9 310.1 14.1 54.7 27.4 106.5 35.2 152.8h1c-7.9-46.4-21.2-98.3-35.3-153.1-25.2-98.1-53.8-209.3-53.8-309.8 0-73.7-17.3-125.2-52.8-157.4-65.3-59.2-185.2-47.4-324-33.8-67.1 6.5-136.5 13.3-207.7 13.3zm715.3 147.8c0-81.3-17.2-140.5-52.5-180.1h-1.3c35.5 39.4 52.8 98.5 52.8 180.1 0 124.5 36.2 262.2 68.2 383.7 9.9 37.7 19.5 74.3 27.8 109.2h1c-8.3-35.1-18-71.8-27.9-109.5-31.9-121.4-68.1-259.1-68.1-383.4zm26.1-6.1c0-76.1-14.5-133.4-44.2-174h-1.3c29.9 40.5 44.5 97.8 44.5 174 0 129.2 37.7 272.3 71 398.5 9.1 34.6 18 68.2 25.9 100.5h1c-7.9-32.5-16.8-66.3-25.9-100.8-33.3-126.1-71-269.1-71-398.2zM273.6 156C161.2 206.4 69.3 261.8 0 320.9v1.3c69.3-59.3 161.3-114.9 274-165.4C449 78.5 664.7 19.3 836.4 0h-8.3c-60.4 7.2-127 19.2-195.6 35.4-125 29.7-249.1 71.4-358.9 120.6zm385.5-97.3C544.2 86 430.2 124.4 329.4 169.6 215 221 123.8 278 58.3 339.2 35.4 360.6 16 382.2 0 404.1v1.7c16.1-22.2 35.7-44.2 59-65.9 65.4-61.1 156.5-118.1 270.8-169.4C527.3 81.9 781.3 19.9 947.5 19.9c74.8 0 147.6-7.2 218.1-14.2 20.5-2 40.6-4 60.3-5.8h-11.1c-16.1 1.5-32.6 3.1-49.3 4.8-70.4 7-143.2 14.2-218 14.2-78.2 0-180.6 14.2-288.4 39.8zM301.5 162.8C182 216.4 86.7 275.9 18.3 339.7c-6.4 5.9-12.5 11.9-18.3 17.8v1.4c6.1-6.2 12.4-12.4 19-18.5 68.3-63.7 163.5-123.2 282.9-176.8 206.3-92.4 471.5-157 645-157 47.3 0 93.7-2.8 139.4-6.6H1074c-41.7 3.3-84.1 5.6-127.1 5.6-81.6 0-188.5 14.7-301.1 41.5-120 28.5-239 68.5-344.3 115.7zM0 166.2v1.1c33.7-17.5 69.2-34.6 106.6-51.3 99.7-44.5 210-84 320.8-116h-4.6C312.1 32.2 204.5 71.2 106.2 115.1c-37 16.5-72.5 33.6-106.2 51.1zm1152 222.2c8.7 45.7 16.3 85.1-1 106-8.5 10.2-22.3 15.2-42.2 15.2-45.1 0-156.7-4.4-256.7-21-55.3-9.2-99-20.8-130-34.4-37.2-16.4-56.1-35.9-56.1-58 0-56.6 68.8-97.9 109.8-117.4 57.8-27.6 130.5-46.1 180.7-46.1 18 0 35.8-1 53-1.9 48.5-2.7 90.4-5 113.1 16.5 12.1 11.4 18 28.9 18 53.3 0 28.6 5.8 58.7 11.4 87.8zm-1 .2c-5.6-29.2-11.4-59.3-11.4-88.2 0-24.1-5.8-41.3-17.6-52.5-15.2-14.3-39.1-17.9-67.9-17.9-13.9 0-28.8.8-44.5 1.7-17.2 1-34.9 1.9-53 1.9-50.1 0-122.6 18.5-180.3 46C735.5 299 667 340 667 396.1c0 21.6 18.7 40.9 55.5 57.1 30.9 13.6 74.6 25.2 129.7 34.4 99.9 16.6 211.5 21 256.5 21 19.6 0 33.1-4.9 41.4-14.8 17.1-20.6 9.6-59.8.9-105.2zM0 145.1v1.1c25.3-12.6 51.5-24.9 78.7-37C171 68 272.1 31 374.4 0H370C268.1 31.1 169.4 67.7 78.3 108.3c-26.9 12-53 24.3-78.3 36.8zm1296.7 287.5c17.6 76.1 32.8 141.8 5.3 176.4-13.4 16.9-36 25.1-69.1 25.1-88.2 0-283.7-6.9-456.8-32.9-99.6-14.9-178.3-34.1-234-56.9C475 516.8 441 483.7 441 445.9c0-96.9 122.5-167.7 195.5-201.2 51.5-23.7 109.8-43.7 168.6-58 55.3-13.4 108.2-20.8 148.8-20.8 36 0 71.2-2.8 105.2-5.6 78.4-6.3 146-11.8 182.9 22.2 19.9 18.3 29.5 47.1 29.5 87.9-.2 52.7 12.7 108.3 25.2 162.2zm-1 .2c-12.5-53.9-25.4-109.6-25.4-162.5 0-40.5-9.6-69-29.2-87.2-22.5-20.7-56.7-26.6-97.9-26.6-25.7 0-54.2 2.3-84.2 4.7-34 2.7-69.2 5.6-105.2 5.6-87.2 0-214.6 31.6-317 78.7-72.8 33.5-194.9 104-194.9 200.3 0 37.3 33.8 70.2 100.5 97.5 55.7 22.8 134.3 42 233.8 56.9 173.1 25.9 368.5 32.8 456.7 32.8 32.8 0 55.1-8.1 68.3-24.7 27.2-34.2 12-99.7-5.5-175.5zm-114.8-35.5c10.5 51.7 19.6 96.4.3 120-9.4 11.6-25 17.2-47.5 17.2-52.4 0-181.9-4.9-296.7-23.4-64.1-10.3-114.9-23.4-150.8-38.9-43.3-18.7-65.2-40.9-65.2-66.2 0-64.7 79.5-111.8 127-134.2 66.8-31.5 150.4-52.6 208.1-52.6 21.7 0 43-1.3 63.5-2.6 54.4-3.4 101.4-6.4 126.9 17.6 13.6 12.8 20.3 32.5 20.3 60.2 0 33.6 7.1 68.8 14.1 102.9zm-1 .2c-6.9-34.1-14.1-69.4-14.1-103.1 0-27.4-6.5-46.8-20-59.4-16.6-15.6-42.4-19.6-73.6-19.6-16.3 0-34 1.1-52.6 2.3-20.6 1.3-41.9 2.6-63.6 2.6-57.5 0-141 21.1-207.6 52.5C701.2 295 622 341.9 622 406c0 24.8 21.7 46.7 64.5 65.2 35.9 15.5 86.5 28.5 150.6 38.9 114.7 18.5 244.2 23.4 296.6 23.4 22.2 0 37.5-5.5 46.8-16.8 18.9-23.3 9.9-67.8-.6-119.2zM0 124.7v1.1c16.6-7.9 33.5-15.7 50.8-23.4 85.3-38 177.8-72.6 272-102.4h-4.2c-93.5 29.8-184 64-268.2 101.5-17.1 7.6-33.9 15.3-50.4 23.2zm1123.1 254.7c7 39.6 13 73.9-2.3 92.1-7.5 8.9-19.5 13.3-36.8 13.3-78.8 0-373-16.7-373-98.5 0-48.6 58.1-83.9 92.7-100.7 48.9-23.7 110.5-39.6 153.4-39.6 14.4 0 28.5-.7 42.2-1.3 42.6-2 79.5-3.7 99.5 15.4 10.5 10.1 15.7 25.2 15.7 46.4 0 23.8 4.4 48.7 8.6 72.9zm-1 .1c-4.2-24.2-8.6-49.1-8.6-73.1 0-20.9-5-35.8-15.4-45.6-13.8-13.2-35.9-16.3-62.6-16.3-11.4 0-23.5.6-36.2 1.2-13.7.6-27.9 1.3-42.2 1.3-42.7 0-104.2 15.9-153 39.5-34.4 16.7-92.2 51.8-92.2 99.8 0 18.5 15.7 35 46.5 49 25.9 11.8 62.6 21.8 108.9 29.9 85.1 14.8 178.8 18.6 216.5 18.6 17 0 28.7-4.2 36-12.9 15.3-18 9.3-52 2.3-91.4zM0 104.8v1.1c7.6-3.5 15.2-6.9 22.9-10.3 78.6-35 163.2-67.2 249.7-95.6h-4.1C183 28.3 100.1 60.1 22.5 94.6 14.9 98 7.4 101.4 0 104.8zm1209.8 301.3c12.3 57.8 22.9 107.7 1.5 134.1-10.4 12.9-27.7 19.1-52.9 19.1-64.3 0-207.5-5.4-336.7-25.8-73-11.5-130.7-26.1-171.6-43.4-49.2-20.8-74.1-45.7-74.1-74.1 0-72.7 90.3-125.8 144.1-151 75.7-35.4 170.3-59.2 235.4-59.2 25.3 0 50.1-1.7 74-3.3 60.4-4.1 112.5-7.7 140.9 18.8 15.2 14.2 22.6 36.1 22.6 67.1-.1 38.4 8.5 78.7 16.8 117.7zm-1 .3c-8.3-39.1-16.9-79.5-16.9-118 0-30.7-7.3-52.4-22.3-66.4-18-16.8-45.9-21.4-79.5-21.4-18.7 0-39.1 1.4-60.6 2.9-24 1.6-48.8 3.4-74.1 3.4-65 0-159.4 23.7-235 59.1C666.9 291 577 343.8 577 416c0 27.9 24.7 52.6 73.5 73.3 40.8 17.3 98.5 31.9 171.4 43.4 129.2 20.3 272.4 25.7 336.6 25.7 24.9 0 41.9-6.1 52.1-18.8 21-26 10.5-75.7-1.8-133.2zM0 211.2v1c49.1-28.6 103.3-56.2 162.4-82.6C278.8 77.6 410.7 32.9 539.6 0h-4.9C404.5 33.4 276.5 77.6 162 128.7c-58.4 26.1-112.7 53.8-162 82.5zM1741.8 162c0-67.3-10.6-120.9-32.3-162h-1.1c21.7 41 32.4 94.6 32.4 162 0 138.7 40.8 292.4 76.7 427.9 7.5 28.3 14.9 56 21.7 83.1h1c-6.9-27.2-14.3-55-21.8-83.3-35.9-135.5-76.6-289.1-76.6-427.7zm-474.1 261.8c15.8 70 29.5 130.4 4 162.3-12.4 15.5-33.3 23.1-63.7 23.1-80.2 0-258.3-6.4-416.8-30.5-90.7-13.8-162.4-31.4-213.2-52.4-61.1-25.3-92.1-55.7-92.1-90.4 0-88.8 111.7-153.7 178.3-184.5 47-21.7 100.3-40.1 153.9-53.2 50.6-12.3 98.9-19.1 136.1-19.1 32.4 0 64.1-2.5 94.8-4.8 72.3-5.6 134.8-10.4 168.8 21 18.3 17 27.2 43.4 27.2 81 .2 48 11.6 98.6 22.7 147.5zm-1 .2c-11.1-48.9-22.5-99.5-22.5-147.7 0-37.2-8.8-63.5-26.9-80.2-21-19.4-53.1-24.9-91.7-24.9-23.4 0-49.2 2-76.4 4.1-30.7 2.4-62.4 4.8-94.9 4.8-79.8 0-196.2 29-289.6 72.1C598.3 282.9 487 347.5 487 435.7c0 34.2 30.8 64.3 91.5 89.4 50.7 21 122.4 38.6 213 52.4C950 601.6 1127.9 608 1208.1 608c30.1 0 50.7-7.4 62.9-22.7 25.1-31.4 11.5-91.6-4.3-161.3zM0 188.2v1c41.6-22.9 86.5-45 134.5-66.4C242.2 74.7 362.7 32.7 482.2 0h-4.7c-120 33-237.3 74.5-343.4 121.9C86.6 143.1 41.8 165.3 0 188.2zM1238.8 415c14.1 63.9 26.2 119 2.8 148.2-11.4 14.2-30.5 21.1-58.3 21.1-72.2 0-232.9-5.9-376.8-28.1-81.9-12.6-146.6-28.8-192.4-47.9C559 485.2 531 457.5 531 426c0-80.8 101-139.7 161.2-167.7 84.6-39.3 190.2-65.7 262.7-65.7 28.9 0 57.1-2.1 84.5-4.1 66.3-4.9 123.6-9.1 154.8 19.9 16.8 15.6 24.9 39.8 24.9 74 0 43.2 10 88.6 19.7 132.6zm-1 .2c-9.7-44-19.7-89.5-19.7-132.8 0-33.9-8-57.9-24.6-73.3C1174 191 1144 186 1107.9 186c-21 0-44.2 1.7-68.5 3.5-27.3 2-55.6 4.1-84.5 4.1-72.4 0-177.8 26.4-262.3 65.6C632.6 287.1 532 345.8 532 426c0 31.1 27.8 58.4 82.5 81.3 45.8 19.2 110.4 35.3 192.2 47.9 143.8 22.2 304.4 28.1 376.6 28.1 27.5 0 46.3-6.8 57.5-20.7 23.1-28.9 11-83.8-3-147.4z" fill="#748993"/></svg>