<svg version="1.1" xmlns="http://www.w3.org/2000/svg" x="0" y="0" viewBox="0 0 1920 1920" xml:space="preserve"><style type="text/css">.st1{fill:#989898}</style><path fill="#445a76" d="M0 0h1920v1920H0z"/><path d="M1300 747l419 188M596 349l1123 586m-546 574l546-574m-322-94l322 94M1062 15l657 920M842 627l877 308m-341 504l341-504m-466 738l466-738M373 1492l1346-557m-114-824l114 824M520 816l1199 119m48-255l-48 255M327 656l1392 279m133-158l-133 158M461 1208l1258-273m-475 276l475-276M206 575l1513 360m-690 418l690-418M428 1336l1291-401M489 1363l1230-428m-880 238l880-238M667 1360l1052-425M577 1729l1142-794m-223 347l223-347m-71 151l71-151M469 874l1250 61m-245-412l245 412M550 92l1169 843m-398 525l398-525m-772 704l772-704m-536 179l536-179m-599-256l599 256m-889 288l889-288M90 539l1629 396m122 257l-122-257M1438 45l281 890m-509-398l509 398M957 66l762 869m-589-832l589 832m-763 971l763-971m-514 489l514-489m-117 271l117-271m-351-35l351 35M784 615l935 320m41 597l-41-597M30 1642l1689-707m19 938l-19-938M281 1291l1438-356m-121 769l121-769M718 554l1001 381M875 525l844 410M643 492l1076 443M968 368l751 567m-543 668l543-668M370 686l1349 249M207 301l1512 634M19 962l1700-27m-164 805l164-805M721 628l998 307M615 1855l1104-920M480 486l1239 449M462 222l1257 713m21-198l-21 198M880 241l839 694M882 201l837 734M900 266l819 669m-577-715l577 715M108 855l1611 80m-794 694l794-694m-752 798l752-798M565 816l1154 119M970 720l749 215m-43-284l43 284m-606-789l606 789m-680 970l680-970m-285 225l285-225m-525-313l525 313m88 516l-88-516m24-496l-24 496m-497-468l497 468M23 605l1696 330M619 1214l1100-279M508 1509l1211-574m-781 490l781-490m-159-319l159 319M395 109l1324 826m-447-72l447 72M409 242l1310 693" fill="none" stroke="#989898" stroke-width="2"/><circle class="st1" cx="1719" cy="935" r="5"/><circle class="st1" cx="1743" cy="439" r="9"/><circle class="st1" cx="1173" cy="1509" r="8"/><circle class="st1" cx="1183" cy="1114" r="5"/><circle class="st1" cx="327" cy="656" r="7"/><circle class="st1" cx="508" cy="1509" r="7"/><circle class="st1" cx="718" cy="554" r="10"/><circle class="st1" cx="105" cy="55" r="7"/><circle class="st1" cx="596" cy="349" r="6"/><circle class="st1" cx="1852" cy="777" r="10"/><circle class="st1" cx="1648" cy="1086" r="10"/><circle class="st1" cx="1468" cy="1090" r="10"/><circle class="st1" cx="370" cy="686" r="8"/><circle class="st1" cx="1438" cy="45" r="5"/><circle class="st1" cx="1378" cy="1439" r="5"/><circle class="st1" cx="1176" cy="1603" r="5"/><circle class="st1" cx="1740" cy="737" r="5"/><circle class="st1" cx="643" cy="492" r="5"/><circle class="st1" cx="480" cy="486" r="5"/><circle class="st1" cx="1029" cy="1353" r="9"/><circle class="st1" cx="1130" cy="103" r="10"/><circle class="st1" cx="1210" cy="537" r="5"/><circle class="st1" cx="1555" cy="1740" r="10"/><circle class="st1" cx="1496" cy="1282" r="5"/><circle class="st1" cx="281" cy="1291" r="9"/><circle class="st1" cx="1142" cy="220" r="5"/><circle class="st1" cx="1841" cy="1192" r="10"/><circle class="st1" cx="23" cy="605" r="5"/><circle class="st1" cx="565" cy="816" r="6"/><circle class="st1" cx="900" cy="266" r="6"/><circle class="st1" cx="1760" cy="1532" r="9"/><circle class="st1" cx="489" cy="1363" r="5"/><circle class="st1" cx="1062" cy="15" r="9"/><circle class="st1" cx="90" cy="539" r="5"/><circle class="st1" cx="1767" cy="680" r="6"/><circle class="st1" cx="1368" cy="900" r="7"/><circle class="st1" cx="108" cy="855" r="10"/><circle class="st1" cx="1009" cy="1319" r="6"/><circle class="st1" cx="842" cy="627" r="7"/><circle class="st1" cx="471" cy="201" r="5"/><circle class="st1" cx="1205" cy="1424" r="10"/><circle class="st1" cx="409" cy="242" r="7"/><circle class="st1" cx="428" cy="1336" r="8"/><circle class="st1" cx="1598" cy="1704" r="8"/><circle class="st1" cx="1215" cy="711" r="10"/><circle class="st1" cx="1807" cy="1451" r="7"/><circle class="st1" cx="1222" cy="467" r="5"/><circle class="st1" cx="1194" cy="622" r="9"/><circle class="st1" cx="1605" cy="111" r="6"/><circle class="st1" cx="1474" cy="523" r="7"/><circle class="st1" cx="206" cy="575" r="7"/><circle class="st1" cx="875" cy="525" r="10"/><circle class="st1" cx="721" cy="628" r="6"/><circle class="st1" cx="1434" cy="1160" r="9"/><circle class="st1" cx="461" cy="1208" r="8"/><circle class="st1" cx="1300" cy="747" r="9"/><circle class="st1" cx="550" cy="92" r="10"/><circle class="st1" cx="784" cy="615" r="7"/><circle class="st1" cx="947" cy="1639" r="10"/><circle class="st1" cx="1244" cy="1211" r="10"/><circle class="st1" cx="1253" cy="1673" r="8"/><circle class="st1" cx="882" cy="201" r="7"/><circle class="st1" cx="619" cy="1214" r="8"/><circle class="st1" cx="395" cy="109" r="10"/><circle class="st1" cx="1039" cy="1905" r="10"/><circle class="st1" cx="925" cy="1629" r="10"/><circle class="st1" cx="615" cy="1855" r="10"/><circle class="st1" cx="968" cy="368" r="8"/><circle class="st1" cx="1738" cy="1873" r="6"/><circle class="st1" cx="19" cy="962" r="9"/><circle class="st1" cx="967" cy="1733" r="7"/><circle class="st1" cx="956" cy="1906" r="9"/><circle class="st1" cx="880" cy="241" r="9"/><circle class="st1" cx="970" cy="720" r="6"/><circle class="st1" cx="839" cy="1173" r="9"/><circle class="st1" cx="938" cy="1425" r="5"/><circle class="st1" cx="1120" cy="679" r="6"/><circle class="st1" cx="373" cy="1492" r="7"/><circle class="st1" cx="520" cy="816" r="9"/><circle class="st1" cx="462" cy="222" r="8"/><circle class="st1" cx="957" cy="66" r="8"/><circle class="st1" cx="911" cy="743" r="8"/><circle class="st1" cx="577" cy="1729" r="6"/><circle class="st1" cx="469" cy="874" r="8"/><circle class="st1" cx="1113" cy="146" r="7"/><circle class="st1" cx="30" cy="1642" r="5"/><circle class="st1" cx="1567" cy="663" r="9"/><circle class="st1" cx="1321" cy="1460" r="9"/><circle class="st1" cx="667" cy="1360" r="10"/><circle class="st1" cx="1272" cy="863" r="6"/><circle class="st1" cx="1397" cy="841" r="5"/><circle class="st1" cx="207" cy="301" r="7"/><circle class="st1" cx="113" cy="720" r="9"/><circle class="st1" cx="1676" cy="651" r="8"/><circle class="st1" cx="830" cy="1223" r="8"/><circle class="st1" cx="1142" cy="265" r="5"/><circle class="st1" cx="857" cy="754" r="9"/><circle class="st1" cx="1602" cy="1206" r="5"/><circle class="st1" cx="274" cy="552" r="6"/><circle class="st1" cx="1560" cy="616" r="5"/></svg>