<svg version="1.1" xmlns="http://www.w3.org/2000/svg" x="0" y="0" viewBox="0 0 1920 1920" xml:space="preserve"><style type="text/css">.st1{fill:#989898}</style><path fill="#445a76" d="M0 0h1920v1920H0z"/><path d="M1401 930l-28-45M225 1272l-26 67m1573 110l-30-21m163-421l-69-36M487 1700l-16-29m82-1506l-20-65m-34 583l-49-27m1216 392l-40-12m-198-274l-8-27M356 1026l-35-8m717-805l-8 31M149 1861l-81 31m0-125l-51-16m1412-457l-84 44m-458-259l-4-36m982-695l-12-60M342 410l-101 2m752 1247l-36 51M568 178l-15-13m298 532l-10-60m-435-88l-26-1m-10-276l-10-53m1529 1446l-38-47M431 1406l-21 26m1013-476l-64-24m-473 58l-37 47m586 671l-48-92m272-917l-32-14M778 961l-29-20m214 748l-42-18m576-904l-33-57M329 1470l-43 20m980-425l-20-82m332-808l-8 56m-555 638l-9 71M769 690h-40m30 563l-7 12M97 922l-65 80m1514 183l-18 7M204 1448h-62m100-76l-43-33m504-215l-17 69m175-590l-53 28m576 6l-24 61m-477 345l-64 18M86 896l-45 29m-4-442l-15-2m209-123l-39 39M1657 47l-54 32m-106 1796l-31-10M428 1276l-38-37m140-327l-16-9m602 354l-41-25M735 411l-29-48M604 1422l-45 3M871 356l-43-20M394 117l-55-23m12 1012l-16-8m740 134l-84-1m-830 429l-21-60m1150-890l-47-9m-114 178l-6 31m-854 805l-18 98m632-770l-61-5M92 1842l-24 50M342 410l-86 55m297-300l-45-43m1142 1774l-90-46M269 728l-11-30m1533 440l-67-6M783 417l-48-6m-2 388l-15 58m1132 532l-58-24M78 745l-57-31m228-581l-5 21m919 801l-21-73m705-8l-73-6M935 64l-72 24m166 1653l-72-31m896-1422l-28-86M98 1061l-21 52m1387-86l-10 62M113 728l-59-65m294-107l-56 32m341 356l-3-6m1029-239l-60 19M256 1117l-32 41M1515 135l-17-12M117 1300l-27-35m341 141l-10-23M169 335l-25-30m847 926l-70-19m857 463l-45 27m118-1553l-10 54m-955 30l-61 17m-602 55l-54 30m705 1574l-78-26m-517-461h-23m58-849l-2 44m353-467l-34-15m705-98l-16-18m67 537l-62-18m213 833l-5 25m217-729l-41 1M757 1747l-28 15m157-772l-23-44m183 514l-20 25m49-253l-57 95m756-459l-68-44m199 183l-55-63M132 621l-78 42m1734 608v87M1438 78l-65 16m288 314l-42 1m-800 652l-37 34M139 543l-16-53m163 1000l-2 14m286 18v11m-462 42l-36-64M1832 241l-7-39M877 313l-31-28M169 1337l-58 14m1640-667l-24-6m-204 103l-26-14M485 1677l-14-6m703-1054l-7-81m730-28l-55-19m11 687l-35-89m-623-208l-53 3m567-214l-82 17m-268 934l-57 75m231-1002l-10 89M524 287l-14 1m521 1381l-2 72M89 1377l-70-41m844-390l-2 30M68 1767l-3-66m794-303l-71-52m501-328l-23 47m160 414l-47 12m-853-11l-49-9m-304 200l-3-28m32-1331l-33 23m1369 95l-30-14M266 107l-22 47m740 936l-11-79m329 683l-3-100M848 260h-78m93-172l-8-7m776 411l-33 97M992 1875l-48 2M97 922l-6-53m845-761l-57 37m2 1642l-45-26m561-159l-10 14m523-517l-92-12M1218 50l-2 62m277 793l-70 51M268 1683l-98-40M781 436l-46-25m649 226l-11 50M54 482l-28-48m1798 436l-50-2m-893 919l-25 63m637-945l-92 25m452-642l-21-47m-459 446l-13 11M784 249l-8-28m616 400l-8 16M425 1687l-29 65M735 411l-51-3m749 517l-60-40M25 571l-3-90m1287 918l-54 3m631-868l-82-26m-513 422l-1 42M801 285l-31-25m-411 801l-38-43m1202-237l-59-71M464 1291l-53 56M825 250l-55 10m283 603l-21 23m624-791l-53-16m54-32l-1 48M144 305l-53-31M18 1736l-1 15m1676-205l-25 7M481 1116l-5-74m1316 323l-20 84m-463-50l-6 6M763 884l-9 43m-405 932l-66 8M1716 333l-24-7m213 263l-19-55m-135 150l-37-12m-685-550l-68-2M861 603l-56-7m-563 776l-46-22M1555 121l-40 14m-296 1764l-63-22m-789-741l-69 21m287-514l-86 40m142-117l-56 77m1310 240l-71-13m-532 28l-27 28M935 64l-50 11m-2 968l-34-6M394 117l-41-63m678 163l-54 5M236 1663l-41-28m467-271l-58 58m-138 2l-35-18m326 341l-8 31M661 701l-56 54m3 438l-33 67m573 125l-89 29M597 282l-46 14M387 1467l-24-34m-99-115l-30-38m251-104l-4-60m1405 50l-39 17M54 663l-33 51m1222-13l-55 64M95 1797l-27 95M312 617l-15 45m620 727l-63 47M359 531l-19-22m949 509l-43-35m-642 439l-32-79m1333-754l-14 120M597 282l-73 5M168 1844l-19 17M1661 408l-63-17m202 1293l-22-9M605 755l-61 2m765 642l-4-34m-44-367l-15-15m45-53l-26-4m-641 758l-24-33m221-133l-25 67m633-291l-43-96m267-445l-54-35M1385 56l-12 38M532 1101l-51 15m139-958l-67 7M269 1715l-33-52M889 640l-38 57m953-189l-88 7m-223 390l-60 20m318-241l-1-17M373 961l-52 57M91 274L45 153m670 823h-35m853 420l-77-21m104 475l-19 43M159 578l-36-88m834 1220l-12 5M419 420l-25-4m-153-4l-17 32m-51 1227l-13 25M123 640l-66 1m1515-435l-25 1m212 1235l-17-14m-952-312l-8-21m833 107l-26 7M423 991l-67 35m1038-400l-49-7M476 924l-68-47m698-680l-52-10M200 410l-41 28m326 1239l-12 53m962-22h-33m-1375-3l-9 31m590-543l-39-15m1154-599l-7-64M851 697l-70 9m911-380l-8-17M648 27l-29 7m1037 61l-12-17M199 1339l-43-7m153-493l-7 25m33 234l-14-80m1471 347l-4-94m-190-682l-51 67M466 1424l-69-21M801 285l-17-36m525 1150l-25-46m-37 427l-40-15M1089 154l-35 33M756 565l-13-38m1146 1138l-9 47m-44-741l-55 74M774 551l-31-24m-98 1067l-31-15m894-1163l-37 4M597 282l-2 41M189 139l-50 5m1525-1l-61-64m-781 959l-3 23M713 71l-54 33m278 1627l-56 56m200-1535l-50-35m-16 652l-42-21m-748 424l-56 65m470-155l-31 11m790 629l-71-41M132 621l-9 19m634 1107l-35-21M78 745l-63-2m91 392l-8-74m1335-136l-10 31M690 189l-25-39m779-45l-6-27m-79 854l-25-40M286 1490l-7-68m767 38l-44 23m845-609l-23-4M283 1867l-71-18M1806 479l-2 29m-28 262l-78-13m-313 823l-6-89M533 100l-20-8m118 370l-107 12m164-191l-29-60m1246 366l-22-19M886 990l-21-5m-271 548h-24M439 706l-28-41m445 1185l-60 33M633 672l-47 43m872 292l-4 82m-702 176l-13 61M104 524l-50-42m382 1084l-72-35M1897 508l-11 26m-848-321l-61 9m-43 765l-51 56m-501 306l-29 20m1111-659l-28-62m-307 231l-76-16m232 12l-20 51m433-169l-1-11M161 1660l-1 36M1648 221l-76-15m325 302l-91-29m-952-7l-19-54M659 104l-20-39m577 1133l-30 39m-616 296l-44-53M83 1351l-51 2M551 296l-41-8m-73 1025l-9-37M123 640l-10 88m37 273l-53-79m-7 343l-25-47m1487-548l-7-22M304 781l-2 83m988-154l-14-77m372-412l-20-14M26 434l-4 47m758 668l-77-25M1218 50l-94-22M156 1332l-39-32m152 415l-1-32m-203 18l-48 50m1421 86l-40-15m-52-1363l-1-47m-249 344l-50 19m-873 896l-12-11m818-486l-28 16M189 139L45 153m452-53l-31-50m1089 71l-57 2M488 823l-46-43m226-633l-9-43m-35 1580l-14 49M517 283l-11-37m1380 920l-19 1M502 1764l-29-34m1224-532l-20-9m-71-299l-17 76M586 715l-1-72M350 23l-32 28m295 98l-45 29m138 1038l-20-23m-46-343l-35-95M63 1407l-39 65m290-899l-22 15m1095-346l-67-12m-892-13l-58 55m581 573l-54-41m-327 718l-44-42m1037 183l-12-28M224 1158l-50 44m1344-270l-25-27M608 232l-11 50m-98 401l-88-18M100 345l-31 29m993-168l-24 7m520 1006l-30-27m10 179l-82 4m-470 255l-65 41M200 410l-8-13m685 85l-23-10m632 1033l-16-52m56-604l-8 11m-548 514l-53 15m-68-352l-30 24m1032-912l-23-109m-209 369l-21-18m-435 564l-40-45m549 887l-92 2M196 1350l-27-13m1568-176l-13-29m-650-560l-38-61m-832 937l-35 47m1297 370l-68-43M1117 529l-29-24m453 1388l-52-63m227-1315l-82-9m233 855l-17 28M342 410l-2 99m147 1191l-91 52M269 728l-16-71m777 324l-24-41m833 872l-32-14M348 556l-34 17m740-386l-77 35M312 617l-11-17m1284 1114l-22-51M331 859l-29 5M47 1424l-23 48M879 145l-24-64m439 1793l-75 25m-851-310l-4-58m502-7l-12-88m744-847l-47-25m-43-148l-33-19m136-98l-80 10M69 374l-43 60m1608 72l-36 83M559 1425l-15 42m510-1280l-23 30m529 1633l-94 15M367 1136l-32-38m1532 263l-75 4M878 318l-50 18M421 1383l-24 20m1170-66l-29 34M80 1659h-9m1251-115l-55 73m-408-219l-30 73m32-868l-20 34m692 759l-39-23M715 976l-9 35m-608 50l-66-59m517 757l-76-29M713 71l-65-44m17 123l-45 8m476 598l-44 33m-868 827l-14 27m936-1446l-17-43M89 1377l-6-26m998-283l-14 7M798 428l-15-11M533 100h-36m631 1730l-4-3m627-1143l-42-16M224 444l-24-34m506-47l-22 45m905 801l-43-24m-301-254l-50-52m670-531l-79-37M225 1272l-20 32m1601-825l-7-34M228 1516l-23-1M45 153l-30 49m1646 206l-30 84m-640 739l-94 10m953-297l-14 27m-859-86l-26-40m436 771l-2-36m404-1220l-40-26m-610 1005l-23-82M865 985l-2-39m1018 259l-14-38m-704-212l-34-76m-665 412l-82 58m757-10l-80 75M451 483l-28 29m514 1219l-63 16m993-580l-49-80m-611 678l-16-93M123 490l-86-7m179-344h-27m-46 1433l-52-19m1455-368l-60 40M625 132l-5 26m889 1239l-53-22M686 613l-20-36m679 42l-67-3M460 820l-18-40m249 701l-73-21m742-442l-70-46m-134 905l-6-78m700-855l-3-70M295 525l-19 47m1352-365l-58 24m139 437l-9-41M256 1117v-16m1230 404l-7-10m407 312l-3 25M859 1398l-5 38m49-1143l-17-60m-163 779l-8-36m253 353l-51 60m775-1063l-20 3m15 1571l-37-4M1174 617l-69 16M877 313l-49 23m1058 830l-33 10M722 1726l-45 16m9-549l-47-11M104 524l-67-41m654 998l-16 34m1175-126l-48 47m-22 168l-33-21M665 1745l-55-12m363-885l-22-3m108 569l-89-40m295-448l-19 57m636 512l-32-106m-1586-71l-22 54m-99 200l-3 28m912-811l-21 49m-97 149l-69-2m551 557l-29 74M249 133l-60 6m290 233l-60 48m207 582l-72-29m390 904l-62 4m-133-103l-20-16m163 111l-8 29m642-1053l-8 83M71 1659l-3-1M1089 154l-60-32M762 776l-29 23M110 361l-10-16m1420 325v-15m-221-398l-21 77m-99 511l-50 34M267 315l-65-3m322 162l-73 9m-277 719v-51M58 1401l-11 23m1863-325l-24 67m-803 218l-37 76M825 250l-41-1m1121 758l-32 37m13 122l-5 39m-837-622l-29 26m508 91l-59 10M648 27l-26 20m569 1625l-73 36m467 6l-71-24m372 117l-47 5m-47-447l-3-18M763 884l-45-27m1015 845l-1-38M863 946l-58-12m128 233l-36 74m738 578l-55-20m-42-428l-29 26m-149-699l-62-16M668 147l-48 11m498 1550l-89 33m-699-325l-51 6M264 69l-48 70m-32 1477l-41-44m534 170l-53-58m768-1063l-19 66m-624 999l-20 76m-107 102l-104 12m42-962l-49-1m211 813l-57 19m364-1623l-7-60M554 973l-43-60m647 659l-16-15M846 285l-18 51M86 896l-26-46m1079 489l-56 45m-54-1262l-2-40m364 116l-4 44m301 151l-27 15M688 283l-9 3m300 888l-46-7m889-1066l-53-60M751 983l-36-7m3-119l-21-36m797 552l-65-79m-371-965l-67 41m432 586l-22-26M340 509l-45 16m1477 924l-13-7m-1348-95l-29 2m1104-124l-57 69m-345-82l-9 20M89 1377l-26 30m374-94l-26 34m577-199l-4-58m232-978l-39 78m312 848l-35 51M195 1635l-34 25m1124-785l-37-37m90-749l-18-70M305 699l-36 29m579-468l-2 25m886 1379l-32-18m63-63l-70-37m95-275l-22 44M659 104l-28 31M348 556l-53-31m731 960l-7-23m-419 189l-17-13m925-1222l-59 33M986 1630l-23 59m-185 102l-21-44m-336-364l-10-36M144 305l-34 56m313 151l-20 28m626 1201l-11-35m-26-601l-8-15m782 225l-18 38M1089 154l-27 52m392 883l-77 72M554 973l-49 45m354 380l-32-34m-350 107l-31-36m25 236l-46 16m1190-485l-57 17m-506-430l-6-14m673-411l-31 29m-405 893l-67-88M156 1332l-45 19M353 54l-3-31m1492 466l-43-44M212 1849l-65 25M359 531l-45 42m1488 863l-30 13M471 1671l-4 5M369 610l-57 7m466 1174l-29-13M1750 667l-36 5M778 961l-27 22M51 1316l-32 20m816-918l-52-1m405 348l-9 80m-715 446l-27 22m855-415l-1 32m-405 60l-3 53M408 877l-77-18m1227 360l-12-34m-843-61l-64 58m-470 155l-52-37m150-985l-36 43m402 314l-48-29m216 546l-21-40m-383 254l-15-54m-114 334l-32-20m708 214l-52-4M828 336l-8-6m-310-42l-31 84m894 315l-33 60M865 985l-4-9m-502 85l-3-35m121 445l-11-47m78 43l-67 4m868-852l-69 14m-245 1036l-68 20M668 147l-3 3m606 1122l-55-74m33-784l-34-54m695 1323l-21-18m-628-667l-25 83m430-33l-1-47m-353 214l-96-17m-511 686l-25 20m707-1662l-69-4m293 61l-41-68M91 1553l-19-42M1541 404l-33 12M63 1407l-5-6M1853 288l-39 22m-420 316l-10 11M476 924l-53 67m916-648l-14-41M560 914l-6 59m895-524l-46-11M72 1511l-16-29m209-33l-9-27m-82-271l-68-16m1360 730l-28-28M659 104l-11-77m938 1431l-11 13m-467-369l-1 41m570 46l-4 35M195 1635l-11-19m8-1219l-33 41m503 1209l-17-53m915 256l-63 25M844 499l-46-71m1089 217l-66 28m-575 310l-10 98m151-525l-23-8m496 1000l-51 19M661 701l-76-58m956 1250l-75-28M256 465l-24-37m184 167l-13 44m599 844l-44-57m426-789l-39-18m-212 1007l-15 82m662-104l-2 71m-151-990l-75-15m-384 1058l-50-20m547-707l-40 62m163 208l-40 82m-813-196l-2 10M673 791l-12-90m300-581l-82 25M139 543l-7 78m421-456l-30 30m797 1578l-73 7m-897-487l-19-18m1579-176l-37-55M796 1585l-79-40m855-1339l-2 25m-431 1108l-121-12M865 985l-16 52m199-354l-18-30m355 927l-26 39M256 1422l-14-50m208-716h-41m1289 101l-39-58m-72 718l-12 54M805 934l-27 27m-27 22l-2-42m79-605l-27-51m96 956l-76-25M123 490l-19 34m15 284l-6-80m1636-394l-33-1m93 1234l-29 37m-491-586l-53 63M63 1407l-16 17m502 335l-47 5M781 706l-12-16m79-430l-47 25M410 1432l-23 35M192 397l-82-36m690 759l-20 29M885 75l-22 13M560 914l-10-43m199 815l-27 40M359 531l-11 25m1068 986l-31 38M139 266l-48 8m1312 164l-57 21m540 1348l-15-50m-753-49l-53 45m260-1451l-26-45M108 1575l-17-22m239-137l-74 6M57 641l-32-70m403 705l-64-32m935-987l-23-36m0 412l-33 68m298-297l-3 26M225 1272l-29 78m481 392l-12 3M100 345l-9-71m589 1630l-58-40m751-979l-14 47m417-162l-12 12m146 317l-43 68m-278 42l-31 10m-185-334l-39 7m-86-54l-60-73m563-81l-51-57M748 994l-33-18M544 757l-45-74M370 272l-32-9m743-11l-43-39M648 27l-9 38m1085 1067l-66 20m-183-755l-47-6M859 1398l-52-1m79-1164l-38 27m1019 907l-20 16m-460-941l-62 60M686 613l-53 59m633 393l-5-67m-395 526l-45-6m-95-926l-40 21m0 0l-25 88m383-118l-19-5M266 107l-50 32m852 663l-22-27m418 252l-6-20m-352-810l-44 9m243 1159l-21-12m-680 69l-60 45m488-581l-26 54m-291 36l-36 31M533 100l-25 22M295 525l-3 63m1526 499l-37-42M473 1730l-77 22m949-414l-61 15m-502-258l-79 29m849-454l-5-14M560 914l-30-2m-274 510l-52 26m284-625l-28-3m623 564l-65-57m868-793l-80-55M635 251l-40 72m906 1156l-22 16M473 1730l-2-59M659 104l-37-57m224 238l-21-35m441 815l-30 16m-815 302l-39-34m736 359l-18-71m-163 94l-16-60m-475-236l-36-3m1472 63l-22 53m-35-1346l-3-101m25 1082l-59 88m-581 494l-79 65m-99-89l-66-52m-18 26l-8 16m-56 56l-70 1m653-761l-41-71M95 1797l-78-46m51 16l-50-31M1394 626l-21 61m-96 127l-89-49M37 483l-11-49m525-138l-34-13M408 877l-35 84m1498 796l-64 41m-1320-98l-2-23m326-727l-33 11M406 549l-47-18m107 893l-45-41M92 1842l-24-75M1320 230l-21 27M631 462l-12-46m232 281l-82-7m834-611l-17 52m-163 825l-63 62m236 378l-29-59m-531-826l-35 8M665 150l-40-18m720 280l-24-31m-121 1164l-58 12m647-210l-1 11m-461 423l-25-87M886 233l-8 85m-34 181l-9-81m663-295l-54-18m407 1513l-20 48m-313-806l-25 45M159 438l-36 52m591 328l-17 3m1186-251l-79-62m87 201l-10-3m-283-315l-57 13m346 241l-4-75m-824 844l-13 46m142-695l-92-9m-912 860l-44-16m619-347v40m383 264l-9 69M71 1659l-44 46m123-704l-52 60m1318 481l-37-51M1218 50l-86 7M886 233l-7-88m217 611l-48-73m802 706l-61-42M1089 312l-31 17m528-198l-31-10M199 1339l-3 11m1125-969l-72 33M521 1546l-85 20m307-944l-17-30M935 64l-80 17m838 1465l-64-7M654 19l-15 46m646 810l-5-8M450 656l-39 9m1494 342l-87 80M499 683l-90-27m768-466l-2 21m531 613l-8-67m108-278l-90 36M234 1280l-60-78m1205 289l-8 34M86 1116l-9-3m1130 652l-57 34m577-1121l-27-51m-612-266l-30-32M77 1113l-23-99m767 202l-20-27m-128 45l-34-52m701-435l-50-37M58 1401l-34 71M869 463l-15 9m253 671l-32 89M394 416l-52-6m1078 325l-47-48M934 987l-73-11m279-441l-23-6M782 63v23M428 217l-68 2m459 842l-9 3m611 746l-23 12M54 482l-32-1m1694 34l-85-23m155-181l-37 23M666 1726l-42-42m14-750l-8 4m421-278l-3 23M774 551l-48 41m849 879l-74 8m350 139l-71-14m-684-848l-35 30m4 967l-36-12m54-357l-24 30m-33 71l-73 36m750-321l-30 24m209 271l-80-59M41 925l-9 77m850 879l-86 2m-67-121l-52-20m-421-641l-32 57m89-990l-69-14m232 888l-14 91m1280 295l-61 1m66 154l-54-37M68 1658l-41 47m659-512l-2 48m162-956h-45M347 1530l-67 29m1573-383l-6 7m-38 384l-62 16M118 206l-27 68m178 454l-7-43m286 491h-63m1187 621l-37 22m-906-57l-64-17m751-203l-19 60m-229 126l-40 102m-401-338l-10 53m-533 71l-23 44m504 85l-43 119m849-1444l-22 29m404-161l-67 23M466 50l-21-39m1441 523l-3 36m-852 1099l-38-10m334 122l-33 93m-138 3l-32-50m71-948h-66m-515 700l-44-57m-319 291l-39 36m-106-714l-20-19m1253-773l-18 38M266 107l-17 26m1147-40l-23 1M717 1582l-26-101m-295 271l-47 107M877 482l-8-19m-27 650l-23-52M595 323l-78-40M199 1339l-30-2m1462-845l-12-83m-880 917l-55-12m1198-99l-1-10m-776-572l-57 50m481-253l-21-14m-183-114l-4 79m589 718l-5-92m-947 419l-41-37m503-654l-2 67m-535 241l-18-58M241 412l-9 16m204 441l-28 8m97 141l-82-27m54 480l-41 95m583-104l-49-88m802 75l-91-20m-265 113l-45-17M56 1482l-9-58m1858-835l-18 56M746 609l-20-17M97 922l-56 3m718 328l-20 73m841 473l-20 51M1088 505l-52 6m32 291l-37 36m666 360l-24 26m-39-718l-3-14m-35 904l-9 21M1038 213l-7 4M363 1433l-34 37m30-409l-24 37m599-111l-48 3m-75 798l-62-10m214-89l-6 21m476-785l-32 5m145 255l-29-83m-544-91l-39-24m-666 696l-95-12M635 251l-21-9m103 1303l-26-64m371-1275l-8-19M29 816l-11 47m252 935l-1-83m40-876l-74-12m-116-19l-41-63m873 100l-36-19m-681 454l-9-8m242 404l-71 76m597-93l-7-29m-416-97l-49 13M1054 84l-27-2M594 1533l-24-11m461 147l-13 37M54 482l-17 1m54-209L69 374m1291 324l-20 49m-661 260l-53-5m88-184l-74 32m86-258l-57-14m-445 580l-50-7M394 117l-24 21m642 827l-6-25m675 489l-19 79m-1397-59l-61-1m673-966l-33 17m1068 314l-17 70M127 771l-49-26m470 431l-16-75m-183 758l-48-16m13-1270l-13 27m417 257l-4-39M83 1351l-11-20m-4 327l-51 93m55-240l-6 79m66-969l-75 20m1441-518l-27-44m-174 1511l-30 27M863 946l-52 4m-490 68l-22 39m1503 379l-60-8m-825-39l-58 9m855-726l-14-45m160 921l-9 70m-565 183l-79-36m-229 80l-34 32m377-1496l-106-21m-48 176l-79-31M866 1524l-46-29m242-1289l-31 11m-13 1110l-50 2m-672 238l-16-8m184-268l-36-15m-158 522l-19 15M1853 288l-12-85m-822 1259l-17 21M144 305l-75 69m354 617l-50-30m917 11l-29 26M196 1350l-40-18m18-130l-68-67m285-937l-21 74m-71 785l-43 44m1532 257l-40-5M110 361l-41 13m664 425l-36 22M68 1892l-11-4M1607 356l-76-47M889 646l-28-43m235 153l-28 46M65 1701l-38 4M1865 348l-51-38m-755 1104l-57 69m621-11l-48-1M479 372l-72-2m142 1389l-62-59m1046-304l-24 1M169 335l-59 26m619 329l-68 11m327 447l-9 26m-273 42l-22 25m752-593l-52-11M757 1747l-8-61m1131 26l-9 45M751 983l-3 11m517-535l-16-45M284 1504l-4 55M241 412l-41-2m831 428l-58 10m-856 452l-6 51m292-811l-44-9m62 852l-11 49m431-795l-33-6m-147 70l-28-29m770-234l-58-26M117 1300l-45 31m1356-940l-25 47M957 1710l-36-39m727-1450l-78 10m-515 723l-49-14m93 143l-18-15m800 137l-34-22m-529-945l-19 19m-1 425l-8 28m404 358l-28-20m199-700l-33-107m-524 261l-43-43M232 428l-8 16m1643 723l-14 9M409 656l-42-15m382 1137l-27-52m568-754l-44 11m-761 694l-60 10M409 656l-40-46m510-465l-16-57m-198 62l-6-46m967 932l-5 35m-301 702l-34 28m-285-662l-9-34M848 260l-23-10M466 1424l-56 8m29-726l-30-50m672-404l-51-8m-67 1445l-26 42m-602-633l-36-41m1248-401l-2-8M436 1566l-49-99m1165-797l-32-15m-461 759l-41-87m-334-86l-39 47M614 242l-19 81m739 569l-49-17M961 120l-25-12m443 1383l-77 51M886 233l-9 80m9 1461l-5 13m940-1114l-70 11m-114-101l-3-77m-274 512h-71m334 454l-36-55M1029 122l-34 23m73 657l-7-16m225 1015l-39-21m-774-50l-48-43M223 305l-21 7m823 266l-10 31m-685 807l-1 54m1352-41l-58 43M297 662l-28 66m370 454l-70-4m187-613l-30 27m801 1066l-13 32m61-219l-13-8m-260 79l-102 3m430-458l-4-51m-31-110l-6 40m-29 884l-71-20M232 428l-40-31m428-239l-52 20M149 1861l-2 13m1703-930l-26-74M387 1467l-58 3m1042 55l-49 19m229 91l-24 23m-29-1535l-25 6M754 927l-5 14m836 773l-42 29m-722-527l-41-67m10-33l-87 8m-109 409l-73 13m777-864l-20-66M705 1884l-83-20m737-245l-92-2M139 543l-35-19m1223 1257l-14 47m-754-403l-33 55m788-473l-24-35m605-89l-45 61M292 588l-16-16m359-321l-38 31m1289 884l-4 49M127 771l-14-43m1373 777l-60-26m-365-693l-15-11M72 1511l-48-39m842 52l-70 61M1825 202l-80 20M665 150l-52-1m-59 824l-24-61m423 609l-75 11m-529 327l-137-10m238-952l-42-20m510-231l-57-43m512 84l-83 23m-189-219l-13 14m620-483l-51 25M68 1767l-41-62m446 25l-6-54M244 154l-55-15m120 700l-5-58m-9-256v-22M725 91l-12-20m1173 1736l-79-9M391 198l-21-60m-10 81l-22 44m1513-114l-29-48M312 617l-20-29m467 705l-20 33m504-625l-61 8M934 987l-71-41m774-363l-6-91m132 1091h-16m-49-826l-45-4M143 1572l-35 3M403 540l-23 8m297 1194l-11-16M869 463l-25 36M347 1530l-18-60m949-1136l-29 80m49 268l-55 19m-938-2l-43-14m42 96l-35-53m1167 16l-16-9m445-387l-76 12m-771 967l-27-96m891 264l-31 123M460 820l-52 57m1219-192l-28 33m-32 880l-16 37M234 1280l-29 24m1382 113l-1 41M680 922l-50 16m-166 353l-30-40m1224-99l-8-35m-619 552l-45-39M659 104l-34 28m990 1070l-69-17m-1321 87l-51-70m1709 630l-76-34M234 1280l-35 59m917-82l-32-45m-648 354l-89-36m899-547l-1-52m-896 928l-98-46m1422-589l-115-5m156-547l-55 27m41-72l-63-44M83 1351l-32-35m866 73l-90-25M517 283l-53 15m828-193l-74-55m198 168l-29 24m200 1175l-54-21m-32 83l-14 21M97 922l-37-72m994-663l-16 26m844 1282l-110-46m-45-771l-13-6M532 1101l-70 32m1008 320l-14-78m-842 204l-20-46m1133-855l-18-10M212 1849l-44-5M1471 79l-33-1m285 501l-23 48M410 1432l-13-29m309-229l-67 8m721-164l-46-11m-848 417l-20 11m124 98v-11m1303-478l-92 1m-3 630l-46-11M83 1351l-64-15m1539-117l-72 6m-1119-89l-16-30M32 1353l-13-17m958-451l-4-37M380 548l-32 8m539 523l-45 34m259-622l-65 20m12 172l-2 92M595 323l-71-36m446 1087l-2-45M217 323l-48 12m627 1250l-79-3m450-1046l-66-45m469-260l-39 78m-8 472l-5 79m-856 787l-38 37m532 193l-28-47M305 699l-8-37m995 236l-12-31M37 483l-12 88m1441 1294l-45-55m216-1227l-39 6M835 418l-37 10m1069 933l-79-3m-797-127l-12-57M295 525l-47-42m1030-149l-63 26m682 148l-14 62M680 1904l-62-45m172-743l-10 33M98 1646l-27 13m363-408l-6 25M784 249l-14 11m311-8l-19-46m729 932l-10-93m-346-446l-48-43m-369 771l-48 47m320-402l-1 46m186-621l-72 41m-452 752l-30 22M21 714l-6 29m1298 1085l-27-27M1061 786l-9 3m620 1008l-22 99m-769-109l-7-40M167 695l-54 33m1773 1110l-3-6M820 1495l-24 90m206-102l-49 38m175 309l-63-77M248 483l-24-39m1435 255l-6 54m135 605l-22-43M60 850l-31-34M513 92l-47-42m173 1132l-52-9M409 656l-6-17m202 116l-19-40M1644 78l-41 1m-305 603l-22-49m566-144l-36-10M302 864l-67-37m504 499l-77 38m146-733l-39 59m551 1083l-18-79M506 246l-78-29m523 973l-54 51m351-403l-53 41m498 667l-31-38m-1383-86l-14 27m1511-679l-2 98M660 485l-29-23m1220 1156l-51 66m-1155-90l-51-61m976-1302l-23-24m-21 642l-29-82m368-419l-116-14M824 1872l-28 11m-151-289l-62 44m103-445l-13 41m-9-796l-4 47m41-278l-13 76m595 1003l-12-14M217 323l-15-11m78 1247l-52-43M1027 82l-66 38m525 1385l-70 37m-940-500l-53-51m719-109l-13-3m78 886l-39-37M391 198l-31 21m641 920l-17-49m765-756l-57-8M524 268l-7 15m750 1334l-67-72m-766-294l-44-12m669 175l-33 71m-539 215l-20-24m1183 220l-15-77m84-1455l-3-31M886 990l-25-14m826 924l-52-81M822 777l-41-71m1033-396l-25 50M54 482l-29 89m689 247l-41-27m230-498l-26 20m787-170l-16 78M241 412l-49-15m1135 1384l-41 20m74-1103l-70 12M314 573l-19-48m1176-105l-68 18m386 909l-23-32M1089 154l-35-70m487 320l-66-7m51 452l-33 56m388-199l-60-33m21-184l-38 19m-110 560l-29-67m-787 531l-12-8m494-506l-1-86M169 1337l-13-5m1158-325l-48 58m55-684l-43-47m21-77l-29-61M639 65l-17-18M118 206l-73-53m639 1088l-11-7m-375-77l-42-40m1270-268l-3-68m-637 993l-12-27m835-1079l-50 31M279 1422l-37-50m651-238l-51-21M58 1401l-39-65m237-871l-32-21m746 930l-12 52M464 298l-94-26m428 156l-63-17M139 144l-94 9m318 1280l-33-17m356-803l-17-35m-246-66l-43 36m1084 162l-36 52M825 250l-24 35M625 132l-3-85m200 730l-60-1m617 715l-57 53m466-186l-16 91m-146-413l-1 27m-136 767l-51 7m-136-143l-35-77M91 869l-5 27m1206 2l-7-23m448 827l-33-56M411 665l-2-9m145 317l-78 69m1055-733l-19-14M349 1859l-79-61m-58 51l-63 12m338-161l-14 30m1180-977l-26-68M331 859l-22-20M56 1482l-32-10m982-532l-29-55m-135 228l-42 7m-26-569l-18 14m874 522l-9-16M1054 84l-32-22m270 43l-76 7M232 428l-32-18m69 1305l-96-44m760-504l-12 45m968 651l-6-31M485 1176l-23-43m529 98l-3-83M301 600l-9-12m1028 1185l-7 55m476-1468l-3-49m-459 1470l-80-1M1022 62l-87 2m244 781l-37 37m709-733l-19 92M359 1061l-60-4m1428-379l-30 68m186-176l-41-81M614 242l-17 40m224 934l-62 37m287 207l-27 2m-872 412l-79 18m43-541H83m806-705l-38 51m813-554l-8-48m-310 364l-38 43M373 961l-17 65m1133 12l-25-11m423-382l-6 61M533 100l-40 22m67 792l-46-11m192 271l-20 19m1187-149l-55 43m-306-912l-14-52M505 356l-26 16m1218 374l-38-47m-968 782l-87-59M776 221l-6 39m114 1642l-10 7m770-923l-55-20m252-763l-16-1M248 483l-16-55m918 1371l-22 31m-864-512l-39-46m1564 75l-41 6M169 335L69 374m1645 298l-17 74M493 122l-27-72m361 1314l-20 33M936 108l-51-33M673 791l-68-36m-371 525l-38 70m1242 487l-17-27m302-1231l-86 4m60 163l-44 7m-308 585l-50-20M620 158l-7-9m1187 1535l-68-20M654 19l-6 8M80 1659l-53 46m1121-320l-9-46m448 78l-25 46M192 397l-23-62m1 1308l-9 17m-78-309l-25 50m147-97l-6 35m411 394l-61 26M450 656l-47-17m353-74l-10 44M54 1014l-22-12m963-857l-18 77m621 1505l-13-13M1106 197l-25 55m408 1578l-23 35m-2-1155l-44 25m-384-399l-45 34m900 339l-70-36m-405-455l-25-20m266-151l-13 31M800 1120l-10-4M660 485l-41-69M244 154l-28-15m951 397l-27-1M986 1630l-29 80M450 656l-11 50m169 487l-21-20M782 63l-28 3M524 268l-14 20m-103 82l-65 40m317-187l-24 28m92 1241l-36-11m339-1237l-53-22m797 646l-10-86M359 1061l-8 45m1166-4l-63-13M314 573l-38-1m143-152l-77-10m1509-261l-26 53m61 332l-44-45m-244 100l-53 59M505 1018l-29 24M654 19l-32 28m-266 979l-57 31m727 428l-24-2M256 465l-8 18m1541 864l-1-76m-466 273l-20-2M846 285l-76-25M464 1291l-74-52m1099 591l-68-20M936 108l-1-44m814 270l-30 30m-255 346l-28 34M174 1151v51m1320 171l-38 2M661 701l-75 14m966-45h-32m58-495l-31 32M684 408l-24 77m1129-125l-70 4M123 490l-69-8m532 233l-87-32m458 1027l-20 21m-501-165l-68 23m265-645l-7 58m1009 817l-75 31M622 47l-3-13m1161 1570l-17-21M224 1158l-4-63m1274-552l-10-44M423 512l-17 37m-247 29l-27 43m452 262l-24 31M391 198l-64-44m-18 685l-30 83m854 704l-33 11m565-636l-21-15M267 315l-44-10m738-185l-26-56m932 1297l-78-14M820 330l-19-45M654 19l-35 15m922 370l-12 26M1373 94l-35-5M622 1864l-4-5m-43-599l-3 83m372 534l-60 25m849-200l-39 33M1048 683l-33-74M554 973l-40-70m383-99l-75-27m-278 690l-18 13m801 301l-7-8M995 145l-59-37M752 1265l-46-49m352-887l-22 7M762 776l-48 42m-347 318l-8-75M97 922l-11-26m183 819l-74-80m1346 258l-44-18m385-380l-73 72m-50-125l-78-13M1475 397l-4 23M487 1700l-62-13m770-808l-16-34m613 520l-4-7m-69-994l-27-38M631 135l-18 14m419 737l-1-48M98 1061l-12 55m1301 500l-28 3m128-119l-1 5M113 728l-35 17m1235 1083l-66-48m-99-395l-65-1M631 135l-11 23M302 864l-23 58M110 361l-19-87M885 75l-6 70M551 296l-27-9m362-54l-40 52m868 387l-5-4m-950 625l-7-28m561 563l-19 46M584 883l-34-12m752 671l-35 75m-67-72l-42 27m-274 330l-88-19m230-398l-68-59m-386-83l-13 82m76-1174l-27-19m6 1347l-31 59m-399-22l-11 55m886-257l-40 48M805 596l-31-45m764 820l-44 2m-788-199l-3-50M499 683l-60 23m579 1000l-61 4m388-372l-35-25M769 690l-26-68M613 149l-60 16M72 1331l-53 5m1069-975l-52-25M286 1490l-6 69m1253-867l-10 8m-572 490l-18-23m3-1059l-73-20m859 9l-65-50M524 287l-7-4m843 735l-7 13m-151-828l-27 8M614 1579l-44-46m272-420l-52 3M167 695l-35-74m1068 924l-47-54m-190 198l-18 26M778 961l-24-34m850 595l-29-51m-557 235l-32-76m359-292l-40 27m81-167l-9-37m-493 741l-2-21m186-1079l-16-13m-847 515l-36 33m211-789l-21-17m857-419v38m-187 1591l-38 61m-723-119l-73-48m54-1502l-33 6m737 1382l-87 3m1029-641l-48-9M104 524l-79 47m270-68l-47-20m485 316l-19 19m221 339l-38 84m-611 249l-21-41m1341-559l-80-41M517 283l-7 5m948 719l-35-51M267 315l-50 8m78 180l-39-38m408-27l-45-22m773 205l-47-2m-309-108l-11 67m-136 62l-28-37M479 372l-15-74m1354 789l-27 51m-760-921l-1 27m720 423l-50-40M256 1117l-36-22m1177 507l-12-22M1603 79l-48 42m226 924l-87 23m-773 144l-24 29m135-355l-17-17m233-31l-69 7m-29 954l-26 28M688 283l-53-32m1247 964l-15-48M788 1346l-49-20M754 66l-29 25m667 530l-5-65m127 1134l-79 18M57 641l-3 22m1340-37l-2-5m422-311l-28 1M106 1135l-41 83m461 262l-5 66m145 180l-1 19m94-492l-53-37m482-451l-6-56m203-653l-65-37M595 323l-44-27m94 1298l-45 57m-133 25l-42 11m441-163l-37-53m-18 317l-33 3m1073-173l-42-51M639 65l-20-31m505 1793l-59-74M1320 19l-2-6m510 27l-6 61m-523 1493l-32 23M27 1705l-10 46M1218 50l-2 100m219 1558l-14 102M568 178l-45 17m1102 868l-4 8m291-258l-21-104M854 472l-10 27m12 1351l-32 22m293-1343l-16-38M428 217l-37-19m1110 1281l-15 26m-319-969l-50-7m577 1206l-22 62m-955-215l-72 12M1722 97l-66-2m-133 686v-81M1373 94l-37-57M608 1193l-60-17m610 396l-25 54M1054 84l-25 38m249 494l-2 17M205 1304l-9 46m422 110l-14-38m742-963l-19 56m-795 586l-56-59m149-910l-12 17m20 523l-28 83m904 642l-15-24M106 1135l-29-22m408 63l-33-28m493 567l-24-44m965 136v31M95 1797l-27-30M216 139l-77 5m1447-13l-8 44m-510 627l-15 61m403 512l-27-81m-84 44l-36 61M1062 206l-32 38m548-69l-23-54M329 1470l-45 34m285-326l-84-2m1365 213l-62-31m-123-357l-39 35m-440 201l-47 102M530 912l-19 1m237 81l-25 18m611-120l-42 6m-615 844l-67-9m-254-707l-21 72m-218 202l-34 51m122 164l-1-67M995 145l-34-25m930 589l-4-64M618 1460l-59-35m735 449l-8-73m-444-688l-32-49m742-394l-19 22m-365 1036l-18 71m-159-568l-40-41M411 665l-8-26m7 793l-47 1M91 1553l-25 37" fill="none" stroke="#989898" stroke-width="2"/><circle class="st1" cx="95" cy="1797" r="8"/><circle class="st1" cx="436" cy="869" r="3"/><circle class="st1" cx="1627" cy="685" r="2"/><circle class="st1" cx="1416" cy="218" r="6"/><circle class="st1" cx="935" cy="1157" r="5"/><circle class="st1" cx="978" cy="1845" r="8"/><circle class="st1" cx="269" cy="728" r="7"/><circle class="st1" cx="410" cy="1432" r="8"/><circle class="st1" cx="77" cy="1113" r="3"/><circle class="st1" cx="170" cy="1643" r="5"/><circle class="st1" cx="411" cy="665" r="8"/><circle class="st1" cx="1249" cy="414" r="7"/><circle class="st1" cx="856" cy="1850" r="7"/><circle class="st1" cx="506" cy="246" r="8"/><circle class="st1" cx="91" cy="274" r="4"/><circle class="st1" cx="1841" cy="203" r="5"/><circle class="st1" cx="874" cy="1747" r="6"/><circle class="st1" cx="1657" cy="47" r="7"/><circle class="st1" cx="1027" cy="82" r="5"/><circle class="st1" cx="1687" cy="1900" r="6"/><circle class="st1" cx="276" cy="572" r="5"/><circle class="st1" cx="1684" cy="309" r="6"/><circle class="st1" cx="1436" cy="648" r="4"/><circle class="st1" cx="1700" cy="1646" r="2"/><circle class="st1" cx="98" cy="1061" r="6"/><circle class="st1" cx="640" cy="850" r="5"/><circle class="st1" cx="86" cy="896" r="5"/><circle class="st1" cx="1255" cy="1402" r="6"/><circle class="st1" cx="1716" cy="515" r="8"/><circle class="st1" cx="350" cy="23" r="3"/><circle class="st1" cx="805" cy="934" r="5"/><circle class="st1" cx="481" cy="1116" r="8"/><circle class="st1" cx="471" cy="1671" r="7"/><circle class="st1" cx="1397" cy="1602" r="3"/><circle class="st1" cx="1046" cy="775" r="7"/><circle class="st1" cx="1739" cy="112" r="6"/><circle class="st1" cx="886" cy="233" r="5"/><circle class="st1" cx="505" cy="1018" r="4"/><circle class="st1" cx="1867" cy="1167" r="2"/><circle class="st1" cx="1124" cy="1827" r="6"/><circle class="st1" cx="462" cy="1133" r="6"/><circle class="st1" cx="1541" cy="1893" r="7"/><circle class="st1" cx="396" cy="1752" r="3"/><circle class="st1" cx="1772" cy="1449" r="4"/><circle class="st1" cx="1497" cy="1875" r="3"/><circle class="st1" cx="1026" cy="1485" r="2"/><circle class="st1" cx="1338" cy="89" r="7"/><circle class="st1" cx="299" cy="1057" r="2"/><circle class="st1" cx="265" cy="1449" r="3"/><circle class="st1" cx="810" cy="1064" r="7"/><circle class="st1" cx="1621" cy="1071" r="6"/><circle class="st1" cx="553" cy="165" r="8"/><circle class="st1" cx="517" cy="283" r="7"/><circle class="st1" cx="1061" cy="786" r="4"/><circle class="st1" cx="1156" cy="1877" r="4"/><circle class="st1" cx="1271" cy="1272" r="2"/><circle class="st1" cx="951" cy="845" r="2"/><circle class="st1" cx="1555" cy="121" r="8"/><circle class="st1" cx="1479" cy="1495" r="2"/><circle class="st1" cx="1677" cy="1189" r="4"/><circle class="st1" cx="679" cy="1007" r="4"/><circle class="st1" cx="1792" cy="1365" r="3"/><circle class="st1" cx="309" cy="839" r="6"/><circle class="st1" cx="1280" cy="867" r="8"/><circle class="st1" cx="921" cy="1212" r="4"/><circle class="st1" cx="973" cy="848" r="7"/><circle class="st1" cx="192" cy="397" r="2"/><circle class="st1" cx="1089" cy="154" r="3"/><circle class="st1" cx="406" cy="549" r="6"/><circle class="st1" cx="1748" cy="1353" r="3"/><circle class="st1" cx="654" cy="19" r="7"/><circle class="st1" cx="619" cy="416" r="2"/><circle class="st1" cx="608" cy="1193" r="8"/><circle class="st1" cx="108" cy="1575" r="7"/><circle class="st1" cx="1658" cy="1152" r="4"/><circle class="st1" cx="1518" cy="860" r="8"/><circle class="st1" cx="1058" cy="329" r="4"/><circle class="st1" cx="584" cy="883" r="4"/><circle class="st1" cx="1778" cy="1675" r="5"/><circle class="st1" cx="706" cy="363" r="6"/><circle class="st1" cx="1887" cy="645" r="4"/><circle class="st1" cx="156" cy="1332" r="7"/><circle class="st1" cx="878" cy="318" r="4"/><circle class="st1" cx="339" cy="94" r="6"/><circle class="st1" cx="690" cy="189" r="6"/><circle class="st1" cx="200" cy="410" r="7"/><circle class="st1" cx="608" cy="232" r="5"/><circle class="st1" cx="1697" cy="1198" r="8"/><circle class="st1" cx="706" cy="1174" r="5"/><circle class="st1" cx="1142" cy="1557" r="5"/><circle class="st1" cx="234" cy="1280" r="3"/><circle class="st1" cx="605" cy="755" r="5"/><circle class="st1" cx="51" cy="1316" r="4"/><circle class="st1" cx="1804" cy="508" r="4"/><circle class="st1" cx="1603" cy="79" r="6"/><circle class="st1" cx="123" cy="640" r="8"/><circle class="st1" cx="1394" cy="626" r="7"/><circle class="st1" cx="1088" cy="505" r="7"/><circle class="st1" cx="1015" cy="609" r="5"/><circle class="st1" cx="739" cy="1326" r="5"/><circle class="st1" cx="256" cy="1117" r="4"/><circle class="st1" cx="842" cy="1113" r="6"/><circle class="st1" cx="370" cy="272" r="4"/><circle class="st1" cx="1595" cy="926" r="5"/><circle class="st1" cx="1709" cy="668" r="3"/><circle class="st1" cx="1543" cy="1743" r="5"/><circle class="st1" cx="1512" cy="295" r="4"/><circle class="st1" cx="568" cy="178" r="8"/><circle class="st1" cx="1912" cy="813" r="2"/><circle class="st1" cx="111" cy="1351" r="6"/><circle class="st1" cx="587" cy="1173" r="6"/><circle class="st1" cx="871" cy="356" r="6"/><circle class="st1" cx="364" cy="1531" r="2"/><circle class="st1" cx="1596" cy="1396" r="7"/><circle class="st1" cx="1498" cy="123" r="2"/><circle class="st1" cx="1466" cy="1865" r="2"/><circle class="st1" cx="1517" cy="1102" r="2"/><circle class="st1" cx="56" cy="1482" r="3"/><circle class="st1" cx="620" cy="158" r="4"/><circle class="st1" cx="466" cy="1424" r="8"/><circle class="st1" cx="729" cy="1762" r="7"/><circle class="st1" cx="26" cy="434" r="6"/><circle class="st1" cx="666" cy="577" r="4"/><circle class="st1" cx="60" cy="850" r="4"/><circle class="st1" cx="266" cy="107" r="2"/><circle class="st1" cx="1886" cy="1838" r="6"/><circle class="st1" cx="1386" cy="1198" r="5"/><circle class="st1" cx="149" cy="1861" r="8"/><circle class="st1" cx="1781" cy="1045" r="2"/><circle class="st1" cx="957" cy="1710" r="8"/><circle class="st1" cx="827" cy="1364" r="6"/><circle class="st1" cx="54" cy="482" r="4"/><circle class="st1" cx="820" cy="1495" r="8"/><circle class="st1" cx="977" cy="222" r="5"/><circle class="st1" cx="633" cy="672" r="7"/><circle class="st1" cx="781" cy="436" r="7"/><circle class="st1" cx="1332" cy="1188" r="7"/><circle class="st1" cx="575" cy="1260" r="8"/><circle class="st1" cx="706" cy="1011" r="3"/><circle class="st1" cx="1320" cy="19" r="2"/><circle class="st1" cx="1788" cy="1271" r="4"/><circle class="st1" cx="633" cy="944" r="2"/><circle class="st1" cx="1882" cy="1215" r="3"/><circle class="st1" cx="811" cy="1788" r="2"/><circle class="st1" cx="279" cy="1422" r="8"/><circle class="st1" cx="1353" cy="1031" r="7"/><circle class="st1" cx="139" cy="543" r="4"/><circle class="st1" cx="1910" cy="1683" r="4"/><circle class="st1" cx="295" cy="503" r="5"/><circle class="st1" cx="367" cy="641" r="7"/><circle class="st1" cx="411" cy="1347" r="2"/><circle class="st1" cx="1751" cy="684" r="6"/><circle class="st1" cx="1312" cy="1215" r="8"/><circle class="st1" cx="796" cy="1585" r="8"/><circle class="st1" cx="117" cy="1300" r="7"/><circle class="st1" cx="1284" cy="1353" r="4"/><circle class="st1" cx="887" cy="1079" r="2"/><circle class="st1" cx="380" cy="548" r="3"/><circle class="st1" cx="1132" cy="57" r="4"/><circle class="st1" cx="776" cy="221" r="3"/><circle class="st1" cx="1531" cy="309" r="3"/><circle class="st1" cx="80" cy="1659" r="6"/><circle class="st1" cx="881" cy="1787" r="2"/><circle class="st1" cx="1081" cy="252" r="2"/><circle class="st1" cx="1044" cy="583" r="5"/><circle class="st1" cx="1672" cy="329" r="7"/><circle class="st1" cx="1276" cy="221" r="3"/><circle class="st1" cx="1724" cy="281" r="7"/><circle class="st1" cx="295" cy="525" r="6"/><circle class="st1" cx="613" cy="149" r="6"/><circle class="st1" cx="18" cy="1736" r="5"/><circle class="st1" cx="933" cy="1167" r="7"/><circle class="st1" cx="270" cy="1798" r="8"/><circle class="st1" cx="1722" cy="97" r="4"/><circle class="st1" cx="41" cy="925" r="5"/><circle class="st1" cx="762" cy="776" r="4"/><circle class="st1" cx="1644" cy="986" r="2"/><circle class="st1" cx="1435" cy="1708" r="3"/><circle class="st1" cx="1847" cy="1183" r="4"/><circle class="st1" cx="1373" cy="687" r="4"/><circle class="st1" cx="820" cy="330" r="6"/><circle class="st1" cx="421" cy="1383" r="5"/><circle class="st1" cx="1567" cy="1337" r="2"/><circle class="st1" cx="526" cy="1480" r="4"/><circle class="st1" cx="1567" cy="1598" r="2"/><circle class="st1" cx="995" cy="145" r="5"/><circle class="st1" cx="715" cy="976" r="8"/><circle class="st1" cx="1551" cy="564" r="4"/><circle class="st1" cx="984" cy="1090" r="8"/><circle class="st1" cx="781" cy="706" r="5"/><circle class="st1" cx="1053" cy="863" r="7"/><circle class="st1" cx="1523" cy="700" r="5"/><circle class="st1" cx="264" cy="69" r="4"/><circle class="st1" cx="631" cy="135" r="8"/><circle class="st1" cx="774" cy="551" r="4"/><circle class="st1" cx="784" cy="249" r="5"/><circle class="st1" cx="897" cy="804" r="3"/><circle class="st1" cx="917" cy="1389" r="8"/><circle class="st1" cx="1881" cy="706" r="6"/><circle class="st1" cx="1497" cy="767" r="5"/><circle class="st1" cx="508" cy="122" r="7"/><circle class="st1" cx="821" cy="1216" r="8"/><circle class="st1" cx="735" cy="411" r="2"/><circle class="st1" cx="110" cy="361" r="4"/><circle class="st1" cx="713" cy="71" r="2"/><circle class="st1" cx="27" cy="1705" r="3"/><circle class="st1" cx="1528" cy="1192" r="4"/><circle class="st1" cx="403" cy="639" r="8"/><circle class="st1" cx="1520" cy="670" r="3"/><circle class="st1" cx="1637" cy="583" r="8"/><circle class="st1" cx="1692" cy="326" r="3"/><circle class="st1" cx="1545" cy="648" r="4"/><circle class="st1" cx="1851" cy="149" r="4"/><circle class="st1" cx="1308" cy="502" r="2"/><circle class="st1" cx="298" cy="1157" r="7"/><circle class="st1" cx="659" cy="104" r="7"/><circle class="st1" cx="450" cy="656" r="5"/><circle class="st1" cx="808" cy="631" r="3"/><circle class="st1" cx="1029" cy="1741" r="3"/><circle class="st1" cx="1318" cy="238" r="4"/><circle class="st1" cx="78" cy="745" r="7"/><circle class="st1" cx="1905" cy="589" r="2"/><circle class="st1" cx="1030" cy="981" r="8"/><circle class="st1" cx="684" cy="408" r="2"/><circle class="st1" cx="1322" cy="1544" r="2"/><circle class="st1" cx="17" cy="1751" r="8"/><circle class="st1" cx="1292" cy="105" r="4"/><circle class="st1" cx="680" cy="1904" r="4"/><circle class="st1" cx="1067" cy="1075" r="8"/><circle class="st1" cx="499" cy="683" r="2"/><circle class="st1" cx="782" cy="1095" r="8"/><circle class="st1" cx="1587" cy="1417" r="4"/><circle class="st1" cx="32" cy="1580" r="7"/><circle class="st1" cx="451" cy="483" r="6"/><circle class="st1" cx="397" cy="1403" r="8"/><circle class="st1" cx="425" cy="1687" r="6"/><circle class="st1" cx="1572" cy="206" r="3"/><circle class="st1" cx="1799" cy="445" r="8"/><circle class="st1" cx="614" cy="242" r="6"/><circle class="st1" cx="464" cy="1291" r="2"/><circle class="st1" cx="97" cy="922" r="4"/><circle class="st1" cx="1283" cy="1286" r="8"/><circle class="st1" cx="1290" cy="972" r="5"/><circle class="st1" cx="68" cy="1658" r="5"/><circle class="st1" cx="1401" cy="930" r="2"/><circle class="st1" cx="58" cy="1401" r="8"/><circle class="st1" cx="169" cy="335" r="7"/><circle class="st1" cx="1520" cy="655" r="7"/><circle class="st1" cx="748" cy="994" r="2"/><circle class="st1" cx="743" cy="622" r="6"/><circle class="st1" cx="1580" cy="1799" r="6"/><circle class="st1" cx="1791" cy="1138" r="4"/><circle class="st1" cx="752" cy="1265" r="6"/><circle class="st1" cx="1096" cy="756" r="4"/><circle class="st1" cx="604" cy="1422" r="7"/><circle class="st1" cx="1108" cy="1102" r="3"/><circle class="st1" cx="1484" cy="499" r="2"/><circle class="st1" cx="1243" cy="701" r="4"/><circle class="st1" cx="934" cy="987" r="6"/><circle class="st1" cx="205" cy="1515" r="4"/><circle class="st1" cx="1895" cy="883" r="6"/><circle class="st1" cx="1403" cy="438" r="4"/><circle class="st1" cx="139" cy="144" r="5"/><circle class="st1" cx="874" cy="1909" r="8"/><circle class="st1" cx="855" cy="81" r="3"/><circle class="st1" cx="1714" cy="672" r="5"/><circle class="st1" cx="1295" cy="1318" r="3"/><circle class="st1" cx="1698" cy="757" r="6"/><circle class="st1" cx="988" cy="1148" r="7"/><circle class="st1" cx="1068" cy="802" r="8"/><circle class="st1" cx="1615" cy="1202" r="6"/><circle class="st1" cx="65" cy="1701" r="5"/><circle class="st1" cx="57" cy="641" r="3"/><circle class="st1" cx="680" cy="976" r="2"/><circle class="st1" cx="1589" cy="966" r="2"/><circle class="st1" cx="132" cy="621" r="4"/><circle class="st1" cx="428" cy="217" r="2"/><circle class="st1" cx="796" cy="1883" r="2"/><circle class="st1" cx="1174" cy="617" r="3"/><circle class="st1" cx="631" cy="462" r="8"/><circle class="st1" cx="1809" cy="1567" r="4"/><circle class="st1" cx="160" cy="1696" r="7"/><circle class="st1" cx="477" cy="1471" r="8"/><circle class="st1" cx="723" cy="1012" r="7"/><circle class="st1" cx="1371" cy="1525" r="3"/><circle class="st1" cx="625" cy="132" r="8"/><circle class="st1" cx="691" cy="1481" r="5"/><circle class="st1" cx="1719" cy="364" r="6"/><circle class="st1" cx="1659" cy="699" r="3"/><circle class="st1" cx="885" cy="75" r="4"/><circle class="st1" cx="851" cy="697" r="8"/><circle class="st1" cx="24" cy="1472" r="6"/><circle class="st1" cx="464" cy="298" r="2"/><circle class="st1" cx="297" cy="662" r="3"/><circle class="st1" cx="597" cy="282" r="4"/><circle class="st1" cx="252" cy="936" r="5"/><circle class="st1" cx="331" cy="859" r="7"/><circle class="st1" cx="1598" cy="1727" r="8"/><circle class="st1" cx="882" cy="1881" r="2"/><circle class="st1" cx="673" cy="1234" r="3"/><circle class="st1" cx="1604" cy="1522" r="2"/><circle class="st1" cx="280" cy="1559" r="2"/><circle class="st1" cx="54" cy="663" r="4"/><circle class="st1" cx="743" cy="527" r="4"/><circle class="st1" cx="19" cy="1336" r="5"/><circle class="st1" cx="1106" cy="197" r="2"/><circle class="st1" cx="256" cy="1101" r="2"/><circle class="st1" cx="829" cy="1471" r="4"/><circle class="st1" cx="763" cy="884" r="5"/><circle class="st1" cx="301" cy="600" r="5"/><circle class="st1" cx="228" cy="1516" r="4"/><circle class="st1" cx="1737" cy="1161" r="4"/><circle class="st1" cx="570" cy="1533" r="7"/><circle class="st1" cx="1619" cy="409" r="2"/><circle class="st1" cx="329" cy="1470" r="5"/><circle class="st1" cx="675" cy="1515" r="6"/><circle class="st1" cx="359" cy="531" r="8"/><circle class="st1" cx="1278" cy="616" r="7"/><circle class="st1" cx="1634" cy="506" r="6"/><circle class="st1" cx="1464" cy="1027" r="5"/><circle class="st1" cx="1314" cy="1007" r="3"/><circle class="st1" cx="349" cy="1859" r="7"/><circle class="st1" cx="1103" cy="413" r="5"/><circle class="st1" cx="828" cy="336" r="8"/><circle class="st1" cx="283" cy="1867" r="5"/><circle class="st1" cx="267" cy="315" r="8"/><circle class="st1" cx="1533" cy="692" r="8"/><circle class="st1" cx="286" cy="1490" r="3"/><circle class="st1" cx="992" cy="1875" r="8"/><circle class="st1" cx="904" cy="754" r="4"/><circle class="st1" cx="25" cy="571" r="7"/><circle class="st1" cx="1345" cy="619" r="4"/><circle class="st1" cx="703" cy="1124" r="3"/><circle class="st1" cx="249" cy="133" r="7"/><circle class="st1" cx="1436" cy="744" r="5"/><circle class="st1" cx="159" cy="438" r="5"/><circle class="st1" cx="686" cy="613" r="2"/><circle class="st1" cx="1653" cy="753" r="6"/><circle class="st1" cx="897" cy="1241" r="2"/><circle class="st1" cx="1031" cy="838" r="3"/><circle class="st1" cx="1360" cy="1018" r="4"/><circle class="st1" cx="661" cy="701" r="6"/><circle class="st1" cx="1346" cy="459" r="7"/><circle class="st1" cx="353" cy="54" r="7"/><circle class="st1" cx="72" cy="1511" r="2"/><circle class="st1" cx="665" cy="150" r="2"/><circle class="st1" cx="416" cy="595" r="2"/><circle class="st1" cx="600" cy="1651" r="6"/><circle class="st1" cx="825" cy="250" r="5"/><circle class="st1" cx="370" cy="138" r="3"/><circle class="st1" cx="970" cy="1374" r="8"/><circle class="st1" cx="248" cy="483" r="6"/><circle class="st1" cx="1018" cy="1327" r="8"/><circle class="st1" cx="1012" cy="965" r="8"/><circle class="st1" cx="1129" cy="879" r="7"/><circle class="st1" cx="442" cy="780" r="6"/><circle class="st1" cx="1865" cy="348" r="5"/><circle class="st1" cx="991" cy="370" r="2"/><circle class="st1" cx="485" cy="1677" r="4"/><circle class="st1" cx="1014" cy="1891" r="7"/><circle class="st1" cx="1384" cy="637" r="6"/><circle class="st1" cx="718" cy="857" r="2"/><circle class="st1" cx="1650" cy="1117" r="6"/><circle class="st1" cx="991" cy="1231" r="2"/><circle class="st1" cx="318" cy="51" r="4"/><circle class="st1" cx="1444" cy="105" r="6"/><circle class="st1" cx="1723" cy="579" r="3"/><circle class="st1" cx="1882" cy="1495" r="4"/><circle class="st1" cx="100" cy="345" r="3"/><circle class="st1" cx="1630" cy="895" r="7"/><circle class="st1" cx="1886" cy="1807" r="4"/><circle class="st1" cx="1529" cy="430" r="7"/><circle class="st1" cx="1822" cy="101" r="8"/><circle class="st1" cx="1385" cy="56" r="8"/><circle class="st1" cx="1733" cy="1702" r="8"/><circle class="st1" cx="305" cy="699" r="8"/><circle class="st1" cx="1523" cy="781" r="3"/><circle class="st1" cx="664" cy="891" r="3"/><circle class="st1" cx="1327" cy="1781" r="6"/><circle class="st1" cx="846" cy="285" r="4"/><circle class="st1" cx="91" cy="1553" r="6"/><circle class="st1" cx="1421" cy="1810" r="8"/><circle class="st1" cx="1191" cy="1672" r="3"/><circle class="st1" cx="1320" cy="230" r="4"/><circle class="st1" cx="822" cy="1038" r="3"/><circle class="st1" cx="1508" cy="416" r="8"/><circle class="st1" cx="350" cy="1293" r="2"/><circle class="st1" cx="1038" cy="213" r="4"/><circle class="st1" cx="841" cy="637" r="3"/><circle class="st1" cx="510" cy="288" r="8"/><circle class="st1" cx="849" cy="1037" r="6"/><circle class="st1" cx="1732" cy="1664" r="2"/><circle class="st1" cx="505" cy="356" r="8"/><circle class="st1" cx="1336" cy="37" r="3"/><circle class="st1" cx="314" cy="573" r="2"/><circle class="st1" cx="1277" cy="814" r="7"/><circle class="st1" cx="1727" cy="678" r="6"/><circle class="st1" cx="1297" cy="1590" r="2"/><circle class="st1" cx="184" cy="1616" r="5"/><circle class="st1" cx="1428" cy="762" r="6"/><circle class="st1" cx="756" cy="565" r="3"/><circle class="st1" cx="1083" cy="1384" r="5"/><circle class="st1" cx="680" cy="922" r="4"/><circle class="st1" cx="127" cy="771" r="6"/><circle class="st1" cx="754" cy="927" r="8"/><circle class="st1" cx="244" cy="154" r="4"/><circle class="st1" cx="199" cy="1339" r="5"/><circle class="st1" cx="645" cy="1594" r="5"/><circle class="st1" cx="1289" cy="1018" r="4"/><circle class="st1" cx="340" cy="509" r="5"/><circle class="st1" cx="1905" cy="1007" r="5"/><circle class="st1" cx="1379" cy="1491" r="4"/><circle class="st1" cx="1851" cy="1618" r="5"/><circle class="st1" cx="836" cy="1761" r="5"/><circle class="st1" cx="231" cy="358" r="6"/><circle class="st1" cx="1438" cy="78" r="2"/><circle class="st1" cx="18" cy="863" r="5"/><circle class="st1" cx="1471" cy="79" r="7"/><circle class="st1" cx="258" cy="698" r="8"/><circle class="st1" cx="476" cy="1042" r="4"/><circle class="st1" cx="1030" cy="244" r="3"/><circle class="st1" cx="348" cy="556" r="6"/><circle class="st1" cx="1305" cy="1365" r="4"/><circle class="st1" cx="1320" cy="1773" r="7"/><circle class="st1" cx="893" cy="1134" r="3"/><circle class="st1" cx="798" cy="428" r="5"/><circle class="st1" cx="1345" cy="1338" r="2"/><circle class="st1" cx="1438" cy="1837" r="2"/><circle class="st1" cx="1824" cy="870" r="2"/><circle class="st1" cx="1207" cy="1765" r="8"/><circle class="st1" cx="1776" cy="770" r="2"/><circle class="st1" cx="195" cy="1635" r="4"/><circle class="st1" cx="1276" cy="633" r="6"/><circle class="st1" cx="889" cy="640" r="8"/><circle class="st1" cx="749" cy="941" r="2"/><circle class="st1" cx="90" cy="1265" r="3"/><circle class="st1" cx="778" cy="961" r="8"/><circle class="st1" cx="342" cy="410" r="6"/><circle class="st1" cx="953" cy="1521" r="6"/><circle class="st1" cx="1088" cy="361" r="8"/><circle class="st1" cx="1015" cy="869" r="6"/><circle class="st1" cx="1562" cy="1463" r="3"/><circle class="st1" cx="848" cy="260" r="8"/><circle class="st1" cx="677" cy="1742" r="2"/><circle class="st1" cx="548" cy="1176" r="2"/><circle class="st1" cx="488" cy="823" r="6"/><circle class="st1" cx="854" cy="1436" r="2"/><circle class="st1" cx="1360" cy="698" r="8"/><circle class="st1" cx="1832" cy="241" r="5"/><circle class="st1" cx="1266" cy="1065" r="6"/><circle class="st1" cx="669" cy="578" r="5"/><circle class="st1" cx="1133" cy="1626" r="8"/><circle class="st1" cx="144" cy="305" r="3"/><circle class="st1" cx="1552" cy="670" r="6"/><circle class="st1" cx="1889" cy="1665" r="8"/><circle class="st1" cx="1089" cy="312" r="3"/><circle class="st1" cx="1458" cy="1007" r="3"/><circle class="st1" cx="824" cy="1872" r="2"/><circle class="st1" cx="1188" cy="765" r="6"/><circle class="st1" cx="992" cy="1105" r="7"/><circle class="st1" cx="169" cy="1337" r="6"/><circle class="st1" cx="147" cy="1874" r="5"/><circle class="st1" cx="1219" cy="1899" r="8"/><circle class="st1" cx="801" cy="285" r="3"/><circle class="st1" cx="1416" cy="1542" r="4"/><circle class="st1" cx="800" cy="1120" r="7"/><circle class="st1" cx="1464" cy="604" r="8"/><circle class="st1" cx="594" cy="1533" r="4"/><circle class="st1" cx="725" cy="91" r="8"/><circle class="st1" cx="968" cy="1329" r="6"/><circle class="st1" cx="292" cy="588" r="7"/><circle class="st1" cx="1303" cy="1405" r="2"/><circle class="st1" cx="530" cy="912" r="7"/><circle class="st1" cx="1019" cy="1462" r="4"/><circle class="st1" cx="1062" cy="206" r="4"/><circle class="st1" cx="1871" cy="1757" r="3"/><circle class="st1" cx="861" cy="603" r="2"/><circle class="st1" cx="387" cy="1467" r="6"/><circle class="st1" cx="1139" cy="1339" r="3"/><circle class="st1" cx="572" cy="1343" r="7"/><circle class="st1" cx="407" cy="370" r="2"/><circle class="st1" cx="1202" cy="203" r="6"/><circle class="st1" cx="1788" cy="1358" r="5"/><circle class="st1" cx="1606" cy="890" r="4"/><circle class="st1" cx="264" cy="1318" r="8"/><circle class="st1" cx="68" cy="1892" r="4"/><circle class="st1" cx="883" cy="1043" r="2"/><circle class="st1" cx="1828" cy="40" r="6"/><circle class="st1" cx="1700" cy="627" r="5"/><circle class="st1" cx="1167" cy="536" r="7"/><circle class="st1" cx="822" cy="777" r="3"/><circle class="st1" cx="1547" cy="656" r="8"/><circle class="st1" cx="1673" cy="1224" r="7"/><circle class="st1" cx="618" cy="1859" r="5"/><circle class="st1" cx="1186" cy="1237" r="7"/><circle class="st1" cx="1648" cy="221" r="5"/><circle class="st1" cx="47" cy="1424" r="3"/><circle class="st1" cx="878" cy="1532" r="4"/><circle class="st1" cx="331" cy="1275" r="7"/><circle class="st1" cx="1036" cy="511" r="8"/><circle class="st1" cx="1514" cy="1690" r="5"/><circle class="st1" cx="1538" cy="430" r="6"/><circle class="st1" cx="1666" cy="1048" r="3"/><circle class="st1" cx="1438" cy="329" r="5"/><circle class="st1" cx="403" cy="540" r="5"/><circle class="st1" cx="1546" cy="1185" r="8"/><circle class="st1" cx="733" cy="799" r="3"/><circle class="st1" cx="1538" cy="1371" r="4"/><circle class="st1" cx="585" cy="643" r="7"/><circle class="st1" cx="1493" cy="905" r="7"/><circle class="st1" cx="1101" cy="491" r="8"/><circle class="st1" cx="431" cy="1406" r="7"/><circle class="st1" cx="961" cy="120" r="7"/><circle class="st1" cx="1747" cy="1583" r="8"/><circle class="st1" cx="1339" cy="343" r="7"/><circle class="st1" cx="167" cy="695" r="4"/><circle class="st1" cx="1860" cy="1548" r="6"/><circle class="st1" cx="1585" cy="1714" r="4"/><circle class="st1" cx="1780" cy="1604" r="2"/><circle class="st1" cx="783" cy="417" r="6"/><circle class="st1" cx="1806" cy="479" r="6"/><circle class="st1" cx="1286" cy="1801" r="3"/><circle class="st1" cx="1842" cy="489" r="6"/><circle class="st1" cx="1661" cy="408" r="8"/><circle class="st1" cx="216" cy="139" r="4"/><circle class="st1" cx="467" cy="1676" r="5"/><circle class="st1" cx="301" cy="1843" r="3"/><circle class="st1" cx="29" cy="816" r="6"/><circle class="st1" cx="729" cy="690" r="3"/><circle class="st1" cx="1688" cy="393" r="2"/><circle class="st1" cx="367" cy="1136" r="4"/><circle class="st1" cx="1825" cy="202" r="5"/><circle class="st1" cx="780" cy="1149" r="5"/><circle class="st1" cx="1248" cy="838" r="4"/><circle class="st1" cx="935" cy="64" r="2"/><circle class="st1" cx="1387" cy="1616" r="8"/><circle class="st1" cx="1681" cy="1429" r="4"/><circle class="st1" cx="973" cy="1011" r="4"/><circle class="st1" cx="1449" cy="449" r="6"/><circle class="st1" cx="945" cy="1715" r="6"/><circle class="st1" cx="639" cy="65" r="8"/><circle class="st1" cx="437" cy="1313" r="5"/><circle class="st1" cx="688" cy="283" r="5"/><circle class="st1" cx="790" cy="1116" r="7"/><circle class="st1" cx="21" cy="714" r="2"/><circle class="st1" cx="511" cy="913" r="2"/><circle class="st1" cx="915" cy="826" r="4"/><circle class="st1" cx="859" cy="1398" r="4"/><circle class="st1" cx="1625" cy="1063" r="2"/><circle class="st1" cx="466" cy="50" r="6"/><circle class="st1" cx="1428" cy="391" r="7"/><circle class="st1" cx="1547" cy="1594" r="3"/><circle class="st1" cx="754" cy="66" r="7"/><circle class="st1" cx="394" cy="416" r="5"/><circle class="st1" cx="1031" cy="1669" r="2"/><circle class="st1" cx="1551" cy="1635" r="7"/><circle class="st1" cx="1298" cy="682" r="6"/><circle class="st1" cx="409" cy="656" r="5"/><circle class="st1" cx="204" cy="1448" r="4"/><circle class="st1" cx="423" cy="512" r="6"/><circle class="st1" cx="835" cy="418" r="4"/><circle class="st1" cx="353" cy="1369" r="8"/><circle class="st1" cx="63" cy="1407" r="7"/><circle class="st1" cx="619" cy="34" r="3"/><circle class="st1" cx="624" cy="1684" r="3"/><circle class="st1" cx="1046" cy="1460" r="4"/><circle class="st1" cx="118" cy="206" r="6"/><circle class="st1" cx="32" cy="1002" r="7"/><circle class="st1" cx="1519" cy="1577" r="6"/><circle class="st1" cx="1387" cy="556" r="6"/><circle class="st1" cx="757" cy="1747" r="7"/><circle class="st1" cx="521" cy="1546" r="3"/><circle class="st1" cx="877" cy="482" r="7"/><circle class="st1" cx="224" cy="1158" r="2"/><circle class="st1" cx="664" cy="438" r="8"/><circle class="st1" cx="359" cy="1061" r="7"/><circle class="st1" cx="524" cy="287" r="3"/><circle class="st1" cx="497" cy="100" r="4"/><circle class="st1" cx="1216" cy="150" r="5"/><circle class="st1" cx="1789" cy="360" r="4"/><circle class="st1" cx="439" cy="706" r="6"/><circle class="st1" cx="665" cy="1745" r="2"/><circle class="st1" cx="1501" cy="1479" r="4"/><circle class="st1" cx="1694" cy="1735" r="8"/><circle class="st1" cx="583" cy="1638" r="5"/><circle class="st1" cx="327" cy="154" r="5"/><circle class="st1" cx="879" cy="145" r="4"/><circle class="st1" cx="769" cy="690" r="8"/><circle class="st1" cx="630" cy="938" r="2"/><circle class="st1" cx="321" cy="1018" r="2"/><circle class="st1" cx="1075" cy="1232" r="4"/><circle class="st1" cx="622" cy="1864" r="3"/><circle class="st1" cx="1512" cy="175" r="3"/><circle class="st1" cx="1299" cy="257" r="6"/><circle class="st1" cx="232" cy="428" r="2"/><circle class="st1" cx="523" cy="195" r="2"/><circle class="st1" cx="749" cy="1686" r="2"/><circle class="st1" cx="1321" cy="809" r="5"/><circle class="st1" cx="1703" cy="1200" r="8"/><circle class="st1" cx="1886" cy="534" r="6"/><circle class="st1" cx="304" cy="781" r="7"/><circle class="st1" cx="1489" cy="1830" r="8"/><circle class="st1" cx="37" cy="483" r="2"/><circle class="st1" cx="1873" cy="1044" r="3"/><circle class="st1" cx="1889" cy="1863" r="7"/><circle class="st1" cx="991" cy="1802" r="2"/><circle class="st1" cx="1179" cy="845" r="2"/><circle class="st1" cx="569" cy="1178" r="7"/><circle class="st1" cx="550" cy="871" r="2"/><circle class="st1" cx="635" cy="251" r="4"/><circle class="st1" cx="123" cy="490" r="4"/><circle class="st1" cx="139" cy="266" r="6"/><circle class="st1" cx="746" cy="609" r="2"/><circle class="st1" cx="335" cy="1098" r="6"/><circle class="st1" cx="1124" cy="28" r="4"/><circle class="st1" cx="1487" cy="1500" r="2"/><circle class="st1" cx="1464" cy="710" r="5"/><circle class="st1" cx="1168" cy="1728" r="6"/><circle class="st1" cx="347" cy="1530" r="7"/><circle class="st1" cx="242" cy="1372" r="7"/><circle class="st1" cx="1897" cy="508" r="8"/><circle class="st1" cx="173" cy="1671" r="4"/><circle class="st1" cx="936" cy="108" r="5"/><circle class="st1" cx="1489" cy="10" r="2"/><circle class="st1" cx="1629" cy="1539" r="3"/><circle class="st1" cx="1116" cy="1257" r="3"/><circle class="st1" cx="844" cy="499" r="6"/><circle class="st1" cx="679" cy="286" r="8"/><circle class="st1" cx="1385" cy="1580" r="4"/><circle class="st1" cx="1392" cy="621" r="2"/><circle class="st1" cx="1359" cy="1619" r="3"/><circle class="st1" cx="524" cy="268" r="7"/><circle class="st1" cx="1494" cy="543" r="3"/><circle class="st1" cx="1850" cy="1389" r="4"/><circle class="st1" cx="66" cy="1590" r="6"/><circle class="st1" cx="524" cy="474" r="3"/><circle class="st1" cx="313" cy="168" r="8"/><circle class="st1" cx="821" cy="1518" r="3"/><circle class="st1" cx="1030" cy="653" r="2"/><circle class="st1" cx="1486" cy="1225" r="7"/><circle class="st1" cx="351" cy="1106" r="5"/><circle class="st1" cx="1789" cy="1347" r="7"/><circle class="st1" cx="119" cy="808" r="8"/><circle class="st1" cx="1891" cy="709" r="4"/><circle class="st1" cx="1309" cy="1399" r="3"/><circle class="st1" cx="1850" cy="944" r="8"/><circle class="st1" cx="1018" cy="1706" r="4"/><circle class="st1" cx="1340" cy="747" r="7"/><circle class="st1" cx="1267" cy="1617" r="6"/><circle class="st1" cx="979" cy="1174" r="7"/><circle class="st1" cx="445" cy="11" r="2"/><circle class="st1" cx="256" cy="1422" r="2"/><circle class="st1" cx="1200" cy="1545" r="2"/><circle class="st1" cx="1195" cy="879" r="2"/><circle class="st1" cx="1065" cy="1753" r="3"/><circle class="st1" cx="1084" cy="1212" r="2"/><circle class="st1" cx="1769" cy="41" r="8"/><circle class="st1" cx="1586" cy="131" r="3"/><circle class="st1" cx="1664" cy="143" r="3"/><circle class="st1" cx="717" cy="1582" r="2"/><circle class="st1" cx="1100" cy="1637" r="7"/><circle class="st1" cx="1236" cy="1081" r="4"/><circle class="st1" cx="706" cy="1216" r="3"/><circle class="st1" cx="1001" cy="1139" r="4"/><circle class="st1" cx="1716" cy="333" r="4"/><circle class="st1" cx="551" cy="296" r="7"/><circle class="st1" cx="142" cy="1448" r="4"/><circle class="st1" cx="1708" cy="22" r="2"/><circle class="st1" cx="1364" cy="548" r="6"/><circle class="st1" cx="544" cy="757" r="3"/><circle class="st1" cx="668" cy="147" r="6"/><circle class="st1" cx="174" cy="1202" r="4"/><circle class="st1" cx="513" cy="92" r="4"/><circle class="st1" cx="258" cy="50" r="5"/><circle class="st1" cx="251" cy="1813" r="4"/><circle class="st1" cx="861" cy="976" r="5"/><circle class="st1" cx="1635" cy="1819" r="5"/><circle class="st1" cx="614" cy="1579" r="5"/><circle class="st1" cx="262" cy="685" r="4"/><circle class="st1" cx="169" cy="1495" r="6"/><circle class="st1" cx="1148" cy="1385" r="6"/><circle class="st1" cx="15" cy="202" r="5"/><circle class="st1" cx="72" cy="1331" r="2"/><circle class="st1" cx="143" cy="1572" r="4"/><circle class="st1" cx="32" cy="1353" r="3"/><circle class="st1" cx="1285" cy="875" r="4"/><circle class="st1" cx="284" cy="1504" r="8"/><circle class="st1" cx="1302" cy="1694" r="3"/><circle class="st1" cx="54" cy="1014" r="3"/><circle class="st1" cx="1325" cy="302" r="6"/><circle class="st1" cx="1270" cy="196" r="4"/><circle class="st1" cx="544" cy="1467" r="8"/><circle class="st1" cx="1031" cy="217" r="3"/><circle class="st1" cx="475" cy="581" r="6"/><circle class="st1" cx="69" cy="374" r="5"/><circle class="st1" cx="641" cy="566" r="3"/><circle class="st1" cx="560" cy="914" r="2"/><circle class="st1" cx="212" cy="1849" r="8"/><circle class="st1" cx="1423" cy="956" r="5"/><circle class="st1" cx="618" cy="1460" r="4"/><circle class="st1" cx="749" cy="1778" r="5"/><circle class="st1" cx="1334" cy="892" r="4"/><circle class="st1" cx="1216" cy="112" r="5"/><circle class="st1" cx="1471" cy="420" r="7"/><circle class="st1" cx="1454" cy="1089" r="5"/><circle class="st1" cx="296" cy="1567" r="6"/><circle class="st1" cx="1290" cy="710" r="2"/><circle class="st1" cx="1475" cy="397" r="3"/><circle class="st1" cx="391" cy="198" r="2"/><circle class="st1" cx="189" cy="139" r="6"/><circle class="st1" cx="22" cy="481" r="3"/><circle class="st1" cx="1563" cy="1663" r="5"/><circle class="st1" cx="863" cy="88" r="2"/><circle class="st1" cx="1391" cy="198" r="2"/><circle class="st1" cx="1261" cy="998" r="8"/><circle class="st1" cx="356" cy="1026" r="2"/><circle class="st1" cx="1313" cy="1828" r="5"/><circle class="st1" cx="196" cy="1350" r="2"/><circle class="st1" cx="279" cy="922" r="7"/><circle class="st1" cx="1294" cy="1874" r="4"/><circle class="st1" cx="1420" cy="735" r="8"/><circle class="st1" cx="1486" cy="1505" r="3"/><circle class="st1" cx="1650" cy="1896" r="5"/><circle class="st1" cx="1847" cy="874" r="6"/><circle class="st1" cx="886" cy="1774" r="7"/><circle class="st1" cx="697" cy="821" r="8"/><circle class="st1" cx="1247" cy="1780" r="2"/><circle class="st1" cx="727" cy="1492" r="5"/><circle class="st1" cx="759" cy="1293" r="8"/><circle class="st1" cx="1218" cy="50" r="4"/><circle class="st1" cx="1578" cy="175" r="3"/><circle class="st1" cx="1387" cy="242" r="6"/><circle class="st1" cx="1373" cy="94" r="4"/><circle class="st1" cx="1526" cy="849" r="6"/><circle class="st1" cx="1764" cy="782" r="2"/><circle class="st1" cx="1373" cy="885" r="7"/><circle class="st1" cx="452" cy="1148" r="6"/><circle class="st1" cx="1672" cy="1797" r="5"/><circle class="st1" cx="673" cy="791" r="6"/><circle class="st1" cx="1051" cy="660" r="4"/><circle class="st1" cx="977" cy="885" r="7"/><circle class="st1" cx="1292" cy="898" r="4"/><circle class="st1" cx="1745" cy="222" r="2"/><circle class="st1" cx="559" cy="1425" r="7"/><circle class="st1" cx="1750" cy="667" r="4"/><circle class="st1" cx="1853" cy="288" r="4"/><circle class="st1" cx="819" cy="1061" r="3"/><circle class="st1" cx="373" cy="961" r="2"/><circle class="st1" cx="1036" cy="336" r="7"/><circle class="st1" cx="874" cy="372" r="3"/><circle class="st1" cx="1630" cy="1087" r="7"/><circle class="st1" cx="312" cy="617" r="7"/><circle class="st1" cx="68" cy="1767" r="4"/><circle class="st1" cx="220" cy="1095" r="7"/><circle class="st1" cx="1215" cy="360" r="6"/><circle class="st1" cx="1560" cy="1850" r="8"/><circle class="st1" cx="473" cy="1730" r="3"/><circle class="st1" cx="662" cy="1647" r="5"/><circle class="st1" cx="65" cy="1218" r="7"/><circle class="st1" cx="1697" cy="746" r="3"/><circle class="st1" cx="202" cy="312" r="7"/><circle class="st1" cx="1175" cy="211" r="8"/><circle class="st1" cx="1598" cy="589" r="8"/><circle class="st1" cx="1766" cy="1315" r="2"/><circle class="st1" cx="174" cy="1151" r="5"/><circle class="st1" cx="338" cy="263" r="3"/><circle class="st1" cx="330" cy="1416" r="8"/><circle class="st1" cx="662" cy="1364" r="5"/><circle class="st1" cx="549" cy="1759" r="6"/><circle class="st1" cx="1547" cy="207" r="5"/><circle class="st1" cx="253" cy="657" r="5"/><circle class="st1" cx="1489" cy="1038" r="6"/><circle class="st1" cx="1265" cy="459" r="7"/><circle class="st1" cx="268" cy="1683" r="7"/><circle class="st1" cx="256" cy="465" r="8"/><circle class="st1" cx="1881" cy="1205" r="2"/><circle class="st1" cx="98" cy="1646" r="5"/><circle class="st1" cx="595" cy="323" r="2"/><circle class="st1" cx="476" cy="924" r="7"/><circle class="st1" cx="1662" cy="1508" r="5"/><circle class="st1" cx="533" cy="100" r="5"/><circle class="st1" cx="626" cy="1002" r="4"/><circle class="st1" cx="1749" cy="334" r="3"/><circle class="st1" cx="751" cy="983" r="2"/><circle class="st1" cx="1245" cy="931" r="6"/><circle class="st1" cx="1325" cy="538" r="7"/><circle class="st1" cx="1527" cy="1658" r="8"/><circle class="st1" cx="360" cy="219" r="4"/><circle class="st1" cx="1470" cy="1453" r="3"/><circle class="st1" cx="648" cy="27" r="5"/><circle class="st1" cx="92" cy="1842" r="2"/><circle class="st1" cx="610" cy="1733" r="7"/><circle class="st1" cx="436" cy="1566" r="4"/><circle class="st1" cx="866" cy="1524" r="4"/><circle class="st1" cx="217" cy="323" r="8"/><circle class="st1" cx="1052" cy="789" r="5"/><circle class="st1" cx="1158" cy="1572" r="4"/><circle class="st1" cx="865" cy="985" r="5"/><circle class="st1" cx="782" cy="86" r="6"/><circle class="st1" cx="747" cy="182" r="2"/><circle class="st1" cx="1140" cy="535" r="6"/><circle class="st1" cx="223" cy="305" r="7"/><circle class="st1" cx="338" cy="1207" r="2"/><circle class="st1" cx="1396" cy="93" r="7"/><circle class="st1" cx="638" cy="934" r="8"/><circle class="st1" cx="1867" cy="1361" r="8"/><circle class="st1" cx="886" cy="990" r="5"/><circle class="st1" cx="805" cy="596" r="7"/><circle class="st1" cx="1586" cy="1458" r="4"/><circle class="st1" cx="487" cy="1700" r="8"/><circle class="st1" cx="1742" cy="1428" r="8"/><circle class="st1" cx="889" cy="646" r="4"/><circle class="st1" cx="1814" cy="310" r="6"/><circle class="st1" cx="714" cy="818" r="7"/><circle class="st1" cx="71" cy="1659" r="7"/><circle class="st1" cx="1327" cy="515" r="8"/><circle class="st1" cx="1291" cy="930" r="6"/><circle class="st1" cx="57" cy="1888" r="4"/><circle class="st1" cx="1839" cy="1812" r="4"/><circle class="st1" cx="1113" cy="1060" r="5"/><circle class="st1" cx="227" cy="259" r="4"/><circle class="st1" cx="1429" cy="1294" r="4"/><circle class="st1" cx="686" cy="1193" r="2"/><circle class="st1" cx="1473" cy="129" r="8"/><circle class="st1" cx="1786" cy="311" r="6"/><circle class="st1" cx="1883" cy="1832" r="7"/><circle class="st1" cx="1074" cy="572" r="2"/><circle class="st1" cx="104" cy="524" r="8"/><circle class="st1" cx="1001" cy="519" r="2"/><circle class="st1" cx="369" cy="610" r="8"/><circle class="st1" cx="863" cy="946" r="8"/><circle class="st1" cx="1831" cy="1666" r="3"/><circle class="st1" cx="518" cy="1876" r="5"/><circle class="st1" cx="1426" cy="1479" r="4"/><circle class="st1" cx="811" cy="950" r="5"/><circle class="st1" cx="1509" cy="1397" r="3"/><circle class="st1" cx="884" cy="1902" r="6"/><circle class="st1" cx="514" cy="903" r="7"/><circle class="st1" cx="150" cy="1001" r="3"/><circle class="st1" cx="269" cy="1715" r="6"/><circle class="st1" cx="1002" cy="1483" r="4"/><circle class="st1" cx="1665" cy="1001" r="8"/><circle class="st1" cx="1246" cy="983" r="5"/><circle class="st1" cx="1910" cy="1099" r="5"/><circle class="st1" cx="1150" cy="1799" r="7"/><circle class="st1" cx="1054" cy="187" r="2"/><circle class="st1" cx="485" cy="1176" r="6"/><circle class="st1" cx="993" cy="1659" r="7"/><circle class="st1" cx="1668" cy="1553" r="6"/><circle class="st1" cx="918" cy="646" r="3"/><circle class="st1" cx="1644" cy="78" r="2"/><circle class="st1" cx="1626" cy="1036" r="5"/><circle class="st1" cx="1321" cy="381" r="3"/><circle class="st1" cx="113" cy="728" r="3"/><circle class="st1" cx="1494" cy="1373" r="3"/><circle class="st1" cx="726" cy="592" r="8"/><circle class="st1" cx="224" cy="444" r="4"/><circle class="st1" cx="684" cy="1241" r="3"/><circle class="st1" cx="770" cy="260" r="7"/><circle class="st1" cx="622" cy="47" r="2"/><circle class="st1" cx="446" cy="1435" r="8"/><circle class="st1" cx="1763" cy="1583" r="2"/><circle class="st1" cx="782" cy="63" r="5"/><circle class="st1" cx="1117" cy="529" r="2"/><circle class="st1" cx="1025" cy="578" r="2"/><circle class="st1" cx="1589" cy="1209" r="8"/><circle class="st1" cx="241" cy="412" r="7"/><circle class="st1" cx="450" cy="897" r="6"/><circle class="st1" cx="639" cy="1182" r="6"/><circle class="st1" cx="91" cy="869" r="2"/><circle class="st1" cx="1182" cy="709" r="4"/><circle class="st1" cx="921" cy="1671" r="7"/><circle class="st1" cx="364" cy="1244" r="6"/><circle class="st1" cx="1694" cy="1068" r="8"/><circle class="st1" cx="660" cy="485" r="4"/><circle class="st1" cx="1032" cy="886" r="3"/><circle class="st1" cx="1302" cy="1542" r="3"/><circle class="st1" cx="1163" cy="955" r="2"/><circle class="st1" cx="502" cy="1764" r="5"/><circle class="st1" cx="1759" cy="1442" r="5"/><circle class="st1" cx="1802" cy="1436" r="3"/><circle class="st1" cx="89" cy="1377" r="6"/><circle class="st1" cx="1541" cy="404" r="8"/><circle class="st1" cx="1054" cy="84" r="5"/><circle class="st1" cx="1435" cy="599" r="7"/><circle class="st1" cx="807" cy="1397" r="2"/><circle class="st1" cx="408" cy="877" r="5"/><circle class="st1" cx="423" cy="991" r="4"/><circle class="st1" cx="701" cy="207" r="2"/><circle class="st1" cx="1310" cy="1313" r="6"/><circle class="st1" cx="1656" cy="95" r="3"/><circle class="st1" cx="1456" cy="1375" r="4"/><circle class="st1" cx="428" cy="1276" r="8"/><circle class="st1" cx="1118" cy="1708" r="5"/><circle class="st1" cx="969" cy="635" r="5"/><circle class="st1" cx="1883" cy="570" r="4"/><circle class="st1" cx="1398" cy="1822" r="5"/><circle class="st1" cx="159" cy="578" r="7"/><circle class="st1" cx="1377" cy="1161" r="4"/><circle class="st1" cx="759" cy="1253" r="6"/><circle class="st1" cx="1631" cy="492" r="3"/><circle class="st1" cx="1836" cy="971" r="2"/><circle class="st1" cx="986" cy="1630" r="6"/><circle class="st1" cx="45" cy="153" r="3"/><circle class="st1" cx="1216" cy="1198" r="5"/><circle class="st1" cx="1128" cy="1830" r="4"/><circle class="st1" cx="1081" cy="1068" r="7"/><circle class="st1" cx="1402" cy="1708" r="6"/><circle class="st1" cx="906" cy="407" r="7"/><circle class="st1" cx="86" cy="1116" r="3"/><circle class="st1" cx="1853" cy="1176" r="4"/><circle class="st1" cx="1575" cy="1471" r="3"/><circle class="st1" cx="1359" cy="932" r="5"/><circle class="st1" cx="382" cy="1349" r="7"/><circle class="st1" cx="1142" cy="882" r="4"/><circle class="st1" cx="1598" cy="391" r="7"/><circle class="st1" cx="302" cy="864" r="7"/><circle class="st1" cx="235" cy="827" r="8"/><circle class="st1" cx="161" cy="1660" r="6"/><circle class="st1" cx="390" cy="1239" r="7"/><circle class="st1" cx="659" cy="223" r="5"/><circle class="st1" cx="479" cy="372" r="2"/><circle class="st1" cx="1299" cy="1594" r="5"/><circle class="st1" cx="951" cy="1190" r="5"/><circle class="st1" cx="570" cy="1522" r="6"/><circle class="st1" cx="394" cy="117" r="5"/><circle class="st1" cx="1800" cy="1684" r="2"/><circle class="st1" cx="236" cy="1663" r="7"/><circle class="st1" cx="106" cy="1135" r="5"/><circle class="st1" cx="368" cy="1589" r="8"/><circle class="st1" cx="434" cy="1251" r="6"/><circle class="st1" cx="1318" cy="13" r="2"/><circle class="st1" cx="892" cy="1873" r="7"/><circle class="st1" cx="363" cy="1433" r="2"/><circle class="st1" cx="666" cy="1726" r="4"/><circle class="st1" cx="586" cy="715" r="4"/><circle class="st1" cx="1177" cy="190" r="6"/><circle class="st1" cx="1724" cy="1132" r="7"/><circle class="st1" cx="958" cy="1426" r="3"/><circle class="st1" cx="15" cy="743" r="6"/><circle class="st1" cx="83" cy="1351" r="4"/><circle class="st1" cx="1123" cy="910" r="8"/><circle class="st1" cx="1628" cy="207" r="4"/><circle class="st1" cx="460" cy="820" r="2"/><circle class="st1" cx="1029" cy="122" r="4"/><circle class="st1" cx="419" cy="420" r="7"/><circle class="st1" cx="1807" cy="1798" r="2"/><circle class="st1" cx="937" cy="1731" r="2"/><circle class="st1" cx="225" cy="1272" r="6"/><circle class="st1" cx="168" cy="1844" r="6"/><circle class="st1" cx="1099" cy="1083" r="5"/><circle class="st1" cx="1774" cy="868" r="8"/><circle class="st1" cx="801" cy="1189" r="7"/><circle class="st1" cx="1611" cy="299" r="6"/><circle class="st1" cx="705" cy="1884" r="7"/><circle class="st1" cx="1105" cy="633" r="5"/><circle class="st1" cx="1599" cy="718" r="5"/><circle class="st1" cx="1533" cy="1396" r="2"/><circle class="st1" cx="903" cy="293" r="5"/><circle class="st1" cx="1418" cy="802" r="5"/><circle class="st1" cx="684" cy="1314" r="4"/><circle class="st1" cx="1433" cy="925" r="7"/><circle class="st1" cx="1886" cy="1166" r="5"/><circle class="st1" cx="722" cy="1726" r="4"/><circle class="st1" cx="1518" cy="932" r="3"/><circle class="st1" cx="1345" cy="412" r="5"/><circle class="st1" cx="205" cy="1304" r="6"/><circle class="st1" cx="877" cy="313" r="6"/><circle class="st1" cx="778" cy="1791" r="5"/><circle class="st1" cx="963" cy="1689" r="3"/><circle class="st1" cx="140" cy="1600" r="5"/><circle class="st1" cx="1055" cy="954" r="7"/><circle class="st1" cx="1821" cy="673" r="3"/><circle class="st1" cx="717" cy="1545" r="6"/><circle class="st1" cx="645" cy="1288" r="2"/><circle class="st1" cx="944" cy="1877" r="8"/><circle class="st1" cx="1048" cy="683" r="8"/><circle class="st1" cx="1570" cy="231" r="5"/><circle class="st1" cx="493" cy="122" r="7"/><circle class="st1" cx="1278" cy="334" r="6"/><circle class="st1" cx="1558" cy="1219" r="2"/><circle class="st1" cx="1022" cy="62" r="2"/><circle class="st1" cx="1607" cy="356" r="2"/><circle class="st1" cx="554" cy="973" r="6"/><circle class="st1" cx="1515" cy="135" r="6"/><circle class="st1" cx="854" cy="472" r="4"/><circle class="st1" cx="1059" cy="1414" r="3"/><circle class="st1" cx="1880" cy="1712" r="3"/><circle class="st1" cx="532" cy="1101" r="6"/><circle class="st1" cx="1693" cy="1546" r="3"/><circle class="st1" cx="1265" cy="926" r="7"/><circle class="st1" cx="319" cy="1243" r="2"/><circle class="st1" cx="1006" cy="940" r="3"/><circle class="st1" cx="869" cy="463" r="8"/><circle class="st1" cx="1107" cy="1143" r="5"/><circle class="st1" cx="788" cy="1346" r="2"/><circle class="st1" cx="1818" cy="1087" r="2"/><circle class="st1" cx="1706" cy="824" r="4"/><circle class="st1" cx="1153" cy="1491" r="5"/><circle class="st1" cx="1623" cy="1472" r="4"/></svg>