<svg version="1.1" xmlns="http://www.w3.org/2000/svg" x="0" y="0" viewBox="0 0 1920 1920" xml:space="preserve"><path fill="#36434f" d="M0 0h1920v1920H0z"/><path d="M0 11.3c18.1-4 36.1-8 54.1-11.8h6c-20 4.3-40 8.7-60.1 13.2v-1.4zm0 13.9c40-9 79.8-17.6 119.3-25.7h-5.9C75.9 7.2 38.1 15.3 0 23.9v1.3zm0 12.6C60.8 24 121.2 11.2 180.7-.5h-5.8C117.4 10.8 59 23.1 0 36.4v1.4zm0 12.6c82.8-19 164.7-36 244.9-50.9h-5.8C161 14 81 30.5 0 49v1.4zm0 12.7C106.2 38.5 210.9 17.2 312.5-.5h-5.7C207.4 16.8 104.6 37.6 0 61.7v1.4zm0 12.6C131.4 45 260.7 19.4 384.7-.5h-5.8C257.4 19 130 44.1 0 74.3v1.4zm0 12.7C159.4 50.9 315.6 20.8 463.2-.5h-6C312.6 20.5 158.2 49.9 0 87v1.4zm0 11.2v1.4C191.4 55.6 378.5 21 551.5-.5h-6.6C376.9 20.6 193.4 54.1 4.5 98.6c-1.5.3-3 .7-4.5 1zm0 12.7v1.4C231.2 58.4 456.3 18.9 657.7-.5h-8.5c-191.8 19-408.7 56.2-633.5 109.1-5.2 1.3-10.5 2.5-15.7 3.7zm0 12.8v1.4C296.5 54.9 583.3 9.5 822.7-.5h-20.5C579.9 10.7 309.7 52 27 118.7c-9 2.1-18 4.2-27 6.4zm0 12.7v1.4C337.8 57 663.5 8.9 920 8.9c90 0 179.1-3.6 267.1-9.4h-15.7c-82.9 5.2-166.8 8.4-251.4 8.4-238.1 0-551.3 42.9-881.8 120.8-12.7 3-25.5 6-38.2 9.1zm49.5.9c-16.5 3.9-33 7.9-49.5 11.9v1.5C337.8 69 664.1 20.4 920.5 20.4c139.7 0 277-8.8 411.7-20.9H1321c-131.2 11.6-264.7 19.9-400.5 19.9-235.2 0-544.5 42.4-871 119.3zm11.3 10c-20.3 4.8-40.5 9.7-60.8 14.7v1.5c337.8-83.8 664.7-133 921-133 180.2 0 356.5-14.8 528.4-32.4h-9.9C1270.8 16.7 1097.8 30.9 921 30.9c-232.3 0-537.8 41.9-860.2 117.8zm11.3 10.1C48 164.4 24 170.3 0 176.3v1.5C337.9 93.1 665.4 43.4 921.5 43.4c217.8 0 429.7-21.9 635-43.9h-9.4c-202.3 21.7-411.2 42.9-625.6 42.9-229.4 0-531.1 41.3-849.4 116.4zm11.2 10c-27.8 6.6-55.6 13.3-83.3 20.3v1.5C337.9 105.2 666 54.9 922 54.9c223.4 0 440.7-23.3 650.8-45.9 30.1-3.2 59.9-6.4 89.4-9.5h-9.6c-26.4 2.8-53.1 5.6-80 8.5-210.1 22.6-427.3 45.9-650.6 45.9-226.5 0-524.4 40.8-838.7 114.9zM922.4 65.4c-223.6 0-517.6 40.3-827.8 113.4C63 186.3 31.5 194 0 202v1.5C337.9 117.3 666.7 66.4 922.4 66.4c220.5 0 434.9-23 642.2-45.3 72.6-7.8 143.5-15.4 212-21.7h-10.8c-65.4 6.1-132.7 13.3-201.3 20.7-207.2 22.3-421.6 45.3-642.1 45.3zm.5 11.5c-220.7 0-510.8 39.8-817 111.9C70.5 197.2 35.2 205.9 0 215v1.5C337.8 129.5 667.4 78 922.9 78c217.6 0 429.1-22.7 633.7-44.6 127.8-13.7 250-26.8 363.4-32.9v-.9h-1.7c-113.2 6.2-235.3 19.2-361.8 32.8-204.5 21.8-416.1 44.5-633.6 44.5zm.5 11.5c-217.8 0-504.1 39.2-806.3 110.5C78 208.1 39 217.8 0 227.9v1.5c337.8-87.9 668-140 923.4-140 214.7 0 423.4-22.4 625.2-44 130.9-14 255.9-27.4 371.4-33.1v-1c-115.8 5.7-241.3 19.1-371.5 33.1-201.8 21.7-410.5 44-625.1 44zm.5 11.5c-214.9 0-497.4 38.7-795.5 109C85.5 219 42.7 229.7 0 240.9v1.5c337.7-88.7 668.7-141.5 923.9-141.5 211.7 0 417.6-22 616.7-43.4 134.1-14.4 261.9-28 379.5-33.2v-1c-117.8 5.2-246.2 19-379.6 33.2-199.1 21.4-405 43.4-616.6 43.4zm.4 11.5c-211.9 0-490.6 38.2-784.7 107.5C93 230 46.4 241.6 0 253.9v1.5c337.6-89.6 669.3-143 924.3-143 208.8 0 411.8-21.7 608.2-42.7C1669.8 55 1800.5 41 1920 36.4v-1c-119.8 4.7-251 18.7-387.6 33.3-196.3 21-399.3 42.7-608.1 42.7zm.5 11.5c-209 0-483.9 37.7-773.9 106.1C100.5 240.9 50.2 253.6 0 267v1.5C337.5 178 670 123.9 924.8 123.9c205.9 0 406.1-21.4 599.6-42.1 140.6-15 274-29.3 395.5-33.3v-1c-121.8 4-255.8 18.3-395.6 33.3-193.5 20.7-393.6 42.1-599.5 42.1zm.5 11.5c-206.1 0-477.1 37.1-763.1 104.6C108 251.8 53.9 265.5 0 280.1v1.5c337.4-91.4 670.6-146.2 925.3-146.2 202.9 0 400.3-21.1 591.1-41.5C1660.3 78.5 1796.6 64 1920 60.7v-1c-123.6 3.3-260.6 17.9-403.7 33.2-190.8 20.5-388.1 41.5-591 41.5zm.5 11.5c-203.2 0-470.4 36.6-752.3 103.1-58 13.7-115.9 28.4-173.5 44.2v1.5c337.2-92.4 671.3-147.8 925.8-147.8 200 0 394.5-20.8 582.6-40.8 147.2-15.7 286.4-30.5 411.6-33v-1c-125.5 2.5-265.4 17.4-411.7 33-188.1 20.1-382.5 40.8-582.5 40.8zm.5 11.5c-200.3 0-463.7 36.1-741.5 101.6C123 273.7 61.3 289.5 0 306.4v1.5c337.1-93.3 672-149.5 926.3-149.5 197.1 0 388.7-20.4 574.1-40.2 150.6-16 292.6-31.2 419.7-32.7v-1c-127.2 1.6-270.1 16.8-419.8 32.7-185.4 19.8-377 40.2-574 40.2zm.4 11.5c-197.4 0-456.9 35.6-730.7 100.2-65.6 15.5-131 32.3-196 50.5v1.5c336.8-94.3 672.6-151.2 926.7-151.2 194.2 0 383-20.1 565.6-39.6 154-16.4 298.9-31.8 427.7-32.3v-1c-128.8.5-273.8 15.9-427.8 32.3-182.6 19.5-371.3 39.6-565.5 39.6zm557.4-27.4c-179.8 19.1-365.7 38.9-556.9 38.9-194.5 0-450.2 35.1-719.9 98.7C137.9 295.5 68.7 313.5 0 332.9v1.5c336.6-95.3 673.3-153 927.2-153 191.2 0 377.2-19.8 557-38.9 154-16.4 298.8-31.8 427-31.8h8.7v-1c-130.4-.7-278.3 15.1-435.8 31.8zm-8 12.2C1299 172.5 1116 192 927.7 192c-191.6 0-443.4 34.5-709.2 97.2-73.2 17.3-146.2 36.3-218.5 57v1.5C336.3 251.4 674 193 927.7 193c188.3 0 371.4-19.5 548.5-38.3 151.6-16.1 294.2-31.3 420.6-31.3 7.8 0 15.5.1 23.2.2v-1c-132-2.1-282.9 14-443.9 31.1zm-8 12.1c-174.3 18.5-354.6 37.6-539.9 37.6-188.7 0-436.7 34-698.4 95.8C152.8 317.4 76 337.6 0 359.6v1.5c336-97.4 674.6-156.7 928.2-156.7 185.4 0 365.7-19.1 540-37.7 149.3-15.8 289.7-30.8 414.1-30.8 12.7 0 25.3.2 37.7.5v-1c-133.5-3.4-287.4 12.9-451.9 30.4zm-8.1 12.1c-171.6 18.2-349 37-531.4 37-185.8 0-430 33.5-687.6 94.3C160.3 328.3 79.7 349.7 0 373v1.5C335.6 276.1 675.3 216 928.7 216c182.5 0 359.9-18.8 531.5-37 146.9-15.6 285.2-30.2 407.7-30.2 17.7 0 35.2.3 52.2 1v-1c-135-5.3-291.8 11.3-460.1 29.1zm-8 12.2c-168.8 17.9-343.4 36.4-522.8 36.4-182.9 0-423.2 33-676.8 92.8-84.6 20-169 42.5-252.3 67.2v1.5C335.3 288.5 676 227.5 929.2 227.5c179.5 0 354.1-18.5 522.9-36.4 144.6-15.3 280.6-29.7 401.2-29.7 22.8 0 45.1.5 66.7 1.6v-1c-136.1-7.1-296 9.9-468 28.1zm-8.1 12.1c-166.1 17.6-337.8 35.7-514.3 35.7-180 0-416.5 32.4-666 91.3C175.2 350.2 87 373.9 0 400v1.5C334.8 300.9 676.6 239 929.6 239c176.6 0 348.3-18.2 514.4-35.7 142.3-15.1 276.1-29.2 394.7-29.2 28 0 55.1.8 81.2 2.5v-1c-137.2-9.2-300.2 8-476 26.6zm-8 12.2c-163.3 17.3-332.2 35.1-505.8 35.1-177.1 0-409.8 31.9-655.2 89.9C182.6 361.1 90.6 386 0 413.6v1.5c334.3-101.8 677.3-164.7 930.1-164.7 173.7 0 342.6-17.9 505.9-35.1 139.9-14.8 271.6-28.7 388.3-28.7 33.2 0 65.1 1.1 95.7 3.7v-1c-138.3-11.5-304.4 6.1-484.1 25.1zm-8 12.1c-160.6 16.9-326.6 34.5-497.3 34.5-174.2 0-403 31.4-644.4 88.4C190 372.1 94.2 398.2 0 427.3v1.5C333.8 325.8 677.9 262 930.6 262c170.7 0 336.8-17.5 497.4-34.5 137.6-14.5 267-28.2 381.8-28.2 38.5 0 75.3 1.5 110.2 5.1v-1c-139.1-14.2-308.4 3.7-492.1 23.1zm-8.1 12.1c-157.8 16.6-321 33.8-488.8 33.8-171.2 0-396.3 30.9-633.6 86.9C197.4 383 97.7 410.4 0 441v1.5c333.1-104.2 678.6-169 931.1-169 167.8 0 331-17.2 488.9-33.8 187.9-19.8 360.4-38 500.1-20.8v-1c-139.9-17.3-312.4.9-500.3 20.7zm-8 12.2c-155.1 16.3-315.4 33.2-480.2 33.2-168.3 0-389.5 30.4-622.8 85.5C204.8 394 101.3 422.7 0 454.8v1.5C332.5 350.9 679.2 285 931.5 285c164.9 0 325.3-16.9 480.3-33.2 192.2-20.2 368-38.7 508.1-18.2v-1c-140.2-20.6-316-2.1-508.1 18.2zm-8.1 12.1c-152.3 16-309.8 32.6-471.7 32.6-165.4 0-382.8 29.8-612.1 84-107.8 25.5-215.2 55.4-320 89.2v1.5c331.7-106.7 679.8-173.7 932-173.7 162 0 319.5-16.6 471.8-32.6 196.6-20.7 375.8-39.5 516.2-15.2v-1c-140.4-24.3-319.6-5.5-516.2 15.2zm-8 12.1c-149.6 15.7-304.2 31.9-463.2 31.9-162.5 0-376.1 29.3-601.3 82.5C219.6 415.9 108.3 447.2 0 482.6v1.5C330.9 376.1 680.5 308 932.5 308c159 0 313.7-16.2 463.3-31.9 128.3-13.5 248.9-26.1 355.9-26.1 60.9 0 117.4 4.1 168.3 14.5v-1c-140.5-28.8-323.1-9.6-524.3 11.5zm-8.1 12.2c-146.8 15.4-298.6 31.3-454.7 31.3-159.6 0-369.3 28.8-590.5 81-115.6 27.3-230.7 60-342.5 97.2v1.4c330-109.4 681.1-178.7 933-178.7 156.1 0 307.9-15.9 454.8-31.3 125.9-13.2 244.4-25.6 349.5-25.6 66.9 0 128.3 5 182.8 18.1v-1c-140.1-33.5-326.3-14-532.4 7.6zm-8 12.1c-144.1 15.1-293 30.7-446.1 30.7-156.7 0-362.6 28.3-579.7 79.6C234.2 437.8 115.2 472 0 510.8v1.4C329 401.5 681.7 331 933.5 331c153.2 0 302.2-15.6 446.2-30.7 123.6-12.9 239.9-25.1 343-25.1 73.1 0 139.5 6.1 197.3 22.4v-1c-139.4-39.3-329.3-19.4-540.4 2.7zm-8.1 12.1c-141.3 14.8-287.4 30-437.6 30-153.8 0-355.8 27.7-568.9 78.1-123.5 29.3-246.4 64.9-365 105.6v1.4c327.9-112.2 682.3-184 933.9-184 150.2 0 296.4-15.3 437.7-30.1 121.2-12.7 235.3-24.6 336.5-24.6 79.5 0 151 7.4 211.8 27.5v-1c-138.2-45.7-332-25.5-548.4-2.9zM0 1906v1c23.9 4.2 48.1 8.4 72.8 12.5h6.1c-26.8-4.4-53.1-8.9-78.9-13.5zM1363.5 323.6C1224.9 338 1081.7 353 934.4 353c-150.9 0-349.1 27.2-558.1 76.6C248.8 459.8 121.9 496.9 0 539.4v1.4C326.7 427.1 682.9 354 934.4 354c147.3 0 290.6-15 429.2-29.4 118.9-12.4 230.8-24.1 330.1-24.1 86.2 0 162.9 8.8 226.3 33.6V333c-136.7-53.2-334.4-32.6-556.5-9.4zM208.1 1919.5h6.9c-75-11.1-146.7-22.8-215-35.1v1c66.2 12 135.5 23.3 208.1 34.1zM1355.5 335.7c-135.8 14.1-276.2 28.8-420.6 28.8-148 0-342.4 26.7-547.3 75.2C256.1 470.8 125.2 509.4 0 553.9v1.3C325.4 440 683.4 365.5 934.9 365.5c144.4 0 284.8-14.6 420.7-28.8 116.6-12.1 226.3-23.6 323.6-23.6 93.3 0 175.2 10.5 240.8 40.9v-1c-134.4-62.1-336.4-41-564.5-17.3zm-8.1 12.2c-133.1 13.8-270.6 28.1-412 28.1-145.1 0-335.6 26.2-536.5 73.7C263.3 481.7 128.4 522 0 568.5v1.3C323.9 453 684 377 935.4 377c141.5 0 279.1-14.3 412.2-28.2 114.2-11.9 221.7-23.1 317.1-23.1 100.8 0 188 12.5 255.3 49.8v-1.1c-131.4-72.4-337.9-51-572.6-26.5zM307.7 1912.7c16.8 2.3 33.8 4.6 50.9 6.8h7.7c-19.5-2.5-39-5.1-58.5-7.8-109.5-15-212.2-31.4-307.9-49v1c95.7 17.7 198.4 34 307.8 49zM1339.4 360c-130.3 13.5-265 27.5-403.5 27.5-142.2 0-328.9 25.6-525.7 72.2-139.7 33-278.6 75-410.2 123.5v1.3c322.3-118.5 684.5-196 935.8-196 138.5 0 273.3-14 403.6-27.5 111.9-11.6 217.2-22.5 310.7-22.5 108.8 0 201.6 14.8 269.8 60.6v-1.2c-127.2-84.9-338.6-63-580.5-37.9zM320.7 1893.6c67.2 9.2 136.7 17.9 208.4 25.9h9c-72.5-8.1-145.2-17.1-217.2-26.9-114.7-15.7-221.7-33-320.9-51.7v1c99.1 18.7 206.1 35.9 320.7 51.7zM1331.3 372.1c-127.6 13.2-259.4 26.9-395 26.9-139.3 0-322.2 25.1-515 70.7C277.6 503.8 134.7 547.4 0 598.1v1.3C320.5 479.1 685 400 936.3 400c135.6 0 267.5-13.7 395.1-26.9 109.6-11.4 212.7-22 304.2-22 117.6 0 216.1 17.6 284.4 74.2V424c-121.9-100.2-338.6-77.8-588.7-51.9zM333.7 1874.4c123.8 17 255.6 32 394.6 45.1h10.8c-133.9-12.4-270.6-27.6-405.3-46.1C213.9 1857 102.6 1838.8 0 1819v1c102.5 19.8 213.9 38 333.7 54.4zM1908.1 442.2c-117.7-106.2-334.2-83.8-584.8-57.9-124.8 12.9-253.8 26.2-386.5 26.2-136.4 0-315.4 24.6-504.2 69.3-147.8 35-294.9 80.4-432.6 133.3v1.2c318.6-121.9 685.4-202.8 936.8-202.8 132.7 0 261.8-13.3 386.6-26.3 107.2-11.1 208.1-21.5 297.7-21.5 119.7 0 219.1 18.6 286.3 79.2 4.4 3.9 8.6 8 12.6 12.3v-1.5c-3.8-4-7.8-7.8-11.9-11.5zM346.7 1855.3c190.7 26.2 400.8 47.7 627.2 64.2h13.8c-205.3-14.8-425.7-35.7-640.9-65.2-125.2-17.2-241-36.3-346.9-57.2v1c106 20.9 221.6 40 346.8 57.2zM1887.8 453.2c-115.3-104-327.2-82.1-572.6-56.8-122 12.6-248.3 25.6-378 25.6-133.5 0-308.7 24.1-493.4 67.8-152 36-303.2 83.3-443.8 138.5v1.2C316.4 505.7 685.9 423 937.3 423c129.7 0 256-13 378.1-25.6 104.9-10.8 203.6-21 291.3-21 117.3 0 214.7 18.2 280.5 77.6 12.2 11 23.1 23.3 32.9 36.9v-1.7c-9.7-13.3-20.4-25.3-32.3-36zM359.9 1835.1c-130.7-17.9-250.7-38-359.9-60.1v1c109.1 22.1 229.1 42.1 359.7 60.1 263.5 36.2 564.8 63.3 895.5 80.5 19.5 1 38.8 2 57.7 2.9h22.7c-282.8-13-635.8-37.7-975.7-84.4zm12.8-18.1c257.7 35.4 552.3 61.9 875.7 78.8 320.7 16.7 562.8 18 629.4 18 14.7 0 28.8-.5 42.2-1.6v-1c-13.4 1-27.4 1.6-42.2 1.6-82 0-820.5-2.7-1505-96.8-136.2-18.7-260.6-39.8-372.9-63.1v1c112.3 23.3 236.7 44.4 372.8 63.1zM1867.5 464.3c-112.8-101.8-320.2-80.4-560.3-55.7-119.3 12.3-242.7 25-369.4 25-130.5 0-301.9 23.6-482.6 66.3C298.8 536.9 143.4 586 0 643.6v1.2c314-125.7 686.2-210.3 937.8-210.3 126.8 0 250.2-12.7 369.5-25 102.5-10.6 199.1-20.5 284.8-20.5 114.9 0 210.4 17.9 274.8 76 21.6 19.5 39.3 43.2 53.1 71.2v-2.3c-13.8-27.3-31.2-50.5-52.5-69.6zm-20.2 11c-110.4-99.6-313.2-78.8-548.1-54.6-116.5 12-237.1 24.4-360.9 24.4-127.6 0-295.2 23-471.8 64.9C305.7 547.9 146.1 599.1 0 659.2v1.1C311.3 532.7 686.6 446 938.2 446c123.9 0 244.4-12.4 361-24.4 100.2-10.3 194.5-20 278.3-20 112.5 0 206 17.5 269 74.4 34.6 31.3 59 73.5 73.4 127.5v-3.9c-14.5-52.4-38.6-93.6-72.6-124.3zM385.7 1797.8c251.9 34.7 539.9 60.6 856 77.1 313.6 16.4 550.2 17.6 615.3 17.6 22.7 0 43.7-1.3 63.1-3.8v-1c-19.4 2.5-40.4 3.8-63.1 3.8-80.1 0-801.9-2.7-1471.1-94.7-141.9-19.5-270.7-41.6-385.9-66.2v1c115.2 24.6 243.9 46.7 385.7 66.2zM1827 486.4c-107.9-97.4-306.2-77.1-535.9-53.6-113.8 11.7-231.5 23.7-352.4 23.7-124.7 0-288.5 22.5-461 63.4C312.6 559 148.6 612.3 0 675v1.1c308.3-129.8 686.8-218.6 938.7-218.6 121 0 238.7-12.1 352.5-23.7 97.9-10 190-19.5 271.9-19.5 110.1 0 201.6 17.1 263.3 72.8 58.7 53 87.2 138.1 87.2 260.2 0 36.8 2.3 74.4 6.4 112.5v-9.7c-3.5-34.8-5.4-69.2-5.4-102.8 0-122.4-28.7-207.8-87.6-260.9zM398.7 1778.7c246.1 33.9 527.4 59.3 836.2 75.4 306.5 16 537.6 17.3 601.1 17.3 31.1 0 59.1-2.4 84-7.3v-1c-24.9 4.9-52.8 7.3-84 7.3-78.2 0-783.2-2.6-1437.2-92.7-147.6-20.3-280.8-43.6-398.8-69.5v1c118 25.9 251.1 49.2 398.7 69.5zm1408-1281.3c-105.4-95.2-299.3-75.4-523.7-52.5-111 11.4-225.9 23.1-343.9 23.1-121.8 0-281.7 22-450.2 61.9C319.4 570.1 151 625.7 0 691.1v1.1C304.9 560.2 687 469 939.2 469c118 0 232.9-11.7 344-23.1 95.5-9.8 185.5-19 265.4-19 107.7 0 197.2 16.7 257.5 71.2 57.3 51.8 85.2 134.9 85.2 254.2 0 81.5 11.7 167.4 28.7 252.8v-5.1c-16.4-83.7-27.7-167.8-27.7-247.7 0-119.5-28-202.9-85.6-254.9zm-1395 1262.1c240.3 33.1 515 57.9 816.4 73.7 299.4 15.7 525 16.9 587 16.9 40.3 0 75.2-4.2 104.8-12.5v-1c-29.6 8.4-64.5 12.6-104.8 12.6-76.4 0-764.5-2.5-1403.3-90.6-153.6-21.2-291.1-45.6-411.9-73v1c120.8 27.4 258.3 51.8 411.8 72.9zm13-19.1c234.5 32.4 502.5 56.6 796.7 72 292.3 15.3 512.4 16.5 572.9 16.5 50.5 0 92.2-6.7 125.7-20.1v-1.1c-33.4 13.5-75.2 20.2-125.7 20.2-74.5 0-745.9-2.5-1369.4-88.5-159.7-22-301.6-47.6-424.9-76.6v1c123.2 29 265.1 54.6 424.7 76.6zM1786.5 508.5c-103-93-292.3-73.7-511.5-51.4-108.3 11-220.3 22.5-335.3 22.5-118.9 0-275 21.5-439.4 60.4C326 581.3 153.1 639.1 0 707.4v1.1c301.1-134.3 687.2-228 939.7-228 115.1 0 227.1-11.4 335.4-22.5 93.2-9.5 180.9-18.4 258.9-18.4 105.3 0 192.8 16.3 251.8 69.6 56 50.6 83.2 131.8 83.2 248.2 0 112.9 23 234.2 51 350.8v-4.3c-27.5-115.3-50-235.1-50-346.5 0-116.7-27.3-198.2-83.5-248.9zm-20.3 11c-100.5-90.8-285.3-72-499.3-50.3-105.5 10.7-214.7 21.8-326.8 21.8-116 0-268.2 20.9-428.6 59C340.6 590.5 171 647.4 21 714.5c-7 3.2-14 6.3-21 9.5v1.1c7.1-3.2 14.2-6.5 21.4-9.7C315.4 583.9 693.2 492 940.2 492c112.2 0 221.3-11.1 326.9-21.8 90.8-9.2 176.4-17.9 252.5-17.9 102.9 0 188.4 15.9 246 68 54.6 49.4 81.2 128.6 81.2 242.2 0 140.9 36.6 295.2 73.2 436.2v-4c-36.3-139.9-72.2-292.7-72.2-432.2 0-114-26.7-193.4-81.6-243zM437.7 1721.3c228.7 31.6 490.1 55.3 776.9 70.3 285.2 15 499.8 16.2 558.7 16.2 62.1 0 110.6-10.3 146.6-31.3v-1.2c-35.9 21.1-84.4 31.5-146.6 31.5-72.6 0-727.2-2.4-1335.5-86.5-166-22.9-312.3-49.8-437.8-80.4v1c125.5 30.6 271.8 57.4 437.7 80.4zm1387.8-953.8c0-111.1-26-188.6-79.5-237-98.1-88.6-278.3-70.4-487-49.2-102.8 10.4-209.1 21.2-318.3 21.2-113.1 0-261.5 20.4-417.9 57.5-166.6 39.5-331.9 95-478.1 160.4-15.1 6.8-30 13.6-44.6 20.6v1.1c14.7-7 29.7-13.9 45.1-20.8C331.8 593 700 503.5 940.8 503.5c109.2 0 215.6-10.8 318.4-21.2 88.5-9 171.9-17.4 246-17.4 100.5 0 184 15.5 240.3 66.4 53.3 48.2 79.2 125.4 79.2 236.2 0 153.2 44.4 322.7 83.6 472.3 4 15.4 8 30.6 11.9 45.7v-4c-3.6-13.9-7.3-27.9-11-42-39.3-149.5-83.7-318.9-83.7-472zm-617.6 1003.3c278 14.6 487.2 15.8 544.6 15.8 76 0 131.1-15.8 167.5-48.2v-1.4c-36.2 32.6-91.3 48.6-167.5 48.6-70.8 0-708.5-2.4-1301.7-84.4-172.5-23.9-323.2-52.2-450.8-84.5v1c127.6 32.3 278.2 60.5 450.7 84.4 222.9 30.8 477.6 53.9 757.2 68.7zm703.7-71.8c-33.9 43.9-92.8 65.3-179.9 65.3-68.9 0-689.9-2.3-1267.8-82.3-179.3-24.8-334.5-54.5-463.8-88.7v1c129.3 34.2 284.4 63.8 463.7 88.7 217 30.1 465.2 52.6 737.4 66.9 270.9 14.3 474.5 15.4 530.5 15.4 87.5 0 146.6-21.5 180.7-65.7 2.7-3.5 5.3-7.2 7.7-11v-1.9c-2.7 4.4-5.5 8.4-8.5 12.3zm-108.4-926.4c0-108.3-25.4-183.8-77.5-231-95.6-86.4-271.3-68.7-474.8-48.1-100 10.1-203.5 20.6-309.7 20.6-110.2 0-254.8 19.9-407.1 56-162.3 38.5-323.3 92.5-465.7 156.3C45 736.8 22.2 747.5 0 758.5v1.1c22.2-10.9 45.1-21.7 68.7-32.2C347.8 602.3 706.6 515 941.1 515c106.3 0 209.8-10.5 309.8-20.6 86.2-8.7 167.3-16.9 239.5-16.9 98.1 0 179.6 15.2 234.5 64.8 51.9 47 77.2 122.3 77.2 230.3 0 149.2 43.2 314.2 81.2 459.8 13.1 50.3 25.9 99.1 36.5 145.5v-4.5c-10.4-45.1-22.8-92.6-35.6-141.3-37.8-145.5-81-310.5-81-459.5zm-92.5 970.5c-67 0-671.2-2.3-1233.9-80.3-186.5-25.9-346-57.1-476.8-93.3v1c130.8 36.2 290.3 67.4 476.7 93.3 211.2 29.3 452.7 51.2 717.7 65.2 263.8 13.9 461.9 15 516.4 15 85.2 0 142.8-20.9 176.1-64 18.1-23.5 29.1-53.4 33.2-91.3v-11.2c-3 43.1-14.2 76.3-34 101.9-33.2 42.9-90.5 63.7-175.4 63.7zm149.1-518.3c-37-141.6-78.9-302.2-78.9-447.2 0-105.5-24.7-179.1-75.5-225-93.2-84.2-264.4-67-462.6-47-97.3 9.8-197.9 19.9-301.2 19.9-107.3 0-248 19.4-396.3 54.6C387.4 617.6 230.6 670.2 92 732.3c-31.8 14.3-62.5 29-92 44v1.1c29.5-15 60.3-29.8 92.4-44.2 271.7-121.7 620.9-206.7 849.2-206.7 103.4 0 204-10.1 301.3-19.9 83.8-8.4 162.8-16.4 233.1-16.4 95.7 0 175.3 14.8 228.8 63.2 50.6 45.8 75.2 119.1 75.2 224.3 0 145.1 41.9 305.7 78.9 447.4 25.3 97.1 49.3 188.7 58.2 267 1.3 11.5 2.3 22.5 2.9 33v-13.8c-.5-6.3-1.2-12.7-1.9-19.3-9-78.4-32.9-170.1-58.3-267.2zm-24.6-7.3c-35.9-137.7-76.5-293.8-76.5-434.8 0-102.6-24-174.3-73.5-219-90.7-82-257.4-65.3-450.4-45.9-94.5 9.5-192.3 19.3-292.7 19.3-104.4 0-241.3 18.9-385.5 53.1-153.6 36.4-306.1 87.6-440.9 148-40.5 18.1-79.2 37-115.7 56.5v1.1c36.4-19.4 75.1-38.3 116.1-56.7C380.3 620.7 720 538 942.1 538c100.5 0 198.2-9.8 292.8-19.3 81.5-8.2 158.3-15.9 226.6-15.9 93.3 0 170.9 14.4 223 61.6 49.2 44.6 73.2 116 73.2 218.3 0 141.1 40.7 297.3 76.6 435 24.6 94.5 47.8 183.7 56.6 259.9 9.7 85.1.1 143-30.3 182.4-32.2 41.7-88 61.9-170.6 61.9-65.2 0-652.5-2.2-1200-78.2-193.9-26.9-358-59.9-489.8-98.3v1c131.9 38.4 295.9 71.3 489.7 98.2 547.5 76 1135 78.2 1200.1 78.2 82.9 0 139-20.4 171.4-62.3 30.6-39.6 40.3-97.8 30.5-183.1-8.8-76.2-32.1-165.4-56.7-259.9zM1669 1701.7c80.7 0 135.2-19.8 166.7-60.6 29.8-38.5 39.2-95.1 29.8-178.1-8.4-74.2-31-161-54.9-252.8-34.8-133.8-74.2-285.4-74.2-422.4 0-99.8-23.4-169.5-71.5-213.1-88.2-79.9-250.4-63.6-438.2-44.9-91.8 9.2-186.7 18.7-284.2 18.7-101.5 0-234.5 18.3-374.7 51.6-149.3 35.5-297.5 85.2-428.5 144-49.4 22.2-96 45.5-139.3 69.7v1c43.1-24 89.7-47.3 139.8-69.8 256.8-115.1 586.9-195.5 802.8-195.5 97.5 0 192.5-9.5 284.3-18.7 79.1-7.9 153.7-15.4 220.1-15.4 90.9 0 166.5 14 217.3 60 47.9 43.3 71.2 112.8 71.2 212.3 0 137.1 39.4 288.8 74.2 422.6 23.9 91.9 46.4 178.6 54.9 252.7 9.4 82.7 0 139.1-29.6 177.4-31.3 40.5-85.6 60.2-165.9 60.2-63.3 0-633.9-2.1-1166.1-76.1-202-28-370.5-62.8-503-103.6v1c132.5 40.8 301 75.6 502.7 103.6 532.3 74 1102.9 76.2 1166.3 76.2zm-20.9-21.2c78.4 0 131.4-19.3 162.1-58.9 28.9-37.4 38.2-92.4 29-173.1-8.2-72.1-30-156.4-53.2-245.7-33.7-129.8-71.9-277-71.9-409.9 0-97-22.7-164.7-69.5-207.1-85.8-77.7-243.4-62-426-43.8-89 8.9-181.1 18-275.6 18-98.6 0-227.8 17.8-363.9 50.1-145 34.4-288.8 82.8-416.1 139.9-58.7 26.4-113.4 54.5-163 83.6v1c49.4-29 103.9-56.9 163.5-83.7C412.8 639.2 733.3 561.1 943 561.1c94.6 0 186.7-9.2 275.7-18 76.8-7.7 149.2-14.9 213.6-14.9 88.5 0 162.1 13.6 211.6 58.4 46.5 42.1 69.2 109.6 69.2 206.3 0 133.1 38.2 280.3 71.9 410.2 23.2 89.3 45 173.6 53.2 245.6 9.1 80.4-.1 135.2-28.8 172.3-30.5 39.4-83.2 58.5-161.3 58.5-61.4 0-615.2-2.1-1132.2-74.1-210.3-29.3-383.3-66.1-515.8-109.6v1.1c132.5 43.5 305.5 80.2 515.7 109.5 517 72 1070.8 74.1 1132.3 74.1zm-20.9-21.2c76.1 0 127.6-18.7 157.4-57.2 28.1-36.3 37.1-89.7 28.3-168.1-7.9-70-29.1-151.9-51.5-238.5-32.6-125.9-69.5-268.6-69.5-397.5 0-94.2-22.1-160-67.5-201.1-83.3-75.5-236.4-60.3-413.8-42.7-86.3 8.6-175.5 17.4-267.1 17.4-95.7 0-221.1 17.3-353.1 48.7-140.7 33.4-280.2 80.3-403.7 135.7C117.4 787.1 55 819.9 0 854.2v1.2c55.1-34.4 117.6-67.3 187.1-98.5C429 648.4 740 572.6 943.5 572.6c91.7 0 180.9-8.9 267.2-17.4 74.5-7.4 144.7-14.3 207.2-14.3 86.1 0 157.7 13.2 205.8 56.8 45.2 40.9 67.2 106.5 67.2 200.4 0 129.1 36.9 271.8 69.5 397.8 22.4 86.7 43.6 168.5 51.5 238.4 8.8 78.1-.1 131.2-28.1 167.3-29.6 38.2-80.8 56.8-156.6 56.8-59.6 0-596.5-2-1098.3-72-219.4-30.6-397-69.6-528.8-116.1v1.1c131.8 46.5 309.4 85.5 528.7 116 501.8 69.8 1038.8 71.9 1098.4 71.9zm-20.9-21.2c73.8 0 123.8-18.2 152.7-55.5 27.3-35.2 36.1-87.1 27.6-163-7.6-67.9-28.1-147.3-49.8-231.4-31.5-122-67.2-260.2-67.2-385.1 0-91.4-21.4-155.2-65.5-195.1-80.9-73.3-229.5-58.6-401.6-41.6-83.5 8.2-169.9 16.8-258.6 16.8-92.8 0-214.3 16.8-342.3 47.2-136.3 32.3-271.6 77.8-391.2 131.5C130.5 797.8 60.2 836 0 876.2v1.2c60.3-40.3 130.8-78.6 210.8-114.5C445.2 657.6 746.7 584.1 944 584.1c88.7 0 175.1-8.5 258.7-16.8 72.1-7.1 140.1-13.8 200.7-13.8 83.8 0 153.4 12.8 200.1 55.2 43.9 39.7 65.2 103.3 65.2 194.4 0 125.1 35.7 263.4 67.2 385.4 21.7 84.1 42.2 163.4 49.8 231.3 8.5 75.7-.2 127.3-27.3 162.3-28.7 37.1-78.4 55.1-152 55.1-57.7 0-577.9-2-1064.5-69.9-229.4-32-411.6-73.6-541.8-123.5v1.1c130.3 49.9 312.4 91.4 541.7 123.4 486.5 67.8 1006.8 69.8 1064.5 69.8zM554.7 1549c471.4 66 974.9 67.9 1030.7 67.9 71.6 0 120-17.6 148.1-53.8 26.5-34.2 35-84.4 26.8-158-7.3-65.8-27.1-142.8-48.1-224.2-30.4-118-64.8-251.8-64.8-372.7 0-88.5-20.8-150.4-63.5-189.1-78.4-71.1-222.5-56.9-389.3-40.5-80.8 7.9-164.3 16.1-250 16.1-89.8 0-207.6 16.2-331.5 45.7-132 31.4-263 75.5-378.8 127.6C142.9 808.8 64.6 852.9 0 899.6v1.2c64.6-46.8 143.1-91 234.5-132.1 227-102 518.9-173.2 710-173.2 85.8 0 169.3-8.2 250.1-16.2 69.8-6.9 135.6-13.3 194.2-13.3 81.4 0 149 12.5 194.4 53.6 42.5 38.5 63.2 100.2 63.2 188.4 0 121 34.5 254.9 64.9 373 42.4 164.8 79.1 307.1 21.5 381.4-27.9 35.9-76 53.4-147.3 53.4-55.8 0-559.2-1.9-1030.6-67.9-226.2-31.7-405.1-72.8-531.6-122.4-8-3.1-15.7-6.3-23.3-9.5v1.1c7.4 3.1 15.1 6.3 22.9 9.3 126.6 49.7 305.5 90.9 531.8 122.6zm13-19.2c456.2 64 942.8 65.8 996.8 65.8 69.3 0 116.2-17 143.4-52.1 25.7-33.1 33.9-81.7 26.1-153-7-63.7-26.2-138.2-46.4-217.1-29.3-114.1-62.5-243.4-62.5-360.3 0-85.7-20.1-145.6-61.5-183.2-75.9-68.9-215.5-55.2-377.1-39.4-78 7.6-158.7 15.5-241.5 15.5-86.9 0-200.9 15.7-320.8 44.3-127.7 30.4-254.4 73.1-366.4 123.4C154.3 820.3 67.8 871.1 0 925v1.3c67.9-54.1 154.4-105 258.2-151.7C477.7 676 760.1 607.1 944.9 607.1c82.9 0 163.6-7.9 241.6-15.5 67.4-6.6 131-12.8 187.7-12.8 79 0 144.6 12.1 188.6 52 41.2 37.3 61.2 97 61.2 182.4 0 117 33.2 246.4 62.5 360.5 41 159.5 76.3 297.3 20.6 369.2-27 34.8-73.6 51.7-142.6 51.7-54 0-540.6-1.8-996.7-65.8-218.7-30.7-391.7-70.6-514-118.6-19.2-7.5-37.1-15.3-53.9-23.2v1.1c16.6 7.9 34.5 15.6 53.5 23 122.5 48.1 295.5 88 514.3 118.7zm13-19.1c441 61.9 910.8 63.7 962.9 63.7 67 0 112.4-16.5 138.8-50.4 24.8-32 32.9-79 25.3-148-6.8-61.6-25.2-133.7-44.7-209.9-28.2-110.1-60.2-235-60.2-347.9 0-82.9-19.5-140.9-59.5-177.2-73.5-66.7-208.5-53.6-364.9-38.3-75.3 7.3-153.1 14.9-233 14.9-84 0-194.1 15.2-310 42.8-123.4 29.4-245.8 70.6-354 119.3C164.1 832.5 69.5 890.9 0 953.4v1.3C69.5 892 164.2 833.5 281.9 780.6c212.1-95.4 484.9-162 663.6-162 79.9 0 157.8-7.6 233.1-14.9 65.1-6.3 126.5-12.3 181.3-12.3 76.6 0 140.2 11.7 182.9 50.4 39.8 36.1 59.2 93.8 59.2 176.4 0 113 32 237.9 60.2 348.1 39.5 154.3 73.6 287.5 19.6 357.1-26.1 33.7-71.3 50-138 50-52.1 0-521.9-1.8-962.8-63.7-211.4-29.7-378.4-68.3-496.6-114.7-31.5-12.4-59.7-25.4-84.4-39v1.1c24.6 13.5 52.7 26.5 84.1 38.8 118.2 46.5 285.3 85.1 496.6 114.8zm13-19.2c425.7 59.9 878.8 61.7 929.1 61.7 64.8 0 108.6-15.9 134.1-48.7 24-30.9 31.8-76.3 24.6-143-6.5-59.5-24.2-129.1-43.1-202.8-27.1-106.2-57.8-226.6-57.8-335.5 0-80.1-18.8-136.1-57.5-171.2-71-64.5-201.6-51.9-352.7-37.3-72.5 7-147.5 14.3-224.4 14.3-81.1 0-187.4 14.7-299.2 41.3-119 28.4-237.2 68.2-341.6 115.2C186.7 839 92.2 898.2 24.4 961.8c-8.6 8-16.7 16.1-24.4 24.2v1.5c7.8-8.4 16.2-16.7 25-25 67.8-63.5 162.1-122.7 280.5-176C510.1 694.4 773.4 630 945.9 630c77 0 152-7.3 224.5-14.3 62.8-6.1 122-11.8 174.8-11.8 74.2 0 135.9 11.3 177.2 48.8 38.5 34.9 57.1 90.7 57.1 170.5 0 109 30.7 229.4 57.9 335.7 38 149 70.9 277.7 18.7 344.9-25.3 32.5-68.9 48.3-133.3 48.3-50.3 0-503.2-1.7-928.9-61.7-203.8-28.7-364.9-66-478.8-110.8-45.8-18-84.3-37.4-115-58v1.2c30.7 20.4 69.1 39.8 114.6 57.7 114 45 275.1 82.3 479 111zm-448.5-126.1c109.8 43.3 265.1 79.3 461.5 107 410.5 57.9 846.8 59.6 895.2 59.6 62.5 0 104.8-15.4 129.4-47 23.2-29.8 30.8-73.7 23.8-138-6.2-57.4-23.3-124.6-41.4-195.6-26-102.3-55.5-218.2-55.5-323 0-77.3-18.1-131.3-55.5-165.2-68.6-62.3-194.6-50.2-340.5-36.2-69.7 6.7-141.9 13.6-215.9 13.6-78.2 0-180.6 14.1-288.4 39.8-114.7 27.4-228.5 65.8-329.2 111.1-114 51.5-205.1 108.6-270.4 169.9-22.9 21.5-42.3 43.2-58.3 65.2v1.7c16-22.3 35.7-44.3 59-66.1 65.3-61.2 156.2-118.3 270.3-169.7 197.2-88.8 450.9-150.9 617.2-150.9 74.1 0 146.2-6.9 216-13.6 60.4-5.8 117.4-11.3 168.3-11.3 71.8 0 131.5 10.9 171.4 47.2 37.1 33.7 55.1 87.5 55.1 164.5 0 105 29.5 221 55.5 323.3 36.6 143.8 68.1 267.9 17.7 332.7-24.4 31.4-66.5 46.6-128.6 46.6-48.4 0-484.6-1.7-895-59.6-196.3-27.7-351.5-63.7-461.2-107-63.2-24.9-111.9-52.5-144.9-82.2-.2-.2-.5-.4-.7-.6v1.4c33 29.7 81.9 57.4 145.1 82.4zm-109.1-94.6c31.8 28.6 78.8 55.3 139.7 79.3 105.7 41.7 255 76.4 443.9 103.1 395.3 55.9 814.8 57.5 861.3 57.5 60.2 0 101-14.8 124.8-45.3 48.9-62.8 18.6-182.7-16.6-321.4-24.9-98.3-53.2-209.8-53.2-310.6 0-74.4-17.5-126.5-53.5-159.2-66.1-60.1-187.6-48.5-328.3-35.1-67 6.4-136.3 13-207.4 13-75.3 0-173.9 13.6-277.6 38.4-110.4 26.3-219.9 63.3-316.8 107C242.7 847 155.1 902 92.2 961c-44.3 41.6-75.1 84.2-92.2 127.3v2.7c16.8-43.8 47.9-87.1 92.9-129.3 62.8-58.9 150.3-113.9 260-163.4C542.6 712.8 786.9 653 946.8 653c71.1 0 140.4-6.6 207.4-13 58.1-5.5 112.9-10.8 161.8-10.8 69.4 0 127.1 10.5 165.7 45.6 35.8 32.5 53.1 84.4 53.1 158.5 0 100.9 28.3 212.5 53.2 310.9 35.1 138.5 65.4 258.1 16.8 320.6-23.5 30.2-64.1 44.9-124 44.9-46.5 0-465.9-1.6-861.1-57.5-188.8-26.7-338.1-61.4-443.7-103.1-91.3-36-150.2-77.6-176-124v2.1c8.6 15.1 20.7 29.6 36.1 43.6zm-13.9-109.9c0-68.1 35-135.5 103.9-200.2C186.5 904 270.7 851 376.2 803.4c93-42 198.3-77.6 304.3-102.9 99.6-23.8 194.4-36.9 266.8-36.9 68.2 0 134.6-6.3 198.8-12.4 135.5-12.8 252.5-23.9 316.1 34 34.6 31.5 51.5 81.6 51.5 153.3 0 96.8 27 203.8 50.8 298.2 33.7 133.5 62.8 248.8 15.7 309.3-22.9 29.3-62.1 43.6-120.1 43.6-44.7 0-447.4-1.6-827.4-55.5-181.4-25.7-324.8-59.1-426.3-99.3-58.4-23.1-103.6-48.8-134.1-76.3-33.2-29.9-50.1-62.7-50.1-97.6zm1 0c0 66.6 61.8 124.9 183.5 173 101.4 40.1 244.8 73.5 426.1 99.2 380 53.9 782.6 55.5 827.3 55.5 57.6 0 96.6-14.1 119.3-43.2 46.8-60.1 17.8-175.2-15.8-308.4-23.8-94.5-50.8-201.5-50.8-298.4 0-71.3-16.7-121.2-51.1-152.5-37.2-33.9-92.9-44-160-44-47 0-99.6 5-155.3 10.3-64.3 6.1-130.7 12.4-198.9 12.4-153.8 0-388.5 57.5-570.7 139.7C271.4 852.1 187.3 904.9 127 961.6c-68.9 64.3-103.8 131.5-103.8 199.3zm37.2-8.4c0-65.4 33.5-130 99.6-192.2 57.9-54.5 138.6-105.3 239.8-151C489 769 590 734.8 691.7 710.5c95.6-22.8 186.5-35.4 256-35.4 65.2 0 128.8-6 190.3-11.7 130.2-12.2 242.7-22.8 303.9 32.9 33.3 30.3 49.5 78.5 49.5 147.3 0 92.8 25.8 195.3 48.5 285.8 32.2 128.2 60 239 14.7 297.1-22 28.2-59.8 41.9-115.4 41.9-42.8 0-428.7-1.5-793.5-53.4-173.9-24.7-311.4-56.8-408.7-95.4-56-22.2-99.3-46.9-128.6-73.3-31.9-28.8-48-60.3-48-93.8zm1 0c0 64 59.2 119.9 175.9 166.1 97.2 38.5 234.7 70.6 408.5 95.3 364.7 51.9 750.6 53.4 793.4 53.4 55.3 0 92.8-13.6 114.6-41.5 45-57.7 17.3-168.3-14.9-296.3-22.7-90.5-48.5-193.1-48.5-286 0-68.5-16.1-116.4-49.1-146.5-35.9-32.7-89.6-42.4-154.3-42.4-45.1 0-95.5 4.7-148.9 9.8-61.5 5.8-125.1 11.8-190.4 11.8-147.6 0-372.7 55.2-547.5 134.1-126.5 57.1-338.8 177.6-338.8 342.2zm37.2-8.4c0-62.7 32.1-124.6 95.4-184.2 55.5-52.2 132.7-100.9 229.6-144.7 85.4-38.6 182.1-71.4 279.5-94.7 91.5-21.9 178.6-34 245.2-34 62.3 0 123-5.7 181.7-11.1 125-11.6 233-21.7 291.7 31.8 31.9 29.1 47.5 75.3 47.5 141.3 0 88.8 24.5 186.8 46.1 273.4 30.7 123 57.3 229.2 13.8 285-21.1 27.1-57.4 40.2-110.8 40.2-40.9 0-410.1-1.4-759.6-51.3-166.4-23.8-298-54.5-391.2-91.5-112.1-44.5-168.9-98.4-168.9-160.2zm169.3 159.3c93 36.9 224.6 67.7 390.9 91.5 349.5 49.9 718.6 51.3 759.5 51.3 53.1 0 89.1-13 110-39.8 43.2-55.4 16.7-161.4-14-284.1-21.6-86.6-46.2-184.7-46.2-273.6 0-65.7-15.4-111.7-47.1-140.6-34.5-31.5-86.3-40.8-148.6-40.8-43.1 0-91.3 4.5-142.4 9.2-58.7 5.5-119.5 11.1-181.8 11.1-141.4 0-357 52.9-524.3 128.6-121.1 54.8-324.4 170.3-324.4 328 .1 61.2 56.7 114.8 168.4 159.2zm30.2-14.4c-107.1-42.6-161.4-94.2-161.4-153.2 0-59.9 30.7-119.2 91.1-176.2 53-49.9 126.8-96.5 219.4-138.4 81.6-37 174-68.3 267.1-90.6 87.5-20.9 170.8-32.5 234.4-32.5 59.3 0 117.2-5.3 173.2-10.5 119.8-11 223.2-20.6 279.5 30.8 30.6 27.9 45.4 72.2 45.4 135.3 0 84.7 23.3 178.4 43.8 260.9 29.3 117.7 54.6 219.4 12.8 272.8-20.3 25.9-55 38.5-106.1 38.5-141.8 0-454.2-10.4-725.7-49.3-158.9-22.7-284.6-52.2-373.5-87.6zm.4-.9c88.9 35.4 214.5 64.8 373.3 87.6 271.5 38.9 583.8 49.3 725.6 49.3 50.8 0 85.3-12.5 105.3-38.1 41.4-53 16.2-154.5-13-271.9-20.6-82.6-43.8-176.3-43.8-261.2 0-62.9-14.8-106.9-45.1-134.6-33.2-30.2-82.9-39.2-142.9-39.2-41.2 0-87.2 4.2-135.9 8.7-56 5.2-113.9 10.5-173.3 10.5-135.2 0-341.2 50.6-501.1 123-115.7 52.4-309.9 162.8-309.9 313.7 0 58.5 54.1 109.7 160.8 152.2zm30.2-14.4c-102-40.7-153.8-90-153.8-146.3 0-57.2 29.2-113.8 86.9-168.2 50.5-47.7 120.9-92.1 209.1-132.1 77.9-35.3 165.9-65.2 254.7-86.5 83.4-20 162.9-31 223.7-31 56.4 0 111.4-5 164.6-9.9 114.5-10.5 213.5-19.5 267.3 29.7 29.2 26.7 43.4 69 43.4 129.3 0 80.7 22 169.9 41.5 248.5 27.8 112.5 51.8 209.6 11.9 260.6-19.4 24.8-52.6 36.8-101.4 36.8-135 0-432.7-9.9-691.9-47.2-151.5-21.6-271.3-49.8-356-83.7zm.4-.9c84.7 33.8 204.4 62 355.8 83.7 259.1 37.2 556.7 47.2 691.7 47.2 48.5 0 81.5-11.9 100.7-36.4 39.6-50.6 15.7-147.6-12.1-259.8-19.5-78.7-41.5-167.9-41.5-248.8 0-60.1-14.1-102.1-43.1-128.6-31.8-29-79.6-37.6-137.2-37.6-39.3 0-83 4-129.4 8.2-53.2 4.9-108.3 9.9-164.7 9.9-128.9 0-325.5 48.3-477.9 117.4-110.4 50-295.5 155.4-295.5 299.4 0 55.9 51.5 104.9 153.2 145.4zm30.2-14.3c-97-38.8-146.2-85.7-146.2-139.4 0-54.5 27.8-108.4 82.6-160.2 48-45.4 115-87.8 198.9-125.9 74.1-33.6 157.8-62.1 242.3-82.4 79.4-19 155-29.5 212.9-29.5 53.5 0 105.6-4.7 156.1-9.3 109.3-9.9 203.7-18.4 255.1 28.6 27.9 25.5 41.4 65.8 41.4 123.4 0 76.7 20.8 161.4 39.1 236.1 26.3 107.2 49.1 199.8 10.9 248.5-18.5 23.6-50.2 35.1-96.8 35.1-128.3 0-411.2-9.5-658-45.1-143.9-20.8-257.8-47.7-338.3-79.9zm.4-1c80.5 32.2 194.3 59.1 338.2 79.9 246.7 35.6 529.6 45.1 657.8 45.1 46.3 0 77.7-11.4 96-34.7 37.9-48.3 15.2-140.7-11.1-247.6-18.4-74.8-39.2-159.5-39.2-236.3 0-57.2-13.4-97.3-41.1-122.6-30.5-27.8-76.3-36-131.5-36-37.3 0-78.9 3.7-122.9 7.7-50.5 4.5-102.6 9.3-156.2 9.3-122.7 0-309.7 46-454.7 111.8-104.9 47.6-280.9 148-280.9 285.1 0 53.1 49 99.7 145.6 138.3zm30.2-14.3c-92-36.9-138.6-81.5-138.6-132.5 0-51.8 26.4-103 78.3-152.2 45.6-43.1 109-83.4 188.7-119.6 70.3-31.9 149.7-59 229.9-78.3 75.3-18.1 147.1-28.1 202.1-28.1 50.5 0 99.8-4.4 147.5-8.6 104.1-9.3 194-17.3 242.9 27.5 26.5 24.3 39.4 62.7 39.4 117.4 0 72.7 19.6 152.9 36.8 223.7 24.9 102 46.3 190 10 236.3-17.7 22.5-47.8 33.4-92.1 33.4-121.5 0-389.7-9.1-624.1-43.1-136.5-19.7-244.5-45.2-320.8-75.9zm.3-.9c76.3 30.6 184.2 56.2 320.6 76 234.3 34 502.4 43 623.9 43 44 0 73.9-10.8 91.3-33.1 36.1-45.9 14.6-133.8-10.2-235.5-17.3-70.8-36.8-151.1-36.8-223.9 0-54.4-12.8-92.6-39.1-116.7-29.1-26.6-73-34.5-125.8-34.5-35.4 0-74.7 3.5-116.4 7.2-47.7 4.2-97 8.6-147.6 8.6-116.5 0-294 43.7-431.5 106.2-99.5 45.2-266.4 140.6-266.4 270.8.1 50.8 46.5 95.1 138 131.9zm30.2-14.4c-86.9-35-131-77.3-131-125.6 0-49 24.9-97.6 74.1-144.2 43.1-40.9 103.1-79 178.4-113.3 66.5-30.3 141.7-55.9 217.5-74.1 71.3-17.2 139.2-26.6 191.3-26.6 47.6 0 94-4.1 138.9-8 98.9-8.7 184.3-16.2 230.8 26.4 25.2 23.1 37.4 59.5 37.4 111.4 0 68.7 17.5 141.1 34.5 211.2 23.4 96.7 43.6 180.3 9 224.2-16.8 21.4-45.4 31.7-87.5 31.7-114.8 0-368.2-8.6-590.2-41-128.9-18.7-231-43-303.2-72.1zm.4-.9c72.1 29.1 174.1 53.3 303 72.1 221.9 32.3 475.3 41 590.1 41 41.7 0 70.1-10.3 86.7-31.4 34.3-43.5 14.1-126.9-9.2-223.3-17-70.2-34.5-142.7-34.5-211.5 0-51.6-12.1-87.8-37.1-110.7-27.8-25.4-69.7-32.9-120.1-32.9-33.4 0-70.6 3.3-109.9 6.7-44.9 3.9-91.4 8-139 8-110.3 0-278.2 41.4-408.3 100.7-94.1 42.9-251.9 133.2-251.9 256.6-.2 47.9 43.7 89.9 130.2 124.7zm30.2-14.3c-81.9-33.1-123.4-73.1-123.4-118.7 0-46.3 23.5-92.1 69.8-136.2 40.6-38.6 97.2-74.6 168.2-107 62.7-28.6 133.6-52.8 205-70 67.2-16.2 131.3-25.1 180.5-25.1 44.6 0 88.2-3.8 130.4-7.4 93.7-8.1 174.6-15 218.6 25.3 23.8 21.9 35.4 56.4 35.4 105.4 0 64.6 16.4 132.8 32.2 198.8 21.9 91.5 40.9 170.5 8.1 212-15.9 20.2-43 30-82.8 30-108 0-346.8-8.2-556.3-38.9-121.6-17.8-217.7-40.7-285.7-68.2zm.4-1c67.9 27.5 164 50.4 285.4 68.2 209.5 30.7 448.2 38.9 556.2 38.9 39.5 0 66.3-9.7 82-29.7 32.5-41.2 13.6-120-8.3-211.2-15.8-66-32.2-134.3-32.2-199 0-48.8-11.5-83-35.1-104.7-26.4-24.1-66.3-31.2-114.4-31.2-31.5 0-66.4 3-103.4 6.2-42.2 3.6-85.8 7.4-130.5 7.4-104.1 0-262.5 39.1-385.1 95.1-88.7 40.5-237.4 125.8-237.4 242.3 0 45.2 41.3 84.8 122.8 117.7zm30.2-14.3c-76.8-31.2-115.8-68.8-115.8-111.8 0-43.6 22.1-86.7 65.6-128.2 38.2-36.3 91.3-70.2 158-100.7 58.9-26.9 125.5-49.7 192.6-65.9 63.2-15.3 123.5-23.7 169.7-23.7 41.7 0 82.4-3.4 121.8-6.8 88.5-7.5 164.8-13.9 206.4 24.3 22.5 20.7 33.4 53.2 33.4 99.5 0 60.6 15.2 124.5 29.8 186.4 20.5 86.2 38.1 160.7 7.1 199.9-15.1 19.1-40.6 28.3-78.1 28.3-101.3 0-325.3-7.8-522.4-36.9-114.1-16.8-204.3-38.5-268.1-64.4zm.4-.9c63.8 25.9 153.9 47.5 267.9 64.4 197.1 29.1 421 36.8 522.3 36.8 37.2 0 62.5-9.1 77.4-28 30.7-38.8 13.1-113.1-7.3-199-14.7-61.9-29.9-125.9-29.9-186.6 0-46-10.8-78.3-33.1-98.7-25.1-23-63.1-29.7-108.8-29.7-29.5 0-62.2 2.8-96.8 5.7-39.4 3.3-80.1 6.8-121.9 6.8-97.9 0-246.7 36.8-361.9 89.5C506.6 895.8 367 976 367 1085.7c-.2 42.4 38.5 79.7 115 110.8zm30.2-14.4c-71.8-29.3-108.2-64.6-108.2-104.9 0-40.9 20.6-81.3 61.3-120.2 35.7-34 85.4-65.8 147.7-94.4 55.1-25.2 117.4-46.6 180.2-61.8 59.1-14.3 115.6-22.2 158.9-22.2 38.7 0 76.6-3.1 113.2-6.2 83.2-6.9 155.1-12.8 194.3 23.2 21.1 19.5 31.4 50.1 31.4 93.5 0 56.6 14 116.2 27.5 173.9 19 81 35.4 150.9 6.2 187.8-14.2 17.9-38.3 26.6-73.5 26.6-94.5 0-303.8-7.3-488.6-34.8-106.5-15.8-190.8-36.1-250.4-60.5zm.4-.9c59.6 24.3 143.8 44.7 250.3 60.5 184.7 27.5 393.9 34.8 488.4 34.8 34.9 0 58.7-8.6 72.7-26.3 28.9-36.5 12.6-106.2-6.4-186.9-13.5-57.7-27.5-117.5-27.5-174.1 0-43.1-10.2-73.5-31.1-92.8-23.7-21.9-59.8-28.1-103.2-28.1-27.6 0-58.1 2.5-90.3 5.2-36.6 3-74.5 6.2-113.3 6.2-93.1 0-229.2 33.7-338.7 83.9C535.6 899.2 405 974.4 405 1077.2c0 39.9 36.2 74.9 107.6 104zm30.2-14.4c-66.8-27.4-100.6-60.4-100.6-98 0-96.5 121.9-166.9 194.5-200.3C687.9 845 746 825 804.5 810.8c55.1-13.4 107.7-20.7 148.1-20.7 35.8 0 70.8-2.8 104.6-5.5 78-6.3 145.4-11.7 182.1 22.1 19.8 18.3 29.4 46.9 29.4 87.5 0 52.5 12.8 107.9 25.2 161.5 17.5 75.7 32.6 141.1 5.2 175.6-13.3 16.8-35.9 24.9-68.8 24.9-87.8 0-282.3-6.9-454.7-32.7-99-14.8-177.4-33.9-232.8-56.7zm.3-.9c55.4 22.7 133.7 41.8 232.7 56.6 172.3 25.8 366.8 32.7 454.5 32.7 32.6 0 54.9-8 68-24.6 27.1-34.1 12-99.3-5.4-174.8-12.4-53.6-25.2-109-25.2-161.7 0-40.3-9.5-68.7-29.1-86.8-22.4-20.7-56.5-26.5-97.6-26.5-25.6 0-53.9 2.3-83.8 4.7-33.9 2.7-68.9 5.6-104.7 5.6-86.8 0-213.6 31.5-315.5 78.3-72.4 33.3-194 103.5-194 199.4.1 37.2 33.8 69.9 100.1 97.1zm30.2-14.3c-61.7-25.5-93-56.1-93-91.1 0-89.6 112.8-155 180-186 47.5-21.9 101.2-40.4 155.4-53.6 51-12.4 99.8-19.2 137.3-19.2 32.8 0 65-2.5 96-4.9 72.8-5.7 135.7-10.6 170 21 18.5 17.1 27.4 43.7 27.4 81.6 0 48.5 11.6 99.6 22.9 149 16 70.5 29.9 131.4 4.3 163.5-12.5 15.6-33.5 23.3-64.2 23.3-81 0-260.9-6.5-420.8-30.7-91.5-14-164-31.7-215.3-52.9zm.4-1c51.2 21.2 123.6 38.9 215.1 52.8 159.8 24.2 339.6 30.6 420.6 30.6 30.4 0 51.1-7.5 63.4-22.9 25.3-31.7 11.5-92.4-4.5-162.7-11.3-49.5-22.9-100.6-22.9-149.2 0-37.5-8.9-64-27.1-80.8-21.1-19.5-53.2-25-92-25-23.6 0-49.7 2-77.2 4.2-31.1 2.4-63.2 4.9-96.1 4.9-80.5 0-198 29.2-292.3 72.8-67 30.9-179.5 96.1-179.5 185.1.1 34.6 31.2 64.9 92.5 90.2zm30.2-14.3c-56.7-23.6-85.4-51.9-85.4-84.2 0-82.7 103.7-143.1 165.6-171.7 43.7-20.2 93.1-37.3 143-49.5 47-11.5 91.9-17.8 126.6-17.8 29.9 0 59.1-2.2 87.4-4.3 67.6-5.1 126-9.5 157.8 20 17.1 15.9 25.4 40.6 25.4 75.6 0 44.5 10.5 91.3 20.6 136.5 14.6 65.3 27.2 121.6 3.3 151.4-11.6 14.5-31.1 21.6-59.5 21.6-74.3 0-239.4-6-386.9-28.6-84.2-12.9-150.8-29.4-197.9-49zm.4-.9c47 19.6 113.5 36 197.5 48.9 147.4 22.6 312.5 28.6 386.7 28.6 28.1 0 47.3-6.9 58.7-21.2 23.5-29.4 11-85.5-3.5-150.5-10.1-45.3-20.6-92.2-20.6-136.8 0-34.7-8.2-59.2-25.1-74.9-19.7-18.3-50-23.4-86.5-23.4-21.7 0-45.5 1.8-70.6 3.7-28.3 2.1-57.5 4.3-87.5 4.3-74.2 0-182.3 27-269.1 67.2-61.6 28.5-165 88.7-165 170.8.2 31.8 28.7 59.8 85 83.3zm30.2-14.4c-51.6-21.7-77.8-47.7-77.8-77.3 0-75.8 94.6-131.2 151.1-157.4C787 849.4 886 824.6 954 824.6c26.9 0 53.3-1.9 78.7-3.7 62.5-4.5 116.4-8.4 145.7 18.9 15.8 14.7 23.4 37.4 23.4 69.6 0 40.4 9.3 82.9 18.3 124.1 13.1 60 24.4 111.9 2.4 139.3-10.8 13.4-28.7 19.9-54.9 19.9-67.6 0-218-5.6-353-26.5-76.6-12-137.2-27.2-180.1-45.2zm.4-.9c42.8 18 103.4 33.1 180 45 134.9 20.9 285.3 26.5 352.9 26.5 25.8 0 43.5-6.4 54.1-19.5 21.8-27 10.5-78.7-2.6-138.4-9-41.2-18.3-83.7-18.3-124.3 0-31.9-7.6-54.4-23.1-68.9-18.4-17.1-46.8-21.8-81-21.8-19.7 0-41.3 1.6-64 3.2-25.5 1.8-51.9 3.7-78.8 3.7-67.9 0-166.7 24.8-245.9 61.6-56.2 26.1-150.5 81.2-150.5 156.5 0 29.2 25.9 54.9 77.2 76.4zm30.2-14.4c-46.6-19.8-70.2-43.5-70.2-70.4 0-69 85.6-119.3 136.6-143.1 71.7-33.6 161.4-56.1 223.1-56.1 23.9 0 47.4-1.6 70.1-3.2 57.3-3.9 106.7-7.3 133.7 17.8 14.4 13.5 21.4 34.3 21.4 63.7 0 36.4 8.1 74.6 16 111.6 11.6 54.8 21.7 102.1 1.4 127.2-9.9 12.2-26.3 18.2-50.2 18.2-60.9 0-196.6-5.1-319.1-24.5-69.4-10.8-124.1-24.7-162.8-41.2zm.4-.9c38.7 16.4 93.3 30.3 162.4 41.1 122.5 19.3 258.1 24.4 319 24.4 23.6 0 39.7-5.8 49.4-17.8 20-24.7 10-71.8-1.6-126.4-7.9-37-16-75.3-16-111.8 0-29.1-6.9-49.7-21.1-62.9-17.1-16-43.6-20.3-75.5-20.3-17.7 0-37 1.3-57.4 2.7-22.7 1.6-46.2 3.2-70.1 3.2-61.6 0-151.1 22.5-222.7 56-50.8 23.8-136 73.8-136 142.2-.1 26.6 23.4 50 69.6 69.6zm30.1-14.3c-41.6-17.9-62.6-39.2-62.6-63.5 0-62.1 76.5-107.4 122.1-128.9 64.2-30.2 144.5-50.5 199.9-50.5 20.9 0 41.5-1.3 61.3-2.6 52.1-3.3 97.1-6.2 121.6 16.8 13.1 12.3 19.4 31.1 19.4 57.7 0 32.3 7 66.2 13.7 99.1 10.2 49.6 18.9 92.4.4 115.1-9 11.1-24 16.5-45.6 16.5-50.5 0-175-4.7-285.2-22.4-61.6-9.9-110.4-22.5-145-37.3zm.4-.9c34.5 14.8 83.2 27.4 144.8 37.3 110.2 17.7 234.7 22.4 285.1 22.4 21.3 0 36-5.3 44.8-16.1 18.2-22.3 9.5-64.9-.6-114.3-6.7-32.9-13.7-66.8-13.7-99.3 0-26.3-6.3-44.9-19.1-57-15.8-14.8-40.5-18.8-70.2-18.8-15.7 0-32.8 1.1-50.7 2.2-19.9 1.3-40.4 2.6-61.4 2.6-55.3 0-135.4 20.3-199.5 50.4-45.4 21.4-121.5 66.5-121.5 128 0 23.8 20.9 44.8 62 62.6zm30.2-14.4c-36.5-16-55-35-55-56.6 0-55.2 67.4-95.5 107.6-114.6 56.6-26.9 127.6-44.9 176.7-44.9 17.9 0 35.5-1 52.6-2 47-2.7 87.6-5.1 109.6 15.7 11.7 11.1 17.4 28 17.4 51.8 0 28.3 5.8 57.9 11.4 86.5 8.7 44.4 16.2 82.7-.6 103.1-8.2 9.9-21.6 14.8-40.9 14.8-44.2 0-153.7-4.2-251.4-20.3-54.1-9-97-20.2-127.4-33.5zm.4-.9c30.3 13.3 73.1 24.5 127.2 33.4 97.6 16.1 207 20.3 251.2 20.3 19 0 32.2-4.7 40.2-14.4 16.5-20 9-58.1.4-102.3-5.6-28.7-11.4-58.3-11.4-86.7 0-23.5-5.6-40.1-17.1-51-14.5-13.7-37.4-17.2-65-17.2-13.7 0-28.5.9-44 1.8-17 1-34.7 2-52.6 2-49 0-119.8 18-176.3 44.8-40 19-107 59-107 113.7 0 21.1 18.3 39.8 54.4 55.6zm30.2-14.4c-31.5-14.1-47.4-30.8-47.4-49.6 0-48.4 58.3-83.6 93.1-100.3 49-23.5 110.7-39.4 153.5-39.4 14.9 0 29.5-.8 43.7-1.5 41.9-2.1 78.1-4 97.8 14.7 10.4 9.9 15.5 24.9 15.5 45.8 0 24.2 4.7 49.5 9.2 73.9 7.2 39.2 13.5 73.1-1.6 91.1-7.3 8.8-19.2 13.1-36.3 13.1-38 0-132.4-3.8-217.5-18.2-46.8-7.9-83.8-17.9-110-29.6zm.4-.9c26.1 11.7 63 21.6 109.6 29.5 85 14.4 179.3 18.2 217.3 18.2 16.8 0 28.4-4.2 35.5-12.7 14.7-17.7 8.5-51.3 1.3-90.3-4.5-24.5-9.2-49.8-9.2-74.1 0-20.7-5-35.4-15.2-45.1-13.3-12.6-34.5-15.7-59.9-15.7-11.6 0-24.1.6-37.1 1.3-14.2.7-28.8 1.5-43.7 1.5-42.7 0-104.2 15.8-153.1 39.3-34.6 16.6-92.5 51.6-92.5 99.4.2 18.4 15.9 34.8 47 48.7zm-9.7-57.1c0-41.5 49.2-71.7 78.6-86 41.5-20.2 93.8-33.8 130.3-33.8 11.8 0 23.4-.5 34.7-1 36.9-1.6 68.7-2.9 86 13.7 9.1 8.7 13.5 21.8 13.5 39.9 0 20.1 3.5 41 6.9 61.2 5.7 34.1 10.7 63.5-2.6 79.2-6.5 7.7-16.9 11.4-31.7 11.4-66.6.1-315.7-14.3-315.7-84.6zm1 0c0 36.6 71.4 56.9 131.3 67.5 72.3 12.8 151.6 16.2 183.4 16.2 14.5 0 24.7-3.6 30.9-11.1 13-15.3 8.1-44.5 2.4-78.4-3.4-20.3-7-41.2-7-61.4 0-17.9-4.3-30.7-13.2-39.2-12.1-11.6-31.7-14.3-55.2-14.3-9.5 0-19.5.4-30 .9-11.3.5-22.9 1-34.7 1-36.3 0-88.5 13.5-129.9 33.7-29.1 14.2-78 44.2-78 85.1zm37.2-8.4c0-34.6 40.2-59.8 64.1-71.7 33.9-16.9 76.9-28.2 107.1-28.2 8.6 0 17.1-.3 25.4-.5 31.9-1 59.5-1.8 74.5 12.7 7.8 7.5 11.5 18.6 11.5 34 0 15.9 2.4 32.4 4.8 48.4 4.3 29 8 54-3.6 67.4-5.7 6.6-14.5 9.7-27.1 9.7-25.7 0-90.1-3-149.7-14.1-31.8-5.9-56.9-13.3-74.7-21.9-21.4-10.2-32.3-22.3-32.3-35.8zm1 0c0 30.4 57.7 47.6 106.1 56.7 59.6 11.2 123.9 14.1 149.5 14.1 12.3 0 20.9-3.1 26.4-9.4 11.3-13.1 7.6-37.9 3.4-66.6-2.4-16-4.8-32.6-4.8-48.5 0-15.1-3.7-26-11.2-33.3-11-10.7-29.3-12.9-51.1-12.9-7.2 0-14.8.2-22.7.5-8.3.3-16.8.5-25.4.5-30 0-72.9 11.3-106.7 28.1-23.7 11.9-63.5 36.8-63.5 70.8zm37.2-8.3c0-46.2 87.8-80 133.5-80 5.2 0 10.4-.1 15.5-.2 27.3-.5 50.8-.8 63.6 11.7 6.5 6.4 9.6 15.6 9.6 28.2 0 11.6 1.4 23.7 2.7 35.3 2.7 23 5.2 44.7-4.7 55.9-4.8 5.4-12.2 8.1-22.6 8.1-22.8 0-72.5-3.2-115.8-12-37.3-7.7-81.8-22-81.8-47zm1 0c0 24.3 44 38.4 81 45.9 43.3 8.8 92.9 12 115.6 12 10.1 0 17.2-2.5 21.8-7.7 9.6-10.8 7.1-32.3 4.5-55.1-1.4-11.7-2.8-23.7-2.8-35.4 0-12.3-3-21.3-9.3-27.5-10.2-10-27.6-11.6-48.3-11.6-4.7 0-9.5.1-14.5.2-5.1.1-10.3.2-15.5.2-45.4-.1-132.5 33.3-132.5 79zm37.2-8.4c0-15.5 12.5-30.8 35.1-43.1 19-10.4 42.9-17.1 60.7-17.1h4c22.3 0 43.3-.1 54.1 10.8 5.3 5.3 7.8 12.6 7.8 22.5 0 7.1.5 14.3 1 21.4 1.3 18.6 2.5 36.1-6 45.1-4.1 4.4-10 6.5-18.2 6.5-15.9 0-50.9-2.7-82-10-25.8-6-56.5-17.2-56.5-36.1zm1 0c0 18.2 30.3 29.2 55.8 35.2 31 7.3 65.9 10 81.7 10 7.9 0 13.6-2 17.4-6.2 8.2-8.7 7-26.1 5.7-44.4-.5-7-1-14.3-1-21.4 0-9.6-2.5-16.8-7.5-21.8-9.9-9.9-29-10.5-49.6-10.5h-7.8c-17.7 0-41.3 6.6-60.3 16.9-12.8 7-34.4 21.8-34.4 42.2zm37.1-8.4c0-23 35.3-40.3 58.1-40.3 21.3 0 43.2 3.2 43.2 26.9v3.5c0 14.9.1 30.4-7.6 38-3.4 3.5-8.1 5.1-14.3 5.1-22.5.1-79.4-9.8-79.4-33.2zm1 0c0 22.3 56.9 32.3 78.5 32.3 5.9 0 10.3-1.6 13.5-4.8 7.4-7.4 7.3-22.6 7.3-37.3v-3.5c0-22.8-21.3-25.9-42.2-25.9-22.4 0-57.1 16.8-57.1 39.2zm37.2-8.3c0-11.3 9.2-20.4 20.4-20.4 11.3 0 20.4 9.2 20.4 20.4 0 11.3-9.2 20.4-20.4 20.4s-20.4-9.2-20.4-20.4zm1 0c0 10.7 8.7 19.4 19.4 19.4s19.4-8.7 19.4-19.4-8.7-19.4-19.4-19.4-19.4 8.7-19.4 19.4z" fill="#748993"/></svg>