<svg version="1.1" xmlns="http://www.w3.org/2000/svg" x="0" y="0" viewBox="0 0 1920 1920" xml:space="preserve"><path d="M0 0h1920v1920H0V0z" fill="#36434f"/><path d="M24 460.5h216v27H24zm240 0h72v27h-72zm96 0h144v27H360zm168 0h240v27H528zm264 0h192v27H792zm-768 108h240v27H24zm264 0h48v27h-48zm72 0h144v27H360zm168 0h192v27H528zm216 0h96v27h-96zm120 0h48v27h-48zm72 0h168v27H936zm192 0h48v27h-48zm72 0h72v27h-72zm96 0h144v27h-144zm168 0h216v27h-216zm240 0h24v27h-24zm48 0h96v27h-96zm-1728 54h48v27H24zm72 0h96v27H96zm120 0h192v27H216zm216 0h72v27h-72zm96 0h240v27H528zm264 0h312v27H792zm336 0h120v27h-120zm144 0h96v27h-96zm120 0h288v27h-288zm312 0h48v27h-48zm72 0h96v27h-96zm-1752 54h48v27H24zm72 0h72v27H96zm96 0h192v27H192zm216 0h168v27H408zm192 0h288v27H600zm312 0h216v27H912zm240 0h168v27h-168zm192 0h240v27h-240zm264 0h72v27h-72zm96 0h144v27h-144zm-1680 54h48v27H24zm72 0h96v27H96zm120 0h120v27H216zm144 0h168v27H360zm192 0h144v27H552zm168 0h192v27H720zm216 0h264v27H936zm288 0h264v27h-264zm288 0h144v27h-144zm168 0h96v27h-96zm-1656 54h144v27H24zm168 0h48v27h-48zm72 0h72v27h-72zm96 0h216v27H360zm240 0h72v27h-72zm96 0h48v27h-48zm72 0h144v27H768zm168 0h168v27H936zm192 0h48v27h-48zm72 0h96v27h-96zm120 0h72v27h-72zm96 0h192v27h-192zm216 0h48v27h-48zm-1608 54h216v27H24zm240 0h48v27h-48zm72 0h48v27h-48zm72 0h72v27h-72zm96 0h168v27H504zm192 0h48v27h-48zm72 0h72v27h-72zm96 0h216v27H864zm240 0h264v27h-264zM24 946.5h72v27H24zm96 0h120v27H120zm144 0h216v27H264zm240 0h144v27H504zm168 0h72v27h-72zm96 0h96v27h-96zm120 0h240v27H888zm264 0h144v27h-144zm168 0h120v27h-120zm144 0h48v27h-48zm72 0h192v27h-192zm216 0h48v27h-48zm72 0h72v27h-72zm-1800 54h144v27H24zm168 0h48v27h-48zm72 0h264v27H264zm288 0h192v27H552zm216 0h48v27h-48zm72 0h72v27h-72zm96 0h216v27H936zm-912 108h72v27H24zm96 0h192v27H120zm216 0h48v27h-48zm72 0h192v27H408zm216 0h72v27h-72zm96 0h96v27h-96zm120 0h168v27H840zm192 0h192v27h-192zm216 0h48v27h-48zm72 0h72v27h-72zm96 0h120v27h-120zm144 0h168v27h-168zm192 0h48v27h-48zm-1728 54h192v27H24zm216 0h216v27H240zm240 0h72v27h-72zm96 0h72v27h-72zm96 0h168v27H672zm192 0h48v27h-48zm72 0h72v27h-72zm96 0h240v27h-240zm264 0h48v27h-48zm72 0h384v27h-384zm-1344 54h168v27H24zm192 0h72v27h-72zm96 0h24v27h-24zm48 0h240v27H360zm264 0h168v27H624zm192 0h72v27h-72zm96 0h384v27H912zm408 0h48v27h-48zm72 0h48v27h-48zm72 0h120v27h-120zm144 0h120v27h-120zm144 0h72v27h-72zm-1728 54h168v27H24zm192 0h48v27h-48zm72 0h216v27H288zm240 0h168v27H528zm192 0h48v27h-48zm72 0h144v27H792zm168 0h72v27h-72zm96 0h72v27h-72zm96 0h144v27h-144zm168 0h168v27h-168zm192 0h48v27h-48zm72 0h120v27h-120zm-1560 54h240v27H24zm264 0h168v27H288zm192 0h48v27h-48zm72 0h48v27h-48zm72 0h144v27H624zm168 0h48v27h-48zm72 0h216v27H864zm240 0h96v27h-96zm120 0h48v27h-48zm72 0h240v27h-240zm264 0h168v27h-168zm192 0h120v27h-120zm-1728 54h72v27H24zm96 0h48v27h-48zm72 0h48v27h-48zm72 0h48v27h-48zm72 0h240v27H336zm264 0h96v27h-96zm120 0h72v27h-72zm96 0h192v27H816zm216 0h48v27h-48zm72 0h72v27h-72zm96 0h72v27h-72zm96 0h48v27h-48zm72 0h120v27h-120zm144 0h192v27h-192zm216 0h48v27h-48zm72 0h72v27h-72zm-1776 54h216v27H24z" fill="#999"/></svg>