<svg version="1.1" xmlns="http://www.w3.org/2000/svg" x="0" y="0" viewBox="0 0 1920 1920" xml:space="preserve"><style type="text/css">.st1{fill:#989898}</style><path fill="#445a76" d="M0 0h1920v1920H0z"/><path d="M1083 376L918 31M729 303L579 105m1186 1676l-422-134m437-874l-403 7m-158 110l-127-281m-747 494l-245 220m760 153l-91-22m-234-228l-261-39m926-379l-4 60m-22-169l-8-242m477 421l-187-234M863 234l-297 64m-292 889l-45-381m45 381l-2-19m799-365L899 946m604 181l-42-6M422 1887L42 1649m1850-935l-67-681M779 241l-330 9m279-78l-38 257m237 1035l-216 263M579 105l-88 7m753 1210l-35 75m-749 107l-328-126m1656-664l-40-488m-547 1089l-4-90m-105-616l-21-50M541 693l-70-79m990-459l-173-74m536 1801l-112-529m-256-709l-40-405m452 981l-96-320M635 354l-60-60m60 60L280 213m535-51l-87 10m406 447l-121 234m-745 670L23 1155m552 308l-89 49m225 215l-365 127M775 48l-46 255m852 1019l-238-198m429-224l-103-354m-460 851l-8-82m-102-587l-53-236M715 1554l-293 333m752-1188l-75 29M418 1783l-73-102m821-1224l-69 314m668 1010l-59-345m-505-121l-67 318m717 257l-27-8M1106 805L855 678m910 1103l-419-162m-240-814l-35-2m272 844l-369 15m482-1018l-256 164m572 92l-311 221m90-412l-17-7M861 314l-20 79M679 1419l-218 202m783-299l-95 311m-720-529L229 744m175 365l-59-6m703 625l-74-66m-399-199l-46-77m1085 257l-307-74m251-336l-41-34m351 21l-310 13m-124 78l-23 292m-68 44l-353 73m624-77l-33-321m-510-519l-231 54m-258 193l-224 244m449-522l-102-68m135 153l-33-85m901-467l-120-91m-376 83l-42-6M518 1636l-270-93m1087-608l-43 120m-947 48L229 806m0-62l-96-174m682-408l-324-50m230 1654l-10-39M813 124l-38-76m139 772l-326-7m1184 87l-137-316M783 271l-74 246M575 294L84 284m498 914l-310-30m394-851L471 614m878 792l-140-9m631-518l-255 265M418 1783l-229-276M1882 22l-57 11M690 429L449 250m1159 679l-152-285m213-98l-253-307m-633 32L491 112m1094 1032l-293-89m-220 268l-98 339m372-43l-3 28M902 695l-3 251M259 310L77 613m1044 236l-15-44m476 365l-24 63M840 857l-96-23m-284 670l-58 312m1363-35l-425-151m-268-307l-97 47M611 215l-352 95m847 495L871 687m-448 485L204 964m-55 0l-71 363M1325 159l-37-78M529 1386l-171 191M1882 22l-96 73m-437 1311l-281 75m216-1019l-10 81m334 386l-267 112m-476 280l-33 18m624 137l-72-321m-516 6l-286 37m-245-14l-205 194m1413-794l-338-51m227 778l-7 91m445 34l-418-169M1786 95l-574 202m660 1139l-355-237m-1085-71l-9 44m1135 61l-47-292m-204 628l-288-141M145 141l-14-43m584 1456l-93 55m83-905l-353 56m134 752l-8 51m672-1252l-67 65m663 198l-77-28M666 317L491 112m-107 38l-50-66m1183 1115l-63 68m418 169l-48 446M268 1523l-20 20m612-67l-243-209m1223-388l-68 21m-109 186l-78 58m-242-20l-220-143M471 614l-22-364M345 1681l-135 61m1615-241l-119-65M752 404L503 657m237-39l-298 55m337-432L579 105m1129 200l-289 320m-298 224l-50-46M251 961L133 570m1210 554l-125-260m390 65l-224 226M752 404L541 693m-312 51v62m-25 158L78 1327m376 134l-423-61M1083 376l-331 28m68-284l-5 42M454 1461l-117-277m342 235l-204-171m1194-702l-34 38m-411-220l-54-73m-323 832L744 834m0 0l-156-21m114 973l-242-282M1882 22l-670 275M914 820l-74 37m537-77l-85 275m463 733l-409-169M744 834l-39-130m1119 1178l-484-252M611 215l-36 79m1108 352l-75 283m-782 884l-204-204m596-745l-34 6M176 160l-60 409m370 943L61 1720M1669 546l-81 341m31 167l-327 1M242 1651l-32 91m939-109l-289-157m-325-250l-75 278m251 223l-89-118m353-239l-48 94m322 191l-115-22m-423 94l-260-190m1037 66h-77M666 317L386 161m317 948H404m1069 453l-17-86m-777-57l-104 44m-93-327l-50-8m775-595l-101 272m-484 804l-412 133m412-133l-104 27m1361-212l-7 12m-166 0l-252-169m258 86l-256 123m17 86l-229-240M385 367l-65-63m1231 96l-4 75m-455 134l-25 45m32 74l-83-224M566 298L374 628m1143 571l-273 123m303-847l-170 305m505-758l-94 136m-8 615l-161 281m-294-895l-159 298M820 120l-45-72m997 852l-110-38m-614 866l-58-8m521-779l-292-51m-787 238L229 806m129 771l-198 224m88-258L98 1206m1072-915l-154 213m-883 66l-56 43m1702 1272l-87 10m-448-573l-43-7m233-4l-91 336m497-768l-258 291m-267 530l-66-45m-798-118l-93 40m1103-456l-217 201M320 304l-61 6m1613 1126l-291-114M518 1636l-276 15M779 241l-51-69m720 171l-200 299m286 60l-86-359M813 124l-61 280M640 284l-255 83M237 953l-88 11m305 497L42 1649m1265-80l-333 93m-142-323l-49-40M728 172l-344-22m766 1562l-290-236m-382 87l-27-26m-126-62L23 1155m1251-612l-74 265m140 822l-25 70m210-718l-71 285M116 569l-39 44m1350 789l-230-177m-774-53l-305 105m872 443l-16-58m850 220l-478-263m326-633l-331 55m-855 471l-35 25M813 124l-85 48m907 412l-27 345m-565 49l-289 85m106 413l-28-137m940-439l-269 227m323 706l-2 49M358 1577l-226-199M239 209l-63-49m1310 1107l-289-42m-746 312l-93-243m1514 142l-258 207m5-589l-34 90m-419-687l-83-81m785 844l-283-76M334 84l-69 88m513 420l-73 112M422 1887l-97-412M918 31l-105 93m388 1191l-52 318m730-209l-298-102m-607 340l-142-323m-6 474l-25-32m1023 101l-368-406m-495-151l-96-4m476-280l-49 14m420 298l-6 83m-329-656l-271 25m142-163l-29 248m124 234l-134 273m-35-698l-1 21m-127-228L861 314m697 919l-266-178M118 1277l-95-122m996 273l-92 36m-452-216l-150 227m263-662l-159 291m1317-530l-21 87M460 1504L31 1400m1061-791l-53-3m67 199l-9-34m76-51l-157-216m810 1329l-370-357m152-547l-83 53m-241-520l-268 42m619 80h-90m323 636l-287 102M841 393l-28-269m-468 979l-322 52m792-993l-2-38M436 1408l-226 334m1662-306l-180 459m180-459l-47 65m-1314-67l-29-298m1201-490l-95-432M386 161l-52-77m283 1183l-272-164m864 294l-161 331m-87-403l-246 229m704-929l-84 310m99 376l-94 319M931 363l-90 30M511 1434l-57 27M386 161L84 284m1160 1038l-110 311m738-197l-21 454m-340-949l-55-297m227 2l-14-100m-503-89l-325-64m864 1125l-271-207m-113-119l-124 33M1825 33l-541 429m-532-58l-26-95m1153 1115l-260-370m89-749l-174 397m-17 497l-14-72M436 1408L61 1720m958-292l-44-58m-440-144l-263-58m164 240l-276 393m542-15l-224-223M385 367l-26 51m1461 186l-95 57m-137-447l-127-59M962 268l-234-96m-88 112l-5 70m125 187l-20 77M491 112l-105 49m1482 1059l-45 475m-751-372l-225-200m-425 764l-4-104m679-1012l-26 32m754-770l-37 681M729 303l-3 6m1029 1479l-49-352m-295 167l-65 16M133 570l-17-1m1522 1056l-24 18m-126-40l-34-336m131-123l-68 55m323-320l-171-333m36 972l-67 107M566 298l-117-48m272 1516l-38 57m-473-81l-50 59m1301-680l-264 104m0 0l-154-247m782-945l-71 95M586 1113l-4-63m965-575l-99-132m-808-59l-65 10m42 973l-259 27m1348 142l-124-266m-486 603l-48-45m-279-274l-291 109m983-1408l-311 156M486 1512l-11-264M813 124l-322-12m284-64L666 317M358 1577l-90-54m1143 80l-10 56m419-1055l-32-446M715 1554l-297 229M841 393L611 215m637 427l-75 78M611 215l-460 25m1689 639l-60-106m-636 106l-23-30m-194 615l-126 317m-740-61l-19-71m461-992l-61 16m378-553l-329-8m211 1674l-19 37m20-714l-280 63m6-68l-6 68m920 475l-142-332m504 203l-251-251m271-606l-53 325m-528-107l-21 102M471 614l-97 14m587 697l-129 14m392-975l-157 290m177 668l-47-97m-203 157l-4 338M855 678L752 404m222 1258l-259-108m504-664l-1-26M579 105L259 310m-11 1233l-59-36M635 354L442 673m907 733l-6-282M611 215l-291 89M1882 22l-598 440M320 304l-40-91m759 393l-334 98m-433 464l-43-362m915 73l-10-260m-431 490l-121-59m303-14l-131 27m680 248l-93-270m-890 496l-319-159m-54-51l-47 73m1631-538l-19 16m-874 576l-283 58m-141 169l-103-30m1214-175l-135-284m467-478l-263 268M728 172l-279 78m33 886l-59 36m1025-829l-32-104M931 363l-70-49m664 668l-14-41m313 941l-97 22m-19-1599l-163 279m-168 196l-42 155M705 704l-70-350m799 957l-88 308m-499-496l-269 74m1294 239l-445-34m120-927l-340 58M820 120L666 317M210 1742l-168-93m919-324l-258-216m-37-792l-1-46m338 1022l-324 126m153-80l-250-141m1243 303l-243-331M359 418l-39-114m1299 750l-284-119M100 1323L32 860m1793 641l-339-234m157-389l-61 292M280 213l-41-4m203 464L204 964m267-350L84 284m253 900L149 964m1459-35l-97 12M131 98L87 230m1137 134l-50 335m651 802l-120 17M863 234l-48-72m188 1131l-42 32m-386 138l-157 320M690 429L442 673M210 1742l-110-419m104-359l-88-395M918 31L635 354m539 345l-91-323m258 665l-197-162M760 541l-51-24m475 353l-228 147m824-244l-361-148M251 961l-14-8m1236 609l-19-295M280 213l-15-41m932 1053l-241-208m532 586l-15-41m350 133l-58 86m14 104l-52 19M242 1651l-82 150m519-382l-93-306m-51 113l-60 22m380-570l-14-285M160 1801l-59-356m1750 445l-395-414M337 1184L229 806m842-247l-55-55m0 0L752 404m702 863l-20 44M160 1801l-82-474m1243-135l-318 101M579 105L385 367M229 744l-45 19m1035 127l-263 127M536 495l-33 162m814 1200l-327-137m356-101l-39-50m-134-849l-74 8m607 708l-295 167m-690 163l-19 20m906-857l-50 304m230-519l-8 59m-361-148l-245 74m-103-140l-32 47m0 0l-23-102m-434 546l-245 134m384 582l-375 88m136-718L204 964m1488 931l-236-419M778 592l-69-75m6 1037l-36-135m-243-11l-91-305m357 683l-241-165M640 284L176 160m998 539l-40-80M690 429L503 657m323 1156l-348-250m97-100l-64-29m-25 78l-26-8m366 309l-404 74M841 393l-275-95m249-136L575 294m673 348l-74 57m-1 21l-7-263m-894 711l-88-405m1272-119l-37-19m-347 698l-69-30m-645 284l-13 104m1382 223l-271-428M863 234l-2 80M454 1461L78 1327m824-632l-47-17m488 969l-94 8M635 354l-69-56m383 775l-64-37m903-322l-63-53M436 1408l-247 99m1356-923l-89 60M536 495l-65 119m64 612l-49 286m297-213l-254 87m577-581l-7-77M893 866l-53-9m822 5l-117-278M491 112l-107 38m766 1562l-1-79m-438 94l-28 96m790-261l-324 71m-203-549l-99 39m127 539l-13-337m42-32l-28 77m790 411l-10 7M449 250l-65-100m655 456l-279-65m72 798l-254-142m1245 498l-480-48m-209-14l-62-310m344-1084l-91-80m260 985l-3 26m269-491l-63 35m-206 456l-241-129m-1 589l-96-308m97-281l-141-233M449 250l-298-10m712-6l-288 60m134 223l-19-88m-208 707l-53-32m13-431l-68-45m380 435L588 813m929 386l-320 26m-149 503l-73-358m350-1211l-242 217M454 1461l-353-16m1518-391l-185 257M855 678L690 429m31 1337l-261-262m1013 58l-339 71M251 961l-102 3m293-291L237 953m1011-311l-98-331M229 744L59 1115m1666-454l-117 268M578 1197l-124 264m962-1222l-250 218m-730 951l-162-221m1605 237l-54 77m-1365 3L61 1720M1248 642l-232-138m732-278l-40 79M871 687l-64 85m1019 1061l-47 52m-74-367l-359 101m359-101l-147-285M729 303l-63 14m160 1496l-105-47m503-1402l-74-53M918 31L779 241m1001 532l-324-129m129 500l-82-17M950 143L841 393m-224 874l-35-69m29-983l-32-110m770 1301l-199 306M176 160L84 284m34 993l-40 50m20-121L32 860m422 601l-18-53m152-595l-106 323M265 172L116 569m1663 1316l-439-255M176 160l-25 80m948 488L840 857m946-762l-32 33m69 1567l-242-373M337 1184l-65-16m1579 722l-536-190m-892-528l-98 303m104-371l-84-1m191-608L151 240m1561 1113l-93-299M855 678l-48 94m343-461l-309 82M248 1543l-6 108M918 31l-98 89m429 1535l-5-333m-26-458l-10 26m-74-271l-42-10m466 624l-85 329M418 1783l-16 33M1882 22l-94 692M132 1378l-54-51m1594-341l-64-57M352 760l-123-16m863-135l-79 244m-64 220l-3 11m842-926l-34-30M78 1327l-17 393M442 673L77 613m784-299l-83 278m-88-163l-154 66m614 1217l-54 61m-692-664L78 1327M726 309l-60 8m406 1006l-78 59M176 160l-31-19m1635 632l-117 313m45-781l-157 404m-595 308l-10 67m224-793l-87 85m809 338l-10-692M783 271l-57 38m708 1002l-85 95m-580 48l-309 50M1788 158l-40 68M345 1681l-303-32m544-536l-8 84M386 161l-2-11M101 1445l-70-45m1493-691l-68-65m154-496l-22 66M536 495l-420 74m846-301l-31 95M778 592l-38 26M536 495L320 304m109 800L184 763m1341 219l-204 210m-97-828l-58 93M402 1816l-56 38M871 687l-16-9m808 408l-322-45m-881 463l-6-43m1425-37l-241 201M132 1378l-31 67m918-17l-25-46M807 772l-63 62m63-62l-53 291m-33 703l-243-203m1067-979l-271-41m-763 891l-166 247M229 806l-45-43m451-409L334 84m765 644l-56 250m782-945l-601 331M251 961L116 569m878 813l-315 37m-243-11l-4-280m1056 475l-339 30m677 200l-71-45M586 1113l-314 55m878 544l-175-342M666 317l-281 50M149 964l-49 359m1792-609l-52 165M149 964L32 860M1786 95l-370 144m-168 403l-104 237m202 740l-145-304m-133 166l-49-53m77 345l-106-53m4-338l-19-12m876 520l-508-243M268 1523L61 1720M1067 654L840 857m-651 650l-88-62m767-284l-290 36m925-70l-154 279M579 105L320 304M204 964l-71-394m1210 1077l-28 53m-970-597l-8 81m881-320l-84-245m748-597l-658 342M38 811l-6 49m422 601L61 1720m642-611l-228 139m-117 46l-84-107m416-758L471 614m872 510l-22 68M541 693l-99-20m223-402l-385-58m841 636l-175 235m-486 420l-359-59M729 303L334 84m418 320l-62 25M511 1434l-88-262m1397-568l-212 325M640 284l-74 14m1274 581l-205-295M385 367L229 744m116 359L31 1400M566 298l-286-85m736 291L863 234M325 1475l-57 48m799-869l-28-48m-616 566l-19-63m770-410l-158-195m709 157l-214 280m195 495l-1 82M703 1109l-117 4m154-495l-35 86m401 101l-299-33m920 1132l-420-335m-313-187l-33-57M1825 33l-613 264m-867 806l-73 65m569-775l-266-99M176 160l-45-62m291 1789l-20-71M815 162L690 429m171-115l-286-20m1033 635l-63-345m-371 115l-128-207m-914 886l-101 22M1212 297L918 31M151 240l-67 44m1135 606l-85-271M962 268l-101 46m663 395l-105-84M418 1783l-72 71m1142-251l-279-206m546 391l-63-17m-981-44l-366-46m789-1062l-63-60m-293 33l-18-51M358 1577l-257-132M280 213L116 569m1230 1050l-102-297m399-444l-182 243m-750 606l-257-266m770-1097l-12-67m426 1328l-57-303m-30-922l-327-36m-441-93l-4-30m-197 809l-345-97m929-496L861 314m262 667L914 820m-439 428l-24 289m309-996l-95-270m544 1126l-113 376m-936 28l-99-81m37-514l-75-51m395 628l-150-260m1487 265l-438 69m144-736l-77 34m436-551l-401 21m360 1260l-464-185m-97-836l-18-56m-583 459l-157 237m674-885l-67 35m-799 869l-150-246m1544-415l-74 25m-404-17l-40 9M665 271l-54-56m486 556l-226-84m-330 6l-38-36m119 952l-186-201M918 31L752 404m222 1258l-352-53m789-6l-202-206m546 391l-43-435m-1354-59l-258 29m1148-681l-202-150M665 271l-25 13m816 360l-79 136m-899 783l-120-269m117-46l-52-76m1080-45l-76 275M337 1184l-278-69m1266-956L918 31m954 1405l-26 1m-134-84l-131-31M1325 159l-279 333m-468 705l-306-29m1420 603l-78-128M229 806v-62m978-211l-41-76m381 18l-299 167m506-514l-306 215m376 1539l-210-239M454 1461l-294 340m1502-939l-159 265m85-240l-63 95M775 48L334 84m551 952l-38 87m250-352l-81-267M871 687l-368-30m399 38L588 813m-59 573l-93 22m776-1111l-173 309m235-63l-26 99m631 782l-152 480m-378-498l-277-83m-590-187l-46 272M841 393l-89 11m632 751l-41-31m384 780l-35-9m-1270-8l-64-310m1493 313l-505-271m-146-811l-129-249m-600 55l-355-45m242 1008l-33-102m1102-73l-84-278M503 657l-32-43m376 509l-265 75m-104 365l-17 58m882-497l-2-83m93 270l-142-256m109 604l-58-12m265-718l-20-42m-161 515l-78 4M863 234l-84 7M374 628L237 953m1614-274l-31-75M87 230l-3 54m1762 1153l-154 458m-219-333l-156 295M204 964h-55m1702-285l-71 94m40-169l-158 258m162 1020l-509-182m-296-272l-193 385m762-1599l-169 411m69 978l-2-336M779 241l-70 276M320 304L133 570m1414-95L1288 81M617 1267l-39-70m-42-702L352 760m455 12L503 657M184 763L59 1115m459 521l-40-73m110-750l-47-120m1102 185l-35 51m61-383l-7 316m-591-59L871 687m548-62l-195-261m122 1255l-6 11M280 213L133 570m1251 585l-63 37m-839-56L149 964m88-11l-33 11m946-653l-287-77m-50-110L575 294m208-23l-54 32m914 575l-140 249m317-523l-148 382M345 1103l-71 84m1438 166l-285 49M950 143L918 31m331 1624l-100-22m1 79l-156-330M635 354L491 112m-55 1296l-164-240m-154 109l-59-162m325-965L84 284m1624 21l-252 339m-995 977l-251 121M131 98L77 613m297 15L204 964m996-156l-16 62m-752 258l-409 27m1020-177l-30-125m460 709l-62 41m-368-625L807 772m856 314l-44-32m-446-334l-127-228m734 281l-8 127m-356-661L1288 81M826 1813l-424 3m1156-583l-314 89m635 102l-33 13M617 1267l-166 270M566 298l-63 359m1376 767l-391 179m-69-978l-42 155m448-747l-39 62M325 1475l-77 68M783 271L579 105m907 1162h-32M268 1523L98 1206m373-592L151 240m993 639l-245 67m-145 117l-325 41m-297 274l-32-55M640 284l-489-44m1430 1082l-23-89M491 112l-315 48m-16 1641L42 1649m1298-19l-350 90M861 314l-250-99M454 1461l-108 393m-136-112L31 1400m153-637L32 860m1424 616l-107-70m-306-428l-87 39M841 393L536 495m563 233l-2 43m2-43l-228-41m-442 417L149 964m812 361l-282 94m-250-315L32 860m579-645l-75 280m804 1135l-91 25m443 240v-124M783 271l-23 270m201 784l-207-262m380-444l-279 59m991 759l-21 64m-777 227l-333-174m14-1251L536 495m634-204l-20 20m562 1042l-209-226m-380-146l-120 312m578 29l-95-55M575 294l-9 4M59 1115l-36 40m513-660L84 284m891 1086l-14-45m879-446l-295-295M826 1813l-124-27m-242-282l-9 33m67 99l-172 218m751-1083l-242-93m352-145l-7 275m-746 653l-212 190m1538-878l-233-298m199 99l-84 288M705 704L588 813m-59 573l-18 48m890 225l-61-29m552-916l-144-488m-224 483l-76-366m398 1094l-232 206M902 695l-31-8m791 175l-54 67M815 162L566 298m835 1361l-353 69m-566-592l-28 325M1788 158l-2-63m-21 1686l-73-10m-308-616l-175 242m-791 386l-357-63M1419 625l-201 239m-743 384l-117 46m420-702L635 354m899 348l-10 7M503 657l-129-29m205-523l-314 67m1269 530l-78-58m-702 419l-219 163m0 0l-84 311m27 26l-3-315M184 763L23 1155m1535 78l-72 34M575 294l-72 363m-74 447l-25 5m1421 392l-98 403m-781-820l-61-48m603 567l-87 56m-940-38l-10-84m-106 144L31 1400m179 342l-149-22m1279-90l-139-315M184 763l-68-194m704-449l-68 284M98 1206l-56 443M151 240l-64-10m1259 1389l-356 101m-479-286l-165 420m408-791l-49-359m-39-387l-31 37m1216 325l-306-95M482 1136L237 953m345 97l-100 86m614 637l-375-7m-139-716l-41-357m-423 584l-20-71m1110-316l-12-22m307 259l-259 195M744 834L471 614m-113 963l-316 72M1284 462l-110 237m677 1191l-25-57m-188-208l-150-22m-1037-66l-350-92m1446-970l-2 109m127 402l-53 68M518 1636l-57-15M962 268l-297 3m676 770l-6-106m-581 128l-51 46M588 813l-52-318m-178 799L237 953m515-549L471 614m1201 372l-288 169m235-101l-276 70M268 1523l-108 278m1666 32l-3-138m-209-52l-126-40M729 303l-64-32m970 313l-88-109m178 186l-42-15m-818 675l-82-22m1063 138l-119 467M259 310l-20-101m193 919l-28-19M280 213l-21 97m703-42L690 429M422 1887l-76-33m12-560l-21-110m871-294l-85 91m-541 217l-47 28m639-527l-51 282m-672 556l-241 205M666 317L334 84m1211 500l-126 41M176 160L77 613m107 150L84 284m427 1150l-75-26m1390 425l-61-52m-93-795l-9 100m-540-105L893 866m-382 568l-93 349m731-150h-15m158-578l-92-247m-739 813l-272-114M579 105L151 240m201 520l-123 46m1227 670l-29-74m-293-783l-263 68M711 1727l-353-150m1098-101l-255-161M690 429l-55-75M454 1461l-31-289m424-49l-93-60M635 354L374 628m137 806l-263 109m184-415L229 744m817-252l-30 12m-679 680l-63 3m597-500l-30-294M471 614L259 310m9 1213l-79-16m297 5l-385-67m1072-725l-50 261m-648 267l-377-42m680-614L588 813m406 569l-279 172m298-701L705 704m491 164l-52 11m-562 171l-105-39m109 102l-4 85m515-427l-204 95m568-711l-136 4m-155 132l-131 315m-607 522l-3-24m1159-890l-132 430m-244-347l-62 14M529 1386l-261 137m434 263l-357-105M666 317l-26-33m75 1270l-98-287m127-433l-35-317M184 763L38 811m1181 79l-23-22M666 317L384 150m48 978l-373-13m897-98l-57-71M666 317L503 657m1085 230l-77 54M962 268L775 48M486 1512l-32-51m257 266l-200-293m67-237l-43 29m1171 210l-43-350m-580-710L779 241m355 1392l-160 29M931 363l-265-46m677 807l-51-69M640 284l-29-69m940 185l-103-57m215 743l-320 38m-124-234h-11m-626 308l-128 263m1369 234l-68 93M272 1168l-43-424m1232 377l-34 281m-658 52l-54 100m111 259l-111-259m968-908l-48-62m-632 709l-249-230m495 592l-48-340M820 120L640 284m846 983l-52 44M274 1187l-90-424m778-495L752 404M422 1887l-233-380m651-650l-137 252m493-241l-12 2m-933 91l-47 3m656 512l-139 290m-210-332l-301 308m115-267l-53-307m1071 479l-3-17m480-1026l-74-30M449 250l-63-89m132 1475l-457 84m1148-323l-235 265m-106-501l-21-38m115-855l-296 49m953 737l-278-13M635 354l-376-44m1227 957l-194-212m462-927l-6 98M575 1463l-93-327m-384 70l-39-91m523 83l-4-1m1057-613l-219-345M78 1327L32 860m1242-317l-67-10m-671-38L176 160m921 611l-54 207m504-503l-323-111m599 1331l-477-76m-62-1157l-77 71m254-378l-45 84m-454 29l-99-34m1016 1190l-425-157m-383-708L962 268m620 902l-65 29m262 686l-433-266m478 263l-45 3M711 1727l-9 59m-220-650l-7 112M359 418L259 310m1496 1478l-415-158M100 1323l-22 4m1376-60l-108 352M536 495l-403 75m794 894l-67 12m364-1112l-90 255m-13 230l-281 8m368 33l-24-20m-748 538L42 1649m1108 63l-16-79m654-1475l-80 147m-65 573l-55 9M902 695l-95 77m54-458l-295-16m390 719l-71 19m966 854l-72-5M449 250L145 141m1064 1256l-282 67m952-40l-452-22M779 241l-50 62M160 1801l-60-478m371-709l-29 59m731 47l-76 51m-579 865l-250-113m659-59l-305 145m670-554l-91 260m-747 146l-32 426m347-433l-90-35m444-438l-80-3m78-129l-314-77m441-130l-40 248m-109-162L893 866m624 333l-56-78m-505-104l-7 56M728 172l-149-67m1009 109l-438 97m304 956l-245 130m663 39l-145 468m-89-279l-211-223m21-1059l-365 33M611 215L385 367m1132 832l-61 277M728 172L334 84m565 862l-6-80m-464 238l-406 51m599 454l-220 207M861 314L775 48M622 1609l-297-134m809 158l-173-308" fill="none" stroke="#989898" stroke-width="1"/><circle class="st1" cx="1820" cy="604" r="11"/><circle class="st1" cx="728" cy="172" r="14"/><circle class="st1" cx="1545" cy="584" r="10"/><circle class="st1" cx="914" cy="820" r="12"/><circle class="st1" cx="863" cy="234" r="11"/><circle class="st1" cx="471" cy="614" r="8"/><circle class="st1" cx="251" cy="961" r="8"/><circle class="st1" cx="665" cy="271" r="6"/><circle class="st1" cx="588" cy="813" r="11"/><circle class="st1" cx="248" cy="1543" r="5"/><circle class="st1" cx="1325" cy="159" r="5"/><circle class="st1" cx="345" cy="1103" r="9"/><circle class="st1" cx="503" cy="657" r="15"/><circle class="st1" cx="1224" cy="364" r="15"/><circle class="st1" cx="442" cy="673" r="15"/><circle class="st1" cx="268" cy="1523" r="11"/><circle class="st1" cx="334" cy="84" r="13"/><circle class="st1" cx="611" cy="215" r="7"/><circle class="st1" cx="451" cy="1537" r="15"/><circle class="st1" cx="1335" cy="935" r="7"/><circle class="st1" cx="1184" cy="870" r="5"/><circle class="st1" cx="1517" cy="1199" r="10"/><circle class="st1" cx="229" cy="744" r="9"/><circle class="st1" cx="1274" cy="543" r="9"/><circle class="st1" cx="1207" cy="533" r="6"/><circle class="st1" cx="204" cy="964" r="12"/><circle class="st1" cx="1292" cy="1055" r="6"/><circle class="st1" cx="990" cy="1720" r="14"/><circle class="st1" cx="1208" cy="890" r="9"/><circle class="st1" cx="893" cy="866" r="15"/><circle class="st1" cx="133" cy="570" r="15"/><circle class="st1" cx="1419" cy="625" r="10"/><circle class="st1" cx="1019" cy="1428" r="14"/><circle class="st1" cx="950" cy="143" r="9"/><circle class="st1" cx="579" cy="105" r="10"/><circle class="st1" cx="242" cy="1651" r="12"/><circle class="st1" cx="189" cy="1507" r="6"/><circle class="st1" cx="1772" cy="900" r="15"/><circle class="st1" cx="1343" cy="1124" r="14"/><circle class="st1" cx="754" cy="1063" r="14"/><circle class="st1" cx="994" cy="1382" r="12"/><circle class="st1" cx="832" cy="1339" r="15"/><circle class="st1" cx="1149" cy="1633" r="10"/><circle class="st1" cx="1748" cy="226" r="10"/><circle class="st1" cx="149" cy="964" r="14"/><circle class="st1" cx="666" cy="317" r="8"/><circle class="st1" cx="346" cy="1854" r="5"/><circle class="st1" cx="237" cy="953" r="13"/><circle class="st1" cx="422" cy="1887" r="15"/><circle class="st1" cx="1525" cy="982" r="8"/><circle class="st1" cx="801" cy="1781" r="10"/><circle class="st1" cx="702" cy="1786" r="7"/><circle class="st1" cx="1488" cy="1603" r="8"/><circle class="st1" cx="386" cy="161" r="10"/><circle class="st1" cx="1068" cy="1481" r="13"/><circle class="st1" cx="1851" cy="679" r="13"/><circle class="st1" cx="1099" cy="728" r="9"/><circle class="st1" cx="813" cy="124" r="5"/><circle class="st1" cx="715" cy="1554" r="7"/><circle class="st1" cx="1754" cy="128" r="12"/><circle class="st1" cx="1672" cy="986" r="14"/><circle class="st1" cx="1824" cy="1882" r="10"/><circle class="st1" cx="1067" cy="654" r="12"/><circle class="st1" cx="861" cy="314" r="7"/><circle class="st1" cx="575" cy="1463" r="15"/><circle class="st1" cx="1635" cy="584" r="10"/><circle class="st1" cx="359" cy="418" r="8"/><circle class="st1" cx="868" cy="1161" r="9"/><circle class="st1" cx="1461" cy="155" r="11"/><circle class="st1" cx="1341" cy="1041" r="13"/><circle class="st1" cx="1840" cy="879" r="13"/><circle class="st1" cx="760" cy="541" r="6"/><circle class="st1" cx="1134" cy="619" r="5"/><circle class="st1" cx="1643" cy="878" r="6"/><circle class="st1" cx="865" cy="1321" r="14"/><circle class="st1" cx="683" cy="1823" r="14"/><circle class="st1" cx="1039" cy="606" r="11"/><circle class="st1" cx="871" cy="687" r="15"/><circle class="st1" cx="1048" cy="1728" r="11"/><circle class="st1" cx="1315" cy="1700" r="13"/><circle class="st1" cx="709" cy="517" r="9"/><circle class="st1" cx="151" cy="240" r="10"/><circle class="st1" cx="358" cy="1294" r="13"/><circle class="st1" cx="1174" cy="699" r="10"/><circle class="st1" cx="729" cy="303" r="6"/><circle class="st1" cx="586" cy="1113" r="12"/><circle class="st1" cx="575" cy="294" r="7"/><circle class="st1" cx="775" cy="48" r="10"/><circle class="st1" cx="1692" cy="1895" r="5"/><circle class="st1" cx="541" cy="693" r="11"/><circle class="st1" cx="23" cy="1155" r="14"/><circle class="st1" cx="265" cy="172" r="13"/><circle class="st1" cx="1872" cy="1436" r="14"/><circle class="st1" cx="566" cy="298" r="14"/><circle class="st1" cx="1096" cy="1773" r="6"/><circle class="st1" cx="582" cy="1198" r="6"/><circle class="st1" cx="1196" cy="868" r="11"/><circle class="st1" cx="975" cy="1370" r="7"/><circle class="st1" cx="1826" cy="1833" r="12"/><circle class="st1" cx="1825" cy="1501" r="6"/><circle class="st1" cx="478" cy="1563" r="12"/><circle class="st1" cx="1663" cy="1086" r="12"/><circle class="st1" cx="59" cy="1115" r="8"/><circle class="st1" cx="87" cy="230" r="15"/><circle class="st1" cx="721" cy="1766" r="15"/><circle class="st1" cx="617" cy="1267" r="8"/><circle class="st1" cx="280" cy="213" r="14"/><circle class="st1" cx="1610" cy="148" r="7"/><circle class="st1" cx="1201" cy="1315" r="5"/><circle class="st1" cx="272" cy="1168" r="5"/><circle class="st1" cx="84" cy="284" r="15"/><circle class="st1" cx="325" cy="1475" r="8"/><circle class="st1" cx="1134" cy="1633" r="10"/><circle class="st1" cx="860" cy="1476" r="6"/><circle class="st1" cx="962" cy="268" r="14"/><circle class="st1" cx="1411" cy="1603" r="14"/><circle class="st1" cx="1524" cy="709" r="15"/><circle class="st1" cx="1307" cy="1569" r="8"/><circle class="st1" cx="518" cy="1636" r="15"/><circle class="st1" cx="815" cy="162" r="13"/><circle class="st1" cx="486" cy="1512" r="10"/><circle class="st1" cx="491" cy="112" r="13"/><circle class="st1" cx="1384" cy="1155" r="13"/><circle class="st1" cx="1212" cy="297" r="12"/><circle class="st1" cx="352" cy="760" r="15"/><circle class="st1" cx="259" cy="310" r="15"/><circle class="st1" cx="1892" cy="714" r="15"/><circle class="st1" cx="927" cy="1464" r="5"/><circle class="st1" cx="578" cy="1197" r="13"/><circle class="st1" cx="529" cy="1386" r="13"/><circle class="st1" cx="1071" cy="803" r="14"/><circle class="st1" cx="711" cy="1727" r="14"/><circle class="st1" cx="1765" cy="1781" r="11"/><circle class="st1" cx="752" cy="404" r="12"/><circle class="st1" cx="826" cy="1813" r="8"/><circle class="st1" cx="32" cy="860" r="11"/><circle class="st1" cx="820" cy="120" r="5"/><circle class="st1" cx="946" cy="1084" r="6"/><circle class="st1" cx="1083" cy="376" r="12"/><circle class="st1" cx="1166" cy="457" r="12"/><circle class="st1" cx="1456" cy="644" r="15"/><circle class="st1" cx="640" cy="284" r="8"/><circle class="st1" cx="385" cy="367" r="9"/><circle class="st1" cx="320" cy="304" r="5"/><circle class="st1" cx="1434" cy="1311" r="8"/><circle class="st1" cx="98" cy="1206" r="9"/><circle class="st1" cx="1013" cy="853" r="5"/><circle class="st1" cx="101" cy="1445" r="9"/><circle class="st1" cx="1786" cy="95" r="10"/><circle class="st1" cx="1727" cy="1904" r="7"/><circle class="st1" cx="384" cy="150" r="10"/><circle class="st1" cx="961" cy="1325" r="9"/><circle class="st1" cx="1150" cy="1712" r="8"/><circle class="st1" cx="703" cy="1109" r="10"/><circle class="st1" cx="679" cy="1419" r="14"/><circle class="st1" cx="902" cy="695" r="6"/><circle class="st1" cx="1427" cy="1402" r="13"/><circle class="st1" cx="1547" cy="475" r="6"/><circle class="st1" cx="918" cy="31" r="14"/><circle class="st1" cx="1712" cy="1353" r="5"/><circle class="st1" cx="1343" cy="1647" r="12"/><circle class="st1" cx="841" cy="393" r="10"/><circle class="st1" cx="132" cy="1378" r="15"/><circle class="st1" cx="1454" cy="1267" r="11"/><circle class="st1" cx="1746" cy="574" r="6"/><circle class="st1" cx="1123" cy="981" r="15"/><circle class="st1" cx="116" cy="569" r="12"/><circle class="st1" cx="899" cy="946" r="8"/><circle class="st1" cx="1788" cy="714" r="15"/><circle class="st1" cx="78" cy="1327" r="8"/><circle class="st1" cx="454" cy="1461" r="11"/><circle class="st1" cx="176" cy="160" r="8"/><circle class="st1" cx="535" cy="1226" r="14"/><circle class="st1" cx="77" cy="613" r="13"/><circle class="st1" cx="705" cy="704" r="12"/><circle class="st1" cx="1416" cy="239" r="7"/><circle class="st1" cx="1150" cy="311" r="7"/><circle class="st1" cx="1173" cy="720" r="13"/><circle class="st1" cx="1585" cy="1144" r="10"/><circle class="st1" cx="1619" cy="1054" r="12"/><circle class="st1" cx="1551" cy="709" r="6"/><circle class="st1" cx="1638" cy="1625" r="9"/><circle class="st1" cx="1448" cy="343" r="13"/><circle class="st1" cx="1121" cy="849" r="13"/><circle class="st1" cx="769" cy="1454" r="5"/><circle class="st1" cx="38" cy="811" r="14"/><circle class="st1" cx="1219" cy="890" r="7"/><circle class="st1" cx="1340" cy="1630" r="9"/><circle class="st1" cx="432" cy="1128" r="6"/><circle class="st1" cx="1097" cy="771" r="8"/><circle class="st1" cx="1511" cy="941" r="8"/><circle class="st1" cx="418" cy="1783" r="9"/><circle class="st1" cx="931" cy="363" r="13"/><circle class="st1" cx="402" cy="1816" r="10"/><circle class="st1" cx="536" cy="495" r="12"/><circle class="st1" cx="1851" cy="1890" r="7"/><circle class="st1" cx="840" cy="857" r="12"/><circle class="st1" cx="1249" cy="1655" r="5"/><circle class="st1" cx="511" cy="1434" r="11"/><circle class="st1" cx="1558" cy="1233" r="15"/><circle class="st1" cx="160" cy="1801" r="10"/><circle class="st1" cx="1486" cy="1267" r="9"/><circle class="st1" cx="885" cy="1036" r="5"/><circle class="st1" cx="1551" cy="400" r="13"/><circle class="st1" cx="461" cy="1621" r="5"/><circle class="st1" cx="1882" cy="22" r="8"/><circle class="st1" cx="1706" cy="1436" r="6"/><circle class="st1" cx="61" cy="1720" r="14"/><circle class="st1" cx="1244" cy="1322" r="7"/><circle class="st1" cx="1197" cy="1225" r="6"/><circle class="st1" cx="1349" cy="1406" r="9"/><circle class="st1" cx="1692" cy="1771" r="6"/><circle class="st1" cx="1456" cy="1476" r="6"/><circle class="st1" cx="847" cy="1123" r="6"/><circle class="st1" cx="1823" cy="1695" r="13"/><circle class="st1" cx="622" cy="1609" r="6"/><circle class="st1" cx="1868" cy="1220" r="15"/><circle class="st1" cx="1016" cy="504" r="6"/><circle class="st1" cx="31" cy="1400" r="7"/><circle class="st1" cx="1218" cy="864" r="6"/><circle class="st1" cx="1608" cy="929" r="9"/><circle class="st1" cx="1346" cy="1619" r="10"/><circle class="st1" cx="740" cy="618" r="14"/><circle class="st1" cx="477" cy="1011" r="14"/><circle class="st1" cx="1046" cy="492" r="6"/><circle class="st1" cx="42" cy="1649" r="5"/><circle class="st1" cx="582" cy="1050" r="13"/><circle class="st1" cx="358" cy="1577" r="15"/><circle class="st1" cx="274" cy="1187" r="9"/><circle class="st1" cx="949" cy="1073" r="12"/><circle class="st1" cx="1725" cy="661" r="12"/><circle class="st1" cx="1321" cy="1192" r="9"/><circle class="st1" cx="1092" cy="609" r="10"/><circle class="st1" cx="1071" cy="559" r="7"/><circle class="st1" cx="118" cy="1277" r="10"/><circle class="st1" cx="855" cy="678" r="7"/><circle class="st1" cx="726" cy="309" r="11"/><circle class="st1" cx="1780" cy="773" r="14"/><circle class="st1" cx="1170" cy="291" r="9"/><circle class="st1" cx="1317" cy="1857" r="5"/><circle class="st1" cx="1377" cy="780" r="9"/><circle class="st1" cx="100" cy="1323" r="6"/><circle class="st1" cx="1209" cy="1397" r="7"/><circle class="st1" cx="778" cy="592" r="9"/><circle class="st1" cx="1669" cy="546" r="15"/><circle class="st1" cx="1200" cy="808" r="11"/><circle class="st1" cx="1879" cy="1424" r="9"/><circle class="st1" cx="635" cy="354" r="7"/><circle class="st1" cx="429" cy="1104" r="12"/><circle class="st1" cx="436" cy="1408" r="14"/><circle class="st1" cx="807" cy="772" r="12"/><circle class="st1" cx="1144" cy="879" r="11"/><circle class="st1" cx="1284" cy="462" r="6"/><circle class="st1" cx="1503" cy="1127" r="13"/><circle class="st1" cx="1534" cy="702" r="5"/><circle class="st1" cx="744" cy="834" r="8"/><circle class="st1" cx="1708" cy="305" r="6"/><circle class="st1" cx="1779" cy="1885" r="13"/><circle class="st1" cx="374" cy="628" r="12"/><circle class="st1" cx="1043" cy="978" r="8"/><circle class="st1" cx="337" cy="1184" r="8"/><circle class="st1" cx="783" cy="1299" r="12"/><circle class="st1" cx="1003" cy="1293" r="7"/><circle class="st1" cx="1788" cy="158" r="14"/><circle class="st1" cx="1072" cy="1323" r="11"/><circle class="st1" cx="956" cy="1017" r="8"/><circle class="st1" cx="1588" cy="214" r="5"/><circle class="st1" cx="1582" cy="1170" r="9"/><circle class="st1" cx="1662" cy="862" r="13"/><circle class="st1" cx="210" cy="1742" r="11"/><circle class="st1" cx="229" cy="806" r="5"/><circle class="st1" cx="1588" cy="887" r="12"/><circle class="st1" cx="1248" cy="642" r="14"/><circle class="st1" cx="1288" cy="81" r="6"/><circle class="st1" cx="482" cy="1136" r="11"/><circle class="st1" cx="783" cy="271" r="13"/><circle class="st1" cx="1461" cy="1121" r="12"/><circle class="st1" cx="1614" cy="1643" r="8"/><circle class="st1" cx="449" cy="250" r="15"/><circle class="st1" cx="460" cy="1504" r="10"/><circle class="st1" cx="1473" cy="1562" r="6"/><circle class="st1" cx="690" cy="429" r="9"/><circle class="st1" cx="779" cy="241" r="9"/><circle class="st1" cx="145" cy="141" r="6"/><circle class="st1" cx="1825" cy="33" r="5"/><circle class="st1" cx="1755" cy="1788" r="9"/><circle class="st1" cx="974" cy="1662" r="9"/><circle class="st1" cx="131" cy="98" r="6"/><circle class="st1" cx="423" cy="1172" r="9"/><circle class="st1" cx="1581" cy="1322" r="12"/><circle class="st1" cx="239" cy="209" r="9"/><circle class="st1" cx="1705" cy="1518" r="6"/><circle class="st1" cx="1683" cy="646" r="5"/><circle class="st1" cx="404" cy="1109" r="8"/><circle class="st1" cx="1401" cy="1659" r="10"/><circle class="st1" cx="1846" cy="1437" r="15"/><circle class="st1" cx="184" cy="763" r="5"/><circle class="st1" cx="475" cy="1248" r="6"/><circle class="st1" cx="345" cy="1681" r="7"/><circle class="st1" cx="1106" cy="805" r="5"/></svg>