<svg version="1.1" xmlns="http://www.w3.org/2000/svg" x="0" y="0" viewBox="0 0 1920 673" xml:space="preserve"><path fill="#36434f" d="M0 0h1920v673H0z"/><path d="M1312.2 415.4c1.4-6.4 2.7-13 3.8-19.5l-1-.2c-1.1 6.5-2.3 13-3.8 19.5l1 .2zm1.8-143.7l1-.2c-.3-1.6-.6-3.3-.9-4.9l-1 .2c.3 1.7.6 3.3.9 4.9zm-6.5-29c1.7 6.3 3.3 12.8 4.6 19.3l1-.2c-1.4-6.5-2.9-13-4.6-19.3l-1 .2zm13.4 93.8v-.7h-1v.7c0 6.6-.2 13.3-.5 19.8l1 .1c.3-6.6.5-13.3.5-19.9zM1302 448.7l1 .3 1.5-4.8-1-.3c-.4 1.6-.9 3.2-1.5 4.8zm1.8 109.5l2.7-4.2-.8-.5-2.7 4.2.8.5zm17-227.4c0-1.7-.1-3.3-.1-5h-1c0 1.6.1 3.3.1 4.9l1 .1zm-.8 30.5l-1-.1c-.4 6.6-1.1 13.2-1.9 19.7l1 .1c.8-6.4 1.5-13.1 1.9-19.7zm-5.1-84.7c1.1 6.5 2 13.1 2.7 19.6l1-.1c-.7-6.6-1.7-13.2-2.7-19.7l-1 .2zm2.6 109.5l-1-.1c-.2 1.6-.5 3.3-.7 4.9l1 .2c.2-1.8.5-3.4.7-5zm.6-84.9c.6 6.5 1.1 13.2 1.4 19.8h1c-.3-6.6-.7-13.3-1.4-19.8h-1zm-21.2-91.5c.6 1.5 1.2 3.1 1.7 4.7l.9-.3c-.6-1.6-1.1-3.1-1.7-4.7l-.9.3zm-2.4-106.9c.9 1.4 1.9 2.7 2.8 4.1l.8-.6c-.9-1.4-1.9-2.7-2.8-4.1l-.8.6zm-12.3-89.2c4.7 4.7 9.3 9.5 13.8 14.4l.7-.7c-4.5-4.9-9.1-9.7-13.8-14.4l-.7.7zm-2.6 69.3c4.1 5.2 8.1 10.5 12 15.8l.8-.6c-3.9-5.4-7.9-10.7-12-15.9l-.8.7zm19.7-51.3c4.4 4.9 8.8 10 13 15.1l.8-.6c-4.2-5.1-8.6-10.2-13-15.1l-.8.6zm7.9 206.1c-1.8-6.3-3.8-12.7-6-19l-.9.3c2.1 6.2 4.1 12.6 5.9 18.9l1-.2zm-11.2-33c-2.4-6.1-5-12.3-7.8-18.3l-.9.4c2.7 6 5.3 12.1 7.7 18.2l1-.3zm-11.8 290.4c2.9-5.9 5.7-12 8.3-18.1l-.9-.4c-2.6 6.1-5.3 12.1-8.2 18.1l.8.4zm27.3-367.9c-3.4-5.7-7-11.3-10.6-16.8l-.8.6c3.6 5.5 7.2 11.1 10.6 16.8l.8-.6zm-10.1 326.5l-.9-.3c-2.1 6.2-4.5 12.5-7 18.6l.9.4c2.5-6.2 4.9-12.5 7-18.7zm67.6-122.9c0-1.7-.1-3.3-.1-5h-1c0 1.7.1 3.3.1 5h1zm-11.9-88.5c1.5 6.4 2.9 13 4.1 19.4l1-.2c-1.2-6.5-2.6-13.1-4.1-19.5l-1 .3zm7.6 153.7l-1-.1c-1 6.5-2.1 13.1-3.3 19.6l1 .2c1.2-6.5 2.3-13.1 3.3-19.7zm-3.9 160.5l-.9-.5c-.8 1.5-1.6 2.9-2.4 4.4l.9.5c.8-1.4 1.6-2.9 2.4-4.4zm7.5-195.1l-1-.1c-.4 6.6-1 13.2-1.7 19.8l1 .1c.7-6.5 1.3-13.2 1.7-19.8zm-2.3 24.8l-1-.1c-.2 1.6-.4 3.3-.6 4.9l1 .1c.2-1.6.4-3.3.6-4.9zm3-49.7v-.7h-1v.7c0 6.6-.2 13.3-.5 19.9h1c.3-6.6.5-13.3.5-19.9zm-92.7-171.8c3.1 5.8 6.2 11.7 9 17.6l.9-.4c-2.8-6-5.9-11.9-9-17.7l-.9.5zm-558-157l-.6-.8c-1.3 1-2.7 2-4 3l.6.8c1.4-1 2.7-2 4-3zm645.3 268.7c1 6.5 1.8 13.1 2.4 19.7l1-.1c-.6-6.6-1.5-13.2-2.4-19.8l-1 .2zm-1.6-9.8c.3 1.6.6 3.3.8 4.9l1-.2c-.3-1.6-.5-3.3-.8-4.9l-1 .2zM1341.8 7c4.3 5 8.6 10.2 12.7 15.3l.8-.6c-4.1-5.2-8.4-10.3-12.7-15.4l-.8.7zm-16.2 604c1-1.3 2-2.7 3-4l-.8-.6c-1 1.3-2 2.7-3 4l.8.6zm3.9-101.2c-2.8 6-5.8 12-8.9 17.8l.9.5c3.1-5.9 6.1-11.9 8.9-17.8l-.9-.5zM1313.1 132c3.3 5.7 6.5 11.5 9.5 17.4l.9-.5c-3-5.9-6.2-11.7-9.6-17.4l-.8.5zm19.4 373.7c.7-1.5 1.4-3 2-4.6l-.9-.4c-.7 1.5-1.3 3-2 4.5l.9.5zm3.7-427.3c3.7 5.4 7.4 11 10.9 16.6l.8-.5c-3.5-5.6-7.2-11.2-10.9-16.7l-.8.6zm18.6 29.4c3.3 5.7 6.5 11.6 9.6 17.4l.9-.5c-3.1-5.8-6.3-11.7-9.6-17.4l-.9.5zm-38.6-57.9l-.8.6c1 1.3 2.1 2.6 3.1 3.9l.8-.6c-1-1.3-2.1-2.6-3.1-3.9zm41.4-23.7c4.1 5.2 8.1 10.6 11.9 15.9l.8-.6c-3.9-5.4-7.9-10.7-12-16l-.7.7zm-28.3 136.5c2.8 6 5.5 12.1 8 18.1l.9-.4c-2.5-6.1-5.2-12.2-8-18.2l-.9.5zm-663.4 67.2c-2.2 6.2-4.3 12.5-6.2 18.9l1 .3c1.8-6.3 3.9-12.6 6.1-18.8l-.9-.4zM1279.7 504c.8-1.5 1.5-2.9 2.3-4.4l-.9-.5c-.8 1.5-1.5 2.9-2.3 4.4l.9.5zM715.4 235.5c-2.5 6.1-4.8 12.3-6.9 18.6l1 .3c2-6.2 4.3-12.4 6.8-18.5l-.9-.4zm-3.6-87.6l-.8-.6c-1 1.3-2 2.6-3 4l.8.6c1-1.3 2-2.6 3-4zM694.4 25.5l.6.8c5-4.3 10.2-8.5 15.4-12.5l-.6-.8c-5.2 4-10.4 8.2-15.4 12.5zm11.5 130.4l-.8-.6c-3.8 5.4-7.5 10.9-11 16.5l.8.5c3.5-5.5 7.2-11 11-16.4zm-9.3 190.7c-.1-1.6-.1-3.3-.1-4.9h-1c0 1.6.1 3.3.1 4.9h1zm8.8-264.4l-.7-.7c-4.7 4.7-9.3 9.5-13.7 14.4l.7.7c4.4-4.9 9-9.7 13.7-14.4zm7.5 346.2c-2.3-6.1-4.4-12.4-6.2-18.7l-1 .3c1.8 6.3 3.9 12.6 6.2 18.8l1-.4zM707 258.8c-1.9 6.3-3.6 12.7-5.1 19.1l1 .2c1.4-6.4 3.1-12.8 5.1-19l-1-.3zm-2.6 146.4l1-.3-1.2-4.8-1 .2c.4 1.7.8 3.3 1.2 4.9zM708.2 78l.7.7c1.2-1.2 2.4-2.3 3.6-3.4l-.7-.7c-1.2 1.1-2.4 2.3-3.6 3.4zm9.2 152.9l.9.4c.7-1.5 1.3-3 2-4.5l-.9-.4c-.7 1.5-1.4 3-2 4.5zm-20.3 86.2l-1-.1c-.5 6.4-.7 13-.7 19.5v.3h1v-.3c0-6.5.3-13 .7-19.4zm5.9 78.3c-1.5-6.4-2.7-12.9-3.7-19.4l-1 .1c1 6.5 2.2 13 3.7 19.4l1-.1zm23.8-267.2c-4.4 4.9-8.7 10-12.8 15.2l.8.6c4.1-5.2 8.3-10.3 12.7-15.2l-.7-.6zM715 529.3c-4.1-5.2-8-10.5-11.7-15.9l-.8.6c3.7 5.4 7.7 10.8 11.8 16l.7-.7zm-15.9-236.8c-1.1 6.5-1.9 13.1-2.5 19.6l1 .1c.6-6.5 1.4-13.1 2.5-19.5l-1-.2zm-.4 78.6c-.8-6.5-1.5-13.1-1.8-19.6l-1 .1c.4 6.6 1 13.2 1.8 19.7l1-.2zM689.2 493c3.3 5.7 6.8 11.4 10.5 16.8l.8-.6c-3.6-5.5-7.2-11.1-10.4-16.8l-.9.6zm12.7-210.1l-1-.2c-.3 1.6-.7 3.2-1 4.9l1 .2c.3-1.7.7-3.3 1-4.9zM690.6 28.7c-5 4.4-9.9 8.9-14.7 13.5l.7.7c4.7-4.6 9.7-9.1 14.6-13.4l-.6-.8zM771.1 644l.5-.9c-1.4-.9-2.8-1.7-4.2-2.6l-.5.8c1.4 1 2.8 1.8 4.2 2.7zM669.9 123.6c1-1.3 2-2.7 3-4l-.8-.6c-1 1.3-2 2.7-3 4l.8.6zm74.2 60c-3.8 5.4-7.5 10.9-10.8 16.6l.9.5c3.4-5.6 7-11.1 10.8-16.5l-.9-.6zM722.6 451c-2.8-5.9-5.5-12-7.9-18l-.9.4c2.4 6.1 5.1 12.2 7.9 18.1l.9-.5zm5.9 13.6c3.2 5.7 6.6 11.4 10.2 16.9l.8-.5c-3.6-5.5-7-11.1-10.2-16.9l-.8.5zm54.8 128.7c-5.4-3.7-10.8-7.7-15.9-11.7l-.6.8c5.2 4.1 10.6 8 16 11.8l.5-.9zM1275 6.6c1.2 1.1 2.4 2.3 3.6 3.5l.7-.7c-1.2-1.2-2.4-2.3-3.6-3.5l-.7.7zm-11.4 57.3c4.4 4.9 8.8 10 12.9 15.1l.8-.6c-4.2-5.1-8.5-10.2-12.9-15.1l-.8.6zM835.1 622.2c-6-2.6-12-5.5-17.9-8.5l-.5.9c5.9 3 11.9 5.9 17.9 8.5l.5-.9zM824.3 671l.4-.9c-1.5-.6-3.1-1.3-4.6-1.9l-.4.9c1.5.6 3.1 1.3 4.6 1.9zM720.5 537.6l.8-.6c-1.1-1.3-2.1-2.5-3.1-3.8l-.8.6c1 1.2 2 2.5 3.1 3.8zm-57 4.6c3.8 5.4 7.7 10.8 11.8 16l.8-.6c-4-5.2-8-10.6-11.8-16l-.8.6zm24.2-442.5c-4.3 5-8.6 10.1-12.6 15.4l.8.6c4-5.2 8.3-10.3 12.6-15.3l-.8-.7zm-12.4 107.2c-2.7 6-5.3 12.2-7.7 18.3l.9.4c2.3-6.1 4.9-12.3 7.6-18.3l-.8-.4zm-2.9-161.2c-1.2 1.2-2.4 2.3-3.5 3.5l.7.7 3.5-3.5-.7-.7zm-7.9 393.4c2.2 6.2 4.5 12.4 7.1 18.5l.9-.4c-2.5-6-4.9-12.2-7.1-18.4l-.9.3zm-9.5-33.4c1.5 6.4 3.1 12.9 5 19.2l1-.3c-1.9-6.3-3.5-12.7-5-19.1l-1 .2zm705.4 14.8l-1-.2c-1.3 6.5-2.9 13-4.5 19.3l1 .3c1.6-6.4 3.1-12.9 4.5-19.4zM678.3 202.8c.7-1.5 1.4-3 2.2-4.5l-.9-.4c-.7 1.5-1.5 3-2.2 4.5l.9.4zm-19.9 50.7c-.4 1.6-.9 3.2-1.3 4.8l1 .2c.4-1.6.8-3.2 1.3-4.8l-1-.2zm708.1 47.6c.6 6.6 1 13.2 1.2 19.8h1c-.3-6.6-.7-13.3-1.2-19.9l-1 .1zm130.8-93.6c.4 1.6.8 3.2 1.1 4.9l1-.2c-.4-1.6-.8-3.2-1.1-4.9l-1 .2zm7.2 29.1c-1.2-6.5-2.5-13.1-3.9-19.6l-1 .2c1.4 6.4 2.7 13 3.9 19.6l1-.2zm-17.1-187.7c3.2 5.8 6.3 11.7 9.3 17.6l.9-.5c-3-5.9-6.1-11.9-9.3-17.7l-.9.6zm-4.9-8.7c.8 1.4 1.6 2.9 2.4 4.3l.9-.5c-.8-1.5-1.6-2.9-2.4-4.3l-.9.5zM392.7 135.7c-.6 1.6-1.1 3.2-1.7 4.7l.9.3c.5-1.6 1.1-3.2 1.7-4.7l-.9-.3zm1107.9 319.8l-1-.2c-1.4 6.5-3 13-4.6 19.4l1 .3c1.7-6.5 3.2-13.1 4.6-19.5zm-20.4-305.3c.6 1.6 1.1 3.1 1.7 4.7l.9-.3c-.5-1.6-1.1-3.1-1.7-4.7l-.9.3zm22.5 295.5l-1-.2c-.3 1.6-.7 3.3-1 4.9l1 .2c.3-1.6.6-3.3 1-4.9zM1498.9 71c2.9 5.9 5.8 12 8.5 18l.9-.4c-2.7-6-5.6-12.1-8.5-18l-.9.4zm-7 112.1l-1 .3c1.8 6.3 3.6 12.8 5.2 19.3l1-.2c-1.6-6.6-3.4-13.1-5.2-19.4zm-8.4-23.5c2.1 6.3 4.1 12.7 6 19l1-.3c-1.9-6.4-3.9-12.8-6.1-19l-.9.3zm-36.1 43c-1.8-6.4-3.7-12.8-5.7-19.1l-1 .3c2 6.3 3.9 12.7 5.6 19.1l1.1-.3zm22.4-183.8c3.5 5.6 7 11.4 10.3 17.1l.9-.5c-3.3-5.7-6.8-11.5-10.3-17.1l-.9.5zm-7.1 277.1l1-.1c-.5-6.6-1.2-13.3-2-19.9l-1 .1c.8 6.7 1.5 13.3 2 19.9zm-11.4 159.3l-1-.2c-1.5 6.4-3.2 12.9-5 19.3l1 .3c1.7-6.5 3.4-13 5-19.4zm-3.6-247.5l1.2 4.8 1-.2-1.2-4.8-1 .2zm-3.5-139.5c-3.2-5.8-6.6-11.6-10-17.3l-.9.5c3.4 5.6 6.8 11.4 10 17.2l.9-.4zm18.9 232.7c.5 6.6.8 13.3 1 19.9h1c-.2-6.6-.5-13.4-1-19.9h-1zm-1.8-196.8c2.8 6 5.5 12.1 8 18.2l.9-.4c-2.6-6.1-5.3-12.2-8.1-18.2l-.8.4zm4 226.6c0-1.7 0-3.3-.1-5h-1c0 1.7.1 3.3.1 5h1zm0 5.8v-.8h-1v.8c0 6.6-.1 13.3-.4 19.9h1c.3-6.6.4-13.3.4-19.9zM382.8 635.1l.9-.5c-.8-1.5-1.5-2.9-2.3-4.4l-.9.5c.8 1.5 1.5 3 2.3 4.4zm31.1-382.8c1-6.5 2.1-13.2 3.4-19.7l-1-.2c-1.2 6.5-2.4 13.1-3.4 19.7l1 .2zm1.7-172.2l-2.1 4.5.9.4 2.1-4.5-.9-.4zm993.1 486.8c-3 5.9-6.2 11.8-9.5 17.6l.9.5c3.3-5.8 6.5-11.7 9.5-17.6l-.9-.5zM399.1 551.6c-.6-1.6-1.2-3.1-1.8-4.7l-.9.3c.6 1.6 1.2 3.1 1.8 4.7l.9-.3zm1091.6 68.5c.8-1.5 1.6-2.9 2.3-4.4l-.9-.5c-.8 1.5-1.6 3-2.3 4.4l.9.5zm3.1-140.6c-1.7 6.4-3.6 12.9-5.5 19.2l1 .3c1.9-6.3 3.8-12.8 5.5-19.2l-1-.3zM398.1 660.9l-.9.5c2.2 3.9 4.6 7.7 6.9 11.6h1.2c-2.5-4-4.9-8.1-7.2-12.1zm-13-21.3c3.1 5.8 6.3 11.7 9.6 17.5l.9-.5c-3.3-5.8-6.5-11.6-9.6-17.5l-.9.5zm-4.3-139.9c1.8 6.4 3.7 12.8 5.7 19.2l1-.3c-2-6.3-3.9-12.8-5.7-19.1l-1 .2zm1075-409.5c-2.9-5.9-6-11.9-9.2-17.7l-.9.5c3.2 5.8 6.2 11.7 9.2 17.7l.9-.5zm-1004 568.4l.8-.5-2.7-4.2-.8.5c1 1.4 1.8 2.8 2.7 4.2zM1509.4 93.5c.7 1.5 1.3 3 2 4.6l.9-.4c-.7-1.5-1.3-3-2-4.6l-.9.4zm-.2 182.7c.7 6.6 1.3 13.3 1.8 19.9l1-.1c-.5-6.6-1.1-13.3-1.8-19.9l-1 .1zm4 44.8c-.2-6.6-.5-13.3-.9-20l-1 .1c.4 6.6.7 13.3.9 19.9h1zm-5.2-54.7c.2 1.6.4 3.3.6 5l1-.1c-.2-1.7-.4-3.3-.6-5l-1 .1zM508.9 110.8c3-5.9 6.1-11.9 9.3-17.7l-.9-.5c-3.2 5.8-6.3 11.8-9.3 17.7l.9.5zm995.4 130.9c1.1 6.5 2.2 13.2 3 19.7l1-.1c-.9-6.6-1.9-13.2-3-19.7l-1 .1zM516.4 5.5c-1 1.3-2 2.7-3 4l.8.6c1-1.3 2-2.7 3-4l-.8-.6zm-57.9 563.1c-2.8-6-5.5-12.1-8-18.2l-.9.4c2.6 6.1 5.3 12.2 8.1 18.2l.8-.4zm944.9 99.1c1-1.3 2-2.7 3-4l-.8-.6c-1 1.3-2 2.7-3 4l.8.6zM534.6 171.6c.6-1.6 1.2-3.1 1.8-4.6l-.9-.4c-.6 1.5-1.2 3.1-1.8 4.7l.9.3zm-8.8 421.5c-3.4-5.7-6.7-11.5-9.8-17.3l-.9.5c3.1 5.8 6.4 11.7 9.8 17.3l.9-.5zm-5.1-133.3l-1 .3c.4 1.6.9 3.2 1.4 4.8l1-.3c-.5-1.6-.9-3.2-1.4-4.8zm-.6 210.9c-4-5.3-8-10.7-11.8-16.1l-.8.6c3.8 5.4 7.8 10.8 11.8 16.1l.8-.6zm9.6-182.4c-2.2-6.2-4.3-12.6-6.2-18.9l-1 .3c1.9 6.3 4 12.7 6.2 18.9l1-.3zm-23.1-211l1 .1c.8-6.6 1.8-13.2 3-19.7l-1-.2c-1.1 6.6-2.1 13.3-3 19.8zm948 163.3c1.4-6.5 2.6-13.1 3.7-19.6l-1-.2c-1.1 6.5-2.3 13.1-3.7 19.6l1 .2zm-107-231.8c.5 1.6 1 3.1 1.5 4.7l1-.3c-.5-1.6-1-3.2-1.5-4.7l-1 .3zm-834 362.6c-3.1-5.8-6.1-11.8-8.9-17.8l-.9.4c2.8 6 5.9 11.9 8.9 17.8l.9-.4zm-10.1-259.3l1 .1c.3-6.6.8-13.3 1.5-19.8l-1-.1c-.7 6.5-1.2 13.2-1.5 19.8zm-.7 24.4v.5h1v-.5c0-6.4.1-13 .4-19.4h-1c-.2 6.4-.4 12.9-.4 19.4zm22-256.8l.9.5c3.4-5.7 6.9-11.4 10.5-17l-.8-.5c-3.7 5.5-7.3 11.2-10.6 17zm848.4-34.1l-.8.6c1 1.4 1.9 2.7 2.8 4.1l.8-.6c-.9-1.3-1.8-2.7-2.8-4.1zm-16.3 191.6c-1.6-6.4-3.4-12.9-5.3-19.2l-1 .3c1.9 6.3 3.7 12.8 5.3 19.2l1-.3zm9.7-107.6c3 5.9 5.9 11.9 8.6 17.9l.9-.4c-2.7-6-5.6-12-8.6-17.9l-.9.4zm-13.4 319.9c.5-1.6.9-3.2 1.3-4.8l-1-.3c-.4 1.6-.9 3.2-1.3 4.8l1 .3zm-.1-346.5c-.8-1.4-1.7-2.8-2.6-4.3l-.9.5c.9 1.4 1.7 2.8 2.6 4.3l.9-.5zM538.6 511.4c-2.5-6.1-5-12.3-7.2-18.5l-.9.3c2.3 6.2 4.7 12.4 7.2 18.5l.9-.3zm-12.4-316.3c2-6.3 4.3-12.6 6.6-18.8l-.9-.4c-2.3 6.2-4.6 12.6-6.6 18.9l.9.3zm4.7 406.5c-.9-1.4-1.7-2.8-2.6-4.2l-.9.5c.9 1.4 1.7 2.8 2.6 4.2l.9-.5zM555.2 34c-1 1.3-2 2.7-3 4l.8.6c1-1.3 2-2.7 3-4l-.8-.6zm-6.8 105.5c2.9-6 5.9-11.9 9-17.8l-.9-.5c-3.1 5.8-6.2 11.8-9 17.8l.9.5zm-42.9 147.7l1 .1c.2-1.7.4-3.3.6-4.9l-1-.1c-.3 1.6-.5 3.3-.6 4.9zM1403 450l1.2-4.8-1-.2-1.2 4.8 1 .2zm-.7-357.9c-3.2-5.8-6.6-11.6-10-17.2l-.9.5c3.4 5.6 6.8 11.4 10 17.2l.9-.5zm3.9 144.5c-1.4-6.4-3-13-4.8-19.4l-1 .3c1.7 6.4 3.3 12.9 4.8 19.3l1-.2zm-7-23.9l1-.3c-.5-1.6-.9-3.2-1.4-4.8l-1 .3c.4 1.6.9 3.2 1.4 4.8zm-53.3 450.1c1.1-1.3 2.1-2.5 3.2-3.8l-.8-.6c-1.1 1.3-2.1 2.6-3.2 3.8l.8.6zm9.1-98.1c-3.3 5.7-6.8 11.4-10.4 17l.8.5c3.6-5.6 7.1-11.3 10.4-17.1l-.8-.4zM513.6 430.8c-1.4-6.5-2.6-13-3.7-19.6l-1 .2c1.1 6.5 2.3 13.1 3.7 19.6l1-.2zm946.1-169.6c-1-6.6-2.1-13.2-3.3-19.7l-1 .2c1.2 6.5 2.4 13.1 3.3 19.6l1-.1zm-2.6-166.1c.7 1.5 1.4 3 2.2 4.5l.9-.4c-.7-1.5-1.4-3-2.2-4.5l-.9.4zm2.3 171.1c.2 1.6.5 3.3.7 4.9l1-.1c-.2-1.7-.4-3.3-.7-4.9l-1 .1zm2.4 130.1l-1-.1c-.8 6.6-1.7 13.2-2.7 19.7l1 .2c1-6.6 1.9-13.3 2.7-19.8zm-956.6-24.5c-.5-6.6-.9-13.3-1.1-19.9h-1c.2 6.6.6 13.3 1.1 19.9h1zm2.6 24.7c-.9-6.5-1.6-13.2-2.2-19.8l-1 .1c.6 6.6 1.3 13.3 2.2 19.8l1-.1zm-4.9-54.5c0 1.7 0 3.3.1 5h1c0-1.7-.1-3.3-.1-5h-1zm-9.3 292.5c3.6 5.6 7.3 11.2 11.1 16.6l.8-.6c-3.8-5.4-7.5-11-11-16.6l-.9.6zm15.6-228.1c-.3-1.6-.5-3.3-.7-4.9l-1 .1c.2 1.6.5 3.3.7 4.9l1-.1zm1.3-153.7l1 .2c1.2-6.5 2.6-13.1 4.1-19.5l-1-.2c-1.5 6.4-2.9 13-4.1 19.5zm3.2 183.2c1.4 6.5 3 13 4.7 19.4l1-.3c-1.7-6.4-3.3-12.9-4.7-19.3l-1 .2zm-13.2 108.7l-.9.4 2.1 4.5.9-.4-2.1-4.5zm16.4-321.1l-1.2 4.8 1 .2 1.2-4.8-1-.2zm969.3 285l1.5-4.8-1-.3-1.5 4.8 1 .3zm-442.8-317c5.6 3.2 11.1 6.8 16.3 10.7l.6-.8c-5.2-3.9-10.7-7.5-16.4-10.7l-.5.8zm-34.6-115.1l-.2 1 4.8.9.2-1c-1.6-.2-3.2-.6-4.8-.9zm52.6 195.7l-.8.5c.8 1.3 1.7 2.7 2.5 4.1l.9-.5c-.9-1.4-1.7-2.7-2.6-4.1zm-11-132.3l-.4.9c1.5.7 3 1.4 4.4 2.1l.4-.9c-1.4-.7-2.9-1.4-4.4-2.1zm5.6 268.9c3.9-5.1 7.4-10.6 10.3-16.3l-.9-.5c-3 5.6-6.4 11.1-10.3 16.2l.9.6zm-52.5-283.2c6.4 1.3 12.8 2.9 19 4.8l.3-1c-6.3-1.9-12.7-3.5-19.1-4.8l-.2 1zm-72.8 46.3c6.3-1.1 12.8-1.9 19.3-2.3l-.1-1c-6.5.4-13 1.2-19.4 2.3l.2 1zM940 121c-1.6.2-3.3.3-4.9.5l.1 1c1.6-.2 3.2-.4 4.9-.5l-.1-1zm54 1.7l-.2 1c1.6.3 3.2.5 4.8.8l.2-1c-1.5-.2-3.2-.5-4.8-.8zm-5.3 49c6.4 1.1 12.7 2.6 18.9 4.4l.3-1c-6.2-1.8-12.6-3.3-19-4.5l-.2 1.1zm18 274.4c-5.9 2.5-12 4.5-18.2 6.1l.2 1c6.2-1.5 12.4-3.6 18.3-6.1l-.3-1zm-15.3-45.9c-5.6 2.7-11.5 4.8-17.5 6l.2 1c6.2-1.2 12.1-3.3 17.8-6l-.5-1zm-12.1 54.9c1.6-.3 3.2-.5 4.8-.9l-.2-1c-1.6.3-3.1.6-4.7.9l.1 1zm-42.1-51.4c-5.9-2-11.5-4.7-16.6-8.2l-.6.8c5.2 3.5 10.9 6.3 16.9 8.3l.3-.9zm-10.6 48.2l.3-1c-1.5-.4-3.1-.9-4.6-1.4l-.3.9c1.5.6 3.1 1.1 4.6 1.5zm67.5 49.4c1.6-.3 3.2-.7 4.8-1.1l-.2-1c-1.6.4-3.2.7-4.8 1l.2 1.1zm79.8-203.1c-2-6.1-4.6-12.1-7.6-17.8l-.9.5c3 5.6 5.5 11.6 7.6 17.6l.9-.3zm-5.4 89.8c.7-1.4 1.4-2.9 2-4.4l-.9-.4c-.6 1.5-1.3 2.9-2 4.4l.9.4zM882.6 134.3c-1.5.6-3.1 1.2-4.6 1.8l.4.9c1.5-.6 3-1.2 4.6-1.8l-.4-.9zm169.7 277.5c-4 4.9-8.5 9.6-13.3 13.8l.7.7c4.8-4.3 9.3-9 13.4-13.9l-.8-.6zm-3.9 67.9c1.4-.9 2.8-1.7 4.1-2.6l-.6-.8c-1.3.9-2.7 1.8-4.1 2.6l.6.8zm-39.5 67.7l4.8-1.2-.2-1-4.8 1.2.2 1zm55.1-21.1c1.4-.8 2.9-1.6 4.3-2.4l-.5-.9c-1.4.8-2.8 1.6-4.3 2.4l.5.9zm-27.2 11.5c-6.1 2.3-12.3 4.4-18.6 6.1l.3 1c6.3-1.8 12.6-3.8 18.7-6.2l-.4-.9zM876.1 191.7c5.6-3.2 11.4-6.2 17.3-8.8l-.4-.9c-6 2.6-11.8 5.5-17.5 8.8l.6.9zM979.7 551c-6.5.6-13.1.9-19.6.9v1c6.6 0 13.2-.3 19.7-.9l-.1-1zm42.1-59c-6 2.4-12.2 4.5-18.5 6.1l.3 1c6.3-1.7 12.5-3.8 18.6-6.2l-.4-.9zm-97.9-217.8c-5.4 3.2-10.4 7-14.9 11.5l.7.7c4.4-4.4 9.3-8.2 14.7-11.3l-.5-.9zm164.3 235.4c-5.2 3.9-10.7 7.6-16.3 11l.5.9c5.6-3.4 11.1-7.1 16.3-11l-.5-.9zm47.6-297.6l.8-.6c-3.8-5.3-7.9-10.6-12.1-15.5l-.8.7c4.3 4.9 8.4 10.1 12.1 15.4zm-56.5 360.7c1.5-.7 2.9-1.5 4.4-2.3l-.5-.9c-1.4.8-2.9 1.5-4.4 2.3l.5.9zm-8.1-111.2c-4.8 4.3-10 8.4-15.2 12.1l.6.8c5.3-3.7 10.5-7.8 15.3-12.1l-.7-.8zm-47.4 131.8l4.8-1.2-.3-1-4.8 1.2.3 1zM831 162.7l-3.9 3 .6.8 3.9-3-.6-.8zm14.1 52.3l-.7-.7c-4.7 4.5-9.2 9.3-13.4 14.2l.8.6c4.1-4.9 8.6-9.7 13.3-14.1zm-7.4 237l.7-.7-3.3-3.6-.7.7c1.1 1.3 2.2 2.5 3.3 3.6zm-12-215.2l3-3.9-.8-.6-3 3.9.8.6zM965.1 601c1.6 0 3.3-.1 4.9-.1v-1c-1.6.1-3.3.1-4.9.1v1zm-9.9-48.1v-1c-1.6 0-3.3-.1-4.9-.2v1c1.6.1 3.2.1 4.9.2zm9.8-48.2v-1c-6.5.2-13 0-19.4-.5l-.1 1c4.8.4 9.7.6 14.6.6 1.6 0 3.2-.1 4.9-.1zm-57.5-9.3c-6.1-2-12.2-4.4-18.1-7.2l-.4.9c5.9 2.7 12 5.2 18.2 7.2l.3-.9zM897 543.6l.3-1c-1.6-.5-3.1-1-4.7-1.5l-.3.9c1.6.6 3.1 1.1 4.7 1.6zm43.3-195.7c-1-1.7-1.8-3.6-2.3-5.5l-1 .3c.5 2 1.3 3.9 2.4 5.7l.9-.5zm69.9 38.8c-4.4 4.4-9.3 8.2-14.7 11.3l.5.9c5.4-3.1 10.4-7 14.9-11.4l-.7-.8zm12.1-86.3c-3.2-5.4-7-10.4-11.5-14.9l-.7.7c4.4 4.4 8.2 9.3 11.3 14.7l.9-.5zm-106.1 93.2l.6-.8c-1.2-.9-2.4-1.9-3.6-2.9l-.7.8c1.3 1 2.5 2 3.7 2.9zm103.7-17.1c3.5-5.2 6.3-10.9 8.3-16.8l-.9-.3c-2 5.9-4.7 11.5-8.2 16.6l.8.5zm-5.8 7.4l3-3.6-.8-.6c-.9 1.2-1.9 2.4-2.9 3.6l.7.6zM960 408.5v-1c-6.2 0-12.4-.8-18.3-2.4l-.3 1c6 1.6 12.3 2.4 18.6 2.4zm14.5 47.2l-.1-1c-6.3.8-12.8 1-19.2.8v1c1.6.1 3.2.1 4.8.1 4.9 0 9.7-.3 14.5-.9zm-31.3-102.3c4.5 4.5 10.5 7 16.8 7 2.1 0 4.2-.3 6.2-.8l-.3-1c-1.9.5-3.9.8-5.9.8-6.1 0-11.8-2.4-16.1-6.7l-.7.7zm7.3-88.2l.1 1c1.5-.2 3.1-.4 4.6-.5l-.1-1c-1.5.1-3.1.2-4.6.5zm77.7 170.2l-.6-.8c-5.3 3.6-10.8 6.9-16.6 9.6l.4.9c5.9-2.8 11.5-6.1 16.8-9.7zm-15.9-257.8c6.1 2 12.2 4.4 18.1 7.2l.4-.9c-5.9-2.7-12-5.2-18.2-7.2l-.3.9zm18.3 144.7c-1.2-6.2-3.3-12.1-6.1-17.8l-.9.4c2.8 5.6 4.8 11.4 6 17.5l1-.1zm-3.4-190.5c6.2 2 12.4 4.4 18.3 7l.4-.9c-6-2.6-12.2-5-18.4-7l-.3.9zm-62.5 276.5c1.6-.1 3.1-.3 4.7-.5l-.1-1c-1.5.2-3.1.4-4.6.5v1zm4.8-287c6.5.3 13.1.9 19.5 1.7l.1-1c-6.5-.9-13.1-1.5-19.6-1.7v1zm65.7 64.7l-.4.9c1.4.7 2.9 1.5 4.3 2.2l.5-.9c-1.4-.8-2.9-1.5-4.4-2.2zm23.5 82.1c-3.7-5.3-7.8-10.3-12.3-14.9l-.7.7c4.4 4.6 8.5 9.6 12.2 14.8l.8-.6zm-26.7 68.4v-.2h-1v.2c0 6.2-.8 12.4-2.4 18.4l1 .3c1.6-6.1 2.4-12.4 2.4-18.7zm-.2-4.9c-.1-1.6-.3-3.1-.5-4.7l-1 .1c.2 1.5.4 3.1.5 4.6h1zm11.3-81.9c-4.7-4.5-9.7-8.6-15-12.2l-.6.8c5.2 3.6 10.2 7.7 14.9 12.1l.7-.7zm-7.1 179.9l-.6-.8c-1.2 1-2.5 2-3.8 3l.6.8c1.2-1 2.5-2 3.8-3zm-12-194.7c-1.4-.9-2.8-1.7-4.1-2.5l-.5.9c1.4.8 2.8 1.6 4.1 2.5l.5-.9zM909.9 386.7c-4.4-4.4-8.2-9.3-11.3-14.7l-.9.5c3.1 5.4 7 10.4 11.5 14.9l.7-.7zm2.9-160.7c-1.5.6-3 1.3-4.4 2l.4.9c1.4-.7 2.9-1.3 4.4-2l-.4-.9zm-7 63.1l-3 3.6.8.6c.9-1.2 1.9-2.4 2.9-3.6l-.7-.6zm40-23.2c-6.2 1.2-12.1 3.3-17.8 6.1l.4.9c5.6-2.8 11.5-4.8 17.5-6l-.1-1zm8.2 48.6c1.9-.5 3.9-.8 6-.8 6.1 0 11.8 2.4 16.1 6.6l.7-.7c-4.5-4.5-10.5-6.9-16.8-6.9-2.1 0-4.2.3-6.2.8l.2 1zm-64.4 31.3c-.2-1.5-.4-3.1-.5-4.6l-1 .1c.1 1.6.3 3.1.5 4.7l1-.2zm1.8-27.6l-1-.3c-1.6 6-2.4 12.3-2.4 18.6h.3l.7-.1c0-6.1.8-12.2 2.4-18.2zm8.7-21.6c-3.5 5.2-6.3 10.9-8.3 16.9l.9.3c2-5.9 4.7-11.5 8.2-16.6l-.8-.6zm48.4 20.2l-.5-.9c-7.3 4.3-11.9 12.1-11.9 20.6h1c.1-8.1 4.4-15.7 11.4-19.7zM896.4 368c-2.8-5.6-4.8-11.5-6-17.5l-1 .2c1.2 6.2 3.3 12.1 6.1 17.8l.9-.5zm242.2-152c.9 1.4 1.8 2.7 2.7 4.1l.8-.5c-.9-1.4-1.8-2.7-2.7-4.1l-.8.5zm-178.7 48.5v1h.1c6.2 0 12.3.8 18.2 2.4l.3-1c-6-1.6-12.2-2.4-18.5-2.4h-.1zm11.5 91.8l.5.9c7.3-4.3 11.9-12.2 11.9-20.6v-.1l-1 .1c0 8-4.3 15.6-11.4 19.7zm35.3-73.2l.7-.8-3.6-3-.6.8c1.1.9 2.3 1.9 3.5 3zm-26.1 41.4l-.9.5c1 1.7 1.8 3.6 2.3 5.5l1-.3c-.6-2-1.4-3.9-2.4-5.7zm2.1-55.3c5.9 2 11.5 4.7 16.6 8.2l.6-.8c-5.2-3.5-10.9-6.3-16.9-8.3l-.3.9zm-8.5-51c6.3.8 12.7 2 18.8 3.8l.3-1c-6.2-1.8-12.5-3.1-18.9-3.8l-.2 1zm41.4 11.8c-5.7-3-11.7-5.5-17.8-7.6l-.3.9c6.1 2 12 4.5 17.7 7.5l.4-.8zm-51-13.5v1l4.8.3.1-1c-1.6-.2-3.3-.3-4.9-.3zm14.6-47.2l-.1 1 4.8.6.1-1c-1.5-.2-3.2-.4-4.8-.6zM1266 276.9c1.2 6.4 2.3 13 3.1 19.5l1-.1c-.8-6.5-1.9-13.1-3.1-19.6l-1 .2zm-65.5 170c.7-1.5 1.4-3 2-4.5l-.9-.4c-.7 1.5-1.3 3-2 4.5l.9.4zm5.7-207.5c-2.4-6.1-5.1-12.2-7.9-18.1l-.9.4c2.8 5.9 5.5 11.9 7.9 18l.9-.3zm-8.7 211.5c-2.8 5.9-6 11.8-9.2 17.4l.9.5c3.3-5.7 6.4-11.6 9.3-17.5l-1-.4zm-29.7 117.9c-4.9 4.4-10 8.7-15.1 12.7l.6.8c5.2-4.1 10.3-8.4 15.2-12.8l-.7-.7zm21.9-20.1c1.1-1.2 2.2-2.4 3.3-3.7l-.7-.7c-1.1 1.2-2.2 2.4-3.3 3.7l.7.7zm27.2-271.3c1.5 6.4 2.7 12.9 3.7 19.4l1-.1c-1-6.5-2.2-13-3.7-19.4l-1 .1zm4.2-188.5c4.5 4.8 9 9.7 13.2 14.7l.8-.6c-4.3-5-8.7-10-13.3-14.8l-.7.7zm-59.6 547c1.4-.9 2.7-1.9 4.1-2.8l-.6-.8c-1.4.9-2.7 1.9-4.1 2.8l.6.8zm73.1-447.1c3.1 5.8 6.1 11.7 8.8 17.7l.9-.4c-2.7-6-5.7-11.9-8.8-17.7l-.9.4zm-13.9-166.2c5.1 4.2 10.1 8.6 15 13.1l.7-.7c-4.9-4.5-9.9-8.9-15-13.1l-.7.7zM1109.6 665l4.5-2.1-.4-.9-4.5 2.1.4.9zM980 648.6c1.7-.1 3.3-.2 4.9-.4l-.1-1c-1.6.1-3.3.2-4.9.3l.1 1.1zm14.5-50.8c-6.5.8-13.1 1.5-19.6 1.8l.1 1c6.6-.4 13.2-1 19.7-1.8l-.2-1zm-69 49.5l.1-1c-1.6-.2-3.3-.4-4.9-.6l-.1 1c1.6.3 3.3.4 4.9.6zm194.6-43.3c-5.6 3.4-11.4 6.6-17.3 9.6l.5.9c5.8-3 11.7-6.3 17.3-9.7l-.5-.8zm-81.4 35.2c1.6-.4 3.2-.8 4.8-1.3l-.3-1c-1.6.4-3.2.9-4.8 1.3l.3 1zm-103.2-40.3c-6.5-.6-13.1-1.5-19.5-2.5l-.2 1c6.5 1.1 13.1 1.9 19.6 2.5l.1-1zm168.9-41.9c-5.5 3.6-11.1 7-16.9 10.2l.5.9c5.7-3.2 11.4-6.6 16.9-10.2l-.5-.9zm133.1-449.6c1.1 1.3 2.1 2.6 3.1 3.8l.8-.6c-1-1.3-2.1-2.6-3.1-3.8l-.8.6zm-185.7 476.2c-6.1 2.3-12.4 4.4-18.7 6.2l.3 1c6.3-1.8 12.6-3.9 18.8-6.2l-.4-1zm42.7 35.3c1.5-.7 3-1.4 4.4-2.2l-.4-.9c-1.5.7-2.9 1.5-4.4 2.2l.4.9zm162.4-562.3c1.1 1.2 2.3 2.4 3.4 3.6l.7-.7c-1.1-1.2-2.3-2.4-3.4-3.6l-.7.7zm-39.4-37.9c-1.3-1-2.6-2.1-3.9-3.1l-.6.8c1.3 1 2.6 2.1 3.9 3.1l.6-.8zm22.5 19.7l-.7.7c4.8 4.5 9.6 9.2 14.1 13.9l.7-.7c-4.5-4.7-9.3-9.4-14.1-13.9zM730.4 58.1c-5.1 4.2-10.1 8.6-15 13.1l.7.7c4.8-4.5 9.9-8.8 14.9-13l-.6-.8zm542.3 272.8c0-1.7-.1-3.3-.1-5h-1c.1 1.6.1 3.3.1 4.9l1 .1zm-8.7-63.7c.4 1.6.7 3.2 1.1 4.8l1-.2c-.3-1.6-.7-3.2-1.1-4.8l-1 .2zm-60.6-195.7c4.8 4.5 9.6 9.1 14.2 13.8l.7-.7c-4.6-4.7-9.4-9.4-14.3-13.8l-.6.7zm-108-69.6l-.4.9c1.5.6 3.1 1.3 4.6 1.9l.4-.9c-1.6-.7-3.1-1.3-4.6-1.9zm53.2 26.9l-.5.9c1.4.9 2.8 1.7 4.2 2.6l.5-.8-4.2-2.7zm-59.5 23.9c6 2.7 12 5.7 17.7 8.8l.5-.9c-5.8-3.1-11.8-6.1-17.8-8.8l-.4.9zm51.4 29.6c5.3 3.8 10.6 7.8 15.8 12l.6-.8c-5.1-4.2-10.4-8.2-15.8-12l-.6.8zm129.2 219c.7 6.5 1.3 13.1 1.6 19.7h1c-.3-6.6-.9-13.2-1.6-19.8l-1 .1zm-17.5 146.8c.6-1.5 1.2-3.1 1.7-4.7l-.9-.3c-.6 1.6-1.1 3.1-1.7 4.6l.9.4zm-9.8 22.8c2.8-5.9 5.5-12.1 8-18.2l-.9-.4c-2.4 6.1-5.1 12.2-8 18.1l.9.5zm3.9-260.3l-.9.4c.7 1.5 1.3 3 2 4.5l.9-.4c-.7-1.5-1.3-3-2-4.5zm-2.6-95.5c4 5.2 8 10.5 11.8 15.9l.8-.6c-3.8-5.4-7.7-10.8-11.8-16l-.8.7zm11.9 323.7c2.2-6.2 4.1-12.6 5.9-18.9l-1-.3c-1.7 6.3-3.7 12.7-5.9 18.9l1 .3zm2.7-303.7c3.7 5.5 7.3 11.1 10.6 16.7l.9-.5c-3.4-5.6-7-11.3-10.7-16.8l-.8.6zm5.5 127.1c-1.6-6.4-3.3-12.8-5.3-19.1l-1 .3c2 6.3 3.7 12.7 5.3 19.1l1-.3zM877.7 587c-6.2-2-12.4-4.3-18.5-6.9l-.4.9c6.1 2.5 12.3 4.8 18.6 6.9l.3-.9zm371.5-366.9c2.5 6.1 4.7 12.3 6.8 18.6l.9-.3c-2.1-6.3-4.4-12.5-6.8-18.6l-.9.3zm-403.9-121c5.9-2.8 12-5.5 18-7.9l-.4-.9c-6.1 2.4-12.2 5.1-18.1 7.9l.5.9zm271.5 24.3l-.6.8 3.9 3 .6-.8c-1.2-1-2.5-2-3.9-3zm7.3 6.8c5.1 4.1 10.1 8.4 15 12.8l.7-.7c-4.8-4.5-9.9-8.8-15-12.9l-.7.8zm-16.6 47.9l-.7.7c4.8 4.4 9.4 9.1 13.7 14l.7-.7c-4.3-4.8-8.9-9.5-13.7-14zm48 67.8c2.7 5.9 5.2 12 7.4 18.1l.9-.3c-2.2-6.1-4.7-12.3-7.5-18.2l-.8.4zm-22.6-170l-.6.8c1.4.9 2.7 1.8 4.1 2.8l.6-.8c-1.4-1-2.7-1.9-4.1-2.8zm-173.3-4v1h.4c6.4 0 12.9.2 19.3.7l.1-1c-6.4-.5-12.9-.7-19.4-.7h-.4zm-49.5-44.2c-1.6.3-3.3.5-4.9.8l.2 1c1.6-.3 3.2-.6 4.9-.8l-.2-1zm113.5 2.6l-.2 1c1.6.3 3.2.7 4.8 1l.2-1c-1.6-.4-3.2-.7-4.8-1zm-59.1-6.5v1c1.7 0 3.3.1 4.9.1v-1c-1.6 0-3.3-.1-4.9-.1zm53.8 55.6c6.4 1.4 12.8 3.1 19 5.1l.3-1c-6.3-1.9-12.7-3.6-19.1-5.1l-.2 1zm142 84.3l-.8.7c1.1 1.2 2.1 2.5 3.2 3.8l.8-.6c-1-1.4-2.1-2.7-3.2-3.9zm6.5 337.8l-.8-.6c-4.1 5.1-8.4 10.1-12.9 14.9l.7.7c4.6-4.8 8.9-9.9 13-15zm-6.3-83.3l-.9-.4c-2.5 6-5.2 12-8.2 17.8l.9.5c2.9-5.8 5.7-11.9 8.2-17.9zm-6.2-177.2c-2.9-5.9-6.1-11.7-9.5-17.3l-.9.5c3.4 5.6 6.6 11.3 9.5 17.2l.9-.4zm-11-95.3l-.7.7c4.7 4.5 9.3 9.3 13.7 14.2l.7-.7c-4.3-4.8-9-9.6-13.7-14.2zm5.7 294.2c-.8 1.4-1.6 2.9-2.4 4.3l.9.5c.8-1.4 1.6-2.9 2.4-4.3l-.9-.5zm.8 79.5c-4.5 4.7-9.3 9.3-14.2 13.7l.7.7c4.9-4.4 9.7-9 14.2-13.7l-.7-.7zm12.5-105.8c2.3-6.1 4.4-12.4 6.2-18.7l-1-.3c-1.8 6.3-3.8 12.5-6.1 18.6l.9.4zm3.1-145.3l-.9.3c.5 1.5 1 3.1 1.5 4.7l1-.3c-.5-1.6-1-3.1-1.6-4.7zm-20 320.1c1.3-1 2.7-2 4-3l-.6-.8c-1.3 1-2.6 2-4 3l.6.8zM852.6 42.7c-1.6.6-3.1 1.1-4.6 1.7l.4.9c1.5-.6 3.1-1.2 4.6-1.7l-.4-.9zM754 399.5c-1.9-6.2-3.5-12.6-4.9-19l-1 .2c1.3 6.4 3 12.8 4.9 19.1l1-.3zm-5.8-23.8c-.3-1.6-.6-3.2-.8-4.8l-1 .2c.3 1.6.5 3.2.8 4.9l1-.3zm-4.4-29.1c.3 6.5.9 13.1 1.8 19.6l1-.1c-.9-6.4-1.5-13-1.8-19.5h-1zm1.7-39.3l1 .1c.9-6.5 2.1-12.9 3.5-19.3l-1-.2c-1.4 6.4-2.6 12.9-3.5 19.4zm4.5-131.7c-1 1.3-2 2.6-3 4l.8.6 3-3.9-.8-.7zm1.3-72c-1.2 1.1-2.5 2.2-3.7 3.3l.7.7c1.2-1.1 2.4-2.2 3.7-3.3l-.7-.7zM770 232.8c-3.1 5.7-6.1 11.7-8.7 17.7l.9.4c2.6-6 5.5-11.9 8.6-17.6l-.8-.5zm-4.3 199l.9-.4c-.7-1.5-1.4-2.9-2.1-4.4l-.9.4c.6 1.5 1.3 2.9 2.1 4.4zm-6.2 77.3l.8-.7c-1.1-1.2-2.1-2.5-3.2-3.8l-.8.6c1.1 1.4 2.1 2.7 3.2 3.9zm2.9-86.6c-2.6-6-5-12.1-7-18.3l-.9.3c2.1 6.2 4.4 12.4 7 18.4l.9-.4zm-18.8-86c0 1.7 0 3.4.1 5.2h1c0-1.7-.1-3.4-.1-5.1 0-4.8.2-9.7.5-14.5l-1-.1c-.4 4.8-.5 9.7-.5 14.5zm390.3 128.8c3.9-5.3 7.6-10.8 11-16.3l-.9-.5c-3.4 5.6-7.1 11-11 16.3l.9.5zM803.8 66.7c5.7-3.3 11.5-6.4 17.4-9.4l-.4-.9c-5.9 2.9-11.8 6.1-17.4 9.4l.4.9zm6.3-58.5l-4.5 2.1.4.9 4.5-2.1-.4-.9zm57.2 627l.3-1c-1.6-.5-3.2-1-4.7-1.5l-.3 1c1.5.5 3.1 1.1 4.7 1.5zM745.4 317.1c.1-1.6.3-3.3.5-4.9l-1-.1c-.2 1.6-.3 3.3-.5 4.9l1 .1zm10.5-52.8c-2.2 6.2-4.1 12.5-5.7 18.8l1 .2c1.6-6.3 3.5-12.6 5.7-18.8l-1-.2zM734.3 55l.6.8c5.1-4.1 10.4-8.1 15.8-12l-.6-.8c-5.4 3.8-10.7 7.8-15.8 12zM901 79.6c6.4-1.5 12.9-2.7 19.4-3.7l-.1-1c-6.5 1-13 2.2-19.4 3.7l.1 1zm-159.6 406c3.7 5.4 7.7 10.8 11.8 15.9l.8-.6c-4.1-5.1-8-10.4-11.7-15.8l-.9.5zM104 579.2c-1.8-6.4-3.6-12.9-5.2-19.3l-1 .3c1.7 6.4 3.4 13 5.2 19.4l1-.4zm1626.3-436.9c-1.6-6.4-3.3-12.9-5.1-19.4l-1 .3c1.8 6.4 3.5 12.9 5.1 19.3l1-.2zm-2.3 397.3l-1-.3c-1.7 6.4-3.5 12.9-5.4 19.3l1 .3c1.9-6.3 3.7-12.8 5.4-19.3zm6-24.3l-1-.2c-1.5 6.5-3.1 13-4.7 19.4l1 .2c1.6-6.4 3.2-12.9 4.7-19.4zm12.9-279.4l1-.1c-.8-6.6-1.8-13.3-2.8-19.8l-1 .2c1 6.5 1.9 13.1 2.8 19.7zm-15.4-88.7l-1 .2c.4 1.6.8 3.2 1.2 4.9l1-.2c-.4-1.7-.8-3.3-1.2-4.9zm-18.1-62.6c-2.1-6.3-4.3-12.7-6.6-18.9l-.9.3c2.3 6.2 4.5 12.6 6.6 18.9l.9-.3zm24.7 97c1.3 6.5 2.5 13.1 3.6 19.7l1-.2c-1.1-6.5-2.3-13.2-3.6-19.7l-1 .2zM1715 89.4l-1 .3 1.5 4.8 1-.3c-.5-1.7-1-3.2-1.5-4.8zm32.3-53c-.6-1.6-1.2-3.1-1.8-4.7l-.9.4c.6 1.6 1.2 3.1 1.8 4.7l.9-.4zm-29 537l-1-.3c-2 6.4-4.1 12.8-6.2 19.1l.9.3c2.2-6.3 4.3-12.8 6.3-19.1zM1755.9 60c-2.2-6.3-4.5-12.6-6.8-18.9l-.9.4c2.3 6.2 4.6 12.6 6.8 18.8l.9-.3zm-1.7 276.5v-.8h-1v.8c0 6.6-.1 13.4-.2 20h1c.1-6.6.2-13.3.2-20zm-4.6-75.7l1-.1c-.6-6.6-1.3-13.3-2.1-19.9l-1 .1c.8 6.6 1.5 13.3 2.1 19.9zm-45.9 135.7l-1-.1c-.5 6.6-1.2 13.3-1.9 19.9l1 .1c.7-6.5 1.3-13.2 1.9-19.9zm38.8-190.3c.3 1.6.5 3.3.8 4.9l1-.2c-.3-1.6-.5-3.3-.8-4.9l-1 .2zm4.1 240.2l-1-.1c-.2 1.7-.5 3.3-.7 5l1 .1c.3-1.7.5-3.4.7-5zm7.4-125.8c-.1-6.7-.3-13.4-.6-20h-1c.3 6.6.5 13.3.6 20h1zm-3.9-54.8c.1 1.7.3 3.3.4 5l1-.1c-.1-1.7-.3-3.3-.4-5l-1 .1zm4.1 64.9c0-1.7 0-3.3-.1-5h-1c0 1.7 0 3.3.1 5h1zm-1.6 55.9l-1-.1c-.1 1.7-.2 3.3-.3 5l1 .1c.1-1.7.2-3.4.3-5zm.6-90.9c-.3-6.7-.8-13.4-1.3-20l-1 .1c.5 6.6.9 13.3 1.3 20l1-.1zm-42.8 301.5l-.9-.3c-2.2 6.3-4.5 12.7-6.8 18.9l.9.4c2.3-6.3 4.6-12.6 6.8-19zM1697 42.6c2.5 6.2 4.9 12.5 7.2 18.7l.9-.3c-2.3-6.2-4.7-12.5-7.2-18.7l-.9.3zm-1.6 173.6c1.1 6.6 2.1 13.2 2.9 19.8l1-.1c-.9-6.6-1.9-13.2-2.9-19.8l-1 .1zm2.6 230.1l-1-.1c-.2 1.7-.5 3.3-.7 4.9l1 .2c.2-1.7.5-3.4.7-5zm-3.3-240.2l-1 .2c.3 1.6.6 3.3.9 4.9l1-.2c-.3-1.6-.6-3.2-.9-4.9zm7.1 414.7l-.9-.4c-.6 1.6-1.2 3.1-1.8 4.7l.9.4c.6-1.5 1.2-3.1 1.8-4.7zm-8.8-144.9c1.2-6.5 2.4-13.2 3.5-19.7l-1-.2c-1.1 6.5-2.2 13.2-3.5 19.7l1 .2zm11.4-89.4l-1-.1c-.1 1.7-.2 3.3-.3 5l1 .1c.1-1.6.2-3.3.3-5zm1.2-25h-1c-.2 6.6-.5 13.4-.9 20l1 .1c.4-6.7.7-13.4.9-20.1zm.4-25v-.8h-1v.8c0 6.7-.1 13.4-.3 20h1c.2-6.6.3-13.3.3-20zm-1-10.8c0 1.7 0 3.3.1 5h1c0-1.7 0-3.3-.1-5h-1zm-.8-25c.3 6.6.5 13.3.7 20h1c-.1-6.7-.4-13.4-.7-20h-1zm-13.1 179.9c-1.3 6.5-2.7 13.1-4.1 19.6l1 .2c1.5-6.5 2.8-13.1 4.1-19.6l-1-.2zm7 149.6l-.9-.4c-2.5 6.2-5 12.4-7.7 18.5l.9.4c2.7-6 5.2-12.3 7.7-18.5zm3.2-208.8l-1-.1c-.7 6.6-1.6 13.3-2.5 19.8l1 .1c.9-6.5 1.7-13.2 2.5-19.8zm-21.1 250.3c2.8-6 5.6-12.2 8.3-18.3l-.9-.4c-2.7 6.1-5.4 12.3-8.2 18.3l.8.4zm13-638.3c.6 1.5 1.3 3.1 1.9 4.6l.9-.4c-.6-1.5-1.3-3.1-1.9-4.6l-.9.4zm-6.3 471.9l-1-.2c-.4 1.6-.8 3.2-1.1 4.9l1 .2c.3-1.6.7-3.3 1.1-4.9zm-3.6-494.8c2.7 6 5.4 12.2 8 18.3l.9-.4c-2.6-6.1-5.3-12.3-8-18.3l-.9.4zm5.6 171.3c1.4 6.5 2.7 13.1 3.9 19.6l1-.2c-1.2-6.5-2.5-13.2-3.9-19.7l-1 .3zm0-5.1c-1.4-6.5-2.9-13.1-4.5-19.5l-1 .2c1.6 6.4 3.1 13 4.5 19.5l1-.2zm122.5 421.6l-1-.3c-2 6.4-4 12.8-6.1 19.2l.9.3c2.1-6.3 4.2-12.8 6.2-19.2zm-10.8-297.9c.3 6.6.5 13.3.6 20h1c-.1-6.7-.3-13.4-.6-20h-1zm-4.8-268.9c.6 1.6 1.1 3.1 1.7 4.7l.9-.3c-.6-1.6-1.1-3.1-1.7-4.7l-.9.3zm-2.8 179.1c-.2-1.7-.5-3.3-.8-5l-1 .2c.3 1.6.5 3.3.8 4.9l1-.1zm5.4 54.8c.1 1.7.3 3.3.4 5l1-.1c-.1-1.7-.3-3.3-.4-5l-1 .1zm-5.7-49.7c.9 6.6 1.8 13.3 2.6 19.8l1-.1c-.8-6.6-1.7-13.3-2.6-19.9l-1 .2zm-5.7-34.6c1.2 6.5 2.4 13.2 3.4 19.7l1-.2c-1.1-6.6-2.2-13.2-3.4-19.7l-1 .2zm12.1 94.3c.5 6.6.9 13.3 1.2 20h1c-.3-6.7-.7-13.4-1.2-20h-1zm1.1 121.2l-1-.1c-.5 6.6-1 13.3-1.6 20l1 .1c.6-6.7 1.2-13.4 1.6-20zm-2.1 25l-1-.1c-.7 6.6-1.4 13.3-2.2 19.9l1 .1c.8-6.6 1.5-13.3 2.2-19.9zm-4.5 29.7l1 .1c.2-1.7.4-3.3.7-5l-1-.1c-.3 1.7-.5 3.3-.7 5zm2.3-210.8c.8 6.6 1.4 13.3 2 19.9l1-.1c-.6-6.6-1.3-13.3-2-19.9l-1 .1zm7.7 381.8l-.9-.3c-.5 1.6-1.1 3.2-1.6 4.8l.9.3c.5-1.6 1.1-3.2 1.6-4.8zm-1.6-260.7h-1c-.2 6.6-.5 13.4-.8 20l1 .1c.3-6.8.6-13.5.8-20.1zm4.6-302c-2.1-6.4-4.2-12.7-6.4-19l-.9.3c2.2 6.2 4.4 12.6 6.4 19l.9-.3zm-101.7 236c-.4-6.7-.8-13.4-1.3-20l-1 .1c.5 6.6 1 13.3 1.3 20l1-.1zM1814 83.5c-1.9-6.4-3.9-12.8-5.9-19.2l-1 .3c2 6.3 4 12.8 5.9 19.1l1-.2zm-20.1 372.9l-1-.1c-.9 6.6-2 13.3-3.1 19.8l1 .2c1.1-6.6 2.1-13.3 3.1-19.9zm-7-448.3c2.5 6.2 4.9 12.5 7.2 18.7l.9-.3c-2.3-6.2-4.7-12.5-7.2-18.7l-.9.3zm14 378.5l-1-.1c-.1 1.7-.2 3.3-.3 5l1 .1c.1-1.7.2-3.3.3-5zM1735.2 9c2.6 6.1 5.1 12.3 7.6 18.5l.9-.4c-2.4-6.2-5-12.4-7.6-18.5l-.9.4zm65.1 622.8l-.9-.3c-2.2 6.3-4.5 12.7-6.9 18.9l.9.4c2.4-6.3 4.7-12.7 6.9-19zM1790 481.1l-1-.2c-1.1 6.5-2.4 13.2-3.6 19.7l1 .2c1.2-6.5 2.4-13.1 3.6-19.7zm-41.3-59.7c-.7 6.6-1.5 13.3-2.4 19.9l1 .1c.9-6.6 1.7-13.3 2.4-19.9l-1-.1zm5.1-59.9h-1c-.2 6.6-.5 13.4-.9 20l1 .1c.4-6.7.7-13.4.9-20.1zm-8.6 94.8l-1-.2c-1 6.6-2.1 13.2-3.2 19.7l1 .2c1.1-6.5 2.2-13.1 3.2-19.7zm6.7-59.7l-1-.1c-.5 6.6-1.1 13.3-1.7 19.9l1 .1c.7-6.6 1.3-13.3 1.7-19.9zm1 225l-.9-.3c-.6 1.6-1.1 3.2-1.7 4.7l.9.3c.5-1.6 1.1-3.1 1.7-4.7zm-3.5 9.4l-.9-.3c-2.3 6.2-4.8 12.5-7.2 18.7l.9.4c2.4-6.2 4.9-12.5 7.2-18.8zm-16.6-473.9c1.5 6.5 2.9 13 4.3 19.6l1-.2c-1.3-6.5-2.8-13.1-4.3-19.6l-1 .2zm7.3 323.7c-1.2 6.5-2.5 13.1-3.9 19.6l1 .2c1.4-6.5 2.7-13.1 3.9-19.7l-1-.1zm-5 29.6c.4-1.6.7-3.3 1.1-4.9l-1-.2c-.4 1.6-.7 3.3-1.1 4.9l1 .2zm5.2 144l-.9-.4c-2.5 6.2-5.1 12.4-7.8 18.5l.9.4c2.6-6 5.2-12.3 7.8-18.5zm43-138.8l-1-.2c-1.4 6.5-2.9 13.1-4.5 19.5l1 .2c1.5-6.5 3.1-13 4.5-19.5zm-3.6-373.9c-1.5-6.5-3.2-13-4.9-19.4l-1 .3c1.7 6.4 3.3 13 4.8 19.4l1.1-.3zm1.1 4.9l-1 .2c.4 1.6.7 3.3 1.1 4.9l1-.2c-.3-1.6-.7-3.3-1.1-4.9zm20.3 209.9h1c.2-6.6.2-13.4.2-20v-1.1h-1v1.1c0 6.6 0 13.4-.2 20zM1761 597.8l-1-.3c-2.1 6.3-4.2 12.7-6.5 19l.9.3c2.4-6.3 4.6-12.7 6.6-19zm40.3-272.4v5h1v-5h-1zM1777.6 540l-1-.2c-1.6 6.4-3.3 13-5.1 19.4l1 .3c1.8-6.5 3.5-13.1 5.1-19.5zm-13.8-456.2c-2-6.3-4.1-12.8-6.2-19.1l-.9.3c2.1 6.3 4.2 12.7 6.2 19l.9-.2zm4.6 490l-1-.3c-1.9 6.4-3.8 12.8-5.9 19.1l1 .3c2.1-6.2 4.1-12.7 5.9-19.1zm-3.2-485.3l-1 .3 1.5 4.8 1-.3-1.5-4.8zM25.1 251.9l1 .1c.6-6.6 1.3-13.3 2-19.9l-1-.1c-.7 6.5-1.4 13.2-2 19.9zm2.6-25l1 .1c.2-1.7.4-3.3.6-5l-1-.1c-.2 1.7-.4 3.4-.6 5zm-6.6 410.8c-2-6.3-4-12.8-5.9-19.1l-1 .3c1.9 6.4 3.9 12.8 5.9 19.2l1-.4zm1797.3-63.4l-1-.3c-1.8 6.4-3.6 12.9-5.6 19.2l1 .3c1.9-6.4 3.8-12.8 5.6-19.2zM23.3 397.1l1-.1c-.4-6.6-.8-13.4-1.1-20h-1c.3 6.7.7 13.4 1.1 20.1zM25 407c-.1-1.7-.2-3.3-.4-5l-1 .1c.1 1.7.2 3.3.4 5l1-.1zm-1.1-125.1l-1-.1c-.1 1.7-.2 3.3-.3 5l1 .1c.1-1.6.2-3.3.3-5zm5-64.9l1 .1c.8-6.6 1.8-13.3 2.7-19.8l-1-.1c-.9 6.5-1.8 13.2-2.7 19.8zm3.5-24.9l1 .2c1-6.6 2.1-13.2 3.3-19.8l-1-.2c-1.2 6.6-2.3 13.3-3.3 19.8zM23 26.1c-2.1 6.3-4.2 12.8-6.1 19.2l1 .3c2-6.4 4-12.8 6.1-19.2l-1-.3zm15.5 136.6l-1-.2c-.3 1.6-.6 3.3-.9 4.9l1 .2c.2-1.7.5-3.3.9-4.9zM21.7 311.9h1c.2-6.7.4-13.4.7-20h-1c-.3 6.6-.5 13.4-.7 20zm6 125l-1 .1c.7 6.6 1.5 13.3 2.3 19.9l1-.1c-.8-6.6-1.6-13.3-2.3-19.9zM29 661.5c-2.2-6.3-4.3-12.7-6.4-19l-1 .3c2.1 6.3 4.2 12.7 6.4 19l1-.3zm2.3-194.7c-.2-1.7-.5-3.3-.7-5l-1 .1c.2 1.7.4 3.3.7 5l1-.1zM23 372c-.2-6.6-.4-13.3-.5-20h-1c.1 6.7.3 13.4.5 20h1zm4.2 60c-.7-6.6-1.3-13.3-1.8-20l-1 .1c.5 6.6 1.1 13.4 1.8 20l1-.1zm5.2 238.9c-.6-1.6-1.1-3.1-1.7-4.7l-.9.3c.6 1.6 1.1 3.2 1.7 4.7l.9-.3zm-8.2-394c.4-6.6.9-13.4 1.5-20l-1-.1c-.6 6.6-1.1 13.4-1.5 20l1 .1zM22.4 347v-5h-1v5h1zm2.2-325.6l.9.3c.5-1.6 1.1-3.2 1.6-4.8l-.9-.3c-.5 1.6-1.1 3.2-1.6 4.8zm-2.2 315.1c0-6.5.1-13.1.2-19.5h-1c-.1 6.5-.2 13.1-.2 19.6v.5h1v-.6zM1917.6 97.3l-1 .2c1.2 4.7 2.3 9.4 3.4 14.1v-4.4l-2.4-9.9zM1903 628.1l1.5-4.8-1-.3-1.5 4.8 1 .3zm-30.2-511.2c-1.5-6.5-3.2-13-4.9-19.5l-1 .3c1.7 6.4 3.3 13 4.9 19.4l1-.2zm-15.9-58c-2-6.3-4-12.8-6.1-19.1l-.9.3c2.1 6.3 4.2 12.7 6.1 19.1l.9-.3zm12.5 510.9c.4-1.6.8-3.2 1.2-4.9l-1-.2c-.4 1.6-.8 3.2-1.2 4.9l1 .2zm37.7-511.3c-1.9-6.4-3.8-12.9-5.8-19.2l-1 .3c2 6.3 4 12.8 5.8 19.2l1-.3zm-1872 433c-1.1-6.6-2.1-13.2-3.1-19.8l-1 .1c1 6.6 2 13.3 3.1 19.8l1-.1zM1888.4 1.3c-.2-.4-.3-.9-.5-1.3h-1.1c.2.5.4 1.1.6 1.6l1-.3zm4.3 655.2c-1.9 5.5-3.8 11-5.8 16.5h1.1c1.9-5.4 3.9-10.8 5.7-16.2l-1-.3zm25.3-86.7l1 .2c.3-1.4.7-2.8 1-4.3v-.6l-.8-.2c-.4 1.7-.8 3.3-1.2 4.9zm-65.4 57.8l1.5-4.8-1-.3-1.5 4.8 1 .3zM15.4 50.2c-1.9 6.4-3.8 12.9-5.6 19.3l1 .3c1.8-6.4 3.7-12.9 5.6-19.2l-1-.4zM0 111.6c.2-1 .5-2.1.7-3.1l-.7-.2v3.3zm5.8-27.7c-1.7 6.4-3.4 13-4.9 19.5l1 .2c1.6-6.5 3.2-13 4.9-19.4l-1-.3zm179.8 584.6c.6 1.5 1.3 3 2 4.5h1.1c-.7-1.6-1.4-3.3-2.1-4.9l-1 .4zM11 604.1c-1.8-6.4-3.6-12.9-5.2-19.3l-1 .3c1.7 6.5 3.4 13 5.2 19.4l1-.4zm-6.5-24.2C3 573.8 1.4 567.6 0 561.4v4.3c1.1 4.8 2.3 9.7 3.5 14.4l1-.2zm50 4.8l1-.3c-.4-1.6-.9-3.2-1.3-4.8l-1 .3c.5 1.6.9 3.2 1.3 4.8zM1699 240.9c.8 6.6 1.6 13.3 2.3 19.9l1-.1c-.7-6.6-1.4-13.3-2.3-19.9l-1 .1zM57 79.5c-1.8 6.4-3.6 12.9-5.3 19.4l1 .3c1.7-6.4 3.4-12.9 5.3-19.3l-1-.4zM8.5 74.3c-.4 1.6-.9 3.2-1.3 4.8l1 .3c.4-1.6.9-3.2 1.3-4.8l-1-.3zM12.8 614l1-.3c-.5-1.6-.9-3.2-1.4-4.8l-1 .3c.5 1.6.9 3.2 1.4 4.8zM1846.6 30.6c.5 1.6 1.1 3.2 1.6 4.7l.9-.3c-.5-1.6-1.1-3.2-1.6-4.7l-.9.3zm-2.2 210.1c.7 6.6 1.3 13.3 1.9 19.9l1-.1c-.6-6.6-1.2-13.3-1.9-20l-1 .2zm-6.3-233.6c2.3 6.2 4.6 12.6 6.8 18.8l.9-.3c-2.2-6.3-4.5-12.6-6.8-18.9l-.9.4zm-2.1 174.1c1.2 6.5 2.2 13.2 3.2 19.8l1-.2c-1-6.6-2.1-13.2-3.3-19.8l-.9.2zm-4.7-24.5c1.3 6.5 2.6 13.1 3.8 19.7l1-.2c-1.2-6.6-2.5-13.2-3.8-19.7l-1 .2zm19.2 179.8v-.8h-1v.8c0 6.6-.1 13.4-.2 20h1c.1-6.6.2-13.4.2-20zm-16.1 169.4l-1-.2c-.3 1.6-.6 3.3-1 4.9l1 .2c.3-1.6.7-3.2 1-4.9zm15-180.3v5h1v-5h-1zm-.6-24.9c.3 6.6.5 13.4.6 20h1c-.1-6.6-.3-13.4-.6-20h-1zm-1.4-25c.4 6.6.8 13.3 1.1 20h1c-.3-6.7-.7-13.4-1.1-20h-1zm-24.1-158.3c-1.6-6.4-3.4-13-5.1-19.4l-1 .3c1.8 6.4 3.5 12.9 5.1 19.4l1-.3zm-99.5.7c-1.8-6.4-3.8-12.8-5.7-19.2l-1 .3c2 6.3 3.9 12.8 5.7 19.2l1-.3zm-4.1 450.5c.5-1.6 1-3.2 1.4-4.8l-1-.3c-.5 1.6-1 3.2-1.4 4.8l1 .3zm50.1.4c.5-1.6.9-3.2 1.4-4.8l-1-.3c-.5 1.6-.9 3.2-1.4 4.8l1 .3zm-66.6-298.3c-.1-1.7-.3-3.3-.5-5l-1 .1c.2 1.7.3 3.3.5 5l1-.1zm81.1 240c.3-1.6.7-3.3 1-4.9l-1-.2c-.3 1.6-.7 3.3-1 4.9l1 .2zM39.6 516.2c-1.3-6.5-2.5-13.2-3.6-19.7l-1 .2c1.1 6.6 2.3 13.2 3.6 19.7l1-.2zM1787.1 176c-1.3-6.5-2.6-13.1-4-19.6l-1 .2c1.4 6.5 2.8 13.1 4 19.6l1-.2zm63 185.6h-1c-.2 6.6-.4 13.4-.8 20h1c.4-6.6.7-13.4.8-20zm-76.5-244.2c-1.7-6.4-3.6-12.9-5.4-19.3l-1 .3c1.9 6.4 3.7 12.8 5.4 19.3l1-.3zm46.1 452c.4-1.6.9-3.2 1.3-4.8l-1-.3c-.4 1.6-.9 3.2-1.3 4.8l1 .3zM50.5 103.7c-.4 1.6-.8 3.2-1.2 4.9l1 .2c.4-1.6.8-3.2 1.2-4.9l-1-.2zm11.9 504.8c-1.9-6.4-3.8-12.8-5.6-19.2l-1 .3c1.8 6.4 3.7 12.9 5.6 19.3l1-.4zm-9.5-33.7c-1.7-6.4-3.3-13-4.9-19.4l-1 .2c1.5 6.5 3.2 13 4.9 19.5l1-.3zM64.2 55.5c-2 6.4-3.9 12.8-5.8 19.2l1 .3c1.8-6.4 3.8-12.8 5.8-19.2l-1-.3zM70 632.4c-2.1-6.3-4.2-12.7-6.1-19.1l-1 .3c2 6.4 4 12.8 6.1 19.1l1-.3zM41.5 526c-.3-1.6-.7-3.3-1-4.9l-1 .2c.3 1.6.7 3.3 1 4.9l1-.2zM48 113.5c-1.6 6.5-3.1 13-4.5 19.5l1 .2c1.4-6.5 3-13.1 4.5-19.5l-1-.2zm19.2-67.6l-1.5 4.8 1 .3 1.5-4.8-1-.3zm-24.8 92c-1.4 6.5-2.8 13.1-4 19.7l1 .2c1.3-6.5 2.6-13.1 4-19.6l-1-.3zm4.5 412.6c-1.5-6.5-3-13.1-4.3-19.6l-1 .2c1.4 6.5 2.8 13.1 4.3 19.6l1-.2zM1840 206c.2 1.7.5 3.3.7 5l1-.1c-.2-1.7-.5-3.3-.7-5l-1 .1zm-200.3-23.9c1.5 6.5 2.9 13.1 4.1 19.6l1-.2c-1.3-6.5-2.7-13.1-4.1-19.6l-1 .2zm208.8 214.5l-1-.1c-.4 6.6-1 13.4-1.6 20l1 .1c.6-6.6 1.1-13.3 1.6-20zm-2 25l-1-.1c-.6 6.6-1.3 13.3-2.1 19.9l1 .1c.7-6.6 1.4-13.3 2.1-19.9zm1.2-156l-1 .1c.1 1.7.3 3.3.4 5l1-.1c-.1-1.7-.3-3.4-.4-5zm1.4 121l-1-.1c-.1 1.7-.2 3.3-.3 5l1 .1c.1-1.7.2-3.3.3-5zM1642.3 34.2l-.9.4c.7 1.5 1.3 3 2 4.6l.9-.4c-.7-1.5-1.4-3-2-4.6zm202.5 201.4c-.7-6.6-1.6-13.3-2.5-19.9l-1 .1c.9 6.6 1.7 13.3 2.5 19.9l1-.1zm-183.6 356.2c2.3-6.3 4.5-12.7 6.6-19l-.9-.3c-2.1 6.3-4.3 12.7-6.6 19l.9.3zm3.1-501.8l-.9.3c.5 1.6 1.1 3.1 1.6 4.7l.9-.3c-.5-1.6-1-3.1-1.6-4.7zM315 406.6c-.2-1.7-.3-3.3-.5-5l-1 .1c.2 1.7.3 3.3.5 5l1-.1zm-99.3 204.7c-.6-1.6-1.2-3.1-1.7-4.7l-.9.3c.6 1.6 1.1 3.1 1.7 4.7l.9-.3zm1.7-214.4c-.5-6.6-1-13.3-1.3-20l-1 .1c.4 6.6.8 13.4 1.3 20l1-.1zm7.3 237.7c-2.5-6.1-4.9-12.4-7.3-18.6l-.9.4c2.3 6.2 4.8 12.5 7.3 18.7l.9-.5zm-5-382.5c.7-6.6 1.6-13.3 2.5-19.8l-1-.1c-.9 6.6-1.8 13.3-2.5 19.9h1zm6.5 214.2c-.3-1.6-.6-3.3-.8-4.9l-1 .2c.3 1.6.6 3.3.9 4.9l.9-.2zm.7-268.8c-1.2 6.5-2.4 13.2-3.4 19.7l1 .2c1.1-6.6 2.2-13.2 3.4-19.7l-1-.2zm-7-149.7l.9.4c2.4-6.2 5-12.5 7.5-18.6l-.9-.4c-2.5 6.1-5.1 12.4-7.5 18.6zm14.6 609.7c-2.7-6.1-5.3-12.2-7.8-18.3l-.9.4c2.5 6.1 5.2 12.3 7.9 18.4l.8-.5zm-12.6-430.4l1 .1c.2-1.7.5-3.3.7-4.9l-1-.2c-.2 1.7-.4 3.4-.7 5zM230 491l1-.2c-1.4-6.5-2.7-13.1-3.9-19.6l-1 .2c1.2 6.5 2.5 13.1 3.9 19.6zm4.2-327.8c-.4 1.6-.8 3.2-1.1 4.9l1 .2c.4-1.6.8-3.2 1.1-4.9l-1-.2zm16.3-57.9l-1.5 4.8 1 .3 1.5-4.8-1-.3zm-4.3 448.8c1.9 6.3 4 12.8 6.1 19.1l.9-.3c-2.1-6.3-4.2-12.7-6.1-19.1l-.9.3zm100.9-1.3c2.2 6.3 4.5 12.6 7 18.8l.9-.4c-2.4-6.2-4.7-12.5-6.9-18.7l-1 .3zM245.7 549c-1.9-6.4-3.7-12.8-5.4-19.3l-1 .3c1.7 6.4 3.6 12.9 5.4 19.3l1-.3zm-9.2-33.8c-1.6-6.4-3.1-13-4.5-19.5l-1 .2c1.4 6.5 2.9 13.1 4.5 19.5l1-.2zm115.6-408.6c-.6 1.6-1.2 3.1-1.8 4.7l.9.3c.6-1.6 1.2-3.1 1.8-4.7l-.9-.3zM240.4 139c-1.8 6.4-3.4 12.9-5 19.4l1 .2c1.6-6.4 3.3-13 5-19.4l-1-.2zm-15.8 317.4c-1.1-6.6-2-13.2-2.9-19.8l-1 .1c.9 6.6 1.9 13.3 2.9 19.8l1-.1zm14 210.2l-2.1-4.5-.9.4 2.1 4.5.9-.4zm-.9-146.5l-1 .2c.4 1.6.8 3.2 1.2 4.9l1-.3c-.3-1.6-.7-3.2-1.2-4.8zm-8.9-327.3c1.3-6.5 2.7-13.1 4.1-19.6l-1-.2c-1.4 6.5-2.8 13.1-4.1 19.6l1 .2zm-24.5 385.3c-2-6.3-4-12.8-5.8-19.1l-1 .3c1.9 6.4 3.8 12.8 5.9 19.2l.9-.4zm1.9-492.5c-2.1 6.3-4.2 12.8-6.1 19.2l1 .3c1.9-6.4 4-12.8 6.1-19.1l-1-.4zm-14.3 48.1c-.4 1.6-.8 3.2-1.3 4.8l1 .2c.4-1.6.8-3.2 1.3-4.8l-1-.2zm17.6-57.6c-.5 1.6-1.1 3.2-1.6 4.8l.9.3c.5-1.6 1.1-3.2 1.6-4.8l-.9-.3zm8.6-23.6c-2.4 6.2-4.7 12.6-7 18.9l.9.3c2.2-6.3 4.6-12.6 6.9-18.8l-.8-.4zm-5.8 549.3c-2.2-6.3-4.4-12.6-6.5-18.9l-1 .3c2.1 6.3 4.2 12.7 6.5 19l1-.4zm-17.9-57.3c-1.7-6.4-3.4-12.9-5-19.4l-1 .2c1.6 6.5 3.3 13 5 19.4l1-.2zm-6.2-24.2c-1.5-6.5-3-13-4.4-19.5l-1 .2c1.4 6.5 2.8 13.1 4.4 19.6l1-.3zm-3.6 143.2c-2.6-6.1-5.1-12.3-7.5-18.5l-.9.4c2.4 6.2 5 12.4 7.5 18.5l.9-.4zm4.8-520.1c-1.6 6.5-3.2 13-4.6 19.5l1 .2c1.4-6.5 3-13 4.6-19.5l-1-.2zm-15.1 497.3l.9-.4c-.6-1.6-1.2-3.1-1.8-4.7l-.9.4c.6 1.6 1.2 3.2 1.8 4.7zM219.1 257l-1-.1c-.7 6.6-1.3 13.3-1.8 19.9l1 .1c.5-6.6 1.2-13.3 1.8-19.9zm1353.7-137.1c-2.2-6.2-4.5-12.6-7-18.8l-.9.4c2.4 6.2 4.7 12.5 6.9 18.7l1-.3zm-1355.6 287l1-.1c-.2-1.7-.3-3.3-.5-5l-1 .1c.2 1.7.4 3.3.5 5zm-1.9-115c-.4 6.6-.7 13.4-.9 20h1c.2-6.6.5-13.4.9-20h-1zm1.6-10l-1-.1c-.1 1.7-.2 3.3-.3 5l1 .1c.1-1.6.2-3.3.3-5zm4.1 149.8c-.8-6.6-1.6-13.3-2.3-19.9l-1 .1c.7 6.6 1.4 13.3 2.3 19.9l1-.1zm10.4-411.8c-.7 1.5-1.3 3.1-2 4.6l.9.4c.7-1.5 1.3-3.1 2-4.6l-.9-.4zm1584 68.4l-1 .3c.5 1.6.9 3.2 1.4 4.8l1-.3c-.4-1.6-.9-3.2-1.4-4.8zM215 346.9c0-1.7 0-3.3-.1-5h-1c0 1.7 0 3.3.1 5h1zm-.8-30c-.2 6.5-.3 13.1-.3 19.6v.4h1v-.4c0-6.5.1-13.1.3-19.6h-1zm166.2 177.8c-.4-1.6-.9-3.2-1.3-4.8l-1 .3c.4 1.6.9 3.2 1.3 4.8l1-.3zm-21.9-147.9c.1 6.6.3 13.4.7 20h1c-.3-6.6-.6-13.3-.7-20h-1zm9 94.5c1.1 6.5 2.4 13.1 3.8 19.6l1-.2c-1.4-6.5-2.6-13.1-3.8-19.6l-1 .2zm8.1-248.1c-.4 1.6-.8 3.2-1.2 4.9l1 .2c.4-1.6.8-3.2 1.2-4.9l-1-.2zm-14.9 183.5c-.1-1.7-.2-3.3-.3-5l-1 .1c.1 1.7.2 3.3.3 5l1-.1zm9 231.6c2.8 6 5.7 12.1 8.6 18l.9-.4c-3-5.9-5.9-12-8.6-18l-.9.4zm-54-356.3l1 .1c.9-6.6 1.8-13.2 2.9-19.8l-1-.2c-1.1 6.7-2 13.3-2.9 19.9zm2.8 357.2c-.6-1.5-1.3-3.1-1.9-4.6l-.9.4c.6 1.5 1.3 3.1 1.9 4.6l.9-.4zm28.1 58.3l-.9.5c.9 1.7 1.8 3.3 2.7 5h1.1c-.9-1.8-1.9-3.6-2.9-5.5zm25.7-201.7c1.4 6.5 3 13 4.6 19.5l1-.2c-1.6-6.4-3.2-13-4.6-19.4l-1 .1zm-13.2-159h1c.3-6.6.8-13.3 1.3-19.9l-1-.1c-.5 6.7-1 13.4-1.3 20zm1 75c.5 6.6 1.1 13.3 1.8 19.9l1-.1c-.7-6.6-1.3-13.3-1.8-19.9l-1 .1zm-40.7-154.5l1 .2c.3-1.6.6-3.3.9-4.9l-1-.2c-.3 1.6-.6 3.2-.9 4.9zm39.3 89.5h1c.1-1.7.1-3.3.2-5h-1c-.1 1.7-.1 3.3-.2 5zm-.3 19.7v5.3h1v-5.3c0-4.9.1-9.8.2-14.7h-1c-.1 4.9-.2 9.8-.2 14.7zm-2.5 239.7c.6 1.6 1.2 3.1 1.9 4.6l.9-.4c-.6-1.5-1.2-3.1-1.9-4.6l-.9.4zm10.9-145l-1 .2c.3 1.6.5 3.3.8 4.9l1-.2c-.2-1.6-.5-3.2-.8-4.9zM365 247.1l1 .1c1-6.5 2.1-13.2 3.3-19.7l-1-.2c-1.2 6.6-2.3 13.3-3.3 19.8zm3.5 356.2c-2.7-6-5.4-12.2-7.9-18.3l-.9.4c2.5 6.1 5.2 12.3 7.9 18.3l.9-.4zm-6-196.7c.8 6.6 1.7 13.3 2.6 19.8l1-.1c-1-6.5-1.9-13.2-2.6-19.8l-1 .1zm1.1-149.6l1 .1c.2-1.7.4-3.3.7-4.9l-1-.1c-.3 1.6-.5 3.3-.7 4.9zm1158.1-136.3c-2.4-6.2-4.9-12.4-7.5-18.5l-.9.4c2.6 6.1 5.1 12.3 7.4 18.5l1-.4zM311.3 346.8c0-1.7 0-3.3-.1-5h-1c0 1.7 0 3.3.1 5h1zm.9 25c-.4-6.6-.6-13.3-.8-20h-1c.2 6.6.4 13.4.8 20h1zm1.8 24.9c-.6-6.6-1.1-13.3-1.5-19.9l-1 .1c.4 6.6.9 13.3 1.5 19.9l1-.1zm74.1 126.9c2.1 6.3 4.3 12.7 6.5 18.9l.9-.3c-2.3-6.2-4.5-12.6-6.5-18.9l-.9.3zm-75.3-231.7l-1-.1c-.4 6.6-.8 13.4-1 20h1c.2-6.6.5-13.3 1-19.9zm-2.5 44.6v.3h1v-.3c0-6.5.1-13.1.3-19.6h-1c-.2 6.4-.3 13.1-.3 19.6zm1257.5 230.2c.6-1.6 1.2-3.1 1.8-4.7l-.9-.3c-.6 1.6-1.2 3.1-1.8 4.7l.9.3zM317.9 436.5c1 6.6 2.1 13.2 3.4 19.7l1-.2c-1.2-6.5-2.3-13.1-3.4-19.7l-1 .2zm.2-5.1c-1-6.6-1.8-13.2-2.6-19.8l-1 .1c.8 6.6 1.6 13.3 2.6 19.8l1-.1zm-23.2 117.3l1.5 4.8 1-.3-1.5-4.8-1 .3zm1221.5 17c.6-1.5 1.3-3.1 1.9-4.6l-.9-.4c-.6 1.5-1.3 3.1-1.9 4.6l.9.4zM319.5 614.2c2.6 6.1 5.4 12.2 8.2 18.2l.9-.4c-2.8-6-5.6-12.1-8.2-18.2l-.9.4zm4.7-143.3c1.4 6.5 2.9 13.1 4.4 19.5l1-.2c-1.6-6.4-3-13-4.4-19.5l-1 .2zm-2-9.8c.3 1.6.6 3.3 1 4.9l1-.2c-.3-1.6-.7-3.3-1-4.9l-1 .2zm4-268.2l1 .2c1.5-6.5 3-13 4.7-19.4l-1-.3c-1.7 6.5-3.3 13.1-4.7 19.5zm17.2 470.7l.9-.5c-.8-1.5-1.6-2.9-2.3-4.4l-.9.5c.7 1.5 1.5 3 2.3 4.4zm3-115.9c-2.2-6.3-4.2-12.7-6.2-19l-1 .3c2 6.3 4.1 12.7 6.2 19l1-.3zm-9.1-28.5l-1 .3c.5 1.6.9 3.2 1.4 4.8l1-.3c-.4-1.6-.9-3.2-1.4-4.8zm-7.4 117.7c2.9 6 5.8 12 8.9 17.9l.9-.5c-3-5.9-6-11.9-8.9-17.9l-.9.5zm-.1-141.6c1.6 6.4 3.4 12.9 5.2 19.3l1-.3c-1.8-6.4-3.6-12.9-5.2-19.3l-1 .3zm-114-123.4c-.3-6.6-.5-13.3-.7-20h-1c.1 6.7.4 13.4.7 20h1zm-116.9-263c-1.7 6.4-3.3 13-4.9 19.4l1 .2c1.6-6.5 3.2-13 4.9-19.4l-1-.2zm-2.3 446.4l1-.2c-.4-1.6-.8-3.2-1.2-4.9l-1 .2c.4 1.6.8 3.2 1.2 4.9zm-1.4-10c-1.6-6.5-3.1-13-4.5-19.5l-1 .2c1.4 6.5 2.9 13.1 4.5 19.5l1-.2zM90.6 143c-1.4 6.5-2.8 13.1-4.1 19.6l1 .2c1.3-6.5 2.7-13.1 4.1-19.6l-1-.2zm2.2-9.8c-.4 1.6-.8 3.3-1.1 4.9l1 .2c.4-1.6.7-3.3 1.1-4.9l-1-.2zM139 525.8l1-.2c-.4-1.6-.7-3.3-1.1-4.9l-1 .2c.4 1.7.8 3.3 1.1 4.9zM113.3 613l1-.3-1.5-4.8-1 .3c.5 1.7 1 3.2 1.5 4.8zm27.8-474.6c-1.6 6.5-3.1 13-4.5 19.5l1 .2c1.4-6.5 2.9-13.1 4.5-19.5l-1-.2zm813.7 29.9v1c6.4-.2 13 0 19.4.5l.1-1c-6.4-.5-13-.7-19.5-.5zM116.2 51.1c-2.1 6.3-4.2 12.8-6.2 19.1l1 .3c2-6.4 4.1-12.8 6.2-19.1l-1-.3zm38.4 532.8l1-.3-1.5-4.8-1 .3 1.5 4.8zM128.2 18c-.6 1.6-1.2 3.1-1.8 4.7l.9.4c.6-1.6 1.2-3.1 1.8-4.7l-.9-.4zm6.4 154.9l-1-.2c-1.3 6.5-2.5 13.2-3.6 19.7l1 .2c1.1-6.6 2.3-13.2 3.6-19.7zM119.4 372c-.3-6.6-.5-13.3-.6-20h-1c.1 6.6.3 13.4.6 20h1zm-1.4-60h1c.2-6.7.5-13.4.8-20l-1-.1c-.3 6.7-.6 13.5-.8 20.1zm-.3 30.1v5h1v-5h-1zm9.3-124.8c.9-6.6 2-13.2 3-19.8l-1-.2c-1.1 6.6-2.1 13.2-3.1 19.8l1.1.2zM108.5 75.1l-1.5 4.8 1 .3 1.5-4.8-1-.3zm-2.9 9.6c-1.9 6.4-3.7 12.9-5.4 19.3l1 .3c1.7-6.4 3.6-12.9 5.4-19.3l-1-.3zm5.6 518.5c-2-6.3-3.9-12.8-5.8-19.2l-1 .3c1.8 6.4 3.8 12.9 5.8 19.2l1-.3zm11.1 33.2c-2.2-6.3-4.4-12.6-6.5-18.9l-.9.3c2.1 6.3 4.3 12.7 6.5 19l.9-.4zm1706.8-494.7c-1.5-6.5-3-13.1-4.6-19.5l-1 .2c1.6 6.4 3.1 13 4.6 19.5l1-.2zm-149.6 392.7c1.8-6.4 3.5-12.9 5-19.4l-1-.2c-1.6 6.4-3.3 13-5 19.4l1 .2zM1734.2 4c-.6-1.3-1.2-2.7-1.7-4h-1.1c.6 1.5 1.3 2.9 1.9 4.4l.9-.4zm-52.3 143.5l-1 .3 1.2 4.8 1-.2c-.4-1.7-.8-3.3-1.2-4.9zM1786 3.1c-.4-1-.8-2.1-1.3-3.1h-1.1c.5 1.2 1 2.3 1.4 3.5l1-.4zm-111.8 120.5c1.9 6.4 3.7 12.9 5.4 19.2l1-.3c-1.7-6.4-3.6-12.9-5.5-19.3l-.9.4zm152.9 416.6l-1-.2c-1.5 6.5-3.1 13-4.8 19.4l1 .3c1.6-6.4 3.2-13 4.8-19.5zM120.4 282l-1-.1c-.1 1.7-.2 3.3-.3 5l1 .1c.1-1.6.2-3.3.3-5zm36.9-201.5c-2 6.3-4 12.8-5.9 19.2l1 .3c1.9-6.4 3.8-12.8 5.8-19.1l-.9-.4zm1672.9 66.1l-1 .2c.4 1.6.7 3.3 1 4.9l1-.2c-.3-1.6-.7-3.2-1-4.9zm2.2 369.2l-1-.2c-1.3 6.5-2.8 13.1-4.2 19.6l1 .2c1.5-6.5 2.9-13.1 4.2-19.6zm-159.9 42.7c2-6.3 3.9-12.8 5.7-19.2l-1-.3c-1.8 6.4-3.7 12.9-5.7 19.2l1 .3zM198.7 109.6c-1.9 6.4-3.7 12.9-5.5 19.3l1 .3c1.7-6.4 3.6-12.9 5.5-19.3l-1-.3zm1397.7 513.8c.7-1.5 1.4-3.1 2-4.6l-.9-.4c-.7 1.5-1.4 3.1-2 4.6l.9.4zm1.4-167.7c-1.2 6.5-2.5 13.1-4 19.6l1 .2c1.4-6.5 2.7-13.1 4-19.6l-1-.2zM196.1 554.5l1-.3c-.5-1.6-.9-3.2-1.4-4.8l-1 .3c.5 1.5.9 3.2 1.4 4.8zm1427.3-435.3c-2.1-6.3-4.3-12.7-6.5-18.9l-.9.3c2.2 6.2 4.4 12.6 6.5 18.9l.9-.3zm31.3-52.3c2.4 6.2 4.8 12.5 7 18.7l.9-.3c-2.2-6.2-4.6-12.6-7-18.8l-.9.4zm14.7 501.2l1.5-4.8-1-.3-1.5 4.8 1 .3zm-50.6-.6c.6-1.6 1.1-3.2 1.6-4.7l-.9-.3c-.5 1.6-1.1 3.2-1.6 4.7l.9.3zm47.8-467.7c2.1 6.3 4.2 12.7 6.1 19.1l1-.3c-1.9-6.4-4-12.8-6.1-19.1l-1 .3zM166.9 51.9l.9.3c.6-1.6 1.1-3.2 1.7-4.7l-.9-.3c-.5 1.6-1.1 3.2-1.7 4.7zm6.4 175.1c-.9 6.6-1.7 13.3-2.5 19.9l1 .1c.7-6.6 1.6-13.3 2.5-19.9l-1-.1zm4.8-24.6l-1-.2c-1.1 6.5-2.2 13.2-3.1 19.8l1 .1c.9-6.5 2-13.1 3.1-19.7zm1.8 283.8l1-.2c-1.2-6.5-2.4-13.2-3.5-19.7l-1 .2c1.1 6.6 2.3 13.2 3.5 19.7zm3.9-318.4c-1.4 6.5-2.7 13.1-4 19.6l1 .2c1.2-6.5 2.6-13.1 4-19.6l-1-.2zm-1 328.1c-.3-1.6-.7-3.3-1-4.9l-1 .2c.3 1.6.7 3.3 1 4.9l1-.2zm-15-119.1c-.1-1.7-.2-3.3-.2-5h-1c.1 1.7.2 3.3.2 5h1zm-.4-9.9c-.2-6.6-.4-13.3-.5-20h-1c.1 6.6.3 13.4.5 20h1zm4.5 59.8c-.7-6.6-1.4-13.3-2-19.9l-1 .1c.6 6.6 1.3 13.3 2 19.9l1-.1zM187.3.5c-2.7 6.1-5.3 12.3-7.8 18.5l.9.4c2.5-6.2 5.1-12.4 7.8-18.5l-.9-.4zm-17.8 401.3c-.5-6.6-1-13.3-1.4-20l-1 .1c.4 6.7.8 13.4 1.4 20l1-.1zm.3-144.9l1 .1c.2-1.7.3-3.3.5-5l-1-.1c-.2 1.6-.4 3.3-.5 5zm1.9 374.1c-2.3-6.2-4.6-12.6-6.8-18.8l-.9.3c2.2 6.3 4.5 12.6 6.8 18.9l.9-.4zm-50.9-234c-.5-6.6-.9-13.4-1.2-20h-1c.3 6.6.7 13.4 1.2 20h1zM178 197.3l1 .2c.3-1.6.6-3.3.9-4.9l-1-.2c-.3 1.6-.6 3.3-.9 4.9zm-10.6 109.6c.2-6.6.6-13.4 1-20l-1-.1c-.4 6.6-.7 13.4-1 20l1 .1zm5.7 129.7c-.2-1.7-.4-3.3-.6-5l-1 .1c.2 1.7.4 3.3.6 5l1-.1zm3.5 24.8c-1-6.6-2-13.2-2.9-19.8l-1 .1c.9 6.6 1.8 13.3 2.9 19.8l1-.1zm-6.2-418.9l.9.3c2.3-6.2 4.8-12.5 7.2-18.7l-.9-.4c-2.4 6.2-4.9 12.5-7.2 18.8zm-4.5 279.4c-.1 4.9-.1 9.8-.1 14.6v5.4h1v-5.4c0-4.8 0-9.8.1-14.6h-1zm1.8-40.1l1 .1c.5-6.6 1-13.3 1.6-19.9l-1-.1c-.6 6.6-1.2 13.3-1.6 19.9zm-1.6 35h1c0-1.7.1-3.3.1-5h-1c-.1 1.7-.1 3.4-.1 5zM117.9 46.4l.9.3c2.2-6.3 4.4-12.7 6.8-18.9l-.9-.3c-2.4 6.2-4.7 12.6-6.8 18.9zm6.8 180.7l1 .1c.2-1.7.4-3.3.7-5l-1-.1c-.3 1.7-.5 3.4-.7 5zm-.7 204.8c-.7-6.6-1.4-13.3-2-19.9l-1 .1c.6 6.6 1.3 13.3 2 19.9l1-.1zm4.7 34.8c-.3-1.6-.5-3.3-.8-5l-1 .1c.2 1.7.5 3.3.8 5l1-.1zm-11-129.6h1v-.6c0-6.5.1-13 .2-19.5h-1c-.1 6.5-.2 13-.2 19.5v.6zm13.4 322.8c-2.4-6.2-4.8-12.5-7.1-18.7l-.9.3c2.3 6.3 4.7 12.6 7.1 18.8l.9-.4zM121.6 407c-.1-1.7-.3-3.3-.4-5l-1 .1c.1 1.7.3 3.3.4 5l1-.1zm-.2-150c-.6 6.6-1.2 13.3-1.6 20l1 .1c.5-6.6 1-13.3 1.6-20l-1-.1zm43.9-200.3c-2.2 6.3-4.4 12.7-6.5 19.1l1 .3c2.1-6.3 4.2-12.7 6.4-19l-.9-.4zm-40.2 175.5l-1-.1c-.8 6.6-1.6 13.3-2.2 19.9l1 .1c.6-6.6 1.4-13.3 2.2-19.9zm1.1 224.7l1-.1c-.9-6.6-1.8-13.3-2.6-19.9l-1 .1c.8 6.6 1.7 13.3 2.6 19.9zM152.7 574c-1.9-6.4-3.7-12.9-5.4-19.3l-1 .3c1.7 6.4 3.5 12.9 5.4 19.3l1-.3zM150 104.5c-.5 1.6-.9 3.2-1.4 4.8l1 .3c.4-1.6.9-3.2 1.4-4.8l-1-.3zm13.3 502.9c-2.1-6.3-4.2-12.7-6.2-19l-1 .3c2 6.4 4.1 12.8 6.2 19.1l1-.4zm-16-493.2c-1.7 6.4-3.4 12.9-5 19.4l1 .2c1.6-6.5 3.3-13 5-19.4l-1-.2zM146 549.9c-1.7-6.4-3.3-13-4.8-19.4l-1 .2c1.5 6.5 3.2 13 4.8 19.5l1-.3zm-8.2-34c-1.4-6.5-2.8-13.1-4-19.6l-1 .2c1.3 6.5 2.6 13.1 4 19.6l1-.2zm-4.9-24.6c-1.2-6.5-2.4-13.2-3.4-19.7l-1 .2c1.1 6.6 2.2 13.2 3.4 19.7l1-.2zm1 178.2l.9-.4c-.6-1.5-1.2-3.1-1.9-4.6l-.9.4c.6 1.5 1.3 3.1 1.9 4.6zm1.7-506.6c-.3 1.6-.7 3.3-1 4.9l1 .2c.3-1.6.7-3.3 1-4.9l-1-.2zm938.5-64.1c5.9 2.8 11.8 5.9 17.4 9.2l.5-.9c-5.7-3.3-11.6-6.4-17.5-9.2l-.4.9zm431.3 489.5l.9.4c2.8-6 5.5-12.2 8.1-18.3l-.9-.4c-2.6 6.1-5.3 12.2-8.1 18.3zm-1086.6 8.9c-2.9-5.9-5.7-12-8.4-18.1l-.9.4c2.7 6.1 5.5 12.1 8.4 18.1l.9-.4zm36.6 65.1l-.8.5c2.2 3.4 4.5 6.8 6.7 10.2h1.2c-2.4-3.5-4.8-7.1-7.1-10.7zm-46.7-290.6c-.4-6.6-.7-13.3-.9-19.9h-1c.2 6.6.5 13.3.9 20l1-.1zm990.9 299.4c-.5.6-1 1.3-1.5 1.9h1.3c.3-.4.7-.9 1-1.3l-.8-.6zM410.8 396.5c-.7-6.6-1.3-13.3-1.8-19.9l-1 .1c.5 6.6 1.1 13.3 1.8 19.9l1-.1zm-2.1-109.6l1 .1c.1-1.7.3-3.3.5-5l-1-.1c-.2 1.7-.3 3.3-.5 5zm-1.6 24.9h1c.3-6.6.7-13.3 1.2-19.9l-1-.1c-.5 6.7-.9 13.4-1.2 20zm.5 35c0-1.7-.1-3.3-.1-5h-1c0 1.7 0 3.3.1 5h1zm-1-10.3v.3h1v-.3c0-6.5.1-13.1.3-19.7h-1c-.2 6.5-.3 13.2-.3 19.7zM1532.4 154l1-.3-1.5-4.8-1 .3c.5 1.7 1 3.2 1.5 4.8zm-5.3 383.6l-.9-.3c-2.2 6.3-4.6 12.6-7 18.8l.9.4c2.5-6.3 4.8-12.6 7-18.9zm2.9 111l-.9-.5c-3.2 5.8-6.5 11.7-9.9 17.4l.9.5c3.4-5.7 6.7-11.6 9.9-17.4zm11.7-22.2l-.9-.4c-3 5.9-6.1 11.9-9.2 17.8l.9.5c3.1-6 6.2-12 9.2-17.9zm-7.6-112.9c-2 6.4-4.1 12.8-6.2 19l.9.3c2.2-6.3 4.3-12.7 6.2-19.1l-.9-.2zM409.7 277l1 .1c.7-6.6 1.5-13.2 2.5-19.8l-1-.1c-.9 6.5-1.8 13.2-2.5 19.8zm1112.9-151.3c2.3 6.2 4.6 12.5 6.7 18.8l.9-.3c-2.1-6.3-4.4-12.6-6.7-18.8l-.9.3zM446.6 22.8l.9.5c3.5-5.7 7.1-11.3 10.7-16.9l-.8-.6c-3.8 5.7-7.4 11.3-10.8 17zm1087.3 136c2 6.3 3.8 12.8 5.6 19.2l1-.3c-1.8-6.4-3.6-12.9-5.6-19.2l-1 .3zm2.6 350.2c.5-1.6.9-3.2 1.4-4.8l-1-.3c-.5 1.6-.9 3.2-1.4 4.8l1 .3zm-12.3-492.9c3.3 5.7 6.5 11.6 9.6 17.5l.9-.5c-3.1-5.9-6.3-11.8-9.6-17.5l-.9.5zM439.7 522.6c-.6-1.6-1.1-3.1-1.7-4.7l-.9.3c.5 1.6 1.1 3.1 1.7 4.7l.9-.3zm-3.5-362.3c2.1-6.3 4.4-12.6 6.7-18.8l-.9-.4c-2.4 6.2-4.6 12.6-6.7 18.9l.9.3zm-20.6 270.8c-1.1-6.5-2.1-13.1-3-19.7l-1 .1c.9 6.6 1.9 13.2 3 19.7l1-.1zm25.8-399.7l.9.5c.8-1.4 1.7-2.9 2.6-4.3l-.9-.5c-.9 1.4-1.7 2.9-2.6 4.3zm-31.1 370.2c.2 1.7.4 3.3.6 5l1-.1c-.2-1.6-.4-3.3-.6-5l-1 .1zm10.1 53.9c-1.4-6.5-2.7-13-3.9-19.6l-1 .2c1.2 6.5 2.5 13.1 3.9 19.6l1-.2zm28.2 90.4c-2.5-6.1-4.9-12.4-7.2-18.6l-.9.3c2.3 6.2 4.7 12.5 7.2 18.6l.9-.3zm-2 104.3l.9-.5c-3.5-5.6-6.9-11.4-10.1-17.2l-.9.5c3.2 5.8 6.6 11.5 10.1 17.2zm-22.7-451.8c-1.6 6.4-3.2 13-4.6 19.4l1 .2c1.4-6.5 3-13 4.6-19.4l-1-.2zm20.9-61.6c2.4-6.2 4.9-12.4 7.6-18.5l-.9-.4c-2.6 6.1-5.2 12.3-7.6 18.5l.9.4zm1098.6 343.1c-1.6 6.4-3.3 12.9-5.1 19.3l1 .3c1.8-6.4 3.5-12.9 5.1-19.3l-1-.3zM417.8 75.6l.9.4c2.9-6 5.9-12 9-17.9l-.9-.5c-3.1 5.9-6.1 12-9 18zm8.4 118.2c1.7-6.4 3.6-12.8 5.5-19.2l-1-.3c-1.9 6.3-3.8 12.8-5.5 19.2l1 .3zm2.9-140.6l.9.5c3.1-5.8 6.4-11.7 9.7-17.5l-.9-.5c-3.2 5.8-6.5 11.7-9.7 17.5zm-10.9 174.6c.3-1.6.7-3.3 1-4.9l-1-.2c-.3 1.6-.7 3.3-1 4.9l1 .2zm15.5-63.1l-1.5 4.8 1 .3 1.5-4.8-1-.3zm1.2 463.5c-3.2-5.8-6.4-11.7-9.4-17.6l-.9.5c3 5.9 6.2 11.8 9.4 17.6l.9-.5zm-11.7-22c-.7-1.5-1.5-3-2.2-4.5l-.9.4c.7 1.5 1.5 3 2.2 4.5l.9-.4zm13.2-93c-2.1-6.3-4.1-12.7-6-19l-1 .3c1.9 6.4 3.9 12.8 6 19l1-.3zm-7.4-23.8c-1.8-6.4-3.6-12.8-5.2-19.3l-1 .2c1.6 6.4 3.3 12.9 5.2 19.3l1-.2zm-7.3-23.9l1-.2c-.4-1.6-.8-3.2-1.1-4.9l-1 .2c.3 1.6.7 3.3 1.1 4.9zM1537 37.5l-.9.5c.8 1.5 1.5 2.9 2.3 4.4l.9-.5c-.7-1.4-1.5-2.9-2.3-4.4zM389.8 24.7l.9.5c3.2-5.8 6.5-11.7 9.9-17.4l-.9-.5c-3.4 5.7-6.7 11.6-9.9 17.4zm-6.4 139.5l1 .3c1.9-6.3 3.9-12.8 6-19l-.9-.3c-2.1 6.3-4.2 12.7-6.1 19zm-5.2-117.3l.9.4c3-5.9 6.1-11.9 9.2-17.8l-.9-.5c-3.1 6-6.2 12-9.2 17.9zm-4.4 9l.9.4c.7-1.5 1.4-3 2.2-4.5l-.9-.4c-.8 1.5-1.5 3-2.2 4.5zm4 132.7c1.6-6.4 3.4-12.9 5.2-19.3l-1-.3c-1.8 6.4-3.6 12.9-5.2 19.3l1 .3zM460.9 2.3c.5-.8 1-1.5 1.6-2.3h-1.2c-.4.6-.8 1.2-1.2 1.7l.8.6zM394.4 131l.9.3c2.3-6.2 4.7-12.5 7.2-18.7l-.9-.4c-2.5 6.2-4.9 12.5-7.2 18.8zm-25.2 91.5l1 .2c1.2-6.5 2.6-13.1 4.1-19.5l-1-.2c-1.5 6.4-2.9 13-4.1 19.5zM404.4 108c2.5-6.1 5.2-12.3 7.9-18.4l-.9-.4c-2.7 6.1-5.4 12.3-7.9 18.4l.9.4zm-4.5 448.6c2.4 6.2 5 12.4 7.6 18.4l.9-.4c-2.6-6.1-5.2-12.3-7.6-18.4l-.9.4zM334.2 27.3l.9.4c.7-1.5 1.5-3 2.2-4.5l-.9-.5c-.7 1.6-1.5 3.1-2.2 4.6zm-2.1 141.4l1 .3c.4-1.6.9-3.2 1.3-4.8l-1-.3c-.4 1.5-.8 3.1-1.3 4.8zM1521.8 11.8l.9-.5c-2.2-3.8-4.4-7.5-6.7-11.3h-1.2c2.3 3.9 4.7 7.9 7 11.8zM322.1 217.6c1.2-6.5 2.5-13.1 3.9-19.6l-1-.2c-1.4 6.5-2.7 13.1-3.9 19.6l1 .2zm13.7-58.3c1.8-6.4 3.7-12.8 5.7-19.1l-1-.3c-2 6.3-3.9 12.8-5.8 19.2l1.1.2zM323.5 49.9l.9.4c2.7-6.1 5.6-12.2 8.5-18.1l-.9-.4c-2.9 6-5.8 12.1-8.5 18.1zm15.2-31.6l.9.5c3-5.9 6.2-11.9 9.4-17.7l-.9-.5c-3.2 5.8-6.4 11.8-9.4 17.7zm24.7 60.4l.9.4c2.6-6.1 5.4-12.2 8.2-18.3l-.9-.4c-2.8 6.1-5.6 12.2-8.2 18.3zm1047.4 187.5c.3 1.6.5 3.3.7 4.9l1-.1c-.2-1.6-.5-3.3-.7-4.9l-1 .1zM360.9 281.9l1 .1c.6-6.6 1.3-13.3 2.1-19.8l-1-.1c-.8 6.5-1.6 13.2-2.1 19.8zm-18.8-146.8l1 .3c2.1-6.3 4.2-12.7 6.5-19l-.9-.3c-2.4 6.2-4.5 12.6-6.6 19zM1564 96.5c-.6-1.6-1.2-3.1-1.9-4.6l-.9.4c.6 1.5 1.2 3.1 1.9 4.6l.9-.4zm-8.3 324.7l-1-.1c-.9 6.6-2 13.2-3.1 19.7l1 .2c1.1-6.6 2.2-13.2 3.1-19.8zm2.4-150.3c-.2-1.7-.4-3.3-.6-5l-1 .1c.2 1.7.4 3.3.6 5l1-.1zm-8.3 179.7l1 .2c.3-1.6.6-3.3.9-4.9l-1-.2c-.3 1.6-.6 3.3-.9 4.9zm7.1-189.6c-.8-6.6-1.8-13.2-2.8-19.8l-1 .2c1 6.5 2 13.2 2.8 19.8l1-.2zm2.7 39.9c.4 6.6.7 13.3.8 19.9h1c-.2-6.6-.5-13.4-.8-20l-1 .1zm-2-24.9c.7 6.6 1.2 13.3 1.7 19.9l1-.1c-.4-6.6-1-13.3-1.7-19.9l-1 .1zm8.4 295.4l-.9-.4c-2.4 6.2-4.9 12.4-7.5 18.6l.9.4c2.6-6.2 5.1-12.4 7.5-18.6zm-7.9-180.1l1 .1c.1-1.7.3-3.3.4-5l-1-.1c-.1 1.7-.2 3.4-.4 5zm3-29.8h-1c-.3 6.6-.7 13.3-1.1 19.9l1 .1c.4-6.7.8-13.4 1.1-20zm.4-35.7h-1c0 1.7.1 3.3.1 5h1c0-1.7-.1-3.3-.1-5zm.1 10.7v-.7h-1v.7c0 6.6-.1 13.3-.3 20h1c.2-6.6.3-13.4.3-20zm-12.8 119c-1.3 6.5-2.7 13.1-4.3 19.5l1 .2c1.5-6.5 3-13 4.3-19.5l-1-.2zm-2.7 161.9l-.9-.4c-.7 1.5-1.5 3-2.2 4.5l.9.4c.7-1.5 1.4-3 2.2-4.5zm10.4-22.8l-.9-.4c-2.6 6.1-5.4 12.2-8.2 18.2l.9.4c2.8-6 5.5-12.1 8.2-18.2zm1.2-198.3c-.7 6.6-1.4 13.3-2.3 19.8l1 .1c.9-6.6 1.6-13.3 2.3-19.9h-1zm-17-349.4c3 5.9 5.9 12 8.6 18l.9-.4c-2.8-6-5.7-12.1-8.6-18l-.9.4zm10.7 22.5c2.7 6 5.4 12.2 7.9 18.3l.9-.4c-2.5-6.1-5.2-12.3-7.9-18.3l-.9.4zm-2.7 147.4c1.3 6.5 2.5 13.1 3.6 19.6l1-.2c-1.1-6.5-2.3-13.2-3.6-19.7l-1 .3zm-1-4.9l1-.2c-.3-1.6-.7-3.3-1.1-4.9l-1 .2c.4 1.7.7 3.3 1.1 4.9zm-2.2-9.7l1-.2c-1.5-6.5-3.1-13-4.8-19.4l-1 .3c1.7 6.3 3.3 12.8 4.8 19.3zM488.3 626.1c.9 1.4 1.7 2.8 2.6 4.2l.8-.5c-.9-1.4-1.8-2.8-2.6-4.2l-.8.5zm-14.1-26.4C471 593.9 468 588 465 582l-.9.4c2.9 5.9 6 11.9 9.2 17.7l.9-.4zm11.1-433.8c2.2-6.2 4.6-12.5 7.1-18.7l-.9-.4c-2.5 6.2-4.9 12.4-7.1 18.7l.9.4zm-4 332.8c2.1 6.3 4.4 12.6 6.8 18.8l.9-.4c-2.4-6.2-4.6-12.5-6.8-18.7l-.9.3zm-3.6-14.6c-1.9-6.3-3.8-12.8-5.4-19.2l-1 .3c1.7 6.4 3.5 12.9 5.5 19.2l.9-.3zM464.5 431l-1 .2c.3 1.6.6 3.3 1 4.9l1-.2c-.3-1.7-.7-3.3-1-4.9zm25.4 91.1c2.4 6.1 5 12.3 7.7 18.4l.9-.4c-2.7-6-5.2-12.2-7.7-18.3l-.9.3zm-14.8-328c-.5 1.6-.9 3.2-1.4 4.8l1 .3c.5-1.6.9-3.2 1.4-4.8l-1-.3zM313.6 73l.9.4c2.5-6.2 5.2-12.4 7.8-18.4l-.9-.4c-2.7 6-5.3 12.2-7.8 18.4zm172.1-21.9l.9.5c3.4-5.7 7-11.4 10.6-16.9l-.8-.5c-3.7 5.6-7.3 11.3-10.7 16.9zm9.7 86.5c-.7 1.5-1.3 3.1-2 4.6l.9.4c.6-1.5 1.3-3.1 1.9-4.6l-.8-.4zm-18 52c1.9-6.3 4-12.7 6.2-19l-.9-.3c-2.2 6.3-4.3 12.7-6.2 19l.9.3zM465.5 441c1.4 6.5 2.9 13 4.5 19.5l1-.2c-1.6-6.4-3.1-12.9-4.5-19.4l-1 .1zm-3-193.5l1 .2c1.2-6.5 2.5-13.1 3.9-19.5l-1-.2c-1.4 6.4-2.7 13-3.9 19.5zm-1.6 9.8l1 .2c.3-1.6.5-3.3.8-4.9l-1-.2c-.3 1.7-.6 3.3-.8 4.9zm-3.3 24.8l1 .1c.7-6.6 1.5-13.2 2.5-19.8l-1-.1c-1 6.5-1.8 13.2-2.5 19.8zm10.9-58.8c1.5-6.4 3.1-13 4.8-19.3l-1-.3c-1.7 6.4-3.4 12.9-4.9 19.4l1.1.2zm14.6-167.9c-.8 1.4-1.7 2.9-2.5 4.3l.9.5c.8-1.4 1.7-2.9 2.5-4.3l-.9-.5zm-4 433.5l-1 .3 1.5 4.8 1-.3c-.4-1.6-1-3.2-1.5-4.8zM468.6 81.7l.9.5c3.1-5.9 6.3-11.8 9.5-17.6l-.9-.5c-3.3 5.8-6.5 11.7-9.5 17.6zm29.7 51.7c2.7-6.1 5.5-12.1 8.4-18.1l-.9-.4c-2.9 6-5.8 12.1-8.4 18.1l.9.4zm-11.8 487.9c-3.4-5.7-6.8-11.5-10-17.2l-.9.5c3.2 5.8 6.6 11.6 10 17.3l.9-.6zm945.1-574.6c-.9-1.4-1.8-2.8-2.6-4.2l-.8.5c.9 1.4 1.8 2.8 2.6 4.2l.8-.5zm-18.1 339.4c-.2 1.7-.4 3.3-.6 4.9l1 .1c.2-1.6.4-3.3.6-5h-1zM499.1 30l.8.6c3.7-5.5 7.5-11 11.4-16.4l-.8-.6c-3.9 5.4-7.7 10.9-11.4 16.4zm914.2 366.2l-1-.1c-.9 6.5-1.9 13.2-3 19.7l1 .2c1.1-6.6 2.1-13.3 3-19.8zm4.9-273.1c-2.8-6-5.8-12-8.8-17.9l-.9.5c3 5.9 6 11.9 8.8 17.8l.9-.4zm-1.7 238.3l-1-.1c-.4 6.6-.9 13.3-1.5 19.8l1 .1c.6-6.5 1.1-13.2 1.5-19.8zm.7-24.9v-1h-1v1c0 6.6-.1 13.3-.4 19.9h1c.2-6.6.4-13.3.4-19.9zm-13.3-239.6c.8 1.5 1.6 2.9 2.3 4.4l.9-.5c-.8-1.5-1.6-2.9-2.3-4.4l-.9.5zm5.5 323.9l-1-.2c-1.2 6.5-2.6 13-4.1 19.5l1 .2c1.5-6.5 2.9-13 4.1-19.5zm-3.1-179.1c1.4 6.4 2.6 13 3.7 19.6l1-.2c-1.1-6.5-2.3-13.1-3.7-19.6l-1 .2zm6-224.2c-3.8-5.4-7.8-10.8-11.8-16.1l-.8.6c4 5.3 8 10.7 11.8 16.1l.8-.6zm1.8 540.9l-.9-.4c-.7 1.5-1.5 3-2.2 4.5l.9.4c.7-1.5 1.4-3 2.2-4.5zM574.7 11.2c3.2-3.7 6.4-7.5 9.7-11.2H583c-3.1 3.5-6.2 7-9.1 10.5l.8.7zm-54.1 77.6c.8-1.4 1.6-2.9 2.5-4.3l-.9-.5c-.8 1.4-1.7 2.9-2.5 4.3l.9.5zm817.9-85.5l.8-.7c-.8-.9-1.5-1.7-2.3-2.6h-1.3c.9 1.1 1.9 2.2 2.8 3.3zm87.8 34.9c-3.6-5.6-7.3-11.2-11.1-16.6l-.8.6c3.8 5.4 7.5 11 11.1 16.6l.8-.6zM519.1 218.9c1.7-6.4 3.6-12.8 5.5-19.1l-1-.3c-2 6.3-3.8 12.8-5.5 19.2l1 .2zm909-73c-2.5-6.1-5.1-12.3-7.9-18.3l-.9.4c2.7 6 5.4 12.2 7.9 18.2l.9-.3zm.9 5c.6 1.5 1.2 3.1 1.8 4.6l.9-.4c-.6-1.6-1.2-3.1-1.8-4.7l-.9.5zM455.6 307l1 .1c.4-6.6.9-13.3 1.5-19.9l-1-.1c-.6 6.5-1.2 13.2-1.5 19.9zm978.2 205.5l-.9-.3c-2.3 6.2-4.8 12.5-7.3 18.6l.9.4c2.5-6.2 5-12.5 7.3-18.7zm-10.2 22.8c-2.6 6.1-5.4 12.2-8.2 18.2l.9.4c2.9-6 5.6-12.1 8.3-18.2l-1-.4zm51.5 1.2c-2.4 6.2-5 12.4-7.6 18.5l.9.4c2.6-6.1 5.2-12.3 7.6-18.5l-.9-.4zm.8 109.7l-.9-.5c-3.4 5.7-7 11.4-10.6 17l.8.5c3.7-5.6 7.2-11.3 10.7-17zm8.7-132.9l-.9-.3c-2.1 6.3-4.4 12.6-6.7 18.8l.9.4c2.3-6.3 4.6-12.6 6.7-18.9zm3.7 111.2l-.9-.5c-3.2 5.8-6.5 11.7-9.9 17.4l.9.5c3.4-5.7 6.7-11.6 9.9-17.4zm-8.8-479.4c-2.3-6.2-4.7-12.5-7.2-18.6l-.9.4c2.5 6.1 4.9 12.4 7.2 18.6l.9-.4zM454.7 336.5v5.4h1v-5.4c0-4.8.1-9.7.2-14.6h-1c-.1 4.8-.2 9.7-.2 14.6zm1010 24.9h-1c-.3 6.6-.8 13.3-1.4 19.9l1 .1c.6-6.6 1.1-13.3 1.4-20zm-2.2 306l-.8-.6c-.9 1.4-1.8 2.8-2.8 4.2l.8.6c1-1.4 1.9-2.8 2.8-4.2zm-9-221.9l-1-.2c-.4 1.6-.7 3.2-1.1 4.9l1 .2c.4-1.7.8-3.3 1.1-4.9zm8.4-59.3c-.2 1.7-.3 3.3-.5 5l1 .1c.2-1.7.3-3.3.5-5l-1-.1zm.4 182.9l-.9-.4c-2.8 6-5.7 12-8.7 18l.9.5c3-6 6-12.1 8.7-18.1zm50-243.1c0 1.7.1 3.3.1 5h1c0-1.7 0-3.3-.1-5h-1zm-45.2-311.4l.8-.5c-3-4.7-6.1-9.4-9.2-14h-1.2c3.3 4.7 6.5 9.6 9.6 14.5zm46.3 321.9v-.6h-1v.6c0 6.6-.1 13.3-.4 19.9h1c.3-6.5.4-13.3.4-19.9zM520.2 2.1c.5-.7 1.1-1.4 1.7-2.1h-1.3l-1.2 1.5.8.6zm992.7 359.4h-1c-.3 6.6-.7 13.3-1.2 19.9l1 .1c.5-6.7.9-13.4 1.2-20zm-2.7 34.8l-1-.1c-.7 6.6-1.5 13.2-2.5 19.8l1 .1c1-6.5 1.8-13.2 2.5-19.8zm-6 196.9l-.9-.4c-2.8 6-5.8 12-8.8 17.9l.9.5c3-5.9 6-12 8.8-18zm1.8-172.3c-1 6.5-2.1 13.2-3.4 19.7l1 .2c1.2-6.5 2.4-13.1 3.4-19.7l-1-.2zm5.2-34.5l-1-.1c-.1 1.7-.3 3.3-.5 5l1 .1c.2-1.7.4-3.4.5-5zM1466.5 560l-.9-.4c-.7 1.5-1.4 3-2 4.6l.9.4c.6-1.6 1.3-3.1 2-4.6zM463.6 426.1c-1.2-6.5-2.2-13.1-3.1-19.7l-1 .1c.9 6.6 2 13.2 3.1 19.7l1-.1zm-.8 151.5c-.7-1.5-1.4-3-2.2-4.5l-.9.4c.7 1.5 1.4 3 2.2 4.5l.9-.4zm923.6 28.3l.8.5c3.5-5.6 7-11.3 10.4-17.1l-.9-.5c-3.3 5.8-6.8 11.5-10.3 17.1zm-44.5 60c-2.1 2.4-4.1 4.8-6.3 7.1h1.3c1.9-2.1 3.8-4.3 5.7-6.5l-.7-.6zM459.8 401.5c-.8-6.6-1.6-13.2-2.2-19.8l-1 .1c.6 6.6 1.3 13.3 2.2 19.8l1-.1zm188.4 268l-.7.7c1 .9 2 1.9 3 2.8h1.5c-1.2-1.2-2.5-2.4-3.8-3.5zM456.3 312h-1c-.1 1.7-.2 3.3-.2 5h1c0-1.7.1-3.4.2-5zm.3 54.8c-.4-6.6-.7-13.3-.8-19.9h-1c.1 6.6.4 13.4.8 19.9h1zm-3.2-253.5l.9.4c.7-1.5 1.4-3 2-4.6l-.9-.4c-.6 1.5-1.3 3.1-2 4.6zm3.9 263.4c-.1-1.7-.3-3.3-.4-5l-1 .1c.1 1.7.2 3.3.4 5l1-.1zm994 214.9l-.9-.5c-3.1 5.9-6.3 11.8-9.5 17.6l.9.5c3.2-5.8 6.4-11.7 9.5-17.6zm-7.4-112.6c-1.9 6.3-3.9 12.7-6 19l.9.3c2.1-6.3 4.1-12.7 6-19l-.9-.3zm-43.2-24.4c-1.7 6.4-3.6 12.8-5.6 19.1l1 .3c2-6.3 3.9-12.7 5.6-19.1l-1-.3zm54.7-218c-1.3-6.5-2.8-13.1-4.3-19.5l-1 .2c1.6 6.4 3 13 4.3 19.5l1-.2zm-18.2 266.5l-.9-.3c-.5 1.6-1.1 3.1-1.7 4.7l.9.3c.6-1.6 1.2-3.2 1.7-4.7zm2.1 110.4l-.9-.5c-.8 1.4-1.7 2.9-2.5 4.3l.9.5c.8-1.4 1.6-2.9 2.5-4.3zM458.4 104.6c2.8-6 5.7-12.1 8.7-18l-.9-.5c-3 5.9-6 12-8.7 18l.9.5zm962.4 538.6l-.8-.6c-3.7 5.5-7.5 11-11.4 16.4l.8.6c3.8-5.3 7.7-10.9 11.4-16.4zm19.4-464.5c-2.1-6.3-4.3-12.6-6.6-18.8l-.9.3c2.3 6.2 4.5 12.5 6.6 18.8l.9-.3zm-6 443.4l-.9-.5c-3.4 5.7-7 11.4-10.6 16.9l.8.5c3.6-5.5 7.2-11.2 10.7-16.9zM353.9 102l.9.4c2.4-6.2 4.9-12.4 7.5-18.6l-.9-.4c-2.6 6.1-5.1 12.3-7.5 18.6zm-281 299.9c-.5-6.6-.9-13.4-1.2-20l-1 .1c.3 6.6.7 13.4 1.2 20l1-.1zm.7-140l-1-.1c-.6 6.6-1 13.4-1.4 20l1 .1c.4-6.6.9-13.4 1.4-20zm.9-10l-1-.1c-.2 1.7-.3 3.3-.5 5l1 .1c.2-1.6.3-3.3.5-5zM71 367c-.2-6.6-.4-13.4-.5-20h-1c.1 6.6.2 13.4.5 20h1zm.4 9.9c-.1-1.7-.1-3.3-.2-5h-1c.1 1.7.1 3.3.2 5h1zM68.8 41.1l.9.3c2.1-6.3 4.3-12.7 6.5-19l-.9-.3c-2.2 6.3-4.4 12.7-6.5 19zm3.1 245.8l-1-.1c-.4 6.6-.7 13.4-.9 20h1c.2-6.6.5-13.3.9-19.9zm-2.3 35c-.1 4.8-.1 9.7-.1 14.6v5.5h1v-5.5c0-4.8 0-9.8.1-14.6h-1zm4.4-75l1 .1c.7-6.6 1.4-13.3 2.2-19.9l-1-.1c-.8 6.5-1.6 13.2-2.2 19.9zm-3.1 65h-1c0 1.7-.1 3.3-.1 5h1c0-1.7 0-3.3.1-5zm18.7 209c-1.4-6.5-2.7-13.1-3.9-19.6l-1 .2c1.2 6.5 2.5 13.2 3.9 19.7l1-.3zm151.1 150.3l-.9.4c.2.5.5.9.7 1.4h1.1c-.4-.6-.7-1.2-.9-1.8zM74.6 432c.2 1.7.4 3.3.5 5l1-.1c-.2-1.7-.4-3.3-.5-5l-1 .1zm1496.2 240.2c-.1.3-.3.5-.4.8h1.1c.1-.1.1-.2.2-.3l-.9-.5zm267-191.1c-1.1 6.6-2.2 13.2-3.5 19.7l1 .2c1.2-6.5 2.4-13.2 3.5-19.8l-1-.1zm-47.1 174c-2.3 6-4.7 12-7.1 17.9h1.1c2.4-5.8 4.7-11.7 7-17.6l-1-.3zM84.8 496.3c-.3-1.6-.6-3.3-.9-4.9l-1 .2c.3 1.6.6 3.3.9 4.9l1-.2zm-9.7-69.4c-.7-6.6-1.3-13.3-1.8-19.9l-1 .1c.5 6.6 1.1 13.3 1.8 20l1-.2zm6.6 238.6c-2.3-6.2-4.6-12.6-6.8-18.8l-.9.3c2.2 6.3 4.5 12.6 6.8 18.9l.9-.4zm1.4-179.1c-1.1-6.6-2.2-13.2-3.1-19.8l-1 .1c1 6.6 2 13.2 3.1 19.8l1-.1zm-9.9 155.5c-.5-1.6-1.1-3.2-1.6-4.7l-.9.3c.5 1.6 1.1 3.2 1.6 4.7l.9-.3zm1576.1-195.7l-1-.2c-.3 1.6-.5 3.3-.8 4.9l1 .2c.3-1.6.6-3.3.8-4.9zm4.1-180.3c.2 1.7.3 3.3.5 5l1-.1c-.2-1.7-.3-3.3-.5-5l-1 .1zm-8.1-222.1c2.6 6.1 5.1 12.3 7.6 18.4l.9-.4c-2.4-6.2-5-12.4-7.6-18.5l-.9.5zm14.2 552.7l-.9-.3c-2.3 6.2-4.8 12.5-7.2 18.7l.9.4c2.4-6.2 4.8-12.5 7.2-18.8zM1630.9 12c2.9 5.9 5.7 12 8.5 18.1l.9-.4c-2.7-6-5.6-12.1-8.5-18.1l-.9.4zm14.8 199.5l1-.2c-.3-1.6-.6-3.3-.9-4.9l-1 .2c.3 1.6.6 3.2.9 4.9zm4.6 408.4l-.9-.4c-.6 1.5-1.3 3.1-1.9 4.6l.9.4c.6-1.5 1.3-3 1.9-4.6zm-3.7-403.5c1.1 6.5 2.2 13.2 3.1 19.7l1-.1c-1-6.6-2-13.2-3.1-19.8l-1 .2zm195.9 240.1l-1-.1c-.9 6.6-1.9 13.3-2.9 19.8l1 .2c1-6.7 2-13.3 2.9-19.9zm-210-303.5l1-.3c-.4-1.6-.9-3.2-1.3-4.8l-1 .3c.4 1.6.8 3.2 1.3 4.8zm19.3 268.3c-.8 6.6-1.7 13.2-2.7 19.8l1 .1c1-6.6 1.9-13.3 2.7-19.8l-1-.1zM80.4 197.1l1 .2c.3-1.6.5-3.3.8-4.9l-1-.2c-.3 1.6-.6 3.3-.8 4.9zm2.6-9.7c1.1-6.5 2.3-13.2 3.6-19.7l-1-.2c-1.3 6.5-2.5 13.2-3.6 19.7l1 .2zm47.9-173.7c1.8-4.5 3.6-9.1 5.5-13.7h-1.1c-1.8 4.4-3.6 8.9-5.3 13.3l.9.4zm-51.6 448c-.9-6.6-1.8-13.3-2.6-19.9l-1 .1c.8 6.6 1.6 13.3 2.6 19.9l1-.1zm-2.5-239.8l1 .1c.8-6.6 1.8-13.3 2.8-19.8l-1-.1c-1 6.6-1.9 13.3-2.8 19.8zM1629.5 534c1.9-6.4 3.7-12.9 5.4-19.3l-1-.3c-1.7 6.4-3.5 12.9-5.4 19.3l1 .3zM1575.6 9.5l.9-.5c-1.6-3-3.2-6-4.9-9.1h-1.1c1.7 3.3 3.4 6.4 5.1 9.6zm48.4 114.7c2 6.3 4 12.7 5.8 19.1l1-.3c-1.8-6.4-3.8-12.8-5.8-19.2l-1 .4zM234.3 15.7c2.3-5.3 4.7-10.5 7.2-15.7h-1.1c-2.4 5.1-4.7 10.2-7 15.3l.9.4zM403.1 3.5c.7-1.2 1.4-2.3 2.1-3.5H404l-1.8 3 .9.5zm1498.4 629.4l-1-.3c-2 6.4-4.1 12.8-6.2 19.1l.9.3c2.2-6.3 4.3-12.7 6.3-19.1zm-14-151.5l-1-.2c-1 6.6-2.1 13.2-3.3 19.8l1 .2c1.2-6.6 2.3-13.3 3.3-19.8zm3.5-24.9l-1-.1c-.8 6.6-1.8 13.3-2.7 19.8l1 .1c1-6.5 1.9-13.2 2.7-19.8zm1.2-9.9l-1-.1c-.2 1.7-.4 3.3-.6 5l1 .1c.2-1.7.4-3.4.6-5zm19.2 152.6l-1-.3c-1.8 6.4-3.6 12.9-5.5 19.3l1 .3c1.9-6.4 3.8-12.9 5.5-19.3zm-16.6-177.6l-1-.1c-.6 6.6-1.3 13.3-2 19.9l1 .1c.7-6.5 1.4-13.2 2-19.9zM1651.4 241l-1 .1c.9 6.6 1.7 13.3 2.4 19.8l1-.1c-.7-6.6-1.5-13.3-2.4-19.8zm237.9-30.3l1-.1c-.2-1.7-.4-3.3-.7-5l-1 .1c.2 1.7.4 3.3.7 5zm-9-54.4c1.3 6.5 2.5 13.1 3.6 19.7l1-.2c-1.1-6.6-2.4-13.2-3.6-19.7l-1 .2zm-1.9-9.8c.3 1.6.7 3.3 1 4.9l1-.2c-.3-1.6-.7-3.3-1-4.9l-1 .2zm4.9 359.6l-1-.2c-.3 1.6-.6 3.3-.9 4.9l1 .2c.3-1.6.6-3.3.9-4.9zm1.5-325.1c1.1 6.6 2.1 13.2 3.1 19.8l1-.1c-1-6.6-2-13.2-3.1-19.8l-1 .1zM1628.7 7.6l.9-.4c-1.2-2.4-2.4-4.7-3.6-7.1h-1.1c1.3 2.4 2.5 4.9 3.8 7.5zM27.9 11.8l.9.3c1.4-4 2.9-8.1 4.3-12.2H32c-1.3 4-2.7 8-4.1 11.9zM78 17.7c2.1-5.9 4.3-11.8 6.6-17.7h-1.1c-2.2 5.7-4.4 11.6-6.5 17.3l1 .4zm5.5 652.4l-.9.4c.3.8.6 1.7 1 2.5h1.1c-.5-1-.9-1.9-1.2-2.9zm1758.4-14.3c-2.1 5.7-4.2 11.5-6.4 17.2h1.1c2.1-5.6 4.3-11.3 6.3-16.9l-1-.3zm-5.6-653.4l.9-.4c-.3-.7-.5-1.4-.8-2h-1.1c.4.8.7 1.6 1 2.4zm78.8 85.1l-1 .3c.4 1.6.8 3.2 1.2 4.9l1-.2c-.4-1.7-.8-3.4-1.2-5zm2.7 487.4l-1-.2c-1.6 6.4-3.3 13-5 19.4l1 .3c1.7-6.5 3.4-13 5-19.5zm-4-492.2c-1.7-6.4-3.5-12.9-5.3-19.3l-1 .3c1.8 6.4 3.6 12.9 5.3 19.3l1-.3zM1682.2 5.5c-.8-1.8-1.7-3.7-2.6-5.5h-1.1c.9 2 1.9 4 2.8 6l.9-.5zm216.4 331v-1h-1v1c0 6.6-.1 13.4-.2 20h1c.2-6.6.2-13.3.2-20zm-8.7-120.8c.8 6.6 1.6 13.3 2.3 19.9l1-.1c-.7-6.6-1.5-13.3-2.3-19.9l-1 .1zm-24.6-127.9l-1 .3c.4 1.6.9 3.2 1.3 4.8l1-.3c-.4-1.6-.8-3.2-1.3-4.8zm13 53.6c-1.4-6.5-2.8-13.1-4.4-19.6l-1 .2c1.5 6.5 3 13.1 4.4 19.6l1-.2zm10.8-135c2.2 6.3 4.4 12.6 6.5 19l.9-.3c-2.1-6.3-4.3-12.7-6.5-19l-.9.3zm6.5 254c-.5-6.6-1.1-13.4-1.8-20l-1 .1c.7 6.6 1.3 13.3 1.8 20l1-.1zm-19.2 280.1l-1-.2c-1.4 6.5-3 13-4.5 19.5l1 .2c1.5-6.5 3.1-13 4.5-19.5zm-14.9 58.3l-1-.3c-1.8 6.4-3.8 12.8-5.8 19.2l1 .3c2-6.4 3.9-12.9 5.8-19.2zm6.7-24.2l-1-.3c-1.7 6.4-3.5 12.9-5.3 19.3l1 .3c1.8-6.4 3.6-12.9 5.3-19.3zm-17.2 57.8l-.9-.3c-2.1 6.3-4.3 12.7-6.5 19l.9.3c2.2-6.3 4.4-12.7 6.5-19zM1864 83c-1.8-6.4-3.7-12.9-5.6-19.3l-1 .3c1.9 6.4 3.8 12.8 5.6 19.2l1-.2zm17.5 432.9l-1-.2c-1.3 6.5-2.6 13.1-4 19.6l1 .2c1.4-6.4 2.7-13 4-19.6zm14.8-245.5c-.1-1.7-.2-3.3-.4-5l-1 .1c.1 1.7.2 3.3.4 5l1-.1zm2.3 60.1v-5h-1v5h1zm-54.8 116l-1-.1c-.2 1.7-.4 3.3-.6 5l1 .1c.1-1.7.3-3.3.6-5zm51.9-171c.4 6.7.8 13.4 1.1 20h1c-.3-6.6-.6-13.4-1.1-20h-1zm4-241l-1.5-4.8-1 .3 1.5 4.8 1-.3zm-2.8 266c.3 6.6.4 13.3.5 20h1c-.1-6.7-.3-13.4-.5-20h-1zm-.2 96.1l-1-.1c-.4 6.6-.9 13.4-1.5 20l1 .1c.6-6.6 1.1-13.3 1.5-20zm.6-10l-1-.1c-.1 1.7-.2 3.3-.3 5l1 .1c.1-1.6.2-3.3.3-5zm1-25h-1c-.2 6.6-.4 13.4-.7 20h1c.3-6.6.5-13.4.7-20zM262.4 316.8h1c0-1.7.1-3.3.2-5h-1c-.1 1.7-.2 3.4-.2 5zm11.8 144.3c-1.2-6.5-2.3-13.2-3.3-19.7l-1 .1c1 6.6 2.1 13.2 3.3 19.8l1-.2zm.3 167.7c-2.6-6.1-5.2-12.3-7.6-18.4l-.9.4c2.4 6.1 5 12.4 7.6 18.5l.9-.5zm-6-197.2c.2 1.7.5 3.3.7 5l1-.1c-.2-1.6-.5-3.3-.7-5l-1 .1zm4.9-387.4l.9.4c2.6-6.1 5.3-12.3 8.1-18.3l-.9-.4c-2.8 6-5.5 12.2-8.1 18.3zm2.5 153.4l1 .2c.3-1.6.7-3.3 1-4.9l-1-.2c-.3 1.7-.6 3.3-1 4.9zm-12.1 169.2c-.3-6.6-.5-13.3-.6-20h-1c.1 6.6.3 13.4.6 20h1zm.5 10c-.1-1.7-.2-3.3-.3-5l-1 .1c.1 1.7.2 3.3.3 5l1-.1zm8.1-154.4c1.1-6.5 2.3-13.2 3.5-19.7l-1-.2c-1.3 6.5-2.5 13.2-3.5 19.7l1 .2zm-3.5 204.1c-.8-6.6-1.6-13.3-2.3-19.9l-1 .1c.7 6.6 1.4 13.3 2.3 19.9l1-.1zm-2.8-24.8c-.6-6.6-1.1-13.3-1.6-19.9l-1 .1c.4 6.6 1 13.3 1.6 20l1-.2zm-5.7-324.8l.9.3c2.3-6.2 4.7-12.5 7.2-18.7l-.9-.4c-2.5 6.2-4.9 12.5-7.2 18.8zm-18.7 57.2l1 .3c1.8-6.4 3.7-12.8 5.7-19.2l-1-.3c-2 6.4-3.9 12.8-5.7 19.2zM1602 236.2c-1-6.5-2.1-13.2-3.4-19.7l-1 .2c1.2 6.5 2.4 13.2 3.4 19.7l1-.2zm-85.3 433.6c-.6 1.1-1.3 2.1-1.9 3.2h1.2c.5-.9 1.1-1.8 1.6-2.7l-.9-.5zM255.5 582.6l.9-.3c-.5-1.6-1.1-3.1-1.6-4.7l-.9.3c.5 1.6 1.1 3.1 1.6 4.7zm1322.3-44.3l-1-.3c-2.1 6.3-4.3 12.7-6.5 19l.9.3c2.3-6.3 4.5-12.7 6.6-19zM262.1 336.5v5.4h1v-5.4c0-4.9.1-9.8.2-14.6h-1c-.1 4.8-.2 9.7-.2 14.6zM252 100.6l.9.3c2.1-6.3 4.3-12.7 6.6-19l-.9-.3c-2.2 6.3-4.5 12.6-6.6 19zm17.5-47.1l.9.4c.6-1.5 1.3-3.1 1.9-4.6l-.9-.4c-.6 1.5-1.2 3-1.9 4.6zm-.7 193.6c.8-6.6 1.8-13.2 2.8-19.8l-1-.2c-1 6.6-2 13.2-2.8 19.8l1 .2zm-11.6 340.2c2.2 6.2 4.6 12.6 7 18.8l.9-.4c-2.4-6.2-4.8-12.5-7-18.7l-.9.3zm33.9 77.8l-.9.4c1.2 2.5 2.5 5 3.7 7.5h1.1c-1.2-2.6-2.6-5.3-3.9-7.9zm-2.1-4.5c-2.9-6-5.7-12-8.4-18.1l-.9.4c2.7 6 5.6 12.1 8.5 18.1l.8-.4zm9.1-102.4c2.1 6.3 4.3 12.7 6.6 18.9l.9-.3c-2.3-6.2-4.5-12.6-6.6-18.9l-.9.3zm-4.8-428.5l1 .3c2-6.4 4.1-12.8 6.2-19.1l-.9-.3c-2.3 6.3-4.4 12.8-6.3 19.1zm1.1 413.9c-2-6.3-3.9-12.8-5.7-19.2l-1 .3c1.8 6.4 3.7 12.9 5.7 19.2l1-.3zm-14.2-53.1l-1 .2c.4 1.6.7 3.3 1.1 4.9l1-.2c-.4-1.6-.7-3.3-1.1-4.9zm26.2 91.3c2.3 6.2 4.8 12.5 7.3 18.6l.9-.4c-2.5-6.1-5-12.4-7.3-18.6l-.9.4zm5.7-294.9l1 .1c.1-1.7.3-3.3.4-5l-1-.1c-.1 1.6-.2 3.3-.4 5zm-2.3-204.6l.9.4c.6-1.6 1.2-3.1 1.8-4.7l-.9-.4c-.5 1.6-1.2 3.2-1.8 4.7zm-8.7 23.6l.9.3c2.2-6.3 4.5-12.6 6.9-18.8l-.9-.4c-2.4 6.2-4.7 12.6-6.9 18.9zM289 144.1c-1.8 6.4-3.6 12.9-5.2 19.3l1 .2c1.6-6.4 3.4-12.9 5.2-19.3l-1-.2zM275.1 466l-1 .2c1.2 6.5 2.6 13.1 4 19.6l1-.2c-1.4-6.5-2.7-13.1-4-19.6zm-6.9-213.9l-1-.1c-.2 1.7-.4 3.3-.6 5l1 .1c.2-1.7.4-3.4.6-5zm23.6-117.6c-.5 1.6-1 3.2-1.4 4.8l1 .3c.5-1.6.9-3.2 1.4-4.8l-1-.3zm-16.2 499.3c.7 1.5 1.3 3 2 4.6l.9-.4c-.7-1.5-1.3-3-2-4.6l-.9.4zm-12.9-327h1c.3-6.6.7-13.3 1.1-20l-1-.1c-.4 6.8-.8 13.5-1.1 20.1zm1.5-24.9l1 .1c.5-6.6 1.1-13.3 1.8-19.9l-1-.1c-.7 6.5-1.3 13.2-1.8 19.9zm17.3 218.6c1.6 6.4 3.2 13 5 19.4l1-.3c-1.7-6.4-3.4-12.9-5-19.4l-1 .3zM314 277c.6-6.6 1.3-13.3 2.1-19.9l-1-.1c-.8 6.6-1.5 13.3-2.1 19.9l1 .1zM283.6 21.3l.9.4c2.8-6 5.8-12.1 8.7-18l-.9-.4c-2.9 5.9-5.8 11.9-8.7 18zM278 187.8l1 .2c1.4-6.5 2.9-13 4.5-19.5l-1-.2c-1.6 6.5-3.1 13-4.5 19.5zm1323.8 53.5c1 6.6 1.8 13.2 2.6 19.8l1-.1c-.8-6.6-1.6-13.3-2.6-19.8l-1 .1zm26.3 297.5l-1-.3c-1.9 6.4-4 12.8-6.1 19.1l.9.3c2.2-6.3 4.3-12.7 6.2-19.1zm-11 33.4l-.9-.3c-2.2 6.3-4.6 12.6-7 18.8l.9.4c2.4-6.3 4.7-12.6 7-18.9zm16.7-414.4c1.7 6.4 3.3 12.9 4.8 19.4l1-.2c-1.5-6.5-3.1-13-4.8-19.4l-1 .2zm2.4 494.3l-.9-.4c-2.8 6-5.8 12.1-8.7 18l.9.4c2.9-5.9 5.9-12 8.7-18zm.2-147.3l-1.2 4.8 1 .2c.4-1.6.8-3.2 1.2-4.9l-1-.1zm-23-414l-.9.4c.6 1.6 1.2 3.1 1.7 4.7l.9-.3c-.5-1.6-1.1-3.2-1.7-4.8zm-19.1 537.1l-.9-.4c-2.8 6-5.7 12.1-8.6 18.1l.9.4c2.9-5.9 5.8-12 8.6-18.1zm6.2-181.9l-1-.2c-.3 1.6-.6 3.3-.9 4.9l1 .2c.4-1.6.7-3.2.9-4.9zm7.7 149.7l-.9-.4c-2.5 6.2-5.1 12.4-7.7 18.5l.9.4c2.6-6.1 5.2-12.3 7.7-18.5zm1.1-234.2h-1c-.3 6.6-.6 13.3-1.1 19.9l1 .1c.5-6.6.8-13.4 1.1-20zm47.5-35.7c0 1.7 0 3.3.1 5h1c0-1.7 0-3.3-.1-5h-1zm-.8-25c.3 6.6.6 13.3.7 20h1c-.1-6.7-.4-13.4-.7-20h-1zm1.9 35.7v-.8h-1v.8c0 6.7-.1 13.4-.3 20h1c.2-6.6.3-13.3.3-20zM1584.1 514c-1.8 6.4-3.7 12.8-5.8 19.1l1 .3c2-6.3 4-12.8 5.8-19.2l-1-.2zm70.2-238.1c.6 6.6 1.1 13.3 1.4 19.9l1-.1c-.4-6.6-.9-13.3-1.4-20l-1 .2zm-15.7 224.3c1.6-6.5 3-13 4.4-19.5l-1-.2c-1.4 6.5-2.8 13-4.4 19.5l1 .2zm8.1-44.3c-1.1 6.5-2.4 13.2-3.7 19.6l1 .2c1.3-6.5 2.6-13.1 3.7-19.7l-1-.1zm-.3 173.3l-.9-.4c-2.6 6.1-5.3 12.3-8.1 18.3l.9.4c2.8-6 5.5-12.2 8.1-18.3zm11-267.7h-1c-.2 6.6-.6 13.3-1 20l1 .1c.5-6.7.8-13.4 1-20.1zm-2.6 29.9l1 .1c.1-1.7.3-3.3.4-5l-1-.1c-.2 1.7-.3 3.4-.4 5zM1589 499.8c1.7-6.4 3.2-13 4.7-19.4l-1-.2c-1.5 6.5-3 13-4.7 19.4l1 .2zm20.7-169c0-1.7 0-3.3-.1-5h-1c0 1.7 0 3.3.1 5h1zm-1.2-35c-.4-6.6-.9-13.3-1.5-19.9l-1 .1c.6 6.6 1.1 13.3 1.5 19.9l1-.1zm1.1 25c-.2-6.6-.4-13.4-.8-20l-1 .1c.4 6.6.6 13.3.8 20l1-.1zm2-234.6c-2.4-6.2-4.9-12.4-7.4-18.5l-.9.4c2.5 6.1 5 12.3 7.4 18.5l.9-.4zm41.8 330.2c.8-6.6 1.4-13.3 2-19.9l-1-.1c-.6 6.6-1.2 13.3-2 19.9l1 .1zm-43.7-79.9v-.7h-1v.7c0 6.6-.1 13.4-.3 20h1c.2-6.6.3-13.4.3-20zm-1.9 50l-1-.1c-.1 1.7-.3 3.3-.4 5l1 .1c.2-1.7.3-3.4.4-5zm-.8 9.9l-1-.1c-.6 6.6-1.3 13.3-2.1 19.9l1 .1c.8-6.5 1.5-13.2 2.1-19.9zm-23.6 254.1l-.9-.5c-3 5.9-6.1 11.9-9.3 17.7l.9.5c3.2-5.8 6.3-11.7 9.3-17.7zm22.6-384.6l-1 .1c.2 1.7.4 3.3.5 5l1-.1c-.2-1.7-.4-3.3-.5-5zm-1.7 155.4l-1-.1c-.9 6.6-1.8 13.2-2.9 19.8l1 .2c1-6.7 2-13.3 2.9-19.9zm-21.7-267.8l1-.3c-.5-1.6-.9-3.2-1.4-4.8l-1 .3c.4 1.6.9 3.2 1.4 4.8zm3.9 356c.4-1.6.9-3.2 1.3-4.8l-1-.3c-.4 1.6-.9 3.2-1.3 4.8l1 .3zm-8.6-495.6c3.1 5.9 6.1 11.9 9 17.8l.9-.4c-2.9-5.9-5.9-11.9-9-17.8l-.9.4zm-4.4 111.1c2.2 6.3 4.3 12.7 6.2 19l1-.3c-2-6.3-4.1-12.7-6.2-19l-1 .3zm16.8 57.5c1.6 6.4 3.1 13 4.4 19.5l1-.2c-1.4-6.5-2.9-13.1-4.4-19.5l-1 .2zm3-137.3c2.8 6 5.5 12.1 8.1 18.2l.9-.4c-2.6-6.1-5.3-12.2-8.1-18.2l-.9.4zm2.5 161.6c.3 1.6.7 3.3 1 4.9l1-.2c-.3-1.6-.6-3.3-1-4.9l-1 .2zm-6.7-170.6l2.1 4.5.9-.4-2.1-4.5-.9.4zm-5.1 122.1c1.8 6.4 3.6 12.9 5.2 19.3l1-.2c-1.6-6.4-3.4-12.9-5.2-19.3l-1 .2zm-853.3 46.1c-3.3 5.7-6.4 11.6-9.2 17.5l.9.4c2.8-5.9 5.9-11.8 9.2-17.4l-.9-.5zM816 498l.7-.7c-4.9-4.3-9.6-8.9-14-13.7l-.7.7c4.4 4.8 9.1 9.4 14 13.7zm19.8 14.6c-5.3-3.8-10.5-7.8-15.5-12l-.6.8c5 4.2 10.2 8.3 15.6 12.1l.5-.9zm-32.3 36l-3.9-3-.6.8c1.3 1 2.6 2 4 3l.5-.8zM758.6 260c.6-1.5 1.2-3.1 1.8-4.6l-.9-.4c-.6 1.5-1.2 3.1-1.8 4.6l.9.4zm63.4-19.9c-3.7 5.3-7.2 10.9-10.3 16.7l.9.5c3.1-5.7 6.5-11.3 10.2-16.6l-.8-.6zm-4.3 184.3c-3.4-5.5-6.5-11.3-9.3-17.1l-.9.4c2.8 5.9 5.9 11.7 9.3 17.2l.9-.5zm-39.1 28.3c-3.5-5.5-6.8-11.2-9.8-17l-.9.5c3 5.8 6.3 11.5 9.9 17l.8-.5zm20.7 27.3c-1.1-1.2-2.2-2.4-3.2-3.7l-.8.7c1.1 1.2 2.1 2.5 3.2 3.7l.8-.7zm-16.2-268.1c-3.8 5.3-7.3 10.9-10.6 16.6l.9.5c3.3-5.6 6.8-11.2 10.6-16.5l-.9-.6zm12.6 330.7c-5.1-4.1-10.1-8.4-14.9-12.9l-.7.7c4.8 4.5 9.9 8.8 15 12.9l.6-.7zm36.2-98.5c-4.2-4.9-8.1-10.2-11.6-15.6l-.8.6c3.6 5.4 7.5 10.7 11.7 15.7l.7-.7zm74.4 150.5l-.2 1c1.6.3 3.2.7 4.9 1l.2-1c-1.7-.4-3.3-.7-4.9-1zm-60.6-20.5c-5.9-2.8-11.8-5.9-17.4-9.2l-.5.9c5.7 3.3 11.6 6.4 17.5 9.3l.4-1zm70.1 71c-6.5-.9-13.1-2.1-19.5-3.4l-.2 1c6.4 1.3 13 2.5 19.5 3.4l.2-1zm34.5 3c-6.6-.2-13.2-.6-19.7-1.2l-.1 1c6.5.6 13.2 1 19.8 1.2v-1zm9.8-47v-1h-.1c-6.5 0-13.1-.2-19.6-.7l-.1 1c6.5.5 13.1.7 19.6.7h.2zm-58.6-7.6c-6.4-1.4-12.8-3.2-19-5.1l-.3 1c6.3 1.9 12.7 3.6 19.1 5.1l.2-1zm-43.3 37.7c-6.2-2.1-12.4-4.5-18.5-7.1l-.4.9c6.1 2.5 12.3 4.9 18.6 7.1l.3-.9zm33.3 9.5c-6.4-1.4-12.8-3.1-19.1-4.9l-.3 1c6.3 1.8 12.8 3.5 19.2 5l.2-1.1zm-41.3-64.5l-.4.9c1.5.7 3 1.4 4.5 2l.4-.9c-1.5-.7-3-1.4-4.5-2zm15.1-46.1c-5.8-2.9-11.6-6-17.2-9.4l-.5.9c5.6 3.4 11.4 6.6 17.3 9.5l.4-1zm55.8 18.3c-6.4-1.2-12.8-2.6-19.1-4.4l-.3 1c6.3 1.8 12.8 3.2 19.2 4.4l.2-1zM792 346.5l1-.1c-.1-1.6-.2-3.2-.2-4.9h-1c.1 1.7.1 3.4.2 5zm-.3-9.8h1v-.2c0-6.4.4-12.9 1.1-19.2l-1-.1c-.7 6.4-1.1 12.9-1.1 19.3v.2zm4.5 33.8c-1.3-6.3-2.3-12.8-2.8-19.2l-1 .1c.6 6.5 1.5 13 2.8 19.4l1-.3zm1.2-77.3c-1.7 6.3-3 12.7-3.9 19.2l1 .1c.9-6.4 2.2-12.8 3.9-19.1l-1-.2zm2.3-4.5c.5-1.5.9-3.1 1.5-4.6l-.9-.3c-.5 1.5-1 3.1-1.5 4.7l.9.2zm5.4-103.3c-4.6 4.7-9 9.6-13.1 14.7l.8.6c4.1-5.1 8.5-10 13-14.6l-.7-.7zm-18.3 23.1l3-3.9-.8-.6-3 3.9.8.6zm4.2-75.6c-1.3 1.1-2.5 2.1-3.8 3.2l.7.8c1.2-1.1 2.5-2.1 3.8-3.2l-.7-.8zm-10.6 324.4c3.7 5.4 7.6 10.7 11.7 15.8l.8-.6c-4.1-5-8.1-10.3-11.7-15.7l-.8.5zm22.4-63.4c-2.2-6.1-4.1-12.3-5.6-18.6l-1 .2c1.5 6.3 3.4 12.6 5.6 18.7l1-.3zM783.6 21.6l.5.9c5.7-3.2 11.6-6.3 17.5-9.2l-.4-.9c-6 2.9-11.9 6-17.6 9.2zm-14.3 131.5l.7.7c4.5-4.7 9.3-9.3 14.2-13.7l-.7-.7c-4.8 4.3-9.6 9-14.2 13.7zm-6.9-118.6l.5.8c5.5-3.6 11.2-7.1 16.9-10.4l-.5-.9c-5.7 3.4-11.4 6.9-16.9 10.5zm-6.7 66.6c5-4.3 10.1-8.5 15.3-12.5l-.6-.8c-5.2 4-10.4 8.2-15.4 12.5l.7.8zm-1.6-61l.6.8c1.4-.9 2.7-1.9 4.1-2.8l-.6-.8c-1.3.9-2.7 1.8-4.1 2.8zm41.4 90.5c5.1-4.1 10.4-8 15.8-11.7l-.6-.8c-5.4 3.7-10.8 7.7-15.9 11.8l.7.7zm4.1-61.4l-.5-.9c-1.4.9-2.8 1.7-4.2 2.6l.5.8c1.4-.8 2.8-1.7 4.2-2.5zm23.7 99.6c-5.1 4.1-10 8.6-14.7 13.1l.7.7c4.7-4.6 9.6-9 14.6-13.1l-.6-.7zm-69.5 3.5c4.1-5.1 8.4-10.1 12.9-14.9l-.7-.7c-4.5 4.8-8.8 9.9-12.9 15l.7.6zm51.7 231l.9-.4c-.6-1.5-1.3-3-1.9-4.5l-.9.4c.6 1.5 1.3 3 1.9 4.5zM774.9 85.7c5.3-3.9 10.7-7.7 16.3-11.2l-.5-.8c-5.5 3.6-11 7.4-16.3 11.3l.5.7zm436.5 333.5l-.9-.3c-2 6.2-4.4 12.4-6.9 18.5l.9.4c2.5-6.1 4.8-12.4 6.9-18.6zm-3.5-175.2l-.9.3c2.3 6.1 4.4 12.4 6.2 18.7l1-.3c-1.9-6.2-4-12.5-6.3-18.7zm-6.2-104.4c4.2 5.1 8.2 10.4 12 15.7l.8-.6c-3.8-5.3-7.9-10.6-12-15.8l-.8.7zm5.6 458.4l.7.7c1.2-1.1 2.4-2.3 3.6-3.4l-.7-.7c-1.2 1.1-2.4 2.2-3.6 3.4zm15.8-92.4l-.8-.5c-3.6 5.5-7.3 11-11.2 16.3l.8.6c3.8-5.3 7.6-10.8 11.2-16.4zm-29.3-293.1l-.9.5c.8 1.4 1.5 2.9 2.3 4.4l.9-.5c-.8-1.5-1.6-3-2.3-4.4zm2.2-147.6c1.2 1.1 2.5 2.2 3.7 3.3l.7-.7c-1.2-1.1-2.5-2.2-3.7-3.3l-.7.7zm23 320.6c-.3 1.6-.6 3.2-1 4.8l1 .2c.3-1.6.7-3.2 1-4.9l-1-.1zm-6.1 29c1.9-6.3 3.6-12.7 5.1-19.1l-1-.2c-1.5 6.4-3.2 12.8-5.1 19l1 .3zm2.6-147l-1 .3 1.2 4.8 1-.2c-.4-1.7-.8-3.3-1.2-4.9zm6.9 93.6c-.6 6.5-1.5 13.1-2.5 19.5l1 .2c1.1-6.5 2-13.1 2.6-19.6l-1.1-.1zm-45.6-311.9c5.3 4 10.5 8.1 15.5 12.4l.6-.8c-5-4.3-10.3-8.4-15.5-12.4l-.6.8zM1193 1.5c5.4 3.8 10.8 7.7 16 11.8l.6-.8c-5.2-4-10.6-8-16.1-11.8l-.5.8zm-7.7 119.6c4.5 4.7 9 9.7 13.2 14.7l.8-.6c-4.2-5-8.7-10-13.3-14.8l-.7.7zM975 648.9v-1c-6.6.3-13.2.4-19.8.3v1h4.8c5 0 10.1-.1 15-.3zm190.8-477c4.1 5.1 8 10.4 11.7 15.8l.8-.6c-3.7-5.4-7.7-10.8-11.8-15.9l-.7.7zm-5.7-74.4c5 4.2 10 8.6 14.8 13.2l.7-.7c-4.8-4.5-9.8-9-14.8-13.2l-.7.7zm56.4 61.9c.9 1.4 1.9 2.7 2.8 4.1l.8-.6c-.9-1.4-1.8-2.7-2.8-4.1l-.8.6zm8.1 177.1v-.5h-1v.5c0 6.6-.2 13.2-.7 19.7l1 .1c.4-6.6.7-13.2.7-19.8zm-1.2-10.4c.1 1.6.1 3.3.1 4.9h1c0-1.6-.1-3.3-.1-4.9h-1zm-2.1-24.5c.9 6.5 1.5 13.1 1.9 19.6l1-.1c-.4-6.6-1-13.2-1.9-19.7l-1 .2zm-38.7-184.7l-3.5-3.5-.7.7 3.5 3.5.7-.7zm8.8 91.3c-3.2-5.7-6.6-11.4-10.2-16.9l-.8.5c3.6 5.5 7 11.1 10.2 16.8l.8-.4zM1090 621l-.4-.9c-6 2.7-12.1 5.3-18.2 7.6l.4.9c6.1-2.3 12.2-4.9 18.2-7.6zm50.8-30.6c-5.3 3.8-10.9 7.5-16.4 11l.5.8c5.6-3.5 11.1-7.2 16.5-11l-.6-.8zm32-293.5c-1.2-6.4-2.7-12.9-4.5-19.2l-1 .3c1.8 6.3 3.3 12.7 4.4 19.1l1.1-.2zm-15.5 341.8l-.5-.8c-5.5 3.6-11.2 7.1-16.9 10.4l.5.9c5.7-3.4 11.4-6.9 16.9-10.5zm-82.9-64.7c-5.9 2.8-12 5.5-18 7.9l.4.9c6.1-2.4 12.2-5.1 18.1-7.9l-.5-.9zm-7.3 56.4l-.3-.9c-6.2 2.2-12.5 4.3-18.8 6.2l.3 1c6.3-2 12.6-4.1 18.8-6.3zm-57.5 14.9l-.2-1c-6.5 1-13.1 1.9-19.6 2.5l.1 1c6.5-.6 13.2-1.5 19.7-2.5zm9.2-51.8c-6.4 1.5-12.9 2.7-19.4 3.6l.1 1c6.5-1 13-2.2 19.4-3.7l-.1-.9zm15.1 46.9l-.2-1c-6.4 1.5-12.9 2.9-19.4 4l.2 1c6.4-1.1 13-2.4 19.4-4zm102.2 11.1l-.5-.9c-5.7 3.2-11.6 6.3-17.5 9.2l.4.9c5.9-2.8 11.9-5.9 17.6-9.2zm49.4-99.8c-4.5 4.7-9.3 9.4-14.1 13.9l.7.7c4.8-4.5 9.6-9.2 14.1-13.9l-.7-.7zm0 66.6l-.6-.8c-5.1 4.1-10.5 8.1-15.8 12l.6.8c5.3-3.9 10.6-7.9 15.8-12zm.3-145.7c-3.4 5.6-7 11.1-10.8 16.5l.8.6c3.8-5.4 7.5-10.9 10.9-16.5l-.9-.6zm-14.9-87.3l-1-.2-1.2 4.8 1 .2 1.2-4.8zm3.1-24.3c-.7 6.5-1.8 13-3.1 19.4l1 .2c1.3-6.4 2.4-12.9 3.1-19.4l-1-.2zm2.4-24.5v-.4h-1v.4c0 6.5-.3 13.1-.9 19.6l1 .1c.6-6.5.9-13.1.9-19.7zm-3.7-34.6c1 6.4 1.8 13 2.2 19.5l1-.1c-.5-6.5-1.2-13.1-2.3-19.6l-.9.2zm-2.8 195.7c1-1.3 2-2.6 3-4l-.8-.6-3 3.9.8.7zm5.3-171.3c.1 1.6.1 3.3.2 4.9h1c0-1.6-.1-3.3-.2-4.9h-1zM1033 33.4c6.4 1.5 12.8 3.3 19.1 5.2l.3-1c-6.3-1.9-12.7-3.7-19.1-5.2l-.3 1zM931.1 501.3c-6.4-1.1-12.7-2.6-18.9-4.5l-.3 1c6.2 1.9 12.6 3.4 19 4.5l.2-1zm-60.2-85.8c-4.2-4.8-8.1-9.9-11.5-15.3l-.8.5c3.4 5.4 7.4 10.6 11.6 15.4l.7-.6zm46.9 32.4c-6-2.3-11.8-5-17.3-8.2l-.5.9c5.6 3.2 11.5 6 17.5 8.3l.3-1zm32.7 7.3c-6.4-.5-12.7-1.5-18.9-3l-.2 1c6.2 1.5 12.6 2.6 19.1 3.1v-1.1zM935.9 502l-.1 1c1.6.2 3.2.4 4.9.6l.1-1c-1.7-.1-3.4-.3-4.9-.6zm-48 37.6c-6.1-2.2-12.2-4.7-18.2-7.4l-.4.9c5.9 2.7 12.1 5.2 18.2 7.4l.4-.9zm101.2-38.4c-6.3 1.1-12.8 1.9-19.3 2.2l.1 1c6.5-.4 13-1.1 19.4-2.3l-.2-.9zm-112.7-19.8c-5.6-3.2-11.1-6.8-16.2-10.7l-.6.8c5.2 3.9 10.7 7.5 16.3 10.8l.5-.9zm20-44.2c-5.4-3.4-10.5-7.3-15.3-11.5l-.7.7c4.8 4.3 10 8.2 15.5 11.6l.5-.8zm-15.7 46.6l-.5.9c1.4.8 2.9 1.5 4.3 2.3l.4-.9c-1.3-.8-2.8-1.5-4.2-2.3zm64.7 67.6c-6.5-.4-13.1-1.2-19.5-2.2l-.2 1c6.4 1 13 1.8 19.6 2.2l.1-1zM1088.1 444c-4.2 4.9-8.6 9.7-13.3 14.1l.7.7c4.7-4.5 9.2-9.3 13.4-14.2l-.8-.6zm-5.9-223.2l-.7.7 3.3 3.6.7-.7-3.3-3.6zm18.2 23c-3.6-5.4-7.5-10.7-11.7-15.7l-.8.6c4.2 4.9 8.1 10.2 11.7 15.6l.8-.5zm3.5-69c-1.2-1.1-2.5-2.2-3.7-3.2l-.6.8c1.2 1.1 2.5 2.1 3.7 3.2l.6-.8zM1095 437l-.8-.6-3 3.9.8.6 3-3.9zm-17.3-76.5l-1-.2c-1.3 6.3-3.1 12.5-5.3 18.4l.9.4c2.3-6 4.1-12.3 5.4-18.6zm-34 120.9c-5.6 3.2-11.4 6.2-17.4 8.7l.4.9c6-2.6 11.8-5.5 17.5-8.8l-.5-.8zm36.4-144.9v-.3h-1v.3c0 6.4-.5 12.8-1.5 19.1l1 .2c1-6.4 1.5-12.8 1.5-19.3zm-20.5 192.2l-.5-.9c-5.8 3-11.8 5.8-17.8 8.2l.4.9c6.1-2.4 12.1-5.2 17.9-8.2zm-55.5 19.7l-.2-1c-6.4 1.3-12.9 2.4-19.4 3.1l.1 1c6.6-.7 13.1-1.8 19.5-3.1zm-140.2-284l.8.6c1-1.3 1.9-2.5 3-3.8l-.8-.6c-1 1.3-2 2.5-3 3.8zm6.9-6.8c4.2-4.8 8.9-9.3 13.8-13.3l-.6-.8c-5 4.1-9.7 8.6-13.9 13.4l.7.7zm17.5-16.3c5.1-3.8 10.5-7.3 16.2-10.3l-.5-.9c-5.7 3-11.2 6.5-16.3 10.4l.6.8zm-14.2 177.8l-.7.7c1.1 1.2 2.3 2.3 3.4 3.4l.7-.7c-1.1-1.2-2.3-2.3-3.4-3.4zM872 194.2l-.5-.8c-1.4.9-2.8 1.7-4.1 2.6l.6.8c1.2-.8 2.6-1.7 4-2.6zm235.7 300.5l-.7-.7c-4.8 4.4-9.8 8.7-14.9 12.7l.6.8c5.2-4.1 10.2-8.4 15-12.8zm-196.8-369l.2 1c6.3-1.5 12.8-2.7 19.3-3.6l-.1-1c-6.6.9-13.1 2.1-19.4 3.6zM898 181.1c6-2.4 12.2-4.5 18.4-6.1l-.3-1c-6.3 1.7-12.5 3.8-18.6 6.2l.5.9zm19.6 44.1c6-2.3 12.1-4.1 18.4-5.4l-.2-1c-6.3 1.3-12.5 3.1-18.6 5.4l.4 1zm8.1-53.5c-1.6.3-3.2.7-4.8 1.1l.2 1c1.6-.4 3.2-.7 4.7-1.1l-.1-1zm-69.9-24.9l.5.9c5.7-3.1 11.6-6.1 17.6-8.7l-.4-.9c-6 2.6-11.9 5.5-17.7 8.7zm5.3 121.6c-3.7 5.3-6.9 10.9-9.7 16.7l.9.4c2.7-5.8 6-11.3 9.6-16.6l-.8-.5zM844 518c-1.4-.9-2.7-1.8-4.1-2.7l-.6.8c1.4.9 2.7 1.8 4.1 2.7l.6-.8zm4.6-306.3c4.8-4.3 9.9-8.4 15.2-12.1l-.6-.8c-5.3 3.7-10.5 7.8-15.3 12.2l.7.7zm0 167.1l-.9.4c2.3 6 5.1 11.9 8.3 17.4l.9-.5c-3.2-5.5-6-11.3-8.3-17.3zm-4.3-13.7c-1.5-6.2-2.6-12.5-3.1-18.9l-1 .1c.5 6.4 1.6 12.8 3.1 19.1l1-.3zm12 102.7c-5.1-4-10-8.4-14.5-12.9l-.7.7c4.6 4.6 9.5 9 14.6 13l.6-.8zm-13.1-155l-1-.2-.9 4.8 1 .2c.3-1.7.6-3.3.9-4.8zm2.9 61.8l.9-.3c-.5-1.5-1-3-1.4-4.6l-1 .3c.5 1.6 1 3.1 1.5 4.6zm-1.8-66.5c1.5-6.2 3.6-12.3 6-18.2l-.9-.4c-2.5 5.9-4.6 12.1-6.1 18.4l1 .2zm-4.4 28.4c0 1.6 0 3.3.1 5h1c-.1-1.6-.1-3.3-.1-4.9 0-4.8.3-9.5.8-14.2l-1-.1c-.5 4.6-.8 9.4-.8 14.2zM984.2 74c6.5.6 13.1 1.4 19.5 2.5l.2-1c-6.5-1.1-13.1-1.9-19.6-2.5l-.1 1zm-29.5-2c-1.6 0-3.3.1-4.9.1v1c1.6-.1 3.3-.1 4.9-.1v-1zm19.6-46.9c6.6.3 13.2.8 19.7 1.5l.1-1c-6.5-.7-13.2-1.2-19.8-1.5v1zM915 27l.1 1c6.5-.9 13.1-1.7 19.6-2.2l-.1-1c-6.4.5-13.1 1.3-19.6 2.2zm10.2 48.2c6.5-.9 13.1-1.5 19.6-1.8l-.1-1c-6.6.4-13.2 1-19.7 1.9l.2.9zm14.5-50.8l.1 1c6.5-.4 13.2-.6 19.8-.6v-1c-6.7 0-13.4.2-19.9.6zm5.3 97.2c6.5-.4 13.1-.6 19.6-.5v-1c-6.5-.1-13.2 0-19.7.5l.1 1zM809.5 261.2c-2.9 5.8-5.5 11.9-7.7 18l.9.3c2.2-6.1 4.8-12.1 7.7-17.9l-.9-.4zm347-226.2c5.5 3.6 11 7.4 16.3 11.3l.6-.8c-5.3-3.9-10.8-7.7-16.4-11.3l-.5.8zM1042 86c6.2 2 12.4 4.3 18.5 6.8l.4-.9c-6.1-2.5-12.3-4.8-18.6-6.9l-.3 1zm-43-58.8c6.5.8 13.1 1.8 19.5 3.1l.2-1c-6.5-1.2-13.1-2.3-19.6-3.1l-.1 1zM868 89.5c6.1-2.3 12.4-4.4 18.7-6.2l-.3-1c-6.3 1.8-12.6 3.9-18.8 6.2l.4 1zM1412.2 276c.9 6.5 1.6 13.2 2.2 19.8l1-.1c-.6-6.6-1.3-13.3-2.2-19.8l-1 .1zM835.6 160.6c5.3-3.8 10.9-7.3 16.5-10.6l-.5-.9c-5.7 3.3-11.2 6.9-16.6 10.6l.6.9zM825.2 54.3l.4.9c5.9-2.8 12-5.5 18.1-8l-.4-.9c-6.1 2.4-12.2 5.1-18.1 8zm62.4 79.3c6.1-2.2 12.4-4.1 18.7-5.7l-.2-1c-6.3 1.6-12.7 3.6-18.8 5.8l.3.9zm-72.2-17.5c5.5-3.6 11.1-7 16.9-10.2l-.5-.9c-5.7 3.2-11.4 6.6-16.9 10.2l.5.9zM896 79.7l-4.8 1.2.3 1 4.8-1.2-.3-1zm-38.7-38.6l.3.9c6.2-2.2 12.5-4.1 18.9-5.9l-.3-1c-6.3 1.8-12.7 3.8-18.9 6zm23.7-7.2l.3 1c6.3-1.7 12.8-3.1 19.3-4.4l-.2-1c-6.5 1.2-13 2.7-19.4 4.4zm194.8 12c-6.1-2.4-12.4-4.7-18.7-6.8l-.3 1c6.2 2 12.5 4.3 18.6 6.7l.4-.9zm20 64.6c5.6 3.4 11.2 7 16.5 10.8l.6-.8c-5.4-3.8-10.9-7.4-16.6-10.8l-.5.8zm34.4 358.1c-4 5.1-8.3 10.2-12.7 14.9l.7.7c4.5-4.8 8.8-9.8 12.8-15l-.8-.6zm-5.3 74.8l-.6-.8c-5.1 4.1-10.4 8-15.8 11.7l.6.8c5.3-3.7 10.7-7.6 15.8-11.7zm-4.6-158.9c-.5 1.6-1 3.1-1.5 4.6l.9.3c.5-1.5 1-3.1 1.5-4.7l-.9-.2zm7.7-58.2l-1 .1c.1 1.6.2 3.3.2 4.9h1c-.1-1.7-.1-3.4-.2-5zm-.9 29.7c.7-6.4 1.1-13 1.1-19.5v-.4h-1v.4c0 6.5-.4 13-1.1 19.4l1 .1zm-12.7-86.5l-.9.4c.6 1.5 1.3 3 1.9 4.5l.9-.4c-.6-1.5-1.3-3-1.9-4.5zm-4 142.5c2.9-5.8 5.5-11.9 7.8-18l-.9-.3c-2.2 6.1-4.8 12.1-7.7 17.9l.8.4zm2-146.9c-2.8-5.9-5.9-11.7-9.3-17.2l-.8.5c3.4 5.5 6.5 11.2 9.3 17.1l.8-.4zm20.1 272l-.7-.8c-1.2 1.1-2.5 2.1-3.8 3.2l.6.8c1.4-1.1 2.7-2.2 3.9-3.2zm-21.2-45.8c1.2-1.1 2.3-2.3 3.5-3.5l-.7-.7c-1.1 1.2-2.3 2.3-3.5 3.5l.7.7zm-47.8-286.2c5.1 4 10 8.3 14.5 12.9l.7-.7c-4.6-4.6-9.5-9-14.6-13l-.6.8zm10.9 98c1.8 6.1 3.1 12.4 3.9 18.8l1-.1c-.8-6.4-2.1-12.8-3.9-18.9l-1 .2zm4.3 23.6l.3 4.8h1l-.3-4.8h-1zm47.9-5.2l1-.1c-.6-6.5-1.5-13-2.9-19.4l-1 .2c1.4 6.4 2.3 12.9 2.9 19.3zm-67.7-176.4c5.8 3 11.5 6.3 17 9.8l.5-.8c-5.5-3.5-11.3-6.8-17.1-9.8l-.4.8zm6.2-50.4c1.5.7 3 1.3 4.5 2l.4-.9c-1.5-.7-3-1.4-4.5-2l-.4.9zm57.5 285.3c1.7-6.3 3-12.7 3.9-19.2l-1-.1c-.9 6.4-2.2 12.8-3.9 19l1 .3zm-5.5-101.1c2.2 6.1 4.1 12.3 5.6 18.6l1-.2c-1.5-6.3-3.4-12.6-5.6-18.7l-1 .3zm-37.2-121.4c5.4 3.6 10.7 7.6 15.8 11.7l.6-.8c-5.1-4.1-10.4-8.1-15.8-11.7l-.6.8zm27.4 258.4c-3.1 5.7-6.5 11.2-10.2 16.5l.8.6c3.7-5.3 7.2-10.9 10.3-16.6l-.9-.5zM840.5 100.4c-1.5.7-2.9 1.5-4.4 2.3l.5.9c1.4-.8 2.9-1.5 4.4-2.3l-.5-.9zM553.9 376.5c-.2-1.6-.3-3.3-.5-4.9l-1 .1c.1 1.7.3 3.3.5 5l1-.2zm-2.9-40v5.3h1v-5.3c0-4.8.1-9.7.3-14.5h-1c-.2 4.8-.3 9.7-.3 14.5zm2.1 30.1c-.5-6.6-.8-13.3-1-19.8h-1c.2 6.6.5 13.3 1 19.9l1-.1zm8.6 59c-1.4-6.4-2.7-13-3.8-19.5l-1 .2c1.1 6.5 2.4 13.1 3.9 19.5l.9-.2zm-4.6-24.4c-1-6.5-1.9-13.1-2.6-19.7l-1 .1c.7 6.6 1.6 13.2 2.7 19.7l.9-.1zm2.5-143.3c.3-1.6.6-3.3 1-4.9l-1-.2c-.3 1.6-.7 3.3-1 4.9l1 .2zm5.8-29.3c-1.7 6.4-3.3 12.9-4.8 19.3l1 .2c1.4-6.4 3-12.9 4.8-19.3l-1-.2zm-2.3 206.9l1-.2-1.2-4.8-1 .2c.4 1.5.8 3.2 1.2 4.8zM551.5 317h1c.1-1.7.2-3.3.3-5l-1-.1c-.2 1.7-.3 3.4-.3 5.1zm3.4-29.7l-1-.1c-.8 6.6-1.4 13.2-1.9 19.8l1 .1c.5-6.6 1.1-13.3 1.9-19.8zM538 58.5l.8.6c3.6-5.5 7.5-11 11.3-16.4l-.8-.6c-3.8 5.3-7.6 10.8-11.3 16.4zM553.1 543c-3-5.9-5.9-11.9-8.6-17.9l-.9.4c2.7 6 5.6 12 8.6 17.9l.9-.4zm-8.6 79.4c-3.7-5.4-7.4-11-11-16.6l-.8.5c3.5 5.6 7.2 11.2 11 16.6l.8-.5zm20.5-57.6c-3.3-5.7-6.5-11.6-9.6-17.4l-.9.5c3.1 5.9 6.3 11.7 9.6 17.4l.9-.5zm-5.9 77.7c-4-5.3-8-10.7-11.8-16l-.8.6c3.8 5.4 7.8 10.8 11.8 16.1l.8-.7zm38-584.1l.8.6c4-5.2 8.2-10.5 12.5-15.5l-.8-.6c-4.3 5-8.5 10.3-12.5 15.5zM562.3 113l-.9-.5c-.8 1.5-1.6 2.9-2.4 4.4l.9.5c.7-1.5 1.5-2.9 2.4-4.4zm-24 49.3c2.5-6.1 5.2-12.3 8-18.3l-.9-.4c-2.8 6-5.5 12.2-8 18.3l.9.4zm20-132.3l.8.6c4-5.3 8.2-10.5 12.4-15.6l-.8-.6c-4.2 5.1-8.4 10.3-12.4 15.6zm-3.7 252.2l1 .1c.9-6.5 1.9-13.1 3.1-19.6l-1-.2c-1.2 6.6-2.3 13.2-3.1 19.7zm9.3-174l.9.5c3.3-5.7 6.8-11.4 10.3-17l-.8-.5c-3.6 5.5-7.1 11.3-10.4 17zm15 374.4c-2.4-6.2-4.6-12.5-6.7-18.7l-1 .3c2.1 6.3 4.3 12.6 6.7 18.8l1-.4zm22.9-190.4c-.8 6.5-1.4 13.2-1.9 19.8l1 .1c.4-6.6 1.1-13.2 1.9-19.7l-1-.2zm2.4-9.7l-1-.1c-.2 1.6-.5 3.3-.7 4.9l1 .1c.2-1.6.4-3.2.7-4.9zm4.5-24.3l-1-.2c-1.4 6.4-2.7 13-3.8 19.5l1 .2c1.1-6.6 2.4-13.1 3.8-19.5zm5.2-24.3c-1.9 6.3-3.6 12.8-5.1 19.2l1 .2c1.5-6.4 3.2-12.8 5.1-19.2l-1-.2zm5.7 219.7c-2.1-6.2-4.1-12.6-5.9-18.9l-1 .3c1.8 6.3 3.8 12.7 5.9 19l1-.4zm-7.2-23.6c-1.7-6.3-3.3-12.8-4.6-19.3l-1 .2c1.4 6.5 2.9 13 4.6 19.3l1-.2zm-10.6-58.5c-.6-6.5-1.1-13.2-1.4-19.8h-1c.3 6.6.7 13.3 1.4 19.8h1zm-.2-230.1l-.9-.5c-.8 1.5-1.6 2.9-2.4 4.4l.9.5c.8-1.5 1.6-3 2.4-4.4zm-1.5 195.5v-.4c0-6.5.2-13 .5-19.5l-1-.1c-.3 6.5-.5 13-.5 19.5v.4h1zm.2 9.9c0-1.6-.1-3.3-.1-5h-1c0 1.7.1 3.3.1 5h1zm-35 303.6c-1-1.3-2.1-2.6-3.1-3.9l-.8.6c1 1.3 2.1 2.6 3.1 3.9l.8-.6zm12.5-562.9c3.6-5.5 7.4-11.1 11.2-16.4l-.8-.6c-3.9 5.4-7.6 10.9-11.3 16.5l.9.5zm-3.5 112.6l.9.3c.6-1.6 1.1-3.1 1.7-4.7l-.9-.3c-.6 1.5-1.1 3.1-1.7 4.7zm-1.6 4.7c-2.1 6.3-4.1 12.7-5.9 19l1 .3c1.8-6.3 3.8-12.7 5.9-19l-1-.3zm21.4-142.4c-1 1.3-2 2.7-3 4l.8.6c1-1.3 2-2.7 3-4l-.8-.6zm-5.8 105.7c2.7-6 5.6-12 8.7-17.9l-.9-.5c-3 5.9-6 11.9-8.7 18l.9.4zm47.3 10.1c-2.9 5.9-5.7 12-8.2 18.1l.9.4c2.6-6.1 5.3-12.2 8.2-18.1l-.9-.4zM625.5 201c-2.5 6.1-4.8 12.4-7 18.7l.9.3c2.1-6.2 4.5-12.5 7-18.6l-.9-.4zm4.1-180.4l.7.7c1.1-1.2 2.3-2.4 3.5-3.6l-.8-.7c-1.1 1.2-2.3 2.4-3.4 3.6zm1.3 74.6c1-1.3 2-2.7 3-4l-.8-.6c-1 1.3-2 2.7-3 4l.8.6zM541.6 521l.9-.4c-.7-1.5-1.3-3-2-4.5l-.9.4c.7 1.4 1.3 2.9 2 4.5zm801.3-43.3c-2.3 6.2-4.8 12.4-7.3 18.5l.9.4c2.6-6.1 5.1-12.3 7.4-18.5l-1-.4zM1379 619l-.8-.6c-3.7 5.5-7.6 11-11.5 16.3l.8.6c3.9-5.3 7.8-10.8 11.5-16.3zm-32-415.2c-2.1-6.2-4.5-12.5-6.9-18.7l-.9.4c2.4 6.1 4.8 12.4 6.9 18.6l.9-.3zm24.3 330.1c-2.9 6-5.9 11.9-9 17.8l.9.5c3.1-5.8 6.2-11.8 9-17.8l-.9-.5zm-6.8 105.4l-.8-.6c-4 5.3-8.1 10.6-12.3 15.7l.8.6c4.2-5.1 8.4-10.4 12.3-15.7zm-12.7-185l-1-.3c-1.9 6.3-4 12.7-6.2 18.9l.9.3c2.3-6.1 4.4-12.5 6.3-18.9zm-781.1 4.8c-2-6.3-3.8-12.7-5.5-19.1l-1 .3c1.7 6.4 3.5 12.8 5.5 19.1l1-.3zm88.8 153.4c-4.5-4.9-8.9-9.9-13.1-14.9l-.8.6c4.2 5.1 8.6 10.1 13.1 15l.8-.7zm-11.1-95.9c-.8-1.4-1.6-2.9-2.4-4.3l-.9.5c.8 1.4 1.6 2.9 2.5 4.3l.8-.5zm634 142.6c-4.7 4.7-9.5 9.3-14.4 13.8l.1.1h1.4c4.6-4.3 9.2-8.7 13.7-13.1l-.8-.8zm-555.7 12l-.6.8c.4.3.9.6 1.4.9h1.8c-.9-.5-1.8-1.1-2.6-1.7zm670.6-468.3c-1.9-6.3-4-12.7-6.2-18.9l-.9.3c2.2 6.2 4.3 12.6 6.2 18.9l.9-.3zm-2.7 275.8l-1-.3c-2.1 6.3-4.3 12.6-6.6 18.8l.9.4c2.4-6.2 4.6-12.6 6.7-18.9zm20.2-178c.5 6.6.9 13.3 1.1 19.9h1c-.2-6.6-.6-13.3-1.1-19.9h-1zm-33.3 210.5c-2.5 6.1-5.2 12.3-8 18.2l.9.4c2.8-6 5.5-12.2 8.1-18.3l-1-.3zm7.9-332c-2.3-6.2-4.7-12.4-7.2-18.5l-.9.4c2.5 6.1 5 12.3 7.2 18.5l.9-.4zm27.7 151.3c0-1.7-.1-3.3-.1-5h-1c0 1.7.1 3.3.1 5h1zm-31.9 171.4c-.6 1.6-1.2 3.1-1.8 4.6l.9.4c.6-1.5 1.2-3.1 1.8-4.7l-.9-.3zm4.5-431.3c-3.5-5.6-7.1-11.2-10.8-16.7l-.8.6c3.7 5.5 7.3 11.1 10.8 16.7l.8-.6zm-10.4 85.9l.9-.4c-.7-1.5-1.3-3-2-4.6l-.9.4c.7 1.6 1.3 3.1 2 4.6zm5.2 454.1l-.8-.5-2.7 4.2.8.6c.9-1.5 1.8-2.9 2.7-4.3zm-42.5-24.7c-3.6 5.5-7.4 11-11.3 16.4l.8.6c3.9-5.4 7.7-10.9 11.3-16.5l-.8-.5zM585.3 172.2c-2.7 6.1-5.2 12.3-7.6 18.5l.9.4c2.4-6.2 4.9-12.4 7.6-18.4l-.9-.5zm12.8 442.1c-4-5.2-8-10.6-11.8-16l-.8.6c3.8 5.4 7.8 10.8 11.8 16.1l.8-.7zm-5.4-99.9c-2.9-5.9-5.6-12-8.2-18l-.9.4c2.6 6.1 5.4 12.2 8.2 18.1l.9-.5zm11.6 107.7c-1-1.3-2.1-2.6-3.1-3.9l-.8.6c1 1.3 2.1 2.6 3.1 3.9l.8-.6zm-2-245.7l-1 .1c.7 6.6 1.6 13.2 2.7 19.7l1-.2c-1-6.4-1.9-13-2.7-19.6zm1.9 160c-3.2-5.7-6.4-11.6-9.3-17.5l-.9.4c3 5.9 6.1 11.8 9.3 17.6l.9-.5zm-34.1 36.9c-.9-1.4-1.7-2.8-2.6-4.3l-.9.5c.8 1.4 1.7 2.8 2.6 4.3l.9-.5zm11.1 96.1c-4.4-5-8.7-10.1-12.9-15.2l-.8.6c4.2 5.1 8.5 10.3 12.9 15.2l.8-.6zm-.5-182.2l-.9.4c.6 1.5 1.2 3.1 1.9 4.6l.9-.4c-.6-1.5-1.3-3.1-1.9-4.6zm2.8 107c-3.7-5.4-7.4-11-10.9-16.6l-.8.5c3.5 5.6 7.2 11.2 10.9 16.7l.8-.6zm23.3-188.4c-.3-1.6-.6-3.2-.9-4.9l-1 .2c.3 1.6.6 3.3.9 4.9l1-.2zm36.5 187.9c-1-1.3-2.1-2.6-3.1-3.9l-.8.6c1 1.3 2.1 2.6 3.1 3.9l.8-.6zm-5.8 65.4c-4.7-4.7-9.3-9.5-13.8-14.4l-.7.7c4.5 4.9 9.1 9.7 13.8 14.4l.7-.7zm6-151.1c-3.1-5.8-6.1-11.7-9-17.7l-.9.4c2.8 6 5.8 11.9 9 17.7l.9-.4zm1.1 158c-1.2-1.1-2.4-2.3-3.6-3.5l-.7.7c1.2 1.2 2.4 2.3 3.6 3.5l.7-.7zm-22.1-100.1c-3.7-5.4-7.3-11-10.8-16.7l-.9.5c3.4 5.6 7.1 11.3 10.8 16.7l.9-.5zm-2.1 75.1c-4.4-4.9-8.8-10-13-15.1l-.8.6c4.2 5.1 8.6 10.2 13 15.1l.8-.6zm.9-182.7l-.9.3c.6 1.6 1.1 3.1 1.7 4.7l.9-.4c-.6-1.5-1.2-3-1.7-4.6zm-12.1 86.6c-.8-1.4-1.7-2.8-2.5-4.3l-.9.5c.8 1.4 1.7 2.9 2.5 4.3l.9-.5zm43.2-397.2c-3.5 5.6-6.8 11.4-10 17.2l.9.5c3.1-5.8 6.5-11.6 9.9-17.2l-.8-.5zM1090.4 1l.4-.9h-2.9c.7.2 1.6.5 2.5.9zm173.5 528.3c-3.5 5.6-7.3 11.1-11.1 16.4l.8.6c3.8-5.4 7.6-10.9 11.1-16.5l-.8-.5zM604 137c3.2-5.7 6.6-11.5 10.2-17.1l-.8-.5c-3.5 5.6-6.9 11.4-10.2 17.1l.8.5zm667.7 224.3l-1-.1c-.5 6.5-1.2 13.2-2.2 19.7l1 .1c1-6.5 1.7-13.2 2.2-19.7zm-5.6 34.2c-1.2 6.4-2.7 12.9-4.3 19.3l1 .3c1.6-6.4 3.1-12.9 4.4-19.4l-1.1-.2zm-15.4 154.8l-.8-.6c-1 1.3-2 2.7-3 4l.8.6c1-1.3 2-2.6 3-4zm18.1-164.4l-1-.2c-.3 1.6-.5 3.3-.8 4.9l1 .2c.3-1.6.6-3.3.8-4.9zM1233.1 184c-3.2-5.7-6.6-11.4-10.2-17l-.8.5c3.6 5.5 7 11.2 10.2 16.9l.8-.4zm7.1 291.4l-.9-.4c-2.9 5.9-6.1 11.8-9.4 17.4l.9.5c3.3-5.7 6.5-11.6 9.4-17.5zm7.1 152.2l-.7-.7c-4.7 4.6-9.6 9.2-14.5 13.6l.7.7c4.9-4.4 9.8-9 14.5-13.6zm-18.2 16.9l-.7-.8c-1.2 1.1-2.5 2.2-3.8 3.2l.6.8c1.4-1 2.6-2.1 3.9-3.2zm15.6-86.2l-.8-.6c-4 5.2-8.3 10.3-12.6 15.3l.8.7c4.3-5.1 8.5-10.3 12.6-15.4zm-594.2-177c.9 6.5 2.1 13.1 3.4 19.5l1-.2c-1.3-6.4-2.5-13-3.4-19.5l-1 .2zm2.4-98.6c1.1-6.5 2.5-13 4-19.4l-1-.2c-1.5 6.4-2.9 12.9-4 19.4l1 .2zm-5 34.3l1 .1c.1-1.6.2-3.3.3-4.9l-1-.1c-.1 1.6-.2 3.3-.3 4.9zM667 127.6l-.8-.6c-3.8 5.4-7.6 10.9-11.1 16.5l.8.5c3.5-5.5 7.2-11.1 11.1-16.4zm605.7 208.9v-.6h-1v.6c0 6.6-.2 13.2-.6 19.8l1 .1c.4-6.6.6-13.3.6-19.9zm-624-29.4l1 .1c.6-6.5 1.4-13.1 2.5-19.6l-1-.2c-1.1 6.5-1.9 13.1-2.5 19.7zm626.1-147.2c-.8-1.4-1.6-2.9-2.5-4.3l-.9.5c.8 1.4 1.6 2.9 2.5 4.3l.9-.5zM1126.5 17.4c5.8 3.1 11.7 6.3 17.3 9.7l.5-.9c-5.7-3.4-11.5-6.6-17.4-9.7l-.4.9zM666.1 53.5l-.7-.7c-4.6 4.8-9.1 9.7-13.5 14.7l.8.7c4.3-5.1 8.8-10 13.4-14.7zm56.3-48.7l6.9-4.8h-1.8c-1.9 1.3-3.8 2.7-5.7 4l.6.8zm481.2 596.5c-4.8 4.5-9.9 8.8-14.9 13l.6.8c5.1-4.2 10.1-8.6 15-13.1l-.7-.7zm-440.4 36.5c-5.5-3.6-11-7.4-16.3-11.3l-.6.8c5.3 3.9 10.8 7.7 16.3 11.3l.6-.8zm-18.5-526.7l-.7-.7c-4.8 4.5-9.4 9.3-13.9 14.2l.7.7c4.5-4.9 9.2-9.7 13.9-14.2zm11.2 461c-5-4.3-9.8-8.8-14.5-13.4l-.7.7c4.7 4.6 9.6 9.2 14.6 13.5l.6-.8zm37.3 83.3c-5.8-3.1-11.7-6.3-17.3-9.7l-.5.9c5.7 3.4 11.5 6.7 17.4 9.7l.4-.9zm-16.7-128.3l.7-.7c-4.7-4.5-9.3-9.3-13.7-14.2l-.7.7c4.4 4.8 9 9.6 13.7 14.2zm-16.8 48.2l-.6.8c1.3 1.1 2.5 2.1 3.8 3.2l.6-.8c-1.3-1.1-2.6-2.1-3.8-3.2zm351.5-511.4c5.7 3.2 11.5 6.6 17 10.2l.5-.8c-5.6-3.6-11.3-7-17-10.2l-.5.8zm-7.1-57.2c6 2.6 12.1 5.5 18 8.5l.5-.9c-5.9-3-12-5.8-18-8.5l-.5.9zm-24.1 42c1.5.6 3 1.3 4.6 1.9l.4-.9c-1.5-.7-3-1.3-4.6-2l-.4 1zM815 7c5.6-2.5 11.4-4.9 17.2-7h-2.8c-5 1.9-9.9 4-14.8 6.1l.4.9zM647.3 336.5v5.3h1v-5.3c0-4.8.1-9.7.3-14.5h-1c-.2 4.8-.3 9.7-.3 14.5zM1221.5 651l-.6-.8c-5.1 4.2-10.3 8.4-15.6 12.3l.6.8c5.3-3.9 10.5-8.1 15.6-12.3zm6-154.3c-.9 1.4-1.7 2.8-2.6 4.2l.8.5c.9-1.4 1.7-2.8 2.6-4.2l-.8-.5zm-19.5 28.6c-4 5.2-8.2 10.4-12.5 15.3l.8.7c4.3-5 8.5-10.2 12.5-15.4l-.8-.6zm20 51.4c-4.4 4.9-9 9.7-13.6 14.4l.7.7c4.7-4.7 9.3-9.5 13.7-14.4l-.8-.7zm-123.3 89.4c-5.5 2.4-11.2 4.7-16.9 6.9h2.8c4.9-1.9 9.7-3.9 14.5-6l-.4-.9zM808.5 609l-.5.9c1.4.8 2.9 1.6 4.4 2.4l.5-.9c-1.5-.8-3-1.6-4.4-2.4zm7 57.2c-6-2.6-12.1-5.5-18-8.5l-.5.9c5.9 3 12 5.8 18 8.5l.5-.9zm-11.3-59.7c-5.7-3.3-11.3-6.8-16.8-10.4l-.6.8c5.5 3.7 11.2 7.2 16.9 10.5l.5-.9zm19.8-44.2c-5.6-3.4-11.1-7-16.5-10.8l-.6.8c5.4 3.8 10.9 7.5 16.5 10.8l.6-.8zm440.5 47.3l-.7-.7c-4.4 4.9-9 9.8-13.6 14.5l.7.7c4.6-4.7 9.2-9.6 13.6-14.5zm45.6-189.6c-1.5 6.4-3.2 12.9-5.1 19.2l1 .3c1.9-6.3 3.6-12.8 5.1-19.2l-1-.3zm9 112.5l-.9-.5c-3.2 5.8-6.5 11.6-10 17.2l.9.5c3.5-5.6 6.8-11.4 10-17.2zm3.5 82.5l-.8-.6c-4 5.2-8.2 10.5-12.5 15.5l.8.6c4.2-5.1 8.4-10.3 12.5-15.5zm-15.8 19.3l-.8-.7c-4.3 5-8.8 10-13.3 14.8l.7.7c4.6-4.8 9.1-9.8 13.4-14.8zm19-480.9l-.9.4c.7 1.5 1.5 3 2.2 4.4l.9-.4c-.7-1.5-1.4-2.9-2.2-4.4zm-49.3 354.5c-3.1 5.8-6.5 11.6-9.9 17.2l.9.5c3.5-5.6 6.8-11.4 10-17.2l-1-.5zm10.2 74.8l-.8-.6c-4 5.3-8.1 10.5-12.4 15.6l.8.6c4.2-5.1 8.4-10.4 12.4-15.6zm13.5-20.9c-3.6 5.5-7.5 11-11.4 16.3l.8.6c3.9-5.3 7.8-10.8 11.4-16.3l-.8-.6zm21.3-503.5c4 5.2 8 10.6 11.8 16l.8-.6c-3.8-5.4-7.8-10.8-11.8-16l-.8.6zm-51.2 543.1c-1.1 1.3-2.2 2.5-3.3 3.8l.8.7c1.1-1.2 2.2-2.5 3.3-3.8l-.8-.7zm19.8 51.4l-.7-.7c-1.1 1.2-2.3 2.4-3.5 3.6l.7.7c1.2-1.2 2.3-2.4 3.5-3.6zM627.2 98.7c-3.9 5.4-7.6 10.9-11.2 16.5l.8.5c3.6-5.5 7.3-11.1 11.2-16.4l-.8-.6zm-10.9 130.7c.5-1.6 1-3.2 1.5-4.7l-1-.3-1.5 4.8 1 .2zM1271.4 3.2l.7-.7c-.9-.8-1.8-1.6-2.7-2.5h-1.5c1.2 1.1 2.4 2.1 3.5 3.2zM612.8 39.1l.8.7c4.3-5 8.8-10 13.3-14.8l-.7-.7c-4.6 4.7-9.1 9.7-13.4 14.8zm11.7 531.4c3.8 5.4 7.7 10.8 11.8 16l.8-.6c-4-5.2-8-10.6-11.8-16l-.8.6zm12.7-556.3c4.7-4.7 9.5-9.3 14.4-13.8l-.4-.4h-.7c-4.7 4.4-9.5 8.9-14 13.5l.7.7zM623.8 468c2.4 6.1 5 12.3 7.7 18.3l.9-.4c-2.7-6-5.3-12.1-7.7-18.2l-.9.3zm24.9-396.8c-4.3 5-8.5 10.2-12.6 15.5l.8.6c4-5.2 8.2-10.4 12.5-15.4l-.7-.7zm-10 103c.7-1.5 1.5-3 2.3-4.4l-.9-.5c-.8 1.5-1.5 2.9-2.3 4.4l.9.5zm12.1 202.1c-.2-1.6-.4-3.3-.6-4.9l-1 .1c.2 1.6.4 3.3.6 4.9l1-.1zm33.3 260.8c-1.2-1.1-2.4-2.2-3.6-3.4l-.7.7c1.2 1.1 2.4 2.3 3.6 3.4l.7-.7zM683 479.5c-3-5.8-5.9-11.8-8.5-17.8l-.9.4c2.6 6 5.5 12 8.5 17.9l.9-.5zm-.7 85.8c-1.1-1.3-2.1-2.6-3.1-3.8l-.8.6c1 1.3 2.1 2.6 3.1 3.9l.8-.7zm9.2-389.2c-3.4 5.7-6.6 11.5-9.7 17.4l.9.5c3-5.8 6.2-11.7 9.6-17.3l-.8-.6zm7.2 407.8c-4.5-4.8-9-9.7-13.2-14.8l-.8.6c4.3 5 8.7 10 13.3 14.8l.7-.6zm-11.1-95.7c-.8-1.4-1.6-2.9-2.4-4.3l-.9.5c.8 1.5 1.6 2.9 2.4 4.3l.9-.5zM676.1 631l.7-.7c-4.7-4.6-9.4-9.3-14-14.1l-.7.7c4.6 4.7 9.3 9.5 14 14.1zm-26.4-264.6c-.6-6.5-1-13.2-1.3-19.7h-1c.2 6.6.6 13.3 1.3 19.8l1-.1zm11.8 171.2c-3.7-5.5-7.3-11.1-10.6-16.7l-.9.5c3.4 5.7 7 11.3 10.7 16.8l.8-.6zm2.4-103.5c-.5-1.6-1-3.1-1.5-4.7l-1 .3c.5 1.6 1 3.2 1.5 4.7l1-.3zm39 219.2c-5.1-4.2-10.2-8.5-15.1-12.9l-.7.7c4.9 4.4 10 8.8 15.2 12.9l.6-.7zm23.2-193l.9-.5c-.8-1.4-1.5-2.9-2.3-4.4l-.9.5c.8 1.5 1.6 2.9 2.3 4.4zm11.8 94.9c-4.6-4.7-9.1-9.6-13.4-14.5l-.8.7c4.3 5 8.9 9.9 13.5 14.6l.7-.8zm5 68.3c-5.2-4-10.5-8.1-15.5-12.4l-.6.8c5 4.3 10.3 8.5 15.5 12.4l.6-.8zm86.4 48.4l-.4.9c.2.1.3.1.5.2h2.8c-.9-.4-1.9-.7-2.9-1.1zm372-6.4c-3.5 2.5-7 5-10.6 7.5h1.8c3.2-2.2 6.3-4.4 9.4-6.7l-.6-.8zM940.7 218.9c6.3-1 12.7-1.5 19.1-1.6v-1c-6.5 0-12.9.5-19.3 1.6l.2 1zM722.6 668.4c-5.4-3.8-10.7-7.9-15.9-12l-.6.8c5.2 4.1 10.5 8.1 15.9 12l.6-.8zm-7-66.4l.7-.7c-4.8-4.5-9.6-9.1-14.2-13.8l-.7.7c4.6 4.7 9.4 9.4 14.2 13.8zm8.1 5.9c-1.2-1.1-2.5-2.2-3.7-3.3l-.7.7c1.2 1.1 2.5 2.2 3.7 3.3l.7-.7z" fill="#626e77"/></svg>