<svg version="1.1" xmlns="http://www.w3.org/2000/svg" x="0" y="0" viewBox="0 0 1920 1920" xml:space="preserve"><path d="M0 0h1920v1920H0V0z" fill="#fff"/><path d="M1024 1280v64h-64v-64h64zM704 960h-64v64h64v-64zm384 320v64h64v-64h-64zm256-1152V64h-64v64h64zm384 0V64h-64v64h64zM704 1280v64h64v-64h-64zm576-256h64v-64h-64v64zm-576 64h-64v64h64v-64zm128 192v64h64v-64h-64zm640-1152V64h-64v64h64zm320 128h64v-64h-64v64zm-512 896h64v-64h-64v64zm-64 128v64h64v-64h-64zm384-1152V64h-64v64h64zm-320 768h64v-64h-64v64zm0 384h64v-64h-64v64zm-576-64h-64v64h64v-64zM1856 128V64h-64v64h64zm-640 512v-64h-64v64h64zm192-64v-64h-64v64h64zm-64 128h64v-64h-64v64zm-192-128v-64h-64v64h64zm576 1216v64h64v-64h-64zM1280 576v-64h-64v64h64zm320 1216v64h64v-64h-64zm-256-960h64v-64h-64v64zm448 832h64v-64h-64v64zm-448-320h64v-64h-64v64zm0-128h64v-64h-64v64zm-64 128v64h64v-64h-64zm64-384h64v-64h-64v64zm0 128h64v-64h-64v64zm448 704h64v-64h-64v64zm-704 0v64h64v-64h-64zm384 0v64h64v-64h-64zM576 576h-64v64h64v-64zm0 256h-64v64h64v-64zm640 960v64h64v-64h-64zM576 960h-64v64h64v-64zm0-256h-64v64h64v-64zm448-128v-64h-64v64h64zm-128 0v-64h-64v64h64zm-256 0v-64h-64v64h64zm128 0v-64h-64v64h64zm576 1216v64h64v-64h-64zm448-384h64v-64h-64v64zM704 640v-64h-64v64h64zm-64 0h-64v64h64v-64zm0 256h-64v64h64v-64zm192-256v-64h-64v64h64zm960 256h64v-64h-64v64zM640 768h-64v64h64v-64zm1152 0h64v-64h-64v64zm0-256h64v-64h-64v64zm-448 128v-64h-64v64h64zm-64 128h64v-64h-64v64zM960 640v-64h-64v64h64zm128 0v-64h-64v64h64zm704 896h64v-64h-64v64zm0-896h64v-64h-64v64zm0 640h64v-64h-64v64zm-896 64v64h64v-64h-64zm-128 0v64h64v-64h-64zm1024-960h64v-64h-64v64zm-640 960v64h64v-64h-64zm-128 0v64h64v-64h-64zm768-320h64v-64h-64v64zm-1152 0h-64v64h64v-64zm0 128h-64v64h64v-64zm0 128h-64v64h64v-64zm1152-128h64v-64h-64v64zM640 1344v64h64v-64h-64zm64-640h-64v64h64v-64zm1216 1024v-64h-64v64h64zm-128 192h64v-64h-64v64zm128-64v-64h-64v64h64zm0-256v-64h-64v64h64zm-256 320h64v-64h-64v64zm-256 0h64v-64h-64v64zm-128 0h64v-64h-64v64zm640-448v-64h-64v64h64zm-384 448h64v-64h-64v64zm384-1216v-64h-64v64h64zm0-128v-64h-64v64h64zm0 768v-64h-64v64h64zm0-512v-64h-64v64h64zm0 384v-64h-64v64h64zm0-128v-64h-64v64h64zm0-128v-64h-64v64h64zM256 1920h64v-64h-64v64zm768-960v-64h-64v64h64zM64 1856H0v64h64v-64zm1088 64h64v-64h-64v64zM960 960h-64v64h64v-64zm-832 704H64v64h64v-64zm832-640v64h64v-64h-64zm-832 896h64v-64h-64v64zm0-128H64v64h64v-64zM1920 448v-64h-64v64h64zM768 1920h64v-64h-64v64zm256 0h64v-64h-64v64zm-128 0h64v-64h-64v64zm-512 0h64v-64h-64v64zm128 0h64v-64h-64v64zm128 0h64v-64h-64v64zM1280 0h-64v64h64V0zM0 832v64h64v-64H0zm0-256v64h64v-64H0zM128 0H64v64h64V0zM0 448v64h64v-64H0zM0 64v64h64V64H0zm0 128v64h64v-64H0zm0 128v64h64v-64H0zm0 384v64h64v-64H0zm0 896v64h64v-64H0zm0-640v64h64v-64H0zm1920-640v-64h-64v64h64zM0 1728v64h64v-64H0zm0-640v64h64v-64H0zm0 128v64h64v-64H0zm0 128v64h64v-64H0zm0 128v64h64v-64H0zM1536 0h-64v64h64V0zM256 0h-64v64h64V0zm768 1024h64v-64h-64v64zM1408 0h-64v64h64V0zm512 192v-64h-64v64h64zm0-192h-64v64h64V0zm-128 0h-64v64h64V0zm-128 0h-64v64h64V0zM512 0h-64v64h64V0zM384 0h-64v64h64V0zm256 0h-64v64h64V0zm128 0h-64v64h64V0zm384 0h-64v64h64V0zm-128 0h-64v64h64V0zM896 0h-64v64h64V0zM768 1216v64h64v-64h-64zM448 128V64h-64v64h64zm256 704h-64v64h64v-64zm64 320h-64v64h64v-64zm320-384v-64h-64v64h64zM576 128V64h-64v64h64zm320 1088v64h64v-64h-64zm256 0v64h64v-64h-64zm-128 0v64h64v-64h-64zM128 128H64v64h64v-64zm832 640v-64h-64v64h64zm-192 256h-64v64h64v-64zm64-256v-64h-64v64h64zm-64 128h-64v64h64v-64zm0-128h-64v64h64v-64zM192 128V64h-64v64h64zm128 0V64h-64v64h64zm768 0V64h-64v64h64zm128 1088h64v-64h-64v64zm-192-512v-64h-64v64h64zm-64 1088v64h64v-64h-64zm192-1088v-64h-64v64h64zm64-576V64h-64v64h64zM768 704v-64h-64v64h64zm128 0v-64h-64v64h64zm320 384h64v-64h-64v64zM704 128V64h-64v64h64zm256 0V64h-64v64h64zm256 832h64v-64h-64v64zm64-256v-64h-64v64h64zm-64 128h64v-64h-64v64zM832 128V64h-64v64h64zm64 704v-64h-64v64h64zm-768 320H64v64h64v-64zm896-64v64h64v-64h-64zm64-128h64v-64h-64v64zm0 128h64v-64h-64v64zm-64-256v-64h-64v64h64zm-896 192H64v64h64v-64zm1024-192v-64h-64v64h64zM128 256H64v64h64v-64zm0 1024H64v64h64v-64zm0 256H64v64h64v-64zm768-640h-64v64h64v-64zm64 0v-64h-64v64h64zm128 0v-64h-64v64h64zm-960 512H64v64h64v-64zm768-384h-64v64h64v-64zm0 64v64h64v-64h-64zM128 896H64v64h64v-64zm960 256v64h64v-64h-64zM128 512H64v64h64v-64zm1024 640h64v-64h-64v64zM128 384H64v64h64v-64zm1088 384v-64h-64v64h64zm-64 128h64v-64h-64v64zm0 128h64v-64h-64v64zm-192 128v64h64v-64h-64zM832 832h-64v64h64v-64zm-704-64H64v64h64v-64zm704 192h-64v64h64v-64zM128 640H64v64h64v-64zm704 448h-64v64h64v-64zm0 64v64h64v-64h-64zm768-896v-64h-64v64h64zm-576 1344v64h64v-64h-64zm128 0v64h64v-64h-64zm-768 128v64h64v-64h-64zm896-128v64h64v-64h-64zm128 0v64h64v-64h-64zm-512 0v64h64v-64h-64zm-640 128v64h64v-64h-64zm128-128v64h64v-64h-64zm-128 64h-64v64h64v-64zm128-128h-64v64h64v-64zm256 192v64h64v-64h-64zm128-128v64h64v-64h-64zm-256 128v64h64v-64h-64zm0-128v64h64v-64h-64zm128 0v64h64v-64h-64zm960 0h64v-64h-64v64zM256 1152h-64v64h64v-64zm1344-320h64v-64h-64v64zm0 128h64v-64h-64v64zm-1344 64h-64v64h64v-64zm0 256h-64v64h64v-64zm1344-704h64v-64h-64v64zm0 128h64v-64h-64v64zm0 384h64v-64h-64v64zM256 1536h-64v64h64v-64zm1344-64h64v-64h-64v64zm-832 256v64h64v-64h-64zm768-128v64h64v-64h-64zm64-384h64v-64h-64v64zm0 128h64v-64h-64v64zm-1344 64h-64v64h64v-64zM1344 384v-64h-64v64h64zm320 1344v64h64v-64h-64zM1088 384v-64h-64v64h64zm-512 0v-64h-64v64h64zm384 0v-64h-64v64h64zm-256 0v-64h-64v64h64zm832 1344v64h64v-64h-64zM832 384v-64h-64v64h64zm384 0v-64h-64v64h64zm320 128h64v-64h-64v64zm64-128v-64h-64v64h64zm128 1088h64v-64h-64v64zm0 128h64v-64h-64v64zM384 1408h-64v64h64v-64zm1344 320h64v-64h-64v64zM1472 384v-64h-64v64h64zm128 64h64v-64h-64v64zM384 1024h-64v64h64v-64zm640 704v64h64v-64h-64zm384 0v64h64v-64h-64zM384 1280h-64v64h64v-64zm0-512h-64v64h64v-64zm512 960v64h64v-64h-64zm-512-576h-64v64h64v-64zm0-256h-64v64h64v-64zm0-512h-64v64h64v-64zm768 1344v64h64v-64h-64zm128 0v64h64v-64h-64zM448 384v-64h-64v64h64zm-64 128h-64v64h64v-64zm0 128h-64v64h64v-64zm-64 960h-64v64h64v-64zm512 64v64h64v-64h-64zm256 0v64h64v-64h-64zm128-1408v-64h-64v64h64zM960 1664v64h64v-64h-64zm384-1408v-64h-64v64h64zm0 1408v64h64v-64h-64zm-128 0v64h64v-64h-64zm-512 0v64h64v-64h-64zM832 256v-64h-64v64h64zm704 384h64v-64h-64v64zM960 256v-64h-64v64h64zM448 1664v64h64v-64h-64zM1472 256v-64h-64v64h64zm-384 0v-64h-64v64h64zM576 1664v64h64v-64h-64zm-256 0v64h64v-64h-64zm1344-512h64v-64h-64v64zm0-768h64v-64h-64v64zm0 640h64v-64h-64v64zm0-128h64v-64h-64v64zm0-128h64v-64h-64v64zm0-256h64v-64h-64v64zm0 768h64v-64h-64v64zm0 256h64v-64h-64v64zm0-896h64v-64h-64v64zm0 1024h64v-64h-64v64zm0-256h64v-64h-64v64zm-64 256v64h64v-64h-64zm-128 0v64h64v-64h-64zm256-1408v-64h-64v64h64zM256 512h-64v64h64v-64zm1408-192v-64h-64v64h64zm-768 0v-64h-64v64h64zm128 0v-64h-64v64h64zm-256 0v-64h-64v64h64zm-256 0v-64h-64v64h64zm128 0v-64h-64v64h64zm-384 64h-64v64h64v-64zm0 512h-64v64h64v-64zm1152-576v-64h-64v64h64zm128 0v-64h-64v64h64zm-1152 0v-64h-64v64h64zm768 0v-64h-64v64h64zM256 640h-64v64h64v-64zm0 128h-64v64h64v-64zm1024-448v-64h-64v64h64zm-704-64v-64h-64v64h64zM320 1472h-64v64h64v-64zm0-512h-64v64h64v-64zm0 128h-64v64h64v-64zm0-256h-64v64h64v-64zm0 512h-64v64h64v-64zM704 256v-64h-64v64h64zm-384 960h-64v64h64v-64zm0-896h-64v64h64v-64zm0 128h-64v64h64v-64zm-64-192h-64v64h64v-64zm64 0v-64h-64v64h64zm128 0v-64h-64v64h64zM320 704h-64v64h64v-64zm0-128h-64v64h64v-64zM192 1792v64h64v-64h-64zm0-960h-64v64h64v-64zm320 64h-64v64h64v-64zm0-128h-64v64h64v-64zm0-128h-64v64h64v-64zm0 512h-64v64h64v-64zM192 704h-64v64h64v-64zm320 320h-64v64h64v-64zm192-512v-64h-64v64h64zm128 0v-64h-64v64h64zm-640 704h-64v64h64v-64zm320 64h-64v64h64v-64zM192 960h-64v64h64v-64zm0 128h-64v64h64v-64zm320-576h-64v64h64v-64zm64 0v-64h-64v64h64zm192 960v64h64v-64h-64zm384 0v64h64v-64h-64zM192 192h-64v64h64v-64zm832 1280v64h64v-64h-64zM256 192v-64h-64v64h64zm1152 1280v64h64v-64h-64zm64 0h64v-64h-64v64zm-576 0v64h64v-64h-64zm64-960v-64h-64v64h64zM192 320h-64v64h64v-64zm0 128h-64v64h64v-64zm320 960h-64v64h64v-64zm0 64v64h64v-64h-64zM192 576h-64v64h64v-64zm448 896v64h64v-64h-64zm640 0v64h64v-64h-64zm-192-64v64h64v-64h-64zm-128 0v64h64v-64h-64zm-384 384v64h64v-64h-64zm-128 0v64h64v-64h-64zm960-384h64v-64h-64v64zm-64 0v64h64v-64h-64zm-128 0v64h64v-64h-64zm-896 384v64h64v-64h-64zm768-1280v-64h-64v64h64zm-512 704h-64v64h64v-64zm0 128h-64v64h64v-64zm128 448v64h64v-64h-64zm0-384v64h64v-64h-64zm-128 0v64h64v-64h-64zm256 0v64h64v-64h-64zm0 384v64h64v-64h-64zm-640-320h-64v64h64v-64zm0 128h-64v64h64v-64zm1216-960h64v-64h-64v64zm64-128v-64h-64v64h64zm-128 0v-64h-64v64h64zM192 1344h-64v64h64v-64zm1024-832v-64h-64v64h64zm192 768h64v-64h-64v64zm0-128h64v-64h-64v64zm0-128h64v-64h-64v64zm-832 64h-64v64h64v-64zm832-192h64v-64h-64v64zM192 1728h-64v64h64v-64zm1216-960h64v-64h-64v64zm128 128h64v-64h-64v64zm-832 640v64h64v-64h-64zm1024-960h64v-64h-64v64zm0-128h64v-64h-64v64zM576 1536v64h64v-64h-64zm1152-832h64v-64h-64v64zM448 960h-64v64h64v-64zm512 576v64h64v-64h-64zm832-1344v-64h-64v64h64zM448 1216h-64v64h64v-64zm0 320v64h64v-64h-64zm0-448h-64v64h64v-64zm640 448v64h64v-64h-64zm-640-64h-64v64h64v-64zm0-128h-64v64h64v-64zM1728 320h64v-64h-64v64zM832 1536v64h64v-64h-64zm384 0v64h64v-64h-64zm320-256h64v-64h-64v64zm192-64h64v-64h-64v64zm0-128h64v-64h-64v64zm0 256h64v-64h-64v64zm-192-576h64v-64h-64v64zm0 256h64v-64h-64v64zm0 128h64v-64h-64v64zm-192 384v64h64v-64h-64zm192-128h64v-64h-64v64zm192-576h64v-64h-64v64zm-256 704v64h64v-64h-64zm64 0h64v-64h-64v64zm192-576h64v-64h-64v64zm-448-512v-64h-64v64h64zm192 128h64v-64h-64v64zm64-128v-64h-64v64h64zM768 192v-64h-64v64h64zm640 256v-64h-64v64h64zM384 192v-64h-64v64h64zm1280 0v-64h-64v64h64zm-192 512h64v-64h-64v64zm0 512h64v-64h-64v64zm0-384h64v-64h-64v64zm0 512h64v-64h-64v64zM512 192v-64h-64v64h64zm512 0v-64h-64v64h64zm-384 0v-64h-64v64h64zm832 768h64v-64h-64v64zm0 128h64v-64h-64v64zM896 192v-64h-64v64h64zM448 576h-64v64h64v-64zm0-128h-64v64h64v-64zm960-256v-64h-64v64h64zm-256 256v-64h-64v64h64zM448 832h-64v64h64v-64zm0-128h-64v64h64v-64zm1088-512v-64h-64v64h64zM512 448v-64h-64v64h64zm384 0v-64h-64v64h64zm256-256v-64h-64v64h64zm-128 256v-64h-64v64h64zm-256 0v-64h-64v64h64zm-128 0v-64h-64v64h64zm640-256v-64h-64v64h64z" fill="#d7d7d7"/></svg>