<svg version="1.1" xmlns="http://www.w3.org/2000/svg" x="0" y="0" viewBox="0 0 1920 1920" xml:space="preserve"><path fill="#4db7ad" d="M0 0h1920v1920H0z"/><path d="M1182 1788l240-138.6 12 6.9-252 145.5V1788zm0 58.8l291-168-12-6.9-279 161.1v13.8zm81-264.9l12-6.9v-232.2l-12-6.9v246zm-78 45l12-6.9v-322.2l-12-6.9v336zm321-555.9l-291 168 12 6.9 279-161.1V1071zm-282 533.4l12-6.9v-277.2l-12-6.9v291zm-42 280.5l6 3.6 318-183.6v-6.9l-6-3.6-318 183.6v6.9zm0-173.1l174-100.5-12-6.9-162 93.6v13.8zm501-746.7v322.2l12 6.9v-336l-12 6.9zm15 490.2l-240-138.6-12 6.9 252 145.5v-13.8zm0-45l-201-116.1-12 6.9 213 123v-13.8zm0-45l-162-93.6-12 6.9 174 100.5v-13.8zm0 135l-279-161.1-12 6.9 291 168.3v-14.1zm-192 249.6v-13.8l-291 168 12 6.9 279-161.1zm192-197.4v-7.2l-318-183.6-6 3.6v6.9l318 183.6 6-3.3zm-54 100.2V1920h12v-274.2l-12 6.9zm-381-735.9l12-6.9V677.7l-12-6.9v246zm-81 840l213-123-12-6.9-201 116.1v13.8zm0-537l6 3.6 318-183.6v-7.2l-6-3.3-318 183.6v6.9zm0-128.1l213-123-12-6.9-201 116.1v13.8zm0-45l174-100.5-12-6.9-162 93.3v14.1zm0 135l291-168-12-6.9-279 161.1v13.8zm0-45l252-145.5-12-6.9-240 138.6v13.8zm3-174.9l12-6.9V632.7l-12-6.9v336zm321-556.2l-291 168.3 12 6.9 279-161.1v-14.1zm-282 533.7l12-6.9V655.2l-12-6.9v291zm150 613.2l162 93.3 12-6.9-174-100.5v14.1zm132-391.5l-213 123 12 6.9 201-116.1V1161zm0 45l-174 100.5 12 6.9 162-93.6V1206zm0-90l-252 145.5 12 6.9 240-138.6V1116zm-204 443.4l12-6.9v-187.2l-12-6.9v201zm72-66v13.8l201 116.1 12-6.9-213-123zm192 391.5l12 6.9v-201l-12 7.2v186.9zm39 22.5l12 6.9v-246l-12 6.9v232.2zm-231-459v13.8l240 138.6 12-6.9-252-145.5zm0-31.2l279 161.1 12-6.9-291-168v13.8zm-345-507.3l12 6.9v-246l-12 6.9v232.2zm669-29.7l-318-183.6-6 3.6v6.9l318 183.6 6-3.3v-7.2zM798 495.9v13.8l201 116.1 12-6.9-213-123zm270 436.5l12 6.9v-291l-12 6.9v277.2zM798 405.6v14.1l279 161.1 12-6.9-291-168.3zM606 183.9l291-168L885 9 606 170.1v13.8zm0 38.1l6 3.6L930 42v-6.9l-6-3.6-318 183.6v6.9zm384 665.4l12 6.9v-201l-12 6.9v187.2zM606 138.9L846.6 0h-23.9L606 125.1v13.8zm81 445.2l12-6.9V345l-12-6.9v246zm243-465.9L678 263.7l12 6.9L930 132v-13.8zm0-45l-291 168 12 6.9L930 87V73.2zM648 606.6l12-6.9V322.5l-12-6.9v291zm150-51.9l162 93.6 12-6.9-174-100.5v13.8zm-72 6.9l12-6.9V367.5l-12-6.9v201zm204-353.4L756 308.7l12 6.9L930 222v-13.8zm0-45l-213 123 12 6.9L930 177v-13.8zM798 450.9v13.8l240 138.6 12-6.9-252-145.5zm900-235.8L1380 31.5l-6 3.6V42l318 183.6 6-3.6v-6.9zm-15 84.9v322.2l12 6.9v-336l-12 6.9zm15-129.9L1419 9l-12 6.9 291 168v-13.8zm0 530.1l-162-93.6-12 6.9L1698 714v-13.8zM606 93.9L768.6 0h-23.9L606 80.1v13.8zm1092 741.3l-279-161.1-12 6.9 291 168v-13.8zm0-710.1L1481.4 0h-23.9L1698 138.9v-13.8zm0 665.1l-240-138.6-12 6.9L1698 804v-13.8zm0-45l-201-116.1-12 6.9 213 123v-13.8zm-657-493.5V5.7l-12 6.9v232.2l12 6.9zm657-171.6L1559.3 0h-23.9L1698 93.9V80.1zM1080 0h-12v267.3l12 6.9V0zm66 1275.3v367.2l6 3.3 6-3.3v-367.2l-6-3.6-6 3.6zM1002 229.2v-201l-12 6.9V222l12 7.2zm195 60.6V0h-12v296.7l12-6.9zm-51 22.5l6 3.3 6-3.3V0h-12v312.3zm12 297.9l-6-3.6-6 3.6v367.2l6 3.3 6-3.3V610.2zm600 858.9l162-93.5v-13.8l-162 93.6v13.7zm0-588.9v7.2l6 3.3 156-90.1v-14l-162 93.6zm33 26.1l12 6.9 117-67.6v-13.8l-129 74.5zM1758 714l162-93.6v-13.8l-162 93.6V714zm3-420.9v336l12-6.9V300l-12-6.9zm-255 157.8l-252 145.5 12 6.9 240-138.6v-13.8zm294-135.3v291l12-6.9V322.5l-12-6.9zm108 658.2l12 6.9v-13.8l-12 6.9zm-39-22.5l12 6.9 39-22.5v-13.8l-51 29.4zm-39-687.6l12 6.9 78-45v-13.8l-90 51.9zm39 22.5l12 6.9 39-22.5v-13.8l-51 29.4zm-111 1228.2l162-93.7v-13.9l-162 93.5v14.1zm0-1299.3v6.9l6 3.6 156-90.1v-14l-162 93.6zm33 26.1l12 6.9 117-67.6v-13.8l-129 74.5zM1758 849l162-93.5v-13.8l-162 93.5V849zm81-510.9v246l12-6.9V345l-12-6.9zM1758 759l162-93.5v-13.8l-162 93.6V759zm0 45l162-93.5v-13.8l-162 93.6V804zm150-495.3l12 6.9v-13.8l-12 6.9zm0 1330.2l12 6.9V1632l-12 6.9zm-78-45l12 6.9 78-45V1542l-90 51.9zM609 629.1l12-6.9V300l-12-6.9v336zm1269 1061.7v201l12-6.9V1698l-12-7.2zm-78 229.2h12v-267.3l-12-6.9V1920zM6 1275.3l-6-3.6v374.1l6-3.3v-367.2zm0-665.1l-6-3.6v374.1l6-3.3V610.2zm1833 1058.1v246l12-6.9v-232.2l-12-6.9zm30-51.9l12 6.9 39-22.5V1587l-51 29.4zm-78-45l12 6.9 117-67.6v-13.8l-129 74.5zm87-545.7v201l12-6.9v-187.2l-12-6.9zm-39-22.5v246l12-6.9v-232.2l-12-6.9zm-81 420.9l162-93.5v-13.8l-162 93.6v13.7zm42-443.4v291l12-6.9V987.6l-12-6.9zm-42 564.6v7.2l6 3.3 156-90.1v-14l-162 93.6zm0-166.2l162-93.6v-13.8l-162 93.6v13.8zm3-420.9v336l12-6.9V965.1l-12-6.9zm69-29.4l12 6.9 78-45v-13.8l-90 51.9zm-648-374.1l6 3.6 318-183.6v-7.2l-6-3.3-318 183.6v6.9zm0-83.1l252-145.5-12-6.9-240 138.6v13.8zm0 45l291-168-12-6.9-279 161.1v13.8zm192 221.7v13.8l279 161.1 12-6.9-291-168zm-99-493.5V12.6l-12-6.9v246l12-6.9zM1236 0h-12v274.2l12-6.9V0zm408 1264.8l12 6.9v-291l-12 6.9v277.2zm-462-838.2l213-123-12-6.9-201 116.1v13.8zm0-45l174-100.5-12-6.9-162 93.3v14.1zm576-287.7L1920 .4V0h-23.3L1758 80.1v13.8zm-252 402l-213 123 12 6.9 201-116.1v-13.8zm-132 287.4v13.8l240 138.6 12-6.9-252-145.5zm-72 111l12-6.9V700.2l-12-6.9v201zm72-6.9l162 93.3 12-6.9-174-100.5v14.1zm231 354.9l12 6.9v-246l-12 6.9v232.2zm-231-414v13.8l201 116.1 12-6.9-213-123zm192 391.5l12 6.9v-201l-12 6.9v187.2zm-60-678.9l-174 100.5 12 6.9 162-93.6v-13.8zm192-492V35.1L1637.3 0h-23.9l84.6 48.9zm24 893.7v367.2l6 3.6 6-3.6V942.6l-6-3.3-6 3.3zm-216 883.5l-162.6 93.9h23.9l138.7-80.1v-13.8zm228-1548.6l-6-3.3-6 3.3v367.2l6 3.6 6-3.6V277.5zm24-228.6L1842.7 0h-23.9L1758 35.1v13.8zm0 90l162-93.5V31.5l-162 93.6v13.8zm0 45l162-93.5V76.6l-162 93.5v13.8zm-252 1687.2l-84.7 48.9h23.9l60.7-35.1v-13.8zm99-1293.9l12 6.9v-246l-12 6.9v232.2zm-231-414V177l201 116.1 12-6.9-213-123zm192 391.5l12 6.9v-201l-12 6.9v187.2zM1374 222l162 93.6 12-6.9-174-100.5V222zm0-148.8V87l279 161.1 12-6.9-291-168zm270 526.5l12 6.9v-291l-12 6.9v277.2zm-270-481.5V132l240 138.6 12-6.9-252-145.5zM1314 222V35.1l-12-6.9v201l12-7.2zm564 138.6v201l12-6.9V367.5l-12-6.9zM30 1046.7l174-100.5-12-6.9-162 93.3v14.1zm192 401.7v13.8l240 138.6 12-6.9-252-145.5zm231 459l12 6.9v-246l-12 6.9v232.2zm-231-414v13.8l201 116.1 12-6.9-213-123zm192 391.5l12 6.9v-201l-12 7.2v186.9zM30 1091.7l213-123-12-6.9-201 116.1v13.8zm0 45l252-145.5-12-6.9-240 138.6v13.8zm0 45l291-168-12-6.9-279 161.1v13.8zm0 38.1l6 3.6 318-183.6v-7.2l-6-3.3-318 183.6v6.9zm81 362.1l12-6.9v-232.2l-12-6.9v246zM354 1071L63 1239l12 6.9 279-161.1V1071zM72 1604.4l12-6.9v-277.2l-12-6.9v291zM354 1116l-252 145.5 12 6.9 240-138.6V1116zm-204 443.4l12-6.9v-187.2l-12-6.9v201zm72-6.9l162 93.3 12-6.9-174-100.5v14.1zM354 1206l-174 100.5 12 6.9 162-93.6V1206zm0-45l-213 123 12 6.9 201-116.1V1161zM30 471.6l252-145.5-12-6.9L30 457.8v13.8zm192 311.7v13.8l240 138.6 12-6.9-252-145.5zm231 459l12 6.9v-246l-12 6.9v232.2zm-39-22.5l12 6.9v-201l-12 6.9v187.2zM222 828.3v13.8l201 116.1 12-6.9-213-123zm270 436.5l12 6.9v-291l-12 6.9v277.2zM30 516.6l291-168-12-6.9L30 502.8v13.8zm192 221.7v13.8l279 161.1 12-6.9-291-168zM30 554.7l6 3.6 318-183.6v-7.2l-6-3.3L30 547.8v6.9zm324-103.8L102 596.4l12 6.9 240-138.6v-13.8zM111 916.8l12-6.9V677.7l-12-6.9v246zm243-511.2L63 573.9l12 6.9 279-161.1v-14.1zM33 961.8l12-6.9V632.7l-12-6.9v336zm0 665.1l12-6.9v-322.2l-12-6.9v336zm189-739.5l162 93.3 12-6.9-174-100.5v14.1zm132-346.5L180 641.4l12 6.9 162-93.6v-13.8zm0-45l-213 123 12 6.9 201-116.1v-13.8zM150 894.3l12-6.9V700.2l-12-6.9v201zm-78 45l12-6.9V655.2l-12-6.9v291zM546 80.1L407.3 0h-23.9L546 93.9V80.1zM45 289.8V0H33v296.7l12-6.9zM6 0H0v315.6l6-3.3V0zm540 125.1L329.4 0h-23.9L546 138.9v-13.8zM354 1794.9v-13.8L113.4 1920h23.9L354 1794.9zM546 170.1L267 9l-12 6.9 291 168v-13.8zM531 300v322.2l12 6.9v-336l-12 6.9zm15-84.9L228 31.5l-6 3.6V42l318 183.6 6-3.6v-6.9zm960 1579.8v-13.8L1265.4 1920h23.9l216.7-125.1zm228-187.2l-6-3.3-6 3.3V1920h12v-312.3zm-1203 22.5V1920h12v-296.7l-12 6.9zm1152 0V1920h12v-296.7l-12 6.9zm90 0l-12-6.9V1920h12v-289.8zm-1227-930l-162-93.6-12 6.9L546 714v-13.8zm36 907.5l-6-3.3-6 3.3V1920h12v-312.3zm39 22.5l-12-6.9V1920h12v-289.8zm177 164.7l216.6 125.1h23.9L798 1781.1v13.8zm-768 51.9l291-168-12-6.9L30 1833v13.8zm462-194.1V1920h12v-274.2l-12 6.9zm-138 97.2v-13.8l-291 168 12 6.9 279-161.1zm192-197.4v-7.2l-318-183.6-6 3.6v6.9l318 183.6 6-3.3zM30 1884.9l6 3.6 318-183.6v-6.9l-6-3.6L30 1878v6.9zm192-467.7l279 161.1 12-6.9-291-168v13.8zM30 1711.8l174-100.5-12-6.9L30 1698v13.8zm0 45l213-123-12-6.9L30 1743v13.8zm0 45l252-145.5-12-6.9L30 1788v13.8zm516-921.6L228 696.6l-6 3.6v6.9l318 183.6 6-3.3v-7.2zm0-135L345 629.1l-12 6.9 213 123v-13.8zm-15 219.9v322.2l12 6.9v-336l-12 6.9zm15-129.9L267 674.1l-12 6.9 291 168v-13.8zm0-45L306 651.6l-12 6.9L546 804v-13.8zm0 620.1l-201-116.1-12 6.9 213 123v-13.8zm0 45l-240-138.6-12 6.9 252 145.5v-13.8zm0 45l-279-161.1-12 6.9 291 168.3v-14.1zm0-135l-162-93.6-12 6.9 174 100.5v-13.8zm384-627l-291 168 12 6.9 279-161.1v-13.8zm-324 730.8l252-145.5-12-6.9-240 138.6v13.8zm0 83.4l6 3.3 318-183.6v-6.9l-6-3.6-318 183.6v7.2zm0-38.1l291-168.3-12-6.9-279 161.1v14.1zm81 153.9v246l12-6.9v-232.2l-12-6.9zm243-251.1v-13.8l-291 168 12 6.9 279-161.1zm-324 6.9l213-123-12-6.9-201 116.1v13.8zm3-129.9l12-6.9V965.1l-12-6.9v336zm39-22.5l12-6.9V987.6l-12-6.9v291zm-42 107.4l174-100.5-12-6.9-162 93.6v13.8zm120 512.7l12-6.9V1698l-12-7.2v201zm72-20.7v13.8l60.7 35.1h23.9l-84.6-48.9zm324 13.8v-6.9l-318-183.6-6 3.6v6.9l318 183.6 6-3.6zm-33 19.2l-291-168v13.8l279 161.1 12-6.9zm-159-365.7l-174 100.5 12 6.9 162-93.3v-14.1zm0-45l-213 123 12 6.9 201-116.1v-13.8zm-270 159.3l-12-6.9V1920h12v-267.3zm270-204.3l-252 145.5 12 6.9 240-138.6v-13.8zm-132 391.5l138.7 80.1h23.9L798 1826.1v13.8zm231-264.9l12 6.9v-246l-12 6.9V1575zm39 22.5l12 6.9v-291l-12 6.9v277.2zM606 887.4l6 3.3 318-183.6v-6.9l-6-3.6-318 183.6v7.2zM798 1116v13.8l240 138.6 12-6.9L798 1116zm0-45v13.8l279 161.1 12-6.9-291-168zM606 849l291-168-12-6.9-279 161.1V849zm0-90l213-123-12-6.9-201 116.1V759zm0 45l252-145.5-12-6.9-240 138.6V804zm192 415.8l162 93.6 12-6.9L798 1206v13.8zm132-436.5L678 928.8l12 6.9 240-138.6v-13.8zm-204 443.4l12-6.9v-187.2l-12-6.9v201zm204-398.4l-213 123 12 6.9 201-116.1v-13.8zm-243 420.9l12-6.9v-232.2l-12-6.9v246zm303 303.3l12 6.9v-201l-12 6.9v187.2zM798 1161v13.8l201 116.1 12-6.9-213-123zm132-287.7L756 973.8l12 6.9 162-93.3v-14.1zM606 714l174-100.5-12-6.9-162 93.6V714zm0-665.1L690.7 0h-23.9L606 35.1v13.8zM354 1871.1l-84.7 48.9h23.9l60.7-35.1v-13.8zM222 118.2V132l240 138.6 12-6.9-252-145.5zm270 481.5l12 6.9v-291l-12 6.9v277.2zM354 1826.1L191.4 1920h23.9l138.7-80.1v-13.8zM222 73.2V87l279 161.1 12-6.9-291-168zm360 204.3l-6-3.3-6 3.3v367.2l6 3.6 6-3.6V277.5zm-12 665.1v367.2l6 3.6 6-3.6V942.6l-6-3.3-6 3.3zM546 48.9V35.1L485.3 0h-23.9L546 48.9zM222 222l162 93.6 12-6.9-174-100.5V222zm-60 0V35.1l-12-6.9v201l12-7.2zm291 355.2l12 6.9v-246l-12 6.9v232.2zM123 244.8V12.6l-12-6.9v246l12-6.9zM30 381.6l174-100.5-12-6.9-162 93.3v14.1zM84 0H72v274.2l12-6.9V0zm138 163.2V177l201 116.1 12-6.9-213-123zM30 426.6l213-123-12-6.9L30 412.8v13.8zm384 128.1l12 6.9v-201l-12 6.9v187.2zm708-51.9L843 341.7l-12 6.9 291 168v-13.8zm-15 795V1620l12 6.9v-336l-12 6.9zm15-84.9l-318-183.6-6 3.3v7.2l318 183.6 6-3.6v-6.9zm0-45l-279-161.1-12 6.9 291 168v-13.8zm-15-878.1l12 6.9V0h-12v289.8zm15 788.1L921 961.8l-12 6.9 213 123v-13.8zm0 710.1l-240-138.6-12 6.9 252 145.5V1788zm0-45l-201-116.1-12 6.9 213 123V1743zm0-45l-162-93.6-12 6.9 174 100.5V1698zm0-575.1L882 984.3l-12 6.9 252 145.5v-13.8zm0-710.1L921 296.7l-12 6.9 213 123v-13.8zm0-45.3l-162-93.3-12 6.9 174 100.5v-14.1zm0 90.3L882 319.2l-12 6.9 252 145.5v-13.8zm0 574.8l-162-93.3-12 6.9 174 100.5v-14.1zm-15-399.9v322.2l12 6.9v-336l-12 6.9zm15-84.9L804 364.2l-6 3.3v7.2l318 183.6 6-3.6v-6.9zm0 1285.2l-279-161.1-12 6.9 291 168V1833z" fill="#80cbc4"/></svg>