<svg version="1.1" xmlns="http://www.w3.org/2000/svg" x="0" y="0" viewBox="0 0 512 512" xml:space="preserve"><path d="M97.1 21.6c-.2.6.1.8.6.6.6-.2 1.3 0 1.7.4.4.5.7.4.8-.2.1-.6.6-1.1 1.2-1.2s.7-.5.2-.8c-.5-.4-.7-1.1-.4-1.7s-.1-.8-.6-.6-1.3 0-1.7-.4c-.4-.5-.7-.4-.8.2-.1.6-.6 1.1-1.2 1.2s-.7.5-.2.8c.4.4.6 1.2.4 1.7zm317.8 468.8c.2-.6-.1-.8-.6-.6-.6.2-1.3 0-1.7-.4-.4-.5-.7-.4-.8.2-.1.6-.6 1.1-1.2 1.2s-.7.5-.2.8c.5.4.7 1.1.4 1.7-.2.6.1.8.6.6.6-.2 1.3 0 1.7.4.4.5.7.4.8-.2.1-.6.6-1.1 1.2-1.2s.7-.5.2-.8c-.4-.4-.6-1.2-.4-1.7zm-4.3-469.2c.6.1 1.1.6 1.2 1.2s.5.7.8.2c.4-.5 1.1-.7 1.7-.4.6.2.8-.1.6-.6-.2-.6 0-1.3.4-1.7.5-.4.4-.7-.2-.8-.6-.1-1.1-.6-1.2-1.2s-.5-.7-.8-.2c-.4.5-1.1.7-1.7.4s-.8.1-.6.6 0 1.3-.4 1.7c-.5.3-.4.7.2.8zM101.4 490.8c-.6-.1-1.1-.6-1.2-1.2s-.5-.7-.8-.2c-.4.5-1.1.7-1.7.4-.6-.2-.8.1-.6.6.2.6 0 1.3-.4 1.7-.5.4-.4.7.2.8.6.1 1.1.6 1.2 1.2s.5.7.8.2c.4-.5 1.1-.7 1.7-.4.6.2.8-.1.6-.6-.2-.6 0-1.3.4-1.7.5-.3.4-.7-.2-.8zm-9.7-249.3c.2-.5.9-.9 1.5-.9.6.1.8-.3.4-.8s-.3-1.3 0-1.7.2-.8-.4-.8c-.6.1-1.3-.3-1.5-.9-.2-.5-.6-.5-.9 0-.2.5-.9.9-1.5.9-.6-.1-.8.3-.4.8s.3 1.3 0 1.7-.2.8.4.8c.6-.1 1.3.3 1.5.9.3.5.6.5.9 0zm313.5 31.4c8.4 16.9 12.8 35.8 12.8 54.6v80c0 15.8-6.1 30.6-17.3 41.7l-26.5 26.5c-11.1 11.1-26 17.3-41.7 17.3h-153c-15.8 0-30.6-6.1-41.7-17.3l-26.5-26.5c-11.1-11.1-17.3-26-17.3-41.7v-80c0-18.9 4.4-37.7 12.8-54.6l8-16.1c7.3-14.7 3.9-32.7-8.2-43.8l-3.7-3.4c-5.6-5.1-8.8-12.4-8.8-20v-85.2c0-15.8 6.1-30.6 17.3-41.7l26.5-26.5c11.1-11.1 26-17.3 41.7-17.3h153c15.8 0 30.6 6.1 41.7 17.3l26.5 26.5c11.1 11.1 17.3 26 17.3 41.7v85.2c0 7.6-3.2 14.9-8.8 20l-3.7 3.4c-12.1 11.1-15.5 29.1-8.2 43.8l7.8 16.1zm-18.6-123.6c-3.1-38.7-26.9-71.6-60.3-87.7-4.2-2-9.3-.1-11 4.3l-5 13.1c-1.5 3.8.2 8.2 3.8 10 23.3 11.6 40 34.6 42.5 61.7.4 4.1 3.8 7.3 8 7.3h14.1c4.7 0 8.3-4 7.9-8.7zm55.1 91.8l-.9 1.5c-.5.9-1.4 1.6-2.5 1.8l-5.3 1.3V486l-7.9 7.9 3.9 6.6c.5.9.7 2 .5 3l-.4 1.7c-.4 1.4-1.5 2.6-2.9 2.9l-1.7.4c-1 .3-2.1.1-3-.5l-6.6-3.9-7.9 7.9H105l-7.9-7.9-6.6 3.9c-.9.5-2 .7-3 .5l-1.7-.4c-1.4-.4-2.6-1.5-2.9-2.9l-.4-1.7c-.3-1-.1-2.1.5-3l3.9-6.6L79 486V245.7l-5.3-1.3c-1-.3-1.9-.9-2.5-1.8l-.9-1.5c-.8-1.3-.8-2.8 0-4.1l.9-1.5c.5-.9 1.4-1.6 2.5-1.8l5.3-1.3V26l7.9-7.9-3.9-6.6c-.5-.9-.7-2-.5-3l.4-1.7c.4-1.4 1.5-2.6 2.9-2.9l1.7-.4c1-.3 2.1-.1 3 .5l6.6 3.9L105 0h302l7.9 7.9 6.6-3.9c.9-.5 2-.7 3-.5l1.7.4c1.4.4 2.6 1.5 2.9 2.9l.4 1.7c.3 1 .1 2.1-.5 3l-3.9 6.6L433 26v206.3l5.3 1.3c1 .3 1.9.9 2.5 1.8l.9 1.5c.7 1.3.7 2.9 0 4.2zM406.5 26.5c3.5 3.5 9.2 3.5 12.7 0s3.5-9.2 0-12.7-9.2-3.5-12.7 0-3.5 9.2 0 12.7zm-17.3-5.3l22.6 22.6c.8.8 2 .8 2.8 0s.8-2 0-2.8L392 18.4c-.8-.8-2-.8-2.8 0-.8.8-.8 2 0 2.8zM120 18.4L97.4 41c-.8.8-.8 2 0 2.8s2 .8 2.8 0l22.6-22.6c.8-.8.8-2 0-2.8-.7-.8-2-.8-2.8 0zm-27.2 8.1c3.5 3.5 9.2 3.5 12.7 0s3.5-9.2 0-12.7-9.2-3.5-12.7 0-3.5 9.2 0 12.7zM91.3 248c5 0 9-4 9-9s-4-9-9-9-9 4-9 9 4 9 9 9zm14.2 237.5c-3.5-3.5-9.2-3.5-12.7 0s-3.5 9.2 0 12.7 9.2 3.5 12.7 0 3.5-9.2 0-12.7zm17.3 5.3l-22.6-22.6c-.8-.8-2-.8-2.8 0s-.8 2 0 2.8l22.6 22.6c.8.8 2 .8 2.8 0 .8-.8.8-2 0-2.8zm269.2 2.8l22.6-22.6c.8-.8.8-2 0-2.8s-2-.8-2.8 0l-22.6 22.6c-.8.8-.8 2 0 2.8.7.8 2 .8 2.8 0zm27.2-8.1c-3.5-3.5-9.2-3.5-12.7 0s-3.5 9.2 0 12.7 9.2 3.5 12.7 0 3.5-9.2 0-12.7zm3.8-158c0-19.7-4.6-39.2-13.3-56.9l-8-16.1c-6.3-12.8-3.4-28.2 7.1-37.9l3.7-3.4c6.7-6.1 10.4-14.7 10.4-23.7v-85.2c0-17-6.7-33.3-18.7-45.3l-26.5-26.5c-12-12-28.3-18.7-45.3-18.7h-153c-17 0-33.3 6.7-45.3 18.7L107.6 59c-12 12-18.7 28.3-18.7 45.3v85.2c0 9 3.8 17.6 10.4 23.7l3.7 3.4c10.6 9.6 13.5 25.1 7.1 37.9l-8 16.1C93.6 288.3 89 307.8 89 327.5v80c0 17 6.7 33.3 18.7 45.3l26.5 26.5c12 12 28.3 18.7 45.3 18.7h153c17 0 33.3-6.7 45.3-18.7l26.5-26.5c12-12 18.7-28.3 18.7-45.3v-80zm6.8-88.5c0-5-4-9-9-9s-9 4-9 9 4 9 9 9c4.9 0 9-4 9-9zm-7.1-1.6c-.6.1-1.3-.3-1.5-.9-.2-.5-.6-.5-.9 0-.2.5-.9.9-1.5.9-.6-.1-.8.3-.4.8s.3 1.3 0 1.7-.2.8.4.8c.6-.1 1.3.3 1.5.9.2.5.6.5.9 0 .2-.5.9-.9 1.5-.9.6.1.8-.3.4-.8s-.3-1.3 0-1.7.2-.9-.4-.8z" fill="#36434f"/></svg>