<svg version="1.1" id="icon" xmlns="http://www.w3.org/2000/svg" x="0" y="0" viewBox="0 0 512 512" xml:space="preserve"><style type="text/css">.st0{fill:#fff}</style><circle class="st0" cx="256" cy="256" r="11.3"/><path class="st0" d="M239.9 15.3l9.2 15.2c1.5 2.5 2.6 4 3.3 4.6.6.5 1.4.9 2.3 1v1h-16.3v-1c1.3-.1 2.1-.3 2.5-.7.4-.3.6-.7.6-1.2 0-.3-.1-.6-.2-.9-.2-.5-.8-1.6-1.7-3.1l-4.9-8-5.1 6.9c-1.5 2.1-2.3 3.5-2.3 4.3 0 .5.2 1 .6 1.5.4.5 1 .8 1.7 1 .3.1 1 .2 2.1.2v1h-12.8v-1c1.5-.2 2.6-.7 3.4-1.3 1.1-.8 2.6-2.6 4.6-5.3l6.6-9L225 6.6c-1.4-2.3-2.2-3.5-2.4-3.8-.4-.6-.9-1-1.3-1.3-.4-.3-1-.4-1.8-.6V0h16.6v1h-.8c-1 0-1.6.2-2 .5s-.6.8-.6 1.3c0 .4.1.7.2 1l1.7 2.8 4.1 7 3.5-4.8c1.8-2.5 2.7-4.2 2.7-5.2 0-.5-.1-.9-.4-1.4-.3-.4-.6-.7-1.1-1-.5-.2-1.2-.4-2.2-.4V0h12.3v1c-1 0-1.7.2-2.3.4s-1.2.7-1.9 1.4c-.4.4-1.5 1.8-3.2 4.1l-6.2 8.4zm33.6 20.8v1H256v-1h1.1c1 0 1.7-.2 2.3-.6.4-.3.8-.7 1-1.3.2-.4.3-1.6.3-3.4V6.3c0-1.9-.1-3.1-.3-3.6-.2-.5-.5-.9-1.1-1.2-.5-.3-1.3-.5-2.2-.5H256V0h17.5v1h-1.1c-1 0-1.7.2-2.3.6-.4.3-.8.7-1 1.3-.2.4-.3 1.6-.3 3.4v24.4c0 1.9.1 3.1.3 3.6.2.5.6.9 1.1 1.2.5.4 1.3.5 2.2.5l1.1.1zm19.6 0v1h-17.5v-1h1.1c1 0 1.7-.2 2.3-.6.4-.3.8-.7 1-1.3.2-.4.3-1.6.3-3.4V6.3c0-1.9-.1-3.1-.3-3.6-.2-.5-.5-.9-1.1-1.2-.6-.4-1.3-.5-2.2-.5h-1.1V0h17.5v1H292c-1 0-1.7.2-2.3.6-.4.3-.8.7-1 1.3-.2.4-.3 1.6-.3 3.4v24.4c0 1.9.1 3.1.3 3.6.2.5.6.9 1.1 1.2.5.4 1.3.5 2.2.5l1.1.1zm80.4 33.8l-.5.9-15.1-8.7.5-.9 1 .6c.8.5 1.6.7 2.3.7.5 0 1-.2 1.5-.6.4-.3 1-1.2 2-2.8L377.4 38c.9-1.6 1.5-2.7 1.5-3.2.1-.5 0-1-.3-1.6s-.9-1.1-1.7-1.6l-1-.6.5-.9 15.1 8.7-.5.9-1-.6c-.8-.5-1.6-.7-2.3-.7-.5 0-1 .2-1.5.6-.4.3-1 1.2-2 2.8L372 62.9c-.9 1.6-1.5 2.7-1.5 3.2-.1.5 0 1 .3 1.6s.9 1.1 1.7 1.6l1 .6zm72.4 75.2l-.9.5-8.7-15.1.9-.5.6 1c.5.8 1 1.4 1.7 1.7.4.2 1 .3 1.6.2.5-.1 1.5-.6 3.1-1.5l21.1-12.2c1.6-.9 2.6-1.6 2.9-2s.5-.9.5-1.6-.2-1.4-.7-2.2l-.6-1 .9-.5L477 127l-.9.5-.6-1c-.5-.8-1-1.4-1.7-1.7-.4-.2-1-.3-1.6-.2-.5.1-1.5.6-3.1 1.5L448 138.3c-1.6.9-2.6 1.6-2.9 2s-.5.9-.5 1.6c0 .7.2 1.4.7 2.2l.6 1zm9.8 17l-.9.5-8.7-15.1.9-.5.6 1c.5.8 1 1.4 1.7 1.7.4.2 1 .3 1.6.2.5-.1 1.5-.6 3.1-1.5l21.1-12.2c1.6-.9 2.6-1.6 2.9-2s.5-.9.5-1.6c0-.7-.2-1.4-.7-2.2l-.6-1 .9-.5 8.7 15.1-.9.5-.6-1c-.5-.8-1-1.4-1.7-1.7-.4-.2-1-.3-1.6-.2-.5.1-1.5.6-3.1 1.5L458 155.3c-1.6.9-2.6 1.6-2.9 2s-.5.9-.5 1.6c0 .7.2 1.4.7 2.2l.4 1zm20.2 83h-1v-17.5h1v1.1c0 1 .2 1.7.6 2.3.3.4.7.8 1.3 1 .4.2 1.6.3 3.4.3h24.4c1.9 0 3.1-.1 3.6-.3s.9-.5 1.2-1.1c.4-.6.5-1.3.5-2.2v-1.1h1v17.5h-1V244c0-1-.2-1.7-.6-2.3-.3-.4-.7-.8-1.3-1-.4-.2-1.6-.3-3.4-.3h-24.4c-1.9 0-3.1.1-3.6.3s-.9.6-1.2 1.1c-.4.5-.5 1.3-.5 2.2v1.1zm0 19.6h-1v-17.5h1v1.1c0 1 .2 1.7.6 2.3.3.4.7.8 1.3 1 .4.2 1.6.3 3.4.3h24.4c1.9 0 3.1-.1 3.6-.3s.9-.5 1.2-1.1c.4-.6.5-1.3.5-2.2v-1.1h1v17.5h-1v-1.1c0-1-.2-1.7-.6-2.3-.3-.4-.7-.8-1.3-1-.4-.2-1.6-.3-3.4-.3h-24.4c-1.9 0-3.1.1-3.6.3-.5.2-.9.6-1.2 1.1-.4.5-.5 1.3-.5 2.2v1.1zm0 19.6h-1v-17.5h1v1.1c0 1 .2 1.7.6 2.3.3.4.7.8 1.3 1 .4.2 1.6.3 3.4.3h24.4c1.9 0 3.1-.1 3.6-.3.5-.2.9-.5 1.2-1.1.4-.6.5-1.3.5-2.2v-1.1h1v17.5h-1v-1.1c0-1-.2-1.7-.6-2.3-.3-.4-.7-.8-1.3-1-.4-.2-1.6-.3-3.4-.3h-24.4c-1.9 0-3.1.1-3.6.3-.5.2-.9.6-1.2 1.1-.4.5-.5 1.3-.5 2.2v1.1zm-24.5 73.2l-.9-.5 8.7-15.1.9.5-.6 1c-.5.8-.7 1.6-.7 2.3 0 .5.2 1 .6 1.5.3.4 1.2 1 2.8 2l21.1 12.2c1.6.9 2.7 1.5 3.2 1.5.5.1 1 0 1.6-.3s1.1-.9 1.6-1.7l.6-1 .9.5-8.7 15.1-.9-.5.6-1c.5-.8.7-1.6.7-2.3 0-.5-.2-1-.6-1.5-.3-.4-1.2-1-2.8-2L458.3 356c-1.6-.9-2.7-1.5-3.2-1.5-.5-.1-1 0-1.6.3s-1.1.9-1.6 1.7l-.5 1zm12.7 50.1l-.9-.5c.4-1.2.3-2.5-.2-3.9-.4-1.1-1.8-3-4-5.9l-18.8-24.1.4-.7 31.3 4.8c3.8.6 6 .8 6.8.7.8-.1 1.6-.7 2.3-1.7l.9.5-8 13.9-.9-.5.3-.5c.7-1.3 1-2.2 1-2.9 0-.5-.3-.8-.8-1.1-.3-.2-.7-.3-1.1-.4-.5-.1-1.7-.3-3.8-.6l-19.5-3.1 10.9 13.9c1.3 1.7 2.2 2.8 2.7 3.3s.9.9 1.4 1.1c.5.3 1 .4 1.5.4s1-.2 1.4-.5c.6-.5 1.2-1.2 1.8-2.2l.9.5-5.6 9.5zm-95.5 79l-.5-.9c.9-.8 1.5-2 1.7-3.5.1-1.1 0-3.5-.5-7.1l-4.2-30.3.7-.4 24.7 19.8c3 2.4 4.8 3.7 5.5 4s1.7.2 2.9-.3l.5.9-13.9 8-.5-.8.5-.3c1.3-.7 2-1.4 2.3-2 .2-.4.2-.9-.1-1.3-.2-.3-.4-.6-.8-.9-.3-.3-1.3-1.1-2.9-2.5l-15.4-12.4 2.5 17.5c.3 2.1.6 3.5.7 4.2.2.7.4 1.2.6 1.6.3.5.6.8 1.1 1.1.4.2.9.3 1.5.3.8-.1 1.7-.4 2.7-1l.5.9-9.6 5.4zM247.7 512v-1c1.2-.2 2.3-.9 3.3-2.2.7-.9 1.7-3.1 3.1-6.4l11.5-28.3h.8l11.4 29.5c1.4 3.6 2.3 5.6 2.8 6.3.5.6 1.4 1 2.6 1.2v1h-16v-1h.5c1.4 0 2.4-.2 3-.6.4-.3.6-.7.6-1.2 0-.3-.1-.7-.2-1.2-.1-.4-.6-1.6-1.3-3.6l-7.1-18.5-6.6 16.4c-.8 2-1.3 3.3-1.5 4s-.3 1.2-.3 1.7.1 1 .4 1.4c.3.4.6.7 1.2 1 .7.3 1.6.5 2.8.5v1h-11zm-18.9-36.1v-1h17.5v1h-1.1c-1 0-1.7.2-2.3.6-.4.3-.8.7-1 1.3-.2.4-.3 1.6-.3 3.4v24.4c0 1.9.1 3.1.3 3.6s.5.9 1.1 1.2c.6.4 1.3.5 2.2.5h1.1v1h-17.5v-1h1.1c1 0 1.7-.2 2.3-.6.4-.3.8-.7 1-1.3.2-.4.3-1.6.3-3.4v-24.4c0-1.9-.1-3.1-.3-3.6s-.6-.9-1.1-1.2c-.5-.4-1.3-.5-2.2-.5h-1.1zm-99.5 2.6l.5-.9c1.2.4 2.5.3 3.9-.2 1.1-.4 3-1.8 5.9-4l24.1-18.8.7.4-4.8 31.3c-.6 3.8-.8 6-.7 6.8s.7 1.6 1.7 2.3l-.5.9-13.9-8 .5-.9.5.3c1.3.7 2.2 1 2.9 1 .5 0 .8-.3 1.1-.8.2-.3.3-.7.4-1.1.1-.5.3-1.7.6-3.8l3.1-19.5-13.9 10.9c-1.7 1.3-2.8 2.2-3.3 2.7s-.9.9-1.1 1.4c-.3.5-.4 1-.4 1.5s.2 1 .5 1.4c.5.6 1.2 1.2 2.2 1.8l-.5.9-9.5-5.6zm1.6-40.8l.5-.9 15.1 8.7-.5.9-1-.6c-.8-.5-1.6-.7-2.3-.7-.5 0-1 .2-1.5.6-.4.3-1 1.2-2 2.8L127 469.6c-.9 1.6-1.5 2.7-1.5 3.2-.1.5 0 1 .3 1.6s.9 1.1 1.7 1.6l1 .6-.5.9-15.1-8.7.5-.9 1 .6c.8.5 1.6.7 2.3.7.5 0 1-.2 1.5-.6.4-.3 1-1.2 2-2.8l12.2-21.1c.9-1.6 1.5-2.7 1.5-3.2.1-.5 0-1-.3-1.6s-.9-1.1-1.7-1.6l-1-.6zm-16.9-9.8l.5-.9 15.1 8.7-.5.9-1-.6c-.8-.5-1.6-.7-2.3-.7-.5 0-1 .2-1.5.6-.4.3-1 1.2-2 2.8l-12.2 21.1c-.9 1.6-1.5 2.7-1.5 3.2-.1.5 0 1 .3 1.6s.9 1.1 1.7 1.6l1 .6-.5.9L96 459l.5-.9 1 .6c.8.5 1.6.7 2.3.7.5 0 1-.2 1.5-.6.4-.3 1-1.2 2-2.8l12.2-21.1c.9-1.6 1.5-2.7 1.5-3.2.1-.5 0-1-.3-1.6s-.9-1.1-1.7-1.6l-1-.6zm-74-34.1l.9-.5c.8.9 2 1.5 3.5 1.7 1.1.1 3.5 0 7.1-.5l30.3-4.2.4.7-19.8 24.7c-2.4 3-3.7 4.8-4 5.5s-.2 1.7.3 2.9l-.9.5-8-13.9.9-.5.3.5c.7 1.3 1.4 2 2 2.3.4.2.9.2 1.3-.1.3-.2.6-.4.9-.8.3-.3 1.1-1.3 2.5-2.9L70 393.7l-17.5 2.5c-2.1.3-3.5.6-4.2.7s-1.2.4-1.6.6c-.5.3-.8.6-1.1 1.1s-.3.9-.3 1.5c.1.8.4 1.7 1 2.7l-.9.5-5.4-9.5zm21.7-34.4l.9-.5 8.7 15.1-.9.5-.6-1c-.5-.8-1-1.4-1.7-1.7-.4-.2-1-.3-1.6-.2-.5.1-1.5.6-3.1 1.5l-21.1 12.2c-1.6.9-2.6 1.6-2.9 2-.3.4-.5.9-.5 1.6s.2 1.4.7 2.2l.6 1-.9.5-8.7-15.1.9-.5.6 1c.5.8 1 1.4 1.7 1.7.4.2 1 .3 1.6.2.5-.1 1.5-.6 3.1-1.5l21.1-12.2c1.6-.9 2.6-1.6 2.9-2 .3-.4.5-.9.5-1.6s-.2-1.4-.7-2.2l-.6-1zm-9.8-17l.9-.5 8.7 15.1-.9.5-.6-1c-.5-.8-1-1.4-1.7-1.7-.4-.2-1-.3-1.6-.2-.5.1-1.5.6-3.1 1.5l-21.1 12.2c-1.6.9-2.6 1.6-2.9 2s-.5.9-.5 1.6.2 1.4.7 2.2l.6 1-.9.5-8.7-15.1.9-.5.6 1c.5.8 1 1.4 1.7 1.7.4.2 1 .3 1.6.2.5-.1 1.5-.6 3.1-1.5l21.1-12.2c1.6-.9 2.6-1.6 2.9-2 .3-.4.5-.9.5-1.6s-.2-1.4-.7-2.2l-.6-1zm-9.8-17l.9-.5 8.7 15.1-.9.5-.6-1c-.5-.8-1-1.4-1.7-1.7-.4-.2-1-.3-1.6-.2-.5.1-1.5.6-3.1 1.5l-21.1 12.2c-1.6.9-2.6 1.6-2.9 2s-.5.9-.5 1.6.2 1.4.7 2.2l.6 1-.9.5-8.7-15.1.9-.5.6 1c.5.8 1 1.4 1.7 1.7.4.2 1 .3 1.6.2.5-.1 1.5-.6 3.1-1.5L40 332.2c1.6-.9 2.6-1.6 2.9-2 .3-.4.5-.9.5-1.6s-.2-1.4-.7-2.2l-.6-1zm-6-59.5h1v17.5h-1v-1.1c0-1-.2-1.7-.6-2.3-.3-.4-.7-.8-1.3-1-.4-.2-1.6-.3-3.4-.3H6.3c-1.9 0-3.1.1-3.6.3-.5.2-.9.5-1.2 1.1-.4.6-.5 1.3-.5 2.2v1.1H0v-17.5h1v1.1c0 1 .2 1.7.6 2.3.3.4.7.8 1.3 1 .4.2 1.6.3 3.4.3h24.4c1.9 0 3.1-.1 3.6-.3.5-.2.9-.6 1.2-1.1.4-.5.5-1.3.5-2.2l.1-1.1zm-20.8-22.5l15.2-9.2c2.5-1.5 4-2.6 4.6-3.3.5-.6.9-1.4 1-2.3h1v16.3h-1c-.1-1.3-.3-2.1-.7-2.5-.3-.4-.7-.6-1.2-.6-.3 0-.6.1-.9.2-.5.2-1.6.8-3.1 1.7l-8 4.9 6.9 5.1c2.1 1.5 3.5 2.3 4.3 2.3.5 0 1-.2 1.5-.6.5-.4.8-1 1-1.7.1-.3.2-1 .2-2.1h1v12.8h-1c-.2-1.5-.7-2.6-1.3-3.4-.8-1.1-2.6-2.6-5.3-4.6l-9-6.6-13.9 8.5c-2.3 1.4-3.5 2.2-3.8 2.4-.6.4-1 .9-1.3 1.3s-.4 1-.6 1.8H0v-16.6h1v.8c0 1 .2 1.6.5 2s.8.6 1.3.6c.4 0 .7-.1 1-.2l2.8-1.7 7-4.1-4.7-3.6c-2.5-1.8-4.2-2.7-5.2-2.7-.5 0-.9.1-1.4.4-.4.3-.7.6-1 1.1-.2.4-.3 1.2-.3 2.2H0v-12.3h1c0 1 .2 1.7.4 2.3s.7 1.2 1.4 1.9c.4.4 1.8 1.5 4.1 3.2l8.4 6.3zM49.1 133l17.8-.4c2.9-.1 4.8-.2 5.6-.5.8-.3 1.5-.8 2-1.5l.9.5-8.1 14.1-.9-.5c.6-1.2.8-2 .7-2.5-.1-.5-.3-.9-.8-1.1-.3-.2-.6-.3-.8-.3-.6-.1-1.8-.1-3.5 0l-9.4.2 3.4 7.9c1.1 2.4 1.9 3.7 2.6 4.1.5.3 1 .3 1.6.2s1.2-.5 1.7-1c.3-.2.7-.8 1.2-1.8l.9.5-6.5 11.1-.9-.5c.5-1.4.7-2.6.6-3.6-.2-1.4-.9-3.6-2.2-6.6L50.5 141l-16.3.4c-2.7.1-4.2.1-4.5.2-.7.1-1.3.2-1.8.5-.4.2-.9.7-1.4 1.2l-.9-.5 8.3-14.3.9.5-.4.7c-.5.8-.7 1.5-.6 2 .1.5.4.9.8 1.1.3.2.7.3 1 .4h3.3l8.1-.1-2.4-5.4c-1.2-2.8-2.3-4.4-3.1-4.9-.4-.2-.9-.4-1.4-.4s-1 .2-1.4.5-.9.9-1.4 1.7l-.9-.5 6.1-10.6.9.5c-.5.8-.7 1.6-.8 2.2s0 1.4.2 2.3c.2.6.8 2.2 1.9 4.8l4.4 9.7zm81.1-82.3l15.6 8.5c2.6 1.4 4.3 2.2 5.1 2.3s1.7 0 2.5-.3l.5.9-14.1 8.1-.5-.9c1.1-.7 1.7-1.4 1.8-1.8.2-.5.1-.9-.1-1.3-.2-.3-.4-.5-.6-.7-.5-.4-1.5-1-3-1.8l-8.2-4.5-1 8.5c-.3 2.6-.2 4.2.2 4.8.3.5.7.8 1.3 1s1.2.2 2 0c.4-.1 1-.4 1.9-.9l.5.9-11.1 6.4-.5-.9c1.1-.9 1.9-1.9 2.3-2.9.5-1.3 1-3.6 1.4-6.9l1.2-11.1-14.3-7.8c-2.3-1.3-3.7-2-4-2.1-.7-.3-1.3-.5-1.8-.5s-1.1.1-1.8.4l-.5-.9 14.3-8.3.5.9-.7.4c-.8.5-1.3 1-1.5 1.4-.2.5-.1.9.1 1.4.2.3.4.6.7.8l2.9 1.6 7.1 4 .7-5.9c.3-3 .3-5-.2-5.8-.2-.4-.6-.8-1-1-.4-.2-.9-.3-1.4-.3s-1.2.3-2.1.8l-.5-.9 10.6-6.1.5.9c-.8.5-1.4 1-1.8 1.5-.4.5-.7 1.2-1 2.1-.1.6-.4 2.3-.7 5.1l-1.3 10.9zm39.5 1.2l.5.9-15.2 8.7-.5-.9 1-.6c.8-.5 1.4-1 1.7-1.7.2-.4.3-1 .2-1.6-.1-.5-.6-1.5-1.5-3.1l-12.2-21.1c-.9-1.6-1.6-2.6-2-2.9s-.9-.5-1.6-.5c-.7 0-1.4.2-2.2.7l-1 .6-.5-.9 15.1-8.7.5.9-1 .6c-.8.5-1.4 1-1.7 1.7-.2.4-.3 1-.2 1.6.1.5.6 1.5 1.5 3.1l12.2 21.1c.9 1.6 1.6 2.6 2 2.9.4.3.9.5 1.6.5.7 0 1.4-.2 2.2-.7l1.1-.6z"/></svg>