<svg version="1.1" xmlns="http://www.w3.org/2000/svg" x="0" y="0" viewBox="0 0 512 512" xml:space="preserve"><path d="M281 256c0 13.8-11.2 25-25 25s-25-11.2-25-25 11.2-25 25-25 25 11.2 25 25zM188.1 24.7c.9 3.2 4.1 5.1 7.3 4.2 3.2-.9 5.1-4.1 4.2-7.3-.9-3.2-4.1-5.1-7.3-4.2-3.2.8-5.1 4.1-4.2 7.3zM316.6 481c-3.2.9-5.1 4.1-4.2 7.3.9 3.2 4.1 5.1 7.3 4.2 3.2-.9 5.1-4.1 4.2-7.3-.8-3.1-4.1-5-7.3-4.2zm-4.3-459.4c-.9 3.2 1 6.5 4.2 7.3 3.2.9 6.5-1 7.3-4.2.9-3.2-1-6.5-4.2-7.3-3.1-.9-6.4 1-7.3 4.2zM199.7 488.4c.9-3.2-1-6.5-4.2-7.3-3.2-.9-6.5 1-7.3 4.2-.9 3.2 1 6.5 4.2 7.3 3.1.9 6.4-1 7.3-4.2zM30 194.4c.9-3.2-1-6.5-4.2-7.3-3.2-.9-6.5 1-7.3 4.2-.9 3.2 1 6.5 4.2 7.3 3.1.9 6.4-1 7.3-4.2zm456.3 128.5c3.2.9 6.5-1 7.3-4.2.9-3.2-1-6.5-4.2-7.3-3.2-.9-6.5 1-7.3 4.2-.9 3.2 1 6.5 4.2 7.3zM82.1 81.1c-2.3 2.3-2.3 6.1 0 8.5 2.3 2.3 6.1 2.3 8.5 0 2.3-2.3 2.3-6.1 0-8.5s-6.2-2.4-8.5 0zm347.8 347.8c2.3-2.3 2.3-6.1 0-8.5-2.3-2.3-6.1-2.3-8.5 0-2.3 2.3-2.3 6.1 0 8.5s6.2 2.4 8.5 0zm-8.4-347.8c-2.3 2.3-2.3 6.1 0 8.5 2.3 2.3 6.1 2.3 8.5 0 2.3-2.3 2.3-6.1 0-8.5-2.4-2.4-6.2-2.4-8.5 0zm-331 347.8c2.3-2.3 2.3-6.1 0-8.5-2.3-2.3-6.1-2.3-8.5 0-2.3 2.3-2.3 6.1 0 8.5 2.4 2.4 6.2 2.4 8.5 0zm403.1-237.6c-.9-3.2-4.1-5.1-7.3-4.2-3.2.9-5.1 4.1-4.2 7.3.9 3.2 4.1 5.1 7.3 4.2 3.2-.8 5.1-4.1 4.2-7.3zM18.4 318.7c.9 3.2 4.1 5.1 7.3 4.2 3.2-.9 5.1-4.1 4.2-7.3-.9-3.2-4.1-5.1-7.3-4.2-3.2.8-5.1 4.1-4.2 7.3zm64.7 114.9l-5.8 5.8c29.9 29.2 67 51.1 108.3 62.9l2.1-7.9c-9.6-2.7-19-6.1-28.2-10-28.5-12.1-54.2-29.2-76.4-50.8zm269.4 50.8c-9.2 3.9-18.6 7.2-28.2 10l2.1 7.9c41.3-11.8 78.4-33.7 108.3-62.9l-5.8-5.8c-22.2 21.6-47.9 38.7-76.4 50.8zM256 503.9c-20.6 0-40.9-2.5-60.5-7.4l-2.1 7.9c20 5 41 7.7 62.6 7.7s42.6-2.7 62.6-7.7l-2.1-7.9c-19.6 4.9-39.9 7.4-60.5 7.4zm228.4-151.4c-11.9 28.1-28.6 53.4-49.8 75.4l5.8 5.8c29-30 50.6-67.1 62.2-108.5l-7.9-2.1c-2.8 10-6.3 19.8-10.3 29.4zm0-193c3.8 9 7.1 18.2 9.8 27.5l7.9-2.1c-11.8-41-33.7-77.8-62.7-107.6l-5.8 5.8c21.6 22.2 38.7 47.9 50.8 76.4zm19.7 33.2l-7.9 2.1c5.1 19.9 7.6 40.4 7.6 61.2 0 20.2-2.4 40.1-7.2 59.4l7.9 2.1c4.9-19.7 7.4-40.3 7.4-61.5.1-21.9-2.6-43.1-7.8-63.3zM159.5 27.6c9.4-4 19-7.3 28.7-10.1l-2.1-7.9c-41.1 11.6-77.9 33.2-107.8 62l5.8 5.8c22-21.1 47.4-37.9 75.4-49.8zM27.6 159.5c12.1-28.5 29.2-54.2 50.8-76.4l-5.8-5.8c-29 29.8-50.8 66.6-62.7 107.6l7.9 2.1c2.8-9.3 6-18.5 9.8-27.5zm0 193c-4.1-9.6-7.5-19.4-10.3-29.4l-7.9 2.1c11.6 41.3 33.3 78.4 62.2 108.5l5.8-5.8c-21.1-22-37.9-47.4-49.8-75.4zm400.3-275l5.8-5.8c-29.9-28.8-66.7-50.4-107.8-62l-2.1 7.9c9.7 2.8 19.3 6.1 28.7 10.1 28 11.8 53.4 28.6 75.4 49.8zM8.1 256c0-20.9 2.6-41.4 7.6-61.2l-7.9-2.1C2.7 212.9 0 234.1 0 256c0 21.2 2.6 41.8 7.4 61.5l7.9-2.1c-4.7-19.3-7.2-39.2-7.2-59.4zM256 8.1c20.5 0 40.5 2.5 60 7.3l2.1-7.9C298.2 2.6 277.4 0 256 0s-42.2 2.6-62.1 7.6l2.1 7.9c19.5-4.9 39.5-7.4 60-7.4zm5 106.9V62h-10v53h10zm-10 282v53h10v-53h-10zM62 261h53v-10H62v10zm388-10h-53v10h53v-10zm-69.4-61.2l45.9-26.5-5-8.7-45.9 26.5 5 8.7zM131.4 322.2l-45.9 26.5 5 8.7 45.9-26.5-5-8.7zm23.3-231.7l26.5 45.9 8.7-5-26.5-45.9-8.7 5zm202.6 331l-26.5-45.9-8.7 5 26.5 45.9 8.7-5zm69.2-72.8l-45.9-26.5-5 8.7 45.9 26.5 5-8.7zm-341-185.4l45.9 26.5 5-8.7-45.9-26.5-5 8.7zm236.7-31.9l8.7 5 26.5-45.9-8.7-5-26.5 45.9zM189.8 380.6l-8.7-5-26.5 45.9 8.7 5 26.5-45.9zm46.3-275.8l8-.8-3.4-32.8-8 .8 3.4 32.8zm43.3 335.3l-3.4-32.8-8 .8 3.4 32.8 8-.8zM221.3 73.7l-7.8 1.7 6.9 32.3 7.8-1.7-6.9-32.3zM283.8 406l6.9 32.3 7.8-1.7-6.9-32.3-7.8 1.7zM202.5 78.3l-7.6 2.5 10.2 31.4 7.6-2.5-10.2-31.4zm107 355.4l7.6-2.5-10.2-31.4-7.6 2.5 10.2 31.4zM197.6 115.1L184.2 85l-7.3 3.3 13.4 30.1 7.3-3.3zm137.5 308.7l-13.4-30.1-7.3 3.3 13.4 30.1 7.3-3.3zm-20.7-308.7l7.3 3.3 13.4-30.1-7.3-3.3-13.4 30.1zM197.6 396.9l-7.3-3.3-13.4 30.1 7.3 3.3 13.4-30.1zm101.7-287.2l7.6 2.5 10.2-31.4-7.6-2.5-10.2 31.4zm-86.6 292.6l-7.6-2.5-10.2 31.4 7.6 2.5 10.2-31.4zm78-328.6l-6.9 32.3 7.8 1.7 6.9-32.3-7.8-1.7zm-77.2 362.9l7.8 1.7 6.9-32.3-7.8-1.7-6.9 32.3zm65.9-364.7l-8-.8-3.4 32.8 8 .8 3.4-32.8zm-46.8 368.2l8 .8 3.4-32.8-8-.8-3.4 32.8zM88.2 176.9l-3.3 7.3 30.1 13.4 3.3-7.3-30.1-13.4zm335.6 158.2l3.3-7.3-30.1-13.4-3.3 7.3 30.1 13.4zm-311.6-130l-31.4-10.2-2.5 7.6 31.4 10.2 2.5-7.6zm290.1 94.2l-2.5 7.6 31.4 10.2 2.5-7.6-31.4-10.2zm-294.6-78.9l-32.3-6.9-1.7 7.8 32.3 6.9 1.7-7.8zm296.6 71.2l32.3 6.9 1.7-7.8-32.3-6.9-1.7 7.8zm-333.2-51l32.8 3.4.8-8-32.8-3.4-.8 8zm369.8 30.8l-32.8-3.4-.8 8 32.8 3.4.8-8zM163.1 135l6.5-4.7-19.4-26.7-6.5 4.7 19.4 26.7zm198.7 273.4l6.5-4.7-19.4-26.7-6.5 4.7 19.4 26.7zM128.9 120.8l22.1 24.5 5.9-5.4-22.1-24.5-5.9 5.4zm254.2 270.4L361 366.7l-5.9 5.4 22.1 24.5 5.9-5.4zM115.5 134.8l24.5 22.1 5.4-5.9-24.5-22.1-5.4 5.9zm281 242.4L372 355.1l-5.4 5.9 24.5 22.1 5.4-5.9zm-292.9-227l26.7 19.4 4.7-6.5-26.7-19.4-4.7 6.5zm304.8 211.6l-26.7-19.4-4.7 6.5 26.7 19.4 4.7-6.5zM135 348.9l-4.7-6.5-26.7 19.4 4.7 6.5 26.7-19.4zm242-185.8l4.7 6.5 26.7-19.4-4.7-6.5-26.7 19.4zM145.3 361l-5.4-5.9-24.5 22.1 5.4 5.9 24.5-22.1zm221.4-210l5.4 5.9 24.5-22.1-5.4-5.9-24.5 22.1zM156.9 372l-5.9-5.4-22.1 24.5 5.9 5.4 22.1-24.5zm198.2-232l5.9 5.4 22.1-24.5-5.9-5.4-22.1 24.5zM143.7 403.7l6.5 4.7 19.4-26.7-6.5-4.7-19.4 26.7zm218.1-300.1l-19.4 26.7 6.5 4.7 19.4-26.7-6.5-4.7zM71.9 279.4l32.8-3.4-.8-8-32.8 3.4.8 8zm369-38.8l-.8-8-32.8 3.4.8 8 32.8-3.4zM106 283.8l-32.3 6.9 1.7 7.8 32.3-6.9-1.7-7.8zm298.3-63.4l1.7 7.8 32.3-6.9-1.7-7.8-32.3 6.9zm-292.1 86.5l-2.5-7.6-31.4 10.2 2.5 7.6 31.4-10.2zm287.6-101.8l2.5 7.6 31.4-10.2-2.5-7.6-31.4 10.2zM84.9 327.8l3.3 7.3 30.1-13.4-3.3-7.3-30.1 13.4zm342.2-143.6l-3.3-7.3-30.1 13.4 3.3 7.3 30.1-13.4zM235.6 49.4l-2.2.2c-.5.3-.4 1.7.1 1.9 1.9-.1 5.2-.2 8.7-.2 3.3 0 6.6.1 8.5.2.5-.2.6-1.6.1-1.9l-2.2-.2c-2.6-.2-3-.8-3-5.1V23.7c0-2.7.1-5.2.2-6.4-.1-.4-.5-.6-.8-.6-.4 0-2.4 1-4.8 1.7-2.2.6-4.7 1.2-6.9 1.5-.4.3-.4 1.6.1 1.9l2.5.3c2.4.3 2.6 1.1 2.6 4.7v17.4c.1 4.4-.2 5-2.9 5.2zm45-6.6c-1.6 2.9-2.2 3-6.2 3h-6.5c-.8 0-1-.3-1-.6 0-.4.5-1.2 2.9-3.4l2.6-2.4c6.5-6.1 8.2-9.1 8.2-13.3 0-5.1-3.9-9.2-10.2-9.2-5.2 0-10.2 3-12.4 8.4.1.9 1.1 1.2 1.8.8 1.7-3 3.9-5 7-5 3.6 0 5.9 2.9 5.9 6.6 0 5.8-3.3 10.3-7.1 14.4-3.2 3.6-6.3 6.4-8.4 8.3-.1.5.1 1.1.5 1.2.9-.1 3.2-.2 6-.2h8.6c3.5 0 5.4.1 7.6.2.9-1.3 2.2-5 2.6-8.4-.3-.8-1.5-.8-1.9-.4zM256.4 491c7.5 0 12.4-4.9 12.4-11.9 0-5.2-3-10.2-9.7-10.2-1.9 0-4.4 1.2-5.4 2.4-.1.4.1.8.4 1 .5-.1.9-.1 1.2-.1 4.6 0 6.2 6.6 6.2 10.3 0 2.5-.9 6.1-4.1 6.1-4 0-5.9-6.8-5.9-12.5 0-5 1.2-10.2 4.1-13.8 3-3.7 5.9-5.9 12.5-7.6.5-.6.4-1.6-.2-1.9-6.5.3-13 3.4-17.2 7.4-4.3 4.2-7.1 10.2-7.1 16.3-.1 8.5 4.6 14.5 12.8 14.5zM48.8 250.1c0-7.5-4.6-13.9-12.9-13.9-6.7 0-12 4.9-12 11.8 0 5.5 4.1 9.6 9.2 9.6 2.2 0 4.4-.7 5.3-1.7.1-.4-.1-1-.3-1.1-.5 0-.8 0-1.5-.1-3.7-.6-5.5-5.3-5.5-9.7 0-3.2 1.5-6.3 4-6.3 4.5 0 5.7 7.8 5.7 11.9 0 9.9-5.5 19-16 21.6-.5.4-.4 1.5.2 1.8 4.5-.2 11.7-3.3 16.2-7.5 4.7-4.2 7.6-9.9 7.6-16.4zm423.3 21c-.8 0-1.7-.3-2.3-1.2-.5-.7-1.7-2.9-3.6-2.9-2.2 0-3.2 1.5-3.2 3 0 2.8 2.9 3.8 5.8 3.8s7.8-1 12.5-4.3c4.3-3.2 6.2-7.1 6.2-11 0-5.2-4.2-8.5-9.1-8.4-.7 0-1.1-.4-.5-.7 5.9-2.5 6.8-4.8 6.8-7 0-3.6-3.3-6.2-8.6-6.2-4.9 0-9.1 2.5-11.3 6.9 0 .6.8 1.2 1.5 1 1.6-2.4 4.1-4.5 6.6-4.5 2.6 0 4.4 1.9 4.4 3.9 0 2.4-1.3 4-2.3 4.9-2.2 1.8-6.5 3.6-8.7 4.4-.5 1.2.2 2.4 1.2 2.6 1.3-1.2 3.1-2.3 5.3-2.3 3.8 0 6.3 3.5 6.3 8.3.2 6.6-4.7 9.7-7 9.7zM127.9 78.8l-2.2.2c-.5.3-.4 1.7.1 1.9 1.9-.1 5.2-.2 8.7-.2 3.3 0 6.6.1 8.5.2.5-.2.6-1.6.1-1.9l-2.2-.2c-2.6-.2-3-.8-3-5.1V53.1c0-2.7.1-5.2.2-6.4-.1-.4-.5-.6-.8-.6-.4 0-2.4 1-4.8 1.7-2.2.6-4.7 1.2-6.9 1.5-.4.3-.4 1.6.1 1.9l2.5.3c2.4.3 2.6 1.1 2.6 4.7v17.4c.1 4.4-.3 5-2.9 5.2zm24.1 0l-2.2.2c-.5.3-.4 1.7.1 1.9 1.9-.1 5.2-.2 8.7-.2 3.3 0 6.6.1 8.5.2.5-.2.6-1.6.1-1.9l-2.2-.2c-2.6-.2-3-.8-3-5.1V53.1c0-2.7.1-5.2.2-6.4-.1-.4-.5-.6-.8-.6-.4 0-2.4 1-4.8 1.7-2.2.6-4.7 1.2-6.9 1.5-.4.3-.4 1.6.1 1.9l2.5.3c2.4.3 2.6 1.1 2.6 4.7v17.4c0 4.4-.3 5-2.9 5.2zm202.6 385.6c4.5-.1 10.2-1.1 14.6-3.6 4.5-2.4 7.8-6 7.8-11.7 0-4.5-2.7-7.5-5.7-9-3.1-1.6-8.2-2.3-11-2.6-1.1-.1-1.8-.3-1.5-1.6l.3-1.2c.2-.9.5-1.5 1.2-1.6l12.2-1.3c1.4-1.3 2.5-3.5 3-5.6 0-.4-.2-.6-.6-.6l-14.3 1.7c-1.7.2-2.1.2-2.4 1.6l-3.2 12.4c-.3 1.2-.1 1.7 1.6 1.8 5.4.4 13.5 1.2 13.5 9 0 2.9-1.8 5.4-5 7.3-2.5 1.5-6.9 2.3-10.8 2.4-.8.5-.5 2.2.3 2.6zM53.8 372.5c0-4 2.9-6.8 7.1-9-3.3-1.8-5.7-4.5-5.7-8.3 0-5.3 4.4-9.3 11.1-9.3 6.1 0 10.4 3.3 10.4 8.4 0 3.8-3 5.8-5.9 7.5 4 2.1 7.2 4.9 7.2 10.1 0 5.1-3.9 9.3-12.4 9.3-6.3.1-11.8-2.8-11.8-8.7zm8-19c0 2.5 1.8 4.8 6.3 6.7 1.7-1 2.6-3.3 2.6-5.9 0-3.7-2.3-5.8-4.5-5.8-2.5 0-4.4 2.1-4.4 5zm-1 18.4c0 3.8 2.2 6.9 5.7 6.9 2.4 0 4.5-1.8 4.5-5.1 0-4.3-3-6.5-7.5-8.6-1.9 1.9-2.7 4.3-2.7 6.8zM433.1 160c-.1.5.1 1.1.5 1.2.9-.1 3.2-.2 6-.2h8.6c3.5 0 5.4.1 7.6.2.9-1.3 2.2-5 2.6-8.4-.2-.7-1.5-.7-1.8-.3-1.6 2.9-2.2 3-6.2 3H444c-.8 0-1-.3-1-.6 0-.4.5-1.2 2.9-3.4l2.6-2.4c6.5-6.1 8.2-9.1 8.2-13.3 0-5.1-3.9-9.2-10.2-9.2-5.2 0-10.2 3-12.4 8.4.1.9 1.1 1.2 1.8.8 1.7-3 3.9-5 7-5 3.6 0 5.9 2.9 5.9 6.6 0 5.8-3.3 10.3-7.1 14.4-3.4 3.5-6.5 6.3-8.6 8.2zm-370.4 1.2c.5-.2.6-1.6.1-1.9l-2.2-.2c-2.6-.2-3-.8-3-5.1v-20.6c0-2.7.1-5.2.2-6.4-.1-.4-.5-.6-.8-.6-.4 0-2.4 1-4.8 1.7-2.2.6-4.7 1.2-6.9 1.5-.4.3-.4 1.6.1 1.9l2.5.3c2.4.3 2.6 1.1 2.6 4.7v17.4c0 4.3-.3 4.9-3 5.1l-2.2.2c-.5.3-.4 1.7.1 1.9 1.9-.1 5.2-.2 8.7-.2 3.4.1 6.7.2 8.6.3zm15.2-34.7c8.7 0 12.5 9.3 12.5 17.7 0 8.7-3.7 17.7-12.5 17.7s-12.5-9-12.5-17.7c.1-8.4 3.8-17.7 12.5-17.7zm0 2.5c-4.1 0-4.6 10.4-4.6 15.2s.5 15.2 4.6 15.2 4.6-10.4 4.6-15.2S82 129 77.9 129zm377.5 241.5h3.6c.8-.5.8-2.6 0-3h-3.6c-1.1 0-1.2-.2-1.2-1.6v-10.3c0-.5-.2-.9-.7-.9-.9 0-3.8 1.1-5.2 1.7-.9.3-1.2.7-1.2 1.9v7.6c0 1.4-.1 1.6-1.2 1.6h-6.6c-1.7 0-1.7-.4-1.2-1.1l16.2-22.5c.8-1.1.4-1.5-.5-1.5H452c-.8 0-1.2.4-1.8 1.3l-17.6 25.1c-.2.7-.1 1.5.6 1.7h12.5c1.1 0 1.2.2 1.2 1.6v1.5c0 4.4-.3 4.9-3 5.1l-2.2.2c-.5.3-.4 1.7.1 1.9 1.8-.1 5.1-.2 8.6-.2 2.5 0 5.3.1 7.3.2.5-.2.6-1.6.1-1.9l-1.1-.1c-2.4-.2-2.7-.7-2.7-5.1v-1.5c.1-1.5.2-1.7 1.4-1.7zm-318.9 92c.1 1.2 1.7 1.8 2.6 1.7l15.6-27.5c2.3-4 4-6.9 5.3-8.9.1-.3-.1-.8-.5-.9-.7.1-4.4.2-7.8.2h-10.4c-3.4 0-4.7-.1-6.5-.2-.5 2.1-1.2 5.5-2.1 8.1.2.6 1.4.9 1.8.4 1.2-2.3 1.8-2.6 4.9-2.6H151c.8 0 1.6.2 1.6.9 0 .9-.6 2.2-1.8 4.3l-14.3 24.5zM359.4 78.8l-2.2.2c-.5.3-.4 1.7.1 1.9 1.9-.1 5.2-.2 8.7-.2 3.3 0 6.6.1 8.5.2.5-.2.6-1.6.1-1.9l-2.2-.2c-2.6-.2-3-.8-3-5.1V53.1c0-2.7.1-5.2.2-6.4-.1-.4-.5-.6-.8-.6-.4 0-2.4 1-4.8 1.7-2.2.6-4.7 1.2-6.9 1.5-.4.3-.4 1.6.1 1.9l2.5.3c2.4.3 2.6 1.1 2.6 4.7v17.4c.1 4.4-.2 5-2.9 5.2z" fill="#fff"/></svg>