<svg version="1.1" id="image" xmlns="http://www.w3.org/2000/svg" x="0" y="0" viewBox="0 0 1366 728" xml:space="preserve"><style type="text/css">.st0{fill:#fff}.st4{fill:#f1f3f4}.st5{fill:#5f6368}.st8{display:none;fill:#4c4c4c}.st9{fill:#80868b}</style><path class="st0" d="M0 70h1366v658H0z"/><path fill="#dee1e6" d="M0 0h1366v34H0z"/><path class="st0" d="M726 27V7c0-3.9-3.1-7-7-7H493c-3.9 0-7 3.1-7 7v20c0 3.9-3.1 7-7 7h254c-3.9 0-7-3.1-7-7z"/><path d="M236 13.7l-.7-.7-3.3 3.3-3.3-3.3-.7.7 3.3 3.3-3.3 3.3.7.7 3.3-3.3 3.3 3.3.7-.7-3.3-3.3zm239 0l-.7-.7-3.3 3.3-3.3-3.3-.7.7 3.3 3.3-3.3 3.3.7.7 3.3-3.3 3.3 3.3.7-.7-3.3-3.3z" fill="#5f6265"/><path fill="#5d6063" d="M714 13.7l-.7-.7-3.3 3.3-3.3-3.3-.7.7 3.3 3.3-3.3 3.3.7.7 3.3-3.3 3.3 3.3.7-.7-3.3-3.3z"/><path class="st0" d="M0 34h1366v36H0z"/><path class="st4" d="M1290 52c0 7.7-6.3 14-14 14H122c-7.7 0-14-6.3-14-14s6.3-14 14-14h1154c7.7 0 14 6.3 14 14z"/><path class="st5" d="M29 51H18.8l4.7-4.6-1.4-1.4-5.7 5.6-.4.4-1 1 1 1 6.1 6 1.4-1.4-4.7-4.6H29v-2z"/><path d="M47 53h10.2l-4.7 4.6 1.4 1.4 5.7-5.6.4-.4 1-1-1-1-6.1-6-1.4 1.4 4.7 4.6H47v2z" fill="#babcbe"/><path class="st5" d="M93 51v-6l-2.1 2.1c-1.2-1.3-3-2.1-4.9-2.1-3.9 0-7 3.1-7 7s3.1 7 7 7c3.5 0 6.4-2.6 6.9-6h-2c-.5 2.3-2.5 4-4.9 4-2.8 0-5-2.2-5-5s2.2-5 5-5c1.4 0 2.6.6 3.5 1.5L87 51h6zm1252.5 1c0 .8-.7 1.5-1.5 1.5s-1.5-.7-1.5-1.5.7-1.5 1.5-1.5 1.5.7 1.5 1.5zm-1.5-7c-.8 0-1.5.7-1.5 1.5s.7 1.5 1.5 1.5 1.5-.7 1.5-1.5-.7-1.5-1.5-1.5zm0 11c-.8 0-1.5.7-1.5 1.5s.7 1.5 1.5 1.5 1.5-.7 1.5-1.5-.7-1.5-1.5-1.5z"/><path d="M1246 14h10v1h-10v-1zm48-5v2h-2v8h8v-2h2V9h-8zm-1 9v-6h6v6h-6zm8-2h-1v-5h-5v-1h6v6zm47-6.3l-.7-.7-4.3 4.3-4.3-4.3-.7.7 4.3 4.3-4.3 4.3.7.7 4.3-4.3 4.3 4.3.7-.7-4.3-4.3 4.3-4.3z"/><path class="st5" d="M129 49.5v-1c0-1.7-1.3-3-3-3s-3 1.3-3 3v1h-1v7h8v-7h-1zm-5 0v-1c0-1.1.9-2 2-2s2 .9 2 2v1h-4zm1148-1.8l1.1 2.7.2.6h3.3l-2.3 2.3-.5.5.2.6.9 2.2-2.5-1.5-.4-.3-.5.3-2.5 1.5.9-2.2.2-.6-.4-.5-2.3-2.3h3.3l.3-.6 1-2.7m0-2.7l-2 5h-5l4 4-2 5 5-3 5 3-2-5 4-4h-5l-2-5z"/><path class="st8" d="M126 45c3.3 0 6 2.7 6 6s-2.7 6-6 6-6-2.7-6-6 2.7-6 6-6m0-1c-3.9 0-7 3.1-7 7s3.1 7 7 7 7-3.1 7-7-3.1-7-7-7zm1 5h-2v-2h2v2zm0 1h-2v5h2v-5z"/><path class="st8" d="M127 45.5h-5v11h8v-8l-3-3zm1.6 3H127v-1.6l1.6 1.6zm.4 7h-6v-9h3v3h3v6z"/><path class="st9" d="M143.5 46.6h1.2v4.2c.2-.4.5-.7.9-.9.4-.2.8-.4 1.3-.4.9 0 2.4.6 2.4 2.9v4h-1.2v-3.9c0-1.1-.4-2-1.6-2-.8 0-1.4.6-1.7 1.2-.1.2-.1.4-.1.6v4.1h-1.2v-9.8zm9.2 1.2v1.9h1.8v.9h-1.8v3.7c0 .8.2 1.3.9 1.3.3 0 .6 0 .7-.1l.1.9c-.2.1-.6.2-1.1.2-.6 0-1-.2-1.3-.5-.4-.4-.5-1-.5-1.8v-3.7h-1.1v-.9h1.1v-1.6l1.2-.3zm4.7 0v1.9h1.8v.9h-1.8v3.7c0 .8.2 1.3.9 1.3.3 0 .6 0 .7-.1l.1.9c-.2.1-.6.2-1.1.2-.6 0-1-.2-1.3-.5-.4-.4-.5-1-.5-1.8v-3.7h-1.1v-.9h1.1v-1.6l1.2-.3zm3.1 4.1c0-.9 0-1.6-.1-2.2h1.1l.1 1.2c.5-.8 1.3-1.3 2.4-1.3 1.6 0 2.9 1.4 2.9 3.4 0 2.4-1.5 3.6-3.1 3.6-.9 0-1.7-.4-2.1-1.1v3.7h-1.2v-7.3zm1.2 1.8c0 .2 0 .4.1.5.2.9 1 1.4 1.8 1.4 1.3 0 2.1-1.1 2.1-2.6 0-1.4-.7-2.5-2-2.5-.8 0-1.6.6-1.9 1.5 0 .2-.1.3-.1.5v1.2zm6.6 1.5c.4.2 1 .5 1.6.5.9 0 1.3-.4 1.3-1s-.4-.9-1.3-1.2c-1.2-.4-1.8-1.1-1.8-1.9 0-1.1.9-2 2.3-2 .7 0 1.3.2 1.7.4l-.3.9c-.3-.2-.8-.4-1.4-.4-.7 0-1.1.4-1.1.9 0 .6.4.8 1.3 1.1 1.2.4 1.8 1 1.8 2 0 1.2-.9 2-2.5 2-.7 0-1.4-.2-1.9-.5l.3-.8zm5.4-4.4c0-.5.4-.9.8-.9s.8.4.8.9-.3.9-.8.9c-.4 0-.8-.4-.8-.9zm0 5c0-.5.4-.9.8-.9s.8.4.8.9-.3.9-.8.9c-.4 0-.8-.4-.8-.9zm2.2 1.3l3.9-10.2h1l-3.9 10.2h-1zm4.8 0l3.9-10.2h1l-3.9 10.2h-1z"/><path d="M186.5 46.6h1.2v4.2c.2-.4.5-.7.9-.9.4-.2.8-.4 1.3-.4.9 0 2.4.6 2.4 2.9v4h-1.2v-3.9c0-1.1-.4-2-1.6-2-.8 0-1.4.6-1.7 1.2-.1.2-.1.4-.1.6v4.1h-1.2v-9.8zm11.5 9.9l-.1-.9c-.4.5-1.1 1-2.1 1-1.4 0-2.1-1-2.1-1.9 0-1.6 1.5-2.5 4.1-2.5V52c0-.6-.2-1.6-1.5-1.6-.6 0-1.3.2-1.8.5l-.3-.8c.6-.4 1.4-.6 2.2-.6 2.1 0 2.6 1.4 2.6 2.8v2.5c0 .6 0 1.2.1 1.6H198zm-.1-3.5c-1.3 0-2.9.2-2.9 1.5 0 .8.5 1.2 1.2 1.2.9 0 1.4-.6 1.6-1.1 0-.1.1-.3.1-.4V53zm3.1-1.2c0-.8 0-1.5-.1-2.1h1.1V51h.1c.3-.9 1.1-1.5 1.9-1.5h.4v1.2h-.4c-.9 0-1.5.7-1.7 1.6 0 .2-.1.4-.1.6v3.6H201v-4.7zm4.7 0c0-.8 0-1.5-.1-2.1h1.1V51h.1c.3-.9 1.1-1.5 1.9-1.5h.4v1.2h-.4c-.9 0-1.5.7-1.7 1.6 0 .2-.1.4-.1.6v3.6h-1.2v-4.7zm6-4c0 .4-.3.8-.8.8-.4 0-.7-.3-.7-.8 0-.4.3-.8.8-.8.4 0 .7.4.7.8zm-1.4 8.7v-6.8h1.2v6.8h-1.2zm3.9-6.8l1 1.5c.3.4.5.7.7 1.1.2-.4.4-.8.7-1.1l1-1.4h1.3l-2.3 3.3 2.4 3.5h-1.4l-1-1.5c-.3-.4-.5-.8-.7-1.2-.2.4-.5.8-.7 1.2l-1 1.5h-1.4l2.4-3.5-2.3-3.3h1.3zm5.6 6.1c0-.5.4-.9.8-.9s.8.4.8.9-.3.9-.8.9-.8-.4-.8-.9zm4.5-8c0 .4-.3.8-.8.8-.4 0-.7-.3-.7-.8 0-.4.3-.8.8-.8.4 0 .7.4.7.8zm-1.3 8.7v-6.8h1.2v6.8H223zm9.4-3.4c0 2.5-1.7 3.6-3.4 3.6-1.8 0-3.3-1.3-3.3-3.5 0-2.3 1.5-3.6 3.4-3.6 2 0 3.3 1.4 3.3 3.5zm-5.4 0c0 1.5.9 2.6 2.1 2.6 1.2 0 2.1-1.1 2.1-2.6 0-1.1-.6-2.6-2-2.6-1.6 0-2.2 1.3-2.2 2.6z" fill="#202124"/><path class="st9" d="M232.9 57.1l3.9-10.2h1l-3.9 10.2h-1zm5.8-.6c0-.5.1-1.1.1-1.8v-8.2h1.2v4.3c.4-.8 1.2-1.2 2.3-1.2 1.7 0 2.9 1.4 2.9 3.5 0 2.4-1.5 3.6-3 3.6-1 0-1.8-.4-2.3-1.3l-.1 1.1h-1.1zm1.2-2.7c0 .2 0 .3.1.4.2.9 1 1.4 1.8 1.4 1.3 0 2.1-1.1 2.1-2.6 0-1.4-.7-2.5-2-2.5-.8 0-1.6.6-1.9 1.5 0 .1-.1.3-.1.5v1.3zm6.8-7.2h1.2v9.9h-1.2v-9.9zm9.4 6.5c0 2.5-1.7 3.6-3.4 3.6-1.8 0-3.3-1.3-3.3-3.5 0-2.3 1.5-3.6 3.4-3.6 2 0 3.3 1.4 3.3 3.5zm-5.4 0c0 1.5.9 2.6 2.1 2.6 1.2 0 2.1-1.1 2.1-2.6 0-1.1-.6-2.6-2-2.6-1.5 0-2.2 1.3-2.2 2.6zm12.8-3.4c0 .5-.1 1-.1 1.9v3.9c0 1.6-.3 2.5-1 3.1-.7.6-1.6.8-2.5.8-.8 0-1.7-.2-2.3-.6l.3-.9c.4.3 1.1.5 2 .5 1.3 0 2.2-.7 2.2-2.4v-.8c-.4.6-1.1 1.1-2.2 1.1-1.7 0-2.9-1.4-2.9-3.3 0-2.3 1.5-3.6 3.1-3.6 1.2 0 1.8.6 2.1 1.2l.1-1h1.2zm-1.3 2.7c0-.2 0-.4-.1-.6-.2-.7-.8-1.3-1.7-1.3-1.2 0-2 1-2 2.6 0 1.3.7 2.4 2 2.4.8 0 1.4-.5 1.7-1.3.1-.2.1-.4.1-.7v-1.1z"/><path fill="#a4a7ab" d="M247 7h1v21h-1z"/><path fill="#3c4043" d="M754 16h-5v-5h-2v5h-5v2h5v5h2v-5h5z"/><circle class="st4" cx="1312" cy="52" r="10"/></svg>