<?xml version="1.0" encoding="utf-8"?>
<!-- Generator: Adobe Illustrator 19.2.0, SVG Export Plug-In . SVG Version: 6.00 Build 0)  -->
<svg version="1.1" id="Layer_2" xmlns="http://www.w3.org/2000/svg" xmlns:xlink="http://www.w3.org/1999/xlink" x="0px" y="0px"
	 viewBox="0 0 512 512" style="enable-background:new 0 0 512 512;" xml:space="preserve">
<style type="text/css">
	.st0{fill:#FFFFFF;}
	.st1{fill:#221E1F;}
	.st2{fill:#98CD70;}
	.st3{fill:#D07B84;}
	.st4{fill:#DCC576;}
</style>
<g>
	<g>
		<ellipse transform="matrix(0.59 -0.8074 0.8074 0.59 45.7621 383.3383)" class="st0" cx="400.3" cy="146.6" rx="73.7" ry="51.7"/>
		<path class="st1" d="M380.6,216.3c-9.5,0-18.2-2.7-25.4-7.9c-24.2-17.7-23.7-59.8,1.1-93.9l0,0c24.9-34,64.8-47.3,89.1-29.6
			c11.9,8.7,18.3,23.4,17.9,41.3c-0.3,17.6-7.1,36.2-19,52.6c-11.9,16.3-27.7,28.5-44.3,34.1C393.3,215.1,386.8,216.3,380.6,216.3z
			 M360.8,117.7c-23.1,31.6-24.1,70.2-2.3,86.1c10.4,7.6,24.5,8.9,39.7,3.8c15.6-5.3,30.3-16.7,41.6-32.1c11.3-15.4,17.7-33,18-49.4
			c0.3-16.1-5.3-29.1-15.7-36.7C420.4,73.4,383.9,86.2,360.8,117.7L360.8,117.7z"/>
	</g>
	<g>
		<path class="st2" d="M182.5,265.1c0,0,2.1,9.9,0,14.7S166,298,166,298l30.3,4.1c0,0,3.8-10.3,4.7-16.9c0.9-6.7,0-14.6,0-14.6"/>
		<path class="st1" d="M198.2,305.2l-38.3-5.2l4.2-4c5.4-5.1,14.5-14.2,15.9-17.3c1.3-2.9,0.6-9.5-0.2-13l5.4-1.1
			c0.2,1.1,2.2,10.9-0.2,16.3c-1.6,3.6-8.3,10.6-13,15.2l22.5,3.1c1.1-3.3,3.2-9.7,3.9-14.3c0.9-6.2,0-13.8,0-13.9l5.5-0.6
			c0,0.3,1,8.3,0,15.3c-1,6.9-4.7,17.1-4.9,17.5L198.2,305.2z"/>
	</g>
	<g>
		<path class="st2" d="M320,163.7c-17.8-4.8-61.9-43.5-124.4-47.8c-62.5-4.3-97.4,75.4-107.2,107.2s-14.1,57.6-9.8,98.7
			c4.3,41.1,28.8,83,43.2,98.4s33.4,34.6,60.4,34.6c36.2,0,49.1-26.7,52.1-39.5c4.1-22-16.9-64.3-45.4-65.9
			c-28.5-1.5-36.8,16.5-36.8,28.8s14.4,25.7,25.4,26.4s23-6.7,21.8-17.2c-1.2-10.4-9.2-5.5-9.2-5.5s1.8,9.2-6.1,9.8
			s-15.3-6.1-14.1-13.5s9.2-14.1,22.7-12.3c13.5,1.8,28.8,29.4,26.4,42.9c-2.5,13.5-8,34.3-37.4,28.2c-38-8-84.6-77.2-82.7-127.5
			c1.8-50.3,39.2-77.2,39.2-77.2s30.6,42.9,90.1,40.4s101.1-15.9,101.1-15.9s15.3,6.3,38,4.3c33.1-6.7,63.9-32.5,63.9-32.5
			s-20.3-37.4-39.3-48.4S337.8,168.5,320,163.7z"/>
		<path class="st1" d="M182.1,457.5c-29,0-49.1-21.4-62.4-35.5c-15.2-16.2-39.7-59.1-43.9-100c-4.4-42.2,0.3-68.5,9.9-99.8
			c3.6-11.7,37.3-114.2,110.1-109.2c44.9,3.1,80.1,23.5,103.4,36.9c9.3,5.4,16.7,9.6,21.5,10.9c5.9,1.6,14.1,2.8,22.7,4
			c17.2,2.5,36.7,5.3,49.6,12.8c19.4,11.3,39.5,47.9,40.4,49.5l1.1,2l-1.7,1.4c-1.3,1.1-31.6,26.3-65.1,33.1l-0.3,0
			c-20.1,1.8-34.6-2.7-38.3-4.1c-6.6,2-46.6,13.5-100.9,15.8c-52.2,2.2-83.1-30.3-90.6-39.3c-7.7,6.5-34.5,31.9-36,73.4
			c-1.8,48,42.7,116.7,80.5,124.7c9.5,2,17,1.1,22.4-2.5c7.5-5,10.1-14.7,11.7-23.5c1.2-6.8-3-19-9.8-28.5
			c-4.7-6.5-9.9-10.6-14.2-11.2c-11.5-1.6-18.6,3.8-19.6,10c-0.4,2.3,0.4,4.7,2.2,6.7c2.2,2.4,5.7,3.8,8.9,3.6
			c1.3-0.1,2.3-0.5,2.8-1.3c1.2-1.5,1-4.3,0.8-5.2l-0.4-1.9l1.6-1c0.5-0.3,4.7-2.7,8.6-0.9c2.7,1.3,4.3,4.1,4.8,8.4
			c0.5,4.6-1,9-4.4,12.7c-4.7,5-12.7,8-20.2,7.6c-12.2-0.7-28-14.9-28-29.1c0-4.1,0.9-14.4,9.4-22.4c7.1-6.7,17.3-9.8,30.2-9.1
			c11.4,0.6,22.8,7.5,32,19.3c11.8,15,18.5,36,15.9,49.9C232.4,435.1,215.4,457.5,182.1,457.5z M190.7,118.4
			c-65.3,0-96.3,94.5-99.7,105.5c-9.4,30.6-14,56.3-9.7,97.6c4.1,39.6,27.8,81.1,42.5,96.8c12.6,13.4,31.7,33.8,58.4,33.8
			c39.5,0,48.5-33.6,49.4-37.4c2.3-12.1-4.1-31.7-14.8-45.3c-8.3-10.5-18.2-16.6-28-17.2c-11.4-0.6-20.2,1.9-26.2,7.6
			c-7,6.6-7.7,15.1-7.7,18.4c0,10.8,13.4,23.1,22.8,23.6c6,0.3,12.2-2,15.9-5.8c1.6-1.7,3.4-4.5,3-8.2c-0.3-2.2-0.9-3.7-1.7-4.1
			c-0.5-0.2-1.2-0.2-1.8,0c0.1,2-0.2,5-2,7.4c-1.1,1.4-3.1,3.2-6.8,3.5c-5,0.4-10-1.6-13.4-5.3c-3-3.2-4.3-7.4-3.6-11.3
			c1.5-8.8,10.8-16.6,25.8-14.5c5.8,0.8,12.2,5.6,17.9,13.4c6.5,8.9,12.6,22.9,10.8,32.7c-1.8,9.9-4.9,20.9-14.1,27.1
			c-6.7,4.5-15.6,5.6-26.6,3.3c-18.7-3.9-40.4-22.3-58-49.1c-17.7-26.9-27.8-57.3-26.9-81.2c1.9-51,38.8-78.2,40.4-79.4l2.2-1.6
			l1.6,2.2c0.3,0.4,30.5,41.6,87.7,39.3c58.3-2.4,100-15.7,100.4-15.8l1-0.3l0.9,0.4c0.1,0.1,15,6,36.5,4.1
			c27.5-5.7,53.7-25,60.7-30.4c-4.5-7.8-21.5-36.3-37.2-45.3c-12-7-31-9.7-47.7-12.1c-8.8-1.3-17.1-2.5-23.4-4.2
			c-5.5-1.5-13.2-5.9-22.8-11.5c-22.9-13.2-57.5-33.2-101.1-36.2C193.8,118.5,192.2,118.4,190.7,118.4z"/>
	</g>
	<g>
		
			<ellipse transform="matrix(0.9874 -0.1585 0.1585 0.9874 -17.2233 50.9155)" class="st0" cx="310.7" cy="133.5" rx="54.2" ry="76.7"/>
		<path class="st1" d="M316.7,212.4c-28.7,0-55.9-29.7-62.3-69.9C247.5,99.2,267,60,298.1,55c31-5,61.9,26.2,68.9,69.4l0,0
			c6.9,43.3-12.7,82.5-43.7,87.5C321.1,212.3,318.9,212.4,316.7,212.4z M304.7,60c-1.9,0-3.8,0.2-5.8,0.5
			c-28,4.5-45.6,40.9-39.1,81.2c6.5,40.3,34.5,69.3,62.5,64.8c28-4.5,45.6-40.9,39.1-81.2C355.5,87.8,330.7,60,304.7,60z"/>
	</g>
	<circle class="st1" cx="295" cy="146.1" r="12.7"/>
	<circle class="st1" cx="431" cy="133.5" r="12.7"/>
	<g>
		<g>
			<path class="st3" d="M46.7,293.3H9.9c0,0-4.1,8.6-4.1,17c0,8.4,4.1,17,4.1,17h36.8V293.3z"/>
			<path class="st1" d="M49.4,330H8.2l-0.8-1.6c-0.2-0.4-4.4-9.3-4.4-18.2c0-9,4.2-17.8,4.4-18.2l0.8-1.6h41.3V330z M11.7,324.5
				h32.2V296H11.7c-1.1,2.7-3.2,8.6-3.2,14.2C8.5,315.9,10.6,321.8,11.7,324.5z"/>
		</g>
		<g>
			<path class="st0" d="M76.1,293.3H39.3c0,0-4.1,8.6-4.1,17c0,8.4,4.1,17,4.1,17h36.8V293.3z"/>
			<path class="st1" d="M78.8,330H37.6l-0.8-1.6c-0.2-0.4-4.4-9.3-4.4-18.2c0-9,4.2-17.8,4.4-18.2l0.8-1.6h41.3V330z M41.1,324.5
				h32.2V296H41.1c-1.1,2.7-3.2,8.6-3.2,14.2C37.9,315.9,40,321.8,41.1,324.5z"/>
		</g>
		<g>
			<path class="st0" d="M89,293.3H52.2c0,0-4.1,8.6-4.1,17c0,8.4,4.1,17,4.1,17H89V293.3z"/>
			<path class="st1" d="M91.7,330H50.4l-0.8-1.6c-0.2-0.4-4.4-9.3-4.4-18.2c0-9,4.2-17.8,4.4-18.2l0.8-1.6h41.3V330z M54,324.5h32.2
				V296H54c-1.1,2.7-3.2,8.6-3.2,14.2C50.8,315.9,52.9,321.8,54,324.5z"/>
		</g>
		<path class="st4" d="M410.1,293.3h-345c0,0-4.1,8.6-4.1,17c0,8.4,4.1,17,4.1,17h345l84.9-17L410.1,293.3z"/>
		<path class="st0" d="M410.1,293.3c0,0-5.1,6-5.1,17c0,11,5.1,17,5.1,17l84.9-17L410.1,293.3z"/>
		<path class="st1" d="M410.4,330h-347l-0.8-1.6c-0.2-0.4-4.4-9.3-4.4-18.2c0-9,4.2-17.8,4.4-18.2l0.8-1.6l347.3,0.1l98.4,19.7
			L410.4,330z M66.9,324.5h343l71.1-14.2L409.8,296h-343c-1.1,2.7-3.2,8.6-3.2,14.2C63.7,315.9,65.8,321.8,66.9,324.5z"/>
		<path class="st1" d="M453.6,302c0,0-2.1,3.8-2.1,8.3s2.1,8.3,2.1,8.3l41.4-8.3L453.6,302z"/>
		<g>
			<line class="st2" x1="405" y1="310.3" x2="60.9" y2="310.3"/>
			<rect x="60.9" y="307.5" class="st1" width="344" height="5.5"/>
		</g>
		<g>
			<path class="st0" d="M410.1,293.3c0,0-5.1,6-5.1,17c0,11,5.1,17,5.1,17"/>
			<path class="st1" d="M408,329.1c-0.2-0.3-5.8-6.9-5.8-18.8c0-11.9,5.6-18.5,5.8-18.8l4.2,3.6l-2.1-1.8l2.1,1.8
				c0,0.1-4.5,5.5-4.5,15.2c0,9.8,4.4,15.2,4.5,15.2L408,329.1z"/>
		</g>
	</g>
	<g>
		<path class="st2" d="M329.5,327.3c0,2.5,11.1,19.1,30.9,17.1c20.4-2,30.9-17.1,30.9-17.1h-20.2c0,0-5.7,3.2-13.3,3.2
			c-7.7,0-12.1-1.1-14.5-3.2s-1.9-4.7-7.7-4.7C331.3,322.5,329.5,324.8,329.5,327.3z"/>
		<path class="st1" d="M357.3,347.3c-11.3,0-19.3-5.6-23.2-9.1c-3.6-3.2-7.3-8.1-7.3-10.9c0-3.7,2.7-7.5,8.9-7.5
			c5.2,0,6.9,1.9,8.5,4.1c0.4,0.5,0.7,1,1.1,1.4c1.9,1.7,6,2.5,12.6,2.5c6.9,0,11.9-2.8,12-2.8l0.6-0.4h26.2l-3,4.3
			c-0.5,0.7-11.5,16.2-32.9,18.3C359.5,347.3,358.4,347.3,357.3,347.3z M332.3,327.1c0.8,2.1,10.2,16.3,27.9,14.6
			c12-1.2,20.5-7.3,25-11.6h-13.4c-1.8,0.9-7.2,3.2-14,3.2c-8.3,0-13.3-1.2-16.3-3.9c-0.9-0.8-1.5-1.6-1.9-2.3
			c-0.9-1.3-1.2-1.7-3.9-1.7C334.4,325.3,332.4,325.5,332.3,327.1z"/>
	</g>
	<g>
		<path class="st2" d="M141.1,229.7c0,0-7.3,14.4-8,27.2c-0.7,12.9,5.3,30.8,5.3,30.8s-9.8,11.3-11.4,19.6
			c-0.8,4.1-0.5,8.7,4.6,15.3c5.3,6.8,10.2,10.2,12.5,10.8c4.6,1.1,7.6-0.9,10.6-2.5c3-1.6,7-2.8,4.4-3.7
			c-7.8-0.7-17-15.9-14.7-19.6c2.3-3.7,8.7-14.4,8.7-14.4h15.4c0,0-17.2-20.3-17-26s12-27.3,12-27.3"/>
		<path class="st1" d="M146.7,336.5c-1,0-2.1-0.1-3.3-0.4c-3.7-0.9-9.2-5.5-14-11.7c-6.1-7.8-5.9-13.5-5.1-17.5
			c1.4-7.3,8.4-16.4,11-19.7c-1.4-4.6-5.6-19.1-5-30.3c0.7-13.3,8-27.7,8.3-28.4l4.9,2.5c-0.1,0.1-7.1,14-7.7,26.1
			c-0.7,12.2,5.1,29.6,5.1,29.8l0.5,1.5l-1,1.2c-2.6,3-9.6,12.1-10.8,18.3c-0.6,3.3-0.6,7.1,4.1,13.1c4.9,6.3,9.4,9.4,11,9.8
			c3.1,0.8,5.2-0.4,7.8-1.8l0.8-0.5c0.2-0.1,0.3-0.2,0.5-0.3c-4.4-2.6-8.3-7.6-10.6-12.2c-1.5-3-2.9-7.2-1.2-9.9
			c2.3-3.6,8.6-14.2,8.6-14.3l0.8-1.4h11.1c-5.7-7-14.1-18.4-13.9-23.4c0.2-6.1,10.3-24.8,12.3-28.5l4.8,2.6
			c-4.4,8.1-11.5,22.3-11.6,26.1c-0.1,2.8,8.4,14.7,16.4,24.2l3.9,4.5h-19.8c-1.8,3-6,10-7.8,13c-0.1,0.9,0.8,4.3,3.7,8.4
			c2.9,4.1,6.4,6.8,8.8,7.1l0.7,0.1c2.2,0.8,2.6,2.3,2.7,3.1c0.1,2.4-2,3.4-4.6,4.6c-0.7,0.3-1.5,0.7-2.2,1l-0.8,0.4
			C152.9,335.1,150.3,336.5,146.7,336.5z M146.8,309L146.8,309z"/>
	</g>
	<g>
		<path class="st2" d="M248,240c0,0-6.9,14.7-4.6,26.7c2.3,12,18.1,26.7,18.1,26.7s-1.4,12,0,19s5.6,22.5,16.5,25
			c10.8,2.4,19.5-10,19.5-10h-14.5c0,0-7.5-9.8-6.4-17s14.7-17,14.7-17h13c0,0-8.6-9.1-16.2-8.8c-7.7,0.2-15.6,7-15.6,7
			s-4.8-8.9-6.2-10.6c-1.4-1.7-7-18.5-5.6-24.7s8.9-16.2,8.9-16.2"/>
		<path class="st1" d="M280.8,340.3c-1.1,0-2.3-0.1-3.5-0.4c-12.1-2.7-16.8-18.2-18.6-27.1c-1.2-6-0.5-15-0.2-18.5
			c-3.6-3.6-15.8-16.2-17.9-27.2c-2.4-12.7,4.5-27.7,4.8-28.4l5,2.3c-0.1,0.1-6.5,14.1-4.4,25c2.1,10.9,17.1,25,17.3,25.2l1,0.9
			l-0.2,1.4c0,0.1-1.3,11.6,0,18.2c1.2,6.2,5,20.7,14.4,22.8c5,1.1,9.6-1.8,12.7-4.5h-9.6l-0.8-1.1c-0.8-1.1-8.2-10.9-7-19.1
			c1.2-8.1,14.3-17.8,15.8-18.8l0.7-0.5h6.4c-2.7-1.8-5.9-3.4-8.6-3.3c-6.6,0.2-13.9,6.3-13.9,6.3l-2.6,2.2l-1.6-3
			c-2-3.6-5.1-9.1-5.9-10.1c-1.9-2.3-7.7-20.1-6.2-27c1.5-6.6,9-16.8,9.4-17.3l4.4,3.3c-2,2.7-7.4,10.7-8.4,15.2
			c-1.1,4.9,3.8,20.4,5.1,22.4c1,1.2,3.3,5.2,4.9,8.1c3.2-2.2,8.9-5.5,14.7-5.6c8.6-0.3,17.3,8.7,18.3,9.7l4.4,4.7h-18.5
			c-4.9,3.7-12.2,10.4-12.9,14.7c-0.7,4.4,2.9,10.7,5.1,13.8h18.3l-3,4.3C299.3,329.4,291.6,340.3,280.8,340.3z"/>
	</g>
	<g>
		<path class="st2" d="M304.2,263.2l29,30.1c0,0-0.7,1.7-3.4,7.4s-3.7,8.4-1.2,9.7s9.5-5.8,12.6-9.7s5.8-7.4,5.8-7.4H390
			c0,0-15-10-25.6-10.6c-10.6-0.5-20.8-1.1-20.8-1.1l-14.4-24.8"/>
		<path class="st1" d="M329.1,313.1c-0.6,0-1.2-0.1-1.8-0.4c-5.2-2.6-2.3-8.6,0-13.3c1.3-2.7,2.1-4.5,2.7-5.6l-27.7-28.8l4-3.8
			l30.3,31.4l-0.7,1.7c0,0.1-0.8,1.8-3.5,7.5c-0.5,1.1-1.9,4-2.3,5.5c2-1.1,6-4.7,9-8.4l6.7-8.4h34c-4.8-2.4-10.6-4.8-15.4-5.1
			l-22.3-1.1l-15.2-26.1l4.8-2.8l13.7,23.5l19.3,1c11.2,0.6,26.3,10.6,27,11l7.6,5.1h-50.8l-5,6.3
			C342.3,303.5,334.6,313.1,329.1,313.1z"/>
	</g>
	<path class="st1" d="M276.6,270.9l-0.8-5.5c32-4.7,52.4-11.2,52.6-11.3l1-0.3l0.9,0.4c0.1,0,12.1,4.9,30.1,4.4l0.1,5.5
		c-16.5,0.4-28.1-3.3-31.4-4.5C324.7,261.1,305.2,266.7,276.6,270.9z"/>
</g>
</svg>
