<svg version="1.1" xmlns="http://www.w3.org/2000/svg" x="0" y="0" viewBox="0 0 512 115" xml:space="preserve"><style type="text/css">.st0{fill:#721412}</style><path class="st0" d="M81.9 45.8c0 27.1-16.6 45.3-41.1 45.3C16.4 91.1 0 72.8 0 45.6 0 18.5 16.5 0 40.9 0c24.3 0 41 18.6 41 45.8zm-73.6-.5c0 23.3 12.9 38.6 32.6 38.6 19.7 0 32.7-15.3 32.7-38.2 0-23-13.2-38.5-32.8-38.5-19.4 0-32.5 15.4-32.5 38.1zM100.8 38.4c4.5-9.3 12-13.9 22.5-13.9 17.1 0 28.3 13.3 28.3 33.5 0 19.9-11.2 33.1-28.1 33.1-10.1 0-17.9-4.5-22.2-13.6v35h-7.4V26.3h7v12.1zm.3 19.4c0 16.5 8.3 26.7 21.5 26.7 12.8 0 21.2-10.5 21.2-26.6 0-16.5-8.3-27.1-21.5-27.1s-21.2 10.1-21.2 27zM189 91.1c-17.5 0-28.8-12.8-28.8-32.7s11.8-33.8 28.7-33.8c18.6 0 27.6 15.4 27.6 32.7v2.2H168c0 13.2 6.1 25.4 21.2 25.4 10 0 16.7-5.6 19.2-16.5h7.4c-2.6 13.9-12 22.7-26.8 22.7zm-.4-60.2c-13.7 0-19.2 10.6-20.6 22.3h40.8c-.9-13.9-8.5-22.3-20.2-22.3zM234.1 38.1c5-8.9 11.4-13.6 22.2-13.6 12.2 0 21.7 6.3 21.7 21.7V89h-7.7V48.7c0-12.9-6.5-17.5-16-17.5-11.5 0-19.8 7.6-19.8 23.8v34h-7.7V26.3h7.2v11.8z"/><path d="M342.3 27.7c-1-10.9-8.2-15.3-18.9-15.3-10.4 0-16.6 4.5-16.6 12.1 0 8.3 5.4 8.8 22.1 13.2 14.8 3.8 31.4 7.3 31.4 26 0 19.7-17.5 27.2-34.5 27.2-20.6 0-36.6-9.8-36.6-30.8h15c0 13.4 10.1 18.7 22.5 18.7 11.7 0 18.7-5.1 18.7-13.7 0-9-7.4-10.6-20.3-13.9-18.4-4.8-32.7-7.8-32.7-25.5C292.4 10.2 305 .3 324.5.3c17.7 0 31.7 7.9 32.5 27.3h-14.7zM421.4 27.7c-1-10.9-8.2-15.3-18.9-15.3-10.4 0-16.6 4.5-16.6 12.1 0 8.3 5.4 8.8 22.1 13.2 14.8 3.8 31.4 7.3 31.4 26 0 19.7-17.5 27.2-34.5 27.2-20.6 0-36.6-9.8-36.6-30.8h15c0 13.4 10.1 18.7 22.5 18.7 11.7 0 18.7-5.1 18.7-13.7 0-9-7.4-10.6-20.3-13.9-18.4-4.8-32.7-7.8-32.7-25.5 0-15.5 12.6-25.4 32.1-25.4 17.7 0 31.7 7.9 32.5 27.3h-14.7zM512 89h-59.6V2.1h15.4v73.7H512V89z"/><g><path d="M119.2 111.2c-4.9 0-8.1-3.6-8.1-9.1 0-4.9 3-9.1 8.3-9.1 3.5 0 6.7 1.9 7.3 5.9h-3c-.4-2.1-2.1-3.3-4.3-3.3-3.7 0-5.2 3.3-5.2 6.5s1.4 6.5 5.1 6.5c2.8 0 4.1-1.9 4.4-4.4h3.1c-.4 4.1-3.3 7-7.6 7zM136.3 100.6c-.5 0-.7-.1-1-.1-2.8 0-3.6 2.1-3.6 4.7v5.5h-2.8V98.1h2.6v2.5c.8-1.7 2.2-2.8 4.2-2.8h.5v2.8zM144.2 110.5c-.9 2.4-1.6 5.1-4.7 5.1-.6 0-1 0-1.9-.1v-2.3c.8.1 1.1.2 1.5.2 1.4 0 1.8-1.8 2.1-2.9l-4.8-12.2h3.1l3.4 9.3 3.2-9.3h2.9l-4.8 12.2zM153.1 99.8c.9-1.4 2.5-2.1 4.1-2.1 3.5 0 5.7 2.6 5.7 6.7 0 4-2.2 6.6-5.6 6.6-1.7 0-3.1-.6-4.1-2v6.3h-2.8V98.1h2.6v1.7zm0 4.6c0 2.7 1.3 4.4 3.5 4.4 2.1 0 3.4-1.7 3.4-4.3 0-2.7-1.3-4.5-3.5-4.5-2.1 0-3.4 1.7-3.4 4.4zM171.5 100.2H169v6.6c0 1.2 0 1.8 1.4 1.8h1.1v2.2c-.8.1-1.2.1-1.9.1-3.7 0-3.4-1.8-3.4-4.7v-6H164v-2h2.1v-3.8h2.8v3.8h2.5v2zM185.6 104.4c0 4.1-2.4 6.7-6.3 6.7s-6.4-2.6-6.4-6.7 2.5-6.7 6.4-6.7c3.8.1 6.3 2.7 6.3 6.7zm-9.9 0c0 2.8 1.3 4.5 3.6 4.5 2.2 0 3.5-1.7 3.5-4.5s-1.3-4.4-3.5-4.4-3.6 1.7-3.6 4.4zM199.5 109.3c0 4.1-1.5 6.4-6.1 6.4-3.4 0-5.3-1.3-5.6-3.8h2.8c.3 1.3 1.2 1.9 2.9 1.9 2.3 0 3.3-1.1 3.3-3.7v-1.5c-1 1.5-2.2 2.1-4 2.1-3.3 0-5.5-2.4-5.5-6.3 0-4 2.2-6.5 5.6-6.5 1.8 0 2.9.7 3.9 2.1v-1.8h2.6v11.1zm-9.4-5c0 2.5 1.3 4.1 3.3 4.1 2.1 0 3.4-1.7 3.4-4.3 0-2.6-1.3-4.1-3.4-4.1s-3.3 1.6-3.3 4.3zM209.5 100.6c-.5 0-.7-.1-1-.1-2.8 0-3.6 2.1-3.6 4.7v5.5h-2.8V98.1h2.6v2.5c.8-1.7 2.2-2.8 4.2-2.8h.5v2.8zM216.4 97.8c3 0 5.2 1.1 5.2 3.8v6.4c0 .7.1.9.7.9h.6v2c-.9.2-1.3.3-1.8.3-1.1 0-1.9-.4-2.1-1.5-1.1 1.1-2.8 1.5-4.4 1.5-2.6 0-4.2-1.4-4.2-3.8 0-3.3 3.1-3.7 5.6-4 1.9-.2 2.5-.4 2.8-.7.1-.1.2-.4.2-.9 0-1.3-.8-1.9-2.6-1.9s-2.6.6-2.8 2.2H211c.2-3.2 2.3-4.3 5.4-4.3zm-.4 7.3c-1.3.2-2.8.4-2.8 2.1 0 1.2.8 1.9 2.3 1.9 1.1 0 2.2-.4 2.9-1 .6-.6.6-1.4.6-2.2v-1.5c-1 .5-2 .6-3 .7zM227.2 99.8c.9-1.4 2.5-2.1 4.1-2.1 3.5 0 5.7 2.6 5.7 6.7 0 4-2.2 6.6-5.6 6.6-1.7 0-3.1-.6-4.1-2v6.3h-2.8V98.1h2.6v1.7zm.1 4.6c0 2.7 1.3 4.4 3.5 4.4 2.1 0 3.4-1.7 3.4-4.3 0-2.7-1.3-4.5-3.5-4.5-2.1 0-3.4 1.7-3.4 4.4zM242.3 99.9c.9-1.3 2.2-2.1 4-2.1 2.7 0 4.3 1.5 4.3 4.4v8.5h-2.8v-7.6c0-1.7-.4-3-2.4-3-2.3 0-3.1 1.7-3.1 3.8v6.8h-2.8V93.4h2.8v6.5zM259.9 110.5c-.9 2.4-1.6 5.1-4.7 5.1-.6 0-1 0-1.9-.1v-2.3c.8.1 1.1.2 1.5.2 1.4 0 1.8-1.8 2.1-2.9l-4.8-12.2h3.1l3.4 9.3 3.2-9.3h2.9l-4.8 12.2zM278.4 97.8c3 0 5.2 1.1 5.2 3.8v6.4c0 .7.1.9.7.9h.6v2c-.9.2-1.3.3-1.8.3-1.1 0-1.9-.4-2.1-1.5-1.1 1.1-2.8 1.5-4.4 1.5-2.6 0-4.2-1.4-4.2-3.8 0-3.3 3.1-3.7 5.6-4 1.9-.2 2.5-.4 2.8-.7.1-.1.2-.4.2-.9 0-1.3-.8-1.9-2.6-1.9s-2.6.6-2.8 2.2H273c.2-3.2 2.3-4.3 5.4-4.3zm-.5 7.3c-1.3.2-2.8.4-2.8 2.1 0 1.2.8 1.9 2.3 1.9 1.1 0 2.2-.4 2.9-1 .6-.6.6-1.4.6-2.2v-1.5c-1 .5-2 .6-3 .7zM289.2 100c1-1.5 2.3-2.2 4.2-2.2 2.9 0 4.3 1.7 4.3 4.5v8.4h-2.8v-7.3c0-1.7-.2-3.3-2.4-3.3-1.7 0-3.1.9-3.1 3.8v6.8h-2.8V98.1h2.6v1.9zM312.5 110.7h-2.6V109c-.8 1.4-2.1 2.1-4 2.1-3.6 0-5.8-2.6-5.8-6.7s2.2-6.6 5.7-6.6c1.8 0 3.1.7 4 2v-6.4h2.7v17.3zm-9.7-6.3c0 2.8 1.3 4.5 3.5 4.5s3.5-1.6 3.5-4.4c0-2.8-1.3-4.4-3.6-4.4-2-.1-3.4 1.6-3.4 4.3zM332.2 98.5c-.2-2.2-1.6-3.1-3.8-3.1-2.1 0-3.3.9-3.3 2.4 0 1.7 1.1 1.8 4.4 2.6 3 .8 6.3 1.5 6.3 5.2 0 3.9-3.5 5.4-6.9 5.4-4.1 0-7.3-2-7.3-6.2h3c0 2.7 2 3.7 4.5 3.7 2.3 0 3.7-1 3.7-2.7 0-1.8-1.5-2.1-4.1-2.8-3.7-1-6.5-1.6-6.5-5.1 0-3.1 2.5-5.1 6.4-5.1 3.5 0 6.3 1.6 6.5 5.5h-2.9zM348 98.5c-.2-2.2-1.6-3.1-3.8-3.1-2.1 0-3.3.9-3.3 2.4 0 1.7 1.1 1.8 4.4 2.6 3 .8 6.3 1.5 6.3 5.2 0 3.9-3.5 5.4-6.9 5.4-4.1 0-7.3-2-7.3-6.2h3c0 2.7 2 3.7 4.5 3.7 2.3 0 3.7-1 3.7-2.7 0-1.8-1.5-2.1-4.1-2.8-3.7-1-6.5-1.6-6.5-5.1 0-3.1 2.5-5.1 6.4-5.1 3.5 0 6.3 1.6 6.5 5.5H348zM366.2 110.7h-11.9V93.4h3.1v14.7h8.8v2.6z"/><path d="M368.5 111.2H366l7.1-18.2h2.4l-7 18.2z"/><path d="M389.3 96h-5.5v14.7h-3.1V96h-5.5v-2.6h14.1V96zM403.2 110.7h-11.9V93.4h3.1v14.7h8.8v2.6zM415 98.5c-.2-2.2-1.6-3.1-3.8-3.1-2.1 0-3.3.9-3.3 2.4 0 1.7 1.1 1.8 4.4 2.6 3 .8 6.3 1.5 6.3 5.2 0 3.9-3.5 5.4-6.9 5.4-4.1 0-7.3-2-7.3-6.2h3c0 2.7 2 3.7 4.5 3.7 2.3 0 3.7-1 3.7-2.7 0-1.8-1.5-2.1-4.1-2.8-3.7-1-6.5-1.6-6.5-5.1 0-3.1 2.5-5.1 6.4-5.1 3.5 0 6.3 1.6 6.5 5.5H415zM440.5 96H435v14.7h-3.1V96h-5.5v-2.6h14.1V96zM451.5 104.4c0 4.1-2.4 6.7-6.3 6.7s-6.4-2.6-6.4-6.7 2.5-6.7 6.4-6.7c3.9.1 6.3 2.7 6.3 6.7zm-9.9 0c0 2.8 1.3 4.5 3.6 4.5 2.2 0 3.5-1.7 3.5-4.5s-1.3-4.4-3.5-4.4-3.6 1.7-3.6 4.4zM466 104.4c0 4.1-2.4 6.7-6.3 6.7s-6.4-2.6-6.4-6.7 2.5-6.7 6.4-6.7c3.8.1 6.3 2.7 6.3 6.7zm-9.9 0c0 2.8 1.3 4.5 3.6 4.5 2.2 0 3.5-1.7 3.5-4.5s-1.3-4.4-3.5-4.4c-2.3 0-3.6 1.7-3.6 4.4zM471.2 110.7h-2.8V93.4h2.8v17.3zM480.6 102.8l5.3 8h-3.4l-3.8-6.1-1.7 1.6v4.5h-2.7V93.4h2.7v9.8l5-5h3.4l-4.8 4.6zM490.2 96h-2.8v-2.7h2.8V96zm0 14.7h-2.8V98.1h2.8v12.6zM499.4 100.2h-2.5v6.6c0 1.2 0 1.8 1.4 1.8h1.1v2.2c-.8.1-1.2.1-1.9.1-3.7 0-3.4-1.8-3.4-4.7v-6H492v-2h2.1v-3.8h2.8v3.8h2.5v2z"/></g></svg>