<svg version="1.1" id="icon" xmlns="http://www.w3.org/2000/svg" x="0" y="0" viewBox="0 0 512 512" xml:space="preserve"><style type="text/css">.st0{fill:#363636}</style><circle class="st0" cx="256" cy="256" r="10.6"/><path class="st0" d="M256 8.1c33.5 0 65.9 6.6 96.5 19.5 29.5 12.5 56 30.4 78.8 53.1 22.8 22.8 40.6 49.3 53.1 78.8 12.9 30.6 19.5 63 19.5 96.5s-6.6 65.9-19.5 96.5c-12.5 29.5-30.4 56-53.1 78.8-22.8 22.8-49.3 40.6-78.8 53.1-30.6 12.9-63 19.5-96.5 19.5s-65.9-6.6-96.5-19.5c-29.5-12.5-56-30.4-78.8-53.1C58 408.5 40.1 382 27.6 352.5c-12.9-30.6-19.5-63-19.5-96.5s6.6-65.9 19.5-96.5c12.5-29.5 30.4-56 53.1-78.8C103.5 58 130 40.1 159.5 27.6c30.6-12.9 63-19.5 96.5-19.5m0-8.1C114.6 0 0 114.6 0 256s114.6 256 256 256 256-114.6 256-256S397.4 0 256 0z"/><circle class="st0" cx="256" cy="24.9" r="7.3"/><circle class="st0" cx="256" cy="487.1" r="7.3"/><circle class="st0" cx="140.4" cy="55.8" r="7.3"/><circle class="st0" cx="371.6" cy="456.2" r="7.3"/><circle class="st0" cx="456.2" cy="140.4" r="7.3"/><circle class="st0" cx="55.8" cy="371.6" r="7.3"/><circle class="st0" cx="371.6" cy="55.8" r="7.3"/><circle class="st0" cx="140.4" cy="456.2" r="7.3"/><circle class="st0" cx="55.8" cy="140.4" r="7.3"/><circle class="st0" cx="456.2" cy="371.6" r="7.3"/><circle class="st0" cx="24.9" cy="256" r="7.3"/><circle class="st0" cx="487.1" cy="256" r="7.3"/><path class="st0" d="M460.3 248.3c0 1.7-.5 3.2-1.6 4.5s-2.5 2.1-4.5 2.5v.1c2.3.3 4 1 5.1 2.1 1.2 1.1 1.7 2.6 1.7 4.4 0 2.7-1 4.8-2.9 6.3s-4.7 2.2-8.4 2.2c-3 0-5.7-.5-8.1-1.5v-5c1.1.5 2.3 1 3.6 1.3 1.3.3 2.6.5 3.9.5 2 0 3.4-.3 4.3-1s1.4-1.7 1.4-3.2c0-1.3-.5-2.2-1.6-2.8s-2.8-.8-5.1-.8H446v-4.5h2.2c2.2 0 3.8-.3 4.8-.9 1-.6 1.5-1.5 1.5-2.9 0-2.1-1.3-3.2-4-3.2-.9 0-1.9.2-2.8.5-1 .3-2 .8-3.2 1.6l-2.7-4.1c2.6-1.8 5.6-2.8 9.1-2.8 2.9 0 5.2.6 6.9 1.8 1.7 1.2 2.5 2.8 2.5 4.9zM358.2 106.5h-5.9V90.3l.1-2.7.1-2.9c-1 1-1.7 1.6-2 1.9l-3.2 2.6-2.9-3.6 9-7.2h4.9v28.1zM155.9 435.1l10.5-23h-13.8v-5h20.1v3.7L162.1 435h-6.2zm277.4-261.3h-19.5v-4.1l7-7.1c2.1-2.1 3.4-3.6 4.1-4.4s1.1-1.6 1.4-2.3c.3-.7.4-1.4.4-2.2 0-1.1-.3-2-.9-2.5-.6-.5-1.4-.8-2.5-.8s-2.1.2-3.2.7c-1 .5-2.1 1.2-3.2 2.1l-3.2-3.8c1.4-1.2 2.5-2 3.4-2.5.9-.5 1.9-.9 3-1.1s2.3-.4 3.6-.4c1.7 0 3.3.3 4.6 1 1.3.6 2.4 1.5 3.1 2.7.7 1.1 1.1 2.5 1.1 3.9 0 1.3-.2 2.5-.7 3.6s-1.2 2.3-2.1 3.5c-1 1.2-2.6 2.9-5 5.1l-3.6 3.4v.3h12.2v4.9zM89.8 334.9c2.7 0 4.8.6 6.5 1.8 1.6 1.2 2.5 2.9 2.5 4.9 0 1.4-.4 2.7-1.2 3.8-.8 1.1-2.1 2.1-3.8 3 2.1 1.1 3.6 2.3 4.5 3.5.9 1.2 1.4 2.6 1.4 4 0 2.3-.9 4.1-2.7 5.5-1.8 1.4-4.2 2.1-7.1 2.1-3.1 0-5.5-.7-7.2-2-1.7-1.3-2.6-3.1-2.6-5.5 0-1.6.4-3 1.3-4.2s2.2-2.3 4.1-3.3c-1.6-1-2.7-2.1-3.4-3.2-.7-1.1-1.1-2.4-1.1-3.8 0-2 .8-3.6 2.5-4.9 1.5-1.1 3.7-1.7 6.3-1.7zm-4.3 20.9c0 1.1.4 2 1.1 2.6.8.6 1.8.9 3.1.9 1.5 0 2.6-.3 3.3-.9.7-.6 1.1-1.5 1.1-2.5 0-.9-.4-1.7-1.1-2.4s-1.9-1.5-3.5-2.4c-2.7 1.2-4 2.8-4 4.7zm4.3-16.6c-1 0-1.8.3-2.4.8s-.9 1.2-.9 2.1c0 .8.2 1.5.7 2.1.5.6 1.4 1.2 2.7 1.9 1.2-.6 2.1-1.2 2.6-1.8.5-.6.7-1.3.7-2.1 0-.9-.3-1.6-1-2.1-.6-.6-1.4-.9-2.4-.9zm-19.2-85.3c0 5.5-1.2 9.6-3.5 12.3-2.3 2.7-5.8 4.1-10.5 4.1-1.7 0-2.9-.1-3.8-.3v-4.7c1.1.3 2.2.4 3.4.4 2 0 3.6-.3 4.9-.9s2.3-1.5 2.9-2.7c.7-1.2 1.1-3 1.2-5.1H65c-.7 1.2-1.6 2-2.6 2.5s-2.2.7-3.6.7c-2.4 0-4.4-.8-5.8-2.3-1.4-1.6-2.1-3.7-2.1-6.5 0-3 .9-5.4 2.6-7.1 1.7-1.7 4-2.6 7-2.6 2.1 0 3.9.5 5.4 1.5s2.7 2.4 3.6 4.2c.7 1.8 1.1 4 1.1 6.5zm-10.1-7.5c-1.2 0-2.2.4-2.9 1.3-.7.8-1 2.1-1 3.6 0 1.4.3 2.4.9 3.2.6.8 1.6 1.2 2.9 1.2 1.2 0 2.2-.4 3.1-1.2.9-.8 1.3-1.7 1.3-2.7 0-1.5-.4-2.8-1.2-3.8-.9-1.1-1.9-1.6-3.1-1.6zM434 357.8h-3.4v5.8h-5.8v-5.8h-11.9v-4.1l12.3-18.1h5.5v17.6h3.4v4.6zm-9.1-4.6v-4.7c0-.8 0-1.9.1-3.4s.1-2.4.2-2.6h-.2c-.5 1-1 2.1-1.7 3.1l-5.1 7.7h6.7zM93 173.4h-5.9v-16.2l.1-2.7.1-2.9c-1 1-1.7 1.6-2 1.9l-3.2 2.6-2.9-3.6 9-7.2H93v28.1zm27.1-14c0 4.9-.8 8.5-2.4 10.8s-4.1 3.5-7.4 3.5c-3.2 0-5.7-1.2-7.3-3.6-1.6-2.4-2.5-6-2.5-10.7 0-4.9.8-8.6 2.4-10.9 1.6-2.3 4-3.5 7.4-3.5 3.2 0 5.7 1.2 7.3 3.7s2.5 6 2.5 10.7zm-13.7 0c0 3.4.3 5.9.9 7.4.6 1.5 1.6 2.2 3 2.2s2.4-.8 3-2.3c.6-1.5.9-4 .9-7.3 0-3.4-.3-5.9-.9-7.4-.6-1.5-1.6-2.2-3-2.2s-2.4.7-3 2.2c-.6 1.5-.9 4-.9 7.4zm245.3 257.4c2.7 0 4.9.8 6.5 2.3s2.4 3.6 2.4 6.2c0 3.1-1 5.5-2.9 7.2-1.9 1.7-4.7 2.5-8.3 2.5-3.1 0-5.6-.5-7.5-1.5v-5.1c1 .5 2.2 1 3.5 1.3 1.3.3 2.6.5 3.8.5 3.6 0 5.4-1.5 5.4-4.4 0-2.8-1.9-4.2-5.6-4.2-.7 0-1.4.1-2.2.2-.8.1-1.5.3-2 .4l-2.4-1.3 1.1-14.3h15.2v5h-10l-.5 5.5.7-.1c.7-.1 1.7-.2 2.8-.2zm-194-310.3h-5.9V90.3l.1-2.7.1-2.9c-1 1-1.7 1.6-2 1.9l-3.2 2.6-2.9-3.6 9-7.2h4.9v28.1zm22.3 0h-5.9V90.3l.1-2.7.1-2.9c-1 1-1.7 1.6-2 1.9l-3.2 2.6-2.9-3.6 9-7.2h4.9v28.1zm66.1 342.4c0-5.5 1.2-9.7 3.5-12.4 2.3-2.7 5.8-4.1 10.5-4.1 1.6 0 2.8.1 3.7.3v4.7c-1.1-.3-2.3-.4-3.4-.4-2 0-3.7.3-5 .9-1.3.6-2.2 1.5-2.9 2.7s-1 2.9-1.1 5.1h.2c1.3-2.2 3.3-3.3 6.1-3.3 2.5 0 4.5.8 5.9 2.4 1.4 1.6 2.1 3.7 2.1 6.5 0 3-.8 5.3-2.5 7.1-1.7 1.7-4 2.6-7 2.6-2.1 0-3.9-.5-5.4-1.4s-2.7-2.4-3.6-4.2c-.7-1.7-1.1-3.9-1.1-6.5zm10.1 7.5c1.3 0 2.2-.4 2.9-1.3s1-2.1 1-3.6c0-1.4-.3-2.4-.9-3.2-.6-.8-1.6-1.2-2.9-1.2-1.2 0-2.2.4-3.1 1.2-.8.8-1.3 1.7-1.3 2.7 0 1.5.4 2.8 1.2 3.8.9 1.1 1.9 1.6 3.1 1.6zm-6.9-377.2h-5.9V63.1l.1-2.7.1-2.9c-1 1-1.7 1.6-2 1.9l-3.2 2.6-2.9-3.6 9-7.2h4.9v28zm27.3 0H257v-4.1l7-7.1c2.1-2.1 3.4-3.6 4.1-4.4.6-.8 1.1-1.6 1.4-2.3.3-.7.4-1.4.4-2.2 0-1.1-.3-2-.9-2.5-.6-.5-1.4-.8-2.5-.8s-2.1.2-3.2.7c-1 .5-2.1 1.2-3.2 2.1l-3.2-3.8c1.4-1.2 2.5-2 3.4-2.5.9-.5 1.9-.9 3-1.1 1.1-.3 2.3-.4 3.6-.4 1.7 0 3.3.3 4.6 1 1.3.6 2.4 1.5 3.1 2.7.7 1.1 1.1 2.5 1.1 3.9 0 1.3-.2 2.5-.7 3.6-.5 1.1-1.2 2.3-2.1 3.5-1 1.2-2.6 2.9-5 5.1l-3.6 3.4v.3h12.2v4.9z"/></svg>