<svg version="1.1" id="icon" xmlns="http://www.w3.org/2000/svg" x="0" y="0" viewBox="0 0 512 512" xml:space="preserve"><style type="text/css">.st0{fill:#363636}</style><circle class="st0" cx="256" cy="256" r="10.6"/><path class="st0" d="M256 8.1c33.5 0 65.9 6.6 96.5 19.5 29.5 12.5 56 30.4 78.8 53.1 22.8 22.8 40.6 49.3 53.1 78.8 12.9 30.6 19.5 63 19.5 96.5s-6.6 65.9-19.5 96.5c-12.5 29.5-30.4 56-53.1 78.8-22.8 22.8-49.3 40.6-78.8 53.1-30.6 12.9-63 19.5-96.5 19.5s-65.9-6.6-96.5-19.5c-29.5-12.5-56-30.4-78.8-53.1C58 408.5 40.1 382 27.6 352.5c-12.9-30.6-19.5-63-19.5-96.5s6.6-65.9 19.5-96.5c12.5-29.5 30.4-56 53.1-78.8C103.5 58 130 40.1 159.5 27.6c30.6-12.9 63-19.5 96.5-19.5m0-8.1C114.6 0 0 114.6 0 256s114.6 256 256 256 256-114.6 256-256S397.4 0 256 0z"/><path class="st0" d="M251.1 17.5h9.8v19.6h-9.8zM251.1 474.9h9.8v19.6h-9.8z"/><path transform="rotate(-90 27.339 256)" class="st0" d="M22.4 246.2h9.8v19.6h-9.8z"/><path transform="rotate(-90 484.661 256)" class="st0" d="M479.8 246.2h9.8v19.6h-9.8z"/><path transform="rotate(-60 57.973 141.673)" class="st0" d="M53.1 131.9h9.8v19.6h-9.8z"/><path transform="rotate(-60 454.032 370.344)" class="st0" d="M449.1 360.5h9.8v19.6h-9.8z"/><path transform="rotate(-150 141.673 454.032)" class="st0" d="M136.8 444.2h9.8v19.6h-9.8z"/><path transform="rotate(-150 370.335 57.973)" class="st0" d="M365.4 48.2h9.8v19.6h-9.8z"/><path transform="rotate(-30 141.665 57.98)" class="st0" d="M136.8 48.2h9.8v19.6h-9.8z"/><path transform="rotate(-30 370.304 454.038)" class="st0" d="M365.4 444.2h9.8v19.6h-9.8z"/><path transform="rotate(-120 57.97 370.334)" class="st0" d="M53.1 360.5h9.8v19.6h-9.8z"/><path transform="rotate(-120 454.028 141.676)" class="st0" d="M449.1 131.9h9.8v19.6h-9.8z"/><g><path transform="rotate(23.999 351.03 42.636)" class="st0" d="M349.6 37.7h2.8v9.8h-2.8z"/><path transform="rotate(23.999 161.048 469.334)" class="st0" d="M159.6 464.3h2.8v10h-2.8z"/><path transform="rotate(17.998 328.193 33.875)" class="st0" d="M326.8 29h2.8v9.8h-2.8z"/><path transform="rotate(17.998 183.856 478.078)" class="st0" d="M182.4 473.1h2.8v10h-2.8z"/><g><path transform="rotate(12 304.578 27.542)" class="st0" d="M303.1 22.6h2.8v9.8h-2.8z"/><path transform="rotate(12 207.47 484.4)" class="st0" d="M206 479.4h2.8v10H206z"/></g><g><path transform="rotate(6.012 280.492 23.66)" class="st0" d="M279 18.8h2.8v9.8H279z"/><path transform="rotate(6.012 231.765 488.272)" class="st0" d="M230.2 483.2h2.8v10h-2.8z"/></g></g><g><path transform="rotate(53.999 444.967 118.72)" class="st0" d="M443.5 113.8h2.8v9.8h-2.8z"/><path transform="rotate(53.999 67.114 393.243)" class="st0" d="M65.7 388.2h2.8v10h-2.8z"/><path transform="rotate(48 429.598 99.723)" class="st0" d="M428.1 94.8h2.8v9.8h-2.8z"/><path transform="rotate(48 82.498 412.25)" class="st0" d="M81.1 407.2h2.8v10h-2.8z"/><g><path transform="rotate(42 412.303 82.43)" class="st0" d="M410.9 77.5h2.8v9.8h-2.8z"/><path transform="rotate(42 99.78 429.524)" class="st0" d="M98.4 424.5h2.8v10h-2.8z"/></g><g><path transform="rotate(36.002 393.274 67.034)" class="st0" d="M391.9 62.1h2.8v9.8h-2.8z"/><path transform="rotate(36.002 118.772 444.869)" class="st0" d="M117.3 439.9h2.8v10h-2.8z"/></g></g><g><path transform="rotate(84.002 488.289 231.572)" class="st0" d="M486.9 226.7h2.8v9.8h-2.8z"/><path transform="rotate(84.002 23.812 280.404)" class="st0" d="M22.4 275.4h2.8v10h-2.8z"/><path transform="rotate(78 484.483 207.449)" class="st0" d="M483 202.5h2.8v9.8H483z"/><path transform="rotate(78 27.629 304.557)" class="st0" d="M26.2 299.6H29v10h-2.8z"/><g><path transform="rotate(72.002 478.108 183.808)" class="st0" d="M476.7 178.9h2.8v9.8h-2.8z"/><path transform="rotate(72.002 33.955 328.129)" class="st0" d="M32.5 323.2h2.8v10h-2.8z"/></g><g><path transform="rotate(66.001 469.393 161.005)" class="st0" d="M467.9 156.1h2.8v9.8h-2.8z"/><path transform="rotate(66.001 42.715 350.978)" class="st0" d="M41.3 346h2.8v10h-2.8z"/></g></g><g><path transform="scale(-1) rotate(-66.001 -540.52 722.796)" class="st0" d="M467.9 346.1h2.8v9.8h-2.8z"/><path transform="scale(-1) rotate(-66.001 -247.987 65.77)" class="st0" d="M41.3 156h2.8v10h-2.8z"/><path transform="scale(-1) rotate(-72.002 -451.678 658.048)" class="st0" d="M476.7 323.3h2.8v9.8h-2.8z"/><path transform="scale(-1) rotate(-72.002 -253.037 46.725)" class="st0" d="M32.5 178.9h2.8v10h-2.8z"/><g><path transform="scale(-1) rotate(-78 -376.12 598.286)" class="st0" d="M483 299.7h2.8v9.8H483z"/><path transform="scale(-1) rotate(-78 -256.201 34.118)" class="st0" d="M26.2 202.5H29v10h-2.8z"/></g><g><path transform="rotate(95.998 488.295 280.422)" class="st0" d="M486.9 275.5h2.8v9.8h-2.8z"/><path transform="rotate(95.998 23.804 231.6)" class="st0" d="M22.4 226.6h2.8v10h-2.8z"/></g></g><g><path transform="rotate(143.998 393.283 444.963)" class="st0" d="M391.9 440.1h2.8v9.8h-2.8z"/><path transform="rotate(143.998 118.767 67.117)" class="st0" d="M117.3 62.1h2.8v10h-2.8z"/><path transform="scale(-1) rotate(-42 -1119.125 1074.081)" class="st0" d="M410.9 424.7h2.8v9.8h-2.8z"/><path transform="scale(-1) rotate(-42 -214.916 259.933)" class="st0" d="M98.4 77.5h2.8v10h-2.8z"/><g><path transform="scale(-1) rotate(-48 -926.06 964.896)" class="st0" d="M428.1 407.4h2.8v9.8h-2.8z"/><path transform="scale(-1) rotate(-48 -224.111 185.298)" class="st0" d="M81.1 94.8h2.8v10h-2.8z"/></g><g><path transform="rotate(126.001 444.96 393.278)" class="st0" d="M443.5 388.4h2.8v9.8h-2.8z"/><path transform="rotate(126.001 67.116 118.766)" class="st0" d="M65.7 113.8h2.8v10h-2.8z"/></g></g><g><path transform="rotate(173.988 280.424 488.286)" class="st0" d="M279 483.4h2.8v9.8H279z"/><path transform="rotate(173.988 231.598 23.801)" class="st0" d="M230.2 18.8h2.8v10h-2.8z"/><path transform="scale(-1) rotate(-12 -4609.58 2897.866)" class="st0" d="M303.1 479.6h2.8v9.8h-2.8z"/><path transform="scale(-1) rotate(-12 -262.87 1973.941)" class="st0" d="M206 22.6h2.8v10H206z"/><g><path transform="scale(-1) rotate(-17.998 -3018.948 2072.179)" class="st0" d="M326.8 473.2h2.8v9.8h-2.8z"/><path transform="matrix(-.9511 .309 -.309 -.9511 369.198 9.43)" class="st0" d="M182.4 29h2.8v10h-2.8z"/></g><g><path transform="scale(-1) rotate(-23.999 -2208.406 1651.487)" class="st0" d="M349.6 464.5h2.8v9.8h-2.8z"/><path transform="scale(-1) rotate(-23.999 -200.949 757.692)" class="st0" d="M159.6 37.7h2.8v10h-2.8z"/></g></g></svg>