<svg version="1.1" id="icon" xmlns="http://www.w3.org/2000/svg" x="0" y="0" viewBox="0 0 512 512" xml:space="preserve"><style type="text/css">.st0{fill:#363636}</style><circle class="st0" cx="256" cy="256" r="10.6"/><path class="st0" d="M256 8.1c33.5 0 65.9 6.6 96.5 19.5 29.5 12.5 56 30.4 78.8 53.1 22.8 22.8 40.6 49.3 53.1 78.8 12.9 30.6 19.5 63 19.5 96.5s-6.6 65.9-19.5 96.5c-12.5 29.5-30.4 56-53.1 78.8-22.8 22.8-49.3 40.6-78.8 53.1-30.6 12.9-63 19.5-96.5 19.5s-65.9-6.6-96.5-19.5c-29.5-12.5-56-30.4-78.8-53.1C58 408.5 40.1 382 27.6 352.5c-12.9-30.6-19.5-63-19.5-96.5s6.6-65.9 19.5-96.5c12.5-29.5 30.4-56 53.1-78.8C103.5 58 130 40.1 159.5 27.6c30.6-12.9 63-19.5 96.5-19.5m0-8.1C114.6 0 0 114.6 0 256s114.6 256 256 256 256-114.6 256-256S397.4 0 256 0z"/><path class="st0" d="M251.1 17.5h9.8v19.6h-9.8zM251.1 474.9h9.8v19.6h-9.8z"/><path transform="rotate(-90 27.339 256)" class="st0" d="M22.4 246.2h9.8v19.6h-9.8z"/><path transform="rotate(-90 484.661 256)" class="st0" d="M479.8 246.2h9.8v19.6h-9.8z"/><path transform="rotate(-60 57.973 141.673)" class="st0" d="M53.1 131.9h9.8v19.6h-9.8z"/><path transform="rotate(-60 454.032 370.344)" class="st0" d="M449.1 360.5h9.8v19.6h-9.8z"/><path transform="rotate(-150 141.673 454.032)" class="st0" d="M136.8 444.2h9.8v19.6h-9.8z"/><path transform="rotate(-150 370.335 57.973)" class="st0" d="M365.4 48.2h9.8v19.6h-9.8z"/><path transform="rotate(-30 141.665 57.98)" class="st0" d="M136.8 48.2h9.8v19.6h-9.8z"/><path transform="rotate(-30 370.304 454.038)" class="st0" d="M365.4 444.2h9.8v19.6h-9.8z"/><path transform="rotate(-120 57.97 370.334)" class="st0" d="M53.1 360.5h9.8v19.6h-9.8z"/><path transform="rotate(-120 454.028 141.676)" class="st0" d="M449.1 131.9h9.8v19.6h-9.8z"/><g><path transform="rotate(23.999 351.03 42.636)" class="st0" d="M349.6 37.7h2.8v9.8h-2.8z"/><path transform="rotate(23.999 161.048 469.334)" class="st0" d="M159.6 464.3h2.8v10h-2.8z"/><path transform="rotate(17.998 328.193 33.875)" class="st0" d="M326.8 29h2.8v9.8h-2.8z"/><path transform="rotate(17.998 183.856 478.078)" class="st0" d="M182.4 473.1h2.8v10h-2.8z"/><g><path transform="rotate(12 304.578 27.542)" class="st0" d="M303.1 22.6h2.8v9.8h-2.8z"/><path transform="rotate(12 207.47 484.4)" class="st0" d="M206 479.4h2.8v10H206z"/></g><g><path transform="rotate(6.012 280.492 23.66)" class="st0" d="M279 18.8h2.8v9.8H279z"/><path transform="rotate(6.012 231.765 488.272)" class="st0" d="M230.2 483.2h2.8v10h-2.8z"/></g></g><g><path transform="rotate(53.999 444.967 118.72)" class="st0" d="M443.5 113.8h2.8v9.8h-2.8z"/><path transform="rotate(53.999 67.114 393.243)" class="st0" d="M65.7 388.2h2.8v10h-2.8z"/><path transform="rotate(48 429.598 99.723)" class="st0" d="M428.1 94.8h2.8v9.8h-2.8z"/><path transform="rotate(48 82.498 412.25)" class="st0" d="M81.1 407.2h2.8v10h-2.8z"/><g><path transform="rotate(42 412.303 82.43)" class="st0" d="M410.9 77.5h2.8v9.8h-2.8z"/><path transform="rotate(42 99.78 429.524)" class="st0" d="M98.4 424.5h2.8v10h-2.8z"/></g><g><path transform="rotate(36.002 393.274 67.034)" class="st0" d="M391.9 62.1h2.8v9.8h-2.8z"/><path transform="rotate(36.002 118.772 444.869)" class="st0" d="M117.3 439.9h2.8v10h-2.8z"/></g></g><g><path transform="rotate(84.002 488.289 231.572)" class="st0" d="M486.9 226.7h2.8v9.8h-2.8z"/><path transform="rotate(84.002 23.812 280.404)" class="st0" d="M22.4 275.4h2.8v10h-2.8z"/><path transform="rotate(78 484.483 207.449)" class="st0" d="M483 202.5h2.8v9.8H483z"/><path transform="rotate(78 27.629 304.557)" class="st0" d="M26.2 299.6H29v10h-2.8z"/><g><path transform="rotate(72.002 478.108 183.808)" class="st0" d="M476.7 178.9h2.8v9.8h-2.8z"/><path transform="rotate(72.002 33.955 328.129)" class="st0" d="M32.5 323.2h2.8v10h-2.8z"/></g><g><path transform="rotate(66.001 469.393 161.005)" class="st0" d="M467.9 156.1h2.8v9.8h-2.8z"/><path transform="rotate(66.001 42.715 350.978)" class="st0" d="M41.3 346h2.8v10h-2.8z"/></g></g><g><path transform="scale(-1) rotate(-66.001 -540.52 722.796)" class="st0" d="M467.9 346.1h2.8v9.8h-2.8z"/><path transform="scale(-1) rotate(-66.001 -247.987 65.77)" class="st0" d="M41.3 156h2.8v10h-2.8z"/><path transform="scale(-1) rotate(-72.002 -451.678 658.048)" class="st0" d="M476.7 323.3h2.8v9.8h-2.8z"/><path transform="scale(-1) rotate(-72.002 -253.037 46.725)" class="st0" d="M32.5 178.9h2.8v10h-2.8z"/><g><path transform="scale(-1) rotate(-78 -376.12 598.286)" class="st0" d="M483 299.7h2.8v9.8H483z"/><path transform="scale(-1) rotate(-78 -256.201 34.118)" class="st0" d="M26.2 202.5H29v10h-2.8z"/></g><g><path transform="rotate(95.998 488.295 280.422)" class="st0" d="M486.9 275.5h2.8v9.8h-2.8z"/><path transform="rotate(95.998 23.804 231.6)" class="st0" d="M22.4 226.6h2.8v10h-2.8z"/></g></g><g><path transform="rotate(143.998 393.283 444.963)" class="st0" d="M391.9 440.1h2.8v9.8h-2.8z"/><path transform="rotate(143.998 118.767 67.117)" class="st0" d="M117.3 62.1h2.8v10h-2.8z"/><path transform="scale(-1) rotate(-42 -1119.125 1074.081)" class="st0" d="M410.9 424.7h2.8v9.8h-2.8z"/><path transform="scale(-1) rotate(-42 -214.916 259.933)" class="st0" d="M98.4 77.5h2.8v10h-2.8z"/><g><path transform="scale(-1) rotate(-48 -926.06 964.896)" class="st0" d="M428.1 407.4h2.8v9.8h-2.8z"/><path transform="scale(-1) rotate(-48 -224.111 185.298)" class="st0" d="M81.1 94.8h2.8v10h-2.8z"/></g><g><path transform="rotate(126.001 444.96 393.278)" class="st0" d="M443.5 388.4h2.8v9.8h-2.8z"/><path transform="rotate(126.001 67.116 118.766)" class="st0" d="M65.7 113.8h2.8v10h-2.8z"/></g></g><g><path transform="rotate(173.988 280.424 488.286)" class="st0" d="M279 483.4h2.8v9.8H279z"/><path transform="rotate(173.988 231.598 23.801)" class="st0" d="M230.2 18.8h2.8v10h-2.8z"/><path transform="scale(-1) rotate(-12 -4609.58 2897.867)" class="st0" d="M303.1 479.6h2.8v9.8h-2.8z"/><path transform="scale(-1) rotate(-12 -262.869 1973.941)" class="st0" d="M206 22.6h2.8v10H206z"/><g><path transform="scale(-1) rotate(-17.998 -3018.948 2072.179)" class="st0" d="M326.8 473.2h2.8v9.8h-2.8z"/><path transform="matrix(-.9511 .309 -.309 -.9511 369.198 9.43)" class="st0" d="M182.4 29h2.8v10h-2.8z"/></g><g><path transform="scale(-1) rotate(-23.999 -2208.406 1651.487)" class="st0" d="M349.6 464.5h2.8v9.8h-2.8z"/><path transform="scale(-1) rotate(-23.999 -200.949 757.692)" class="st0" d="M159.6 37.7h2.8v10h-2.8z"/></g></g><g><path class="st0" d="M460.3 248.3c0 1.7-.5 3.2-1.6 4.5-1.1 1.2-2.5 2.1-4.5 2.5v.1c2.3.3 4 1 5.1 2.1 1.2 1.1 1.7 2.6 1.7 4.4 0 2.7-1 4.8-2.9 6.3-2 1.5-4.7 2.2-8.4 2.2-3 0-5.7-.5-8.1-1.5v-5c1.1.5 2.3 1 3.6 1.3 1.3.3 2.6.5 3.9.5 2 0 3.4-.3 4.3-1s1.4-1.7 1.4-3.2c0-1.3-.5-2.2-1.6-2.8s-2.8-.8-5.1-.8H446v-4.5h2.2c2.2 0 3.8-.3 4.8-.9 1-.6 1.5-1.5 1.5-2.9 0-2.1-1.3-3.2-4-3.2-.9 0-1.9.2-2.8.5-1 .3-2 .8-3.2 1.6l-2.7-4.1c2.6-1.8 5.6-2.8 9.1-2.8 2.9 0 5.2.6 6.9 1.8 1.7 1.2 2.5 2.8 2.5 4.9zM358.2 106.5h-5.9V90.3l.1-2.7.1-2.9c-1 1-1.7 1.6-2 1.9l-3.2 2.6-2.9-3.6 9-7.2h4.9v28.1zM155.9 435.1l10.5-23h-13.8v-5h20.1v3.7L162.1 435h-6.2zM433.3 173.8h-19.5v-4.1l7-7.1c2.1-2.1 3.4-3.6 4.1-4.4.6-.8 1.1-1.6 1.4-2.3.3-.7.4-1.4.4-2.2 0-1.1-.3-2-.9-2.5-.6-.5-1.4-.8-2.5-.8s-2.1.2-3.2.7-2.1 1.2-3.2 2.1l-3.2-3.8c1.4-1.2 2.5-2 3.4-2.5.9-.5 1.9-.9 3-1.1s2.3-.4 3.6-.4c1.7 0 3.3.3 4.6 1s2.4 1.5 3.1 2.7c.7 1.1 1.1 2.5 1.1 3.9 0 1.3-.2 2.5-.7 3.6-.5 1.1-1.2 2.3-2.1 3.5-1 1.2-2.6 2.9-5 5.1l-3.6 3.4v.3h12.2v4.9zM89.8 334.9c2.7 0 4.8.6 6.5 1.8 1.6 1.2 2.5 2.9 2.5 4.9 0 1.4-.4 2.7-1.2 3.8-.8 1.1-2.1 2.1-3.8 3 2.1 1.1 3.6 2.3 4.5 3.5.9 1.2 1.4 2.6 1.4 4 0 2.3-.9 4.1-2.7 5.5-1.8 1.4-4.2 2.1-7.1 2.1-3.1 0-5.5-.7-7.2-2-1.7-1.3-2.6-3.1-2.6-5.5 0-1.6.4-3 1.3-4.2.8-1.2 2.2-2.3 4.1-3.3-1.6-1-2.7-2.1-3.4-3.2-.7-1.1-1.1-2.4-1.1-3.8 0-2 .8-3.6 2.5-4.9 1.5-1.1 3.7-1.7 6.3-1.7zm-4.3 20.9c0 1.1.4 2 1.1 2.6.8.6 1.8.9 3.1.9 1.5 0 2.6-.3 3.3-.9.7-.6 1.1-1.5 1.1-2.5 0-.9-.4-1.7-1.1-2.4s-1.9-1.5-3.5-2.4c-2.7 1.2-4 2.8-4 4.7zm4.3-16.6c-1 0-1.8.3-2.4.8s-.9 1.2-.9 2.1c0 .8.2 1.5.7 2.1.5.6 1.4 1.2 2.7 1.9 1.2-.6 2.1-1.2 2.6-1.8.5-.6.7-1.3.7-2.1 0-.9-.3-1.6-1-2.1s-1.4-.9-2.4-.9zM70.6 253.9c0 5.5-1.2 9.6-3.5 12.3-2.3 2.7-5.8 4.1-10.5 4.1-1.7 0-2.9-.1-3.8-.3v-4.7c1.1.3 2.2.4 3.4.4 2 0 3.6-.3 4.9-.9s2.3-1.5 2.9-2.7c.7-1.2 1.1-3 1.2-5.1H65c-.7 1.2-1.6 2-2.6 2.5s-2.2.7-3.6.7c-2.4 0-4.4-.8-5.8-2.3-1.4-1.6-2.1-3.7-2.1-6.5 0-3 .9-5.4 2.6-7.1 1.7-1.7 4-2.6 7-2.6 2.1 0 3.9.5 5.4 1.5s2.7 2.4 3.6 4.2c.7 1.8 1.1 4 1.1 6.5zm-10.1-7.5c-1.2 0-2.2.4-2.9 1.3-.7.8-1 2.1-1 3.6 0 1.4.3 2.4.9 3.2.6.8 1.6 1.2 2.9 1.2 1.2 0 2.2-.4 3.1-1.2.9-.8 1.3-1.7 1.3-2.7 0-1.5-.4-2.8-1.2-3.8-.9-1.1-1.9-1.6-3.1-1.6zM434 357.8h-3.4v5.8h-5.8v-5.8h-11.9v-4.1l12.3-18.1h5.5v17.6h3.4v4.6zm-9.1-4.6v-4.7c0-.8 0-1.9.1-3.4s.1-2.4.2-2.6h-.2c-.5 1-1 2.1-1.7 3.1l-5.1 7.7h6.7zM93 173.4h-5.9v-16.2l.1-2.7.1-2.9c-1 1-1.7 1.6-2 1.9l-3.2 2.6-2.9-3.6 9-7.2H93v28.1zM120.1 159.4c0 4.9-.8 8.5-2.4 10.8s-4.1 3.5-7.4 3.5c-3.2 0-5.7-1.2-7.3-3.6-1.6-2.4-2.5-6-2.5-10.7 0-4.9.8-8.6 2.4-10.9s4-3.5 7.4-3.5c3.2 0 5.7 1.2 7.3 3.7s2.5 6 2.5 10.7zm-13.7 0c0 3.4.3 5.9.9 7.4.6 1.5 1.6 2.2 3 2.2s2.4-.8 3-2.3.9-4 .9-7.3c0-3.4-.3-5.9-.9-7.4-.6-1.5-1.6-2.2-3-2.2s-2.4.7-3 2.2c-.6 1.5-.9 4-.9 7.4zM351.7 416.8c2.7 0 4.9.8 6.5 2.3s2.4 3.6 2.4 6.2c0 3.1-1 5.5-2.9 7.2-1.9 1.7-4.7 2.5-8.3 2.5-3.1 0-5.6-.5-7.5-1.5v-5.1c1 .5 2.2 1 3.5 1.3 1.3.3 2.6.5 3.8.5 3.6 0 5.4-1.5 5.4-4.4 0-2.8-1.9-4.2-5.6-4.2-.7 0-1.4.1-2.2.2-.8.1-1.5.3-2 .4l-2.4-1.3 1.1-14.3h15.2v5h-10l-.5 5.5.7-.1c.7-.1 1.7-.2 2.8-.2zM157.7 106.5h-5.9V90.3l.1-2.7.1-2.9c-1 1-1.7 1.6-2 1.9l-3.2 2.6-2.9-3.6 9-7.2h4.9v28.1zM180 106.5h-5.9V90.3l.1-2.7.1-2.9c-1 1-1.7 1.6-2 1.9l-3.2 2.6-2.9-3.6 9-7.2h4.9v28.1z"/><g><path class="st0" d="M246.1 448.9c0-5.5 1.2-9.7 3.5-12.4 2.3-2.7 5.8-4.1 10.5-4.1 1.6 0 2.8.1 3.7.3v4.7c-1.1-.3-2.3-.4-3.4-.4-2 0-3.7.3-5 .9s-2.2 1.5-2.9 2.7c-.6 1.2-1 2.9-1.1 5.1h.2c1.3-2.2 3.3-3.3 6.1-3.3 2.5 0 4.5.8 5.9 2.4s2.1 3.7 2.1 6.5c0 3-.8 5.3-2.5 7.1-1.7 1.7-4 2.6-7 2.6-2.1 0-3.9-.5-5.4-1.4s-2.7-2.4-3.6-4.2c-.7-1.7-1.1-3.9-1.1-6.5zm10.1 7.5c1.3 0 2.2-.4 2.9-1.3s1-2.1 1-3.6c0-1.4-.3-2.4-.9-3.2s-1.6-1.2-2.9-1.2c-1.2 0-2.2.4-3.1 1.2-.8.8-1.3 1.7-1.3 2.7 0 1.5.4 2.8 1.2 3.8.9 1.1 1.9 1.6 3.1 1.6z"/></g><g><path class="st0" d="M249.3 79.2h-5.9V63.1l.1-2.7.1-2.9c-1 1-1.7 1.6-2 1.9l-3.2 2.6-2.9-3.6 9-7.2h4.9v28zM276.6 79.2H257v-4.1l7-7.1c2.1-2.1 3.4-3.6 4.1-4.4.6-.8 1.1-1.6 1.4-2.3.3-.7.4-1.4.4-2.2 0-1.1-.3-2-.9-2.5-.6-.5-1.4-.8-2.5-.8s-2.1.2-3.2.7c-1 .5-2.1 1.2-3.2 2.1l-3.2-3.8c1.4-1.2 2.5-2 3.4-2.5.9-.5 1.9-.9 3-1.1 1.1-.3 2.3-.4 3.6-.4 1.7 0 3.3.3 4.6 1 1.3.6 2.4 1.5 3.1 2.7s1.1 2.5 1.1 3.9c0 1.3-.2 2.5-.7 3.6-.5 1.1-1.2 2.3-2.1 3.5-1 1.2-2.6 2.9-5 5.1l-3.6 3.4v.3h12.2v4.9z"/></g></g></svg>