<svg version="1.1" id="icon" xmlns="http://www.w3.org/2000/svg" x="0" y="0" viewBox="0 0 512 512" xml:space="preserve"><style type="text/css">.st0{fill:#36434f}</style><circle class="st0" cx="256" cy="256" r="10.6"/><path class="st0" d="M256 8.1c33.5 0 65.9 6.6 96.5 19.5 29.5 12.5 56 30.4 78.8 53.1 22.8 22.8 40.6 49.3 53.1 78.8 12.9 30.6 19.5 63 19.5 96.5s-6.6 65.9-19.5 96.5c-12.5 29.5-30.4 56-53.1 78.8-22.8 22.8-49.3 40.6-78.8 53.1-30.6 12.9-63 19.5-96.5 19.5s-65.9-6.6-96.5-19.5c-29.5-12.5-56-30.4-78.8-53.1C58 408.5 40.1 382 27.6 352.5c-12.9-30.6-19.5-63-19.5-96.5s6.6-65.9 19.5-96.5c12.5-29.5 30.4-56 53.1-78.8C103.5 58 130 40.1 159.5 27.6c30.6-12.9 63-19.5 96.5-19.5m0-8.1C114.6 0 0 114.6 0 256s114.6 256 256 256 256-114.6 256-256S397.4 0 256 0z"/><path class="st0" d="M251.1 17.5h9.8v19.6h-9.8V17.5zm0 457.4h9.8v19.6h-9.8v-19.6zm-233.6-214v-9.8h19.6v9.8H17.5zm457.4 0v-9.8h19.6v9.8h-19.6zM47.1 141l4.9-8.5 17 9.8-4.9 8.5-17-9.8zM443 369.7l4.9-8.5 17 9.8-4.9 8.5-17-9.8zM141 465l-8.5-4.9 9.8-17 8.5 4.9-9.8 17zM369.7 68.9l-8.5-4.9 9.8-17 8.5 4.9-9.8 17zm-237.1-17L141 47l9.8 17-8.5 4.9-9.7-17zM361.1 448l8.5-4.9 9.8 17-8.5 4.9-9.8-17zM51.9 379.5L47 371l17-9.8 4.9 8.5-17 9.8zM448 150.8l-4.9-8.5 17-9.8 4.9 8.5-17 9.8zM351.7 37.5l2.6 1.1-4 9-2.6-1.1 4-9zM161.8 464.1l2.6 1.1-4.1 9.1-2.6-1.1 4.1-9.1zM328.4 28.8l2.7.9-3 9.3-2.7-.9 3-9.3zM184 472.9l2.7.9-3.1 9.5-2.7-.9 3.1-9.5zM304.2 22.4l2.7.6-2 9.6-2.7-.6 2-9.6zm-97.1 456.8l2.7.6-2.1 9.8-2.7-.6 2.1-9.8zm72.4-460.5l2.8.3-1 9.7-2.8-.3 1-9.7zm-48.8 464.4l2.8.3-1 9.9-2.8-.3 1-9.9zm217.4-368.5l1.6 2.3-7.9 5.8-1.6-2.3 7.9-5.8zM70.4 389.1l1.6 2.3-8.1 5.9-1.6-2.3 8.1-5.9zM432.3 95.3l1.9 2.1-7.3 6.6-1.9-2.1 7.3-6.6zm-347 312.5l1.9 2.1-7.4 6.7-1.9-2.1 7.4-6.7zm329.3-330l2.1 1.9-6.6 7.3-2.1-1.9 6.6-7.3zM102.1 424.9l2.1 1.9-6.7 7.4-2.1-1.9 6.7-7.4zm293-362.7l2.3 1.6-5.8 7.9-2.3-1.6 5.8-7.9zM120.5 440l2.3 1.6-5.9 8.1-2.3-1.6 5.9-8.1zM493 229.7l.3 2.8-9.7 1-.3-2.8 9.7-1zM28.6 278.5l.3 2.8-9.9 1-.3-2.8 9.9-1zM489 205l.6 2.7-9.6 2-.6-2.7 9.6-2zM32.2 302.1l.6 2.7-9.8 2.1-.6-2.7 9.8-2.1zM482.3 181l.9 2.7-9.3 3-.9-2.7 9.3-3zM38.2 325.2l.9 2.7-9.5 3.1-.9-2.7 9.5-3.1zm435.1-167.6l1.1 2.6-9 4-1.1-2.6 9-4zM46.7 347.7l1.1 2.6-9.1 4.1-1.1-2.6 9.1-4.1zm427.8 4l-1.1 2.6-9-4 1.1-2.6 9 4zM47.9 161.8l-1.1 2.6-9.1-4.1 1.1-2.6 9.1 4.1zm435.3 166.5l-.9 2.7-9.3-3 .9-2.7 9.3 3zM39.1 184l-.9 2.7-9.5-3.1.9-2.7 9.5 3.1zm450.5 120.1l-.6 2.7-9.6-2 .6-2.7 9.6 2zm-456.8-97l-.6 2.7-9.8-2.1.6-2.7 9.8 2.1zm460.5 72.4l-.3 2.8-9.7-1 .3-2.8 9.7 1zM28.9 230.7l-.3 2.8-9.9-1 .3-2.8 9.9 1zm368.4 217.4l-2.3 1.6-5.8-7.9 2.3-1.6 5.8 7.9zM122.9 70.3l-2.3 1.6-5.9-8.1 2.3-1.6 5.9 8.1zm293.7 362l-2.1 1.9-6.6-7.3 2.1-1.9 6.6 7.3zm-312.5-347l-2.1 1.9-6.7-7.4 2.1-1.9 6.7 7.4zm330.2 329.2l-1.9 2.1-7.3-6.6 1.9-2.1 7.3 6.6zM87.1 102.1l-1.9 2.1-7.4-6.7 1.9-2.1 7.4 6.7zM449.8 395l-1.6 2.3-7.9-5.8 1.6-2.3 7.9 5.8zM72 120.5l-1.6 2.3-8.1-5.9 1.6-2.3 8.1 5.9zM282.4 493l-2.8.3-1-9.7 2.8-.3 1 9.7zM233.5 28.6l-2.8.3-1-9.9 2.8-.3 1 9.9zM307 489l-2.7.6-2-9.6 2.7-.6 2 9.6zM210 32.2l-2.7.6-2.1-9.8 2.7-.6 2.1 9.8zm121 450.1l-2.7.9-3-9.3 2.7-.9 3 9.3zM186.8 38.2l-2.7.9-3.1-9.5 2.7-.9 3.1 9.5zm167.5 435.1l-2.6 1.1-4-9 2.6-1.1 4 9zM164.4 46.7l-2.6 1.1-4.1-9.1 2.6-1.1 4.1 9.1zm295.9 201.6c0 1.7-.5 3.2-1.6 4.5-1.1 1.2-2.5 2.1-4.5 2.5v.1c2.3.3 4 1 5.1 2.1 1.2 1.1 1.7 2.6 1.7 4.4 0 2.7-1 4.8-2.9 6.3-2 1.5-4.7 2.2-8.4 2.2-3 0-5.7-.5-8.1-1.5v-5c1.1.5 2.3 1 3.6 1.3 1.3.3 2.6.5 3.9.5 2 0 3.4-.3 4.3-1s1.4-1.7 1.4-3.2c0-1.3-.5-2.2-1.6-2.8s-2.8-.8-5.1-.8H446v-4.5h2.2c2.2 0 3.8-.3 4.8-.9 1-.6 1.5-1.5 1.5-2.9 0-2.1-1.3-3.2-4-3.2-.9 0-1.9.2-2.8.5-1 .3-2 .8-3.2 1.6l-2.7-4.1c2.6-1.8 5.6-2.8 9.1-2.8 2.9 0 5.2.6 6.9 1.8 1.7 1.2 2.5 2.8 2.5 4.9zM358.2 106.5h-5.9V90.3l.1-2.7.1-2.9c-1 1-1.7 1.6-2 1.9l-3.2 2.6-2.9-3.6 9-7.2h4.9v28.1h-.1zM155.9 435.1l10.5-23h-13.8v-5h20.1v3.7L162.1 435h-6.2v.1zm277.4-261.3h-19.5v-4.1l7-7.1c2.1-2.1 3.4-3.6 4.1-4.4.6-.8 1.1-1.6 1.4-2.3s.4-1.4.4-2.2c0-1.1-.3-2-.9-2.5s-1.4-.8-2.5-.8-2.1.2-3.2.7-2.1 1.2-3.2 2.1l-3.2-3.8c1.4-1.2 2.5-2 3.4-2.5s1.9-.9 3-1.1 2.3-.4 3.6-.4c1.7 0 3.3.3 4.6 1s2.4 1.5 3.1 2.7c.7 1.1 1.1 2.5 1.1 3.9 0 1.3-.2 2.5-.7 3.6s-1.2 2.3-2.1 3.5c-1 1.2-2.6 2.9-5 5.1l-3.6 3.4v.3h12.2v4.9zM89.8 334.9c2.7 0 4.8.6 6.5 1.8 1.6 1.2 2.5 2.9 2.5 4.9 0 1.4-.4 2.7-1.2 3.8-.8 1.1-2.1 2.1-3.8 3 2.1 1.1 3.6 2.3 4.5 3.5s1.4 2.6 1.4 4c0 2.3-.9 4.1-2.7 5.5-1.8 1.4-4.2 2.1-7.1 2.1-3.1 0-5.5-.7-7.2-2s-2.6-3.1-2.6-5.5c0-1.6.4-3 1.3-4.2.8-1.2 2.2-2.3 4.1-3.3-1.6-1-2.7-2.1-3.4-3.2-.7-1.1-1.1-2.4-1.1-3.8 0-2 .8-3.6 2.5-4.9 1.5-1.1 3.7-1.7 6.3-1.7zm-4.3 20.9c0 1.1.4 2 1.1 2.6.8.6 1.8.9 3.1.9 1.5 0 2.6-.3 3.3-.9.7-.6 1.1-1.5 1.1-2.5 0-.9-.4-1.7-1.1-2.4s-1.9-1.5-3.5-2.4c-2.7 1.2-4 2.8-4 4.7zm4.3-16.6c-1 0-1.8.3-2.4.8s-.9 1.2-.9 2.1c0 .8.2 1.5.7 2.1s1.4 1.2 2.7 1.9c1.2-.6 2.1-1.2 2.6-1.8.5-.6.7-1.3.7-2.1 0-.9-.3-1.6-1-2.1s-1.4-.9-2.4-.9zm-19.2-85.3c0 5.5-1.2 9.6-3.5 12.3s-5.8 4.1-10.5 4.1c-1.7 0-2.9-.1-3.8-.3v-4.7c1.1.3 2.2.4 3.4.4 2 0 3.6-.3 4.9-.9s2.3-1.5 2.9-2.7c.7-1.2 1.1-3 1.2-5.1H65c-.7 1.2-1.6 2-2.6 2.5s-2.2.7-3.6.7c-2.4 0-4.4-.8-5.8-2.3-1.4-1.6-2.1-3.7-2.1-6.5 0-3 .9-5.4 2.6-7.1 1.7-1.7 4-2.6 7-2.6 2.1 0 3.9.5 5.4 1.5s2.7 2.4 3.6 4.2c.7 1.8 1.1 4 1.1 6.5zm-10.1-7.5c-1.2 0-2.2.4-2.9 1.3-.7.8-1 2.1-1 3.6 0 1.4.3 2.4.9 3.2.6.8 1.6 1.2 2.9 1.2 1.2 0 2.2-.4 3.1-1.2.9-.8 1.3-1.7 1.3-2.7 0-1.5-.4-2.8-1.2-3.8-.9-1.1-1.9-1.6-3.1-1.6zM434 357.8h-3.4v5.8h-5.8v-5.8h-11.9v-4.1l12.3-18.1h5.5v17.6h3.4v4.6h-.1zm-9.1-4.6v-4.7c0-.8 0-1.9.1-3.4s.1-2.4.2-2.6h-.2c-.5 1-1 2.1-1.7 3.1l-5.1 7.7h6.7v-.1zM93 173.4h-5.9v-16.2l.1-2.7.1-2.9c-1 1-1.7 1.6-2 1.9l-3.2 2.6-2.9-3.6 9-7.2H93v28.1zm27.1-14c0 4.9-.8 8.5-2.4 10.8s-4.1 3.5-7.4 3.5c-3.2 0-5.7-1.2-7.3-3.6-1.6-2.4-2.5-6-2.5-10.7 0-4.9.8-8.6 2.4-10.9s4-3.5 7.4-3.5c3.2 0 5.7 1.2 7.3 3.7s2.5 6 2.5 10.7zm-13.7 0c0 3.4.3 5.9.9 7.4s1.6 2.2 3 2.2 2.4-.8 3-2.3.9-4 .9-7.3c0-3.4-.3-5.9-.9-7.4s-1.6-2.2-3-2.2-2.4.7-3 2.2-.9 4-.9 7.4zm245.3 257.4c2.7 0 4.9.8 6.5 2.3s2.4 3.6 2.4 6.2c0 3.1-1 5.5-2.9 7.2s-4.7 2.5-8.3 2.5c-3.1 0-5.6-.5-7.5-1.5v-5.1c1 .5 2.2 1 3.5 1.3s2.6.5 3.8.5c3.6 0 5.4-1.5 5.4-4.4 0-2.8-1.9-4.2-5.6-4.2-.7 0-1.4.1-2.2.2-.8.1-1.5.3-2 .4l-2.4-1.3 1.1-14.3h15.2v5h-10l-.5 5.5.7-.1c.7-.1 1.7-.2 2.8-.2zm-194-310.3h-5.9V90.3l.1-2.7.1-2.9c-1 1-1.7 1.6-2 1.9l-3.2 2.6-2.9-3.6 9-7.2h4.9v28.1h-.1zm22.3 0h-5.9V90.3l.1-2.7.1-2.9c-1 1-1.7 1.6-2 1.9l-3.2 2.6-2.9-3.6 9-7.2h4.9v28.1h-.1zm66.1 342.4c0-5.5 1.2-9.7 3.5-12.4 2.3-2.7 5.8-4.1 10.5-4.1 1.6 0 2.8.1 3.7.3v4.7c-1.1-.3-2.3-.4-3.4-.4-2 0-3.7.3-5 .9s-2.2 1.5-2.9 2.7c-.6 1.2-1 2.9-1.1 5.1h.2c1.3-2.2 3.3-3.3 6.1-3.3 2.5 0 4.5.8 5.9 2.4s2.1 3.7 2.1 6.5c0 3-.8 5.3-2.5 7.1-1.7 1.7-4 2.6-7 2.6-2.1 0-3.9-.5-5.4-1.4s-2.7-2.4-3.6-4.2c-.7-1.7-1.1-3.9-1.1-6.5zm10.1 7.5c1.3 0 2.2-.4 2.9-1.3s1-2.1 1-3.6c0-1.4-.3-2.4-.9-3.2s-1.6-1.2-2.9-1.2c-1.2 0-2.2.4-3.1 1.2-.8.8-1.3 1.7-1.3 2.7 0 1.5.4 2.8 1.2 3.8.9 1.1 1.9 1.6 3.1 1.6zm-6.9-377.2h-5.9V63.1l.1-2.7.1-2.9c-1 1-1.7 1.6-2 1.9l-3.2 2.6-2.9-3.6 9-7.2h4.9v28h-.1zm27.3 0H257v-4.1l7-7.1c2.1-2.1 3.4-3.6 4.1-4.4.6-.8 1.1-1.6 1.4-2.3s.4-1.4.4-2.2c0-1.1-.3-2-.9-2.5s-1.4-.8-2.5-.8-2.1.2-3.2.7c-1 .5-2.1 1.2-3.2 2.1l-3.2-3.8c1.4-1.2 2.5-2 3.4-2.5s1.9-.9 3-1.1c1.1-.3 2.3-.4 3.6-.4 1.7 0 3.3.3 4.6 1 1.3.6 2.4 1.5 3.1 2.7s1.1 2.5 1.1 3.9c0 1.3-.2 2.5-.7 3.6s-1.2 2.3-2.1 3.5c-1 1.2-2.6 2.9-5 5.1l-3.6 3.4v.3h12.2v4.9h.1z"/></svg>