<svg version="1.1" id="icon" xmlns="http://www.w3.org/2000/svg" x="0" y="0" viewBox="0 0 512 512" xml:space="preserve"><style type="text/css">.st0{fill:#363636}</style><circle class="st0" cx="256" cy="256" r="11"/><path class="st0" d="M256 8.1c33.5 0 65.9 6.6 96.5 19.5 29.5 12.5 56 30.4 78.8 53.1 22.8 22.8 40.6 49.3 53.1 78.8 12.9 30.6 19.5 63 19.5 96.5s-6.6 65.9-19.5 96.5c-12.5 29.5-30.4 56-53.1 78.8-22.8 22.8-49.3 40.6-78.8 53.1-30.6 12.9-63 19.5-96.5 19.5s-65.9-6.6-96.5-19.5c-29.5-12.5-56-30.4-78.8-53.1C58 408.5 40.1 382 27.6 352.5c-12.9-30.6-19.5-63-19.5-96.5s6.6-65.9 19.5-96.5c12.5-29.5 30.4-56 53.1-78.8C103.5 58 130 40.1 159.5 27.6c30.6-12.9 63-19.5 96.5-19.5m0-8.1C114.6 0 0 114.6 0 256s114.6 256 256 256 256-114.6 256-256S397.4 0 256 0z"/><path class="st0" d="M250.9 8.1h10.2v20.4h-10.2zm0 475.4h10.2v20.4h-10.2z"/><path transform="rotate(-90 18.339 256)" class="st0" d="M13.2 245.8h10.2v20.4H13.2z"/><path transform="rotate(-90 493.661 256)" class="st0" d="M488.6 245.8h10.2v20.4h-10.2z"/><path transform="rotate(-60 50.179 137.173)" class="st0" d="M45.1 127h10.2v20.4H45.1z"/><path transform="rotate(-60 461.826 374.845)" class="st0" d="M456.7 364.6h10.2V385h-10.2z"/><path transform="rotate(-150 137.173 461.826)" class="st0" d="M132.1 451.6h10.2V472h-10.2z"/><path transform="rotate(-150 374.836 50.179)" class="st0" d="M369.7 40h10.2v20.4h-10.2z"/><path transform="rotate(-30 137.165 50.185)" class="st0" d="M132.1 40h10.2v20.4h-10.2z"/><path transform="rotate(-30 374.804 461.833)" class="st0" d="M369.7 451.6h10.2V472h-10.2z"/><path transform="rotate(-120 50.175 374.834)" class="st0" d="M45.1 364.6h10.2V385H45.1z"/><path transform="rotate(-120 461.822 137.176)" class="st0" d="M456.7 127h10.2v20.4h-10.2z"/><path transform="rotate(23.999 354.77 34.237)" class="st0" d="M353.3 29.1h3v10.2h-3z"/><path transform="rotate(23.999 157.31 477.73)" class="st0" d="M155.8 472.5h3v10.4h-3z"/><path transform="rotate(17.998 331.034 25.131)" class="st0" d="M329.5 20h3v10.2h-3z"/><path transform="rotate(17.998 181.016 486.818)" class="st0" d="M179.5 481.6h3V492h-3z"/><path transform="rotate(12 306.49 18.55)" class="st0" d="M305 13.5h3v10.2h-3z"/><path transform="rotate(12 205.558 493.39)" class="st0" d="M204.1 488.2h3v10.4h-3z"/><path transform="rotate(6.012 281.452 14.514)" class="st0" d="M279.9 9.5h3v10.2h-3z"/><path transform="rotate(6.012 230.805 497.413)" class="st0" d="M229.2 492.1h3v10.4h-3z"/><path transform="rotate(53.999 452.404 113.317)" class="st0" d="M450.9 108.2h3v10.2h-3z"/><path transform="rotate(53.999 59.68 398.644)" class="st0" d="M58.2 393.4h3v10.4h-3z"/><path transform="rotate(48 436.43 93.572)" class="st0" d="M434.9 88.5h3v10.2h-3z"/><path transform="rotate(48 75.668 418.4)" class="st0" d="M74.2 413.2h3v10.4h-3z"/><path transform="rotate(42 418.455 75.599)" class="st0" d="M417 70.5h3v10.2h-3z"/><path transform="rotate(42 93.632 436.354)" class="st0" d="M92.1 431.1h3v10.4h-3z"/><path transform="rotate(36.002 398.677 59.597)" class="st0" d="M397.2 54.5h3v10.2h-3z"/><path transform="rotate(36.002 113.37 452.303)" class="st0" d="M111.9 447.1h3v10.4h-3z"/><path transform="rotate(84.002 497.432 230.611)" class="st0" d="M495.9 225.5h3v10.2h-3z"/><path transform="rotate(84.002 14.673 281.364)" class="st0" d="M13.2 276.2h3v10.4h-3z"/><path transform="rotate(78 493.475 205.538)" class="st0" d="M492 200.4h3v10.2h-3z"/><path transform="rotate(78 18.64 306.467)" class="st0" d="M17.2 301.3h3v10.4h-3z"/><path transform="rotate(72.002 486.85 180.967)" class="st0" d="M485.4 175.9h3v10.2h-3z"/><path transform="rotate(72.002 25.216 330.968)" class="st0" d="M23.7 325.8h3v10.4h-3z"/><path transform="rotate(66.001 477.792 157.266)" class="st0" d="M476.3 152.2h3v10.2h-3z"/><path transform="rotate(66.001 34.32 354.716)" class="st0" d="M32.8 349.5h3v10.4h-3z"/><path transform="rotate(113.999 477.797 354.765)" class="st0" d="M476.3 349.6h3v10.2h-3z"/><path transform="rotate(113.999 34.316 157.31)" class="st0" d="M32.8 152.1h3v10.4h-3z"/><path transform="rotate(107.998 486.86 331.016)" class="st0" d="M485.4 325.9h3v10.2h-3z"/><path transform="rotate(107.998 25.209 181.01)" class="st0" d="M23.7 175.8h3v10.4h-3z"/><path transform="rotate(102 493.475 306.487)" class="st0" d="M492 301.4h3v10.2h-3z"/><path transform="rotate(102 18.639 205.557)" class="st0" d="M17.2 200.4h3v10.4h-3z"/><path transform="rotate(95.998 497.438 281.383)" class="st0" d="M495.9 276.3h3v10.2h-3z"/><path transform="rotate(95.998 14.665 230.64)" class="st0" d="M13.2 225.4h3v10.4h-3z"/><path transform="rotate(143.998 398.686 452.4)" class="st0" d="M397.2 447.3h3v10.2h-3z"/><path transform="rotate(143.998 113.366 59.682)" class="st0" d="M111.9 54.5h3v10.4h-3z"/><path transform="rotate(138 418.453 436.424)" class="st0" d="M417 431.3h3v10.2h-3z"/><path transform="rotate(138 93.63 75.669)" class="st0" d="M92.1 70.5h3v10.4h-3z"/><path transform="rotate(132 436.432 418.46)" class="st0" d="M434.9 413.3h3v10.2h-3z"/><path transform="rotate(132 75.67 93.632)" class="st0" d="M74.2 88.4h3v10.4h-3z"/><path transform="rotate(126.001 452.398 398.682)" class="st0" d="M450.9 393.6h3v10.2h-3z"/><path transform="rotate(126.001 59.682 113.364)" class="st0" d="M58.2 108.2h3v10.4h-3z"/><path transform="rotate(173.988 281.385 497.428)" class="st0" d="M279.9 492.3h3v10.2h-3z"/><path transform="rotate(173.988 230.638 14.662)" class="st0" d="M229.2 9.5h3v10.4h-3z"/><path transform="rotate(168 306.49 493.48)" class="st0" d="M305 488.4h3v10.2h-3z"/><path transform="rotate(168 205.559 18.64)" class="st0" d="M204.1 13.5h3v10.4h-3z"/><path transform="rotate(162.002 331.005 486.843)" class="st0" d="M329.5 481.8h3V492h-3z"/><path transform="rotate(162.002 181.003 25.208)" class="st0" d="M179.5 20h3v10.4h-3z"/><path transform="rotate(156.001 354.759 477.79)" class="st0" d="M353.3 472.7h3v10.2h-3z"/><path transform="rotate(156.001 157.307 34.316)" class="st0" d="M155.8 29.1h3v10.4h-3z"/></svg>