<svg version="1.1" id="icon" xmlns="http://www.w3.org/2000/svg" x="0" y="0" viewBox="0 0 512 512" xml:space="preserve"><style type="text/css">.st0{fill:#363636}</style><circle class="st0" cx="256" cy="256" r="11.3"/><path class="st0" d="M250.7 0h10.5v21.1h-10.5zm0 490.9h10.5V512h-10.5z"/><path transform="rotate(-90 10.525 256)" class="st0" d="M5.3 245.5h10.5v21.1H5.3z"/><path transform="rotate(-90 501.475 256)" class="st0" d="M496.2 245.5h10.5v21.1h-10.5z"/><path transform="rotate(-60 43.412 133.266)" class="st0" d="M38.1 122.7h10.5v21.1H38.1z"/><path transform="rotate(-60 468.593 378.752)" class="st0" d="M463.3 368.2h10.5v21.1h-10.5z"/><path transform="rotate(-150 133.266 468.593)" class="st0" d="M128 458.1h10.5v21.1H128z"/><path transform="rotate(-150 378.742 43.412)" class="st0" d="M373.5 32.9H384V54h-10.5z"/><path transform="rotate(-30 133.259 43.418)" class="st0" d="M128 32.9h10.5V54H128z"/><path transform="rotate(-30 378.71 468.6)" class="st0" d="M373.5 458.1H384v21.1h-10.5z"/><path transform="rotate(-120 43.408 378.74)" class="st0" d="M38.2 368.2h10.5v21.1H38.2z"/><path transform="rotate(-120 468.59 133.27)" class="st0" d="M463.3 122.7h10.5v21.1h-10.5z"/><path transform="rotate(23.999 358.017 26.945)" class="st0" d="M356.5 21.7h3.1v10.5h-3.1z"/><path transform="rotate(23.999 154.065 485.019)" class="st0" d="M152.5 479.6h3.1v10.7h-3.1z"/><path transform="rotate(17.998 333.5 17.54)" class="st0" d="M332 12.3h3.1v10.5H332z"/><path transform="rotate(17.998 178.55 494.406)" class="st0" d="M177 489h3.1v10.7H177z"/><path transform="rotate(12 308.149 10.743)" class="st0" d="M306.6 5.5h3.1V16h-3.1z"/><path transform="rotate(12 203.9 501.194)" class="st0" d="M202.4 495.8h3.1v10.7h-3.1z"/><path transform="rotate(6.012 282.284 6.575)" class="st0" d="M280.7 1.4h3.1v10.5h-3.1z"/><path transform="rotate(6.012 229.973 505.35)" class="st0" d="M228.3 499.9h3.1v10.7h-3.1z"/><path transform="rotate(53.999 458.861 108.626)" class="st0" d="M457.3 103.4h3.1v10.5h-3.1z"/><path transform="rotate(53.999 53.225 403.334)" class="st0" d="M51.7 398h3.1v10.7h-3.1z"/><path transform="rotate(48 442.361 88.231)" class="st0" d="M440.8 83h3.1v10.5h-3.1z"/><path transform="rotate(48 69.74 423.739)" class="st0" d="M68.2 418.4h3.1v10.7h-3.1z"/><path transform="rotate(42 423.795 69.667)" class="st0" d="M422.2 64.4h3.1v10.5h-3.1z"/><path transform="rotate(42 88.293 442.283)" class="st0" d="M86.8 436.9h3.1v10.7h-3.1z"/><path transform="rotate(36.002 403.368 53.14)" class="st0" d="M401.9 47.9h3.1v10.5h-3.1z"/><path transform="rotate(36.002 108.681 458.758)" class="st0" d="M107.1 453.4h3.1v10.7h-3.1z"/><path transform="rotate(84.002 505.369 229.777)" class="st0" d="M503.8 224.5h3.1V235h-3.1z"/><path transform="rotate(84.002 6.738 282.199)" class="st0" d="M5.2 276.8h3.1v10.7H5.2z"/><path transform="rotate(78 501.282 203.878)" class="st0" d="M499.7 198.6h3.1v10.5h-3.1z"/><path transform="rotate(78 10.836 308.126)" class="st0" d="M9.3 302.8h3.1v10.7H9.3z"/><path transform="rotate(72.002 494.44 178.5)" class="st0" d="M492.9 173.3h3.1v10.5h-3.1z"/><path transform="rotate(72.002 17.629 333.434)" class="st0" d="M16.1 328.1h3.1v10.7h-3.1z"/><path transform="rotate(66.001 485.083 154.02)" class="st0" d="M483.5 148.8h3.1v10.5h-3.1z"/><path transform="rotate(66.001 27.03 357.961)" class="st0" d="M25.5 352.6h3.1v10.7h-3.1z"/><path transform="rotate(113.999 485.088 358.011)" class="st0" d="M483.5 352.7h3.1v10.5h-3.1z"/><path transform="rotate(113.999 27.028 154.065)" class="st0" d="M25.5 148.7h3.1v10.7h-3.1z"/><path transform="rotate(107.998 494.45 333.483)" class="st0" d="M492.9 328.2h3.1v10.5h-3.1z"/><path transform="rotate(107.998 17.622 178.544)" class="st0" d="M16.1 173.2h3.1v10.7h-3.1z"/><path transform="rotate(102 501.282 308.147)" class="st0" d="M499.7 302.9h3.1v10.5h-3.1z"/><path transform="rotate(102 10.835 203.898)" class="st0" d="M9.3 198.5h3.1v10.7H9.3z"/><path transform="rotate(95.998 505.375 282.217)" class="st0" d="M503.8 276.9h3.1v10.5h-3.1z"/><path transform="rotate(95.998 6.73 229.806)" class="st0" d="M5.2 224.4h3.1v10.7H5.2z"/><path transform="rotate(143.998 403.378 458.858)" class="st0" d="M401.9 453.6h3.1v10.5h-3.1z"/><path transform="rotate(143.998 108.676 53.228)" class="st0" d="M107.1 47.9h3.1v10.7h-3.1z"/><path transform="rotate(138 423.794 442.355)" class="st0" d="M422.2 437.1h3.1v10.5h-3.1z"/><path transform="rotate(138 88.291 69.74)" class="st0" d="M86.8 64.4h3.1v10.7h-3.1z"/><path transform="rotate(132 442.363 423.8)" class="st0" d="M440.8 418.5h3.1V429h-3.1z"/><path transform="rotate(132 69.741 88.293)" class="st0" d="M68.2 82.9h3.1v10.7h-3.1z"/><path transform="rotate(126.001 458.854 403.373)" class="st0" d="M457.3 398.1h3.1v10.5h-3.1z"/><path transform="rotate(126.001 53.227 108.675)" class="st0" d="M51.7 103.3h3.1V114h-3.1z"/><path transform="rotate(173.988 282.22 505.366)" class="st0" d="M280.7 500.1h3.1v10.5h-3.1z"/><path transform="rotate(173.988 229.804 6.728)" class="st0" d="M228.3 1.4h3.1v10.7h-3.1z"/><path transform="rotate(168 308.149 501.286)" class="st0" d="M306.6 496h3.1v10.5h-3.1z"/><path transform="rotate(168 203.9 10.835)" class="st0" d="M202.4 5.5h3.1v10.7h-3.1z"/><path transform="rotate(162.002 333.47 494.433)" class="st0" d="M332 489.2h3.1v10.5H332z"/><path transform="rotate(162.002 178.538 17.621)" class="st0" d="M177 12.3h3.1V23H177z"/><path transform="rotate(156.001 358.005 485.081)" class="st0" d="M356.5 479.8h3.1v10.5h-3.1z"/><path transform="rotate(156.001 154.062 27.027)" class="st0" d="M152.5 21.7h3.1v10.7h-3.1z"/></svg>