<svg version="1.1" id="icon" xmlns="http://www.w3.org/2000/svg" x="0" y="0" viewBox="0 0 512 512" xml:space="preserve"><style type="text/css">.st0{fill:#36434f}</style><circle class="st0" cx="256" cy="256" r="10.3"/><path class="st0" d="M256 8.1c33.5 0 65.9 6.6 96.5 19.5 29.5 12.5 56 30.4 78.8 53.1 22.8 22.8 40.6 49.3 53.1 78.8 12.9 30.6 19.5 63 19.5 96.5s-6.6 65.9-19.5 96.5c-12.5 29.5-30.4 56-53.1 78.8-22.8 22.8-49.3 40.6-78.8 53.1-30.6 12.9-63 19.5-96.5 19.5s-65.9-6.6-96.5-19.5c-29.5-12.5-56-30.4-78.8-53.1C58 408.5 40.1 382 27.6 352.5c-12.9-30.6-19.5-63-19.5-96.5s6.6-65.9 19.5-96.5c12.5-29.5 30.4-56 53.1-78.8C103.5 58 130 40.1 159.5 27.6c30.6-12.9 63-19.5 96.5-19.5m0-8.1C114.6 0 0 114.6 0 256s114.6 256 256 256 256-114.6 256-256S397.4 0 256 0z"/><path class="st0" d="M251.2 22.3h9.6v19.2h-9.6V22.3zm0 448.2h9.6v19.2h-9.6v-19.2zM22.3 260.8v-9.6h19.2v9.6H22.3zm448.2 0v-9.6h19.2v9.6h-19.2zM51.2 143.3L56 135l16.6 9.6-4.8 8.3-16.6-9.6zm388.1 224.1l4.8-8.3 16.6 9.6-4.8 8.3-16.6-9.6zm-295.9 93.4L135 456l9.6-16.6 8.3 4.8-9.5 16.6zM367.5 72.7l-8.3-4.8 9.6-16.6 8.3 4.8-9.6 16.6zM134.9 56l8.3-4.8 9.6 16.6-8.3 4.8-9.6-16.6zm224.2 388.2l8.3-4.8L377 456l-8.3 4.8-9.6-16.6zM56 377.1l-4.8-8.3 16.6-9.6 4.8 8.3-16.6 9.6zm388.1-224.2l-4.8-8.3 16.6-9.6 4.8 8.3-16.6 9.6zm-94.3-111l2.6 1.1-3.9 8.8-2.6-1.1 3.9-8.8zm-186.1 418l2.6 1.1-4 9-2.6-1.1 4-9zM326.9 33.3l2.7.9-3 9.1-2.7-.9 3-9.1zM185.5 468.5l2.7.9-3 9.3-2.7-.9 3-9.3zM303.2 27.1l2.7.6-2 9.4-2.7-.6 2-9.4zm-95.1 447.6l2.7.6-2 9.6-2.7-.6 2-9.6zM279 23.4l2.8.3-1 9.5-2.8-.3 1-9.5zm-47.8 455.2l2.8.3-1 9.7-2.8-.3 1-9.7zm213.1-361.1l1.6 2.3-7.8 5.6-1.6-2.3 7.8-5.6zM74 386.5l1.6 2.3-7.9 5.8-1.6-2.3 7.9-5.8zm354.8-288l1.9 2.1-7.1 6.4-1.9-2.1 7.1-6.4zM88.7 404.8l1.9 2.1-7.3 6.6-1.9-2.1 7.3-6.6zM411.4 81.4l2.1 1.9-6.4 7.1-2.1-1.9 6.4-7.1zM105.1 421.5l2.1 1.9-6.6 7.3-2.1-1.9 6.6-7.3zM392.3 66.1l2.3 1.6-5.6 7.8-2.3-1.6 5.6-7.8zm-269 370.2l2.3 1.6-5.8 7.9-2.3-1.6 5.8-7.9zm365-206.1l.3 2.8-9.5 1-.3-2.8 9.5-1zM33.2 278l.3 2.8-9.7 1-.3-2.8 9.7-1zm451.1-72l.6 2.7-9.4 2-.5-2.7 9.3-2zM36.7 301.2l.6 2.7-9.6 2-.6-2.7 9.6-2zm441.1-118.7l.9 2.7-9.1 3-.9-2.7 9.1-3zM42.6 323.9l.9 2.7-9.3 3-.9-2.7 9.3-3zm426.3-164.3l1.1 2.6-8.8 3.9-1.1-2.6 8.8-3.9zm-418 186.3l1.1 2.6-9 4-1.1-2.6 9-4zm419.2 3.9l-1.1 2.6-8.8-3.9 1.1-2.6 8.8 3.9zM52 163.7l-1.1 2.6-9-4 1.1-2.6 9 4zm426.7 163.2l-.9 2.7-9.1-3 .9-2.7 9.1 3zM43.4 185.5l-.9 2.7-9.3-3 .9-2.7 9.3 3zm441.5 117.7l-.6 2.7-9.4-2 .6-2.7 9.4 2zM37.3 208.1l-.6 2.7-9.6-2 .6-2.7 9.6 2zm451.3 71l-.3 2.8-9.5-1 .3-2.8 9.5 1zM33.4 231.2l-.3 2.8-9.7-1 .3-2.8 9.7 1zm361.1 213.1l-2.3 1.6-5.6-7.8 2.3-1.6 5.6 7.8zM125.5 74l-2.3 1.6-5.8-7.9 2.3-1.6 5.8 7.9zm287.9 354.8l-2.1 1.9-6.4-7.1 2.1-1.9 6.4 7.1zM107.2 88.6l-2.1 1.9-6.6-7.3 2.1-1.9 6.6 7.3zm323.5 322.7l-1.9 2.1-7.1-6.4 1.9-2.1 7.1 6.4zM90.5 105.2l-1.9 2.1-7.3-6.6 1.9-2.1 7.3 6.6zm355.4 287.1l-1.6 2.3-7.8-5.6 1.6-2.3 7.8 5.6zm-370.2-269l-1.6 2.3-7.9-5.8 1.6-2.3 7.9 5.8zm206.2 365l-2.8.3-1-9.5 2.8-.3 1 9.5zM234 33.2l-2.8.3-1-9.7 2.8-.3 1 9.7zm72 451.2l-2.7.6-2-9.4 2.7-.6 2 9.4zM210.9 36.7l-2.7.6-2-9.6 2.7-.6 2 9.6zm118.7 441.1l-2.7.9-3-9.1 2.7-.9 3 9.1zM188.1 42.6l-2.7.9-3-9.3 2.7-.9 3 9.3zM352.4 469l-2.6 1.1-3.9-8.8 2.6-1.1 3.9 8.8zM166.2 50.8l-2.6 1.1-4-9 2.6-1.1 4 9zm77.6 22.8l7 11.5c1.2 1.9 2 3.1 2.5 3.5s1.1.7 1.7.7v.7h-12.3v-.8c1-.1 1.6-.2 1.9-.5.3-.2.4-.6.4-.9 0-.2 0-.5-.1-.7-.2-.4-.6-1.2-1.3-2.3l-3.7-6.1L236 84c-1.2 1.6-1.7 2.7-1.7 3.2 0 .4.1.8.4 1.1.3.3.7.6 1.3.7.3.1.8.1 1.6.1v.9h-9.7v-.8c1.1-.2 2-.5 2.6-1 .8-.6 2-2 3.5-4l5-6.8-6.4-10.4c-1.1-1.7-1.7-2.7-1.8-2.9-.3-.5-.7-.8-1-1s-.8-.3-1.3-.4v-.8H241v.8h-.6c-.7 0-1.2.1-1.5.4-.3.3-.4.6-.4 1 0 .3 0 .6.1.8l1.3 2.2 3.1 5.3 2.7-3.6c1.4-1.9 2.1-3.2 2.1-3.9 0-.4-.1-.7-.3-1-.2-.3-.5-.6-.8-.7-.4-.2-.9-.3-1.7-.3v-.8h9.3v.8c-.7 0-1.3.1-1.8.3-.4.2-.9.5-1.4 1-.3.3-1.1 1.4-2.4 3.1l-4.9 6.3zm25.4 15.7v.7H256v-.8h.8c.7 0 1.3-.1 1.8-.4.3-.2.6-.5.7-1 .1-.3.2-1.2.2-2.6V66.7c0-1.4-.1-2.3-.2-2.7-.1-.4-.4-.7-.8-.9-.4-.3-1-.4-1.7-.4h-.8v-.8h13.2v.8h-.8c-.7 0-1.3.1-1.8.4-.3.2-.6.5-.8 1-.1.3-.2 1.2-.2 2.6v18.5c0 1.4.1 2.3.2 2.7.1.4.4.7.8.9.4.3 1 .4 1.7.4h.9v.1zm14.9 0v.7h-13.2v-.8h.8c.7 0 1.3-.1 1.8-.4.3-.2.6-.5.7-1 .1-.3.2-1.2.2-2.6V66.7c0-1.4-.1-2.3-.2-2.7-.1-.4-.4-.7-.8-.9-.4-.3-1-.4-1.7-.4h-.8v-.8h13.2v.8h-.8c-.7 0-1.3.1-1.8.4-.3.2-.6.5-.8 1-.1.3-.2 1.2-.2 2.6v18.5c0 1.4.1 2.3.2 2.7.1.4.4.7.8.9.4.3 1 .4 1.7.4h.9v.1zm61 25.6l-.4.7-11.5-6.6.4-.7.7.4c.6.4 1.2.5 1.8.5.4 0 .8-.2 1.1-.5.3-.2.8-.9 1.5-2.2l9.2-16c.7-1.2 1.1-2.1 1.2-2.4.1-.4 0-.8-.2-1.2-.2-.4-.6-.8-1.3-1.2l-.7-.4.4-.7 11.5 6.6-.4.7-.7-.4c-.6-.4-1.2-.5-1.8-.5-.4 0-.8.2-1.2.5-.3.2-.8.9-1.5 2.2l-9.2 16c-.7 1.2-1.1 2.1-1.2 2.4-.1.4 0 .8.3 1.2.2.4.6.8 1.3 1.2l.7.4zm54.9 57l-.7.4-6.6-11.5.7-.4.4.7c.4.6.8 1.1 1.3 1.3.3.2.7.2 1.2.1.4 0 1.1-.4 2.4-1.1l16-9.2c1.2-.7 2-1.2 2.2-1.5s.4-.7.4-1.2-.1-1.1-.5-1.7l-.4-.7.7-.4 6.6 11.5-.7.4-.4-.7c-.4-.6-.8-1.1-1.3-1.3-.3-.2-.7-.2-1.2-.2-.4 0-1.1.4-2.4 1.1l-16 9.2c-1.2.7-2 1.2-2.2 1.5s-.4.7-.4 1.2.1 1.1.5 1.7l.4.8zm7.4 12.9l-.7.4-6.6-11.5.7-.4.4.7c.4.6.8 1.1 1.3 1.3.3.2.7.2 1.2.1.4 0 1.1-.4 2.4-1.1l16-9.2c1.2-.7 2-1.2 2.2-1.5s.4-.7.4-1.2-.1-1.1-.5-1.7l-.4-.7.7-.4 6.6 11.5-.7.4-.4-.7c-.4-.6-.8-1.1-1.3-1.3-.3-.2-.7-.2-1.2-.2-.4 0-1.1.4-2.4 1.1l-16 9.2c-1.2.7-2 1.2-2.2 1.5s-.4.7-.4 1.2.1 1.1.5 1.7l.4.8zm15.3 62.9h-.7v-13.2h.8v.8c0 .7.1 1.3.4 1.8.2.3.5.6 1 .7.3.1 1.2.2 2.6.2h18.5c1.4 0 2.3-.1 2.7-.2.4-.1.7-.4.9-.8.3-.4.4-1 .4-1.7v-.8h.8v13.2h-.8v-.8c0-.7-.1-1.3-.4-1.8-.2-.3-.5-.6-1-.8-.3-.1-1.2-.2-2.6-.2h-18.5c-1.4 0-2.3.1-2.7.2-.4.1-.7.4-.9.8-.3.4-.4 1-.4 1.7l-.1.9zm0 14.9h-.7v-13.2h.8v.8c0 .7.1 1.3.4 1.8.2.3.5.6 1 .7.3.1 1.2.2 2.6.2h18.5c1.4 0 2.3-.1 2.7-.2.4-.1.7-.4.9-.8.3-.4.4-1 .4-1.7v-.8h.8v13.2h-.8v-.8c0-.7-.1-1.3-.4-1.8-.2-.3-.5-.6-1-.8-.3-.1-1.2-.2-2.6-.2h-18.5c-1.4 0-2.3.1-2.7.2-.4.1-.7.4-.9.8-.3.4-.4 1-.4 1.7l-.1.9zm0 14.9h-.7v-13.2h.8v.8c0 .7.1 1.3.4 1.8.2.3.5.6 1 .7.3.1 1.2.2 2.6.2h18.5c1.4 0 2.3-.1 2.7-.2.4-.1.7-.4.9-.8.3-.4.4-1 .4-1.7v-.8h.8v13.2h-.8v-.8c0-.7-.1-1.3-.4-1.8-.2-.3-.5-.6-1-.8-.3-.1-1.2-.2-2.6-.2h-18.5c-1.4 0-2.3.1-2.7.2-.4.1-.7.4-.9.8-.3.4-.4 1-.4 1.7l-.1.9zm-18.6 55.4l-.7-.4L410 321l.7.4-.4.7c-.4.6-.5 1.2-.5 1.8 0 .4.2.8.5 1.1.2.3.9.8 2.2 1.5l16 9.2c1.2.7 2.1 1.1 2.4 1.2.4.1.8 0 1.2-.2.4-.2.8-.6 1.2-1.3l.4-.7.7.4-6.6 11.5-.7-.4.4-.7c.4-.6.5-1.2.5-1.8 0-.4-.2-.8-.5-1.2-.2-.3-.9-.8-2.2-1.5l-16-9.2c-1.2-.7-2.1-1.1-2.4-1.2-.4-.1-.8 0-1.2.3-.4.2-.8.6-1.2 1.3l-.4.7zm9.6 38l-.7-.4c.3-.9.3-1.9-.2-3-.3-.8-1.4-2.3-3.1-4.5l-14.2-18.3.3-.5 23.7 3.7c2.9.4 4.6.6 5.2.6.6-.1 1.2-.5 1.8-1.3l.7.4-6.1 10.5-.7-.4.2-.4c.5-.9.8-1.7.7-2.2 0-.4-.2-.6-.6-.8-.2-.1-.5-.2-.8-.3-.3-.1-1.3-.2-2.9-.5l-14.8-2.3 8.3 10.6c1 1.3 1.7 2.1 2.1 2.5s.7.7 1 .8c.4.2.7.3 1.1.3s.7-.1 1.1-.4c.5-.3.9-.9 1.4-1.7l.7.4-4.2 7.2zm-72.3 59.9l-.4-.7c.7-.6 1.2-1.5 1.3-2.7.1-.9 0-2.7-.4-5.4l-3.2-23 .5-.3 18.7 15c2.3 1.8 3.7 2.8 4.2 3.1.5.2 1.3.2 2.2-.2l.4.7-10.5 6.1-.4-.7.4-.2c.9-.5 1.5-1.1 1.7-1.5.1-.3.1-.7-.1-1-.1-.2-.3-.4-.6-.7-.3-.2-1-.9-2.2-1.9l-11.7-9.4 1.9 13.3c.2 1.6.4 2.7.6 3.2.1.5.3.9.5 1.2.2.4.5.6.8.8.3.2.7.2 1.1.2.6-.1 1.3-.3 2-.8l.4.7-7.2 4.2zm-91.7 19.3v-.8c.9-.2 1.7-.7 2.5-1.6.5-.7 1.3-2.3 2.3-4.9l8.7-21.5h.6l8.7 22.4c1 2.7 1.7 4.3 2.1 4.7.4.5 1 .8 2 .9v.8h-12.1v-.8h.4c1.1 0 1.8-.2 2.2-.5.3-.2.4-.5.4-.9 0-.2 0-.5-.1-.9-.1-.3-.4-1.2-1-2.7l-5.4-14-5 12.5c-.6 1.5-1 2.5-1.1 3s-.2.9-.2 1.3.1.8.3 1.1c.2.3.5.6.9.7.5.2 1.2.4 2.1.4v.8h-8.3zm-14.4-27.4v-.7h13.2v.8h-.8c-.7 0-1.3.1-1.8.4-.3.2-.6.5-.7 1-.1.3-.2 1.2-.2 2.6v18.5c0 1.4.1 2.3.2 2.7.1.4.4.7.8.9.4.3 1 .4 1.7.4h.8v.8h-13.2v-.8h.8c.7 0 1.3-.1 1.8-.4.3-.2.6-.5.8-1 .1-.3.2-1.2.2-2.6v-18.5c0-1.4-.1-2.3-.2-2.7-.1-.4-.4-.7-.8-.9-.4-.3-1-.4-1.7-.4l-.9-.1zm-75.3 2l.4-.7c.9.3 1.9.3 3-.2.8-.3 2.3-1.4 4.5-3.1l18.3-14.2.5.3-3.7 23.7c-.4 2.9-.6 4.6-.6 5.2.1.6.5 1.2 1.3 1.8l-.4.7-10.5-6.1.4-.7.4.2c.9.5 1.7.8 2.2.7.4 0 .6-.2.8-.6.1-.2.2-.5.3-.8s.2-1.3.5-2.9l2.3-14.8-10.6 8.3c-1.3 1-2.1 1.7-2.5 2.1s-.7.7-.8 1c-.2.4-.3.7-.3 1.1s.1.7.4 1.1c.3.5.9.9 1.7 1.4l-.4.7-7.2-4.2zm1.2-30.9l.4-.7 11.5 6.6-.4.7-.7-.4c-.6-.4-1.2-.5-1.8-.5-.4 0-.8.2-1.1.5-.3.2-.8.9-1.5 2.2l-9.2 16c-.7 1.2-1.1 2.1-1.2 2.4-.1.4 0 .8.2 1.2.2.4.6.8 1.3 1.2l.7.4-.4.7-11.5-6.6.4-.7.7.4c.6.4 1.2.5 1.8.5.4 0 .8-.2 1.2-.5.3-.2.8-.9 1.5-2.2l9.2-16c.7-1.2 1.1-2.1 1.2-2.4.1-.4 0-.8-.3-1.2-.2-.4-.6-.8-1.3-1.2l-.7-.4zm-12.9-7.5l.4-.7 11.5 6.6-.4.7-.7-.4c-.6-.4-1.2-.5-1.8-.5-.4 0-.8.2-1.1.5-.3.2-.8.9-1.5 2.2l-9.2 16c-.7 1.2-1.1 2.1-1.2 2.4-.1.4 0 .8.2 1.2.2.4.6.8 1.3 1.2l.7.4-.4.7-11.5-6.6.4-.7.7.4c.6.4 1.2.5 1.8.5.4 0 .8-.2 1.2-.5.3-.2.8-.9 1.5-2.2l9.2-16c.7-1.2 1.1-2.1 1.2-2.4.1-.4 0-.8-.3-1.2-.2-.4-.6-.8-1.3-1.2l-.7-.4zm-56.1-25.8l.7-.4c.6.7 1.5 1.2 2.7 1.3.9.1 2.7 0 5.4-.4l23-3.2.3.5-15 18.7c-1.8 2.3-2.8 3.7-3.1 4.2-.2.5-.2 1.3.2 2.2l-.7.4-6.1-10.5.7-.4.2.4c.5.9 1.1 1.5 1.5 1.7.3.1.7.1 1-.1.2-.1.4-.3.7-.6.2-.3.9-1 1.9-2.2l9.4-11.7-13.3 1.9c-1.6.2-2.7.4-3.2.6s-.9.3-1.2.5c-.4.2-.6.5-.8.8-.2.3-.2.7-.2 1.1.1.6.3 1.3.8 2l-.7.4-4.2-7.2zm16.5-26.1l.7-.4 6.6 11.5-.7.4-.4-.7c-.4-.6-.8-1.1-1.3-1.3-.3-.2-.7-.2-1.2-.1-.4 0-1.1.4-2.4 1.1L94 354c-1.2.7-2 1.2-2.2 1.5s-.4.7-.4 1.2.1 1.1.5 1.7l.4.7-.7.4L85 348l.7-.4.4.7c.4.6.8 1.1 1.3 1.3.3.2.7.2 1.2.2.4 0 1.1-.4 2.4-1.1l16-9.2c1.2-.7 2-1.2 2.2-1.5s.4-.7.4-1.2-.1-1.1-.5-1.7l-.4-.7zm-7.4-12.9l.7-.4 6.6 11.5-.7.4-.4-.7c-.4-.6-.8-1.1-1.3-1.3-.3-.2-.7-.2-1.2-.1-.4 0-1.1.4-2.4 1.1l-16 9.2c-1.2.7-2 1.2-2.2 1.5s-.4.7-.4 1.2.1 1.1.5 1.7l.4.7-.7.4-6.6-11.5.7-.4.4.7c.4.6.8 1.1 1.3 1.3.3.2.7.2 1.2.2.4 0 1.1-.4 2.4-1.1l16-9.2c1.2-.7 2-1.2 2.2-1.5s.4-.7.4-1.2-.1-1.1-.5-1.7l-.4-.8zm-7.5-12.9l.7-.4 6.6 11.5-.7.4-.4-.7c-.4-.6-.8-1.1-1.3-1.3-.3-.2-.7-.2-1.2-.1-.4 0-1.1.4-2.4 1.1l-16 9.2c-1.2.7-2 1.2-2.2 1.5s-.4.7-.4 1.2.1 1.1.5 1.7l.4.7-.7.4-6.6-11.5.7-.4.4.7c.4.6.8 1.1 1.3 1.3.3.2.7.2 1.2.2.4 0 1.1-.4 2.4-1.1l16-9.2c1.2-.7 2-1.2 2.2-1.5s.4-.7.4-1.2-.1-1.1-.5-1.7l-.4-.8zm-4.5-45.1h.7v13.2h-.8v-.8c0-.7-.1-1.3-.4-1.8-.2-.3-.5-.6-1-.7-.3-.1-1.2-.2-2.6-.2H66.7c-1.4 0-2.3.1-2.7.2-.4.1-.7.4-.9.8-.3.4-.4 1-.4 1.7v.8h-.8v-13.2h.8v.8c0 .7.1 1.3.4 1.8.2.3.5.6 1 .8.3.1 1.2.2 2.6.2h18.5c1.4 0 2.3-.1 2.7-.2.4-.1.7-.4.9-.8.3-.4.4-1 .4-1.7l.1-.9zm-15.7-17l11.5-7c1.9-1.2 3.1-2 3.5-2.5s.7-1.1.7-1.7h.7v12.3h-.8c-.1-1-.2-1.6-.5-1.9-.2-.3-.6-.4-.9-.4-.2 0-.5 0-.7.1-.4.2-1.2.6-2.3 1.3l-6.1 3.7 5.2 3.9c1.6 1.2 2.7 1.7 3.2 1.7.4 0 .8-.1 1.1-.4.3-.3.6-.7.7-1.3.1-.3.1-.8.1-1.6h1v9.7h-.8c-.2-1.1-.5-2-1-2.6-.6-.8-2-2-4-3.5l-6.8-5-10.4 6.4c-1.7 1.1-2.7 1.7-2.9 1.8-.5.3-.8.7-1 1s-.3.8-.4 1.3h-.8v-12.6h.8v.6c0 .7.1 1.2.4 1.5.3.3.6.4 1 .4.3 0 .6 0 .8-.1l2.2-1.3 5.3-3.1-3.6-2.7c-1.9-1.4-3.2-2.1-3.9-2.1-.4 0-.7.1-1 .3-.3.2-.6.5-.7.8-.2.4-.3.9-.3 1.7h-.8V236h.8c0 .7.1 1.3.3 1.8.2.4.5.9 1 1.4.3.3 1.4 1.1 3.1 2.4l6.3 4.9zm25.6-83.8l13.5-.3c2.2 0 3.6-.2 4.2-.4s1.1-.6 1.5-1.1l.7.4-6.2 10.7-.7-.4c.4-.9.6-1.5.5-1.9s-.3-.6-.6-.8c-.2-.1-.4-.2-.6-.2-.4-.1-1.3-.1-2.7 0l-7.1.2 2.6 6c.8 1.8 1.4 2.8 1.9 3.1.3.2.7.3 1.2.2.4-.1.9-.3 1.3-.8.2-.2.5-.6.9-1.3l.7.4-4.9 8.4-.7-.4c.4-1 .5-2 .4-2.8-.1-1-.7-2.7-1.7-5L100 169l-12.3.3c-2 .1-3.2.1-3.4.1-.6.1-1 .2-1.3.4s-.7.5-1 .9l-.7-.4 6.3-10.9.7.4-.3.5c-.4.6-.5 1.1-.4 1.5s.3.7.6.9c.3.2.5.2.7.3h2.5l6.2-.1-1.8-4.1c-.9-2.1-1.7-3.4-2.4-3.7-.3-.2-.7-.3-1-.3-.4 0-.7.1-1.1.3-.3.2-.7.7-1.1 1.3l-.7-.4 4.7-8.1.7.4c-.4.6-.6 1.2-.6 1.7-.1.5 0 1.1.2 1.8.1.4.6 1.7 1.5 3.6l3.2 7.3zm61.4-62.3l11.8 6.5c2 1.1 3.2 1.7 3.9 1.8.6.1 1.3 0 1.9-.2l.4.7-10.7 6.2-.4-.7c.8-.6 1.3-1 1.4-1.4.1-.4.1-.7-.1-1-.1-.2-.3-.4-.4-.5-.4-.3-1.1-.7-2.3-1.4l-6.2-3.4-.7 6.5c-.2 2-.2 3.2.1 3.7.2.3.5.6.9.7.4.2.9.1 1.5 0 .3-.1.8-.3 1.5-.7l.4.7-8.4 4.9-.4-.7c.9-.7 1.5-1.4 1.8-2.2.4-1 .7-2.7 1-5.2l.9-8.4-10.8-5.9c-1.8-1-2.8-1.5-3-1.6-.5-.2-1-.3-1.3-.3-.4 0-.8.1-1.4.3l-.4-.7 10.9-6.3.4.7-.5.3c-.6.4-1 .7-1.1 1.1s-.1.7.1 1.1c.2.3.3.5.5.6l2.2 1.2 5.4 3 .5-4.5c.3-2.3.2-3.8-.2-4.4-.2-.3-.4-.6-.8-.8-.3-.2-.7-.3-1.1-.2-.4 0-.9.2-1.6.6l-.4-.7 8.1-4.7.4.7c-.6.4-1.1.8-1.4 1.1-.3.4-.5.9-.7 1.6-.1.4-.3 1.7-.6 3.9l-1.1 8zm29.9.9l.4.7-11.5 6.6-.4-.7.7-.4c.6-.4 1.1-.8 1.3-1.3.2-.3.2-.7.1-1.2 0-.4-.4-1.1-1.1-2.4l-9.2-16c-.7-1.2-1.2-2-1.5-2.2s-.7-.4-1.2-.4-1.1.1-1.7.5l-.7.4-.4-.7 11.5-6.6.4.7-.7.4c-.6.4-1.1.8-1.3 1.3-.2.3-.2.7-.2 1.2 0 .4.4 1.1 1.1 2.4l9.2 16c.7 1.2 1.2 2 1.5 2.2s.7.4 1.2.4 1.1-.1 1.7-.5l.8-.4z"/></svg>