<svg version="1.1" xmlns="http://www.w3.org/2000/svg" x="0" y="0" viewBox="0 0 512 512" xml:space="preserve"><path d="M512 317c0-7.8-57.1-14.6-140.5-17.9 3.3-3.7 6.6-7.7 9.9-12 6.9 3.4 15.7 5.8 26.6 5.8 30.7 0 73.9-22.7 90.2-59.3 9.3-20.8 9.8-41.5 1.5-56.9-5.1-9.3-15.9-21.2-38.3-24.7-11.3-1.8-20.9.8-28.9 5.5C434.9 145 436 137 436 137c0-14.4-80.6-26-180-26S76 122.6 76 137c0 0 9 67 35 119 8.8 17.6 19.2 31.5 29.5 43.1C57.1 302.4 0 309.2 0 317c0 21.3 43.1 40.2 108.9 51.6L119 382c0 6.6 61.3 12 137 12s137-5.4 137-12l10.1-13.4C468.9 357.2 512 338.3 512 317zm-53.4-147.1c12.2 1.9 20.7 7.1 25.2 15.5 5.7 10.4 4.9 25.3-2.1 40.9-13 29.1-48.6 48.7-73.8 48.7-6.4 0-11.8-1.2-16.1-2.9 3.2-5 6.2-10.4 9.1-16.1 10.4-20.9 18.1-44.2 23.6-64.6 6.9-11.2 18.3-24 34.1-21.5z"/></svg>