<?xml version="1.0" encoding="utf-8"?>
<!-- Generator: Adobe Illustrator 21.0.2, SVG Export Plug-In . SVG Version: 6.00 Build 0)  -->
<svg version="1.1" id="logo" xmlns="http://www.w3.org/2000/svg" xmlns:xlink="http://www.w3.org/1999/xlink" x="0px" y="0px"
	 viewBox="0 0 538 150" style="enable-background:new 0 0 538 150;" xml:space="preserve">
<style type="text/css">
	.st0{fill:#81ADE5;}
	.st1{fill:#FFFFFF;}
	.st2{fill:#4A6484;}
</style>
<g id="icon">
	<g>
		<polygon class="st0" points="54.4,74.8 23.7,74.8 8.3,101.4 23.7,128 54.4,128 69.7,101.4 		"/>
		<path class="st1" d="M54.4,74.8l15.3,26.6L54.4,128l-30.7,0L8.3,101.4l15.3-26.6L54.4,74.8 M56.2,71.5l-1.9,0l-30.7,0l-1.9,0
			l-0.9,1.6L5.5,99.7l-0.9,1.6l0.9,1.6l15.3,26.6l0.9,1.6h1.9l30.7,0h1.9l0.9-1.6L72.5,103l0.9-1.6l-0.9-1.6L57.2,73.2L56.2,71.5
			L56.2,71.5z"/>
	</g>
	<g>
		<polygon class="st0" points="110.7,45 80,45 64.7,71.5 80,98.1 110.7,98.1 126,71.5 		"/>
		<path class="st1" d="M110.7,45L126,71.5l-15.3,26.6l-30.7,0L64.7,71.5L80,45L110.7,45 M112.6,41.7l-1.9,0l-30.7,0h-1.9l-0.9,1.6
			L61.8,69.9l-0.9,1.6l0.9,1.6l15.3,26.6l0.9,1.6l1.9,0l30.7,0l1.9,0l0.9-1.6l15.3-26.6l0.9-1.6l-0.9-1.6l-15.3-26.6L112.6,41.7
			L112.6,41.7z"/>
	</g>
	<g>
		<polygon class="st0" points="78.9,34.7 70.5,20.3 39.8,20.3 24.5,46.8 34.6,64.2 56.7,64.2 73.7,34.7 		"/>
		<path class="st1" d="M70.5,20.3l8.3,14.4l-5.1,0l-17,29.5l-22.1,0L24.5,46.8l15.3-26.5L70.5,20.3 M72.4,17l-1.9,0l-30.7,0l-1.9,0
			L37,18.6L21.6,45.2l-0.9,1.6l0.9,1.6l10.1,17.4l0.9,1.6h1.9l22.1,0h1.9l0.9-1.6L75.6,38h3.2l5.7,0l-2.8-4.9l-8.3-14.4L72.4,17
			L72.4,17z"/>
	</g>
</g>
<g id="Boost">
	<path class="st2" d="M179.6,7.7l-3.6,27.1h16.2c7.2,0,12.8,0.9,16.9,2.7c4.1,1.8,7.4,4.7,9.9,8.8c2.1,3.4,3.6,7.2,4.3,11.3
		c0.7,4.1,0.8,8.7,0.1,13.6c-1.6,12-5.9,21.4-13,28.1c-7,6.8-16,10.1-27,10.1H147L160.7,7.7H179.6z M185.3,50.9h-11.5L168,93.5h13
		c7.2,0,12.5-1.6,15.8-4.7c3.3-3.2,5.5-8.5,6.5-16.1c1-7.8,0.2-13.4-2.6-16.7C198,52.6,192.9,50.9,185.3,50.9z"/>
	<path class="st2" d="M308.8,72.2c-1.6,11.7-6.2,21.1-14,28.1c-7.8,7-17.4,10.5-29,10.5c-11.6,0-20.3-3.5-26.3-10.5
		c-5.9-7-8.1-16.4-6.6-28c1.6-11.7,6.3-21.1,14.1-28.1c7.8-7,17.5-10.6,29.1-10.6c11.5,0,20.2,3.5,26.1,10.6
		C308.2,51.1,310.3,60.4,308.8,72.2z M252.8,72.2c-1,7.1-0.1,12.6,2.5,16.6c2.6,4,6.8,6,12.5,6c5.7,0,10.4-2,14.1-6
		c3.8-4,6.1-9.5,7.1-16.6c1-7.1,0.1-12.6-2.6-16.6c-2.7-3.9-6.9-5.9-12.5-5.9c-5.7,0-10.3,2-14.1,6C256,59.6,253.7,65.1,252.8,72.2z
		"/>
	<path class="st2" d="M396.3,72.2c-1.6,11.7-6.2,21.1-14,28.1c-7.8,7-17.4,10.5-29,10.5c-11.6,0-20.3-3.5-26.3-10.5
		c-5.9-7-8.1-16.4-6.6-28c1.6-11.7,6.3-21.1,14.1-28.1c7.8-7,17.5-10.6,29.1-10.6c11.5,0,20.2,3.5,26.1,10.6
		C395.7,51.1,397.9,60.4,396.3,72.2z M340.3,72.2c-1,7.1-0.1,12.6,2.5,16.6c2.6,4,6.8,6,12.5,6c5.7,0,10.4-2,14.1-6
		c3.8-4,6.1-9.5,7.1-16.6c1-7.1,0.1-12.6-2.6-16.6c-2.7-3.9-6.9-5.9-12.5-5.9c-5.7,0-10.3,2-14.1,6
		C343.6,59.6,341.3,65.1,340.3,72.2z"/>
	<path class="st2" d="M401.8,93.9h39.8c3.5,0,6.2-0.6,7.9-1.7c1.8-1.2,2.8-3,3.2-5.5c0.3-2.5-0.2-4.4-1.7-5.6
		c-1.5-1.2-4-1.8-7.4-1.8h-16.3c-9.7,0-16-1.5-19-4.6c-3-3.1-3.9-8.6-2.9-16.5c1.1-8,3.9-13.9,8.5-17.7c4.6-3.8,11.2-5.7,19.8-5.7
		h40.5l-2.1,15.6h-33.3c-5.4,0-9,0.5-10.8,1.5c-1.8,1-2.8,2.8-3.2,5.3c-0.3,2.3,0.2,4,1.5,5.1c1.3,1.1,3.5,1.6,6.6,1.6h17.1
		c7.8,0,13.5,1.9,17.1,5.7c3.6,3.8,4.9,9.3,3.9,16.5c-0.9,6.9-3.5,12.6-7.7,16.9c-4.2,4.3-9.2,6.5-14.9,6.5h-48.7L401.8,93.9z"/>
	<path class="st2" d="M482.4,34.8h11.3l3.6-27.1h18.9l-3.6,27.1h16.9l-2,14.9h-16.9l-4.1,30.2c-0.7,5.5-0.4,9.4,1.2,11.5
		c1.5,2.1,4.5,3.2,9,3.2h4.7l-2,14.9h-14.2c-7,0-12-2-15.2-6.1c-3.2-4-4.2-9.8-3.2-17.3l4.9-36.4h-11.3L482.4,34.8z"/>
</g>
<g id="C_x2B__x2B__Libraries">
	<path class="st2" d="M151.8,128.6c-1.3,0-2.3,0.4-3,1.2c-0.7,0.8-1.2,2.2-1.4,4.1c-0.2,1.6-0.1,2.8,0.3,3.5c0.5,0.7,1.4,1,2.7,1
		h5.2l-0.4,2.6h-5.3c-1.2,0-2.1-0.1-2.7-0.3c-0.6-0.2-1.2-0.5-1.7-1c-0.7-0.6-1.1-1.4-1.4-2.4c-0.2-1-0.3-2.1-0.1-3.5
		c0.4-2.6,1.2-4.6,2.5-5.8c1.3-1.3,3.2-1.9,5.6-1.9h5.2l-0.4,2.5H151.8z"/>
	<path class="st2" d="M179.9,128.6h2l-0.7,5.2h5.1l-0.3,2H181l-0.7,5.2h-2l0.7-5.2h-5.1l0.3-2h5.1L179.9,128.6z"/>
	<path class="st2" d="M209.9,128.6h2l-0.7,5.2h5.1l-0.3,2h-5.1l-0.7,5.2h-2l0.7-5.2h-5.1l0.3-2h5.1L209.9,128.6z"/>
	<path class="st2" d="M265.6,141c-1.4,0-2.4-0.1-3.1-0.4c-0.6-0.2-1.2-0.6-1.6-1.2c-0.4-0.5-0.7-1.1-0.8-1.7
		c-0.1-0.6-0.1-1.6,0.1-2.7l1.2-8.9h3.1l-1.2,8.8c-0.1,0.9-0.2,1.5-0.1,1.8c0,0.4,0.1,0.6,0.3,0.9c0.2,0.4,0.6,0.6,1,0.8
		c0.4,0.1,1,0.2,1.8,0.2h3.7l-0.3,2.5H265.6z"/>
	<path class="st2" d="M294.1,141h-3.3l2.1-14.9h3.3L294.1,141z"/>
	<path class="st2" d="M322.1,141h-8.2l2.1-14.9h7.7c1,0,1.7,0.1,2.3,0.2c0.6,0.1,1.1,0.3,1.4,0.5c0.5,0.3,0.9,0.8,1.1,1.3
		c0.2,0.5,0.3,1.2,0.2,1.9c-0.1,0.8-0.4,1.5-0.8,2.1c-0.4,0.6-1.1,1.1-1.9,1.5c0.7,0.3,1.2,0.8,1.5,1.3c0.3,0.6,0.4,1.2,0.3,2.1
		c-0.2,1.4-0.7,2.4-1.7,3.1C325.1,140.7,323.8,141,322.1,141z M322,138.4c0.7,0,1.3-0.1,1.6-0.4c0.4-0.3,0.6-0.7,0.7-1.3
		c0.1-0.6,0-1.1-0.3-1.3c-0.3-0.3-0.8-0.4-1.5-0.4h-4.6l-0.5,3.5H322z M318.7,128.8l-0.5,3.5h4.6c0.7,0,1.3-0.1,1.6-0.4
		c0.4-0.3,0.6-0.7,0.7-1.3c0.1-0.6,0-1-0.3-1.3c-0.3-0.3-0.8-0.4-1.5-0.4H318.7z"/>
	<path class="st2" d="M348.3,126.1h7.7c1.8,0,3.1,0.4,3.8,1.1c0.7,0.7,1,1.9,0.8,3.4c-0.2,1.1-0.6,2.1-1.2,2.8
		c-0.6,0.7-1.4,1.2-2.4,1.4l2.8,6.2h-3.5l-2.5-5.9h-3.7l-0.8,5.9h-3.1L348.3,126.1z M354.9,128.7h-3.8l-0.5,3.8h3.8
		c1,0,1.8-0.1,2.2-0.4s0.7-0.8,0.8-1.5c0.1-0.7,0-1.2-0.4-1.4C356.7,128.9,356,128.7,354.9,128.7z"/>
	<path class="st2" d="M385.8,126.1h3.3l4.3,14.9h-3.5l-0.9-3.6h-6.5l-1.8,3.6h-3.3L385.8,126.1z M386.9,129l-3,5.7h4.4L386.9,129z"
		/>
	<path class="st2" d="M413.1,126.1h7.7c1.8,0,3.1,0.4,3.8,1.1c0.7,0.7,1,1.9,0.8,3.4c-0.2,1.1-0.6,2.1-1.2,2.8
		c-0.6,0.7-1.4,1.2-2.4,1.4l2.8,6.2h-3.5l-2.5-5.9H415l-0.8,5.9H411L413.1,126.1z M419.8,128.7h-3.8l-0.5,3.8h3.8
		c1,0,1.8-0.1,2.2-0.4s0.7-0.8,0.8-1.5c0.1-0.7,0-1.2-0.4-1.4C421.5,128.9,420.8,128.7,419.8,128.7z"/>
	<path class="st2" d="M447.6,141h-3.3l2.1-14.9h3.3L447.6,141z"/>
	<path class="st2" d="M475.2,128.7c-1.1,0-2,0.3-2.7,0.9c-0.7,0.6-1.1,1.4-1.3,2.6l8.7,0l-0.4,2.6h-8.7c-0.2,1.3,0,2.2,0.4,2.8
		c0.5,0.6,1.3,0.9,2.6,0.9h5.1l-0.4,2.6h-5.3c-1.2,0-2.1-0.1-2.7-0.3c-0.6-0.2-1.2-0.5-1.7-1c-0.7-0.6-1.1-1.4-1.4-2.4
		c-0.2-1-0.3-2.1-0.1-3.5c0.4-2.6,1.2-4.6,2.5-5.8c1.3-1.3,3.2-1.9,5.6-1.9h5.2l-0.4,2.6H475.2z"/>
	<path class="st2" d="M514.3,128.7h-7.8c-0.8,0-1.5,0.2-1.9,0.5c-0.4,0.3-0.7,0.8-0.8,1.5c-0.1,0.5,0,0.9,0.3,1.2
		c0.3,0.3,0.8,0.4,1.4,0.4h4.2c1.7,0,2.9,0.3,3.5,1c0.6,0.6,0.8,1.7,0.6,3.2c-0.2,1.5-0.8,2.7-1.7,3.4c-0.9,0.7-2.3,1.1-4.1,1.1
		h-8.4l0.4-2.7h7.9c0.9,0,1.5-0.1,1.9-0.4c0.4-0.3,0.6-0.7,0.7-1.3c0.1-0.6,0-1.1-0.3-1.3c-0.3-0.3-0.9-0.4-1.7-0.4h-3.7
		c-1.7,0-2.9-0.3-3.6-1c-0.7-0.7-0.9-1.8-0.7-3.3c0.2-1.6,0.8-2.7,1.7-3.5c0.9-0.7,2.3-1.1,4.1-1.1h8.2L514.3,128.7z"/>
</g>
</svg>
