<?xml version="1.0" encoding="utf-8"?>
<!-- Generator: Adobe Illustrator 22.1.0, SVG Export Plug-In . SVG Version: 6.00 Build 0)  -->
<svg version="1.1" id="icon" xmlns="http://www.w3.org/2000/svg" xmlns:xlink="http://www.w3.org/1999/xlink" x="0px" y="0px"
	 viewBox="0 0 512 512" style="enable-background:new 0 0 512 512;" xml:space="preserve">
<style type="text/css">
	.st0{fill:#FFA000;}
	.st1{fill:#E49003;}
	.st2{fill:#FACA28;}
	.st3{fill:#FFFFFF;}
	.st4{fill:#E0E0E0;}
</style>
<g>
	<g>
		<path class="st0" d="M209,512c-11,0-20-9-20-20V20c0-11,9-20,20-20l184,0c11,0,20,9,20,20v258c0,11,6.4,26.4,14.2,34.2l15.7,15.7
			c7.7,7.7,14.1,23.1,14.1,34.1v130c0,11-9,20-20,20H209z"/>
	</g>
	<rect x="190" y="0" class="st1" width="157" height="512"/>
	<g>
		<path class="st2" d="M305,0c11,0,20,9,20,20v472c0,11-9,20-20,20H75c-11,0-20-9-20-20V20C55,9,64,0,75,0L305,0z"/>
	</g>
	<rect x="325" y="83" class="st3" width="44" height="346"/>
	<rect x="325" y="83" class="st4" width="22" height="346"/>
</g>
</svg>
