<?xml version="1.0" encoding="utf-8"?>
<!-- Generator: Adobe Illustrator 22.1.0, SVG Export Plug-In . SVG Version: 6.00 Build 0)  -->
<svg version="1.1" id="icon" xmlns="http://www.w3.org/2000/svg" xmlns:xlink="http://www.w3.org/1999/xlink" x="0px" y="0px"
	 viewBox="0 0 512 512" style="enable-background:new 0 0 512 512;" xml:space="preserve">
<style type="text/css">
	.st0{font-family:'MyriadPro-Regular';}
	.st1{font-size:12px;}
</style>
<g>
	<path d="M492,99H234c-11,0-26.4-6.4-34.2-14.2l-15.7-15.7C176.4,61.4,161,55,150,55H20C9,55,0,64,0,75v132v96v134c0,11,9,20,20,20
		h472c11,0,20-9,20-20V303v-96v-88C512,108,503,99,492,99z M429,187H83v-44h346V187z"/>
</g>
<text transform="matrix(1 0 0 1 27 242)" class="st0 st1"> (black)</text>
</svg>
