<?xml version="1.0" encoding="utf-8"?>
<!-- Generator: Adobe Illustrator 22.1.0, SVG Export Plug-In . SVG Version: 6.00 Build 0)  -->
<svg version="1.1" id="icon" xmlns="http://www.w3.org/2000/svg" xmlns:xlink="http://www.w3.org/1999/xlink" x="0px" y="0px"
	 viewBox="0 0 512 512" style="enable-background:new 0 0 512 512;" xml:space="preserve">
<style type="text/css">
	.st0{fill:#36434F;}
</style>
<circle class="st0" cx="256" cy="110.2" r="2"/>
<path d="M507.5,381.2l-52.3-21c-1.5-0.6-3.6-1.1-5.6-1.5c0.8-0.9,1.4-2.1,1.4-3.4v-249c0-2.7-2.3-5-5-5.1l-185-3.8
	c-2.8-0.1-7.3-0.1-10,0l-185,3.7c-2.8,0.1-5,2.3-5,5.1v249.1c0,1.3,0.5,2.5,1.3,3.4c-2,0.3-4.1,0.9-5.5,1.5l-52.1,21
	c-2.6,1-4.6,4.1-4.6,6.9v8.8c0,2.8,2.1,5.9,4.6,6.9l21.5,9c2.5,1.1,6.9,1.9,9.6,1.9h440.6c2.8,0,7.1-0.9,9.6-1.9l21.5-9
	c2.5-1.1,4.6-4.2,4.6-6.9v-8.8C512.1,385.3,510,382.3,507.5,381.2L507.5,381.2z M280.8,108.7c0.8,0,1.5,0.7,1.5,1.5
	s-0.7,1.5-1.5,1.5s-1.5-0.7-1.5-1.5S280,108.7,280.8,108.7z M246.6,108.8c0-1.1,0.9-2,2-2h14.8c1.1,0,2,0.9,2,2v2.9c0,1.1-0.9,2-2,2
	h-14.8c-1.1,0-2-0.9-2-2V108.8z M231.2,108.7c0.8,0,1.5,0.7,1.5,1.5s-0.7,1.5-1.5,1.5s-1.5-0.7-1.5-1.5S230.4,108.7,231.2,108.7z
	 M78,127.9c0-2.8,2.3-5,5-5h345.9c2.8,0,5,2.3,5,5l0.1,189.9c0,2.8-2.3,5-5,5H83c-2.8,0-5-2.3-5-5V127.9z M110.9,395.9
	c0,1.1-0.9,2-2,2h-98c-1.1,0-2-0.9-2-2v-1c0-1.1,0.9-2,2-2h98c1.1,0,2,0.9,2,2V395.9z M317.4,374.1H73.9c-1.1,0-1.2-0.4-0.3-1
	l18.3-10.8c0.9-0.5,2.6-1,3.7-1h320.8c1.1,0,2.8,0.4,3.7,1l18.4,10.8c0.9,0.5,0.8,1-0.3,1H317.4z M503.1,395.9c0,1.1-0.9,2-2,2h-98
	c-1.1,0-2-0.9-2-2v-1c0-1.1,0.9-2,2-2h98c1.1,0,2,0.9,2,2V395.9z"/>
</svg>
