<?xml version="1.0" encoding="utf-8"?>
<!-- Generator: Adobe Illustrator 22.1.0, SVG Export Plug-In . SVG Version: 6.00 Build 0)  -->
<svg version="1.1" id="Layer_1" xmlns="http://www.w3.org/2000/svg" xmlns:xlink="http://www.w3.org/1999/xlink" x="0px" y="0px"
	 viewBox="0 0 512 512" style="enable-background:new 0 0 512 512;" xml:space="preserve">
<path d="M507.5,375.4l-52-23.8c-1.8-0.8-4.5-1.5-6.9-1.9c1.4-0.9,2.4-2.5,2.4-4.2v-224c0-2.8-2.3-5-5-5H66c-2.8,0-5,2.3-5,5v224
	c0,1.8,0.9,3.3,2.3,4.2c-2.4,0.3-5,1-6.8,1.9l-52,23.8C2,376.6,0,379.8,0,382.5v7c0,2.8,2.3,5,5,5h502c2.8,0,5-2.3,5-5v-7
	C512,379.7,510,376.6,507.5,375.4z M256,119c2.8,0,5,2.2,5,5s-2.2,5-5,5s-5-2.2-5-5S253.2,119,256,119z M78,137.5c0-2.8,2.3-5,5-5
	h345.9c2.8,0,5,2.3,5,5l0.1,190c0,2.8-2.3,5-5,5H83c-2.8,0-5-2.3-5-5V137.5z M438.2,373.6H73.9c-1.1,0-1.2-0.4-0.3-1l18.3-10.8
	c0.9-0.5,2.6-1,3.7-1h320.8c1.1,0,2.8,0.4,3.7,1l18.4,10.8C439.4,373.1,439.3,373.6,438.2,373.6L438.2,373.6z"/>
</svg>
